<svg width="1440" height="1722" viewBox="0 0 1440 1722" fill="none" xmlns="http://www.w3.org/2000/svg">
<g filter="url(#filter0_f_64_205)">
<path d="M640.083 810.083C845.257 1015.26 1177.91 1015.26 1383.08 810.083C1588.26 604.91 1588.26 272.257 1383.08 67.0835C1177.91 -138.09 845.257 -138.09 640.083 67.0835C434.91 272.257 434.91 604.91 640.083 810.083Z" fill="#000026"/>
<mask id="mask0_64_205" style="mask-type:alpha" maskUnits="userSpaceOnUse" x="486" y="-87" width="1051" height="1051">
<path d="M640.083 810.083C845.257 1015.26 1177.91 1015.26 1383.08 810.083C1588.26 604.91 1588.26 272.257 1383.08 67.0835C1177.91 -138.09 845.257 -138.09 640.083 67.0835C434.91 272.257 434.91 604.91 640.083 810.083Z" fill="#000026"/>
</mask>
<g mask="url(#mask0_64_205)">
<path opacity="0.1" d="M640.084 810.083C845.258 1015.26 1177.91 1015.26 1383.08 810.083C1588.26 604.909 1588.26 272.257 1383.08 67.0827C1177.91 -138.091 845.258 -138.091 640.084 67.0827C434.91 272.257 434.91 604.909 640.084 810.083Z" fill="url(#paint0_linear_64_205)"/>
<path d="M1387.73 62.4336C1357.55 32.2493 1322.72 6.70864 1287.89 -14.1882C1311.11 22.9618 1306.47 69.3993 1273.96 101.906C1250.74 125.124 1253.06 159.952 1273.96 180.849C1297.18 204.068 1332.01 201.746 1352.9 180.849C1383.09 155.309 1401.66 122.802 1410.95 85.6524C1406.31 81.0086 1401.66 76.3649 1399.34 74.043L1387.73 62.4336Z" fill="#00C5FF"/>
<path d="M686.522 554.674C770.11 638.261 900.135 638.261 981.4 556.995C1004.62 533.777 1002.3 498.949 981.4 478.052C958.182 454.833 923.353 457.155 902.457 478.052C865.307 515.202 804.938 515.202 767.788 478.052L765.466 475.73C728.316 438.58 730.638 380.533 765.466 345.705L1141.61 -30.4389C1157.86 -46.692 1176.44 -55.9795 1195.01 -55.9795C1143.93 -74.5545 1090.53 -86.1639 1039.45 -86.1639L686.522 266.761C605.257 343.383 605.256 473.408 686.522 554.674Z" fill="#FF7CA6"/>
<path d="M1350.58 322.48C1266.99 238.893 1136.97 238.893 1055.7 320.158C1032.48 343.377 1034.81 378.205 1055.7 399.102C1078.92 422.321 1113.75 419.999 1134.65 399.102C1171.8 361.952 1232.17 361.952 1269.32 399.102L1271.64 401.424C1308.79 438.574 1308.79 498.943 1271.64 536.093L895.494 912.236C879.241 928.49 860.666 937.777 837.447 937.777C888.529 956.352 939.61 965.64 995.335 970.283L1350.58 615.036C1431.85 538.414 1431.85 403.746 1350.58 322.48Z" fill="#9B5AFF"/>
<path d="M654.015 819.371C684.199 849.555 714.384 875.096 749.212 895.993C725.993 858.843 728.315 810.083 760.821 777.577C784.04 754.358 781.718 719.53 760.821 698.634C737.602 675.415 702.774 677.737 681.877 698.633C654.015 726.496 635.44 759.002 628.474 793.83C633.118 798.474 637.762 803.118 644.727 810.083L654.015 819.371Z" fill="#FFA834"/>
</g>
</g>
<defs>
<filter id="filter0_f_64_205" x="386.203" y="-186.797" width="1250.76" height="1250.76" filterUnits="userSpaceOnUse" color-interpolation-filters="sRGB">
<feFlood flood-opacity="0" result="BackgroundImageFix"/>
<feBlend mode="normal" in="SourceGraphic" in2="BackgroundImageFix" result="shape"/>
<feGaussianBlur stdDeviation="50" result="effect1_foregroundBlur_64_205"/>
</filter>
<linearGradient id="paint0_linear_64_205" x1="485.651" y1="439.163" x2="1536.55" y2="439.163" gradientUnits="userSpaceOnUse">
<stop stop-color="#1DBCFF" stop-opacity="0"/>
<stop offset="1" stop-color="#00B4FF"/>
</linearGradient>
</defs>
</svg>
