<svg width="1172" height="1182" viewBox="0 0 1172 1182" fill="none" xmlns="http://www.w3.org/2000/svg">
<path d="M372.083 810.083C577.257 1015.26 909.91 1015.26 1115.08 810.083C1320.26 604.91 1320.26 272.257 1115.08 67.0835C909.91 -138.09 577.257 -138.09 372.083 67.0835C166.91 272.257 166.91 604.91 372.083 810.083Z" fill="#000026"/>
<mask id="mask0_241_226" style="mask-type:alpha" maskUnits="userSpaceOnUse" x="218" y="-87" width="1051" height="1051">
<path d="M372.083 810.083C577.257 1015.26 909.91 1015.26 1115.08 810.083C1320.26 604.91 1320.26 272.257 1115.08 67.0835C909.91 -138.09 577.257 -138.09 372.083 67.0835C166.91 272.257 166.91 604.91 372.083 810.083Z" fill="#000026"/>
</mask>
<g mask="url(#mask0_241_226)">
<path opacity="0.1" d="M372.084 810.083C577.258 1015.26 909.91 1015.26 1115.08 810.083C1320.26 604.909 1320.26 272.257 1115.08 67.0827C909.91 -138.091 577.258 -138.091 372.084 67.0827C166.91 272.257 166.91 604.909 372.084 810.083Z" fill="url(#paint0_linear_241_226)"/>
<path d="M1119.73 62.4336C1089.55 32.2493 1054.72 6.70864 1019.89 -14.1882C1043.11 22.9618 1038.47 69.3993 1005.96 101.906C982.74 125.124 985.062 159.952 1005.96 180.849C1029.18 204.068 1064.01 201.746 1084.9 180.849C1115.09 155.309 1133.66 122.802 1142.95 85.6524C1138.31 81.0086 1133.66 76.3649 1131.34 74.043L1119.73 62.4336Z" fill="#00C5FF"/>
<path d="M418.522 554.674C502.11 638.261 632.135 638.261 713.4 556.995C736.619 533.777 734.297 498.949 713.4 478.052C690.182 454.833 655.353 457.155 634.457 478.052C597.307 515.202 536.938 515.202 499.788 478.052L497.466 475.73C460.316 438.58 462.638 380.533 497.466 345.705L873.61 -30.4389C889.863 -46.692 908.438 -55.9795 927.013 -55.9795C875.931 -74.5545 822.528 -86.1639 771.447 -86.1639L418.522 266.761C337.257 343.383 337.256 473.408 418.522 554.674Z" fill="#FF7CA6"/>
<path d="M1082.58 322.48C998.994 238.893 868.969 238.893 787.704 320.158C764.485 343.377 766.807 378.205 787.704 399.102C810.922 422.321 845.751 419.999 866.647 399.102C903.797 361.952 964.166 361.952 1001.32 399.102L1003.64 401.424C1040.79 438.574 1040.79 498.943 1003.64 536.093L627.494 912.236C611.241 928.49 592.666 937.777 569.447 937.777C620.529 956.352 671.61 965.64 727.335 970.283L1082.58 615.036C1163.85 538.414 1163.85 403.746 1082.58 322.48Z" fill="#9B5AFF"/>
<path d="M386.015 819.371C416.199 849.555 446.384 875.096 481.212 895.993C457.993 858.843 460.315 810.083 492.821 777.577C516.04 754.358 513.718 719.53 492.821 698.634C469.602 675.415 434.774 677.737 413.877 698.633C386.015 726.496 367.44 759.002 360.474 793.83C365.118 798.474 369.762 803.118 376.727 810.083L386.015 819.371Z" fill="#FFA834"/>
</g>
<defs>
<linearGradient id="paint0_linear_241_226" x1="217.651" y1="439.163" x2="1268.55" y2="439.163" gradientUnits="userSpaceOnUse">
<stop stop-color="#1DBCFF" stop-opacity="0"/>
<stop offset="1" stop-color="#00B4FF"/>
</linearGradient>
</defs>
</svg>
