<svg width="600" height="600" viewBox="0 0 600 600" fill="none" xmlns="http://www.w3.org/2000/svg">
<path d="M16 32.2C24.8366 32.2 32 25.0365 32 16.2C32 7.36339 24.8366 0.199951 16 0.199951C7.16344 0.199951 0 7.36339 0 16.2C0 25.0365 7.16344 32.2 16 32.2Z" fill="#000026"/>
<path opacity="0.1" d="M16 32.2C24.8366 32.2 32 25.0365 32 16.2C32 7.36339 24.8366 0.199951 16 0.199951C7.16344 0.199951 0 7.36339 0 16.2C0 25.0365 7.16344 32.2 16 32.2Z" fill="url(#paint0_linear_38_579)"/>
<path d="M16 0C14.7 0 13.4 0.2 12.2 0.5C13.5 0.8 14.4 1.9 14.4 3.3C14.4 4.3 15.2 5 16.1 5C17.1 5 17.8 4.2 17.8 3.3C17.9 2.1 17.6 1 17 0C16.8 0 16.6 0 16.5 0H16Z" fill="#00C5FF"/>
<path d="M11.5 25.7001C15.1 25.7001 17.9 22.9001 17.9 19.4001C17.9 18.4001 17.1 17.7001 16.2 17.7001C15.2 17.7001 14.5 18.5001 14.5 19.4001C14.5 21.0001 13.2 22.3001 11.6 22.3001H11.5C9.90002 22.3001 8.70002 21.0001 8.70002 19.5001V3.3001C8.70002 2.6001 8.90002 2.0001 9.30002 1.6001C7.80002 2.3001 6.40002 3.2001 5.30002 4.3001V19.5001C5.20002 22.9001 8.00002 25.7001 11.5 25.7001Z" fill="#FF7CA6"/>
<path d="M20.8 6.3999C17.2 6.3999 14.4 9.1999 14.4 12.6999C14.4 13.6999 15.2 14.3999 16.1 14.3999C17.1 14.3999 17.8 13.5999 17.8 12.6999C17.8 11.0999 19.1 9.7999 20.7 9.7999H20.8C22.4 9.7999 23.7 11.0999 23.7 12.6999V28.8999C23.7 29.5999 23.5 30.1999 23 30.6999C24.5 29.9999 25.8 29.0999 27.1 27.9999V12.6999C27.2 9.2999 24.3 6.3999 20.8 6.3999Z" fill="#9B5AFF"/>
<path d="M16.5 32.0999C17.8 32.0999 19 32 20.2 31.7C18.9 31.4 17.9 30.3 17.9 28.9C17.9 27.9 17.1 27.2 16.2 27.2C15.2 27.2 14.5 28 14.5 28.9C14.5 30.1 14.8 31.1999 15.4 32.0999C15.6 32.0999 15.8 32.0999 16.1 32.0999H16.5Z" fill="#FFA834"/>
<defs>
<linearGradient id="paint0_linear_38_579" x1="4.6869" y1="27.5381" x2="27.3173" y2="4.90765" gradientUnits="userSpaceOnUse">
<stop stop-color="#1DBCFF" stop-opacity="0"/>
<stop offset="1" stop-color="#00B4FF"/>
</linearGradient>
</defs>
</svg>
