<svg width="23" height="33" viewBox="0 0 23 33" fill="none" xmlns="http://www.w3.org/2000/svg">
<path d="M11 0C9.70001 0 8.40001 0.2 7.20001 0.5C8.50001 0.8 9.40001 1.9 9.40001 3.3C9.40001 4.3 10.2 5 11.1 5C12.1 5 12.8 4.2 12.8 3.3C12.9 2.1 12.6 1 12 0C11.8 0 11.6 0 11.5 0H11Z" fill="#00C5FF"/>
<path d="M6.50002 25.7001C10.1 25.7001 12.9 22.9001 12.9 19.4001C12.9 18.4001 12.1 17.7001 11.2 17.7001C10.2 17.7001 9.50002 18.5001 9.50002 19.4001C9.50002 21.0001 8.20002 22.3001 6.60002 22.3001H6.50002C4.90002 22.3001 3.70002 21.0001 3.70002 19.5001V3.3001C3.70002 2.6001 3.90002 2.0001 4.30002 1.6001C2.80002 2.3001 1.40002 3.2001 0.300022 4.3001V19.5001C0.200022 22.9001 3.00002 25.7001 6.50002 25.7001Z" fill="#FF7CA6"/>
<path d="M15.8 6.3999C12.2 6.3999 9.40002 9.1999 9.40002 12.6999C9.40002 13.6999 10.2 14.3999 11.1 14.3999C12.1 14.3999 12.8 13.5999 12.8 12.6999C12.8 11.0999 14.1 9.7999 15.7 9.7999H15.8C17.4 9.7999 18.7 11.0999 18.7 12.6999V28.8999C18.7 29.5999 18.5 30.1999 18 30.6999C19.5 29.9999 20.8 29.0999 22.1 27.9999V12.6999C22.2 9.2999 19.3 6.3999 15.8 6.3999Z" fill="#9B5AFF"/>
<path d="M11.5 32.0999C12.8 32.0999 14 32 15.2 31.7C13.9 31.4 12.9 30.3 12.9 28.9C12.9 27.9 12.1 27.2 11.2 27.2C10.2 27.2 9.5 28 9.5 28.9C9.5 30.1 9.8 31.1999 10.4 32.0999C10.6 32.0999 10.8 32.0999 11.1 32.0999H11.5Z" fill="#FFA834"/>
</svg>
