<svg width="30" height="19" viewBox="0 0 30 19" fill="none" xmlns="http://www.w3.org/2000/svg">
<path d="M0.274 8.028L2.224 0.799999H4.954L3.914 8.028H0.274ZM11.5734 0.799999H14.6934V19H11.1054V4.596L7.67344 5.558L6.78944 2.49L11.5734 0.799999ZM29.8181 6.754C29.8181 8.158 29.4541 9.38867 28.7261 10.446H28.7521L23.0841 19H18.9761L23.0321 13.072C21.1428 13.0373 19.6001 12.4393 18.4041 11.278C17.2255 10.0993 16.6361 8.59133 16.6361 6.754C16.6361 4.89933 17.2428 3.38267 18.4561 2.204C19.6868 1.02533 21.2728 0.435999 23.2141 0.435999C25.1728 0.435999 26.7588 1.02533 27.9721 2.204C29.2028 3.36533 29.8181 4.882 29.8181 6.754ZM20.1981 6.754C20.1981 7.65533 20.4841 8.37467 21.0561 8.912C21.6455 9.44933 22.3648 9.718 23.2141 9.718C24.0981 9.718 24.8261 9.44933 25.3981 8.912C25.9701 8.37467 26.2561 7.65533 26.2561 6.754C26.2561 5.85267 25.9701 5.142 25.3981 4.622C24.8261 4.08467 24.0981 3.816 23.2141 3.816C22.3648 3.816 21.6455 4.08467 21.0561 4.622C20.4841 5.15933 20.1981 5.87 20.1981 6.754Z" fill="#314FA5"/>
</svg>
