<svg width="100" height="100" viewBox="0 0 100 100" fill="none" xmlns="http://www.w3.org/2000/svg">
<path d="M54.7127 8.51051H43.7705C43.6108 8.51051 43.4527 8.47904 43.3052 8.41794C43.1577 8.35684 43.0237 8.26731 42.9108 8.15441C42.7979 8.04151 42.7083 7.90746 42.6472 7.75995C42.5861 7.61244 42.5547 7.45434 42.5547 7.29468C42.5547 6.68677 43.1626 6.38281 43.7705 6.38281H54.7127C55.3206 6.38281 55.9285 6.68677 55.9285 7.29468C55.9285 7.61713 55.8004 7.9264 55.5724 8.15441C55.3444 8.38242 55.0352 8.51051 54.7127 8.51051Z" fill="#00007E"/>
<path d="M57.4501 82.9758H26.751C26.4285 82.9758 26.1193 82.8477 25.8913 82.6197C25.6632 82.3917 25.5352 82.0824 25.5352 81.7599V15.8025C25.5352 15.1946 26.1431 14.8906 26.751 14.8906H73.5595C73.8013 14.8906 74.0332 14.9867 74.2043 15.1577C74.3753 15.3287 74.4714 15.5606 74.4714 15.8025V43.4621C74.4714 44.07 74.1674 44.6779 73.5595 44.6779C73.237 44.6779 72.9278 44.5498 72.6998 44.3218C72.4718 44.0938 72.3437 43.7845 72.3437 43.4621V17.0183H27.6628V80.8481H57.4501C58.058 80.8481 58.6659 81.152 58.6659 81.7599C58.6659 82.0824 58.5378 82.3917 58.3098 82.6197C58.0818 82.8477 57.7725 82.9758 57.4501 82.9758Z" fill="#00007E"/>
<path d="M75.3782 100H24.6183C22.5755 99.9214 20.6427 99.0542 19.2258 97.5806C17.8088 96.107 17.018 94.1416 17.0195 92.0973V7.59879C17.0195 5.58346 17.8201 3.65065 19.2452 2.2256C20.6702 0.800555 22.603 0 24.6183 0H75.3782C77.3936 0 79.3263 0.800555 80.7514 2.2256C82.1764 3.65065 82.977 5.58346 82.977 7.59879V92.0973C82.9785 94.1416 82.1878 96.107 80.7708 97.5806C79.3539 99.0542 77.4211 99.9214 75.3782 100ZM24.6183 2.12765C23.1673 2.12765 21.7757 2.70407 20.7497 3.7301C19.7236 4.75614 19.1472 6.14775 19.1472 7.59879V92.0973C19.1452 93.5777 19.7117 95.0023 20.7298 96.0771C21.748 97.1518 23.14 97.7944 24.6183 97.8724H75.3782C76.8566 97.7944 78.2486 97.1518 79.2667 96.0771C80.2849 95.0023 80.8514 93.5777 80.8493 92.0973V7.59879C80.8493 6.88031 80.7078 6.16887 80.4329 5.50508C80.1579 4.8413 79.7549 4.23814 79.2469 3.7301C78.7388 3.22206 78.1357 2.81909 77.4719 2.54414C76.8082 2.26919 76.0967 2.12765 75.3782 2.12765H24.6183Z" fill="#00007E"/>
<path d="M73.5595 82.9758H26.751C26.4285 82.9758 26.1193 82.8477 25.8913 82.6197C25.6632 82.3917 25.5352 82.0824 25.5352 81.7599V15.8025C25.5352 15.1946 26.1431 14.8906 26.751 14.8906H73.5595C73.8013 14.8906 74.0332 14.9867 74.2043 15.1577C74.3753 15.3287 74.4714 15.5606 74.4714 15.8025V81.7599C74.4714 82.3678 74.1674 82.9758 73.5595 82.9758ZM27.6628 80.8481H72.3437V17.0183H27.6628V80.8481Z" fill="#00007E"/>
<path d="M9.72644 29.7867H1.21579C0.893335 29.7867 0.584108 29.6586 0.3561 29.4306C0.128093 29.2026 0 28.8934 0 28.5709V20.0603C0 19.4524 0.607884 19.1484 1.21579 19.1484H9.72644C9.96828 19.1484 10.2002 19.2445 10.3712 19.4155C10.5422 19.5865 10.6383 19.8184 10.6383 20.0603V28.5709C10.6383 29.1788 10.3343 29.7867 9.72644 29.7867ZM2.12765 27.659H8.51065V21.2761H2.12765V27.659Z" fill="#00007E"/>
<path d="M33.1318 25.5261H9.72751C9.56784 25.5261 9.40974 25.4947 9.26223 25.4336C9.11472 25.3725 8.98072 25.2829 8.86782 25.17C8.75492 25.0571 8.66535 24.9231 8.60425 24.7756C8.54315 24.6281 8.51172 24.47 8.51172 24.3103C8.51172 23.7024 9.1196 23.3984 9.72751 23.3984H33.1318C33.3736 23.3984 33.6055 23.4945 33.7765 23.6655C33.9475 23.8365 34.0436 24.0685 34.0436 24.3103C34.0436 24.9182 33.7397 25.5261 33.1318 25.5261Z" fill="#00007E"/>
<path d="M9.72644 78.7164H1.21579C1.05613 78.7164 0.898018 78.685 0.75051 78.6239C0.603002 78.5628 0.468998 78.4732 0.3561 78.3603C0.243202 78.2474 0.153627 78.1134 0.0925267 77.9659C0.0314268 77.8184 0 77.6603 0 77.5006V68.99C0 68.3821 0.607884 68.0781 1.21579 68.0781H9.72644C9.96828 68.0781 10.2002 68.1742 10.3712 68.3452C10.5422 68.5162 10.6383 68.7481 10.6383 68.99V77.5006C10.6383 78.1085 10.3343 78.7164 9.72644 78.7164ZM2.12765 76.5888H8.51065V70.2058H2.12765V76.5888Z" fill="#00007E"/>
<path d="M33.1318 74.4636H9.72751C9.40505 74.4636 9.09583 74.3355 8.86782 74.1075C8.63981 73.8795 8.51172 73.5702 8.51172 73.2478C8.51172 72.6399 9.1196 72.3359 9.72751 72.3359H33.1318C33.3736 72.3359 33.6055 72.432 33.7765 72.603C33.9475 72.774 34.0436 73.0059 34.0436 73.2478C34.0436 73.8557 33.7397 74.4636 33.1318 74.4636Z" fill="#00007E"/>
<path d="M99.0858 78.7164H90.5752C90.4155 78.7164 90.2574 78.685 90.1099 78.6239C89.9624 78.5628 89.8284 78.4732 89.7155 78.3603C89.6026 78.2474 89.513 78.1134 89.4519 77.9659C89.3908 77.8184 89.3594 77.6603 89.3594 77.5006V68.99C89.3594 68.3821 89.9673 68.0781 90.5752 68.0781H99.0858C99.3277 68.0781 99.5596 68.1742 99.7306 68.3452C99.9016 68.5162 99.9977 68.7481 99.9977 68.99V77.5006C100.006 77.7767 99.9209 78.0476 99.7551 78.2685C99.5894 78.4895 99.3533 78.6475 99.0858 78.7164ZM91.487 76.5888H97.87V70.2058H91.487V76.5888Z" fill="#00007E"/>
<path d="M90.5771 74.4636H67.1728C66.8504 74.4636 66.5411 74.3355 66.3131 74.1075C66.0851 73.8795 65.957 73.5702 65.957 73.2478C65.957 72.6399 66.5649 72.3359 67.1728 72.3359H90.5771C90.819 72.3359 91.0509 72.432 91.2219 72.603C91.3929 72.774 91.4889 73.0059 91.4889 73.2478C91.4977 73.5239 91.4122 73.7947 91.2464 74.0157C91.0807 74.2367 90.8446 74.3947 90.5771 74.4636Z" fill="#00007E"/>
<path d="M99.0858 29.7867H90.5752C90.2528 29.7867 89.9435 29.6586 89.7155 29.4306C89.4875 29.2026 89.3594 28.8934 89.3594 28.5709V20.0603C89.3594 19.4524 89.9673 19.1484 90.5752 19.1484H99.0858C99.3277 19.1484 99.5596 19.2445 99.7306 19.4155C99.9016 19.5865 99.9977 19.8184 99.9977 20.0603V28.5709C100.006 28.847 99.9209 29.1179 99.7551 29.3389C99.5894 29.5598 99.3533 29.7178 99.0858 29.7867ZM91.487 27.659H97.87V21.2761H91.487V27.659Z" fill="#00007E"/>
<path d="M90.5771 25.5261H67.1728C67.0132 25.5261 66.8551 25.4947 66.7076 25.4336C66.5601 25.3725 66.426 25.2829 66.3131 25.17C66.2002 25.0571 66.1107 24.9231 66.0496 24.7756C65.9885 24.6281 65.957 24.47 65.957 24.3103C65.957 23.7024 66.5649 23.3984 67.1728 23.3984H90.5771C90.819 23.3984 91.0509 23.4945 91.2219 23.6655C91.3929 23.8365 91.4889 24.0685 91.4889 24.3103C91.4977 24.5864 91.4122 24.8572 91.2464 25.0782C91.0807 25.2992 90.8446 25.4572 90.5771 25.5261Z" fill="#00007E"/>
<path d="M50.1511 61.702C45.3144 61.702 40.6757 59.7806 37.2556 56.3605C33.8355 52.9404 31.9141 48.3017 31.9141 43.465C32.0703 38.8977 34.2423 33.3143 37.5703 30.3906C40.8983 27.467 45.0703 25.3906 50.1511 25.3906C55.5703 25.3906 59.5227 27.967 62.8507 30.8906C66.1787 33.8143 68.0836 38.8977 68.0843 43.465C68.0849 48.2495 66.2053 52.8427 62.8507 56.2542C59.496 59.6657 54.9351 61.6223 50.1511 61.702ZM50.1511 27.6594C48.0501 27.619 45.9621 27.998 44.0093 28.7742C42.0564 29.5504 40.278 30.7082 38.778 32.1799C37.2779 33.6517 36.0865 35.4077 35.2732 37.3454C34.46 39.2831 34.0413 41.3635 34.0417 43.465C34.0417 47.7374 35.739 51.8349 38.7601 54.856C41.7812 57.8771 45.8787 59.5743 50.1511 59.5743C52.2526 59.5747 54.333 59.1561 56.2707 58.3428C58.2084 57.5296 59.9644 56.3381 61.4362 54.8381C62.9079 53.3381 64.0657 51.5597 64.8419 49.6068C65.6181 47.654 65.997 45.566 65.9566 43.465C65.9566 39.2731 64.2914 35.2529 61.3273 32.2888C58.3632 29.3247 54.343 27.6594 50.1511 27.6594Z" fill="#00007E"/>
<path d="M57.4466 46.8162H56.8387C56.2308 46.2083 56.2308 45.6004 56.8387 45.2964L59.2704 42.8648L56.8387 40.4332C56.2308 39.8253 56.2308 39.2174 56.8387 38.9135C57.4466 38.6095 57.7506 38.3056 58.3585 38.9135L61.398 41.953C61.5314 42.184 61.6016 42.4461 61.6016 42.7129C61.6016 42.9796 61.5314 43.2417 61.398 43.4727L58.3585 46.8162H57.4466Z" fill="#00007E"/>
<path d="M42.5534 46.8118H41.9455L38.602 43.4683C38.4687 43.2373 38.3984 42.9752 38.3984 42.7084C38.3984 42.4417 38.4687 42.1796 38.602 41.9486L41.9455 38.9091C42.2495 38.3011 42.8574 38.3011 43.4653 38.9091C43.6379 39.1247 43.732 39.3927 43.732 39.6689C43.732 39.9452 43.6379 40.2132 43.4653 40.4288L41.0337 42.8604L43.4653 45.292C43.6379 45.5076 43.732 45.7756 43.732 46.0519C43.732 46.3281 43.6379 46.5961 43.4653 46.8118H42.5534Z" fill="#00007E"/>
<path d="M48.0244 51.06H47.7205C47.1126 51.06 46.8086 50.4521 46.8086 49.8442L51.0639 34.9506C51.1961 34.6782 51.4251 34.465 51.7062 34.3526C51.9873 34.2401 52.3002 34.2366 52.5837 34.3427C52.8877 34.3427 53.1916 34.9506 53.1916 35.5585L48.9362 50.4521C48.8707 50.6385 48.7463 50.7987 48.5819 50.9083C48.4174 51.018 48.2218 51.0712 48.0244 51.06Z" fill="#00007E"/>
<path d="M56.5361 72.3335C56.2136 72.3335 55.9044 72.2054 55.6764 71.9774C55.4484 71.7494 55.3203 71.4401 55.3203 71.1176V68.99C55.3203 68.3821 55.9282 68.0781 56.5361 68.0781C56.7779 68.0781 57.0099 68.1742 57.1809 68.3452C57.3519 68.5162 57.448 68.7481 57.448 68.99V71.1176C57.448 71.7255 57.144 72.3335 56.5361 72.3335Z" fill="#00007E"/>
<path d="M50.1533 72.3335C49.8309 72.3335 49.5216 72.2054 49.2936 71.9774C49.0656 71.7494 48.9375 71.4401 48.9375 71.1176V68.99C48.9375 68.3821 49.5454 68.0781 50.1533 68.0781C50.3952 68.0781 50.6271 68.1742 50.7981 68.3452C50.9691 68.5162 51.0652 68.7481 51.0652 68.99V71.1176C51.0652 71.7255 50.7612 72.3335 50.1533 72.3335Z" fill="#00007E"/>
<path d="M43.7705 72.3335C43.448 72.3335 43.1388 72.2054 42.9108 71.9774C42.6828 71.7494 42.5547 71.4401 42.5547 71.1176V68.99C42.5547 68.3821 43.1626 68.0781 43.7705 68.0781C44.0123 68.0781 44.2442 68.1742 44.4152 68.3452C44.5862 68.5162 44.6823 68.7481 44.6823 68.99V71.1176C44.6823 71.7255 44.3784 72.3335 43.7705 72.3335Z" fill="#00007E"/>
<path d="M50.1506 93.6215C52.3329 93.6215 54.102 91.8524 54.102 89.6701C54.102 87.4878 52.3329 85.7188 50.1506 85.7188C47.9683 85.7188 46.1992 87.4878 46.1992 89.6701C46.1992 91.8524 47.9683 93.6215 50.1506 93.6215Z" fill="#00007E"/>
</svg>
