<svg width="94" height="100" viewBox="0 0 94 100" fill="none" xmlns="http://www.w3.org/2000/svg">
<path d="M62.3022 99.9988H28.8708C28.7608 99.8755 28.6772 99.731 28.6249 99.5742C28.5727 99.4175 28.5529 99.2517 28.5668 99.0871L34.6453 78.4203C34.7868 78.2316 34.9704 78.0784 35.1814 77.9729C35.3924 77.8674 35.6251 77.8125 35.8611 77.8125H56.2238C56.5277 77.8125 57.1356 78.1164 57.1356 78.4203L63.2141 98.7831V99.391C63.1485 99.5774 63.0241 99.7375 62.8597 99.8472C62.6952 99.9568 62.4996 100.01 62.3022 99.9988ZM30.9983 97.8713H60.7826L55.3121 79.636H36.4688L30.9983 97.8713Z" fill="#00007E"/>
<path d="M72.6372 100.002H19.4508C19.209 100.002 18.9771 99.9064 18.8061 99.7354C18.6351 99.5644 18.5391 99.3325 18.5391 99.0907C18.5391 98.4829 18.8429 97.875 19.4508 97.875H72.6372C72.9047 97.9439 73.1408 98.1019 73.3065 98.3228C73.4722 98.5438 73.5578 98.8146 73.549 99.0907L72.6372 100.002Z" fill="#00007E"/>
<path d="M15.5001 65.3546H1.21567C0.89325 65.3546 0.584052 65.2265 0.356066 64.9986C0.12808 64.7706 0 64.4614 0 64.1389C0.0689147 63.8715 0.226919 63.6354 0.447889 63.4697C0.668858 63.304 0.939598 63.2184 1.21567 63.2272H15.5001C15.7419 63.2272 15.9738 63.3232 16.1448 63.4942C16.3158 63.6652 16.4118 63.8971 16.4118 64.1389C16.4118 64.7468 16.1079 65.3546 15.5001 65.3546Z" fill="#00007E"/>
<path d="M92.9966 65.354H24.3102C23.7023 65.354 23.3984 64.7462 23.3984 64.1383C23.3984 64.0186 23.422 63.9 23.4678 63.7894C23.5136 63.6788 23.5808 63.5783 23.6655 63.4936C23.7501 63.4089 23.8506 63.3418 23.9612 63.296C24.0719 63.2501 24.1904 63.2266 24.3102 63.2266H92.9966C93.2385 63.2266 93.4704 63.3226 93.6413 63.4936C93.8123 63.6646 93.9084 63.8965 93.9084 64.1383C93.9084 64.7462 93.6045 65.354 92.9966 65.354Z" fill="#00007E"/>
<path d="M83.8796 63.8275C83.6378 63.8275 83.4059 63.7314 83.2349 63.5604C83.0639 63.3894 82.9679 63.1575 82.9679 62.9157V19.1509H71.1149C70.873 19.1509 70.6411 19.0548 70.4702 18.8838C70.2992 18.7128 70.2031 18.4809 70.2031 18.2391C70.2031 17.6313 70.507 17.0234 71.1149 17.0234H83.8796C84.2021 17.0234 84.5113 17.1515 84.7392 17.3795C84.9672 17.6075 85.0953 17.9167 85.0953 18.2391V62.9157C85.0953 63.5236 84.4875 63.8275 83.8796 63.8275Z" fill="#00007E"/>
<path d="M9.42015 63.8275C9.17834 63.8275 8.94644 63.7314 8.77545 63.5604C8.60446 63.3894 8.50842 63.1575 8.50842 62.9157V18.2391C8.49969 17.963 8.58514 17.6922 8.75087 17.4713C8.9166 17.2503 9.15268 17.0924 9.42015 17.0234H22.1849C22.5073 17.0234 22.8165 17.1515 23.0445 17.3795C23.2725 17.6075 23.4006 17.9167 23.4006 18.2391C23.4006 18.847 22.7928 19.1509 22.1849 19.1509H10.6358V62.9157C10.6358 63.5236 10.028 63.8275 9.42015 63.8275Z" fill="#00007E"/>
<path d="M20.0595 93.6118H0.912431C0.670615 93.6118 0.438624 93.5158 0.267635 93.3448C0.0966454 93.1738 0.000608384 92.9419 0.000608384 92.7C-0.00812684 92.424 0.0774222 92.1532 0.243149 91.9322C0.408876 91.7112 0.644955 91.5533 0.912431 91.4844H20.0595C20.3819 91.4844 20.6911 91.6125 20.9191 91.8404C21.1471 92.0684 21.2752 92.3776 21.2752 92.7C21.2752 93.3079 20.6673 93.6118 20.0595 93.6118Z" fill="#00007E"/>
<path d="M9.42222 87.229H0.912431C0.670615 87.229 0.438624 87.133 0.267635 86.962C0.0966454 86.791 0.000608384 86.5591 0.000608384 86.3173C-0.00812684 86.0412 0.0774222 85.7704 0.243149 85.5494C0.408876 85.3284 0.644955 85.1705 0.912431 85.1016H9.42222C9.74464 85.1016 10.0538 85.2296 10.2818 85.4576C10.5098 85.6856 10.6379 85.9948 10.6379 86.3173C10.6379 86.9251 10.0301 87.229 9.42222 87.229Z" fill="#00007E"/>
<path d="M92.3869 93.6118H73.2399C72.998 93.6118 72.7661 93.5158 72.5952 93.3448C72.4242 93.1738 72.3281 92.9419 72.3281 92.7C72.3281 92.0922 72.632 91.4844 73.2399 91.4844H92.3869C92.7093 91.4844 93.0186 91.6125 93.2466 91.8404C93.4746 92.0684 93.6027 92.3776 93.6027 92.7C93.6027 93.3079 92.9948 93.6118 92.3869 93.6118Z" fill="#00007E"/>
<path d="M92.3918 87.229H86.0095C85.7677 87.229 85.5357 87.133 85.3647 86.962C85.1937 86.791 85.0977 86.5591 85.0977 86.3173C85.0977 85.7094 85.4016 85.1016 86.0095 85.1016H92.3918C92.7142 85.1016 93.0235 85.2296 93.2515 85.4576C93.4795 85.6856 93.6075 85.9948 93.6075 86.3173C93.6075 86.9251 92.9996 87.229 92.3918 87.229Z" fill="#00007E"/>
<path d="M87.8335 79.6405H6.07845C4.46634 79.6405 2.92026 79.0001 1.78033 77.8602C0.640401 76.7203 0 75.1742 0 73.5621V14.2972C0 12.6851 0.640401 11.139 1.78033 9.99908C2.92026 8.85915 4.46634 8.21875 6.07845 8.21875H22.1864C22.7942 8.21875 23.4021 8.52266 23.4021 9.1305V55.3267H70.2061V8.82659L71.1178 8.21875H87.8335C89.4457 8.21875 90.9917 8.85915 92.1317 9.99908C93.2716 11.139 93.912 12.6851 93.912 14.2972V73.5621C93.912 74.3603 93.7548 75.1507 93.4494 75.8882C93.1439 76.6257 92.6961 77.2957 92.1317 77.8602C91.5672 78.4246 90.8972 78.8723 90.1597 79.1778C89.4222 79.4833 88.6318 79.6405 87.8335 79.6405ZM6.07845 10.3462C5.03058 10.3462 4.02569 10.7625 3.28473 11.5034C2.54378 12.2444 2.12749 13.2493 2.12749 14.2972V73.5621C2.12749 74.6099 2.54378 75.6149 3.28473 76.3558C4.02569 77.0968 5.03058 77.513 6.07845 77.513H87.8335C88.8814 77.513 89.8864 77.0968 90.6274 76.3558C91.3683 75.6149 91.7846 74.6099 91.7846 73.5621V14.2972C91.7846 13.2493 91.3683 12.2444 90.6274 11.5034C89.8864 10.7625 88.8814 10.3462 87.8335 10.3462H72.3336V56.5424C72.3336 57.1503 71.7257 57.4542 71.1178 57.4542H22.1864C21.9446 57.4542 21.7126 57.3581 21.5416 57.1871C21.3706 57.0161 21.2746 56.7842 21.2746 56.5424V10.3462H6.07845Z" fill="#00007E"/>
<path d="M71.1167 57.4413H22.1853C21.9434 57.4413 21.7115 57.3453 21.5405 57.1743C21.3695 57.0033 21.2734 56.7714 21.2734 56.5296V1.21569C21.2734 0.607849 21.5774 0 22.1853 0H71.1167C71.4391 0 71.7484 0.12808 71.9764 0.356066C72.2044 0.584052 72.3325 0.893273 72.3325 1.21569V56.5296C72.3325 57.1374 71.7245 57.4413 71.1167 57.4413ZM23.4009 55.3139H70.205V2.12747H23.4009V55.3139Z" fill="#00007E"/>
<path d="M31.9112 36.1739C31.0696 36.1739 30.247 35.9243 29.5473 35.4568C28.8476 34.9893 28.3022 34.3247 27.9802 33.5473C27.6581 32.7698 27.5738 31.9142 27.738 31.0889C27.9022 30.2635 28.3075 29.5054 28.9026 28.9103C29.4976 28.3152 30.2557 27.91 31.0811 27.7458C31.9064 27.5816 32.762 27.6659 33.5395 27.9879C34.317 28.31 34.9815 28.8554 35.449 29.5551C35.9166 30.2548 36.1661 31.0774 36.1661 31.919C36.1661 33.0474 35.7178 34.1297 34.9199 34.9276C34.1219 35.7256 33.0397 36.1739 31.9112 36.1739ZM31.9112 29.7915C31.4904 29.7915 31.0791 29.9163 30.7293 30.1501C30.3794 30.3838 30.1067 30.7161 29.9457 31.1048C29.7847 31.4936 29.7425 31.9213 29.8246 32.334C29.9067 32.7467 30.1093 33.1258 30.4069 33.4233C30.7044 33.7208 31.0834 33.9235 31.4961 34.0055C31.9088 34.0876 32.3366 34.0455 32.7253 33.8845C33.1141 33.7235 33.4463 33.4508 33.6801 33.1009C33.9139 32.7511 34.0387 32.3397 34.0387 31.919C34.0387 31.3547 33.8146 30.8136 33.4156 30.4146C33.0166 30.0157 32.4754 29.7915 31.9112 29.7915Z" fill="#00007E"/>
<path d="M40.4229 23.4005C39.5814 23.4005 38.7587 23.1509 38.059 22.6834C37.3593 22.2158 36.8139 21.5513 36.4918 20.7738C36.1698 19.9964 36.0856 19.1408 36.2497 18.3155C36.4139 17.4901 36.8192 16.7319 37.4142 16.1369C38.0093 15.5418 38.7674 15.1366 39.5928 14.9724C40.4182 14.8082 41.2737 14.8925 42.0511 15.2145C42.8286 15.5366 43.4931 16.0819 43.9607 16.7816C44.4282 17.4813 44.6778 18.304 44.6778 19.1455C44.6778 20.274 44.2295 21.3563 43.4315 22.1542C42.6336 22.9522 41.5514 23.4005 40.4229 23.4005ZM40.4229 17.0181C40.0022 17.0181 39.5908 17.1429 39.2409 17.3766C38.8911 17.6104 38.6184 17.9427 38.4574 18.3314C38.2963 18.7202 38.2542 19.1479 38.3363 19.5606C38.4184 19.9733 38.621 20.3523 38.9185 20.6499C39.2161 20.9474 39.5952 21.15 40.0079 21.2321C40.4206 21.3142 40.8482 21.2721 41.237 21.1111C41.6257 20.95 41.9581 20.6774 42.1918 20.3275C42.4256 19.9776 42.5503 19.5663 42.5503 19.1455C42.5503 18.5813 42.3262 18.0402 41.9272 17.6412C41.5283 17.2422 40.9872 17.0181 40.4229 17.0181Z" fill="#00007E"/>
<path d="M53.1846 31.9239C52.3431 31.9239 51.5204 31.6743 50.8207 31.2068C50.121 30.7393 49.5756 30.0747 49.2536 29.2973C48.9316 28.5198 48.8473 27.6642 49.0114 26.8389C49.1756 26.0135 49.5809 25.2554 50.176 24.6603C50.7711 24.0652 51.5291 23.66 52.3545 23.4958C53.1799 23.3316 54.0354 23.4159 54.8129 23.7379C55.5904 24.06 56.2549 24.6054 56.7225 25.3051C57.19 26.0048 57.4395 26.8274 57.4395 27.669C57.4395 28.2277 57.3295 28.781 57.1156 29.2973C56.9018 29.8135 56.5884 30.2825 56.1933 30.6776C55.7982 31.0728 55.3292 31.3862 54.8129 31.6C54.2967 31.8138 53.7434 31.9239 53.1846 31.9239ZM53.1846 25.5415C52.7638 25.5415 52.3526 25.6663 52.0027 25.9001C51.6528 26.1338 51.3802 26.4661 51.2192 26.8548C51.0581 27.2436 51.0159 27.6713 51.098 28.084C51.1801 28.4967 51.3828 28.8758 51.6803 29.1733C51.9778 29.4708 52.3569 29.6735 52.7696 29.7555C53.1822 29.8376 53.61 29.7955 53.9988 29.6345C54.3875 29.4735 54.7198 29.2008 54.9535 28.8509C55.1873 28.5011 55.3121 28.0898 55.3121 27.669C55.3121 27.1047 55.088 26.5636 54.689 26.1646C54.29 25.7657 53.7489 25.5415 53.1846 25.5415Z" fill="#00007E"/>
<path d="M61.6964 17.0333C60.8548 17.0333 60.0322 16.7837 59.3324 16.3162C58.6327 15.8486 58.0873 15.1841 57.7653 14.4066C57.4432 13.6292 57.359 12.7736 57.5232 11.9483C57.6874 11.1229 58.0926 10.3647 58.6877 9.76967C59.2827 9.17461 60.0409 8.76937 60.8663 8.6052C61.6916 8.44102 62.5471 8.52528 63.3246 8.84732C64.1021 9.16937 64.7666 9.71473 65.2341 10.4144C65.7017 11.1142 65.9513 11.9368 65.9513 12.7784C65.9513 13.9068 65.5029 14.9891 64.705 15.787C63.907 16.585 62.8248 17.0333 61.6964 17.0333ZM61.6964 10.6509C61.2756 10.6509 60.8642 10.7757 60.5144 11.0094C60.1645 11.2432 59.8918 11.5755 59.7308 11.9642C59.5698 12.3529 59.5277 12.7807 59.6098 13.1934C59.6919 13.6061 59.8944 13.9852 60.192 14.2827C60.4895 14.5802 60.8686 14.7828 61.2813 14.8649C61.694 14.947 62.1217 14.9049 62.5104 14.7439C62.8992 14.5828 63.2315 14.3102 63.4653 13.9603C63.6991 13.6105 63.8238 13.1991 63.8238 12.7784C63.8238 12.2141 63.5996 11.673 63.2007 11.274C62.8017 10.875 62.2606 10.6509 61.6964 10.6509Z" fill="#00007E"/>
<path d="M34.947 29.7899H34.3392C34.0353 29.182 33.7314 28.5742 34.3392 28.2703L38.5941 21.8879C38.5538 21.7267 38.5792 21.5561 38.6647 21.4136C38.7502 21.2711 38.8888 21.1684 39.05 21.1281C39.2112 21.0878 39.3818 21.1132 39.5243 21.1987C39.6668 21.2842 39.7695 21.4228 39.8098 21.584C40.4176 21.8879 40.4177 22.4957 40.1137 23.1036L35.8588 29.4859L34.947 29.7899Z" fill="#00007E"/>
<path d="M49.8458 25.5325H49.238L42.8556 21.2775C42.5517 20.6697 42.2477 20.0619 42.5517 19.7579C42.8556 19.454 43.7674 19.1501 44.0713 19.454L50.4537 23.7089C51.0615 24.0129 51.0615 24.6207 50.7576 25.2285L49.8458 25.5325Z" fill="#00007E"/>
<path d="M54.0994 25.5353H53.4916C53.1876 25.2313 52.8837 24.6235 53.4916 24.3196L59.874 15.8098C59.8337 15.6486 59.859 15.4779 59.9445 15.3354C60.03 15.193 60.1686 15.0903 60.3298 15.05C60.491 15.0097 60.6616 15.035 60.8041 15.1205C60.9466 15.206 61.0493 15.3446 61.0896 15.5058C61.6975 15.8098 61.6975 16.4176 61.3936 17.0255L55.0112 25.5353H54.0994Z" fill="#00007E"/>
<path d="M32.822 48.9293C32.5802 48.9293 32.3482 48.8332 32.1772 48.6622C32.0062 48.4912 31.9102 48.2593 31.9102 48.0175V43.7626C31.9102 43.1547 32.2141 42.5469 32.822 42.5469C33.1444 42.5469 33.4536 42.675 33.6816 42.9029C33.9096 43.1309 34.0377 43.4401 34.0377 43.7626V48.0175C34.0377 48.6253 33.4298 48.9293 32.822 48.9293Z" fill="#00007E"/>
<path d="M43.4626 40.4342C43.2208 40.4342 42.9888 40.3381 42.8178 40.1671C42.6468 39.9961 42.5508 39.7642 42.5508 39.5224V31.0126C42.5508 30.4047 42.8548 29.7969 43.4626 29.7969C43.785 29.7969 44.0942 29.925 44.3222 30.1529C44.5502 30.3809 44.6783 30.6901 44.6783 31.0126V39.5224C44.6783 40.1302 44.0704 40.4342 43.4626 40.4342Z" fill="#00007E"/>
<path d="M54.0993 51.0616C53.8575 51.0616 53.6255 50.9655 53.4545 50.7946C53.2835 50.6236 53.1875 50.3916 53.1875 50.1498V39.5125C53.1875 38.9047 53.4915 38.2969 54.0993 38.2969C54.4217 38.2969 54.7309 38.425 54.9589 38.6529C55.1869 38.8809 55.315 39.1901 55.315 39.5125V50.1498C55.315 50.7577 54.7072 51.0616 54.0993 51.0616Z" fill="#00007E"/>
<path d="M62.6031 44.6886C62.3613 44.6886 62.1294 44.5926 61.9584 44.4216C61.7874 44.2506 61.6914 44.0187 61.6914 43.7769V24.6298C61.6914 24.0219 61.9953 23.4141 62.6031 23.4141C62.9256 23.4141 63.2348 23.5421 63.4627 23.7701C63.6907 23.9981 63.8188 24.3073 63.8188 24.6298V43.7769C63.8188 44.3847 63.211 44.6886 62.6031 44.6886Z" fill="#00007E"/>
<path d="M43.4591 46.8009H42.8513C42.5473 46.4969 42.5473 46.4969 42.5473 46.193C42.5333 46.0284 42.5531 45.8626 42.6054 45.7058C42.6576 45.5491 42.7413 45.4046 42.8513 45.2812H44.3709C44.4808 45.4046 44.5645 45.5491 44.6167 45.7058C44.669 45.8626 44.6888 46.0284 44.6748 46.193C44.6748 46.4969 44.6748 46.4969 44.3709 46.8009H43.4591Z" fill="#00007E"/>
<path d="M62.6083 51.0743H62.0004V50.4665C61.9865 50.3018 62.0062 50.136 62.0585 49.9793C62.1108 49.8225 62.1944 49.678 62.3044 49.5547H63.824C63.934 49.678 64.0176 49.8225 64.0699 49.9793C64.1221 50.136 64.1419 50.3018 64.1279 50.4665V51.0743H62.6083Z" fill="#00007E"/>
<path d="M45.8931 68.3828C46.4574 68.3828 46.9985 68.607 47.3974 69.0059C47.7964 69.4049 48.0206 69.946 48.0206 70.5103C48.0206 71.0745 47.7964 71.6156 47.3974 72.0146C46.9985 72.4136 46.4574 72.6377 45.8931 72.6377C45.3289 72.6377 44.7878 72.4136 44.3888 72.0146C43.9898 71.6156 43.7656 71.0745 43.7656 70.5103C43.7656 69.946 43.9898 69.4049 44.3888 69.0059C44.7878 68.607 45.3289 68.3828 45.8931 68.3828Z" fill="#00007E"/>
<path d="M33.126 7.60156H28.8711V11.8565H33.126V7.60156Z" fill="#00007E"/>
<path d="M39.5088 7.60156H35.2539V11.8565H39.5088V7.60156Z" fill="#00007E"/>
</svg>
