<svg width="143" height="121" viewBox="0 0 143 121" fill="none" xmlns="http://www.w3.org/2000/svg">
<path d="M112.1 96.0016V13.0016C112.021 9.49154 110.558 6.15505 108.029 3.71974C105.5 1.28443 102.11 -0.052123 98.6 0.0015566H13.5C9.98951 -0.052123 6.60019 1.28443 4.07122 3.71974C1.54224 6.15505 0.0787829 9.49154 0 13.0016L0 73.8016C0 80.9016 6.1 86.8016 13.5 86.8016H83.1L102.2 101.002C103.163 101.607 104.263 101.96 105.399 102.03C106.535 102.1 107.67 101.884 108.7 101.402C109.71 100.903 110.562 100.135 111.162 99.1816C111.763 98.2285 112.087 97.1278 112.1 96.0016ZM101.1 87.1016L90 78.5016C87.7219 76.8914 84.9892 76.0506 82.2 76.1016H16.7C15.9477 76.1151 15.2004 75.9769 14.5028 75.6953C13.8051 75.4136 13.1713 74.9943 12.6393 74.4623C12.1073 73.9302 11.6879 73.2965 11.4063 72.5988C11.1246 71.9011 10.9864 71.1538 11 70.4016V16.3016C10.9999 15.5577 11.148 14.8212 11.4356 14.1352C11.7233 13.4492 12.1448 12.8273 12.6754 12.306C13.206 11.7846 13.8352 11.3743 14.5262 11.0988C15.2173 10.8233 15.9562 10.6883 16.7 10.7016H95.4C96.8946 10.7013 98.3294 11.2881 99.3956 12.3355C100.462 13.383 101.074 14.8072 101.1 16.3016V87.1016Z" fill="#00007E"/>
<path d="M138.2 26.6009C136.68 25.0737 134.872 23.8632 132.881 23.0393C130.89 22.2154 128.755 21.7945 126.6 21.8009H118.1V32.7009H126.6C128.059 32.7009 129.458 33.2803 130.489 34.3118C131.521 35.3432 132.1 36.7422 132.1 38.2009V43.6009H118.1V54.5009H132.1V103.601C132.1 105.06 131.521 106.458 130.489 107.49C129.458 108.521 128.059 109.101 126.6 109.101H39.4C37.9413 109.101 36.5424 108.521 35.5109 107.49C34.4795 106.458 33.9 105.06 33.9 103.601V92.8009H23V103.601C23 107.95 24.7279 112.122 27.8034 115.197C30.879 118.273 35.0505 120.001 39.4 120.001H126.6C128.754 120.001 130.886 119.577 132.876 118.752C134.866 117.928 136.674 116.72 138.197 115.197C139.719 113.675 140.927 111.867 141.752 109.877C142.576 107.887 143 105.755 143 103.601V38.2009C143.006 36.046 142.585 33.9113 141.762 31.9202C140.938 29.9291 139.727 28.1211 138.2 26.6009Z" fill="#00007E"/>
<path d="M121.6 102.101C125.135 102.101 128 99.2354 128 95.7008C128 92.1662 125.135 89.3008 121.6 89.3008C118.066 89.3008 115.2 92.1662 115.2 95.7008C115.2 99.2354 118.066 102.101 121.6 102.101Z" fill="#00007E"/>
<path d="M68.0004 36.1016H64.8004C64.4192 34.9672 63.9511 33.864 63.4004 32.8016L65.7004 30.5016C65.9212 30.3121 66.0927 30.0719 66.2004 29.8016C66.3146 29.5141 66.3821 29.2103 66.4004 28.9016C66.3931 28.6235 66.3248 28.3504 66.2004 28.1016C66.0935 27.8019 65.9229 27.5289 65.7004 27.3016L59.0004 20.7016C58.8109 20.4808 58.5707 20.3092 58.3004 20.2016L57.4004 20.0016L56.6004 20.2016L55.8004 20.7016L53.6004 23.0016C52.512 22.4325 51.3739 21.9639 50.2004 21.6016V18.4016C50.2133 17.811 49.9984 17.2381 49.6004 16.8016C49.1637 16.3907 48.5985 16.1434 48.0004 16.1016H38.6004C37.9981 16.1257 37.4269 16.3756 37.0004 16.8016C36.7703 16.998 36.5878 17.244 36.4665 17.5211C36.3453 17.7983 36.2885 18.0993 36.3004 18.4016V21.7016L33.0004 23.0016L30.7004 20.7016L30.0004 20.2016L29.1004 20.0016L28.2004 20.2016L27.5004 20.7016L20.9004 27.3016C20.6778 27.5289 20.5072 27.8019 20.4004 28.1016C20.2325 28.3322 20.1608 28.6191 20.2004 28.9016C20.1709 29.2151 20.2409 29.53 20.4004 29.8016C20.508 30.0719 20.6796 30.3121 20.9004 30.5016L23.2004 32.8016C22.6085 33.8441 22.1387 34.9514 21.8004 36.1016H18.6004C17.9981 36.1257 17.4269 36.3756 17.0004 36.8016C16.7703 36.998 16.5878 37.244 16.4665 37.5211C16.3453 37.7983 16.2885 38.0993 16.3004 38.4016V47.8016C16.2885 48.1038 16.3453 48.4049 16.4665 48.682C16.5878 48.9591 16.7703 49.2052 17.0004 49.4016C17.4269 49.8276 17.9981 50.0774 18.6004 50.1016H21.9004C22.2472 51.2014 22.6819 52.2715 23.2004 53.3016L20.9004 55.6016C20.6796 55.7911 20.508 56.0312 20.4004 56.3016C20.2409 56.5731 20.1709 56.888 20.2004 57.2016C20.1608 57.4841 20.2325 57.7709 20.4004 58.0016C20.5072 58.3013 20.6778 58.5742 20.9004 58.8016L27.5004 65.4016L28.2004 65.9016L29.1004 66.1016L30.0004 65.9016L30.7004 65.4016L33.0004 63.1016C34.0459 63.6874 35.1525 64.1569 36.3004 64.5016V67.7016C36.2885 68.0038 36.3453 68.3049 36.4665 68.582C36.5878 68.8591 36.7703 69.1052 37.0004 69.3016C37.4269 69.7276 37.9981 69.9774 38.6004 70.0016H48.0004C48.2893 70.0016 48.5754 69.9447 48.8423 69.8341C49.1092 69.7235 49.3517 69.5615 49.556 69.3572C49.7603 69.1529 49.9224 68.9104 50.0329 68.6435C50.1435 68.3766 50.2004 68.0905 50.2004 67.8016V64.6016C51.3892 64.2832 52.532 63.8126 53.6004 63.2016L55.8004 65.5016L56.6004 66.0016L57.4004 66.2016L58.3004 66.0016C58.5707 65.8939 58.8109 65.7224 59.0004 65.5016L65.7004 58.9016C65.9229 58.6742 66.0935 58.4012 66.2004 58.1016C66.3248 57.8528 66.3931 57.5797 66.4004 57.3016C66.3821 56.9928 66.3146 56.689 66.2004 56.4016C66.0927 56.1313 65.9212 55.8911 65.7004 55.7016L63.4004 53.4016C63.9511 52.3391 64.4192 51.2359 64.8004 50.1016H68.0004C68.6025 50.077 69.1733 49.8267 69.5994 49.4006C70.0256 48.9745 70.2758 48.4037 70.3004 47.8016V38.4016C70.2758 37.7994 70.0256 37.2286 69.5994 36.8025C69.1733 36.3764 68.6025 36.1262 68.0004 36.1016ZM59.3004 44.9016H57.4004C57.0438 44.8942 56.694 44.9991 56.4004 45.2016C56.1345 45.452 55.9293 45.7598 55.8004 46.1016C55.5104 47.4414 55.0038 48.7249 54.3004 49.9016C54.109 50.2003 54.005 50.5468 54.0004 50.9016C54.1051 51.2624 54.2745 51.6013 54.5004 51.9016L55.9004 53.3016L53.4004 55.7016L52.0004 54.3016L51.6004 54.0016L50.9004 53.8016C50.7538 53.7957 50.6075 53.8192 50.4701 53.8707C50.3327 53.9222 50.207 54.0007 50.1004 54.1016C48.9158 54.7887 47.6349 55.2943 46.3004 55.6016C45.946 55.7046 45.6318 55.914 45.4004 56.2016C45.198 56.4952 45.093 56.845 45.1004 57.2016V59.2016H41.5004V57.1016C41.503 56.9167 41.469 56.7332 41.4004 56.5616C41.3317 56.3899 41.2298 56.2336 41.1004 56.1016C41.0025 55.9511 40.8694 55.8269 40.7125 55.7398C40.5556 55.6526 40.3798 55.6052 40.2004 55.6016C38.8869 55.2771 37.6365 54.7364 36.5004 54.0016L35.7004 53.8016C35.4741 53.7722 35.244 53.803 35.0334 53.8908C34.8228 53.9786 34.6389 54.1202 34.5004 54.3016L33.1004 55.6016L30.6004 53.2016L32.0004 51.8016C32.1453 51.698 32.2653 51.5636 32.3518 51.4079C32.4383 51.2522 32.489 51.0793 32.5004 50.9016C32.5444 50.7143 32.5494 50.52 32.515 50.3307C32.4805 50.1415 32.4075 49.9613 32.3004 49.8016C31.5656 48.6655 31.0249 47.4151 30.7004 46.1016C30.6197 45.7613 30.4467 45.4498 30.2004 45.2016C29.9075 44.9836 29.5628 44.8457 29.2004 44.8016H27.2004V41.3016H29.3004C29.6552 41.2969 30.0016 41.193 30.3004 41.0016C30.5042 40.7238 30.6722 40.4214 30.8004 40.1016C31.1249 38.7568 31.6652 37.4734 32.4004 36.3016C32.5621 35.9945 32.6315 35.6472 32.6004 35.3016C32.5378 34.9256 32.3636 34.5772 32.1004 34.3016L30.7004 32.9016L33.2004 30.5016L34.6004 31.9016C34.7291 32.0543 34.905 32.1598 35.1004 32.2016L35.7004 32.4016C35.847 32.4074 35.9933 32.3839 36.1307 32.3324C36.2681 32.2809 36.3938 32.2024 36.5004 32.1016C37.685 31.4144 38.9659 30.9088 40.3004 30.6016C40.6646 30.5205 40.9854 30.3065 41.2004 30.0016C41.4028 29.7079 41.5077 29.3581 41.5004 29.0016V27.0016H45.1004V29.1016C45.105 29.4564 45.209 29.8028 45.4004 30.1016C45.4982 30.252 45.6314 30.3762 45.7883 30.4634C45.9451 30.5505 46.121 30.598 46.3004 30.6016C47.6242 30.9876 48.8992 31.5244 50.1004 32.2016C50.331 32.3694 50.6179 32.4412 50.9004 32.4016C51.1012 32.412 51.302 32.382 51.491 32.3133C51.68 32.2446 51.8532 32.1386 52.0004 32.0016L53.4004 30.6016L55.9004 33.0016L54.5004 34.4016C54.2391 34.6383 54.0633 34.9547 54.0004 35.3016C53.9915 35.6896 54.0958 36.0718 54.3004 36.4016C55.0035 37.5425 55.5105 38.7931 55.8004 40.1016C55.8815 40.4657 56.0954 40.7866 56.4004 41.0016C56.5288 41.1358 56.6845 41.241 56.857 41.31C57.0295 41.379 57.2148 41.4102 57.4004 41.4016H59.4004L59.3004 44.9016Z" fill="#00007E"/>
<path d="M90.4998 60.002H75.4998C74.8169 60.002 74.1407 60.1365 73.5098 60.3978C72.879 60.6591 72.3057 61.0421 71.8228 61.525C71.34 62.0079 70.9569 62.5811 70.6956 63.212C70.4343 63.8429 70.2998 64.5191 70.2998 65.202V65.602C70.2998 66.9811 70.8477 68.3037 71.8228 69.2789C72.798 70.2541 74.1207 70.802 75.4998 70.802H90.4998C91.8789 70.802 93.2016 70.2541 94.1768 69.2789C95.1519 68.3037 95.6998 66.9811 95.6998 65.602V65.202C95.6998 64.5191 95.5653 63.8429 95.304 63.212C95.0427 62.5811 94.6596 62.0079 94.1768 61.525C93.6939 61.0421 93.1206 60.6591 92.4898 60.3978C91.8589 60.1365 91.1827 60.002 90.4998 60.002Z" fill="#00007E"/>
</svg>
