<svg width="121" height="120" viewBox="0 0 121 120" fill="none" xmlns="http://www.w3.org/2000/svg">
<path d="M115.157 44.5861H108.023C107.269 42.0222 106.244 39.5457 104.966 37.1986L110.066 32.1034C112.104 30.063 112.104 27.0058 110.066 24.9677L95.2841 10.1904C94.8239 9.70767 94.2705 9.32334 93.6575 9.06074C93.0444 8.79815 92.3844 8.66275 91.7174 8.66275C91.0505 8.66275 90.3905 8.79815 89.7774 9.06074C89.1643 9.32334 88.6109 9.70767 88.1508 10.1904L83.0556 15.2857C80.7084 14.0076 78.232 12.9828 75.6681 12.2285V5.09522C75.6638 3.74521 75.1256 2.45172 74.171 1.49711C73.2164 0.542503 71.9229 0.00430433 70.5729 0L49.6813 0C48.3311 0.00369246 47.0373 0.541694 46.0825 1.49643C45.1278 2.45117 44.5898 3.74502 44.5861 5.09522V12.4827C42.0373 13.2476 39.745 14.2666 37.1986 15.281L32.1034 10.1904C30.063 8.15235 27.0058 8.15235 24.9677 10.1904L10.1904 24.9677C8.15235 27.0082 8.15235 30.0653 10.1904 32.1034L15.2857 37.1986C14.0072 39.5455 12.9823 42.022 12.2285 44.5861H5.09522C3.74502 44.5898 2.45117 45.1278 1.49643 46.0825C0.541694 47.0373 0.00369246 48.3311 0 49.6813L0 70.5729C0.00369246 71.9231 0.541694 73.2169 1.49643 74.1716C2.45117 75.1264 3.74502 75.6644 5.09522 75.6681H12.4827C13.2476 78.2145 14.2666 80.5091 15.281 82.8014L10.1904 87.8966C9.70707 88.3564 9.32221 88.9097 9.05923 89.5228C8.79625 90.1359 8.66065 90.7961 8.66065 91.4633C8.66065 92.1304 8.79625 92.7906 9.05923 93.4037C9.32221 94.0168 9.70707 94.5701 10.1904 95.0299L15.2857 100.125C17.9937 94.0646 21.8976 88.6133 26.7633 84.0979C26.8425 83.0143 26.5702 81.9341 25.9868 81.0175C23.6945 77.452 22.1648 73.3758 21.1457 69.2996C20.897 68.2053 20.2809 67.2292 19.4001 66.5339C18.5193 65.8385 17.4269 65.4657 16.3047 65.4776H10.1904V54.5177H16.5565C17.6787 54.5296 18.7711 54.1569 19.6519 53.4615C20.5327 52.7661 21.1488 51.79 21.3976 50.6957C22.4166 46.6195 23.9464 42.534 26.2386 38.9755C27.5119 36.9374 27.0035 34.391 25.4738 32.8612L21.1457 28.5356L28.7897 20.8916L33.1131 25.2219C34.6428 27.0058 37.1893 27.26 39.2274 25.9868C42.7952 23.6945 46.8713 22.1648 50.9475 21.1457C52.0429 20.8979 53.0204 20.2824 53.7171 19.4015C54.4138 18.5207 54.7877 17.4277 54.7765 16.3047V10.1904H65.7365V16.5565C65.725 17.6786 66.0979 18.7708 66.7932 19.6515C67.4885 20.5322 68.4644 21.1484 69.5585 21.3976C73.6347 22.4166 77.7202 23.944 81.2786 26.2386C83.3167 27.5119 85.8632 27.0035 87.3929 25.4738L91.7233 21.1434L99.3673 28.7851L95.0322 33.1131C93.2483 34.6405 92.9942 37.1893 94.2674 39.2274C96.5596 42.7952 98.0894 46.869 99.1084 50.9475C99.3576 52.0416 99.9738 53.0175 100.854 53.7128C101.735 54.4081 102.827 54.781 103.949 54.7695H110.066V65.7295H103.949C102.826 65.7145 101.731 66.0864 100.85 66.7827C99.9677 67.479 99.3521 68.4575 99.1061 69.5538C98.0871 73.63 96.5573 77.7155 94.265 81.2717C93.7288 82.1368 93.4837 83.151 93.5655 84.1656C98.4453 88.7127 102.352 94.2023 105.05 100.302L110.066 95.2864C112.104 93.246 112.104 90.1889 110.066 88.1508L104.971 83.0556C106.249 80.7086 107.274 78.2322 108.028 75.6681H115.161C116.511 75.6644 117.805 75.1264 118.76 74.1716C119.715 73.2169 120.253 71.9231 120.257 70.5729V49.6813C120.253 48.3303 119.714 47.0357 118.758 46.0809C117.803 45.126 116.508 44.5885 115.157 44.5861Z" fill="#00007E"/>
<path d="M102.201 119.999C102.199 114.68 101.185 109.409 99.2115 104.469L99.1485 104.315C99.0102 103.976 98.8695 103.64 98.7264 103.308C98.6938 103.238 98.6612 103.165 98.6308 103.093C98.4754 102.734 98.3121 102.378 98.1411 102.025C98.1411 102.006 98.1248 101.99 98.1178 101.974C97.7447 101.196 97.3491 100.43 96.9309 99.6744L96.8749 99.5742C96.6697 99.2104 96.4598 98.8466 96.2453 98.4898C91.6427 90.8117 84.7256 84.7894 76.487 81.2873C80.9006 77.8729 84.1358 73.1638 85.7398 67.8192C87.3438 62.4746 87.2362 56.7623 85.4321 51.4819C83.628 46.2015 80.2177 41.6175 75.6788 38.3717C71.1398 35.1259 65.6995 33.3809 60.1194 33.3809C54.5393 33.3809 49.0989 35.1259 44.56 38.3717C40.021 41.6175 36.6108 46.2015 34.8067 51.4819C33.0026 56.7623 32.895 62.4746 34.499 67.8192C36.103 73.1638 39.3382 77.8729 43.7517 81.2873C36.4021 84.4116 30.0866 89.5517 25.5349 96.1136C24.7886 97.1878 24.0891 98.2978 23.4361 99.4436C23.4361 99.4622 23.4175 99.4809 23.4058 99.4995C23.203 99.8587 23.0071 100.222 22.8135 100.589C22.8135 100.61 22.7925 100.631 22.7809 100.652C22.3845 101.412 22.0106 102.185 21.6592 102.972L21.5986 103.112C21.4494 103.447 21.3048 103.788 21.1649 104.128L21.0809 104.334C19.0766 109.313 18.0482 114.632 18.0518 119.999H35.3405V115.025C35.3405 113.788 34.8492 112.602 33.9745 111.728C33.0999 110.853 31.9136 110.362 30.6767 110.362H28.8462C28.8765 110.264 28.9021 110.168 28.9324 110.072C29.1967 109.248 29.4913 108.44 29.8162 107.647V107.619C30.3033 106.433 30.8609 105.278 31.4859 104.159C31.4889 104.151 31.4928 104.144 31.4975 104.138C32.5329 102.281 33.7465 100.529 35.1213 98.9072L35.1353 98.8886C35.9628 97.9225 36.8449 97.0045 37.7774 96.1393H37.789C38.4109 95.5609 39.0514 95.0067 39.7105 94.4766C43.3175 91.5885 47.4956 89.4975 51.9694 88.3414L56.2158 99.0681L53.9142 110.39H44.7195C43.9699 110.389 43.2277 110.537 42.5351 110.823C41.8425 111.11 41.2132 111.53 40.6831 112.06C40.153 112.59 39.7324 113.219 39.4455 113.912C39.1586 114.604 39.011 115.346 39.011 116.096V119.999H81.2418V116.077C81.2418 115.328 81.0941 114.585 80.8072 113.893C80.5203 113.2 80.0998 112.571 79.5697 112.041C79.0396 111.511 78.4103 111.091 77.7177 110.805C77.0251 110.518 76.2828 110.371 75.5333 110.371H66.0121L63.3188 99.0495L68.2904 88.3227C72.8377 89.4979 77.0785 91.6389 80.7241 94.6002C81.7131 95.4004 82.6551 96.2569 83.5457 97.1653L83.562 97.1816C84.4509 98.0934 85.2863 99.0557 86.0642 100.064C86.5834 100.735 87.0762 101.429 87.5426 102.144C88.2445 103.217 88.8829 104.331 89.4548 105.479V105.495C90.0309 106.653 90.537 107.844 90.9705 109.063C91.1221 109.485 91.262 109.909 91.3949 110.341H89.7136C89.0792 110.342 88.4514 110.47 87.8663 110.715C87.2812 110.96 86.7504 111.319 86.3044 111.77C85.8584 112.221 85.506 112.756 85.2675 113.344C85.029 113.932 84.909 114.561 84.9146 115.196V119.999H102.201ZM60.1287 76.9523C55.669 76.9523 51.3919 75.1807 48.2384 72.0272C45.0849 68.8737 43.3133 64.5967 43.3133 60.1369C43.3133 55.6772 45.0849 51.4002 48.2384 48.2467C51.3919 45.0932 55.669 43.3215 60.1287 43.3215C69.3001 43.3215 76.9418 50.9655 76.9418 60.1369C76.9534 69.5532 69.5543 76.9523 60.1287 76.9523Z" fill="#00007E"/>
</svg>
