<svg width="126" height="121" viewBox="0 0 126 121" fill="none" xmlns="http://www.w3.org/2000/svg">
<path d="M12.5393 0.998286C9.96027 0.99762 8 3.08844 8 5.6675V90.8249L11.3165 101.057C11.4414 101.31 11.6344 101.522 11.8738 101.671C12.1132 101.82 12.3894 101.899 12.6711 101.899C12.9529 101.899 13.2291 101.82 13.4685 101.671C13.7079 101.522 13.9009 101.31 14.0258 101.057L17.3423 90.8249V5.67394C17.3423 3.09236 15.1209 0.998953 12.5393 0.998286Z" fill="#00007E"/>
<path d="M120.4 5.79961C118.959 4.36618 117.263 3.21325 115.4 2.39961L115.1 2.19961H114.8C112.881 1.48045 110.849 1.108 108.8 1.09961H43.4001C39.0678 1.09953 34.9115 2.81365 31.8387 5.86765C28.766 8.92165 27.0265 13.0674 27.0001 17.3996V104.6C26.9937 106.754 27.4146 108.889 28.2385 110.88C29.0624 112.871 30.273 114.679 31.8001 116.2C33.2323 117.644 34.9301 118.799 36.8001 119.6L37.1001 119.8H37.4001C39.3191 120.519 41.3507 120.891 43.4001 120.9H108.8C113.15 120.9 117.321 119.172 120.397 116.096C123.472 113.021 125.2 108.849 125.2 104.5V17.3996C125.206 15.2448 124.786 13.1101 123.962 11.119C123.138 9.12786 121.927 7.31988 120.4 5.79961ZM114.3 104.6C114.3 106.058 113.721 107.457 112.689 108.489C111.658 109.52 110.259 110.1 108.8 110.1H43.1001C41.758 109.972 40.4942 109.41 39.5001 108.5C38.7148 107.75 38.1893 106.769 38.0001 105.7C38.0001 105.4 37.9001 105.1 37.9001 104.8V17.3996C37.9001 15.9409 38.4795 14.542 39.511 13.5105C40.5424 12.4791 41.9414 11.8996 43.4001 11.8996H109.3C110.577 11.9729 111.785 12.5056 112.7 13.3996C113.354 14.0744 113.835 14.898 114.1 15.7996C114.216 16.2918 114.283 16.7943 114.3 17.2996V104.6Z" fill="#00007E"/>
<path d="M76.1004 17.0996C74.9865 17.0996 73.9182 17.5421 73.1305 18.3298C72.3429 19.1174 71.9004 20.1857 71.9004 21.2996V26.6996C71.9004 27.8135 72.3429 28.8818 73.1305 29.6695C73.9182 30.4571 74.9865 30.8996 76.1004 30.8996C77.2143 30.8996 78.2826 30.4571 79.0702 29.6695C79.8579 28.8818 80.3004 27.8135 80.3004 26.6996V21.2996C80.3004 20.1857 79.8579 19.1174 79.0702 18.3298C78.2826 17.5421 77.2143 17.0996 76.1004 17.0996Z" fill="#00007E"/>
<path d="M107.2 48.5996H100.4C99.2863 48.5996 98.218 49.0421 97.4304 49.8298C96.6427 50.6174 96.2002 51.6857 96.2002 52.7996C96.2002 53.9135 96.6427 54.9818 97.4304 55.7695C98.218 56.5571 99.2863 56.9996 100.4 56.9996H107.2C108.314 56.9996 109.382 56.5571 110.17 55.7695C110.958 54.9818 111.4 53.9135 111.4 52.7996C111.4 51.6857 110.958 50.6174 110.17 49.8298C109.382 49.0421 108.314 48.5996 107.2 48.5996Z" fill="#00007E"/>
<path d="M51.7998 48.5996H44.9998C43.8859 48.5996 42.8176 49.0421 42.03 49.8298C41.2423 50.6174 40.7998 51.6857 40.7998 52.7996C40.7998 53.9135 41.2423 54.9818 42.03 55.7695C42.8176 56.5571 43.8859 56.9996 44.9998 56.9996H51.7998C52.9137 56.9996 53.982 56.5571 54.7697 55.7695C55.5573 54.9818 55.9998 53.9135 55.9998 52.7996C55.9998 51.6857 55.5573 50.6174 54.7697 49.8298C53.982 49.0421 52.9137 48.5996 51.7998 48.5996Z" fill="#00007E"/>
<path d="M93.7998 48.5991C93.2901 44.6331 91.4671 40.952 88.6216 38.1428C85.7762 35.3335 82.072 33.5579 78.0998 33.0991C75.6185 32.7983 73.1015 33.0356 70.7202 33.7949C68.3389 34.5542 66.149 35.8176 64.2998 37.4991C62.4195 39.1469 60.9119 41.1765 59.8773 43.4525C58.8427 45.7286 58.305 48.199 58.2998 50.6991C58.3175 53.7471 59.1089 56.7406 60.5998 59.3991C61.6725 61.2472 62.5762 63.1885 63.2998 65.1991L65.0998 70.9991C65.3898 72.0996 66.0395 73.0714 66.9455 73.76C67.8516 74.4486 68.9619 74.8144 70.0998 74.7991H82.0998C83.2335 74.7974 84.3356 74.4252 85.2382 73.7392C86.1409 73.0532 86.7946 72.091 87.0998 70.9991L88.7998 65.6991C89.5648 63.4159 90.5355 61.2069 91.6998 59.0991C93.4861 55.9069 94.2209 52.2328 93.7998 48.5991ZM69.7998 43.6991C71.5205 42.1308 73.7718 41.2731 76.0998 41.2991H77.1998C79.2898 41.5266 81.2432 42.4482 82.7478 43.9166C84.2525 45.3849 85.2214 47.3153 85.4998 49.3991C85.6988 51.3658 85.3164 53.3477 84.3998 55.0991C82.9687 57.6556 81.764 60.3325 80.7998 63.0991L79.7998 66.2991H72.3998L71.1998 62.5991C70.3499 60.0283 69.2444 57.5493 67.8998 55.1991C66.8509 53.3375 66.4676 51.1741 66.813 49.0655C67.1584 46.9569 68.2118 45.0288 69.7998 43.5991V43.6991Z" fill="#00007E"/>
<path d="M74.8003 91.2992C72.7083 90.9417 70.8128 89.8484 69.4559 88.2165C68.099 86.5845 67.37 84.5214 67.4003 82.3992C67.4003 81.6831 67.6848 80.9964 68.1911 80.49C68.6975 79.9837 69.3842 79.6992 70.1003 79.6992H81.7003C82.5225 79.6992 83.311 80.0258 83.8924 80.6072C84.4737 81.1886 84.8003 81.9771 84.8003 82.7992C84.7857 84.043 84.5046 85.2691 83.9759 86.395C83.4472 87.5209 82.6832 88.5203 81.7355 89.3259C80.7877 90.1314 79.6783 90.7244 78.482 91.0648C77.2856 91.4052 76.0302 91.4852 74.8003 91.2992Z" fill="#00007E"/>
<path d="M96.5998 27.9L91.7998 32.7C91.1604 33.5074 90.8401 34.5217 90.8996 35.55C90.9591 36.5782 91.3944 37.5487 92.1227 38.277C92.851 39.0053 93.8216 39.4406 94.8498 39.5001C95.878 39.5597 96.8923 39.2393 97.6998 38.6L102.5 33.8C102.899 33.4089 103.216 32.9421 103.432 32.427C103.649 31.9119 103.76 31.3587 103.76 30.8C103.76 30.2412 103.649 29.688 103.432 29.1729C103.216 28.6578 102.899 28.191 102.5 27.8C101.701 27.0375 100.634 26.6206 99.5293 26.6393C98.425 26.658 97.3726 27.1109 96.5998 27.9Z" fill="#00007E"/>
<path d="M55.6 27.9L60.4 32.7C61.1756 33.486 61.6104 34.5458 61.6104 35.65C61.6104 36.7542 61.1756 37.814 60.4 38.6C59.5855 39.3592 58.5135 39.7813 57.4 39.7813C56.2866 39.7813 55.2145 39.3592 54.4 38.6L49.6 33.8C49.2126 33.406 48.9066 32.9396 48.6995 32.4274C48.4923 31.9152 48.3881 31.3672 48.3927 30.8147C48.3974 30.2621 48.5108 29.716 48.7265 29.2073C48.9422 28.6986 49.256 28.2374 49.65 27.85C50.044 27.4626 50.5104 27.1566 51.0226 26.9495C51.5348 26.7423 52.0829 26.6381 52.6354 26.6427C53.1879 26.6474 53.7341 26.7608 54.2427 26.9765C54.7514 27.1922 55.2126 27.506 55.6 27.9Z" fill="#00007E"/>
<path d="M107.8 96H44.5004C42.5122 96 40.9004 97.6028 40.9004 99.58C40.9004 101.557 42.5122 103.16 44.5004 103.16H107.8C109.789 103.16 111.4 101.557 111.4 99.58C111.4 97.6028 109.789 96 107.8 96Z" fill="#00007E"/>
<path d="M107.8 96H44.5004C42.5122 96 40.9004 97.6028 40.9004 99.58C40.9004 101.557 42.5122 103.16 44.5004 103.16H107.8C109.789 103.16 111.4 101.557 111.4 99.58C111.4 97.6028 109.789 96 107.8 96Z" fill="#00007E"/>
<rect y="110" width="25" height="11" rx="5" fill="#00007E"/>
</svg>
