<svg width="77" height="59" viewBox="0 0 77 59" fill="none" xmlns="http://www.w3.org/2000/svg">
<path d="M34.1135 58.9883L0.0134735 58.9883L0.0134709 29.5883C-0.114413 25.4037 0.777928 21.2509 2.61348 17.4883C4.32981 14.3692 6.68023 11.6441 9.51347 9.48829C12.319 7.27417 15.458 5.51903 18.8135 4.28829C22.2135 2.98829 25.6135 1.88828 28.9135 0.888283L34.0135 9.98829C31.7826 10.8042 29.6108 11.7732 27.5135 12.8883C25.868 13.7748 24.3536 14.8854 23.0135 16.1883C21.9194 17.3398 21.0691 18.7003 20.5135 20.1883C19.958 21.8991 19.6877 23.6897 19.7135 25.4883L34.1135 25.4883L34.1135 58.9883ZM76.3135 58.9883L42.3135 58.9883L42.3135 29.5883C42.1856 25.4037 43.0779 21.2509 44.9135 17.4883C46.5933 14.3738 48.9102 11.6479 51.7135 9.48829C54.519 7.27416 57.658 5.51902 61.0135 4.28828C64.4135 2.98828 67.8135 1.88828 71.1135 0.888279L76.2135 9.98829C73.9904 10.8233 71.8198 11.7917 69.7135 12.8883C68.0975 13.7737 66.616 14.8849 65.3135 16.1883C64.1848 17.3125 63.3294 18.6811 62.8135 20.1883C62.258 21.8991 61.9877 23.6897 62.0135 25.4883L76.3135 25.4883L76.3135 58.9883Z" fill="#150DCE"/>
</svg>
