<svg width="348" height="297" viewBox="0 0 348 297" fill="none" xmlns="http://www.w3.org/2000/svg">
<path d="M298.125 124.003C298.125 124.003 239.527 109.301 177.613 118.167C160.194 120.662 144.764 130.799 135.364 145.676C118.424 172.484 94.4793 220.256 99.544 270.075L126.129 276.65C126.129 276.65 144.502 217.523 165.185 193.459C165.185 193.459 189.675 249.29 188.436 279.947C188.402 280.814 188.346 281.66 188.268 282.485C185.458 312.48 305.828 288.082 305.828 288.082L298.125 124.003Z" fill="url(#paint0_linear_1007_3294)"/>
<path d="M234.774 73.9573L247.248 113.701C248.409 117.398 247.248 121.357 244.356 123.583C237.679 128.727 224.48 136.917 208.354 136.681C205.404 136.638 202.924 134.119 202.717 131.033L198.284 64.6094L234.774 73.9573Z" fill="url(#paint1_linear_1007_3294)"/>
<path d="M186.47 30.4031C186.47 30.4031 181.623 61.702 184.676 76.6597C187.728 91.6173 187.063 102.016 204.886 100.504C222.709 98.9918 234.835 86.7292 238.756 70.0021C238.756 70.0021 244.999 44.1717 239.831 35.6238C234.663 27.0759 186.47 30.4031 186.47 30.4031Z" fill="url(#paint2_linear_1007_3294)"/>
<path d="M230.159 60.9736L228.004 61.5399C228.004 61.5399 232.097 40.9898 223.456 39.8462C214.815 38.7026 182.262 40.5145 172.714 31.3014C163.51 22.4194 165.656 7.25938 173.227 1.1822C173.465 1.00226 173.761 0.918472 174.058 0.947547C174.354 0.976623 174.629 1.11643 174.827 1.33907L175.891 2.49678C176.052 2.67286 176.263 2.79652 176.495 2.85187C176.728 2.90722 176.971 2.89172 177.195 2.80735C177.418 2.72297 177.612 2.5736 177.75 2.37846C177.887 2.18332 177.964 1.95136 177.969 1.71243C177.994 0.691197 179.224 0.143718 179.961 0.849637C182.863 3.59174 189.789 7.47272 205.328 6.31345C227.377 4.66944 243.514 9.52773 247.678 23.9724C247.737 24.1776 247.85 24.3633 248.005 24.5102C248.16 24.6571 248.351 24.7599 248.559 24.8079C248.767 24.8559 248.984 24.8474 249.188 24.7832C249.391 24.7191 249.574 24.6016 249.717 24.443C251.022 23.0892 253.389 21.9927 257.444 23.9112C264.492 27.251 265.443 40.4674 255.503 54.1544C255.033 54.8054 255.282 55.7435 256.046 55.996C258.733 56.8871 263.087 59.5429 255.469 66.6115C247.675 73.8417 242.169 74.7217 240.01 74.7359C239.729 74.74 239.456 74.6455 239.238 74.4689C239.021 74.2923 238.872 74.0448 238.818 73.7695L236.23 60.6802C236.198 60.5199 236.134 60.3677 236.041 60.2331C235.949 60.0984 235.83 59.9842 235.691 59.8975C235.553 59.8107 235.398 59.7533 235.236 59.7288C235.075 59.7042 234.91 59.713 234.752 59.7547L230.159 60.9736Z" fill="url(#paint3_linear_1007_3294)"/>
<path d="M230.337 63.8064C230.337 63.8064 230.288 44.6384 239.652 47.5562C249.016 50.474 240.759 68.7541 234.476 71.126L230.337 63.8064Z" fill="url(#paint4_linear_1007_3294)"/>
<path d="M297.76 243.531C300.356 225.199 281.374 198.253 273.524 188.028C271.27 185.106 270.03 181.53 269.99 177.84C269.759 151.878 280.656 135.204 298.124 124.008C298.124 124.008 361.508 197.863 345.369 254.669C343.766 260.422 341.099 265.823 337.506 270.593C334.964 249.188 310.227 244.519 297.76 243.531Z" fill="url(#paint5_linear_1007_3294)"/>
<path d="M296.579 236.438L298.994 236.161C296.955 218.186 281.174 195.991 274.488 187.285L272.56 188.766C279.123 197.32 294.604 219.066 296.579 236.438Z" fill="#00007E"/>
<path d="M297.268 246.066C297.486 245.23 297.652 244.383 297.766 243.527C310.232 244.516 334.969 249.184 337.512 270.589C309.225 308.004 231.261 296 231.261 296V279.946C231.261 279.946 291.132 268.821 297.268 246.066Z" fill="url(#paint6_linear_1007_3294)"/>
<path d="M242 297C242 297 229.696 260.96 208.015 273.743C186.334 286.527 188.031 294.892 188.031 294.892L242 297Z" fill="url(#paint7_linear_1007_3294)"/>
<path d="M241.337 296.987C241.259 297.976 240.802 298.897 240.062 299.558C239.322 300.218 238.355 300.568 237.364 300.533L132.251 296.866C131.454 296.838 130.686 296.563 130.052 296.08C129.417 295.596 128.949 294.927 128.711 294.166L125.661 284.402C125.485 283.842 125.441 283.25 125.53 282.669C125.619 282.089 125.839 281.537 126.174 281.055C126.509 280.574 126.949 280.175 127.462 279.889C127.975 279.603 128.546 279.439 129.132 279.408L167.461 277.368C167.809 277.351 168.158 277.38 168.498 277.455L238.33 292.933C239.235 293.134 240.037 293.654 240.589 294.399C241.142 295.143 241.407 296.062 241.337 296.987Z" fill="url(#paint8_linear_1007_3294)"/>
<path d="M170.879 292.287L167.987 278.809L128.614 280.686L131.205 291.87L170.879 292.287Z" fill="url(#paint9_linear_1007_3294)"/>
<path d="M191.063 147.209C193.292 165.42 203.316 239.407 206.185 260.547C206.279 261.245 206.22 261.956 206.012 262.629C205.805 263.303 205.453 263.923 204.981 264.446C204.509 264.97 203.929 265.384 203.281 265.661C202.633 265.938 201.933 266.07 201.228 266.048L31.1768 261.185C30.0954 261.154 29.0554 260.763 28.2213 260.074C27.3873 259.385 26.8067 258.437 26.5716 257.381L0.118713 138.235C-0.0437775 137.501 -0.0339508 136.739 0.14743 136.01C0.328812 135.28 0.676788 134.603 1.16405 134.031C1.65131 133.458 2.2646 133.007 2.95573 132.711C3.64687 132.416 4.39705 132.285 5.14735 132.328L186.524 142.953C187.658 143.02 188.734 143.483 189.563 144.26C190.392 145.038 190.923 146.081 191.063 147.209Z" fill="url(#paint10_linear_1007_3294)"/>
<path d="M122.71 221.925L147.842 293.269L89.4023 294.508L84.5399 222.347C84.4861 221.55 84.6033 220.751 84.8836 220.002C85.164 219.254 85.601 218.575 86.1654 218.009C86.7298 217.444 87.4086 217.005 88.1562 216.723C88.9038 216.442 89.703 216.323 90.5002 216.375L117.792 218.187C118.888 218.261 119.938 218.654 120.812 219.318C121.686 219.983 122.346 220.889 122.71 221.925Z" fill="url(#paint11_linear_1007_3294)"/>
<path d="M171.532 294.286C171.682 294.742 171.721 295.227 171.647 295.701C171.573 296.175 171.388 296.624 171.106 297.013C170.825 297.401 170.455 297.718 170.028 297.936C169.601 298.154 169.128 298.267 168.648 298.267H77.1286C76.3236 298.267 75.5516 297.948 74.9825 297.378C74.4133 296.809 74.0935 296.037 74.0935 295.232V291.31C74.0933 290.9 74.1761 290.495 74.3368 290.118C74.4975 289.741 74.7328 289.401 75.0286 289.117C75.3243 288.834 75.6744 288.613 76.0577 288.469C76.4409 288.324 76.8495 288.259 77.2588 288.276L168.778 292.198C169.395 292.224 169.99 292.438 170.482 292.811C170.974 293.184 171.34 293.699 171.532 294.286Z" fill="url(#paint12_linear_1007_3294)"/>
<path d="M196.502 243.888L198.371 258.125L197.168 258.283L195.298 244.046L196.502 243.888Z" fill="#91B3FA"/>
<path d="M203.157 84.0166C222.041 85.4426 233.017 65.9137 233.127 65.716L231.861 65.0195C231.758 65.2093 221.216 83.9319 203.266 82.5765L203.157 84.0166Z" fill="url(#paint13_linear_1007_3294)"/>
<path d="M195.463 83.2846C195.463 83.8221 195.677 84.3376 196.057 84.7177C196.437 85.0978 196.952 85.3114 197.49 85.3114H202.893C203.431 85.3114 203.946 85.0978 204.326 84.7177C204.706 84.3376 204.92 83.8221 204.92 83.2846C204.92 83.0184 204.868 82.7547 204.766 82.5087C204.664 82.2627 204.515 82.0392 204.327 81.851C204.139 81.6627 203.915 81.5135 203.669 81.4117C203.423 81.3099 203.16 81.2576 202.893 81.2578H197.49C197.224 81.2576 196.96 81.3099 196.714 81.4117C196.468 81.5135 196.245 81.6627 196.056 81.851C195.868 82.0392 195.719 82.2627 195.617 82.5087C195.515 82.7547 195.463 83.0184 195.463 83.2846Z" fill="url(#paint14_linear_1007_3294)"/>
<path d="M231.829 44.0509C231.829 44.0509 225.052 9.28206 205.083 6.00188C205.083 6.00188 210.73 3.15468 216.633 6.2419C222.537 9.32912 237.43 26.2539 236.822 44.909C232.769 46.3679 231.829 44.0509 231.829 44.0509Z" fill="url(#paint15_linear_1007_3294)"/>
<path d="M235.296 42.4019C245.676 44.5086 244.393 57.6387 244.393 57.6387C245.142 67.1671 242.354 71.8905 238.797 74.1416C237.599 74.8948 236.228 75.3255 234.814 75.3919C233.401 75.4583 231.995 75.1581 230.732 74.5205C229.47 73.8828 228.393 72.9294 227.607 71.7528C226.822 70.5763 226.354 69.2165 226.249 67.8056C226.056 65.2125 225.836 62.748 225.645 61.8727C225.182 59.7518 224.914 40.2919 235.296 42.4019Z" fill="url(#paint16_linear_1007_3294)"/>
<path d="M234.344 45.7234C235.389 45.5399 236.466 45.7143 237.399 46.2185C238.333 46.7226 239.07 47.527 239.49 48.5015C245.695 62.8772 238.078 72.2267 234.338 72.4228C230.396 72.6283 230.476 53.6626 231.313 48.7996C231.663 46.7634 232.96 45.9634 234.344 45.7234Z" fill="url(#paint17_linear_1007_3294)"/>
<defs>
<linearGradient id="paint0_linear_1007_3294" x1="186.237" y1="180.737" x2="324.079" y2="359.098" gradientUnits="userSpaceOnUse">
<stop stop-color="#66C3CD"/>
<stop offset="1" stop-color="#9DD3E1"/>
</linearGradient>
<linearGradient id="paint1_linear_1007_3294" x1="245.591" y1="172.688" x2="216.953" y2="95.3534" gradientUnits="userSpaceOnUse">
<stop stop-color="#FEBBBA"/>
<stop offset="1" stop-color="#FF928E"/>
</linearGradient>
<linearGradient id="paint2_linear_1007_3294" x1="190.442" y1="55.7859" x2="274.38" y2="90.8946" gradientUnits="userSpaceOnUse">
<stop stop-color="#FEBBBA"/>
<stop offset="1" stop-color="#FF928E"/>
</linearGradient>
<linearGradient id="paint3_linear_1007_3294" x1="195.368" y1="-32.1686" x2="230.673" y2="73.7339" gradientUnits="userSpaceOnUse">
<stop stop-color="#09005D"/>
<stop offset="1" stop-color="#1A0F91"/>
</linearGradient>
<linearGradient id="paint4_linear_1007_3294" x1="196.133" y1="42.1706" x2="280.072" y2="77.2808" gradientUnits="userSpaceOnUse">
<stop stop-color="#FEBBBA"/>
<stop offset="1" stop-color="#FF928E"/>
</linearGradient>
<linearGradient id="paint5_linear_1007_3294" x1="254.774" y1="127.774" x2="392.614" y2="306.134" gradientUnits="userSpaceOnUse">
<stop stop-color="#66C3CD"/>
<stop offset="1" stop-color="#9DD3E1"/>
</linearGradient>
<linearGradient id="paint6_linear_1007_3294" x1="304.424" y1="222.511" x2="258.212" y2="344.111" gradientUnits="userSpaceOnUse">
<stop stop-color="#FEBBBA"/>
<stop offset="1" stop-color="#FF928E"/>
</linearGradient>
<linearGradient id="paint7_linear_1007_3294" x1="250.926" y1="177.928" x2="179.7" y2="328.935" gradientUnits="userSpaceOnUse">
<stop stop-color="#FEBBBA"/>
<stop offset="1" stop-color="#FF928E"/>
</linearGradient>
<linearGradient id="paint8_linear_1007_3294" x1="252.191" y1="273.434" x2="141.372" y2="300.071" gradientUnits="userSpaceOnUse">
<stop stop-color="#4042E2"/>
<stop offset="1" stop-color="#4F52FF"/>
</linearGradient>
<linearGradient id="paint9_linear_1007_3294" x1="249.758" y1="262.442" x2="138.939" y2="289.079" gradientUnits="userSpaceOnUse">
<stop stop-color="#4042E2"/>
<stop offset="1" stop-color="#4F52FF"/>
</linearGradient>
<linearGradient id="paint10_linear_1007_3294" x1="63.6183" y1="223.963" x2="246.291" y2="109.401" gradientUnits="userSpaceOnUse">
<stop stop-color="#4042E2"/>
<stop offset="1" stop-color="#4F52FF"/>
</linearGradient>
<linearGradient id="paint11_linear_1007_3294" x1="117.304" y1="303.652" x2="115.143" y2="215.014" gradientUnits="userSpaceOnUse">
<stop stop-color="#4042E2"/>
<stop offset="1" stop-color="#4F52FF"/>
</linearGradient>
<linearGradient id="paint12_linear_1007_3294" x1="125.219" y1="155.869" x2="124.138" y2="219.647" gradientUnits="userSpaceOnUse">
<stop stop-color="#4042E2"/>
<stop offset="1" stop-color="#4F52FF"/>
</linearGradient>
<linearGradient id="paint13_linear_1007_3294" x1="233.83" y1="89.9385" x2="209.095" y2="66.16" gradientUnits="userSpaceOnUse">
<stop stop-color="#4042E2"/>
<stop offset="1" stop-color="#4F52FF"/>
</linearGradient>
<linearGradient id="paint14_linear_1007_3294" x1="204.92" y1="83.2846" x2="195.463" y2="83.2846" gradientUnits="userSpaceOnUse">
<stop stop-color="#4042E2"/>
<stop offset="1" stop-color="#4F52FF"/>
</linearGradient>
<linearGradient id="paint15_linear_1007_3294" x1="151.227" y1="0.0730859" x2="357.782" y2="71.6766" gradientUnits="userSpaceOnUse">
<stop stop-color="#4042E2"/>
<stop offset="1" stop-color="#4F52FF"/>
</linearGradient>
<linearGradient id="paint16_linear_1007_3294" x1="198.945" y1="46.6097" x2="304.951" y2="83.358" gradientUnits="userSpaceOnUse">
<stop stop-color="#4042E2"/>
<stop offset="1" stop-color="#4F52FF"/>
</linearGradient>
<linearGradient id="paint17_linear_1007_3294" x1="253.76" y1="-6.3468" x2="245.111" y2="24.6393" gradientUnits="userSpaceOnUse">
<stop stop-color="#4042E2"/>
<stop offset="1" stop-color="#4F52FF"/>
</linearGradient>
</defs>
</svg>
