<svg width="103" height="101" viewBox="0 0 103 101" fill="none" xmlns="http://www.w3.org/2000/svg">
<g clip-path="url(#clip0_1007_3405)">
<path d="M11.8686 68.1978H24.0286C18.5857 62.8565 13.7496 56.9292 9.60863 50.524L9.23864 49.9336C9.23864 50.7943 9.23864 51.6749 9.23864 52.5856V52.7858C9.21784 58.0367 10.1077 63.2514 11.8686 68.1978Z" fill="#70ADFF"/>
<path d="M27.7994 15.943C25.7041 17.4886 23.7438 19.2095 21.9394 21.087C19.1619 23.9629 16.7809 27.1974 14.8594 30.7044C15.746 32.1322 16.7794 33.7034 17.9594 35.4181H36.5394C38.2394 25.7911 41.4632 16.4971 46.0894 7.88672C39.4742 9.19116 33.2287 11.9422 27.7994 15.943Z" fill="#70ADFF"/>
<path d="M36.2399 37.3711H19.3398C24.0573 43.8725 29.3089 49.9683 35.0399 55.5952C35.0399 54.5944 35.0399 53.7038 35.0399 52.763C35.0331 47.6087 35.4344 42.462 36.2399 37.3711Z" fill="#70ADFF"/>
<path d="M46.1191 97.6815C43.7105 93.2067 41.6833 88.5365 40.0591 83.7207L27.2091 81.1987C27.0482 81.1641 26.8982 81.0903 26.7726 80.9838C26.647 80.8773 26.5497 80.7415 26.4891 80.5883C26.4316 80.4351 26.4124 80.2702 26.4333 80.1079C26.4543 79.9457 26.5146 79.791 26.6091 79.6575L30.6091 74.2433C29.0491 72.909 27.5391 71.5479 26.0791 70.1602H12.6191C15.487 77.1664 20.0499 83.3494 25.8974 88.1533C31.7449 92.9573 38.6938 96.2315 46.1191 97.6815Z" fill="#70ADFF"/>
<path d="M73.2687 70.1602C71.5653 79.7767 68.3416 89.0603 63.7188 97.6615C71.1285 96.1826 78.0602 92.8998 83.9012 88.1033C89.7422 83.3068 94.3127 77.1442 97.2087 70.1602H73.2687Z" fill="#70ADFF"/>
<path d="M61.2496 98.0818C66.1108 89.3957 69.4905 79.959 71.2496 70.1602H53.0596L58.6995 85.9024C58.7616 86.0701 58.7777 86.2514 58.746 86.4274C58.7144 86.6034 58.6361 86.7677 58.5195 86.9032C58.4269 87.0087 58.3132 87.0935 58.1857 87.1521C58.0582 87.2107 57.9198 87.2418 57.7795 87.2434C57.7165 87.2527 57.6525 87.2527 57.5895 87.2434L42.2695 84.2411C43.9568 89.0334 46.0546 93.6709 48.5396 98.1018C50.6376 98.3866 52.7523 98.5304 54.8696 98.5322C57.0043 98.5356 59.1365 98.3852 61.2496 98.0818Z" fill="#70ADFF"/>
<path d="M99.6791 44.6482H61.149C60.4161 44.6482 59.7131 44.3575 59.1939 43.8398C58.6747 43.3221 58.3817 42.6196 58.3791 41.8861V7.20918L54.5391 7.03906C52.5551 7.05981 50.5744 7.20689 48.6091 7.47941C43.7498 16.1736 40.3703 25.6165 38.6091 35.4211H54.6091C54.8743 35.4211 55.1286 35.5265 55.3162 35.7142C55.5037 35.9019 55.6091 36.1564 55.6091 36.4218C55.6091 36.6873 55.5037 36.9418 55.3162 37.1295C55.1286 37.3172 54.8743 37.4226 54.6091 37.4226H38.3091C37.4705 42.5104 37.0457 47.658 37.0391 52.8146C37.0391 54.4158 37.0891 56.027 37.1691 57.6183C38.7891 59.1495 40.479 60.7007 42.259 62.2719L46.6191 56.4774C46.7268 56.3375 46.8696 56.2287 47.0329 56.1619C47.1962 56.0951 47.3743 56.0727 47.5491 56.0971C47.7223 56.1267 47.8848 56.2015 48.02 56.3139C48.1551 56.4264 48.2583 56.5725 48.3191 56.7376L52.449 68.2465H71.709C72.5384 63.1511 72.9564 57.9971 72.959 52.8346C72.959 51.5736 72.9591 50.2726 72.8791 48.9916C72.8785 48.7379 72.9741 48.4934 73.1468 48.3076C73.3194 48.1218 73.5562 48.0086 73.8091 47.9908C74.0642 47.9904 74.3099 48.0875 74.4958 48.2624C74.6817 48.4373 74.7938 48.6767 74.8091 48.9315C74.8091 50.2326 74.889 51.5436 74.889 52.8246C74.8884 57.9761 74.4805 63.1194 73.6691 68.2065H98.0291C99.8036 63.2625 100.707 58.0478 100.699 52.7946V52.4343C100.728 51.3043 100.675 50.1738 100.539 49.0516C100.329 48.0308 100.029 46.4196 99.6791 44.6482Z" fill="#70ADFF"/>
<path d="M2.54098 31.0482C5.13098 39.5648 12.471 56.3779 32.541 73.341C32.7233 73.5046 32.8392 73.7295 32.8668 73.973C32.8945 74.2165 32.8319 74.4616 32.691 74.662L29.111 79.5758L56.281 84.9L47.001 59.0499L43.111 64.2339C43.0288 64.3396 42.9263 64.4278 42.8095 64.4931C42.6927 64.5584 42.564 64.5996 42.431 64.6142C42.2985 64.6271 42.1649 64.6133 42.0378 64.5738C41.9107 64.5343 41.7928 64.4698 41.691 64.3841C24.361 49.4224 15.021 35.1814 11.001 28.0259C10.2785 26.7151 9.99442 25.2072 10.1906 23.7232C10.3867 22.2392 11.0527 20.8571 12.091 19.7794C14.841 16.9673 18.441 16.587 21.031 18.8487L21.111 18.9188L21.331 19.159L25.601 15.336L22.221 13.8448C19.2882 12.4959 15.9854 12.1811 12.851 12.9517C9.71653 13.7223 6.93535 15.5328 4.96097 18.0881C3.55045 19.8968 2.59449 22.0179 2.17337 24.2731C1.75225 26.5284 1.87831 28.8518 2.54098 31.0482Z" fill="#66C3CD"/>
<path d="M99.8295 2.36426H87.8295V16.6753C87.8276 16.8411 87.7846 17.0038 87.7043 17.1488C87.624 17.2938 87.509 17.4165 87.3696 17.506C87.2175 17.5938 87.0451 17.6401 86.8696 17.6401C86.694 17.6401 86.5216 17.5938 86.3696 17.506L80.4396 14.5037L74.4996 17.506C74.3633 17.5759 74.2127 17.6136 74.0596 17.6161C73.8785 17.6174 73.7011 17.5651 73.5496 17.466C73.4083 17.3776 73.2913 17.2554 73.2092 17.1103C73.1271 16.9653 73.0825 16.802 73.0795 16.6353V2.32422H61.0795C60.8647 2.32422 60.6587 2.40962 60.5068 2.56165C60.3549 2.71367 60.2695 2.91985 60.2695 3.13485V41.8649C60.2695 42.0799 60.3549 42.2861 60.5068 42.4381C60.6587 42.5901 60.8647 42.6755 61.0795 42.6755H99.7595C99.9735 42.6729 100.178 42.5867 100.329 42.4352C100.481 42.2838 100.567 42.0791 100.57 41.8649V3.15488C100.565 2.95496 100.487 2.76363 100.351 2.61769C100.214 2.47175 100.029 2.3815 99.8295 2.36426Z" fill="#66C3CD"/>
<path d="M102.59 41.8667V3.15668C102.587 2.42493 102.295 1.7239 101.778 1.20647C101.261 0.689039 100.561 0.397168 99.8296 0.394531H61.1496C60.4166 0.394526 59.7136 0.685212 59.1944 1.20293C58.6752 1.72064 58.3822 2.4232 58.3796 3.15668V5.23829L54.5696 5.06817C52.3269 5.08477 50.088 5.25866 47.8696 5.58856C40.4157 6.71047 33.3346 9.58832 27.2096 13.9851C27.1061 13.8679 26.9803 13.7726 26.8396 13.7048L23.0596 12.0636C19.7287 10.5367 15.9793 10.1834 12.4221 11.0611C8.86496 11.9388 5.70949 13.9959 3.46956 16.8973C1.87498 18.9518 0.795794 21.3589 0.322529 23.9169C-0.150736 26.4749 -0.00425702 29.1091 0.749592 31.5987C2.41258 37.025 4.69072 42.243 7.53957 47.1508C7.28194 48.9501 7.17823 50.7681 7.22957 52.585V52.7852C7.20974 58.4986 8.22621 64.1681 10.2296 69.5182C13.2051 77.484 18.2563 84.5079 24.8591 89.8611C31.4619 95.2143 39.3757 98.7018 47.7796 99.9618C50.1263 100.315 52.4963 100.493 54.8696 100.492C57.2124 100.488 59.5519 100.314 61.8696 99.9718H61.9396C69.263 98.8788 76.227 96.0781 82.2696 91.7955C90.1432 86.2866 96.1643 78.5197 99.5396 69.5182C101.538 64.1667 102.554 58.4981 102.54 52.7852V52.4349C102.567 51.2082 102.51 49.981 102.37 48.7621C102.21 47.6712 101.89 45.9199 101.51 44.0384C101.843 43.7831 102.114 43.4545 102.302 43.0781C102.489 42.7016 102.587 42.2872 102.59 41.8667ZM22.2196 13.845L25.5996 15.3161L21.3295 19.1391L21.1096 18.8989L21.0296 18.8288C18.4396 16.5671 14.8396 16.9474 12.0896 19.7596C11.0513 20.8372 10.3853 22.2193 10.1892 23.7033C9.99301 25.1873 10.2771 26.6952 10.9996 28.0059C14.9996 35.1615 24.3596 49.4026 41.6896 64.3642C41.7914 64.4499 41.9093 64.5144 42.0364 64.5539C42.1635 64.5934 42.2971 64.6072 42.4296 64.5943C42.5626 64.5797 42.6913 64.5385 42.8081 64.4732C42.9249 64.4079 43.0274 64.3197 43.1096 64.214L46.9996 59.03L56.2796 84.9001L29.0996 79.576L32.6796 74.6621C32.8205 74.4618 32.8831 74.2166 32.8554 73.9731C32.8278 73.7296 32.7118 73.5048 32.5296 73.3411C12.5296 56.378 5.15956 39.5649 2.52956 31.0483C1.86783 28.8586 1.7395 26.5422 2.15529 24.2928C2.57109 22.0433 3.51893 19.9261 4.91958 18.1183C6.89203 15.5487 9.67846 13.7263 12.8219 12.9498C15.9653 12.1734 19.279 12.489 22.2196 13.845ZM13.6995 28.7565C13.3395 28.1461 12.9995 27.5656 12.6995 27.0352C12.1766 26.0972 11.9691 25.0157 12.1077 23.9506C12.2464 22.8854 12.7239 21.8932 13.4696 21.1206C14.9896 19.5594 17.5295 18.4085 19.6995 20.2599L19.8496 20.4201C17.4949 22.9712 15.4321 25.7774 13.6995 28.7866V28.7565ZM19.3396 37.3432H36.2396C35.4207 42.433 35.0061 47.5798 34.9996 52.7351C34.9996 53.6759 34.9996 54.6166 34.9996 55.5673C29.2838 49.9484 24.0456 43.8627 19.3396 37.3732V37.3432ZM17.9596 35.3917C16.7796 33.6837 15.7462 32.1125 14.8596 30.678C16.7811 27.171 19.1621 23.9365 21.9396 21.0606C23.744 19.1831 25.7043 17.4622 27.7996 15.9166C33.2377 11.9117 39.4939 9.16055 46.1196 7.86031C41.48 16.4783 38.2459 25.7826 36.5396 35.4217L17.9596 35.3917ZM9.23958 49.9029L9.60958 50.4934C13.7506 56.8986 18.5866 62.8258 24.0296 68.1671H11.8696C10.095 63.2232 9.19158 58.0084 9.19954 52.7552V52.555C9.19954 51.6743 9.19958 50.7936 9.23958 49.933V49.9029ZM26.0396 70.1286C27.4996 71.5097 29.0096 72.8708 30.5696 74.2118L26.5696 79.626C26.4751 79.7595 26.4147 79.9141 26.3938 80.0764C26.3729 80.2387 26.392 80.4036 26.4495 80.5567C26.5101 80.7099 26.6075 80.8458 26.7331 80.9523C26.8587 81.0588 27.0086 81.1326 27.1696 81.1672L40.0196 83.6892C41.6437 88.505 43.6709 93.1752 46.0795 97.65C38.6542 96.1999 31.7053 92.9257 25.8578 88.1218C20.0103 83.3179 15.4474 77.1348 12.5795 70.1286H26.0396ZM48.5396 98.1003C46.0362 93.6419 43.9249 88.974 42.2296 84.1495L57.5496 87.1518C57.6126 87.1612 57.6766 87.1612 57.7396 87.1518C57.8799 87.1503 58.0183 87.1191 58.1458 87.0605C58.2733 87.0019 58.387 86.9171 58.4796 86.8116C58.5962 86.6761 58.6744 86.5118 58.706 86.3358C58.7377 86.1598 58.7216 85.9785 58.6596 85.8108L53.0196 70.1086H71.2396C69.4805 79.9075 66.1008 89.3442 61.2396 98.0303C59.1397 98.3317 57.0209 98.4822 54.8996 98.4806C52.7734 98.4968 50.6486 98.3697 48.5396 98.1003ZM63.6796 97.66C68.3024 89.0588 71.5262 79.7752 73.2296 70.1586H97.1696C94.2772 77.1378 89.7129 83.2972 83.8792 88.0934C78.0456 92.8896 71.1221 96.1751 63.7196 97.66H63.6796ZM100.59 52.4249V52.7852C100.598 58.0384 99.6941 63.2532 97.9196 68.1971H73.5996C74.411 63.1101 74.819 57.9667 74.8196 52.8152C74.8196 51.5342 74.8196 50.2232 74.7396 48.9222C74.7243 48.6673 74.6122 48.4279 74.4263 48.253C74.2404 48.0782 73.9947 47.981 73.7396 47.9814C73.4867 47.9992 73.2499 48.1124 73.0773 48.2982C72.9046 48.484 72.809 48.7285 72.8096 48.9822C72.8096 50.2632 72.8895 51.5642 72.8895 52.8252C72.8869 57.9878 72.4689 63.1418 71.6395 68.2372H52.3596L48.2296 56.7282C48.1688 56.5632 48.0656 56.4171 47.9304 56.3046C47.7953 56.1922 47.6328 56.1173 47.4596 56.0877C47.2848 56.0634 47.1067 56.0858 46.9434 56.1525C46.78 56.2193 46.6373 56.3282 46.5296 56.468L42.1696 62.2625C40.3896 60.6913 38.6995 59.1401 37.0795 57.6089C36.9995 56.0177 36.9495 54.4064 36.9495 52.8052C36.9562 47.6486 37.381 42.5011 38.2196 37.4132H54.5396C54.8048 37.4132 55.0591 37.3078 55.2467 37.1201C55.4342 36.9325 55.5396 36.6779 55.5396 36.4125C55.5396 36.147 55.4342 35.8925 55.2467 35.7048C55.0591 35.5171 54.8048 35.4117 54.5396 35.4117H38.5396C40.3008 25.6071 43.6803 16.1642 48.5396 7.47003C50.5049 7.19752 52.4856 7.05044 54.4696 7.02968L58.3396 7.1998V41.8667C58.3422 42.6002 58.6353 43.3027 59.1544 43.8204C59.6736 44.3382 60.3767 44.6289 61.1096 44.6289H99.6395C99.9895 46.4002 100.29 48.0115 100.43 49.0223C100.579 50.15 100.646 51.2873 100.63 52.4249H100.59ZM100.59 41.8867C100.587 42.1009 100.501 42.3056 100.349 42.457C100.198 42.6085 99.9936 42.6947 99.7796 42.6973H61.1496C60.9347 42.6973 60.7287 42.6119 60.5768 42.4599C60.4249 42.3079 60.3396 42.1017 60.3396 41.8867V3.17669C60.3396 2.9617 60.4249 2.75551 60.5768 2.60349C60.7287 2.45147 60.9347 2.36606 61.1496 2.36606H73.1496V16.6772C73.1526 16.8438 73.1972 17.0071 73.2793 17.1522C73.3613 17.2973 73.4783 17.4195 73.6196 17.5078C73.7711 17.607 73.9485 17.6592 74.1296 17.6579C74.2828 17.6554 74.4333 17.6178 74.5696 17.5479L80.5095 14.5455L86.4396 17.5479C86.5916 17.6357 86.7641 17.6819 86.9396 17.6819C87.1151 17.6819 87.2876 17.6357 87.4396 17.5479C87.579 17.4584 87.694 17.3356 87.7743 17.1906C87.8546 17.0456 87.8976 16.8829 87.8996 16.7172V2.4061H99.8996C100.114 2.4061 100.32 2.49151 100.472 2.64353C100.624 2.79555 100.71 3.00174 100.71 3.21673L100.59 41.8867ZM85.8396 15.0859L80.8396 12.574C80.7026 12.5068 80.5521 12.4719 80.3996 12.4719C80.247 12.4719 80.0965 12.5068 79.9596 12.574L74.9596 15.0859V2.24597H85.7595L85.8396 15.0859Z" fill="#091796"/>
<path d="M75.0898 2.24219V15.0821L80.0898 12.5702C80.2268 12.503 80.3773 12.4681 80.5298 12.4681C80.6824 12.4681 80.8329 12.503 80.9698 12.5702L85.9698 15.0821V2.24219H75.1699H75.0898Z" fill="white"/>
</g>
<defs>
<clipPath id="clip0_1007_3405">
<rect width="102.59" height="100.078" fill="white" transform="translate(0 0.414062)"/>
</clipPath>
</defs>
</svg>
