<svg width="111" height="101" viewBox="0 0 111 101" fill="none" xmlns="http://www.w3.org/2000/svg">
<path d="M2.13086 6.9451V30.4533H45.2209C45.3104 30.4388 45.4016 30.4388 45.491 30.4533C45.5837 30.438 45.6782 30.438 45.7709 30.4533H73.5909C74.2611 29.6091 75.0076 28.8286 75.8209 28.1215C79.4782 24.9684 84.115 23.1822 88.9409 23.0676V6.9451C88.912 5.62494 88.3629 4.36973 87.4132 3.45304C86.4635 2.53635 85.1903 2.03249 83.871 2.05129H7.20093C5.88161 2.03249 4.60839 2.53635 3.65869 3.45304C2.70899 4.36973 2.15975 5.62494 2.13086 6.9451ZM62.981 15.832H74.2509C74.5161 15.832 74.7705 15.9374 74.958 16.1251C75.1455 16.3128 75.2509 16.5674 75.2509 16.8328C75.2509 17.0982 75.1455 17.3527 74.958 17.5404C74.7705 17.7281 74.5161 17.8336 74.2509 17.8336H62.981C62.7157 17.8336 62.4613 17.7281 62.2738 17.5404C62.0863 17.3527 61.981 17.0982 61.981 16.8328C61.981 16.5674 62.0863 16.3128 62.2738 16.1251C62.4613 15.9374 62.7157 15.832 62.981 15.832ZM39.9009 15.832H51.1709C51.4361 15.832 51.6905 15.9374 51.8781 16.1251C52.0656 16.3128 52.1709 16.5674 52.1709 16.8328C52.1709 17.0982 52.0656 17.3527 51.8781 17.5404C51.6905 17.7281 51.4361 17.8336 51.1709 17.8336H39.9009C39.6357 17.8336 39.3814 17.7281 39.1938 17.5404C39.0063 17.3527 38.9009 17.0982 38.9009 16.8328C38.9009 16.5674 39.0063 16.3128 39.1938 16.1251C39.3814 15.9374 39.6357 15.832 39.9009 15.832ZM16.8209 15.832H28.0609C28.3261 15.832 28.5805 15.9374 28.7681 16.1251C28.9556 16.3128 29.0609 16.5674 29.0609 16.8328C29.0609 17.0982 28.9556 17.3527 28.7681 17.5404C28.5805 17.7281 28.3261 17.8336 28.0609 17.8336H16.7909C16.5257 17.8336 16.2714 17.7281 16.0839 17.5404C15.8963 17.3527 15.7909 17.0982 15.7909 16.8328C15.7908 16.6988 15.8176 16.5662 15.8698 16.4427C15.9219 16.3193 15.9983 16.2076 16.0944 16.1143C16.1904 16.021 16.3041 15.9479 16.429 15.8994C16.5538 15.8509 16.6871 15.828 16.8209 15.832Z" fill="white"/>
<path d="M44.4609 32.5039H2.13086V64.1985H44.4609V32.5039ZM31.6809 49.6672H14.0609C13.7957 49.6672 13.5413 49.5618 13.3538 49.3741C13.1662 49.1864 13.0609 48.9319 13.0609 48.6665C13.0609 48.401 13.1662 48.1465 13.3538 47.9588C13.5413 47.7711 13.7957 47.6657 14.0609 47.6657H31.7209C31.9862 47.6657 32.2404 47.7711 32.428 47.9588C32.6155 48.1465 32.7209 48.401 32.7209 48.6665C32.7211 48.8013 32.6939 48.9348 32.6411 49.0589C32.5884 49.183 32.5112 49.2952 32.4141 49.3886C32.3169 49.4821 32.2019 49.555 32.0759 49.6029C31.9499 49.6507 31.8156 49.6726 31.6809 49.6672Z" fill="white"/>
<path d="M69.249 97.0354V90.1801V80.8529V71.5156V66.5117H46.5391V98.0762H69.4091C69.2998 97.7402 69.2457 97.3887 69.249 97.0354ZM62.9791 87.0276H59.1791C58.9139 87.0276 58.6595 86.9222 58.4719 86.7345C58.2844 86.5468 58.1791 86.2923 58.1791 86.0269C58.1791 85.7614 58.2844 85.5069 58.4719 85.3192C58.6595 85.1315 58.9139 85.0261 59.1791 85.0261H62.9791C63.2443 85.0261 63.4986 85.1315 63.6862 85.3192C63.8737 85.5069 63.9791 85.7614 63.9791 86.0269C63.9845 86.1616 63.9626 86.2961 63.9148 86.4222C63.867 86.5482 63.7941 86.6633 63.7007 86.7606C63.6073 86.8578 63.4952 86.9351 63.3712 86.9878C63.2472 87.0406 63.1139 87.0678 62.9791 87.0677V87.0276ZM62.9791 78.441H59.1791C58.9139 78.441 58.6595 78.3355 58.4719 78.1479C58.2844 77.9602 58.1791 77.7056 58.1791 77.4402C58.1791 77.1748 58.2844 76.9202 58.4719 76.7325C58.6595 76.5449 58.9139 76.4394 59.1791 76.4394H62.9791C63.2443 76.4394 63.4986 76.5449 63.6862 76.7325C63.8737 76.9202 63.9791 77.1748 63.9791 77.4402C63.9845 77.575 63.9626 77.7094 63.9148 77.8355C63.867 77.9616 63.7941 78.0767 63.7007 78.1739C63.6073 78.2711 63.4952 78.3484 63.3712 78.4012C63.2472 78.454 63.1139 78.4811 62.9791 78.481V78.441Z" fill="white"/>
<path d="M6.7291 97.9864H44.4691V66.4219H2.129V93.3328C2.12505 93.9408 2.24103 94.5436 2.47019 95.1067C2.69935 95.6699 3.03729 96.1822 3.46458 96.6145C3.89186 97.0467 4.40013 97.3904 4.9603 97.6258C5.52048 97.8612 6.12155 97.9838 6.7291 97.9864ZM14.019 80.723H21.8291V73.1671C21.8291 72.9017 21.9344 72.6471 22.1219 72.4595C22.3095 72.2718 22.5639 72.1663 22.8291 72.1663C23.0943 72.1663 23.3486 72.2718 23.5361 72.4595C23.7236 72.6471 23.8291 72.9017 23.8291 73.1671V80.723H31.629C31.8942 80.723 32.1486 80.8284 32.3362 81.0161C32.5237 81.2038 32.629 81.4583 32.629 81.7238C32.629 81.9892 32.5237 82.2437 32.3362 82.4314C32.1486 82.6191 31.8942 82.7245 31.629 82.7245H23.8291V90.2804C23.8291 90.5458 23.7236 90.8004 23.5361 90.9881C23.3486 91.1757 23.0943 91.2812 22.8291 91.2812C22.5639 91.2812 22.3095 91.1757 22.1219 90.9881C21.9344 90.8004 21.8291 90.5458 21.8291 90.2804V82.7245H14.0591C13.7938 82.7245 13.5394 82.6191 13.3519 82.4314C13.1644 82.2437 13.0591 81.9892 13.0591 81.7238C13.0591 81.4583 13.1644 81.2038 13.3519 81.0161C13.5394 80.8284 13.7938 80.723 14.0591 80.723H14.019Z" fill="#70ADFF"/>
<path d="M72.1696 32.5039H46.5195V64.1985H69.2795C69.3725 63.4698 69.7291 62.8006 70.282 62.3174C70.8348 61.8341 71.5456 61.5706 72.2795 61.5765H80.4296C78.7565 60.7974 77.2013 59.7867 75.8096 58.5742C71.6196 54.8813 69.3495 49.6272 69.2495 43.3724C69.228 39.5526 70.2368 35.7978 72.1696 32.5039Z" fill="#66C3CD"/>
<path d="M31.6805 47.618H14.0605C13.7953 47.618 13.5409 47.7234 13.3534 47.9111C13.1659 48.0988 13.0605 48.3533 13.0605 48.6188C13.0605 48.8842 13.1659 49.1388 13.3534 49.3264C13.5409 49.5141 13.7953 49.6195 14.0605 49.6195H31.7206C31.9858 49.6195 32.2401 49.5141 32.4276 49.3264C32.6151 49.1388 32.7206 48.8842 32.7206 48.6188C32.7207 48.4839 32.6935 48.3504 32.6407 48.2263C32.588 48.1022 32.5108 47.9901 32.4137 47.8966C32.3166 47.8031 32.2015 47.7302 32.0756 47.6824C31.9496 47.6345 31.8152 47.6126 31.6805 47.618Z" fill="#091796"/>
<path d="M62.9797 76.4297H59.1797C58.9145 76.4297 58.6601 76.5351 58.4725 76.7228C58.285 76.9105 58.1797 77.165 58.1797 77.4305C58.1797 77.6959 58.285 77.9504 58.4725 78.1381C58.6601 78.3258 58.9145 78.4312 59.1797 78.4312H62.9797C63.245 78.4312 63.4992 78.3258 63.6868 78.1381C63.8743 77.9504 63.9797 77.6959 63.9797 77.4305C63.9797 77.165 63.8743 76.9105 63.6868 76.7228C63.4992 76.5351 63.245 76.4297 62.9797 76.4297Z" fill="#091796"/>
<path d="M62.9797 85.0195H59.1797C58.9145 85.0195 58.6601 85.125 58.4725 85.3127C58.285 85.5003 58.1797 85.7549 58.1797 86.0203C58.1797 86.2857 58.285 86.5403 58.4725 86.728C58.6601 86.9157 58.9145 87.0211 59.1797 87.0211H62.9797C63.245 87.0211 63.4992 86.9157 63.6868 86.728C63.8743 86.5403 63.9797 86.2857 63.9797 86.0203C63.9797 85.7549 63.8743 85.5003 63.6868 85.3127C63.4992 85.125 63.245 85.0195 62.9797 85.0195Z" fill="#091796"/>
<path d="M14.0605 82.773H21.8706V90.3289C21.8706 90.5943 21.9759 90.8489 22.1635 91.0365C22.351 91.2242 22.6054 91.3297 22.8706 91.3297C23.1358 91.3297 23.3901 91.2242 23.5776 91.0365C23.7652 90.8489 23.8706 90.5943 23.8706 90.3289V82.773H31.6705C31.9357 82.773 32.1901 82.6676 32.3777 82.4799C32.5652 82.2922 32.6705 82.0377 32.6705 81.7722C32.6705 81.5068 32.5652 81.2523 32.3777 81.0646C32.1901 80.8769 31.9357 80.7715 31.6705 80.7715H23.8706V73.2156C23.8706 72.9502 23.7652 72.6956 23.5776 72.5079C23.3901 72.3203 23.1358 72.2148 22.8706 72.2148C22.6054 72.2148 22.351 72.3203 22.1635 72.5079C21.9759 72.6956 21.8706 72.9502 21.8706 73.2156V80.7715H14.0605C13.7953 80.7715 13.5409 80.8769 13.3534 81.0646C13.1659 81.2523 13.0605 81.5068 13.0605 81.7722C13.0605 82.0377 13.1659 82.2922 13.3534 82.4799C13.5409 82.6676 13.7953 82.773 14.0605 82.773Z" fill="#091796"/>
<path d="M39.9004 17.8844H51.1704C51.4356 17.8844 51.69 17.7789 51.8776 17.5912C52.0651 17.4035 52.1704 17.149 52.1704 16.8836C52.1704 16.6182 52.0651 16.3636 51.8776 16.1759C51.69 15.9883 51.4356 15.8828 51.1704 15.8828H39.9004C39.6352 15.8828 39.3809 15.9883 39.1934 16.1759C39.0058 16.3636 38.9004 16.6182 38.9004 16.8836C38.9004 17.149 39.0058 17.4035 39.1934 17.5912C39.3809 17.7789 39.6352 17.8844 39.9004 17.8844Z" fill="#091796"/>
<path d="M62.9805 17.8844H74.2504C74.5156 17.8844 74.77 17.7789 74.9575 17.5912C75.1451 17.4035 75.2504 17.149 75.2504 16.8836C75.2504 16.6182 75.1451 16.3636 74.9575 16.1759C74.77 15.9883 74.5156 15.8828 74.2504 15.8828H62.9805C62.7153 15.8828 62.4609 15.9883 62.2733 16.1759C62.0858 16.3636 61.9805 16.6182 61.9805 16.8836C61.9805 17.149 62.0858 17.4035 62.2733 17.5912C62.4609 17.7789 62.7153 17.8844 62.9805 17.8844Z" fill="#091796"/>
<path d="M16.8191 17.8844H28.0591C28.3243 17.8844 28.5787 17.7789 28.7662 17.5912C28.9538 17.4035 29.0591 17.149 29.0591 16.8836C29.0591 16.6182 28.9538 16.3636 28.7662 16.1759C28.5787 15.9883 28.3243 15.8828 28.0591 15.8828H16.7891C16.5238 15.8828 16.2696 15.9883 16.082 16.1759C15.8945 16.3636 15.7891 16.6182 15.7891 16.8836C15.789 17.0176 15.8158 17.1502 15.8679 17.2736C15.92 17.3971 15.9965 17.5087 16.0925 17.6021C16.1886 17.6954 16.3023 17.7685 16.4271 17.817C16.5519 17.8655 16.6853 17.8884 16.8191 17.8844Z" fill="#091796"/>
<path d="M89.7913 63.6338H72.2812C72.016 63.6338 71.7618 63.7392 71.5742 63.9269C71.3867 64.1146 71.2812 64.3691 71.2812 64.6345V70.429H84.0613C84.3265 70.429 84.5809 70.5345 84.7684 70.7222C84.956 70.9099 85.0613 71.1644 85.0613 71.4298C85.0613 71.6952 84.956 71.9498 84.7684 72.1375C84.5809 72.3251 84.3265 72.4306 84.0613 72.4306H71.3513V79.7263H84.0613C84.3265 79.7263 84.5809 79.8317 84.7684 80.0194C84.956 80.207 85.0613 80.4616 85.0613 80.727C85.0613 80.9925 84.956 81.247 84.7684 81.4347C84.5809 81.6224 84.3265 81.7278 84.0613 81.7278H71.3513V89.0135H84.0613C84.3265 89.0135 84.5809 89.1189 84.7684 89.3066C84.956 89.4943 85.0613 89.7488 85.0613 90.0142C85.0613 90.2797 84.956 90.5342 84.7684 90.7219C84.5809 90.9096 84.3265 91.015 84.0613 91.015H71.3513V96.8595C71.3513 97.125 71.4566 97.3795 71.6442 97.5672C71.8317 97.7549 72.0861 97.8603 72.3513 97.8603H107.351C107.617 97.8603 107.871 97.7549 108.058 97.5672C108.246 97.3795 108.351 97.125 108.351 96.8595V91.015H95.6412C95.376 91.015 95.1217 90.9096 94.9342 90.7219C94.7467 90.5342 94.6412 90.2797 94.6412 90.0142C94.6412 89.7488 94.7467 89.4943 94.9342 89.3066C95.1217 89.1189 95.376 89.0135 95.6412 89.0135H108.351V81.7278H95.6412C95.376 81.7278 95.1217 81.6224 94.9342 81.4347C94.7467 81.247 94.6412 80.9925 94.6412 80.727C94.6412 80.4616 94.7467 80.207 94.9342 80.0194C95.1217 79.8317 95.376 79.7263 95.6412 79.7263H108.351V72.4306H95.6412C95.376 72.4306 95.1217 72.3251 94.9342 72.1375C94.7467 71.9498 94.6412 71.6952 94.6412 71.4298C94.6412 71.1644 94.7467 70.9099 94.9342 70.7222C95.1217 70.5345 95.376 70.429 95.6412 70.429H108.351V64.5945C108.351 64.3291 108.246 64.0745 108.058 63.8869C107.871 63.6992 107.617 63.5938 107.351 63.5938L89.7913 63.6338Z" fill="#66C3CD"/>
<path d="M108.281 43.3457C108.061 30.806 98.5408 25.1016 89.7908 25.1016C81.0408 25.1016 71.5208 30.806 71.3008 43.3457C71.5208 55.8754 81.0308 61.5799 89.7908 61.5799C98.5508 61.5799 108.061 55.8754 108.281 43.3457ZM96.4008 39.3426C96.4008 39.608 96.2954 39.8626 96.1079 40.0503C95.9204 40.2379 95.666 40.3434 95.4008 40.3434C95.1355 40.3434 94.8813 40.2379 94.6937 40.0503C94.5062 39.8626 94.4008 39.608 94.4008 39.3426V37.7013C94.4008 37.1891 94.1974 36.6978 93.8354 36.3356C93.4735 35.9733 92.9827 35.7698 92.4708 35.7698H87.2108C86.698 35.7698 86.2061 35.973 85.8425 36.3349C85.479 36.6969 85.2734 37.1882 85.2708 37.7013V40.1432C85.2734 40.6564 85.479 41.1477 85.8425 41.5096C86.2061 41.8716 86.698 42.0748 87.2108 42.0748H92.4708C93.5317 42.0748 94.549 42.4965 95.2992 43.2472C96.0493 43.998 96.4708 45.0162 96.4708 46.0779V48.5097C96.4708 49.5714 96.0493 50.5896 95.2992 51.3404C94.549 52.0911 93.5317 52.5128 92.4708 52.5128H90.8608V55.4151C90.8608 55.6805 90.7554 55.935 90.5679 56.1227C90.3803 56.3104 90.1261 56.4159 89.8608 56.4159C89.5956 56.4159 89.3412 56.3104 89.1537 56.1227C88.9662 55.935 88.8608 55.6805 88.8608 55.4151V52.4928H87.2607C86.1999 52.4928 85.1825 52.0711 84.4324 51.3203C83.6822 50.5696 83.2607 49.5514 83.2607 48.4897V46.7984C83.2607 46.533 83.3662 46.2784 83.5537 46.0907C83.7412 45.9031 83.9955 45.7976 84.2607 45.7976C84.526 45.7976 84.7804 45.9031 84.9679 46.0907C85.1554 46.2784 85.2607 46.533 85.2607 46.7984V48.4897C85.2607 48.7442 85.3111 48.9962 85.4087 49.2312C85.5063 49.4662 85.6493 49.6796 85.8296 49.8591C86.0099 50.0385 86.2238 50.1806 86.4591 50.2771C86.6944 50.3735 86.9465 50.4225 87.2008 50.4212H92.4608C92.7146 50.4226 92.9662 50.3735 93.2009 50.2769C93.4357 50.1803 93.649 50.0381 93.8285 49.8584C94.008 49.6788 94.1501 49.4654 94.2466 49.2304C94.3431 48.9955 94.3921 48.7437 94.3907 48.4897V46.0578C94.3907 45.8042 94.3409 45.553 94.2439 45.3187C94.1469 45.0843 94.0048 44.8714 93.8256 44.692C93.6463 44.5127 93.4335 44.3704 93.1993 44.2734C92.9652 44.1763 92.7143 44.1263 92.4608 44.1263H87.2008C86.1399 44.1263 85.1225 43.7046 84.3723 42.9539C83.6222 42.2031 83.2008 41.1849 83.2008 40.1232V37.6813C83.2008 36.6196 83.6222 35.6014 84.3723 34.8507C85.1225 34.1 86.1399 33.6782 87.2008 33.6782H88.8008V30.7559C88.8008 30.4905 88.9061 30.236 89.0936 30.0483C89.2812 29.8606 89.5356 29.7552 89.8008 29.7552C90.066 29.7552 90.3204 29.8606 90.5079 30.0483C90.6955 30.236 90.8008 30.4905 90.8008 30.7559V33.6782H92.4108C93.4716 33.6782 94.4891 34.1 95.2393 34.8507C95.9894 35.6014 96.4108 36.6196 96.4108 37.6813L96.4008 39.3426Z" fill="#66C3CD"/>
<path d="M110.33 43.4057C110.23 37.1509 107.96 31.8968 103.76 28.2039C100.188 25.1446 95.6883 23.3815 90.9901 23.2V7.06752C90.9823 6.14242 90.7915 5.22804 90.4287 4.37714C90.0659 3.52624 89.5383 2.75567 88.8763 2.10994C88.2144 1.4642 87.4312 0.95606 86.5719 0.61488C85.7126 0.273701 84.7944 0.106235 83.8701 0.122128H7.20007C6.2758 0.106235 5.35754 0.273701 4.49829 0.61488C3.63904 0.95606 2.85582 1.4642 2.19385 2.10994C1.53188 2.75567 1.00428 3.52624 0.641479 4.37714C0.278679 5.22804 0.0878652 6.14242 0.0800781 7.06752V64.9324C0.0277038 65.0629 0.000478358 65.2021 0 65.3427C0.000478358 65.4833 0.0277038 65.6226 0.0800781 65.753V93.4946C0.0797093 95.1923 0.727643 96.826 1.89136 98.0613C3.05507 99.2966 4.64658 100.04 6.34009 100.14C6.62498 100.18 6.91235 100.2 7.20007 100.2H107.29C108.086 100.2 108.849 99.8834 109.411 99.3204C109.974 98.7573 110.29 97.9937 110.29 97.1974V90.3421V81.0149V71.6776V64.8323C110.29 64.0361 109.974 63.2724 109.411 62.7094C108.849 62.1463 108.086 61.83 107.29 61.83H99.15C100.819 61.05 102.371 60.0394 103.76 58.8277C107.95 54.8746 110.23 49.6105 110.33 43.4057ZM108.33 64.6722V70.4267H95.6201C95.3549 70.4267 95.1005 70.5321 94.913 70.7198C94.7254 70.9075 94.6201 71.162 94.6201 71.4274C94.6201 71.6929 94.7254 71.9474 94.913 72.1351C95.1005 72.3228 95.3549 72.4282 95.6201 72.4282H108.33V79.7239H95.6201C95.3549 79.7239 95.1005 79.8293 94.913 80.017C94.7254 80.2047 94.6201 80.4592 94.6201 80.7247C94.6201 80.9901 94.7254 81.2446 94.913 81.4323C95.1005 81.62 95.3549 81.7254 95.6201 81.7254H108.33V89.0111H95.6201C95.3549 89.0111 95.1005 89.1165 94.913 89.3042C94.7254 89.4919 94.6201 89.7464 94.6201 90.0119C94.6201 90.2773 94.7254 90.5318 94.913 90.7195C95.1005 90.9072 95.3549 91.0126 95.6201 91.0126H108.33V96.8572C108.33 97.1226 108.225 97.3771 108.037 97.5648C107.85 97.7525 107.595 97.858 107.33 97.858H72.3301C72.0649 97.858 71.8105 97.7525 71.6229 97.5648C71.4354 97.3771 71.3301 97.1226 71.3301 96.8572V91.0126H84.0601C84.3253 91.0126 84.5797 90.9072 84.7672 90.7195C84.9548 90.5318 85.0601 90.2773 85.0601 90.0119C85.0601 89.7464 84.9548 89.4919 84.7672 89.3042C84.5797 89.1165 84.3253 89.0111 84.0601 89.0111H71.3501V81.7254H84.0601C84.3253 81.7254 84.5797 81.62 84.7672 81.4323C84.9548 81.2446 85.0601 80.9901 85.0601 80.7247C85.0601 80.4592 84.9548 80.2047 84.7672 80.017C84.5797 79.8293 84.3253 79.7239 84.0601 79.7239H71.3501V72.4282H84.0601C84.3253 72.4282 84.5797 72.3228 84.7672 72.1351C84.9548 71.9474 85.0601 71.6929 85.0601 71.4274C85.0601 71.162 84.9548 70.9075 84.7672 70.7198C84.5797 70.5321 84.3253 70.4267 84.0601 70.4267H71.3501V64.5922C71.3501 64.3267 71.4554 64.0722 71.6429 63.8845C71.8305 63.6968 72.0849 63.5914 72.3501 63.5914H107.35C107.608 63.6094 107.849 63.7268 108.023 63.9191C108.196 64.1113 108.288 64.3633 108.28 64.6222L108.33 64.6722ZM83.92 2.10368C85.2394 2.08487 86.5126 2.58871 87.4623 3.5054C88.412 4.42209 88.9612 5.6773 88.9901 6.99746V23.12C84.1642 23.2346 79.5274 25.0207 75.8701 28.1739C75.0568 28.8809 74.3102 29.6615 73.64 30.5057H45.8201C45.7274 30.4904 45.6327 30.4904 45.54 30.5057C45.4506 30.4911 45.3594 30.4911 45.27 30.5057H2.18005V6.99746C2.20895 5.6773 2.75807 4.42209 3.70776 3.5054C4.65746 2.58871 5.93069 2.08487 7.25 2.10368H83.92ZM2.18005 93.4245V66.4236H44.52V97.948H6.78003C5.55816 97.956 4.38295 97.4793 3.51147 96.6221C2.64 95.765 2.1432 94.5972 2.13 93.3745L2.18005 93.4245ZM75.8601 58.6075C77.2518 59.8201 78.8071 60.8308 80.4801 61.6098H72.3301C71.5961 61.6039 70.8854 61.8675 70.3325 62.3507C69.7797 62.8339 69.423 63.5032 69.3301 64.2319H46.5701V32.5373H72.2201C70.296 35.8165 69.2875 39.5529 69.3 43.3557C69.3501 49.6105 71.6201 54.8646 75.8101 58.5575L75.8601 58.6075ZM2.18005 32.5873H44.51V64.2819H2.18005V32.5873ZM46.54 66.4236H69.25V71.4274V80.7647V90.0919V96.9472C69.2509 97.2871 69.3049 97.6248 69.41 97.948H46.54V66.4236ZM89.79 61.5398C81.03 61.5398 71.5201 55.8353 71.3 43.3056C71.5201 30.7659 81.04 25.0615 89.79 25.0615C98.54 25.0615 108.06 30.7659 108.28 43.3056C108.06 55.8754 98.54 61.5798 89.79 61.5798V61.5398Z" fill="#091796"/>
<path d="M92.4209 33.7199H90.8109V30.7977C90.8109 30.5322 90.7056 30.2777 90.5181 30.09C90.3305 29.9023 90.0761 29.7969 89.8109 29.7969C89.5457 29.7969 89.2913 29.9023 89.1038 30.09C88.9162 30.2777 88.8109 30.5322 88.8109 30.7977V33.7199H87.2109C86.1501 33.7199 85.1326 34.1417 84.3824 34.8924C83.6323 35.6431 83.2109 36.6613 83.2109 37.723V40.1649C83.2109 41.2266 83.6323 42.2448 84.3824 42.9956C85.1326 43.7463 86.1501 44.168 87.2109 44.168H92.4709C92.9828 44.168 93.4736 44.3715 93.8356 44.7338C94.1975 45.096 94.4009 45.5873 94.4009 46.0995V48.5314C94.4022 48.7854 94.3532 49.0372 94.2567 49.2721C94.1602 49.5071 94.0181 49.7205 93.8386 49.9001C93.6591 50.0798 93.4458 50.222 93.2111 50.3186C92.9763 50.4152 92.7248 50.4642 92.4709 50.4629H87.2109C86.9566 50.4642 86.7046 50.4153 86.4692 50.3188C86.2339 50.2223 86.02 50.0802 85.8397 49.9007C85.6594 49.7212 85.5164 49.5079 85.4188 49.2729C85.3212 49.0379 85.2709 48.7859 85.2709 48.5314V46.8401C85.2709 46.5747 85.1656 46.3201 84.978 46.1325C84.7905 45.9448 84.5361 45.8393 84.2709 45.8393C84.0057 45.8393 83.7514 45.9448 83.5638 46.1325C83.3763 46.3201 83.2709 46.5747 83.2709 46.8401V48.5314C83.2709 49.5931 83.6924 50.6113 84.4425 51.362C85.1927 52.1128 86.21 52.5345 87.2709 52.5345H88.871V55.4168C88.871 55.6822 88.9763 55.9367 89.1638 56.1244C89.3514 56.3121 89.6058 56.4175 89.871 56.4175C90.1362 56.4175 90.3905 56.3121 90.578 56.1244C90.7655 55.9367 90.871 55.6822 90.871 55.4168V52.4945H92.481C93.5418 52.4945 94.5592 52.0727 95.3093 51.322C96.0595 50.5713 96.481 49.5531 96.481 48.4914V46.0595C96.481 44.9978 96.0595 43.9796 95.3093 43.2289C94.5592 42.4781 93.5418 42.0564 92.481 42.0564H87.2209C86.7082 42.0564 86.2162 41.8532 85.8527 41.4913C85.4891 41.1293 85.2835 40.6381 85.2809 40.1249V37.683C85.2835 37.1698 85.4891 36.6786 85.8527 36.3166C86.2162 35.9547 86.7082 35.7515 87.2209 35.7515H92.481C92.9928 35.7515 93.4836 35.955 93.8456 36.3172C94.2075 36.6794 94.4109 37.1707 94.4109 37.683V39.3243C94.4109 39.5897 94.5163 39.8442 94.7039 40.0319C94.8914 40.2196 95.1457 40.3251 95.4109 40.3251C95.6761 40.3251 95.9305 40.2196 96.118 40.0319C96.3056 39.8442 96.4109 39.5897 96.4109 39.3243V37.683C96.4004 36.63 95.9757 35.6235 95.2289 34.8817C94.482 34.1399 93.4731 33.7225 92.4209 33.7199Z" fill="#091796"/>
</svg>
