<svg width="61" height="88" viewBox="0 0 61 88" fill="none" xmlns="http://www.w3.org/2000/svg">
<g clip-path="url(#clip0_1007_3612)">
<path d="M12.7512 30.7054L5.31261 20.6489C4.97416 20.1917 4.72912 19.6723 4.5915 19.1204C4.45388 18.5684 4.42638 17.9948 4.51057 17.4322C4.59476 16.8697 4.78898 16.3292 5.08215 15.8417C5.37532 15.3542 5.76168 14.9293 6.21915 14.5913C6.67565 14.253 7.19438 14.0082 7.74564 13.8706C8.29689 13.7331 8.86986 13.7057 9.43174 13.7899C9.99362 13.8741 10.5334 14.0683 11.0201 14.3614C11.5068 14.6544 11.931 15.0406 12.2683 15.4978L12.7682 16.1671" fill="white"/>
<path d="M12.7512 30.7054L5.31261 20.6489C4.97416 20.1917 4.72912 19.6723 4.5915 19.1204C4.45388 18.5684 4.42638 17.9948 4.51057 17.4322C4.59476 16.8697 4.78898 16.3292 5.08215 15.8417C5.37532 15.3542 5.76168 14.9293 6.21915 14.5913V14.5913C6.67565 14.253 7.19438 14.0082 7.74563 13.8706C8.29689 13.7331 8.86987 13.7057 9.43174 13.7899C9.99362 13.8741 10.5334 14.0683 11.0201 14.3614C11.5068 14.6544 11.931 15.0406 12.2683 15.4978L12.7682 16.1671" stroke="#0F0996" stroke-width="1.82" stroke-linecap="round" stroke-linejoin="round"/>
<path d="M59.7288 80.0997L51.9259 67.1626C52.5171 66.4289 53.0496 65.6499 53.5187 64.8328C57.1787 58.4362 55.9756 49.7607 55.9756 35.485C55.9756 30.1814 54.9166 27.9447 51.9683 27.9531C49.5452 27.9531 47.478 29.3002 47.478 33.8837L9.23438 65.6969L16.3595 75.2621C18.0188 77.5035 20.3218 79.1859 22.9616 80.085C25.6015 80.9841 28.4526 81.0572 31.1351 80.2946L34.9984 86.3691" fill="white"/>
<path d="M59.7288 80.0997L51.9259 67.1626C52.5171 66.4289 53.0496 65.6499 53.5187 64.8328C57.1787 58.4362 55.9756 49.7607 55.9756 35.485C55.9756 30.1814 54.9166 27.9447 51.9683 27.9531C49.5452 27.9531 47.478 29.3002 47.478 33.8837L9.23438 65.6969L16.3595 75.2621C18.0188 77.5035 20.3218 79.1859 22.9616 80.085C25.6015 80.9841 28.4526 81.0572 31.1351 80.2946L34.9984 86.3691" stroke="#0F0996" stroke-width="1.82" stroke-linecap="round" stroke-linejoin="round"/>
<path d="M47.2656 71.3487C49.0401 70.2218 50.6172 68.8106 51.9338 67.1719" stroke="#0F0996" stroke-width="1.82" stroke-linecap="round" stroke-linejoin="round"/>
<path d="M36.3032 67.4912H15.2159C14.5597 67.4912 13.9305 67.2306 13.4665 66.7667C13.0026 66.3027 12.742 65.6735 12.742 65.0174V62.5435L8.50586 53.9103L12.742 31.8147V4.1614C12.742 3.50528 13.0026 2.87604 13.4665 2.41209C13.9305 1.94815 14.5597 1.6875 15.2159 1.6875H45.0127C45.6688 1.6875 46.298 1.94815 46.762 2.41209C47.2259 2.87604 47.4865 3.50528 47.4865 4.1614V52.8428C44.5182 52.8495 41.6737 54.0334 39.5772 56.1347C37.4806 58.236 36.3032 61.0832 36.3032 64.0515V70.4396" fill="white"/>
<path d="M36.3032 67.4912H15.2159C14.5597 67.4912 13.9305 67.2306 13.4665 66.7667C13.0026 66.3027 12.742 65.6735 12.742 65.0174V62.5435L8.50586 53.9103L12.742 31.8147V4.1614C12.742 3.50528 13.0026 2.87604 13.4665 2.41209C13.9305 1.94815 14.5597 1.6875 15.2159 1.6875H45.0127C45.6688 1.6875 46.298 1.94815 46.762 2.41209C47.2259 2.87604 47.4865 3.50528 47.4865 4.1614V52.8428C44.5182 52.8495 41.6737 54.0334 39.5772 56.1347C37.4806 58.236 36.3032 61.0832 36.3032 64.0515V70.4396" stroke="#0F0996" stroke-width="1.82" stroke-linecap="round" stroke-linejoin="round"/>
<path d="M47.4868 4.1614C47.4868 3.50528 47.2261 2.87604 46.7622 2.41209C46.2982 1.94815 45.669 1.6875 45.0129 1.6875H15.2161C14.56 1.6875 13.9307 1.94815 13.4668 2.41209C13.0028 2.87604 12.7422 3.50528 12.7422 4.1614V7.99084H47.4783L47.4868 4.1614Z" fill="#70ADFF" stroke="#0F0996" stroke-width="1.82" stroke-linecap="round" stroke-linejoin="round"/>
<path d="M12.6055 59.9271L12.741 62.528V65.0019C12.741 65.658 13.0017 66.2873 13.4656 66.7512C13.9295 67.2152 14.5588 67.4758 15.2149 67.4758H36.3023C36.3023 64.6631 36.3023 61.8842 37.0902 59.9102L12.6055 59.9271Z" fill="#70ADFF" stroke="#0F0996" stroke-width="1.82" stroke-linecap="round" stroke-linejoin="round"/>
<path d="M14.1134 54.2861C13.6567 54.625 13.1377 54.8705 12.5861 55.0088C12.0345 55.1471 11.461 55.1754 10.8985 55.092C10.3359 55.0086 9.79536 54.8152 9.30759 54.5228C8.81982 54.2304 8.39443 53.8448 8.05572 53.388L4.89557 49.1519C4.2138 48.2302 3.92547 47.0757 4.09383 45.9416C4.26219 44.8076 4.8735 43.7866 5.79364 43.1027C6.25031 42.7638 6.76927 42.5182 7.32089 42.3799C7.87251 42.2416 8.44596 42.2134 9.00849 42.2968C9.57103 42.3802 10.1116 42.5736 10.5994 42.866C11.0872 43.1584 11.5126 43.544 11.8513 44.0008L15.0114 48.2369C15.3501 48.6929 15.5955 49.2112 15.7337 49.7621C15.8719 50.3131 15.9 50.8858 15.8166 51.4477C15.7332 52.0095 15.5398 52.5494 15.2476 53.0364C14.9553 53.5235 14.5699 53.9481 14.1134 54.2861Z" fill="white" stroke="#0F0996" stroke-width="1.82" stroke-linecap="round" stroke-linejoin="round"/>
<path d="M11.1492 64.9162C10.6925 65.2551 10.1735 65.5007 9.62193 65.639C9.07031 65.7773 8.49685 65.8055 7.93431 65.7221C7.37178 65.6387 6.83119 65.4453 6.34342 65.1529C5.85565 64.8605 5.43026 64.4749 5.09155 64.0181L1.9314 59.782C1.24917 58.8589 0.960619 57.7031 1.12895 56.5677C1.29728 55.4322 1.90877 54.4098 2.82947 53.7244C3.75255 53.0421 4.9084 52.7536 6.04382 52.9219C7.17924 53.0902 8.20166 53.7017 8.8871 54.6224L12.0472 58.8585C12.3861 59.3152 12.6317 59.8342 12.77 60.3858C12.9083 60.9374 12.9366 61.5109 12.8532 62.0734C12.7698 62.6359 12.5764 63.1766 12.284 63.6643C11.9916 64.1521 11.606 64.5775 11.1492 64.9162Z" fill="white" stroke="#0F0996" stroke-width="1.82" stroke-linecap="round" stroke-linejoin="round"/>
<path d="M16.8347 43.5256C16.3787 43.8642 15.8604 44.1097 15.3095 44.2478C14.7586 44.386 14.1858 44.4142 13.6239 44.3308C13.0621 44.2474 12.5222 44.054 12.0352 43.7617C11.5481 43.4695 11.1235 43.084 10.7856 42.6275L7.61695 38.3914C6.93472 37.4683 6.64617 36.3124 6.81449 35.177C6.98282 34.0416 7.5943 33.0192 8.515 32.3338C9.43808 31.6515 10.5939 31.363 11.7294 31.5313C12.8648 31.6996 13.8872 32.3111 14.5726 33.2318L17.7328 37.4679C18.0728 37.9242 18.3193 38.4431 18.4582 38.9949C18.5971 39.5467 18.6256 40.1204 18.5422 40.6833C18.4587 41.2461 18.265 41.787 17.9719 42.2747C17.6789 42.7625 17.2925 43.1876 16.8347 43.5256Z" fill="white" stroke="#0F0996" stroke-width="1.82" stroke-linecap="round" stroke-linejoin="round"/>
<path d="M23.832 25.6641L32.1009 33.9414" stroke="#0F0996" stroke-width="1.82" stroke-linecap="round" stroke-linejoin="round"/>
<path d="M23.832 42.2103L32.1009 33.9414" stroke="#0F0996" stroke-width="1.82" stroke-linecap="round" stroke-linejoin="round"/>
<path d="M32.0918 25.6641L40.3607 33.9414" stroke="#0F0996" stroke-width="1.82" stroke-linecap="round" stroke-linejoin="round"/>
<path d="M32.0918 42.2103L40.3607 33.9414" stroke="#0F0996" stroke-width="1.82" stroke-linecap="round" stroke-linejoin="round"/>
</g>
<defs>
<clipPath id="clip0_1007_3612">
<rect width="60.1951" height="86.2641" fill="white" transform="translate(0.304688 0.917969)"/>
</clipPath>
</defs>
</svg>
