<svg width="103" height="101" viewBox="0 0 103 101" fill="none" xmlns="http://www.w3.org/2000/svg">
<path d="M7.74023 10.3086H92.8203C93.8692 10.3084 94.8759 10.7202 95.624 11.4553C96.3722 12.1904 96.802 13.1899 96.8203 14.2386V79.4286C96.8203 80.9854 96.2019 82.4785 95.1011 83.5793C94.0002 84.6801 92.507 85.2986 90.9502 85.2986H9.68994C8.13312 85.2986 6.64039 84.6801 5.53955 83.5793C4.43871 82.4785 3.82031 80.9854 3.82031 79.4286V14.2386C3.82294 13.1988 4.23641 12.2023 4.9707 11.4661C5.70499 10.7299 6.70048 10.3139 7.74023 10.3086Z" fill="white" stroke="#0F0996" stroke-width="2.03" stroke-linecap="round" stroke-linejoin="round"/>
<path d="M88.7892 19.668H65.6992V43.668H88.7892V19.668Z" fill="#70ADFF" stroke="#0F0996" stroke-width="2.03" stroke-linecap="round" stroke-linejoin="round"/>
<path d="M46.7305 39.2005V40.8705C46.7278 41.9827 47.1666 43.0506 47.9502 43.8398C48.7338 44.629 49.7985 45.0752 50.9107 45.0805C52.0212 45.0912 53.0907 44.6617 53.8853 43.8858C54.6799 43.11 55.1351 42.051 55.1509 40.9405L55.2007 34.9405C55.2007 33.8309 54.7628 32.7661 53.9819 31.9777C53.201 31.1893 52.1404 30.7411 51.0308 30.7305C50.1969 30.7261 49.3798 30.966 48.6807 31.4205" fill="#66C3CD"/>
<path d="M46.7305 39.2005V40.8705C46.7278 41.9827 47.1666 43.0506 47.9502 43.8398C48.7338 44.629 49.7985 45.0752 50.9107 45.0805C52.0212 45.0912 53.0907 44.6617 53.8853 43.8858C54.6799 43.11 55.1351 42.051 55.1509 40.9405L55.2007 34.9405C55.2007 33.8309 54.7628 32.7661 53.9819 31.9777C53.201 31.1893 52.1404 30.7411 51.0308 30.7305C50.1969 30.7261 49.3798 30.966 48.6807 31.4205" stroke="#0F0996" stroke-width="2.03" stroke-linecap="round" stroke-linejoin="round"/>
<path d="M31.1895 20.3397H36.7798L36.8496 20.1897C36.8496 20.1897 43.5199 38.0697 43.9199 38.4597C44.2594 38.7887 44.6681 39.0375 45.1162 39.1881C45.5644 39.3386 46.0405 39.387 46.5098 39.3297C46.9126 39.2838 47.3024 39.1588 47.6567 38.9619C48.0111 38.765 48.3229 38.5001 48.5747 38.1824C48.8265 37.8646 49.0134 37.5003 49.124 37.1103C49.2347 36.7203 49.2671 36.3123 49.2197 35.9097L47.7998 24.6497L47.6997 23.5897C55.2097 21.3997 57.6499 25.0997 57.6499 25.0997C58.0801 25.6676 58.3916 26.316 58.5664 27.0067C58.7412 27.6973 58.7757 28.416 58.6675 29.1202C58.5593 29.8244 58.3106 30.4996 57.9365 31.1059C57.5624 31.7122 57.0706 32.2372 56.4897 32.6497L55.0396 33.8997L55.1699 37.3997C55.8172 37.8262 56.5717 38.061 57.3467 38.0769C58.1217 38.0929 58.8855 37.8893 59.5498 37.4897L60.4497 36.8897C62.8303 35.268 64.475 32.7729 65.0273 29.9459C65.5796 27.1189 64.9951 24.1881 63.3999 21.7897H63.4697L71.3999 26.7897C72.054 27.1344 72.816 27.2124 73.5264 27.0073C74.2367 26.8022 74.8397 26.33 75.2095 25.6897C75.4314 25.4026 75.5944 25.0745 75.689 24.7241C75.7835 24.3738 75.8077 24.0083 75.7603 23.6485C75.7128 23.2888 75.5946 22.942 75.4126 22.6281C75.2306 22.3142 74.9884 22.0395 74.6997 21.8197L64.2598 15.1197L64.6099 15.2597L70.7095 16.7597C71.4509 16.8994 72.218 16.7447 72.8472 16.3283C73.4764 15.912 73.9183 15.2668 74.0796 14.5297C74.3335 13.8215 74.2962 13.0416 73.9756 12.361C73.655 11.6804 73.0773 11.1549 72.3696 10.8997L64.6997 8.80971L63.1299 8.37971L69.1299 8.21971C69.886 8.17832 70.5949 7.83978 71.1025 7.27785C71.6102 6.71591 71.8753 5.97614 71.8398 5.21971C71.9013 4.46809 71.6655 3.72233 71.1831 3.14268C70.7007 2.56304 70.0101 2.19575 69.2598 2.11971L42.2598 1.9897C42.2598 1.9897 37.4798 1.63971 36.2598 5.24971H30.9297" fill="white"/>
<path d="M31.1895 20.3397H36.7798L36.8496 20.1897C36.8496 20.1897 43.5199 38.0697 43.9199 38.4597C44.2594 38.7887 44.6681 39.0375 45.1162 39.1881C45.5644 39.3386 46.0405 39.387 46.5098 39.3297C46.9126 39.2838 47.3024 39.1588 47.6567 38.9619C48.0111 38.765 48.3229 38.5001 48.5747 38.1824C48.8265 37.8646 49.0134 37.5003 49.124 37.1103C49.2347 36.7203 49.2671 36.3123 49.2197 35.9097L47.7998 24.6497L47.6997 23.5897C55.2097 21.3997 57.6499 25.0997 57.6499 25.0997C58.0801 25.6676 58.3916 26.316 58.5664 27.0067C58.7412 27.6973 58.7757 28.416 58.6675 29.1202C58.5593 29.8244 58.3106 30.4996 57.9365 31.1059C57.5624 31.7122 57.0706 32.2372 56.4897 32.6497L55.0396 33.8997L55.1699 37.3997C55.8172 37.8262 56.5717 38.061 57.3467 38.0769C58.1217 38.0929 58.8855 37.8893 59.5498 37.4897L60.4497 36.8897C62.8303 35.268 64.475 32.7729 65.0273 29.9459C65.5796 27.1189 64.9951 24.1881 63.3999 21.7897H63.4697L71.3999 26.7897C72.054 27.1344 72.816 27.2124 73.5264 27.0073C74.2367 26.8022 74.8397 26.33 75.2095 25.6897C75.4314 25.4026 75.5944 25.0745 75.689 24.7241C75.7835 24.3738 75.8077 24.0083 75.7603 23.6485C75.7128 23.2888 75.5946 22.942 75.4126 22.6281C75.2306 22.3142 74.9884 22.0395 74.6997 21.8197L64.2598 15.1197L64.6099 15.2597L70.7095 16.7597C71.4509 16.8994 72.218 16.7447 72.8472 16.3283C73.4764 15.912 73.9183 15.2668 74.0796 14.5297C74.3335 13.8215 74.2962 13.0416 73.9756 12.361C73.655 11.6804 73.0773 11.1549 72.3696 10.8997L64.6997 8.80971L63.1299 8.37971L69.1299 8.21971C69.886 8.17832 70.5949 7.83978 71.1025 7.27785C71.6102 6.71591 71.8753 5.97614 71.8398 5.21971C71.9013 4.46809 71.6655 3.72233 71.1831 3.14268C70.7007 2.56304 70.0101 2.19575 69.2598 2.11971L42.2598 1.9897C42.2598 1.9897 37.4798 1.63971 36.2598 5.24971H30.9297" stroke="#0F0996" stroke-width="2.03" stroke-linecap="round" stroke-linejoin="round"/>
<path d="M54.0391 11.6297C58.1191 11.4197 64.2593 15.1396 64.2593 15.1396L54.0391 11.6297Z" fill="white"/>
<path d="M54.0391 11.6297C58.1191 11.4197 64.2593 15.1396 64.2593 15.1396" stroke="#0F0996" stroke-width="2.03" stroke-linecap="round" stroke-linejoin="round"/>
<path d="M63.1309 8.39859L60.0708 7.55859C58.0666 7.02504 56.0328 6.60768 53.9805 6.30859" fill="white"/>
<path d="M63.1309 8.39859L60.0708 7.55859C58.0666 7.02504 56.0328 6.60768 53.9805 6.30859" stroke="#0F0996" stroke-width="2.03" stroke-linecap="round" stroke-linejoin="round"/>
<path d="M54.5508 16.7383C56.2519 16.8206 57.9122 17.2861 59.4082 18.0999C60.9043 18.9137 62.1971 20.0549 63.1904 21.4383L63.4009 21.7483" fill="white"/>
<path d="M54.5508 16.7383C56.2519 16.8206 57.9122 17.2861 59.4082 18.0999C60.9043 18.9137 62.1971 20.0549 63.1904 21.4383L63.4009 21.7483" stroke="#0F0996" stroke-width="2.03" stroke-linecap="round" stroke-linejoin="round"/>
<path d="M35.6094 17.2695L37.8094 22.6095" stroke="#0F0996" stroke-width="2.03" stroke-linecap="round" stroke-linejoin="round"/>
<path d="M40.1797 72.3008L42.3997 73.9508" stroke="#0F0996" stroke-width="2.03" stroke-linecap="round" stroke-linejoin="round"/>
<path d="M86.77 99.8496L86.23 99.0796L85.6704 98.1896L84.7403 98.3396C82.0203 99.0196 78.9204 95.9596 78.9204 95.9596L64.5703 85.4896C63.8933 85.106 63.3916 84.4745 63.1714 83.7281C62.9513 82.9818 63.0297 82.1792 63.3902 81.4896C63.7807 80.8063 64.4241 80.3039 65.1817 80.0906C65.9393 79.8774 66.7503 79.9704 67.44 80.3496L76.8501 85.5096L64.9302 66.0796C64.5296 65.404 64.4097 64.5982 64.5967 63.8353C64.7837 63.0725 65.2626 62.4134 65.9302 61.9996C66.6093 61.5864 67.4248 61.4597 68.1973 61.6472C68.9698 61.8346 69.6362 62.3211 70.0503 62.9996L72.2603 66.5996L77.3604 74.7096L81.44 81.2596L76.1704 72.6796C75.9753 72.3479 75.8478 71.9808 75.7954 71.5995C75.7431 71.2182 75.7667 70.8303 75.8653 70.4583C75.9638 70.0863 76.1354 69.7375 76.3697 69.4322C76.6039 69.1269 76.8962 68.8711 77.23 68.6796C77.8922 68.2799 78.6834 68.1515 79.438 68.321C80.1926 68.4906 80.8527 68.9451 81.2803 69.5896L86.9502 78.6796L81.9502 70.5996C81.7534 70.2795 81.6218 69.9236 81.563 69.5525C81.5042 69.1813 81.5192 68.8022 81.6074 68.4369C81.6957 68.0717 81.8558 67.7275 82.0777 67.4242C82.2995 67.1209 82.5791 66.8644 82.9004 66.6696C83.2285 66.4719 83.5924 66.3409 83.9712 66.2842C84.3501 66.2274 84.7363 66.246 85.1079 66.3389C85.4796 66.4318 85.8292 66.5972 86.1367 66.8256C86.4443 67.0539 86.7039 67.3407 86.9004 67.6696L92.1602 76.0996L87.5601 68.7896C87.3637 68.471 87.2324 68.1167 87.1739 67.7471C87.1153 67.3775 87.1309 67 87.2193 66.6363C87.3076 66.2727 87.4674 65.9302 87.689 65.6287C87.9106 65.3271 88.1896 65.0725 88.5103 64.8796C89.1749 64.4883 89.9666 64.3738 90.7149 64.5609C91.4631 64.7479 92.108 65.2215 92.5103 65.8796L96.5103 72.2896L98.8902 76.1396C100.08 78.0674 100.805 80.246 101.006 82.5025C101.207 84.7591 100.88 87.0315 100.05 89.1396L99.8902 89.5896L100.6 90.7796L101.09 91.4996" fill="white"/>
<path d="M86.77 99.8496L86.23 99.0796L85.6704 98.1896L84.7403 98.3396C82.0203 99.0196 78.9204 95.9596 78.9204 95.9596L64.5703 85.4896C63.8933 85.106 63.3916 84.4745 63.1714 83.7281C62.9513 82.9818 63.0297 82.1792 63.3902 81.4896C63.7807 80.8063 64.4241 80.3039 65.1817 80.0906C65.9393 79.8774 66.7503 79.9704 67.44 80.3496L76.8501 85.5096L64.9302 66.0796C64.5296 65.404 64.4097 64.5982 64.5967 63.8353C64.7837 63.0725 65.2626 62.4134 65.9302 61.9996C66.6093 61.5864 67.4248 61.4597 68.1973 61.6472C68.9698 61.8346 69.6362 62.3211 70.0503 62.9996L72.2603 66.5996L77.3604 74.7096L81.44 81.2596L76.1704 72.6796C75.9753 72.3479 75.8478 71.9808 75.7954 71.5995C75.7431 71.2182 75.7667 70.8303 75.8653 70.4583C75.9638 70.0863 76.1354 69.7375 76.3697 69.4322C76.6039 69.1269 76.8962 68.8711 77.23 68.6796C77.8922 68.2799 78.6834 68.1515 79.438 68.321C80.1926 68.4906 80.8527 68.9451 81.2803 69.5896L86.9502 78.6796L81.9502 70.5996C81.7534 70.2795 81.6218 69.9236 81.563 69.5525C81.5042 69.1813 81.5192 68.8022 81.6074 68.4369C81.6957 68.0717 81.8558 67.7275 82.0777 67.4242C82.2995 67.1209 82.5791 66.8644 82.9004 66.6696C83.2285 66.4719 83.5924 66.3409 83.9712 66.2842C84.3501 66.2274 84.7363 66.246 85.1079 66.3389C85.4796 66.4318 85.8292 66.5972 86.1367 66.8256C86.4443 67.0539 86.7039 67.3407 86.9004 67.6696L92.1602 76.0996L87.5601 68.7896C87.3637 68.471 87.2324 68.1167 87.1739 67.7471C87.1153 67.3775 87.1309 67 87.2193 66.6363C87.3076 66.2727 87.4674 65.9302 87.689 65.6287C87.9106 65.3271 88.1896 65.0725 88.5103 64.8796C89.1749 64.4883 89.9666 64.3738 90.7149 64.5609C91.4631 64.7479 92.108 65.2215 92.5103 65.8796L96.5103 72.2896L98.8902 76.1396C100.08 78.0674 100.805 80.246 101.006 82.5025C101.207 84.7591 100.88 87.0315 100.05 89.1396L99.8902 89.5896L100.6 90.7796L101.09 91.4996" stroke="#0F0996" stroke-width="2.03" stroke-linecap="round" stroke-linejoin="round"/>
<path d="M24.4692 30.0781H9.94922" stroke="#0F0996" stroke-width="2.03" stroke-linecap="round" stroke-linejoin="round"/>
<path d="M88.7902 54.5703H61.7402" stroke="#0F0996" stroke-width="2.03" stroke-linecap="round" stroke-linejoin="round"/>
<path d="M1.01953 46.6084C11.1695 46.3784 15.8496 43.3384 15.8496 43.3384C25.3996 39.2084 32.0396 44.3384 32.0396 44.3384L38.8096 48.0184C39.1902 48.1826 39.5347 48.4204 39.8232 48.718C40.1118 49.0157 40.3389 49.3674 40.4912 49.7529C40.6436 50.1384 40.7186 50.5503 40.7114 50.9648C40.7043 51.3793 40.6152 51.7883 40.4497 52.1684L31.3296 48.2384L39.8696 51.9784C40.0311 52.0457 40.1852 52.1295 40.3296 52.2284C40.5996 52.4084 40.8797 52.5784 41.1597 52.7384C41.7485 53.0756 42.2115 53.595 42.4795 54.2184L46.6597 63.9984C46.9874 64.7416 47.022 65.5812 46.7568 66.349C46.4916 67.1167 45.9461 67.7559 45.2295 68.1384C44.7925 68.3602 44.3099 68.4766 43.8198 68.4784L40.4595 65.6284L37.0298 57.6284L28.8296 55.7484L21.5396 58.4084C21.2022 59.0552 20.9951 59.7618 20.9297 60.4884C20.8369 61.892 21.2574 63.2815 22.1128 64.3981C22.9682 65.5148 24.2002 66.2825 25.5796 66.5584L35.5098 68.7284L37.5796 69.2084C38.33 69.3572 39.0033 69.7676 39.4795 70.3664C39.9556 70.9653 40.2038 71.7137 40.1797 72.4784C40.151 72.9348 40.0244 73.3797 39.8081 73.7826C39.5919 74.1856 39.2912 74.5372 38.9268 74.8134C38.5623 75.0896 38.1422 75.284 37.6958 75.3832C37.2494 75.4824 36.787 75.4842 36.3398 75.3884L31.4995 74.3884L14.8599 70.8384C14.8599 70.8384 7.05986 69.4684 5.85986 61.5484L1.40967 61.4984" fill="white"/>
<path d="M1.01953 46.6084C11.1695 46.3784 15.8496 43.3384 15.8496 43.3384C25.3996 39.2084 32.0396 44.3384 32.0396 44.3384L38.8096 48.0184C39.1902 48.1826 39.5347 48.4204 39.8232 48.718C40.1118 49.0157 40.3389 49.3674 40.4912 49.7529C40.6436 50.1384 40.7186 50.5503 40.7114 50.9648C40.7043 51.3793 40.6152 51.7883 40.4497 52.1684L31.3296 48.2384L39.8696 51.9784C40.0311 52.0457 40.1852 52.1295 40.3296 52.2284C40.5996 52.4084 40.8797 52.5784 41.1597 52.7384C41.7485 53.0756 42.2115 53.595 42.4795 54.2184L46.6597 63.9984C46.9874 64.7416 47.022 65.5812 46.7568 66.349C46.4916 67.1167 45.9461 67.7559 45.2295 68.1384C44.7925 68.3602 44.3099 68.4766 43.8198 68.4784L40.4595 65.6284L37.0298 57.6284L28.8296 55.7484L21.5396 58.4084C21.2022 59.0552 20.9951 59.7618 20.9297 60.4884C20.8369 61.892 21.2574 63.2815 22.1128 64.3981C22.9682 65.5148 24.2002 66.2825 25.5796 66.5584L35.5098 68.7284L37.5796 69.2084C38.33 69.3572 39.0034 69.7676 39.4795 70.3664C39.9556 70.9653 40.2038 71.7137 40.1797 72.4784C40.151 72.9348 40.0244 73.3797 39.8081 73.7826C39.5919 74.1856 39.2912 74.5372 38.9268 74.8134C38.5623 75.0896 38.1422 75.284 37.6958 75.3832C37.2494 75.4824 36.787 75.4842 36.3398 75.3884L31.4995 74.3884L14.8599 70.8384C14.8599 70.8384 7.05986 69.4684 5.85986 61.5484L1.40967 61.4984" stroke="#0F0996" stroke-width="2.03" stroke-linecap="round" stroke-linejoin="round"/>
<path d="M35.1693 68.5608L21.6092 58.4408C19.8692 57.0608 19.4092 54.7408 20.6092 53.3008C21.8092 51.8608 24.159 51.8008 25.889 53.1908L45.639 69.9908L48.1991 73.5008L49.7992 75.7108C49.8736 75.8341 49.9075 75.9775 49.8963 76.121C49.8851 76.2646 49.8293 76.401 49.7367 76.5112C49.6441 76.6215 49.5192 76.7 49.3797 76.7358C49.2403 76.7715 49.0931 76.7628 48.9588 76.7108L46.4388 75.6308L42.4388 73.9108L40.2191 72.4108C40.176 71.4392 39.7649 70.5204 39.0692 69.8408C37.8642 69.166 36.5398 68.7313 35.1693 68.5608Z" fill="#66C3CD" stroke="#0F0996" stroke-width="2.03" stroke-linecap="round" stroke-linejoin="round"/>
</svg>
