<svg width="77" height="79" viewBox="0 0 77 79" fill="none" xmlns="http://www.w3.org/2000/svg">
<path d="M48.5 57.5L44 70H60.5L72 60L74.5 56.5L76 51L75.5 45L74 33.5L71.5 30L69 31L68 35L68.5 40.5L68 45.5H66L61 48.5L53 52.5L48.5 57.5Z" fill="white"/>
<path d="M75.6588 39.52L75.8058 39.5027C75.5378 36.9864 75.0795 34.6172 74.3704 32.8014C74.0159 31.8935 73.5922 31.1153 73.0475 30.5187C72.7822 30.2226 72.4659 29.9766 72.1136 29.7923C71.7548 29.6096 71.3577 29.5148 70.955 29.5156H70.9463C70.6589 29.5157 70.3732 29.5594 70.0989 29.6453C69.5973 29.7989 69.1304 30.0485 68.7241 30.3803C68.128 30.8787 67.6845 31.535 67.4444 32.274C67.185 33.0262 67.0812 33.8823 67.0812 34.8334C67.0895 35.7198 67.1646 36.6042 67.306 37.4793C67.5568 39.0876 67.773 40.4019 67.773 41.9065C67.7698 42.7666 67.7004 43.6251 67.5654 44.4746C67.2799 44.3852 66.9827 44.3386 66.6835 44.3362L66.3808 44.3535H66.3722C65.8382 44.4294 65.3192 44.5869 64.833 44.8204C64.0721 45.1749 63.3199 45.6505 62.6281 46.1088C61.9364 46.5671 61.2879 47.0167 60.8123 47.2848C58.8235 48.4261 56.8694 49.2649 54.993 50.3025C53.1167 51.3401 51.3181 52.5679 49.7531 54.4962C47.9027 56.7789 46.6056 59.3903 45.6372 62.114C44.7725 64.5437 44.1672 67.0859 43.6484 69.5848H45.274C45.7755 67.2242 46.3462 64.8723 47.1331 62.6414C48.0583 60.0388 49.2775 57.6004 50.9896 55.4992C52.3903 53.7785 53.9727 52.6717 55.7539 51.6946C57.5352 50.7175 59.5153 49.8615 61.6078 48.6596C61.9883 48.4434 62.4033 48.1667 62.8356 47.8727C63.4841 47.4404 64.1932 46.9648 64.8503 46.593C65.1876 46.4114 65.5075 46.2558 65.7928 46.1347C66.0337 46.0356 66.2867 45.9687 66.5451 45.9359H66.6921C67.0953 45.9451 67.4818 46.0984 67.7816 46.3682C67.9318 46.5122 68.0549 46.6821 68.1448 46.8697C68.2387 47.0851 68.2858 47.3179 68.2831 47.5528C68.2831 47.9073 68.188 48.3483 67.9027 48.8844H67.894L67.8681 48.9536H67.8594C67.6659 49.4312 67.3973 49.8749 67.0639 50.2679C66.5105 50.9683 65.6718 51.7551 64.5131 52.6804C63.3544 53.6056 61.8586 54.6864 60.0081 55.9921C59.9031 56.0643 59.8175 56.1612 59.7587 56.2743C59.6999 56.3873 59.6697 56.5131 59.6709 56.6406C59.6686 56.7457 59.6875 56.8502 59.7267 56.9478C59.7658 57.0454 59.8243 57.134 59.8987 57.2083C59.973 57.2827 60.0616 57.3412 60.1592 57.3803C60.2568 57.4195 60.3613 57.4384 60.4664 57.4361C60.6284 57.438 60.7865 57.3863 60.9161 57.2891C63.4063 55.5424 65.2567 54.1935 66.6143 52.9916C67.2271 52.4642 67.7941 51.8856 68.3091 51.2623C68.7204 50.7592 69.0581 50.2002 69.3121 49.6021C69.6925 48.8931 69.8741 48.2013 69.8741 47.5528C69.8758 47.0964 69.7784 46.645 69.5888 46.2299C69.4525 45.9239 69.2654 45.6432 69.0354 45.3998C69.2411 44.2524 69.3481 43.0894 69.3553 41.9238C69.3553 40.2636 69.1218 38.8455 68.8797 37.2545C68.7478 36.4598 68.6755 35.6562 68.6636 34.8507C68.6636 33.7526 68.8452 32.9138 69.1564 32.3431C69.3009 32.0758 69.4945 31.8382 69.7271 31.6427C69.9785 31.4404 70.2661 31.2879 70.5745 31.1931C70.6947 31.1546 70.8201 31.1342 70.9463 31.1326C71.1031 31.1328 71.2575 31.1713 71.3959 31.245C71.6553 31.3747 71.9753 31.6687 72.2693 32.1529H72.2779C72.7276 32.8619 73.1513 33.9601 73.4798 35.2744C73.8308 36.7338 74.0792 38.2161 74.2234 39.7102C74.5953 43.143 75.2611 46.5325 75.2611 49.628V49.6453C75.2611 51.8503 74.9325 53.8909 73.9727 55.7327C72.9783 57.6522 71.5602 59.3211 69.926 60.8862C67.479 63.2208 64.5477 65.3046 61.9364 67.6479C61.236 68.2791 60.5529 68.9363 59.913 69.6194H62.1525C64.0375 67.8209 66.2338 66.1434 68.3609 64.3794C71.0847 62.114 73.7133 59.6669 75.3821 56.4676C76.4976 54.3232 76.8521 52.0059 76.8521 49.6453C76.8434 46.325 76.1603 42.8836 75.8058 39.5372L75.6588 39.52Z" fill="#091796"/>
<path d="M28.5 57.5L33 70H16.5L5 60L2.5 56.5L1 51L1.5 45L3 33.5L5.5 30L8 31L9 35L8.5 40.5L9 45.5H11L16 48.5L24 52.5L28.5 57.5Z" fill="white"/>
<path d="M9.50281 63.1257C6.82231 60.8948 4.37527 58.5775 2.87938 55.6981C1.91958 53.8563 1.59101 51.8157 1.59101 49.6107V49.5934C1.59101 46.4979 2.25681 43.1084 2.62862 39.6756C2.88802 37.2372 3.32901 34.9717 3.96022 33.3807C4.26286 32.5852 4.62603 31.9713 4.9719 31.5995C5.10952 31.4427 5.27337 31.311 5.45612 31.2104C5.59456 31.1368 5.74894 31.0982 5.90575 31.098C6.032 31.0996 6.15732 31.12 6.27756 31.1585C6.586 31.2533 6.87358 31.4059 7.12495 31.6082C7.46217 31.8848 7.71293 32.2567 7.90316 32.7928C8.09338 33.3289 8.1885 34.0033 8.1885 34.8248C8.17656 35.6303 8.1043 36.4338 7.97233 37.2286C7.73022 38.8196 7.49676 40.2376 7.49676 41.8978C7.50397 43.0635 7.611 44.2264 7.81669 45.3738C7.58668 45.6173 7.39956 45.898 7.26329 46.2039C7.07442 46.6193 6.9771 47.0705 6.97795 47.5269C6.97795 48.1754 7.15953 48.8758 7.53999 49.5848C7.79398 50.1829 8.1317 50.7419 8.54302 51.245C9.22611 52.0924 10.1427 52.9398 11.3532 53.9082C12.5638 54.8766 14.0683 55.9661 15.936 57.2718C16.0656 57.369 16.2237 57.4207 16.3856 57.4188C16.4908 57.4211 16.5953 57.4022 16.6928 57.3631C16.7904 57.3239 16.8791 57.2654 16.9534 57.1911C17.0278 57.1167 17.0863 57.0281 17.1254 56.9305C17.1646 56.8329 17.1835 56.7284 17.1812 56.6233C17.1823 56.4958 17.1522 56.3701 17.0934 56.257C17.0346 56.1439 16.9489 56.047 16.8439 55.9748C14.3709 54.2368 12.5551 52.9052 11.284 51.7811C10.7434 51.3137 10.243 50.8018 9.78816 50.2506C9.45473 49.8576 9.18619 49.4139 8.99265 48.9363H8.984L8.95806 48.8671H8.94942C8.66407 48.331 8.56896 47.89 8.56896 47.5355C8.56622 47.3006 8.61338 47.0678 8.70731 46.8524C8.83903 46.5685 9.05288 46.3305 9.32123 46.1693C9.57262 46.0106 9.86272 45.9239 10.16 45.9186H10.307C10.671 45.9716 11.0242 46.0825 11.3532 46.2471C11.9758 46.5325 12.6762 46.9648 13.3506 47.4145C14.0251 47.8641 14.6736 48.3137 15.2443 48.6423C17.3368 49.8442 19.3169 50.6916 21.0981 51.6773C22.8794 52.6631 24.4617 53.7612 25.8625 55.4819C27.5746 57.5831 28.7938 60.0215 29.719 62.6241C30.5058 64.855 31.0765 67.2069 31.578 69.5675H33.2036C32.6848 67.0686 32.0796 64.5264 31.2149 62.0967C30.2464 59.373 28.9494 56.7616 27.099 54.4789C25.5339 52.5506 23.7354 51.3142 21.8591 50.2852C19.9827 49.2562 18.0285 48.4088 16.0398 47.2675C15.7198 47.0859 15.3307 46.8265 14.8984 46.5411C14.2499 46.1088 13.5236 45.6073 12.7713 45.1922C12.4051 44.9853 12.0269 44.8005 11.6386 44.6389C11.2672 44.4877 10.8777 44.386 10.4799 44.3362H10.4713L10.1686 44.3189C9.86941 44.3213 9.5722 44.3679 9.28664 44.4573C9.15197 43.6078 9.08259 42.7492 9.07912 41.8892C9.07912 40.3846 9.29529 39.0703 9.54604 37.462C9.68742 36.587 9.76258 35.7025 9.77086 34.8161C9.77086 33.545 9.58063 32.4469 9.08777 31.539C8.84994 31.0915 8.52335 30.6973 8.12797 30.3803C7.72166 30.0485 7.25472 29.7989 6.75314 29.6453C6.47888 29.5594 6.19315 29.5157 5.90575 29.5156H5.8971C5.49442 29.5148 5.09729 29.6096 4.73843 29.7923C4.12451 30.1123 3.64029 30.6311 3.2339 31.2623C2.63727 32.2134 2.19628 33.4413 1.83312 34.8507C1.46995 36.2601 1.22784 37.8511 1.04626 39.5027C0.691743 42.8576 0.00864678 46.2904 0 49.6107C0 51.9713 0.354518 54.2887 1.46995 56.4331C2.58539 58.5775 4.12451 60.3587 5.82793 61.9929C8.39602 64.44 11.3359 66.5325 13.8521 68.798C14.1461 69.0574 14.4228 69.3168 14.6995 69.5848H16.9304C14.6995 67.2069 12.0104 65.2095 9.50281 63.1257Z" fill="#091796"/>
<path d="M43.6487 70.332H45.2742H59.9132H62.0859V78.2484H43.3438V70.332H43.6487Z" fill="#70ADFF" stroke="#091796" stroke-width="1.5"/>
<path d="M16.9304 70.332H31.5694H33.195H33.4999V78.2484H14.7578V70.332H16.9304Z" fill="#70ADFF" stroke="#091796" stroke-width="1.5"/>
<path d="M63.7209 14.2734H47.4824L39.6172 46.2314L63.7209 14.2734Z" fill="#66C3CD"/>
<path d="M36.3811 46.2314L28.5269 14.2734H12.2773L36.3811 46.2314Z" fill="#66C3CD"/>
<path d="M65.2445 14.2721H63.7201L39.6163 46.23L38.7436 49.8202C38.6995 49.9805 38.6069 50.1233 38.4785 50.2289L38.6111 50.0964L65.8521 13.9739L65.8852 13.9297C65.8147 14.0349 65.7193 14.1211 65.6076 14.1808C65.4959 14.2405 65.3712 14.2719 65.2445 14.2721Z" fill="#091796"/>
<path d="M36.3789 46.23L12.2752 14.2721H10.7507C10.6258 14.2711 10.503 14.2393 10.3932 14.1795C10.2834 14.1198 10.1899 14.034 10.1211 13.9297L10.1542 13.9739L37.3952 50.0964C37.4337 50.1459 37.4782 50.1905 37.5278 50.2289C37.3994 50.1233 37.3068 49.9805 37.2627 49.8202L36.3789 46.23Z" fill="#091796"/>
<path d="M65.9283 13.1777L65.9062 13.1445L65.9394 13.2329C65.9411 13.2138 65.9373 13.1946 65.9283 13.1777Z" fill="#02244C"/>
<path d="M65.9844 13.332C65.9844 13.3652 65.9954 13.3983 65.9954 13.4315C65.9954 13.4646 65.9844 13.3652 65.9844 13.332Z" fill="#02244C"/>
<path d="M10.0768 13.1777L10.0547 13.2329L10.0989 13.1445L10.0768 13.1777Z" fill="#02244C"/>
<path d="M10.011 13.6334C10.011 13.6003 10 13.5672 10 13.534C10 13.5009 10.011 13.6003 10.011 13.6334Z" fill="#02244C"/>
<path d="M10.0117 13.4342C10.0117 13.4011 10.0228 13.3679 10.0228 13.3348C10.0228 13.3017 10.0117 13.4011 10.0117 13.4342Z" fill="#02244C"/>
<path d="M38.0025 46.4633L45.9119 14.2734H30.082L38.0025 46.4633Z" fill="#66C3CD"/>
<path d="M38.7435 49.8215L39.6162 46.2314L47.4814 14.2734H45.9128L38.0034 46.4633L30.083 14.2734H28.5254L36.3795 46.2314L37.2633 49.8215C37.3074 49.9818 37.4 50.1246 37.5284 50.2302H37.5505C37.6029 50.2738 37.6628 50.3075 37.7272 50.3297L37.7825 50.3518C37.9264 50.3961 38.0804 50.3961 38.2243 50.3518L38.2796 50.3297C38.344 50.3075 38.4039 50.2738 38.4563 50.2302H38.4784C38.6068 50.1246 38.6994 49.9818 38.7435 49.8215Z" fill="#091796"/>
<path d="M46.9187 12.2419L55.3583 1.51562H39.4512L46.9187 12.2419Z" fill="#66C3CD"/>
<path d="M20.6484 1.51562L29.077 12.2419L36.5445 1.51562H20.6484Z" fill="#66C3CD"/>
<path d="M20.65 1.51358H36.5461L37.3856 0.331584C37.4518 0.22803 37.5434 0.143185 37.6517 0.0851617C37.76 0.0271381 37.8814 -0.00212231 38.0042 0.000184737H19.0703C19.1869 -0.00240191 19.3026 0.0222056 19.408 0.072058C19.5135 0.12191 19.6059 0.195638 19.6779 0.287398L20.65 1.51358Z" fill="#091796"/>
<path d="M38.6225 0.331489L39.451 1.51348H55.3582L56.3192 0.287303C56.3941 0.195945 56.4886 0.122666 56.5957 0.0729341C56.7028 0.0232024 56.8198 -0.00169848 56.9378 8.99509e-05H38.0039C38.1262 0.00079544 38.2465 0.0313551 38.3543 0.089109C38.4621 0.146863 38.5542 0.230064 38.6225 0.331489Z" fill="#091796"/>
<path d="M38.0047 2.08984L30.5703 12.7609H45.428L38.0047 2.08984Z" fill="#66C3CD"/>
<path d="M37.3852 0.331526L36.5456 1.51352L29.0781 12.2398L29.7188 13.0462C29.8057 13.1598 29.8598 13.295 29.8754 13.4371C29.891 13.5792 29.8674 13.7229 29.8072 13.8526C29.7415 13.9778 29.6431 14.0829 29.5226 14.1568C29.402 14.2307 29.2637 14.2707 29.1223 14.2724H46.8853C46.7439 14.2707 46.6056 14.2307 46.485 14.1568C46.3645 14.0829 46.2661 13.9778 46.2004 13.8526C46.1402 13.7229 46.1167 13.5792 46.1322 13.4371C46.1478 13.295 46.202 13.1598 46.2888 13.0462L46.9184 12.2398L39.4509 1.51352L38.6224 0.331526C38.5541 0.230101 38.462 0.146899 38.3542 0.0891456C38.2464 0.0313918 38.1261 0.000832081 38.0038 0.000126592C37.881 -0.00218045 37.7596 0.02708 37.6513 0.0851036C37.5429 0.143127 37.4513 0.227972 37.3852 0.331526ZM38.0038 2.08794L45.4382 12.759H30.5694L38.0038 2.08794Z" fill="#091796"/>
<path d="M48.4414 12.7589H63.8404L56.8589 2.05469L48.4414 12.7589Z" fill="#66C3CD"/>
<path d="M65.9954 13.4335C65.9954 13.4003 65.9843 13.3672 65.9843 13.3341C65.9742 13.299 65.9593 13.2656 65.9401 13.2346L65.907 13.1463C65.8959 13.1352 65.8959 13.1131 65.8849 13.1021L57.5557 0.343208C57.5213 0.290505 57.4805 0.242271 57.4342 0.199603L57.3679 0.155417L57.2906 0.100184L57.2133 0.0670419L57.1139 0.0339033L57.0365 0.0118087H56.9371C56.819 0.0100203 56.7021 0.0349211 56.595 0.0846529C56.4879 0.134385 56.3933 0.207664 56.3185 0.299022L55.3575 1.51415L46.9178 12.2404L46.2882 13.0468C46.2013 13.1604 46.1472 13.2956 46.1316 13.4377C46.116 13.5799 46.1396 13.7235 46.1998 13.8532C46.2655 13.9785 46.3639 14.0836 46.4844 14.1575C46.605 14.2314 46.7433 14.2713 46.8847 14.273H65.2442C65.3709 14.2728 65.4955 14.2414 65.6073 14.1817C65.719 14.122 65.8143 14.0358 65.8849 13.9306L65.918 13.8753C65.918 13.8643 65.9291 13.8422 65.9291 13.8312C65.946 13.8029 65.9608 13.7733 65.9733 13.7428C65.9754 13.7051 65.9828 13.6679 65.9954 13.6323V13.5329C66.0009 13.5 66.0009 13.4664 65.9954 13.4335ZM48.4423 12.7596L56.8598 2.05544L63.8413 12.7596H48.4423Z" fill="#091796"/>
<path d="M19.1358 2.05469L12.1543 12.7589H27.5533L19.1358 2.05469Z" fill="#66C3CD"/>
<path d="M10.7516 14.2724H29.1221C29.2635 14.2707 29.4018 14.2308 29.5224 14.1569C29.643 14.083 29.7413 13.9779 29.807 13.8527C29.8672 13.723 29.8908 13.5793 29.8752 13.4372C29.8596 13.295 29.8055 13.1599 29.7187 13.0463L29.0779 12.2399L20.6494 1.51358L19.6773 0.287398C19.6052 0.195638 19.5129 0.12191 19.4074 0.072058C19.3019 0.0222056 19.1863 -0.00240191 19.0697 0.000184737H18.9592L18.8819 0.0222794L18.7935 0.0554179L18.7162 0.0885599C18.6864 0.100451 18.6598 0.119403 18.6389 0.143793L18.5726 0.187979C18.5263 0.230647 18.4855 0.278881 18.4511 0.331584L10.1219 13.0904C10.1109 13.1015 10.1109 13.1236 10.0998 13.1346L10.0556 13.223L10.0225 13.3224C10.0225 13.3556 10.0115 13.3887 10.0115 13.4218C10.0024 13.4542 9.99868 13.4878 10.0004 13.5213C10.0004 13.5544 10.0115 13.5876 10.0115 13.6207C10.0115 13.6538 10.0225 13.687 10.0335 13.7312L10.0667 13.8195C10.0777 13.8306 10.0777 13.8527 10.0888 13.8637L10.1219 13.9189C10.1895 14.0253 10.2824 14.1133 10.3922 14.175C10.5021 14.2367 10.6256 14.2702 10.7516 14.2724ZM12.1545 12.7591L19.147 2.05486L27.5535 12.7591H12.1545Z" fill="#091796"/>
</svg>
