<svg width="160" height="24" viewBox="0 0 160 24" fill="none" xmlns="http://www.w3.org/2000/svg">
<path d="M24 9.5418L15.7 8.3418L12 0.841797L8.3 8.3418L0 9.5418L6 15.4418L4.6 23.6418L12 19.7418L19.4 23.6418L18 15.4418L24 9.5418Z" fill="#150DCE"/>
<path d="M58 9.5418L49.7 8.3418L46 0.841797L42.3 8.3418L34 9.5418L40 15.4418L38.6 23.6418L46 19.7418L53.4 23.6418L52 15.4418L58 9.5418Z" fill="#150DCE"/>
<path d="M92 9.5418L83.7 8.3418L80 0.841797L76.3 8.3418L68 9.5418L74 15.4418L72.6 23.6418L80 19.7418L87.4 23.6418L86 15.4418L92 9.5418Z" fill="#150DCE"/>
<path d="M126 9.5418L117.7 8.3418L114 0.841797L110.3 8.3418L102 9.5418L108 15.4418L106.6 23.6418L114 19.7418L121.4 23.6418L120 15.4418L126 9.5418Z" fill="#150DCE"/>
<path d="M160 9.5418L151.7 8.3418L148 0.841797L144.3 8.3418L136 9.5418L142 15.4418L140.6 23.6418L148 19.7418L155.4 23.6418L154 15.4418L160 9.5418Z" fill="#150DCE"/>
</svg>
