<svg width="24" height="25" viewBox="0 0 24 25" fill="none" xmlns="http://www.w3.org/2000/svg">
<path d="M17 21.8855V19.8855C17 18.8246 16.5786 17.8072 15.8284 17.0571C15.0783 16.3069 14.0609 15.8855 13 15.8855H5C3.93913 15.8855 2.92172 16.3069 2.17157 17.0571C1.42143 17.8072 1 18.8246 1 19.8855V21.8855" stroke="#FFFFFF" stroke-width="2" stroke-linecap="round" stroke-linejoin="round"/>
<path d="M9 11.8855C11.2091 11.8855 13 10.0946 13 7.8855C13 5.67636 11.2091 3.8855 9 3.8855C6.79086 3.8855 5 5.67636 5 7.8855C5 10.0946 6.79086 11.8855 9 11.8855Z" stroke="#FFFFFF" stroke-width="2" stroke-linecap="round" stroke-linejoin="round"/>
<path d="M23 21.8855V19.8855C22.9993 18.9992 22.7044 18.1383 22.1614 17.4378C21.6184 16.7374 20.8581 16.2371 20 16.0155" stroke="#FFFFFF" stroke-width="2" stroke-linecap="round" stroke-linejoin="round"/>
<path d="M16 4.0155C16.8604 4.2358 17.623 4.7362 18.1676 5.43781C18.7122 6.13942 19.0078 7.00233 19.0078 7.8905C19.0078 8.77867 18.7122 9.64158 18.1676 10.3432C17.623 11.0448 16.8604 11.5452 16 11.7655" stroke="#FFFFFF" stroke-width="2" stroke-linecap="round" stroke-linejoin="round"/>
</svg>
