<svg width="77" height="78" viewBox="0 0 77 78" fill="none" xmlns="http://www.w3.org/2000/svg">
<rect x="2" y="-2" width="73" height="73" rx="36.5" transform="matrix(1 0 0 -1 0 73.5)" stroke="white" stroke-width="4"/>
<path d="M30.2672 35.3086L27.0803 38.4909C26.7515 38.8256 26.5065 39.2331 26.3651 39.6801C26.2237 40.1272 26.1899 40.6013 26.2666 41.0638L32.0302 35.3086H30.2672Z" fill="white"/>
<path d="M39.1508 28.5394C39.7222 28.5043 40.2906 28.6462 40.7782 28.9457L40.9138 29.0811C41.227 29.2512 41.5035 29.4813 41.7275 29.7582L41.9309 29.9613C41.5349 28.2558 41.726 26.4669 42.4734 24.8832C42.0102 24.8119 41.5369 24.8482 41.09 24.9891C40.6432 25.13 40.2349 25.3718 39.8967 25.6957L37.0488 28.4717L39.1508 28.5394Z" fill="white"/>
<path d="M39.0826 50.4831L42.1339 47.4362V45.0664L36.0312 51.1602C36.5528 51.3402 37.1141 51.3721 37.6528 51.2526C38.1915 51.1331 38.6864 50.8667 39.0826 50.4831Z" fill="white"/>
<path d="M47.4922 35.444L48.1703 36.1888L48.6449 36.7982C48.8315 37.1769 48.9246 37.5949 48.9161 38.0169V40.5899L51.8318 37.6784C52.2045 37.3322 52.472 36.8882 52.6039 36.3973C52.7358 35.9064 52.7268 35.3883 52.5777 34.9023C50.9932 35.6539 49.1998 35.8449 47.4922 35.444Z" fill="white"/>
<path d="M19.1468 53.7956L19.3503 53.5248C19.6655 53.0178 20.0808 52.5801 20.5708 52.2383C20.0283 49.4622 18.6044 48.3112 17.3839 47.7695L16.8414 48.0404C16.2353 48.3856 15.7232 48.8738 15.3497 49.4623L14.875 50.1393C16.2989 50.4779 17.9263 51.4258 19.1468 53.7956Z" fill="white"/>
<path d="M21.1834 32.8086L20.7088 33.0794H20.6409C20.0307 33.6211 18.0643 35.1107 19.4204 37.0742L19.7594 37.4805C20.1524 37.8771 20.6698 38.1271 21.2251 38.1887C21.7805 38.2503 22.3402 38.1199 22.8107 37.819L23.6244 37.4128C23.5693 35.9186 22.966 34.4968 21.9293 33.418L21.1834 32.8086Z" fill="white"/>
<path d="M16.3007 57.9961L16.8431 57.1837L18.7417 54.4076C17.5212 51.8346 15.8938 50.9544 14.5377 50.6836L12.2323 54.1368L11.8254 54.8816L9.45218 58.7409C9.11569 59.2556 8.95977 59.8672 9.00886 60.4799C9.05794 61.0926 9.30927 61.6717 9.72343 62.1264C10.0275 62.4381 10.4008 62.674 10.813 62.8152C11.2253 62.9563 11.665 62.9987 12.0967 62.9389C12.5016 62.8646 12.8862 62.7055 13.2251 62.4721C13.564 62.2387 13.8496 61.9363 14.063 61.5847L16.3007 57.9961Z" fill="white"/>
<path d="M45.8657 29.0175C45.8657 29.0852 45.9335 29.0852 45.9335 29.1529C45.9733 29.2018 46.0289 29.2353 46.0908 29.2477C46.1527 29.2601 46.217 29.2505 46.2725 29.2206C46.3087 29.2128 46.343 29.1976 46.3731 29.176C46.4032 29.1545 46.4285 29.127 46.4476 29.0953C46.4667 29.0636 46.479 29.0283 46.4839 28.9916C46.4888 28.955 46.4861 28.9177 46.476 28.8821C46.3377 28.3738 46.3337 27.8384 46.4644 27.3281C46.5952 26.8178 46.8561 26.3501 47.2218 25.9706C47.3575 25.9029 47.3575 25.6998 47.2218 25.5643C47.1964 25.5355 47.1651 25.5124 47.13 25.4966C47.0949 25.4808 47.0569 25.4727 47.0184 25.4727C46.98 25.4727 46.9419 25.4808 46.9068 25.4966C46.8717 25.5124 46.8405 25.5355 46.815 25.5643C46.3679 26.0065 46.0448 26.5582 45.8782 27.1642C45.7116 27.7702 45.7073 28.4093 45.8657 29.0175Z" fill="white"/>
<path d="M44.4383 32.9428C45.3771 33.8803 46.5732 34.5188 47.8754 34.7775C49.1776 35.0362 50.5273 34.9035 51.754 34.3962C52.9806 33.8888 54.0291 33.0297 54.7668 31.9273C55.5044 30.825 55.8981 29.529 55.8981 28.2032C55.8981 26.8774 55.5044 25.5814 54.7668 24.479C54.0291 23.3767 52.9806 22.5175 51.754 22.0102C50.5273 21.5029 49.1776 21.3702 47.8754 21.6289C46.5732 21.8876 45.3771 22.526 44.4383 23.4636C43.1959 24.7292 42.5 26.4309 42.5 28.2032C42.5 29.9755 43.1959 31.6771 44.4383 32.9428ZM50.88 26.5105C52.5751 28.2709 54.0669 29.5574 52.3039 31.3178C51.4545 32.0093 50.3777 32.36 49.2834 32.3016C48.1891 32.2431 47.1559 31.7797 46.3852 31.0018C45.6146 30.2238 45.1619 29.187 45.1153 28.0937C45.0688 27.0005 45.4318 25.9291 46.1335 25.0886C47.8286 23.3958 49.1848 24.8177 50.88 26.5105Z" fill="white"/>
<path d="M23.2169 58.7344L20.5046 60.5625L19.6909 61.0365L15.6903 63.3386C15.2553 63.62 14.9054 64.0146 14.6783 64.48C14.4513 64.9453 14.3557 65.4637 14.402 65.9792C14.4654 66.3634 14.6036 66.7315 14.8089 67.0626C14.9895 67.3717 15.2312 67.6409 15.5192 67.8538C15.8073 68.0668 16.1357 68.219 16.4845 68.3014C16.8333 68.3837 17.1952 68.3943 17.5482 68.3327C17.9013 68.2711 18.2381 68.1384 18.5382 67.9428L22.7422 65.4376L23.4881 64.9636L26.675 62.7969C26.4716 61.5104 25.5901 59.9531 23.2169 58.7344Z" fill="white"/>
<path d="M44.2379 56.7761C44.0507 56.4548 43.8228 56.159 43.5599 55.8958C42.5492 54.8794 41.1953 54.2759 39.7627 54.2031L39.5593 54.5417C39.2952 55.0346 39.1863 55.5956 39.2467 56.1513C39.3072 56.707 39.5343 57.2315 39.8983 57.6563L40.3052 57.9271C42.2037 59.2813 43.7633 57.4531 44.2379 56.7761Z" fill="white"/>
<path d="M44.7119 55.9611L48.3057 48.9194L48.1701 43.2996V42.6902C48.1701 41.5392 48.1023 38.7631 48.1023 37.9506C48.159 37.6723 48.1107 37.3829 47.9666 37.1381L47.6276 36.7318L46.7461 35.8516L43.9661 38.6954L43.3558 38.086L46.2037 35.3099L42.1353 31.2474L39.2874 34.0235L38.6771 33.4818L41.525 30.638L41.186 30.2995L40.5079 29.6901H40.3723C40.014 29.4459 39.5849 29.3269 39.1518 29.3516H34.0663L28.4383 29.1484L21.9967 32.4662L22.5391 32.9401C23.6453 34.0397 24.2986 35.5134 24.3699 37.0704L29.4554 34.5651H33.9307L24.7768 43.7058L23.3528 44.6538L17.9961 47.4975C19.2844 48.1069 20.5727 49.4611 21.183 51.9663L28.1671 48.784C28.3027 48.7163 28.5061 48.7163 28.5739 48.8517C28.634 48.9134 28.673 48.9925 28.6852 49.0777C28.6974 49.1628 28.6821 49.2497 28.6417 49.3257L25.5904 56.2997C26.5086 56.4651 27.3792 56.8298 28.1407 57.3679C28.9023 57.9061 29.5363 58.6047 29.9979 59.4143L32.8457 54.0653L33.5916 52.508L42.8811 43.2996V47.9715L40.1689 53.5236C41.652 53.6607 43.0419 54.3067 44.1017 55.3518L44.7119 55.9611ZM31.8965 41.4714L31.2862 40.8621L35.4224 36.7318L36.0327 37.3412L31.8965 41.4714ZM36.5073 46.0757L35.897 45.4663L40.0333 41.336L40.6435 41.9454L36.5073 46.0757Z" fill="white"/>
<path d="M29.6581 60.0261C29.1157 58.8073 27.9629 57.4531 25.3863 56.8438V56.9792C25.1397 57.4169 24.7907 57.7886 24.3692 58.0625L23.8945 58.401C24.7235 58.7884 25.457 59.3531 26.0429 60.0552C26.6288 60.7573 27.0528 61.5795 27.2849 62.4636L27.9629 61.9896C28.572 61.6189 29.0834 61.1082 29.4547 60.5L29.6581 60.0261Z" fill="white"/>
</svg>
