<svg width="92" height="101" viewBox="0 0 92 101" fill="none" xmlns="http://www.w3.org/2000/svg">
<path d="M42.0099 1.36373C44.4895 -0.0555376 47.7191 -0.0619483 50.1965 1.36373C62.6601 8.40631 75.1276 15.4379 87.5891 22.4847C89.9329 23.805 91.5007 26.4134 91.4768 29.1141V71.485C91.4943 74.2976 89.7716 76.9684 87.2988 78.2587C74.8761 85.2625 62.4599 92.2748 50.0394 99.2785C47.5086 100.726 44.2142 100.614 41.7624 99.0484C38.0381 96.8894 34.3074 94.7411 30.5828 92.5843C29.8217 92.1305 28.9637 91.7694 28.4262 91.0314C28.9014 90.3911 29.7508 90.3113 30.441 90.0317C31.9956 89.5374 33.4234 88.7439 34.8516 87.9739C35.2128 87.7267 35.6537 87.8214 35.9999 88.0426C39.1846 89.8686 42.3412 91.7477 45.5366 93.5562C46.2183 93.9498 46.9085 93.4273 47.4911 93.1025C59.6816 86.2127 71.887 79.3489 84.0752 72.457C84.5268 72.2397 84.7765 71.7603 84.7398 71.2656C84.7484 57.2884 84.742 43.3086 84.7441 29.3314C84.7957 28.7701 84.4709 28.254 83.9634 28.0243C71.5839 21.0526 59.2107 14.0702 46.8333 7.09674C46.6189 6.94931 46.3649 6.8702 46.1046 6.86982C45.8444 6.86944 45.5901 6.9478 45.3752 7.0946C32.9978 14.0702 20.6268 21.059 8.24944 28.0304C7.7437 28.2604 7.40429 28.768 7.46448 29.3314C7.46661 43.3086 7.46448 57.2884 7.46448 71.2678C7.44302 71.5091 7.49603 71.7513 7.61638 71.9616C7.73673 72.1719 7.91864 72.3403 8.13761 72.4441C11.4406 74.3172 14.7478 76.177 18.0529 78.0436C19.9149 79.0458 22.201 79.6413 24.2525 78.8734C26.0628 78.2242 27.3318 76.3768 27.2972 74.4546C27.3143 60.5589 27.2887 46.6611 27.3101 32.7676C27.2648 32.1507 27.85 31.6411 28.4498 31.6991C30.0368 31.6884 31.6259 31.6777 33.213 31.7034C33.8754 31.6884 34.3313 32.3527 34.2494 32.9741C34.2429 46.9578 34.2665 60.9418 34.2387 74.9255C34.2429 78.6523 32.7118 82.7074 29.2646 84.5309C25.0179 86.7309 19.7689 86.2643 15.5734 84.1548C11.9413 82.342 8.47524 80.2026 4.90765 78.2605C2.42847 76.9773 0.7143 74.2958 0.731752 71.4854V29.1141C0.705753 26.3575 2.33587 23.7017 4.75273 22.4007C17.1732 15.3912 29.5916 8.3764 42.0099 1.36373Z" fill="#8CC84B"/>
<path d="M52.8455 30.7143C58.2626 30.3656 64.0619 30.5077 68.9366 33.1764C72.7107 35.2214 74.8031 39.5134 74.8697 43.7064C74.7643 44.272 74.1731 44.584 73.6332 44.5451C72.0615 44.543 70.4894 44.5665 68.9177 44.5345C68.251 44.5601 67.8635 43.9454 67.7798 43.356C67.3282 41.3497 66.2341 39.3628 64.3457 38.3951C61.447 36.9438 58.086 37.0168 54.9251 37.047C52.6176 37.1696 50.1363 37.3694 48.1814 38.7263C46.6805 39.7542 46.2246 41.8291 46.7603 43.5002C47.2653 44.7001 48.6504 45.0872 49.7837 45.4441C56.312 47.1515 63.2299 46.9816 69.6336 49.2286C72.2848 50.1446 74.8783 51.9254 75.7858 54.7012C76.9728 58.4216 76.4525 62.8685 73.8055 65.8552C71.659 68.3131 68.5327 69.6508 65.4146 70.3773C61.2664 71.3022 56.9616 71.3258 52.749 70.9151C48.7879 70.4635 44.6658 69.4228 41.6078 66.7239C38.993 64.4534 37.7158 60.9157 37.8426 57.5013C37.8729 56.9247 38.447 56.5226 38.9994 56.57C40.5821 56.5571 42.1649 56.5529 43.7476 56.5721C44.3798 56.5269 44.8485 57.0732 44.8809 57.6691C45.1729 59.5805 45.8913 61.5867 47.5581 62.72C50.7749 64.7953 54.8112 64.6532 58.4945 64.7113C61.546 64.5759 64.9715 64.535 67.4617 62.5181C68.7756 61.3677 69.1649 59.4431 68.8098 57.7873C68.4251 56.3894 66.9628 55.738 65.707 55.312C59.2624 53.2734 52.2672 54.0131 45.8849 51.7078C43.2939 50.7921 40.7883 49.0608 39.7929 46.3989C38.4039 42.6315 39.0403 37.9716 41.9647 35.0857C44.8161 32.2151 48.9321 31.1096 52.8455 30.7139V30.7143Z" fill="#8CC84B"/>
</svg>
