<svg width="92" height="100" viewBox="0 0 92 100" fill="none" xmlns="http://www.w3.org/2000/svg">
<g clip-path="url(#clip0_380_4104)">
<path d="M90.6875 40.28C90.6875 34.2891 83.1851 28.6111 71.6813 25.0899C74.3363 13.3656 73.1565 4.0382 67.9572 1.05094C66.7593 0.350314 65.3586 0.0186393 63.828 0.0186393V4.1303C64.6761 4.1303 65.3586 4.29477 65.9299 4.60945C68.4369 6.04743 69.5245 11.5225 68.6764 18.5644C68.4742 20.2974 68.1419 22.1224 67.7362 23.9847C64.1229 23.0999 60.1779 22.4173 56.0301 21.9749C53.5417 18.5644 50.9607 15.4675 48.361 12.7577C54.3712 7.17183 60.0124 4.11166 63.8466 4.11166V0C58.7767 0 52.1404 3.61333 45.4302 9.88115C38.7161 3.65006 32.0827 0.0740102 27.0116 0.0740102V4.18567C30.8278 4.18567 36.4871 7.22721 42.4967 12.7763C39.7513 15.6647 37.2074 18.7381 34.883 21.9749C30.7165 22.4173 26.772 23.0993 23.1587 24.0033C22.7344 22.1602 22.4213 20.3719 22.1999 18.6571C21.3337 11.6152 22.4027 6.14008 24.8916 4.68346C25.4442 4.35178 26.1635 4.20431 27.0116 4.20431V0.0926496C25.4629 0.0926496 24.0616 0.424872 22.8451 1.1255C17.6644 4.11111 16.5038 13.4205 19.1764 25.1085C7.71037 28.6479 0.244141 34.3077 0.244141 40.28C0.244141 46.2721 7.7471 51.95 19.2504 55.4707C16.5959 67.1955 17.7757 76.5224 22.9745 79.5097C24.1729 80.2103 25.5736 80.542 27.1224 80.542C32.1918 80.542 38.8285 76.9286 45.5388 70.6608C52.249 76.8919 58.8858 80.4685 63.9552 80.4685C65.5033 80.4685 66.9046 80.1396 68.1217 79.4357C73.3012 76.4495 74.4629 67.1396 71.7898 55.4526C83.2197 51.9314 90.6853 46.2535 90.6853 40.28H90.6875ZM66.6837 27.9845C66.0011 30.3627 65.1536 32.8138 64.1947 35.266C63.4387 33.7913 62.646 32.3166 61.7826 30.8413C60.9345 29.3671 60.0283 27.9291 59.1275 26.5279C61.7453 26.9149 64.2709 27.3946 66.6864 27.9845H66.6837ZM58.2411 47.6174C56.8031 50.1064 55.3289 52.4659 53.8005 54.6599C51.0533 54.8995 48.27 55.0283 45.4675 55.0283C42.6836 55.0283 39.9003 54.8995 37.1718 54.678C35.6415 52.4851 34.1544 50.15 32.7104 47.6728C31.3097 45.2606 30.0378 42.8057 28.8761 40.336C30.0192 37.8657 31.3097 35.3948 32.6923 32.9799C34.1303 30.4915 35.605 28.132 37.1329 25.938C39.88 25.6984 42.6633 25.5691 45.4658 25.5691C48.2497 25.5691 51.0336 25.6984 53.7615 25.9194C55.2914 28.1123 56.7786 30.4475 58.223 32.9251C59.6242 35.3373 60.8961 37.7917 62.0572 40.2619C60.895 42.7322 59.6231 45.2025 58.24 47.6174H58.2411ZM64.1958 45.2212C65.1636 47.6235 66.0117 50.0691 66.7401 52.558C64.3247 53.1479 61.7809 53.6457 59.1445 54.0327C60.048 52.6134 60.9537 51.1573 61.7996 49.6634C62.6471 48.1892 63.4398 46.6959 64.1958 45.2228V45.2212ZM45.5015 64.8913C43.6935 63.0142 41.983 61.0455 40.3767 58.993C42.0362 59.0665 43.7318 59.1219 45.4461 59.1219C47.179 59.1219 48.8939 59.0851 50.5714 58.993C48.9889 61.049 47.2965 63.018 45.5015 64.8913ZM31.7861 54.0327C29.1683 53.6457 26.6427 53.166 24.2277 52.5761C24.9097 50.1985 25.7584 47.7463 26.7167 45.2946C27.4727 46.7693 28.2654 48.244 29.1288 49.7188C29.9923 51.1935 30.8832 52.6337 31.7861 54.0327ZM45.4094 15.6698C47.218 17.5468 48.9285 19.5159 50.5341 21.5692C48.8752 21.4952 47.179 21.4398 45.4647 21.4398C43.7318 21.4398 42.0175 21.4766 40.34 21.5692C41.9222 19.5129 43.6145 17.5435 45.4094 15.6698ZM31.7674 26.5279C30.8645 27.9472 29.9583 29.4039 29.1135 30.8967C28.2654 32.3719 27.4727 33.8467 26.7167 35.3214C25.7489 32.9183 24.901 30.4727 24.1729 27.9845C26.5878 27.4155 29.1316 26.9149 31.7674 26.5279ZM15.084 49.608C8.56011 46.8242 4.33881 43.1741 4.33881 40.2795C4.33881 37.3849 8.56011 33.7173 15.084 30.952C16.6694 30.2695 18.4023 29.6615 20.1906 29.0881C21.2416 32.7014 22.6242 36.4622 24.3385 40.3151C22.6428 44.1494 21.2783 47.8915 20.246 51.4868C18.421 50.915 16.688 50.2884 15.084 49.6064V49.608ZM25.0024 75.9512C22.4948 74.5132 21.4071 69.0381 22.2558 61.9956C22.4581 60.2633 22.7898 58.4382 23.1954 56.5759C26.8088 57.4613 30.7538 58.1433 34.9016 58.5857C37.39 61.9956 39.971 65.0931 42.5707 67.8029C36.5611 73.3888 30.9193 76.449 27.0851 76.449C26.2556 76.4314 25.5555 76.2653 25.0024 75.9517V75.9512ZM68.7296 61.9041C69.5958 68.946 68.5268 74.4211 66.0379 75.8777C65.4853 76.2066 64.7665 76.3568 63.9179 76.3568C60.1023 76.3568 54.4424 73.3153 48.4328 67.7662C51.1784 64.8778 53.7222 61.8042 56.0465 58.5671C60.213 58.1246 64.1602 57.4427 67.7708 56.5386C68.1951 58.4026 68.5268 60.1892 68.7296 61.9035V61.9041ZM75.8269 49.608C74.2414 50.29 72.5085 50.8985 70.7202 51.472C69.6698 47.8587 68.2872 44.0984 66.5729 40.2449C68.2691 36.4107 69.6331 32.6685 70.6654 29.0738C72.4904 29.6451 74.2228 30.2717 75.8455 30.9542C82.3694 33.7376 86.5907 37.3876 86.5907 40.2817C86.572 43.1763 82.3507 46.845 75.8247 49.6102L75.8269 49.608Z" fill="#61DAFB"/>
<path d="M45.4459 48.7056C47.1123 48.7057 48.7412 48.2117 50.1268 47.286C51.5124 46.3603 52.5923 45.0445 53.2301 43.5051C53.8678 41.9656 54.0347 40.2716 53.7097 38.6372C53.3847 37.0029 52.5823 35.5016 51.4041 34.3233C50.2258 33.145 48.7246 32.3425 47.0903 32.0174C45.456 31.6923 43.762 31.8591 42.2225 32.4967C40.6829 33.1344 39.3671 34.2143 38.4413 35.5998C37.5155 36.9853 37.0214 38.6142 37.0214 40.2805C37.0213 41.3869 37.2392 42.4825 37.6625 43.5046C38.0859 44.5268 38.7064 45.4556 39.4887 46.2379C40.271 47.0203 41.1997 47.6409 42.2219 48.0643C43.244 48.4877 44.3396 48.7056 45.4459 48.7056ZM4.35069 95.0479H1.56956V99.836H0V87.9945H3.91978C5.25306 87.9945 6.27768 88.2982 6.99366 88.9056C7.70964 89.513 8.07019 90.3971 8.0753 91.5579C8.0753 92.2951 7.87429 92.9376 7.47226 93.4855C7.07023 94.0333 6.51726 94.4425 5.81334 94.7129L8.59447 99.7385V99.836H6.9191L4.35069 95.0479ZM1.56956 93.7716H3.96858C4.74376 93.7716 5.35905 93.5706 5.81444 93.1686C6.26983 92.7665 6.50026 92.2297 6.50575 91.5579C6.50575 90.8269 6.28646 90.2659 5.84788 89.8749C5.41405 89.4845 4.78524 89.2866 3.96145 89.2811H1.56956V93.7716ZM13.6853 100.001C12.4923 100.001 11.5218 99.6102 10.7736 98.8295C10.0251 98.0434 9.65108 96.9944 9.65144 95.6827V95.4086C9.65144 94.5358 9.81591 93.7579 10.1448 93.0748C10.4738 92.3917 10.9399 91.855 11.5434 91.4647C12.1219 91.0813 12.801 90.8776 13.495 90.8792C14.6393 90.8792 15.5284 91.256 16.1621 92.0096C16.7959 92.7633 17.1131 93.8414 17.1138 95.2441V95.8702H11.1569C11.1788 96.7379 11.431 97.4401 11.9134 97.977C12.4013 98.5077 13.0193 98.7732 13.7675 98.7736C14.2989 98.7736 14.7486 98.6652 15.1167 98.4485C15.4917 98.2258 15.8204 97.9331 16.0848 97.5861L17.0064 98.301C16.2688 99.434 15.1631 100.001 13.6891 100.001H13.6853ZM13.4978 92.1127C13.21 92.1074 12.9244 92.1642 12.6605 92.2792C12.3967 92.3942 12.1607 92.5648 11.9688 92.7793C11.5572 93.2179 11.3025 93.8359 11.2046 94.6334H15.6123V94.5183C15.5688 93.7541 15.3628 93.1631 14.9944 92.7453C14.626 92.3276 14.1271 92.1167 13.4978 92.1127ZM24.2977 99.836C24.2111 99.6621 24.1408 99.3531 24.0867 98.909C23.3868 99.6367 22.5518 100.001 21.5818 100.001C20.7146 100.001 20.0019 99.7566 19.4438 99.2686C18.8912 98.7752 18.6147 98.1517 18.6143 97.3981C18.6143 96.4818 18.9615 95.7717 19.6559 95.2677C20.3551 94.756 21.3362 94.5002 22.5993 94.5002H24.0631V93.8094C24.0631 93.2839 23.9059 92.8665 23.5916 92.5573C23.2769 92.2426 22.8133 92.0855 22.2008 92.0858C21.6643 92.0858 21.2143 92.2213 20.8511 92.4921C20.4878 92.7629 20.3061 93.0918 20.3061 93.4789H18.7925C18.7925 93.0403 18.9471 92.6172 19.2563 92.2097C19.5655 91.8022 19.9883 91.4771 20.5249 91.2344C21.081 90.9918 21.6823 90.8698 22.289 90.8765C23.3033 90.8765 24.0974 91.1323 24.6716 91.644C25.2465 92.148 25.5447 92.8444 25.5663 93.7332V97.783C25.5663 98.591 25.6694 99.2334 25.8755 99.71V99.836H24.2977ZM21.8017 98.6897C22.2735 98.6896 22.7367 98.5631 23.1432 98.3235C23.5657 98.0794 23.8719 97.7623 24.062 97.3723V95.567H22.8828C21.0396 95.567 20.1181 96.1063 20.1181 97.1848C20.1181 97.6567 20.2752 98.0255 20.5896 98.2912C20.9039 98.5569 21.3079 98.6897 21.8017 98.6897ZM31.4537 98.7709C31.9655 98.7795 32.4638 98.6066 32.8604 98.2829C33.2624 97.9573 33.4846 97.5507 33.527 97.0631H34.9524C34.9194 97.5827 34.7387 98.0819 34.4316 98.5022C34.1009 98.967 33.6591 99.3417 33.1466 99.5921C32.6236 99.8614 32.0435 100.001 31.4553 99.9989C30.2573 99.9989 29.3032 99.6003 28.593 98.8032C27.8888 97.9991 27.5364 96.9042 27.5361 95.5183V95.2661C27.5361 94.4098 27.6932 93.6481 28.0075 92.9811C28.3219 92.3141 28.7718 91.7964 29.3573 91.428C29.9482 91.0588 30.6449 90.8745 31.4471 90.8748C32.4339 90.8748 33.2526 91.1703 33.9031 91.7613C34.5537 92.3523 34.9034 93.1198 34.9524 94.0638H33.527C33.4839 93.494 33.2672 93.0277 32.8768 92.6648C32.4865 92.3018 32.0094 92.1176 31.4454 92.1122C30.6812 92.1122 30.0877 92.3886 29.6648 92.9416C29.2474 93.4898 29.0386 94.284 29.0382 95.3242V95.6087C29.0382 96.6226 29.2471 97.403 29.6648 97.9502C30.0826 98.4973 30.6788 98.7714 31.4537 98.7725V98.7709ZM38.6831 88.9072V91.0376H40.3277V92.2004H38.6831V97.6569C38.6831 98.0088 38.7562 98.2743 38.9023 98.4534C39.0485 98.6325 39.298 98.7193 39.6507 98.7138C39.8909 98.705 40.1296 98.6723 40.3634 98.6163V99.836C39.9874 99.9424 39.5989 99.9977 39.2083 100.001C38.5369 100.001 38.0301 99.7971 37.688 99.3903C37.3459 98.9836 37.1753 98.4063 37.176 97.6585V92.2021H35.5735V91.0393H37.1809V88.9089L38.6831 88.9072ZM55.5562 99.836H53.9867L48.0264 90.7125V99.836H46.4568V87.9945H48.0264L54.002 97.1591V87.9978H55.5551L55.5562 99.836ZM63.5252 99.836C63.4386 99.6621 63.3682 99.3531 63.3141 98.909C62.6146 99.6367 61.7796 100.001 60.8093 100.001C59.942 100.001 59.2293 99.7566 58.6712 99.2686C58.1186 98.7752 57.8421 98.1517 57.8418 97.3981C57.8418 96.4818 58.189 95.7717 58.8834 95.2677C59.5825 94.756 60.5637 94.5002 61.8268 94.5002H63.2905V93.8094C63.2905 93.2839 63.1332 92.8665 62.8185 92.5573C62.5042 92.2426 62.0408 92.0855 61.4282 92.0858C60.8917 92.0858 60.4418 92.2213 60.0785 92.4921C59.7152 92.7629 59.5336 93.0918 59.5336 93.4789H58.021C58.021 93.0403 58.1756 92.6172 58.4848 92.2097C58.794 91.8022 59.2169 91.4771 59.7534 91.2344C60.3096 90.9918 60.9108 90.8698 61.5176 90.8765C62.5314 90.8765 63.3256 91.1323 63.9002 91.644C64.4747 92.148 64.7729 92.8444 64.7948 93.7332V97.783C64.7948 98.591 64.8979 99.2334 65.104 99.71V99.836H63.5252ZM61.0286 98.6914C61.5004 98.6912 61.9636 98.5648 62.3701 98.3251C62.7929 98.081 63.0992 97.7639 63.2889 97.374V95.5687H62.1097C60.2665 95.5687 59.345 96.108 59.345 97.1865C59.345 97.6583 59.5021 98.0271 59.8165 98.2928C60.1308 98.5585 60.5348 98.6914 61.0286 98.6914ZM69.1927 88.9089V91.0393H70.8373V92.2021H69.1927V97.6585C69.1927 98.0105 69.2658 98.276 69.412 98.4551C69.5582 98.6342 69.8076 98.721 70.1603 98.7155C70.4014 98.7068 70.6411 98.6741 70.8757 98.6179V99.836C70.4998 99.9424 70.1113 99.9977 69.7206 100.001C69.0492 100.001 68.5425 99.7971 68.2004 99.3903C67.8583 98.9836 67.6876 98.4063 67.6884 97.6585V92.2021H66.0865V91.0393H67.6884V88.9089H69.1927ZM74.2363 99.8377H72.732V91.0393H74.2363V99.8377ZM72.6081 88.7071C72.6018 88.4811 72.68 88.2608 72.8274 88.0893C72.9791 87.9215 73.2013 87.8377 73.494 87.8377C73.7868 87.8377 74.009 87.9215 74.1607 88.0893C74.313 88.2585 74.3946 88.4796 74.3887 88.7071C74.3957 88.9326 74.3138 89.1517 74.1607 89.3173C74.0094 89.4803 73.7871 89.5616 73.494 89.5613C73.2009 89.5609 72.9787 89.4796 72.8274 89.3173C72.679 89.1494 72.6006 88.9311 72.6081 88.7071ZM79.553 97.7967L81.7322 91.0393H83.2672L80.1138 99.836H78.9669L75.7801 91.0376H77.3151L79.553 97.7967ZM88.2538 100.001C87.0609 100.001 86.0905 99.6102 85.3427 98.8295C84.5942 98.0434 84.2202 96.9944 84.2205 95.6827V95.4086C84.2205 94.5358 84.385 93.7579 84.7139 93.0748C85.0429 92.3917 85.509 91.855 86.1124 91.4647C86.6908 91.0814 87.3697 90.8777 88.0636 90.8792C89.2075 90.8792 90.0967 91.256 90.7312 92.0096C91.3657 92.7633 91.6829 93.8414 91.6829 95.2441V95.8702H85.7249C85.7468 96.7379 85.999 97.4401 86.4814 97.977C86.9689 98.5077 87.5868 98.7732 88.3349 98.7736C88.8663 98.7736 89.3162 98.6652 89.6847 98.4485C90.0597 98.2258 90.3884 97.9331 90.6528 97.5861L91.5716 98.3021C90.8341 99.4351 89.7281 100.002 88.2538 100.002V100.001ZM88.0663 92.1127C87.7786 92.1073 87.4931 92.1641 87.2293 92.2792C86.9655 92.3942 86.7297 92.5648 86.5379 92.7793C86.1256 93.2179 85.8709 93.8359 85.7736 94.6334H90.1808V94.5183C90.1373 93.7541 89.9314 93.1631 89.563 92.7453C89.1945 92.3276 88.6957 92.1164 88.0663 92.1116V92.1127Z" fill="#61DAFB"/>
</g>
<defs>
<clipPath id="clip0_380_4104">
<rect width="91.6851" height="100" fill="white"/>
</clipPath>
</defs>
</svg>
