<svg width="254" height="256" viewBox="0 0 254 256" fill="none" xmlns="http://www.w3.org/2000/svg">
<path d="M212.317 0.0390625H179.02C204.158 18.9363 220.418 49.013 220.418 82.8805C220.418 140.082 174.047 186.452 116.846 186.452C59.6453 186.452 13.2744 140.082 13.2744 82.8805C13.2744 49.013 29.5336 18.9363 54.6731 0.0390625H-1V255.039H-0.575233V137.124C-0.492096 137.231 -0.40826 137.338 -0.324425 137.442C11.203 151.807 22.94 166.541 29.359 184.205C37.4505 206.471 36.3208 231.12 34.5728 255.039H200.567C201.451 230.242 215.806 206.512 235.578 191.061C238.961 188.418 242.747 185.612 243.729 181.433C245.368 174.464 238.574 168.718 235.319 162.34C231.555 154.966 232.565 146.162 233.738 137.967C235.56 125.236 237.569 112.463 241.569 100.241C244.484 91.3374 248.514 82.6912 254 75.1341V51.3185C233.849 44.5663 217.94 24.9725 212.317 0.0390625Z" fill="#66C3CD"/>
<path d="M233.74 137.967C232.567 146.163 231.557 154.966 235.321 162.34C238.576 168.717 245.37 174.464 243.731 181.434C242.749 185.613 238.963 188.42 235.58 191.061C215.809 206.512 201.453 230.242 200.569 255.039H254V75.1328C248.514 82.6899 244.484 91.3361 241.569 100.239C237.569 112.463 235.56 125.234 233.74 137.967Z" fill="#00007E"/>
<path d="M29.358 184.206C22.9397 166.543 11.2013 151.808 -0.325364 137.444C-0.409199 137.339 -0.493035 137.234 -0.576172 137.125V255.041H34.5719C36.3199 231.122 37.4496 206.472 29.358 184.206Z" fill="#00007E"/>
<path d="M212.317 0.0390625C217.941 24.9725 233.849 44.5663 254 51.3185V0.0390625H212.317Z" fill="#66C3CD"/>
<path d="M13.2744 82.8805C13.2744 140.082 59.6453 186.452 116.846 186.452C174.047 186.452 220.418 140.082 220.418 82.8805C220.418 49.013 204.158 18.9363 179.02 0.0390625H54.6731C29.5336 18.9363 13.2744 49.013 13.2744 82.8805Z" fill="#150DCE"/>
<path d="M-0.401367 255.038H244.219C244.109 253.796 243.884 252.568 243.546 251.369C242.704 248.439 241.084 245.786 240.154 242.882C239.283 240.166 239.036 237.293 238.794 234.454C238.06 225.849 237.327 217.244 236.594 208.639C234.927 189.073 232.273 167.459 217.493 154.526C213.025 150.614 207.725 147.801 202.459 145.057C189.51 138.31 175.015 131.584 160.834 135.067L68.7546 149.05C54.4271 150.432 37.6935 168.711 31.9368 172.203C24.7661 176.553 16.7228 179.415 11.5704 186.032C6.7554 192.216 3.28321 199.306 -0.398573 206.232L-0.401367 255.038Z" fill="#206D41"/>
<path d="M92.6742 65.9271C88.0116 69.7165 85.4245 75.4459 83.2693 81.0552C76.6641 98.2609 72.6084 116.339 71.2305 134.718L86.5703 144.455C87.125 144.805 87.6881 145.168 88.1129 145.669C88.8471 146.541 89.0679 147.718 89.3592 148.82C90.9703 154.898 95.6783 160.061 101.579 162.227C105.749 163.757 110.292 163.83 114.733 163.886L133.99 164.126C140.471 164.207 147.009 164.282 153.363 162.999C156.506 162.362 159.573 161.397 162.515 160.119C167.694 157.872 170.446 152.249 169.257 146.731C169.081 145.919 169.002 145.089 169.024 144.258C169.125 140.644 170.611 137.223 171.225 133.661C172.567 125.873 170.029 116.717 175.227 110.765C178.94 106.515 186.196 104.482 186.49 98.8465C186.708 94.6743 182.635 91.5961 178.761 90.0347C174.886 88.4733 170.462 87.3988 167.944 84.0656C163.588 78.3012 167.227 68.8292 162.273 63.5699C159.968 61.1247 156.431 60.3667 153.121 59.7715C132.136 55.9989 115.315 55.5678 95.6867 63.8934C95.1474 64.1218 92.8608 65.3696 92.6756 65.9264" fill="#FC9301"/>
<g opacity="0.2">
<path d="M92.6742 65.9271C88.0116 69.7165 85.4245 75.4459 83.2693 81.0552C76.6641 98.2609 72.6084 116.339 71.2305 134.718L86.5703 144.455C87.125 144.805 87.6881 145.168 88.1129 145.669C88.8471 146.541 89.0679 147.718 89.3592 148.82C90.9703 154.898 95.6783 160.061 101.579 162.227C105.749 163.757 110.292 163.83 114.733 163.886L133.99 164.126C140.471 164.207 147.009 164.282 153.363 162.999C156.506 162.362 159.573 161.397 162.515 160.119C167.694 157.872 170.446 152.249 169.257 146.731C169.081 145.919 169.002 145.089 169.024 144.258C169.125 140.644 170.611 137.223 171.225 133.661C172.567 125.873 170.029 116.717 175.227 110.765C178.94 106.515 186.196 104.482 186.49 98.8465C186.708 94.6743 182.635 91.5961 178.761 90.0347C174.886 88.4733 170.462 87.3988 167.944 84.0656C163.588 78.3012 167.227 68.8292 162.273 63.5699C159.968 61.1247 156.431 60.3667 153.121 59.7715C132.136 55.9989 115.315 55.5678 95.6867 63.8934C95.1474 64.1218 92.8608 65.3696 92.6756 65.9264" fill="black"/>
</g>
<path d="M77.7012 151.315C89.1952 148.726 100.925 147.329 112.706 147.147C117.796 147.068 122.885 147.217 127.973 147.366L150.739 148.032C157.994 148.241 165.288 148.46 172.409 149.864C169.64 150.228 167.743 152.845 166.668 155.422C164.349 160.975 164.268 167.203 162.509 172.958C159.663 182.263 152.661 189.705 148.676 198.58C145.793 204.994 144.377 212.326 139.568 217.455C135.695 216.617 132.615 213.759 129.041 212.049C126.037 210.613 122.718 210.004 119.557 208.961C113.403 206.935 107.93 203.291 102.542 199.692C100.307 198.199 98.0614 196.696 96.1296 194.829C92.2411 191.071 89.851 186.065 87.5414 181.176L84.5422 174.824C83.4425 172.496 82.3408 170.162 81.4982 167.729C80.5285 164.93 79.9102 162.023 79.2948 159.125L77.8164 152.17" fill="#FDB777"/>
<path d="M155.582 136.19C152.114 138.876 150.972 143.578 150.564 147.945C150.157 152.312 150.233 156.872 148.354 160.835C145.211 167.466 137.636 170.536 130.711 172.962C127.497 174.089 124.104 175.219 120.744 174.649C118.164 174.211 115.865 172.81 113.639 171.435L108.667 168.368C107.162 167.439 105.635 166.493 104.438 165.19C103.041 163.67 102.169 161.751 101.322 159.867C100.101 157.155 95.6226 153.121 95.1447 150.185C94.6703 147.268 96.4819 146.46 96.5748 143.063C96.6446 140.563 96.3764 137.115 96.2255 134.619C95.9642 130.341 93.4449 120.11 95.4702 113.211C97.6567 116.156 99.6711 119.224 101.504 122.401C102.507 124.14 103.46 125.92 104.717 127.487C106.254 129.405 108.2 130.949 110.128 132.476L121.181 141.233C122.415 142.211 123.661 143.195 125.08 143.875C127.062 144.824 129.289 145.132 131.483 145.266C140.579 145.817 150.641 142.899 155.49 135.182" fill="#FDB777"/>
<g style="mix-blend-mode:multiply" opacity="0.6">
<path d="M95.9932 106.015L97.125 126.395C97.2647 128.975 97.4219 131.602 98.402 134.023C100.972 140.372 108.439 143.793 112.782 149.271C116.042 153.383 117.393 158.461 119.167 163.278C121.233 168.897 124.031 174.423 128.5 178.71C132.968 182.998 139.328 185.919 145.774 185.444C148.891 185.215 151.889 184.218 154.689 182.941C156.047 182.322 157.406 181.605 158.336 180.507C159.675 178.925 159.926 176.81 160.125 174.815C160.498 171.099 160.832 167.168 159.062 163.806C158.05 161.882 156.407 160.286 155.355 158.382C153.818 155.609 153.627 152.341 154.176 149.274C154.726 146.206 159.846 138.052 161.081 135.158C152.624 134.52 140.175 139.839 131.903 138.111C123.63 136.383 115.438 132.5 111.075 125.829C109.09 122.793 107.986 119.326 105.975 116.303C104.519 114.112 102.594 112.164 101.519 109.795C100.302 107.112 99.6191 104.668 96.9712 103.07L95.9932 106.015Z" fill="#D177B8" fill-opacity="0.8"/>
</g>
<path d="M74.2254 142.911C69.3779 146.297 64.2472 149.258 58.8904 151.761C55.7012 153.251 52.4197 154.586 49.4589 156.491C46.2746 158.541 43.5345 161.207 40.4634 163.423C36.232 166.472 31.4279 168.635 26.3398 169.781C28.7662 171.91 32.3243 172.127 35.5268 171.726C38.1858 171.393 47.4245 170.671 50.4817 170.436C50.7465 170.416 51.0091 170.497 51.2157 170.664C51.4223 170.831 51.5571 171.071 51.5925 171.334C51.7323 172.354 51.9921 174.079 52.4155 176.048C52.6021 176.916 52.5867 177.865 53.0708 178.608C53.5068 179.277 54.2634 179.649 54.9376 180.075C59.5583 183.004 60.9374 189.175 64.8651 192.983C67.0944 195.144 70.014 196.417 72.8651 197.646L97.5526 208.287C101.707 210.078 105.874 211.873 110.215 213.147C115.036 214.562 120.025 215.319 124.995 216.071C131.162 217.005 133.397 216.514 139.563 217.449C135.74 214.298 122.225 205.878 117.805 203.641C104.702 197.008 104.919 200.052 93.8792 187.455C92.322 185.678 90.4664 184.092 89.5414 181.917C88.9511 180.53 88.6982 179.021 88.1595 177.612C87.0515 174.719 84.8124 172.422 83.2286 169.76C78.4395 161.71 80.1127 151.482 77.8491 142.39L75.8629 141.688L74.2254 142.911Z" fill="#185732"/>
<path d="M175.71 134.541C181.419 134.296 198.11 143.3 200.652 144.023L220.416 149.645C212.803 149.914 205.252 151.12 197.934 153.235L199.302 153.477C201.371 155.909 200.334 159.036 198.653 161.345C196.627 164.129 193.223 167.38 191.038 170.045C184.206 178.387 176.339 186.28 167.983 193.099C158.09 201.174 148.752 208.158 139.828 217.292C142.101 213.819 144.535 209.258 146.124 204.408C149.169 195.111 152.412 192.5 154.334 187.771C157.638 179.635 161.031 175.101 164.465 167.022C167.898 158.943 170.535 150.328 170.341 141.55C170.321 140.685 170.258 139.769 169.767 139.057C169.422 138.555 168.9 138.209 168.39 137.874L162.569 134.055L175.71 134.541Z" fill="#185732"/>
<path d="M31.825 255.036C31.1963 251.487 30.8281 247.91 30.9748 244.134C30.9748 244.134 31.0447 243.095 28.6386 244.401C27.2413 245.157 23.3346 248.999 19.9371 253.351C19.5012 253.91 19.0697 254.471 18.6426 255.036H31.825Z" fill="#185732"/>
<path d="M137.165 228.411C138.793 232.408 139.68 236.661 140.562 240.885L143.513 255.042H154.871C153.78 248.778 152.5 242.54 150.728 236.488C149.381 231.886 147.92 227.258 145.02 223.439C144.141 222.283 141.14 218.339 139.565 217.457C139.565 217.457 137.208 216.758 134.662 216.581C132.775 216.449 130.828 216.75 129.412 216.591V216.7C132.987 220.145 135.292 223.813 137.165 228.411Z" fill="#185732"/>
<path d="M218.296 255.037C218.36 249.655 218.425 244.273 218.49 238.891C217.472 241.631 215.258 244.983 212.511 243.984L213.307 255.037H218.296Z" fill="#185732"/>
<path d="M96.8954 103.063C95.867 108.504 96.4538 113.822 98.4498 118.987C100.001 123.004 99.2973 121.852 101.524 124.895C103.022 126.942 107.894 132.719 109.746 134.456C111.651 136.239 113.309 137.492 115.335 139.145C117.61 141.007 120.274 142.877 122.58 144.068C125.285 145.465 127.59 146.346 130.641 146.825C135.182 147.537 140.387 147.811 144.288 145.384C146.601 143.945 148.27 142.569 150.404 140.654C155.276 136.286 159.347 131.261 162.964 125.811C165.223 122.41 167.447 119.372 169.225 115.697C170.657 112.734 172.282 109.049 172.778 105.72C173.927 97.9375 174.644 90.0971 174.925 82.235C174.983 80.6575 175.47 79.4601 175.442 77.7198C175.422 76.4867 175.078 75.0364 175.078 73.8075C175.078 71.2603 175.035 68.7182 174.948 66.1812C174.883 64.2397 173.952 59.1132 173.24 57.3086C172.372 55.1051 170.569 52.9771 168.842 51.3556C167.241 49.8507 164.403 47.7101 162.801 47.2777C159.131 46.287 158.56 47.2896 153.096 45.659C146.045 43.554 143.187 46.1249 135.944 47.4209C131.941 48.1377 127.63 49.0187 124.906 52.0368C120.898 56.4745 121.273 63.3504 119.985 69.1888C119.228 72.6163 118.342 75.7678 116.562 78.7915C111.243 87.8099 104.618 95.9911 96.9024 103.069" fill="#FDB777"/>
<path d="M150.979 90.5938C150.979 90.5938 153.06 93.1619 158.641 94.3664C164.222 95.5708 166.902 92.4102 166.902 92.4102L166.385 91.6061C166.385 91.6061 159.21 94.6381 150.979 90.5938Z" fill="#DD6B7C"/>
<path d="M149.375 88.2278C149.785 87.3985 154.649 81.0885 161.007 82.1218C167.366 83.1551 167.251 90.1351 166.387 91.605C165.523 93.0749 161.78 95.5753 155.907 93.4375C151.099 91.6895 149.114 88.756 149.375 88.2278Z" fill="url(#paint0_linear_1409_7739)"/>
<path d="M158.321 92.5145C161.045 92.5145 163.254 90.3059 163.254 87.5815C163.254 84.857 161.045 82.6484 158.321 82.6484C155.596 82.6484 153.388 84.857 153.388 87.5815C153.388 90.3059 155.596 92.5145 158.321 92.5145Z" fill="url(#paint1_linear_1409_7739)"/>
<path d="M161.604 90.8623C163.418 89.0485 163.418 86.1078 161.604 84.294C159.791 82.4802 156.85 82.4802 155.036 84.294C153.222 86.1078 153.222 89.0485 155.036 90.8623C156.85 92.6761 159.791 92.6761 161.604 90.8623Z" fill="url(#paint2_linear_1409_7739)"/>
<path style="mix-blend-mode:multiply" d="M161.024 88.907C160.761 89.4416 160.345 89.8862 159.829 90.1844C159.313 90.4826 158.72 90.6212 158.125 90.5825C157.531 90.5439 156.961 90.3298 156.488 89.9672C156.015 89.6047 155.66 89.1101 155.468 88.5459C155.276 87.9817 155.256 87.3732 155.41 86.7975C155.564 86.2218 155.885 85.7046 156.333 85.3114C156.781 84.9182 157.335 84.6667 157.926 84.5885C158.516 84.5104 159.117 84.6092 159.652 84.8724C160.007 85.0472 160.324 85.2902 160.585 85.5876C160.846 85.885 161.046 86.2309 161.174 86.6055C161.301 86.9802 161.353 87.3762 161.328 87.7711C161.302 88.166 161.199 88.552 161.024 88.907Z" fill="url(#paint3_linear_1409_7739)"/>
<path d="M149.376 88.2278C149.376 88.2278 155.13 82.0798 162.103 84.5467C167.939 86.6104 166.76 90.8455 166.76 90.8455C166.76 90.8455 168.449 84.8045 163.332 82.0567C158.214 79.309 151.413 84.5418 149.376 88.2278Z" fill="#BA4C6A"/>
<path d="M149.974 87.7344C149.974 87.7344 149.712 88.9556 150.296 89.919C150.296 89.919 149.159 88.8445 149.374 88.2248L149.974 87.7344Z" fill="#DD6B7C"/>
<path d="M162.144 88.3409C161.76 88.4464 162.973 89.115 164.077 89.2072C165.066 89.2896 165.729 88.9536 165.696 88.8209C165.663 88.6881 163.661 87.9266 162.144 88.3409Z" fill="white"/>
<path d="M161.321 88.2331C161.029 87.9403 160.528 87.9201 160.42 88.0989C160.312 88.2778 160.63 88.7277 160.874 88.748C161.119 88.7682 161.484 88.3965 161.321 88.2331Z" fill="white"/>
<g style="mix-blend-mode:multiply" opacity="0.6">
<path d="M149.975 87.7331C149.975 87.7331 159.398 81.5236 166.91 89.6319C166.91 89.6319 167.096 85.9683 161.5 84.3342C155.904 82.7001 149.975 87.7331 149.975 87.7331Z" fill="#D177B8"/>
</g>
<path d="M149.376 88.2295C149.376 88.2295 155.72 82.5364 161.765 84.8761C166.679 86.7777 166.912 89.6372 166.912 89.6372L170.295 88.6256L168.968 87.9731C168.968 87.9731 166.267 83.9532 161.632 83.2615C156.332 82.47 150.534 86.7142 149.376 88.2295Z" fill="#4E1B3D"/>
<path d="M130.09 87.3205C130.09 87.3205 127.429 89.2829 121.724 89.044C116.02 88.8051 114.222 85.0695 114.222 85.0695L114.925 84.4219C114.925 84.4219 121.105 89.1642 130.09 87.3205Z" fill="#DD6B7C"/>
<path d="M132.237 85.4362C132.049 84.5279 128.929 77.1993 122.516 76.5999C116.102 76.0005 114.457 82.7849 114.925 84.4245C115.393 86.0642 118.385 89.426 124.609 88.835C129.698 88.3529 132.357 86.0132 132.237 85.4362Z" fill="url(#paint4_linear_1409_7739)"/>
<path d="M123.743 87.4911C126.467 87.4911 128.676 85.2825 128.676 82.558C128.676 79.8336 126.467 77.625 123.743 77.625C121.018 77.625 118.81 79.8336 118.81 82.558C118.81 85.2825 121.018 87.4911 123.743 87.4911Z" fill="url(#paint5_linear_1409_7739)"/>
<path d="M124.677 87.114C127.189 86.5965 128.806 84.1403 128.289 81.6279C127.771 79.1156 125.315 77.4985 122.803 78.016C120.291 78.5336 118.673 80.9898 119.191 83.5021C119.709 86.0144 122.165 87.6315 124.677 87.114Z" fill="url(#paint6_linear_1409_7739)"/>
<path style="mix-blend-mode:multiply" d="M120.792 83.1684C120.913 83.752 121.203 84.2869 121.628 84.7054C122.052 85.1239 122.591 85.4071 123.176 85.5193C123.761 85.6316 124.367 85.5677 124.916 85.3359C125.465 85.104 125.933 84.7146 126.26 84.2169C126.588 83.7191 126.761 83.1353 126.757 82.5394C126.753 81.9435 126.572 81.3622 126.237 80.8689C125.903 80.3757 125.43 79.9927 124.878 79.7684C124.326 79.5441 123.719 79.4886 123.136 79.6088C122.353 79.7703 121.666 80.2359 121.227 80.9034C120.788 81.5709 120.631 82.3856 120.792 83.1684V83.1684Z" fill="url(#paint7_linear_1409_7739)"/>
<path d="M132.237 85.4376C132.237 85.4376 128.215 78.0413 120.849 78.6728C114.682 79.2017 114.758 83.5975 114.758 83.5975C114.758 83.5975 114.642 77.3259 120.287 75.9537C125.932 74.5816 131.193 81.3611 132.237 85.4376Z" fill="#BA4C6A"/>
<path d="M131.78 84.8125C131.78 84.8125 131.727 86.0603 130.919 86.8462C130.919 86.8462 132.29 86.0924 132.237 85.4385L131.78 84.8125Z" fill="#DD6B7C"/>
<path d="M119.907 82.3256C120.252 82.5247 118.91 82.8663 117.818 82.6749C116.84 82.5058 116.281 82.014 116.351 81.8938C116.42 81.7736 118.544 81.5396 119.907 82.3256Z" fill="white"/>
<path d="M120.73 82.4192C121.087 82.2096 121.577 82.3151 121.638 82.5156C121.7 82.7161 121.274 83.0696 121.035 83.0298C120.796 82.99 120.531 82.5359 120.73 82.4192Z" fill="white"/>
<g style="mix-blend-mode:multiply" opacity="0.6">
<path d="M131.781 84.8099C131.781 84.8099 124.222 76.4263 114.912 82.387C114.912 82.387 115.654 78.7946 121.479 78.6207C127.304 78.4467 131.781 84.8099 131.781 84.8099Z" fill="#D177B8"/>
</g>
<path d="M132.237 85.4372C132.237 85.4372 127.53 78.3307 121.09 79.0748C115.856 79.6791 114.912 82.3884 114.912 82.3884L111.892 80.558L113.338 80.2597C113.338 80.2597 116.963 77.046 121.621 77.5448C126.951 78.1121 131.499 83.6795 132.237 85.4372Z" fill="#4E1B3D"/>
<path d="M122.428 120.961C123.796 121.59 125.827 122.079 127.311 122.327C129.961 122.767 130.804 122.979 133.356 123.313C134.839 123.506 137.813 123.936 139.224 123.958C139.923 123.969 140.872 124.104 141.574 124.105C144.102 124.112 146.565 124.215 149.074 123.632C148.434 123.987 148.026 124.657 147.752 125.334C147.479 126.012 147.291 126.732 146.938 127.373C146.139 128.822 144.548 129.699 142.926 130.028C141.304 130.357 139.628 130.21 137.98 130.062L134.836 129.783C134.111 129.718 132.816 129.24 132.101 129.105C131.574 129.005 130.536 128.584 130.058 128.336C129.031 127.809 128.172 127.084 127.264 126.057C126.509 125.201 126.4 124.59 125.667 123.693C125.45 123.427 124.749 122.575 124.379 122.358C123.814 122.024 122.799 121.902 122.751 121.247L122.428 120.961Z" fill="#FF5663"/>
<path d="M119.716 121.263C120.407 120.139 122.733 119.307 124.053 119.326C125.373 119.344 126.672 119.694 127.992 119.694C129.826 119.694 131.663 119.017 133.465 119.365C134.344 119.534 135.157 119.939 136.008 120.217C136.984 120.535 138.007 120.686 139.033 120.663C140.267 120.633 141.504 120.353 142.728 120.517C144.883 120.808 146.649 122.423 148.771 122.9C149.506 123.065 150.417 123.197 150.683 123.902C149.311 123.424 147.818 123.907 146.385 124.149C144.545 124.46 142.662 124.359 140.801 124.211C137.657 123.955 134.526 123.552 131.4 123.125C129.832 122.911 128.264 122.691 126.711 122.388C125.929 122.235 125.15 122.061 124.401 121.79C123.989 121.64 123.586 121.461 123.164 121.343C122.051 121.028 120.867 121.144 119.716 121.263Z" fill="#DC3B63"/>
<g style="mix-blend-mode:multiply" opacity="0.6">
<path d="M132.224 111.743C133.388 111.697 133.838 111.527 135.003 111.529C136.168 111.532 137.535 111.974 138.18 112.525C138.536 112.828 138.767 113.258 139.12 113.564C140.094 114.403 141.623 114.333 142.737 113.689C143.169 113.438 143.559 113.112 144.017 112.915C144.476 112.717 145.045 112.669 145.447 112.966C145.646 113.114 145.783 113.33 145.966 113.497C146.647 114.122 147.801 113.894 148.477 113.263C149.324 112.473 149.607 111.189 149.34 110.062C149.072 108.935 148.315 107.966 147.387 107.274C147.325 107.228 147.247 107.181 147.177 107.209C147.107 107.237 147.078 107.345 147.065 107.43C146.917 108.36 146.05 109.35 145.209 109.772C143.73 110.516 141.989 110.835 140.403 110.358C138.997 109.934 137.948 108.602 136.495 108.39C135.908 108.305 135.238 108.46 134.905 108.949C134.779 109.137 134.713 109.359 134.583 109.542C134.345 109.881 133.934 110.043 133.546 110.187C132.784 110.471 131.848 110.73 131.224 110.209C130.782 109.84 130.678 109.213 130.602 108.643C130.433 107.357 130.312 105.9 131.151 104.913C131.747 104.215 132.075 103.367 132.976 103.192C132.076 103.068 131.675 103.541 130.967 104.108C130.703 104.318 130.51 104.609 130.343 104.905C129.651 106.125 129.333 107.58 129.596 108.957C129.858 110.334 130.251 111.204 130.882 111.523C130.995 111.584 131.377 111.777 132.224 111.743Z" fill="#D177B8"/>
</g>
<path d="M136.527 111.804C136.312 111.582 135.955 111.568 135.649 111.515C134.7 111.35 133.729 111.349 132.779 111.512C132.712 111.524 132.631 111.552 132.627 111.619C132.628 111.65 132.639 111.68 132.659 111.705C132.796 111.912 132.983 112.081 133.201 112.199C133.606 112.416 134.084 112.438 134.542 112.44C135.155 112.44 135.784 112.412 136.346 112.168C136.457 112.12 136.614 112.05 136.599 111.93C136.585 111.883 136.561 111.84 136.527 111.804V111.804Z" fill="black"/>
<path d="M145.683 113.175C145.683 112.959 145.444 112.83 145.236 112.772C144.645 112.61 144.019 112.631 143.44 112.831C143.301 112.871 143.174 112.945 143.07 113.047C143.02 113.099 142.987 113.165 142.974 113.236C142.962 113.308 142.971 113.381 143.001 113.447C143.087 113.604 143.295 113.636 143.474 113.65L144.413 113.72C144.677 113.74 144.953 113.802 145.203 113.72C145.747 113.536 145.683 113.175 145.683 113.175Z" fill="black"/>
<path d="M151.828 81.0273C153.816 81.2558 155.205 81.4325 157.193 81.661C158.514 81.8126 159.225 81.8266 160.555 81.8126C165.041 81.7644 165.872 80.1359 170.356 79.9962C170.692 79.9857 173.984 79.9186 174.293 79.7866C175.334 79.3415 175.742 77.6013 174.868 76.8803C173.995 76.1593 172.694 76.466 171.562 76.4995C167.123 76.6323 163.649 77.6173 159.25 78.2258C156.192 78.6513 154.025 78.9748 153.446 79.2738L151.828 81.0273Z" fill="#A63344"/>
<path d="M115.332 74.8406C118.888 74.7644 123.37 76.474 126.65 77.8447C129.562 79.0624 132.549 79.4103 135.6 80.2201C135.6 78.9891 135.515 78.6502 135.311 77.6924C132.936 76.6745 130.172 75.4428 127.766 74.471C124.163 73.0144 121.017 71.9469 117.152 71.7562C116.773 71.7373 116.389 71.7268 116.016 71.7974C114.857 72.0174 115.332 74.8406 115.332 74.8406Z" fill="#A63344"/>
<path d="M92.1926 150.153C92.2065 152.516 92.7011 154.79 93.5842 156.98C94.498 159.246 95.7381 161.363 97.0494 163.418C98.4844 165.666 99.9837 167.875 101.451 170.099C102.963 172.382 104.481 174.661 106.055 176.901C108.882 180.925 111.841 184.892 115.197 188.492C118.217 191.731 121.601 194.7 125.492 196.852C127.399 197.918 129.428 198.747 131.536 199.321C131.798 199.391 132.061 199.457 132.325 199.518C132.457 199.549 132.59 199.578 132.723 199.607C132.901 199.645 132.978 199.574 133.129 199.48C133.587 199.196 134.043 198.909 134.495 198.614C135.432 198.014 136.329 197.352 137.179 196.634C137.977 195.945 138.716 195.18 139.319 194.313C140.009 193.32 140.425 192.23 140.796 191.087C141.166 189.906 141.695 188.78 142.368 187.741C143.044 186.706 143.77 185.71 144.343 184.611C146.549 180.394 146.985 175.555 147.881 170.955C148.37 168.445 149.095 166.013 149.873 163.579C150.684 161.042 151.45 158.5 151.853 155.861C152.057 154.524 152.193 153.178 152.294 151.83C152.392 150.541 152.416 149.245 152.527 147.955C152.571 147.447 152.737 146.949 152.907 146.472C153.145 145.803 153.423 145.15 153.708 144.501C154.369 142.991 155.079 141.503 155.7 139.976C156.189 138.776 156.73 137.475 156.773 136.162C156.793 135.552 156.885 134.799 156.649 134.211C156.703 134.346 156.643 134.64 156.643 134.788C156.643 134.95 156.588 135.213 156.649 135.366C156.72 135.565 156.761 135.773 156.77 135.985C156.63 134.292 156.791 134.836 156.77 135.139C156.766 135.18 156.765 135.22 156.761 135.261C156.756 135.327 156.748 135.392 156.74 135.457C156.722 135.597 156.698 135.737 156.67 135.876C156.528 136.535 156.336 137.182 156.095 137.812C155.54 139.328 154.854 140.793 154.192 142.265C153.633 143.504 153.024 144.76 152.669 146.076C152.471 146.809 152.489 147.573 152.447 148.327C152.371 149.692 152.282 151.057 152.143 152.418C151.875 155.019 151.359 157.589 150.603 160.092C149.857 162.578 148.977 165.025 148.367 167.551C147.274 172.075 146.985 176.806 145.347 181.192C144.949 182.272 144.455 183.314 143.87 184.306C143.258 185.332 142.523 186.278 141.918 187.31C141.273 188.405 140.932 189.589 140.515 190.78C140.155 191.825 139.622 192.802 138.939 193.67C137.606 195.354 135.822 196.616 134.027 197.762C133.818 197.898 133.6 198.032 133.387 198.166L133.045 198.376C132.895 198.468 132.843 198.475 132.675 198.439C132.145 198.324 131.62 198.192 131.099 198.042C130.066 197.744 129.052 197.381 128.065 196.956C124.066 195.241 120.537 192.589 117.414 189.588C114.089 186.392 111.196 182.779 108.458 179.077C105.276 174.776 102.35 170.297 99.3982 165.838C96.7434 161.828 93.8204 157.734 92.6627 152.992C92.391 151.874 92.2093 150.717 92.2023 149.569C92.2023 149.547 92.2079 149.143 92.1946 149.359C92.1786 149.621 92.1946 149.888 92.1946 150.15L92.1926 150.153Z" fill="white"/>
<path d="M132.866 199.177C131.949 199.486 131.705 200.513 131.95 201.449C132.195 202.385 133.114 203.071 134.079 203.141C135.044 203.211 136.007 202.716 136.601 201.953C136.87 201.604 137.189 200.659 136.264 200.061C133.89 198.524 132.866 199.177 132.866 199.177Z" fill="#781ED3"/>
<path d="M132.866 198.894C132.351 199.072 132.017 199.505 131.906 200.031C131.88 200.158 131.865 200.287 131.861 200.417C131.852 200.665 131.851 200.915 131.861 201.162C131.869 201.442 131.926 201.719 132.027 201.98C132.258 202.525 132.684 202.963 133.223 203.209C133.787 203.468 134.427 203.511 135.02 203.331C135.642 203.144 136.191 202.769 136.591 202.258C136.918 201.839 136.899 201.295 136.879 200.791C136.872 200.556 136.794 200.328 136.656 200.138C136.457 199.866 136.152 199.7 135.867 199.533C135.362 199.239 134.823 198.984 134.253 198.847C133.937 198.764 133.609 198.738 133.284 198.772C133.191 198.783 133.1 198.803 133.012 198.831C132.966 198.841 132.921 198.86 132.881 198.885C132.876 198.888 132.871 198.891 132.865 198.894C132.863 198.922 132.863 198.95 132.865 198.979C132.865 199.048 132.865 199.115 132.865 199.183C132.865 199.25 132.865 199.322 132.865 199.387C132.868 199.415 132.868 199.444 132.865 199.472C132.94 199.429 133.021 199.399 133.106 199.382C133.349 199.329 133.599 199.318 133.846 199.352C134.294 199.413 134.731 199.542 135.14 199.735C135.437 199.87 135.726 200.023 136.005 200.193C136.265 200.351 136.525 200.511 136.694 200.77C136.758 200.869 136.807 200.978 136.838 201.092C136.852 201.142 136.862 201.193 136.869 201.244C136.869 201.273 136.875 201.301 136.877 201.329C136.891 201.534 136.895 200.673 136.877 200.934C136.861 201.124 136.808 201.308 136.721 201.478C136.613 201.672 136.474 201.847 136.309 201.996C136.088 202.21 135.838 202.391 135.566 202.533C135.036 202.82 134.427 202.923 133.832 202.827C133.277 202.724 132.774 202.436 132.403 202.011C132.22 201.802 132.08 201.56 131.99 201.297C131.948 201.169 131.916 201.038 131.896 200.905C131.885 200.842 131.877 200.778 131.872 200.714C131.868 200.678 131.867 200.644 131.864 200.606C131.854 200.431 131.859 201.059 131.864 200.975C131.864 200.951 131.864 200.928 131.864 200.905C131.896 200.416 132.102 199.921 132.521 199.639C132.628 199.569 132.743 199.513 132.865 199.472C132.881 199.466 132.865 199.209 132.865 199.183C132.858 199.086 132.859 198.99 132.866 198.894V198.894Z" fill="white"/>
<path d="M189.523 130.222C191.13 129.32 193.098 129.454 194.943 129.541C196.788 129.627 198.803 129.571 200.234 128.402C197.318 127.536 198.274 126.516 197.294 125.572C202.093 123.485 201.017 120.625 207.005 121.809C204.638 120.107 202.784 115.885 200.315 116.07C198.394 116.215 196.413 116.35 194.583 115.751C192.753 115.152 191.09 113.615 190.943 111.693C190.66 107.937 195.708 105.987 196.832 102.392C197.494 100.277 196.703 97.8059 197.779 95.8693C199.19 93.3277 203.196 92.8603 204.091 90.0945C204.761 88.0251 204.077 83.3527 202.676 81.6892C201.724 80.5582 199.961 82.0106 199.008 80.8795C198.574 80.3632 198.123 79.8316 197.526 79.5214C196.682 79.0806 195.679 79.1323 194.737 78.9981C189.695 78.2813 187.087 72.343 187.226 67.2521C187.366 62.1611 189.263 57.1967 189.039 52.1079C188.773 46.0298 184.783 40.9668 181.935 35.5922C179.35 30.7165 175.093 26.378 172.745 20.7666C171.594 18.0161 170.031 14.6508 168.189 12.3055C166.066 9.60039 162.705 8.09275 159.313 7.52616C155.921 6.95957 152.451 7.23623 149.024 7.51498L141.675 4.80919C122.266 0.276477 102.304 11.0661 89.5775 26.4052C76.8506 41.7444 70.9353 61.626 67.73 81.298C67.475 82.8643 67.1969 84.5194 66.172 85.7308C65.1297 86.9632 63.462 87.5473 62.4616 88.8132C59.2744 92.8464 65.2491 98.2447 64.9389 103.373C64.6811 107.648 60.2721 110.249 56.4576 112.196C52.643 114.142 48.3388 117.106 48.5665 121.382C48.7105 124.083 50.682 126.272 52.0597 128.597C53.4374 130.922 54.1018 134.288 52.0513 136.052C51.4742 136.548 50.7463 136.846 50.1713 137.346C48.285 138.988 49.1932 142.683 51.63 143.259C49.5928 143.99 47.4075 142.937 45.2983 142.453C43.1892 141.968 40.3192 142.585 40.0034 144.725C39.8015 146.092 40.7908 147.316 41.196 148.638C42.3341 152.347 45.9886 159.746 42.5674 161.581C39.1462 163.416 46.8877 163.324 52.0359 155.022C51.3639 160.901 49.7668 165.827 47.367 171.236C51.3722 171.166 55.2336 168.632 56.8893 164.983C58.661 161.078 57.115 159.115 56.0118 162.619C54.572 167.188 56.6329 172.28 59.9675 175.719C63.302 179.157 67.7314 181.279 72.0608 183.334C70.4539 178.524 71.6975 172.874 75.1809 169.188C74.2657 171.913 74.6219 175.036 76.1289 177.484C80.6117 172.171 86.6298 168.376 93.3564 166.62C90.0748 167.401 87.0286 168.959 84.474 171.161C82.9804 172.452 81.5698 174.349 82.135 176.24C82.8581 178.663 86.0886 179.105 88.6001 178.815C96.2564 177.934 104.697 172.93 104.763 165.223C104.863 153.592 86.6684 148.061 87.1135 136.439C87.4837 126.729 100.468 122.441 103.741 113.294C106.116 106.661 103.206 99.4254 106.685 93.2991C108.222 90.5919 110.532 87.9553 112.593 85.6218C121.498 75.5406 118.24 60.0918 128.675 51.6034C134.519 46.8528 143.446 46.9729 150.977 46.7913C158.453 46.611 163.247 49.0269 168.837 53.9935C171.196 56.0893 174.037 59.8221 174.486 63.0889C175.477 70.3044 174.799 83.0781 174.458 84.6878C173.48 89.3092 173.125 93.8279 172.664 99.6385C171.646 112.458 162.523 126.082 154.768 136.342C151.54 140.613 150.899 141.689 150.512 147.031C149.827 156.489 157.977 163.994 165.47 169.807C171.168 174.226 177.906 178.83 184.975 177.417C180.541 172.704 175.217 168.916 169.311 166.272C173.587 167.175 178.007 168.08 182.291 167.213C186.574 166.347 190.718 163.231 191.364 158.907C191.686 156.751 191.144 154.436 192.035 152.447C192.536 151.329 193.437 150.45 194.131 149.442C197.554 144.44 194.113 136.372 188.13 135.385C188.13 135.371 187.91 131.125 189.523 130.222Z" fill="#FC9301"/>
<defs>
<linearGradient id="paint0_linear_1409_7739" x1="156.044" y1="93.64" x2="161.725" y2="82.1035" gradientUnits="userSpaceOnUse">
<stop stop-color="#EEE2FF"/>
<stop offset="1" stop-color="#BDC9FB"/>
</linearGradient>
<linearGradient id="paint1_linear_1409_7739" x1="156.132" y1="92.0164" x2="160.491" y2="83.1662" gradientUnits="userSpaceOnUse">
<stop stop-color="#3780A9"/>
<stop offset="1" stop-color="#153364"/>
</linearGradient>
<linearGradient id="paint2_linear_1409_7739" x1="156.259" y1="91.7546" x2="160.363" y2="83.422" gradientUnits="userSpaceOnUse">
<stop stop-color="#4997FE"/>
<stop offset="0.96" stop-color="#021F40"/>
<stop offset="1" stop-color="#152C39"/>
</linearGradient>
<linearGradient id="paint3_linear_1409_7739" x1="156.98" y1="90.2894" x2="159.643" y2="84.8825" gradientUnits="userSpaceOnUse">
<stop stop-color="#A7DBAE"/>
<stop offset="0.99" stop-color="#724A60"/>
</linearGradient>
<linearGradient id="paint4_linear_1409_7739" x1="124.226" y1="89.0714" x2="121.654" y2="76.4682" gradientUnits="userSpaceOnUse">
<stop stop-color="#EEE2FF"/>
<stop offset="1" stop-color="#BDC9FB"/>
</linearGradient>
<linearGradient id="paint5_linear_1409_7739" x1="124.553" y1="87.4766" x2="122.58" y2="77.8078" gradientUnits="userSpaceOnUse">
<stop stop-color="#3780A9"/>
<stop offset="1" stop-color="#153364"/>
</linearGradient>
<linearGradient id="paint6_linear_1409_7739" x1="124.677" y1="87.114" x2="122.803" y2="78.0167" gradientUnits="userSpaceOnUse">
<stop stop-color="#4997FE"/>
<stop offset="0.96" stop-color="#021F40"/>
<stop offset="1" stop-color="#152C39"/>
</linearGradient>
<linearGradient id="paint7_linear_1409_7739" x1="124.17" y1="85.5976" x2="122.964" y2="79.6911" gradientUnits="userSpaceOnUse">
<stop stop-color="#A7DBAE"/>
<stop offset="0.99" stop-color="#724A60"/>
</linearGradient>
</defs>
</svg>
