<svg width="291" height="290" viewBox="0 0 291 290" fill="none" xmlns="http://www.w3.org/2000/svg">
<g filter="url(#filter0_b_1170_2392)">
<rect x="0.5" width="290" height="290" rx="60" fill="#00007E"/>
</g>
<mask id="mask0_1170_2392" style="mask-type:alpha" maskUnits="userSpaceOnUse" x="21" y="20" width="250" height="250">
<rect x="21" y="20" width="250" height="250" rx="60" fill="#C4C4C4"/>
</mask>
<g mask="url(#mask0_1170_2392)">
<path d="M77.7732 89.0814C77.7732 61.0648 87.4986 35.3205 103.757 15.0391H49.7309C54.9429 22.6448 57.7247 31.6529 57.709 40.8731C57.709 64.7853 39.3772 84.4113 16 86.4693V274.919H16.0036V121.911C21.2349 126.897 25.1705 152.191 31.3186 155.999C46.2583 165.259 60.2157 177.516 66.7349 193.837C73.7278 211.345 71.3586 231.323 77.1093 249.278C79.9515 258.152 84.7369 266.405 88.5065 274.922H275.884V176.781C254.847 195.899 226.903 207.547 196.24 207.547C130.812 207.547 77.7732 154.508 77.7732 89.0814Z" fill="#FA9101" fill-opacity="0.5"/>
<path d="M57.7129 40.8731C57.7276 31.6525 54.9445 22.6444 49.7313 15.0391L16.0039 15.0391V86.4693C39.3811 84.4113 57.7129 64.7853 57.7129 40.8731Z" fill="#FB2D33" fill-opacity="0.5"/>
<path d="M66.7317 193.832C60.2125 177.511 46.2551 165.252 31.319 155.994C25.1709 152.186 21.2352 126.896 16.0039 121.906V274.918H88.5026C84.7337 266.4 79.9482 258.147 77.1053 249.274C71.3554 231.319 73.7246 211.341 66.7317 193.832Z" fill="black" fill-opacity="0.5"/>
<path d="M247.234 133.506C181.806 133.506 128.765 80.4665 128.765 15.0391H103.758C87.4989 35.3205 77.7734 61.0648 77.7734 89.0814C77.7734 154.508 130.813 207.547 196.24 207.547C226.904 207.547 254.847 195.897 275.884 176.781V130.017C266.511 132.341 256.89 133.512 247.234 133.506Z" fill="#781ED1" fill-opacity="0.5"/>
<path d="M247.234 133.506C256.89 133.512 266.512 132.34 275.884 130.015V15.0391H128.766C128.766 80.4665 181.806 133.506 247.234 133.506Z" fill="#FB2D33" fill-opacity="0.5"/>
<path d="M276.003 275.041C275.196 273.445 274.665 270.97 274.191 268.718C273.336 264.658 274.27 262.357 273.185 258.36C272.691 256.544 270.905 257.868 270.068 255.745C268.688 252.261 268.158 245.221 267.519 242.189C267.035 239.898 267.376 238.001 266.355 235.893C265.685 234.507 263.968 232.821 263.159 231.512C256.77 221.178 255.092 213.115 247.499 199.803C246.194 199.682 243.736 200.342 242.496 199.916C239.653 198.939 237.813 195.507 234.954 194.486C229.532 192.549 223.075 192.976 217.627 190.961C213.628 189.483 210.675 186.657 206.679 185.184C203.534 184.024 199.342 184.212 196.208 183.078C192.047 181.573 187.899 180.106 183.766 178.679C183.77 173.016 181.202 167.405 176.928 163.691C177.099 163.406 176.876 163.007 176.65 162.734C169.083 153.649 155.933 151.329 144.166 152.486C132.398 153.644 122.622 156.445 110.841 157.461L109.725 157.746C105.557 161.444 104.383 167.091 104.472 172.662C93.3595 173.92 85.0088 179.988 73.2974 185.016C72.6428 185.296 67.4898 189.131 65.5537 189.239C63.1688 189.372 61.5063 189.891 59.3116 190.833C50.9681 194.415 42.3475 198.191 36.2806 204.946C28.6829 213.409 26.2325 225.302 25.6134 236.659C24.9135 249.57 26.1844 262.513 29.3824 275.041H276.003Z" fill="#FB2D33"/>
<path d="M187.511 192.173L187.436 192.266C187.261 188.856 186.809 185.453 186.357 182.065C185.899 178.628 185.422 175.125 183.923 172C182.397 168.822 177.5 163.541 177 164.041C177 164.041 177.619 177.346 176.775 183.785C176.385 186.761 175.323 187.385 174.934 190.36C174.82 191.225 173.405 193.269 173 194.041C172.654 194.701 172.63 195.513 172.103 196.041C170.322 197.827 168.338 201.699 166.553 203.486C162.67 207.375 160.414 210.129 157.325 214.675C154.236 219.22 151.982 224.482 151.794 229.975C151.713 232.429 152.043 234.88 152.77 237.226C152.555 234.905 152.473 232.574 152.525 230.245C152.576 227.914 152.797 225.472 154.065 223.517C155.963 220.586 159.655 219.491 163.04 218.638C166.425 217.785 170.119 216.757 172.103 213.884C173.177 212.328 173.637 210.36 174.958 209.009C175.803 208.145 177.047 207.41 177.103 206.214C177.252 206.299 177.91 206.486 178.086 206.451C178.891 206.287 179.81 205.573 179.997 205.445C181.394 204.492 182.678 203.685 183.583 202.881C183.655 202.819 184.086 202.445 184.494 201.703C184.616 202.688 185.287 203.24 185.026 204.164C184.844 204.808 184.612 205.441 184.492 206.1C184.293 207.187 183.859 207.942 184.584 208.779C184.756 208.978 187.341 206.043 187.705 203.869C188.085 201.591 187.771 194.586 187.511 192.173Z" fill="black"/>
<path d="M50.2434 196.947C54.3179 199.819 58.3513 202.748 62.3437 205.734C64.8967 207.644 67.4504 209.593 69.5774 211.968C71.8611 214.521 73.6013 217.509 75.1856 220.546C80.3514 230.452 84.012 241.074 87.1256 251.804C89.2548 259.141 91.1431 266.575 92.03 274.162C91.2001 263.202 86.8143 252.884 83.2897 242.474C82.7911 241.01 82.311 239.52 82.2276 237.976C82.1628 236.784 82.3395 235.593 82.3409 234.399C82.3516 227.429 76.5874 221.732 75.3074 214.881C74.9184 212.8 74.9555 210.657 74.59 208.571C73.6427 203.169 70.1195 198.628 66.7096 194.333C65.6161 192.955 64.3824 191.487 62.6607 191.122C61.4661 190.868 60.2338 191.193 59.057 191.523C55.5816 192.486 51.762 193.707 49.9648 196.833" fill="black"/>
<path d="M108.495 186.089C111.79 191.137 117.883 196.805 121.969 201.236L125.887 205.486C126.448 206.094 127.304 206.753 128.008 206.317C129.209 203.286 127.054 199.777 128.649 198.869C129.481 201.456 130.447 203.571 131.487 205.339C131.795 206.385 132.073 207.443 132.477 208.456C133.202 210.275 134.315 211.914 135.738 213.259C136.843 214.303 138.116 215.15 139.382 215.992L139.489 216.043C141.416 218.637 140.675 220.325 142.404 224.279C142.922 225.46 144.118 228.51 144.592 229.709C146.012 233.307 148.004 239.7 148.589 243.523L151.204 260.557C151.944 265.395 152.687 270.245 153.658 275.042H155.525C155.515 274.919 155.505 274.795 155.494 274.672C155.362 273.091 155.228 271.507 155.28 269.921C155.357 267.474 155.87 265.024 155.576 262.592C155.362 260.788 154.705 259.068 154.31 257.294C153.445 253.41 153.836 249.375 153.87 245.399C153.875 244.795 153.87 244.188 153.774 243.593C153.678 242.998 153.483 242.408 153.34 241.812C153.044 240.577 152.97 239.302 152.938 238.037C152.829 233.757 153.176 229.479 153.975 225.273C154.124 224.49 155.179 220.81 155.084 220.018C155.066 219.82 155.004 219.629 154.904 219.458C154.953 219.397 154.993 219.329 155.023 219.256C155.241 218.728 159.898 226.44 154.449 217.741C149 209.042 141.597 206.666 135.253 201.02C133.413 199.382 131.613 197.645 130.367 195.521C129.874 194.68 129.473 193.787 128.973 192.949C127.13 189.853 122.679 186.115 121.969 185.042C121.26 183.97 114.569 175.552 114 174.542C113.431 173.533 112.204 170.831 111.417 168.292C110.521 165.399 109.949 160.694 110 160.042C110.051 159.391 109.708 158.219 109.708 158.219C106.36 161.648 103.867 170.969 104.386 175.733C104.905 180.498 105.876 182.077 108.495 186.089Z" fill="black"/>
<path d="M157.615 226.207C158.596 233.045 161.056 239.684 162.711 246.437C164.999 255.769 165.757 265.43 165.511 275.043H174.161C173.076 270.84 171.655 266.625 171.244 262.344C170.967 259.45 171.155 256.528 170.888 253.633C170.584 250.304 169.686 247.061 168.792 243.839C166.393 235.192 163.995 226.545 161.597 217.898C159.081 217.887 156.881 220.016 156.298 222.463C155.716 224.911 156.512 227.528 157.902 229.623L157.615 226.207Z" fill="black"/>
<path d="M176.326 205.015C178.143 227.199 179.428 252.047 185.23 275.037H201.957C192.238 246.829 180.026 209.658 183.579 199.815C183.82 199.15 182.846 198.482 182.149 198.356C181.638 198.263 181.135 198.516 180.677 198.761L175.708 201.421C175.732 202.669 175.95 203.905 176.356 205.086L176.326 205.015Z" fill="black"/>
<path d="M205.34 215.897C206.132 218.331 207.675 220.492 208.273 222.981C208.96 225.836 211.089 240.14 212.022 243.662C214.791 254.119 215.333 264.72 216.47 275.042H230.142C230.616 272.62 230.982 270.183 230.979 267.721C230.97 259.262 226.669 251.485 224.374 243.343C222.792 237.734 222.153 231.878 220.328 226.344C218.666 221.298 216.054 216.63 213.683 211.876C209.454 203.405 205.951 194.591 203.212 185.529C202.927 184.582 202.55 183.518 201.64 183.13C201.187 182.937 200.676 182.953 200.184 182.971C196.822 183.099 198.033 185.157 194.672 185.285L194.571 186.592C197.01 189.953 200.988 201.015 202.013 206.604C202.568 209.596 204.403 213.004 205.34 215.897Z" fill="black"/>
<path d="M226.894 203.655C232.802 212.979 233.968 221.819 234.501 231.814C234.655 234.7 234.053 240.803 233.872 243.688C233.7 246.412 233.406 249.173 233.495 251.902C233.792 260.977 233.614 268.386 232.873 275.035H236.247C235.758 271.123 235.415 267.195 235.219 263.253C235 258.858 236.298 254.398 236.915 250.041C237.888 243.166 239.123 236.649 240.427 229.831C241.533 224.056 241.725 218.144 241.686 212.264C241.656 207.74 241.449 203.045 239.386 199.015C238.539 197.36 237.338 195.814 235.682 194.962C234.4 194.301 232.938 194.101 231.507 193.91L217.693 192.063L217.266 191.812C220.93 195.368 224.161 199.343 226.894 203.655Z" fill="black"/>
<path d="M245.943 214.667C247.304 215.094 247.787 216.749 247.933 218.166C248.339 222.108 247.785 226.247 249.283 229.915C249.726 231.001 250.341 232.017 250.694 233.136C251.677 236.246 250.552 239.851 252.038 242.752C252.483 243.623 253.146 244.687 252.554 245.466C252.322 245.772 251.949 245.928 251.625 246.133C250.333 246.952 249.806 248.608 249.821 250.138C249.836 251.667 250.287 253.156 250.504 254.67C251.145 259.163 249.734 263.904 251.182 268.205C251.558 269.319 252.12 270.374 252.381 271.522C252.639 272.688 252.579 273.901 252.208 275.036H264.745C262.951 272.957 262.529 269.794 263.721 267.319C263.994 266.749 264.347 266.209 264.479 265.594C264.604 265.015 264.524 264.414 264.444 263.827C263.79 259.04 263.135 254.253 262.481 249.467C262.276 247.962 262.077 246.385 262.61 244.963C263.1 243.656 264.192 242.291 263.573 241.04C262.071 240.332 261.324 238.651 260.782 237.081C258.417 230.218 257.565 222.767 254 216.445C254.565 214.097 253.453 211.445 251.383 210.202C249.872 209.296 248.362 209.181 248.111 207.436C247.923 206.129 249.139 204.076 247.977 203.447C247.388 203.13 246.371 203.732 245.999 204.285C245.626 204.838 245.663 206.369 245.597 207.034C245.316 209.878 244.372 210.471 244.092 213.315L243.929 214.112C244.214 214.931 245.117 214.409 245.943 214.667Z" fill="black"/>
<path d="M108.098 145.523C107.671 147.019 108.725 148.474 109.373 149.886C110.625 152.613 109.564 155.941 109.751 158.933C109.934 161.849 109.806 162.862 110.405 165.721C110.975 168.436 113.112 172.844 114.259 175.367C116.598 180.507 121.072 184.301 124.524 188.77C127.905 193.15 130.395 198.298 134.577 201.922C137.794 204.71 141.806 206.406 145.262 208.896C147.763 210.702 149.949 212.908 151.732 215.426C152.708 216.807 153.642 218.347 155.177 219.059C155.11 218.189 155.66 217.404 156.192 216.713C163.074 207.791 171.95 199.902 175.425 189.183C178.692 179.116 176.643 168.162 177.705 157.632C172.204 156.597 166.632 158.427 161.125 159.423C142.497 162.794 124.424 155.922 108.471 145.733L108.098 145.523Z" fill="#E28300"/>
<path d="M144.698 48.8154C134.206 48.9992 128.015 50.4203 120.06 57.2629C116.692 60.1593 113.453 64.5287 111.566 68.5469C110.221 71.4141 109.77 74.6017 109.334 77.7417L104.964 109.212C105.025 107.424 104.537 105.636 103.631 104.096C102.725 102.556 100.378 102.977 100.04 104.737C98.4507 112.994 98.6865 116.312 99.8461 124.641C99.9608 125.461 97.6842 129.669 100.279 132.106C101.424 133.182 105.977 133.246 106.484 133.641C107.299 134.27 106.722 136.835 106.684 137.864C106.603 140.16 107.228 141.871 108.093 143.999C109.475 147.402 108.929 151.811 110.01 155.321C111.357 159.701 117.548 164.639 118.25 165.671C121.769 170.849 132.085 172.35 136.699 173.951C140.308 175.204 144.208 175.257 148.025 175.262C152.37 175.268 160.507 173.593 164.509 171.906C170.543 169.361 170.828 165.214 174.436 159.748C179.524 152.039 184.728 144.047 186.343 134.953C187.881 135.479 189.609 134.495 190.467 133.115C191.326 131.734 191.522 130.056 191.698 128.44C192.301 122.902 192.904 117.364 193.507 111.827C193.692 110.123 194.779 109.816 194.178 106.444C193.693 103.717 189.467 106.045 188.242 107.243C188.443 104.025 187.614 102.133 187.538 99.6002C187.462 97.0672 188.292 94.0647 187.941 91.5552C187.686 89.743 187.436 85.4149 187.136 83.6105C186.762 81.3674 186.886 74.8126 185.929 72.7497C178.258 56.2044 168.33 46.1 149.827 49.1167L144.698 48.8154Z" fill="#E28300"/>
<path d="M127.733 142.305C132.822 143.45 138.073 141.023 143.275 141.406C143.954 141.456 144.64 141.554 145.31 141.438C145.98 141.322 146.047 140.896 146.399 140.834C146.819 140.879 146.94 141.336 147.313 141.403C149.572 141.812 152.392 141.443 154.847 142.05C155.574 142.23 156.271 142.527 157.002 142.691C158.771 143.082 160.627 142.663 162.416 142.93C162.766 142.982 163.122 143.06 163.471 143.001C163.82 142.942 164.168 142.697 164.219 142.346C162.919 141.594 161.179 142.027 159.883 141.27C159.314 140.936 158.886 140.405 158.455 139.904C156.864 138.067 154.876 136.466 152.522 135.86C150.169 135.254 148.349 135.807 146.789 137.671C146.606 137.891 146.404 138.25 145.94 138.191C145.766 138.169 145.049 137.381 144.921 137.257C144.543 136.892 143.543 136.327 142.293 135.949C140.985 135.554 138.585 135.985 137.35 136.573C136.116 137.161 135.017 137.992 133.834 138.676C132.017 139.727 131.755 141.108 128.106 141.279C127.839 141.292 127.599 141.522 127.5 141.771C127.401 142.02 127.586 142.304 127.73 142.311" fill="#DC3B63"/>
<path d="M128.811 142.398L131.857 143.467C132.681 143.757 133.509 144.048 134.274 144.469C134.832 144.775 135.351 145.148 135.907 145.458C137.223 146.192 138.71 146.559 140.186 146.867C141.034 147.043 141.896 147.203 142.757 147.182C143.478 147.163 144.189 147.019 144.906 146.946C146.454 146.786 148.018 146.957 149.554 147.202C150.129 147.294 150.705 147.395 151.286 147.391C152.528 147.382 153.708 146.892 154.852 146.406L163.136 142.899C161.173 142.138 159.01 142.136 156.933 141.786C156.053 141.639 155.186 141.43 154.319 141.217L148.869 139.892C148.123 139.711 147.373 139.529 146.603 139.516C145.754 139.503 144.917 139.697 144.075 139.795C142.748 139.949 141.405 139.862 140.075 139.973C136.235 140.291 132.62 142.23 128.767 142.209L128.811 142.398Z" fill="#FB2D33"/>
<path d="M139.32 128.282C138.13 128.873 137.082 128.742 135.859 128.224C135.248 127.96 134.699 127.569 134.25 127.077C133.801 126.585 133.463 126.003 133.256 125.369C133.184 125.173 133.153 124.965 133.165 124.757C133.192 124.553 133.272 124.359 133.397 124.196C133.864 123.555 134.702 123.317 135.476 123.135C136.711 122.843 138.052 122.585 139.213 123.097C139.529 123.246 139.831 123.425 140.114 123.631C141.987 124.919 143.897 126.446 146.169 126.552C149.958 126.724 150.096 122.664 156.826 123.001C157.104 123.015 157.389 123.044 157.637 123.172C157.843 123.287 158.023 123.445 158.164 123.635C158.458 124.013 158.66 124.454 158.754 124.924C158.847 125.394 158.829 125.88 158.701 126.342C158.438 127.259 157.704 128.258 156.805 128.579C156.546 128.672 154.938 129 154.75 128.812C154.44 128.502 155.07 128.028 154.486 127.534C153.507 126.711 152.006 126.779 150.812 127.239C149.619 127.699 148.923 128.768 147.807 129.56C147.517 129.766 146.478 129.973 146.275 129.974C145.518 129.979 145.312 129.959 144.599 129.707C143.49 129.313 142.96 128.075 142.084 127.292C141.208 126.51 139.876 126.066 138.707 125.952C138.458 125.928 137.717 126.139 137.509 126.279C137.301 126.418 137.213 126.906 137.353 127.114C137.483 127.306 137.75 127.334 137.982 127.344L139.026 127.388C139.218 127.396 139.418 127.406 139.586 127.499C139.754 127.592 139.932 127.82 139.82 127.976C139.693 128.133 139.517 128.24 139.32 128.282Z" fill="#870A2C"/>
<path d="M152.939 128.632C152.939 128.632 154.993 129.122 154.787 127.698C154.58 126.274 152.2 126.091 150.461 127.396L151.881 127.645C151.881 127.645 151.853 128.328 152.939 128.632Z" fill="black"/>
<path d="M138.89 128.021C138.89 128.021 136.573 128.102 137.105 126.614C137.636 125.126 140.562 125.533 142.15 127.315L140.244 127.188C140.244 127.188 140.127 127.929 138.89 128.021Z" fill="black"/>
<path d="M151.551 97.2692C151.539 97.7187 151.484 98.607 151.964 99.0194C152.553 99.5252 153.435 99.3948 154.198 99.2524C159.176 98.3263 164.258 98.139 169.318 97.9552L174.818 97.7551C176.314 97.7009 177.919 97.6767 179.164 98.5101C179.851 98.971 180.392 99.7702 180.261 100.587C181.278 100.416 181.757 99.1049 181.424 98.129C181.09 97.1531 180.213 96.4743 179.354 95.908C174.457 92.71 168.623 91.261 162.799 91.7964C160.545 92.0101 158.246 92.5586 156.442 93.9277L157.346 92.5672C156.492 92.8435 155.244 93.3557 154.543 93.9206C155.113 93.7518 155.342 92.456 155.348 91.8591C154.87 92.0457 153.265 93.2517 152.896 93.6064C152.141 94.3309 151.587 95.8189 151.551 97.2692Z" fill="black"/>
<path d="M135.547 97.7167C136.749 98.1441 137.826 98.5715 139.032 98.1633C140.238 97.7551 141.277 96.7137 141.454 95.45C141.615 94.2932 141.075 93.1706 140.55 92.1249C140.18 92.3558 139.884 92.6879 139.698 93.082C139.511 93.4761 139.441 93.9155 139.496 94.3481C139.295 93.8195 138.979 93.342 138.571 92.95C138.163 92.558 137.674 92.2611 137.138 92.0807C136.993 92.6081 137.018 93.1674 137.209 93.6799C135.357 91.84 132.631 91.258 130.068 90.7515C129.253 90.5912 128.429 90.431 127.603 90.4167C126.376 90.3954 125.151 90.6931 123.931 90.5592C122.8 90.4367 121.665 89.948 120.561 90.2237C119.912 90.3861 119.358 90.7935 118.823 91.1989L116.353 93.0509C115.57 93.64 115.043 94.6073 114.476 95.4087C113.909 96.2101 113.328 96.8904 113.633 97.8235C114.17 98.2189 114.931 98.1462 115.54 97.8734C116.148 97.6006 116.664 97.161 117.24 96.8234C118.408 96.1431 119.782 95.9209 121.127 95.7955C125.885 95.3591 130.681 95.9726 135.177 97.5927L135.547 97.7167Z" fill="black"/>
<path d="M108.53 146.258C109.593 150.914 111.899 155.196 115.2 158.647C115.937 159.415 116.724 160.143 117.356 160.998C118.068 161.96 118.567 163.064 119.248 164.043C121.403 167.128 125.115 168.658 128.635 169.988C131.024 170.889 133.426 171.773 135.897 172.418C144.173 174.579 153.152 173.947 161.042 170.647C168.932 167.348 175.692 161.401 179.967 153.992C178.371 156.679 177.745 159.818 176.573 162.715C174.993 166.624 173.094 170.756 170.465 174.051C166.501 179.019 165.479 179.385 161.113 184.006C159.383 185.838 158.674 187.904 156.539 189.904C154.871 191.466 153.796 193.838 145.427 193.811C141.49 193.799 136.084 190.606 133.665 187.495C132.662 186.206 132.312 184.93 131.344 183.614C130.48 182.443 129.33 181.517 128.194 180.606C123.998 177.241 118.095 173.683 115.605 170.509C113.552 167.893 110.961 160.54 110.469 158.24C109.621 154.276 108.857 150.295 108.177 146.297" fill="#870A2C" fill-opacity="0.8"/>
<path d="M176.366 107.408C176.366 107.408 174.165 109.644 169.385 109.708C164.604 109.771 159.823 108.723 157.238 107.033C157.238 107.033 157.626 106.201 158.501 105.15C160.018 103.331 162.998 100.863 167.955 100.947C174.831 101.066 176.117 105.97 176.33 107.156C176.356 107.316 176.366 107.408 176.366 107.408Z" fill="url(#paint0_linear_1170_2392)"/>
<path d="M166.401 109.729C169.964 109.729 172.853 107.25 172.853 104.192C172.853 101.135 169.964 98.6562 166.401 98.6562C162.837 98.6562 159.948 101.135 159.948 104.192C159.948 107.25 162.837 109.729 166.401 109.729Z" fill="url(#paint1_linear_1170_2392)"/>
<path d="M166.401 109.284C169.68 109.284 172.339 107.003 172.339 104.189C172.339 101.375 169.68 99.0938 166.401 99.0938C163.121 99.0938 160.463 101.375 160.463 104.189C160.463 107.003 163.121 109.284 166.401 109.284Z" fill="url(#paint2_linear_1170_2392)"/>
<path style="mix-blend-mode:multiply" d="M166.4 107.316C168.41 107.316 170.039 105.918 170.039 104.193C170.039 102.468 168.41 101.07 166.4 101.07C164.39 101.07 162.761 102.468 162.761 104.193C162.761 105.918 164.39 107.316 166.4 107.316Z" fill="url(#paint3_linear_1170_2392)"/>
<g style="mix-blend-mode:multiply" opacity="0.6">
<path d="M176.33 107.148C175.048 105.713 172.525 104.005 168.551 103.102C163.635 101.986 158.772 104.851 158.501 105.142C160.018 103.323 162.998 100.855 167.955 100.94C174.83 101.058 176.117 105.962 176.33 107.148Z" fill="#CF77B6"/>
</g>
<path d="M159.451 104.131C159.451 104.131 161.37 99.1304 167.261 98.4388C174.624 97.574 175.936 105.789 175.936 105.789C175.936 105.789 170.3 96.2441 159.451 104.131Z" fill="#B11D51"/>
<path d="M159.826 108.275C160.348 108.452 169.533 109.217 175.276 108.203C175.431 108.176 172.614 110.285 168.48 110.216C162.814 110.125 159.826 108.275 159.826 108.275Z" fill="#870A2C"/>
<path d="M158.498 105.148C158.498 105.148 156.351 106.614 156.371 107.161C156.392 107.707 158.618 107.783 158.618 107.783C158.618 107.783 157.621 106.999 157.731 106.681C157.841 106.364 158.498 105.148 158.498 105.148Z" fill="#870A2C"/>
<path d="M176.249 106.774C176.249 106.774 176.439 104.326 176.061 103.502C175.684 102.678 172.428 100.411 168.071 100.011C163.714 99.6118 160.456 102.736 158.732 104.872C158.732 104.872 163.883 100.341 169.383 101.688C174.884 103.036 176.249 106.774 176.249 106.774Z" fill="#2E031E"/>
<path d="M170.935 105.051C170.691 105.172 173.521 106.622 173.768 106.383C174.014 106.144 171.477 104.781 170.935 105.051Z" fill="white"/>
<path d="M168.844 104.055C168.638 104.064 168.452 104.534 168.695 104.539C168.938 104.544 169.372 104.623 169.426 104.448C169.48 104.274 169.12 104.044 168.844 104.055Z" fill="white"/>
<path d="M116.48 104.531C116.48 104.531 118.427 106.889 123.176 107.426C127.925 107.962 132.793 107.435 135.55 106.072C135.55 106.072 135.255 105.237 134.497 104.149C134.497 104.149 134.497 104.149 134.497 104.145C133.185 102.253 130.488 99.5943 125.547 99.1818C118.694 98.612 116.883 103.176 116.543 104.29C116.5 104.444 116.48 104.531 116.48 104.531Z" fill="url(#paint4_linear_1170_2392)"/>
<path d="M133.184 102.913C133.395 99.9766 130.685 97.3892 127.13 97.1338C123.576 96.8784 120.524 99.0517 120.313 101.988C120.102 104.924 122.812 107.512 126.366 107.767C129.921 108.023 132.973 105.849 133.184 102.913Z" fill="url(#paint5_linear_1170_2392)"/>
<path d="M132.671 102.88C132.865 100.177 130.371 97.7961 127.1 97.5611C123.829 97.326 121.019 99.3262 120.825 102.029C120.631 104.731 123.125 107.112 126.396 107.347C129.667 107.583 132.476 105.582 132.671 102.88Z" fill="url(#paint6_linear_1170_2392)"/>
<path style="mix-blend-mode:multiply" d="M130.333 102.03C130.664 103.677 129.326 105.197 127.345 105.427C125.364 105.656 123.49 104.506 123.159 102.862C122.828 101.218 124.165 99.6952 126.146 99.4665C128.127 99.2379 129.999 100.384 130.333 102.03Z" fill="url(#paint7_linear_1170_2392)"/>
<g style="mix-blend-mode:multiply" opacity="0.6">
<path d="M116.545 104.29C117.979 103.045 120.671 101.661 124.722 101.192C129.732 100.613 134.261 103.838 134.499 104.145C133.186 102.253 130.489 99.5943 125.549 99.1818C118.695 98.612 116.885 103.176 116.545 104.29Z" fill="#CF77B6"/>
</g>
<path d="M133.663 103.081C133.663 103.081 132.296 98.1044 126.51 96.8564C119.278 95.2964 117.084 103.027 117.084 103.027C117.084 103.027 123.724 94.448 133.663 103.081Z" fill="#B11D51"/>
<path d="M132.841 107.002C132.303 107.12 123.082 106.938 117.479 105.399C117.327 105.358 119.901 107.656 124.022 108.002C129.67 108.479 132.841 107.002 132.841 107.002Z" fill="#870A2C"/>
<path d="M134.501 104.148C134.501 104.148 136.479 105.765 136.399 106.285C136.319 106.806 134.097 106.657 134.097 106.657C134.097 106.657 135.172 106.009 135.098 105.691C135.024 105.374 134.501 104.148 134.501 104.148Z" fill="#870A2C"/>
<path d="M116.663 103.94C116.663 103.94 116.741 101.578 117.205 100.827C117.67 100.075 121.151 98.2303 125.532 98.2823C129.913 98.3343 132.812 101.647 134.294 103.862C134.294 103.862 129.664 99.0182 124.043 99.7569C118.422 100.496 116.663 103.94 116.663 103.94Z" fill="#2E031E"/>
<path d="M122.14 102.815C122.37 102.958 119.396 104.062 119.178 103.808C118.959 103.555 121.628 102.503 122.14 102.815Z" fill="white"/>
<path d="M124.326 102.075C124.53 102.104 124.664 102.574 124.422 102.554C124.181 102.534 123.739 102.567 123.704 102.394C123.669 102.221 124.052 102.038 124.326 102.075Z" fill="white"/>
<path d="M105.971 108.813L109.675 82.6208C110.564 76.3288 111.58 69.7277 115.445 64.6858C116.798 62.9178 118.46 61.4091 120.004 59.8007C121.035 58.7222 122.026 57.5846 123.243 56.7205C125.124 55.3856 127.42 54.7901 129.676 54.3107C141.114 51.8884 152.923 51.8029 164.395 54.0593C166.908 54.5579 169.428 55.1741 171.702 56.3558C175.549 58.3561 178.404 61.8052 181.148 65.1631C183.713 68.3037 186.414 71.7977 186.408 75.8537C186.408 77.3432 186.031 78.8042 185.873 80.2844C185.477 84.0006 186.46 87.7083 186.794 91.4302C187.423 98.431 185.765 105.643 187.562 112.438C187.339 104.427 192.036 104.255 191.409 98.3932C191.152 95.9777 191.63 91.094 191.59 88.6649C191.571 87.4874 190.858 86.7473 190.806 85.5713C190.758 84.5028 191.418 83.0233 191.15 81.9868C190.27 78.5769 189.384 75.1613 188.114 71.881C186.304 67.2096 183.691 62.8231 180.249 59.1816C177.449 56.2169 174.141 53.7879 170.819 51.423C168.886 50.0496 166.938 48.6912 164.869 47.5351C153.115 40.966 137.631 41.7745 126.629 49.5296C123.541 51.7065 120.819 54.3535 118.112 56.9877C116.302 58.7485 114.491 60.5108 112.793 62.3793C110.259 65.1652 107.949 68.2311 106.57 71.7336C105.701 73.9368 105.216 76.2676 104.73 78.5862L103.595 84.0298C103.368 85.1225 103.139 86.2224 103.116 87.3379C103.086 88.8715 103.443 90.4308 103.09 91.9231C102.792 93.1832 102.006 94.2959 101.782 95.5709C101.649 96.326 101.635 99.2038 101.711 99.9674C101.839 101.329 103.034 102.28 103.871 103.587L105.971 108.813Z" fill="black"/>
<path d="M125.749 141.76C126.532 139.945 128.342 138.768 130.197 138.082C132.051 137.396 134.03 137.092 135.889 136.418C137.319 135.9 138.674 135.165 140.151 134.8C141.627 134.435 143.318 134.499 144.503 135.452C144.823 135.71 145.1 136.026 145.455 136.235C146.48 136.835 147.794 136.351 148.803 135.72C149.811 135.089 150.808 134.285 151.996 134.243C152.836 134.214 153.634 134.576 154.395 134.93C157.623 136.431 161.044 138.105 162.844 141.175C163.237 141.846 163.548 142.577 164.076 143.148C164.824 143.958 165.986 144.421 166.426 145.433C166.848 146.288 168.421 145.469 169.172 144.84C169.834 144.283 169.348 143.495 169.131 142.617C169.003 142.099 168.686 140.605 168.5 140.105C168.24 139.41 168.269 139.364 168.03 138.662C167.075 135.844 164.706 133.895 161.946 132.786C160.369 132.152 159.962 132.24 158.376 131.629C156.968 131.087 155.4 129.414 153.998 128.858C152.596 128.303 150.978 128.036 149.598 128.645C148.34 129.2 147.368 130.438 146 130.586C144.45 130.753 143.171 129.465 141.726 128.876C140.994 128.584 140.204 128.467 139.419 128.534C138.633 128.602 137.875 128.852 137.203 129.265C136.553 129.673 136.004 130.226 135.364 130.651C132.361 132.645 128.248 132.025 125.489 134.345C124.421 135.242 123.433 136.086 123.38 137.479C123.365 137.845 122.454 139.041 122.248 139.323C121.555 140.271 122.248 141.867 123.274 142.444C124.3 143.021 125.144 143.309 125.596 142.225L125.749 141.76Z" fill="black"/>
<path d="M134.576 149.567C134.803 148.93 135.605 148.696 136.193 148.364C136.671 148.094 137.154 147.821 137.679 147.659C138.42 147.429 139.21 147.428 139.986 147.43L148.397 147.444C148.951 147.444 149.507 147.444 150.059 147.5C151.272 147.621 152.446 147.998 153.504 148.605C154.524 149.191 155.493 150.13 155.528 151.307C155.534 151.507 155.508 151.718 155.39 151.877C155.309 151.976 155.21 152.059 155.098 152.121C154.692 152.372 154.241 152.545 153.771 152.631C152.757 152.815 151.713 152.585 150.687 152.677C149.698 152.768 148.76 153.153 147.992 153.782C146.961 154.631 146.304 155.87 145.259 156.702C145.153 156.799 145.025 156.867 144.886 156.901C143.34 157.155 143.105 156.046 141.751 154.383C141.602 154.199 141.53 153.964 141.433 153.748C141.143 153.107 140.694 152.514 140.064 152.205C139.731 152.041 139.362 151.964 138.996 151.889C137.674 151.616 136.697 152.032 135.375 151.757C135.266 151.733 133.912 151.428 134.576 149.567Z" fill="black"/>
<path d="M105.971 108.812C104.625 115.839 106.809 123.741 109.154 130.5C109.614 131.827 110.112 133.213 111.153 134.155C113.132 135.946 116.653 135.77 117.953 138.101C118.97 139.922 118.172 142.667 119.847 143.911C120.687 144.535 121.828 144.481 122.852 144.695C126.576 145.47 128.516 149.786 128.457 153.589C128.426 155.59 128.182 157.996 129.793 159.184C131.135 160.174 133.005 159.698 134.612 159.255C140.822 157.538 147.714 156.994 153.509 159.809C155.361 160.709 157.123 161.269 159.181 161.244C162.593 161.204 163.652 158.133 164.612 154.858C165.572 151.584 164.584 150.435 166.774 147.819C170.009 143.955 178.779 141.494 182.172 137.768C184.01 135.748 183.774 133.112 184.473 130.472C184.875 128.955 186.196 127.362 186.283 125.795C186.635 119.51 188.555 116.82 187.553 112.403C189.924 119.004 187.092 125.638 186.635 132.633C186.463 135.277 186.026 137.445 185.428 140.025C184.701 143.168 183.315 146.484 182.07 149.428C179.406 155.724 176.7 162.095 172.553 167.53C169.564 171.444 165.892 174.785 161.715 177.393C159.406 178.833 156.942 180.045 154.332 180.819C146.365 183.18 137.566 181.221 130.397 177.019C123.229 172.817 117.491 166.557 112.433 159.965C112.111 159.544 110.368 156.895 110.308 156.368C110.249 155.84 109.255 152.385 108.85 149.63C108.599 147.92 107.291 145.356 106.738 141.132C106.624 140.263 105.664 136.502 105.652 135.627C105.632 134.193 105.637 131.294 105.33 129.969C104.298 125.512 104.289 117.12 104.348 116.326C104.385 115.815 104.799 111.896 105.466 110.521L105.971 108.812Z" fill="black"/>
<path d="M31.0692 211.535C32.3514 209.944 33.6699 208.37 35.1102 206.918C35.9194 206.102 36.7735 205.305 37.7416 204.68C38.2957 204.317 38.9013 204.04 39.5381 203.857C40.0417 203.715 40.5596 203.626 41.0589 203.469C41.7279 203.25 42.3609 202.933 42.9373 202.529C44.8492 201.229 46.6286 199.746 48.393 198.255C50.0136 196.886 51.627 195.47 53.3672 194.254C53.7484 193.986 54.1441 193.74 54.5525 193.516C54.903 193.325 55.3553 193.006 55.7542 192.968C56.3241 192.914 57.0051 193.186 57.5493 193.324C58.1106 193.466 58.7211 193.68 59.3059 193.68C59.8622 193.68 60.3438 193.088 60.6764 192.713C61.1922 192.129 61.6844 191.344 62.3974 190.982C62.8683 190.742 63.5101 190.712 64.0272 190.626C64.5857 190.53 65.1342 190.412 65.7019 190.483C66.655 190.599 67.5611 190.982 68.5227 191.047C69.2422 191.095 69.926 190.851 70.4923 190.414C71.6178 189.545 72.234 188.053 73.5674 187.447C73.9223 187.285 74.3095 187.206 74.6996 187.216C75.0897 187.226 75.4723 187.325 75.8184 187.505C76.4047 187.816 76.8648 188.312 77.3193 188.787C77.7531 189.237 78.1976 189.701 78.7475 190.011C79.3174 190.331 79.8872 190.376 80.5283 190.338C81.2008 190.299 81.8775 190.347 82.5492 190.292C83.243 190.236 83.9646 189.891 84.5259 189.492C85.6122 188.718 86.2355 187.541 86.6722 186.312C86.8417 185.839 86.9834 185.362 87.2299 184.921C87.7137 184.069 88.3418 183.308 89.0862 182.672C90.5615 181.396 92.5517 180.513 94.5327 180.761C95.6618 180.904 96.7951 181.276 97.8885 181.582C98.7967 181.836 99.6992 182.108 100.609 182.357C101.891 182.708 103.267 183.061 104.606 182.829C105.191 182.722 105.751 182.505 106.256 182.192C106.279 182.177 106.296 182.154 106.302 182.127C106.309 182.1 106.305 182.071 106.291 182.048C106.277 182.024 106.254 182.006 106.227 181.999C106.201 181.991 106.172 181.994 106.148 182.007C104.968 182.719 103.676 182.791 102.346 182.549C100.565 182.223 98.8409 181.61 97.0964 181.144C96.0934 180.875 95.0541 180.535 94.0084 180.508C93.1046 180.496 92.2078 180.669 91.3728 181.015C89.6479 181.721 88.1897 182.953 87.2057 184.536C86.5988 185.521 86.3993 186.683 85.8295 187.69C85.0815 189.011 83.7537 190.046 82.1966 190.096C81.527 190.118 80.8581 190.123 80.19 190.15C79.4648 190.18 78.8287 189.879 78.2831 189.421C77.3293 188.621 76.5977 187.414 75.3248 187.085C73.8517 186.704 72.6891 187.637 71.8073 188.697C71.3371 189.259 70.8891 189.869 70.29 190.305C69.5563 190.838 68.7485 190.916 67.8766 190.742C66.9763 190.562 66.0531 190.188 65.1214 190.247C64.57 190.282 64.013 190.41 63.4702 190.511C63.0428 190.59 62.5727 190.628 62.193 190.856C61.5277 191.255 61.0618 191.956 60.5589 192.53C60.2939 192.831 60.0097 193.159 59.6571 193.36C59.422 193.495 59.239 193.477 58.9768 193.431C58.3122 193.321 57.6611 193.124 57.0065 192.966C56.5898 192.867 56.0028 192.65 55.5719 192.783C55.1188 192.926 54.6608 193.206 54.2512 193.439C53.8511 193.668 53.4635 193.919 53.0901 194.189C52.2973 194.759 51.5365 195.378 50.7765 195.991C49.0206 197.406 47.3366 198.906 45.5708 200.309C44.6448 201.046 43.6988 201.766 42.7129 202.423C42.3967 202.635 42.0647 202.824 41.7199 202.987C40.6963 203.46 39.5488 203.529 38.5237 204C37.7402 204.361 37.0364 204.882 36.381 205.438C35.1893 206.45 34.123 207.608 33.0951 208.781C32.3507 209.632 31.6298 210.502 30.9203 211.381C30.8341 211.488 30.9844 211.639 31.0713 211.532L31.0692 211.535Z" fill="black"/>
<path d="M184.754 180.931C186.293 181.046 187.825 181.219 189.352 181.449C190.099 181.563 190.843 181.691 191.586 181.832C192.162 181.942 192.822 182.065 193.229 182.527C193.636 182.989 193.656 183.667 193.858 184.22C194.009 184.63 194.225 185.013 194.499 185.353C195.063 186.057 195.843 186.55 196.674 186.881C198.721 187.696 200.898 187.516 203.014 187.141C205.68 186.669 208.641 185.97 211.15 187.384C213.073 188.469 214.402 190.331 216.264 191.503C217.241 192.118 218.346 192.424 219.47 192.643C220.675 192.875 221.9 192.999 223.123 193.096C225.697 193.295 228.271 193.54 230.821 193.946C231.89 194.117 232.962 194.313 234.012 194.587C234.745 194.779 235.52 194.993 236.169 195.397C236.566 195.642 236.882 196.015 237.211 196.337C237.752 196.859 238.296 197.378 238.845 197.893C239.856 198.839 240.884 199.769 241.955 200.649C242.832 201.369 243.736 202.068 244.714 202.65C245.383 203.049 246.126 203.439 246.911 203.532C247.188 203.57 247.469 203.547 247.735 203.465C247.866 203.423 247.81 203.217 247.679 203.259C246.998 203.481 246.239 203.188 245.625 202.899C244.687 202.452 243.827 201.842 243.005 201.212C240.735 199.473 238.75 197.432 236.654 195.498C236.204 195.083 235.6 194.857 235.028 194.664C234.13 194.362 233.198 194.159 232.268 193.982C229.817 193.515 227.327 193.243 224.843 193.023C223.602 192.913 222.357 192.839 221.12 192.685C219.883 192.53 218.598 192.329 217.432 191.868C215.354 191.044 213.953 189.146 212.209 187.832C211.292 187.142 210.281 186.655 209.146 186.458C207.816 186.226 206.461 186.349 205.137 186.555C202.745 186.926 200.389 187.574 197.968 187.05C196.991 186.837 196.022 186.461 195.248 185.816C194.889 185.52 194.584 185.164 194.346 184.764C194.061 184.281 193.954 183.763 193.804 183.232C193.661 182.725 193.41 182.3 192.944 182.033C192.459 181.756 191.883 181.672 191.342 181.572C189.887 181.302 188.423 181.086 186.95 180.922C186.219 180.841 185.487 180.773 184.754 180.719C184.617 180.708 184.617 180.922 184.754 180.933V180.931Z" fill="black"/>
<path d="M115.937 219.176C118.059 225.323 119.535 229.991 120.06 236.473C120.73 244.746 122.434 253.563 122.981 261.845C123.27 266.242 123.522 270.641 123.737 275.043H140.275C140.173 272.785 139.834 270.331 139.77 267.984C139.56 260.389 138.064 253.305 136.254 245.926C135.033 240.947 132.347 235.927 131.443 230.882C130.424 225.194 128.575 219.693 126.734 214.214C125.037 209.167 123.261 203.981 119.782 199.952C118.175 198.092 116.24 196.524 114.746 194.574C112.84 192.087 111.735 189.093 110.196 186.364C108.657 183.634 105.054 180.867 104.2 181.387C102.834 182.219 99.5644 181.327 96.4814 181.086C100.503 187.476 106.554 195.234 109.634 202.126C112.973 209.605 114.003 213.569 115.937 219.176Z" fill="black"/>
<path d="M85.7759 216.03C86.8636 219.592 88.5397 222.958 89.6011 226.53C90.8968 230.889 91.2522 235.464 91.6006 239.998L94.1265 272.894C94.1813 273.606 94.2433 274.34 94.3965 275.04H109.158C109.229 273.259 109.137 271.458 109.041 269.675C108.257 255.196 107.225 240.643 103.751 226.566C100.277 212.488 94.9663 199.184 85.1889 188.476C83.8312 190.11 80.4355 189.544 79.0793 188.853C76.995 187.792 76.5989 186.551 74.333 187.133C76.0426 193.593 80.6727 198.901 82.9315 205.191C84.1938 208.709 84.6846 212.456 85.7759 216.03Z" fill="black"/>
<path d="M52.4646 240.433C53.8386 243.455 56.579 250.927 57.141 251.26C58.8675 252.273 60.7354 253.023 62.6829 253.485C63.2321 253.615 63.8112 253.733 64.25 254.092C64.6105 254.389 64.832 254.818 65.0336 255.241C66.7745 258.909 67.64 262.92 68.9307 266.77C69.8868 269.619 71.0779 272.384 72.4917 275.036H87.6693C87.5743 274.815 87.4746 274.598 87.3701 274.385C86.4839 272.599 85.2744 270.94 84.7979 269.004C84.1119 266.216 84.956 262.949 83.2393 260.648C81.5511 258.386 78.0664 258.09 76.3853 255.823C75.7249 254.932 75.4229 253.834 75.1344 252.765L72.0094 241.18C71.2814 238.48 70.5477 235.766 69.3596 233.235C67.2397 228.718 63.6317 224.584 63.5975 219.595C63.5854 217.808 64.0492 216.05 64.1467 214.265C64.2443 212.481 63.8967 210.53 62.5796 209.32C61.8673 208.665 60.9413 208.296 60.0409 207.945C55.5295 206.191 50.9706 204.561 46.3642 203.055L46.3186 203.066C45.1613 214.816 47.0209 226.666 51.7216 237.496C52.129 238.435 52.0421 239.504 52.4646 240.433Z" fill="black"/>
<path d="M36.6612 206.016C36.5949 206.234 36.5294 206.452 36.4639 206.67C36.513 206.67 36.5629 206.67 36.6127 206.677L36.6612 206.016Z" fill="black"/>
<path d="M30.333 255.947C32.9038 256.98 33.7835 258.834 34.3056 261.554C34.7637 263.945 36.271 265.166 36.994 267.492C37.7498 269.923 38.5469 272.502 39.3147 275.038H54.1426L49.412 262.018C48.6213 259.842 47.7174 257.517 45.7848 256.242C44.2889 255.253 42.3493 255.031 40.9567 253.901C39.9487 253.08 39.344 251.872 38.8389 250.673C37.0901 246.519 36.2033 242.062 35.3214 237.638L34.3555 232.782C33.8768 230.373 33.3967 227.956 33.2386 225.506C32.8276 219.111 34.6184 212.812 36.4654 206.665C34.6319 206.621 33.0797 208.192 32.3439 209.893C31.5881 211.64 31.4107 213.585 30.7497 215.37C29.9661 217.475 27.7729 218.991 27.4117 221.211C24.675 238.002 29.1605 248.051 29.5843 249.003C30.4861 251.032 31.4485 254.03 30.333 255.947Z" fill="black"/>
</g>
<defs>
<filter id="filter0_b_1170_2392" x="-19.5" y="-20" width="330" height="330" filterUnits="userSpaceOnUse" color-interpolation-filters="sRGB">
<feFlood flood-opacity="0" result="BackgroundImageFix"/>
<feGaussianBlur in="BackgroundImageFix" stdDeviation="10"/>
<feComposite in2="SourceAlpha" operator="in" result="effect1_backgroundBlur_1170_2392"/>
<feBlend mode="normal" in="SourceGraphic" in2="effect1_backgroundBlur_1170_2392" result="shape"/>
</filter>
<linearGradient id="paint0_linear_1170_2392" x1="166.055" y1="110.009" x2="168.512" y2="100.728" gradientUnits="userSpaceOnUse">
<stop stop-color="#ECE0FF"/>
<stop offset="1" stop-color="#BBC7F9"/>
</linearGradient>
<linearGradient id="paint1_linear_1170_2392" x1="175.631" y1="110.409" x2="163.222" y2="107.083" gradientUnits="userSpaceOnUse">
<stop stop-color="#604300"/>
<stop offset="1" stop-color="#471400"/>
</linearGradient>
<linearGradient id="paint2_linear_1170_2392" x1="168.473" y1="112.302" x2="170.548" y2="104.56" gradientUnits="userSpaceOnUse">
<stop stop-color="#925600"/>
<stop offset="1" stop-color="#2E0010"/>
</linearGradient>
<linearGradient id="paint3_linear_1170_2392" x1="168.842" y1="110.928" x2="170.113" y2="106.183" gradientUnits="userSpaceOnUse">
<stop stop-color="#604300"/>
<stop offset="1" stop-color="#471400"/>
</linearGradient>
<linearGradient id="paint4_linear_1170_2392" x1="127.83" y1="110.691" x2="126.44" y2="101.516" gradientUnits="userSpaceOnUse">
<stop stop-color="#ECE0FF"/>
<stop offset="1" stop-color="#BBC7F9"/>
</linearGradient>
<linearGradient id="paint5_linear_1170_2392" x1="120.416" y1="103.433" x2="133.069" y2="101.481" gradientUnits="userSpaceOnUse">
<stop stop-color="#604300"/>
<stop offset="1" stop-color="#471400"/>
</linearGradient>
<linearGradient id="paint6_linear_1170_2392" x1="127.28" y1="105.953" x2="126.109" y2="98.3595" gradientUnits="userSpaceOnUse">
<stop stop-color="#925600"/>
<stop offset="1" stop-color="#2E0010"/>
</linearGradient>
<linearGradient id="paint7_linear_1170_2392" x1="126.96" y1="104.921" x2="126.253" y2="100.259" gradientUnits="userSpaceOnUse">
<stop stop-color="#604300"/>
<stop offset="1" stop-color="#471400"/>
</linearGradient>
</defs>
</svg>
