<svg width="250" height="250" viewBox="0 0 250 250" fill="none" xmlns="http://www.w3.org/2000/svg">
<mask id="mask0_1708_10568" style="mask-type:alpha" maskUnits="userSpaceOnUse" x="0" y="0" width="250" height="250">
<rect width="250" height="250" fill="#C4C4C4"/>
</mask>
<g mask="url(#mask0_1708_10568)">
<path d="M208.317 0.0390625H175.02C200.158 18.9363 216.418 49.013 216.418 82.8805C216.418 140.082 170.047 186.452 112.846 186.452C55.6453 186.452 9.27441 140.082 9.27441 82.8805C9.27441 49.013 25.5336 18.9363 50.6731 0.0390625H-5V255.039H-4.57523V137.124C-4.4921 137.231 -4.40826 137.338 -4.32442 137.442C7.20297 151.807 18.94 166.541 25.359 184.205C33.4505 206.471 32.3208 231.12 30.5728 255.039H196.567C197.451 230.242 211.806 206.512 231.578 191.061C234.961 188.418 238.747 185.612 239.729 181.433C241.368 174.464 234.574 168.718 231.319 162.34C227.555 154.966 228.565 146.162 229.738 137.967C231.56 125.236 233.569 112.463 237.569 100.241C240.484 91.3374 244.514 82.6912 250 75.1341V51.3185C229.849 44.5663 213.94 24.9725 208.317 0.0390625Z" fill="#66C3CD"/>
<path d="M208.316 0.0390625C213.94 24.9725 229.848 44.5663 249.999 51.3185V0.0390625H208.316Z" fill="#66C3CD"/>
<path d="M9.27344 82.8805C9.27344 140.082 55.6443 186.452 112.845 186.452C170.046 186.452 216.417 140.082 216.417 82.8805C216.417 49.013 200.157 18.9363 175.019 0.0390625H50.6722C25.5327 18.9363 9.27344 49.013 9.27344 82.8805Z" fill="#150DCE"/>
<g clip-path="url(#clip0_1708_10568)">
<path d="M146.981 43.7422C146.901 43.9704 146.89 44.2174 146.951 44.4516C147.012 44.6859 147.141 44.8967 147.322 45.0572C147.712 45.3686 148.159 45.6002 148.638 45.739C151.756 46.9566 154.484 49.0509 157.554 50.3659C161.647 52.1679 166.421 52.7036 169.832 55.5771C172.073 57.5253 173.486 60.3501 174.217 63.2236C174.948 66.0971 175.094 69.068 175.24 72.0876L175.63 81.1464C175.679 82.4127 175.728 83.8251 175.045 84.9453C174.959 85.1271 174.836 85.2897 174.686 85.4235C174.535 85.5574 174.359 85.6597 174.168 85.7245C173.389 85.9681 172.658 85.2862 172.171 84.6531C167.591 79.1009 165.106 71.9415 160.136 66.7302C156.287 62.7365 151.22 60.1065 146.494 57.1356C144.837 56.1129 143.132 54.8953 142.352 53.0933C141.573 51.2912 141.865 49.4405 142.352 47.6872C142.84 45.9338 143.57 44.7163 145.032 44.424C145.714 44.2779 146.542 44.424 146.981 43.8883" fill="#F79C88"/>
<path fill-rule="evenodd" clip-rule="evenodd" d="M70.1949 241.089C72.0993 247.119 74.7683 252.88 78.1367 258.233C80.0857 261.301 82.2782 264.32 83.7886 267.632C87.6865 275.961 87.2967 285.555 87.6377 294.76C87.6865 295.734 87.7352 296.806 88.3686 297.536C89.002 298.267 90.6098 298.656 91.8766 298.754L166.423 302.747C168.713 302.894 171.149 302.942 173.147 301.822C175.144 300.702 176.752 297.39 177.775 294.663C181.819 283.558 187.228 272.697 195.267 263.98C197.606 261.398 200.237 258.914 201.601 255.651C203.404 251.317 202.527 246.349 203.599 241.771C203.988 240.066 204.622 238.41 204.914 236.657C205.337 233.798 204.733 230.882 203.209 228.426C200.919 224.871 196.826 222.776 192.685 221.9C188.543 221.023 182.19 219.208 178 219.5L145.472 224.043C137.676 224.578 129.734 225.114 122.036 223.604C116.677 222.533 113.997 217.565 108.832 215.812C105.129 214.594 102.937 213.036 99.1364 212.062C97.5285 211.623 92.7049 211.429 90.5124 211.38C87.6965 211.211 84.8868 211.8 82.3757 213.084C76.9187 215.714 71.8027 219.562 70.5847 225.455C69.8538 228.962 69.0255 233.978 69.6589 237.047" fill="#DE2227"/>
<path fill-rule="evenodd" clip-rule="evenodd" d="M86.7609 270.609C83.9349 262.086 75.0673 248.644 74.4827 239.683C73.898 230.721 77.5522 220.932 85.5915 216.987C93.6308 213.042 102.986 215.915 110.927 219.714C118.869 223.513 126.714 228.432 135.533 228.724C140.454 228.919 145.573 228.438 150.15 226.63C172 218 177 221 194.439 227.75C196.388 228.237 198.434 228.822 199.847 230.234C202.283 232.572 202.283 236.419 202.088 239.829C201.893 244.309 201.455 249.277 198.288 252.492C196.924 253.953 194.78 254.537 193.464 256.096C188.884 261.453 184.548 271.048 182.55 276.454C180.553 281.86 175.291 298.419 175.291 298.419C169.429 299.396 163.498 299.901 157.555 299.929C134.948 299.685 115.361 298.662 92.4614 294.084C77.3086 291.26 44.7616 275.236 44.3718 272.801C41.5459 270.268 38.5251 267.931 36.43 264.862C33.4579 260.43 31.9962 253.173 22.8363 260.138C21.6182 261.063 20.6437 262.33 19.2795 263.012C17.0382 264.083 15.3329 262.378 13.0917 263.352C7.92701 265.544 3.883 269.392 -1.08675 273.093C-5.32565 276.259 -12.0494 283.175 -11.2211 287.509C-8.88242 290.091 -4.64353 287.461 -2.59716 284.636C-0.550797 281.811 2.03152 278.158 5.44213 279.035C2.56748 286.146 2.12898 292.672 3.15216 300.27C5.88065 300.513 7.19616 300.124 6.17298 296.032C7.09872 299.393 7.68339 303.094 8.85275 306.699C9.3887 308.354 9.82722 307.867 10.9966 306.601L11.8736 305.286C13.8225 302.072 16.3074 308.257 16.3074 308.257C19.4744 307.916 19.0846 302.802 18.0614 299.734C17.0382 296.666 16.2099 293.695 15.9176 290.48C23.1286 295.692 33.8477 302.997 42.0819 306.358C56.7475 312.299 56.6013 309.085 64.7381 313.273C70.3412 316.098 75.4571 319.8 80.7679 323.112C100.139 335.041 122.173 341.97 144.887 343.275C151.611 343.616 158.384 343.518 164.961 344.979C169.541 346.002 174.024 347.756 178.701 348.048C187.033 348.583 195.072 344.298 200.87 338.307C206.668 332.317 210.03 324.475 213.977 317.121C232.394 282.444 239.751 240.949 241.213 200.963C241.456 193.414 239.702 185.817 233.612 181.385C230.835 179.388 225.086 176.417 221.724 175.881C212.028 174.274 205.645 174.858 196.095 172.618C186.546 170.378 175.827 166.92 170.759 158.494C168.372 154.5 167.885 149.63 167.592 145.101C167.446 142.568 167.349 140.035 167.251 137.454C167.154 136.188 167.008 134.873 166.959 133.558C166.91 132.243 167.349 131.61 167.3 130.733C167.105 127.421 163.256 139.11 158.481 142.519C153.706 145.928 152.439 148.851 147.616 150.068C145.18 150.701 142.013 151.822 138.846 151.822C134.753 151.773 130.709 150.458 129.588 149.581C127.347 147.925 121.305 144.662 115.946 139.159C114.971 138.185 116.726 143.201 117.213 144.419C121.586 155.05 125.169 165.989 127.932 177.147C128.175 178.121 128.419 179.242 128.029 180.216C127.639 181.19 125.593 182.164 123.985 182.505L81.4988 190.833C71.2182 192.879 60.1581 195.362 53.4343 203.399C49.2441 208.464 47.3927 215.087 46.1259 221.565L44.0795 268.856L90.8536 288.63C90.8536 288.63 91.3895 284.49 86.7609 270.609Z" fill="#F79C88"/>
<path d="M197.311 186.731C196.385 188.339 195.654 190.092 194.826 191.797C194 193.299 193.33 194.882 192.828 196.521C192.439 198.079 190.538 204.849 189.954 209.135C188.979 216.294 186.397 223.113 187.03 230.321C187.079 230.662 189.515 231.441 189.856 231.587C190.067 231.642 190.29 231.625 190.49 231.539L193.608 230.418C193.308 222.228 193.764 214.027 194.972 205.921C195.217 204.106 195.608 202.315 196.142 200.563C197.067 197.592 199.357 191.212 200.965 188.582C204.181 183.225 204.668 180.254 212.269 174.75C210.356 174.295 208.385 174.131 206.422 174.263C206.422 174.263 203.889 175.53 197.311 186.731Z" fill="#E22028"/>
<g opacity="0.5">
<path d="M202.135 236.516L202.281 236.759C202.285 236.708 202.273 236.658 202.247 236.614C202.221 236.57 202.182 236.536 202.135 236.516Z" fill="white"/>
</g>
<g opacity="0.75">
<path d="M166.957 131.359C164.277 137.399 161.354 143.389 157.407 148.746C153.461 154.104 148.588 158.828 142.644 161.702C138.99 163.455 134.751 164.819 132.753 168.325C131.876 169.932 131.584 171.783 130.902 173.488C130.22 175.192 128.953 176.848 127.15 177.092L123.496 169.786C122.844 168.562 122.321 167.272 121.937 165.939C121.45 163.893 121.645 161.75 121.596 159.656C121.498 155.321 120.134 151.084 119.257 146.847C118.588 143.803 118.181 140.707 118.039 137.593C122.57 138.714 127.15 139.834 131.438 141.636C133.533 142.512 135.579 143.535 137.772 143.827C139.964 144.12 141.572 143.779 143.472 143.438C150.88 141.871 157.933 138.949 164.277 134.817C164.716 134.525 165.203 134.038 164.959 133.551" fill="#C5524A"/>
<path d="M166.469 131.312C162.913 139.3 158.917 147.238 152.827 153.619C150.032 156.611 146.754 159.113 143.131 161.022C140.013 162.629 136.456 163.7 133.922 166.135C132.266 167.743 131.584 169.691 130.95 171.834C130.317 173.977 129.44 176.363 127.199 176.704L127.637 176.85L123.983 169.545C122.629 167.25 121.985 164.607 122.131 161.947C122.163 159.384 121.951 156.824 121.498 154.3C120.962 151.719 120.28 149.187 119.744 146.557C119.12 143.587 118.713 140.575 118.526 137.546L117.698 137.936C121.206 138.813 124.714 139.689 128.124 140.858C129.83 141.443 131.437 142.125 133.045 142.806C134.556 143.527 136.165 144.019 137.82 144.268C139.517 144.399 141.224 144.284 142.887 143.927C144.544 143.569 146.201 143.18 147.857 142.758C151.044 141.828 154.155 140.656 157.163 139.251C158.869 138.471 160.529 137.593 162.133 136.621L164.423 135.209C165.008 134.819 165.787 134.235 165.495 133.407C165.202 132.579 164.277 133.212 164.472 133.699C164.667 134.186 163.302 135.014 162.815 135.306L160.72 136.524C159.356 137.303 157.991 137.985 156.579 138.667C153.727 139.993 150.779 141.1 147.76 141.979C146.298 142.368 144.836 142.758 143.375 143.05C141.67 143.463 139.911 143.611 138.161 143.488C136.599 143.228 135.076 142.77 133.63 142.125C132.168 141.491 130.707 140.81 129.196 140.274C125.639 139.008 121.985 138.131 118.331 137.206C118.087 137.157 117.454 137.206 117.503 137.595C117.64 140.275 117.949 142.943 118.428 145.583C118.916 148.261 119.646 150.843 120.231 153.473C120.814 156.128 121.108 158.839 121.108 161.557C121.027 162.843 121.092 164.134 121.303 165.405C121.539 166.641 121.949 167.838 122.521 168.96C123.837 171.785 125.298 174.561 126.663 177.337C126.715 177.4 126.784 177.447 126.861 177.473C126.939 177.498 127.022 177.502 127.101 177.483C128.904 177.191 130.219 175.925 131.048 174.366C131.876 172.808 132.217 170.275 133.289 168.376C135.092 165.113 139.087 163.798 142.303 162.288C149.952 158.732 155.848 152.401 160.281 145.29C163.004 140.861 165.398 136.238 167.444 131.459C167.687 130.874 166.664 130.874 166.469 131.312Z" fill="#C5524A"/>
</g>
<path d="M192.634 129.656C191.952 126.685 189.613 118.795 193.56 111.051C193.56 111.051 202.037 98.9237 198.968 91.4234C195.898 83.923 189.954 81.1957 187.713 77.3481C185.472 73.5005 181.525 59.7174 178.261 54.4088C174.996 49.1001 155.945 50.6586 154.532 50.6586C149.709 50.6099 165.008 55.0906 168.126 58.7434C169.182 59.9506 170.098 61.2741 170.855 62.6883C172.365 66.682 172.755 68.0457 173.778 74.5233C174.46 79.0527 173.534 83.8256 174.265 88.3551C175.63 96.9269 174.801 101.359 174.314 104.671C173.534 110.223 171.927 120.986 171.732 121.522C170.757 124.249 170.221 125.321 169.052 127.951C167.974 130.391 166.754 132.765 165.398 135.062C165.252 139.055 165.787 143.049 166.129 147.238C166.713 154.884 168.954 159.219 170.075 161.021C171.196 162.823 173.291 164.819 176.36 167.206C184.107 171.346 189.564 170.907 192.536 171.833C196.093 168.472 196.629 164.235 196.727 159.365C196.824 154.494 195.85 149.575 195.362 144.705C194.745 139.64 193.834 134.615 192.634 129.656Z" fill="#EAA76E"/>
<path d="M192.244 200.664C193.287 199.243 194.246 197.763 195.119 196.232C197.745 191.603 199.511 186.537 200.332 181.28C200.876 177.801 201.056 174.276 200.868 170.76C200.63 167.243 200.076 163.755 199.212 160.337C197.604 153.421 195.022 146.749 193.121 139.784C192.634 138.031 192.196 136.278 191.806 134.524C191.465 132.722 191.124 130.969 190.929 129.167C190.832 128.242 190.734 127.365 190.685 126.44C190.637 125.514 190.588 124.638 190.588 123.712C190.589 121.901 190.735 120.094 191.026 118.306C191.013 118.267 191.01 118.226 191.017 118.186C191.024 118.145 191.041 118.107 191.067 118.075C191.093 118.043 191.126 118.018 191.164 118.003C191.202 117.987 191.243 117.981 191.284 117.986C191.325 117.99 191.364 118.005 191.397 118.029C191.431 118.052 191.458 118.084 191.476 118.121C191.494 118.158 191.502 118.198 191.5 118.239C191.499 118.28 191.486 118.32 191.465 118.355C191.416 120.126 191.465 121.898 191.611 123.664L191.903 126.294L192.342 128.924C192.683 130.677 193.073 132.382 193.511 134.135C193.95 135.888 194.437 137.544 194.973 139.249C197.068 146.018 199.553 152.788 201.21 159.899C202.04 163.448 202.53 167.069 202.671 170.711C202.81 174.351 202.532 177.995 201.843 181.572C201.159 185.156 200.03 188.641 198.481 191.946C196.92 195.195 194.938 198.224 192.586 200.956C192.54 201.001 192.479 201.026 192.415 201.026C192.351 201.026 192.29 201.001 192.244 200.956C192.147 200.907 192.147 200.761 192.244 200.664Z" fill="#FDD6BF"/>
<path d="M33.7005 251.122C35.0299 249.655 36.1304 247.997 36.9649 246.203C37.7747 244.414 38.3637 242.533 38.7189 240.602C39.4011 236.754 39.2062 232.76 38.6215 228.864C37.9743 224.962 37.0129 221.118 35.7468 217.37C34.48 213.62 33.1158 209.87 31.8977 206.022C30.581 202.17 29.6028 198.21 28.9743 194.187C28.4302 190.097 28.4466 185.951 29.0231 181.865C30.133 173.648 33.3937 165.869 38.4753 159.316C41.0739 156.134 43.9609 153.2 47.0993 150.549C50.1688 147.919 53.3358 145.435 56.3567 142.903C59.4094 140.456 62.2757 137.787 64.9319 134.915C67.5612 132.117 69.717 128.909 71.3146 125.418C72.8312 121.856 73.99 118.153 74.774 114.362C75.6023 110.515 76.2844 106.57 77.2589 102.625C78.2235 98.6135 79.68 94.7366 81.5952 91.0821C82.6061 89.2777 83.7979 87.5806 85.152 86.0169C86.4998 84.4567 88.077 83.1101 89.8294 82.0233C89.8693 82.0018 89.9155 81.9949 89.96 82.0038C90.0044 82.0127 90.0444 82.0368 90.073 82.072C90.1007 82.1065 90.1157 82.1495 90.1157 82.1937C90.1157 82.238 90.1007 82.2809 90.073 82.3155C88.7347 83.7693 87.5433 85.3517 86.5162 87.0397C85.4951 88.6833 84.6149 90.4103 83.8852 92.2023C82.4745 95.8346 81.3822 99.5827 80.6207 103.404L79.4514 109.2C79.0616 111.148 78.6718 113.145 78.2333 115.142C77.3076 119.087 76.2357 123.08 74.4816 126.879C73.6129 128.78 72.5861 130.605 71.4121 132.334C70.2215 134.057 68.9194 135.7 67.5143 137.253C64.7125 140.211 61.7001 142.961 58.5005 145.484C55.3822 148.065 52.2152 150.452 49.1944 153.033C46.1844 155.514 43.4115 158.27 40.9115 161.264C36.0557 167.339 32.8654 174.573 31.6541 182.255C31.0612 186.107 30.9793 190.021 31.4105 193.895C31.923 197.792 32.7706 201.638 33.9441 205.389C35.0647 209.188 36.3315 212.987 37.4521 216.834C38.6341 220.702 39.4977 224.661 40.0345 228.669C40.2788 230.689 40.3765 232.724 40.3268 234.757C40.2709 236.786 40.0427 238.806 39.6447 240.796C39.2179 242.8 38.5127 244.735 37.5496 246.543C37.078 247.442 36.5406 248.305 35.9417 249.125C35.3328 249.921 34.6823 250.686 33.9928 251.414C33.9484 251.439 33.898 251.453 33.8466 251.453C33.7953 251.453 33.7449 251.439 33.7005 251.414C33.6517 251.316 33.603 251.219 33.7005 251.122Z" fill="#FDC898"/>
<path d="M56.5038 153.815C54.9421 154.654 53.4293 155.581 51.9726 156.591C50.502 157.598 49.102 158.705 47.7824 159.903C45.1446 162.255 42.8047 164.921 40.815 167.841C38.8178 170.731 37.1508 173.835 35.8453 177.095C34.5293 180.376 33.5023 183.766 32.7757 187.225C31.314 194.141 30.7294 201.301 29.4626 208.411C29.1215 210.165 28.7804 211.967 28.3419 213.72C27.9579 215.49 27.4533 217.231 26.8315 218.931C26.5392 219.808 26.2468 220.636 25.9058 221.513C25.5647 222.389 25.1749 223.169 24.7851 223.997C23.9998 225.624 23.0875 227.188 22.0567 228.672C22.0421 228.696 22.0225 228.717 21.9992 228.733C21.9759 228.749 21.9495 228.759 21.9217 228.764C21.8939 228.768 21.8655 228.767 21.8383 228.76C21.8111 228.752 21.7859 228.739 21.7643 228.721C21.6669 228.672 21.6669 228.575 21.7156 228.477C22.4952 226.87 23.226 225.263 23.8594 223.607L24.7364 221.074L25.4673 218.542C25.9058 216.837 26.3443 215.084 26.6366 213.33C26.929 211.577 27.27 209.873 27.5624 208.071C28.5855 201.057 29.2677 193.898 30.8268 186.787C31.5835 183.228 32.6934 179.753 34.14 176.413C35.5962 173.063 37.4094 169.878 39.5482 166.916C41.7325 163.987 44.2689 161.337 47.1003 159.026C49.9064 156.757 53.0034 154.874 56.3089 153.425C56.3369 153.409 56.3686 153.4 56.4011 153.399C56.4335 153.397 56.4657 153.405 56.4948 153.419C56.5238 153.434 56.5488 153.455 56.5674 153.482C56.586 153.508 56.5976 153.539 56.6013 153.571C56.6183 153.617 56.6177 153.667 56.5997 153.712C56.5817 153.757 56.5475 153.794 56.5038 153.815Z" fill="#FDC898"/>
<path d="M147.274 47.0565C148.687 50.5632 154.972 51.9756 158.675 52.8523C162.87 53.7439 166.967 55.049 170.904 56.7485C174.851 58.5018 178.018 62.7877 178.7 64.6385C180.21 68.6809 180.405 73.259 182.695 76.9117C185.765 81.7334 191.368 84.5582 194.145 89.5259C195.097 91.3388 195.739 93.2976 196.045 95.3216C196.859 100.659 195.954 106.117 193.463 110.907C196.338 107.449 199.261 103.942 201.161 99.8511C203.062 95.76 203.89 90.987 202.428 86.7498C200.966 82.5126 196.386 78.3728 193.463 74.0382C188.737 67.0737 188.006 58.2096 184.498 50.5632C182.744 46.7156 180.308 43.2577 177.872 39.7997C175.436 36.3418 173.194 33.1761 170.076 30.5948C166.958 28.0135 162.865 26.3089 158.967 24.653C152.828 22.1204 145.617 19.5878 139.868 22.8509C139.288 23.1041 138.832 23.5771 138.601 24.1659C138.554 24.6867 138.656 25.21 138.893 25.6757C140.16 28.9876 141.427 32.2994 142.742 35.6599C144.058 39.0205 143.23 43.3551 146.445 45.6928L147.274 47.0565Z" fill="#FDC898"/>
<path fill-rule="evenodd" clip-rule="evenodd" d="M122.717 148.408C117.113 143.811 112.91 137.737 110.585 130.874C109.27 127.124 108.928 122.4 108.1 118.504C105.956 107.984 106.054 107.302 105.031 101.409L104.933 100.532C105.372 98.5839 106.297 97.3664 106.2 96.6845C106.153 95.3749 106.51 94.0826 107.223 92.983C107.077 89.0868 107.028 86.3594 107.028 86.3594C97.2836 91.4245 89.2931 100.289 86.3697 110.857C83.4463 121.426 85.9312 133.65 93.5807 141.54C95.5296 143.586 97.7709 145.291 99.9634 147.044C110.936 155.965 120.8 166.168 129.343 177.435C129.392 174.464 128.613 171.493 127.882 168.571C126.176 161.85 124.471 155.129 122.717 148.408Z" fill="#FAB897"/>
<path d="M124.666 28.7899C119.344 29.7043 114.421 32.199 110.536 35.9493C110.44 36.0139 110.372 36.1143 110.349 36.2285C110.327 36.3426 110.35 36.4612 110.415 36.5581C110.479 36.655 110.58 36.7222 110.694 36.7451C110.808 36.7679 110.927 36.7444 111.024 36.6799C111.947 36.2613 112.91 35.935 113.898 35.7058C113.995 35.6894 114.094 35.7058 114.18 35.7523C114.266 35.7988 114.334 35.8727 114.373 35.9623C114.413 36.0518 114.421 36.152 114.396 36.2467C114.372 36.3414 114.317 36.4253 114.239 36.485C114.169 36.556 114.122 36.6468 114.105 36.7452C114.088 36.8437 114.102 36.9449 114.145 37.0353C114.187 37.1257 114.256 37.2008 114.343 37.2505C114.43 37.3001 114.53 37.322 114.629 37.313C115.76 36.9718 116.917 36.7274 118.089 36.5824C118.198 36.5437 118.319 36.5501 118.424 36.6004C118.529 36.6506 118.61 36.7405 118.649 36.8503C118.688 36.9601 118.681 37.0808 118.631 37.1858C118.581 37.2909 118.491 37.3717 118.381 37.4104C113.383 40.4283 109.029 44.4001 105.567 49.0992C105.483 49.1832 105.436 49.2971 105.436 49.4158C105.436 49.5345 105.483 49.6484 105.567 49.7324C105.651 49.8163 105.765 49.8635 105.883 49.8635C106.002 49.8635 106.116 49.8163 106.2 49.7324C109.746 47.2062 113.513 45.0056 117.455 43.1574C117.503 43.1254 117.557 43.1032 117.614 43.092C117.67 43.0808 117.728 43.0809 117.785 43.0922C117.841 43.1035 117.895 43.1258 117.943 43.1579C117.991 43.19 118.032 43.2312 118.064 43.2792C118.096 43.3271 118.118 43.3809 118.13 43.4375C118.141 43.494 118.141 43.5522 118.129 43.6088C118.118 43.6653 118.096 43.7191 118.064 43.767C118.032 43.8149 117.99 43.856 117.942 43.888L117.358 44.4237C117.267 44.4823 117.201 44.5723 117.173 44.6763C117.145 44.7803 117.156 44.8911 117.204 44.9876C117.252 45.084 117.334 45.1593 117.435 45.199C117.535 45.2388 117.646 45.2402 117.747 45.203L121.791 44.2289C121.881 44.2148 121.974 44.2291 122.055 44.2698C122.136 44.3104 122.203 44.3754 122.246 44.4557C122.289 44.536 122.306 44.6276 122.294 44.7179C122.283 44.8082 122.243 44.8926 122.181 44.9594C121.077 45.8816 120.138 46.9851 119.404 48.2226C119.35 48.3092 119.327 48.4121 119.341 48.5134C119.354 48.6148 119.403 48.7082 119.478 48.7775C119.553 48.8469 119.65 48.8878 119.752 48.8932C119.855 48.8985 119.955 48.8681 120.037 48.807C125.513 45.405 131.266 42.4723 137.237 40.0404C137.353 40.0146 137.454 39.9436 137.518 39.8431C137.582 39.7427 137.604 39.6209 137.578 39.5046C137.552 39.3884 137.481 39.2872 137.38 39.2232C137.28 39.1593 137.158 39.1379 137.042 39.1637C135.056 39.4449 133.1 39.9012 131.195 40.5274C131.092 40.5855 130.969 40.6002 130.855 40.5683C130.741 40.5363 130.644 40.4603 130.586 40.357C130.528 40.2536 130.513 40.1314 130.545 40.0173C130.577 39.9031 130.653 39.8063 130.757 39.7482L131.487 39.2124C131.565 39.1527 131.62 39.0688 131.644 38.9741C131.669 38.8794 131.66 38.7792 131.621 38.6897C131.582 38.6001 131.514 38.5262 131.428 38.4797C131.342 38.4332 131.243 38.4168 131.146 38.4332L125.494 39.3585C125.385 39.3973 125.264 39.3908 125.159 39.3406C125.054 39.2904 124.973 39.2005 124.934 39.0907C124.895 38.9809 124.902 38.8602 124.952 38.7551C125.002 38.6501 125.092 38.5693 125.202 38.5306C128.077 36.9073 131.055 35.4755 134.118 34.2447C134.235 34.2253 134.339 34.1605 134.407 34.0646C134.476 33.9687 134.503 33.8496 134.484 33.7333C134.464 33.617 134.4 33.5133 134.304 33.4447C134.208 33.3762 134.089 33.3486 133.972 33.368C131.33 33.367 128.692 33.5624 126.079 33.9525C125.969 33.9912 125.849 33.9848 125.743 33.9345C125.638 33.8843 125.558 33.7944 125.519 33.6846C125.48 33.5748 125.486 33.4541 125.537 33.3491C125.587 33.244 125.677 33.1633 125.787 33.1245L129.587 31.2251C129.697 31.1863 129.787 31.1055 129.837 31.0005C129.887 30.8955 129.894 30.7748 129.855 30.665C129.816 30.5552 129.736 30.4653 129.63 30.4151C129.525 30.3648 129.405 30.3584 129.295 30.3971C127.496 30.7287 125.734 31.2343 124.033 31.9069C123.932 31.9441 123.82 31.9427 123.72 31.903C123.62 31.8632 123.537 31.788 123.489 31.6915C123.441 31.5951 123.43 31.4843 123.458 31.3802C123.487 31.2762 123.552 31.1863 123.643 31.1277C124.713 30.3541 125.875 29.7161 127.102 29.2282C127.184 29.1669 127.245 29.0814 127.275 28.9838C127.306 28.8863 127.305 28.7816 127.272 28.6846C127.24 28.5876 127.178 28.5033 127.095 28.4435C127.012 28.3837 126.912 28.3516 126.81 28.3516L124.666 28.7899Z" fill="#FFEFE5"/>
<g opacity="0.6">
<path d="M184.985 157.275C183.426 153.379 178.944 143.735 178.895 139.547C178.846 136.138 178.456 131.365 180.6 122.744C182.988 113.344 188.055 108.523 187.714 95.178C187.032 85.9731 181.916 77.2551 179.626 71.2646C178.456 68.0502 176.215 65.3228 173.925 62.7902C172.505 61.175 170.957 59.6765 169.296 58.3095C162.914 53.293 152.243 51.4423 146.445 45.6953L149.953 48.6662C156.482 53.1956 154.436 50.9066 157.652 53.1469C159.408 54.3109 161.055 55.6313 162.573 57.0919C164.911 59.5271 166.568 62.498 167.883 65.5663C171.635 74.1868 173.389 84.0249 170.758 93.0351C169.54 97.1749 167.396 101.022 166.763 105.26C166.129 109.497 167.396 114.513 171.245 116.413C171.933 116.729 172.651 116.973 173.389 117.143L172.025 119.238C171.83 120.455 171.684 121.234 171.635 121.38C170.661 124.108 170.125 125.179 168.955 127.809C167.882 130.26 166.645 132.635 165.252 134.92C165.155 138.914 165.691 142.907 166.032 147.096C166.617 154.742 168.858 159.077 169.979 160.879C171.099 162.681 173.146 164.678 176.264 167.064C184.011 171.204 185.57 170.279 187.811 170.863C188.201 170.327 188.201 170.62 188.542 168.964C189.468 164.532 185.813 159.32 184.985 157.275Z" fill="#BA6929"/>
</g>
<path d="M143.911 47.0086C144.159 48.1338 144.627 49.199 145.287 50.1434C145.948 51.0877 146.788 51.8926 147.76 52.5121C149.709 53.7784 151.999 54.4603 154.143 55.3856C157.748 56.9441 161.159 59.428 163.059 62.886C164.959 66.3439 165.252 69.8506 167.736 72.3344C169.247 73.8929 171.488 75.9872 172.414 77.8379C174.265 81.6368 174.363 84.4616 175.24 88.6014C178.699 105.94 178.845 107.839 172.609 121.233C172.073 122.84 168.419 132.97 167.834 133.749C163.449 139.935 160.525 142.857 156.92 146.071C154.191 148.458 153.217 150.162 151.658 151.429C147.565 154.887 141.865 155.13 137.285 154.741C134.702 154.497 130.756 154.741 128.417 152.987C127.053 152.013 122.814 148.507 121.596 147.338C116.431 142.467 114.5 143 109.22 131.801C106.394 127.369 107.125 126.103 105.03 120.648C103.81 117.221 103.152 113.619 103.081 109.982C103.081 108.326 101.668 104.82 101.522 103.115C101.181 99.8032 100.888 94.1536 102.009 91.9132C104.932 86.3123 108.099 82.1725 109.074 75.9385C110.243 68.6817 112.338 61.7171 117.942 56.9929C120.524 54.7525 122.96 53.9732 126.176 52.7069C129.391 51.4407 132.315 50.1744 134.995 49.1029C136.591 48.4515 138.072 47.547 139.38 46.4242C140.549 45.4014 141.475 43.502 141.231 41.9922C141.231 41.9922 143.375 44.9144 143.911 47.0086Z" fill="#F59F90"/>
<g opacity="0.5">
<path d="M146.492 44.8212C138.015 61.0394 129.196 58.4094 123.398 70.0008C122.862 71.0723 121.498 72.6795 120.474 73.2153C116.138 75.3582 112.094 73.1178 103.178 77.696C103.86 73.5562 104.737 69.4651 106.345 65.6662C107.953 61.8673 110.437 58.2633 113.848 55.8768C117.259 53.4904 120.231 52.6137 123.641 51.4935L145.08 44.3828" fill="#EC8277"/>
</g>
<path d="M124.958 82.4123L126.42 83.2889C126.841 83.5176 127.234 83.7955 127.589 84.1169C128.125 84.6104 128.599 85.1664 129.002 85.7728C130.067 87.0449 130.862 88.5194 131.341 90.1074C131.559 89.1718 131.585 88.2018 131.417 87.256C131.25 86.3101 130.892 85.4079 130.366 84.6039C129.197 82.7532 129.197 81.8278 128.369 81.5356C127.54 81.2434 124.666 81.146 123.643 82.0226" fill="#EC8277"/>
<path d="M136.5 127.5L124.5 129L127 131.5H147L149.5 129L136.5 127.5Z" fill="#FF6D62"/>
<path d="M122.521 128.337C123 127.5 123.48 128.091 124 128C124.996 127.825 126.111 127.717 127.101 127.412C127.735 127.217 128.368 126.535 129.391 126.194C130.415 125.854 131.097 125.269 132.12 125.172C133.107 125.049 134.105 125.049 135.092 125.172C135.677 125.318 136.115 125.805 136.992 125.805C137.869 125.805 138.259 125.22 138.746 125.074C140.114 124.677 141.576 124.763 142.888 125.318C143.484 125.68 144.103 126.006 144.739 126.292C146.06 127.043 147.208 127.215 148 127.5C149.535 128.053 150.091 128.003 151.122 127.802C151.92 127.302 152.277 127.5 152.389 127.802C152.876 129.117 150.147 128.873 148.832 129.068C147.516 129.263 146.152 129.555 144.642 129.312C143.736 129.097 142.842 128.837 141.962 128.532C140.208 128.045 138.356 129.214 136.602 128.922L134.897 128.386C132.461 127.85 130.025 129.896 127.54 129.604C127.101 129.506 126.419 129.652 125.932 129.506L124.519 128.971L122.521 128.337Z" fill="#D63942"/>
<path d="M122.377 128.588C124.618 129.172 125.982 129.513 127.931 129.854C128.943 130.048 129.971 130.146 131.001 130.146C133.924 130.146 137.286 130.146 140.404 130.049C143.523 129.951 146.349 130.098 149.126 129.075C149.857 128.831 151.465 129.075 152.098 128.539C151.367 129.172 150.247 129.318 149.662 129.951C149.077 130.585 147.615 131.9 147.226 132.63C146.203 134.335 144.254 135.26 142.353 135.893C140.846 136.4 139.267 136.663 137.676 136.673C135.045 136.867 131.391 137.062 129.149 135.65C127.715 134.565 126.422 133.305 125.3 131.9C124.277 130.682 122.377 128.588 122.377 128.588Z" fill="#FF6D62"/>
<path d="M151.657 128.542C151.188 128.775 150.67 128.892 150.147 128.883L148.734 129.078C147.909 129.175 147.079 129.224 146.249 129.224C145.041 129.203 143.843 129.007 142.692 128.639C141.691 128.363 140.639 128.33 139.623 128.542C138.418 128.817 137.165 128.8 135.968 128.493C135.039 128.299 134.086 128.25 133.142 128.347C132.119 128.493 131.145 128.883 130.122 129.126C129.087 129.393 128.009 129.442 126.955 129.272C126.175 129.175 125.395 128.834 124.665 128.688L124 128.347C123.859 128.311 123 128.001 123 128.001C123 128.001 122.751 127.841 122.5 128.001C122.033 128.298 121.79 128.639 122.033 128.737L125.736 129.662C127.88 130.149 129.975 129.808 132.022 129.224C132.539 129.048 133.083 128.966 133.63 128.98C134.252 129.01 134.872 129.092 135.481 129.224C136.607 129.443 137.765 129.443 138.892 129.224C139.556 129.151 140.225 129.151 140.889 129.224C141.571 129.37 142.254 129.272 142.887 129.419C144.022 129.67 145.187 129.752 146.346 129.662C147.321 129.613 148.295 129.467 149.27 129.37C150.244 129.272 151.476 129.133 152.499 128.5C152.694 128.354 152.597 128.305 152.402 128.257C152.13 128.252 151.895 128.41 151.657 128.542Z" fill="#D63942"/>
<path d="M145.861 80.66C152.195 81.0983 153.316 77.1534 159.406 77.3969C161.55 77.4456 167.348 79.345 168.956 80.66C169.346 80.5626 169.199 80.1243 169.005 79.8321C168.81 79.5398 165.253 77.056 163.937 76.3741C162.979 75.7917 161.968 75.3024 160.917 74.913C158.48 74.2312 156.434 74.913 151.562 76.0332C150.441 76.3254 148.102 76.715 146.641 77.2508C146.128 77.4603 145.675 77.7953 145.325 78.2248C144.643 79.1502 145.228 80.6113 145.861 80.66Z" fill="#C5524A"/>
<path d="M145.519 80.909C147.268 81.0255 149.024 80.7938 150.683 80.2272C152.047 79.7401 153.314 79.0096 154.63 78.4252C156.169 77.7813 157.839 77.5141 159.502 77.6459C161.03 77.892 162.531 78.2834 163.985 78.8148C165.495 79.3018 167.2 79.8376 168.467 80.8603C168.662 81.0551 169.052 80.909 169.247 80.8116C169.442 80.7142 169.539 79.6914 169.003 79.2531C168.467 78.8148 167.493 78.1329 166.762 77.6459C166.031 77.1589 165.203 76.6231 164.423 76.1848C163.46 75.5812 162.43 75.0909 161.354 74.7237C159.551 74.188 157.699 74.4315 155.897 74.8211L151.853 75.7465C150.634 76.0387 149.465 76.2335 148.247 76.5744C147.029 76.9153 145.567 77.2076 144.836 78.279C144.106 79.3505 144.398 80.7142 145.519 80.909C145.762 80.9577 146.688 80.5194 146.152 80.422C145.616 80.3246 145.567 79.6914 145.567 79.3505C145.522 79.0697 145.553 78.7819 145.656 78.5167C145.758 78.2514 145.93 78.0181 146.152 77.8407C147.029 77.1589 148.247 76.9641 149.27 76.7205C151.414 76.2822 153.558 75.7465 155.702 75.2594C157.845 74.7724 158.82 74.675 160.379 75.1133C161.938 75.5516 163.546 76.5744 164.959 77.4998C165.784 77.9903 166.581 78.5269 167.346 79.107C167.444 79.1557 169.1 80.3246 168.613 80.5681H169.442C168.37 79.6914 166.908 79.1557 165.641 78.6687C164.085 78.1115 162.489 77.672 160.866 77.3537C159.295 77.0772 157.683 77.1436 156.14 77.5485C154.697 77.9519 153.307 78.5241 151.999 79.2531C150.183 80.1436 148.172 80.5624 146.152 80.4707C145.957 80.4707 145.567 80.4707 145.421 80.6655C145.275 80.8603 145.275 80.8603 145.519 80.909Z" fill="#C5524A"/>
<path d="M107.906 80.5165C110.683 78.7632 112.243 78.5684 114.094 78.6658C115.946 78.7632 118.138 80.0295 119.21 80.273C124.57 81.5393 124.082 80.76 127.395 81.5393C127.49 81.5641 127.59 81.5599 127.682 81.5272C127.774 81.4946 127.854 81.435 127.912 81.3562C127.97 81.2774 128.003 81.1831 128.006 81.0855C128.009 80.9878 127.983 80.8914 127.931 80.8087C127.542 79.3963 126.762 79.2015 125.544 78.3736C124.326 77.5456 115.946 76.7177 115.02 76.4741C112.194 75.841 108.832 77.8378 108.247 78.4223L107.906 80.5165Z" fill="#C5524A"/>
<path d="M108.246 80.7113C110 79.6398 111.705 78.9092 113.8 79.0067C115.895 79.1041 117.308 80.2242 119.111 80.6626C120.708 81.0681 122.339 81.3289 123.983 81.4418L125.494 81.5392C126.176 81.6366 126.956 81.9776 127.638 81.8315C127.844 81.8252 128.043 81.7498 128.202 81.6174C128.361 81.485 128.471 81.3031 128.515 81.1009C128.504 80.6509 128.369 80.2126 128.125 79.8346C127.686 79.1041 126.907 78.7144 126.225 78.2761C125.543 77.8378 124.081 77.4968 122.912 77.2533L118.234 76.5715L116.285 76.328L115.116 76.1332C112.923 75.7435 110.633 76.5228 108.782 77.5943C108.295 77.8865 107.807 78.1787 107.661 78.7144L107.369 80.5652C107.32 81.0035 108.343 80.8574 108.441 80.4678L108.684 78.9579C108.668 78.7581 108.702 78.5573 108.782 78.3735C108.684 78.5683 108.733 78.4709 108.831 78.4222L109.22 78.13C110.779 77.1559 112.777 76.4741 114.629 76.815C116.48 77.1559 119.403 77.4481 121.791 77.8378C122.892 77.9308 123.974 78.1767 125.007 78.5683C125.678 78.9045 126.301 79.3305 126.858 79.8346C127.1 80.1813 127.297 80.5578 127.443 80.9548C127.54 81.1983 127.54 81.1496 127.248 81.1009L126.712 81.0035C125.711 80.8556 124.702 80.758 123.691 80.7113C122.031 80.6034 120.393 80.2759 118.819 79.7372C117.016 79.1041 115.359 78.2761 113.362 78.3248C111.364 78.3735 109.367 79.2015 107.564 80.3217C107.52 80.3365 107.481 80.3636 107.452 80.3997C107.423 80.4357 107.405 80.4793 107.4 80.5253C107.395 80.5713 107.403 80.6178 107.423 80.6594C107.444 80.7009 107.476 80.7358 107.515 80.76C107.71 80.9548 108.051 80.8087 108.246 80.7113Z" fill="#C5524A"/>
<path d="M174.899 101.653C174.947 105.257 175.288 109.64 174.655 112.952C174.265 114.803 174.119 116.702 173.534 118.456C173.272 119.121 173.06 119.804 172.901 120.501C172.776 121.249 172.826 122.016 173.047 122.741C173.437 123.618 175.824 122.011 176.214 121.086C177.871 116.702 178.407 111.394 179.43 106.475C179.966 103.845 180.648 101.312 181.281 98.7307C181.915 96.1494 181.281 87.7237 178.845 87.6263C177.724 87.5776 177.286 88.8926 176.896 90.4024C176.701 91.1817 176.653 92.1557 176.312 92.7402C175.97 93.3246 175.045 92.6915 174.801 91.7174C174.704 92.5454 174.411 93.2759 174.509 94.0552C174.509 94.0552 174.85 98.682 174.899 101.653Z" fill="#F79C88"/>
<path d="M145.472 32.9285C144.449 30.0063 139.43 22.0676 139.43 22.0676C137.579 21.1423 131.196 20.1195 121.744 22.165C107.809 25.2334 88.6607 41.5977 79.5982 62.1019C78.3702 64.9741 77.6609 68.0411 77.5032 71.1607C76.7236 85.3334 80.2316 99.7983 76.8698 113.533C72.0949 132.917 54.9931 146.407 44.3715 163.259C32.1908 182.545 28.634 206.167 29.0725 228.96C29.5597 255.698 35.6014 283.118 51.2414 304.791C46.6615 288.816 46.564 271.965 46.7589 255.357C47.0026 235.048 48.3668 212.936 61.6195 197.546C59.3782 204.852 57.0882 212.303 57.6242 219.95C58.3063 229.301 63.1786 237.775 67.9534 245.86C74.7747 257.354 81.5472 268.897 88.3197 280.391C87.7837 272.062 82.3755 264.854 80.1829 256.818C77.6981 247.759 79.4521 237.873 83.8372 229.544C88.2222 221.216 95.0922 214.446 102.742 208.991C109.319 204.316 114.484 198.325 120.72 193.163C124.911 189.656 127.249 186.296 128.419 182.984C134.558 172.805 129.198 156.489 121.597 147.333C118.382 143.534 117 144 108.978 131.358C108.004 129.507 106.591 122.932 103.911 112.315C102.401 106.13 100.89 97.9963 102.401 91.9083C103.18 89.0348 105.032 86.9406 106.055 85.4308C113.753 74.3751 113.656 65.5111 121.939 58.3517C124.911 55.7704 136.702 54.2119 139.43 52.9943C144.4 50.754 144.985 46.2732 146.446 45.6888C146.446 45.6888 146.641 36.1429 145.472 32.9285Z" fill="#FDC898"/>
<path d="M130.025 114.805C130.316 114.725 130.622 114.715 130.917 114.774C131.213 114.833 131.492 114.961 131.73 115.145C132.168 115.535 132.461 116.168 132.899 116.607C133.273 116.965 133.717 117.241 134.204 117.417C134.691 117.594 135.209 117.666 135.725 117.629C136.906 117.656 138.07 117.352 139.087 116.753C140.159 116.071 141.085 114.707 142.449 114.658C142.985 114.658 143.18 113.977 142.547 113.977C141.913 113.977 140.257 114.902 139.282 115.681C138.78 116.143 138.187 116.494 137.541 116.712C136.894 116.931 136.21 117.011 135.53 116.947C134.945 116.933 134.38 116.728 133.923 116.363C133.387 115.925 133.094 115.292 132.656 114.805C132.217 114.317 130.804 113.977 129.83 114.171C128.855 114.366 129.44 114.902 130.025 114.805Z" fill="#D63942"/>
<path d="M129.537 114.462C129.208 114.51 128.893 114.626 128.612 114.803C128.443 114.906 128.295 115.038 128.173 115.192C128.126 115.283 128.102 115.383 128.102 115.485C128.102 115.586 128.126 115.687 128.173 115.777C128.319 115.972 128.612 115.972 128.855 115.972C129.771 115.842 130.669 115.614 131.535 115.29C131.584 115.241 131.681 115.241 131.681 115.144C131.681 115.046 131.681 114.949 131.584 114.852C131.053 114.5 130.409 114.361 129.781 114.462H129.391" fill="#D63942"/>
<path d="M141.28 114.605C141.63 114.434 142.011 114.334 142.401 114.312C142.604 114.324 142.801 114.388 142.972 114.499C143.143 114.611 143.282 114.764 143.375 114.946C143.401 114.99 143.414 115.04 143.414 115.092C143.414 115.143 143.401 115.193 143.375 115.238C143.33 115.298 143.271 115.347 143.203 115.381C143.136 115.415 143.061 115.433 142.985 115.433L142.352 115.627L141.426 115.871C140.915 115.921 140.409 116.019 139.916 116.163C139.867 116.163 139.867 116.066 139.867 116.017L140.013 115.822C140.471 115.455 140.895 115.047 141.28 114.605Z" fill="#D63942"/>
<path d="M141.477 114.9L142.11 114.705C142.274 114.668 142.444 114.685 142.597 114.753C142.715 114.807 142.816 114.891 142.89 114.997C142.888 115.023 142.891 115.05 142.899 115.075C142.907 115.1 142.921 115.123 142.938 115.143H142.987C142.938 115.192 143.036 115.143 142.938 115.143H142.792C142.302 115.318 141.796 115.449 141.282 115.533C140.752 115.594 140.23 115.709 139.723 115.874H140.307C140.356 115.874 140.307 116.068 140.259 116.068C140.21 116.068 140.356 115.971 140.356 115.971L140.551 115.825L140.99 115.435L141.672 114.705C141.713 114.674 141.743 114.631 141.758 114.583C141.773 114.534 141.773 114.481 141.757 114.433C141.74 114.384 141.709 114.342 141.668 114.312C141.626 114.282 141.577 114.266 141.526 114.266C141.417 114.225 141.299 114.217 141.187 114.243C141.074 114.269 140.971 114.328 140.892 114.412L140.21 115.094C140.109 115.22 139.995 115.334 139.869 115.435C139.701 115.538 139.552 115.67 139.43 115.825C139.403 115.905 139.393 115.99 139.401 116.074C139.41 116.158 139.436 116.239 139.479 116.312C139.571 116.41 139.694 116.473 139.827 116.49C139.96 116.508 140.096 116.479 140.21 116.409L141.087 116.215C141.795 116.099 142.495 115.936 143.182 115.727C143.523 115.581 143.913 115.338 143.864 114.9C143.798 114.604 143.625 114.343 143.377 114.169C142.646 113.731 141.769 113.974 141.038 114.266C140.989 114.287 140.945 114.318 140.908 114.357C140.871 114.396 140.843 114.442 140.824 114.492C140.806 114.542 140.798 114.596 140.802 114.649C140.805 114.702 140.819 114.754 140.843 114.802C140.99 114.997 141.282 114.948 141.477 114.851V114.9Z" fill="#D63942"/>
<g opacity="0.35">
<path d="M111.998 127.897C112.982 125.986 113.656 123.931 113.996 121.809C114.531 117.767 113.362 113.724 112.242 109.828C111.9 108.513 111.511 107.198 110.682 106.175C109.854 105.152 108.49 104.373 107.223 104.714C105.956 105.055 105.372 106.029 104.982 107.101C104.698 108.197 104.632 109.339 104.787 110.461C104.9 112.555 105.16 114.638 105.566 116.695C106.102 119.763 106.931 122.929 108.831 125.364C109.655 126.457 110.68 127.383 111.852 128.092" fill="#EC8277"/>
<path d="M112.68 127.804C113.557 126.084 114.18 124.247 114.532 122.349C114.864 120.449 114.881 118.508 114.581 116.602C114.282 114.625 113.842 112.672 113.265 110.758C112.778 109.102 112.388 107.3 111.316 105.936C110.879 105.34 110.278 104.884 109.585 104.625C108.893 104.365 108.14 104.313 107.418 104.475C106.681 104.613 105.998 104.956 105.446 105.464C104.895 105.972 104.498 106.625 104.3 107.349C103.764 109.102 104.056 111.147 104.3 112.998C104.49 114.915 104.799 116.818 105.226 118.696C106.103 122.544 107.759 126.148 111.17 128.34C111.414 128.486 111.852 128.34 112.047 128.291C112.242 128.242 112.68 127.999 112.485 127.901C109.708 126.099 108.052 123.372 107.126 120.304C106.188 117.051 105.632 113.701 105.469 110.319C105.372 108.664 105.323 106.764 106.493 105.498C106.741 105.197 107.085 104.991 107.467 104.913C107.805 104.925 108.138 105.008 108.441 105.157C109.161 105.479 109.77 106.003 110.196 106.667C111.121 107.982 111.462 109.638 111.901 111.147C112.399 112.878 112.806 114.634 113.119 116.407C113.492 118.45 113.525 120.54 113.216 122.593C112.826 124.487 112.187 126.321 111.316 128.048C111.17 128.242 111.803 128.194 111.852 128.145C112.007 128.151 112.161 128.124 112.304 128.065C112.447 128.006 112.575 127.917 112.68 127.804Z" fill="#EC8277"/>
</g>
<g opacity="0.35">
<path d="M165.839 121.969C166.716 121.141 166.911 120.557 167.788 119.68C168.665 118.804 170.955 116.417 171.929 114.372C172.559 112.907 173.001 111.369 173.245 109.794L174.024 106.092C174.226 105.462 174.259 104.791 174.122 104.144C173.829 102.926 172.465 102.196 171.198 102.244C169.932 102.293 168.762 102.878 167.69 103.511C166.391 104.298 165.138 105.16 163.939 106.092C162.828 106.849 161.924 107.87 161.308 109.063C160.82 110.183 160.82 111.401 160.82 112.618V117.489C160.82 118.511 160.82 119.632 161.454 120.508C161.9 121.033 162.446 121.464 163.062 121.775C163.939 122.262 165.157 122.7 165.839 121.969Z" fill="#EC8277"/>
<path d="M166.374 121.969C166.958 121.336 167.446 120.606 168.03 119.972C168.615 119.339 169.346 118.609 169.979 117.878C171.302 116.492 172.33 114.851 173 113.057C173.682 111.108 173.975 108.965 174.413 106.969C174.608 106.043 174.949 105.02 174.754 104.095C174.67 103.739 174.509 103.406 174.282 103.12C174.054 102.834 173.766 102.601 173.439 102.439C171.977 101.611 170.223 101.952 168.761 102.634C166.988 103.521 165.307 104.581 163.743 105.8C162.379 106.871 161.014 108.04 160.527 109.745C160.286 110.666 160.187 111.618 160.235 112.569V115.833C160.235 117.878 159.894 120.216 161.794 121.531C163.694 122.846 165.01 123.284 166.374 121.969C166.569 121.726 166.179 121.677 166.033 121.677C165.897 121.672 165.762 121.696 165.637 121.746C165.511 121.796 165.397 121.872 165.302 121.969C164.863 122.408 163.645 121.58 163.304 121.336C162.552 121.005 161.957 120.393 161.648 119.631C161.441 118.954 161.359 118.244 161.404 117.537V114.664C161.404 112.959 161.209 111.06 161.745 109.355C162.281 107.65 163.499 106.774 164.766 105.848C166.141 104.778 167.608 103.833 169.151 103.024C170.515 102.39 172.269 102.244 173.244 103.608C173.451 103.966 173.58 104.364 173.622 104.775C173.664 105.187 173.618 105.602 173.487 105.995C173.341 106.822 173.146 107.65 173 108.478C172.61 110.134 172.318 111.839 171.782 113.446C171.074 115.19 170.031 116.778 168.713 118.122C168.079 118.804 167.397 119.437 166.812 120.167C166.35 120.801 165.846 121.403 165.302 121.969C165.058 122.164 165.448 122.261 165.594 122.261C165.876 122.239 166.146 122.138 166.374 121.969Z" fill="#EC8277"/>
</g>
<path d="M142.109 91.3763C141.245 90.3873 140.747 89.1326 140.696 87.821C140.55 86.6034 140.647 85.2397 141.573 84.4117C142.013 84.033 142.527 83.7509 143.083 83.5838L147.078 81.9766C146.104 82.9506 145.129 83.9734 144.204 85.0449C143.625 85.5878 143.176 86.2535 142.888 86.993C142.748 87.5004 142.683 88.0253 142.693 88.5515L142.547 91.9121L142.109 91.3763Z" fill="#EC8277"/>
<g opacity="0.5">
<path d="M108.977 131.361C108.052 129.51 106.59 122.935 103.91 112.318C102.4 106.133 100.889 97.9991 102.4 91.9112C103.179 89.0377 105.031 86.9435 106.054 85.4337C113.606 74.5728 114.678 71.9428 121.791 59.1825C121.645 58.5494 121.548 57.9162 121.402 57.2344H121.256L104.154 77.495C88.9522 95.4666 72.8736 115.825 73.6044 139.348C73.7993 145.339 74.8712 151.232 74.92 157.174C75.2123 182.792 69.804 182.548 60.0594 191.899C55.5769 196.185 51.6303 204.075 50.0225 208.702C47.8787 215.082 45.0527 241.333 45.004 248.103C44.9553 254.142 45.7836 273.575 45.7836 273.575L47.294 274.89C47.294 274.89 46.6606 261.594 46.7581 255.311C47.0017 235.002 48.3659 212.891 61.6186 197.5C59.3773 204.806 57.0873 212.257 57.6233 219.904C58.3054 229.255 63.1777 237.729 67.9526 245.814C74.7738 257.308 81.5463 268.851 88.3188 280.345C87.7828 272.016 82.3746 264.808 80.182 256.772C77.6972 247.713 79.4512 237.827 83.8363 229.498C88.2214 221.17 95.0913 214.4 102.741 208.946C109.318 204.27 114.483 198.28 120.72 193.117C124.91 189.61 127.248 186.25 128.418 182.938C134.557 172.759 129.197 156.443 121.597 147.287C118.381 143.537 116 142.5 108.977 131.361Z" fill="#F4B98B"/>
</g>
<g opacity="0.35">
<path d="M92.8993 163.407C96.0175 178.651 71.7535 185.762 61.6191 197.548C59.3778 204.854 57.0879 212.305 57.6238 219.952C58.3059 229.303 63.1782 237.777 67.9531 245.862C74.7743 257.356 81.5468 268.899 88.3193 280.393C87.7833 272.065 82.3751 264.856 80.1826 256.82C77.6977 247.762 79.4517 237.875 83.8368 229.546C88.2219 221.218 95.0918 214.448 102.741 208.994C108.101 205.195 112.535 200.519 117.31 196.136L117.602 194.87C122.523 168.765 90.1221 149.965 92.8993 163.407Z" fill="#F4B98B"/>
</g>
<g opacity="0.5">
<path d="M146.445 45.6905C146.483 45.3998 146.499 45.1068 146.494 44.8138C146.022 44.6667 145.525 44.617 145.032 44.6677L144.107 45.3495C137.578 49.3919 129.49 49.7328 121.938 51.2426C112.924 52.996 104.154 56.6 97.089 62.4444C90.0242 68.2888 84.7621 76.5197 83.3004 85.5786C82.5209 90.4489 82.8619 95.4167 83.4953 100.336C85.0608 112.612 88.5637 124.563 93.8733 135.743C100.159 148.942 109.124 161.799 108.977 176.41C108.88 188.002 102.985 198.668 96.9429 208.555C94.8478 212.061 92.5091 215.665 88.8549 217.516C90.0844 217.653 91.3208 217.718 92.5578 217.711C95.6641 214.485 99.0743 211.565 102.741 208.993C109.319 204.318 114.483 198.327 120.72 193.164C124.91 189.658 127.249 186.297 128.418 182.985C134.557 172.806 129.198 156.491 121.597 147.335C118.381 143.536 116.042 145.192 108.977 131.36C108.003 129.509 106.59 122.934 103.91 112.317C102.4 106.131 100.889 97.9979 102.4 91.91C103.179 89.0365 105.031 86.9423 106.054 85.4325C113.752 74.3768 117.407 63.5159 121.938 58.3534C124.52 55.3824 136.701 54.2136 139.429 52.996C144.399 50.7556 144.984 46.2749 146.445 45.6905Z" fill="#F4B98B"/>
</g>
<g opacity="0.75">
<path d="M122.668 148.317C119.501 144.518 116 143 108.977 131.368C108.003 129.518 106.492 122.602 103.812 111.936C102.399 106.043 101.035 98.8346 102.204 92.8441C102.156 92.6493 104.153 87.8276 104.105 87.6328L101.327 91.8213L98.8426 96.3507C98.599 98.5911 98.5015 100.831 98.4041 103.072C98.1848 106.593 98.2336 110.126 98.5503 113.64C100.109 126.742 108.831 137.749 116.383 148.609C123.399 158.691 129.879 170.477 128.661 182.507C134.41 172.328 130.172 157.327 122.668 148.317Z" fill="#C5524A"/>
</g>
<g opacity="0.3">
<path d="M146.446 45.6958C145.326 45.6471 143.133 49.4946 140.697 50.3713C138.261 51.248 135.727 51.4915 133.242 52.1246C131.537 52.563 129.88 53.1474 128.272 53.7318C127.034 54.1207 125.841 54.6433 124.716 55.2904C122.718 56.5079 121.305 58.4561 120.136 60.5016C118.966 62.5472 118.138 64.7388 116.969 66.7843C118.138 64.8362 119.356 62.9368 120.623 61.0861C121.561 59.8723 122.659 58.791 123.887 57.8716C125.641 56.654 127.249 56.5566 129.344 56.1183C132.609 55.5665 135.82 54.7355 138.943 53.6344C140.664 53.0704 142.175 52.0011 143.279 50.5661C143.547 50.0585 143.874 49.5843 144.254 49.1537C145.228 48.1309 146.641 47.0108 146.446 45.6958Z" fill="#BA6929"/>
</g>
<path d="M130.305 90.9863C130.8 90.0781 125.21 84.5473 120.123 84.3045C115.037 84.0617 111.645 87.2185 111.616 88.152C111.557 90.0182 113.323 92.8082 119.938 93.0219C123.744 92.8403 129.875 91.7765 130.305 90.9863Z" fill="url(#paint0_linear_1708_10568)"/>
<path d="M123.324 88.9908C123.772 86.5652 122.285 84.244 120.003 83.8061C117.722 83.3683 115.509 84.9796 115.062 87.4051C114.615 89.8306 116.102 92.1518 118.383 92.5897C120.665 93.0276 122.877 91.4163 123.324 88.9908Z" fill="url(#paint1_linear_1708_10568)"/>
<path d="M120.568 92.5023C122.617 91.6659 123.663 89.2368 122.905 87.0769C122.146 84.9171 119.871 83.8443 117.821 84.6807C115.772 85.5172 114.726 87.9462 115.484 90.1061C116.243 92.266 118.519 93.3388 120.568 92.5023Z" fill="url(#paint2_linear_1708_10568)"/>
<path style="mix-blend-mode:multiply" d="M118.959 90.4381C119.914 90.559 120.792 89.8349 120.92 88.8209C121.049 87.8068 120.379 86.8867 119.424 86.7658C118.469 86.6449 117.591 87.3689 117.463 88.383C117.334 89.3971 118.004 90.3171 118.959 90.4381Z" fill="url(#paint3_linear_1708_10568)"/>
<path d="M121.89 87.7812C121.515 87.9751 122.841 88.4736 123.976 88.3583C124.993 88.2557 125.619 87.7554 125.567 87.6149C125.515 87.4744 123.374 87.022 121.89 87.7812Z" fill="white"/>
<path d="M121.039 87.8229C120.701 87.5568 120.19 87.6328 120.105 87.852C120.02 88.0712 120.409 88.5033 120.657 88.4798C120.904 88.4562 121.227 87.9717 121.039 87.8229Z" fill="white"/>
<path d="M127.41 87.6034C127.41 87.6034 130.206 91.6603 125.746 91.7175C125.746 91.7175 129.968 92.3481 130.7 91.3184C131.066 90.8035 127.41 87.6034 127.41 87.6034Z" fill="#EC8277"/>
<path d="M130.222 90.7023C130.222 90.7023 127.472 82.3786 120.045 82.5725C112.619 82.7663 112.081 87.3855 112.081 87.3855C112.081 87.3855 114.101 84.4322 119.85 84.5647C125.233 84.6884 130.222 90.7023 130.222 90.7023Z" fill="#421D13"/>
<path d="M111.616 88.1638L110.774 89.3854C110.774 89.3854 112.737 93.4742 118.802 93.6185C124.867 93.7627 127.373 92.4352 128.802 92.1812C128.969 92.1514 129.416 91.4569 129.416 91.4569C129.416 91.4569 128.055 91.2766 126.32 91.6265C121.684 92.561 113.162 94.0124 111.616 88.1638Z" fill="#EC8277"/>
<path d="M130.223 90.696C130.223 90.696 125.039 84.6928 119.375 84.5702C111.347 85.382 111.027 89.6435 111.027 89.6435L107.464 89.0971C107.464 89.0971 110.586 85.7682 111.83 84.9615C113.975 83.5706 114.93 83.1434 117.799 82.6422C124.244 81.5162 127.582 87.1243 130.223 90.696Z" fill="#4E1B3D"/>
<g style="mix-blend-mode:multiply" opacity="0.6">
<path d="M129.895 89.9932C129.895 89.9932 121.178 82.908 111.932 88.5612L110.774 89.3856C110.774 89.3856 111.772 85.1963 119.058 84.3078C124.98 83.8951 129.179 89.0479 129.895 89.9932Z" fill="#D177B8"/>
</g>
<path d="M146.061 90.174C145.649 89.2032 151.827 84.1298 156.986 84.3792C162.146 84.6285 165.266 88.1662 165.205 89.1173C165.084 91.0189 163.032 93.6809 156.332 93.253C152.507 92.6974 146.419 91.0187 146.061 90.174Z" fill="url(#paint4_linear_1708_10568)"/>
<path d="M152.24 88.7256C152.022 86.218 153.747 84.005 156.093 83.7826C158.439 83.5603 160.517 85.4129 160.735 87.9205C160.953 90.4281 159.227 92.6412 156.881 92.8635C154.535 93.0858 152.457 91.2332 152.24 88.7256Z" fill="url(#paint5_linear_1708_10568)"/>
<path d="M154.685 92.5587C152.696 91.5091 151.874 88.9396 152.849 86.8194C153.823 84.6992 156.224 83.8313 158.213 84.8809C160.201 85.9304 161.023 88.5 160.049 90.6202C159.074 92.7404 156.673 93.6083 154.685 92.5587Z" fill="url(#paint6_linear_1708_10568)"/>
<path style="mix-blend-mode:multiply" d="M156.507 90.6265C155.531 90.6563 154.714 89.8351 154.682 88.7924C154.651 87.7498 155.416 86.8804 156.392 86.8507C157.367 86.821 158.184 87.6421 158.216 88.6848C158.247 89.7275 157.482 90.5968 156.507 90.6265Z" fill="url(#paint7_linear_1708_10568)"/>
<path d="M156.931 87.0152C156.571 87.2488 157.958 87.626 159.094 87.3981C160.11 87.1948 160.694 86.6254 160.628 86.4877C160.562 86.35 158.357 86.0992 156.931 87.0152Z" fill="white"/>
<path d="M156.075 87.136C155.708 86.8987 155.199 87.0258 155.135 87.2567C155.07 87.4877 155.505 87.8887 155.753 87.8406C156 87.7926 156.279 87.2688 156.075 87.136Z" fill="white"/>
<path d="M149.309 87.0194C149.309 87.0194 146.094 90.868 150.592 91.3611C150.592 91.3611 146.269 91.5899 145.629 90.4725C145.309 89.9138 149.309 87.0194 149.309 87.0194Z" fill="#EC8277"/>
<path d="M146.17 89.8927C146.17 89.8927 149.751 81.7053 157.231 82.6264C164.711 83.5475 164.808 88.2924 164.808 88.2924C164.808 88.2924 163.053 85.0952 157.236 84.6693C151.788 84.27 146.17 89.8927 146.17 89.8927Z" fill="#421D13"/>
<path d="M165.203 89.1226L165.935 90.4458C165.935 90.4458 163.558 94.408 157.421 93.963C151.283 93.5181 148.881 91.9253 147.463 91.5278C147.296 91.4812 146.913 90.7322 146.913 90.7322C146.913 90.7322 148.304 90.6818 150.022 91.2063C154.613 92.6078 163.078 94.9133 165.203 89.1226Z" fill="#EC8277"/>
<path d="M146.171 89.8934C146.171 89.8934 151.985 84.3005 157.716 84.7283C165.743 86.3357 165.654 90.696 165.654 90.696L169.305 90.4885C169.305 90.4885 166.474 86.8023 165.296 85.8615C163.265 84.2394 162.342 83.7124 159.493 82.9234C153.094 81.1511 149.182 86.5225 146.171 89.8934Z" fill="#4E1B3D"/>
<g style="mix-blend-mode:multiply" opacity="0.6">
<path d="M146.571 89.2041C146.571 89.2041 156.057 82.8566 164.846 89.5011L165.937 90.4515C165.937 90.4515 165.333 86.0984 158.062 84.4854C152.123 83.4886 147.385 88.3136 146.571 89.2041Z" fill="#D177B8"/>
</g>
<path d="M138.715 117.69C139.875 117.2 141.166 117.118 142.359 116.693C142.551 116.64 142.73 116.545 142.882 116.415C143.192 116.089 143.176 115.517 142.963 115.108C142.539 114.357 141.493 114.062 140.774 114.504C140.454 114.739 140.182 115.033 139.973 115.37C139.509 116.047 139.094 116.757 138.731 117.494" fill="#603030"/>
<path d="M128.547 115.605C128.555 115.838 128.626 116.066 128.754 116.269C128.883 116.472 129.064 116.644 129.283 116.77C129.727 117.006 130.209 117.176 130.713 117.275C131.812 117.52 132.926 117.708 134.049 117.838C134.244 117.857 134.504 117.838 134.547 117.663C134.545 117.6 134.523 117.539 134.482 117.488L133.442 115.469C133.327 115.226 133.189 114.992 133.031 114.77C132.738 114.429 132.348 114.165 131.902 114.008C131.455 113.851 130.969 113.805 130.496 113.877C129.565 114.013 129.088 114.653 128.59 115.391L128.547 115.605Z" fill="#603030"/>
<path d="M130.547 114.262C131.445 114.262 132.181 114.507 132.671 115.275C133.161 116.043 133.227 116.647 133.684 117.252C134.566 118.412 136.707 118.935 137.982 118.232C139.256 117.53 139.387 116.239 140.286 115.079C140.449 114.883 140.612 114.67 140.858 114.588C141.397 114.376 142.59 114.768 142.884 115.275C143.178 115.781 143.096 116.549 143.832 116.696C144.207 116.762 144.632 116.549 144.926 116.321C145.564 115.847 145.841 115.34 145.874 114.588C145.907 113.837 145.76 109.882 145.384 109C145.4 109.768 145.368 113.984 143.521 113.771C142.23 113.624 142.982 111.827 141.233 112.007C141.027 112.011 140.825 112.062 140.641 112.155C140.457 112.248 140.296 112.382 140.171 112.546C139.42 113.559 138.014 114.507 136.397 114.507C135.334 114.507 134.174 114.36 133.374 113.379C133.047 113.003 132.687 112.268 131.691 112.219C130.204 112.137 130.105 113.608 129.158 113.608C128.52 113.624 126.935 113.379 126.429 111.288C126.314 110.863 126.331 110.013 126.151 109.605C125.841 111.304 125.939 115.373 127.115 116.141C127.303 116.288 127.533 116.37 127.772 116.376C128.01 116.382 128.244 116.311 128.439 116.174C129.158 115.683 129.991 114.262 130.547 114.262Z" fill="#D1655A"/>
</g>
</g>
<defs>
<linearGradient id="paint0_linear_1708_10568" x1="121.615" y1="93.3545" x2="119.897" y2="83.751" gradientUnits="userSpaceOnUse">
<stop stop-color="#EEE2FF"/>
<stop offset="1" stop-color="#BDC9FB"/>
</linearGradient>
<linearGradient id="paint1_linear_1708_10568" x1="120.556" y1="92.6667" x2="118.587" y2="84.0571" gradientUnits="userSpaceOnUse">
<stop stop-color="#471F4B"/>
<stop offset="1" stop-color="#310A39"/>
</linearGradient>
<linearGradient id="paint2_linear_1708_10568" x1="119.658" y1="92.8873" x2="117.826" y2="84.7259" gradientUnits="userSpaceOnUse">
<stop stop-color="#6A8487"/>
<stop offset="1" stop-color="#083039"/>
</linearGradient>
<linearGradient id="paint3_linear_1708_10568" x1="119.322" y1="90.2913" x2="118.526" y2="86.692" gradientUnits="userSpaceOnUse">
<stop stop-color="#A79ABD"/>
<stop offset="0.99" stop-color="#724A60"/>
</linearGradient>
<linearGradient id="paint4_linear_1708_10568" x1="154.607" y1="93.4273" x2="157.302" y2="83.8484" gradientUnits="userSpaceOnUse">
<stop stop-color="#EEE2FF"/>
<stop offset="1" stop-color="#BDC9FB"/>
</linearGradient>
<linearGradient id="paint5_linear_1708_10568" x1="154.68" y1="92.7298" x2="157.533" y2="84.1869" gradientUnits="userSpaceOnUse">
<stop stop-color="#471F4B"/>
<stop offset="1" stop-color="#310A39"/>
</linearGradient>
<linearGradient id="paint6_linear_1708_10568" x1="155.566" y1="93.0385" x2="158.235" y2="84.9367" gradientUnits="userSpaceOnUse">
<stop stop-color="#6A8487"/>
<stop offset="1" stop-color="#083039"/>
</linearGradient>
<linearGradient id="paint7_linear_1708_10568" x1="156.154" y1="90.4421" x2="157.319" y2="86.8679" gradientUnits="userSpaceOnUse">
<stop stop-color="#A79ABD"/>
<stop offset="0.99" stop-color="#724A60"/>
</linearGradient>
<clipPath id="clip0_1708_10568">
<rect width="232" height="229" fill="white" transform="translate(18 21)"/>
</clipPath>
</defs>
</svg>
