<svg width="291" height="290" viewBox="0 0 291 290" fill="none" xmlns="http://www.w3.org/2000/svg">
<g filter="url(#filter0_b_1170_2665)">
<rect x="0.5" width="290" height="290" rx="60" fill="#00007E"/>
</g>
<mask id="mask0_1170_2665" style="mask-type:alpha" maskUnits="userSpaceOnUse" x="21" y="20" width="250" height="250">
<rect x="21" y="20" width="250" height="250" rx="60" fill="#C4C4C4"/>
</mask>
<g mask="url(#mask0_1170_2665)">
<path d="M138.345 15.0391C127.375 23.8962 112.471 27.5404 98.3388 30.2117C81.5934 33.3744 63.8051 36.28 50.8144 47.3076C28.8219 65.9805 29.0577 99.7741 16 125.419V15.0391V275.039H276V15.0391H138.345ZM16 260.08V166.886C33.5618 175.047 45.7383 192.843 45.7383 213.483C45.7383 234.124 33.5618 251.92 16 260.08ZM275.924 135.584V275.039H89.4411C71.2325 252.906 60.299 224.562 60.299 193.663C60.299 122.878 117.682 65.494 188.468 65.494C222.274 65.494 253.023 78.5824 275.924 99.9707V135.584Z" fill="#66C3CD"/>
<path d="M16 166.883V260.077C33.5618 251.916 45.7383 234.12 45.7383 213.48C45.7383 192.839 33.5618 175.044 16 166.883Z" fill="#150DCE"/>
<path d="M50.8144 47.3076C63.8051 36.2786 81.5934 33.373 98.3388 30.2117C112.471 27.5419 127.378 23.8976 138.345 15.0391H16V125.419C29.0577 99.7741 28.8219 65.9805 50.8144 47.3076Z" fill="#150DCE"/>
<path d="M60.2988 193.664C60.2988 224.562 71.2324 252.907 89.4409 275.039H123.904C114.058 259.043 108.375 240.206 108.375 220.048C108.375 162.025 155.411 114.989 213.433 114.989C236.84 114.989 258.457 122.644 275.921 135.585V99.9689C253.02 78.5834 222.271 65.4922 188.465 65.4922C117.682 65.4943 60.2988 122.878 60.2988 193.664Z" fill="#150DCE"/>
<path d="M108.378 220.044C108.378 240.203 114.057 259.041 123.907 275.036H275.924V135.581C258.46 122.639 236.842 114.984 213.436 114.984C155.414 114.984 108.378 162.02 108.378 220.044Z" fill="#00007E"/>
<path d="M276 248.356C273.889 238.161 268.707 228.315 263.041 219.683C260.555 215.895 257.665 212.3 254.015 209.615C251.083 207.459 247.739 205.944 244.422 204.446L202.647 185.569C190.477 180.07 178.125 174.515 164.937 172.413C143.255 168.957 121.258 175.094 100.496 182.237L100.1 182.547L50.5002 212.892C43.0208 217.47 35.4338 222.13 29.4723 228.564C23.6105 234.889 18.075 249.621 16 257.703V275.04H276V248.356Z" fill="#206D41"/>
<g opacity="0.2">
<path d="M184.011 177.837C180.534 176.124 175.613 174.884 171.6 173.805L167.771 174.232C170.088 174.368 172.359 174.835 174.644 175.382C177.588 176.088 180.314 177.351 182.272 179.529C184.442 181.942 185.331 183.145 185.378 184.955C185.426 186.764 184.791 188.52 184.058 190.175C181.417 196.124 177.425 201.375 172.4 205.513C167.211 209.777 161.936 213.384 155.509 215.334C147.217 217.851 137.53 218.079 128.905 217.244C125.792 216.943 122.677 216.415 119.757 215.296C114.635 213.335 110.379 209.673 106.236 206.079C105.199 205.18 104.158 204.276 103.262 203.235C100.983 200.584 99.6922 198.613 98.5297 195.314C98.2384 194.487 98.0225 192.234 97.9833 191.357C97.9264 190.097 97.8615 189.006 97.9784 187.749C98.0539 186.938 98.5269 185.947 98.9044 185.225C99.3147 184.441 100.159 183.99 100.975 183.646C102.939 182.816 105.023 182.313 107.101 181.834C109.769 181.22 112.444 180.643 115.128 180.102L102.636 181.494C97.2219 183.386 92.2156 188.119 90.7005 193.649C90.2019 195.473 89.9953 197.402 90.3251 199.265C90.7333 201.562 91.93 203.645 93.2905 205.54C100.657 215.798 112.898 221.472 125.135 224.594C137.939 227.859 152.051 228.67 163.898 222.817C170.543 219.535 176.079 214.34 180.78 208.61C185.67 202.653 189.844 195.833 191.158 188.238C191.594 185.723 190.669 181.117 184.011 177.837Z" fill="black"/>
</g>
<path d="M117.583 137.86C117.205 137.867 116.39 138.296 116.273 138.656C116.219 138.838 116.226 139.032 116.295 139.209C116.363 139.386 116.489 139.535 116.651 139.633C116.741 140.137 116.215 140.588 115.703 140.591C115.192 140.593 114.732 140.277 114.363 139.923C113.852 139.432 113.468 138.386 113.468 137.87C113.468 136.594 115.189 136.374 116.271 136.171C118.356 135.779 120.498 135.798 122.576 136.227C123.353 136.388 124.136 136.607 124.926 136.545C125.62 136.49 126.629 136.431 127.259 136.135C128.321 135.636 128.851 135.316 129.667 134.475C129.972 134.16 130.401 133.335 130.717 133.031C131.176 132.588 132.309 131.388 132.877 131.097C134.279 130.385 135.207 130.508 136.78 130.461C137.234 130.448 137.752 130.795 138.161 130.993C138.57 131.191 138.903 131.61 138.874 132.062C138.849 132.426 138.606 132.738 138.337 132.984C138.04 133.257 137.685 133.487 137.286 133.554C136.887 133.621 136.441 133.487 136.205 133.16C136.027 132.912 135.979 132.576 135.761 132.362C135.379 131.986 134.739 132.188 134.265 132.437C132.867 133.171 131.537 134.209 130.934 135.668C130.541 136.624 130.47 137.73 129.843 138.552C129.317 139.243 128.462 139.625 127.6 139.739C126.739 139.853 125.866 139.727 125.013 139.562C124.519 139.477 124.034 139.348 123.564 139.175C122.867 138.901 122.407 138.605 121.712 138.315C120.406 137.77 118.682 137.841 117.583 137.86Z" fill="#FB2D33"/>
<path d="M182.273 179.534C180.315 177.356 177.589 176.094 174.645 175.388C171.7 174.682 168.78 174.106 165.755 174.207C146.003 174.851 126.359 177.407 107.1 181.837C105.022 182.316 102.939 182.819 100.974 183.649C100.158 183.994 99.3136 184.442 98.9033 185.228C98.5265 185.95 98.0535 186.938 97.9773 187.753C97.8604 189.008 97.9253 190.103 97.9822 191.36C98.0214 192.237 98.2373 194.49 98.5286 195.317C99.6911 198.616 100.98 200.589 103.261 203.239C104.157 204.279 105.198 205.183 106.235 206.082C110.378 209.676 114.634 213.338 119.756 215.3C122.677 216.419 125.791 216.947 128.904 217.247C137.529 218.082 147.216 217.854 155.508 215.337C161.934 213.387 167.21 209.781 172.399 205.516C177.424 201.379 181.415 196.128 184.057 190.18C184.79 188.525 185.425 186.77 185.377 184.96C185.329 183.151 184.443 181.948 182.273 179.534Z" fill="#FBB577"/>
<path d="M102.586 179.994C103.186 182.95 102.313 187.091 102.912 190.047C103.126 191.092 103.34 192.144 103.722 193.138C104.145 194.23 104.766 195.234 105.455 196.18C110.868 203.619 120.02 207.163 128.659 210.332C133.802 212.219 139.228 214.137 144.636 213.268C146.595 212.953 148.474 212.28 150.335 211.602C156.247 209.448 162.341 207.065 166.697 202.519C169.749 199.318 171.742 195.256 172.406 190.884C172.869 187.784 172.647 184.627 172.387 181.504C172.078 177.8 171.718 174.096 171.097 170.429C169.874 163.226 168.675 156 169.639 148.758C165.878 153.53 159.641 156.929 154.542 160.238C151.527 162.194 148.493 164.161 145.186 165.569C138.842 168.271 131.805 168.791 124.913 168.989C116.315 169.239 109.489 169.007 100.889 168.815C100.892 168.818 101.791 176.071 102.586 179.994Z" fill="#FBB577"/>
<g style="mix-blend-mode:multiply" opacity="0.6">
<path d="M102.761 168.798C108.221 171.571 113.923 174.037 119.969 175.005C129.261 176.491 138.924 174.292 147.224 169.858C155.524 165.424 160.927 161.673 164.146 155.606C165.008 153.984 170.201 144.443 170.457 142.875C170.457 153.836 164.188 166.618 158.155 174.943C153.528 181.325 155.727 183.838 147.927 184.986C144.616 185.472 138.861 186.078 135.694 187.162C133.447 187.931 128.041 191.142 125.73 190.594C124.402 190.278 121.194 188.973 119.088 188.158C113.097 185.84 111.035 180.487 106.282 176.165C104.808 174.824 102.959 173.664 101.964 171.847C100.896 169.891 96.4381 165.156 96.8355 164.023C96.832 164.02 99.9449 167.369 102.761 168.798Z" fill="#D177B8"/>
</g>
<path d="M135.212 131.842C134.868 131.856 134.528 131.912 134.198 132.01C132.752 132.438 131.606 133.708 131.25 135.175C131.435 135.206 131.622 135.147 131.798 135.085C133.085 134.636 134.301 134.005 135.408 133.211C135.622 133.059 135.846 132.874 135.887 132.616C135.921 132.393 135.806 132.17 135.641 132.017C135.467 131.874 135.271 131.76 135.061 131.68" fill="black"/>
<path d="M116.844 137.286C117.177 137.129 117.528 137.012 117.888 136.936C119.362 136.611 120.979 137.164 122.001 138.274C121.854 138.391 121.662 138.43 121.478 138.461C120.135 138.692 118.766 138.73 117.412 138.572C117.152 138.542 116.866 138.49 116.705 138.287C116.566 138.11 116.562 137.86 116.629 137.646C116.674 137.512 116.747 137.389 116.844 137.286Z" fill="black"/>
<path d="M116.662 154.802C120.28 155.693 123.985 156.185 127.71 156.269C128.892 156.296 130.078 156.281 131.252 156.139C134.739 155.716 138.403 154.592 140.833 152.057C143.331 149.452 146.002 147.3 148.123 144.502C148.25 144.336 148.382 144.134 148.323 143.932C148.231 143.613 147.784 143.609 147.459 143.674C141.119 144.944 134.976 147.037 128.856 149.125C125.401 150.304 121.929 151.49 118.702 153.198C117.953 153.595 117.206 154.025 116.605 154.623" fill="#781ED1"/>
<path d="M115.336 156.042C118.79 153.671 122.564 151.804 126.544 150.497C128.054 149.998 129.59 149.589 131.11 149.128C135.008 147.947 138.803 146.455 142.656 145.13C144.199 144.599 145.778 144.089 147.408 144.05C148.234 144.03 149.087 144.127 149.864 143.849C149.294 143.119 148.218 143.106 147.294 143.16C142.324 143.45 137.356 143.781 132.39 144.151C131.821 144.194 131.229 144.243 130.733 144.525C130.456 144.683 130.22 144.906 129.939 145.057C129.475 145.308 128.928 145.342 128.418 145.478C127.502 145.722 126.717 146.298 125.956 146.861L119.68 151.507C119.014 151.999 118.346 152.494 117.762 153.08C117.443 153.4 117.15 153.746 116.859 154.09L115.288 155.943" fill="#4A147F"/>
<path d="M76.066 130.112C71.6716 120.603 69.1521 110.06 71.9281 99.9581C72.8641 96.5546 74.283 93.3042 75.8039 90.1194C81.0751 79.089 88.7683 68.783 99.8585 63.6407C105.806 60.8826 114.224 60.1296 120.672 61.3157C126.246 62.3407 129.308 64.0467 134.776 65.5412C138.378 66.5263 140.625 68.5095 144.025 70.0524C150.598 73.0356 155.151 80.6803 157.227 84.1679C159.173 87.4375 162.126 92.5541 162.957 96.0417C163.55 98.5348 163.786 98.6987 167.357 98.2556C170.653 99.3163 171.401 106.447 172.173 109.825C173.189 114.274 174.256 119.303 174.147 123.867C174.085 126.478 174.781 128.109 173.193 130.183C172.59 130.966 171.824 131.625 171.259 132.44C169.108 135.539 170.434 139.717 170.583 143.486C170.949 152.718 164.09 161.508 156.286 166.453C141.599 175.759 131.532 179.997 114.659 175.801C112 175.139 103.791 172.357 101.263 170.439C100.309 169.714 98.3277 167.139 97.7016 166.118C96.8119 164.667 95.2269 162.325 93.9554 161.194C92.7053 160.081 93.3585 160.624 92.0457 159.589C90.8447 158.638 89.2626 159.475 87.8942 158.786C85.0342 157.348 85.1995 156.633 84.324 155.345C83.1216 153.575 81.3493 151.04 79.7573 146.94C79.0293 145.067 73.3349 135.807 73.0315 133.821C72.4766 130.196 76.066 130.112 76.066 130.112Z" fill="#FBB577"/>
<path d="M115.029 156.89C119.824 154.758 125.415 157.318 130.613 156.605C133.164 156.255 135.534 155.125 137.835 153.97C139.177 153.296 140.548 152.581 141.523 151.44C142.269 150.567 142.925 149.708 143.651 148.744C144.194 148.024 144.64 147.419 145.324 146.829C146.516 145.801 147.775 144.265 149.264 143.75C146.11 143.286 142.791 144.503 139.79 145.572L125.482 150.658C121.408 152.106 117.163 153.665 114.235 156.847L115.029 156.89Z" fill="#FF5663"/>
<path d="M114.469 156.872C118.179 154.854 120.783 152.547 125.876 151.387C127.973 150.908 129.973 150.072 131.992 149.331C137.778 147.209 143.318 143.723 149.48 143.749C148.261 143.306 146.939 143.25 145.643 143.242C137.166 143.176 136.605 142.943 132.509 143.406C131.915 143.477 131.031 144.995 130.405 145.178C129.137 145.548 127.664 145.028 126.669 145.897C126.191 146.315 119.955 150.986 116.429 154.374C116.006 154.779 114.212 156.393 114.479 156.914" fill="#DC3B63"/>
<path d="M147.345 107.276C147.345 107.276 145.787 110.132 140.896 111.319C136.005 112.506 130.772 112.53 127.591 111.364C127.591 111.364 127.728 110.401 128.297 109.097C128.297 109.097 128.297 109.097 128.297 109.092C129.285 106.832 131.574 103.55 136.686 102.476C143.781 100.99 146.636 105.824 147.228 107.016C147.307 107.182 147.345 107.276 147.345 107.276Z" fill="url(#paint0_linear_1170_2665)"/>
<path d="M142.961 106.274C142.972 102.965 139.916 100.273 136.135 100.26C132.354 100.248 129.28 102.92 129.269 106.228C129.258 109.537 132.314 112.229 136.095 112.241C139.876 112.254 142.95 109.582 142.961 106.274Z" fill="url(#paint1_linear_1170_2665)"/>
<path d="M142.415 106.271C142.425 103.226 139.613 100.748 136.133 100.736C132.653 100.725 129.824 103.184 129.814 106.229C129.804 109.274 132.617 111.752 136.096 111.763C139.576 111.775 142.405 109.316 142.415 106.271Z" fill="url(#paint2_linear_1170_2665)"/>
<path style="mix-blend-mode:multiply" d="M139.977 106.264C139.984 104.397 138.26 102.879 136.127 102.871C133.994 102.864 132.261 104.372 132.254 106.238C132.248 108.104 133.972 109.623 136.105 109.63C138.237 109.637 139.971 108.13 139.977 106.264Z" fill="url(#paint3_linear_1170_2665)"/>
<g style="mix-blend-mode:multiply" opacity="0.6">
<path d="M147.228 107.018C145.46 105.817 142.338 104.618 137.976 104.604C132.583 104.586 128.486 108.725 128.3 109.091C129.288 106.831 131.577 103.549 136.688 102.475C143.783 100.992 146.642 105.825 147.228 107.018Z" fill="#D077B7"/>
</g>
<path d="M128.958 107.813C128.958 107.813 129.363 102.127 135.193 100.023C142.48 97.3926 146.398 105.687 146.398 105.687C146.398 105.687 137.624 97.0094 128.958 107.813Z" fill="#DC4C6A"/>
<path d="M130.639 112.059C131.229 112.122 140.896 110.777 146.475 108.368C146.626 108.303 144.394 111.171 140.129 112.068C134.283 113.296 130.639 112.059 130.639 112.059Z" fill="#DC6B7C"/>
<path d="M128.297 109.102C128.297 109.102 126.553 111.139 126.745 111.707C126.938 112.274 129.246 111.831 129.246 111.831C129.246 111.831 127.978 111.247 127.99 110.886C128.003 110.525 128.297 109.102 128.297 109.102Z" fill="#E08A97"/>
<path d="M147.029 106.641C147.029 106.641 146.459 104.033 145.812 103.258C145.164 102.482 141.118 100.872 136.517 101.477C131.917 102.081 129.554 106.113 128.453 108.753C128.453 108.753 132.321 102.803 138.389 102.926C144.458 103.048 147.029 106.641 147.029 106.641Z" fill="#4E1B3D"/>
<path d="M141.032 106.08C140.819 106.264 144.179 107.12 144.357 106.811C144.535 106.503 141.505 105.67 141.032 106.08Z" fill="white"/>
<path d="M138.575 105.536C138.367 105.593 138.324 106.129 138.575 106.078C138.827 106.026 139.296 106.007 139.297 105.811C139.298 105.615 138.856 105.459 138.575 105.536Z" fill="white"/>
<path d="M91.6802 127.83C91.6802 127.83 94.9926 129.2 99.5985 127.189C104.204 125.178 108.202 122.02 109.757 119.14C109.757 119.14 108.936 118.442 107.531 117.731H107.526C105.092 116.498 100.908 115.224 96.2171 117.46C89.7121 120.564 91.1374 126.222 91.5762 127.544C91.6389 127.731 91.6802 127.83 91.6802 127.83Z" fill="url(#paint4_linear_1170_2665)"/>
<path d="M99.4612 126.57C103.247 126.57 106.316 123.705 106.316 120.172C106.316 116.638 103.247 113.773 99.4612 113.773C95.6754 113.773 92.6064 116.638 92.6064 120.172C92.6064 123.705 95.6754 126.57 99.4612 126.57Z" fill="url(#paint5_linear_1170_2665)"/>
<path d="M99.4614 126.057C102.946 126.057 105.771 123.421 105.771 120.169C105.771 116.917 102.946 114.281 99.4614 114.281C95.977 114.281 93.1523 116.917 93.1523 120.169C93.1523 123.421 95.977 126.057 99.4614 126.057Z" fill="url(#paint6_linear_1170_2665)"/>
<path style="mix-blend-mode:multiply" d="M99.4612 123.78C101.597 123.78 103.328 122.164 103.328 120.171C103.328 118.178 101.597 116.562 99.4612 116.562C97.3258 116.562 95.5947 118.178 95.5947 120.171C95.5947 122.164 97.3258 123.78 99.4612 123.78Z" fill="url(#paint7_linear_1170_2665)"/>
<g style="mix-blend-mode:multiply" opacity="0.6">
<path d="M91.5777 127.552C92.0293 125.504 93.5117 122.637 96.8204 119.975C100.912 116.684 107.111 117.553 107.527 117.739C105.093 116.506 100.91 115.232 96.2185 117.468C89.7114 120.572 91.1368 126.226 91.5777 127.552Z" fill="#D077B7"/>
</g>
<path d="M106.07 117.098C106.07 117.098 101.529 112.733 95.5274 114.567C88.0237 116.86 91.2171 125.965 91.2171 125.965C91.2171 125.965 91.4358 113.6 106.07 117.098Z" fill="#DC4C6A"/>
<path d="M107.952 121.562C107.55 121.973 99.1905 126.75 93.1535 128.187C92.9897 128.226 96.8227 129.197 100.737 127.332C106.101 124.781 107.952 121.562 107.952 121.562Z" fill="#DC6B7C"/>
<path d="M107.534 117.742C107.534 117.742 110.379 118.335 110.655 118.912C110.931 119.489 108.845 120.532 108.845 120.532C108.845 120.532 109.375 119.288 109.096 119.003C108.818 118.718 107.534 117.742 107.534 117.742Z" fill="#E08A97"/>
<path d="M91.4496 127.127C91.4496 127.127 89.9437 124.664 89.8583 123.643C89.7728 122.623 91.654 118.857 95.6039 116.553C99.5538 114.248 104.355 116.083 107.158 117.556C107.158 117.556 99.7846 115.08 95.2577 118.865C90.7309 122.65 91.4496 127.127 91.4496 127.127Z" fill="#4E1B3D"/>
<path d="M95.5946 123.032C95.8931 123.052 93.9734 125.787 93.6087 125.645C93.244 125.502 94.93 122.988 95.5946 123.032Z" fill="white"/>
<path d="M97.0544 121.089C97.2559 121.008 97.6883 121.418 97.459 121.527C97.2296 121.637 96.8578 121.908 96.711 121.75C96.5643 121.591 96.7844 121.197 97.0544 121.089Z" fill="white"/>
<path d="M128.782 98.6205C127.079 99.1759 125.516 100.094 124.202 101.312C123.618 101.854 123.045 102.605 123.257 103.374C123.533 104.378 124.868 104.579 125.902 104.45C130.055 103.932 133.681 101.36 137.763 100.439C141.681 99.555 145.762 100.24 149.719 100.927L144.328 97.1103C143.917 96.819 143.501 96.5255 143.033 96.3417C142.411 96.0981 141.728 96.0604 141.06 96.0454C136.726 95.9485 133.214 96.9714 129.16 98.5079L128.782 98.6205Z" fill="black"/>
<path d="M108.149 107.047C108.942 107.126 109.852 107.381 110.144 108.121C110.529 109.089 109.585 110.055 108.682 110.575C105.057 112.666 100.613 112.8 96.8005 114.527C93.142 116.184 90.2991 119.19 87.5566 122.124C88.2215 120.025 88.888 117.927 89.5561 115.828C89.7086 115.349 95.6943 108.919 102.501 107.799C102.503 107.799 106.374 106.866 108.149 107.047Z" fill="black"/>
<path d="M118.291 139.587C118.291 139.587 115.818 140.221 116.038 138.496C116.259 136.771 119.5 136.518 121.629 138.058L119.549 138.372C119.549 138.372 119.595 139.197 118.291 139.587Z" fill="black"/>
<path d="M134.433 134.314C134.433 134.314 136.822 133.412 135.649 132.126C134.477 130.84 131.68 132.497 130.823 134.981L132.705 134.043C132.705 134.043 133.139 134.746 134.433 134.314Z" fill="black"/>
<g style="mix-blend-mode:multiply" opacity="0.6">
<path d="M118.495 140.852C116.513 141.181 114.842 139.879 114.292 137.948C114.23 137.765 114.209 137.571 114.229 137.378C114.323 136.803 114.977 136.524 115.544 136.388C117.228 135.982 118.973 135.899 120.687 136.144C122.35 136.383 124.018 136.927 125.673 136.653C127.463 136.354 128.95 135.139 130.261 133.88C131.572 132.621 132.832 131.245 134.476 130.476C135.346 130.068 136.384 129.853 137.26 130.249C138.135 130.646 138.668 131.836 138.12 132.625C137.75 133.159 137.045 133.351 136.455 133.555C136.256 133.627 136.038 133.625 135.84 133.55C135.09 133.255 136.144 132.426 135.479 132.135C135.401 132.102 135.317 132.083 135.232 132.08C134.435 132.044 133.846 132.269 133.18 132.65C131.892 133.389 131.588 134.964 130.879 136.269C130.471 137.019 130.303 137.472 129.911 138.23C129.678 138.681 129.402 139.525 128.862 139.956C128.322 140.388 127.661 140.512 126.983 140.628C126.276 140.748 125.211 140.855 124.716 140.699C123.887 140.439 123.363 139.649 122.753 139.029C121.724 137.984 120.379 137.306 118.927 137.1C118.471 137.031 118.005 137.046 117.554 137.145C117.422 137.176 117.303 137.246 117.211 137.345C117.12 137.444 117.059 137.568 117.037 137.701C117.016 137.835 117.034 137.972 117.09 138.095C117.146 138.218 117.237 138.321 117.352 138.393C117.86 138.714 118.315 139.112 118.701 139.574C119.019 139.955 119.195 140.68 118.72 140.824L118.495 140.852Z" fill="#D177B8"/>
</g>
<g opacity="0.4">
<path d="M170.355 131.515C170.258 123.686 168.349 114.639 164.687 107.719C165.531 116.827 165.067 127.243 164.21 136.354C164.06 137.952 163.876 139.586 163.167 141.026C162.459 142.465 161.113 143.695 159.513 143.822C159.051 143.859 158.563 143.797 158.178 143.537C157.586 143.139 157.371 142.389 157.069 141.742C155.364 138.09 148.692 137.8 144.67 137.524C140.681 137.249 133.931 137.025 132.271 138.299C129.75 140.232 127.862 140.9 122.417 140.9C120.867 140.9 120.013 143.104 118.824 144.624C117.345 146.514 114.794 147.144 112.834 148.528C108.858 151.336 107.468 158.196 110.516 161.991C103.018 159.17 95.6558 155.534 90.6296 149.297C87.0217 144.819 86.8464 138.643 81.999 135.549C85.0506 139.935 84.3134 145.955 86.5472 150.809C87.5716 153.034 88.8445 154.951 90.2563 156.953C90.9409 157.924 91.6981 158.929 92.4646 159.923C93.2218 160.519 92.8677 160.23 93.9562 161.199C95.2277 162.329 96.8126 164.672 97.7023 166.123C98.3277 167.143 100.31 169.719 101.264 170.444C103.791 172.362 112.001 175.145 114.66 175.806C131.533 180.002 141.6 175.764 156.287 166.457C162.927 162.25 168.882 155.258 170.286 147.581C170.453 146.065 170.545 144.542 170.559 143.017C170.373 140.053 169.588 136.877 170.417 134.197C170.387 133.266 170.366 132.368 170.355 131.515ZM150.642 159.625C143.992 160.898 144.55 160.226 138.138 162.404C133.29 164.05 126.337 170.951 121.864 168.465C121.31 168.157 115.999 164.89 115.647 164.363C115.253 163.773 115.161 163.04 115.077 162.335C114.894 160.757 114.71 159.179 114.527 157.602C114.476 157.165 114.426 156.717 114.534 156.291C114.743 155.467 115.579 155.013 116.16 154.393C121.146 149.072 125.113 144.124 125.113 144.124C125.113 144.124 129.771 144.312 131.965 141.764C137.336 142.761 142.471 142.606 148.184 143.196C149.38 143.319 150.299 144.24 151.205 145.031C152 145.726 152.487 146.7 152.953 147.648C153.711 149.186 154.948 150.568 155.226 152.264C155.741 155.375 151.871 159.39 150.642 159.625Z" fill="black"/>
</g>
<g opacity="0.4">
<path d="M164.137 100.099C164.127 99.5086 163.978 98.7963 163.78 98.074C163.386 97.7178 163.2 97.0852 162.952 96.0417C162.121 92.5513 159.169 87.4375 157.223 84.1679C155.146 80.6775 150.594 73.0356 144.02 70.0524C140.62 68.5095 138.373 66.5263 134.772 65.5412C129.305 64.0453 126.243 62.3407 120.668 61.3157C114.22 60.1296 105.802 60.8826 99.8545 63.6407C88.7657 68.783 81.0683 79.089 75.7999 90.1194C74.2791 93.3042 72.8601 96.5546 71.9241 99.9581C69.1461 110.06 71.6677 120.601 76.0621 130.112C75.6123 130.138 75.1698 130.237 74.7521 130.406C75.6033 131.383 76.529 132.293 77.5209 133.128C78.1392 133.653 81.995 135.544 81.995 135.544C80.3439 131.762 78.7896 127.866 77.1883 123.874C75.6924 120.142 73.5354 120.719 72.7049 105.192C72.5553 102.399 74.2549 100.58 75.6112 98.1338C77.6541 94.4489 76.1924 90.3288 83.7025 84.1657C87.6253 80.9467 93.1558 80.8983 98.0965 79.7393C101.954 78.8347 105.597 77.2063 109.214 75.5872C113.092 73.8505 116.978 72.111 120.679 70.0246C122.807 68.8257 125.004 67.7622 127.378 67.1881C133.32 65.7535 143.67 74.2743 146.725 76.1179C148.948 77.4599 151.248 78.8731 152.668 81.0479C153.718 82.6556 154.203 84.5568 154.672 86.4195C155.331 89.0438 155.991 91.668 156.651 94.2922C157.221 96.561 157.825 98.8995 159.242 100.762C161.053 103.142 164.174 104.769 164.686 107.717C164.284 103.531 164.155 101.236 164.137 100.099Z" fill="black"/>
</g>
<path d="M164.049 98.2991C162.604 94.9511 162.064 92.9715 160.488 89.6799C159.894 88.4369 158.137 85.5548 157.443 84.3659C156.338 82.4775 155.111 81.0685 153.964 79.2051C151.703 75.5337 150.266 71.4079 148.055 67.706C145.633 63.6457 142.056 59.8212 139.983 55.5558C138.943 52.8055 136.643 51.7427 135.593 48.8763C135.439 48.4567 135.267 48.015 134.912 47.7444C134.427 47.3761 133.753 47.4338 133.149 47.5086C125.421 48.4638 117.6 49.4418 110.344 52.2669C106.461 53.7778 102.793 55.8001 98.8934 57.2739C92.2025 59.8034 84.9204 60.6874 78.476 63.7917C73.1905 66.3376 68.5311 70.3451 62.8232 71.7021C63.7699 74.1176 63.8447 78.8325 63.8347 80.691C63.8303 81.364 63.8933 82.0358 64.0228 82.6962C64.4231 84.7142 65.1198 86.6909 65.3413 88.7339C65.6654 91.7257 66.226 94.6313 66.828 97.4293C67.3686 99.9481 68.3502 102.137 68.9087 104.652C69.6006 107.766 70.292 110.88 70.983 113.994L72.0344 118.729C72.4162 120.449 72.798 122.17 73.2674 123.869C73.9797 126.438 74.8929 128.967 76.23 131.273C76.4366 130.598 75.908 129.949 75.5141 129.364C74.0374 127.169 74.2063 124.281 73.3479 121.78C72.9589 120.666 72.6712 119.518 72.4881 118.352C72.1576 116.171 71.5621 114.252 71.3178 112.211C70.968 109.277 70.2906 106.269 69.5462 103.409C69.1366 101.834 68.9051 100.003 68.4948 98.4273C67.8772 96.0552 67.5367 94.5807 67.1663 92.0063C66.7247 88.9433 66.7788 85.7906 65.981 82.8137C65.8183 82.2143 65.7228 81.5986 65.6961 80.9781C65.6704 80.3505 65.6469 79.584 65.6597 79.126C65.674 78.5782 65.7495 77.9272 66.2353 77.6736C66.9911 77.2789 67.7091 78.2114 68.2206 78.8945C69.4522 80.5393 71.5849 81.3221 73.6392 81.3527C75.6936 81.3834 77.6995 80.7537 79.6228 80.0307C83.5064 78.5711 87.8972 76.952 91.3869 74.7089C93.4463 73.3846 94.8773 71.5255 95.6381 69.199C96.178 67.5478 95.9693 65.7527 96.2144 64.0332C96.4594 62.3136 97.421 60.4502 99.1264 60.1197C100.237 59.906 102.66 60.6183 103.593 61.2594C105.104 62.2987 105.89 63.2254 107.412 64.2512C108.409 64.9236 109.793 65.8674 110.974 66.1189C113.253 66.6061 114.506 66.0127 116.789 65.5298C121.919 64.443 126.981 63.06 131.951 61.3876C132.45 61.2195 132.972 61.0314 133.31 60.629C133.647 60.2265 133.743 59.6538 133.819 59.121L134.791 52.279L137.025 54.067C137.106 54.1318 138.671 55.5629 138.514 55.5999L138.54 55.5942C138.882 56.6627 139.244 57.7398 139.882 58.6608C140.3 59.2627 140.824 59.782 141.281 60.3533C141.878 61.0984 142.359 61.929 142.837 62.756L148.536 72.6125C149.349 74.0193 150.166 75.4319 151.171 76.7098C152.433 78.3154 154.243 80.2066 155.339 81.929C159.498 88.4632 162.249 93.2864 164.421 99.9296C164.499 99.3704 164.273 98.8176 164.049 98.2991Z" fill="black"/>
</g>
<defs>
<filter id="filter0_b_1170_2665" x="-19.5" y="-20" width="330" height="330" filterUnits="userSpaceOnUse" color-interpolation-filters="sRGB">
<feFlood flood-opacity="0" result="BackgroundImageFix"/>
<feGaussianBlur in="BackgroundImageFix" stdDeviation="10"/>
<feComposite in2="SourceAlpha" operator="in" result="effect1_backgroundBlur_1170_2665"/>
<feBlend mode="normal" in="SourceGraphic" in2="effect1_backgroundBlur_1170_2665" result="shape"/>
</filter>
<linearGradient id="paint0_linear_1170_2665" x1="137.779" y1="111.842" x2="137.779" y2="101.795" gradientUnits="userSpaceOnUse">
<stop stop-color="#EDE1FF"/>
<stop offset="1" stop-color="#BCC8FA"/>
</linearGradient>
<linearGradient id="paint1_linear_1170_2665" x1="142.962" y1="106.269" x2="129.27" y2="106.224" gradientUnits="userSpaceOnUse">
<stop stop-color="#72791A"/>
<stop offset="1" stop-color="#594A0B"/>
</linearGradient>
<linearGradient id="paint2_linear_1170_2665" x1="136.102" y1="110.171" x2="136.131" y2="101.634" gradientUnits="userSpaceOnUse">
<stop stop-color="#A58C18"/>
<stop offset="1" stop-color="#402F40"/>
</linearGradient>
<linearGradient id="paint3_linear_1170_2665" x1="136.109" y1="108.65" x2="136.126" y2="103.417" gradientUnits="userSpaceOnUse">
<stop stop-color="#72791A"/>
<stop offset="1" stop-color="#594A0B"/>
</linearGradient>
<linearGradient id="paint4_linear_1170_2665" x1="104.433" y1="127.771" x2="97.1087" y2="119.207" gradientUnits="userSpaceOnUse">
<stop stop-color="#EDE1FF"/>
<stop offset="1" stop-color="#BCC8FA"/>
</linearGradient>
<linearGradient id="paint5_linear_1170_2665" x1="94.6271" y1="124.74" x2="104.757" y2="116.077" gradientUnits="userSpaceOnUse">
<stop stop-color="#72791A"/>
<stop offset="1" stop-color="#594A0B"/>
</linearGradient>
<linearGradient id="paint6_linear_1170_2665" x1="102.502" y1="123.691" x2="96.3916" y2="116.547" gradientUnits="userSpaceOnUse">
<stop stop-color="#A58C18"/>
<stop offset="1" stop-color="#402F40"/>
</linearGradient>
<linearGradient id="paint7_linear_1170_2665" x1="101.414" y1="122.421" x2="97.6693" y2="118.043" gradientUnits="userSpaceOnUse">
<stop stop-color="#72791A"/>
<stop offset="1" stop-color="#594A0B"/>
</linearGradient>
</defs>
</svg>
