<svg width="291" height="290" viewBox="0 0 291 290" fill="none" xmlns="http://www.w3.org/2000/svg">
<g filter="url(#filter0_b_1170_2318)">
<rect x="0.5" width="290" height="290" rx="60" fill="#00007E"/>
</g>
<mask id="mask0_1170_2318" style="mask-type:alpha" maskUnits="userSpaceOnUse" x="20" y="20" width="250" height="250">
<rect x="20" y="20" width="250" height="250" rx="60" fill="#C4C4C4"/>
</mask>
<g mask="url(#mask0_1170_2318)">
<path d="M122.421 262.113C120.057 253.491 113.872 246.411 107.052 240.633C99.5139 234.253 90.5411 229.063 81.0898 226.219C90.0801 245.51 104.803 261.591 123.069 272.272C123.539 268.877 123.318 265.422 122.421 262.113Z" fill="#781ED1"/>
<path d="M226.801 273.029H272.987V223.172C264.291 245.979 247.814 261.148 226.801 273.029Z" fill="#FA9101"/>
<path d="M123.068 272.27C123.538 268.875 123.317 265.421 122.42 262.113C120.056 253.491 113.871 246.411 107.051 240.633C99.5139 234.253 90.5411 229.063 81.0898 226.219C90.0801 245.508 104.803 261.589 123.068 272.27Z" fill="#FA9101"/>
<path d="M269.873 78.4501C261.915 76.8343 252.776 76.0365 247.781 69.6331C243.577 64.2421 243.737 56.4129 239.652 50.9303C233.393 42.5318 220.79 43.3701 210.451 45.0573L173.836 51.033C170.383 51.5968 166.834 52.1592 163.409 51.4403C159.985 50.7215 156.661 48.4231 155.77 45.0384C154.494 40.1922 158.418 35.6437 162.142 32.2904C167.818 27.1862 173.796 22.4272 180.043 18.0391H109.847C107.594 20.4671 105.591 23.1166 103.871 25.9472C101.4 30.0214 99.5031 34.4246 96.9776 38.4653C92.4707 45.6493 86.1114 51.4862 78.5682 55.3622C67.6003 60.9769 54.6497 62.1666 44.1421 68.6062C34.6266 74.4388 27.8893 84.3176 24.9895 95.0942C22.0896 105.871 22.8643 117.463 26.2288 128.104C29.3242 137.895 34.5225 146.916 37.6578 156.694C40.7931 166.472 41.623 177.757 36.2515 186.508C33.506 190.979 29.3634 194.423 25.0244 197.377C22.8315 198.871 20.4772 200.284 18 201.211V273.027H42.0485C37.6718 265.662 35.3377 257.116 35.905 248.546C36.3682 241.535 38.8223 234.266 44.3105 229.878C46.8758 227.827 49.9615 226.516 53.1128 225.593C62.3049 222.899 71.9225 223.458 81.0895 226.221C74.865 212.864 71.3888 197.968 71.3888 182.26C71.3888 124.711 118.041 78.0589 175.59 78.0589C220.065 78.0589 258.031 105.922 272.987 145.144V79.148C271.954 78.8961 270.916 78.6634 269.873 78.4501Z" fill="#FA9101" fill-opacity="0.5"/>
<path d="M36.2515 186.51C41.623 177.758 40.7924 166.473 37.6578 156.696C34.5232 146.918 29.3242 137.896 26.2288 128.106C22.8643 117.464 22.0896 105.874 24.9895 95.0942C27.8893 84.3148 34.6266 74.4388 44.1408 68.6062C54.6483 62.1666 67.5961 60.9769 78.5682 55.3622C86.1119 51.4864 92.4717 45.6495 96.979 38.4653C99.5045 34.4246 101.402 30.0214 103.872 25.9472C105.592 23.1166 107.594 20.4672 109.847 18.0391H18V201.211C20.4772 200.281 22.8315 198.868 25.0244 197.376C29.3634 194.425 33.5088 190.983 36.2515 186.51Z" fill="#FB2D33" fill-opacity="0.5"/>
<path d="M81.0898 226.219C71.9228 223.458 62.3052 222.9 53.1131 225.59C49.961 226.513 46.8753 227.825 44.3108 229.875C38.8226 234.263 36.3685 241.532 35.9053 248.543C35.338 257.113 37.672 265.658 42.0487 273.024H122.953C122.996 272.773 123.035 272.521 123.069 272.269C104.803 261.589 90.08 245.508 81.0898 226.219Z" fill="#FB2D33" fill-opacity="0.5"/>
<path d="M175.591 78.0547C118.042 78.0547 71.3896 124.707 71.3896 182.256C71.3896 197.964 74.8659 212.86 81.0903 226.217C90.5416 229.063 99.5144 234.251 107.05 240.633C113.873 246.411 120.057 253.491 122.419 262.114C123.317 265.421 123.538 268.876 123.069 272.271C123.503 272.525 123.94 272.776 124.38 273.025H226.801C247.814 261.145 264.291 245.975 272.987 223.168V145.139C258.032 105.921 220.065 78.0547 175.591 78.0547Z" fill="#781ED1" fill-opacity="0.5"/>
<path d="M155.77 45.0384C156.661 48.4231 159.985 50.7208 163.409 51.4403C166.834 52.1599 170.383 51.5968 173.836 51.033L210.45 45.0573C220.789 43.3701 233.393 42.5318 239.651 50.9303C243.737 56.4129 243.574 64.2421 247.78 69.6331C252.776 76.0365 261.914 76.8343 269.873 78.4501C270.915 78.6616 271.953 78.8944 272.987 79.1487V18.0391H180.043C173.796 22.4272 167.819 27.1862 162.142 32.2904C158.418 35.6437 154.495 40.1922 155.77 45.0384Z" fill="#781ED1" fill-opacity="0.5"/>
<path d="M272.987 273.034V223.168C269.811 220.884 266.225 219.068 262.712 217.311L223.096 197.5C211.028 191.464 198.814 185.376 185.657 182.38C152.52 174.835 118.507 187.674 86.9974 200.41C79.3129 203.517 71.63 206.631 63.9487 209.753C60.3111 211.231 56.5715 212.778 53.7813 215.54C50.82 218.475 49.6016 230.45 48.1534 234.358C44.8065 243.388 40.1894 252.653 37.8198 261.985C36.8872 265.661 36.6022 269.348 36.3018 273.034H272.987Z" fill="black"/>
<path d="M233.494 273.037C234.438 267.891 235.148 262.712 235.403 257.487C235.543 254.615 235.488 251.533 233.859 249.164C231.28 245.415 226.034 244.996 221.871 243.156C212.249 238.895 208.877 227.28 205.61 217.277C193.504 223.258 177.353 232.43 171.239 239.353C172.201 237.42 170.261 232.562 168.787 230.988C167.313 229.413 165.339 228.417 163.581 227.164C157.01 222.48 152.656 213.799 144.654 212.75L144.175 213.099C133.517 220.162 128.22 232.758 126.278 245.396C124.869 254.571 125.592 263.909 127.444 273.04L233.494 273.037Z" fill="#E5E5E5"/>
<path d="M143.512 114.1C149.639 102.955 155.784 92.3229 161.912 81.1775C162.599 79.927 162.512 76.7253 163.658 75.8737C164.959 74.9069 176.009 73.7654 177.615 73.5523C185.822 72.4632 189.05 73.9715 194.393 75.3798C202.542 77.5245 215.08 83.7811 218.129 92.93C218.59 94.3132 219.234 98.3923 219.236 99.8502C219.25 108.803 219.451 116.29 219.465 125.243C221.999 125.014 223.447 122.821 225.907 123.47C227.444 123.878 228.034 125.817 227.817 127.395C227.601 128.973 227.895 130.422 227.86 132.015C227.833 133.353 227.819 134.719 227.86 136.057C228.051 141.684 220.555 145.059 219.338 150.556C219.075 151.744 219.092 152.996 218.639 154.123C217.539 156.875 213.409 157.768 211.27 155.718C208.692 158.55 207.226 162.526 204.648 165.359C202.457 167.767 198.509 170.842 195.275 172.205C186.103 176.06 177.371 176.423 167.716 174.017C163.954 173.08 160.222 171.836 156.941 169.771C151.213 166.167 149.257 163.188 146.42 157.044C146.132 156.423 144.813 150.472 144.681 149.545C144.311 146.992 144.1 145.129 143.912 143.182C143.391 145.048 141.39 146.376 139.468 146.131C137.545 145.886 135.942 144.099 135.905 142.162C135.891 141.45 136.064 140.742 136.038 140.03C135.969 138.201 134.65 136.706 133.693 135.147C129.651 128.567 131.897 120.025 134.899 112.91C135.384 111.76 136.199 110.417 137.443 110.521C138.026 110.571 138.522 110.946 138.98 111.307C140.333 112.368 141.668 112.914 143.021 113.977L143.512 114.1Z" fill="#FA9101"/>
<path d="M157.116 144.212C160.618 141.711 164.521 140.697 168.804 140.3C170.595 140.133 172.837 139.864 174.628 140.042C177.202 140.299 179.889 141.838 182.462 141.571C183.374 141.477 184.278 141.23 185.192 141.266C186.127 141.302 187.022 141.63 187.9 141.955C190.246 142.823 192.621 143.705 194.68 145.127C196.74 146.549 197.894 148.801 199.017 151.037C199.876 152.742 201.612 152.6 201.745 152.135C202.24 150.407 202.631 148.607 202.43 146.821C202.228 145.035 201.19 143.86 199.641 142.948C198.375 142.203 196.99 141.505 195.523 141.56C194.631 141.593 193.777 140.996 192.705 140.512C191.126 139.796 190.264 139.106 188.746 138.271C185.98 136.751 182.462 138.627 179.417 137.801C178.169 137.464 177.035 136.677 175.745 136.607C174.646 136.547 173.598 137.016 172.565 137.396C170.678 138.091 169.686 138.181 167.679 138.31C166.824 138.364 165.278 138.469 164.493 138.122C164.034 137.919 163.289 137.831 162.832 137.623C161.672 137.094 160.27 137.303 159.164 137.937C158.058 138.571 157.214 139.581 156.532 140.657C156.166 141.236 155.833 141.863 155.785 142.543C155.737 143.224 156.051 143.973 156.676 144.252L157.116 144.212Z" fill="black"/>
<path d="M174.77 131.348C175.029 131.635 174.905 132.168 174.545 132.31C174.32 132.4 174.065 132.347 173.834 132.278C172.893 131.999 171.934 131.347 171.808 130.374C171.777 130.13 171.808 129.866 171.959 129.675C172.186 129.382 172.601 129.334 172.971 129.309L175.293 129.153C176.734 129.056 178.252 128.972 179.55 129.606C180.66 130.147 181.512 131.173 182.69 131.541C183.844 131.902 185.098 131.564 186.215 131.1C187.332 130.636 187.826 130.472 189.023 130.298C189.481 130.228 190.475 130.131 190.897 130.321C191.352 130.525 191.763 130.589 192.077 130.976C192.504 131.501 192.941 132.042 193.156 132.685C193.382 133.359 193.331 134.142 192.932 134.73C192.532 135.317 191.758 135.657 191.076 135.46C190.69 135.349 190.323 135.001 190.383 134.604C190.42 134.363 190.603 134.166 190.653 133.928C190.732 133.548 190.438 133.17 190.081 133.019C189.725 132.868 189.321 132.889 188.934 132.911C188.269 132.951 187.588 132.994 186.975 133.254C185.927 133.7 185.175 134.737 184.072 135.025C183.154 135.265 182.194 134.931 181.304 134.602C181.153 134.557 181.013 134.484 180.891 134.386C180.742 134.251 180.669 134.053 180.59 133.868C180.28 133.156 179.807 132.527 179.209 132.031C178.611 131.536 177.904 131.188 177.147 131.015C176.616 130.907 176.074 130.869 175.533 130.903C174.493 130.95 174.77 131.348 174.77 131.348Z" fill="#A63344"/>
<path d="M162.701 145.052C163.994 145.205 165.35 145.143 166.651 145.122C169.248 145.086 171.791 144.368 174.382 144.187C177.862 143.943 181.329 144.67 184.743 145.393C188.008 146.084 191.404 146.835 194.017 148.913C194.429 149.239 194.817 149.597 195.257 149.884C196.111 150.443 197.303 150.757 198.319 150.669C197.998 149.062 196.596 147.773 195.373 146.683C194.55 145.949 193.708 145.231 192.781 144.637C191.561 143.856 190.213 143.3 188.873 142.751C187.55 142.207 186.193 141.655 184.764 141.608C183.913 141.579 183.068 141.731 182.219 141.757C178.935 141.859 175.784 140.094 172.508 140.326C170.363 140.478 168.386 141.471 166.42 142.347C164.455 143.222 162.255 144.626 160.124 144.336L162.701 145.052Z" fill="#FB2D33"/>
<path d="M144.359 147.133C144.499 150.8 144.213 154.435 143.966 158.02C143.796 160.507 143.321 163.736 143.017 166.21C142.716 168.666 142.328 170.397 141.864 172.829C140.353 180.742 142.004 189.455 145.242 196.832C147.035 200.914 149.517 204.72 150.72 209.013C151.209 210.748 151.482 212.559 152.257 214.183C154.229 218.304 158.897 220.33 161.933 223.742C166.098 228.422 166.812 235.224 169.996 240.622C170.362 241.243 170.795 241.876 171.45 242.176C172.346 242.586 172.568 239.017 172.624 238.033C172.668 237.282 178.997 230.725 184.594 228.807C186.02 228.318 194.855 224.137 196.121 223.324C199.335 221.265 200.33 222.485 200.846 218.703C201.362 214.92 200.706 217.101 200.597 213.288C200.42 206.919 201.235 200.562 203.014 194.445C203.547 192.614 204.168 190.795 204.402 188.903C204.795 185.726 203.592 182.511 203.939 179.328C204.744 171.961 205.799 166.386 207.914 160.176C204.316 166.364 198.403 171.169 191.61 173.427C184.817 175.684 177.21 175.372 170.622 172.571C168.257 171.563 166.033 170.253 163.846 168.895C160.408 166.76 157.024 164.481 154.136 161.647C150.061 157.647 144.359 147.133 144.359 147.133Z" fill="#FA9101"/>
<path d="M144.376 147.648C146.452 154.161 149.965 162.132 153.318 168.088C155.763 172.427 158.379 176.951 162.623 179.555C166.423 181.887 173.503 183.607 177.952 183.328C183.684 182.965 187.173 181.398 192.187 178.158C193.584 177.257 197.797 173.051 198.517 172.103C199.06 171.39 202.811 165.56 207.452 161.39C206.093 169.463 199.358 179.951 197.249 182.903C194.706 186.466 189.843 191.27 186.177 193.661C182.511 196.053 177.435 196.316 173.085 195.847C171.146 195.638 170.7 195.079 168.754 195.19C167.896 195.239 165.58 195.407 164.722 195.38C156.967 195.138 154.901 191.18 152.857 188.495C151.081 186.161 148.875 179.312 148.094 177.346C147.482 175.801 147.208 174.146 146.961 172.504C145.8 164.808 144.553 156.452 144.352 148.672L144.376 147.648Z" fill="#E27615"/>
<path d="M144.968 150.971C147.064 156.965 150.2 162.551 153.32 168.09C155.765 172.429 158.381 176.953 162.625 179.558C166.425 181.89 173.505 183.61 177.954 183.33C183.686 182.967 187.176 181.4 192.19 178.161C193.587 177.259 197.799 173.054 198.52 172.106C199.039 171.423 202.495 166.059 206.856 161.944C207.784 160.626 208.754 159.339 209.768 158.085C208.433 159.454 206.947 160.633 205.176 161.322C203.737 161.881 202.187 162.08 200.698 162.487C197.196 163.445 194.121 165.522 190.815 167.023C188.764 167.953 186.414 168.667 184.291 167.915C182.168 167.163 180.728 164.352 182.077 162.55C183.375 160.821 186.078 161.13 187.932 160.018C181.736 157.632 175.085 156.659 168.465 157.171L172.537 161.123C173.049 161.62 173.585 162.161 173.729 162.859C173.978 164.072 172.961 165.16 171.954 165.879C171.042 166.532 170.01 167.104 168.889 167.145C167.336 167.202 165.92 166.226 164.882 165.068C163.845 163.911 163.059 162.541 161.987 161.415C160.281 159.619 157.97 158.551 155.814 157.334C153.403 155.968 151.133 154.365 149.038 152.551C147.863 151.533 146.726 150.424 145.995 149.052C144.611 146.454 144.841 143.223 143.439 140.633C143.441 140.634 144.394 148.637 144.968 150.971Z" fill="black"/>
<g opacity="0.2">
<path d="M209.769 158.083C210.768 157.059 211.683 155.93 212.572 154.82C211.605 155.88 210.671 156.968 209.769 158.083Z" fill="black"/>
</g>
<path d="M188.882 134.783C188.882 134.783 191.683 134.752 190.762 133.106C189.841 131.461 186.403 132.07 184.831 134.161L187.098 133.918C187.098 133.918 187.38 134.745 188.882 134.783Z" fill="black"/>
<path d="M176.331 132.949C176.331 132.949 173.724 132.28 174.961 130.952C176.197 129.624 179.265 130.982 180.255 133.292L178.195 132.548C178.195 132.548 177.743 133.258 176.331 132.949Z" fill="black"/>
<g opacity="0.75">
<path d="M165.333 147.125C166.481 147.614 167.629 148.522 168.563 148.464C170.085 148.367 171.611 148.27 173.132 148.357C175.641 148.496 178.092 149.135 180.573 149.534C183.242 149.965 185.958 150.124 188.584 150.764C190.225 151.163 192.027 151.87 193.648 151.397C191.552 152.762 189.001 153.38 186.517 153.662C184.033 153.945 181.517 153.788 179.036 153.47C177.911 153.326 176.786 153.148 175.688 152.865C174.765 152.626 173.864 152.314 172.963 152.002L170.616 151.189C168.819 150.565 165.333 147.125 165.333 147.125Z" fill="white"/>
<path d="M165.263 147.257C166.055 147.6 166.771 148.095 167.572 148.416C167.895 148.557 168.246 148.624 168.598 148.614C169.105 148.584 169.612 148.55 170.12 148.525C171.134 148.466 172.151 148.461 173.165 148.511C174.141 148.574 175.113 148.691 176.076 148.86C178.01 149.188 179.923 149.612 181.868 149.874C183.812 150.136 185.771 150.32 187.696 150.717C188.613 150.906 189.507 151.177 190.415 151.401C191.273 151.611 192.171 151.78 193.056 151.67C193.272 151.644 193.485 151.601 193.693 151.542L193.578 151.269C191.687 152.495 189.472 153.104 187.259 153.42C184.769 153.776 182.253 153.694 179.759 153.409C178.507 153.269 177.253 153.09 176.026 152.794C174.799 152.499 173.612 152.068 172.422 151.655C171.825 151.446 171.224 151.25 170.63 151.034C170.36 150.93 170.1 150.801 169.854 150.649C169.218 150.257 168.611 149.82 168.038 149.341C167.154 148.622 166.304 147.859 165.488 147.062L165.445 147.02C165.305 146.885 165.096 147.096 165.235 147.23C165.939 147.924 166.677 148.588 167.433 149.224C168.026 149.733 168.648 150.207 169.295 150.646C169.569 150.832 169.856 151 170.152 151.149C170.563 151.35 171.007 151.479 171.438 151.628C172.653 152.047 173.863 152.497 175.099 152.855C176.319 153.208 177.569 153.424 178.827 153.591C181.374 153.928 183.963 154.102 186.525 153.811C188.768 153.557 191.029 153.047 193.022 151.951C193.264 151.817 193.5 151.675 193.732 151.525C193.872 151.435 193.785 151.204 193.617 151.252C192.758 151.497 191.859 151.41 190.997 151.227C190.102 151.038 189.231 150.754 188.342 150.55C186.46 150.117 184.534 149.915 182.62 149.671C181.646 149.548 180.675 149.407 179.709 149.233C178.758 149.061 177.811 148.868 176.861 148.694C175.911 148.52 174.969 148.369 174.014 148.275C173.022 148.182 172.024 148.152 171.028 148.186C170.529 148.2 170.031 148.225 169.533 148.256C169.28 148.271 169.026 148.287 168.772 148.303C168.59 148.323 168.407 148.32 168.226 148.295C167.85 148.229 167.496 148.067 167.157 147.895C166.765 147.696 166.384 147.476 165.993 147.272C165.805 147.174 165.615 147.082 165.42 146.997C165.237 146.924 165.085 147.181 165.263 147.257Z" fill="white"/>
</g>
<path d="M194.474 107.695C194.315 108.126 194.215 108.669 194.538 108.994C194.782 109.239 195.167 109.253 195.513 109.251C198.431 109.236 200.572 109.609 201.547 109.837C202.277 110.008 205.767 110.446 206.433 110.79C207.614 111.398 208.704 111.733 209.887 112.339C211.055 112.937 212.873 113.865 213.009 115.343C213.091 116.241 212.965 117.181 213.47 117.928C213.979 117.025 214.271 116.016 214.321 114.98C214.372 113.945 214.18 112.912 213.762 111.963C212.84 109.926 210.917 108.48 208.839 107.655C206.762 106.83 204.514 106.55 202.296 106.278C200.008 105.999 198.307 105.44 196.092 106.068C195.393 106.268 194.758 106.926 194.474 107.695Z" fill="#4E1B3D"/>
<path d="M173.747 105.023C175.09 105.792 176.419 105.471 177.769 105.423C178.345 105.402 179.057 105.238 179.187 104.677C179.293 104.221 178.934 103.802 178.604 103.471C177.775 102.642 176.927 101.798 175.879 101.272C174.928 100.794 173.862 100.603 172.812 100.427C170.128 99.9772 167.396 99.5887 164.694 99.9031C161.389 100.296 158.291 101.718 155.839 103.968C158.388 103.868 160.077 103.556 162.595 103.151C165.796 102.636 169.883 102.532 172.602 104.299C173.087 104.614 172.87 104.486 173.349 104.811L173.747 105.023Z" fill="#4E1B3D"/>
<g opacity="0.75">
<path d="M162.7 145.046C169.387 143.09 179.305 143.266 186.097 144.823C187.573 145.162 189.405 146.151 190.877 146.51C191.786 146.732 192.532 147.214 193.361 147.645C194.891 148.441 195.585 149.345 196.998 150.137L198.015 150.68C196.221 151.309 193.018 151.117 191.151 150.75C190.877 150.696 190.539 150.549 190.558 150.27C190.477 150.453 190.336 150.604 190.159 150.698C189.983 150.792 189.779 150.824 189.582 150.789C189.385 150.755 189.205 150.655 189.071 150.506C188.937 150.357 188.856 150.168 188.842 149.968C188.727 150.12 188.66 150.303 188.648 150.494C187.946 150.433 187.24 150.481 186.552 150.634C186.44 150.531 186.356 150.401 186.31 150.256C186.264 150.111 186.257 149.957 186.29 149.808C186.29 150.063 185.952 150.151 185.697 150.151C184.928 150.149 184.161 150.076 183.405 149.931L183.275 149.177C183.268 149.387 183.179 149.841 183.172 150.054C181.87 150.093 180.649 149.84 179.348 149.774C179.184 149.765 179.013 149.754 178.868 149.674C178.422 149.428 178.511 148.771 178.659 148.286C178.496 148.557 178.412 148.87 178.419 149.187L176.026 149.257C175.683 149.266 175.308 149.266 175.039 149.053C174.769 148.84 174.72 148.643 174.698 147.996C174.469 148.848 173.502 148.584 172.861 148.153C172.599 147.977 172.349 147.729 172.034 147.734C171.747 147.734 171.507 147.943 171.233 148.03C170.959 148.116 170.658 148.07 170.374 148.017C168.461 147.663 166.619 147.003 164.917 146.061" fill="white"/>
</g>
<path d="M161.812 144.799C164.886 145.847 166.497 148.462 169.223 150.226C169.862 150.639 170.53 151.027 171.26 151.241C172.133 151.499 173.056 151.499 173.963 151.561C178.067 151.841 182.054 153.425 186.164 153.234C190.309 153.042 194.457 150.458 198.32 150.666C197.815 151.355 197.453 151.998 196.643 152.203C194.797 152.675 193.075 153.6 191.347 154.404C189.902 155.077 189.197 156.247 187.692 156.77C186.041 157.344 185.736 157.546 183.989 157.52C180.254 157.464 174.224 156.412 170.589 155.551C169.332 155.253 168.661 154.266 167.693 153.408C167.142 152.919 166.145 151.591 165.725 150.989C164.016 148.535 161.833 146.782 160.124 144.328L161.812 144.799Z" fill="#FF5663"/>
<path d="M208.857 121.639C208.857 121.639 206.77 123.238 202.91 122.784C199.049 122.33 195.35 120.968 193.508 119.31C193.508 119.31 193.937 118.668 194.79 117.901C196.269 116.574 199.016 114.865 202.995 115.456C208.514 116.281 208.857 120.432 208.863 121.426C208.857 121.569 208.857 121.639 208.857 121.639Z" fill="url(#paint0_linear_1170_2318)"/>
<path d="M201.285 122.546C204.186 122.546 206.538 120.493 206.538 117.961C206.538 115.428 204.186 113.375 201.285 113.375C198.384 113.375 196.032 115.428 196.032 117.961C196.032 120.493 198.384 122.546 201.285 122.546Z" fill="url(#paint1_linear_1170_2318)"/>
<path d="M201.284 122.183C203.954 122.183 206.119 120.293 206.119 117.962C206.119 115.632 203.954 113.742 201.284 113.742C198.615 113.742 196.45 115.632 196.45 117.962C196.45 120.293 198.615 122.183 201.284 122.183Z" fill="url(#paint2_linear_1170_2318)"/>
<path style="mix-blend-mode:multiply" d="M201.285 120.547C202.921 120.547 204.248 119.39 204.248 117.961C204.248 116.533 202.921 115.375 201.285 115.375C199.649 115.375 198.322 116.533 198.322 117.961C198.322 119.39 199.649 120.547 201.285 120.547Z" fill="url(#paint3_linear_1170_2318)"/>
<g style="mix-blend-mode:multiply" opacity="0.6">
<path d="M208.86 121.428C208.028 120.117 206.241 118.451 203.168 117.292C199.369 115.859 195.049 117.691 194.79 117.901C196.268 116.574 199.015 114.865 202.994 115.456C208.513 116.281 208.856 120.432 208.86 121.428Z" fill="#D077B7"/>
</g>
<path d="M195.698 117.173C195.698 117.173 197.948 113.281 202.789 113.337C208.839 113.406 208.735 120.273 208.735 120.273C208.735 120.273 205.546 111.86 195.698 117.173Z" fill="#DC4C6A"/>
<path d="M195.416 120.602C195.811 120.802 203.101 122.4 207.864 122.178C207.992 122.173 204.79 125.196 201.469 124.703C196.919 124.027 195.416 120.602 195.416 120.602Z" fill="#DC6B7C"/>
<path d="M194.787 117.906C194.787 117.906 192.852 118.88 192.792 119.33C192.731 119.78 194.512 120.077 194.512 120.077C194.512 120.077 193.821 119.331 193.953 119.081C194.086 118.831 194.787 117.906 194.787 117.906Z" fill="#E08A97"/>
<path d="M208.85 121.114C208.85 121.114 209.347 119.129 209.16 118.414C208.973 117.698 206.673 115.499 203.222 114.711C199.771 113.924 196.707 116.138 195.018 117.705C195.018 117.705 199.803 114.538 204.041 116.224C208.28 117.909 208.85 121.114 208.85 121.114Z" fill="#4E1B3D"/>
<path d="M204.813 119.139C204.603 119.208 206.674 120.699 206.909 120.529C207.143 120.358 205.288 118.974 204.813 119.139Z" fill="white"/>
<path d="M203.267 118.11C203.1 118.095 202.885 118.459 203.079 118.491C203.273 118.522 203.612 118.63 203.68 118.491C203.749 118.351 203.494 118.13 203.267 118.11Z" fill="white"/>
<path d="M157.685 113.39C157.685 113.39 159.32 115.413 163.445 115.863C167.57 116.314 171.824 115.849 174.258 114.676C174.258 114.676 174.022 113.958 173.39 113.022C173.39 113.022 173.39 113.022 173.39 113.019C172.296 111.396 170.015 109.118 165.721 108.774C159.767 108.299 158.073 112.225 157.748 113.184C157.703 113.316 157.685 113.39 157.685 113.39Z" fill="url(#paint4_linear_1170_2318)"/>
<path d="M166.676 116.163C169.776 116.163 172.289 114.11 172.289 111.578C172.289 109.045 169.776 106.992 166.676 106.992C163.576 106.992 161.062 109.045 161.062 111.578C161.062 114.11 163.576 116.163 166.676 116.163Z" fill="url(#paint5_linear_1170_2318)"/>
<path d="M166.676 115.8C169.529 115.8 171.842 113.91 171.842 111.58C171.842 109.249 169.529 107.359 166.676 107.359C163.823 107.359 161.51 109.249 161.51 111.58C161.51 113.91 163.823 115.8 166.676 115.8Z" fill="url(#paint6_linear_1170_2318)"/>
<path style="mix-blend-mode:multiply" d="M166.676 114.165C168.424 114.165 169.842 113.007 169.842 111.578C169.842 110.15 168.424 108.992 166.676 108.992C164.927 108.992 163.51 110.15 163.51 111.578C163.51 113.007 164.927 114.165 166.676 114.165Z" fill="url(#paint7_linear_1170_2318)"/>
<g style="mix-blend-mode:multiply" opacity="0.6">
<path d="M157.746 113.184C159.027 112.111 161.407 110.915 164.948 110.504C169.327 109.995 173.191 112.757 173.388 113.019C172.294 111.396 170.013 109.118 165.719 108.774C159.765 108.298 158.069 112.226 157.746 113.184Z" fill="#D077B7"/>
</g>
<path d="M172.687 112.109C172.687 112.109 171.624 107.837 166.616 106.777C160.357 105.449 158.248 112.099 158.248 112.099C158.248 112.099 164.252 104.715 172.687 112.109Z" fill="#DC4C6A"/>
<path d="M171.871 115.484C171.399 115.586 163.372 115.451 158.531 114.141C158.4 114.105 160.45 118.707 164.03 118.995C168.938 119.39 171.871 115.484 171.871 115.484Z" fill="#DC6B7C"/>
<path d="M173.39 113.023C173.39 113.023 175.071 114.408 174.987 114.856C174.904 115.304 172.973 115.18 172.973 115.18C172.973 115.18 173.927 114.621 173.87 114.349C173.812 114.076 173.39 113.023 173.39 113.023Z" fill="#E08A97"/>
<path d="M157.858 112.882C157.858 112.882 157.986 110.852 158.41 110.205C158.833 109.558 161.914 107.966 165.728 108.001C169.542 108.035 171.983 110.876 173.219 112.776C173.219 112.776 169.307 108.62 164.395 109.271C159.483 109.922 157.858 112.882 157.858 112.882Z" fill="#4E1B3D"/>
<path d="M162.657 111.908C162.853 112.028 160.235 112.985 160.051 112.768C159.867 112.551 162.22 111.641 162.657 111.908Z" fill="white"/>
<path d="M164.581 111.262C164.758 111.286 164.86 111.689 164.651 111.673C164.441 111.657 164.056 111.685 164.03 111.537C164.004 111.389 164.343 111.23 164.581 111.262Z" fill="white"/>
<path d="M143.512 114.093C148.134 104.038 154.582 96.7897 159.708 85.1567C161.105 81.99 163.61 79.3276 163.658 75.8654C171.944 74.3704 180.44 72.8754 188.731 74.3425C196.905 75.7907 204.306 80.0304 211.171 84.6991C213.654 86.3891 216.306 88.4827 216.697 91.4616C216.786 92.1427 216.747 92.8336 216.762 93.521C216.844 97.4646 219.509 101.078 219.416 105.022C219.311 109.348 219.338 111.462 219.467 114.992C219.582 118.157 219.238 122.11 219.467 125.232C223.864 119.862 224.762 112.336 225.73 105.461C225.982 103.67 226.225 101.783 225.558 100.102C227.017 99.3424 226.493 97.1998 226.466 95.5546C226.438 93.7061 227.324 91.9799 227.72 90.1754C228.592 86.1934 227.039 82.0913 225.122 78.4956C224.868 78.0206 224.599 77.4959 224.711 76.9685C224.799 76.5493 225.115 76.2112 225.216 75.7969C225.321 75.3687 225.185 74.9209 225.038 74.5045C224.035 71.6628 222.489 69.0432 220.486 66.7913C219.927 66.1626 218.997 65.5206 218.32 66.0229C217.545 65.0169 216.504 64.2533 215.479 63.5045C213.049 61.7286 210.333 59.8662 207.333 60.1009C206.751 60.1463 206.156 60.2707 205.592 60.1233C205.027 59.9759 204.506 59.4288 204.643 58.8616L205.82 58.3621C204.961 58.5867 204.06 58.5947 203.198 58.3853C202.336 58.176 201.539 57.7558 200.879 57.1626C199.795 56.4815 198.283 57.6516 197.129 57.0927C196.664 56.8685 196.366 56.4081 195.989 56.0553C194.801 54.9411 192.967 54.9858 191.34 55.0983L183.91 55.6201L183.694 54.5156C180.083 56.1678 176.022 56.4829 172.203 57.5699C168.967 58.4913 165.916 59.964 162.889 61.4289C160.782 62.4475 158.522 63.6162 157.528 65.7337C157.594 64.8779 156.236 64.6026 155.606 65.1853C154.976 65.7679 154.858 66.6991 154.606 67.52C154.355 68.3408 153.743 69.2246 152.886 69.1673C153.135 68.6405 152.895 67.9377 152.377 67.6716L151.216 73.078C150.772 72.338 150.129 71.7378 149.36 71.3462C149.332 71.669 149.369 71.9941 149.47 72.3021C149.57 72.6101 149.732 72.8947 149.945 73.1388C149.341 73.0857 148.58 73.1185 148.332 73.6725C148.216 73.9324 148.262 74.2314 148.255 74.5171C148.233 75.7697 147.271 76.7736 146.698 77.8878C146.125 79.0021 146.188 80.7521 147.397 81.0895L144.354 80.9414C145.561 81.473 145.471 83.1916 145.186 84.4784C144.262 88.6145 143.337 92.7509 142.413 96.8875L143.328 97.1865C142.369 102.176 141.769 107.229 141.531 112.304L143.512 114.093Z" fill="black"/>
<path d="M221.137 121.041C220.884 118.77 220.553 116.327 218.985 114.666C218.286 113.928 216.191 112.205 215.317 111.694C209.036 108.03 203.257 105.432 196.1 106.723C193.9 107.121 192.695 108.182 190.503 108.812C190.503 108.812 185.699 108.602 184.458 108.393C183.318 108.197 180.519 108.482 179.853 107.936C178.211 106.587 176.936 104.253 175.25 102.916C172.273 100.557 168.301 99.7456 164.505 99.9216C160.71 100.098 157.842 102.297 154.195 103.366C152.201 103.951 150.822 103.491 149.275 104.878C147.663 106.323 145.273 108.419 143.607 109.801C142.874 110.408 141.966 110.906 141.609 111.787C141.252 112.668 142.039 113.974 142.911 113.597L143.546 112.997C145.621 111.022 146.602 109.595 148.677 107.618C149.219 107.102 151.299 107.963 152.03 108.134C151.421 112.773 151.471 116.345 154.139 120.037C154.455 120.475 156.29 122.188 156.716 122.52C158.443 123.871 160.357 125.011 162.809 125.427C167.107 126.155 171.253 125.233 174.665 122.52C176.79 120.832 179.985 116.381 179.98 113.666C179.98 113.095 180.153 112.54 180.103 111.972C179.867 109.305 183.883 110.177 185.069 110.102C186.254 110.026 187.821 110.368 187.881 111.555C187.974 113.429 187.906 115.789 188.02 117.694C188.129 119.482 188.366 120.376 188.864 122.052C189.379 123.786 191.021 126.009 192.472 127.161C194.895 129.082 197.601 130.366 200.673 130.723C207.235 131.485 210.587 129.215 213.046 125.1C213.961 123.591 214.793 122.034 215.54 120.436C216.308 118.78 217.31 117.229 219.134 117.292C220.31 119.922 219.29 122.863 219.466 125.241C220.384 124.042 221.304 122.537 221.137 121.041ZM178.842 114.671C178.813 115.079 178.745 115.484 178.639 115.88C178.423 116.619 177.985 117.271 177.534 117.896C176.626 119.153 175.62 120.372 174.362 121.285C172.448 122.678 170.632 124.066 168.325 124.593C167.263 124.836 165.019 124.605 163.931 124.655C161.308 124.775 159.274 123.431 157.42 121.57C156.248 120.395 154.948 119.022 154.301 117.493C153.841 116.406 153.246 115.209 153.08 113.979C152.975 113.198 153.025 112.162 153.032 111.377C153.038 110.708 153.378 108.474 153.566 107.835C153.754 107.197 154.231 106.316 154.582 105.753C155.119 104.895 155.95 104.077 156.832 103.575C157.886 102.977 159.995 102.169 161.594 101.782L162.496 101.674C164.961 101.067 167.596 101.374 169.967 102.286C172.338 103.199 174.447 104.692 176.298 106.428C176.731 106.819 177.128 107.248 177.486 107.71C178.932 109.65 179.077 112.262 178.842 114.671ZM214.487 120.571C213.572 122.393 212.692 124.86 211.217 126.268C208.677 128.693 206.936 129.529 203.438 129.831C202.437 129.918 199.501 129.457 198.408 129.095C195.535 128.143 193.048 126.308 191.363 123.795C190.814 122.977 190.308 122.115 190.044 121.166C189.818 120.36 189.773 119.517 189.73 118.681C189.69 117.931 189.651 117.181 189.612 116.431C189.522 114.709 189.508 112.77 190.709 111.532L190.82 110.887C192.958 108.748 196.045 107.76 199.067 107.638C202.089 107.515 205.085 108.181 208.009 108.95C210.028 109.482 212.174 110.156 213.448 111.81C214.49 113.163 214.762 114.939 214.999 116.631C215.127 117.52 214.693 120.161 214.487 120.571Z" fill="black"/>
<path d="M138.84 175.185C139.527 174.038 140.17 172.849 140.769 171.617C140.769 171.617 139.918 172.838 138.84 175.185Z" fill="black"/>
<path d="M116.735 273.026H141.1C141.011 272.228 140.924 271.43 140.839 270.632C139.438 257.432 139.571 243.775 137.206 230.238C135.859 222.533 136.284 214.799 135.139 207.06C132.829 191.442 136.416 180.465 138.841 175.188C133.322 184.395 125.098 190.984 118.21 198.087C116.585 199.764 114.564 204.568 112.361 205.335C111.582 206.832 119.779 208.682 121.988 211.382C117.775 210.254 108.351 206.264 104.673 203.921C107.145 227.687 111.571 250.232 116.735 273.026Z" fill="#781ED1"/>
<path d="M210.159 214.554C210.988 221.024 211.917 228.997 210.748 235.414C208.499 247.752 209.879 254.938 208.498 267.308C208.275 269.312 208.122 271.202 208.002 273.037H234.751C237.665 254.035 240.249 234.986 242.5 215.891C242.749 213.778 242.876 211.319 241.319 209.869C236.318 214.687 230.075 218.02 223.288 219.494L232.235 212.96C232.584 212.705 232.949 212.431 233.118 212.034C233.441 211.277 232.942 210.44 232.455 209.777C226.79 202.082 221.13 198.199 212.964 193.24C211.261 192.207 207.95 188.518 206.704 186.965L205.127 185.781C206.776 191.153 206.477 191.245 207.521 196.767C208.633 202.656 209.397 208.607 210.159 214.554Z" fill="#781ED1"/>
<path d="M147.271 216.332C150.118 213.36 152.543 218.204 154.863 221.604C157.957 226.14 156.655 231.816 157.338 237.264C158.595 247.293 159.851 257.322 161.107 267.352C161.344 269.244 161.579 271.136 161.812 273.03H176.532C176.122 269.308 175.709 265.587 175.292 261.867L172.874 240.175C172.794 239.463 172.714 238.749 172.627 238.036C178.825 232.866 184.766 228.638 192.228 226.982C194.114 226.563 196.29 226.653 197.756 225.398C199.174 224.185 201.091 220.508 202.945 220.304C204.686 220.114 205.416 222.349 206.249 223.889C207.109 225.478 208.04 226.992 208.499 228.739C209.137 231.172 209.904 233.028 210.709 235.432C212.824 231.73 212.652 227.18 212.173 222.941C211.479 216.811 210.272 210.75 208.564 204.822C208.1 203.21 207.595 201.588 207.502 199.913C207.421 198.442 207.662 196.968 207.596 195.496C207.376 190.565 203.778 186.135 204.103 181.209L202.82 180.593C202.969 189.691 201.449 198.738 198.334 207.287C197.033 210.85 196.769 214.078 197.25 217.844C197.333 218.493 195.491 220.895 195.357 221.535C195.053 222.995 192.51 223.66 191.204 224.381C172.865 234.507 173.916 234.721 172.561 237.515C172.178 234.507 171.639 231.519 170.455 228.741C168.918 225.145 165.564 220.84 161.821 219.719C159.598 219.053 157.392 218.722 155.424 217.492C153.504 216.294 153.263 215.467 152.354 213.392C149.415 206.69 147.959 200.365 145.019 193.663C143.471 190.132 141.66 185.634 141.504 181.782C141.343 177.853 141.294 173.136 142.629 169.906L141.296 170.535C140.027 173.136 137.067 179.14 136.196 182.169C133.65 191.021 134.181 195.468 135.142 204.629C135.927 212.121 135.561 221.185 137.147 228.05C140.748 227.116 144.699 219.017 147.271 216.332Z" fill="white"/>
</g>
<defs>
<filter id="filter0_b_1170_2318" x="-19.5" y="-20" width="330" height="330" filterUnits="userSpaceOnUse" color-interpolation-filters="sRGB">
<feFlood flood-opacity="0" result="BackgroundImageFix"/>
<feGaussianBlur in="BackgroundImageFix" stdDeviation="10"/>
<feComposite in2="SourceAlpha" operator="in" result="effect1_backgroundBlur_1170_2318"/>
<feBlend mode="normal" in="SourceGraphic" in2="effect1_backgroundBlur_1170_2318" result="shape"/>
</filter>
<linearGradient id="paint0_linear_1170_2318" x1="200.204" y1="122.728" x2="203.419" y2="115.29" gradientUnits="userSpaceOnUse">
<stop stop-color="#EDE1FF"/>
<stop offset="1" stop-color="#BCC8FA"/>
</linearGradient>
<linearGradient id="paint1_linear_1170_2318" x1="207.023" y1="122.297" x2="197.54" y2="118.174" gradientUnits="userSpaceOnUse">
<stop stop-color="#72791A"/>
<stop offset="1" stop-color="#594A0B"/>
</linearGradient>
<linearGradient id="paint2_linear_1170_2318" x1="201.05" y1="123.069" x2="203.728" y2="116.911" gradientUnits="userSpaceOnUse">
<stop stop-color="#A58C18"/>
<stop offset="1" stop-color="#402F40"/>
</linearGradient>
<linearGradient id="paint3_linear_1170_2318" x1="201.527" y1="121.972" x2="203.168" y2="118.197" gradientUnits="userSpaceOnUse">
<stop stop-color="#72791A"/>
<stop offset="1" stop-color="#594A0B"/>
</linearGradient>
<linearGradient id="paint4_linear_1170_2318" x1="166.203" y1="116.806" x2="165.102" y2="109.027" gradientUnits="userSpaceOnUse">
<stop stop-color="#EDE1FF"/>
<stop offset="1" stop-color="#BCC8FA"/>
</linearGradient>
<linearGradient id="paint5_linear_1170_2318" x1="161.141" y1="112.358" x2="172.22" y2="110.781" gradientUnits="userSpaceOnUse">
<stop stop-color="#72791A"/>
<stop offset="1" stop-color="#594A0B"/>
</linearGradient>
<linearGradient id="paint6_linear_1170_2318" x1="167.106" y1="114.561" x2="166.181" y2="108.059" gradientUnits="userSpaceOnUse">
<stop stop-color="#A58C18"/>
<stop offset="1" stop-color="#402F40"/>
</linearGradient>
<linearGradient id="paint7_linear_1170_2318" x1="166.941" y1="113.402" x2="166.374" y2="109.418" gradientUnits="userSpaceOnUse">
<stop stop-color="#72791A"/>
<stop offset="1" stop-color="#594A0B"/>
</linearGradient>
</defs>
</svg>
