<svg width="291" height="290" viewBox="0 0 291 290" fill="none" xmlns="http://www.w3.org/2000/svg">
<g filter="url(#filter0_b_1170_2528)">
<rect x="0.5" width="290" height="290" rx="60" fill="#00007E"/>
</g>
<mask id="mask0_1170_2528" style="mask-type:alpha" maskUnits="userSpaceOnUse" x="21" y="20" width="250" height="251">
<rect x="21" y="20.0391" width="250" height="250" rx="60" fill="#C4C4C4"/>
</mask>
<g mask="url(#mask0_1170_2528)">
<path d="M276 113.817V112.956C275.895 106.349 273.324 63.7075 224.589 55.2009C182.152 47.7927 179.356 15.0391 179.356 15.0391H133.197C133.197 15.0391 139.35 55.3989 69.4532 91.0139C29.2201 111.506 18.6584 145.88 16 168.217V275.039H276V113.632C276 113.754 276 113.817 276 113.817Z" fill="#150DCE"/>
<path d="M133.191 15.0391H16V168.217C18.6584 145.88 29.2201 111.506 69.4467 91.0139C139.343 55.3989 133.191 15.0391 133.191 15.0391Z" fill="#66C3CD"/>
<path d="M224.586 55.2009C273.32 63.7075 275.892 106.346 275.997 112.956V15.0391H179.354C179.354 15.0391 182.149 47.7941 224.586 55.2009Z" fill="#00007E"/>
<path d="M275.794 241.684C274.868 240.599 273.633 239.773 272.475 238.915C266.576 234.545 262.004 228.672 257.037 223.268C248.916 214.442 239.149 206.524 227.515 203.604C219.307 201.543 210.152 201.923 203.166 197.147C200.473 195.305 198.292 192.802 195.663 190.863C189.016 185.97 180.261 185.192 172.007 185.124C163.772 185.053 155.486 185.524 147.457 187.359C140.327 188.989 129.084 196.826 124.194 200.419C122.692 201.525 124.773 193.689 124.773 193.689C123.056 196.434 118.433 202.788 116.225 205.096C114.768 206.623 112.864 212.747 111.243 214.121C103.81 220.431 94.8551 225.279 86.3072 230.16C73.0857 237.701 59.4068 246.8 53.8677 260.977C52.1325 265.416 51.2984 270.142 50.5469 274.856H275.794V241.684Z" fill="black"/>
<path d="M55.7809 274.624C55.7809 274.643 55.7759 274.649 55.7531 274.671C55.6724 274.765 55.5618 274.829 55.4397 274.851C55.3072 274.868 55.1548 274.813 55.0123 274.572C55.0015 274.549 54.994 274.525 54.9902 274.501C55.1799 273.274 55.6595 272.111 56.3892 271.107C56.8416 270.488 57.3509 269.949 57.8139 269.397C58.0429 269.13 58.257 268.85 58.455 268.559C58.6498 268.269 58.8261 267.967 58.9828 267.654C59.1426 267.34 59.2853 267.018 59.4102 266.688C59.5351 266.358 59.6463 266.022 59.7436 265.678C60.1361 264.306 60.3384 262.868 60.5671 261.421C60.6803 260.696 60.8014 259.968 60.9517 259.24C61.1005 258.506 61.2985 257.783 61.5444 257.076C62.043 255.655 62.7489 254.325 63.5567 253.082C64.3645 251.839 65.2663 250.665 66.1667 249.511L66.5057 249.08C66.6247 248.933 66.7444 248.786 66.8619 248.642C66.9794 248.498 67.1126 248.357 67.2437 248.221L67.4432 248.018L67.5429 247.917L67.6476 247.82C68.2024 247.293 68.8191 246.836 69.484 246.458C69.5253 246.433 69.568 246.412 69.6122 246.386L69.7077 246.338L69.7532 246.314L69.843 246.267C69.9043 246.237 69.9641 246.203 70.0268 246.178L70.4008 246.013C70.4008 246.013 70.42 246.006 70.4549 245.997L70.6052 245.952L70.8331 245.888C70.9193 245.861 71.0191 245.844 71.1231 245.82L71.2848 245.785L71.3681 245.767L71.455 245.755L71.8112 245.704C71.9316 245.688 72.0534 245.684 72.1716 245.675L72.3461 245.664H72.8818L72.9801 245.673C73.0758 245.683 73.1709 245.698 73.265 245.717C73.4018 245.75 73.4388 245.789 73.4025 245.831C73.3662 245.873 73.26 245.915 73.1062 245.959C73.0307 245.982 72.9431 245.997 72.8497 246.023C72.7564 246.049 72.6546 246.074 72.5477 246.099C72.5712 246.099 72.4544 246.123 72.2699 246.174C72.1787 246.2 72.0683 246.226 71.9494 246.26L71.5825 246.376C71.336 246.465 71.0882 246.559 70.9086 246.644C70.8182 246.685 70.742 246.715 70.6907 246.743L70.6095 246.785C70.4991 246.835 70.3872 246.881 70.2775 246.933L70.1165 247.017L70.0759 247.037L70.0047 247.074C69.9669 247.094 69.9278 247.112 69.8907 247.133L69.6699 247.262C69.5987 247.305 69.5217 247.346 69.4519 247.396C68.875 247.772 68.3432 248.214 67.867 248.712C67.6255 248.96 67.399 249.225 67.181 249.496C66.9631 249.766 66.7365 250.059 66.5171 250.341C65.6374 251.472 64.7762 252.611 64.024 253.812C63.2718 255.013 62.6292 256.271 62.1947 257.601C61.7602 258.93 61.533 260.337 61.3107 261.754C61.0885 263.172 60.8791 264.616 60.4559 266.035C60.2481 266.751 59.9727 267.444 59.6332 268.107C59.4615 268.441 59.2688 268.764 59.0562 269.074C58.8443 269.381 58.6163 269.676 58.3731 269.959C57.8994 270.519 57.4114 271.037 57.0132 271.593C56.8146 271.869 56.6363 272.159 56.4797 272.46C56.13 273.138 55.8916 273.867 55.7738 274.62L55.7809 274.624Z" fill="#61328F"/>
<path d="M192.087 274.468C192.089 274.477 192.089 274.487 192.087 274.496C192.087 274.506 192.084 274.515 192.08 274.523C192.015 274.72 191.802 275.043 191.362 274.727C191.343 274.712 191.327 274.695 191.314 274.675C191.199 274.247 191.089 273.818 190.982 273.387C190.864 272.912 190.752 272.437 190.648 271.962C190.544 271.484 190.443 271.003 190.363 270.516C190.2 269.54 190.102 268.528 190.203 267.512C190.255 267.005 190.353 266.504 190.496 266.016C190.637 265.537 190.803 265.066 190.995 264.605C191.371 263.689 191.805 262.82 192.168 261.94L192.424 261.274L192.488 261.107C192.51 261.052 192.531 260.997 192.548 260.939L192.662 260.6L192.775 260.261C192.814 260.148 192.852 260.035 192.882 259.92L193.08 259.232C193.115 259.117 193.144 259.001 193.171 258.885L193.256 258.536C193.313 258.305 193.371 258.073 193.416 257.837L193.558 257.132L193.681 256.424C193.701 256.305 193.722 256.187 193.741 256.067L193.792 255.711C193.824 255.473 193.863 255.236 193.89 254.999C193.944 254.521 194.006 254.044 194.045 253.564C194.138 252.606 194.196 251.64 194.246 250.678C194.338 248.748 194.373 246.81 194.443 244.866C194.48 243.894 194.519 242.919 194.586 241.945C194.614 241.46 194.657 240.972 194.699 240.485L194.77 239.755L194.808 239.39L194.855 239.026C194.97 238.053 195.14 237.084 195.341 236.121L195.503 235.401C195.561 235.162 195.632 234.925 195.692 234.689L195.789 234.333L195.9 233.977L196.011 233.624C196.049 233.506 196.082 233.387 196.126 233.271L196.355 232.645C196.402 232.521 196.445 232.397 196.497 232.275C196.497 232.275 196.64 231.997 196.831 231.629L196.908 231.486L196.995 231.34L197.18 231.04L197.372 230.74L197.465 230.597L197.566 230.463C197.993 229.866 198.173 229.723 198.207 229.829C198.24 229.934 198.118 230.287 197.945 230.694C197.962 230.677 197.906 230.785 197.838 230.968L197.566 231.644C197.512 231.768 197.472 231.897 197.428 232.018L197.313 232.345L197.2 232.667C197.155 232.783 197.113 232.901 197.072 233.019L197.007 233.195L196.895 233.502C196.852 233.611 196.82 233.724 196.785 233.836L196.678 234.171L196.574 234.507C196.538 234.618 196.509 234.732 196.48 234.846L196.297 235.526L196.141 236.213C196.116 236.327 196.088 236.442 196.065 236.557L196.001 236.904C195.817 237.83 195.692 238.764 195.583 239.702L195.512 240.408C195.487 240.643 195.472 240.879 195.448 241.113C195.405 241.584 195.383 242.057 195.348 242.531C195.296 243.479 195.252 244.427 195.223 245.38C195.16 247.284 195.123 249.196 195.021 251.109C194.994 251.587 194.968 252.067 194.93 252.546C194.893 253.024 194.852 253.502 194.807 253.981C194.706 254.938 194.593 255.895 194.418 256.845L194.354 257.201C194.333 257.322 194.307 257.44 194.283 257.558L194.137 258.27L193.965 258.975C193.936 259.093 193.909 259.212 193.878 259.328L193.778 259.677C193.516 260.613 193.197 261.531 192.822 262.426C192.444 263.32 192.021 264.173 191.673 265.04C191.324 265.907 191.055 266.785 190.981 267.684C190.907 268.583 190.994 269.51 191.15 270.431C191.23 270.892 191.324 271.353 191.427 271.816C191.53 272.28 191.641 272.739 191.751 273.199C191.859 273.621 191.971 274.044 192.087 274.468Z" fill="#61328F"/>
<path d="M185.062 274.497C185.064 274.507 185.064 274.516 185.062 274.526C185.059 274.535 185.055 274.544 185.05 274.552C184.968 274.747 184.723 275.041 184.317 274.688C184.3 274.672 184.285 274.654 184.274 274.633C184.203 274.206 184.117 273.778 184.023 273.351C183.918 272.889 183.804 272.431 183.662 271.981C183.591 271.756 183.527 271.532 183.448 271.307C183.37 271.082 183.294 270.859 183.205 270.641C182.866 269.754 182.473 268.889 182.028 268.051C181.584 267.212 181.092 266.4 180.553 265.619C180.286 265.227 180.001 264.849 179.709 264.479L179.445 264.158C179.364 264.06 179.285 263.96 179.199 263.866L178.771 263.311C178.643 263.157 178.5 262.981 178.357 262.799C178.213 262.616 178.052 262.449 177.919 262.286L177.834 262.187C177.807 262.157 177.78 262.13 177.755 262.103C177.705 262.048 177.659 261.998 177.619 261.952C177.557 261.88 177.498 261.805 177.443 261.727C177.364 261.609 177.36 261.555 177.414 261.548C177.468 261.541 177.575 261.582 177.72 261.657C177.791 261.695 177.873 261.741 177.96 261.793L178.095 261.876C178.14 261.907 178.185 261.94 178.231 261.974C178.217 261.954 178.316 262.029 178.473 262.153C178.552 262.218 178.649 262.288 178.747 262.371L179.052 262.647C179.156 262.741 179.265 262.832 179.357 262.925L179.615 263.181L179.871 263.432L180.12 263.734L180.244 263.884L180.326 263.985C180.365 264.031 180.404 264.077 180.439 264.127L180.877 264.705C181.019 264.9 181.155 265.099 181.293 265.297C181.834 266.095 182.33 266.922 182.778 267.776C182.887 267.99 183.001 268.204 183.106 268.421L183.414 269.075L183.699 269.737C183.794 269.96 183.877 270.187 183.965 270.41L184.03 270.579L184.09 270.75L184.21 271.092C184.295 271.319 184.36 271.553 184.433 271.784C184.579 272.245 184.696 272.716 184.802 273.187C184.901 273.617 184.986 274.057 185.062 274.497Z" fill="#61328F"/>
<path d="M172.628 260.794C172.625 260.785 172.623 260.775 172.623 260.765C172.623 260.756 172.625 260.746 172.628 260.738C172.662 260.532 172.825 260.182 173.308 260.428C173.328 260.44 173.347 260.455 173.362 260.473L173.891 261.687C174.675 263.506 175.445 265.33 176.216 267.152L177.37 269.884L178.272 272C178.272 272 178.676 273.146 178.906 273.974C179.333 275.363 178.937 274.907 178.49 274.124C178.5 274.171 178.252 273.697 178.001 273.206L177.503 272.218L176.581 270.06L175.441 267.373C174.684 265.581 173.927 263.791 173.157 262.006L172.628 260.794Z" fill="#61328F"/>
<path d="M212.141 274.466C212.142 274.476 212.142 274.485 212.141 274.494C212.14 274.504 212.137 274.513 212.131 274.521C212.06 274.719 211.842 275.034 211.409 274.713C211.391 274.698 211.375 274.68 211.363 274.66L211.05 273.373C209.103 265.369 207.403 257.309 205.95 249.195C205.222 245.141 204.557 241.076 203.955 237.001C203.799 235.982 203.66 234.962 203.514 233.943C203.369 232.923 203.235 231.903 203.097 230.88L202.954 229.825C202.954 229.825 202.883 228.607 202.897 227.749C202.885 226.295 203.132 226.847 203.338 227.723C203.345 227.629 203.755 229.826 203.755 229.826L203.979 231.494L204.18 232.996L204.394 234.497L204.608 235.997L204.831 237.497C205.43 241.495 206.088 245.483 206.806 249.461C208.241 257.416 209.913 265.323 211.824 273.181L212.141 274.466Z" fill="#61328F"/>
<path d="M152.381 255.609C152.374 255.603 152.368 255.595 152.364 255.586C152.36 255.577 152.358 255.568 152.358 255.558C152.318 255.357 152.338 254.964 152.877 255.021C152.899 255.025 152.921 255.033 152.941 255.043L153.412 255.523C153.568 255.684 153.714 255.853 153.866 256.018C154.958 257.226 155.943 258.526 156.81 259.904C157.677 261.278 158.448 262.71 159.119 264.189C159.785 265.666 160.368 267.179 160.865 268.721C161.121 269.491 161.346 270.266 161.559 271.046L161.684 271.508L161.783 271.887C161.783 271.887 161.84 272.188 161.903 272.599C161.967 273.01 162.036 273.525 162.07 273.953C162.145 274.678 162.101 274.908 162.012 274.851C161.922 274.794 161.778 274.447 161.633 274.023C161.633 274.069 161.483 273.557 161.321 273.037C161.158 272.518 160.987 271.987 160.987 271.987L160.888 271.618L160.839 271.433L160.714 270.985C160.505 270.229 160.277 269.482 160.031 268.741L159.941 268.461C159.909 268.369 159.875 268.277 159.844 268.184L159.652 267.632C159.587 267.446 159.517 267.265 159.449 267.082L159.241 266.532C159.099 266.171 158.951 265.807 158.8 265.448L158.565 264.91L158.449 264.641C158.409 264.551 158.367 264.465 158.325 264.376C157.675 262.957 156.93 261.584 156.095 260.265C155.261 258.951 154.317 257.709 153.273 256.554C153.126 256.395 152.985 256.231 152.833 256.075L152.381 255.609Z" fill="#61328F"/>
<path d="M145.795 252.116C145.79 252.108 145.788 252.098 145.788 252.088C145.788 252.079 145.79 252.069 145.795 252.061C145.849 251.853 146.05 251.536 146.507 251.831C146.526 251.844 146.543 251.86 146.555 251.88C146.684 252.293 146.825 252.707 146.971 253.118C147.283 253.99 147.621 254.853 147.976 255.71C148.33 256.567 148.706 257.414 149.106 258.248C149.305 258.665 149.512 259.076 149.729 259.48L150.411 260.703C150.86 261.531 151.279 262.377 151.673 263.231C152.067 264.085 152.435 264.951 152.785 265.822C153.134 266.693 153.467 267.571 153.782 268.451C154.097 269.332 154.409 270.216 154.712 271.1L154.997 271.938C154.997 271.938 155.31 273.114 155.468 273.959C155.771 275.384 155.418 274.891 155.041 274.075C155.054 274.168 154.207 272.095 154.207 272.095L153.851 271.047C153.552 270.181 153.247 269.318 152.936 268.459C152.31 266.741 151.634 265.046 150.871 263.394C150.485 262.569 150.076 261.758 149.642 260.96L149.309 260.366C149.199 260.164 149.078 259.957 148.972 259.752L148.808 259.442L148.651 259.131C148.545 258.924 148.447 258.715 148.345 258.506C147.944 257.672 147.575 256.825 147.22 255.971C146.864 255.116 146.531 254.256 146.218 253.384C146.072 252.967 145.929 252.546 145.795 252.116Z" fill="#61328F"/>
<path d="M123.954 238.004C123.949 237.996 123.947 237.986 123.946 237.977C123.944 237.968 123.944 237.958 123.946 237.949C123.971 237.74 124.122 237.385 124.612 237.612C124.633 237.623 124.652 237.638 124.668 237.655L125.245 238.849C128.091 244.781 130.691 250.822 133.045 256.974C134.219 260.047 135.327 263.145 136.369 266.266L136.759 267.437C136.887 267.826 137.012 268.22 137.139 268.611L137.516 269.785C137.644 270.176 137.761 270.569 137.883 270.963L138.178 271.917L138.225 272.115C138.254 272.239 138.293 272.415 138.333 272.614C138.416 273.017 138.516 273.526 138.578 273.952C138.828 275.386 138.494 274.878 138.151 274.051C138.157 274.098 137.968 273.596 137.778 273.083C137.588 272.571 137.394 272.047 137.394 272.047L136.959 270.644C136.842 270.26 136.717 269.875 136.594 269.49L136.223 268.336C136.102 267.952 135.974 267.569 135.847 267.187L135.462 266.041C134.436 262.985 133.343 259.952 132.185 256.941C129.877 250.922 127.325 245.004 124.528 239.186L123.954 238.004Z" fill="#61328F"/>
<path d="M133.809 274.446C133.814 274.454 133.816 274.464 133.816 274.473C133.816 274.483 133.814 274.492 133.809 274.501C133.758 274.704 133.564 275.036 133.104 274.749C133.084 274.736 133.067 274.719 133.053 274.7L132.632 273.446C130.842 268.143 129.004 262.858 126.951 257.658C125.925 255.058 124.846 252.481 123.694 249.937C123.119 248.664 122.524 247.402 121.909 246.149L121.481 245.294C121.481 245.294 121.365 245.015 121.215 244.633C121.064 244.25 120.866 243.774 120.725 243.368C120.211 242.01 120.631 242.436 121.129 243.189C121.115 243.144 121.395 243.603 121.68 244.073C121.822 244.307 121.959 244.549 122.065 244.73L122.238 245.033L122.84 246.244L123.73 248.114L124.592 249.997C125.724 252.515 126.784 255.063 127.797 257.628C129.815 262.764 131.628 267.973 133.388 273.191L133.809 274.446Z" fill="#61328F"/>
<path d="M104.099 219.256C104.101 219.246 104.105 219.237 104.111 219.23C104.117 219.222 104.124 219.216 104.133 219.211C104.293 219.075 104.646 218.923 104.845 219.425C104.854 219.448 104.858 219.472 104.858 219.496C104.73 219.913 104.602 220.331 104.486 220.754C104.153 221.948 103.867 223.157 103.64 224.375C103.523 224.984 103.426 225.597 103.339 226.209C103.3 226.517 103.255 226.823 103.223 227.135L103.172 227.598L103.129 228.059C103.019 229.291 102.976 230.527 103.001 231.763C103.018 232.382 103.043 232.999 103.097 233.615C103.12 233.924 103.156 234.231 103.188 234.541C103.204 234.695 103.227 234.847 103.246 235C103.264 235.153 103.283 235.306 103.31 235.458C103.489 236.678 103.758 237.884 104.113 239.065C104.47 240.244 104.919 241.394 105.455 242.503C105.988 243.622 106.58 244.727 107.123 245.871C107.666 247.015 108.142 248.185 108.585 249.361C109.028 250.538 109.44 251.726 109.851 252.907L111.081 256.457C111.898 258.826 112.698 261.203 113.463 263.59C114.228 265.978 114.951 268.383 115.608 270.806L115.901 271.905C115.901 271.905 115.916 271.976 115.938 272.105C115.96 272.235 115.99 272.409 116.025 272.611C116.06 272.813 116.096 273.045 116.129 273.278C116.161 273.511 116.193 273.747 116.211 273.96C116.387 275.406 116.078 274.886 115.775 274.038C115.775 274.086 115.619 273.575 115.447 273.056C115.275 272.538 115.106 272.006 115.106 272.006L115.007 271.637L114.958 271.453L114.851 271.055C114.773 270.757 114.688 270.462 114.606 270.168C114.281 268.983 113.931 267.807 113.58 266.63C113.229 265.453 112.856 264.283 112.476 263.114C111.721 260.775 110.929 258.447 110.125 256.121L108.914 252.631C108.51 251.469 108.103 250.312 107.663 249.168C107.224 248.025 106.75 246.905 106.215 245.81C105.68 244.715 105.1 243.624 104.577 242.492C104.05 241.357 103.61 240.183 103.261 238.981C103.093 238.38 102.934 237.774 102.812 237.161C102.741 236.857 102.692 236.549 102.634 236.242C102.605 236.088 102.584 235.934 102.558 235.78C102.533 235.625 102.507 235.471 102.487 235.317C102.315 234.081 102.22 232.836 102.202 231.588L102.196 231.121L102.201 230.654C102.201 230.342 102.216 230.03 102.224 229.72C102.252 229.098 102.288 228.477 102.352 227.861C102.416 227.244 102.484 226.623 102.566 226.008C102.614 225.701 102.655 225.392 102.708 225.087L102.786 224.627L102.872 224.169C103.1 222.95 103.389 221.738 103.721 220.541C103.84 220.107 103.966 219.679 104.099 219.256Z" fill="#61328F"/>
<path d="M100.956 221.211C100.958 221.202 100.962 221.193 100.968 221.186C100.974 221.179 100.982 221.173 100.99 221.169C101.152 221.036 101.506 220.884 101.702 221.389C101.71 221.412 101.715 221.436 101.714 221.46L101.308 222.717C100.945 223.85 100.603 224.985 100.302 226.13C99.9998 227.27 99.762 228.426 99.5896 229.593C99.4217 230.753 99.3472 231.924 99.3666 233.096C99.3967 234.272 99.5019 235.444 99.6815 236.606C99.856 237.774 100.1 238.932 100.371 240.086C100.642 241.24 100.948 242.389 101.264 243.538C101.89 245.837 102.551 248.128 103.231 250.413C104.592 254.982 106.043 259.526 107.514 264.065L110.069 271.935C110.069 271.935 110.366 273.115 110.511 273.963C110.796 275.388 110.447 274.894 110.084 274.071C110.09 274.118 109.891 273.622 109.688 273.109L109.283 272.079L106.537 263.622C105.093 259.154 103.667 254.681 102.334 250.176C101.667 247.923 101.023 245.663 100.404 243.396C99.7905 241.128 99.2007 238.837 98.8645 236.482C98.6878 235.305 98.5909 234.116 98.5745 232.925C98.5617 231.73 98.645 230.536 98.8238 229.355L98.8951 228.914L98.9727 228.474C99.0219 228.18 99.086 227.89 99.1437 227.599C99.2719 227.019 99.4037 226.441 99.5568 225.867C99.8553 224.722 100.198 223.593 100.558 222.469L100.956 221.211Z" fill="#61328F"/>
<path d="M217.497 274.429C217.502 274.437 217.504 274.446 217.504 274.456C217.504 274.466 217.502 274.476 217.497 274.484C217.457 274.689 217.28 275.034 216.808 274.769C216.789 274.757 216.771 274.742 216.756 274.724L216.276 273.49L215.096 270.469C214.701 269.461 214.317 268.452 213.928 267.444L212.765 264.418C212.381 263.41 211.989 262.4 211.611 261.386C210.851 259.359 210.124 257.311 209.521 255.217C209.22 254.172 208.951 253.115 208.724 252.047C208.496 250.98 208.318 249.901 208.174 248.823C208.03 247.744 207.911 246.666 207.8 245.592L207.469 242.365L206.805 235.915L206.036 228.392C206.036 228.392 205.994 227.174 206.028 226.317C206.049 224.864 206.284 225.419 206.469 226.3C206.477 226.206 206.838 228.417 206.838 228.417L207.666 236.484L208.317 242.824L208.642 245.993C208.754 247.048 208.873 248.099 209.022 249.143C209.319 251.228 209.771 253.288 210.375 255.306C210.969 257.331 211.682 259.325 212.427 261.308C212.802 262.3 213.181 263.291 213.567 264.282L214.711 267.257C215.096 268.249 215.471 269.245 215.857 270.231L217.016 273.196L217.497 274.429Z" fill="#61328F"/>
<path d="M234.111 274.456C234.115 274.465 234.116 274.474 234.115 274.483C234.114 274.493 234.111 274.502 234.107 274.51C234.073 274.63 233.999 274.735 233.897 274.807C233.835 274.847 233.762 274.864 233.689 274.857C233.581 274.84 233.48 274.796 233.394 274.728C233.375 274.714 233.358 274.697 233.345 274.677C233.337 274.651 233.203 274.182 233.013 273.492L232.881 273.002C232.748 272.505 232.616 271.998 232.485 271.482C232.223 270.447 231.965 269.378 231.744 268.26C231.714 268.121 231.69 267.979 231.664 267.837L231.625 267.624C231.615 267.552 231.603 267.481 231.592 267.41C231.548 267.129 231.504 266.847 231.46 266.563C231.449 266.492 231.439 266.42 231.426 266.353L231.385 266.143L231.305 265.722C231.279 265.58 231.242 265.442 231.212 265.301C231.183 265.161 231.148 265.016 231.115 264.878C230.826 263.728 230.466 262.597 230.036 261.491C229.165 259.233 228.02 256.993 226.819 254.735C225.618 252.476 224.359 250.182 223.292 247.79C222.75 246.595 222.275 245.372 221.867 244.125C221.463 242.879 221.141 241.619 220.85 240.368C220.28 237.863 219.853 235.386 219.311 233.031C219.035 231.855 218.751 230.702 218.425 229.587C218.271 229.026 218.096 228.479 217.932 227.936C217.889 227.8 217.846 227.666 217.803 227.532C217.761 227.398 217.717 227.265 217.672 227.131C217.583 226.866 217.5 226.6 217.408 226.338C216.689 224.248 215.908 222.306 215.115 220.548L214.968 220.22C214.918 220.111 214.867 220.007 214.817 219.899L214.52 219.266C214.423 219.052 214.321 218.853 214.221 218.651L213.926 218.052C213.83 217.854 213.728 217.662 213.63 217.475L213.338 216.913L213.195 216.639L213.053 216.371L213.005 216.282L212.829 215.961L212.677 215.682C212.677 215.682 212.645 215.611 212.594 215.498L212.38 215.037C212.209 214.665 212.001 214.192 211.831 213.8C211.235 212.477 211.68 212.874 212.224 213.598C212.207 213.554 212.519 213.993 212.819 214.452L213.24 215.09L213.425 215.387L213.578 215.666L213.971 216.391C214.705 217.769 215.479 219.355 216.246 221.12C217.013 222.885 217.762 224.833 218.45 226.931C218.798 227.978 219.117 229.068 219.427 230.183C219.5 230.464 219.575 230.745 219.649 231.028C219.685 231.171 219.72 231.313 219.76 231.456C219.799 231.598 219.831 231.741 219.863 231.883L220.072 232.751C220.136 233.042 220.205 233.334 220.267 233.628C220.78 235.979 221.205 238.419 221.788 240.851C222.082 242.067 222.419 243.279 222.828 244.47C223.245 245.665 223.722 246.839 224.257 247.986C225.326 250.294 226.561 252.539 227.748 254.775C228.934 257.011 230.063 259.257 230.915 261.548C231.026 261.833 231.121 262.118 231.223 262.406C231.325 262.695 231.411 262.984 231.504 263.268C231.547 263.41 231.589 263.558 231.632 263.701C231.675 263.844 231.717 263.986 231.754 264.132C231.825 264.422 231.908 264.71 231.967 264.998C232.001 265.14 232.034 265.283 232.065 265.43C232.096 265.576 232.122 265.715 232.15 265.861C232.179 266.008 232.207 266.146 232.232 266.293L232.299 266.724C232.345 267.015 232.383 267.28 232.427 267.553C232.451 267.688 232.475 267.824 232.498 267.959C232.522 268.094 232.552 268.23 232.579 268.364C232.799 269.441 233.057 270.488 233.313 271.499C233.441 272.004 233.572 272.5 233.705 272.988L233.793 273.294C233.973 273.976 234.104 274.433 234.111 274.456Z" fill="#61328F"/>
<path d="M240.909 274.38C240.92 274.389 240.925 274.394 240.928 274.419C240.948 274.527 240.951 274.637 240.936 274.746C240.935 274.781 240.928 274.815 240.916 274.848C240.903 274.885 240.881 274.918 240.853 274.944C240.788 275.008 240.667 275.042 240.507 275.035C240.478 275.033 240.45 275.026 240.424 275.016C240.317 274.933 240.215 274.843 240.12 274.746C240.02 274.647 239.925 274.542 239.835 274.433C239.804 274.395 239.783 274.369 239.759 274.335L239.688 274.238L239.533 274.032L239.228 273.623C239.151 273.518 239.071 273.416 238.995 273.308C238.92 273.201 238.844 273.094 238.769 272.988L238.309 272.334C237.716 271.441 237.113 270.509 236.555 269.517C235.371 267.45 234.359 265.288 233.53 263.055C233.102 261.894 232.721 260.696 232.376 259.472C232.047 258.244 231.764 256.992 231.528 255.716C231.294 254.441 231.131 253.151 230.929 251.88C230.727 250.608 230.497 249.337 230.145 248.11C229.785 246.882 229.333 245.683 228.792 244.524C228.259 243.36 227.662 242.225 227.055 241.104C225.841 238.863 224.579 236.664 223.626 234.386C223.389 233.817 223.171 233.247 222.965 232.677C222.759 232.107 222.573 231.545 222.392 230.984C222.036 229.864 221.707 228.763 221.387 227.698C221.066 226.633 220.75 225.602 220.412 224.62C220.073 223.639 219.716 222.702 219.329 221.827C218.961 220.992 218.541 220.181 218.07 219.4C217.96 219.214 217.841 219.036 217.729 218.858C217.617 218.679 217.494 218.511 217.376 218.345C217.259 218.178 217.138 218.016 217.014 217.86L216.95 217.783L216.729 217.498L216.523 217.242L216.405 217.068C216.333 216.958 216.232 216.801 216.125 216.612C216.007 216.403 215.906 216.184 215.824 215.958C215.737 215.721 215.689 215.471 215.682 215.218C215.675 215.05 215.699 214.883 215.753 214.723C215.784 214.625 215.832 214.533 215.895 214.452C215.99 214.338 216.044 214.332 216.061 214.381C216.069 214.48 216.069 214.581 216.061 214.681C216.055 214.85 216.076 215.02 216.123 215.183C216.123 215.162 216.145 215.265 216.211 215.425C216.298 215.631 216.407 215.827 216.538 216.009C216.676 216.205 216.824 216.393 216.982 216.573C217.114 216.724 217.207 216.825 217.207 216.825L217.259 216.889C217.292 216.93 217.341 216.989 217.406 217.07C217.438 217.11 217.47 217.155 217.512 217.204L217.572 217.281L217.604 217.32L217.653 217.385C217.683 217.422 217.714 217.462 217.742 217.501L217.918 217.739C218.414 218.422 218.864 219.138 219.264 219.882C219.701 220.704 220.094 221.548 220.441 222.412C220.806 223.31 221.138 224.264 221.461 225.25C221.783 226.236 222.088 227.266 222.402 228.317C223.036 230.418 223.696 232.629 224.671 234.787C225.645 236.944 226.884 239.091 228.078 241.324C228.675 242.441 229.257 243.585 229.772 244.77C229.836 244.918 229.904 245.066 229.965 245.215L230.145 245.664C230.204 245.816 230.268 245.965 230.323 246.118L230.487 246.578C230.54 246.732 230.6 246.884 230.648 247.04L230.79 247.508C230.837 247.664 230.889 247.819 230.933 247.976C230.976 248.134 231.02 248.291 231.06 248.449C231.71 250.983 231.915 253.563 232.396 256.02C232.622 257.253 232.921 258.462 233.255 259.646C233.341 259.941 233.425 260.236 233.511 260.529L233.796 261.398C233.886 261.689 233.992 261.973 234.093 262.257L234.245 262.684L234.32 262.898L234.402 263.107L234.728 263.94C234.837 264.217 234.957 264.487 235.072 264.757C235.128 264.893 235.186 265.028 235.244 265.163C235.301 265.299 235.365 265.43 235.426 265.562L235.789 266.352L236.175 267.121L236.367 267.506L236.567 267.881L236.965 268.625L237.378 269.346L237.584 269.702L237.798 270.051L238.222 270.741C238.364 270.967 238.514 271.19 238.659 271.409C238.803 271.628 238.943 271.85 239.096 272.061C239.395 272.485 239.682 272.908 239.988 273.306L240.181 273.562L240.33 273.763L240.402 273.857L240.434 273.901L240.461 273.935C240.539 274.03 240.622 274.116 240.688 274.182C240.757 274.253 240.83 274.318 240.909 274.378V274.38Z" fill="#61328F"/>
<path d="M256.144 274.433C256.149 274.441 256.151 274.451 256.151 274.46C256.151 274.47 256.149 274.479 256.144 274.488C256.101 274.692 255.922 275.035 255.451 274.767C255.431 274.755 255.414 274.739 255.399 274.72L255.162 274.1L254.929 273.479C254.305 271.803 253.705 270.122 253.107 268.441L251.317 263.397C250.719 261.717 250.119 260.037 249.502 258.367C249.192 257.533 248.877 256.706 248.55 255.874C248.222 255.043 247.898 254.217 247.56 253.396C247.221 252.575 246.871 251.758 246.502 250.959C246.133 250.161 245.739 249.366 245.321 248.586C244.487 247.023 243.582 245.481 242.742 243.895C241.902 242.309 241.117 240.677 240.551 238.945L240.498 238.784C240.49 238.756 240.48 238.73 240.473 238.703L240.46 238.664L240.446 238.616L240.418 238.521L240.361 238.33C240.322 238.201 240.29 238.072 240.255 237.944L240.244 237.89C240.237 237.855 240.226 237.805 240.216 237.74C240.196 237.612 240.163 237.431 240.137 237.223C240.075 236.765 240.046 236.304 240.05 235.842C240.05 235.657 240.054 235.506 240.067 235.382C240.075 235.286 240.089 235.191 240.109 235.097C240.141 234.959 240.18 234.922 240.22 234.958C240.304 235.029 240.39 235.385 240.49 235.817C240.49 235.772 240.594 236.288 240.734 236.804C240.77 236.933 240.805 237.062 240.841 237.186L240.943 237.518C240.972 237.614 241 237.695 241.02 237.752L241.05 237.841C241.082 237.961 241.114 238.081 241.151 238.197L241.206 238.377L241.219 238.421L241.224 238.437L241.248 238.515L241.298 238.668C241.362 238.872 241.434 239.075 241.507 239.278C242.093 240.898 242.87 242.456 243.697 243.991C244.525 245.526 245.413 247.042 246.233 248.608C247.054 250.173 247.768 251.798 248.433 253.428C248.765 254.243 249.087 255.062 249.406 255.879C249.566 256.287 249.724 256.7 249.881 257.11L250.342 258.347C250.949 259.995 251.539 261.648 252.128 263.301L253.888 268.259C254.476 269.911 255.067 271.562 255.676 273.202L255.908 273.819L256.144 274.433Z" fill="#61328F"/>
<path d="M245.359 239.723C245.356 239.714 245.354 239.704 245.355 239.695C245.355 239.685 245.358 239.675 245.363 239.667C245.424 239.463 245.637 239.148 246.08 239.458C246.098 239.472 246.115 239.489 246.127 239.508L246.216 239.822L246.308 240.135L246.404 240.448L246.504 240.759C247.472 243.744 248.855 246.595 250.201 249.464L254.247 258.078C254.919 259.517 255.58 260.963 256.187 262.442C256.803 263.919 257.34 265.428 257.796 266.962C257.855 267.154 257.906 267.346 257.96 267.538C258.013 267.731 258.068 267.923 258.113 268.119L258.256 268.705L258.26 268.723V268.732C258.273 268.732 257.855 268.833 258.204 268.751C258.32 268.723 258.236 268.745 258.263 268.739V268.752L258.268 268.767L258.28 268.799C258.295 268.841 258.313 268.885 258.33 268.928C258.365 269.016 258.402 269.105 258.439 269.195C258.743 269.911 259.08 270.62 259.447 271.311L259.565 271.537L259.588 271.579L259.635 271.664L259.726 271.833C259.791 271.945 259.849 272.057 259.913 272.168L259.999 272.349C260.052 272.464 260.128 272.623 260.218 272.804L260.805 274.015C260.885 274.178 260.952 274.311 261.004 274.421C261.044 274.508 261.08 274.597 261.111 274.687C261.153 274.822 261.14 274.876 261.087 274.867C261.034 274.857 260.94 274.788 260.824 274.674C260.681 274.536 260.547 274.389 260.422 274.233C260.352 274.162 260.289 274.085 260.233 274.002C260.113 273.844 259.954 273.62 259.791 273.395C259.629 273.17 259.475 272.937 259.36 272.759L259.168 272.463C259.104 272.351 259.043 272.237 258.981 272.124L258.889 271.954L258.865 271.911L258.754 271.697L258.617 271.435L258.483 271.171C258.306 270.818 258.137 270.459 257.971 270.103C257.889 269.922 257.809 269.741 257.731 269.558C257.693 269.465 257.654 269.375 257.617 269.281L257.56 269.139L257.533 269.068L257.519 269.031L257.511 269.011L257.503 268.981L257.483 268.923V268.907V268.899L257.479 268.882L257.462 268.81L257.428 268.668L257.357 268.387C257.333 268.295 257.312 268.201 257.285 268.108L257.208 267.829C257.157 267.644 257.11 267.456 257.055 267.273L256.889 266.718C255.982 263.768 254.702 260.933 253.383 258.113L249.402 249.648C248.74 248.238 248.069 246.827 247.439 245.39C246.808 243.954 246.228 242.487 245.736 240.993L245.634 240.673L245.536 240.352L245.439 240.031L245.359 239.723Z" fill="#61328F"/>
<path d="M269.326 274.582C269.325 274.591 269.323 274.6 269.32 274.609C269.315 274.618 269.31 274.626 269.303 274.634C269.234 274.74 269.127 274.817 269.004 274.847C268.872 274.869 268.719 274.811 268.554 274.598C268.541 274.578 268.532 274.556 268.526 274.534C268.53 274.428 268.541 274.32 268.541 274.214V273.733C268.541 273.679 268.537 273.626 268.536 273.573L268.525 273.252V273.141L268.516 273.029L268.5 272.808C268.491 272.66 268.481 272.512 268.462 272.363L268.417 271.919L268.357 271.474L268.328 271.251L268.293 271.029L268.221 270.586L268.142 270.143L268.102 269.921L268.058 269.7C267.826 268.52 267.545 267.344 267.24 266.173C266.631 263.831 265.933 261.505 265.292 259.153C264.97 257.978 264.668 256.793 264.413 255.592C264.289 254.99 264.178 254.381 264.093 253.769L264.036 253.307C264.019 253.152 264.005 252.995 263.993 252.841C263.969 252.533 263.95 252.232 263.922 251.936C263.899 251.647 263.86 251.36 263.807 251.075C263.755 250.799 263.677 250.528 263.576 250.266C263.373 249.735 263.081 249.22 262.783 248.692L262.516 248.217C262.453 248.101 262.39 247.984 262.329 247.865L262.247 247.673C262.197 247.549 262.129 247.376 262.062 247.17C261.988 246.944 261.931 246.713 261.891 246.479C261.849 246.24 261.834 245.996 261.845 245.753C261.845 245.666 261.855 245.578 261.865 245.491C261.871 245.452 261.877 245.415 261.882 245.38L261.887 245.342C261.887 245.328 261.894 245.315 261.899 245.303C261.907 245.281 261.917 245.259 261.929 245.239C261.968 245.178 262.021 245.127 262.084 245.092C262.131 245.064 262.184 245.049 262.238 245.047C262.265 245.046 262.292 245.053 262.315 245.068C262.326 245.074 262.335 245.082 262.341 245.093C262.347 245.103 262.351 245.115 262.352 245.127C262.353 245.138 262.352 245.148 262.348 245.159C262.344 245.169 262.337 245.178 262.329 245.187C262.326 245.192 262.322 245.196 262.316 245.198C262.311 245.199 262.305 245.199 262.299 245.198C262.294 245.199 262.288 245.199 262.283 245.198C262.278 245.195 262.273 245.191 262.27 245.187L262.256 245.176L262.249 245.172C262.256 245.171 262.262 245.168 262.268 245.164L262.276 245.159C262.27 245.169 262.268 245.18 262.268 245.192C262.268 245.198 262.268 245.204 262.268 245.21C262.268 245.218 262.268 245.225 262.268 245.233V245.24C262.268 245.246 262.261 245.252 262.256 245.261C262.243 245.279 262.232 245.299 262.223 245.32C262.213 245.339 262.209 245.359 262.211 245.38C262.21 245.382 262.21 245.384 262.211 245.387H262.216C262.221 245.409 262.224 245.431 262.228 245.458C262.241 245.551 262.258 245.65 262.279 245.752C262.283 245.731 262.301 245.843 262.343 246.019C262.402 246.241 262.479 246.459 262.573 246.67C262.671 246.889 262.78 247.103 262.9 247.311C262.999 247.484 263.071 247.6 263.071 247.6C263.129 247.71 263.189 247.819 263.25 247.929L263.677 248.688C263.823 248.953 263.969 249.224 264.105 249.508C264.241 249.795 264.356 250.092 264.45 250.396C264.641 251.02 264.693 251.65 264.735 252.248C264.757 252.548 264.777 252.842 264.806 253.13C264.835 253.417 264.87 253.707 264.92 253.998C264.97 254.289 265.017 254.575 265.069 254.866C265.121 255.156 265.181 255.443 265.247 255.733C265.497 256.887 265.801 258.042 266.114 259.188C266.744 261.486 267.43 263.778 268.032 266.098C268.333 267.259 268.609 268.428 268.843 269.613C268.901 269.909 268.952 270.207 269.006 270.504C269.06 270.801 269.104 271.101 269.141 271.401C269.227 272.001 269.283 272.612 269.314 273.22L269.326 273.559C269.326 273.616 269.33 273.672 269.331 273.729V274.24C269.337 274.354 269.335 274.468 269.326 274.582Z" fill="#61328F"/>
<path d="M275.892 254.76C275.899 254.766 275.904 254.774 275.908 254.782C275.912 254.792 275.913 254.801 275.912 254.811C275.954 255.02 275.912 255.397 275.375 255.328C275.352 255.324 275.331 255.317 275.311 255.306C275.016 254.988 274.706 254.678 274.397 254.369C273.789 253.764 273.163 253.165 272.551 252.544C271.929 251.922 271.344 251.266 270.797 250.577C270.726 250.491 270.664 250.399 270.597 250.31C270.53 250.222 270.464 250.133 270.4 250.042L270.213 249.764L270.12 249.625L270.031 249.483C269.789 249.106 269.583 248.713 269.378 248.334C269.184 247.966 268.97 247.61 268.736 247.266L268.715 247.235L268.695 247.208L268.668 247.173L268.615 247.101L268.503 246.964C268.465 246.918 268.425 246.874 268.387 246.83C268.348 246.786 268.305 246.747 268.265 246.703C268.255 246.69 268.245 246.677 268.233 246.666L268.142 246.569C268.067 246.486 267.945 246.376 267.786 246.235C267.603 246.077 267.434 245.903 267.282 245.715C267.241 245.661 267.202 245.606 267.167 245.549C267.13 245.489 267.098 245.427 267.071 245.363C267.019 245.241 266.986 245.113 266.972 244.982C266.946 244.806 266.966 244.628 267.028 244.462C267.068 244.36 267.134 244.27 267.221 244.202C267.234 244.191 267.249 244.181 267.264 244.172C267.277 244.165 267.289 244.159 267.302 244.154C267.321 244.147 267.34 244.143 267.359 244.142C267.364 244.14 267.37 244.14 267.376 244.142C267.381 244.144 267.386 244.147 267.39 244.152C267.394 244.156 267.396 244.161 267.398 244.167C267.399 244.172 267.399 244.178 267.398 244.184C267.398 244.238 267.352 244.326 267.338 244.45C267.329 244.521 267.329 244.593 267.338 244.664C267.35 244.747 267.371 244.828 267.402 244.905C267.402 244.885 267.432 244.982 267.515 245.109C267.526 245.125 267.537 245.14 267.549 245.156L267.589 245.204C267.622 245.243 267.657 245.279 267.694 245.313C267.78 245.392 267.872 245.466 267.969 245.533C268.177 245.679 268.419 245.827 268.602 245.97C268.692 246.041 268.768 246.101 268.816 246.148L268.895 246.22C268.946 246.269 268.991 246.322 269.038 246.374C269.085 246.426 269.127 246.48 269.171 246.534C269.214 246.589 269.256 246.642 269.3 246.698L269.33 246.739L269.351 246.767L269.375 246.801L269.472 246.943C269.722 247.319 269.93 247.704 270.133 248.077C270.232 248.265 270.331 248.448 270.433 248.628L270.515 248.752L270.596 248.88L270.758 249.141C270.812 249.228 270.871 249.312 270.929 249.398C270.987 249.484 271.043 249.569 271.104 249.654C271.229 249.819 271.345 249.989 271.477 250.148C272.502 251.45 273.748 252.595 274.959 253.797C275.271 254.117 275.586 254.432 275.892 254.76Z" fill="#61328F"/>
<path d="M264.728 246.33C264.724 246.321 264.721 246.311 264.722 246.301C264.721 246.291 264.723 246.281 264.728 246.272C264.746 246.144 264.813 246.029 264.915 245.951C265.025 245.88 265.19 245.869 265.421 245.994C265.44 246.005 265.457 246.02 265.471 246.038C265.629 246.432 265.811 246.816 266.017 247.187C266.61 248.263 267.333 249.286 268.094 250.279C268.855 251.272 269.661 252.234 270.487 253.185C270.899 253.66 271.315 254.133 271.735 254.604L272.364 255.317C272.469 255.434 272.578 255.557 272.681 255.679C272.785 255.8 272.888 255.924 272.99 256.048C273.397 256.545 273.784 257.059 274.149 257.588L274.24 257.716L274.295 257.796L274.407 257.961C274.478 258.069 274.549 258.18 274.62 258.289C274.62 258.289 274.773 258.557 274.962 258.93C275.151 259.304 275.374 259.772 275.532 260.174C275.636 260.4 275.719 260.634 275.781 260.874C275.81 261.013 275.79 261.064 275.739 261.049C275.634 261.02 275.398 260.728 275.135 260.369C275.152 260.413 274.855 259.97 274.541 259.527C274.227 259.084 273.9 258.64 273.9 258.64C273.829 258.536 273.758 258.432 273.686 258.328L273.581 258.172L273.497 258.052L273.365 257.863C273.012 257.365 272.64 256.881 272.25 256.412C271.864 255.947 271.44 255.486 271.032 255.02C270.623 254.554 270.205 254.089 269.798 253.616C268.981 252.674 268.181 251.714 267.418 250.719C267.037 250.221 266.666 249.714 266.311 249.192C265.956 248.67 265.619 248.136 265.314 247.575C265.091 247.174 264.893 246.759 264.722 246.334L264.728 246.33Z" fill="#61328F"/>
<path d="M88.2302 229.085C88.2302 229.076 88.2324 229.066 88.2367 229.057C88.2405 229.049 88.2463 229.041 88.2538 229.035C88.382 228.867 88.6868 228.644 88.9981 229.091C89.0103 229.111 89.0196 229.132 89.0259 229.155L88.9255 230.468C88.8813 230.956 88.8728 231.447 88.8542 231.936L88.8265 232.67L88.8122 233.038V233.405L88.8079 234.876V235.245L88.8179 235.612L88.84 236.348L88.8614 237.083C88.8656 237.206 88.8656 237.329 88.8742 237.451L88.8956 237.819L88.9832 239.288C88.9939 239.533 89.0188 239.777 89.0402 240.022L89.1043 240.755C89.1484 241.244 89.1841 241.735 89.2467 242.221L89.4141 243.685C89.4398 243.929 89.479 244.171 89.5117 244.414L89.6143 245.145C89.7425 246.118 89.9163 247.085 90.0745 248.054C90.4264 249.988 90.8082 251.917 91.274 253.824C91.4877 254.782 91.7506 255.731 91.9935 256.683C92.1217 257.158 92.2578 257.631 92.3895 258.103L92.5861 258.809C92.6531 259.046 92.7286 259.28 92.7998 259.514L93.2272 260.925L93.6817 262.327L93.9104 263.029L94.1469 263.729L94.6241 265.13C95.2595 267 95.8814 268.889 96.3394 270.833L96.4448 271.293L96.4868 271.484L96.5673 271.87C96.5673 271.87 96.6101 272.173 96.6507 272.586C96.6913 273 96.7269 273.521 96.7297 273.953C96.7525 274.683 96.6899 274.908 96.6015 274.844C96.5132 274.78 96.4007 274.423 96.2867 273.989C96.2867 274.035 96.1706 273.515 96.0395 272.987C95.9084 272.46 95.7653 271.925 95.7653 271.925L95.6855 271.556L95.6449 271.37L95.5736 271.044C95.5181 270.811 95.4611 270.578 95.402 270.346C94.9269 268.486 94.3057 266.655 93.6803 264.82L93.2109 263.441C93.0549 262.98 92.9088 262.515 92.7571 262.053C92.4472 261.127 92.1801 260.193 91.893 259.262C91.7556 258.796 91.6281 258.326 91.4956 257.858L91.2975 257.152C91.2334 256.918 91.175 256.681 91.1123 256.446L90.7462 255.032C90.6287 254.559 90.5204 254.085 90.4078 253.612L90.2426 252.908C90.1856 252.67 90.14 252.431 90.0873 252.195L89.7817 250.766C89.6841 250.289 89.5979 249.81 89.5046 249.332C89.4113 248.854 89.3187 248.376 89.2439 247.893L89.0074 246.45C88.9639 246.21 88.9362 245.968 88.8991 245.727L88.7973 245.004C88.6498 244.041 88.5508 243.07 88.4411 242.102C88.4276 241.981 88.4112 241.859 88.4005 241.739L88.3684 241.374L88.3043 240.646L88.2402 239.918C88.2295 239.796 88.2167 239.675 88.2096 239.554L88.1875 239.187L88.0878 237.731C88.0814 237.609 88.0721 237.487 88.0671 237.365L88.0571 237L88.0358 236.268L88.0144 235.537C88.0144 235.416 88.0059 235.292 88.0059 235.171V234.805L88.0101 233.341C88.0101 233.097 88.0194 232.853 88.0287 232.609L88.0557 231.877C88.075 231.389 88.0849 230.901 88.127 230.414L88.2302 229.085Z" fill="#61328F"/>
<path d="M84.418 231.176C84.4208 231.166 84.4257 231.157 84.4322 231.149C84.4389 231.142 84.4472 231.136 84.4565 231.132C84.5557 231.053 84.6817 231.014 84.8084 231.025C84.9401 231.045 85.0648 231.15 85.1517 231.401C85.1575 231.422 85.1601 231.444 85.1595 231.466C85.0037 231.861 84.8722 232.265 84.7656 232.676C84.5404 233.574 84.3903 234.488 84.3168 235.41C84.2741 235.874 84.2449 236.341 84.2292 236.809C84.21 237.277 84.1972 237.747 84.1965 238.22L84.1851 239.63V239.986L84.1922 240.339L84.2057 241.044L84.22 241.751C84.2271 241.985 84.2421 242.22 84.252 242.456L84.3233 243.866C84.5627 247.628 85.0866 251.367 85.8904 255.05L86.0407 255.74C86.0663 255.856 86.0891 255.971 86.1176 256.084L86.2024 256.428L86.54 257.8C86.5942 258.029 86.6604 258.255 86.7224 258.481L86.9104 259.162L87.0978 259.844C87.1291 259.957 87.1619 260.07 87.1975 260.182L87.3015 260.521L87.7147 261.874C87.8607 262.324 88.0145 262.767 88.1641 263.213L88.3899 263.883L88.6336 264.545L89.1222 265.871L89.6479 267.182C89.737 267.401 89.8196 267.621 89.9129 267.836L90.1978 268.485C90.3859 268.917 90.5697 269.349 90.7627 269.78C90.9558 270.21 91.1552 270.634 91.3554 271.062L91.7942 272.001C91.7942 272.001 92.2372 273.14 92.4744 273.966C92.6924 274.662 92.6945 274.895 92.5955 274.857C92.4965 274.819 92.2871 274.508 92.0606 274.12C92.072 274.167 91.8191 273.693 91.5584 273.214C91.2977 272.736 91.0298 272.243 91.0298 272.243L90.3574 270.8C89.9606 269.955 89.5988 269.091 89.2241 268.236C89.1279 268.022 89.0453 267.803 88.9577 267.586L88.6962 266.934L88.4355 266.283L88.3714 266.12L88.3073 265.956L88.1862 265.626L87.7004 264.308C87.6591 264.199 87.6221 264.088 87.5843 263.978L87.4725 263.644L87.2509 262.978L87.0187 262.307C86.9475 262.086 86.8805 261.859 86.8107 261.638L86.399 260.296C86.2708 259.846 86.149 259.394 86.0236 258.942L85.8362 258.265L85.6653 257.584L85.3298 256.222L85.0306 254.85L84.8817 254.165L84.7535 253.475L84.4971 252.095L84.2748 250.71C84.2385 250.478 84.1979 250.247 84.1665 250.016L84.0697 249.316C84.0098 248.852 83.9415 248.39 83.8895 247.924L83.747 246.528L83.7099 246.179L83.6921 246.003L83.6786 245.829L83.6252 245.129L83.5718 244.429C83.5554 244.196 83.5326 243.963 83.524 243.729C83.482 242.794 83.4222 241.859 83.415 240.923L83.4008 240.221C83.3958 239.988 83.3894 239.753 83.3944 239.518L83.4058 238.115C83.4058 237.647 83.4222 237.178 83.4407 236.708C83.4592 236.238 83.4891 235.768 83.5326 235.298C83.576 234.828 83.6302 234.355 83.7057 233.887C83.7812 233.419 83.8773 232.948 83.997 232.483C84.1124 232.039 84.2552 231.603 84.4244 231.177L84.418 231.176Z" fill="#61328F"/>
<path d="M59.82 274.616C59.8194 274.626 59.8165 274.635 59.8114 274.643C59.8069 274.652 59.8009 274.659 59.7936 274.665C59.6569 274.819 59.3327 275.038 59.0521 274.574C59.0408 274.553 59.033 274.53 59.0293 274.506C59.0628 274.286 59.0891 274.063 59.1276 273.843L59.2387 273.187C59.7115 270.608 60.4978 268.096 61.5801 265.708C61.8473 265.109 62.1415 264.525 62.4442 263.943C62.5197 263.801 62.6009 263.658 62.6793 263.516C62.7576 263.373 62.8338 263.227 62.9172 263.089L63.1644 262.661L63.289 262.447L63.4172 262.234C64.0989 261.118 64.8383 260.05 65.5542 258.978C66.2701 257.906 66.9654 256.83 67.5573 255.707C68.1492 254.585 68.6479 253.399 69.1572 252.21C69.4143 251.614 69.6708 251.017 69.9407 250.424C70.012 250.275 70.0832 250.128 70.1544 249.98C70.2257 249.832 70.2969 249.685 70.3681 249.539L70.5925 249.101C70.6688 248.958 70.7514 248.811 70.8304 248.665L70.9587 248.434C70.9736 248.404 70.9921 248.376 71.0092 248.348L71.1132 248.177L71.3205 247.837L71.3526 247.792C71.3725 247.762 71.4067 247.721 71.4473 247.671C71.5285 247.569 71.6425 247.424 71.775 247.261C71.9075 247.097 72.0756 246.925 72.2387 246.75C72.3178 246.661 72.4104 246.582 72.4952 246.501C72.5799 246.421 72.6675 246.345 72.7516 246.273C72.7825 246.242 72.8151 246.212 72.8492 246.184C72.8834 246.159 72.914 246.132 72.9454 246.109C73.0059 246.062 73.0622 246.02 73.1128 245.985C73.1904 245.927 73.2718 245.875 73.3564 245.829C73.4796 245.765 73.5337 245.768 73.533 245.822C73.5323 245.877 73.4803 245.981 73.3948 246.114C73.3514 246.179 73.3001 246.257 73.2424 246.332L73.1519 246.454L73.0622 246.588C73.0145 246.673 72.9592 246.752 72.8969 246.827L72.8043 246.955L72.753 247.026L72.7024 247.103L72.4887 247.429L72.379 247.595C72.3434 247.65 72.3149 247.707 72.2793 247.761C72.2152 247.87 72.1561 247.975 72.1041 248.06C72.0521 248.145 72.0094 248.219 71.9823 248.274L71.9388 248.356L71.7465 248.677C71.7152 248.731 71.6824 248.782 71.6503 248.837L71.3098 249.453C70.7329 250.559 70.2335 251.718 69.7342 252.889C69.4849 253.474 69.2306 254.061 68.9649 254.645C68.6992 255.229 68.4149 255.81 68.1037 256.376C67.4839 257.512 66.7794 258.584 66.07 259.647C65.3605 260.71 64.6453 261.749 63.9949 262.824C63.3481 263.9 62.7665 265.014 62.2533 266.159C62.1208 266.444 62.0033 266.736 61.88 267.023C61.8159 267.166 61.7625 267.315 61.7055 267.461L61.5331 267.899C61.427 268.194 61.3194 268.488 61.2126 268.784L61.0644 269.234L60.9932 269.457L60.922 269.682C60.5509 270.881 60.251 272.102 60.0237 273.337L59.9147 273.978C59.8798 274.184 59.8527 274.398 59.82 274.616Z" fill="#61328F"/>
<path d="M152.879 204.057C168.955 199.666 184.535 187.397 201.042 185.109C200.242 191.548 200.635 204.113 202.069 210.443C202.275 211.359 202.639 213.386 202.354 214.283C202.054 215.234 200.794 216.005 200.185 216.794C198.897 218.467 198.838 219.501 197.949 221.416C196.396 224.755 198.488 225.252 191.767 230.534C190.057 231.882 189.525 233.705 188.339 235.683C187.006 237.902 186.623 239.114 185.709 241.539C185.062 243.262 183.728 247.606 183.46 249.426C182.668 254.793 182.543 258.045 182.69 263.307C180.852 261.484 178.467 259.84 176.236 258.434C175.081 257.707 172.196 255.437 171.166 254.541C169.783 253.337 166.356 249.893 164.796 248.928C158.768 245.198 159.174 244.659 153.969 239.843C151.25 237.329 144.366 232.831 141.38 230.641C138.394 228.452 137.756 226.312 135.107 223.732C132.837 221.519 126.783 210.084 127.529 209.522C127.536 209.522 144.681 206.3 152.879 204.057Z" fill="#FB9201"/>
<path d="M118.641 176.987C122.003 182.534 125.492 188.612 124.797 195.062C124.476 198.012 122.971 201.523 124.636 203.981C125.063 204.612 125.847 207.346 126.17 208.034C129.61 215.276 131.199 217.017 134.141 220.548C135.029 221.616 136.492 223.576 137.418 224.602C138.494 225.788 143.92 227.39 145.497 227.654C154.932 229.239 153.057 227.104 161.839 223.309C165.16 221.873 171.946 220.788 175.235 219.688C179.525 218.252 185.647 214.89 186.19 205.294C186.404 201.461 187.508 191.674 180.939 186.372C175.588 182.054 169.898 175.871 171.385 166.867C163.309 173.396 154.51 180.217 144.148 180.876C140.372 181.115 136.597 180.505 132.871 179.834C128.152 178.982 123.453 178.027 118.774 176.969" fill="#FB9201"/>
<path d="M119.688 178.141C120.881 180.753 123.207 183.647 125.858 184.752C127.643 185.496 128.911 187.079 130.362 188.359C132.933 190.628 136.158 191.992 139.321 193.316C147.486 196.735 156.27 200.225 164.945 198.466C166.348 198.181 167.767 197.76 169.182 197.963C170.598 198.165 172.024 199.234 172.051 200.663C172.222 210.361 177.638 219.808 185.921 224.857C187.848 225.774 198.205 228.886 200.936 224.793C203.667 220.699 205.637 215.964 205.744 211.045C205.785 209.177 205.505 207.181 204.284 205.766C199.676 200.424 201.419 202.49 199.257 195.772C198.703 194.049 189.562 187.581 187.851 188.168C184.086 189.468 175.547 182.953 172.167 175.607C171.197 173.501 171.201 172.409 170.868 168.89C169.67 168.514 168.461 169.346 167.461 170.109C162.311 174.02 156.588 177.27 150.375 179.069C144.162 180.868 137.432 181.155 131.239 179.295C128.038 178.332 124.701 177.899 121.36 178.013L119.688 178.141Z" fill="#A63344" fill-opacity="0.3"/>
<path d="M122.035 65.9228C118.423 67.1102 113.779 68.953 111.153 70.2466C108.414 71.6 102.524 73.8531 100.406 76.0535C96.8262 79.7726 92.3692 89.5286 91.2879 94.574C90.188 99.7256 91.649 110.378 92.0572 115.63C92.3243 119.059 93.1299 125.895 93.6891 129.289C94.7042 135.451 96.5107 147.937 98.84 153.733C100.165 157.035 106.307 167.08 108.699 169.713C113.811 175.341 123.494 181.365 130.522 184.261C135.687 186.388 147.052 187.946 152.517 186.794C156.952 185.857 163.657 179.983 166.457 176.683C169.306 173.326 172.958 165.16 174.695 161.113C175.732 158.699 177.657 153.753 178.043 151.155C178.411 148.7 177.499 143.696 177.768 141.227C178.02 138.926 179.021 134.333 180.019 132.245C180.186 131.897 180.84 131.382 180.95 131.012C181.078 130.575 180.924 129.638 180.825 129.193C180.232 126.505 178.261 121.295 176.883 118.911C174.582 114.927 167.627 108.582 165.292 104.619C164.421 103.14 163.576 99.7448 162.728 98.2525C160.573 94.4772 154.513 88.1033 152.148 84.4561C149.911 81.0077 147.246 72.8822 144.316 70.0001C142.353 68.0704 137.163 65.7732 134.545 64.9191C131.683 63.9838 126.237 63.9817 122.503 65.7554C122.389 65.8088 122.15 65.8843 122.035 65.9228Z" fill="#FB9201"/>
<path d="M92.6584 124.632C94.7811 122.943 97.0821 121.492 99.5203 120.303C100.682 119.738 101.879 119.23 103.137 118.93C104.394 118.63 105.71 118.542 107.01 118.456L112.799 118.076C113.789 118.012 114.78 117.948 115.76 117.791C117.676 117.488 119.179 117.102 119.891 116.709C120.363 116.449 120.567 115.747 120.468 115.404C120.265 114.711 119.407 113.77 118.481 113.569C118.054 113.477 115.835 113.608 115.403 113.569C113.907 113.437 113.187 113.62 111.918 113.591C111.008 113.571 108.482 113.317 107.572 113.298C106.532 113.275 103.952 113.712 100.877 115.04C99.9633 115.435 98.7837 115.637 97.9909 116.234C96.3112 117.496 95.2976 119.452 93.754 120.88C93.229 121.366 92.6392 121.795 92.2068 122.367C91.7744 122.939 91.2523 123.333 91.508 124.005C91.7637 124.678 92.0928 125.065 92.6627 124.634" fill="#4E1B3D"/>
<path d="M165.359 103.046C166.125 103.02 166.285 102.903 166.82 102.469C166.017 101.655 164.904 101.23 163.802 100.926C160.185 99.936 156.36 100.01 152.784 101.14C152.676 101.174 152.555 101.22 152.51 101.324C152.466 101.428 152.575 101.581 152.674 101.522C147.748 101.945 143.418 104.425 139.253 107.089L139.069 107.272C138.065 108.811 138.418 111.018 138.499 111.277C138.649 111.744 139.188 111.993 139.678 111.971C140.168 111.949 140.622 111.715 141.056 111.488C145.093 109.385 149.162 107.345 153.263 105.369C154.576 104.738 155.898 104.109 157.297 103.693C159.875 102.924 162.613 102.91 165.3 103.041L165.359 103.046Z" fill="#4E1B3D"/>
<path d="M182.304 262.505C179.843 260.609 177.079 259.138 174.674 257.168C173.664 256.342 172.83 255.356 171.869 254.481C170.871 253.576 169.813 252.746 168.742 251.936C166.404 250.169 163.973 248.524 161.689 246.692C160.698 245.908 159.764 245.055 158.893 244.139C157.824 242.999 156.791 241.834 155.706 240.714C154.686 239.649 153.587 238.663 152.418 237.764C151.065 236.734 149.597 235.861 148.169 234.942C145.834 233.437 143.516 231.897 141.424 230.059C136.509 225.737 132.651 220.273 129.6 214.517C127.996 211.503 126.608 208.376 125.367 205.197C125.057 204.404 124.756 203.606 124.462 202.805C124.154 201.965 123.928 201.155 123.938 200.251C123.956 198.572 124.602 197.004 125.056 195.411C125.177 194.984 125.19 194.603 125.208 194.164C125.207 194.115 125.195 194.066 125.173 194.022C125.151 193.978 125.12 193.94 125.08 193.91C125.041 193.88 124.996 193.859 124.947 193.85C124.899 193.84 124.849 193.842 124.802 193.855C121.548 194.977 119.602 198.231 117.851 200.978C115.868 204.094 113.976 207.318 112.776 210.827C112.173 212.553 111.79 214.348 111.636 216.17C111.482 218.164 111.695 220.159 112.086 222.111C112.49 224.139 113.054 226.135 113.613 228.125C114.183 230.151 114.779 232.169 115.385 234.183C115.948 236.052 116.408 238.014 117.29 239.762C117.987 241.146 119.071 242.426 120.663 242.721C120.768 242.74 120.902 242.73 120.974 242.639C123.191 239.838 125.157 236.848 126.849 233.702C128.164 231.254 129.238 228.586 131.146 226.513C132.044 225.535 133.191 224.665 134.572 224.632L134.263 224.397C134.912 226.709 135.096 229.131 135.3 231.515C135.404 232.712 135.525 233.906 135.647 235.106C135.783 236.433 135.912 237.766 136.208 239.07C137.124 243.109 139.523 246.629 142.566 249.383C145.737 252.253 149.546 254.369 153.514 255.923C157.881 257.627 162.5 258.528 167.078 259.459C171.787 260.418 176.569 261.369 181.014 263.249C181.534 263.469 182.046 263.704 182.552 263.954C182.822 264.082 183.176 263.805 182.991 263.515L182.425 262.625C182.204 262.279 181.649 262.6 181.871 262.95L182.437 263.839L182.876 263.4C178.644 261.334 174.017 260.252 169.432 259.296C164.802 258.327 160.1 257.523 155.603 256.008C151.572 254.649 147.659 252.71 144.321 250.045C141.121 247.49 138.426 244.193 137.185 240.242C136.442 237.884 136.287 235.369 136.061 232.916C135.847 230.557 135.699 228.18 135.254 225.85C135.15 225.308 135.028 224.768 134.878 224.236C134.859 224.169 134.818 224.11 134.762 224.067C134.706 224.025 134.639 224.002 134.569 224C131.921 224.065 130.081 226.548 128.835 228.6C128.119 229.777 127.52 231.014 126.896 232.241C126.053 233.896 125.134 235.51 124.138 237.085C123.022 238.851 121.813 240.558 120.518 242.198L120.831 242.116C119.424 241.854 118.512 240.752 117.886 239.538C117.144 238.101 116.751 236.501 116.282 234.962C115.12 231.115 113.927 227.261 113.005 223.351C112.549 221.421 112.208 219.453 112.222 217.465C112.243 215.71 112.502 213.967 112.991 212.282C113.964 208.836 115.698 205.657 117.573 202.628C118.575 201.005 119.567 199.33 120.76 197.84C121.876 196.445 123.244 195.078 124.967 194.483L124.561 194.174L124.54 194.722C124.529 194.994 124.435 195.247 124.356 195.51C124.118 196.306 123.843 197.092 123.644 197.896C123.445 198.7 123.288 199.545 123.296 200.385C123.303 201.276 123.518 202.094 123.822 202.928C125.002 206.152 126.31 209.331 127.811 212.419C130.755 218.474 134.488 224.191 139.285 228.945C141.242 230.882 143.408 232.562 145.692 234.095C148.372 235.895 151.248 237.456 153.656 239.628C155.831 241.594 157.598 243.966 159.774 245.924C161.89 247.829 164.262 249.446 166.558 251.124C168.734 252.712 170.889 254.316 172.745 256.277C174.882 258.532 177.683 260.088 180.232 261.814C180.828 262.219 181.417 262.634 181.989 263.074C182.308 263.312 182.628 262.754 182.304 262.505Z" fill="#662D90"/>
<path d="M207.564 211.586C208.599 213.139 208.733 215.103 208.835 216.967C208.879 217.766 208.919 218.591 208.643 219.339C208.367 220.088 207.681 220.75 206.881 220.741C207.727 221.208 208.547 221.722 209.336 222.28C205.119 224.866 201.019 227.63 197.035 230.571C195.006 232.067 192.988 233.634 191.407 235.598C190.339 236.927 189.484 238.419 188.711 239.936C184.958 247.298 182.908 255.408 182.711 263.669C182.574 260.699 182.438 257.72 182.671 254.755C182.937 251.384 183.682 248.063 184.641 244.819C185.994 240.256 187.814 235.751 190.774 232.025C193.578 228.497 197.286 225.805 200.422 222.571C203.558 219.337 206.223 215.2 206.081 210.695L208.47 213.264" fill="black"/>
<path d="M207.371 212.022C207.366 212.015 207.363 212.006 207.361 211.998C207.359 211.989 207.359 211.979 207.361 211.971C207.366 211.847 207.41 211.728 207.489 211.632C207.58 211.533 207.731 211.473 207.995 211.574C208.018 211.584 208.04 211.597 208.059 211.613C208.104 211.684 208.139 211.755 208.179 211.827C208.219 211.898 208.259 211.969 208.294 212.045C208.361 212.193 208.436 212.341 208.491 212.494C208.519 212.57 208.555 212.644 208.579 212.721L208.618 212.837L208.644 212.912C208.785 213.343 208.894 213.784 208.972 214.23C209.128 215.114 209.185 215.997 209.233 216.866C209.266 217.313 209.275 217.762 209.26 218.21C209.244 218.692 209.144 219.167 208.962 219.614C208.862 219.846 208.731 220.064 208.573 220.261C208.412 220.462 208.222 220.637 208.009 220.781L207.928 220.836L207.908 220.847L207.89 220.857L207.947 220.891C208.135 221.004 208.324 221.12 208.509 221.239L208.786 221.418L209.067 221.605C209.247 221.726 209.423 221.849 209.599 221.972L209.864 222.157L209.995 222.25L210.027 222.273L210.045 222.284C210.045 222.289 210.06 222.292 210.057 222.296L209.985 222.339L209.487 222.651L209.002 222.95L208.498 223.262C208.162 223.472 207.828 223.683 207.493 223.894C206.823 224.317 206.159 224.744 205.498 225.176C204.172 226.042 202.858 226.925 201.556 227.826C200.255 228.726 198.967 229.646 197.693 230.586C196.416 231.522 195.151 232.466 193.983 233.506C193.4 234.023 192.845 234.569 192.32 235.145C192.065 235.435 191.812 235.729 191.574 236.034C191.336 236.34 191.109 236.654 190.889 236.975C190.451 237.617 190.051 238.289 189.671 238.976C189.481 239.318 189.297 239.665 189.119 240.017C188.941 240.369 188.769 240.722 188.594 241.076C188.509 241.253 188.418 241.428 188.338 241.607L188.092 242.145C187.93 242.501 187.759 242.857 187.61 243.223L187.149 244.312L186.717 245.413L186.61 245.688C186.574 245.78 186.545 245.872 186.509 245.966L186.309 246.521L186.109 247.077C186.045 247.262 185.985 247.451 185.922 247.638L185.738 248.198C185.679 248.386 185.61 248.572 185.558 248.761L185.221 249.894C184.793 251.409 184.424 252.94 184.114 254.486C183.818 256.034 183.583 257.591 183.408 259.157L183.298 260.333L183.269 260.628L183.251 260.923L183.212 261.512L183.174 262.102C183.163 262.298 183.159 262.495 183.15 262.692L183.128 263.282L183.117 263.577V263.669C183.829 263.669 182.15 263.691 182.323 263.679V263.638L182.316 263.489C182.245 261.903 182.174 260.313 182.161 258.716C182.14 257.115 182.206 255.514 182.36 253.92C182.525 252.327 182.778 250.744 183.12 249.179C183.457 247.616 183.865 246.07 184.322 244.543C184.778 243.015 185.283 241.496 185.876 240.008C186.695 237.942 187.665 235.925 188.868 234.039C189.469 233.097 190.129 232.192 190.843 231.332C191.555 230.473 192.323 229.661 193.113 228.88C194.696 227.317 196.373 225.879 197.987 224.392C198.794 223.649 199.583 222.891 200.338 222.104C201.089 221.319 201.791 220.49 202.442 219.62C203.091 218.755 203.668 217.84 204.168 216.881C204.666 215.931 205.056 214.927 205.331 213.89C205.465 213.375 205.565 212.851 205.629 212.322L205.669 211.926L205.68 211.727L205.689 211.599C205.694 211.528 205.694 211.457 205.697 211.39V210.528L205.691 209.954V209.69C205.691 209.685 205.691 209.69 205.691 209.69L205.697 209.696L205.709 209.709L206.503 210.564L206.772 210.875L207.05 211.196L207.226 211.421C207.479 211.744 207.796 212.157 208.039 212.51C208.898 213.683 208.376 213.38 207.697 212.79C207.722 212.83 207.331 212.464 206.932 212.084L206.638 211.807L206.504 211.679C206.499 211.677 206.494 211.677 206.49 211.679C206.476 211.683 206.481 211.7 206.48 211.699L206.423 212.382C206.293 213.461 206.029 214.52 205.639 215.534C205.253 216.541 204.775 217.51 204.211 218.429C203.649 219.338 203.026 220.209 202.346 221.034C201.668 221.857 200.947 222.644 200.187 223.391C199.434 224.141 198.657 224.86 197.879 225.572C196.317 226.991 194.736 228.371 193.268 229.856C192.535 230.592 191.84 231.367 191.187 232.175C190.539 232.986 189.94 233.834 189.392 234.715C188.843 235.598 188.34 236.507 187.881 237.441C187.424 238.376 187.006 239.332 186.622 240.301C186.045 241.762 185.543 243.26 185.091 244.77C184.639 246.28 184.236 247.807 183.905 249.347C183.57 250.883 183.32 252.436 183.158 254C183.009 255.566 182.945 257.139 182.966 258.711C182.978 260.289 183.048 261.869 183.121 263.453L183.128 263.602V263.639C183.302 263.647 181.618 263.667 182.33 263.648V263.554L182.342 263.255L182.365 262.656C182.373 262.455 182.378 262.257 182.388 262.057L182.428 261.458L182.467 260.861L182.487 260.562L182.514 260.264L182.626 259.07C182.792 257.482 183.025 255.902 183.324 254.329C183.634 252.762 184.012 251.207 184.447 249.67L184.789 248.521C184.843 248.329 184.911 248.14 184.971 247.951L185.159 247.381C185.223 247.19 185.281 247.001 185.35 246.811L185.555 246.247L185.756 245.683C185.79 245.59 185.821 245.495 185.859 245.402L185.969 245.123L186.406 244.006L186.872 242.903C187.024 242.534 187.199 242.173 187.363 241.809L187.613 241.264C187.694 241.081 187.787 240.908 187.874 240.725C188.051 240.369 188.226 240.006 188.406 239.65C188.586 239.294 188.776 238.938 188.97 238.589C189.355 237.884 189.77 237.194 190.225 236.523C190.453 236.19 190.691 235.86 190.941 235.54C191.192 235.22 191.454 234.912 191.725 234.608C192.269 234.01 192.844 233.442 193.449 232.906C194.653 231.837 195.937 230.879 197.218 229.939C198.498 229 199.795 228.075 201.103 227.17C202.41 226.264 203.731 225.378 205.062 224.508C205.727 224.075 206.396 223.645 207.07 223.218C207.406 223.005 207.742 222.793 208.08 222.584L208.608 222.257L208.348 222.085L208.078 221.911C207.898 221.796 207.717 221.683 207.534 221.574L207.31 221.44C207.216 221.385 207.123 221.33 207.025 221.276C206.833 221.167 206.64 221.058 206.445 220.95L205.864 220.629L205.702 220.54L205.517 220.437L205.471 220.411L205.449 220.398H205.492L205.684 220.39L206.454 220.36L206.779 220.347H206.86H206.9C206.91 220.346 206.919 220.345 206.929 220.343L207.032 220.324L207.239 220.284L207.264 220.279C207.272 220.279 207.279 220.277 207.286 220.274L207.318 220.258L207.382 220.227L207.51 220.163L207.564 220.126C207.86 219.92 208.092 219.635 208.232 219.303C208.268 219.218 208.299 219.131 208.325 219.042C208.338 218.996 208.353 218.951 208.363 218.904C208.373 218.857 208.385 218.81 208.393 218.762C208.432 218.568 208.455 218.371 208.465 218.174C208.478 217.754 208.47 217.334 208.439 216.915C208.391 216.052 208.335 215.201 208.188 214.375C208.118 213.967 208.018 213.565 207.888 213.171L207.866 213.1L207.831 212.996C207.808 212.925 207.778 212.862 207.752 212.795C207.702 212.659 207.638 212.531 207.578 212.401C207.549 212.337 207.514 212.271 207.478 212.208C207.442 212.144 207.408 212.08 207.371 212.022Z" fill="#61328F"/>
<path d="M127.271 163.471C126.883 163.702 126.694 164.095 126.662 164.545C126.619 165.107 127.246 165.507 127.809 165.534C128.372 165.561 128.926 165.363 129.489 165.38C131.006 165.425 131.999 166.904 133.122 167.922C134.476 169.149 136.281 169.809 138.098 170.024C139.915 170.239 141.753 170.038 143.557 169.718C146.929 169.121 150.407 167.994 152.674 165.43C153.476 164.525 154.095 163.476 154.709 162.433C155.208 161.589 155.712 160.719 155.856 159.751C155.91 159.38 155.913 158.996 156.049 158.646C156.485 157.506 158.154 157.07 158.43 155.953C158.449 155.877 158.44 155.798 158.404 155.728C158.369 155.659 158.31 155.604 158.238 155.574C157.619 155.324 156.836 155.831 156.244 156.26C155.104 157.077 153.799 157.62 152.49 158.12C147.348 160.086 142.07 161.675 136.698 162.874C135.105 163.23 133.501 163.553 131.874 163.682C130.434 163.797 128.986 163.759 127.553 163.57L127.271 163.471Z" fill="#FF5663"/>
<path d="M127.319 163.62C128.706 164.488 130.658 164.399 132.292 164.309C135.619 164.125 138.906 163.486 142.06 162.409C142.26 162.338 142.503 162.141 142.372 161.975C142.95 162.399 143.911 162.071 144.107 161.382C144.348 161.504 144.618 161.555 144.887 161.53C145.155 161.505 145.412 161.404 145.626 161.24C145.893 161.026 146.086 160.716 146.395 160.567C146.633 160.451 146.908 160.45 147.172 160.439C150.186 160.318 152.942 158.787 155.565 157.297C156.408 156.817 157.268 156.325 157.916 155.612C157.929 155.598 157.939 155.58 157.942 155.561C157.946 155.542 157.944 155.523 157.938 155.504C157.931 155.486 157.919 155.471 157.905 155.458C157.889 155.447 157.871 155.439 157.852 155.437C157.155 155.365 156.464 155.722 155.767 155.885C154.398 156.21 152.979 155.78 151.61 155.458C149.806 155.036 147.932 155.015 146.119 155.395C144.579 155.711 142.075 157.318 141.931 157.295C140.054 157.033 137.28 157.817 135.715 158.887C134.27 159.874 132.919 160.999 131.602 162.151C130.853 162.806 129.954 163.569 128.989 163.322C128.661 163.239 128.365 163.037 128.028 162.989C127.69 162.94 127.272 163.131 127.272 163.472L127.319 163.62Z" fill="#DC3B63"/>
<path d="M133.007 149.821C132.014 149.642 131.012 149.461 130.086 149.052C129.178 148.651 128.451 147.929 128.043 147.024C127.968 146.861 127.851 146.604 127.921 146.44C127.93 146.421 127.943 146.404 127.96 146.391C128.683 145.761 128.913 145.788 129.598 145.607C131.064 145.222 131.671 145.274 133.134 145.671C134.596 146.069 136.245 147.275 137.759 147.355C139.273 147.436 140.283 147.373 141.244 146.2C141.833 145.484 143.084 143.627 143.757 142.988C144.391 142.384 145.706 142.231 146.577 142.127C147.377 142.03 148.401 142.182 148.591 143.003C148.646 143.264 148.608 143.537 148.483 143.773C148.231 144.271 147.766 144.566 147.309 144.847C146.907 145.093 146.505 145.504 146.098 145.809C146.039 145.857 145.964 145.882 145.887 145.88C145.811 145.878 145.738 145.848 145.681 145.797C145.625 145.746 145.589 145.676 145.579 145.601C145.569 145.526 145.587 145.45 145.629 145.387C145.703 145.262 145.775 145.138 145.842 145.031C145.859 145.004 145.87 144.974 145.874 144.942C145.878 144.911 145.875 144.879 145.866 144.848C145.856 144.818 145.84 144.79 145.819 144.767C145.797 144.745 145.77 144.727 145.741 144.715C145.391 144.578 145.092 144.739 144.715 144.994C144.324 145.261 143.905 145.745 143.659 146.113C142.85 147.324 142.467 148.314 141.38 149.265C141.214 149.407 140.87 149.616 140.634 149.764C140.414 149.892 140.173 149.983 139.922 150.032C138.464 150.253 136.973 150.03 135.643 149.391C134.553 148.863 133.547 148.048 132.341 147.929C132.1 147.906 131.842 147.916 131.657 148.092C131.615 148.133 131.583 148.181 131.562 148.235C131.541 148.29 131.533 148.348 131.538 148.407C131.557 148.6 131.707 148.672 131.852 148.728C132.579 148.993 133.575 148.999 133.847 149.725C133.542 149.89 133.194 149.96 132.849 149.925C132.761 149.916 132.803 149.743 132.812 149.831" fill="#A63344"/>
<path d="M135.222 149.155C135.092 149.048 134.954 148.953 134.809 148.87L133.715 148.203C133.51 148.067 133.291 147.955 133.062 147.868C132.655 147.735 132.36 147.64 131.951 147.697C131.782 147.72 131.445 147.952 131.437 148.183C131.43 148.386 131.443 148.682 131.58 148.776C131.836 148.952 133.905 149.521 134.209 149.555C134.607 149.599 134.964 149.69 135.21 149.281L135.222 149.155Z" fill="black"/>
<path d="M146.172 144.733C146.201 144.574 146.033 144.448 145.877 144.412C145.449 144.312 145.022 144.579 144.659 144.834C144.121 145.211 143.564 145.609 143.253 146.187C143.128 146.434 143.032 146.694 142.968 146.964C142.936 147.046 142.936 147.138 142.968 147.22C143.049 147.353 143.253 147.313 143.396 147.255C143.855 147.069 144.302 146.855 144.735 146.614C144.958 146.497 145.169 146.356 145.363 146.194C145.676 145.92 145.957 145.591 146.119 145.208C146.18 145.058 146.198 144.894 146.17 144.734L146.172 144.733Z" fill="black"/>
<path d="M103.318 132.384L102.558 133.966C102.558 133.966 105.228 135.546 111.527 133.362C117.826 131.177 121.595 126.852 121.595 126.852C121.595 126.852 115.141 133.889 103.318 132.384Z" fill="#DD6B7C"/>
<path d="M122.321 125.747C122.479 124.484 114.142 120.286 108.543 122.066C102.945 123.846 100.741 128.607 101.097 129.708C101.454 130.809 103.744 135.087 111.765 132.893C116.959 131.472 122.183 126.847 122.321 125.747Z" fill="url(#paint0_linear_1170_2528)"/>
<path d="M112.191 132.459C113.35 132.272 114.427 131.745 115.287 130.945C116.146 130.145 116.749 129.108 117.019 127.966C117.289 126.823 117.214 125.626 116.804 124.526C116.394 123.426 115.667 122.472 114.715 121.786C113.763 121.099 112.628 120.71 111.455 120.668C110.282 120.626 109.122 120.933 108.124 121.549C107.125 122.166 106.331 123.066 105.843 124.133C105.356 125.201 105.195 126.39 105.383 127.549C105.508 128.318 105.782 129.056 106.192 129.719C106.602 130.382 107.138 130.958 107.77 131.414C108.402 131.87 109.118 132.197 109.877 132.376C110.635 132.556 111.422 132.584 112.191 132.459Z" fill="url(#paint1_linear_1170_2528)"/>
<path d="M114.892 130.828C115.729 130.106 116.333 129.152 116.628 128.087C116.923 127.021 116.895 125.893 116.548 124.843C116.201 123.793 115.551 122.87 114.679 122.19C113.808 121.51 112.754 121.104 111.652 121.023C110.549 120.942 109.448 121.189 108.486 121.734C107.524 122.279 106.746 123.097 106.249 124.084C105.752 125.072 105.559 126.184 105.694 127.282C105.83 128.379 106.288 129.411 107.01 130.248C107.978 131.37 109.353 132.061 110.831 132.17C112.309 132.279 113.77 131.796 114.892 130.828Z" fill="url(#paint2_linear_1170_2528)"/>
<path style="mix-blend-mode:multiply" d="M111.242 130.222C111.959 130.222 112.66 130.009 113.257 129.61C113.853 129.212 114.318 128.646 114.592 127.983C114.867 127.32 114.938 126.591 114.798 125.887C114.658 125.184 114.313 124.538 113.806 124.031C113.299 123.524 112.652 123.178 111.949 123.038C111.245 122.898 110.516 122.97 109.853 123.245C109.191 123.52 108.624 123.985 108.226 124.581C107.828 125.177 107.615 125.879 107.615 126.596C107.615 127.558 107.998 128.48 108.678 129.16C109.358 129.84 110.28 130.222 111.242 130.222Z" fill="url(#paint3_linear_1170_2528)"/>
<path d="M121.763 124.926C121.763 124.926 114.036 119.041 107.671 120.927C101.307 122.814 101.123 128.929 101.123 128.929C101.123 128.929 102.273 124.24 108.542 122.061C114.413 120.02 121.763 124.926 121.763 124.926Z" fill="#DD4C6A"/>
<path d="M121.765 124.927C121.765 124.927 114.674 120.28 108.501 122.438C102.328 124.597 101.062 129.476 101.062 129.476L98.3555 128.75L99.5379 127.912C99.5379 127.912 101.741 123.688 106.271 121.8C111.167 119.76 117.429 121.824 121.765 124.927Z" fill="#4E1B3D"/>
<path d="M121.461 124.742C121.461 124.742 121.631 126.922 120.663 127.756C120.663 127.756 122.856 126.046 122.626 125.554C122.397 125.061 121.461 124.742 121.461 124.742Z" fill="#DD6B7C"/>
<path d="M107.035 127.724C107.508 127.808 106.129 128.744 104.816 128.978C103.64 129.187 102.808 128.86 102.833 128.693C102.857 128.526 105.167 127.394 107.035 127.724Z" fill="white"/>
<path d="M108.005 127.495C108.325 127.109 108.92 127.031 109.073 127.233C109.226 127.434 108.888 128.009 108.602 128.061C108.315 128.113 107.827 127.708 108.005 127.495Z" fill="white"/>
<g opacity="0.6">
<g style="mix-blend-mode:multiply" opacity="0.6">
<path d="M121.46 124.74C121.46 124.74 108.746 119.335 101.097 129.703L101.062 129.475C101.062 129.475 101.159 125.377 107.389 122.489C113.619 119.602 120.295 123.925 121.46 124.74Z" fill="#D177B8"/>
</g>
</g>
<path d="M161.386 117.312L162.797 118.356C162.797 118.356 161.174 121.002 154.584 122.012C147.994 123.022 142.645 120.962 142.645 120.962C142.645 120.962 151.64 124.167 161.386 117.312Z" fill="#DD6B7C"/>
<path d="M141.484 120.322C140.755 119.28 146.165 111.671 151.944 110.629C157.723 109.587 161.897 112.762 162.098 113.906C162.298 115.05 162.272 119.898 154.156 121.707C148.9 122.877 142.12 121.229 141.484 120.322Z" fill="url(#paint4_linear_1170_2528)"/>
<path d="M157.362 117.645C157.706 116.522 157.709 115.323 157.371 114.198C157.034 113.073 156.37 112.074 155.464 111.327C154.559 110.579 153.452 110.117 152.284 109.999C151.115 109.881 149.938 110.111 148.901 110.662C147.864 111.213 147.014 112.059 146.458 113.093C145.901 114.127 145.664 115.303 145.776 116.472C145.888 117.64 146.344 118.75 147.087 119.659C147.829 120.569 148.825 121.238 149.948 121.582C151.453 122.043 153.08 121.887 154.47 121.148C155.86 120.41 156.9 119.15 157.362 117.645Z" fill="url(#paint5_linear_1170_2528)"/>
<path d="M157.021 117.528C157.344 116.471 157.347 115.343 157.029 114.284C156.711 113.226 156.086 112.285 155.233 111.582C154.381 110.879 153.339 110.444 152.239 110.333C151.14 110.222 150.032 110.439 149.056 110.958C148.08 111.476 147.279 112.272 146.756 113.245C146.232 114.219 146.009 115.325 146.114 116.425C146.22 117.526 146.649 118.57 147.348 119.426C148.046 120.282 148.983 120.912 150.04 121.236C150.742 121.451 151.479 121.526 152.21 121.456C152.94 121.386 153.65 121.173 154.298 120.828C154.947 120.484 155.521 120.015 155.988 119.449C156.455 118.883 156.806 118.23 157.021 117.528Z" fill="url(#paint6_linear_1170_2528)"/>
<path style="mix-blend-mode:multiply" d="M151.679 119.526C152.396 119.526 153.098 119.314 153.694 118.915C154.29 118.517 154.755 117.95 155.03 117.288C155.304 116.625 155.376 115.896 155.236 115.192C155.096 114.489 154.751 113.843 154.243 113.336C153.736 112.828 153.09 112.483 152.387 112.343C151.683 112.203 150.954 112.275 150.291 112.549C149.629 112.824 149.062 113.289 148.664 113.885C148.265 114.482 148.053 115.183 148.053 115.9C148.053 116.862 148.435 117.784 149.115 118.464C149.795 119.144 150.717 119.526 151.679 119.526Z" fill="url(#paint7_linear_1170_2528)"/>
<path d="M141.595 119.335C141.595 119.335 145.676 110.522 152.184 109.214C158.692 107.907 161.714 113.228 161.714 113.228C161.714 113.228 158.508 109.621 151.946 110.624C145.8 111.563 141.595 119.335 141.595 119.335Z" fill="#DD4C6A"/>
<path d="M141.595 119.339C141.595 119.339 145.692 111.917 152.159 110.939C158.625 109.961 162.022 113.684 162.022 113.684L164.074 111.776L162.638 111.588C162.638 111.588 158.716 108.882 153.83 109.332C148.551 109.817 143.977 114.57 141.595 119.339Z" fill="#4E1B3D"/>
<path d="M141.775 119.031C141.775 119.031 142.645 121.041 143.892 121.325C143.892 121.325 141.154 120.84 141.127 120.299C141.1 119.759 141.775 119.031 141.775 119.031Z" fill="#DD6B7C"/>
<path d="M155.925 114.926C155.547 115.221 157.207 115.404 158.474 114.997C159.614 114.632 160.192 113.954 160.095 113.822C159.997 113.689 157.417 113.762 155.925 114.926Z" fill="white"/>
<path d="M154.961 115.185C154.5 114.992 153.934 115.202 153.897 115.451C153.86 115.7 154.424 116.05 154.701 115.964C154.979 115.878 155.218 115.291 154.961 115.185Z" fill="white"/>
<g style="mix-blend-mode:multiply" opacity="0.6">
<path d="M141.776 119.035C141.776 119.035 150.492 108.315 162.098 113.906L162.027 113.689C162.027 113.689 160.025 110.112 153.168 110.471C146.311 110.83 142.426 117.769 141.776 119.035Z" fill="#D177B8"/>
</g>
<path d="M275.792 205.375C275.019 205.296 274.239 205.399 273.513 205.676C269.66 194.513 259.001 187.294 248.62 181.664C246.412 180.467 244.146 179.277 242.363 177.502C240.098 175.244 238.79 172.223 237.56 169.271C235.113 163.401 232.716 157.407 228.846 152.365C224.975 147.323 219.704 143.22 214.258 139.935C208.781 136.631 206.469 126.79 206.263 124.264C205.794 118.499 204.646 114.724 199.431 106.54C196.061 101.25 191.596 96.7601 187.174 92.3151C178.231 83.3327 171.146 73.1414 162.204 64.1589C156.484 58.414 148.728 53.7525 141.329 50.4359C141.329 50.4359 137.263 48.7227 133.28 48.5411C129.296 48.3595 121.149 48.0425 118.249 50.307C116.485 51.6824 114.59 52.8811 112.591 53.8857C105.089 52.2473 99.652 55.6167 94.1692 60.9919C88.6864 66.3671 83.3418 72.9191 81.1336 80.2746C68.3658 122.807 74.4377 145.544 88.2397 174.154C90.121 178.054 92.6134 181.767 93.3685 186.03C94.192 190.681 93.3372 195.494 94.0345 200.165C95.1422 207.591 100.445 214.244 107.443 216.976C115.492 213.415 120.709 197.419 124.873 194.161C125.056 190.722 124.157 187.175 123.184 185.289C122.279 183.537 121.02 178.966 120.049 178.411C117.841 177.141 113.53 174.596 110.053 170.623C106.827 166.934 104.508 164.421 102.992 159.76C101.476 155.099 98.2793 153.1 98.1625 148.202C97.8486 135.043 97.5347 121.886 97.2208 108.728C96.9993 99.4299 96.4372 92.1192 98.1183 82.9687C98.6312 80.1806 99.9576 77.6461 101.907 75.5904C103.521 73.8865 106.348 72.3436 108.52 71.4589C113.003 69.6317 116.843 68.1885 121.326 66.3586C123.724 65.3798 125.809 65.1896 128.387 64.9339C135.704 64.2016 141.444 67.4085 146 73.1663C148.06 75.7691 149.49 80.338 152.518 85.0081C154.96 88.7791 160.2 94.5433 162.408 98.4711C164.033 101.357 163.67 102.665 165.257 105.6C166.941 108.71 171.749 113.154 173.483 116.28C174.36 117.861 175.27 119.461 175.67 121.226C176.24 123.727 175.734 126.336 175.707 128.902C175.617 137.111 178.926 145.871 176.596 153.739C174.957 159.268 171.454 163.059 170.869 168.795C169.972 177.628 178.158 183.896 184.2 190.406C188.93 195.497 193.144 201.559 198.091 206.441C207.972 216.2 225.78 213.083 227.166 213.741C230.289 221.813 234.608 229.568 240.851 235.563C247.095 241.558 255.425 245.671 264.08 245.686C268.377 245.694 273.135 244.225 275.792 241.11L275.792 205.375Z" fill="#FCB677"/>
<path d="M72.5807 238.535C72.5837 238.526 72.588 238.517 72.5935 238.508C72.5993 238.5 72.6068 238.494 72.6156 238.489C72.7069 238.4 72.8299 238.35 72.9575 238.352C73.0907 238.361 73.2254 238.457 73.3322 238.698C73.3406 238.718 73.3452 238.74 73.3457 238.762L73.3002 238.911C73.2859 238.959 73.2767 239.011 73.2638 239.062L73.1926 239.366L73.1413 239.677L73.1164 239.832L73.1 239.988C73.0231 240.734 73.0252 241.486 73.1064 242.232C73.1898 242.986 73.3274 243.732 73.5181 244.466C73.6107 244.834 73.7219 245.198 73.8387 245.561C73.9555 245.924 74.0866 246.281 74.2283 246.636C74.5068 247.348 74.8217 248.046 75.1543 248.744C75.8168 250.138 76.5448 251.519 77.1717 252.965C77.7985 254.411 78.3214 255.886 78.81 257.368C79.0543 258.108 79.2923 258.85 79.5295 259.59C79.7667 260.331 80.0039 261.074 80.2261 261.824C80.4484 262.574 80.6599 263.329 80.8444 264.094C81.0289 264.859 81.1814 265.634 81.3253 266.397C81.4691 267.16 81.6066 267.925 81.7648 268.676C81.9144 269.426 82.1017 270.168 82.3261 270.899C82.3403 270.944 82.3524 270.99 82.3688 271.035L82.4023 271.134L82.418 271.18L82.4486 271.268L82.5127 271.448C82.5512 271.568 82.5989 271.685 82.6452 271.804C82.6452 271.804 82.6666 271.875 82.7043 271.993C82.7228 272.051 82.7421 272.121 82.7684 272.203L82.861 272.462L82.9657 272.762C83.0064 272.864 83.0498 272.969 83.094 273.075L83.1581 273.234C83.178 273.288 83.1994 273.341 83.2222 273.391C83.2692 273.494 83.3141 273.594 83.3554 273.692C83.3931 273.772 83.4266 273.848 83.4565 273.915C83.4865 273.982 83.5214 274.042 83.5463 274.095C83.5882 274.18 83.6251 274.267 83.6567 274.357C83.7009 274.492 83.6902 274.546 83.6368 274.539C83.5833 274.531 83.49 274.462 83.3704 274.351C83.3105 274.295 83.2421 274.228 83.1737 274.154C83.1369 274.116 83.1027 274.076 83.0712 274.034C83.037 273.991 82.9999 273.947 82.9672 273.901C82.9757 273.925 82.9031 273.823 82.7813 273.658C82.7171 273.578 82.6609 273.474 82.5889 273.363C82.517 273.253 82.4465 273.132 82.3752 273.011L82.1786 272.644L82.0882 272.474C82.0611 272.418 82.0376 272.365 82.0169 272.318L81.8652 271.992C81.8146 271.87 81.7754 271.746 81.732 271.622L81.6679 271.436L81.6522 271.389L81.6223 271.304C81.6059 271.258 81.5917 271.211 81.5781 271.161L81.41 270.6C80.994 269.096 80.7468 267.575 80.4591 266.082C80.3166 265.334 80.1585 264.599 79.9718 263.866C79.7852 263.133 79.5765 262.404 79.3542 261.676C79.132 260.948 78.9005 260.224 78.6668 259.496C78.4332 258.769 78.2003 258.042 77.9545 257.32C77.4723 255.876 76.9573 254.45 76.3461 253.068C75.7349 251.686 75.0233 250.336 74.3644 248.943C74.0353 248.247 73.7233 247.539 73.4384 246.814C73.1553 246.087 72.9174 245.343 72.726 244.586C72.5311 243.826 72.392 243.054 72.31 242.274C72.2274 241.485 72.2274 240.69 72.31 239.901L72.3278 239.729L72.3556 239.557L72.4119 239.214L72.4902 238.874C72.5038 238.817 72.5145 238.76 72.5308 238.704L72.5807 238.535Z" fill="#61328F"/>
</g>
<defs>
<filter id="filter0_b_1170_2528" x="-19.5" y="-20" width="330" height="330" filterUnits="userSpaceOnUse" color-interpolation-filters="sRGB">
<feFlood flood-opacity="0" result="BackgroundImageFix"/>
<feGaussianBlur in="BackgroundImageFix" stdDeviation="10"/>
<feComposite in2="SourceAlpha" operator="in" result="effect1_backgroundBlur_1170_2528"/>
<feBlend mode="normal" in="SourceGraphic" in2="effect1_backgroundBlur_1170_2528" result="shape"/>
</filter>
<linearGradient id="paint0_linear_1170_2528" x1="114.543" y1="132.374" x2="108.299" y2="122.168" gradientUnits="userSpaceOnUse">
<stop stop-color="#EEE2FF"/>
<stop offset="1" stop-color="#BDC9FB"/>
</linearGradient>
<linearGradient id="paint1_linear_1170_2528" x1="113.763" y1="130.69" x2="107.563" y2="120.629" gradientUnits="userSpaceOnUse">
<stop stop-color="#471F4B"/>
<stop offset="1" stop-color="#310A39"/>
</linearGradient>
<linearGradient id="paint2_linear_1170_2528" x1="114.057" y1="131.172" x2="108.182" y2="121.626" gradientUnits="userSpaceOnUse">
<stop stop-color="#57335B"/>
<stop offset="1" stop-color="#310A39"/>
</linearGradient>
<linearGradient id="paint3_linear_1170_2528" x1="113.293" y1="129.951" x2="109.522" y2="123.787" gradientUnits="userSpaceOnUse">
<stop stop-color="#A79ABD"/>
<stop offset="0.99" stop-color="#724A60"/>
</linearGradient>
<linearGradient id="paint4_linear_1170_2528" x1="151.469" y1="122.249" x2="152.239" y2="110.268" gradientUnits="userSpaceOnUse">
<stop stop-color="#EEE2FF"/>
<stop offset="1" stop-color="#BDC9FB"/>
</linearGradient>
<linearGradient id="paint5_linear_1170_2528" x1="151.305" y1="121.831" x2="152.067" y2="109.981" gradientUnits="userSpaceOnUse">
<stop stop-color="#471F4B"/>
<stop offset="1" stop-color="#310A39"/>
</linearGradient>
<linearGradient id="paint6_linear_1170_2528" x1="151.318" y1="121.47" x2="152.036" y2="110.314" gradientUnits="userSpaceOnUse">
<stop stop-color="#57335B"/>
<stop offset="1" stop-color="#310A39"/>
</linearGradient>
<linearGradient id="paint7_linear_1170_2528" x1="151.446" y1="119.519" x2="151.911" y2="112.281" gradientUnits="userSpaceOnUse">
<stop stop-color="#A79ABD"/>
<stop offset="0.99" stop-color="#724A60"/>
</linearGradient>
</defs>
</svg>
