<svg width="291" height="290" viewBox="0 0 291 290" fill="none" xmlns="http://www.w3.org/2000/svg">
<g filter="url(#filter0_b_1170_2272)">
<rect x="0.5" width="290" height="290" rx="60" fill="#00007E"/>
</g>
<mask id="mask0_1170_2272" style="mask-type:alpha" maskUnits="userSpaceOnUse" x="21" y="20" width="250" height="250">
<rect x="21" y="20" width="250" height="250" rx="60" fill="#C4C4C4"/>
</mask>
<g mask="url(#mask0_1170_2272)">
<path d="M54.1516 38.6691C54.1652 30.2351 51.6193 21.9954 46.8502 15.0391H16V80.376C37.3834 78.494 54.1516 60.5419 54.1516 38.6691Z" fill="#66C3CD"/>
<path d="M56.8478 252.33C74.5598 222.619 75.0036 188.202 45.1122 156.64C40.5027 151.774 31.4533 143.89 27.4364 138.524C23.9781 133.903 17.6441 120.017 16 118.25V275.043H46.7014C46.7748 273.538 46.9877 272.043 47.3375 270.577C48.9367 263.874 53.3182 258.25 56.8478 252.33Z" fill="#00007E"/>
<path d="M231.152 168.825C228.531 180.062 228.615 192.347 233.868 202.621C236.108 207.002 239.216 210.894 241.435 215.285C246.998 226.287 246.299 240.204 239.66 250.592C233.837 259.705 223.909 266.198 218.183 275.041H276V124.398C268.958 125.121 262.026 127.519 256.075 131.341C243.131 139.653 234.646 153.843 231.152 168.825Z" fill="#FA9101"/>
<path d="M192.449 32.6842C203.743 36.3527 215.638 37.7666 227.128 40.7677C244.442 45.3032 260.629 53.3772 274.667 64.4804C275.113 64.8337 275.558 65.1927 276 65.5574V15.0391H165.85C172.09 23.7587 182.159 29.3412 192.449 32.6842Z" fill="#66C3CD"/>
<path d="M276 65.5574C275.559 65.1927 275.115 64.8337 274.667 64.4804C260.629 53.3772 244.442 45.3032 227.128 40.7677C215.638 37.7666 203.743 36.3512 192.449 32.6842C182.159 29.3412 172.09 23.7587 165.85 15.0391H46.8502C51.6193 21.9954 54.1652 30.2351 54.1516 38.6691C54.1516 60.5419 37.3834 78.494 16 80.376V118.246C17.6441 120.013 23.9781 133.899 27.4364 138.52C31.4533 143.887 40.5027 151.769 45.1122 156.636C75.0036 188.198 74.5598 222.615 56.8478 252.326C53.3182 258.246 48.9367 263.87 47.3361 270.573C46.9868 272.039 46.7743 273.534 46.7014 275.039H123.087C104.791 254.929 93.443 228.387 92.8353 199.204C67.069 184.131 49.7644 156.169 49.7644 124.168C49.7644 76.1875 88.6575 37.2922 136.639 37.2922C168.645 37.2922 196.607 54.6018 211.679 80.3667C235.587 80.8654 257.725 88.5706 276.002 101.401L276 65.5574Z" fill="#150DCE"/>
<path d="M136.637 37.2891C88.6578 37.2891 49.7646 76.1843 49.7646 124.168C49.7646 156.173 67.0742 184.135 92.8385 199.208C105.698 206.73 120.665 211.043 136.64 211.043C184.619 211.043 223.514 172.15 223.514 124.168C223.514 108.194 219.202 93.2268 211.679 80.3671C196.604 54.5972 168.642 37.2891 136.637 37.2891Z" fill="#00007E"/>
<path d="M239.66 250.587C246.299 240.198 246.997 226.281 241.435 215.279C239.215 210.889 236.107 206.996 233.868 202.615C228.614 192.342 228.531 180.056 231.152 168.819C234.642 153.838 243.13 139.647 256.075 131.335C262.026 127.513 268.958 125.115 276 124.393V101.394C257.722 88.5633 235.584 80.8573 211.677 80.3594C219.2 93.219 223.512 108.186 223.512 124.16C223.512 172.14 184.619 211.035 136.637 211.035C120.662 211.035 105.696 206.722 92.8359 199.2C93.4436 228.383 104.792 254.926 123.087 275.035H218.183C223.909 266.192 233.836 259.7 239.66 250.587Z" fill="#66C3CD"/>
<path d="M256.075 131.341C243.131 139.653 234.646 153.843 231.152 168.825C228.531 180.062 228.615 192.347 233.868 202.621C236.108 207.002 239.216 210.894 241.435 215.285C246.998 226.287 246.299 240.204 239.66 250.592C233.837 259.705 223.909 266.198 218.183 275.041H276V124.398C268.958 125.121 262.026 127.518 256.075 131.341Z" fill="#00007E"/>
<path d="M47.5451 275.042C50.5077 264.768 54.7396 254.769 59.451 245.174C61.4213 241.163 61.3985 241.238 62.2804 239.702C98.6305 218.694 143.343 201.098 190.106 197.059L180.185 197.205C130.565 191.395 111.899 186.494 64.428 202.066C54.7596 205.238 44.8653 209.846 39.3704 218.412C35.6008 224.286 34.3321 231.37 33.1418 238.247L26.7715 275.042H47.5451Z" fill="#FBB577"/>
<path d="M68.3097 199.747C65.9529 202.009 64.2105 204.833 63.2465 207.953C62.8818 209.141 62.6332 210.36 62.3853 211.578C61.2392 217.205 60.0909 222.851 59.5395 228.57C58.9982 234.189 59.0359 239.844 59.0744 245.488C62.6289 242.172 67.3495 240.469 71.8963 238.744C73.7035 238.058 75.5292 237.341 77.0685 236.168C78.6079 234.996 79.8388 233.29 80.0097 231.364C80.081 230.581 79.972 229.786 79.8993 229C79.6895 226.723 79.7729 224.429 80.1472 222.173C80.5333 219.851 81.2235 217.592 81.9124 215.341C82.8384 212.309 83.7694 209.273 84.9134 206.317C85.6877 204.315 86.571 202.119 85.8572 200.095C85.1435 198.071 82.9424 196.853 80.7997 196.689C78.657 196.524 76.5414 197.211 74.5227 197.955C72.5039 198.7 68.3097 199.747 68.3097 199.747Z" fill="black"/>
<path d="M253.806 275.038C251.972 269.407 249.938 263.838 247.596 258.493C241.684 245.008 237.481 230.558 231.573 217.073C229.614 212.6 227.599 210.11 224.113 206.691C218.241 200.932 208.078 201.562 199.867 201.095C166.852 199.23 133.431 204.372 103.357 218.115C88.2982 224.998 83.7949 226.429 68.9671 234.449C67.0438 235.489 60.6634 238.225 59.2687 239.905C57.9801 241.457 53.1206 250.342 52.2879 252.18C49.0197 259.389 46.8742 267.402 44.5947 275.038H253.806Z" fill="black"/>
<path d="M66.3224 200.849C60.9358 207.498 58.7069 216.599 60.4101 224.984C65.0402 220.297 72.5674 219.946 77.9148 216.098C82.696 212.657 85.4719 206.607 90.8792 204.268C92.9499 203.373 95.3291 203.069 97.0822 201.647C99.6152 199.593 101.299 195.213 102.861 192.349C106.144 186.332 112.572 185.365 119.344 184.3C131.153 182.439 143.832 180.695 154.581 185.925C150.108 186.321 149.012 192.306 149.151 196.794C149.303 201.769 150.174 207.83 154.804 209.66C151.481 209.903 148.599 212.936 148.527 216.266C151.531 214.617 154.638 213.161 157.827 211.906C157.317 211.061 156.92 212.874 157.49 213.68C158.98 215.786 158.202 218.867 156.436 220.746C154.67 222.626 152.162 223.591 149.748 224.498C156.602 223.347 163.168 220.882 169.087 217.239C167.734 221.301 165.214 224.874 161.841 227.511C170.778 226.887 178.854 221.535 185.318 215.333C186.387 217.049 186.053 224.188 187.121 225.902C193.09 220.991 199.07 219.186 203.523 215.98C207.975 212.774 209.586 205.207 205.166 201.954L209.641 193.179C210.529 191.437 211.444 189.525 211.065 187.606C210.266 183.546 204.555 182.418 202.827 178.655C208.061 175.335 208.941 166.897 204.506 162.568C203.944 162.019 203.304 161.515 202.96 160.81C202.498 159.863 202.656 158.75 202.738 157.7C203.258 151.11 200.111 144.348 194.735 140.5C198.802 137.234 200.157 131.026 197.819 126.361C197.17 125.066 196.264 123.86 196.007 122.434C195.637 120.389 196.669 118.392 197.324 116.421C199.901 108.675 196.733 100.291 193.343 92.8663C190.411 86.4482 187.278 80.1275 183.946 73.9041C176.993 60.9234 167.623 47.2502 153.212 44.2228C147.27 42.9741 140.066 44.319 137.067 49.5995C131.387 46.7722 124.474 48.7326 118.903 51.7699C100.092 62.0275 89.0792 84.9117 92.8004 106.011C93.4757 109.841 94.5513 113.96 92.8766 117.47C92.0303 119.244 90.5672 120.634 89.1369 121.982L77.189 133.233C74.6787 135.597 72.011 138.267 71.6485 141.696C71.0993 146.888 75.9324 150.923 77.8863 155.764C79.3822 159.478 79.1443 163.632 78.8836 167.627C78.6321 171.423 78.2988 175.454 76.025 178.505C73.6359 181.71 69.3469 183.464 67.9266 187.201C66.4485 191.089 68.6489 195.832 66.6201 199.462" fill="#FA9101"/>
<path d="M99.5297 138.074C98.5823 137.326 97.0978 137.744 96.2957 138.644C95.4936 139.544 94.8781 140.295 94.6124 141.473C93.9749 144.297 93.6558 147.67 93.96 150.548C94.0497 151.395 94.2207 152.232 94.3297 153.077C94.5028 154.419 94.5248 155.805 95.0192 157.066C95.5136 158.327 97.0992 159.456 97.9953 159.456C99.1607 159.456 100.182 158.58 100.716 157.544C101.251 156.509 101.392 155.322 101.525 154.164C101.757 152.137 101.99 150.103 101.937 148.063C101.848 144.644 101.432 141.498 99.8039 138.489L99.5297 138.074Z" fill="#DC3B63"/>
<path d="M106.324 148.448C107.525 158.889 107.525 169.433 106.324 179.874C105.682 185.437 103.318 191.151 101.296 195.456C112.65 197.457 123.464 198.493 134.989 198.793C140.574 198.936 146.322 198.854 151.503 196.763C150.568 196.873 149.702 196.095 149.432 195.196C149.162 194.297 149.361 193.319 149.661 192.427C151.086 188.205 154.668 185.069 158.439 182.692C159.579 181.974 160.899 181.054 160.877 179.707C160.866 178.995 160.464 178.362 160.13 177.736C157.345 172.517 158.777 166.148 160.266 160.426L164.299 144.961L106.324 148.448Z" fill="#FBB577"/>
<path d="M140.871 53.6406C136.038 55.0477 131.278 56.6797 126.591 58.5365C124.678 59.2951 122.764 60.0986 121.061 61.2533C117.695 63.5327 115.363 67.0395 113.397 70.5998C110.25 76.299 107.812 82.3621 106.137 88.6537C105.639 90.52 105.211 92.4155 104.428 94.1821C103.833 95.5305 102.669 98.9134 101.944 100.196C98.5873 106.144 96.5358 111.512 97.1576 117.48C97.8956 124.568 98.0274 131.095 98.9384 139.159C99.3719 142.926 100.846 146.497 103.195 149.474C107.246 154.566 109.484 156.214 115.874 157.452C120.651 158.378 130.136 159.241 134.99 159.574C142.076 160.06 149.386 159.258 155.777 156.16C162.168 153.062 165.109 149.026 166.916 142.158C168.152 137.457 168.704 132.072 171.019 127.797C172.414 125.22 172.76 121.518 172.853 118.471C172.887 117.356 172.437 112.834 171.766 111.943C168.081 107.054 167.788 104.835 167.056 98.7567C166.788 96.5292 166.729 94.2484 166.021 92.1199C164.952 88.9144 164.397 89.3532 162.799 86.3785C160.848 82.7507 159.642 79.677 157.913 75.8425C156.45 72.5978 153.947 67.3181 152.12 64.2636C151.008 62.4044 149.817 59.6634 147.704 58.1091C145.961 56.8226 140.871 53.6406 140.871 53.6406Z" fill="#FBB577"/>
<path d="M140.395 100.066C144.286 100.029 148.047 98.456 151.934 98.4688C157.281 98.4859 162.482 101.79 164.769 106.623C161.827 105.547 158.563 106.662 155.438 106.434C149.8 106.022 145.307 101.35 139.761 100.255" fill="url(#paint0_linear_1170_2272)"/>
<path d="M154.567 106.215C156.757 106.215 158.534 104.439 158.534 102.248C158.534 100.057 156.757 98.2812 154.567 98.2812C152.376 98.2812 150.6 100.057 150.6 102.248C150.6 104.439 152.376 106.215 154.567 106.215Z" fill="url(#paint1_linear_1170_2272)"/>
<path style="mix-blend-mode:multiply" d="M151.993 102.253C151.993 102.763 152.144 103.26 152.427 103.684C152.71 104.107 153.112 104.437 153.582 104.632C154.052 104.827 154.57 104.878 155.07 104.779C155.569 104.68 156.028 104.434 156.388 104.074C156.748 103.714 156.993 103.256 157.092 102.756C157.192 102.257 157.141 101.739 156.946 101.269C156.751 100.798 156.421 100.396 155.997 100.113C155.574 99.8304 155.076 99.6795 154.567 99.6797C153.884 99.6799 153.23 99.9511 152.747 100.434C152.265 100.916 151.993 101.571 151.993 102.253Z" fill="url(#paint2_linear_1170_2272)"/>
<path d="M157.197 102.438C156.799 102.448 157.812 103.387 158.857 103.743C159.794 104.061 160.515 103.897 160.516 103.76C160.516 103.623 158.765 102.398 157.197 102.438Z" fill="white"/>
<path d="M156.428 102.132C156.215 101.776 155.737 101.637 155.589 101.785C155.442 101.932 155.644 102.443 155.874 102.522C156.104 102.601 156.547 102.329 156.428 102.132Z" fill="white"/>
<path d="M139.929 99.8795C141.655 99.4742 143.167 98.4656 144.779 97.7297C148.681 95.9489 153.302 95.8121 157.302 97.3579C158.011 97.6314 158.708 97.9605 159.301 98.4349C159.824 98.8538 160.253 99.3752 160.679 99.8924C161.523 100.921 162.061 102.14 162.598 103.359C159.974 101.157 157.967 99.5561 154.645 98.7156C153.408 98.4022 151.143 98.4235 149.763 98.5981C146.325 99.0312 143.094 101.152 139.765 100.19L139.929 99.8795Z" fill="#4E1B3D"/>
<path d="M105.351 96.6398C107.037 96.2666 108.231 94.8227 109.613 93.7905C111.613 92.309 114.099 91.6378 116.573 91.9114C120.67 92.383 123.981 95.3256 127.628 97.2468C126.121 97.0067 124.576 96.7666 123.08 97.0623C122.235 97.2289 121.431 97.5609 120.592 97.7582C119.459 98.0239 118.284 98.0346 117.12 98.0431C114.555 98.0567 111.96 98.051 109.464 97.4583C108.015 97.1143 106.55 96.57 105.077 96.7937" fill="url(#paint3_linear_1170_2272)"/>
<path d="M116.345 97.9897C118.435 97.9897 120.129 96.2956 120.129 94.2058C120.129 92.116 118.435 90.4219 116.345 90.4219C114.256 90.4219 112.562 92.116 112.562 94.2058C112.562 96.2956 114.256 97.9897 116.345 97.9897Z" fill="url(#paint4_linear_1170_2272)"/>
<path style="mix-blend-mode:multiply" d="M113.89 94.2047C113.89 94.6903 114.033 95.1651 114.303 95.569C114.573 95.9729 114.956 96.2877 115.405 96.4737C115.854 96.6596 116.347 96.7084 116.824 96.6137C117.3 96.519 117.738 96.2852 118.081 95.9419C118.424 95.5985 118.658 95.161 118.753 94.6847C118.848 94.2084 118.799 93.7146 118.614 93.2659C118.428 92.8172 118.113 92.4337 117.709 92.1639C117.305 91.894 116.831 91.75 116.345 91.75C115.694 91.75 115.07 92.0086 114.609 92.4689C114.149 92.9292 113.89 93.5536 113.89 94.2047Z" fill="url(#paint5_linear_1170_2272)"/>
<path d="M113.926 93.8211C114.272 93.9052 113.206 94.5335 112.223 94.6425C111.343 94.7408 110.744 94.458 110.769 94.339C110.795 94.22 112.562 93.4863 113.926 93.8211Z" fill="white"/>
<path d="M114.658 93.7061C114.911 93.4376 115.358 93.4069 115.458 93.5636C115.559 93.7204 115.285 94.1292 115.07 94.1542C114.856 94.1791 114.515 93.8564 114.658 93.7061Z" fill="white"/>
<path d="M104.92 96.5665C105.84 96.4953 106.558 95.7181 106.968 94.8897C107.377 94.0613 107.912 93.4501 108.345 92.6338C109.512 90.4256 112.944 89.523 115.432 89.7431C117.92 89.9632 119.169 90.7675 121.265 92.128C123.024 93.2677 124.717 94.5221 126.271 95.9318C126.579 96.2118 126.895 96.5174 127.015 96.9156C124.485 95.6569 122.197 93.8618 119.446 92.6416C118.861 92.386 118.248 92.1984 117.62 92.0824C117.184 92.0112 115.809 91.7811 114.709 91.8759C110.742 92.2192 107.932 95.8571 105.663 96.5893" fill="#4E1B3D"/>
<path d="M111.452 128.992C112.241 129.371 112.459 130.397 113.11 130.982C114.286 132.04 115.737 132.681 117.211 133.328C119.41 134.293 121.406 135.082 123.77 135.504C125.551 135.823 129.453 136.313 131.261 136.31C133.985 136.306 134.732 136.3 137.417 135.841C139.437 135.494 141.644 135.069 143.34 134.585C142.157 134.812 141.19 134.807 140.035 134.524C139.306 134.345 138.578 134.168 137.855 133.968C136.991 133.73 136.093 133.166 135.248 132.87C133.938 132.411 132.252 131.911 130.935 131.471C125.962 129.81 122.193 129.42 117.11 129.303C115.662 129.269 112.949 129.407 111.559 129.002" fill="#FF5663"/>
<path d="M109.838 128.146C111.48 129.23 113.513 129.541 115.408 129.417C122.211 128.971 129.177 130.592 135.507 133.121C138.221 134.204 141.248 135.517 143.94 134.379C141.924 134.241 140.199 132.998 138.398 132.081C136.111 130.917 134.86 130.198 133.99 129.506C133.12 128.815 132.148 127.374 129.645 126.728C128.949 126.549 126.197 126.852 125.479 126.871C123.663 126.912 123.714 126.002 121.917 125.737C120.537 125.534 116.64 125.84 114.413 127.12C113.193 127.821 111.039 128.881 109.837 128.149" fill="#DC3B63"/>
<path d="M105.683 90.1813C106.933 85.6474 110.279 84.4499 114.978 84.6522C118.5 84.804 121.845 86.718 125.36 86.4331C126.774 86.3177 128.414 85.5184 128.464 84.1002C128.517 82.5616 126.745 81.7039 125.275 81.2459L124.953 82.2239C124.584 81.7461 124.1 81.3696 123.546 81.1298L123.275 82.3407L121.79 80.748C121.728 80.9555 121.711 81.1741 121.742 81.3885C121.773 81.6029 121.85 81.808 121.969 81.9896C120.045 80.5143 117.374 80.5236 114.983 80.9282C113.151 81.2381 111.257 81.6711 109.771 82.7874C106.052 85.5804 105.683 90.1813 105.683 90.1813Z" fill="#A63344"/>
<path d="M105.211 151.871C110.494 153.526 113.189 151.153 118.719 150.945C120.998 150.858 127.278 151.545 129.446 152.263C131.099 152.81 132.668 153.578 134.282 154.228C142.942 157.709 154.146 154.696 162.72 151.008C161.763 153.572 158.683 158.583 156.482 160.212C154.28 161.841 151.791 163.03 149.319 164.208C145.757 165.906 142.137 167.623 138.243 168.255C136.506 168.54 134.741 168.599 132.981 168.632C129.612 168.695 126.154 168.642 123.008 167.433C121.384 166.809 119.89 165.892 118.406 164.981C116.91 164.062 115.398 163.153 114.006 162.079C108.787 158.054 105.211 151.871 105.211 151.871Z" fill="#E78867"/>
<path d="M124.128 115.18C124.128 115.18 127.125 113.654 125.405 112.14C123.686 110.626 120.262 113.196 119.493 116.571L121.822 115.076C121.822 115.076 122.493 115.931 124.128 115.18Z" fill="black"/>
<path d="M131.383 117.218C131.383 117.218 127.775 115.961 129.603 114.128C131.431 112.294 135.636 114.614 136.863 118.128L134.026 116.816C134.026 116.816 133.34 117.818 131.383 117.218Z" fill="black"/>
<path d="M123.52 117.723C123.76 116.778 124.156 115.879 124.691 115.063C124.996 114.597 125.361 114.115 125.349 113.558C125.329 112.68 124.351 112.099 123.474 112.094C123.036 112.094 122.559 112.211 122.298 112.563C121.909 113.085 122.165 113.814 122.191 114.465C122.234 115.551 121.494 116.621 120.464 116.964C119.434 117.307 117.301 117.961 117.301 115.227C117.301 113.731 118.785 112.785 119.501 112.396C119.919 112.169 120.389 112.051 120.81 111.832C121.731 111.351 122.18 110.151 123.086 109.646C124.167 109.042 124.683 109.168 125.262 109.284C126.078 109.448 127.089 110.096 128.371 110.282C129.897 110.504 132.599 109.419 134.432 110.391C135.857 111.144 136.755 113.454 137.106 113.841C137.408 114.173 139.991 116.203 140.905 117.564C141.126 117.896 141.308 118.284 141.256 118.679C141.211 119.023 140.995 119.32 140.771 119.584C140.242 120.211 139.611 120.777 138.848 121.076C138.085 121.375 137.171 121.373 136.485 120.925C136.363 120.853 136.261 120.753 136.188 120.632C136.081 120.432 136.117 120.189 136.145 119.964C136.331 118.652 136.359 117.228 135.66 116.102C135.108 115.211 134.171 114.626 133.205 114.219C132.664 113.982 132.094 113.816 131.51 113.726C131.011 113.655 130.479 113.668 130.032 113.901C129.586 114.134 129.573 114.613 129.655 115.108C129.743 115.652 129.931 116.026 130.367 116.366C130.803 116.707 132.171 117.751 132.012 118.278C131.852 118.805 130.216 118.908 129.657 118.884C128.963 118.856 128.375 118.837 127.695 118.971C126.958 119.114 126.144 119.251 125.495 118.871C124.938 118.545 124.59 117.881 123.968 117.708C123.884 117.687 123.52 117.723 123.52 117.723Z" fill="#E27C63"/>
<path d="M166.902 97.287C166.918 95.5646 166.174 92.6184 166.169 92.6027C165.742 92.1696 165.314 91.7757 164.903 91.3982C163.93 90.5064 163.031 89.6338 161.85 89.0432C160.884 88.561 160.003 88.1079 158.942 87.9156L152.909 86.8222C152.909 86.8222 151.627 87.4355 150.98 87.8309C151.152 87.4263 151.264 87.0708 151.661 86.8749C151.205 87.0587 150.954 87.2596 150.499 87.4448C150.165 87.5787 149.819 87.7155 149.461 87.6962C149.77 87.3023 150.689 86.8307 150.689 86.8307C148.409 86.34 145.916 88.1528 145.677 90.47C145.65 90.7329 145.657 91.0235 145.827 91.2258C146.01 91.4452 146.325 91.4915 146.61 91.5107C151.195 91.874 156.886 91.28 159.987 92.7488C161.295 93.3685 162.519 94.1172 163.727 94.9121C164.32 95.3018 164.951 95.6316 165.527 96.044C166.031 96.4075 166.492 96.8253 166.904 97.2899L166.902 97.287Z" fill="#A63344"/>
<path d="M122.697 97.1448C117.939 98.0936 117.586 98.0188 112.735 97.9362C111.168 97.9098 108.775 97.2844 107.055 96.7394C106.588 96.592 105.208 96.7223 105.077 96.7872C105.077 96.7872 107.824 98.9042 110.683 98.7731C120.169 98.3372 119.616 98.4733 122.697 97.1448Z" fill="#DD4C6A"/>
<path d="M141.655 100.616C142.696 101.123 143.805 101.471 144.869 101.931C147.077 102.883 149.078 104.295 151.344 105.099C154.132 106.088 157.158 106.217 160.117 106.221C160.058 106.733 157.656 107.289 155.997 107.267C155.881 107.267 151.052 107.115 147.72 104.711C145.779 103.309 142.105 100.779 139.768 100.258" fill="#DD4C6A"/>
</g>
<defs>
<filter id="filter0_b_1170_2272" x="-19.5" y="-20" width="330" height="330" filterUnits="userSpaceOnUse" color-interpolation-filters="sRGB">
<feFlood flood-opacity="0" result="BackgroundImageFix"/>
<feGaussianBlur in="BackgroundImageFix" stdDeviation="10"/>
<feComposite in2="SourceAlpha" operator="in" result="effect1_backgroundBlur_1170_2272"/>
<feBlend mode="normal" in="SourceGraphic" in2="effect1_backgroundBlur_1170_2272" result="shape"/>
</filter>
<linearGradient id="paint0_linear_1170_2272" x1="139.765" y1="102.545" x2="164.773" y2="102.545" gradientUnits="userSpaceOnUse">
<stop stop-color="#EEE2FF"/>
<stop offset="1" stop-color="#BDC9FB"/>
</linearGradient>
<linearGradient id="paint1_linear_1170_2272" x1="154.567" y1="106.215" x2="154.567" y2="98.2812" gradientUnits="userSpaceOnUse">
<stop stop-color="#BAA9CC"/>
<stop offset="0.96" stop-color="#404577"/>
</linearGradient>
<linearGradient id="paint2_linear_1170_2272" x1="154.568" y1="104.828" x2="154.568" y2="99.6797" gradientUnits="userSpaceOnUse">
<stop stop-color="#A79ABD"/>
<stop offset="0.99" stop-color="#724A60"/>
</linearGradient>
<linearGradient id="paint3_linear_1170_2272" x1="105.077" y1="94.9445" x2="127.628" y2="94.9445" gradientUnits="userSpaceOnUse">
<stop stop-color="#EEE2FF"/>
<stop offset="1" stop-color="#BDC9FB"/>
</linearGradient>
<linearGradient id="paint4_linear_1170_2272" x1="116.345" y1="97.9897" x2="116.345" y2="90.4226" gradientUnits="userSpaceOnUse">
<stop stop-color="#BAA9CC"/>
<stop offset="0.96" stop-color="#404577"/>
</linearGradient>
<linearGradient id="paint5_linear_1170_2272" x1="116.345" y1="96.6601" x2="116.345" y2="91.75" gradientUnits="userSpaceOnUse">
<stop stop-color="#A79ABD"/>
<stop offset="0.99" stop-color="#724A60"/>
</linearGradient>
</defs>
</svg>
