<svg width="291" height="290" viewBox="0 0 291 290" fill="none" xmlns="http://www.w3.org/2000/svg">
<g filter="url(#filter0_b_1170_2608)">
<rect x="0.5" width="290" height="290" rx="60" fill="#00007E"/>
</g>
<mask id="mask0_1170_2608" style="mask-type:alpha" maskUnits="userSpaceOnUse" x="21" y="20" width="250" height="250">
<rect x="21" y="20" width="250" height="250" rx="60" fill="#C4C4C4"/>
</mask>
<g mask="url(#mask0_1170_2608)">
<path d="M240.997 109.472C253.505 109.472 265.366 106.702 276 101.742V15.0391H158.882C158.352 18.8573 158.086 22.7076 158.087 26.5624C158.087 72.3523 195.207 109.472 240.997 109.472Z" fill="#150DCE"/>
<path d="M240.997 109.472C195.207 109.472 158.087 72.3523 158.087 26.5624C158.086 22.7076 158.352 18.8573 158.882 15.0391L135.614 15.0391C141.054 27.3118 144.077 40.8966 144.077 55.1816C144.077 109.955 99.6737 154.358 44.8999 154.358C35.1082 154.367 25.3693 152.925 16 150.08L16 275.039H107.338C101.568 262.381 98.3523 248.312 98.3523 233.492C98.3523 178.117 143.243 133.227 198.618 133.227C229.773 133.227 257.61 147.436 276 169.728V101.742C265.366 106.702 253.505 109.472 240.997 109.472Z" fill="#00007E"/>
<path d="M135.614 15.0391H16V150.08C25.3693 152.925 35.1082 154.367 44.8999 154.358C99.6737 154.358 144.077 109.955 144.077 55.1816C144.077 40.8966 141.054 27.3118 135.614 15.0391Z" fill="#66C3CD"/>
<path d="M198.619 133.227C143.243 133.227 98.3525 178.118 98.3525 233.493C98.3525 248.313 101.568 262.381 107.339 275.039H276V169.728C257.61 147.436 229.774 133.227 198.619 133.227Z" fill="#66C3CD"/>
<path d="M73.5822 49.0425C61.5688 59.8471 55.3466 76.752 57.4985 92.7666C58.3213 98.8991 60.2766 104.821 61.4206 110.902C62.4492 116.365 62.8203 121.943 62.7078 127.499C62.5959 133.01 62.0125 138.557 62.8232 144.009C63.3346 147.45 64.3903 150.786 65.5535 154.065C69.3289 164.72 74.3195 175.671 72.5764 186.838C83.8476 179.679 97.7451 176.763 110.944 178.789C119.914 180.164 128.404 183.699 137.243 185.757C146.382 172.988 150.09 156.947 150.254 141.246C150.419 125.544 147.268 110.009 143.764 94.702C141.881 86.4718 139.891 78.265 137.71 70.1096C136.926 67.1954 136.093 64.2215 134.349 61.7604C132.71 59.4453 130.365 57.7322 128.003 56.16C123.358 53.0692 118.4 50.3268 113.006 48.905C99.8279 45.4295 88.2384 49.5197 74.6115 49.0474L73.5822 49.0425Z" fill="#4A147F"/>
<path d="M71.5898 187.812C85.1989 183.843 99.454 182.692 113.608 181.91C120.984 181.503 128.696 181.252 135.405 184.352C136.206 184.722 137.029 185.178 137.461 185.946C138.065 187.02 137.71 188.429 136.93 189.383C136.149 190.336 135.024 190.93 133.922 191.481C116.931 199.988 97.884 204.354 78.8833 204.093C76.7884 204.064 74.6193 203.962 72.7438 203.029C70.2699 201.798 66.6641 200.993 66.6641 196.504C66.6641 193.741 69.113 189.028 71.5934 187.813" fill="#FBB577"/>
<path d="M71.8392 138.039C74.7598 141.113 80.2262 146.814 81.6145 152.681C83.0029 158.548 82.7756 164.662 82.4387 170.681C82.1979 174.999 81.8432 179.514 79.553 183.182C78.57 184.756 77.27 186.103 75.98 187.437L68.4941 195.179L81.6238 198.338C83.8819 198.881 86.1435 199.425 88.4422 199.762C98.5815 201.25 108.827 198.662 118.748 196.095C120.919 195.533 123.256 194.864 124.611 193.079C125.275 192.205 125.634 191.142 125.976 190.099C128.386 182.721 129.545 177.079 130.719 165.696C131.807 155.145 130.429 149.52 129.547 145.204C129.499 144.968 129.444 144.719 129.28 144.54C128.906 144.133 128.24 144.327 127.727 144.531C118.039 148.429 107.121 146.849 96.8056 145.209C93.8701 144.743 90.9133 144.271 88.1238 143.245C86.3928 142.609 84.736 141.762 82.9551 141.282C79.3614 140.311 71.8392 138.039 71.8392 138.039Z" fill="#FBB577"/>
<g style="mix-blend-mode:multiply" opacity="0.6">
<path d="M69.5283 117.516C69.4051 118.898 70.5099 120.098 71.708 120.797C72.9062 121.495 74.2803 121.904 75.3594 122.776C77.5356 124.536 77.9409 127.62 78.5585 130.349C79.9889 136.665 83.3176 142.374 86.84 147.809C88.7135 150.7 90.7108 153.606 93.4853 155.649C96.7478 158.052 100.868 159.075 104.919 159.197C108.97 159.319 112.995 158.598 116.968 157.804C121.818 156.833 127.32 154.109 130.524 150.34C128.6 155.414 123.044 159.822 117.936 161.657C112.828 163.491 107.337 164.686 103.028 167.982C101.509 169.144 100.143 170.564 98.3904 171.33C97.5627 171.693 96.9074 171.926 96.2157 172.08C95.4517 172.249 94.7695 172.677 94.2849 173.291C93.8002 173.905 93.5429 174.668 93.5566 175.451C93.6207 178.893 93.578 181.673 93.7254 185.63C93.7909 187.392 94.1115 189.12 94.4527 190.848C96.6096 201.793 98.1312 201.971 99.8066 202.522C92.6306 203.377 83.6502 205.926 77.5762 202.581C86.8543 198.69 83.8012 162.082 83.4743 159.797C81.7141 147.473 79.3371 150.113 76.6081 147.296C74.9342 145.569 71.8776 140.942 71.5378 138.561C70.5241 131.464 70.0255 130.746 68.9784 123.654C68.7376 122.025 69.6437 119.037 69.5283 117.516Z" fill="#D177B8"/>
</g>
<path d="M97.0683 48.2087C92.1696 49.149 87.2018 50.1128 82.7326 52.3281C78.2635 54.5435 74.2766 58.2027 72.8063 62.9753C71.5875 66.9251 72.1902 71.1671 72.3704 75.2986C73.1746 93.6767 65.4166 112.375 70.2277 130.132C71.0633 133.215 71.4259 135.327 72.0299 138.466C72.3212 139.977 73.3178 142.406 73.8941 143.832C74.7489 145.954 76.4649 147.607 78.2393 149.046C91.3575 159.672 110.917 161.566 125.829 153.653C128.582 152.193 129.427 151.013 132.007 149.265C132.626 148.845 135.389 145.672 135.996 145.039C137.404 143.572 138.774 141.391 139.693 139.464C140.909 136.921 142.081 133.403 142.979 130.25C146.032 119.536 145.7 106.422 142.775 100.724C142.173 99.5505 142.119 96.3856 142.158 95.1533C142.198 93.8554 142.128 90.3978 142.099 88.991C142.053 86.7585 141.998 85.9386 141.394 83.974C141.215 83.3921 139.074 83.8536 139.078 83.2446C139.106 79.366 137.742 74.9189 136.381 71.5824C135.062 68.3498 133.163 65.3908 131.276 62.4524C129.526 59.7278 127.742 56.9632 125.304 54.8305C123.127 52.9272 120.502 51.5965 117.791 50.5893C111.265 48.1766 104.211 47.5555 97.3639 48.7907" fill="#FBB577"/>
<path d="M87.9863 129.804C89.1709 130.712 89.9424 131.736 91.3977 132.068C92.7411 132.374 94.975 133.363 96.0342 133.711C98.5566 134.538 99.5403 135.27 102.184 135.502C104.037 135.663 108.506 135.644 110.354 135.471C114.939 135.034 115.588 135.08 119.921 133.358C120.395 133.17 123.024 131.013 123.269 130.568C124.663 128.009 128.117 127.73 130.02 125.523C126.928 126.165 123.827 126.806 120.682 127.086C118.168 127.311 115.624 127.308 113.152 127.811C111.789 128.088 110.455 128.517 109.076 128.708C106.821 129.021 104.523 128.686 102.251 128.851C100.882 128.948 99.5332 129.225 98.1698 129.387C96.4196 129.594 94.653 129.611 92.8907 129.627C91.3948 129.641 89.9032 129.836 88.4073 129.85L87.9863 129.804Z" fill="#FF3646"/>
<path d="M97.5541 127.99C100.815 127.071 103.546 125.466 106.891 126.002C107.862 126.157 108.917 126.604 109.883 126.429C110.446 126.328 111.35 125.771 111.878 125.552C117.825 123.094 125.077 126.906 131.018 124.43C127.029 127.426 121.847 128.07 116.866 128.311C115.849 128.36 114.825 128.596 113.844 128.868C112.527 129.236 111.244 129.668 109.917 129.999C107.245 130.665 104.432 129.48 101.697 129.785C100.726 129.893 99.7872 130.186 98.8327 130.392C94.7952 131.259 90.606 130.534 86.54 129.813C86.5429 129.813 93.929 129.014 97.5541 127.99Z" fill="#DC3B63"/>
<path d="M113.777 84.8819C114.385 84.3248 117.56 82.7812 118.316 82.4535C120.39 81.556 122.637 80.7439 125.403 80.7717C126.349 80.7803 127.3 80.8608 128.213 81.1044C129.73 81.5097 131.09 82.3467 132.424 83.1701C133.478 83.8226 138.378 84.9965 133.706 80.8907C132.289 79.6441 131.172 79.1099 129.623 78.035C127.866 76.8126 125.824 76.5925 123.678 76.5861C121.746 76.5788 119.824 76.8671 117.979 77.4409C115.922 78.082 114.588 78.6654 112.957 80.1085C111.153 81.7034 110.022 83.3952 109.047 85.5016C109.047 85.5087 109.04 85.5158 109.038 85.5222C108.61 86.4376 109.568 87.3793 110.475 86.9369C111.583 86.3977 112.938 85.6512 113.777 84.8819Z" fill="#4E1B3D"/>
<path d="M93.969 83.2551C93.4276 82.7365 92.8677 82.2301 92.2331 81.8305C89.695 80.237 86.4368 80.5967 83.4821 81.0953C81.9527 81.3532 79.2608 81.8298 77.7835 82.2942C73.8507 83.5287 71.4537 85.9499 69.4492 89.5507C70.735 89.6504 71.9146 88.916 73.0543 88.3127C74.8099 87.3849 76.6904 86.7159 78.6376 86.3267C80.1769 86.0197 81.7454 85.8907 83.3104 85.7618C87.6264 85.4056 91.3455 85.5681 95.3488 86.7633C95.4572 86.7955 95.5729 86.7937 95.6804 86.7583C95.7878 86.723 95.8819 86.6556 95.9501 86.5653C96.0182 86.475 96.0572 86.3661 96.0618 86.253C96.0663 86.14 96.0363 86.0283 95.9756 85.9328C95.3929 85.0217 94.5987 83.8578 93.969 83.2551Z" fill="#4E1B3D"/>
<path d="M129.77 93.3828L130.638 94.2853C130.638 94.2853 129.18 95.95 124.428 95.8731C119.676 95.7962 116.161 93.7055 116.161 93.7055C116.161 93.7055 122.098 97.0349 129.77 93.3828Z" fill="#DD6B7C"/>
<path d="M115.422 93.1156C115.034 92.2957 119.746 87.5957 123.933 87.5551C128.121 87.5145 130.673 90.2456 130.677 91.0726C130.681 91.8996 130.083 95.3046 124.162 95.6045C120.328 95.7989 115.76 93.8293 115.422 93.1156Z" fill="url(#paint0_linear_1170_2608)"/>
<path d="M126.896 93.13C127.946 91.0418 127.104 88.4979 125.016 87.4481C122.928 86.3983 120.384 87.2401 119.334 89.3283C118.285 91.4165 119.126 93.9604 121.215 95.0102C123.303 96.06 125.847 95.2182 126.896 93.13Z" fill="url(#paint1_linear_1170_2608)"/>
<path d="M126.679 93.0272C127.667 91.0614 126.875 88.6665 124.909 87.6782C122.943 86.6899 120.548 87.4824 119.56 89.4483C118.572 91.4141 119.364 93.809 121.33 94.7973C123.296 95.7856 125.691 94.9931 126.679 93.0272Z" fill="url(#paint2_linear_1170_2608)"/>
<path style="mix-blend-mode:multiply" d="M123.116 93.8185C124.544 93.8185 125.701 92.6612 125.701 91.2335C125.701 89.8058 124.544 88.6484 123.116 88.6484C121.689 88.6484 120.531 89.8058 120.531 91.2335C120.531 92.6612 121.689 93.8185 123.116 93.8185Z" fill="url(#paint3_linear_1170_2608)"/>
<path d="M115.618 92.4426C115.618 92.4426 119.542 86.7369 124.272 86.5972C129.001 86.4576 130.487 90.5585 130.487 90.5585C130.487 90.5585 128.664 87.6379 123.934 87.5589C119.502 87.4848 115.618 92.4426 115.618 92.4426Z" fill="#DD4C6A"/>
<path d="M115.618 92.4395C115.618 92.4395 119.386 87.7139 124.047 87.8015C128.709 87.8891 130.65 90.9115 130.65 90.9115L132.323 89.8167L131.336 89.5125C131.336 89.5125 128.903 87.1426 125.416 86.8726C121.646 86.5806 117.863 89.3729 115.618 92.4395Z" fill="#4E1B3D"/>
<path d="M115.782 92.25C115.782 92.25 116.152 93.7665 116.993 94.1156C116.993 94.1156 115.127 93.446 115.173 93.0613C115.218 92.6767 115.782 92.25 115.782 92.25Z" fill="#DD6B7C"/>
<path d="M126.217 91.0576C125.916 91.2193 127.058 91.5463 127.998 91.4138C128.841 91.2934 129.331 90.8867 129.28 90.782C129.229 90.6773 127.408 90.418 126.217 91.0576Z" fill="white"/>
<path d="M125.509 91.1173C125.208 90.9286 124.785 91.0069 124.729 91.1779C124.674 91.3488 125.027 91.6615 125.233 91.6338C125.439 91.606 125.676 91.2256 125.509 91.1173Z" fill="white"/>
<g style="mix-blend-mode:multiply" opacity="0.6">
<path d="M115.781 92.2466C115.781 92.2466 123.189 85.7559 130.677 91.0741L130.65 90.9124C130.65 90.9124 129.672 88.1579 124.809 87.5894C119.946 87.021 116.389 91.4353 115.781 92.2466Z" fill="#D177B8"/>
</g>
<path d="M77.213 98.9568L76.3867 99.9961C76.3867 99.9961 78.0906 101.609 83.0997 101.055C88.1088 100.502 91.6135 97.9453 91.6135 97.9453C91.6135 97.9453 85.6755 102.05 77.213 98.9568Z" fill="#DD6B7C"/>
<path d="M92.334 97.2499C92.6624 96.3453 87.2216 91.8512 82.7959 92.2252C78.3702 92.5991 75.9483 95.7355 76.0252 96.6089C76.1021 97.4822 77.0731 101.017 83.3544 100.746C87.4218 100.57 92.0483 98.0371 92.334 97.2499Z" fill="url(#paint4_linear_1170_2608)"/>
<path d="M88.4575 95.8946C88.6062 93.4161 86.7176 91.2864 84.2391 91.1377C81.7606 90.989 79.6309 92.8776 79.4822 95.3561C79.3334 97.8346 81.2221 99.9643 83.7006 100.113C86.179 100.262 88.3088 98.3731 88.4575 95.8946Z" fill="url(#paint5_linear_1170_2608)"/>
<path d="M86.0048 99.7546C88.0656 98.6603 88.849 96.1026 87.7547 94.0418C86.6604 91.981 84.1026 91.1976 82.0419 92.292C79.9811 93.3863 79.1977 95.944 80.292 98.0048C81.3864 100.066 83.9441 100.849 86.0048 99.7546Z" fill="url(#paint6_linear_1170_2608)"/>
<path style="mix-blend-mode:multiply" d="M84.023 98.7648C85.5372 98.7648 86.7648 97.5372 86.7648 96.023C86.7648 94.5088 85.5372 93.2812 84.023 93.2812C82.5088 93.2812 81.2812 94.5088 81.2812 96.023C81.2812 97.5372 82.5088 98.7648 84.023 98.7648Z" fill="url(#paint7_linear_1170_2608)"/>
<path d="M92.0607 96.5511C92.0607 96.5511 87.3515 90.9166 82.3438 91.24C77.3362 91.5634 76.1758 96.0396 76.1758 96.0396C76.1758 96.0396 77.8099 92.7765 82.7962 92.2216C87.4655 91.7016 92.0607 96.5511 92.0607 96.5511Z" fill="#DD4C6A"/>
<path d="M92.0606 96.5548C92.0606 96.5548 87.6128 91.9403 82.7006 92.4945C77.7884 93.0487 76.0382 96.4344 76.0382 96.4344L74.1641 95.445L75.1756 95.0262C75.1756 95.0262 77.5084 92.2816 81.1634 91.6497C85.114 90.968 89.3858 93.5381 92.0606 96.5548Z" fill="#4E1B3D"/>
<path d="M91.8686 96.3672C91.8686 96.3672 91.6278 98.0055 90.7744 98.4572C90.7744 98.4572 92.677 97.5653 92.5909 97.1636C92.5047 96.7618 91.8686 96.3672 91.8686 96.3672Z" fill="#DD6B7C"/>
<path d="M80.7324 96.147C81.0658 96.2894 79.8926 96.7468 78.8853 96.6983C77.9835 96.6556 77.4258 96.2745 77.4713 96.1584C77.5169 96.0423 79.4132 95.5899 80.7324 96.147Z" fill="white"/>
<path d="M81.4868 96.1428C81.7853 95.9134 82.239 95.9547 82.3152 96.1292C82.3915 96.3038 82.0481 96.6699 81.8287 96.6606C81.6093 96.6514 81.3208 96.271 81.4868 96.1428Z" fill="white"/>
<g style="mix-blend-mode:multiply" opacity="0.6">
<path d="M91.869 96.3646C91.869 96.3646 83.4023 90.2485 76.0254 96.6075L76.0382 96.4337C76.0382 96.4337 76.7976 93.4291 81.8736 92.3456C86.9497 91.2622 91.146 95.5682 91.869 96.3646Z" fill="#D177B8"/>
</g>
<g style="mix-blend-mode:multiply" opacity="0.6">
<path d="M95.556 111.935L95.5311 111.963C94.9434 112.619 94.6236 113.862 94.8387 114.716C95.4406 117.109 97.3561 118.377 99.7837 118.199C100.919 118.116 102.21 117.377 102.162 116.24C101.789 116.074 101.358 116.161 100.951 116.129C100.496 116.094 99.9639 115.773 100.12 115.282C100.161 115.164 100.232 115.059 100.326 114.978C100.421 114.896 100.535 114.841 100.657 114.817C101.422 114.643 102.223 114.725 102.936 115.051C104.546 115.814 105.287 117.785 106.87 118.606C108.717 119.565 111.323 118.277 111.682 116.227C111.794 115.586 111.753 114.831 112.236 114.392C112.438 114.209 112.702 114.113 112.966 114.044C113.606 113.879 114.273 113.843 114.927 113.936C115.581 114.03 116.21 114.253 116.778 114.591C115.889 114.68 115.03 114.964 114.262 115.422C114.183 115.467 114.117 115.533 114.071 115.612C114.026 115.692 114.003 115.782 114.004 115.873C114.019 116.208 114.383 116.304 114.68 116.327C115.88 116.419 117.137 116.168 118.104 115.452C119.071 114.736 119.698 113.514 119.533 112.322C119.5 112.079 119.449 111.839 119.381 111.604C119.096 110.635 117.765 110.607 117.397 111.55C117.36 111.644 117.315 111.735 117.261 111.821C116.233 113.481 114.839 110.966 113.465 110.817C113.139 110.782 112.643 110.935 112.144 111.258C111.762 111.506 111.394 111.867 111.066 112.184C110.199 113.016 109.206 113.756 108.055 114.098C106.903 114.44 105.572 114.331 104.622 113.599C104.114 113.208 103.738 112.663 103.217 112.288C101.969 111.391 99.9824 111.82 99.2153 113.152C98.8719 113.75 98.7273 114.506 97.9865 114.767C97.215 115.038 96.4279 114.563 96.2484 113.764C96.1658 113.395 96.2292 112.854 96.3353 112.335C96.3568 112.238 96.3454 112.136 96.3028 112.045C96.2602 111.955 96.1889 111.881 96.0999 111.835C96.0109 111.789 95.9093 111.774 95.8109 111.792C95.7125 111.811 95.6229 111.861 95.556 111.935Z" fill="#D177B8"/>
</g>
<path d="M102.646 114.865C102.342 114.758 102.024 114.696 101.701 114.682C101.309 114.653 100.878 114.678 100.524 114.851C100.17 115.023 99.9299 115.492 100.14 115.824C100.303 116.082 100.644 116.147 100.946 116.189L104.314 116.658C104.415 116.672 104.798 116.627 104.512 116.231C104.512 116.229 103.901 115.369 102.646 114.865Z" fill="black"/>
<path d="M114.435 113.645C114.113 113.628 113.79 113.66 113.478 113.739C113.094 113.824 112.688 113.972 112.398 114.238C112.108 114.505 112.012 115.022 112.309 115.28C112.539 115.48 112.884 115.446 113.185 115.4L116.547 114.886C116.648 114.87 117.002 114.717 116.614 114.418C116.614 114.418 115.779 113.769 114.435 113.645Z" fill="black"/>
<path d="M147.496 85.0793C140.481 83.0303 133.165 82.2109 125.87 82.6573C123.191 82.8226 120.515 83.1602 117.914 83.8263C115.876 84.3491 113.893 85.0707 111.86 85.6277C107.153 86.9163 102.246 87.3068 97.395 86.7789C97.395 86.7789 89.7731 85.5636 82.7481 85.3877C79.6331 85.3093 77.2966 85.5188 74.4908 86.8743C73.2598 87.4691 71.6308 89.3675 70.7346 90.3961C68.9075 92.5031 68.4274 95.8162 68.2351 98.5992C67.9786 102.271 68.1916 105.865 70.1527 108.98C71.6956 111.432 73.673 113.206 76.4618 113.99C79.2505 114.774 82.2053 114.773 85.0881 114.483C89.1619 114.075 93.4893 112.923 96.0643 109.739C97.3857 108.105 98.118 106.086 98.8268 104.107C100.251 100.126 101.699 95.8333 100.59 91.7516C100.429 91.1583 100.234 90.4652 100.605 89.9772C100.786 89.7422 101.066 89.6097 101.341 89.4978C103.059 88.7996 104.935 88.5833 106.767 88.8724C107.233 88.9436 107.71 89.0605 108.083 89.3497C108.901 89.9851 108.933 91.1789 108.995 92.2118C109.209 95.7086 110.575 99.0174 111.924 102.251C112.368 103.313 112.816 104.388 113.446 105.349C115.583 108.626 119.56 110.264 123.437 110.801C126.82 111.266 130.261 111.036 133.552 110.125C135.715 109.526 136.716 108.701 138.116 106.946C140.149 104.395 141.059 102.353 141.678 97.7117C142.084 94.6537 142.143 91.2957 144.868 89.8497C145.489 89.5206 146.222 89.2799 146.582 88.6794C147.24 87.5681 146.356 85.6854 147.496 85.0793ZM98.175 93.9684C98.1327 95.5863 98.0912 97.2038 98.0503 98.8208C98.0047 100.592 97.957 102.375 97.5802 104.106C97.2034 105.837 96.4718 107.531 95.2295 108.791C94.6254 109.4 93.3062 110.682 92.5732 111.132C89.3848 113.092 86.3197 113.461 82.5835 113.681C79.7456 113.848 76.7161 113.411 74.5143 111.615C71.6849 109.305 70.8764 105.359 70.5437 101.721C70.3243 99.3208 70.2346 96.8733 70.7852 94.5269C71.3358 92.1805 72.5938 89.9202 74.6019 88.586C74.6019 88.586 75.0784 88.2947 75.2301 88.2256C79.8453 86.1342 85.2134 87.4898 90.2717 87.7918C91.8637 87.8865 93.4864 88.0311 94.951 88.6637C96.4155 89.2962 97.7177 90.5029 98.0695 92.0586C98.2092 92.6819 98.1935 93.3287 98.1771 93.9684H98.175ZM139.815 100.476C139.199 102.268 138.633 104.108 137.486 105.615C137.013 106.237 136.1 106.968 135.492 107.454C134.494 108.255 133.278 108.703 132.048 109.058C127.977 110.234 123.448 110.042 119.62 108.225C118.694 107.785 117.807 107.228 117.084 106.502C116.531 105.944 116.08 105.291 115.664 104.626C113.078 100.48 111.273 98.2203 111.822 90.6361C112.017 87.9571 115.62 86.796 118.155 85.9077C120.69 85.0194 123.393 84.7373 126.07 84.5222C129.961 84.2081 134.058 84.0585 137.566 85.7688C137.806 85.8863 138.05 86.0188 138.207 86.2346C138.3 86.3759 138.372 86.53 138.421 86.692C138.807 87.7842 139.165 88.8855 139.496 89.9957C140.029 91.7851 140.494 93.613 140.565 95.4807C140.624 97.1774 140.37 98.8705 139.817 100.476H139.815Z" fill="black"/>
<path d="M276 265.25C270.837 258.952 263.649 252.58 257.429 244.921C248.172 233.524 239.964 220.308 232.955 210.412C228.937 204.738 224.714 197.773 219.222 193.509C212.74 188.477 205.04 182.55 197.242 179.998C187.921 176.948 178.365 173.862 168.562 174.179C148.118 174.839 130.884 189.935 110.814 193.9C97.9257 196.445 84.135 194.113 72.799 187.478L70.7118 187.657C53.5903 187.65 37.684 195.891 22.5648 203.926C20.3566 205.1 18.1185 206.296 16 207.65V275.036H276V265.25Z" fill="white"/>
<path d="M276 263.752C264.92 246.397 247.391 229.197 234.638 211.884C227.043 201.573 219.242 191.059 208.67 183.833C202.971 179.937 196.606 177.102 190.862 173.276C177.996 164.711 168.587 151.101 165.12 136.039C163.106 127.286 163.013 118.088 160 109.624C157.109 101.503 151.545 94.0131 151.559 85.3953C151.564 82.0367 152.44 78.7151 152.343 75.3579C152.223 71.3204 150.694 67.4396 148.697 63.9278C142.576 53.1617 132.278 45.5191 122.179 38.3495C113.078 31.8887 103.068 25.2812 91.9086 25.4892C80.0277 25.7107 69.8371 33.5705 60.6124 41.0607C51.9291 48.1063 42.7187 55.9804 40.2626 66.8854C38.9527 72.703 39.722 78.9238 37.7638 84.5562C35.9986 89.6365 32.1848 93.7374 29.8797 98.5976C27.8603 102.855 27.0561 107.568 26.135 112.19C23.6976 124.406 20.309 136.412 16 148.1L16 218.95C19.6711 216.98 23.5467 215.418 27.5575 214.292L22.4736 215.991C37.0222 223.577 56.238 220.936 68.1987 209.705C67.896 224.793 53.6416 238.161 38.5659 237.495C43.3029 242.282 52.0232 244.891 58.1805 242.163C63.3036 239.893 72.4164 231.834 75.0834 226.904C86.0533 206.632 86.943 182.106 83.6513 159.294C81.4381 143.959 69.7737 135.984 68.6411 120.533C67.9779 111.466 71.5837 94.756 72.0695 85.515C72.3545 80.1383 72.4677 77.7506 72.1158 72.4665C71.9021 69.2974 71.7597 63.6636 73.4173 61.3542C78.0716 54.8599 90.2368 46.9951 101.442 49.8202C101.442 49.8202 104.659 50.1343 111.466 49.8992C118.274 49.6642 123.031 54.7994 127.492 57.8481C131.952 60.8969 136.852 73.2836 137.791 77.0397C138.73 80.7958 140.11 87.2224 141.282 93.5607C142.453 99.899 142.97 101.19 144.304 108.995C145.127 113.812 145.507 115.393 141.282 144.268C137.056 173.143 134.532 180.82 134.532 180.82C129.674 188.484 128.746 198.502 132.11 206.929C133.249 209.789 134.88 212.572 134.988 215.65C135.088 218.493 133.155 221.064 133.022 223.902C132.475 235.573 133.838 237.958 135.586 244.394C136.641 248.272 142.589 255.847 144.389 259.184C146.74 263.539 144.507 269.148 147.999 274.589C147.816 274.729 147.64 274.879 147.472 275.037H223.976C222.789 269.429 221.54 263.834 220.23 258.254C216.37 241.816 211.646 224.889 200.636 212.089C222.081 223.49 243.837 235.728 259.348 254.419C264.734 260.909 269.594 268.343 276.002 273.58L276 263.752Z" fill="#781ED1"/>
</g>
<defs>
<filter id="filter0_b_1170_2608" x="-19.5" y="-20" width="330" height="330" filterUnits="userSpaceOnUse" color-interpolation-filters="sRGB">
<feFlood flood-opacity="0" result="BackgroundImageFix"/>
<feGaussianBlur in="BackgroundImageFix" stdDeviation="10"/>
<feComposite in2="SourceAlpha" operator="in" result="effect1_backgroundBlur_1170_2608"/>
<feBlend mode="normal" in="SourceGraphic" in2="effect1_backgroundBlur_1170_2608" result="shape"/>
</filter>
<linearGradient id="paint0_linear_1170_2608" x1="122.195" y1="95.6718" x2="124.171" y2="87.3437" gradientUnits="userSpaceOnUse">
<stop stop-color="#EEE2FF"/>
<stop offset="1" stop-color="#BDC9FB"/>
</linearGradient>
<linearGradient id="paint1_linear_1170_2608" x1="122.152" y1="95.3407" x2="124.105" y2="87.1051" gradientUnits="userSpaceOnUse">
<stop stop-color="#471F4B"/>
<stop offset="1" stop-color="#310A39"/>
</linearGradient>
<linearGradient id="paint2_linear_1170_2608" x1="122.194" y1="95.1166" x2="124.034" y2="87.3638" gradientUnits="userSpaceOnUse">
<stop stop-color="#57335B"/>
<stop offset="1" stop-color="#310A39"/>
</linearGradient>
<linearGradient id="paint3_linear_1170_2608" x1="122.506" y1="93.7547" x2="123.7" y2="88.7244" gradientUnits="userSpaceOnUse">
<stop stop-color="#A79ABD"/>
<stop offset="0.99" stop-color="#724A60"/>
</linearGradient>
<linearGradient id="paint4_linear_1170_2608" x1="85.0776" y1="100.484" x2="82.1731" y2="91.8612" gradientUnits="userSpaceOnUse">
<stop stop-color="#EEE2FF"/>
<stop offset="1" stop-color="#BDC9FB"/>
</linearGradient>
<linearGradient id="paint5_linear_1170_2608" x1="86.0154" y1="99.9151" x2="83.1004" y2="91.4539" gradientUnits="userSpaceOnUse">
<stop stop-color="#471F4B"/>
<stop offset="1" stop-color="#310A39"/>
</linearGradient>
<linearGradient id="paint6_linear_1170_2608" x1="85.0917" y1="100.254" x2="82.3622" y2="92.2312" gradientUnits="userSpaceOnUse">
<stop stop-color="#57335B"/>
<stop offset="1" stop-color="#310A39"/>
</linearGradient>
<linearGradient id="paint7_linear_1170_2608" x1="84.5605" y1="98.4815" x2="82.806" y2="93.2728" gradientUnits="userSpaceOnUse">
<stop stop-color="#A79ABD"/>
<stop offset="0.99" stop-color="#724A60"/>
</linearGradient>
</defs>
</svg>
