<svg width="250" height="250" viewBox="0 0 250 250" fill="none" xmlns="http://www.w3.org/2000/svg">
<path d="M101.421 242.113C99.0568 233.491 92.8721 226.411 86.0518 220.633C78.5139 214.253 69.5411 209.063 60.0898 206.219C69.0801 225.51 83.803 241.591 102.069 252.272C102.539 248.877 102.318 245.422 101.421 242.113Z" fill="#781ED1"/>
<path d="M205.801 253.029H251.987V203.172C243.291 225.979 226.814 241.148 205.801 253.029Z" fill="#FA9101"/>
<path d="M102.068 252.27C102.538 248.875 102.317 245.421 101.42 242.113C99.0561 233.491 92.8714 226.411 86.0511 220.633C78.5139 214.253 69.5411 209.063 60.0898 206.219C69.0801 225.508 83.803 241.589 102.068 252.27Z" fill="#FA9101"/>
<path d="M248.873 58.4501C240.915 56.8343 231.776 56.0365 226.781 49.6331C222.577 44.2421 222.737 36.4129 218.652 30.9303C212.393 22.5318 199.79 23.3701 189.451 25.0573L152.836 31.033C149.383 31.5968 145.834 32.1592 142.409 31.4403C138.985 30.7215 135.661 28.4231 134.77 25.0384C133.494 20.1922 137.418 15.6437 141.142 12.2904C146.818 7.18619 152.796 2.42719 159.043 -1.96094L88.8472 -1.96094C86.5938 0.467098 84.5914 3.11659 82.8707 5.94717C80.4005 10.0214 78.5031 14.4246 75.9776 18.4653C71.4707 25.6493 65.1114 31.4862 57.5682 35.3622C46.6003 40.9769 33.6497 42.1666 23.1421 48.6062C13.6266 54.4388 6.88932 64.3176 3.98945 75.0942C1.08958 85.8707 1.86432 97.4625 5.22876 108.104C8.32424 117.895 13.5225 126.916 16.6578 136.694C19.7931 146.472 20.623 157.757 15.2515 166.508C12.506 170.979 8.36336 174.423 4.02438 177.377C1.83149 178.871 -0.52278 180.284 -3 181.211V253.027H21.0485C16.6718 245.662 14.3377 237.116 14.905 228.546C15.3682 221.535 17.8223 214.266 23.3105 209.878C25.8758 207.827 28.9615 206.516 32.1128 205.593C41.3049 202.899 50.9225 203.458 60.0895 206.221C53.865 192.864 50.3888 177.968 50.3888 162.26C50.3888 104.711 97.041 58.0589 154.59 58.0589C199.065 58.0589 237.031 85.9217 251.987 125.144V59.148C250.954 58.8961 249.916 58.6634 248.873 58.4501Z" fill="#150DCE"/>
<path d="M15.2515 166.51C20.623 157.758 19.7924 146.473 16.6578 136.696C13.5232 126.918 8.32424 117.896 5.22876 108.106C1.86432 97.4639 1.08958 85.8735 3.98945 75.0942C6.88932 64.3148 13.6266 54.4388 23.1408 48.6062C33.6483 42.1666 46.5961 40.9769 57.5682 35.3622C65.1119 31.4864 71.4717 25.6495 75.979 18.4653C78.5045 14.4246 80.4018 10.0214 82.8721 5.94717C84.5924 3.11665 86.5943 0.467163 88.8472 -1.96094H-3V181.211C-0.52278 180.281 1.83149 178.868 4.02438 177.376C8.36336 174.425 12.5088 170.983 15.2515 166.51Z" fill="#00007E"/>
<path d="M60.0898 206.219C50.9228 203.458 41.3052 202.9 32.1131 205.59C28.961 206.513 25.8753 207.825 23.3108 209.875C17.8226 214.263 15.3685 221.532 14.9053 228.543C14.338 237.113 16.672 245.658 21.0487 253.024H101.953C101.996 252.773 102.035 252.521 102.069 252.269C83.8029 241.589 69.08 225.508 60.0898 206.219Z" fill="#66C3CD"/>
<path d="M154.591 58.0547C97.0419 58.0547 50.3896 104.707 50.3896 162.256C50.3896 177.964 53.8659 192.86 60.0903 206.217C69.5416 209.063 78.5144 214.251 86.0502 220.633C92.8727 226.411 99.0573 233.491 101.419 242.114C102.317 245.421 102.538 248.876 102.069 252.271C102.503 252.525 102.94 252.776 103.38 253.025H205.801C226.814 241.145 243.291 225.975 251.987 203.168V125.139C237.032 85.921 199.065 58.0547 154.591 58.0547Z" fill="#66C3CD"/>
<path d="M134.77 25.0384C135.661 28.4231 138.985 30.7208 142.409 31.4403C145.834 32.1599 149.383 31.5968 152.836 31.033L189.45 25.0573C199.789 23.3701 212.393 22.5318 218.651 30.9303C222.737 36.4129 222.574 44.2421 226.78 49.6331C231.776 56.0365 240.914 56.8343 248.873 58.4501C249.915 58.6616 250.953 58.8944 251.987 59.1487V-1.96094H159.043C152.796 2.42719 146.819 7.18619 141.142 12.2904C137.418 15.6437 133.495 20.1922 134.77 25.0384Z" fill="#00007E"/>
<path d="M251.987 253.034V203.168C248.811 200.884 245.225 199.068 241.712 197.311L202.096 177.5C190.028 171.464 177.814 165.376 164.657 162.38C131.52 154.835 97.5069 167.674 65.9974 180.41C58.3129 183.517 50.63 186.631 42.9487 189.753C39.3111 191.231 35.5715 192.778 32.7813 195.54C29.82 198.475 28.6016 210.45 27.1534 214.358C23.8065 223.388 19.1894 232.653 16.8198 241.985C15.8872 245.661 15.6022 249.348 15.3018 253.034H251.987Z" fill="black"/>
<path d="M212.494 253.037C213.438 247.891 214.148 242.712 214.403 237.487C214.543 234.615 214.488 231.533 212.859 229.164C210.28 225.415 205.034 224.996 200.871 223.156C191.249 218.895 187.877 207.28 184.61 197.277C172.504 203.258 156.353 212.43 150.239 219.353C151.201 217.42 149.261 212.562 147.787 210.988C146.313 209.413 144.339 208.417 142.581 207.164C136.01 202.48 131.656 193.799 123.654 192.75L123.175 193.099C112.517 200.162 107.22 212.758 105.278 225.396C103.869 234.571 104.592 243.909 106.444 253.04L212.494 253.037Z" fill="#E5E5E5"/>
<path d="M122.512 94.0995C128.639 82.9548 134.784 72.3229 140.912 61.1775C141.599 59.927 141.512 56.7253 142.658 55.8737C143.959 54.9069 155.009 53.7654 156.615 53.5523C164.822 52.4632 168.05 53.9715 173.393 55.3798C181.542 57.5245 194.08 63.7811 197.129 72.93C197.59 74.3132 198.234 78.3923 198.236 79.8502C198.25 88.8027 198.451 96.2903 198.465 105.243C200.999 105.014 202.447 102.821 204.907 103.47C206.444 103.878 207.034 105.817 206.817 107.395C206.601 108.973 206.895 110.422 206.86 112.015C206.833 113.353 206.819 114.719 206.86 116.057C207.051 121.684 199.555 125.059 198.338 130.556C198.075 131.744 198.092 132.996 197.639 134.123C196.539 136.875 192.409 137.768 190.27 135.718C187.692 138.55 186.226 142.526 183.648 145.359C181.457 147.767 177.509 150.842 174.275 152.205C165.103 156.06 156.371 156.423 146.716 154.017C142.954 153.08 139.222 151.836 135.941 149.771C130.213 146.167 128.257 143.188 125.42 137.044C125.132 136.423 123.813 130.472 123.681 129.545C123.311 126.992 123.1 125.129 122.912 123.182C122.391 125.048 120.39 126.376 118.468 126.131C116.545 125.886 114.942 124.099 114.905 122.162C114.891 121.45 115.064 120.742 115.038 120.03C114.969 118.201 113.65 116.706 112.693 115.147C108.651 108.567 110.897 100.025 113.899 92.9098C114.384 91.7599 115.199 90.4165 116.443 90.5213C117.026 90.5709 117.522 90.946 117.98 91.3072C119.333 92.3684 120.668 92.914 122.021 93.9765L122.512 94.0995Z" fill="#FA9101"/>
<path d="M136.116 124.212C139.618 121.711 143.521 120.697 147.804 120.3C149.595 120.133 151.837 119.864 153.628 120.042C156.202 120.299 158.889 121.838 161.462 121.571C162.374 121.477 163.278 121.23 164.192 121.266C165.127 121.302 166.022 121.63 166.9 121.955C169.246 122.823 171.621 123.705 173.68 125.127C175.74 126.549 176.894 128.801 178.017 131.037C178.876 132.742 180.612 132.6 180.745 132.135C181.24 130.407 181.631 128.607 181.43 126.821C181.228 125.035 180.19 123.86 178.641 122.948C177.375 122.203 175.99 121.505 174.523 121.56C173.631 121.593 172.777 120.996 171.705 120.512C170.126 119.796 169.264 119.106 167.746 118.271C164.98 116.751 161.462 118.627 158.417 117.801C157.169 117.464 156.035 116.677 154.745 116.607C153.646 116.547 152.598 117.016 151.565 117.396C149.678 118.091 148.686 118.181 146.679 118.31C145.824 118.364 144.278 118.469 143.493 118.122C143.034 117.919 142.289 117.831 141.832 117.623C140.672 117.094 139.27 117.303 138.164 117.937C137.058 118.571 136.214 119.581 135.532 120.657C135.166 121.236 134.833 121.863 134.785 122.543C134.737 123.224 135.051 123.973 135.676 124.252L136.116 124.212Z" fill="black"/>
<path d="M153.77 111.348C154.029 111.635 153.905 112.168 153.545 112.31C153.32 112.4 153.065 112.347 152.834 112.278C151.893 111.999 150.934 111.347 150.808 110.374C150.777 110.13 150.808 109.866 150.959 109.675C151.186 109.382 151.601 109.334 151.971 109.309L154.293 109.153C155.734 109.056 157.252 108.972 158.55 109.606C159.66 110.147 160.512 111.173 161.69 111.541C162.844 111.902 164.098 111.564 165.215 111.1C166.332 110.636 166.826 110.472 168.023 110.298C168.481 110.228 169.475 110.131 169.897 110.321C170.352 110.525 170.763 110.589 171.077 110.976C171.504 111.501 171.941 112.042 172.156 112.685C172.382 113.359 172.331 114.142 171.932 114.73C171.532 115.317 170.758 115.657 170.076 115.46C169.69 115.349 169.323 115.001 169.383 114.604C169.42 114.363 169.603 114.166 169.653 113.928C169.732 113.548 169.438 113.17 169.081 113.019C168.725 112.868 168.321 112.889 167.934 112.911C167.269 112.951 166.588 112.994 165.975 113.254C164.927 113.7 164.175 114.737 163.072 115.025C162.154 115.265 161.194 114.931 160.304 114.602C160.153 114.557 160.013 114.484 159.891 114.386C159.742 114.251 159.669 114.053 159.59 113.868C159.28 113.156 158.807 112.527 158.209 112.031C157.611 111.536 156.904 111.188 156.147 111.015C155.616 110.907 155.074 110.869 154.533 110.903C153.493 110.95 153.77 111.348 153.77 111.348Z" fill="#A63344"/>
<path d="M141.701 125.052C142.994 125.205 144.35 125.143 145.651 125.122C148.248 125.086 150.791 124.368 153.382 124.187C156.862 123.943 160.329 124.67 163.743 125.393C167.008 126.084 170.404 126.835 173.017 128.913C173.429 129.239 173.817 129.597 174.257 129.884C175.111 130.443 176.303 130.757 177.319 130.669C176.998 129.062 175.596 127.773 174.373 126.683C173.55 125.949 172.708 125.231 171.781 124.637C170.561 123.856 169.213 123.3 167.873 122.751C166.55 122.207 165.193 121.655 163.764 121.608C162.913 121.579 162.068 121.731 161.219 121.757C157.935 121.859 154.784 120.094 151.508 120.326C149.363 120.478 147.386 121.471 145.42 122.347C143.455 123.222 141.255 124.626 139.124 124.336L141.701 125.052Z" fill="#FB2D33"/>
<path d="M123.359 127.133C123.499 130.8 123.213 134.435 122.966 138.02C122.796 140.507 122.321 143.736 122.017 146.21C121.716 148.666 121.328 150.397 120.864 152.829C119.353 160.742 121.004 169.455 124.242 176.832C126.035 180.914 128.517 184.72 129.72 189.013C130.209 190.748 130.482 192.559 131.257 194.183C133.229 198.304 137.897 200.33 140.933 203.742C145.098 208.422 145.812 215.224 148.996 220.622C149.362 221.243 149.795 221.876 150.45 222.176C151.346 222.586 151.568 219.017 151.624 218.033C151.668 217.282 157.997 210.725 163.594 208.807C165.02 208.318 173.855 204.137 175.121 203.324C178.335 201.265 179.33 202.485 179.846 198.703C180.362 194.92 179.706 197.101 179.597 193.288C179.42 186.919 180.235 180.562 182.014 174.445C182.547 172.614 183.168 170.795 183.402 168.903C183.795 165.726 182.592 162.511 182.939 159.328C183.744 151.961 184.799 146.386 186.914 140.176C183.316 146.364 177.403 151.169 170.61 153.427C163.817 155.684 156.21 155.372 149.622 152.571C147.257 151.563 145.033 150.253 142.846 148.895C139.408 146.76 136.024 144.481 133.136 141.647C129.061 137.647 123.359 127.133 123.359 127.133Z" fill="#FA9101"/>
<path d="M123.376 127.648C125.452 134.161 128.965 142.132 132.318 148.088C134.763 152.427 137.379 156.951 141.623 159.555C145.423 161.887 152.503 163.607 156.952 163.328C162.684 162.965 166.173 161.398 171.187 158.158C172.584 157.257 176.797 153.051 177.517 152.103C178.06 151.39 181.811 145.56 186.452 141.39C185.093 149.463 178.358 159.951 176.249 162.903C173.706 166.466 168.843 171.27 165.177 173.661C161.511 176.053 156.435 176.316 152.085 175.847C150.146 175.638 149.7 175.079 147.754 175.19C146.896 175.239 144.58 175.407 143.722 175.38C135.967 175.138 133.901 171.18 131.857 168.495C130.081 166.161 127.875 159.312 127.094 157.346C126.482 155.801 126.208 154.146 125.961 152.504C124.8 144.808 123.553 136.452 123.352 128.672L123.376 127.648Z" fill="#E27615"/>
<path d="M123.968 130.971C126.064 136.965 129.2 142.551 132.32 148.09C134.765 152.429 137.381 156.953 141.625 159.558C145.425 161.89 152.505 163.61 156.954 163.33C162.686 162.967 166.176 161.4 171.19 158.161C172.587 157.259 176.799 153.054 177.52 152.106C178.039 151.423 181.495 146.059 185.856 141.944C186.784 140.626 187.754 139.339 188.768 138.085C187.433 139.454 185.947 140.633 184.176 141.322C182.737 141.881 181.187 142.08 179.698 142.487C176.196 143.445 173.121 145.522 169.815 147.023C167.764 147.953 165.414 148.667 163.291 147.915C161.168 147.163 159.728 144.352 161.077 142.55C162.375 140.821 165.078 141.13 166.932 140.018C160.736 137.632 154.085 136.659 147.465 137.171L151.537 141.123C152.049 141.62 152.585 142.161 152.729 142.859C152.978 144.072 151.961 145.16 150.954 145.879C150.042 146.532 149.01 147.104 147.889 147.145C146.336 147.202 144.92 146.226 143.882 145.068C142.845 143.911 142.059 142.541 140.987 141.415C139.281 139.619 136.97 138.551 134.814 137.334C132.403 135.968 130.133 134.365 128.038 132.551C126.863 131.533 125.726 130.424 124.995 129.052C123.611 126.454 123.841 123.223 122.439 120.633C122.441 120.634 123.394 128.637 123.968 130.971Z" fill="black"/>
<g opacity="0.2">
<path d="M188.769 138.083C189.768 137.059 190.683 135.93 191.572 134.82C190.605 135.88 189.671 136.968 188.769 138.083Z" fill="black"/>
</g>
<path d="M167.882 114.783C167.882 114.783 170.683 114.752 169.762 113.106C168.841 111.461 165.403 112.07 163.831 114.161L166.098 113.918C166.098 113.918 166.38 114.745 167.882 114.783Z" fill="black"/>
<path d="M155.331 112.949C155.331 112.949 152.724 112.28 153.961 110.952C155.197 109.624 158.265 110.982 159.255 113.292L157.195 112.548C157.195 112.548 156.743 113.258 155.331 112.949Z" fill="black"/>
<g opacity="0.75">
<path d="M144.333 127.125C145.481 127.614 146.629 128.522 147.563 128.464C149.085 128.367 150.611 128.27 152.132 128.357C154.641 128.496 157.092 129.135 159.573 129.534C162.242 129.965 164.958 130.124 167.584 130.764C169.225 131.163 171.027 131.87 172.648 131.397C170.552 132.762 168.001 133.38 165.517 133.662C163.033 133.945 160.517 133.788 158.036 133.47C156.911 133.326 155.786 133.148 154.688 132.865C153.765 132.626 152.864 132.314 151.963 132.002L149.616 131.189C147.819 130.565 144.333 127.125 144.333 127.125Z" fill="white"/>
<path d="M144.263 127.257C145.055 127.6 145.771 128.095 146.572 128.416C146.895 128.557 147.246 128.624 147.598 128.614C148.105 128.584 148.612 128.55 149.12 128.525C150.134 128.466 151.151 128.461 152.165 128.511C153.141 128.574 154.113 128.691 155.076 128.86C157.01 129.188 158.923 129.612 160.868 129.874C162.812 130.136 164.771 130.32 166.696 130.717C167.613 130.906 168.507 131.177 169.415 131.401C170.273 131.611 171.171 131.78 172.056 131.67C172.272 131.644 172.485 131.601 172.693 131.542L172.578 131.269C170.687 132.495 168.472 133.104 166.259 133.42C163.769 133.776 161.253 133.694 158.759 133.409C157.507 133.269 156.253 133.09 155.026 132.794C153.799 132.499 152.612 132.068 151.422 131.655C150.825 131.446 150.224 131.25 149.63 131.034C149.36 130.93 149.1 130.801 148.854 130.649C148.218 130.257 147.611 129.82 147.038 129.341C146.154 128.622 145.304 127.859 144.488 127.062L144.445 127.02C144.305 126.885 144.096 127.096 144.235 127.23C144.939 127.924 145.677 128.588 146.433 129.224C147.026 129.733 147.648 130.207 148.295 130.646C148.569 130.832 148.856 131 149.152 131.149C149.563 131.35 150.007 131.479 150.438 131.628C151.653 132.047 152.863 132.497 154.099 132.855C155.319 133.208 156.569 133.424 157.827 133.591C160.374 133.928 162.963 134.102 165.525 133.811C167.768 133.557 170.029 133.047 172.022 131.951C172.264 131.817 172.5 131.675 172.732 131.525C172.872 131.435 172.785 131.204 172.617 131.252C171.758 131.497 170.859 131.41 169.997 131.227C169.102 131.038 168.231 130.754 167.342 130.55C165.46 130.117 163.534 129.915 161.62 129.671C160.646 129.548 159.675 129.407 158.709 129.233C157.758 129.061 156.811 128.868 155.861 128.694C154.911 128.52 153.969 128.369 153.014 128.275C152.022 128.182 151.024 128.152 150.028 128.186C149.529 128.2 149.031 128.225 148.533 128.256C148.28 128.271 148.026 128.287 147.772 128.303C147.59 128.323 147.407 128.32 147.226 128.295C146.85 128.229 146.496 128.067 146.157 127.895C145.765 127.696 145.384 127.476 144.993 127.272C144.805 127.174 144.615 127.082 144.42 126.997C144.237 126.924 144.085 127.181 144.263 127.257Z" fill="white"/>
</g>
<path d="M173.474 87.6955C173.315 88.1258 173.215 88.6686 173.538 88.9942C173.782 89.2387 174.167 89.2526 174.513 89.2505C177.431 89.2359 179.572 89.6089 180.547 89.8374C181.277 90.0078 184.767 90.4458 185.433 90.7896C186.614 91.398 187.704 91.7334 188.887 92.339C190.055 92.937 191.873 93.8655 192.009 95.343C192.091 96.2407 191.965 97.181 192.47 97.9278C192.979 97.0249 193.271 96.0155 193.321 94.9801C193.372 93.9446 193.18 92.9116 192.762 91.9632C191.84 89.9261 189.917 88.48 187.839 87.655C185.762 86.8299 183.514 86.5505 181.296 86.278C179.008 85.9986 177.307 85.4397 175.092 86.0685C174.393 86.2682 173.758 86.9256 173.474 87.6955Z" fill="#4E1B3D"/>
<path d="M152.747 85.0231C154.09 85.7916 155.419 85.4709 156.769 85.4227C157.345 85.4024 158.057 85.2383 158.187 84.6766C158.293 84.2211 157.934 83.802 157.604 83.4708C156.775 82.6416 155.927 81.7984 154.879 81.2717C153.928 80.7938 152.862 80.6031 151.812 80.427C149.128 79.9772 146.396 79.5887 143.694 79.9031C140.389 80.2957 137.291 81.7176 134.839 83.9675C137.388 83.8676 139.077 83.5561 141.595 83.1509C144.796 82.636 148.883 82.5319 151.602 84.2987C152.087 84.6144 151.87 84.4859 152.349 84.8107L152.747 85.0231Z" fill="#4E1B3D"/>
<g opacity="0.75">
<path d="M141.7 125.046C148.387 123.09 158.305 123.266 165.097 124.823C166.573 125.162 168.405 126.151 169.877 126.51C170.786 126.732 171.532 127.214 172.361 127.645C173.891 128.441 174.585 129.345 175.998 130.137L177.015 130.68C175.221 131.309 172.018 131.117 170.151 130.75C169.877 130.696 169.539 130.549 169.558 130.27C169.477 130.453 169.336 130.604 169.159 130.698C168.983 130.792 168.779 130.824 168.582 130.789C168.385 130.755 168.205 130.655 168.071 130.506C167.937 130.357 167.856 130.168 167.842 129.968C167.727 130.12 167.66 130.303 167.648 130.494C166.946 130.433 166.24 130.481 165.552 130.634C165.44 130.531 165.356 130.401 165.31 130.256C165.264 130.111 165.257 129.957 165.29 129.808C165.29 130.063 164.952 130.151 164.697 130.151C163.928 130.149 163.161 130.076 162.405 129.931L162.275 129.177C162.268 129.387 162.179 129.841 162.172 130.054C160.87 130.093 159.649 129.84 158.348 129.774C158.184 129.765 158.013 129.754 157.868 129.674C157.422 129.428 157.511 128.771 157.659 128.286C157.496 128.557 157.412 128.87 157.419 129.187L155.026 129.257C154.683 129.266 154.308 129.266 154.039 129.053C153.769 128.84 153.72 128.643 153.698 127.996C153.469 128.848 152.502 128.584 151.861 128.153C151.599 127.977 151.349 127.729 151.034 127.734C150.747 127.734 150.507 127.943 150.233 128.03C149.959 128.116 149.658 128.07 149.374 128.017C147.461 127.663 145.619 127.003 143.917 126.061" fill="white"/>
</g>
<path d="M140.812 124.799C143.886 125.847 145.497 128.462 148.223 130.226C148.862 130.639 149.53 131.027 150.26 131.241C151.133 131.499 152.056 131.499 152.963 131.561C157.067 131.841 161.054 133.425 165.164 133.234C169.309 133.042 173.457 130.458 177.32 130.666C176.815 131.355 176.453 131.998 175.643 132.203C173.797 132.675 172.075 133.6 170.347 134.404C168.902 135.077 168.197 136.247 166.692 136.77C165.041 137.344 164.736 137.546 162.989 137.52C159.254 137.464 153.224 136.412 149.589 135.551C148.332 135.253 147.661 134.266 146.693 133.408C146.142 132.919 145.145 131.591 144.725 130.989C143.016 128.535 140.833 126.782 139.124 124.328L140.812 124.799Z" fill="#FF5663"/>
<path d="M187.857 101.639C187.857 101.639 185.77 103.238 181.91 102.784C178.049 102.33 174.35 100.968 172.508 99.3097C172.508 99.3097 172.937 98.6684 173.79 97.9014C175.269 96.574 178.016 94.8653 181.995 95.4563C187.514 96.2806 187.857 100.432 187.863 101.426C187.857 101.569 187.857 101.639 187.857 101.639Z" fill="url(#paint0_linear_1409_8355)"/>
<path d="M180.285 102.546C183.186 102.546 185.538 100.493 185.538 97.9606C185.538 95.428 183.186 93.375 180.285 93.375C177.384 93.375 175.032 95.428 175.032 97.9606C175.032 100.493 177.384 102.546 180.285 102.546Z" fill="url(#paint1_linear_1409_8355)"/>
<path d="M180.284 102.183C182.954 102.183 185.119 100.293 185.119 97.9624C185.119 95.6316 182.954 93.7422 180.284 93.7422C177.615 93.7422 175.45 95.6316 175.45 97.9624C175.45 100.293 177.615 102.183 180.284 102.183Z" fill="url(#paint2_linear_1409_8355)"/>
<path style="mix-blend-mode:multiply" d="M180.285 100.547C181.921 100.547 183.248 99.3895 183.248 97.9612C183.248 96.5329 181.921 95.375 180.285 95.375C178.649 95.375 177.322 96.5329 177.322 97.9612C177.322 99.3895 178.649 100.547 180.285 100.547Z" fill="url(#paint3_linear_1409_8355)"/>
<g style="mix-blend-mode:multiply" opacity="0.6">
<path d="M187.86 101.428C187.028 100.117 185.241 98.4512 182.168 97.2922C178.369 95.8587 174.049 97.6911 173.79 97.9014C175.268 96.574 178.015 94.8653 181.994 95.4563C187.513 96.2806 187.856 100.432 187.86 101.428Z" fill="#D077B7"/>
</g>
<path d="M174.698 97.1732C174.698 97.1732 176.948 93.2806 181.789 93.3365C187.839 93.4064 187.735 100.273 187.735 100.273C187.735 100.273 184.546 91.8597 174.698 97.1732Z" fill="#DC4C6A"/>
<path d="M174.416 100.602C174.811 100.802 182.101 102.4 186.864 102.178C186.992 102.173 183.79 105.196 180.469 104.703C175.919 104.027 174.416 100.602 174.416 100.602Z" fill="#DC6B7C"/>
<path d="M173.787 97.9062C173.787 97.9062 171.852 98.8801 171.792 99.33C171.731 99.7799 173.512 100.077 173.512 100.077C173.512 100.077 172.821 99.3314 172.953 99.0813C173.086 98.8312 173.787 97.9062 173.787 97.9062Z" fill="#E08A97"/>
<path d="M187.85 101.114C187.85 101.114 188.347 99.1291 188.16 98.4138C187.973 97.6984 185.673 95.4985 182.222 94.7112C178.771 93.9239 175.707 96.1377 174.018 97.7047C174.018 97.7047 178.803 94.5379 183.041 96.2237C187.28 97.9094 187.85 101.114 187.85 101.114Z" fill="#4E1B3D"/>
<path d="M183.813 99.1385C183.603 99.2084 185.674 100.699 185.909 100.529C186.143 100.358 184.288 98.9743 183.813 99.1385Z" fill="white"/>
<path d="M182.267 98.1098C182.1 98.0951 181.885 98.4591 182.079 98.4905C182.273 98.522 182.612 98.6303 182.68 98.4905C182.749 98.3508 182.494 98.1301 182.267 98.1098Z" fill="white"/>
<path d="M136.685 93.3904C136.685 93.3904 138.32 95.4128 142.445 95.8634C146.57 96.314 150.824 95.8495 153.258 94.6758C153.258 94.6758 153.022 93.9584 152.39 93.0222C152.39 93.0222 152.39 93.0222 152.39 93.0187C151.296 91.3959 149.015 89.1178 144.721 88.7741C138.767 88.299 137.073 92.2251 136.748 93.1836C136.703 93.3156 136.685 93.3904 136.685 93.3904Z" fill="url(#paint4_linear_1409_8355)"/>
<path d="M145.676 96.1633C148.776 96.1633 151.289 94.1103 151.289 91.5778C151.289 89.0452 148.776 86.9922 145.676 86.9922C142.576 86.9922 140.062 89.0452 140.062 91.5778C140.062 94.1103 142.576 96.1633 145.676 96.1633Z" fill="url(#paint5_linear_1409_8355)"/>
<path d="M145.676 95.7998C148.529 95.7998 150.842 93.9104 150.842 91.5796C150.842 89.2488 148.529 87.3594 145.676 87.3594C142.823 87.3594 140.51 89.2488 140.51 91.5796C140.51 93.9104 142.823 95.7998 145.676 95.7998Z" fill="url(#paint6_linear_1409_8355)"/>
<path style="mix-blend-mode:multiply" d="M145.676 94.1646C147.424 94.1646 148.842 93.0067 148.842 91.5784C148.842 90.1501 147.424 88.9922 145.676 88.9922C143.927 88.9922 142.51 90.1501 142.51 91.5784C142.51 93.0067 143.927 94.1646 145.676 94.1646Z" fill="url(#paint7_linear_1409_8355)"/>
<g style="mix-blend-mode:multiply" opacity="0.6">
<path d="M136.746 93.1844C138.027 92.1114 140.407 90.9154 143.948 90.5039C148.327 89.9953 152.191 92.7569 152.388 93.0188C151.294 91.396 149.013 89.1179 144.719 88.7742C138.765 88.2984 137.069 92.2259 136.746 93.1844Z" fill="#D077B7"/>
</g>
<path d="M151.687 92.1092C151.687 92.1092 150.624 87.8365 145.616 86.7768C139.357 85.4494 137.248 92.0994 137.248 92.0994C137.248 92.0994 143.252 84.7152 151.687 92.1092Z" fill="#DC4C6A"/>
<path d="M150.871 95.4835C150.399 95.5862 142.372 95.4514 137.531 94.1408C137.4 94.1052 139.45 98.7069 143.03 98.9947C147.938 99.3901 150.871 95.4835 150.871 95.4835Z" fill="#DC6B7C"/>
<path d="M152.39 93.0234C152.39 93.0234 154.071 94.4081 153.987 94.8559C153.904 95.3037 151.973 95.18 151.973 95.18C151.973 95.18 152.927 94.6211 152.87 94.3487C152.812 94.0762 152.39 93.0234 152.39 93.0234Z" fill="#E08A97"/>
<path d="M136.858 92.8824C136.858 92.8824 136.986 90.8522 137.41 90.2053C137.833 89.5584 140.914 87.9656 144.728 88.0006C148.542 88.0355 150.983 90.876 152.219 92.7762C152.219 92.7762 148.307 88.6202 143.395 89.2713C138.483 89.9224 136.858 92.8824 136.858 92.8824Z" fill="#4E1B3D"/>
<path d="M141.657 91.9082C141.853 92.0283 139.235 92.9854 139.051 92.7681C138.867 92.5509 141.22 91.6406 141.657 91.9082Z" fill="white"/>
<path d="M143.581 91.2618C143.758 91.2856 143.86 91.6887 143.651 91.6726C143.441 91.6565 143.056 91.6852 143.03 91.5371C143.004 91.389 143.343 91.2304 143.581 91.2618Z" fill="white"/>
<path d="M122.512 94.0926C127.134 84.0384 133.582 76.7897 138.708 65.1567C140.105 61.99 142.61 59.3276 142.658 55.8654C150.944 54.3704 159.44 52.8754 167.731 54.3425C175.905 55.7907 183.306 60.0304 190.171 64.6991C192.654 66.3891 195.306 68.4827 195.697 71.4616C195.786 72.1427 195.747 72.8336 195.762 73.521C195.844 77.4646 198.509 81.0784 198.416 85.022C198.311 89.3484 198.338 91.4617 198.467 94.9924C198.582 98.157 198.238 102.11 198.467 105.232C202.864 99.8616 203.762 92.3356 204.73 85.4614C204.982 83.6702 205.225 81.7833 204.558 80.1025C206.017 79.3424 205.493 77.1998 205.466 75.5546C205.438 73.7061 206.324 71.9799 206.72 70.1754C207.592 66.1934 206.039 62.0913 204.122 58.4956C203.868 58.0206 203.599 57.4959 203.711 56.9685C203.799 56.5493 204.115 56.2112 204.216 55.7969C204.321 55.3687 204.185 54.9209 204.038 54.5045C203.035 51.6628 201.489 49.0432 199.486 46.7913C198.927 46.1626 197.997 45.5206 197.32 46.0229C196.545 45.0169 195.504 44.2533 194.479 43.5045C192.049 41.7286 189.333 39.8662 186.333 40.1009C185.751 40.1463 185.156 40.2707 184.592 40.1233C184.027 39.9759 183.506 39.4288 183.643 38.8616L184.82 38.3621C183.961 38.5867 183.06 38.5947 182.198 38.3853C181.336 38.176 180.539 37.7558 179.879 37.1626C178.795 36.4815 177.283 37.6516 176.129 37.0927C175.664 36.8685 175.366 36.4081 174.989 36.0553C173.801 34.9411 171.967 34.9858 170.34 35.0983L162.91 35.6201L162.694 34.5156C159.083 36.1678 155.022 36.4829 151.203 37.5699C147.967 38.4913 144.916 39.964 141.889 41.4289C139.782 42.4475 137.522 43.6162 136.528 45.7337C136.594 44.8779 135.236 44.6026 134.606 45.1853C133.976 45.7679 133.858 46.6991 133.606 47.52C133.355 48.3408 132.743 49.2246 131.886 49.1673C132.135 48.6405 131.895 47.9377 131.377 47.6716L130.216 53.078C129.772 52.338 129.129 51.7378 128.36 51.3462C128.332 51.669 128.369 51.9941 128.47 52.3021C128.57 52.6101 128.732 52.8947 128.945 53.1388C128.341 53.0857 127.58 53.1185 127.332 53.6725C127.216 53.9324 127.262 54.2314 127.255 54.5171C127.233 55.7697 126.271 56.7736 125.698 57.8878C125.125 59.0021 125.188 60.7521 126.397 61.0895L123.354 60.9414C124.561 61.473 124.471 63.1916 124.186 64.4784C123.262 68.6145 122.337 72.7509 121.413 76.8875L122.328 77.1865C121.369 82.1765 120.769 87.2286 120.531 92.3042L122.512 94.0926Z" fill="black"/>
<path d="M200.137 101.041C199.884 98.7704 199.553 96.3274 197.985 94.6662C197.286 93.9284 195.191 92.205 194.317 91.6936C188.036 88.0295 182.257 85.4321 175.1 86.7231C172.9 87.1206 171.695 88.1825 169.503 88.8119C169.503 88.8119 164.699 88.6024 163.458 88.3928C162.318 88.1972 159.519 88.4822 158.853 87.9359C157.211 86.5869 155.936 84.2529 154.25 82.9165C151.273 80.5566 147.301 79.7456 143.505 79.9216C139.71 80.0976 136.842 82.2968 133.195 83.3664C131.201 83.9511 129.822 83.4907 128.275 84.8781C126.663 86.3228 124.273 88.4186 122.607 89.8011C121.874 90.4082 120.966 90.9063 120.609 91.7872C120.252 92.6682 121.039 93.9739 121.911 93.5966L122.546 92.9972C124.621 91.0216 125.602 89.5951 127.677 87.618C128.219 87.1025 130.299 87.9631 131.03 88.1336C130.421 92.773 130.471 96.3449 133.139 100.037C133.455 100.475 135.29 102.188 135.716 102.52C137.443 103.871 139.357 105.011 141.809 105.427C146.107 106.155 150.253 105.233 153.665 102.52C155.79 100.832 158.985 96.3805 158.98 93.6665C158.98 93.095 159.153 92.5403 159.103 91.9717C158.867 89.3051 162.883 90.177 164.069 90.1015C165.254 90.0261 166.821 90.3684 166.881 91.5546C166.974 93.429 166.906 95.7888 167.02 97.6939C167.129 99.4816 167.366 100.376 167.864 102.052C168.379 103.786 170.021 106.009 171.472 107.161C173.895 109.082 176.601 110.366 179.673 110.723C186.235 111.485 189.587 109.215 192.046 105.1C192.961 103.591 193.793 102.034 194.54 100.436C195.308 98.7802 196.31 97.2286 198.134 97.2922C199.31 99.9217 198.29 102.863 198.466 105.241C199.384 104.042 200.304 102.537 200.137 101.041ZM157.842 94.6711C157.813 95.0794 157.745 95.484 157.639 95.8796C157.423 96.6187 156.985 97.2712 156.534 97.8958C155.626 99.1532 154.62 100.372 153.362 101.285C151.448 102.678 149.632 104.066 147.325 104.593C146.263 104.836 144.019 104.605 142.931 104.655C140.308 104.775 138.274 103.431 136.42 101.57C135.248 100.395 133.948 99.0219 133.301 97.4934C132.841 96.4064 132.246 95.209 132.08 93.9788C131.975 93.1977 132.025 92.1624 132.032 91.3772C132.038 90.7079 132.378 88.4738 132.566 87.8353C132.754 87.1968 133.231 86.3158 133.582 85.7535C134.119 84.8949 134.95 84.0769 135.832 83.5746C136.886 82.9773 138.995 82.169 140.594 81.782L141.496 81.6744C143.961 81.0673 146.596 81.374 148.967 82.2863C151.338 83.1987 153.447 84.6923 155.298 86.4283C155.731 86.8194 156.128 87.2482 156.486 87.7095C157.932 89.6502 158.077 92.2623 157.842 94.6711ZM193.487 100.571C192.572 102.393 191.692 104.86 190.217 106.268C187.677 108.693 185.936 109.529 182.438 109.831C181.437 109.918 178.501 109.457 177.408 109.095C174.535 108.143 172.048 106.308 170.363 103.795C169.814 102.977 169.308 102.115 169.044 101.166C168.818 100.36 168.773 99.5165 168.73 98.681C168.69 97.9307 168.651 97.1806 168.612 96.4308C168.522 94.7088 168.508 92.7702 169.709 91.5323L169.82 90.8868C171.958 88.7477 175.045 87.7599 178.067 87.6376C181.089 87.5153 184.085 88.1811 187.009 88.9503C189.028 89.4819 191.174 90.156 192.448 91.8103C193.49 93.1635 193.762 94.9393 193.999 96.6306C194.127 97.5199 193.693 100.161 193.487 100.571Z" fill="black"/>
<path d="M117.84 155.185C118.527 154.038 119.17 152.849 119.769 151.617C119.769 151.617 118.918 152.838 117.84 155.185Z" fill="black"/>
<path d="M95.7348 253.026H120.1C120.011 252.228 119.924 251.43 119.839 250.632C118.438 237.432 118.571 223.775 116.206 210.238C114.859 202.533 115.284 194.799 114.139 187.06C111.829 171.442 115.416 160.465 117.841 155.188C112.322 164.395 104.098 170.984 97.2095 178.087C95.5853 179.764 93.5643 184.568 91.3609 185.335C90.582 186.832 98.7793 188.682 100.988 191.382C96.775 190.254 87.351 186.264 83.6729 183.921C86.1452 207.687 90.5715 230.232 95.7348 253.026Z" fill="#150DCE"/>
<path d="M189.159 194.554C189.988 201.024 190.917 208.997 189.748 215.414C187.499 227.752 188.879 234.938 187.498 247.308C187.275 249.312 187.122 251.202 187.002 253.037H213.751C216.665 234.035 219.249 214.986 221.5 195.891C221.749 193.778 221.876 191.319 220.319 189.869C215.318 194.687 209.075 198.02 202.288 199.494L211.235 192.96C211.584 192.705 211.949 192.431 212.118 192.034C212.441 191.277 211.942 190.44 211.455 189.777C205.79 182.082 200.13 178.199 191.964 173.24C190.261 172.207 186.95 168.518 185.704 166.965L184.127 165.781C185.776 171.153 185.477 171.245 186.521 176.767C187.633 182.656 188.397 188.607 189.159 194.554Z" fill="#150DCE"/>
<path d="M126.271 196.332C129.118 193.36 131.543 198.204 133.863 201.604C136.957 206.14 135.655 211.816 136.338 217.264C137.595 227.293 138.851 237.322 140.107 247.352C140.344 249.244 140.579 251.136 140.812 253.03H155.532C155.122 249.308 154.709 245.587 154.292 241.867L151.874 220.175C151.794 219.463 151.714 218.749 151.627 218.036C157.825 212.866 163.766 208.638 171.228 206.982C173.114 206.563 175.29 206.653 176.756 205.398C178.174 204.185 180.091 200.508 181.945 200.304C183.686 200.114 184.416 202.349 185.249 203.889C186.109 205.478 187.04 206.992 187.499 208.739C188.137 211.172 188.904 213.028 189.709 215.432C191.824 211.73 191.652 207.18 191.173 202.941C190.479 196.811 189.272 190.75 187.564 184.822C187.1 183.21 186.595 181.588 186.502 179.913C186.421 178.442 186.662 176.968 186.596 175.496C186.376 170.565 182.778 166.135 183.103 161.209L181.82 160.593C181.969 169.691 180.449 178.738 177.334 187.287C176.033 190.85 175.769 194.078 176.25 197.844C176.333 198.493 174.491 200.895 174.357 201.535C174.053 202.995 171.51 203.66 170.204 204.381C151.865 214.507 152.916 214.721 151.561 217.515C151.178 214.507 150.639 211.519 149.455 208.741C147.918 205.145 144.564 200.84 140.821 199.719C138.598 199.053 136.392 198.722 134.424 197.492C132.504 196.294 132.263 195.467 131.354 193.392C128.415 186.69 126.959 180.365 124.019 173.663C122.471 170.132 120.66 165.634 120.504 161.782C120.343 157.853 120.294 153.136 121.629 149.906L120.296 150.535C119.027 153.136 116.067 159.14 115.196 162.169C112.65 171.021 113.181 175.468 114.142 184.629C114.927 192.121 114.561 201.185 116.147 208.05C119.748 207.116 123.699 199.017 126.271 196.332Z" fill="white"/>
<defs>
<linearGradient id="paint0_linear_1409_8355" x1="179.204" y1="102.728" x2="182.419" y2="95.2898" gradientUnits="userSpaceOnUse">
<stop stop-color="#EDE1FF"/>
<stop offset="1" stop-color="#BCC8FA"/>
</linearGradient>
<linearGradient id="paint1_linear_1409_8355" x1="186.023" y1="102.297" x2="176.54" y2="98.1741" gradientUnits="userSpaceOnUse">
<stop stop-color="#72791A"/>
<stop offset="1" stop-color="#594A0B"/>
</linearGradient>
<linearGradient id="paint2_linear_1409_8355" x1="180.05" y1="103.069" x2="182.728" y2="96.9109" gradientUnits="userSpaceOnUse">
<stop stop-color="#A58C18"/>
<stop offset="1" stop-color="#402F40"/>
</linearGradient>
<linearGradient id="paint3_linear_1409_8355" x1="180.527" y1="101.972" x2="182.168" y2="98.1971" gradientUnits="userSpaceOnUse">
<stop stop-color="#72791A"/>
<stop offset="1" stop-color="#594A0B"/>
</linearGradient>
<linearGradient id="paint4_linear_1409_8355" x1="145.203" y1="96.8064" x2="144.102" y2="89.0272" gradientUnits="userSpaceOnUse">
<stop stop-color="#EDE1FF"/>
<stop offset="1" stop-color="#BCC8FA"/>
</linearGradient>
<linearGradient id="paint5_linear_1409_8355" x1="140.141" y1="92.358" x2="151.22" y2="90.7813" gradientUnits="userSpaceOnUse">
<stop stop-color="#72791A"/>
<stop offset="1" stop-color="#594A0B"/>
</linearGradient>
<linearGradient id="paint6_linear_1409_8355" x1="146.106" y1="94.5607" x2="145.181" y2="88.0594" gradientUnits="userSpaceOnUse">
<stop stop-color="#A58C18"/>
<stop offset="1" stop-color="#402F40"/>
</linearGradient>
<linearGradient id="paint7_linear_1409_8355" x1="145.941" y1="93.4024" x2="145.374" y2="89.418" gradientUnits="userSpaceOnUse">
<stop stop-color="#72791A"/>
<stop offset="1" stop-color="#594A0B"/>
</linearGradient>
</defs>
</svg>
