<svg width="251" height="250" viewBox="0 0 251 250" fill="none" xmlns="http://www.w3.org/2000/svg">
<path d="M220.496 89.4718C233.004 89.4718 244.865 86.7022 255.499 81.7423V-4.96094H138.381C137.851 -1.14273 137.585 2.70756 137.586 6.56241C137.586 52.3523 174.706 89.4718 220.496 89.4718Z" fill="#150DCE"/>
<path d="M220.497 89.4718C174.707 89.4718 137.587 52.3523 137.587 6.56241C137.586 2.70756 137.852 -1.14273 138.382 -4.96094L115.114 -4.96094C120.554 7.31177 123.577 20.8966 123.577 35.1816C123.577 89.9554 79.1737 134.358 24.3999 134.358C14.6082 134.367 4.86927 132.925 -4.5 130.08L-4.5 255.039H86.8384C81.0685 242.381 77.8523 228.312 77.8523 213.492C77.8523 158.117 122.743 113.227 178.118 113.227C209.273 113.227 237.11 127.436 255.5 149.728V81.7423C244.866 86.7022 233.005 89.4718 220.497 89.4718Z" fill="#00007E"/>
<path d="M115.114 -4.96094H-4.5V130.08C4.86927 132.925 14.6082 134.367 24.3999 134.358C79.1737 134.358 123.577 89.9554 123.577 35.1816C123.577 20.8966 120.554 7.31177 115.114 -4.96094Z" fill="#66C3CD"/>
<path d="M178.118 113.227C122.742 113.227 77.8516 158.118 77.8516 213.493C77.8516 228.313 81.067 242.381 86.8376 255.039H255.499V149.728C237.109 127.436 209.273 113.227 178.118 113.227Z" fill="#66C3CD"/>
<path d="M53.0822 29.0425C41.0688 39.8471 34.8466 56.752 36.9985 72.7666C37.8213 78.8991 39.7766 84.8214 40.9206 90.9018C41.9492 96.3654 42.3203 101.943 42.2078 107.499C42.0959 113.01 41.5125 118.557 42.3232 124.009C42.8346 127.45 43.8903 130.786 45.0535 134.065C48.8289 144.72 53.8195 155.671 52.0764 166.838C63.3476 159.679 77.2451 156.763 90.4438 158.789C99.4142 160.164 107.904 163.699 116.743 165.757C125.882 152.988 129.59 136.947 129.754 121.246C129.919 105.544 126.768 90.0085 123.264 74.702C121.381 66.4718 119.391 58.265 117.21 50.1096C116.426 47.1954 115.593 44.2215 113.849 41.7604C112.21 39.4453 109.865 37.7322 107.503 36.16C102.858 33.0692 97.9005 30.3268 92.506 28.905C79.3279 25.4295 67.7384 29.5197 54.1115 29.0474L53.0822 29.0425Z" fill="black"/>
<path d="M51.0898 167.812C64.6989 163.843 78.954 162.692 93.1079 161.91C100.484 161.503 108.196 161.252 114.905 164.352C115.706 164.722 116.529 165.178 116.961 165.946C117.565 167.02 117.21 168.429 116.43 169.383C115.649 170.336 114.524 170.93 113.422 171.481C96.431 179.988 77.384 184.354 58.3833 184.093C56.2884 184.064 54.1193 183.962 52.2438 183.029C49.7699 181.798 46.1641 180.993 46.1641 176.504C46.1641 173.741 48.613 169.028 51.0934 167.813" fill="#FBB577"/>
<path d="M51.3392 118.039C54.2598 121.113 59.7262 126.814 61.1145 132.681C62.5029 138.548 62.2756 144.662 61.9387 150.681C61.6979 154.999 61.3432 159.514 59.053 163.182C58.07 164.756 56.77 166.103 55.48 167.437L47.9941 175.179L61.1238 178.338C63.3819 178.881 65.6435 179.425 67.9422 179.762C78.0815 181.25 88.3269 178.662 98.2482 176.095C100.419 175.533 102.756 174.864 104.111 173.079C104.775 172.205 105.134 171.142 105.476 170.099C107.886 162.721 109.045 157.079 110.219 145.696C111.307 135.145 109.929 129.52 109.047 125.204C108.999 124.968 108.944 124.719 108.78 124.54C108.406 124.133 107.74 124.327 107.227 124.531C97.5395 128.429 86.6209 126.849 76.3056 125.209C73.3701 124.743 70.4133 124.271 67.6238 123.245C65.8928 122.609 64.236 121.762 62.4551 121.282C58.8614 120.311 51.3392 118.039 51.3392 118.039Z" fill="#FBB577"/>
<g style="mix-blend-mode:multiply" opacity="0.6">
<path d="M49.0283 97.5156C48.9051 98.8975 50.0099 100.098 51.208 100.797C52.4062 101.495 53.7803 101.904 54.8594 102.776C57.0356 104.536 57.4409 107.62 58.0585 110.349C59.4889 116.665 62.8176 122.374 66.34 127.809C68.2135 130.7 70.2108 133.606 72.9853 135.649C76.2478 138.052 80.3679 139.075 84.4189 139.197C88.47 139.319 92.4946 138.598 96.468 137.804C101.318 136.833 106.82 134.109 110.024 130.34C108.1 135.414 102.544 139.822 97.436 141.657C92.3279 143.491 86.8366 144.686 82.5277 147.982C81.009 149.144 79.6435 150.564 77.8904 151.33C77.0627 151.693 76.4074 151.926 75.7157 152.08C74.9517 152.249 74.2695 152.677 73.7849 153.291C73.3002 153.905 73.0429 154.668 73.0566 155.451C73.1207 158.893 73.078 161.673 73.2254 165.63C73.2909 167.392 73.6115 169.12 73.9527 170.848C76.1096 181.793 77.6312 181.971 79.3066 182.522C72.1306 183.377 63.1502 185.926 57.0762 182.581C66.3543 178.69 63.3012 142.082 62.9743 139.797C61.2141 127.473 58.8371 130.113 56.1081 127.296C54.4342 125.569 51.3776 120.942 51.0378 118.561C50.0241 111.464 49.5255 110.746 48.4784 103.654C48.2376 102.025 49.1437 99.0372 49.0283 97.5156Z" fill="#D177B8"/>
</g>
<path d="M76.5692 28.2087C71.6705 29.149 66.7028 30.1128 62.2336 32.3281C57.7645 34.5435 53.7776 38.2027 52.3073 42.9753C51.0885 46.9251 51.6912 51.1671 51.8714 55.2986C52.6756 73.6767 44.9176 92.3746 49.7287 110.132C50.5643 113.215 50.9268 115.327 51.5309 118.466C51.8222 119.977 52.8188 122.406 53.395 123.832C54.2498 125.954 55.9658 127.607 57.7403 129.046C70.8585 139.672 90.4176 141.566 105.33 133.653C108.083 132.193 108.927 131.013 111.508 129.265C112.127 128.845 114.89 125.672 115.497 125.039C116.905 123.572 118.275 121.391 119.194 119.464C120.41 116.921 121.582 113.403 122.48 110.25C125.533 99.5363 125.201 86.4216 122.276 80.7244C121.674 79.5505 121.62 76.3856 121.659 75.1533C121.699 73.8554 121.629 70.3978 121.6 68.991C121.554 66.7585 121.499 65.9386 120.895 63.974C120.716 63.3921 118.575 63.8536 118.579 63.2446C118.607 59.366 117.243 54.9189 115.882 51.5824C114.563 48.3498 112.664 45.3908 110.777 42.4524C109.027 39.7278 107.243 36.9632 104.805 34.8305C102.628 32.9272 100.003 31.5965 97.2923 30.5893C90.7659 28.1766 83.7125 27.5555 76.8649 28.7907" fill="#FBB577"/>
<path d="M67.4863 109.804C68.6709 110.712 69.4424 111.736 70.8977 112.068C72.2411 112.374 74.475 113.363 75.5342 113.711C78.0566 114.538 79.0403 115.27 81.6845 115.502C83.5365 115.663 88.0064 115.644 89.8542 115.471C94.4387 115.034 95.0884 115.08 99.4207 113.358C99.8951 113.17 102.524 111.013 102.769 110.568C104.163 108.009 107.617 107.73 109.52 105.523C106.428 106.165 103.327 106.806 100.182 107.086C97.6684 107.311 95.124 107.308 92.6522 107.811C91.2888 108.088 89.9553 108.517 88.5762 108.708C86.321 109.021 84.023 108.686 81.7514 108.851C80.3823 108.948 79.0332 109.225 77.6698 109.387C75.9196 109.594 74.153 109.611 72.3907 109.627C70.8948 109.641 69.4032 109.836 67.9073 109.85L67.4863 109.804Z" fill="#FF3646"/>
<path d="M77.0531 107.99C80.3141 107.071 83.0452 105.466 86.3903 106.002C87.3612 106.157 88.4162 106.604 89.3821 106.429C89.9448 106.328 90.8488 105.771 91.3766 105.552C97.3238 103.094 104.576 106.906 110.517 104.43C106.528 107.426 101.346 108.07 96.365 108.311C95.3478 108.36 94.3242 108.596 93.3426 108.868C92.0255 109.236 90.7433 109.668 89.4163 109.999C86.7436 110.665 83.9313 109.48 81.196 109.785C80.2251 109.893 79.2862 110.186 78.3317 110.392C74.2942 111.259 70.105 110.534 66.0391 109.813C66.0419 109.813 73.428 109.014 77.0531 107.99Z" fill="#DC3B63"/>
<path d="M93.2784 64.8819C93.886 64.3248 97.0609 62.7812 97.8174 62.4535C99.8909 61.556 102.138 60.7439 104.904 60.7717C105.85 60.7803 106.801 60.8608 107.714 61.1044C109.231 61.5097 110.591 62.3467 111.925 63.1701C112.979 63.8226 117.879 64.9965 113.207 60.8907C111.79 59.6441 110.673 59.1099 109.124 58.035C107.367 56.8126 105.325 56.5925 103.179 56.5861C101.247 56.5788 99.3253 56.8671 97.4804 57.4409C95.4232 58.082 94.089 58.6654 92.4578 60.1085C90.6542 61.7034 89.523 63.3952 88.5478 65.5016C88.5478 65.5087 88.5414 65.5158 88.5386 65.5222C88.1112 66.4376 89.0685 67.3793 89.976 66.9369C91.0837 66.3977 92.4393 65.6512 93.2784 64.8819Z" fill="#551400"/>
<path d="M73.469 63.2551C72.9276 62.7365 72.3677 62.2301 71.7331 61.8305C69.195 60.237 65.9368 60.5967 62.9821 61.0953C61.4527 61.3532 58.7608 61.8298 57.2835 62.2942C53.3507 63.5287 50.9537 65.9499 48.9492 69.5507C50.235 69.6504 51.4146 68.916 52.5543 68.3127C54.3099 67.3849 56.1904 66.7159 58.1376 66.3267C59.6769 66.0197 61.2454 65.8907 62.8104 65.7618C67.1264 65.4056 70.8455 65.5681 74.8488 66.7633C74.9572 66.7955 75.0729 66.7937 75.1804 66.7583C75.2878 66.723 75.3819 66.6556 75.4501 66.5653C75.5182 66.475 75.5572 66.3661 75.5618 66.253C75.5663 66.14 75.5363 66.0283 75.4756 65.9328C74.8929 65.0217 74.0987 63.8578 73.469 63.2551Z" fill="#551400"/>
<path d="M109.271 73.3828L110.139 74.2853C110.139 74.2853 108.681 75.95 103.929 75.8731C99.1775 75.7962 95.6621 73.7055 95.6621 73.7055C95.6621 73.7055 101.599 77.0349 109.271 73.3828Z" fill="#DD6B7C"/>
<path d="M94.9228 73.1156C94.5353 72.2957 99.2466 67.5957 103.434 67.5551C107.622 67.5145 110.174 70.2456 110.178 71.0726C110.182 71.8996 109.584 75.3046 103.663 75.6045C99.8293 75.7989 95.2612 73.8293 94.9228 73.1156Z" fill="url(#paint0_linear_1409_8026)"/>
<path d="M106.396 73.13C107.446 71.0418 106.604 68.4979 104.516 67.4481C102.428 66.3983 99.8842 67.2401 98.8344 69.3283C97.7846 71.4165 98.6264 73.9604 100.715 75.0102C102.803 76.06 105.347 75.2182 106.396 73.13Z" fill="url(#paint1_linear_1409_8026)"/>
<path d="M106.178 73.0272C107.166 71.0614 106.374 68.6665 104.408 67.6782C102.442 66.6899 100.047 67.4824 99.059 69.4483C98.0707 71.4141 98.8632 73.809 100.829 74.7973C102.795 75.7856 105.19 74.9931 106.178 73.0272Z" fill="url(#paint2_linear_1409_8026)"/>
<path style="mix-blend-mode:multiply" d="M102.616 73.8185C104.044 73.8185 105.201 72.6612 105.201 71.2335C105.201 69.8058 104.044 68.6484 102.616 68.6484C101.189 68.6484 100.031 69.8058 100.031 71.2335C100.031 72.6612 101.189 73.8185 102.616 73.8185Z" fill="url(#paint3_linear_1409_8026)"/>
<path d="M95.1172 72.4426C95.1172 72.4426 99.0407 66.7369 103.771 66.5972C108.5 66.4576 109.986 70.5585 109.986 70.5585C109.986 70.5585 108.163 67.6379 103.433 67.5589C99.0008 67.4848 95.1172 72.4426 95.1172 72.4426Z" fill="#DD4C6A"/>
<path d="M95.1172 72.4395C95.1172 72.4395 98.8847 67.7139 103.546 67.8015C108.208 67.8891 110.149 70.9115 110.149 70.9115L111.822 69.8167L110.835 69.5125C110.835 69.5125 108.402 67.1426 104.915 66.8726C101.145 66.5806 97.3624 69.3729 95.1172 72.4395Z" fill="#4E1B3D"/>
<path d="M95.2817 72.25C95.2817 72.25 95.6522 73.7665 96.4927 74.1156C96.4927 74.1156 94.6271 73.446 94.6727 73.0613C94.7183 72.6767 95.2817 72.25 95.2817 72.25Z" fill="#DD6B7C"/>
<path d="M105.717 71.0576C105.416 71.2193 106.558 71.5463 107.498 71.4138C108.341 71.2934 108.831 70.8867 108.78 70.782C108.729 70.6773 106.908 70.418 105.717 71.0576Z" fill="white"/>
<path d="M105.01 71.1173C104.709 70.9286 104.286 71.0069 104.23 71.1779C104.175 71.3488 104.528 71.6615 104.734 71.6338C104.94 71.606 105.177 71.2256 105.01 71.1173Z" fill="white"/>
<g style="mix-blend-mode:multiply" opacity="0.6">
<path d="M95.2812 72.2466C95.2812 72.2466 102.689 65.7559 110.177 71.0741L110.15 70.9124C110.15 70.9124 109.172 68.1579 104.309 67.5894C99.4455 67.021 95.8889 71.4353 95.2812 72.2466Z" fill="#D177B8"/>
</g>
<path d="M56.713 78.9568L55.8867 79.9961C55.8867 79.9961 57.5906 81.6088 62.5997 81.0553C67.6088 80.5019 71.1135 77.9453 71.1135 77.9453C71.1135 77.9453 65.1755 82.0505 56.713 78.9568Z" fill="#DD6B7C"/>
<path d="M71.834 77.2499C72.1624 76.3453 66.7216 71.8512 62.2959 72.2252C57.8702 72.5991 55.4483 75.7355 55.5252 76.6089C55.6021 77.4822 56.5731 81.0175 62.8544 80.7461C66.9218 80.5701 71.5483 78.0371 71.834 77.2499Z" fill="url(#paint4_linear_1409_8026)"/>
<path d="M67.9575 75.8946C68.1062 73.4161 66.2176 71.2864 63.7391 71.1377C61.2606 70.989 59.1309 72.8776 58.9822 75.3561C58.8334 77.8346 60.7221 79.9643 63.2006 80.113C65.679 80.2617 67.8088 78.3731 67.9575 75.8946Z" fill="url(#paint5_linear_1409_8026)"/>
<path d="M65.5048 79.7546C67.5656 78.6603 68.349 76.1026 67.2547 74.0418C66.1604 71.981 63.6026 71.1976 61.5419 72.292C59.4811 73.3863 58.6977 75.944 59.792 78.0048C60.8864 80.0655 63.4441 80.849 65.5048 79.7546Z" fill="url(#paint6_linear_1409_8026)"/>
<path style="mix-blend-mode:multiply" d="M63.523 78.7648C65.0372 78.7648 66.2648 77.5372 66.2648 76.023C66.2648 74.5088 65.0372 73.2812 63.523 73.2812C62.0088 73.2812 60.7812 74.5088 60.7812 76.023C60.7812 77.5372 62.0088 78.7648 63.523 78.7648Z" fill="url(#paint7_linear_1409_8026)"/>
<path d="M71.5607 76.5511C71.5607 76.5511 66.8515 70.9166 61.8438 71.24C56.8362 71.5634 55.6758 76.0396 55.6758 76.0396C55.6758 76.0396 57.3099 72.7765 62.2962 72.2216C66.9655 71.7016 71.5607 76.5511 71.5607 76.5511Z" fill="#DD4C6A"/>
<path d="M71.5606 76.5548C71.5606 76.5548 67.1128 71.9403 62.2006 72.4945C57.2884 73.0487 55.5382 76.4344 55.5382 76.4344L53.6641 75.445L54.6756 75.0262C54.6756 75.0262 57.0084 72.2816 60.6634 71.6497C64.614 70.968 68.8858 73.5381 71.5606 76.5548Z" fill="#4E1B3D"/>
<path d="M71.3695 76.3672C71.3695 76.3672 71.1288 78.0055 70.2754 78.4572C70.2754 78.4572 72.178 77.5653 72.0918 77.1636C72.0056 76.7618 71.3695 76.3672 71.3695 76.3672Z" fill="#DD6B7C"/>
<path d="M60.2324 76.147C60.5658 76.2894 59.3926 76.7468 58.3853 76.6983C57.4835 76.6556 56.9258 76.2745 56.9713 76.1584C57.0169 76.0423 58.9132 75.5899 60.2324 76.147Z" fill="white"/>
<path d="M60.9868 76.1428C61.2853 75.9134 61.739 75.9547 61.8152 76.1292C61.8915 76.3038 61.5481 76.6699 61.3287 76.6606C61.1093 76.6514 60.8208 76.271 60.9868 76.1428Z" fill="white"/>
<g style="mix-blend-mode:multiply" opacity="0.6">
<path d="M71.369 76.3646C71.369 76.3646 62.9023 70.2485 55.5254 76.6075L55.5382 76.4337C55.5382 76.4337 56.2976 73.4291 61.3736 72.3456C66.4497 71.2622 70.646 75.5682 71.369 76.3646Z" fill="#D177B8"/>
</g>
<g style="mix-blend-mode:multiply" opacity="0.6">
<path d="M75.056 91.935L75.0311 91.9628C74.4434 92.6189 74.1236 93.8619 74.3387 94.716C74.9406 97.1094 76.8561 98.3773 79.2837 98.1993C80.4192 98.1159 81.7099 97.3772 81.6622 96.2396C81.2889 96.0737 80.8579 96.1606 80.4512 96.1292C79.996 96.0943 79.4639 95.7731 79.6199 95.2816C79.661 95.1639 79.7322 95.0591 79.8265 94.9776C79.9207 94.8961 80.0347 94.8408 80.157 94.8171C80.9219 94.6432 81.7228 94.7253 82.4365 95.0508C84.0456 95.8137 84.7872 97.7847 86.37 98.606C88.217 99.5655 90.8227 98.2769 91.1817 96.2268C91.2943 95.5857 91.253 94.8314 91.7359 94.3919C91.9375 94.2088 92.2025 94.1133 92.4661 94.0442C93.1061 93.8793 93.7725 93.8427 94.4268 93.9365C95.0811 94.0303 95.7104 94.2526 96.2784 94.5906C95.389 94.6799 94.5301 94.9637 93.7625 95.4219C93.6829 95.4671 93.6169 95.5328 93.5714 95.6123C93.5259 95.6917 93.5026 95.782 93.5039 95.8735C93.5189 96.2076 93.8829 96.3045 94.1799 96.3273C95.3802 96.4191 96.6367 96.1677 97.6041 95.4518C98.5714 94.7359 99.1983 93.5143 99.033 92.3218C98.9995 92.0791 98.9486 91.8392 98.8806 91.6038C98.5957 90.635 97.265 90.6065 96.8975 91.5497C96.8605 91.6441 96.8149 91.7349 96.7614 91.8211C95.7328 93.4808 94.3395 90.9663 92.9647 90.8174C92.6392 90.7825 92.1427 90.9349 91.644 91.2576C91.2615 91.5055 90.8939 91.8674 90.5656 92.1836C89.6994 93.0156 88.7057 93.7558 87.5546 94.0977C86.4034 94.4396 85.0721 94.3313 84.1218 93.599C83.6139 93.208 83.2378 92.663 82.7171 92.2884C81.4691 91.3908 79.4824 91.8196 78.7153 93.1524C78.3719 93.7501 78.2273 94.5058 77.4865 94.7673C76.715 95.0379 75.9279 94.5628 75.7484 93.7643C75.6658 93.3953 75.7292 92.8539 75.8353 92.3354C75.8568 92.2377 75.8454 92.1356 75.8028 92.0451C75.7602 91.9546 75.6889 91.8807 75.5999 91.835C75.5109 91.7893 75.4093 91.7743 75.3109 91.7924C75.2125 91.8105 75.1229 91.8607 75.056 91.935Z" fill="#D177B8"/>
</g>
<path d="M82.147 94.865C81.8429 94.7577 81.5246 94.696 81.2024 94.6819C80.81 94.6534 80.379 94.6784 80.025 94.8507C79.6709 95.0231 79.4309 95.4918 79.641 95.8238C79.8041 96.0817 80.1446 96.1472 80.4467 96.1892L83.8146 96.6579C83.9164 96.6722 84.2989 96.6266 84.0126 96.2305C84.0126 96.2291 83.4021 95.3686 82.147 94.865Z" fill="black"/>
<path d="M93.9362 93.6447C93.6141 93.6285 93.2914 93.6604 92.9788 93.7395C92.5949 93.8242 92.1888 93.9717 91.8989 94.2381C91.609 94.5045 91.5128 95.0217 91.8099 95.2802C92.04 95.4804 92.3847 95.4462 92.686 95.3999L96.0475 94.8856C96.1494 94.8699 96.5027 94.7168 96.1145 94.4176C96.1145 94.4176 95.2803 93.7687 93.9362 93.6447Z" fill="black"/>
<path d="M126.995 65.0793C119.98 63.0303 112.664 62.2109 105.369 62.6573C102.69 62.8226 100.014 63.1602 97.4133 63.8263C95.3747 64.3491 93.3915 65.0707 91.3585 65.6277C86.6521 66.9163 81.745 67.3068 76.894 66.7789C76.894 66.7789 69.2721 65.5636 62.2471 65.3877C59.1321 65.3093 56.7956 65.5188 53.9898 66.8743C52.7589 67.4691 51.1298 69.3675 50.2337 70.3961C48.4065 72.5031 47.9264 75.8162 47.7341 78.5992C47.4777 82.2706 47.6906 85.865 49.6517 88.98C51.1946 91.4319 53.172 93.2056 55.9608 93.9898C58.7496 94.7741 61.7043 94.7734 64.5871 94.4828C68.6609 94.0753 72.9883 92.9228 75.5634 89.7394C76.8847 88.1053 77.617 86.0858 78.3258 84.107C79.7504 80.1258 81.1979 75.8333 80.0888 71.7516C79.9278 71.1583 79.7326 70.4652 80.1045 69.9772C80.2847 69.7422 80.5653 69.6097 80.8396 69.4978C82.5579 68.7996 84.434 68.5833 86.2661 68.8724C86.732 68.9436 87.2092 69.0605 87.5818 69.3497C88.3995 69.9851 88.4316 71.1789 88.4943 72.2118C88.708 75.7086 90.0742 79.0174 91.4234 82.2506C91.8671 83.3134 92.3152 84.3876 92.9449 85.3493C95.0819 88.626 99.0588 90.2643 102.936 90.8014C106.319 91.2661 109.76 91.036 113.051 90.1254C115.214 89.5257 116.215 88.7008 117.615 86.9456C119.648 84.3955 120.558 82.3532 121.177 77.7117C121.583 74.6537 121.642 71.2957 124.367 69.8497C124.988 69.5206 125.721 69.2799 126.081 68.6794C126.739 67.5681 125.855 65.6854 126.995 65.0793ZM77.674 73.9684C77.6317 75.5863 77.5902 77.2038 77.5493 78.8208C77.5037 80.5916 77.456 82.3746 77.0792 84.1056C76.7024 85.8365 75.9708 87.5311 74.7285 88.7905C74.1245 89.4003 72.8052 90.6825 72.0722 91.132C68.8839 93.0916 65.8187 93.4613 62.0825 93.6807C59.2446 93.8481 56.2151 93.4114 54.0133 91.6149C51.1839 89.3048 50.3754 85.3593 50.0428 81.7214C49.8234 79.3208 49.7336 76.8733 50.2842 74.5269C50.8349 72.1805 52.0928 69.9202 54.1009 68.586C54.1009 68.586 54.5774 68.2947 54.7292 68.2256C59.3444 66.1342 64.7125 67.4898 69.7707 67.7918C71.3628 67.8865 72.9854 68.0311 74.45 68.6637C75.9145 69.2962 77.2167 70.5029 77.5686 72.0586C77.7082 72.6819 77.6925 73.3287 77.6761 73.9684H77.674ZM119.314 80.4755C118.698 82.2677 118.132 84.1084 116.985 85.615C116.512 86.2368 115.599 86.9684 114.991 87.4542C113.993 88.2549 112.777 88.7029 111.547 89.0584C107.476 90.2344 102.947 90.0421 99.1194 88.2249C98.1933 87.7847 97.3065 87.2277 96.5835 86.5018C96.03 85.9441 95.5791 85.2909 95.1631 84.6263C92.5773 80.4798 90.7716 78.2203 91.3215 70.6361C91.516 67.9571 95.1189 66.796 97.6541 65.9077C100.189 65.0194 102.892 64.7373 105.569 64.5222C109.46 64.2081 113.557 64.0585 117.065 65.7688C117.305 65.8863 117.549 66.0188 117.706 66.2346C117.799 66.3759 117.871 66.53 117.92 66.692C118.306 67.7842 118.664 68.8855 118.995 69.9957C119.528 71.7851 119.993 73.613 120.064 75.4807C120.123 77.1774 119.869 78.8705 119.316 80.4755H119.314Z" fill="black"/>
<path d="M255.5 245.25C250.337 238.952 243.149 232.58 236.929 224.921C227.672 213.524 219.464 200.308 212.455 190.412C208.437 184.738 204.214 177.773 198.722 173.509C192.24 168.477 184.54 162.55 176.742 159.998C167.421 156.948 157.865 153.862 148.062 154.179C127.618 154.839 110.384 169.935 90.3138 173.9C77.4257 176.445 63.635 174.113 52.299 167.478L50.2118 167.657C33.0903 167.65 17.184 175.891 2.06482 183.926C-0.143397 185.1 -2.38153 186.296 -4.5 187.65V255.036H255.5V245.25Z" fill="white"/>
<path d="M255.5 243.752C244.42 226.397 226.891 209.197 214.138 191.884C206.543 181.573 198.742 171.059 188.17 163.833C182.471 159.937 176.106 157.102 170.362 153.276C157.496 144.711 148.087 131.101 144.62 116.039C142.606 107.286 142.513 98.0883 139.5 89.6237C136.609 81.5032 131.045 74.0131 131.059 65.3953C131.064 62.0367 131.94 58.7151 131.843 55.3579C131.723 51.3204 130.194 47.4396 128.197 43.9278C122.076 33.1617 111.778 25.5191 101.679 18.3495C92.5776 11.8887 82.5679 5.28116 71.4086 5.48916C59.5277 5.7107 49.3371 13.5705 40.1124 21.0607C31.4291 28.1063 22.2187 35.9804 19.7626 46.8854C18.4527 52.703 15.4582 58.3676 13.5 64C11.7348 69.0803 11.6848 73.7374 9.37973 78.5976C7.36027 82.8552 2.89468 87.8784 1.97364 92.5C-0.463724 104.716 -0.191016 116.412 -4.5 128.1L-4.5 198.95C-0.828914 196.98 3.04666 195.418 7.05753 194.292L1.97364 195.991C16.5222 203.577 35.738 200.936 47.6987 189.705C47.396 204.793 33.1416 218.161 18.0659 217.495C22.8029 222.282 31.5232 224.891 37.6805 222.163C42.8036 219.893 51.9164 211.834 54.5834 206.904C65.5533 186.632 66.443 162.106 63.1513 139.294C60.9381 123.959 49.2737 115.984 48.1411 100.533C47.4779 91.4658 51.0837 74.756 51.5695 65.515C51.8545 60.1383 51.9677 57.7506 51.6158 52.4665C51.4021 49.2974 51.2597 43.6636 52.9173 41.3542C57.5716 34.8599 69.7368 26.9951 80.9424 29.8202C80.9424 29.8202 84.1586 30.1343 90.9663 29.8992C97.774 29.6642 102.531 34.7994 106.992 37.8481C111.452 40.8969 116.352 53.2836 117.291 57.0397C118.23 60.7958 119.61 67.2224 120.782 73.5607C121.953 79.899 122.47 81.1898 123.804 88.9955C124.627 93.8115 125.007 95.3929 120.782 124.268C116.556 153.143 114.032 160.82 114.032 160.82C109.174 168.484 108.246 178.502 111.61 186.929C112.749 189.789 114.38 192.572 114.488 195.65C114.588 198.493 112.655 201.064 112.522 203.902C111.975 215.573 113.338 217.958 115.086 224.394C116.141 228.272 122.089 235.847 123.889 239.184C126.24 243.539 124.007 249.148 127.499 254.589C127.316 254.729 127.14 254.879 126.972 255.037H203.476C202.289 249.429 201.04 243.834 199.73 238.254C195.87 221.816 191.146 204.889 180.136 192.089C201.581 203.49 223.337 215.728 238.848 234.419C244.234 240.909 249.094 248.343 255.502 253.58L255.5 243.752Z" fill="#551400"/>
<defs>
<linearGradient id="paint0_linear_1409_8026" x1="101.696" y1="75.6718" x2="103.672" y2="67.3437" gradientUnits="userSpaceOnUse">
<stop stop-color="#EEE2FF"/>
<stop offset="1" stop-color="#BDC9FB"/>
</linearGradient>
<linearGradient id="paint1_linear_1409_8026" x1="101.652" y1="75.3407" x2="103.605" y2="67.1051" gradientUnits="userSpaceOnUse">
<stop stop-color="#471F4B"/>
<stop offset="1" stop-color="#310A39"/>
</linearGradient>
<linearGradient id="paint2_linear_1409_8026" x1="101.693" y1="75.1166" x2="103.533" y2="67.3638" gradientUnits="userSpaceOnUse">
<stop stop-color="#57335B"/>
<stop offset="1" stop-color="#310A39"/>
</linearGradient>
<linearGradient id="paint3_linear_1409_8026" x1="102.006" y1="73.7547" x2="103.2" y2="68.7244" gradientUnits="userSpaceOnUse">
<stop stop-color="#A79ABD"/>
<stop offset="0.99" stop-color="#724A60"/>
</linearGradient>
<linearGradient id="paint4_linear_1409_8026" x1="64.5776" y1="80.4839" x2="61.6731" y2="71.8612" gradientUnits="userSpaceOnUse">
<stop stop-color="#EEE2FF"/>
<stop offset="1" stop-color="#BDC9FB"/>
</linearGradient>
<linearGradient id="paint5_linear_1409_8026" x1="65.5154" y1="79.9151" x2="62.6004" y2="71.4539" gradientUnits="userSpaceOnUse">
<stop stop-color="#471F4B"/>
<stop offset="1" stop-color="#310A39"/>
</linearGradient>
<linearGradient id="paint6_linear_1409_8026" x1="64.5917" y1="80.254" x2="61.8622" y2="72.2312" gradientUnits="userSpaceOnUse">
<stop stop-color="#57335B"/>
<stop offset="1" stop-color="#310A39"/>
</linearGradient>
<linearGradient id="paint7_linear_1409_8026" x1="64.0605" y1="78.4815" x2="62.306" y2="73.2728" gradientUnits="userSpaceOnUse">
<stop stop-color="#A79ABD"/>
<stop offset="0.99" stop-color="#724A60"/>
</linearGradient>
</defs>
</svg>
