<svg width="250" height="250" viewBox="0 0 250 250" fill="none" xmlns="http://www.w3.org/2000/svg">
<mask id="mask0_1736_3827" style="mask-type:alpha" maskUnits="userSpaceOnUse" x="0" y="0" width="250" height="250">
<rect width="250" height="250" fill="#C4C4C4"/>
</mask>
<g mask="url(#mask0_1736_3827)">
<ellipse cx="247.908" cy="21.5563" rx="24.4961" ry="33.1152" transform="rotate(173.84 247.908 21.5563)" fill="#150DCE"/>
<ellipse cx="173.021" cy="-11.6833" rx="24.4961" ry="33.1152" transform="rotate(-131.681 173.021 -11.6833)" fill="#150DCE"/>
<path d="M81.3931 267.932C78.7693 258.362 71.9052 250.504 64.3355 244.091C55.9696 237.01 46.0111 231.25 35.5215 228.094C45.4994 249.505 61.8397 267.352 82.1126 279.207C82.6337 275.438 82.3889 271.603 81.3931 267.932Z" fill="#781ED1"/>
<path d="M82.1118 279.204C82.6326 275.437 82.3879 271.603 81.3923 267.932C78.7685 258.362 71.9044 250.504 64.3348 244.091C55.9696 237.01 46.0111 231.25 35.5215 228.094C45.4994 249.502 61.8397 267.35 82.1118 279.204Z" fill="#66C3CD"/>
<path d="M245.043 64.0884C236.211 62.2951 226.068 61.4096 220.524 54.3028C215.858 48.3195 216.036 39.6303 211.502 33.5454C204.556 24.2242 190.568 25.1546 179.093 27.0271L138.456 33.6594C134.623 34.2851 130.684 34.9092 126.884 34.1114C123.083 33.3135 119.394 30.7627 118.405 27.0061C116.989 21.6276 121.344 16.5793 125.477 12.8577C131.777 7.19274 115.384 0 91 -7H41.5C41.5 -7 66 20.5 36 20.5C6 20.5 6.176 46.016 -5.48592 53.1631C-16.0469 59.6364 -23.5243 70.6005 -26.7427 82.561C-29.9611 94.5214 -29.1013 107.387 -25.3672 119.197C-21.9317 130.064 -16.1624 140.076 -12.6826 150.928C-9.20291 161.781 -8.28181 174.305 -14.2434 184.018C-17.2905 188.98 -21.8883 192.802 -26.7039 196.08C-29.1377 197.739 -31.7506 199.307 -34.5 200.335V280.041H-7.80962C-12.6671 271.867 -15.2576 262.382 -14.628 252.87C-14.1139 245.089 -11.3902 237.022 -5.29906 232.152C-2.45201 229.875 0.972675 228.421 4.47025 227.396C14.6722 224.407 25.3463 225.026 35.5204 228.093C28.6121 213.269 24.754 196.736 24.754 179.303C24.754 115.432 76.5313 63.6542 140.402 63.6542C189.763 63.6542 231.901 94.578 248.499 138.109V64.863C247.353 64.5834 246.201 64.3252 245.043 64.0884Z" fill="#66C3CD"/>
<path d="M35.5209 228.097C25.3468 225.033 14.6727 224.414 4.47076 227.4C0.972415 228.425 -2.45227 229.881 -5.29855 232.156C-11.3896 237.026 -14.1134 245.093 -14.6275 252.874C-15.257 262.386 -12.6666 271.87 -7.80911 280.045H81.9833C82.0308 279.766 82.0737 279.487 82.112 279.207C61.8391 267.354 45.4988 249.506 35.5209 228.097Z" fill="#66C3CD"/>
<path d="M140.404 63.6484C76.5332 63.6484 24.7559 115.426 24.7559 179.297C24.7559 196.73 28.614 213.263 35.5223 228.088C46.0119 231.246 55.9704 237.004 64.334 244.088C71.906 250.5 78.7701 258.358 81.3915 267.928C82.3876 271.599 82.6328 275.433 82.1126 279.201C82.5948 279.483 83.0797 279.762 83.5671 280.038H197.24C220.562 266.852 238.849 250.017 248.5 224.704V138.103C231.902 94.5761 189.765 63.6484 140.404 63.6484Z" fill="#150DCE"/>
<path d="M-14.082 314.425C-11.4482 293.932 -12.8604 273.157 -11.886 252.516C-10.9116 231.875 -14.887 210.513 -3.35611 193.369C-3.35611 193.369 -0.962379 187.089 8.36543 183.211C19.1055 178.746 30.6787 177.764 42.026 175.228C49.991 173.441 58.2738 173.822 66.38 172.855C74.4862 171.887 82.9384 169.238 88.1002 162.908C89.6465 161.015 90.8822 158.811 92.8594 157.37C95.6838 155.308 99.4404 155.202 102.936 155.188C112.161 162.909 132.224 167.389 150.131 167.846C158.512 168.058 173.752 156.318 181.159 160.245C186.957 163.318 191.476 168.341 196.976 171.915C207.208 178.555 243.361 187.774 254.136 193.489C266.698 200.164 267.588 207.596 272.672 220.89C277.756 234.185 277.46 247.168 279.253 261.282C281.555 279.38 278.102 296.087 274.833 314.029L-14.082 314.425Z" fill="#F0EEEF"/>
<path d="M187.796 111.158L190.691 107.781C191.758 106.538 192.859 105.26 194.307 104.49C195.754 103.72 197.654 103.564 198.974 104.539C199.935 105.245 200.443 106.439 200.648 107.619C201.163 110.579 200.026 113.581 198.551 116.202C197.075 118.822 195.225 121.238 194.088 124.022C193.219 126.155 192.796 128.437 192.104 130.634C191.446 132.721 190.543 134.722 189.413 136.596C188.799 137.627 188.065 138.658 186.999 139.195C185.932 139.732 184.428 139.619 183.743 138.637C183.058 137.655 183.44 136.207 183.856 135.02C186.386 127.769 187.807 120.176 188.072 112.5L187.796 111.158Z" fill="#EA8971"/>
<path d="M92.0755 87.5028C91.447 85.5249 89.7665 84.5006 88.1636 85.1152C86.5607 85.7297 85.7063 87.4957 85.4168 89.184C84.9578 91.8048 85.4521 94.475 85.6357 97.124C86.1088 104.04 84.4423 111.012 85.3744 117.885C85.6498 119.92 86.2006 122.025 87.6199 123.515C87.9023 123.812 88.2271 124.094 88.6296 124.179C90.0136 124.476 90.6985 122.569 90.7691 121.156C90.9951 116.585 91.0375 111.987 91.8495 107.48C92.4144 104.351 93.3394 101.278 93.756 98.12C94.1726 94.9624 94.0173 91.6141 92.5415 88.7955L92.0755 87.5028Z" fill="#EA8971"/>
<path d="M89.9086 123.385C90.9325 129.524 91.4833 134.186 95.6776 143.461C99.872 152.736 106.806 161.029 115.978 165.437C120.498 167.613 125.44 168.807 130.397 169.548C135.545 170.318 140.834 170.622 145.911 169.513C150.614 168.496 154.984 166.306 159.016 163.685C170.434 156.275 179.444 145.206 184.387 132.519C186.308 127.588 187.628 122.438 188.786 117.267C190.834 108.204 192.423 98.9998 192.875 89.7177C193.353 79.7792 192.524 69.8209 190.41 60.0982C189.478 55.8245 188.158 51.3741 184.959 48.3931C182.827 46.4081 180.059 45.2779 177.326 44.2748C162.227 38.7298 146.284 35.8335 130.2 35.7132C125.575 35.6849 120.851 35.9039 116.536 37.5569C109.758 40.1635 104.695 46.1114 101.595 52.681C98.495 59.2505 97.1252 66.477 95.7765 73.6188C93.3686 86.3976 91.9352 98.025 89.5273 110.804L89.9086 123.385Z" fill="#EA8971"/>
<path d="M118.521 126.238C117.985 126.308 117.716 126.986 117.865 127.509C118.013 128.032 122.193 129.939 122.617 130.278C125.406 132.546 124.869 132.849 128.372 133.641C129.48 133.895 133.131 134.241 134.261 134.382C137.572 134.792 137.424 135.308 140.743 135.626C141.682 135.717 142.692 135.647 143.631 135.555C144.57 135.463 146.356 135.011 147.26 134.771C149.689 134.121 154.675 135.562 154.675 133.436C152.57 132.079 150.113 131.401 147.698 130.744L142.593 129.36C141.682 129.106 140.764 128.858 139.818 128.774C138.116 128.625 136.358 129.028 134.699 128.59C133.463 128.265 132.375 127.495 131.14 127.156C129.727 126.767 128.23 126.965 126.769 127.015C124.252 127.098 121.742 126.719 119.362 125.898L118.521 126.238Z" fill="#FF5E54"/>
<path d="M119.479 125.409C118.053 125.218 117.664 126.674 118.752 126.617C119.126 126.504 119.684 126.405 120.065 126.476C120.334 126.525 121.209 126.631 121.484 126.885C122.953 128.235 124.274 128.122 126.265 128.221C128.256 128.319 130.247 128.079 132.232 128.242L132.408 128.305C134.873 129.916 137.838 130.579 140.754 130.17C141.418 130.078 142.082 129.93 142.746 130.008C143.692 130.128 144.504 130.693 145.379 131.067C147.413 131.922 149.616 132.586 151.791 132.579C153.097 132.572 154.312 134.006 155.477 133.413C155.894 133.18 156.303 132.664 155.583 132.417L155.244 132.282C153.239 131.096 151.353 129.513 149.884 127.677C148.974 126.539 147.9 125.473 146.573 124.879C144.32 123.876 141.686 124.738 139.257 124.307C136.828 123.876 135.317 122.852 132.86 122.463C130.876 122.146 128.503 123.445 126.583 124.032C126.583 124.032 122.007 125.225 120.051 125.324L119.479 125.409Z" fill="#AE3C3A"/>
<path d="M155.704 83.9625C157.794 85.7073 160.689 86.004 163.224 86.993C165.328 87.8054 167.199 89.1122 169.148 90.2495C171.344 91.5281 175.32 94.4244 177.72 95.2791C177.099 92.404 175.637 88.9427 173.434 87.0001C172.192 85.9051 169.007 84.0332 167.581 83.1925C163.845 81.0098 161.769 79.5263 155.683 78.1841C155.442 78.1276 155.174 78.0994 154.941 78.1983C154.708 78.2972 154.433 78.6928 154.299 79.0248C153.84 80.1621 153.578 81.6314 154.454 82.4932C154.454 82.4932 155.287 83.6164 155.704 83.9625Z" fill="#784E42"/>
<path d="M108.994 82.0128C112.327 80.8472 115.745 79.6675 119.268 79.7382C121.577 79.7805 123.837 80.3598 126.125 80.6494C128.963 81.0097 131.83 80.9249 134.683 80.7483C135.954 80.6706 137.486 80.3739 137.896 79.173C138.206 78.2688 137.648 77.2587 136.85 76.7289C136.053 76.1991 135.085 76.0507 134.139 75.9094L125.51 74.6309C123.971 74.4048 122.424 74.1788 120.878 74.2847C116.069 74.6167 111.677 78.1346 108.994 82.0128Z" fill="#784E42"/>
<path d="M189.688 108.398C190.924 103.354 190.528 98.1549 190.796 92.9628C190.853 91.875 190.881 90.7518 190.493 89.7346C190.104 88.7173 189.321 87.8485 188.84 86.8454C187.64 84.3094 188.586 81.3354 189.257 78.6087C190.471 73.625 190.67 68.448 189.843 63.3857C188.713 56.5124 187.795 52.055 182.062 48.1133C180.304 46.9053 175.509 46.4674 173.384 46.319C173.384 46.319 139.645 43.4793 123.2 40.9362C118.356 40.1874 113.434 42.9919 109.572 46.0153C105.709 49.0387 103.076 53.9976 103.902 58.8365C104.198 60.5954 104.933 62.2837 105.003 64.0709C105.152 67.8078 103.623 72.1256 101.518 75.2196C95.9559 78.6087 93.7336 88.2864 93.9878 96.0427C93.6408 93.2691 92.7761 90.5853 91.4387 88.131C90.6196 86.6123 89.6028 85.1571 89.2427 83.4758C88.9744 82.2467 89.0803 80.9681 89.1933 79.7178C89.6099 75.2674 92.3849 73.2683 91.8906 68.9027C91.0574 61.5349 95.6542 52.1539 99.8133 46.0153C107.319 34.9459 119.408 29.1322 132.323 25.6709C138.89 23.9119 145.683 22.4991 152.447 23.1702C158.209 23.7424 163.731 25.8121 168.999 28.228C173.2 30.1636 177.345 32.3676 180.741 35.5111C182.669 37.2912 184.328 39.3468 185.974 41.3954C190.133 46.5592 194.334 51.8007 197.003 57.8687C199.672 63.9367 200.717 70.7323 201.706 77.3654C201.939 77.5915 202.01 76.878 201.692 76.9416C201.374 77.0052 201.296 77.422 201.296 77.7469C201.219 83.4922 200.576 89.2158 199.376 94.8348C198.209 99.3195 195.798 103.382 192.42 106.554C191.107 107.783 189.568 109.026 189.264 110.8L189.688 108.398Z" fill="#D6CEC6"/>
<path d="M141.312 115.079C143.36 114.641 145.485 115.114 147.583 115.037C148.183 115.015 148.854 114.909 149.214 114.429C149.574 113.949 149.454 113.136 149.03 112.649C148.606 112.161 147.985 111.907 147.371 111.716C146.756 111.526 146.276 111.441 145.718 111.49C144.857 111.561 144.08 112.041 143.381 112.557C142.463 113.235 141.588 114.026 141.107 115.058" fill="#6E3528"/>
<path d="M129.854 111.225C131.838 111.988 133.794 112.843 135.701 113.775C135.821 113.839 135.955 113.895 136.075 113.853C136.308 113.768 136.287 113.436 136.202 113.203C135.807 112.144 135.08 111.239 134.359 110.363C134.07 110.003 133.773 109.643 133.385 109.389C132.997 109.134 132.679 109.035 132.297 108.908C131.648 108.682 130.963 108.456 130.285 108.569C129.607 108.682 128.943 109.247 128.993 109.94C129.028 110.505 129.508 110.936 129.953 111.296" fill="#6E3528"/>
<path d="M130.12 110.918C130.523 111.13 130.932 111.363 131.179 111.745C131.427 112.126 131.427 112.705 131.059 112.974C130.848 113.129 130.565 113.15 130.311 113.108C129.457 112.988 128.772 112.31 128.404 111.533C128.037 110.756 127.931 109.88 127.832 109.025C127.776 108.502 127.712 107.965 127.84 107.457C128.171 106.072 129.654 105.09 131.081 105.055C132.761 105.013 136.214 108.319 138.693 109.004C141.785 109.845 144.638 107.57 147.816 107.951C150.711 108.305 151.607 109.647 151.848 111.045C152.088 112.444 151.551 114.902 150.464 115.807C149.835 116.329 148.614 116.28 148.465 115.475C148.352 114.916 148.854 114.401 148.875 113.829C148.896 113.129 148.197 112.614 147.519 112.409C146.641 112.148 145.701 112.19 144.85 112.529C143.466 113.08 142.506 114.337 141.298 115.213C140.091 116.089 138.544 116.075 137.224 115.39C136.377 114.945 135.988 114.217 135.755 113.638C134.816 111.307 133.185 109.654 130.692 109.364C130.304 109.322 129.732 109.216 129.57 109.576C129.188 110.431 130.12 110.918 130.12 110.918Z" fill="#D0664B"/>
<path d="M179.817 157.665C174.938 178.158 163.372 194.264 145.359 207.311C139.279 211.712 134.64 218.352 127.459 220.556C126.583 220.825 125.015 221.241 125.015 221.241C124.161 220.959 123.278 219.765 122.692 219.087C114.388 209.43 107.391 206.237 100.669 195.422C99.0516 192.83 95.401 182.354 94.6595 178.921C91.5102 164.404 95.4998 159.212 93.2402 136.226C95.408 146.956 102.792 156.318 112.403 161.56C114.613 162.768 119.946 164.581 122.318 165.442C126.64 167.025 132.232 168.496 136.829 168.573C149.017 168.771 159.977 168.303 168.994 160.109C175.201 154.465 180.446 140.937 184.449 133.562C183.009 140.959 179.817 157.665 179.817 157.665Z" fill="#EA8971"/>
<path d="M89.9062 123.383C93.7791 128.904 93.8003 132.063 99.5834 141.48C102.471 146.184 104.653 148.834 109.257 151.879C112.15 153.789 113.08 154.344 115.303 155.99C116.271 157.368 118.689 162.52 130.781 165.422C142.874 168.324 152.064 161.069 152.064 161.069C154.482 161.069 156.59 160.385 159.319 159.376C163.939 157.668 167.305 155.282 169.96 152.604C175.51 146.989 179.15 138.819 183.855 135.01C185.041 131.238 185.522 131.351 183.855 135.01C179.287 149.506 169.466 164.88 155.45 170.743C141.433 176.606 125.833 174.964 111.513 166.141C108.329 164.178 106.768 162.828 104.156 160.151C99.6577 155.559 96.4378 151.01 94.4819 144.893C91.2973 134.918 91.7422 133.555 89.9062 123.383Z" fill="#D0664B"/>
<path d="M125.116 221.26C124.706 223.853 144.026 220.229 153.078 222.906C155.719 223.69 158.204 224.912 160.669 226.127C165.301 228.409 170.95 233.467 175.582 235.749C176.542 231.757 176.38 223.492 176.578 219.395C177.008 210.431 180.694 203.84 186.378 196.896C192.063 189.952 202.895 180.105 201.172 174.609C191.692 185.892 181.423 196.487 170.441 206.313C169.227 207.394 167.871 208.531 166.247 208.63C165.033 208.707 163.875 208.199 162.731 207.803C156.481 205.656 149.47 206.899 143.503 209.739C137.536 212.579 125.116 221.26 125.116 221.26Z" fill="#D6CEC6"/>
<path d="M102.681 218.976C91.8699 217.527 80.0707 223.638 70.3828 228.667C74.2594 219.88 73.6239 209.877 73.4685 200.277C73.3273 191.214 71.3078 178.915 73.5321 171.894C75.7775 171.76 77.5852 175.984 77.8323 178.216C79.0045 188.756 85.4867 199.217 95.5488 202.559C98.8111 203.647 102.299 203.964 105.547 205.116C113.301 207.871 125.015 221.236 125.015 221.236C125.015 222.557 119.656 221.257 102.681 218.976Z" fill="#D6CEC6"/>
<path d="M126.258 221.09C132.727 219.622 138.891 217.04 144.476 213.46C145.853 212.584 147.265 211.617 148.897 211.497C151.128 211.327 153.112 212.789 154.87 214.174L172.53 228.048C170.341 220.581 172.686 212.415 176.76 205.782C180.834 199.149 186.525 193.709 191.779 187.966C195.274 184.138 201.079 179.56 201.728 174.418C194.053 170.285 185.064 164.563 180.177 157.344C169.911 183.905 147.018 203.168 125.016 221.238L126.258 221.09Z" fill="#F0EEEF"/>
<path d="M73.5322 171.896C69.5285 173.507 79.28 208.325 76.7874 222.56C81.5396 218.745 98.437 205.768 105.202 207.125C110.01 208.092 120.199 220.271 125.015 221.239C117.721 211.667 106.946 201.198 101.381 190.531C95.8173 179.865 93.8543 168.562 94.2426 156.539C94.2426 156.539 83.3684 167.933 73.5322 171.896Z" fill="#F0EEEF"/>
<path d="M125.015 221.145C123.095 227.086 123.074 233.38 123.575 239.54C124.09 245.855 125.121 252.128 125.227 258.479C125.326 264.61 124.373 270.678 123.109 276.655C121.845 282.631 120.306 288.55 119.211 294.562C118.138 300.439 117.495 306.444 118.081 312.42C118.152 313.14 118.244 313.861 118.35 314.581C118.427 315.118 119.246 314.892 119.169 314.355C118.307 308.421 118.745 302.389 119.727 296.497C120.708 290.606 122.24 284.616 123.54 278.689C124.839 272.762 125.919 266.878 126.068 260.859C126.216 254.558 125.27 248.299 124.648 242.041C124.041 235.909 123.709 229.622 125.199 223.589C125.383 222.841 125.594 222.099 125.835 221.371C126.004 220.849 125.185 220.63 125.015 221.145Z" fill="#D6CEC6"/>
<path d="M154.702 93.0181C154.572 92.0592 160.565 88.726 165.441 90.4709C170.317 92.2159 172.343 96.1903 172.025 96.9922C171.39 98.5953 168.697 100.281 162.394 97.9253C158.88 96.3121 154.815 93.8523 154.702 93.0181Z" fill="url(#paint0_linear_1736_3827)"/>
<path d="M160.008 92.7603C160.709 90.6021 163.014 89.4148 165.156 90.1084C167.298 90.802 168.466 93.1138 167.765 95.272C167.064 97.4301 164.76 98.6174 162.617 97.9238C160.475 97.2303 159.307 94.9185 160.008 92.7603Z" fill="url(#paint1_linear_1736_3827)"/>
<path d="M160.795 96.8446C159.42 95.2315 159.612 92.7958 161.223 91.4044C162.834 90.013 165.255 90.1927 166.63 91.8058C168.005 93.4189 167.813 95.8545 166.202 97.2459C164.591 98.6374 162.17 98.4577 160.795 96.8446Z" fill="url(#paint2_linear_1736_3827)"/>
<path style="mix-blend-mode:multiply" d="M161.354 93.3277C161.33 93.7697 161.449 94.2006 161.696 94.566C161.942 94.9313 162.305 95.2146 162.738 95.3801C163.171 95.5456 163.655 95.5859 164.129 95.4957C164.603 95.4056 165.045 95.1891 165.4 94.8738C165.755 94.5584 166.006 94.1582 166.122 93.7239C166.238 93.2896 166.214 92.8407 166.052 92.4339C165.89 92.0271 165.598 91.6807 165.213 91.4385C164.828 91.1964 164.367 91.0693 163.889 91.0735C163.248 91.079 162.62 91.3196 162.145 91.7423C161.669 92.165 161.385 92.7353 161.354 93.3277Z" fill="url(#paint3_linear_1736_3827)"/>
<path d="M163.137 91.6181C162.821 91.7398 163.565 92.622 164.373 92.7763C165.095 92.9154 165.678 92.5165 165.687 92.3478C165.695 92.1791 164.383 91.1454 163.137 91.6181Z" fill="white"/>
<path d="M162.551 91.448C162.405 91.069 162.034 91.0261 161.908 91.248C161.781 91.4699 161.91 92.0457 162.085 92.0811C162.261 92.1165 162.632 91.6596 162.551 91.448Z" fill="white"/>
<path d="M153.591 93.1078C153.591 93.1078 158.112 86.819 166.21 89.6776C174.875 93.1053 177.943 100.849 177.943 100.849C177.943 100.849 174.776 99.6097 172.958 98.1175C170.689 96.2546 167.843 93.0356 162.826 90.452C159.813 89.4553 157.622 90.9972 155.541 92.2625C154.371 92.8648 153.591 93.1078 153.591 93.1078Z" fill="#A63344"/>
<path d="M171.83 97.1016L171.003 99.1024C171.003 99.1024 170.031 103.999 161.541 99.8915C159.871 99.2527 153.52 97.0417 154.889 95.1246L155.711 94.0292C155.711 94.0292 164.006 98.9656 171.83 97.1016Z" fill="#D0664B"/>
<path d="M155.542 92.2645C155.542 92.2645 160.088 88.516 165.297 91.8393C170.227 94.9842 171.596 98.1381 171.596 98.1381L177.944 100.852C177.944 100.852 173.124 98.0217 172.412 96.7567C171.462 95.0698 168.304 92.2644 165.298 90.7295C161.131 88.602 157.623 89.3606 155.542 92.2645Z" fill="#672F0F"/>
<path d="M155.539 92.2587C155.539 92.2587 155.337 94.0133 156.176 94.7087C156.176 94.7087 153.58 94.1695 153.589 93.1052C153.593 92.5731 155.539 92.2587 155.539 92.2587Z" fill="#D0664B"/>
<g style="mix-blend-mode:multiply" opacity="0.6">
<path d="M153.76 92.6262C152.309 94.8054 165.126 98.6723 177.944 100.85L172.025 96.996C172.025 96.996 171.866 93.4951 166.447 90.8747C161.027 88.2543 155.211 90.4469 153.76 92.6262Z" fill="#E2A7D2"/>
</g>
<path d="M132.266 88.1934C132.69 87.3045 127.919 82.211 122.65 82.3861C117.382 82.5612 114.184 85.7834 114.242 86.6592C114.359 88.4102 116.445 90.8812 123.286 90.558C127.194 90.087 131.898 88.9669 132.266 88.1934Z" fill="url(#paint4_linear_1736_3827)"/>
<path d="M127.205 86.2956C127.197 83.9861 125.332 82.1188 123.041 82.1251C120.749 82.1313 118.898 84.0086 118.907 86.3182C118.915 88.6277 120.78 90.495 123.071 90.4887C125.363 90.4825 127.214 88.6052 127.205 86.2956Z" fill="url(#paint5_linear_1736_3827)"/>
<path d="M125.172 90.0078C127.006 88.8719 127.578 86.4518 126.449 84.6024C125.32 82.753 122.918 82.1746 121.084 83.3105C119.25 84.4464 118.679 86.8664 119.808 88.7159C120.937 90.5653 123.339 91.1437 125.172 90.0078Z" fill="url(#paint6_linear_1736_3827)"/>
<path style="mix-blend-mode:multiply" d="M125.726 86.4202C125.611 86.8559 125.361 87.2365 125.009 87.5139C124.657 87.7914 124.217 87.9532 123.746 87.9789C123.274 88.0046 122.793 87.8931 122.362 87.6585C121.93 87.4238 121.569 87.0765 121.323 86.6606C121.078 86.2447 120.959 85.7787 120.981 85.3217C121.004 84.8648 121.167 84.4372 121.45 84.0933C121.733 83.7493 122.124 83.5043 122.572 83.3893C123.021 83.2744 123.507 83.2945 123.969 83.4473C124.589 83.652 125.122 84.0802 125.452 84.6377C125.781 85.1952 125.88 85.8364 125.726 86.4202Z" fill="url(#paint7_linear_1736_3827)"/>
<path d="M124.522 84.2212C124.79 84.4373 123.795 85.061 122.965 84.9596C122.221 84.8697 121.781 84.302 121.825 84.1358C121.869 83.9696 123.462 83.3757 124.522 84.2212Z" fill="white"/>
<path d="M125.145 84.2381C125.405 83.9162 125.778 83.99 125.831 84.2444C125.885 84.4988 125.581 85.0167 125.4 84.9965C125.219 84.9762 125.001 84.418 125.145 84.2381Z" fill="white"/>
<path d="M133.312 88.6292C133.312 88.6292 129.906 81.2501 122.148 81.3814C112.684 82.0093 108.938 88.214 108.938 88.214C108.938 88.214 110.758 88.344 112.984 87.463C115.762 86.3631 119.521 84.128 125.187 83.1841C128.417 83.1548 130.061 85.3303 131.684 87.2036C132.631 88.1509 133.312 88.6292 133.312 88.6292Z" fill="#A63344"/>
<path d="M114.396 86.8281L114.576 89.0242C114.576 89.0242 113.996 94.0726 123.501 92.7309C125.318 92.6309 132.16 92.4627 131.429 90.1791L130.974 88.862C130.974 88.862 121.4 91.0672 114.396 86.8281Z" fill="#D0664B"/>
<path d="M131.687 87.1958C131.687 87.1958 128.446 82.1495 122.365 83.7508C116.609 85.2661 114.302 87.897 114.302 87.897L108.938 88.2118C108.938 88.2118 112.857 87.3092 113.941 86.3046C115.385 84.9649 119.319 83.2281 122.709 82.6752C127.409 81.9087 130.572 83.7344 131.687 87.1958Z" fill="#672F0F"/>
<path d="M131.69 87.213C131.69 87.213 131.341 88.9766 130.31 89.3894C130.31 89.3894 132.994 89.6739 133.317 88.6399C133.478 88.1228 131.69 87.213 131.69 87.213Z" fill="#D0664B"/>
<g style="mix-blend-mode:multiply" opacity="0.6">
<path d="M133.202 88.2262C133.203 89.7811 128.365 91.1928 108.939 88.2255L114.241 86.6738C114.241 86.6738 115.483 83.3302 121.55 82.4755C127.617 81.6208 133.202 86.6713 133.202 88.2262Z" fill="#C9ABE3"/>
</g>
</g>
<defs>
<linearGradient id="paint0_linear_1736_3827" x1="160.692" y1="97.5655" x2="165.425" y2="89.8258" gradientUnits="userSpaceOnUse">
<stop stop-color="#EEE2FF"/>
<stop offset="1" stop-color="#BDC9FB"/>
</linearGradient>
<linearGradient id="paint1_linear_1736_3827" x1="160.729" y1="96.9895" x2="166.042" y2="90.7799" gradientUnits="userSpaceOnUse">
<stop stop-color="#471F4B"/>
<stop offset="1" stop-color="#310A39"/>
</linearGradient>
<linearGradient id="paint2_linear_1736_3827" x1="161.399" y1="97.5717" x2="166.408" y2="91.6721" gradientUnits="userSpaceOnUse">
<stop stop-color="#586655"/>
<stop offset="1" stop-color="#310A39"/>
</linearGradient>
<linearGradient id="paint3_linear_1736_3827" x1="163.655" y1="95.542" x2="163.618" y2="91.0757" gradientUnits="userSpaceOnUse">
<stop stop-color="#A79ABD"/>
<stop offset="0.99" stop-color="#724A60"/>
</linearGradient>
<linearGradient id="paint4_linear_1736_3827" x1="125.047" y1="90.7383" x2="122.867" y2="81.7658" gradientUnits="userSpaceOnUse">
<stop stop-color="#EEE2FF"/>
<stop offset="1" stop-color="#BDC9FB"/>
</linearGradient>
<linearGradient id="paint5_linear_1736_3827" x1="125.192" y1="90.1703" x2="121.973" y2="82.5004" gradientUnits="userSpaceOnUse">
<stop stop-color="#471F4B"/>
<stop offset="1" stop-color="#310A39"/>
</linearGradient>
<linearGradient id="paint6_linear_1736_3827" x1="124.361" y1="90.5246" x2="121.341" y2="83.2499" gradientUnits="userSpaceOnUse">
<stop stop-color="#586655"/>
<stop offset="1" stop-color="#310A39"/>
</linearGradient>
<linearGradient id="paint7_linear_1736_3827" x1="122.807" y1="87.8506" x2="124.231" y2="83.5338" gradientUnits="userSpaceOnUse">
<stop stop-color="#A79ABD"/>
<stop offset="0.99" stop-color="#724A60"/>
</linearGradient>
</defs>
</svg>
