<svg width="251" height="250" viewBox="0 0 251 250" fill="none" xmlns="http://www.w3.org/2000/svg">
<path d="M57.2732 69.0814C57.2732 41.0648 66.9986 15.3205 83.2575 -4.96094H29.2309C34.4429 2.64485 37.2247 11.6529 37.209 20.8731C37.209 44.7853 18.8772 64.4113 -4.5 66.4693V254.919H-4.49644V101.911C0.734904 106.897 4.67052 132.191 10.8186 135.999C25.7583 145.259 39.7157 157.516 46.2349 173.837C53.2278 191.345 50.8586 211.323 56.6093 229.278C59.4515 238.152 64.2369 246.405 68.0065 254.922H255.384V156.781C234.347 175.899 206.403 187.547 175.74 187.547C110.312 187.547 57.2732 134.508 57.2732 69.0814Z" fill="#150DCE"/>
<path d="M226.734 113.506C161.306 113.506 108.265 60.4665 108.265 -4.96094H83.2578C66.9989 15.3205 57.2734 41.0648 57.2734 69.0814C57.2734 134.508 110.313 187.547 175.74 187.547C206.404 187.547 234.347 175.897 255.384 156.781V110.017C246.011 112.341 236.39 113.512 226.734 113.506Z" fill="#66C3CD"/>
<path d="M255.504 255.041C254.697 253.445 254.166 250.97 253.692 248.718C252.837 244.658 253.771 242.357 252.686 238.36C252.192 236.544 250.406 237.868 249.569 235.745C248.189 232.261 247.659 225.221 247.02 222.189C246.536 219.898 246.877 218.001 245.856 215.893C245.186 214.507 243.469 212.821 242.66 211.512C236.271 201.178 234.593 193.115 227 179.803C225.695 179.682 223.237 180.342 221.997 179.916C219.154 178.939 217.314 175.507 214.455 174.486C209.033 172.549 202.576 172.976 197.128 170.961C193.129 169.483 190.176 166.657 186.18 165.184C183.035 164.024 178.843 164.212 175.709 163.078C171.548 161.573 167.4 160.106 163.267 158.679C163.271 153.016 160.703 147.405 156.429 143.691C156.6 143.406 156.377 143.007 156.151 142.734C148.584 133.649 135.434 131.329 123.667 132.486C111.899 133.644 102.123 136.445 90.3424 137.461L89.2262 137.746C85.0576 141.444 83.8837 147.091 83.9728 152.662C72.8604 153.92 64.5098 159.988 52.7984 165.016C52.1438 165.296 46.9908 169.131 45.0547 169.239C42.6698 169.372 41.0072 169.891 38.8125 170.833C30.469 174.415 21.8484 178.191 15.7815 184.946C8.18384 193.409 5.73343 205.302 5.11442 216.659C4.41448 229.57 5.68537 242.513 8.88335 255.041H255.504Z" fill="#FB2D5F"/>
<path d="M167.012 172.173L166.937 172.266C166.762 168.856 166.31 165.453 165.858 162.065C165.4 158.628 164.923 155.125 163.424 152C161.898 148.822 157.001 143.541 156.501 144.041C156.501 144.041 157.12 157.346 156.276 163.785C155.886 166.761 154.824 167.385 154.435 170.36C154.321 171.225 152.906 173.269 152.501 174.041C152.155 174.701 152.131 175.513 151.604 176.041C149.823 177.827 147.838 181.699 146.054 183.486C142.171 187.375 139.915 190.129 136.826 194.675C133.737 199.22 131.483 204.482 131.295 209.975C131.214 212.429 131.544 214.88 132.271 217.226C132.056 214.905 131.974 212.574 132.025 210.245C132.077 207.914 132.298 205.472 133.566 203.517C135.464 200.586 139.156 199.491 142.541 198.638C145.926 197.785 149.62 196.757 151.604 193.884C152.678 192.328 153.137 190.36 154.459 189.009C155.304 188.145 156.548 187.41 156.604 186.214C156.753 186.299 157.411 186.486 157.587 186.451C158.392 186.287 159.311 185.573 159.498 185.445C160.895 184.492 162.179 183.685 163.084 182.881C163.156 182.819 163.587 182.445 163.995 181.703C164.117 182.688 164.788 183.24 164.527 184.164C164.345 184.808 164.113 185.441 163.993 186.1C163.794 187.187 163.36 187.942 164.085 188.779C164.257 188.978 166.842 186.043 167.206 183.869C167.586 181.591 167.272 174.586 167.012 172.173Z" fill="black"/>
<path d="M29.7434 176.947C33.8179 179.819 37.8513 182.748 41.8437 185.734C44.3967 187.644 46.9504 189.593 49.0774 191.968C51.3611 194.521 53.1013 197.509 54.6856 200.546C59.8514 210.452 63.512 221.074 66.6256 231.804C68.7548 239.141 70.6431 246.575 71.53 254.162C70.7001 243.202 66.3143 232.884 62.7897 222.474C62.2911 221.01 61.811 219.52 61.7276 217.976C61.6628 216.784 61.8395 215.593 61.8409 214.399C61.8516 207.429 56.0874 201.732 54.8074 194.881C54.4184 192.8 54.4555 190.657 54.09 188.571C53.1427 183.169 49.6195 178.628 46.2096 174.333C45.1161 172.955 43.8824 171.487 42.1607 171.122C40.9661 170.868 39.7338 171.193 38.557 171.523C35.0816 172.486 31.262 173.707 29.4648 176.833" fill="black"/>
<path d="M87.9937 166.089C91.2889 171.137 97.3822 176.805 101.468 181.236L105.386 185.486C105.947 186.094 106.803 186.753 107.507 186.317C108.708 183.286 106.553 179.777 108.148 178.869C108.98 181.456 109.946 183.571 110.986 185.339C111.294 186.385 111.573 187.443 111.976 188.456C112.702 190.275 113.814 191.914 115.237 193.259C116.342 194.303 117.615 195.15 118.881 195.992L118.988 196.043C120.915 198.637 120.174 200.325 121.903 204.279C122.421 205.46 123.617 208.51 124.091 209.709C125.511 213.307 127.503 219.7 128.088 223.523L130.703 240.557C131.443 245.395 132.186 250.245 133.157 255.042H135.025C135.014 254.919 135.004 254.795 134.993 254.672C134.861 253.091 134.727 251.507 134.779 249.921C134.856 247.474 135.369 245.024 135.075 242.592C134.861 240.788 134.204 239.068 133.809 237.294C132.944 233.41 133.335 229.375 133.369 225.399C133.374 224.795 133.369 224.188 133.273 223.593C133.177 222.998 132.982 222.408 132.839 221.812C132.543 220.577 132.469 219.302 132.437 218.037C132.328 213.757 132.675 209.479 133.474 205.273C133.623 204.49 134.678 200.81 134.583 200.018C134.565 199.82 134.503 199.629 134.403 199.458C134.452 199.397 134.492 199.329 134.522 199.256C134.74 198.728 139.397 206.44 133.948 197.741C128.499 189.042 121.096 186.666 114.752 181.02C112.912 179.382 111.112 177.645 109.866 175.521C109.373 174.68 108.972 173.787 108.472 172.949C106.629 169.853 102.178 166.115 101.468 165.042C100.759 163.97 94.0678 155.552 93.499 154.542C92.9302 153.533 91.7028 150.831 90.9164 148.292C90.0196 145.399 89.4485 140.694 89.499 140.042C89.5496 139.391 89.2068 138.219 89.2068 138.219C85.8589 141.648 83.3657 150.969 83.885 155.733C84.4043 160.498 85.3752 162.077 87.9937 166.089Z" fill="black"/>
<path d="M137.115 206.207C138.096 213.045 140.556 219.684 142.211 226.437C144.499 235.769 145.257 245.43 145.011 255.043H153.661C152.576 250.84 151.155 246.625 150.744 242.344C150.467 239.45 150.655 236.528 150.388 233.633C150.084 230.304 149.186 227.061 148.292 223.839C145.893 215.192 143.495 206.545 141.097 197.898C138.581 197.887 136.381 200.016 135.798 202.463C135.216 204.911 136.012 207.528 137.402 209.623L137.115 206.207Z" fill="black"/>
<path d="M155.825 185.015C157.642 207.199 158.927 232.047 164.729 255.037H181.456C171.737 226.829 159.525 189.658 163.078 179.815C163.319 179.15 162.345 178.482 161.648 178.356C161.137 178.263 160.634 178.516 160.176 178.761L155.207 181.421C155.231 182.669 155.449 183.905 155.855 185.086L155.825 185.015Z" fill="black"/>
<path d="M184.841 195.897C185.633 198.331 187.176 200.492 187.774 202.981C188.461 205.836 190.59 220.14 191.523 223.662C194.292 234.119 194.834 244.72 195.971 255.042H209.643C210.117 252.62 210.483 250.183 210.48 247.721C210.471 239.262 206.17 231.485 203.875 223.343C202.293 217.734 201.654 211.878 199.829 206.344C198.167 201.298 195.555 196.63 193.184 191.876C188.955 183.405 185.452 174.591 182.713 165.529C182.428 164.582 182.051 163.518 181.141 163.13C180.688 162.937 180.177 162.953 179.685 162.971C176.323 163.099 177.534 165.157 174.173 165.285L174.072 166.592C176.511 169.953 180.489 181.015 181.514 186.604C182.069 189.596 183.904 193.004 184.841 195.897Z" fill="black"/>
<path d="M206.394 183.655C212.302 192.979 213.468 201.819 214.001 211.814C214.155 214.7 213.553 220.803 213.372 223.688C213.2 226.412 212.906 229.173 212.995 231.902C213.292 240.977 213.114 248.386 212.373 255.035H215.747C215.258 251.123 214.915 247.195 214.719 243.253C214.5 238.858 215.798 234.398 216.415 230.041C217.388 223.166 218.623 216.649 219.927 209.831C221.033 204.056 221.225 198.144 221.186 192.264C221.156 187.74 220.949 183.045 218.886 179.015C218.039 177.36 216.838 175.814 215.182 174.962C213.9 174.301 212.438 174.101 211.007 173.91L197.193 172.063L196.766 171.812C200.43 175.368 203.661 179.343 206.394 183.655Z" fill="black"/>
<path d="M225.444 194.667C226.805 195.094 227.288 196.749 227.434 198.166C227.84 202.108 227.286 206.247 228.784 209.915C229.227 211.001 229.842 212.017 230.195 213.136C231.178 216.246 230.053 219.851 231.539 222.752C231.984 223.623 232.647 224.687 232.055 225.466C231.823 225.772 231.45 225.928 231.126 226.133C229.834 226.952 229.307 228.608 229.322 230.138C229.337 231.667 229.788 233.156 230.004 234.67C230.646 239.163 229.235 243.904 230.683 248.205C231.059 249.319 231.621 250.374 231.882 251.522C232.14 252.688 232.08 253.901 231.709 255.036H244.246C242.452 252.957 242.03 249.794 243.222 247.319C243.495 246.749 243.848 246.209 243.98 245.594C244.105 245.015 244.025 244.414 243.945 243.827C243.291 239.04 242.636 234.253 241.982 229.467C241.777 227.962 241.578 226.385 242.111 224.963C242.601 223.656 243.693 222.291 243.074 221.04C241.572 220.332 240.825 218.651 240.283 217.081C237.918 210.218 237.066 202.767 233.501 196.445C234.065 194.097 232.954 191.445 230.884 190.202C229.373 189.296 227.863 189.181 227.612 187.436C227.424 186.129 228.64 184.076 227.478 183.447C226.889 183.13 225.872 183.732 225.5 184.285C225.127 184.838 225.163 186.369 225.098 187.034C224.817 189.878 223.873 190.471 223.593 193.315L223.43 194.112C223.715 194.931 224.618 194.409 225.444 194.667Z" fill="black"/>
<path d="M87.5991 125.523C87.1717 127.019 88.2259 128.474 88.8742 129.886C90.1257 132.613 89.0651 135.941 89.2524 138.933C89.4348 141.849 89.3065 142.862 89.9063 145.721C90.4762 148.436 92.6132 152.844 93.76 155.367C96.0986 160.507 100.573 164.301 104.025 168.77C107.406 173.15 109.896 178.298 114.078 181.922C117.295 184.71 121.307 186.406 124.763 188.896C127.264 190.702 129.45 192.908 131.233 195.426C132.209 196.807 133.143 198.347 134.678 199.059C134.611 198.189 135.161 197.404 135.693 196.713C142.574 187.791 151.451 179.902 154.926 169.183C158.193 159.116 156.144 148.162 157.206 137.632C151.705 136.597 146.133 138.427 140.626 139.423C121.998 142.794 103.925 135.922 87.9716 125.733L87.5991 125.523Z" fill="#E28300"/>
<path d="M124.198 28.8154C113.706 28.9992 107.515 30.4203 99.5599 37.2629C96.192 40.1593 92.953 44.5287 91.0661 48.5469C89.7212 51.4141 89.2696 54.6017 88.8343 57.7417L84.4642 89.2117C84.5248 87.4244 84.0368 85.6358 83.1307 84.0957C82.2246 82.5556 79.8782 82.9766 79.5399 84.7368C77.9507 92.9941 78.1865 96.3121 79.3461 104.641C79.4608 105.461 77.1842 109.669 79.7785 112.106C80.9239 113.182 85.4771 113.246 85.9836 113.641C86.7992 114.27 86.2215 116.835 86.1845 117.864C86.1026 120.16 86.728 121.871 87.5928 123.999C88.9747 127.402 88.429 131.811 89.5096 135.321C90.8574 139.701 97.0482 144.639 97.7498 145.671C101.269 150.849 111.585 152.35 116.199 153.951C119.808 155.204 123.708 155.257 127.525 155.262C131.87 155.268 140.007 153.593 144.009 151.906C150.043 149.361 150.328 145.214 153.936 139.748C159.024 132.039 164.228 124.047 165.843 114.953C167.381 115.479 169.109 114.495 169.967 113.115C170.826 111.734 171.022 110.056 171.198 108.44C171.801 102.902 172.404 97.3645 173.007 91.8273C173.192 90.1234 174.279 89.8164 173.678 86.4435C173.193 83.7167 168.967 86.0446 167.742 87.2428C167.943 84.0252 167.114 82.1332 167.038 79.6002C166.962 77.0672 167.792 74.0647 167.441 71.5552C167.186 69.743 166.936 65.4149 166.636 63.6105C166.262 61.3674 166.386 54.8126 165.429 52.7497C157.758 36.2044 147.83 26.1 129.327 29.1167L124.198 28.8154Z" fill="#E28300"/>
<path d="M107.232 122.305C112.321 123.45 117.572 121.023 122.774 121.406C123.453 121.456 124.139 121.554 124.809 121.438C125.479 121.322 125.546 120.896 125.898 120.834C126.318 120.879 126.439 121.336 126.812 121.403C129.071 121.812 131.891 121.443 134.346 122.05C135.073 122.23 135.77 122.527 136.501 122.691C138.27 123.082 140.126 122.663 141.915 122.93C142.265 122.982 142.621 123.06 142.97 123.001C143.319 122.942 143.667 122.697 143.718 122.346C142.418 121.594 140.678 122.027 139.382 121.27C138.813 120.936 138.385 120.405 137.954 119.904C136.363 118.067 134.375 116.466 132.021 115.86C129.668 115.254 127.848 115.807 126.288 117.671C126.105 117.891 125.903 118.25 125.439 118.191C125.266 118.169 124.548 117.381 124.42 117.257C124.042 116.892 123.042 116.327 121.792 115.949C120.484 115.554 118.084 115.985 116.849 116.573C115.615 117.161 114.516 117.992 113.333 118.676C111.516 119.727 111.254 121.108 107.605 121.279C107.338 121.292 107.098 121.522 106.999 121.771C106.9 122.02 107.085 122.304 107.229 122.311" fill="#DC3B63"/>
<path d="M108.312 122.398L111.358 123.467C112.182 123.757 113.01 124.048 113.775 124.469C114.333 124.775 114.852 125.148 115.408 125.458C116.724 126.192 118.211 126.559 119.687 126.867C120.535 127.043 121.397 127.203 122.258 127.182C122.979 127.163 123.69 127.019 124.407 126.946C125.955 126.786 127.519 126.957 129.055 127.202C129.63 127.294 130.206 127.395 130.787 127.391C132.029 127.382 133.209 126.892 134.353 126.406L142.637 122.899C140.674 122.138 138.511 122.136 136.434 121.786C135.554 121.639 134.687 121.43 133.82 121.217L128.37 119.892C127.624 119.711 126.874 119.529 126.104 119.516C125.254 119.503 124.418 119.697 123.576 119.795C122.249 119.949 120.906 119.862 119.576 119.973C115.736 120.291 112.121 122.23 108.268 122.209L108.312 122.398Z" fill="#FB2D33"/>
<path d="M118.82 108.282C117.63 108.873 116.582 108.742 115.359 108.224C114.748 107.96 114.199 107.569 113.75 107.077C113.301 106.585 112.963 106.003 112.756 105.369C112.684 105.173 112.653 104.965 112.665 104.757C112.692 104.553 112.772 104.359 112.897 104.196C113.364 103.555 114.202 103.317 114.976 103.135C116.211 102.843 117.552 102.585 118.713 103.097C119.029 103.246 119.331 103.425 119.614 103.631C121.487 104.919 123.397 106.446 125.669 106.552C129.458 106.724 129.596 102.664 136.326 103.001C136.604 103.015 136.889 103.044 137.137 103.172C137.343 103.287 137.523 103.445 137.664 103.635C137.958 104.013 138.16 104.454 138.254 104.924C138.347 105.394 138.329 105.88 138.201 106.342C137.938 107.259 137.204 108.258 136.305 108.579C136.046 108.672 134.438 109 134.25 108.812C133.94 108.502 134.57 108.028 133.986 107.534C133.007 106.711 131.506 106.779 130.312 107.239C129.119 107.699 128.423 108.768 127.307 109.56C127.017 109.766 125.978 109.973 125.775 109.974C125.018 109.979 124.812 109.959 124.099 109.707C122.99 109.313 122.46 108.075 121.584 107.292C120.708 106.51 119.376 106.066 118.207 105.952C117.958 105.928 117.217 106.139 117.009 106.279C116.801 106.418 116.713 106.906 116.853 107.114C116.983 107.306 117.25 107.334 117.482 107.344L118.526 107.388C118.718 107.396 118.918 107.406 119.086 107.499C119.254 107.592 119.432 107.82 119.32 107.976C119.193 108.133 119.017 108.24 118.82 108.282Z" fill="#870A2C"/>
<path d="M132.439 108.632C132.439 108.632 134.493 109.122 134.287 107.698C134.08 106.274 131.7 106.091 129.961 107.396L131.381 107.645C131.381 107.645 131.353 108.328 132.439 108.632Z" fill="black"/>
<path d="M118.39 108.021C118.39 108.021 116.073 108.102 116.605 106.614C117.136 105.126 120.062 105.533 121.65 107.315L119.744 107.188C119.744 107.188 119.627 107.929 118.39 108.021Z" fill="black"/>
<path d="M131.051 77.2692C131.039 77.7187 130.984 78.607 131.464 79.0194C132.053 79.5252 132.935 79.3948 133.698 79.2524C138.676 78.3263 143.758 78.139 148.818 77.9552L154.318 77.7551C155.814 77.7009 157.419 77.6767 158.664 78.5101C159.351 78.971 159.892 79.7702 159.761 80.5873C160.778 80.4156 161.257 79.1049 160.924 78.129C160.59 77.1531 159.713 76.4743 158.854 75.908C153.957 72.71 148.123 71.261 142.299 71.7964C140.045 72.0101 137.746 72.5586 135.942 73.9277L136.846 72.5672C135.992 72.8435 134.744 73.3557 134.043 73.9206C134.613 73.7518 134.842 72.456 134.848 71.8591C134.37 72.0457 132.765 73.2517 132.396 73.6064C131.641 74.3309 131.087 75.8189 131.051 77.2692Z" fill="black"/>
<path d="M115.047 77.7167C116.249 78.1441 117.326 78.5715 118.532 78.1633C119.738 77.7551 120.777 76.7137 120.954 75.45C121.115 74.2932 120.575 73.1706 120.05 72.1249C119.68 72.3558 119.384 72.6879 119.198 73.082C119.011 73.4761 118.941 73.9155 118.996 74.3481C118.795 73.8195 118.479 73.342 118.071 72.95C117.663 72.558 117.174 72.2611 116.638 72.0807C116.493 72.6081 116.518 73.1674 116.709 73.6799C114.857 71.84 112.131 71.258 109.568 70.7515C108.753 70.5912 107.929 70.431 107.103 70.4167C105.876 70.3954 104.651 70.6931 103.431 70.5592C102.3 70.4367 101.165 69.948 100.061 70.2237C99.4121 70.3861 98.8579 70.7935 98.3229 71.1989L95.8533 73.0509C95.0697 73.64 94.5426 74.6073 93.9756 75.4087C93.4086 76.2101 92.828 76.8904 93.1329 77.8235C93.67 78.2189 94.4315 78.1462 95.0398 77.8734C95.6481 77.6006 96.1638 77.161 96.7401 76.8234C97.9076 76.1431 99.2817 75.9209 100.627 75.7955C105.385 75.3591 110.181 75.9726 114.677 77.5927L115.047 77.7167Z" fill="black"/>
<path d="M88.0311 126.258C89.0944 130.914 91.3995 135.196 94.7013 138.647C95.4378 139.415 96.225 140.143 96.8568 140.998C97.5691 141.96 98.0678 143.064 98.7495 144.043C100.904 147.128 104.615 148.658 108.136 149.988C110.525 150.889 112.927 151.773 115.398 152.418C123.674 154.579 132.653 153.947 140.543 150.647C148.433 147.348 155.193 141.401 159.468 133.992C157.872 136.679 157.246 139.818 156.074 142.715C154.494 146.624 152.595 150.756 149.966 154.051C146.002 159.019 144.98 159.385 140.614 164.006C138.883 165.838 138.175 167.904 136.04 169.904C134.372 171.466 133.297 173.838 124.928 173.811C120.991 173.799 115.585 170.606 113.166 167.495C112.163 166.206 111.813 164.93 110.845 163.614C109.981 162.443 108.831 161.517 107.695 160.606C103.499 157.241 97.5962 153.683 95.1059 150.509C93.053 147.893 90.4622 140.54 89.97 138.24C89.1223 134.276 88.3582 130.295 87.6777 126.297" fill="#870A2C" fill-opacity="0.8"/>
<path d="M155.866 87.4083C155.866 87.4083 153.665 89.6443 148.885 89.7077C144.104 89.7711 139.323 88.7225 136.738 87.0329C136.738 87.0329 137.126 86.2009 138.001 85.1502C139.518 83.3309 142.498 80.8627 147.455 80.9474C154.331 81.0664 155.617 85.9701 155.83 87.1561C155.856 87.3164 155.866 87.4083 155.866 87.4083Z" fill="url(#paint0_linear_1708_11483)"/>
<path d="M145.9 89.7287C149.463 89.7287 152.352 87.25 152.352 84.1925C152.352 81.1349 149.463 78.6562 145.9 78.6562C142.336 78.6562 139.447 81.1349 139.447 84.1925C139.447 87.25 142.336 89.7287 145.9 89.7287Z" fill="url(#paint1_linear_1708_11483)"/>
<path d="M145.899 89.2843C149.178 89.2843 151.837 87.0031 151.837 84.189C151.837 81.375 149.178 79.0938 145.899 79.0938C142.619 79.0938 139.961 81.375 139.961 84.189C139.961 87.0031 142.619 89.2843 145.899 89.2843Z" fill="url(#paint2_linear_1708_11483)"/>
<path style="mix-blend-mode:multiply" d="M145.899 87.316C147.909 87.316 149.538 85.9179 149.538 84.1932C149.538 82.4685 147.909 81.0703 145.899 81.0703C143.889 81.0703 142.26 82.4685 142.26 84.1932C142.26 85.9179 143.889 87.316 145.899 87.316Z" fill="url(#paint3_linear_1708_11483)"/>
<g style="mix-blend-mode:multiply" opacity="0.6">
<path d="M155.829 87.1476C154.547 85.7129 152.024 84.0048 148.05 83.1016C143.134 81.986 138.271 84.851 138 85.1424C139.517 83.3231 142.497 80.8549 147.454 80.9396C154.329 81.0579 155.616 85.9615 155.829 87.1476Z" fill="#CF77B6"/>
</g>
<path d="M138.951 84.131C138.951 84.131 140.87 79.1304 146.761 78.4388C154.124 77.574 155.436 85.7893 155.436 85.7893C155.436 85.7893 149.8 76.2441 138.951 84.131Z" fill="#B11D51"/>
<path d="M139.326 88.2746C139.848 88.452 149.033 89.217 154.776 88.2034C154.931 88.1763 152.114 90.2848 147.98 90.2164C142.314 90.1252 139.326 88.2746 139.326 88.2746Z" fill="#870A2C"/>
<path d="M137.998 85.1484C137.998 85.1484 135.851 86.6144 135.871 87.1608C135.892 87.7071 138.118 87.7826 138.118 87.7826C138.118 87.7826 137.121 86.9991 137.231 86.6814C137.341 86.3637 137.998 85.1484 137.998 85.1484Z" fill="#870A2C"/>
<path d="M155.749 86.7743C155.749 86.7743 155.939 84.326 155.561 83.5018C155.184 82.6777 151.928 80.411 147.571 80.0114C143.214 79.6118 139.956 82.7361 138.232 84.8716C138.232 84.8716 143.383 80.3405 148.883 81.6882C154.384 83.036 155.749 86.7743 155.749 86.7743Z" fill="#2E031E"/>
<path d="M150.435 85.0509C150.191 85.172 153.021 86.6222 153.268 86.3829C153.514 86.1436 150.977 84.7809 150.435 85.0509Z" fill="white"/>
<path d="M148.344 84.0551C148.138 84.0636 147.952 84.5345 148.195 84.5395C148.438 84.5445 148.872 84.6228 148.926 84.4483C148.98 84.2738 148.62 84.0437 148.344 84.0551Z" fill="white"/>
<path d="M95.9805 84.5385C95.9805 84.5385 97.9273 86.897 102.676 87.4334C107.425 87.9698 112.293 87.4427 115.05 86.08C115.05 86.08 114.755 85.2444 113.997 84.1567C113.997 84.1567 113.997 84.1567 113.997 84.1524C112.685 82.2605 109.988 79.6021 105.047 79.1896C98.1937 78.6198 96.3829 83.1837 96.0432 84.2978C95.9997 84.4516 95.9805 84.5385 95.9805 84.5385Z" fill="url(#paint4_linear_1708_11483)"/>
<path d="M112.683 82.9129C112.894 79.9766 110.184 77.3892 106.629 77.1338C103.075 76.8784 100.023 79.0517 99.8117 81.988C99.6007 84.9243 102.311 87.5117 105.865 87.7671C109.42 88.0225 112.472 85.8492 112.683 82.9129Z" fill="url(#paint5_linear_1708_11483)"/>
<path d="M112.17 82.8799C112.364 80.1774 109.87 77.7961 106.599 77.5611C103.328 77.326 100.518 79.3262 100.324 82.0287C100.13 84.7311 102.624 87.1124 105.895 87.3475C109.166 87.5825 111.975 85.5823 112.17 82.8799Z" fill="url(#paint6_linear_1708_11483)"/>
<path style="mix-blend-mode:multiply" d="M109.832 82.0302C110.163 83.6771 108.825 85.1972 106.844 85.4266C104.863 85.656 102.989 84.5063 102.658 82.8622C102.327 81.2182 103.664 79.6952 105.645 79.4665C107.626 79.2379 109.498 80.384 109.832 82.0302Z" fill="url(#paint7_linear_1708_11483)"/>
<g style="mix-blend-mode:multiply" opacity="0.6">
<path d="M96.0449 84.2978C97.4788 83.0526 100.171 81.6685 104.222 81.1998C109.232 80.6207 113.761 83.8461 113.999 84.1524C112.686 82.2605 109.989 79.6021 105.049 79.1896C98.1954 78.6198 96.3847 83.1837 96.0449 84.2978Z" fill="#CF77B6"/>
</g>
<path d="M113.163 83.0885C113.163 83.0885 111.796 78.1122 106.01 76.8642C98.778 75.3042 96.584 83.0344 96.584 83.0344C96.584 83.0344 103.224 74.4558 113.163 83.0885Z" fill="#B11D51"/>
<path d="M112.341 87.0095C111.803 87.1278 102.582 86.9461 96.979 85.4068C96.8273 85.3655 99.4009 87.6635 103.522 88.0097C109.17 88.4869 112.341 87.0095 112.341 87.0095Z" fill="#870A2C"/>
<path d="M114 84.1562C114 84.1562 115.978 85.7725 115.898 86.2932C115.818 86.8139 113.596 86.6651 113.596 86.6651C113.596 86.6651 114.671 86.0169 114.597 85.6992C114.523 85.3815 114 84.1562 114 84.1562Z" fill="#870A2C"/>
<path d="M96.1641 83.9404C96.1641 83.9404 96.2417 81.5783 96.7061 80.8268C97.1706 80.0753 100.652 78.2303 105.033 78.2823C109.414 78.3343 112.313 81.6474 113.795 83.862C113.795 83.862 109.165 79.0182 103.544 79.7569C97.9228 80.4955 96.1641 83.9404 96.1641 83.9404Z" fill="#2E031E"/>
<path d="M101.641 82.8151C101.871 82.9576 98.8974 84.0617 98.6787 83.8081C98.46 83.5545 101.129 82.5031 101.641 82.8151Z" fill="white"/>
<path d="M103.827 82.0753C104.031 82.1038 104.165 82.5739 103.923 82.554C103.682 82.5341 103.24 82.5668 103.205 82.3937C103.17 82.2206 103.553 82.0376 103.827 82.0753Z" fill="white"/>
<path d="M85.4717 88.8131L89.1758 62.6208C90.0655 56.3288 91.0805 49.7277 94.9456 44.6858C96.2991 42.9178 97.9609 41.4091 99.5045 39.8007C100.536 38.7222 101.527 37.5846 102.744 36.7205C104.625 35.3856 106.921 34.7901 109.177 34.3107C120.615 31.8884 132.424 31.8029 143.896 34.0593C146.409 34.5579 148.929 35.1741 151.203 36.3558C155.05 38.3561 157.905 41.8052 160.649 45.1631C163.214 48.3037 165.915 51.7977 165.909 55.8537C165.909 57.3432 165.532 58.8042 165.374 60.2844C164.978 64.0006 165.961 67.7083 166.295 71.4302C166.924 78.431 165.266 85.6433 167.063 92.4382C166.84 84.4266 171.537 84.2549 170.91 78.3932C170.653 75.9777 171.131 71.094 171.091 68.6649C171.071 67.4874 170.359 66.7473 170.307 65.5713C170.259 64.5028 170.919 63.0233 170.651 61.9868C169.771 58.5769 168.885 55.1613 167.615 51.881C165.805 47.2096 163.192 42.8231 159.75 39.1816C156.95 36.2169 153.642 33.7879 150.32 31.423C148.387 30.0496 146.439 28.6912 144.37 27.5351C132.616 20.966 117.132 21.7745 106.13 29.5296C103.042 31.7065 100.32 34.3535 97.6126 36.9877C95.8026 38.7485 93.9918 40.5108 92.2936 42.3793C89.7599 45.1652 87.4498 48.2311 86.0707 51.7336C85.2017 53.9368 84.7173 56.2676 84.2308 58.5862L83.096 64.0298C82.8688 65.1225 82.6402 66.2224 82.6174 67.3379C82.5867 68.8715 82.9443 70.4308 82.591 71.9231C82.2932 73.1832 81.5068 74.2959 81.2832 75.5709C81.15 76.326 81.1364 79.2038 81.2119 79.9674C81.3401 81.3294 82.5354 82.2804 83.3724 83.5868L85.4717 88.8131Z" fill="black"/>
<path d="M105.249 121.76C106.032 119.945 107.842 118.768 109.697 118.082C111.551 117.396 113.53 117.092 115.389 116.418C116.819 115.9 118.174 115.165 119.651 114.8C121.127 114.435 122.818 114.499 124.003 115.452C124.323 115.71 124.6 116.026 124.955 116.235C125.98 116.835 127.294 116.351 128.303 115.72C129.311 115.089 130.308 114.285 131.496 114.243C132.336 114.214 133.134 114.576 133.895 114.93C137.123 116.431 140.544 118.105 142.344 121.175C142.737 121.846 143.048 122.577 143.576 123.148C144.324 123.958 145.486 124.421 145.926 125.433C146.348 126.288 147.921 125.469 148.672 124.84C149.334 124.283 148.848 123.495 148.631 122.617C148.503 122.099 148.186 120.605 148 120.105C147.74 119.41 147.769 119.364 147.53 118.662C146.575 115.844 144.206 113.895 141.446 112.786C139.869 112.152 139.462 112.24 137.876 111.629C136.468 111.087 134.9 109.414 133.498 108.858C132.096 108.303 130.478 108.036 129.098 108.645C127.84 109.2 126.868 110.438 125.5 110.586C123.95 110.753 122.671 109.465 121.226 108.876C120.494 108.584 119.704 108.467 118.919 108.534C118.133 108.602 117.375 108.852 116.703 109.265C116.053 109.673 115.504 110.226 114.864 110.651C111.861 112.645 107.748 112.025 104.989 114.345C103.921 115.242 102.933 116.086 102.88 117.479C102.865 117.845 101.954 119.041 101.748 119.323C101.055 120.271 101.748 121.867 102.774 122.444C103.8 123.021 104.644 123.309 105.096 122.225L105.249 121.76Z" fill="black"/>
<path d="M114.077 129.567C114.304 128.93 115.106 128.696 115.694 128.364C116.172 128.094 116.655 127.821 117.18 127.659C117.921 127.429 118.711 127.428 119.487 127.43L127.898 127.444C128.452 127.444 129.008 127.444 129.56 127.5C130.773 127.621 131.947 127.998 133.005 128.605C134.025 129.191 134.994 130.13 135.029 131.307C135.035 131.507 135.009 131.718 134.891 131.877C134.81 131.976 134.711 132.059 134.599 132.121C134.193 132.372 133.742 132.545 133.272 132.631C132.258 132.815 131.214 132.585 130.188 132.677C129.199 132.768 128.261 133.153 127.493 133.782C126.462 134.631 125.805 135.87 124.76 136.702C124.654 136.799 124.526 136.867 124.387 136.901C122.841 137.155 122.606 136.046 121.252 134.383C121.103 134.199 121.031 133.964 120.934 133.748C120.644 133.107 120.195 132.514 119.565 132.205C119.232 132.041 118.863 131.964 118.497 131.889C117.175 131.616 116.198 132.032 114.875 131.757C114.767 131.733 113.413 131.428 114.077 129.567Z" fill="black"/>
<path d="M85.471 88.8125C84.1247 95.8389 86.3087 103.741 88.6537 110.5C89.1139 111.827 89.6125 113.213 90.6532 114.155C92.6321 115.946 96.1531 115.77 97.4531 118.101C98.4696 119.922 97.6725 122.667 99.3472 123.911C100.187 124.535 101.328 124.481 102.352 124.695C106.076 125.47 108.016 129.786 107.957 133.589C107.926 135.59 107.682 137.996 109.293 139.184C110.635 140.174 112.505 139.698 114.112 139.255C120.322 137.538 127.214 136.994 133.009 139.809C134.861 140.709 136.623 141.269 138.681 141.244C142.093 141.204 143.152 138.133 144.112 134.858C145.072 131.584 144.084 130.435 146.274 127.819C149.509 123.955 158.279 121.494 161.672 117.768C163.51 115.748 163.274 113.112 163.973 110.472C164.375 108.955 165.696 107.362 165.783 105.795C166.135 99.5103 168.055 96.8198 167.053 92.4034C169.424 99.0038 166.592 105.638 166.135 112.633C165.963 115.277 165.526 117.445 164.928 120.025C164.201 123.168 162.815 126.484 161.57 129.428C158.906 135.724 156.2 142.095 152.053 147.53C149.064 151.444 145.392 154.785 141.215 157.393C138.906 158.833 136.442 160.045 133.832 160.819C125.865 163.18 117.066 161.221 109.897 157.019C102.729 152.817 96.9908 146.557 91.9333 139.965C91.6106 139.544 89.8675 136.895 89.8084 136.368C89.7493 135.84 88.7549 132.385 88.3502 129.63C88.0988 127.92 86.791 125.356 86.2382 121.132C86.1242 120.263 85.164 116.502 85.1519 115.627C85.1319 114.193 85.1369 111.294 84.8299 109.969C83.7978 105.512 83.7892 97.1197 83.8476 96.3261C83.8854 95.8154 84.2985 91.8962 84.966 90.5207L85.471 88.8125Z" fill="black"/>
<path d="M10.5692 191.535C11.8514 189.944 13.1699 188.37 14.6102 186.918C15.4194 186.102 16.2735 185.305 17.2416 184.68C17.7957 184.317 18.4013 184.04 19.0381 183.857C19.5417 183.715 20.0596 183.626 20.5589 183.469C21.2279 183.25 21.8609 182.933 22.4373 182.529C24.3492 181.229 26.1286 179.746 27.893 178.255C29.5136 176.886 31.127 175.47 32.8672 174.254C33.2484 173.986 33.6441 173.74 34.0525 173.516C34.403 173.325 34.8553 173.006 35.2542 172.968C35.8241 172.914 36.5051 173.186 37.0493 173.324C37.6106 173.466 38.2211 173.68 38.8059 173.68C39.3622 173.68 39.8438 173.088 40.1764 172.713C40.6922 172.129 41.1844 171.344 41.8974 170.982C42.3683 170.742 43.0101 170.712 43.5272 170.626C44.0857 170.53 44.6342 170.412 45.2019 170.483C46.155 170.599 47.0611 170.982 48.0227 171.047C48.7422 171.095 49.426 170.851 49.9923 170.414C51.1178 169.545 51.734 168.053 53.0674 167.447C53.4223 167.285 53.8095 167.206 54.1996 167.216C54.5897 167.226 54.9723 167.325 55.3184 167.505C55.9047 167.816 56.3648 168.312 56.8193 168.787C57.2531 169.237 57.6976 169.701 58.2475 170.011C58.8174 170.331 59.3872 170.376 60.0283 170.338C60.7008 170.299 61.3775 170.347 62.0492 170.292C62.743 170.236 63.4646 169.891 64.0259 169.492C65.1122 168.718 65.7355 167.541 66.1722 166.312C66.3417 165.839 66.4834 165.362 66.7299 164.921C67.2137 164.069 67.8418 163.308 68.5862 162.672C70.0615 161.396 72.0517 160.513 74.0327 160.761C75.1618 160.904 76.2951 161.276 77.3885 161.582C78.2967 161.836 79.1992 162.108 80.1089 162.357C81.3911 162.708 82.7673 163.061 84.1065 162.829C84.6912 162.722 85.2505 162.505 85.7555 162.192C85.7789 162.177 85.7956 162.154 85.8022 162.127C85.8087 162.1 85.8046 162.071 85.7907 162.048C85.7767 162.024 85.7541 162.006 85.7275 161.999C85.7008 161.991 85.6723 161.994 85.6479 162.007C84.4683 162.719 83.1762 162.791 81.8455 162.549C80.0647 162.223 78.3409 161.61 76.5964 161.144C75.5934 160.875 74.5541 160.535 73.5084 160.508C72.6046 160.496 71.7078 160.669 70.8728 161.015C69.1479 161.721 67.6897 162.953 66.7057 164.536C66.0988 165.521 65.8993 166.683 65.3295 167.69C64.5815 169.011 63.2537 170.046 61.6966 170.096C61.027 170.118 60.3581 170.123 59.69 170.15C58.9648 170.18 58.3287 169.879 57.7831 169.421C56.8293 168.621 56.0977 167.414 54.8248 167.085C53.3517 166.704 52.1891 167.637 51.3073 168.697C50.8371 169.259 50.3891 169.869 49.79 170.305C49.0563 170.838 48.2485 170.916 47.3766 170.742C46.4763 170.562 45.5531 170.188 44.6214 170.247C44.07 170.282 43.513 170.41 42.9702 170.511C42.5428 170.59 42.0727 170.628 41.693 170.856C41.0277 171.255 40.5618 171.956 40.0589 172.53C39.7939 172.831 39.5097 173.159 39.1571 173.36C38.922 173.495 38.739 173.477 38.4768 173.431C37.8122 173.321 37.1611 173.124 36.5065 172.966C36.0898 172.867 35.5028 172.65 35.0719 172.783C34.6188 172.926 34.1608 173.206 33.7512 173.439C33.3511 173.668 32.9635 173.919 32.5901 174.189C31.7973 174.759 31.0365 175.378 30.2765 175.991C28.5206 177.406 26.8366 178.906 25.0708 180.309C24.1448 181.046 23.1988 181.766 22.2129 182.423C21.8967 182.635 21.5647 182.824 21.2199 182.987C20.1963 183.46 19.0488 183.529 18.0237 184C17.2402 184.361 16.5364 184.882 15.881 185.438C14.6893 186.45 13.623 187.608 12.5951 188.781C11.8507 189.632 11.1298 190.502 10.4203 191.381C10.3341 191.488 10.4844 191.639 10.5713 191.532L10.5692 191.535Z" fill="black"/>
<path d="M164.255 160.931C165.794 161.046 167.326 161.219 168.853 161.449C169.6 161.563 170.344 161.691 171.087 161.832C171.663 161.942 172.323 162.065 172.73 162.527C173.136 162.989 173.157 163.667 173.359 164.22C173.51 164.63 173.726 165.013 174 165.353C174.564 166.057 175.344 166.55 176.175 166.881C178.222 167.696 180.399 167.516 182.515 167.141C185.181 166.669 188.142 165.97 190.651 167.384C192.574 168.469 193.903 170.331 195.765 171.503C196.742 172.118 197.846 172.424 198.971 172.643C200.176 172.875 201.401 172.999 202.624 173.096C205.198 173.295 207.772 173.54 210.322 173.946C211.391 174.117 212.463 174.313 213.513 174.587C214.246 174.779 215.021 174.993 215.67 175.397C216.067 175.642 216.383 176.015 216.712 176.337C217.253 176.859 217.797 177.378 218.346 177.893C219.357 178.839 220.385 179.769 221.456 180.649C222.333 181.369 223.237 182.068 224.215 182.65C224.884 183.049 225.627 183.439 226.412 183.532C226.689 183.57 226.97 183.547 227.236 183.465C227.367 183.423 227.311 183.217 227.18 183.259C226.498 183.481 225.74 183.188 225.126 182.899C224.188 182.452 223.328 181.842 222.506 181.212C220.236 179.473 218.251 177.432 216.155 175.498C215.705 175.083 215.101 174.857 214.529 174.664C213.631 174.362 212.699 174.159 211.769 173.982C209.318 173.515 206.828 173.243 204.344 173.023C203.103 172.913 201.858 172.839 200.621 172.685C199.384 172.53 198.099 172.329 196.933 171.868C194.855 171.044 193.454 169.146 191.71 167.832C190.793 167.142 189.782 166.655 188.647 166.458C187.317 166.226 185.962 166.349 184.638 166.555C182.246 166.926 179.89 167.574 177.469 167.05C176.492 166.837 175.523 166.461 174.749 165.816C174.39 165.52 174.085 165.164 173.847 164.764C173.562 164.281 173.455 163.763 173.305 163.232C173.162 162.725 172.911 162.3 172.445 162.033C171.96 161.756 171.384 161.672 170.843 161.572C169.388 161.302 167.924 161.086 166.451 160.922C165.72 160.841 164.988 160.773 164.255 160.719C164.118 160.708 164.118 160.922 164.255 160.933V160.931Z" fill="black"/>
<path d="M95.4363 199.176C97.5576 205.323 99.0343 209.991 99.5593 216.473C100.229 224.746 101.933 233.563 102.48 241.845C102.769 246.242 103.021 250.641 103.236 255.043H119.774C119.672 252.785 119.334 250.331 119.269 247.984C119.059 240.389 117.563 233.305 115.753 225.926C114.532 220.947 111.846 215.927 110.942 210.882C109.923 205.194 108.074 199.693 106.233 194.214C104.536 189.167 102.76 183.981 99.2807 179.952C97.6744 178.092 95.739 176.524 94.2446 174.574C92.3391 172.087 91.2343 169.093 89.6949 166.364C88.1556 163.634 84.5533 160.867 83.6985 161.387C82.333 162.219 79.0634 161.327 75.9805 161.086C80.0016 167.476 86.0528 175.234 89.1329 182.126C92.4716 189.605 93.5016 193.569 95.4363 199.176Z" fill="black"/>
<path d="M65.2768 196.03C66.3646 199.592 68.0407 202.958 69.102 206.53C70.3978 210.889 70.7532 215.464 71.1015 219.998L73.6275 252.894C73.6823 253.606 73.7443 254.34 73.8974 255.04H88.659C88.7303 253.259 88.6377 251.458 88.5415 249.675C87.7579 235.196 86.7258 220.643 83.2517 206.566C79.7777 192.488 74.4673 179.184 64.6899 168.476C63.3322 170.11 59.9365 169.544 58.5802 168.853C56.496 167.792 56.0999 166.551 53.834 167.133C55.5436 173.593 60.1737 178.901 62.4325 185.191C63.6948 188.709 64.1855 192.456 65.2768 196.03Z" fill="black"/>
<path d="M31.9646 220.433C33.3386 223.455 36.079 230.927 36.641 231.26C38.3675 232.273 40.2354 233.023 42.1829 233.485C42.7321 233.615 43.3112 233.733 43.75 234.092C44.1105 234.389 44.332 234.818 44.5336 235.241C46.2745 238.909 47.14 242.92 48.4307 246.77C49.3868 249.619 50.5779 252.384 51.9917 255.036H67.1693C67.0743 254.815 66.9746 254.598 66.8701 254.385C65.9839 252.599 64.7744 250.94 64.2979 249.004C63.6119 246.216 64.456 242.949 62.7393 240.648C61.0511 238.386 57.5664 238.09 55.8853 235.823C55.2249 234.932 54.9229 233.834 54.6344 232.765L51.5094 221.18C50.7814 218.48 50.0477 215.766 48.8596 213.235C46.7397 208.718 43.1317 204.584 43.0975 199.595C43.0854 197.808 43.5492 196.05 43.6467 194.265C43.7443 192.481 43.3967 190.53 42.0796 189.32C41.3673 188.665 40.4413 188.296 39.5409 187.945C35.0295 186.191 30.4706 184.561 25.8642 183.055L25.8186 183.066C24.6613 194.816 26.5209 206.666 31.2216 217.496C31.629 218.435 31.5421 219.504 31.9646 220.433Z" fill="black"/>
<path d="M16.1602 186.016C16.094 186.234 16.0284 186.452 15.9629 186.67C16.012 186.67 16.0619 186.67 16.1118 186.677L16.1602 186.016Z" fill="black"/>
<path d="M9.83201 235.947C12.4028 236.98 13.2825 238.834 13.8047 241.554C14.2627 243.945 15.77 245.166 16.493 247.492C17.2488 249.923 18.0459 252.502 18.8138 255.038H33.6416L28.911 242.018C28.1203 239.842 27.2164 237.517 25.2838 236.242C23.788 235.253 21.8483 235.031 20.4557 233.901C19.4477 233.08 18.843 231.872 18.3379 230.673C16.5892 226.519 15.7023 222.062 14.8205 217.638L13.8545 212.782C13.3759 210.373 12.8957 207.956 12.7376 205.506C12.3266 199.111 14.1174 192.812 15.9645 186.665C14.1309 186.621 12.5788 188.192 11.8429 189.893C11.0871 191.64 10.9098 193.585 10.2487 195.37C9.46516 197.475 7.2719 198.991 6.91075 201.211C4.17399 218.002 8.65952 228.051 9.08336 229.003C9.98516 231.032 10.9475 234.03 9.83201 235.947Z" fill="black"/>
<defs>
<linearGradient id="paint0_linear_1708_11483" x1="145.555" y1="90.0088" x2="148.012" y2="80.7279" gradientUnits="userSpaceOnUse">
<stop stop-color="#ECE0FF"/>
<stop offset="1" stop-color="#BBC7F9"/>
</linearGradient>
<linearGradient id="paint1_linear_1708_11483" x1="155.13" y1="90.4088" x2="142.721" y2="87.0827" gradientUnits="userSpaceOnUse">
<stop stop-color="#604300"/>
<stop offset="1" stop-color="#471400"/>
</linearGradient>
<linearGradient id="paint2_linear_1708_11483" x1="147.971" y1="92.3022" x2="150.046" y2="84.56" gradientUnits="userSpaceOnUse">
<stop stop-color="#925600"/>
<stop offset="1" stop-color="#2E0010"/>
</linearGradient>
<linearGradient id="paint3_linear_1708_11483" x1="148.341" y1="90.9279" x2="149.612" y2="86.183" gradientUnits="userSpaceOnUse">
<stop stop-color="#604300"/>
<stop offset="1" stop-color="#471400"/>
</linearGradient>
<linearGradient id="paint4_linear_1708_11483" x1="107.33" y1="90.6986" x2="105.94" y2="81.5239" gradientUnits="userSpaceOnUse">
<stop stop-color="#ECE0FF"/>
<stop offset="1" stop-color="#BBC7F9"/>
</linearGradient>
<linearGradient id="paint5_linear_1708_11483" x1="99.915" y1="83.4332" x2="112.568" y2="81.4812" gradientUnits="userSpaceOnUse">
<stop stop-color="#604300"/>
<stop offset="1" stop-color="#471400"/>
</linearGradient>
<linearGradient id="paint6_linear_1708_11483" x1="106.779" y1="85.9528" x2="105.608" y2="78.3595" gradientUnits="userSpaceOnUse">
<stop stop-color="#925600"/>
<stop offset="1" stop-color="#2E0010"/>
</linearGradient>
<linearGradient id="paint7_linear_1708_11483" x1="106.459" y1="84.9212" x2="105.753" y2="80.2591" gradientUnits="userSpaceOnUse">
<stop stop-color="#604300"/>
<stop offset="1" stop-color="#471400"/>
</linearGradient>
</defs>
</svg>
