<svg width="251" height="250" viewBox="0 0 251 250" fill="none" xmlns="http://www.w3.org/2000/svg">
<path d="M57.2732 69.0814C57.2732 41.0648 66.9986 15.3205 83.2575 -4.96094H29.2309C34.4429 2.64485 37.2247 11.6529 37.209 20.8731C37.209 44.7853 18.8772 64.4113 -4.5 66.4693V254.919H-4.49644V101.911C0.734904 106.897 4.67052 132.191 10.8186 135.999C25.7583 145.259 39.7157 157.516 46.2349 173.837C53.2278 191.345 50.8586 211.323 56.6093 229.278C59.4515 238.152 64.2369 246.405 68.0065 254.922H255.384V156.781C234.347 175.899 206.403 187.547 175.74 187.547C110.312 187.547 57.2732 134.508 57.2732 69.0814Z" fill="#150DCE"/>
<path d="M37.2129 20.8731C37.2276 11.6525 34.4445 2.64444 29.2313 -4.96094L-4.49609 -4.96094V66.4693C18.8811 64.4113 37.2129 44.7853 37.2129 20.8731Z" fill="#00007E"/>
<path d="M46.2317 173.832C39.7125 157.511 25.7551 145.252 10.819 135.994C4.67087 132.186 0.735249 106.896 -4.49609 101.906V254.918H68.0026C64.2337 246.4 59.4482 238.147 56.6053 229.274C50.8554 211.319 53.2246 191.341 46.2317 173.832Z" fill="#00007E"/>
<path d="M226.734 113.506C161.306 113.506 108.265 60.4665 108.265 -4.96094H83.2578C66.9989 15.3205 57.2734 41.0648 57.2734 69.0814C57.2734 134.508 110.313 187.547 175.74 187.547C206.404 187.547 234.347 175.897 255.384 156.781V110.017C246.011 112.341 236.39 113.512 226.734 113.506Z" fill="#66C3CD"/>
<path d="M226.734 113.506C236.39 113.512 246.012 112.34 255.384 110.015V-4.96094H108.266C108.266 60.4665 161.306 113.506 226.734 113.506Z" fill="#00007E"/>
<path d="M255.503 255.041C254.696 253.445 254.165 250.97 253.691 248.718C252.836 244.658 253.77 242.357 252.685 238.36C252.191 236.544 250.405 237.868 249.568 235.745C248.188 232.261 247.658 225.221 247.019 222.189C246.535 219.898 246.876 218.001 245.855 215.893C245.185 214.507 243.468 212.821 242.659 211.512C236.27 201.178 234.592 193.115 226.999 179.803C225.694 179.682 223.236 180.342 221.996 179.916C219.153 178.939 217.313 175.507 214.454 174.486C209.032 172.549 202.575 172.976 197.127 170.961C193.128 169.483 190.175 166.657 186.179 165.184C183.034 164.024 178.842 164.212 175.708 163.078C171.547 161.573 167.399 160.106 163.266 158.679C163.27 153.016 160.702 147.405 156.428 143.691C156.599 143.406 156.376 143.007 156.15 142.734C148.583 133.649 135.433 131.329 123.666 132.486C111.898 133.644 102.122 136.445 90.3414 137.461L89.2252 137.746C85.0567 141.444 83.8828 147.091 83.9718 152.662C72.8595 153.92 64.5088 159.988 52.7974 165.016C52.1428 165.296 46.9898 169.131 45.0537 169.239C42.6688 169.372 41.0063 169.891 38.8116 170.833C30.4681 174.415 21.8475 178.191 15.7806 184.946C8.18286 193.409 5.73245 205.302 5.11344 216.659C4.4135 229.57 5.68439 242.513 8.88237 255.041H255.503Z" fill="#FB2D5F"/>
<path d="M167.011 172.173L166.936 172.266C166.761 168.856 166.309 165.453 165.857 162.065C165.399 158.628 164.922 155.125 163.423 152C161.897 148.822 157 143.541 156.5 144.041C156.5 144.041 157.119 157.346 156.275 163.785C155.885 166.761 154.823 167.385 154.434 170.36C154.32 171.225 152.905 173.269 152.5 174.041C152.154 174.701 152.13 175.513 151.603 176.041C149.822 177.827 147.838 181.699 146.053 183.486C142.17 187.375 139.914 190.129 136.825 194.675C133.736 199.22 131.482 204.482 131.294 209.975C131.213 212.429 131.543 214.88 132.27 217.226C132.055 214.905 131.973 212.574 132.025 210.245C132.076 207.914 132.297 205.472 133.565 203.517C135.463 200.586 139.155 199.491 142.54 198.638C145.925 197.785 149.619 196.757 151.603 193.884C152.677 192.328 153.137 190.36 154.458 189.009C155.303 188.145 156.547 187.41 156.603 186.214C156.752 186.299 157.41 186.486 157.586 186.451C158.391 186.287 159.31 185.573 159.497 185.445C160.894 184.492 162.178 183.685 163.083 182.881C163.155 182.819 163.586 182.445 163.994 181.703C164.116 182.688 164.787 183.24 164.526 184.164C164.344 184.808 164.112 185.441 163.992 186.1C163.793 187.187 163.359 187.942 164.084 188.779C164.256 188.978 166.841 186.043 167.205 183.869C167.585 181.591 167.271 174.586 167.011 172.173Z" fill="black"/>
<path d="M29.7434 176.947C33.8179 179.819 37.8513 182.748 41.8437 185.734C44.3967 187.644 46.9504 189.593 49.0774 191.968C51.3611 194.521 53.1013 197.509 54.6856 200.546C59.8514 210.452 63.512 221.074 66.6256 231.804C68.7548 239.141 70.6431 246.575 71.53 254.162C70.7001 243.202 66.3143 232.884 62.7897 222.474C62.2911 221.01 61.811 219.52 61.7276 217.976C61.6628 216.784 61.8395 215.593 61.8409 214.399C61.8516 207.429 56.0874 201.732 54.8074 194.881C54.4184 192.8 54.4555 190.657 54.09 188.571C53.1427 183.169 49.6195 178.628 46.2096 174.333C45.1161 172.955 43.8824 171.487 42.1607 171.122C40.9661 170.868 39.7338 171.193 38.557 171.523C35.0816 172.486 31.262 173.707 29.4648 176.833" fill="black"/>
<path d="M87.9947 166.089C91.2899 171.137 97.3832 176.805 101.469 181.236L105.387 185.486C105.948 186.094 106.804 186.753 107.508 186.317C108.709 183.286 106.554 179.777 108.149 178.869C108.981 181.456 109.947 183.571 110.987 185.339C111.295 186.385 111.573 187.443 111.977 188.456C112.702 190.275 113.815 191.914 115.238 193.259C116.343 194.303 117.616 195.15 118.882 195.992L118.989 196.043C120.916 198.637 120.175 200.325 121.904 204.279C122.422 205.46 123.618 208.51 124.092 209.709C125.512 213.307 127.504 219.7 128.089 223.523L130.704 240.557C131.444 245.395 132.187 250.245 133.158 255.042H135.025C135.015 254.919 135.005 254.795 134.994 254.672C134.862 253.091 134.728 251.507 134.78 249.921C134.857 247.474 135.37 245.024 135.076 242.592C134.862 240.788 134.205 239.068 133.81 237.294C132.945 233.41 133.336 229.375 133.37 225.399C133.375 224.795 133.37 224.188 133.274 223.593C133.178 222.998 132.983 222.408 132.84 221.812C132.544 220.577 132.47 219.302 132.438 218.037C132.329 213.757 132.676 209.479 133.475 205.273C133.624 204.49 134.679 200.81 134.584 200.018C134.566 199.82 134.504 199.629 134.404 199.458C134.453 199.397 134.493 199.329 134.523 199.256C134.741 198.728 139.398 206.44 133.949 197.741C128.5 189.042 121.097 186.666 114.753 181.02C112.913 179.382 111.113 177.645 109.867 175.521C109.374 174.68 108.973 173.787 108.473 172.949C106.63 169.853 102.179 166.115 101.469 165.042C100.76 163.97 94.0688 155.552 93.5 154.542C92.9312 153.533 91.7038 150.831 90.9174 148.292C90.0205 145.399 89.4494 140.694 89.5 140.042C89.5506 139.391 89.2078 138.219 89.2078 138.219C85.8598 141.648 83.3667 150.969 83.886 155.733C84.4053 160.498 85.3762 162.077 87.9947 166.089Z" fill="black"/>
<path d="M137.115 206.207C138.096 213.045 140.556 219.684 142.211 226.437C144.499 235.769 145.257 245.43 145.011 255.043H153.661C152.576 250.84 151.155 246.625 150.744 242.344C150.467 239.45 150.655 236.528 150.388 233.633C150.084 230.304 149.186 227.061 148.292 223.839C145.893 215.192 143.495 206.545 141.097 197.898C138.581 197.887 136.381 200.016 135.798 202.463C135.216 204.911 136.012 207.528 137.402 209.623L137.115 206.207Z" fill="black"/>
<path d="M155.826 185.015C157.643 207.199 158.928 232.047 164.73 255.037H181.457C171.738 226.829 159.526 189.658 163.079 179.815C163.32 179.15 162.346 178.482 161.649 178.356C161.138 178.263 160.635 178.516 160.177 178.761L155.208 181.421C155.232 182.669 155.45 183.905 155.856 185.086L155.826 185.015Z" fill="black"/>
<path d="M184.84 195.897C185.632 198.331 187.175 200.492 187.773 202.981C188.46 205.836 190.589 220.14 191.522 223.662C194.291 234.119 194.833 244.72 195.97 255.042H209.642C210.116 252.62 210.482 250.183 210.479 247.721C210.47 239.262 206.169 231.485 203.874 223.343C202.292 217.734 201.653 211.878 199.828 206.344C198.166 201.298 195.554 196.63 193.183 191.876C188.954 183.405 185.451 174.591 182.712 165.529C182.427 164.582 182.05 163.518 181.14 163.13C180.687 162.937 180.176 162.953 179.684 162.971C176.322 163.099 177.533 165.157 174.172 165.285L174.071 166.592C176.51 169.953 180.488 181.015 181.513 186.604C182.068 189.596 183.903 193.004 184.84 195.897Z" fill="black"/>
<path d="M206.394 183.655C212.302 192.979 213.468 201.819 214.001 211.814C214.155 214.7 213.553 220.803 213.372 223.688C213.2 226.412 212.906 229.173 212.995 231.902C213.292 240.977 213.114 248.386 212.373 255.035H215.747C215.258 251.123 214.915 247.195 214.719 243.253C214.5 238.858 215.798 234.398 216.415 230.041C217.388 223.166 218.623 216.649 219.927 209.831C221.033 204.056 221.225 198.144 221.186 192.264C221.156 187.74 220.949 183.045 218.886 179.015C218.039 177.36 216.838 175.814 215.182 174.962C213.9 174.301 212.438 174.101 211.007 173.91L197.193 172.063L196.766 171.812C200.43 175.368 203.661 179.343 206.394 183.655Z" fill="black"/>
<path d="M225.443 194.667C226.804 195.094 227.287 196.749 227.433 198.166C227.839 202.108 227.285 206.247 228.783 209.915C229.226 211.001 229.841 212.017 230.194 213.136C231.177 216.246 230.052 219.851 231.538 222.752C231.983 223.623 232.646 224.687 232.054 225.466C231.822 225.772 231.449 225.928 231.125 226.133C229.833 226.952 229.306 228.608 229.321 230.138C229.336 231.667 229.787 233.156 230.004 234.67C230.645 239.163 229.234 243.904 230.682 248.205C231.058 249.319 231.62 250.374 231.881 251.522C232.139 252.688 232.079 253.901 231.708 255.036H244.245C242.451 252.957 242.029 249.794 243.221 247.319C243.494 246.749 243.847 246.209 243.979 245.594C244.104 245.015 244.024 244.414 243.944 243.827C243.29 239.04 242.635 234.253 241.981 229.467C241.776 227.962 241.577 226.385 242.11 224.963C242.6 223.656 243.692 222.291 243.073 221.04C241.571 220.332 240.824 218.651 240.282 217.081C237.917 210.218 237.065 202.767 233.5 196.445C234.065 194.097 232.953 191.445 230.883 190.202C229.372 189.296 227.862 189.181 227.611 187.436C227.423 186.129 228.639 184.076 227.477 183.447C226.888 183.13 225.871 183.732 225.499 184.285C225.126 184.838 225.163 186.369 225.097 187.034C224.816 189.878 223.872 190.471 223.592 193.315L223.429 194.112C223.714 194.931 224.617 194.409 225.443 194.667Z" fill="black"/>
<path d="M87.5981 125.523C87.1707 127.019 88.225 128.474 88.8732 129.886C90.1247 132.613 89.0641 135.941 89.2514 138.933C89.4338 141.849 89.3056 142.862 89.9054 145.721C90.4752 148.436 92.6122 152.844 93.759 155.367C96.0976 160.507 100.572 164.301 104.024 168.77C107.405 173.15 109.895 178.298 114.077 181.922C117.294 184.71 121.306 186.406 124.762 188.896C127.263 190.702 129.449 192.908 131.232 195.426C132.208 196.807 133.142 198.347 134.677 199.059C134.61 198.189 135.16 197.404 135.692 196.713C142.574 187.791 151.45 179.902 154.925 169.183C158.192 159.116 156.143 148.162 157.205 137.632C151.704 136.597 146.132 138.427 140.625 139.423C121.997 142.794 103.924 135.922 87.9707 125.733L87.5981 125.523Z" fill="#E28300"/>
<path d="M124.198 28.8154C113.706 28.9992 107.515 30.4203 99.5599 37.2629C96.192 40.1593 92.953 44.5287 91.0661 48.5469C89.7212 51.4141 89.2696 54.6017 88.8343 57.7417L84.4642 89.2117C84.5248 87.4244 84.0368 85.6358 83.1307 84.0957C82.2246 82.5556 79.8782 82.9766 79.5399 84.7368C77.9507 92.9941 78.1865 96.3121 79.3461 104.641C79.4608 105.461 77.1842 109.669 79.7785 112.106C80.9239 113.182 85.4771 113.246 85.9836 113.641C86.7992 114.27 86.2215 116.835 86.1845 117.864C86.1026 120.16 86.728 121.871 87.5928 123.999C88.9747 127.402 88.429 131.811 89.5096 135.321C90.8574 139.701 97.0482 144.639 97.7498 145.671C101.269 150.849 111.585 152.35 116.199 153.951C119.808 155.204 123.708 155.257 127.525 155.262C131.87 155.268 140.007 153.593 144.009 151.906C150.043 149.361 150.328 145.214 153.936 139.748C159.024 132.039 164.228 124.047 165.843 114.953C167.381 115.479 169.109 114.495 169.967 113.115C170.826 111.734 171.022 110.056 171.198 108.44C171.801 102.902 172.404 97.3645 173.007 91.8273C173.192 90.1234 174.279 89.8164 173.678 86.4435C173.193 83.7167 168.967 86.0446 167.742 87.2428C167.943 84.0252 167.114 82.1332 167.038 79.6002C166.962 77.0672 167.792 74.0647 167.441 71.5552C167.186 69.743 166.936 65.4149 166.636 63.6105C166.262 61.3674 166.386 54.8126 165.429 52.7497C157.758 36.2044 147.83 26.1 129.327 29.1167L124.198 28.8154Z" fill="#E28300"/>
<path d="M107.233 122.305C112.322 123.45 117.573 121.023 122.775 121.406C123.454 121.456 124.14 121.554 124.81 121.438C125.48 121.322 125.547 120.896 125.899 120.834C126.319 120.879 126.44 121.336 126.813 121.403C129.072 121.812 131.892 121.443 134.347 122.05C135.074 122.23 135.771 122.527 136.502 122.691C138.271 123.082 140.127 122.663 141.916 122.93C142.266 122.982 142.622 123.06 142.971 123.001C143.32 122.942 143.668 122.697 143.719 122.346C142.419 121.594 140.679 122.027 139.383 121.27C138.814 120.936 138.386 120.405 137.955 119.904C136.364 118.067 134.376 116.466 132.022 115.86C129.669 115.254 127.849 115.807 126.289 117.671C126.106 117.891 125.904 118.25 125.44 118.191C125.266 118.169 124.549 117.381 124.421 117.257C124.043 116.892 123.043 116.327 121.793 115.949C120.485 115.554 118.085 115.985 116.85 116.573C115.616 117.161 114.517 117.992 113.334 118.676C111.517 119.727 111.255 121.108 107.606 121.279C107.339 121.292 107.099 121.522 107 121.771C106.901 122.02 107.086 122.304 107.23 122.311" fill="#DC3B63"/>
<path d="M108.311 122.398L111.357 123.467C112.181 123.757 113.009 124.048 113.774 124.469C114.332 124.775 114.851 125.148 115.407 125.458C116.723 126.192 118.21 126.559 119.686 126.867C120.534 127.043 121.396 127.203 122.257 127.182C122.978 127.163 123.689 127.019 124.406 126.946C125.954 126.786 127.518 126.957 129.054 127.202C129.629 127.294 130.205 127.395 130.786 127.391C132.028 127.382 133.208 126.892 134.352 126.406L142.636 122.899C140.673 122.138 138.51 122.136 136.433 121.786C135.553 121.639 134.686 121.43 133.819 121.217L128.369 119.892C127.623 119.711 126.873 119.529 126.103 119.516C125.254 119.503 124.417 119.697 123.575 119.795C122.248 119.949 120.905 119.862 119.575 119.973C115.735 120.291 112.12 122.23 108.267 122.209L108.311 122.398Z" fill="#FB2D33"/>
<path d="M118.82 108.282C117.63 108.873 116.582 108.742 115.359 108.224C114.748 107.96 114.199 107.569 113.75 107.077C113.301 106.585 112.963 106.003 112.756 105.369C112.684 105.173 112.653 104.965 112.665 104.757C112.692 104.553 112.772 104.359 112.897 104.196C113.364 103.555 114.202 103.317 114.976 103.135C116.211 102.843 117.552 102.585 118.713 103.097C119.029 103.246 119.331 103.425 119.614 103.631C121.487 104.919 123.397 106.446 125.669 106.552C129.458 106.724 129.596 102.664 136.326 103.001C136.604 103.015 136.889 103.044 137.137 103.172C137.343 103.287 137.523 103.445 137.664 103.635C137.958 104.013 138.16 104.454 138.254 104.924C138.347 105.394 138.329 105.88 138.201 106.342C137.938 107.259 137.204 108.258 136.305 108.579C136.046 108.672 134.438 109 134.25 108.812C133.94 108.502 134.57 108.028 133.986 107.534C133.007 106.711 131.506 106.779 130.312 107.239C129.119 107.699 128.423 108.768 127.307 109.56C127.017 109.766 125.978 109.973 125.775 109.974C125.018 109.979 124.812 109.959 124.099 109.707C122.99 109.313 122.46 108.075 121.584 107.292C120.708 106.51 119.376 106.066 118.207 105.952C117.958 105.928 117.217 106.139 117.009 106.279C116.801 106.418 116.713 106.906 116.853 107.114C116.983 107.306 117.25 107.334 117.482 107.344L118.526 107.388C118.718 107.396 118.918 107.406 119.086 107.499C119.254 107.592 119.432 107.82 119.32 107.976C119.193 108.133 119.017 108.24 118.82 108.282Z" fill="#870A2C"/>
<path d="M132.439 108.632C132.439 108.632 134.493 109.122 134.287 107.698C134.08 106.274 131.7 106.091 129.961 107.396L131.381 107.645C131.381 107.645 131.353 108.328 132.439 108.632Z" fill="black"/>
<path d="M118.39 108.021C118.39 108.021 116.073 108.102 116.605 106.614C117.136 105.126 120.062 105.533 121.65 107.315L119.744 107.188C119.744 107.188 119.627 107.929 118.39 108.021Z" fill="black"/>
<path d="M131.051 77.2692C131.039 77.7187 130.984 78.607 131.464 79.0194C132.053 79.5252 132.935 79.3948 133.698 79.2524C138.676 78.3263 143.758 78.139 148.818 77.9552L154.318 77.7551C155.814 77.7009 157.419 77.6767 158.664 78.5101C159.351 78.971 159.892 79.7702 159.761 80.5873C160.778 80.4156 161.257 79.1049 160.924 78.129C160.59 77.1531 159.713 76.4743 158.854 75.908C153.957 72.71 148.123 71.261 142.299 71.7964C140.045 72.0101 137.746 72.5586 135.942 73.9277L136.846 72.5672C135.992 72.8435 134.744 73.3557 134.043 73.9206C134.613 73.7518 134.842 72.456 134.848 71.8591C134.37 72.0457 132.765 73.2517 132.396 73.6064C131.641 74.3309 131.087 75.8189 131.051 77.2692Z" fill="black"/>
<path d="M115.047 77.7167C116.249 78.1441 117.326 78.5715 118.532 78.1633C119.738 77.7551 120.777 76.7137 120.954 75.45C121.115 74.2932 120.575 73.1706 120.05 72.1249C119.68 72.3558 119.384 72.6879 119.198 73.082C119.011 73.4761 118.941 73.9155 118.996 74.3481C118.795 73.8195 118.479 73.342 118.071 72.95C117.663 72.558 117.174 72.2611 116.638 72.0807C116.493 72.6081 116.518 73.1674 116.709 73.6799C114.857 71.84 112.131 71.258 109.568 70.7515C108.753 70.5912 107.929 70.431 107.103 70.4167C105.876 70.3954 104.651 70.6931 103.431 70.5592C102.3 70.4367 101.165 69.948 100.061 70.2237C99.4121 70.3861 98.8579 70.7935 98.3229 71.1989L95.8533 73.0509C95.0697 73.64 94.5426 74.6073 93.9756 75.4087C93.4086 76.2101 92.828 76.8904 93.1329 77.8235C93.67 78.2189 94.4315 78.1462 95.0398 77.8734C95.6481 77.6006 96.1638 77.161 96.7401 76.8234C97.9076 76.1431 99.2817 75.9209 100.627 75.7955C105.385 75.3591 110.181 75.9726 114.677 77.5927L115.047 77.7167Z" fill="black"/>
<path d="M88.0301 126.258C89.0935 130.914 91.3985 135.196 94.7003 138.647C95.4369 139.415 96.224 140.143 96.8558 140.998C97.5682 141.96 98.0668 143.064 98.7485 144.043C100.903 147.128 104.615 148.658 108.135 149.988C110.524 150.889 112.926 151.773 115.397 152.418C123.673 154.579 132.652 153.947 140.542 150.647C148.432 147.348 155.192 141.401 159.467 133.992C157.871 136.679 157.245 139.818 156.073 142.715C154.493 146.624 152.594 150.756 149.965 154.051C146.001 159.019 144.979 159.385 140.613 164.006C138.883 165.838 138.174 167.904 136.039 169.904C134.371 171.466 133.296 173.838 124.927 173.811C120.99 173.799 115.584 170.606 113.165 167.495C112.162 166.206 111.812 164.93 110.844 163.614C109.98 162.443 108.83 161.517 107.694 160.606C103.498 157.241 97.5952 153.683 95.1049 150.509C93.052 147.893 90.4613 140.54 89.969 138.24C89.1214 134.276 88.3573 130.295 87.6768 126.297" fill="#870A2C" fill-opacity="0.8"/>
<path d="M155.866 87.4083C155.866 87.4083 153.665 89.6443 148.885 89.7077C144.104 89.7711 139.323 88.7225 136.738 87.0329C136.738 87.0329 137.126 86.2009 138.001 85.1502C139.518 83.3309 142.498 80.8627 147.455 80.9474C154.331 81.0664 155.617 85.9701 155.83 87.1561C155.856 87.3164 155.866 87.4083 155.866 87.4083Z" fill="url(#paint0_linear_1409_8501)"/>
<path d="M145.901 89.7287C149.464 89.7287 152.353 87.25 152.353 84.1925C152.353 81.1349 149.464 78.6562 145.901 78.6562C142.337 78.6562 139.448 81.1349 139.448 84.1925C139.448 87.25 142.337 89.7287 145.901 89.7287Z" fill="url(#paint1_linear_1409_8501)"/>
<path d="M145.901 89.2843C149.18 89.2843 151.839 87.0031 151.839 84.189C151.839 81.375 149.18 79.0938 145.901 79.0938C142.621 79.0938 139.963 81.375 139.963 84.189C139.963 87.0031 142.621 89.2843 145.901 89.2843Z" fill="url(#paint2_linear_1409_8501)"/>
<path style="mix-blend-mode:multiply" d="M145.9 87.316C147.91 87.316 149.539 85.9179 149.539 84.1932C149.539 82.4685 147.91 81.0703 145.9 81.0703C143.89 81.0703 142.261 82.4685 142.261 84.1932C142.261 85.9179 143.89 87.316 145.9 87.316Z" fill="url(#paint3_linear_1409_8501)"/>
<g style="mix-blend-mode:multiply" opacity="0.6">
<path d="M155.83 87.1476C154.548 85.7129 152.025 84.0048 148.051 83.1016C143.135 81.986 138.272 84.851 138.001 85.1424C139.518 83.3231 142.498 80.8549 147.455 80.9396C154.33 81.0579 155.617 85.9615 155.83 87.1476Z" fill="#CF77B6"/>
</g>
<path d="M138.951 84.131C138.951 84.131 140.87 79.1304 146.761 78.4388C154.124 77.574 155.436 85.7893 155.436 85.7893C155.436 85.7893 149.8 76.2441 138.951 84.131Z" fill="#B11D51"/>
<path d="M139.326 88.2746C139.848 88.452 149.033 89.217 154.776 88.2034C154.931 88.1763 152.114 90.2848 147.98 90.2164C142.314 90.1252 139.326 88.2746 139.326 88.2746Z" fill="#870A2C"/>
<path d="M137.998 85.1484C137.998 85.1484 135.851 86.6144 135.871 87.1608C135.892 87.7071 138.118 87.7826 138.118 87.7826C138.118 87.7826 137.121 86.9991 137.231 86.6814C137.341 86.3637 137.998 85.1484 137.998 85.1484Z" fill="#870A2C"/>
<path d="M155.749 86.7743C155.749 86.7743 155.939 84.326 155.561 83.5018C155.184 82.6777 151.928 80.411 147.571 80.0114C143.214 79.6118 139.956 82.7361 138.232 84.8716C138.232 84.8716 143.383 80.3405 148.883 81.6882C154.384 83.036 155.749 86.7743 155.749 86.7743Z" fill="#2E031E"/>
<path d="M150.435 85.0509C150.191 85.172 153.021 86.6222 153.268 86.3829C153.514 86.1436 150.977 84.7809 150.435 85.0509Z" fill="white"/>
<path d="M148.344 84.0551C148.138 84.0636 147.952 84.5345 148.195 84.5395C148.438 84.5445 148.872 84.6228 148.926 84.4483C148.98 84.2738 148.62 84.0437 148.344 84.0551Z" fill="white"/>
<path d="M95.9805 84.5307C95.9805 84.5307 97.9273 86.8892 102.676 87.4256C107.425 87.962 112.293 87.4349 115.05 86.0722C115.05 86.0722 114.755 85.2366 113.997 84.1489C113.997 84.1489 113.997 84.1489 113.997 84.1446C112.685 82.2527 109.988 79.5943 105.047 79.1818C98.1937 78.612 96.3829 83.1759 96.0432 84.2899C95.9997 84.4438 95.9805 84.5307 95.9805 84.5307Z" fill="url(#paint4_linear_1409_8501)"/>
<path d="M112.684 82.9129C112.895 79.9766 110.185 77.3892 106.63 77.1338C103.076 76.8784 100.024 79.0517 99.8127 81.988C99.6017 84.9243 102.312 87.5117 105.866 87.7671C109.421 88.0225 112.473 85.8492 112.684 82.9129Z" fill="url(#paint5_linear_1409_8501)"/>
<path d="M112.171 82.8799C112.365 80.1774 109.871 77.7961 106.6 77.5611C103.329 77.326 100.519 79.3262 100.325 82.0287C100.131 84.7311 102.625 87.1124 105.896 87.3475C109.167 87.5825 111.976 85.5823 112.171 82.8799Z" fill="url(#paint6_linear_1409_8501)"/>
<path style="mix-blend-mode:multiply" d="M109.833 82.0302C110.164 83.6771 108.826 85.1972 106.845 85.4266C104.864 85.656 102.99 84.5063 102.659 82.8622C102.328 81.2182 103.665 79.6952 105.646 79.4665C107.627 79.2379 109.499 80.384 109.833 82.0302Z" fill="url(#paint7_linear_1409_8501)"/>
<g style="mix-blend-mode:multiply" opacity="0.6">
<path d="M96.0449 84.29C97.4788 83.0448 100.171 81.6607 104.222 81.192C109.232 80.6129 113.761 83.8383 113.999 84.1446C112.686 82.2527 109.989 79.5943 105.049 79.1818C98.1954 78.612 96.3847 83.1759 96.0449 84.29Z" fill="#CF77B6"/>
</g>
<path d="M113.163 83.0807C113.163 83.0807 111.796 78.1044 106.01 76.8564C98.778 75.2964 96.584 83.0265 96.584 83.0265C96.584 83.0265 103.224 74.448 113.163 83.0807Z" fill="#B11D51"/>
<path d="M112.341 87.0017C111.803 87.12 102.582 86.9383 96.979 85.399C96.8273 85.3577 99.4009 87.6556 103.522 88.0018C109.17 88.4791 112.341 87.0017 112.341 87.0017Z" fill="#870A2C"/>
<path d="M114.001 84.1484C114.001 84.1484 115.979 85.7647 115.899 86.2854C115.819 86.8061 113.597 86.6573 113.597 86.6573C113.597 86.6573 114.672 86.009 114.598 85.6913C114.524 85.3736 114.001 84.1484 114.001 84.1484Z" fill="#870A2C"/>
<path d="M96.1631 83.9404C96.1631 83.9404 96.2407 81.5783 96.7052 80.8268C97.1696 80.0753 100.651 78.2303 105.032 78.2823C109.413 78.3343 112.312 81.6474 113.794 83.862C113.794 83.862 109.164 79.0182 103.543 79.7569C97.9218 80.4955 96.1631 83.9404 96.1631 83.9404Z" fill="#2E031E"/>
<path d="M101.64 82.8151C101.87 82.9576 98.8964 84.0617 98.6777 83.8081C98.4591 83.5545 101.128 82.5031 101.64 82.8151Z" fill="white"/>
<path d="M103.826 82.0753C104.03 82.1038 104.164 82.5739 103.922 82.554C103.681 82.5341 103.239 82.5668 103.204 82.3937C103.169 82.2206 103.552 82.0376 103.826 82.0753Z" fill="white"/>
<path d="M85.4707 88.8131L89.1748 62.6208C90.0645 56.3288 91.0796 49.7277 94.9447 44.6858C96.2981 42.9178 97.9599 41.4091 99.5036 39.8007C100.535 38.7222 101.526 37.5846 102.743 36.7205C104.624 35.3856 106.92 34.7901 109.176 34.3107C120.614 31.8884 132.423 31.8029 143.895 34.0593C146.408 34.5579 148.928 35.1741 151.202 36.3558C155.049 38.3561 157.904 41.8052 160.648 45.1631C163.213 48.3037 165.914 51.7977 165.908 55.8537C165.908 57.3432 165.531 58.8042 165.373 60.2844C164.977 64.0006 165.96 67.7083 166.294 71.4302C166.923 78.431 165.265 85.6433 167.062 92.4382C166.839 84.4266 171.536 84.2549 170.909 78.3932C170.652 75.9777 171.13 71.094 171.09 68.6649C171.071 67.4874 170.358 66.7473 170.306 65.5713C170.258 64.5028 170.918 63.0233 170.65 61.9868C169.77 58.5769 168.884 55.1613 167.614 51.881C165.804 47.2096 163.191 42.8231 159.749 39.1816C156.949 36.2169 153.641 33.7879 150.319 31.423C148.386 30.0496 146.438 28.6912 144.369 27.5351C132.615 20.966 117.131 21.7745 106.129 29.5296C103.041 31.7065 100.319 34.3535 97.6116 36.9877C95.8016 38.7485 93.9908 40.5108 92.2927 42.3793C89.7589 45.1652 87.4488 48.2311 86.0698 51.7336C85.2007 53.9368 84.7163 56.2676 84.2298 58.5862L83.0951 64.0298C82.8678 65.1225 82.6392 66.2224 82.6164 67.3379C82.5858 68.8715 82.9433 70.4308 82.59 71.9231C82.2923 73.1832 81.5059 74.2959 81.2822 75.5709C81.149 76.326 81.1354 79.2038 81.211 79.9674C81.3392 81.3294 82.5345 82.2804 83.3714 83.5868L85.4707 88.8131Z" fill="black"/>
<path d="M105.249 121.76C106.032 119.945 107.842 118.768 109.697 118.082C111.551 117.396 113.53 117.092 115.389 116.418C116.819 115.9 118.174 115.165 119.651 114.8C121.127 114.435 122.818 114.499 124.003 115.452C124.323 115.71 124.6 116.026 124.955 116.235C125.98 116.835 127.294 116.351 128.303 115.72C129.311 115.089 130.308 114.285 131.496 114.243C132.336 114.214 133.134 114.576 133.895 114.93C137.123 116.431 140.544 118.105 142.344 121.175C142.737 121.846 143.048 122.577 143.576 123.148C144.324 123.958 145.486 124.421 145.926 125.433C146.348 126.288 147.921 125.469 148.672 124.84C149.334 124.283 148.848 123.495 148.631 122.617C148.503 122.099 148.186 120.605 148 120.105C147.74 119.41 147.769 119.364 147.53 118.662C146.575 115.844 144.206 113.895 141.446 112.786C139.869 112.152 139.462 112.24 137.876 111.629C136.468 111.087 134.9 109.414 133.498 108.858C132.096 108.303 130.478 108.036 129.098 108.645C127.84 109.2 126.868 110.438 125.5 110.586C123.95 110.753 122.671 109.465 121.226 108.876C120.494 108.584 119.704 108.467 118.919 108.534C118.133 108.602 117.375 108.852 116.703 109.265C116.053 109.673 115.504 110.226 114.864 110.651C111.861 112.645 107.748 112.025 104.989 114.345C103.921 115.242 102.933 116.086 102.88 117.479C102.865 117.845 101.954 119.041 101.748 119.323C101.055 120.271 101.748 121.867 102.774 122.444C103.8 123.021 104.644 123.309 105.096 122.225L105.249 121.76Z" fill="black"/>
<path d="M114.076 129.567C114.303 128.93 115.105 128.696 115.693 128.364C116.171 128.094 116.654 127.821 117.179 127.659C117.92 127.429 118.71 127.428 119.486 127.43L127.897 127.444C128.451 127.444 129.007 127.444 129.559 127.5C130.772 127.621 131.946 127.998 133.004 128.605C134.024 129.191 134.993 130.13 135.028 131.307C135.034 131.507 135.008 131.718 134.89 131.877C134.809 131.976 134.71 132.059 134.598 132.121C134.192 132.372 133.741 132.545 133.271 132.631C132.257 132.815 131.213 132.585 130.187 132.677C129.198 132.768 128.26 133.153 127.492 133.782C126.461 134.631 125.804 135.87 124.759 136.702C124.653 136.799 124.525 136.867 124.386 136.901C122.84 137.155 122.605 136.046 121.251 134.383C121.102 134.199 121.03 133.964 120.933 133.748C120.643 133.107 120.194 132.514 119.564 132.205C119.231 132.041 118.862 131.964 118.496 131.889C117.174 131.616 116.197 132.032 114.875 131.757C114.766 131.733 113.412 131.428 114.076 129.567Z" fill="black"/>
<path d="M85.471 88.8125C84.1247 95.8389 86.3087 103.741 88.6537 110.5C89.1139 111.827 89.6125 113.213 90.6532 114.155C92.6321 115.946 96.1531 115.77 97.4531 118.101C98.4696 119.922 97.6725 122.667 99.3472 123.911C100.187 124.535 101.328 124.481 102.352 124.695C106.076 125.47 108.016 129.786 107.957 133.589C107.926 135.59 107.682 137.996 109.293 139.184C110.635 140.174 112.505 139.698 114.112 139.255C120.322 137.538 127.214 136.994 133.009 139.809C134.861 140.709 136.623 141.269 138.681 141.244C142.093 141.204 143.152 138.133 144.112 134.858C145.072 131.584 144.084 130.435 146.274 127.819C149.509 123.955 158.279 121.494 161.672 117.768C163.51 115.748 163.274 113.112 163.973 110.472C164.375 108.955 165.696 107.362 165.783 105.795C166.135 99.5103 168.055 96.8198 167.053 92.4034C169.424 99.0038 166.592 105.638 166.135 112.633C165.963 115.277 165.526 117.445 164.928 120.025C164.201 123.168 162.815 126.484 161.57 129.428C158.906 135.724 156.2 142.095 152.053 147.53C149.064 151.444 145.392 154.785 141.215 157.393C138.906 158.833 136.442 160.045 133.832 160.819C125.865 163.18 117.066 161.221 109.897 157.019C102.729 152.817 96.9908 146.557 91.9333 139.965C91.6106 139.544 89.8675 136.895 89.8084 136.368C89.7493 135.84 88.7549 132.385 88.3502 129.63C88.0988 127.92 86.791 125.356 86.2382 121.132C86.1242 120.263 85.164 116.502 85.1519 115.627C85.1319 114.193 85.1369 111.294 84.8299 109.969C83.7978 105.512 83.7892 97.1197 83.8476 96.3261C83.8854 95.8154 84.2985 91.8962 84.966 90.5207L85.471 88.8125Z" fill="black"/>
<path d="M10.5692 191.535C11.8514 189.944 13.1699 188.37 14.6102 186.918C15.4194 186.102 16.2735 185.305 17.2416 184.68C17.7957 184.317 18.4013 184.04 19.0381 183.857C19.5417 183.715 20.0596 183.626 20.5589 183.469C21.2279 183.25 21.8609 182.933 22.4373 182.529C24.3492 181.229 26.1286 179.746 27.893 178.255C29.5136 176.886 31.127 175.47 32.8672 174.254C33.2484 173.986 33.6441 173.74 34.0525 173.516C34.403 173.325 34.8553 173.006 35.2542 172.968C35.8241 172.914 36.5051 173.186 37.0493 173.324C37.6106 173.466 38.2211 173.68 38.8059 173.68C39.3622 173.68 39.8438 173.088 40.1764 172.713C40.6922 172.129 41.1844 171.344 41.8974 170.982C42.3683 170.742 43.0101 170.712 43.5272 170.626C44.0857 170.53 44.6342 170.412 45.2019 170.483C46.155 170.599 47.0611 170.982 48.0227 171.047C48.7422 171.095 49.426 170.851 49.9923 170.414C51.1178 169.545 51.734 168.053 53.0674 167.447C53.4223 167.285 53.8095 167.206 54.1996 167.216C54.5897 167.226 54.9723 167.325 55.3184 167.505C55.9047 167.816 56.3648 168.312 56.8193 168.787C57.2531 169.237 57.6976 169.701 58.2475 170.011C58.8174 170.331 59.3872 170.376 60.0283 170.338C60.7008 170.299 61.3775 170.347 62.0492 170.292C62.743 170.236 63.4646 169.891 64.0259 169.492C65.1122 168.718 65.7355 167.541 66.1722 166.312C66.3417 165.839 66.4834 165.362 66.7299 164.921C67.2137 164.069 67.8418 163.308 68.5862 162.672C70.0615 161.396 72.0517 160.513 74.0327 160.761C75.1618 160.904 76.2951 161.276 77.3885 161.582C78.2967 161.836 79.1992 162.108 80.1089 162.357C81.3911 162.708 82.7673 163.061 84.1065 162.829C84.6912 162.722 85.2505 162.505 85.7555 162.192C85.7789 162.177 85.7956 162.154 85.8022 162.127C85.8087 162.1 85.8046 162.071 85.7907 162.048C85.7767 162.024 85.7541 162.006 85.7275 161.999C85.7008 161.991 85.6723 161.994 85.6479 162.007C84.4683 162.719 83.1762 162.791 81.8455 162.549C80.0647 162.223 78.3409 161.61 76.5964 161.144C75.5934 160.875 74.5541 160.535 73.5084 160.508C72.6046 160.496 71.7078 160.669 70.8728 161.015C69.1479 161.721 67.6897 162.953 66.7057 164.536C66.0988 165.521 65.8993 166.683 65.3295 167.69C64.5815 169.011 63.2537 170.046 61.6966 170.096C61.027 170.118 60.3581 170.123 59.69 170.15C58.9648 170.18 58.3287 169.879 57.7831 169.421C56.8293 168.621 56.0977 167.414 54.8248 167.085C53.3517 166.704 52.1891 167.637 51.3073 168.697C50.8371 169.259 50.3891 169.869 49.79 170.305C49.0563 170.838 48.2485 170.916 47.3766 170.742C46.4763 170.562 45.5531 170.188 44.6214 170.247C44.07 170.282 43.513 170.41 42.9702 170.511C42.5428 170.59 42.0727 170.628 41.693 170.856C41.0277 171.255 40.5618 171.956 40.0589 172.53C39.7939 172.831 39.5097 173.159 39.1571 173.36C38.922 173.495 38.739 173.477 38.4768 173.431C37.8122 173.321 37.1611 173.124 36.5065 172.966C36.0898 172.867 35.5028 172.65 35.0719 172.783C34.6188 172.926 34.1608 173.206 33.7512 173.439C33.3511 173.668 32.9635 173.919 32.5901 174.189C31.7973 174.759 31.0365 175.378 30.2765 175.991C28.5206 177.406 26.8366 178.906 25.0708 180.309C24.1448 181.046 23.1988 181.766 22.2129 182.423C21.8967 182.635 21.5647 182.824 21.2199 182.987C20.1963 183.46 19.0488 183.529 18.0237 184C17.2402 184.361 16.5364 184.882 15.881 185.438C14.6893 186.45 13.623 187.608 12.5951 188.781C11.8507 189.632 11.1298 190.502 10.4203 191.381C10.3341 191.488 10.4844 191.639 10.5713 191.532L10.5692 191.535Z" fill="black"/>
<path d="M164.254 160.931C165.793 161.046 167.325 161.219 168.852 161.449C169.599 161.563 170.343 161.691 171.086 161.832C171.662 161.942 172.322 162.065 172.729 162.527C173.136 162.989 173.156 163.667 173.358 164.22C173.509 164.63 173.725 165.013 173.999 165.353C174.563 166.057 175.343 166.55 176.174 166.881C178.221 167.696 180.398 167.516 182.514 167.141C185.18 166.669 188.141 165.97 190.65 167.384C192.573 168.469 193.902 170.331 195.764 171.503C196.741 172.118 197.846 172.424 198.97 172.643C200.175 172.875 201.4 172.999 202.623 173.096C205.197 173.295 207.771 173.54 210.321 173.946C211.39 174.117 212.462 174.313 213.512 174.587C214.245 174.779 215.02 174.993 215.669 175.397C216.066 175.642 216.382 176.015 216.711 176.337C217.252 176.859 217.796 177.378 218.345 177.893C219.356 178.839 220.384 179.769 221.455 180.649C222.332 181.369 223.236 182.068 224.214 182.65C224.883 183.049 225.626 183.439 226.411 183.532C226.688 183.57 226.969 183.547 227.235 183.465C227.366 183.423 227.31 183.217 227.179 183.259C226.498 183.481 225.739 183.188 225.125 182.899C224.187 182.452 223.327 181.842 222.505 181.212C220.235 179.473 218.25 177.432 216.154 175.498C215.704 175.083 215.1 174.857 214.528 174.664C213.63 174.362 212.698 174.159 211.768 173.982C209.317 173.515 206.827 173.243 204.343 173.023C203.102 172.913 201.857 172.839 200.62 172.685C199.383 172.53 198.098 172.329 196.932 171.868C194.854 171.044 193.453 169.146 191.709 167.832C190.792 167.142 189.781 166.655 188.646 166.458C187.316 166.226 185.961 166.349 184.637 166.555C182.245 166.926 179.889 167.574 177.468 167.05C176.491 166.837 175.522 166.461 174.748 165.816C174.389 165.52 174.084 165.164 173.846 164.764C173.561 164.281 173.454 163.763 173.304 163.232C173.161 162.725 172.91 162.3 172.444 162.033C171.959 161.756 171.383 161.672 170.842 161.572C169.387 161.302 167.923 161.086 166.45 160.922C165.719 160.841 164.987 160.773 164.254 160.719C164.117 160.708 164.117 160.922 164.254 160.933V160.931Z" fill="black"/>
<path d="M95.4373 199.176C97.5586 205.323 99.0353 209.991 99.5602 216.473C100.23 224.746 101.934 233.563 102.481 241.845C102.77 246.242 103.022 250.641 103.237 255.043H119.775C119.673 252.785 119.334 250.331 119.27 247.984C119.06 240.389 117.564 233.305 115.754 225.926C114.533 220.947 111.847 215.927 110.943 210.882C109.924 205.194 108.075 199.693 106.234 194.214C104.537 189.167 102.761 183.981 99.2817 179.952C97.6754 178.092 95.74 176.524 94.2456 174.574C92.3401 172.087 91.2353 169.093 89.6959 166.364C88.1566 163.634 84.5543 160.867 83.6995 161.387C82.334 162.219 79.0644 161.327 75.9814 161.086C80.0025 167.476 86.0538 175.234 89.1339 182.126C92.4726 189.605 93.5026 193.569 95.4373 199.176Z" fill="black"/>
<path d="M65.2759 196.03C66.3636 199.592 68.0397 202.958 69.1011 206.53C70.3968 210.889 70.7522 215.464 71.1006 219.998L73.6265 252.894C73.6813 253.606 73.7433 254.34 73.8965 255.04H88.6581C88.7293 253.259 88.6367 251.458 88.5405 249.675C87.757 235.196 86.7248 220.643 83.2508 206.566C79.7767 192.488 74.4663 179.184 64.6889 168.476C63.3312 170.11 59.9355 169.544 58.5793 168.853C56.495 167.792 56.0989 166.551 53.833 167.133C55.5426 173.593 60.1727 178.901 62.4315 185.191C63.6938 188.709 64.1846 192.456 65.2759 196.03Z" fill="black"/>
<path d="M31.9646 220.433C33.3386 223.455 36.079 230.927 36.641 231.26C38.3675 232.273 40.2354 233.023 42.1829 233.485C42.7321 233.615 43.3112 233.733 43.75 234.092C44.1105 234.389 44.332 234.818 44.5336 235.241C46.2745 238.909 47.14 242.92 48.4307 246.77C49.3868 249.619 50.5779 252.384 51.9917 255.036H67.1693C67.0743 254.815 66.9746 254.598 66.8701 254.385C65.9839 252.599 64.7744 250.94 64.2979 249.004C63.6119 246.216 64.456 242.949 62.7393 240.648C61.0511 238.386 57.5664 238.09 55.8853 235.823C55.2249 234.932 54.9229 233.834 54.6344 232.765L51.5094 221.18C50.7814 218.48 50.0477 215.766 48.8596 213.235C46.7397 208.718 43.1317 204.584 43.0975 199.595C43.0854 197.808 43.5492 196.05 43.6467 194.265C43.7443 192.481 43.3967 190.53 42.0796 189.32C41.3673 188.665 40.4413 188.296 39.5409 187.945C35.0295 186.191 30.4706 184.561 25.8642 183.055L25.8186 183.066C24.6613 194.816 26.5209 206.666 31.2216 217.496C31.629 218.435 31.5421 219.504 31.9646 220.433Z" fill="black"/>
<path d="M16.1612 186.016C16.0949 186.234 16.0294 186.452 15.9639 186.67C16.013 186.67 16.0629 186.67 16.1127 186.677L16.1612 186.016Z" fill="black"/>
<path d="M9.83299 235.947C12.4038 236.98 13.2835 238.834 13.8056 241.554C14.2637 243.945 15.771 245.166 16.494 247.492C17.2498 249.923 18.0469 252.502 18.8147 255.038H33.6426L28.912 242.018C28.1213 239.842 27.2174 237.517 25.2848 236.242C23.7889 235.253 21.8493 235.031 20.4567 233.901C19.4487 233.08 18.844 231.872 18.3389 230.673C16.5901 226.519 15.7033 222.062 14.8214 217.638L13.8555 212.782C13.3768 210.373 12.8967 207.956 12.7386 205.506C12.3276 199.111 14.1184 192.812 15.9654 186.665C14.1319 186.621 12.5797 188.192 11.8439 189.893C11.0881 191.64 10.9107 193.585 10.2497 195.37C9.46614 197.475 7.27288 198.991 6.91173 201.211C4.17496 218.002 8.6605 228.051 9.08433 229.003C9.98614 231.032 10.9485 234.03 9.83299 235.947Z" fill="black"/>
<defs>
<linearGradient id="paint0_linear_1409_8501" x1="145.555" y1="90.0088" x2="148.012" y2="80.7279" gradientUnits="userSpaceOnUse">
<stop stop-color="#ECE0FF"/>
<stop offset="1" stop-color="#BBC7F9"/>
</linearGradient>
<linearGradient id="paint1_linear_1409_8501" x1="155.131" y1="90.4088" x2="142.722" y2="87.0827" gradientUnits="userSpaceOnUse">
<stop stop-color="#604300"/>
<stop offset="1" stop-color="#471400"/>
</linearGradient>
<linearGradient id="paint2_linear_1409_8501" x1="147.973" y1="92.3022" x2="150.048" y2="84.56" gradientUnits="userSpaceOnUse">
<stop stop-color="#925600"/>
<stop offset="1" stop-color="#2E0010"/>
</linearGradient>
<linearGradient id="paint3_linear_1409_8501" x1="148.342" y1="90.9279" x2="149.613" y2="86.183" gradientUnits="userSpaceOnUse">
<stop stop-color="#604300"/>
<stop offset="1" stop-color="#471400"/>
</linearGradient>
<linearGradient id="paint4_linear_1409_8501" x1="107.33" y1="90.6908" x2="105.94" y2="81.5161" gradientUnits="userSpaceOnUse">
<stop stop-color="#ECE0FF"/>
<stop offset="1" stop-color="#BBC7F9"/>
</linearGradient>
<linearGradient id="paint5_linear_1409_8501" x1="99.9159" y1="83.4332" x2="112.569" y2="81.4812" gradientUnits="userSpaceOnUse">
<stop stop-color="#604300"/>
<stop offset="1" stop-color="#471400"/>
</linearGradient>
<linearGradient id="paint6_linear_1409_8501" x1="106.78" y1="85.9528" x2="105.609" y2="78.3595" gradientUnits="userSpaceOnUse">
<stop stop-color="#925600"/>
<stop offset="1" stop-color="#2E0010"/>
</linearGradient>
<linearGradient id="paint7_linear_1409_8501" x1="106.46" y1="84.9212" x2="105.753" y2="80.2591" gradientUnits="userSpaceOnUse">
<stop stop-color="#604300"/>
<stop offset="1" stop-color="#471400"/>
</linearGradient>
</defs>
</svg>
