<svg width="291" height="290" viewBox="0 0 291 290" fill="none" xmlns="http://www.w3.org/2000/svg">
<g filter="url(#filter0_b_1170_2464)">
<rect x="0.5" width="290" height="290" rx="60" fill="#00007E"/>
</g>
<mask id="mask0_1170_2464" style="mask-type:alpha" maskUnits="userSpaceOnUse" x="21" y="20" width="250" height="250">
<rect x="21" y="20" width="250" height="250" rx="60" fill="#C4C4C4"/>
</mask>
<g mask="url(#mask0_1170_2464)">
<path d="M229.317 20.0391H196.02C221.158 38.9363 237.418 69.013 237.418 102.881C237.418 160.082 191.047 206.452 133.846 206.452C76.6453 206.452 30.2744 160.082 30.2744 102.881C30.2744 69.013 46.5336 38.9363 71.6731 20.0391H16V275.039H16.4248V157.124C16.5079 157.231 16.5917 157.338 16.6756 157.442C28.203 171.807 39.94 186.541 46.359 204.205C54.4505 226.471 53.3208 251.12 51.5728 275.039H217.567C218.451 250.242 232.806 226.512 252.578 211.061C255.961 208.418 259.747 205.612 260.729 201.433C262.368 194.464 255.574 188.718 252.319 182.34C248.555 174.966 249.565 166.162 250.738 157.967C252.56 145.236 254.569 132.463 258.569 120.241C261.484 111.337 265.514 102.691 271 95.1341V71.3185C250.849 64.5663 234.94 44.9725 229.317 20.0391Z" fill="#150DCE"/>
<path d="M250.74 157.967C249.567 166.163 248.557 174.966 252.321 182.34C255.576 188.717 262.37 194.464 260.731 201.434C259.749 205.613 255.963 208.42 252.58 211.061C232.809 226.512 218.453 250.242 217.569 275.039H271V95.1328C265.514 102.69 261.484 111.336 258.569 120.239C254.569 132.463 252.56 145.234 250.74 157.967Z" fill="#66C3CD"/>
<path d="M46.358 204.206C39.9397 186.543 28.2013 171.808 16.6746 157.444C16.5908 157.339 16.507 157.234 16.4238 157.125V275.041H51.5719C53.3199 251.122 54.4496 226.472 46.358 204.206Z" fill="#66C3CD"/>
<path d="M229.317 20.0391C234.941 44.9725 250.849 64.5663 271 71.3185V20.0391H229.317Z" fill="#66C3CD"/>
<path d="M30.2744 102.881C30.2744 160.082 76.6453 206.452 133.846 206.452C191.047 206.452 237.418 160.082 237.418 102.881C237.418 69.013 221.158 38.9363 196.02 20.0391H71.6731C46.5336 38.9363 30.2744 69.013 30.2744 102.881Z" fill="#00007E"/>
<path d="M16.5986 275.038H261.219C261.109 273.796 260.884 272.568 260.546 271.369C259.704 268.439 258.084 265.786 257.154 262.882C256.283 260.166 256.036 257.293 255.794 254.454C255.06 245.849 254.327 237.244 253.594 228.639C251.927 209.073 249.273 187.459 234.493 174.526C230.025 170.614 224.725 167.801 219.459 165.057C206.51 158.31 192.015 151.584 177.834 155.067L85.7546 169.05C71.4271 170.432 54.6935 188.711 48.9368 192.203C41.7661 196.553 33.7228 199.415 28.5704 206.032C23.7554 212.216 20.2832 219.306 16.6014 226.232L16.5986 275.038Z" fill="#206D41"/>
<path d="M109.674 85.9271C105.012 89.7165 102.425 95.4459 100.269 101.055C93.6641 118.261 89.6084 136.339 88.2305 154.718L103.57 164.455C104.125 164.805 104.688 165.168 105.113 165.669C105.847 166.541 106.068 167.718 106.359 168.82C107.97 174.898 112.678 180.061 118.579 182.227C122.749 183.757 127.292 183.83 131.733 183.886L150.99 184.126C157.471 184.207 164.009 184.282 170.363 182.999C173.506 182.362 176.573 181.397 179.515 180.119C184.694 177.872 187.446 172.249 186.257 166.731C186.081 165.919 186.002 165.089 186.024 164.258C186.125 160.644 187.611 157.223 188.225 153.661C189.567 145.873 187.029 136.717 192.227 130.765C195.94 126.515 203.196 124.482 203.49 118.847C203.708 114.674 199.635 111.596 195.761 110.035C191.886 108.473 187.462 107.399 184.944 104.066C180.588 98.3012 184.227 88.8292 179.273 83.5699C176.968 81.1247 173.431 80.3667 170.121 79.7715C149.136 75.9989 132.315 75.5678 112.687 83.8934C112.147 84.1218 109.861 85.3696 109.676 85.9264" fill="#FC9301"/>
<g opacity="0.2">
<path d="M109.674 85.9271C105.012 89.7165 102.425 95.4459 100.269 101.055C93.6641 118.261 89.6084 136.339 88.2305 154.718L103.57 164.455C104.125 164.805 104.688 165.168 105.113 165.669C105.847 166.541 106.068 167.718 106.359 168.82C107.97 174.898 112.678 180.061 118.579 182.227C122.749 183.757 127.292 183.83 131.733 183.886L150.99 184.126C157.471 184.207 164.009 184.282 170.363 182.999C173.506 182.362 176.573 181.397 179.515 180.119C184.694 177.872 187.446 172.249 186.257 166.731C186.081 165.919 186.002 165.089 186.024 164.258C186.125 160.644 187.611 157.223 188.225 153.661C189.567 145.873 187.029 136.717 192.227 130.765C195.94 126.515 203.196 124.482 203.49 118.847C203.708 114.674 199.635 111.596 195.761 110.035C191.886 108.473 187.462 107.399 184.944 104.066C180.588 98.3012 184.227 88.8292 179.273 83.5699C176.968 81.1247 173.431 80.3667 170.121 79.7715C149.136 75.9989 132.315 75.5678 112.687 83.8934C112.147 84.1218 109.861 85.3696 109.676 85.9264" fill="black"/>
</g>
<path d="M94.7012 171.315C106.195 168.726 117.925 167.329 129.706 167.147C134.796 167.068 139.885 167.217 144.973 167.366L167.739 168.032C174.994 168.241 182.288 168.46 189.409 169.864C186.64 170.228 184.743 172.845 183.668 175.422C181.349 180.975 181.268 187.203 179.509 192.958C176.663 202.263 169.661 209.705 165.676 218.58C162.793 224.994 161.377 232.326 156.568 237.455C152.695 236.617 149.615 233.759 146.041 232.049C143.037 230.613 139.718 230.004 136.557 228.961C130.403 226.935 124.93 223.291 119.542 219.692C117.307 218.199 115.061 216.696 113.13 214.829C109.241 211.071 106.851 206.065 104.541 201.176L101.542 194.824C100.443 192.496 99.3408 190.162 98.4982 187.729C97.5285 184.93 96.9102 182.023 96.2948 179.125L94.8164 172.17" fill="#FDB777"/>
<path d="M172.582 156.19C169.114 158.876 167.972 163.578 167.564 167.945C167.157 172.312 167.233 176.872 165.354 180.835C162.211 187.466 154.636 190.536 147.711 192.962C144.497 194.089 141.104 195.219 137.744 194.649C135.164 194.211 132.865 192.81 130.639 191.435L125.667 188.368C124.162 187.439 122.635 186.493 121.438 185.19C120.041 183.67 119.169 181.751 118.322 179.867C117.101 177.155 112.623 173.121 112.145 170.185C111.67 167.268 113.482 166.46 113.575 163.063C113.645 160.563 113.376 157.115 113.225 154.619C112.964 150.341 110.445 140.11 112.47 133.211C114.657 136.156 116.671 139.224 118.504 142.401C119.507 144.14 120.46 145.92 121.717 147.487C123.254 149.405 125.2 150.949 127.128 152.476L138.181 161.233C139.415 162.211 140.661 163.195 142.08 163.875C144.062 164.824 146.289 165.132 148.483 165.266C157.579 165.817 167.641 162.899 172.49 155.182" fill="#FDB777"/>
<g style="mix-blend-mode:multiply" opacity="0.6">
<path d="M112.993 126.015L114.125 146.395C114.265 148.975 114.422 151.602 115.402 154.023C117.972 160.372 125.439 163.793 129.782 169.271C133.042 173.383 134.393 178.461 136.167 183.278C138.233 188.897 141.031 194.423 145.5 198.71C149.968 202.998 156.328 205.919 162.774 205.444C165.891 205.215 168.889 204.218 171.689 202.941C173.047 202.322 174.406 201.605 175.336 200.507C176.675 198.925 176.926 196.81 177.125 194.815C177.498 191.099 177.832 187.168 176.062 183.806C175.05 181.882 173.407 180.286 172.355 178.382C170.818 175.609 170.627 172.341 171.176 169.274C171.726 166.206 176.846 158.052 178.081 155.158C169.624 154.52 157.175 159.839 148.903 158.111C140.63 156.383 132.438 152.5 128.075 145.829C126.09 142.793 124.986 139.326 122.975 136.303C121.519 134.112 119.594 132.164 118.519 129.795C117.302 127.112 116.619 124.668 113.971 123.07L112.993 126.015Z" fill="#D177B8" fill-opacity="0.8"/>
</g>
<path d="M91.2254 162.911C86.3779 166.297 81.2472 169.258 75.8904 171.761C72.7012 173.251 69.4197 174.586 66.4589 176.491C63.2746 178.541 60.5345 181.207 57.4634 183.423C53.232 186.472 48.4279 188.635 43.3398 189.781C45.7662 191.91 49.3243 192.127 52.5268 191.726C55.1858 191.393 64.4245 190.671 67.4817 190.436C67.7465 190.416 68.0091 190.497 68.2157 190.664C68.4223 190.831 68.5571 191.071 68.5925 191.334C68.7323 192.354 68.9921 194.079 69.4155 196.048C69.6021 196.916 69.5867 197.865 70.0708 198.608C70.5068 199.277 71.2634 199.649 71.9376 200.075C76.5583 203.004 77.9374 209.175 81.8651 212.983C84.0944 215.144 87.014 216.417 89.8651 217.646L114.553 228.287C118.707 230.078 122.874 231.873 127.215 233.147C132.036 234.562 137.025 235.319 141.995 236.071C148.162 237.005 150.397 236.514 156.563 237.449C152.74 234.298 139.225 225.878 134.805 223.641C121.702 217.008 121.919 220.052 110.879 207.455C109.322 205.678 107.466 204.092 106.541 201.917C105.951 200.53 105.698 199.021 105.16 197.612C104.052 194.719 101.812 192.422 100.229 189.76C95.4395 181.71 97.1127 171.482 94.8491 162.39L92.8629 161.688L91.2254 162.911Z" fill="#185732"/>
<path d="M192.71 154.541C198.419 154.296 215.11 163.3 217.652 164.023L237.416 169.645C229.803 169.914 222.252 171.12 214.934 173.235L216.302 173.477C218.371 175.909 217.334 179.036 215.653 181.345C213.627 184.129 210.223 187.38 208.038 190.045C201.206 198.387 193.339 206.28 184.983 213.099C175.09 221.174 165.752 228.158 156.828 237.292C159.101 233.819 161.535 229.258 163.124 224.408C166.169 215.111 169.412 212.5 171.334 207.771C174.638 199.635 178.031 195.101 181.465 187.022C184.898 178.943 187.535 170.328 187.341 161.55C187.321 160.685 187.258 159.769 186.767 159.057C186.422 158.555 185.9 158.209 185.39 157.874L179.569 154.055L192.71 154.541Z" fill="#185732"/>
<path d="M48.825 275.036C48.1963 271.487 47.8281 267.91 47.9748 264.134C47.9748 264.134 48.0447 263.095 45.6386 264.401C44.2413 265.157 40.3346 268.999 36.9371 273.351C36.5012 273.91 36.0697 274.471 35.6426 275.036H48.825Z" fill="#185732"/>
<path d="M154.165 248.411C155.793 252.408 156.68 256.661 157.562 260.885L160.513 275.042H171.871C170.78 268.778 169.5 262.54 167.728 256.488C166.381 251.886 164.92 247.258 162.02 243.439C161.141 242.283 158.14 238.339 156.565 237.457C156.565 237.457 154.208 236.758 151.662 236.581C149.775 236.449 147.828 236.75 146.412 236.591V236.7C149.987 240.145 152.292 243.813 154.165 248.411Z" fill="#185732"/>
<path d="M235.296 275.037C235.36 269.655 235.425 264.273 235.49 258.891C234.472 261.631 232.258 264.983 229.511 263.984L230.307 275.037H235.296Z" fill="#185732"/>
<path d="M113.895 123.063C112.867 128.504 113.454 133.822 115.45 138.987C117.001 143.004 116.297 141.852 118.524 144.895C120.022 146.942 124.894 152.719 126.746 154.456C128.651 156.239 130.309 157.492 132.335 159.145C134.61 161.007 137.274 162.877 139.58 164.068C142.285 165.465 144.59 166.346 147.641 166.825C152.182 167.537 157.387 167.811 161.288 165.384C163.601 163.945 165.27 162.569 167.404 160.654C172.276 156.286 176.347 151.261 179.964 145.811C182.223 142.41 184.447 139.372 186.225 135.697C187.657 132.734 189.282 129.049 189.778 125.72C190.927 117.937 191.644 110.097 191.925 102.235C191.983 100.658 192.47 99.4601 192.442 97.7198C192.422 96.4867 192.078 95.0364 192.078 93.8075C192.078 91.2603 192.035 88.7182 191.948 86.1812C191.883 84.2397 190.952 79.1132 190.24 77.3086C189.372 75.1051 187.569 72.9771 185.842 71.3556C184.241 69.8507 181.403 67.7101 179.801 67.2777C176.131 66.287 175.56 67.2896 170.096 65.659C163.045 63.554 160.187 66.1249 152.944 67.4209C148.941 68.1377 144.63 69.0187 141.906 72.0368C137.898 76.4745 138.273 83.3504 136.985 89.1888C136.228 92.6163 135.342 95.7678 133.562 98.7915C128.243 107.81 121.618 115.991 113.902 123.069" fill="#FDB777"/>
<path d="M167.979 110.594C167.979 110.594 170.06 113.162 175.641 114.366C181.222 115.571 183.902 112.41 183.902 112.41L183.385 111.606C183.385 111.606 176.21 114.638 167.979 110.594Z" fill="#DD6B7C"/>
<path d="M166.375 108.228C166.785 107.399 171.649 101.089 178.007 102.122C184.366 103.155 184.251 110.135 183.387 111.605C182.523 113.075 178.78 115.575 172.907 113.438C168.099 111.69 166.114 108.756 166.375 108.228Z" fill="url(#paint0_linear_1170_2464)"/>
<path d="M175.321 112.514C178.045 112.514 180.254 110.306 180.254 107.581C180.254 104.857 178.045 102.648 175.321 102.648C172.596 102.648 170.388 104.857 170.388 107.581C170.388 110.306 172.596 112.514 175.321 112.514Z" fill="url(#paint1_linear_1170_2464)"/>
<path d="M178.604 110.862C180.418 109.048 180.418 106.108 178.604 104.294C176.791 102.48 173.85 102.48 172.036 104.294C170.222 106.108 170.222 109.048 172.036 110.862C173.85 112.676 176.791 112.676 178.604 110.862Z" fill="url(#paint2_linear_1170_2464)"/>
<path style="mix-blend-mode:multiply" d="M178.024 108.907C177.761 109.442 177.345 109.886 176.829 110.184C176.313 110.483 175.72 110.621 175.125 110.583C174.531 110.544 173.961 110.33 173.488 109.967C173.015 109.605 172.66 109.11 172.468 108.546C172.276 107.982 172.256 107.373 172.41 106.798C172.564 106.222 172.885 105.705 173.333 105.311C173.781 104.918 174.335 104.667 174.926 104.589C175.516 104.51 176.117 104.609 176.652 104.872C177.007 105.047 177.324 105.29 177.585 105.588C177.846 105.885 178.046 106.231 178.174 106.606C178.301 106.98 178.353 107.376 178.328 107.771C178.302 108.166 178.199 108.552 178.024 108.907Z" fill="url(#paint3_linear_1170_2464)"/>
<path d="M166.376 108.228C166.376 108.228 172.13 102.08 179.103 104.547C184.939 106.61 183.76 110.846 183.76 110.846C183.76 110.846 185.449 104.804 180.332 102.057C175.214 99.309 168.413 104.542 166.376 108.228Z" fill="#BA4C6A"/>
<path d="M166.974 107.734C166.974 107.734 166.712 108.956 167.296 109.919C167.296 109.919 166.159 108.844 166.374 108.225L166.974 107.734Z" fill="#DD6B7C"/>
<path d="M179.144 108.341C178.76 108.446 179.973 109.115 181.077 109.207C182.066 109.29 182.729 108.954 182.696 108.821C182.663 108.688 180.661 107.927 179.144 108.341Z" fill="white"/>
<path d="M178.321 108.233C178.029 107.94 177.528 107.92 177.42 108.099C177.312 108.278 177.63 108.728 177.874 108.748C178.119 108.768 178.484 108.397 178.321 108.233Z" fill="white"/>
<g style="mix-blend-mode:multiply" opacity="0.6">
<path d="M166.975 107.733C166.975 107.733 176.398 101.524 183.91 109.632C183.91 109.632 184.096 105.968 178.5 104.334C172.904 102.7 166.975 107.733 166.975 107.733Z" fill="#D177B8"/>
</g>
<path d="M166.376 108.229C166.376 108.229 172.72 102.536 178.765 104.876C183.679 106.778 183.912 109.637 183.912 109.637L187.295 108.626L185.968 107.973C185.968 107.973 183.267 103.953 178.632 103.262C173.332 102.47 167.534 106.714 166.376 108.229Z" fill="#4E1B3D"/>
<path d="M147.09 107.32C147.09 107.32 144.429 109.283 138.724 109.044C133.02 108.805 131.222 105.07 131.222 105.07L131.925 104.422C131.925 104.422 138.105 109.164 147.09 107.32Z" fill="#DD6B7C"/>
<path d="M149.237 105.436C149.049 104.528 145.929 97.1993 139.516 96.5999C133.102 96.0005 131.457 102.785 131.925 104.425C132.393 106.064 135.385 109.426 141.609 108.835C146.698 108.353 149.357 106.013 149.237 105.436Z" fill="url(#paint4_linear_1170_2464)"/>
<path d="M140.743 107.491C143.467 107.491 145.676 105.282 145.676 102.558C145.676 99.8336 143.467 97.625 140.743 97.625C138.018 97.625 135.81 99.8336 135.81 102.558C135.81 105.282 138.018 107.491 140.743 107.491Z" fill="url(#paint5_linear_1170_2464)"/>
<path d="M141.677 107.114C144.189 106.596 145.806 104.14 145.289 101.628C144.771 99.1156 142.315 97.4985 139.803 98.016C137.291 98.5336 135.673 100.99 136.191 103.502C136.709 106.014 139.165 107.632 141.677 107.114Z" fill="url(#paint6_linear_1170_2464)"/>
<path style="mix-blend-mode:multiply" d="M137.792 103.168C137.913 103.752 138.203 104.287 138.628 104.705C139.052 105.124 139.591 105.407 140.176 105.519C140.761 105.632 141.367 105.568 141.916 105.336C142.465 105.104 142.933 104.715 143.26 104.217C143.588 103.719 143.761 103.135 143.757 102.539C143.753 101.943 143.572 101.362 143.237 100.869C142.903 100.376 142.43 99.9927 141.878 99.7684C141.326 99.5441 140.719 99.4886 140.136 99.6088C139.353 99.7703 138.666 100.236 138.227 100.903C137.788 101.571 137.631 102.386 137.792 103.168Z" fill="url(#paint7_linear_1170_2464)"/>
<path d="M149.237 105.438C149.237 105.438 145.215 98.0413 137.849 98.6728C131.682 99.2017 131.758 103.597 131.758 103.597C131.758 103.597 131.642 97.3259 137.287 95.9537C142.932 94.5816 148.193 101.361 149.237 105.438Z" fill="#BA4C6A"/>
<path d="M148.78 104.812C148.78 104.812 148.727 106.06 147.919 106.846C147.919 106.846 149.29 106.092 149.237 105.438L148.78 104.812Z" fill="#DD6B7C"/>
<path d="M136.907 102.326C137.252 102.525 135.91 102.866 134.818 102.675C133.84 102.506 133.281 102.014 133.351 101.894C133.42 101.774 135.544 101.54 136.907 102.326Z" fill="white"/>
<path d="M137.73 102.419C138.087 102.21 138.577 102.315 138.638 102.516C138.7 102.716 138.274 103.07 138.035 103.03C137.796 102.99 137.531 102.536 137.73 102.419Z" fill="white"/>
<g style="mix-blend-mode:multiply" opacity="0.6">
<path d="M148.781 104.81C148.781 104.81 141.222 96.4263 131.912 102.387C131.912 102.387 132.654 98.7946 138.479 98.6207C144.304 98.4467 148.781 104.81 148.781 104.81Z" fill="#D177B8"/>
</g>
<path d="M149.237 105.437C149.237 105.437 144.53 98.3307 138.09 99.0748C132.856 99.6791 131.912 102.388 131.912 102.388L128.892 100.558L130.338 100.26C130.338 100.26 133.963 97.046 138.621 97.5448C143.951 98.1121 148.499 103.679 149.237 105.437Z" fill="#4E1B3D"/>
<path d="M139.428 140.961C140.796 141.59 142.827 142.079 144.311 142.327C146.961 142.767 147.804 142.979 150.356 143.313C151.839 143.506 154.813 143.936 156.224 143.958C156.923 143.969 157.872 144.104 158.574 144.105C161.102 144.112 163.565 144.215 166.074 143.632C165.434 143.987 165.026 144.657 164.752 145.334C164.479 146.012 164.291 146.732 163.938 147.373C163.139 148.822 161.548 149.699 159.926 150.028C158.304 150.357 156.628 150.21 154.98 150.062L151.836 149.783C151.111 149.718 149.816 149.24 149.101 149.105C148.574 149.005 147.536 148.584 147.058 148.336C146.031 147.809 145.172 147.084 144.264 146.057C143.509 145.201 143.4 144.59 142.667 143.693C142.45 143.427 141.749 142.575 141.379 142.358C140.814 142.024 139.799 141.902 139.751 141.247L139.428 140.961Z" fill="#FF5663"/>
<path d="M136.716 141.263C137.407 140.139 139.733 139.307 141.053 139.326C142.373 139.344 143.672 139.694 144.992 139.694C146.826 139.694 148.663 139.017 150.465 139.365C151.344 139.534 152.157 139.939 153.008 140.217C153.984 140.535 155.007 140.686 156.033 140.663C157.267 140.633 158.504 140.353 159.728 140.517C161.883 140.808 163.649 142.423 165.771 142.9C166.506 143.065 167.417 143.197 167.683 143.902C166.311 143.424 164.818 143.907 163.385 144.149C161.545 144.46 159.662 144.359 157.801 144.211C154.657 143.955 151.526 143.552 148.4 143.125C146.832 142.911 145.264 142.691 143.711 142.388C142.929 142.235 142.15 142.061 141.401 141.79C140.989 141.64 140.586 141.461 140.164 141.343C139.051 141.028 137.867 141.144 136.716 141.263Z" fill="#DC3B63"/>
<g style="mix-blend-mode:multiply" opacity="0.6">
<path d="M149.224 131.743C150.388 131.697 150.838 131.527 152.003 131.529C153.168 131.532 154.535 131.974 155.18 132.525C155.536 132.828 155.767 133.258 156.12 133.564C157.094 134.403 158.623 134.333 159.737 133.689C160.169 133.438 160.559 133.112 161.017 132.915C161.476 132.717 162.045 132.669 162.447 132.966C162.646 133.114 162.783 133.33 162.966 133.497C163.647 134.122 164.801 133.894 165.477 133.263C166.324 132.473 166.607 131.189 166.34 130.062C166.072 128.935 165.315 127.966 164.387 127.274C164.325 127.228 164.247 127.181 164.177 127.209C164.107 127.237 164.078 127.345 164.065 127.43C163.917 128.36 163.05 129.35 162.209 129.772C160.73 130.516 158.989 130.835 157.403 130.358C155.997 129.934 154.948 128.602 153.495 128.39C152.908 128.305 152.238 128.46 151.905 128.949C151.779 129.137 151.713 129.359 151.583 129.542C151.345 129.881 150.934 130.043 150.546 130.187C149.784 130.471 148.848 130.73 148.224 130.209C147.782 129.84 147.678 129.213 147.602 128.643C147.433 127.357 147.312 125.9 148.151 124.913C148.747 124.215 149.075 123.367 149.976 123.192C149.076 123.068 148.675 123.541 147.967 124.108C147.703 124.318 147.51 124.609 147.343 124.905C146.651 126.125 146.333 127.58 146.596 128.957C146.858 130.334 147.251 131.204 147.882 131.523C147.995 131.584 148.377 131.777 149.224 131.743Z" fill="#D177B8"/>
</g>
<path d="M153.527 131.804C153.312 131.582 152.955 131.568 152.649 131.515C151.7 131.35 150.729 131.349 149.779 131.512C149.712 131.524 149.631 131.552 149.627 131.619C149.628 131.65 149.639 131.68 149.659 131.705C149.796 131.912 149.983 132.081 150.201 132.199C150.606 132.416 151.084 132.438 151.542 132.44C152.155 132.44 152.784 132.412 153.346 132.168C153.457 132.12 153.614 132.05 153.599 131.93C153.585 131.883 153.561 131.84 153.527 131.804Z" fill="black"/>
<path d="M162.683 133.175C162.683 132.959 162.444 132.83 162.236 132.772C161.645 132.61 161.019 132.631 160.44 132.831C160.301 132.871 160.174 132.945 160.07 133.047C160.02 133.099 159.987 133.165 159.974 133.236C159.962 133.308 159.971 133.381 160.001 133.447C160.087 133.604 160.295 133.636 160.474 133.65L161.413 133.72C161.677 133.74 161.953 133.802 162.203 133.72C162.747 133.536 162.683 133.175 162.683 133.175Z" fill="black"/>
<path d="M168.828 101.027C170.816 101.256 172.205 101.433 174.193 101.661C175.514 101.813 176.225 101.827 177.555 101.813C182.041 101.764 182.872 100.136 187.356 99.9962C187.692 99.9857 190.984 99.9186 191.293 99.7866C192.334 99.3415 192.742 97.6013 191.868 96.8803C190.995 96.1593 189.694 96.466 188.562 96.4995C184.123 96.6323 180.649 97.6173 176.25 98.2258C173.192 98.6513 171.025 98.9748 170.446 99.2738L168.828 101.027Z" fill="#A63344"/>
<path d="M132.332 94.8406C135.888 94.7644 140.37 96.474 143.65 97.8447C146.562 99.0624 149.549 99.4103 152.6 100.22C152.6 98.9891 152.515 98.6502 152.311 97.6924C149.936 96.6745 147.172 95.4428 144.766 94.471C141.163 93.0144 138.017 91.9469 134.152 91.7562C133.773 91.7373 133.389 91.7268 133.016 91.7974C131.857 92.0174 132.332 94.8406 132.332 94.8406Z" fill="#A63344"/>
<path d="M109.193 170.153C109.207 172.516 109.701 174.79 110.584 176.98C111.498 179.246 112.738 181.363 114.049 183.418C115.484 185.666 116.984 187.875 118.451 190.099C119.963 192.382 121.481 194.661 123.055 196.901C125.882 200.925 128.841 204.892 132.197 208.492C135.217 211.731 138.601 214.7 142.492 216.852C144.399 217.918 146.428 218.747 148.536 219.321C148.798 219.391 149.061 219.457 149.325 219.518C149.457 219.549 149.59 219.578 149.723 219.607C149.901 219.645 149.978 219.574 150.129 219.48C150.587 219.196 151.043 218.909 151.495 218.614C152.432 218.014 153.329 217.352 154.179 216.634C154.977 215.945 155.716 215.18 156.319 214.313C157.009 213.32 157.425 212.23 157.796 211.087C158.166 209.906 158.695 208.78 159.368 207.741C160.044 206.706 160.77 205.71 161.343 204.611C163.549 200.394 163.985 195.555 164.881 190.955C165.37 188.445 166.095 186.013 166.873 183.579C167.684 181.042 168.45 178.5 168.853 175.861C169.057 174.524 169.193 173.178 169.294 171.83C169.392 170.541 169.416 169.245 169.527 167.955C169.571 167.447 169.737 166.949 169.907 166.472C170.145 165.803 170.423 165.15 170.708 164.501C171.369 162.991 172.079 161.503 172.7 159.976C173.189 158.776 173.73 157.475 173.773 156.162C173.793 155.552 173.885 154.799 173.649 154.211C173.703 154.346 173.643 154.64 173.643 154.788C173.643 154.95 173.588 155.213 173.649 155.366C173.72 155.565 173.761 155.773 173.77 155.985C173.63 154.292 173.791 154.836 173.77 155.139C173.766 155.18 173.765 155.22 173.761 155.261C173.756 155.327 173.748 155.392 173.74 155.457C173.722 155.597 173.698 155.737 173.67 155.876C173.528 156.535 173.336 157.182 173.095 157.812C172.54 159.328 171.854 160.793 171.192 162.265C170.633 163.504 170.024 164.76 169.669 166.076C169.471 166.809 169.489 167.573 169.447 168.327C169.371 169.692 169.282 171.057 169.143 172.418C168.875 175.019 168.359 177.589 167.603 180.092C166.857 182.578 165.977 185.025 165.367 187.551C164.274 192.075 163.985 196.806 162.347 201.192C161.949 202.272 161.455 203.314 160.87 204.306C160.258 205.332 159.523 206.278 158.918 207.31C158.273 208.405 157.932 209.589 157.515 210.78C157.155 211.825 156.622 212.802 155.939 213.67C154.606 215.354 152.822 216.616 151.027 217.762C150.818 217.898 150.6 218.032 150.387 218.166L150.045 218.376C149.895 218.468 149.843 218.475 149.675 218.439C149.145 218.324 148.62 218.192 148.099 218.042C147.066 217.744 146.052 217.381 145.065 216.956C141.066 215.241 137.537 212.589 134.414 209.588C131.089 206.392 128.196 202.779 125.458 199.077C122.276 194.776 119.35 190.297 116.398 185.838C113.743 181.828 110.82 177.734 109.663 172.992C109.391 171.874 109.209 170.717 109.202 169.569C109.202 169.547 109.208 169.143 109.195 169.359C109.179 169.621 109.195 169.888 109.195 170.15L109.193 170.153Z" fill="white"/>
<path d="M149.866 219.177C148.949 219.486 148.705 220.513 148.95 221.449C149.195 222.385 150.114 223.071 151.079 223.141C152.044 223.211 153.007 222.716 153.601 221.953C153.87 221.604 154.189 220.659 153.264 220.061C150.89 218.524 149.866 219.177 149.866 219.177Z" fill="#781ED3"/>
<path d="M149.866 218.894C149.351 219.072 149.017 219.505 148.906 220.031C148.88 220.158 148.865 220.287 148.861 220.417C148.852 220.665 148.851 220.915 148.861 221.162C148.869 221.442 148.926 221.719 149.027 221.98C149.258 222.525 149.684 222.963 150.223 223.209C150.787 223.468 151.427 223.511 152.02 223.331C152.642 223.144 153.191 222.769 153.591 222.258C153.918 221.839 153.899 221.295 153.879 220.791C153.872 220.556 153.794 220.328 153.656 220.138C153.457 219.866 153.152 219.7 152.867 219.533C152.362 219.239 151.823 218.984 151.253 218.847C150.937 218.764 150.609 218.738 150.284 218.772C150.191 218.783 150.1 218.803 150.012 218.831C149.966 218.841 149.921 218.86 149.881 218.885C149.876 218.888 149.871 218.891 149.865 218.894C149.863 218.922 149.863 218.95 149.865 218.979C149.865 219.048 149.865 219.115 149.865 219.183C149.865 219.25 149.865 219.322 149.865 219.387C149.868 219.415 149.868 219.444 149.865 219.472C149.94 219.429 150.021 219.399 150.106 219.382C150.349 219.329 150.599 219.318 150.846 219.352C151.294 219.413 151.731 219.542 152.14 219.735C152.437 219.87 152.726 220.023 153.005 220.193C153.265 220.351 153.525 220.511 153.694 220.77C153.758 220.869 153.807 220.978 153.838 221.092C153.852 221.142 153.862 221.193 153.869 221.244C153.869 221.273 153.875 221.301 153.877 221.329C153.891 221.534 153.895 220.673 153.877 220.934C153.861 221.124 153.808 221.308 153.721 221.478C153.613 221.672 153.474 221.847 153.309 221.996C153.088 222.21 152.838 222.391 152.566 222.533C152.036 222.82 151.427 222.923 150.832 222.827C150.277 222.724 149.774 222.436 149.403 222.011C149.22 221.802 149.08 221.56 148.99 221.297C148.948 221.169 148.916 221.038 148.896 220.905C148.885 220.842 148.877 220.778 148.872 220.714C148.868 220.678 148.867 220.644 148.864 220.606C148.854 220.431 148.859 221.059 148.864 220.975C148.864 220.951 148.864 220.928 148.864 220.905C148.896 220.416 149.102 219.921 149.521 219.639C149.628 219.569 149.743 219.513 149.865 219.472C149.881 219.466 149.865 219.209 149.865 219.183C149.858 219.086 149.859 218.99 149.866 218.894Z" fill="white"/>
<path d="M206.523 150.222C208.13 149.32 210.098 149.454 211.943 149.541C213.788 149.627 215.803 149.571 217.234 148.402C214.318 147.536 215.274 146.516 214.294 145.572C219.093 143.485 218.017 140.625 224.005 141.809C221.638 140.107 219.784 135.885 217.315 136.07C215.394 136.215 213.413 136.35 211.583 135.751C209.753 135.152 208.09 133.615 207.943 131.693C207.66 127.937 212.708 125.987 213.832 122.392C214.494 120.277 213.703 117.806 214.779 115.869C216.19 113.328 220.196 112.86 221.091 110.094C221.761 108.025 221.077 103.353 219.676 101.689C218.724 100.558 216.961 102.011 216.008 100.88C215.574 100.363 215.123 99.8316 214.526 99.5214C213.682 99.0806 212.679 99.1323 211.737 98.9981C206.695 98.2813 204.087 92.343 204.226 87.2521C204.366 82.1611 206.263 77.1967 206.039 72.1078C205.773 66.0298 201.783 60.9668 198.935 55.5922C196.35 50.7165 192.093 46.378 189.745 40.7666C188.594 38.0161 187.031 34.6508 185.189 32.3055C183.066 29.6004 179.705 28.0928 176.313 27.5262C172.921 26.9596 169.451 27.2362 166.024 27.515L158.675 24.8092C139.266 20.2765 119.304 31.0661 106.578 46.4052C93.8506 61.7444 87.9353 81.626 84.73 101.298C84.475 102.864 84.1969 104.519 83.172 105.731C82.1297 106.963 80.462 107.547 79.4616 108.813C76.2744 112.846 82.2491 118.245 81.9389 123.373C81.6811 127.648 77.2721 130.249 73.4576 132.196C69.643 134.142 65.3388 137.106 65.5665 141.382C65.7105 144.083 67.682 146.272 69.0597 148.597C70.4374 150.922 71.1018 154.288 69.0513 156.052C68.4742 156.548 67.7463 156.846 67.1713 157.346C65.285 158.988 66.1932 162.683 68.63 163.259C66.5928 163.99 64.4075 162.937 62.2983 162.453C60.1892 161.968 57.3192 162.585 57.0034 164.725C56.8015 166.092 57.7908 167.316 58.196 168.638C59.3341 172.347 62.9886 179.746 59.5674 181.581C56.1462 183.416 63.8877 183.324 69.0359 175.022C68.3639 180.901 66.7668 185.827 64.367 191.236C68.3722 191.166 72.2336 188.632 73.8893 184.983C75.661 181.078 74.115 179.115 73.0118 182.619C71.572 187.188 73.6329 192.28 76.9675 195.719C80.302 199.157 84.7314 201.279 89.0608 203.334C87.4539 198.524 88.6975 192.874 92.1809 189.188C91.2657 191.913 91.6219 195.036 93.1289 197.484C97.6117 192.171 103.63 188.376 110.356 186.62C107.075 187.401 104.029 188.959 101.474 191.161C99.9804 192.452 98.5698 194.349 99.135 196.24C99.8581 198.663 103.089 199.105 105.6 198.815C113.256 197.934 121.697 192.93 121.763 185.223C121.863 173.592 103.668 168.061 104.113 156.439C104.484 146.729 117.468 142.441 120.741 133.294C123.116 126.661 120.206 119.425 123.685 113.299C125.222 110.592 127.532 107.955 129.593 105.622C138.498 95.5406 135.24 80.0918 145.675 71.6034C151.519 66.8528 160.446 66.9729 167.977 66.7913C175.453 66.611 180.247 69.0269 185.837 73.9935C188.196 76.0893 191.037 79.8221 191.486 83.0889C192.477 90.3044 191.799 103.078 191.458 104.688C190.48 109.309 190.125 113.828 189.664 119.638C188.646 132.458 179.523 146.082 171.768 156.342C168.54 160.613 167.899 161.689 167.512 167.031C166.827 176.489 174.977 183.994 182.47 189.807C188.168 194.226 194.906 198.83 201.975 197.417C197.541 192.704 192.217 188.916 186.311 186.272C190.587 187.175 195.007 188.08 199.291 187.213C203.574 186.347 207.718 183.231 208.364 178.907C208.686 176.751 208.144 174.436 209.035 172.447C209.536 171.329 210.437 170.45 211.131 169.442C214.554 164.44 211.113 156.372 205.13 155.385C205.13 155.371 204.91 151.125 206.523 150.222Z" fill="#FC9301"/>
</g>
<defs>
<filter id="filter0_b_1170_2464" x="-19.5" y="-20" width="330" height="330" filterUnits="userSpaceOnUse" color-interpolation-filters="sRGB">
<feFlood flood-opacity="0" result="BackgroundImageFix"/>
<feGaussianBlur in="BackgroundImageFix" stdDeviation="10"/>
<feComposite in2="SourceAlpha" operator="in" result="effect1_backgroundBlur_1170_2464"/>
<feBlend mode="normal" in="SourceGraphic" in2="effect1_backgroundBlur_1170_2464" result="shape"/>
</filter>
<linearGradient id="paint0_linear_1170_2464" x1="173.044" y1="113.64" x2="178.725" y2="102.104" gradientUnits="userSpaceOnUse">
<stop stop-color="#EEE2FF"/>
<stop offset="1" stop-color="#BDC9FB"/>
</linearGradient>
<linearGradient id="paint1_linear_1170_2464" x1="173.132" y1="112.016" x2="177.491" y2="103.166" gradientUnits="userSpaceOnUse">
<stop stop-color="#3780A9"/>
<stop offset="1" stop-color="#153364"/>
</linearGradient>
<linearGradient id="paint2_linear_1170_2464" x1="173.259" y1="111.755" x2="177.363" y2="103.422" gradientUnits="userSpaceOnUse">
<stop stop-color="#4997FE"/>
<stop offset="0.96" stop-color="#021F40"/>
<stop offset="1" stop-color="#152C39"/>
</linearGradient>
<linearGradient id="paint3_linear_1170_2464" x1="173.98" y1="110.289" x2="176.643" y2="104.882" gradientUnits="userSpaceOnUse">
<stop stop-color="#A7DBAE"/>
<stop offset="0.99" stop-color="#724A60"/>
</linearGradient>
<linearGradient id="paint4_linear_1170_2464" x1="141.226" y1="109.071" x2="138.654" y2="96.4682" gradientUnits="userSpaceOnUse">
<stop stop-color="#EEE2FF"/>
<stop offset="1" stop-color="#BDC9FB"/>
</linearGradient>
<linearGradient id="paint5_linear_1170_2464" x1="141.553" y1="107.477" x2="139.58" y2="97.8078" gradientUnits="userSpaceOnUse">
<stop stop-color="#3780A9"/>
<stop offset="1" stop-color="#153364"/>
</linearGradient>
<linearGradient id="paint6_linear_1170_2464" x1="141.677" y1="107.114" x2="139.803" y2="98.0167" gradientUnits="userSpaceOnUse">
<stop stop-color="#4997FE"/>
<stop offset="0.96" stop-color="#021F40"/>
<stop offset="1" stop-color="#152C39"/>
</linearGradient>
<linearGradient id="paint7_linear_1170_2464" x1="141.17" y1="105.598" x2="139.964" y2="99.6911" gradientUnits="userSpaceOnUse">
<stop stop-color="#A7DBAE"/>
<stop offset="0.99" stop-color="#724A60"/>
</linearGradient>
</defs>
</svg>
