<svg width="250" height="250" viewBox="0 0 250 250" fill="none" xmlns="http://www.w3.org/2000/svg">
<path d="M255 93.817V92.9565C254.895 86.3489 252.324 43.7075 203.589 35.2009C161.152 27.7927 158.356 -4.96094 158.356 -4.96094H112.197C112.197 -4.96094 118.35 35.3989 48.4532 71.0139C8.22011 91.5062 -2.34159 125.88 -5 148.217V255.039H255V93.6318C255 93.7536 255 93.817 255 93.817Z" fill="#150DCE"/>
<path d="M112.191 -4.96094H-5V148.217C-2.34159 125.88 8.22011 91.5062 48.4467 71.0139C118.343 35.3989 112.191 -4.96094 112.191 -4.96094Z" fill="#66C3CD"/>
<path d="M203.586 35.2009C252.32 43.7075 254.892 86.3461 254.997 92.9565V-4.96094H158.354C158.354 -4.96094 161.149 27.7941 203.586 35.2009Z" fill="#00007E"/>
<path d="M254.794 221.684C253.868 220.599 252.633 219.773 251.475 218.915C245.576 214.545 241.004 208.672 236.037 203.268C227.916 194.442 218.149 186.524 206.515 183.604C198.307 181.543 189.152 181.923 182.166 177.147C179.473 175.305 177.292 172.802 174.663 170.863C168.016 165.97 159.261 165.192 151.007 165.124C142.772 165.053 134.486 165.524 126.457 167.359C119.327 168.989 108.084 176.826 103.194 180.419C101.692 181.525 103.773 173.689 103.773 173.689C102.056 176.434 97.4332 182.788 95.225 185.096C93.7676 186.623 91.8643 192.747 90.243 194.121C82.8098 200.431 73.8551 205.279 65.3072 210.16C52.0857 217.701 38.4068 226.8 32.8677 240.977C31.1325 245.416 30.2984 250.142 29.5469 254.856H254.794V221.684Z" fill="black"/>
<path d="M34.7809 254.624C34.7809 254.643 34.7759 254.649 34.7531 254.671C34.6724 254.765 34.5618 254.829 34.4397 254.851C34.3072 254.868 34.1548 254.813 34.0123 254.572C34.0015 254.549 33.994 254.525 33.9902 254.501C34.1799 253.274 34.6595 252.111 35.3892 251.107C35.8416 250.488 36.3509 249.949 36.8139 249.397C37.0429 249.13 37.257 248.85 37.455 248.559C37.6498 248.269 37.8261 247.967 37.9828 247.654C38.1426 247.34 38.2853 247.018 38.4102 246.688C38.5351 246.358 38.6463 246.022 38.7436 245.678C39.1361 244.306 39.3384 242.868 39.5671 241.421C39.6803 240.696 39.8014 239.968 39.9517 239.24C40.1005 238.506 40.2985 237.783 40.5444 237.076C41.043 235.655 41.7489 234.325 42.5567 233.082C43.3645 231.839 44.2663 230.665 45.1667 229.511L45.5057 229.08C45.6247 228.933 45.7444 228.786 45.8619 228.642C45.9794 228.498 46.1126 228.357 46.2437 228.221L46.4432 228.018L46.5429 227.917L46.6476 227.82C47.2024 227.293 47.8191 226.836 48.484 226.458C48.5253 226.433 48.568 226.412 48.6122 226.386L48.7077 226.338L48.7532 226.314L48.843 226.267C48.9043 226.237 48.9641 226.203 49.0268 226.178L49.4008 226.013C49.4008 226.013 49.42 226.006 49.4549 225.997L49.6052 225.952L49.8331 225.888C49.9193 225.861 50.0191 225.844 50.1231 225.82L50.2848 225.785L50.3681 225.767L50.455 225.755L50.8112 225.704C50.9316 225.688 51.0534 225.684 51.1716 225.675L51.3461 225.664H51.8818L51.9801 225.673C52.0758 225.683 52.1709 225.698 52.265 225.717C52.4018 225.75 52.4388 225.789 52.4025 225.831C52.3662 225.873 52.26 225.915 52.1062 225.959C52.0307 225.982 51.9431 225.997 51.8497 226.023C51.7564 226.049 51.6546 226.074 51.5477 226.099C51.5712 226.099 51.4544 226.123 51.2699 226.174C51.1787 226.2 51.0683 226.226 50.9494 226.26L50.5825 226.376C50.336 226.465 50.0882 226.559 49.9086 226.644C49.8182 226.685 49.742 226.715 49.6907 226.743L49.6095 226.785C49.4991 226.835 49.3872 226.881 49.2775 226.933L49.1165 227.017L49.0759 227.037L49.0047 227.074C48.9669 227.094 48.9278 227.112 48.8907 227.133L48.6699 227.262C48.5987 227.305 48.5217 227.346 48.4519 227.396C47.875 227.772 47.3432 228.214 46.867 228.712C46.6255 228.96 46.399 229.225 46.181 229.496C45.9631 229.766 45.7365 230.059 45.5171 230.341C44.6374 231.472 43.7762 232.611 43.024 233.812C42.2718 235.013 41.6292 236.271 41.1947 237.601C40.7602 238.93 40.533 240.337 40.3107 241.754C40.0885 243.172 39.8791 244.616 39.4559 246.035C39.2481 246.751 38.9727 247.444 38.6332 248.107C38.4615 248.441 38.2688 248.764 38.0562 249.074C37.8443 249.381 37.6163 249.676 37.3731 249.959C36.8994 250.519 36.4114 251.037 36.0132 251.593C35.8146 251.869 35.6363 252.159 35.4797 252.46C35.13 253.138 34.8916 253.867 34.7738 254.62L34.7809 254.624Z" fill="#61328F"/>
<path d="M171.087 254.468C171.089 254.477 171.089 254.487 171.087 254.496C171.087 254.506 171.084 254.515 171.08 254.523C171.015 254.72 170.802 255.043 170.362 254.727C170.343 254.712 170.327 254.695 170.314 254.675C170.199 254.247 170.089 253.818 169.982 253.387C169.864 252.912 169.752 252.437 169.648 251.962C169.544 251.484 169.443 251.003 169.363 250.516C169.2 249.54 169.102 248.528 169.203 247.512C169.255 247.005 169.353 246.504 169.496 246.016C169.637 245.537 169.803 245.066 169.995 244.605C170.371 243.689 170.805 242.82 171.168 241.94L171.424 241.274L171.488 241.107C171.51 241.052 171.531 240.997 171.548 240.939L171.662 240.6L171.775 240.261C171.814 240.148 171.852 240.035 171.882 239.92L172.08 239.232C172.115 239.117 172.144 239.001 172.171 238.885L172.256 238.536C172.313 238.305 172.371 238.073 172.416 237.837L172.558 237.132L172.681 236.424C172.701 236.305 172.722 236.187 172.741 236.067L172.792 235.711C172.824 235.473 172.863 235.236 172.89 234.999C172.944 234.521 173.006 234.044 173.045 233.564C173.138 232.606 173.196 231.64 173.246 230.678C173.338 228.748 173.373 226.81 173.443 224.866C173.48 223.894 173.519 222.919 173.586 221.945C173.614 221.46 173.657 220.972 173.699 220.485L173.77 219.755L173.808 219.39L173.855 219.026C173.97 218.053 174.14 217.084 174.341 216.121L174.503 215.401C174.561 215.162 174.632 214.925 174.692 214.689L174.789 214.333L174.9 213.977L175.011 213.624C175.049 213.506 175.082 213.387 175.126 213.271L175.355 212.645C175.402 212.521 175.445 212.397 175.497 212.275C175.497 212.275 175.64 211.997 175.831 211.629L175.908 211.486L175.995 211.34L176.18 211.04L176.372 210.74L176.465 210.597L176.566 210.463C176.993 209.866 177.173 209.723 177.207 209.829C177.24 209.934 177.118 210.287 176.945 210.694C176.962 210.677 176.906 210.785 176.838 210.968L176.566 211.644C176.512 211.768 176.472 211.897 176.428 212.018L176.313 212.345L176.2 212.667C176.155 212.783 176.113 212.901 176.072 213.019L176.007 213.195L175.895 213.502C175.852 213.611 175.82 213.724 175.785 213.836L175.678 214.171L175.574 214.507C175.538 214.618 175.509 214.732 175.48 214.846L175.297 215.526L175.141 216.213C175.116 216.327 175.088 216.442 175.065 216.557L175.001 216.904C174.817 217.83 174.692 218.764 174.583 219.702L174.512 220.408C174.487 220.643 174.472 220.879 174.448 221.113C174.405 221.584 174.383 222.057 174.348 222.531C174.296 223.479 174.252 224.427 174.223 225.38C174.16 227.284 174.123 229.196 174.021 231.109C173.994 231.587 173.968 232.067 173.93 232.546C173.893 233.024 173.852 233.502 173.807 233.981C173.706 234.938 173.593 235.895 173.418 236.845L173.354 237.201C173.333 237.322 173.307 237.44 173.283 237.558L173.137 238.27L172.965 238.975C172.936 239.093 172.909 239.212 172.878 239.328L172.778 239.677C172.516 240.613 172.197 241.531 171.822 242.426C171.444 243.32 171.021 244.173 170.673 245.04C170.324 245.907 170.055 246.785 169.981 247.684C169.907 248.583 169.994 249.51 170.15 250.431C170.23 250.892 170.324 251.353 170.427 251.816C170.53 252.28 170.641 252.739 170.751 253.199C170.859 253.621 170.971 254.044 171.087 254.468Z" fill="#61328F"/>
<path d="M164.062 254.497C164.064 254.507 164.064 254.516 164.062 254.526C164.059 254.535 164.055 254.544 164.05 254.552C163.968 254.747 163.723 255.041 163.317 254.688C163.3 254.672 163.285 254.654 163.274 254.633C163.203 254.206 163.117 253.778 163.023 253.351C162.918 252.889 162.804 252.431 162.662 251.981C162.591 251.756 162.527 251.532 162.448 251.307C162.37 251.082 162.294 250.859 162.205 250.641C161.866 249.754 161.473 248.889 161.028 248.051C160.584 247.212 160.092 246.4 159.553 245.619C159.286 245.227 159.001 244.849 158.709 244.479L158.445 244.158C158.364 244.06 158.285 243.96 158.199 243.866L157.771 243.311C157.643 243.157 157.5 242.981 157.357 242.799C157.213 242.616 157.052 242.449 156.919 242.286L156.834 242.187C156.807 242.157 156.78 242.13 156.755 242.103C156.705 242.048 156.659 241.998 156.619 241.952C156.557 241.88 156.498 241.805 156.443 241.727C156.364 241.609 156.36 241.555 156.414 241.548C156.468 241.541 156.575 241.582 156.72 241.657C156.791 241.695 156.873 241.741 156.96 241.793L157.095 241.876C157.14 241.907 157.185 241.94 157.231 241.974C157.217 241.954 157.316 242.029 157.473 242.153C157.552 242.218 157.649 242.288 157.747 242.371L158.052 242.647C158.156 242.741 158.265 242.832 158.357 242.925L158.615 243.181L158.871 243.432L159.12 243.734L159.244 243.884L159.326 243.985C159.365 244.031 159.404 244.077 159.439 244.127L159.877 244.705C160.019 244.9 160.155 245.099 160.293 245.297C160.834 246.095 161.33 246.922 161.778 247.776C161.887 247.99 162.001 248.204 162.106 248.421L162.414 249.075L162.699 249.737C162.794 249.96 162.877 250.187 162.965 250.41L163.03 250.579L163.09 250.75L163.21 251.092C163.295 251.319 163.36 251.553 163.433 251.784C163.579 252.245 163.696 252.716 163.802 253.187C163.901 253.617 163.986 254.057 164.062 254.497Z" fill="#61328F"/>
<path d="M151.628 240.794C151.625 240.785 151.623 240.775 151.623 240.765C151.623 240.756 151.625 240.746 151.628 240.738C151.662 240.532 151.825 240.182 152.308 240.428C152.328 240.44 152.347 240.455 152.362 240.473L152.891 241.687C153.675 243.506 154.445 245.33 155.216 247.152L156.37 249.884L157.272 252C157.272 252 157.676 253.146 157.906 253.974C158.333 255.363 157.937 254.907 157.49 254.124C157.5 254.171 157.252 253.697 157.001 253.206L156.503 252.218L155.581 250.06L154.441 247.373C153.684 245.581 152.927 243.791 152.157 242.006L151.628 240.794Z" fill="#61328F"/>
<path d="M191.141 254.466C191.142 254.476 191.142 254.485 191.141 254.494C191.14 254.504 191.137 254.513 191.131 254.521C191.06 254.719 190.842 255.034 190.409 254.713C190.391 254.698 190.375 254.68 190.363 254.66L190.05 253.373C188.103 245.369 186.403 237.309 184.95 229.195C184.222 225.141 183.557 221.076 182.955 217.001C182.799 215.982 182.66 214.962 182.514 213.943C182.369 212.923 182.235 211.903 182.097 210.88L181.954 209.825C181.954 209.825 181.883 208.607 181.897 207.749C181.885 206.295 182.132 206.847 182.338 207.723C182.345 207.629 182.755 209.826 182.755 209.826L182.979 211.494L183.18 212.996L183.394 214.497L183.608 215.997L183.831 217.497C184.43 221.495 185.088 225.483 185.806 229.461C187.241 237.416 188.913 245.323 190.824 253.181L191.141 254.466Z" fill="#61328F"/>
<path d="M131.381 235.609C131.374 235.603 131.368 235.595 131.364 235.586C131.36 235.577 131.358 235.568 131.358 235.558C131.318 235.357 131.338 234.964 131.877 235.021C131.899 235.025 131.921 235.033 131.941 235.043L132.412 235.523C132.568 235.684 132.714 235.853 132.866 236.018C133.958 237.226 134.943 238.526 135.81 239.904C136.677 241.278 137.448 242.71 138.119 244.189C138.785 245.666 139.368 247.179 139.865 248.721C140.121 249.491 140.346 250.266 140.559 251.046L140.684 251.508L140.783 251.887C140.783 251.887 140.84 252.188 140.903 252.599C140.967 253.01 141.036 253.525 141.07 253.953C141.145 254.678 141.101 254.908 141.012 254.851C140.922 254.794 140.778 254.447 140.633 254.023C140.633 254.069 140.483 253.557 140.321 253.037C140.158 252.518 139.987 251.987 139.987 251.987L139.888 251.618L139.839 251.433L139.714 250.985C139.505 250.229 139.277 249.482 139.031 248.741L138.941 248.461C138.909 248.369 138.875 248.277 138.844 248.184L138.652 247.632C138.587 247.446 138.517 247.265 138.449 247.082L138.241 246.532C138.099 246.171 137.951 245.807 137.8 245.448L137.565 244.91L137.449 244.641C137.409 244.551 137.367 244.465 137.325 244.376C136.675 242.957 135.93 241.584 135.095 240.265C134.261 238.951 133.317 237.709 132.273 236.554C132.126 236.395 131.985 236.231 131.833 236.075L131.381 235.609Z" fill="#61328F"/>
<path d="M124.795 232.116C124.79 232.108 124.788 232.098 124.788 232.088C124.788 232.079 124.79 232.069 124.795 232.061C124.849 231.853 125.05 231.536 125.507 231.831C125.526 231.844 125.543 231.86 125.555 231.88C125.684 232.293 125.825 232.707 125.971 233.118C126.283 233.99 126.621 234.853 126.976 235.71C127.33 236.567 127.706 237.414 128.106 238.248C128.305 238.665 128.512 239.076 128.729 239.48L129.411 240.703C129.86 241.531 130.279 242.377 130.673 243.231C131.067 244.085 131.435 244.951 131.785 245.822C132.134 246.693 132.467 247.571 132.782 248.451C133.097 249.332 133.409 250.216 133.712 251.1L133.997 251.938C133.997 251.938 134.31 253.114 134.468 253.959C134.771 255.384 134.418 254.891 134.041 254.075C134.054 254.168 133.207 252.095 133.207 252.095L132.851 251.047C132.552 250.181 132.247 249.318 131.936 248.459C131.31 246.741 130.634 245.046 129.871 243.394C129.485 242.569 129.076 241.758 128.642 240.96L128.309 240.366C128.199 240.164 128.078 239.957 127.972 239.752L127.808 239.442L127.651 239.131C127.545 238.924 127.447 238.715 127.345 238.506C126.944 237.672 126.575 236.825 126.22 235.971C125.864 235.116 125.531 234.256 125.218 233.384C125.072 232.967 124.929 232.546 124.795 232.116Z" fill="#61328F"/>
<path d="M102.954 218.004C102.949 217.996 102.947 217.986 102.946 217.977C102.944 217.968 102.944 217.958 102.946 217.949C102.971 217.74 103.122 217.385 103.612 217.612C103.633 217.623 103.652 217.638 103.668 217.655L104.245 218.849C107.091 224.781 109.691 230.822 112.045 236.974C113.219 240.047 114.327 243.145 115.369 246.266L115.759 247.437C115.887 247.826 116.012 248.22 116.139 248.611L116.516 249.785C116.644 250.176 116.761 250.569 116.883 250.963L117.178 251.917L117.225 252.115C117.254 252.239 117.293 252.415 117.333 252.614C117.416 253.017 117.516 253.526 117.578 253.952C117.828 255.386 117.494 254.878 117.151 254.051C117.157 254.098 116.968 253.596 116.778 253.083C116.588 252.571 116.394 252.047 116.394 252.047L115.959 250.644C115.842 250.26 115.717 249.875 115.594 249.49L115.223 248.336C115.102 247.952 114.974 247.569 114.847 247.187L114.462 246.041C113.436 242.985 112.343 239.952 111.185 236.941C108.877 230.922 106.325 225.004 103.528 219.186L102.954 218.004Z" fill="#61328F"/>
<path d="M112.809 254.446C112.814 254.454 112.816 254.464 112.816 254.473C112.816 254.483 112.814 254.492 112.809 254.501C112.758 254.704 112.564 255.036 112.104 254.749C112.084 254.736 112.067 254.719 112.053 254.7L111.632 253.446C109.842 248.143 108.004 242.858 105.951 237.658C104.925 235.058 103.846 232.481 102.694 229.937C102.119 228.664 101.524 227.402 100.909 226.149L100.481 225.294C100.481 225.294 100.365 225.015 100.215 224.633C100.064 224.25 99.8664 223.774 99.7246 223.368C99.2111 222.01 99.6306 222.436 100.129 223.189C100.115 223.144 100.395 223.603 100.68 224.073C100.822 224.307 100.959 224.549 101.065 224.73L101.238 225.033L101.84 226.244L102.73 228.114L103.592 229.997C104.724 232.515 105.784 235.063 106.797 237.628C108.815 242.764 110.628 247.973 112.388 253.191L112.809 254.446Z" fill="#61328F"/>
<path d="M83.0989 199.256C83.1008 199.246 83.1049 199.237 83.1108 199.23C83.1168 199.222 83.1244 199.216 83.1331 199.211C83.2934 199.075 83.646 198.923 83.8454 199.425C83.854 199.448 83.8584 199.472 83.8583 199.496C83.73 199.913 83.6018 200.331 83.4857 200.754C83.153 201.948 82.8667 203.157 82.6402 204.375C82.5234 204.984 82.4265 205.597 82.3389 206.209C82.3004 206.517 82.2548 206.823 82.2235 207.135L82.1722 207.598L82.1287 208.059C82.0192 209.291 81.9764 210.527 82.0005 211.763C82.0183 212.382 82.0432 212.999 82.0974 213.615C82.1202 213.924 82.1558 214.231 82.1878 214.541C82.2035 214.695 82.227 214.847 82.2455 215C82.2641 215.153 82.2833 215.306 82.3097 215.458C82.4891 216.678 82.7577 217.884 83.1132 219.065C83.47 220.244 83.9187 221.394 84.4552 222.503C84.988 223.622 85.58 224.727 86.1227 225.871C86.6655 227.015 87.1421 228.185 87.5852 229.361C88.0282 230.538 88.44 231.726 88.851 232.907L90.0812 236.457C90.8982 238.826 91.6981 241.203 92.4632 243.59C93.2282 245.978 93.9505 248.383 94.608 250.806L94.9015 251.905C94.9015 251.905 94.9157 251.976 94.9378 252.105C94.9599 252.235 94.9898 252.409 95.0247 252.611C95.0596 252.813 95.096 253.045 95.1287 253.278C95.1615 253.511 95.1928 253.747 95.2106 253.96C95.3866 255.406 95.0781 254.886 94.7754 254.038C94.7754 254.086 94.6187 253.575 94.447 253.056C94.2754 252.538 94.1058 252.006 94.1058 252.006L94.0068 251.637L93.9577 251.453L93.8508 251.055C93.7732 250.757 93.6884 250.462 93.6065 250.168C93.2809 248.983 92.9312 247.807 92.58 246.63C92.2288 245.453 91.8556 244.283 91.4759 243.114C90.7208 240.775 89.9287 238.447 89.1252 236.121L87.9143 232.631C87.5097 231.469 87.1029 230.312 86.6634 229.168C86.2239 228.025 85.7502 226.905 85.2152 225.81C84.6803 224.715 84.0997 223.624 83.5769 222.492C83.0498 221.357 82.6099 220.183 82.2612 218.981C82.0931 218.38 81.9343 217.774 81.8124 217.161C81.7412 216.857 81.6921 216.549 81.6344 216.242C81.6052 216.088 81.5838 215.934 81.5581 215.78C81.5325 215.625 81.5069 215.471 81.4869 215.317C81.3155 214.081 81.2203 212.836 81.202 211.588L81.1963 211.121L81.2013 210.654C81.2013 210.342 81.2162 210.03 81.2241 209.72C81.2518 209.098 81.2882 208.477 81.3523 207.861C81.4164 207.244 81.4841 206.623 81.566 206.008C81.6144 205.701 81.655 205.392 81.7084 205.087L81.7861 204.627L81.8716 204.169C82.0995 202.95 82.3887 201.738 82.7214 200.541C82.8403 200.107 82.9657 199.679 83.0989 199.256Z" fill="#61328F"/>
<path d="M79.9559 201.211C79.9582 201.202 79.9623 201.193 79.968 201.186C79.974 201.179 79.9815 201.173 79.99 201.169C80.1525 201.036 80.5065 200.884 80.7024 201.389C80.7104 201.412 80.7145 201.436 80.7145 201.46L80.3077 202.717C79.9452 203.85 79.6025 204.985 79.3019 206.13C78.9998 207.27 78.762 208.426 78.5896 209.593C78.4217 210.753 78.3472 211.924 78.3666 213.096C78.3967 214.272 78.5019 215.444 78.6815 216.606C78.856 217.774 79.0996 218.932 79.371 220.086C79.6424 221.24 79.948 222.389 80.2643 223.538C80.8897 225.837 81.5508 228.128 82.231 230.413C83.5923 234.982 85.0426 239.526 86.5135 244.065L89.0694 251.935C89.0694 251.935 89.3664 253.115 89.511 253.963C89.796 255.388 89.4469 254.894 89.0836 254.071C89.09 254.118 88.8913 253.622 88.6883 253.109L88.283 252.079L85.5369 243.622C84.0931 239.154 82.667 234.681 81.3342 230.176C80.6665 227.923 80.023 225.663 79.4038 223.396C78.7905 221.128 78.2007 218.837 77.8645 216.482C77.6878 215.305 77.5909 214.116 77.5745 212.925C77.5617 211.73 77.645 210.536 77.8238 209.355L77.8951 208.914L77.9727 208.474C78.0219 208.18 78.086 207.89 78.1437 207.599C78.2719 207.019 78.4037 206.441 78.5568 205.867C78.8553 204.722 79.1979 203.593 79.5584 202.469L79.9559 201.211Z" fill="#61328F"/>
<path d="M196.497 254.429C196.502 254.437 196.504 254.446 196.504 254.456C196.504 254.466 196.502 254.476 196.497 254.484C196.457 254.689 196.28 255.034 195.808 254.769C195.789 254.757 195.771 254.742 195.756 254.724L195.276 253.49L194.096 250.469C193.701 249.461 193.317 248.452 192.928 247.444L191.765 244.418C191.381 243.41 190.989 242.4 190.611 241.386C189.851 239.359 189.124 237.311 188.521 235.217C188.22 234.172 187.951 233.115 187.724 232.047C187.496 230.98 187.318 229.901 187.174 228.823C187.03 227.744 186.911 226.666 186.8 225.592L186.469 222.365L185.805 215.915L185.036 208.392C185.036 208.392 184.994 207.174 185.028 206.317C185.049 204.864 185.284 205.419 185.469 206.3C185.477 206.206 185.838 208.417 185.838 208.417L186.666 216.484L187.317 222.824L187.642 225.993C187.754 227.048 187.873 228.099 188.022 229.143C188.319 231.228 188.771 233.288 189.375 235.306C189.969 237.331 190.682 239.325 191.427 241.308C191.802 242.3 192.181 243.291 192.567 244.282L193.711 247.257C194.096 248.249 194.471 249.245 194.857 250.231L196.016 253.196L196.497 254.429Z" fill="#61328F"/>
<path d="M213.111 254.456C213.115 254.465 213.116 254.474 213.115 254.483C213.114 254.493 213.111 254.502 213.107 254.51C213.073 254.63 212.999 254.735 212.897 254.807C212.835 254.847 212.762 254.864 212.689 254.857C212.581 254.84 212.48 254.796 212.394 254.728C212.375 254.714 212.358 254.697 212.345 254.677C212.337 254.651 212.203 254.182 212.013 253.492L211.881 253.002C211.748 252.505 211.616 251.998 211.485 251.482C211.223 250.447 210.965 249.378 210.744 248.26C210.714 248.121 210.69 247.979 210.664 247.837L210.625 247.624C210.615 247.552 210.603 247.481 210.592 247.41C210.548 247.129 210.504 246.847 210.46 246.563C210.449 246.492 210.439 246.42 210.426 246.353L210.385 246.143L210.305 245.722C210.279 245.58 210.242 245.442 210.212 245.301C210.183 245.161 210.148 245.016 210.115 244.878C209.826 243.728 209.466 242.597 209.036 241.491C208.165 239.233 207.02 236.993 205.819 234.735C204.618 232.476 203.359 230.182 202.292 227.79C201.75 226.595 201.275 225.372 200.867 224.125C200.463 222.879 200.141 221.619 199.85 220.368C199.28 217.863 198.853 215.386 198.311 213.031C198.035 211.855 197.751 210.702 197.425 209.587C197.271 209.026 197.096 208.479 196.932 207.936C196.889 207.8 196.846 207.666 196.803 207.532C196.761 207.398 196.717 207.265 196.672 207.131C196.583 206.866 196.5 206.6 196.408 206.338C195.689 204.248 194.908 202.306 194.115 200.548L193.968 200.22C193.918 200.111 193.867 200.007 193.817 199.899L193.52 199.266C193.423 199.052 193.321 198.853 193.221 198.651L192.926 198.052C192.83 197.854 192.728 197.662 192.63 197.475L192.338 196.913L192.195 196.639L192.053 196.371L192.005 196.282L191.829 195.961L191.677 195.682C191.677 195.682 191.645 195.611 191.594 195.498L191.38 195.037C191.209 194.665 191.001 194.192 190.831 193.8C190.235 192.477 190.68 192.874 191.224 193.598C191.207 193.554 191.519 193.993 191.819 194.452L192.24 195.09L192.425 195.387L192.578 195.666L192.971 196.391C193.705 197.769 194.479 199.355 195.246 201.12C196.013 202.885 196.762 204.833 197.45 206.931C197.798 207.978 198.117 209.068 198.427 210.183C198.5 210.464 198.575 210.745 198.649 211.028C198.685 211.171 198.72 211.313 198.76 211.456C198.799 211.598 198.831 211.741 198.863 211.883L199.072 212.751C199.136 213.042 199.205 213.334 199.267 213.628C199.78 215.979 200.205 218.419 200.788 220.851C201.082 222.067 201.419 223.279 201.828 224.47C202.245 225.665 202.722 226.839 203.257 227.986C204.326 230.294 205.561 232.539 206.748 234.775C207.934 237.011 209.063 239.257 209.915 241.548C210.026 241.833 210.121 242.118 210.223 242.406C210.325 242.695 210.411 242.984 210.504 243.268C210.547 243.41 210.589 243.558 210.632 243.701C210.675 243.844 210.717 243.986 210.754 244.132C210.825 244.422 210.908 244.71 210.967 244.998C211.001 245.14 211.034 245.283 211.065 245.43C211.096 245.576 211.122 245.715 211.15 245.861C211.179 246.008 211.207 246.146 211.232 246.293L211.299 246.724C211.345 247.015 211.383 247.28 211.427 247.553C211.451 247.688 211.475 247.824 211.498 247.959C211.522 248.094 211.552 248.23 211.579 248.364C211.799 249.441 212.057 250.488 212.313 251.499C212.441 252.004 212.572 252.5 212.705 252.988L212.793 253.294C212.973 253.976 213.104 254.433 213.111 254.456Z" fill="#61328F"/>
<path d="M219.909 254.38C219.92 254.389 219.925 254.394 219.928 254.419C219.948 254.527 219.951 254.637 219.936 254.746C219.935 254.781 219.928 254.815 219.916 254.848C219.903 254.885 219.881 254.918 219.853 254.944C219.788 255.008 219.667 255.042 219.507 255.035C219.478 255.033 219.45 255.026 219.424 255.016C219.317 254.933 219.215 254.843 219.12 254.746C219.02 254.647 218.925 254.542 218.835 254.433C218.804 254.395 218.783 254.369 218.759 254.335L218.688 254.238L218.533 254.032L218.228 253.623C218.151 253.518 218.071 253.416 217.995 253.308C217.92 253.201 217.844 253.094 217.769 252.988L217.309 252.334C216.716 251.441 216.113 250.509 215.555 249.517C214.371 247.45 213.359 245.288 212.53 243.055C212.102 241.894 211.721 240.696 211.376 239.472C211.047 238.244 210.764 236.992 210.528 235.716C210.294 234.441 210.131 233.151 209.929 231.88C209.727 230.608 209.497 229.337 209.145 228.11C208.785 226.882 208.333 225.683 207.792 224.524C207.259 223.36 206.662 222.225 206.055 221.104C204.841 218.863 203.579 216.664 202.626 214.386C202.389 213.817 202.171 213.247 201.965 212.677C201.759 212.107 201.573 211.545 201.392 210.984C201.036 209.864 200.707 208.763 200.387 207.698C200.066 206.633 199.75 205.602 199.412 204.62C199.073 203.639 198.716 202.702 198.329 201.827C197.961 200.992 197.541 200.181 197.07 199.4C196.96 199.214 196.841 199.036 196.729 198.858C196.617 198.679 196.494 198.511 196.376 198.345C196.259 198.178 196.138 198.016 196.014 197.86L195.95 197.783L195.729 197.498L195.523 197.242L195.405 197.068C195.333 196.958 195.232 196.801 195.125 196.612C195.007 196.403 194.906 196.184 194.824 195.958C194.737 195.721 194.689 195.471 194.682 195.218C194.675 195.05 194.699 194.883 194.753 194.723C194.784 194.625 194.832 194.533 194.895 194.452C194.99 194.338 195.044 194.332 195.061 194.381C195.069 194.48 195.069 194.581 195.061 194.681C195.055 194.85 195.076 195.02 195.123 195.183C195.123 195.162 195.145 195.265 195.211 195.425C195.298 195.631 195.407 195.827 195.538 196.009C195.676 196.205 195.824 196.393 195.982 196.573C196.114 196.724 196.207 196.825 196.207 196.825L196.259 196.889C196.292 196.93 196.341 196.989 196.406 197.07C196.438 197.11 196.47 197.155 196.512 197.204L196.572 197.281L196.604 197.32L196.653 197.385C196.683 197.422 196.714 197.462 196.742 197.501L196.918 197.739C197.414 198.422 197.864 199.138 198.264 199.882C198.701 200.704 199.094 201.548 199.441 202.412C199.806 203.31 200.138 204.264 200.461 205.25C200.783 206.236 201.088 207.266 201.402 208.317C202.036 210.418 202.696 212.629 203.671 214.787C204.645 216.944 205.884 219.091 207.078 221.324C207.675 222.441 208.257 223.585 208.772 224.77C208.836 224.918 208.904 225.066 208.965 225.215L209.145 225.664C209.204 225.816 209.268 225.965 209.323 226.118L209.487 226.578C209.54 226.732 209.6 226.884 209.648 227.04L209.79 227.508C209.837 227.664 209.889 227.819 209.933 227.976C209.976 228.134 210.02 228.291 210.06 228.449C210.71 230.983 210.915 233.563 211.396 236.02C211.622 237.253 211.921 238.462 212.255 239.646C212.341 239.941 212.425 240.236 212.511 240.529L212.796 241.398C212.886 241.689 212.992 241.973 213.093 242.257L213.245 242.684L213.32 242.898L213.402 243.107L213.728 243.94C213.837 244.217 213.957 244.487 214.072 244.757C214.128 244.893 214.186 245.028 214.244 245.163C214.301 245.299 214.365 245.43 214.426 245.562L214.789 246.352L215.175 247.121L215.367 247.506L215.567 247.881L215.965 248.625L216.378 249.346L216.584 249.702L216.798 250.051L217.222 250.741C217.364 250.967 217.514 251.19 217.659 251.409C217.803 251.628 217.943 251.85 218.096 252.061C218.395 252.485 218.682 252.908 218.988 253.306L219.181 253.562L219.33 253.763L219.402 253.857L219.434 253.901L219.461 253.935C219.539 254.03 219.622 254.116 219.688 254.182C219.757 254.253 219.83 254.318 219.909 254.378V254.38Z" fill="#61328F"/>
<path d="M235.144 254.433C235.149 254.441 235.151 254.451 235.151 254.46C235.151 254.47 235.149 254.479 235.144 254.488C235.101 254.692 234.922 255.035 234.451 254.767C234.431 254.755 234.414 254.739 234.399 254.72L234.162 254.1L233.929 253.479C233.305 251.803 232.705 250.122 232.107 248.441L230.317 243.397C229.719 241.717 229.119 240.037 228.502 238.367C228.192 237.533 227.877 236.706 227.55 235.874C227.222 235.043 226.898 234.217 226.56 233.396C226.221 232.575 225.871 231.758 225.502 230.959C225.133 230.161 224.739 229.366 224.321 228.586C223.487 227.023 222.582 225.481 221.742 223.895C220.902 222.309 220.117 220.677 219.551 218.945L219.498 218.784C219.49 218.756 219.48 218.73 219.473 218.703L219.46 218.664L219.446 218.616L219.418 218.521L219.361 218.33C219.322 218.201 219.29 218.072 219.255 217.944L219.244 217.89C219.237 217.855 219.226 217.805 219.216 217.74C219.196 217.612 219.163 217.431 219.137 217.223C219.075 216.765 219.046 216.304 219.05 215.842C219.05 215.657 219.054 215.506 219.067 215.382C219.075 215.286 219.089 215.191 219.109 215.097C219.141 214.959 219.18 214.922 219.22 214.958C219.304 215.029 219.39 215.385 219.49 215.817C219.49 215.772 219.594 216.288 219.734 216.804C219.77 216.933 219.805 217.062 219.841 217.186L219.943 217.518C219.972 217.614 220 217.695 220.02 217.752L220.05 217.841C220.082 217.961 220.114 218.081 220.151 218.197L220.206 218.377L220.219 218.421L220.224 218.437L220.248 218.515L220.298 218.668C220.362 218.872 220.434 219.075 220.507 219.278C221.093 220.898 221.87 222.456 222.697 223.991C223.525 225.526 224.413 227.042 225.233 228.608C226.054 230.173 226.768 231.798 227.433 233.428C227.765 234.243 228.087 235.062 228.406 235.879C228.566 236.287 228.724 236.7 228.881 237.11L229.342 238.347C229.949 239.995 230.539 241.648 231.128 243.301L232.888 248.259C233.476 249.911 234.067 251.562 234.676 253.202L234.908 253.819L235.144 254.433Z" fill="#61328F"/>
<path d="M224.359 219.723C224.356 219.714 224.354 219.704 224.355 219.695C224.355 219.685 224.358 219.675 224.363 219.667C224.424 219.463 224.637 219.148 225.08 219.458C225.098 219.472 225.115 219.489 225.127 219.508L225.216 219.822L225.308 220.135L225.404 220.448L225.504 220.759C226.472 223.744 227.855 226.595 229.201 229.464L233.247 238.078C233.919 239.517 234.58 240.963 235.187 242.442C235.803 243.919 236.34 245.428 236.796 246.962C236.855 247.154 236.906 247.346 236.96 247.538C237.013 247.731 237.068 247.923 237.113 248.119L237.256 248.705L237.26 248.723V248.732C237.273 248.732 236.855 248.833 237.204 248.751C237.32 248.723 237.236 248.745 237.263 248.739V248.752L237.268 248.767L237.28 248.799C237.295 248.841 237.313 248.885 237.33 248.928C237.365 249.016 237.402 249.105 237.439 249.195C237.743 249.911 238.08 250.62 238.447 251.311L238.565 251.537L238.588 251.579L238.635 251.664L238.726 251.833C238.791 251.945 238.849 252.057 238.913 252.168L238.999 252.349C239.052 252.464 239.128 252.623 239.218 252.804L239.805 254.015C239.885 254.178 239.952 254.311 240.004 254.421C240.044 254.508 240.08 254.597 240.111 254.687C240.153 254.822 240.14 254.876 240.087 254.867C240.034 254.857 239.94 254.788 239.824 254.674C239.681 254.536 239.547 254.389 239.422 254.233C239.352 254.162 239.289 254.085 239.233 254.002C239.113 253.844 238.954 253.62 238.791 253.395C238.629 253.17 238.475 252.937 238.36 252.759L238.168 252.463C238.104 252.351 238.043 252.237 237.981 252.124L237.889 251.954L237.865 251.911L237.754 251.697L237.617 251.435L237.483 251.171C237.306 250.818 237.137 250.459 236.971 250.103C236.889 249.922 236.809 249.741 236.731 249.558C236.693 249.465 236.654 249.375 236.617 249.281L236.56 249.139L236.533 249.068L236.519 249.031L236.511 249.011L236.503 248.981L236.483 248.923V248.907V248.899L236.479 248.882L236.462 248.81L236.428 248.668L236.357 248.387C236.333 248.295 236.312 248.201 236.285 248.108L236.208 247.829C236.157 247.644 236.11 247.456 236.055 247.273L235.889 246.718C234.982 243.768 233.702 240.933 232.383 238.113L228.402 229.648C227.74 228.238 227.069 226.827 226.439 225.39C225.808 223.954 225.228 222.487 224.736 220.993L224.634 220.673L224.536 220.352L224.439 220.031L224.359 219.723Z" fill="#61328F"/>
<path d="M248.326 254.582C248.325 254.591 248.323 254.6 248.32 254.609C248.315 254.618 248.31 254.626 248.303 254.634C248.234 254.74 248.127 254.817 248.004 254.847C247.872 254.869 247.719 254.811 247.554 254.598C247.541 254.578 247.532 254.556 247.526 254.534C247.53 254.428 247.541 254.32 247.541 254.214V253.733C247.541 253.679 247.537 253.626 247.536 253.573L247.525 253.252V253.141L247.516 253.029L247.5 252.808C247.491 252.66 247.481 252.512 247.462 252.363L247.417 251.919L247.357 251.474L247.328 251.251L247.293 251.029L247.221 250.586L247.142 250.143L247.102 249.921L247.058 249.7C246.826 248.52 246.545 247.344 246.24 246.173C245.631 243.831 244.933 241.505 244.292 239.153C243.97 237.978 243.668 236.793 243.413 235.592C243.289 234.99 243.178 234.381 243.093 233.769L243.036 233.307C243.019 233.152 243.005 232.995 242.993 232.841C242.969 232.533 242.95 232.232 242.922 231.936C242.899 231.647 242.86 231.36 242.807 231.075C242.755 230.799 242.677 230.528 242.576 230.266C242.373 229.735 242.081 229.22 241.783 228.692L241.516 228.217C241.453 228.101 241.39 227.984 241.329 227.865L241.247 227.673C241.197 227.549 241.129 227.376 241.062 227.17C240.988 226.944 240.931 226.713 240.891 226.479C240.849 226.24 240.834 225.996 240.845 225.753C240.845 225.666 240.855 225.578 240.865 225.491C240.871 225.452 240.877 225.415 240.882 225.38L240.887 225.342C240.887 225.328 240.894 225.315 240.899 225.303C240.907 225.281 240.917 225.259 240.929 225.239C240.968 225.178 241.021 225.127 241.084 225.092C241.131 225.064 241.184 225.049 241.238 225.047C241.265 225.046 241.292 225.053 241.315 225.068C241.326 225.074 241.335 225.082 241.341 225.093C241.347 225.103 241.351 225.115 241.352 225.127C241.353 225.138 241.352 225.148 241.348 225.159C241.344 225.169 241.337 225.178 241.329 225.187C241.326 225.192 241.322 225.196 241.316 225.198C241.311 225.199 241.305 225.199 241.299 225.198C241.294 225.199 241.288 225.199 241.283 225.198C241.278 225.195 241.273 225.191 241.27 225.187L241.256 225.176L241.249 225.172C241.256 225.171 241.262 225.168 241.268 225.164L241.276 225.159C241.27 225.169 241.268 225.18 241.268 225.192C241.268 225.198 241.268 225.204 241.268 225.21C241.268 225.218 241.268 225.225 241.268 225.233V225.24C241.268 225.246 241.261 225.252 241.256 225.261C241.243 225.279 241.232 225.299 241.223 225.32C241.213 225.339 241.209 225.359 241.211 225.38C241.21 225.382 241.21 225.384 241.211 225.387H241.216C241.221 225.409 241.224 225.431 241.228 225.458C241.241 225.551 241.258 225.65 241.279 225.752C241.283 225.731 241.301 225.843 241.343 226.019C241.402 226.241 241.479 226.459 241.573 226.67C241.671 226.889 241.78 227.103 241.9 227.311C241.999 227.484 242.071 227.6 242.071 227.6C242.129 227.71 242.189 227.819 242.25 227.929L242.677 228.688C242.823 228.953 242.969 229.224 243.105 229.508C243.241 229.795 243.356 230.092 243.45 230.396C243.641 231.02 243.693 231.65 243.735 232.248C243.757 232.548 243.777 232.842 243.806 233.13C243.835 233.417 243.87 233.707 243.92 233.998C243.97 234.289 244.017 234.575 244.069 234.866C244.121 235.156 244.181 235.443 244.247 235.733C244.497 236.887 244.801 238.042 245.114 239.188C245.744 241.486 246.43 243.778 247.032 246.098C247.333 247.259 247.609 248.428 247.843 249.613C247.901 249.909 247.952 250.207 248.006 250.504C248.06 250.801 248.104 251.101 248.141 251.401C248.227 252.001 248.283 252.612 248.314 253.22L248.326 253.559C248.326 253.616 248.33 253.672 248.331 253.729V254.24C248.337 254.354 248.335 254.468 248.326 254.582Z" fill="#61328F"/>
<path d="M254.892 234.76C254.899 234.766 254.904 234.774 254.908 234.782C254.912 234.792 254.913 234.801 254.912 234.811C254.954 235.02 254.912 235.397 254.375 235.328C254.352 235.324 254.331 235.317 254.311 235.306C254.016 234.988 253.706 234.678 253.397 234.369C252.789 233.764 252.163 233.165 251.551 232.544C250.929 231.922 250.344 231.266 249.797 230.577C249.726 230.491 249.664 230.399 249.597 230.31C249.53 230.222 249.464 230.133 249.4 230.042L249.213 229.764L249.12 229.625L249.031 229.483C248.789 229.106 248.583 228.713 248.378 228.334C248.184 227.966 247.97 227.61 247.736 227.266L247.715 227.235L247.695 227.208L247.668 227.173L247.615 227.101L247.503 226.964C247.465 226.918 247.425 226.874 247.387 226.83C247.348 226.786 247.305 226.747 247.265 226.703C247.255 226.69 247.245 226.677 247.233 226.666L247.142 226.569C247.067 226.486 246.945 226.376 246.786 226.235C246.603 226.077 246.434 225.903 246.282 225.715C246.241 225.661 246.202 225.606 246.167 225.549C246.13 225.489 246.098 225.427 246.071 225.363C246.019 225.241 245.986 225.113 245.972 224.982C245.946 224.806 245.966 224.628 246.028 224.462C246.068 224.36 246.134 224.27 246.221 224.202C246.234 224.191 246.249 224.181 246.264 224.172C246.277 224.165 246.289 224.159 246.302 224.154C246.321 224.147 246.34 224.143 246.359 224.142C246.364 224.14 246.37 224.14 246.376 224.142C246.381 224.144 246.386 224.147 246.39 224.152C246.394 224.156 246.396 224.161 246.398 224.167C246.399 224.172 246.399 224.178 246.398 224.184C246.398 224.238 246.352 224.326 246.338 224.45C246.329 224.521 246.329 224.593 246.338 224.664C246.35 224.747 246.371 224.828 246.402 224.905C246.402 224.885 246.432 224.982 246.515 225.109C246.526 225.125 246.537 225.14 246.549 225.156L246.589 225.204C246.622 225.243 246.657 225.279 246.694 225.313C246.78 225.392 246.872 225.466 246.969 225.533C247.177 225.679 247.419 225.827 247.602 225.97C247.692 226.041 247.768 226.101 247.816 226.148L247.895 226.22C247.946 226.269 247.991 226.322 248.038 226.374C248.085 226.426 248.127 226.48 248.171 226.534C248.214 226.589 248.256 226.642 248.3 226.698L248.33 226.739L248.351 226.767L248.375 226.801L248.472 226.943C248.722 227.319 248.93 227.704 249.133 228.077C249.232 228.265 249.331 228.448 249.433 228.628L249.515 228.752L249.596 228.88L249.758 229.141C249.812 229.228 249.871 229.312 249.929 229.398C249.987 229.484 250.043 229.569 250.104 229.654C250.229 229.819 250.345 229.989 250.477 230.148C251.502 231.45 252.748 232.595 253.959 233.797C254.271 234.117 254.586 234.432 254.892 234.76Z" fill="#61328F"/>
<path d="M243.728 226.33C243.724 226.321 243.721 226.311 243.722 226.301C243.721 226.291 243.723 226.281 243.728 226.272C243.746 226.144 243.813 226.029 243.915 225.951C244.025 225.88 244.19 225.869 244.421 225.994C244.44 226.005 244.457 226.02 244.471 226.038C244.629 226.432 244.811 226.816 245.017 227.187C245.61 228.263 246.333 229.286 247.094 230.279C247.855 231.272 248.661 232.234 249.487 233.185C249.899 233.66 250.315 234.133 250.735 234.604L251.364 235.317C251.469 235.434 251.578 235.557 251.681 235.679C251.785 235.8 251.888 235.924 251.99 236.048C252.397 236.545 252.784 237.059 253.149 237.588L253.24 237.716L253.295 237.796L253.407 237.961C253.478 238.069 253.549 238.18 253.62 238.289C253.62 238.289 253.773 238.557 253.962 238.93C254.151 239.304 254.374 239.772 254.532 240.174C254.636 240.4 254.719 240.634 254.781 240.874C254.81 241.013 254.79 241.064 254.739 241.049C254.634 241.02 254.398 240.728 254.135 240.369C254.152 240.413 253.855 239.97 253.541 239.527C253.227 239.084 252.9 238.64 252.9 238.64C252.829 238.536 252.758 238.432 252.686 238.328L252.581 238.172L252.497 238.052L252.365 237.863C252.012 237.365 251.64 236.881 251.25 236.412C250.864 235.947 250.44 235.486 250.032 235.02C249.623 234.554 249.205 234.089 248.798 233.616C247.981 232.674 247.181 231.714 246.418 230.719C246.037 230.221 245.666 229.714 245.311 229.192C244.956 228.67 244.619 228.136 244.314 227.575C244.091 227.174 243.893 226.759 243.722 226.334L243.728 226.33Z" fill="#61328F"/>
<path d="M67.2302 209.085C67.2302 209.076 67.2324 209.066 67.2367 209.057C67.2405 209.049 67.2463 209.041 67.2538 209.035C67.382 208.867 67.6868 208.644 67.9981 209.091C68.0103 209.111 68.0196 209.132 68.0259 209.155L67.9255 210.468C67.8813 210.956 67.8728 211.447 67.8542 211.936L67.8265 212.67L67.8122 213.038V213.405L67.8079 214.876V215.245L67.8179 215.612L67.84 216.348L67.8614 217.083C67.8656 217.206 67.8656 217.329 67.8742 217.451L67.8956 217.819L67.9832 219.288C67.9939 219.533 68.0188 219.777 68.0402 220.022L68.1043 220.755C68.1484 221.244 68.1841 221.735 68.2467 222.221L68.4141 223.685C68.4398 223.929 68.479 224.171 68.5117 224.414L68.6143 225.145C68.7425 226.118 68.9163 227.085 69.0745 228.054C69.4264 229.988 69.8082 231.917 70.274 233.824C70.4877 234.782 70.7506 235.731 70.9935 236.683C71.1217 237.158 71.2578 237.631 71.3895 238.103L71.5861 238.809C71.6531 239.046 71.7286 239.28 71.7998 239.514L72.2272 240.925L72.6817 242.327L72.9104 243.029L73.1469 243.729L73.6241 245.13C74.2595 247 74.8814 248.889 75.3394 250.833L75.4448 251.293L75.4868 251.484L75.5673 251.87C75.5673 251.87 75.6101 252.173 75.6507 252.586C75.6913 253 75.7269 253.521 75.7297 253.953C75.7525 254.683 75.6899 254.908 75.6015 254.844C75.5132 254.78 75.4007 254.423 75.2867 253.989C75.2867 254.035 75.1706 253.515 75.0395 252.987C74.9084 252.46 74.7653 251.925 74.7653 251.925L74.6855 251.556L74.6449 251.37L74.5736 251.044C74.5181 250.811 74.4611 250.578 74.402 250.346C73.9269 248.486 73.3057 246.655 72.6803 244.82L72.2109 243.441C72.0549 242.98 71.9088 242.515 71.7571 242.053C71.4472 241.127 71.1801 240.193 70.893 239.262C70.7556 238.796 70.6281 238.326 70.4956 237.858L70.2975 237.152C70.2334 236.918 70.175 236.681 70.1123 236.446L69.7462 235.032C69.6287 234.559 69.5204 234.085 69.4078 233.612L69.2426 232.908C69.1856 232.67 69.14 232.431 69.0873 232.195L68.7817 230.766C68.6841 230.289 68.5979 229.81 68.5046 229.332C68.4113 228.854 68.3187 228.376 68.2439 227.893L68.0074 226.45C67.9639 226.21 67.9362 225.968 67.8991 225.727L67.7973 225.004C67.6498 224.041 67.5508 223.07 67.4411 222.102C67.4276 221.981 67.4112 221.859 67.4005 221.739L67.3684 221.374L67.3043 220.646L67.2402 219.918C67.2295 219.796 67.2167 219.675 67.2096 219.554L67.1875 219.187L67.0878 217.731C67.0814 217.609 67.0721 217.487 67.0671 217.365L67.0571 217L67.0358 216.268L67.0144 215.537C67.0144 215.416 67.0059 215.292 67.0059 215.171V214.805L67.0101 213.341C67.0101 213.097 67.0194 212.853 67.0287 212.609L67.0557 211.877C67.075 211.389 67.0849 210.901 67.127 210.414L67.2302 209.085Z" fill="#61328F"/>
<path d="M63.418 211.176C63.4208 211.166 63.4257 211.157 63.4322 211.149C63.4389 211.142 63.4472 211.136 63.4565 211.132C63.5557 211.053 63.6817 211.014 63.8084 211.025C63.9401 211.045 64.0648 211.15 64.1517 211.401C64.1575 211.422 64.1601 211.444 64.1595 211.466C64.0037 211.861 63.8722 212.265 63.7656 212.676C63.5404 213.574 63.3903 214.488 63.3168 215.41C63.2741 215.874 63.2449 216.341 63.2292 216.809C63.21 217.277 63.1972 217.747 63.1965 218.22L63.1851 219.63V219.986L63.1922 220.339L63.2057 221.044L63.22 221.751C63.2271 221.985 63.2421 222.22 63.252 222.456L63.3233 223.866C63.5627 227.628 64.0866 231.367 64.8904 235.05L65.0407 235.74C65.0663 235.856 65.0891 235.971 65.1176 236.084L65.2024 236.428L65.54 237.8C65.5942 238.029 65.6604 238.255 65.7224 238.481L65.9104 239.162L66.0978 239.844C66.1291 239.957 66.1619 240.07 66.1975 240.182L66.3015 240.521L66.7147 241.874C66.8607 242.324 67.0145 242.767 67.1641 243.213L67.3899 243.883L67.6336 244.545L68.1222 245.871L68.6479 247.182C68.737 247.401 68.8196 247.621 68.9129 247.836L69.1978 248.485C69.3859 248.917 69.5697 249.349 69.7627 249.78C69.9558 250.21 70.1552 250.634 70.3554 251.062L70.7942 252.001C70.7942 252.001 71.2372 253.14 71.4744 253.966C71.6924 254.662 71.6945 254.895 71.5955 254.857C71.4965 254.819 71.2871 254.508 71.0606 254.12C71.072 254.167 70.8191 253.693 70.5584 253.214C70.2977 252.736 70.0298 252.243 70.0298 252.243L69.3574 250.8C68.9606 249.955 68.5988 249.091 68.2241 248.236C68.1279 248.022 68.0453 247.803 67.9577 247.586L67.6962 246.934L67.4355 246.283L67.3714 246.12L67.3073 245.956L67.1862 245.626L66.7004 244.308C66.6591 244.199 66.6221 244.088 66.5843 243.978L66.4725 243.644L66.2509 242.978L66.0187 242.307C65.9475 242.086 65.8805 241.859 65.8107 241.638L65.399 240.296C65.2708 239.846 65.149 239.394 65.0236 238.942L64.8362 238.265L64.6653 237.584L64.3298 236.222L64.0306 234.85L63.8817 234.165L63.7535 233.475L63.4971 232.095L63.2748 230.71C63.2385 230.478 63.1979 230.247 63.1665 230.016L63.0697 229.316C63.0098 228.852 62.9415 228.39 62.8895 227.924L62.747 226.528L62.7099 226.179L62.6921 226.003L62.6786 225.829L62.6252 225.129L62.5718 224.429C62.5554 224.196 62.5326 223.963 62.524 223.729C62.482 222.794 62.4222 221.859 62.415 220.923L62.4008 220.221C62.3958 219.988 62.3894 219.753 62.3944 219.518L62.4058 218.115C62.4058 217.647 62.4222 217.178 62.4407 216.708C62.4592 216.238 62.4891 215.768 62.5326 215.298C62.576 214.828 62.6302 214.355 62.7057 213.887C62.7812 213.419 62.8773 212.948 62.997 212.483C63.1124 212.039 63.2552 211.603 63.4244 211.177L63.418 211.176Z" fill="#61328F"/>
<path d="M38.82 254.616C38.8194 254.626 38.8165 254.635 38.8114 254.643C38.8069 254.652 38.8009 254.659 38.7936 254.665C38.6569 254.819 38.3327 255.038 38.0521 254.574C38.0408 254.553 38.033 254.53 38.0293 254.506C38.0628 254.286 38.0891 254.063 38.1276 253.843L38.2387 253.187C38.7115 250.608 39.4978 248.096 40.5801 245.708C40.8473 245.109 41.1415 244.525 41.4442 243.943C41.5197 243.801 41.6009 243.658 41.6793 243.516C41.7576 243.373 41.8338 243.227 41.9172 243.089L42.1644 242.661L42.289 242.447L42.4172 242.234C43.0989 241.118 43.8383 240.05 44.5542 238.978C45.2701 237.906 45.9654 236.83 46.5573 235.707C47.1492 234.585 47.6479 233.399 48.1572 232.21C48.4143 231.614 48.6708 231.017 48.9407 230.424C49.012 230.275 49.0832 230.128 49.1544 229.98C49.2257 229.832 49.2969 229.685 49.3681 229.539L49.5925 229.101C49.6688 228.958 49.7514 228.811 49.8304 228.665L49.9587 228.434C49.9736 228.404 49.9921 228.376 50.0092 228.348L50.1132 228.177L50.3205 227.837L50.3526 227.792C50.3725 227.762 50.4067 227.721 50.4473 227.671C50.5285 227.569 50.6425 227.424 50.775 227.261C50.9075 227.097 51.0756 226.925 51.2387 226.75C51.3178 226.661 51.4104 226.582 51.4952 226.501C51.5799 226.421 51.6675 226.345 51.7516 226.273C51.7825 226.242 51.8151 226.212 51.8492 226.184C51.8834 226.159 51.914 226.132 51.9454 226.109C52.0059 226.062 52.0622 226.02 52.1128 225.985C52.1904 225.927 52.2718 225.875 52.3564 225.829C52.4796 225.765 52.5337 225.768 52.533 225.822C52.5323 225.877 52.4803 225.981 52.3948 226.114C52.3514 226.179 52.3001 226.257 52.2424 226.332L52.1519 226.454L52.0622 226.588C52.0145 226.673 51.9592 226.752 51.8969 226.827L51.8043 226.955L51.753 227.026L51.7024 227.103L51.4887 227.429L51.379 227.595C51.3434 227.65 51.3149 227.707 51.2793 227.761C51.2152 227.87 51.1561 227.975 51.1041 228.06C51.0521 228.145 51.0094 228.219 50.9823 228.274L50.9388 228.356L50.7465 228.677C50.7152 228.731 50.6824 228.782 50.6503 228.837L50.3098 229.453C49.7329 230.559 49.2335 231.718 48.7342 232.889C48.4849 233.474 48.2306 234.061 47.9649 234.645C47.6992 235.229 47.4149 235.81 47.1037 236.376C46.4839 237.512 45.7794 238.584 45.07 239.647C44.3605 240.71 43.6453 241.749 42.9949 242.824C42.3481 243.9 41.7665 245.014 41.2533 246.159C41.1208 246.444 41.0033 246.736 40.88 247.023C40.8159 247.166 40.7625 247.315 40.7055 247.461L40.5331 247.899C40.427 248.194 40.3194 248.488 40.2126 248.784L40.0644 249.234L39.9932 249.457L39.922 249.682C39.5509 250.881 39.251 252.102 39.0237 253.337L38.9147 253.978C38.8798 254.184 38.8527 254.398 38.82 254.616Z" fill="#61328F"/>
<path d="M131.879 184.057C147.955 179.666 163.535 167.397 180.042 165.109C179.242 171.548 179.635 184.113 181.069 190.443C181.275 191.359 181.639 193.386 181.354 194.283C181.054 195.234 179.794 196.005 179.185 196.794C177.897 198.467 177.838 199.501 176.949 201.416C175.396 204.755 177.488 205.252 170.767 210.534C169.057 211.882 168.525 213.705 167.339 215.683C166.006 217.902 165.623 219.114 164.709 221.539C164.062 223.262 162.728 227.606 162.46 229.426C161.668 234.793 161.543 238.045 161.69 243.307C159.852 241.484 157.467 239.84 155.236 238.434C154.081 237.707 151.196 235.437 150.166 234.541C148.783 233.337 145.356 229.893 143.796 228.928C137.768 225.198 138.174 224.659 132.969 219.843C130.25 217.329 123.366 212.831 120.38 210.641C117.394 208.452 116.756 206.312 114.107 203.732C111.837 201.519 105.783 190.084 106.529 189.522C106.536 189.522 123.681 186.3 131.879 184.057Z" fill="#FB9201"/>
<path d="M97.6406 156.987C101.003 162.534 104.492 168.612 103.797 175.062C103.476 178.012 101.971 181.523 103.636 183.981C104.063 184.612 104.847 187.346 105.17 188.034C108.61 195.276 110.199 197.017 113.141 200.548C114.029 201.616 115.492 203.576 116.418 204.602C117.494 205.788 122.92 207.39 124.497 207.654C133.932 209.239 132.057 207.104 140.839 203.309C144.16 201.873 150.946 200.788 154.235 199.688C158.525 198.252 164.647 194.89 165.19 185.294C165.404 181.461 166.508 171.674 159.939 166.372C154.588 162.054 148.898 155.871 150.385 146.867C142.309 153.396 133.51 160.217 123.148 160.876C119.372 161.115 115.597 160.505 111.871 159.834C107.152 158.982 102.453 158.027 97.7738 156.969" fill="#FB9201"/>
<path d="M98.6875 158.141C99.8807 160.753 102.207 163.647 104.858 164.752C106.643 165.496 107.911 167.079 109.362 168.359C111.933 170.628 115.158 171.992 118.321 173.316C126.486 176.735 135.27 180.225 143.945 178.466C145.348 178.181 146.767 177.76 148.182 177.963C149.598 178.165 151.024 179.234 151.051 180.663C151.222 190.361 156.638 199.808 164.921 204.857C166.848 205.774 177.205 208.886 179.936 204.793C182.667 200.699 184.637 195.964 184.744 191.045C184.785 189.177 184.505 187.181 183.284 185.766C178.676 180.424 180.419 182.49 178.257 175.772C177.703 174.049 168.562 167.581 166.851 168.168C163.086 169.468 154.547 162.953 151.167 155.607C150.197 153.501 150.201 152.409 149.868 148.89C148.67 148.514 147.461 149.346 146.461 150.109C141.311 154.02 135.588 157.27 129.375 159.069C123.162 160.868 116.432 161.155 110.239 159.295C107.038 158.332 103.701 157.899 100.36 158.013L98.6875 158.141Z" fill="#A63344" fill-opacity="0.3"/>
<path d="M101.035 45.9228C97.4226 47.1102 92.7789 48.953 90.1533 50.2466C87.4137 51.6 81.5241 53.8531 79.4057 56.0535C75.8262 59.7726 71.3692 69.5286 70.2879 74.574C69.188 79.7256 70.649 90.3785 71.0572 95.6298C71.3243 99.0589 72.1299 105.895 72.6891 109.289C73.7042 115.451 75.5107 127.937 77.84 133.733C79.1649 137.035 85.3073 147.08 87.6993 149.713C92.811 155.341 102.494 161.365 109.522 164.261C114.687 166.388 126.052 167.946 131.517 166.794C135.952 165.857 142.657 159.983 145.457 156.683C148.306 153.326 151.958 145.16 153.695 141.113C154.732 138.699 156.657 133.753 157.043 131.155C157.411 128.7 156.499 123.696 156.768 121.227C157.02 118.926 158.021 114.333 159.019 112.245C159.186 111.897 159.84 111.382 159.95 111.012C160.078 110.575 159.924 109.638 159.825 109.193C159.232 106.505 157.261 101.295 155.883 98.9108C153.582 94.9267 146.627 88.582 144.292 84.6186C143.421 83.1398 142.576 79.7448 141.728 78.2525C139.573 74.4772 133.513 68.1033 131.148 64.4561C128.911 61.0077 126.246 52.8822 123.316 50.0001C121.353 48.0704 116.163 45.7732 113.545 44.9191C110.683 43.9838 105.237 43.9817 101.503 45.7554C101.389 45.8088 101.15 45.8843 101.035 45.9228Z" fill="#FB9201"/>
<path d="M71.6584 104.632C73.7811 102.943 76.0821 101.492 78.5203 100.303C79.6821 99.7379 80.8795 99.23 82.1368 98.9301C83.394 98.6302 84.7097 98.5419 86.0097 98.4564L91.7988 98.076C92.7889 98.0119 93.7805 97.9478 94.7599 97.7911C96.6761 97.4876 98.1791 97.1023 98.8914 96.7091C99.363 96.4491 99.5667 95.7474 99.4684 95.4041C99.2647 94.711 98.4071 93.77 97.481 93.5691C97.0536 93.4772 94.8347 93.6076 94.4031 93.5691C92.9072 93.4366 92.187 93.6197 90.9176 93.5912C90.008 93.5712 87.4821 93.3169 86.5724 93.2977C85.5317 93.2749 82.9517 93.7123 79.8765 95.0401C78.9633 95.4347 77.7837 95.637 76.9909 96.2339C75.3112 97.4962 74.2976 99.4515 72.754 100.88C72.229 101.366 71.6392 101.795 71.2068 102.367C70.7744 102.939 70.2523 103.333 70.508 104.005C70.7637 104.678 71.0928 105.065 71.6627 104.634" fill="#4E1B3D"/>
<path d="M144.359 83.0458C145.125 83.0201 145.285 82.9033 145.82 82.4688C145.017 81.6553 143.904 81.23 142.802 80.9259C139.185 79.936 135.36 80.0102 131.784 81.1396C131.676 81.1738 131.555 81.2201 131.51 81.3241C131.466 81.4281 131.575 81.5805 131.674 81.5221C126.748 81.9445 122.418 84.4248 118.253 87.0889L118.069 87.272C117.065 88.8114 117.418 91.0182 117.499 91.2767C117.649 91.744 118.188 91.9933 118.678 91.9712C119.168 91.9492 119.622 91.7148 120.056 91.4883C124.093 89.3845 128.162 87.3449 132.263 85.3694C133.576 84.7375 134.898 84.1086 136.297 83.6933C138.875 82.924 141.613 82.9097 144.3 83.0415L144.359 83.0458Z" fill="#4E1B3D"/>
<path d="M161.304 242.505C158.843 240.609 156.079 239.138 153.674 237.168C152.664 236.342 151.83 235.356 150.869 234.481C149.871 233.576 148.813 232.746 147.742 231.936C145.404 230.169 142.973 228.524 140.689 226.692C139.698 225.908 138.764 225.055 137.893 224.139C136.824 222.999 135.791 221.834 134.706 220.714C133.686 219.649 132.587 218.663 131.418 217.764C130.065 216.734 128.597 215.861 127.169 214.942C124.834 213.437 122.516 211.897 120.424 210.059C115.509 205.737 111.651 200.273 108.6 194.517C106.996 191.503 105.608 188.376 104.367 185.197C104.057 184.404 103.756 183.606 103.462 182.805C103.154 181.965 102.928 181.155 102.938 180.251C102.956 178.572 103.602 177.004 104.056 175.411C104.177 174.984 104.19 174.603 104.208 174.164C104.207 174.115 104.195 174.066 104.173 174.022C104.151 173.978 104.12 173.94 104.08 173.91C104.041 173.88 103.996 173.859 103.947 173.85C103.899 173.84 103.849 173.842 103.802 173.855C100.548 174.977 98.6015 178.231 96.8513 180.978C94.8682 184.094 92.9755 187.318 91.776 190.827C91.1732 192.553 90.7903 194.348 90.6362 196.17C90.4824 198.164 90.6954 200.159 91.0857 202.111C91.4896 204.139 92.0545 206.135 92.613 208.125C93.1828 210.151 93.779 212.169 94.3852 214.183C94.948 216.052 95.4081 218.014 96.29 219.762C96.9867 221.146 98.0708 222.426 99.6629 222.721C99.7676 222.74 99.9022 222.73 99.9742 222.639C102.191 219.838 104.157 216.848 105.849 213.702C107.164 211.254 108.238 208.586 110.146 206.513C111.044 205.535 112.191 204.665 113.572 204.632L113.263 204.397C113.912 206.709 114.096 209.131 114.3 211.515C114.404 212.712 114.525 213.906 114.647 215.106C114.783 216.433 114.912 217.766 115.208 219.07C116.124 223.109 118.523 226.629 121.566 229.383C124.737 232.253 128.546 234.369 132.514 235.923C136.881 237.627 141.5 238.528 146.078 239.459C150.787 240.418 155.569 241.369 160.014 243.249C160.534 243.469 161.046 243.704 161.552 243.954C161.822 244.082 162.176 243.805 161.991 243.515L161.425 242.625C161.204 242.279 160.649 242.6 160.871 242.95L161.437 243.839L161.876 243.4C157.644 241.334 153.017 240.252 148.432 239.296C143.802 238.327 139.1 237.523 134.603 236.008C130.572 234.649 126.659 232.71 123.321 230.045C120.121 227.49 117.426 224.193 116.185 220.242C115.442 217.884 115.287 215.369 115.061 212.916C114.847 210.557 114.699 208.18 114.254 205.85C114.15 205.308 114.028 204.768 113.878 204.236C113.859 204.169 113.818 204.11 113.762 204.067C113.706 204.025 113.639 204.002 113.569 204C110.921 204.065 109.081 206.548 107.835 208.6C107.119 209.777 106.52 211.014 105.896 212.241C105.053 213.896 104.134 215.51 103.138 217.085C102.022 218.851 100.813 220.558 99.5183 222.198L99.831 222.116C98.4241 221.854 97.5124 220.752 96.8855 219.538C96.144 218.101 95.7508 216.501 95.2821 214.962C94.1195 211.115 92.9271 207.261 92.0053 203.351C91.5495 201.421 91.2083 199.453 91.2218 197.465C91.2434 195.71 91.5022 193.967 91.9911 192.282C92.9641 188.836 94.6979 185.657 96.5728 182.628C97.575 181.005 98.5673 179.33 99.7598 177.84C100.876 176.445 102.244 175.078 103.967 174.483L103.561 174.174L103.54 174.722C103.529 174.994 103.435 175.247 103.356 175.51C103.118 176.306 102.843 177.092 102.644 177.896C102.445 178.7 102.288 179.545 102.296 180.385C102.303 181.276 102.518 182.094 102.822 182.928C104.002 186.152 105.31 189.331 106.811 192.419C109.755 198.474 113.488 204.191 118.285 208.945C120.242 210.882 122.408 212.562 124.692 214.095C127.372 215.895 130.248 217.456 132.656 219.628C134.831 221.594 136.598 223.966 138.774 225.924C140.89 227.829 143.262 229.446 145.558 231.124C147.734 232.712 149.889 234.316 151.745 236.277C153.882 238.532 156.683 240.088 159.232 241.814C159.828 242.219 160.417 242.634 160.989 243.074C161.308 243.312 161.628 242.754 161.304 242.505Z" fill="#662D90"/>
<path d="M186.564 191.586C187.599 193.139 187.733 195.103 187.835 196.967C187.879 197.766 187.919 198.591 187.643 199.339C187.367 200.088 186.681 200.75 185.881 200.741C186.727 201.208 187.547 201.722 188.336 202.28C184.119 204.866 180.019 207.63 176.035 210.571C174.006 212.067 171.988 213.634 170.407 215.598C169.339 216.927 168.484 218.419 167.711 219.936C163.958 227.298 161.908 235.408 161.711 243.669C161.574 240.699 161.438 237.72 161.671 234.755C161.937 231.384 162.682 228.063 163.641 224.819C164.994 220.256 166.814 215.751 169.774 212.025C172.578 208.497 176.286 205.805 179.422 202.571C182.558 199.337 185.223 195.2 185.081 190.695L187.47 193.264" fill="black"/>
<path d="M186.371 192.022C186.366 192.015 186.363 192.006 186.361 191.998C186.359 191.989 186.359 191.979 186.361 191.971C186.366 191.847 186.41 191.728 186.489 191.632C186.58 191.533 186.731 191.473 186.995 191.574C187.018 191.584 187.04 191.597 187.059 191.613C187.104 191.684 187.139 191.755 187.179 191.827C187.219 191.898 187.259 191.969 187.294 192.045C187.361 192.193 187.436 192.341 187.491 192.494C187.519 192.57 187.555 192.644 187.579 192.721L187.618 192.837L187.644 192.912C187.785 193.343 187.894 193.784 187.972 194.23C188.128 195.114 188.185 195.997 188.233 196.866C188.266 197.313 188.275 197.762 188.26 198.21C188.244 198.692 188.144 199.167 187.962 199.614C187.862 199.846 187.731 200.064 187.573 200.261C187.412 200.462 187.222 200.637 187.009 200.781L186.928 200.836L186.908 200.847L186.89 200.857L186.947 200.891C187.135 201.004 187.324 201.12 187.509 201.239L187.786 201.418L188.067 201.605C188.247 201.726 188.423 201.849 188.599 201.972L188.864 202.157L188.995 202.25L189.027 202.273L189.045 202.284C189.045 202.289 189.06 202.292 189.057 202.296L188.985 202.339L188.487 202.651L188.002 202.95L187.498 203.262C187.162 203.472 186.828 203.683 186.493 203.894C185.823 204.317 185.159 204.744 184.498 205.176C183.172 206.042 181.858 206.925 180.556 207.826C179.255 208.726 177.967 209.646 176.693 210.586C175.416 211.522 174.151 212.466 172.983 213.506C172.4 214.023 171.845 214.569 171.32 215.145C171.065 215.435 170.812 215.729 170.574 216.034C170.336 216.34 170.109 216.654 169.889 216.975C169.451 217.617 169.051 218.289 168.671 218.976C168.481 219.318 168.297 219.665 168.119 220.017C167.941 220.369 167.769 220.722 167.594 221.076C167.509 221.253 167.418 221.428 167.338 221.607L167.092 222.145C166.93 222.501 166.759 222.857 166.61 223.223L166.149 224.312L165.717 225.413L165.61 225.688C165.574 225.78 165.545 225.872 165.509 225.966L165.309 226.521L165.109 227.077C165.045 227.262 164.985 227.451 164.922 227.638L164.738 228.198C164.679 228.386 164.61 228.572 164.558 228.761L164.221 229.894C163.793 231.409 163.424 232.94 163.114 234.486C162.818 236.034 162.583 237.591 162.408 239.157L162.298 240.333L162.269 240.628L162.251 240.923L162.212 241.512L162.174 242.102C162.163 242.298 162.159 242.495 162.15 242.692L162.128 243.282L162.117 243.577V243.669C162.829 243.669 161.15 243.691 161.323 243.679V243.638L161.316 243.489C161.245 241.903 161.174 240.313 161.161 238.716C161.14 237.115 161.206 235.514 161.36 233.92C161.525 232.327 161.778 230.744 162.12 229.179C162.457 227.616 162.865 226.07 163.322 224.543C163.778 223.015 164.283 221.496 164.876 220.008C165.695 217.942 166.665 215.925 167.868 214.039C168.469 213.097 169.129 212.192 169.843 211.332C170.555 210.473 171.323 209.661 172.113 208.88C173.696 207.317 175.373 205.879 176.987 204.392C177.794 203.649 178.583 202.891 179.338 202.104C180.089 201.319 180.791 200.49 181.442 199.62C182.091 198.755 182.668 197.84 183.168 196.881C183.666 195.931 184.056 194.927 184.331 193.89C184.465 193.375 184.565 192.851 184.629 192.322L184.669 191.926L184.68 191.727L184.689 191.599C184.694 191.528 184.694 191.457 184.697 191.39V190.528L184.691 189.954V189.69C184.691 189.685 184.691 189.69 184.691 189.69L184.697 189.696L184.709 189.709L185.503 190.564L185.772 190.875L186.05 191.196L186.226 191.421C186.479 191.744 186.796 192.157 187.039 192.51C187.898 193.683 187.376 193.38 186.697 192.79C186.722 192.83 186.331 192.464 185.932 192.084L185.638 191.807L185.504 191.679C185.499 191.677 185.494 191.677 185.49 191.679C185.476 191.683 185.481 191.7 185.48 191.699L185.423 192.382C185.293 193.461 185.029 194.52 184.639 195.534C184.253 196.541 183.775 197.51 183.211 198.429C182.649 199.338 182.026 200.209 181.346 201.034C180.668 201.857 179.947 202.644 179.187 203.391C178.434 204.141 177.657 204.86 176.879 205.572C175.317 206.991 173.736 208.371 172.268 209.856C171.535 210.592 170.84 211.367 170.187 212.175C169.539 212.986 168.94 213.834 168.392 214.715C167.843 215.598 167.34 216.507 166.881 217.441C166.424 218.376 166.006 219.332 165.622 220.301C165.045 221.762 164.543 223.26 164.091 224.77C163.639 226.28 163.236 227.807 162.905 229.347C162.57 230.883 162.32 232.436 162.158 234C162.009 235.566 161.945 237.139 161.966 238.711C161.978 240.289 162.048 241.869 162.121 243.453L162.128 243.602V243.639C162.302 243.647 160.618 243.667 161.33 243.648V243.554L161.342 243.255L161.365 242.656C161.373 242.455 161.378 242.257 161.388 242.057L161.428 241.458L161.467 240.861L161.487 240.562L161.514 240.264L161.626 239.07C161.792 237.482 162.025 235.902 162.324 234.329C162.634 232.762 163.012 231.207 163.447 229.67L163.789 228.521C163.843 228.329 163.911 228.14 163.971 227.951L164.159 227.381C164.223 227.19 164.281 227.001 164.35 226.811L164.555 226.247L164.756 225.683C164.79 225.59 164.821 225.495 164.859 225.402L164.969 225.123L165.406 224.006L165.872 222.903C166.024 222.534 166.199 222.173 166.363 221.809L166.613 221.264C166.694 221.081 166.787 220.908 166.874 220.725C167.051 220.369 167.226 220.006 167.406 219.65C167.586 219.294 167.776 218.938 167.97 218.589C168.355 217.884 168.77 217.194 169.225 216.523C169.453 216.19 169.691 215.86 169.941 215.54C170.192 215.22 170.454 214.912 170.725 214.608C171.269 214.01 171.844 213.442 172.449 212.906C173.653 211.837 174.937 210.879 176.218 209.939C177.498 209 178.795 208.075 180.103 207.17C181.41 206.264 182.731 205.378 184.062 204.508C184.727 204.075 185.396 203.645 186.07 203.218C186.406 203.005 186.742 202.793 187.08 202.584L187.608 202.257L187.348 202.085L187.078 201.911C186.898 201.796 186.717 201.683 186.534 201.574L186.31 201.44C186.216 201.385 186.123 201.33 186.025 201.276C185.833 201.167 185.64 201.058 185.445 200.95L184.864 200.629L184.702 200.54L184.517 200.437L184.471 200.411L184.449 200.398H184.492L184.684 200.39L185.454 200.36L185.779 200.347H185.86H185.9C185.91 200.346 185.919 200.345 185.929 200.343L186.032 200.324L186.239 200.284L186.264 200.279C186.272 200.279 186.279 200.277 186.286 200.274L186.318 200.258L186.382 200.227L186.51 200.163L186.564 200.126C186.86 199.92 187.092 199.635 187.232 199.303C187.268 199.218 187.299 199.131 187.325 199.042C187.338 198.996 187.353 198.951 187.363 198.904C187.373 198.857 187.385 198.81 187.393 198.762C187.432 198.568 187.455 198.371 187.465 198.174C187.478 197.754 187.47 197.334 187.439 196.915C187.391 196.052 187.335 195.201 187.188 194.375C187.118 193.967 187.018 193.565 186.888 193.171L186.866 193.1L186.831 192.996C186.808 192.925 186.778 192.862 186.752 192.795C186.702 192.659 186.638 192.531 186.578 192.401C186.549 192.337 186.514 192.271 186.478 192.208C186.442 192.144 186.408 192.08 186.371 192.022Z" fill="#61328F"/>
<path d="M106.271 143.471C105.883 143.702 105.694 144.095 105.662 144.545C105.619 145.107 106.246 145.507 106.809 145.534C107.372 145.561 107.926 145.363 108.489 145.38C110.006 145.425 110.999 146.904 112.122 147.922C113.476 149.149 115.281 149.809 117.098 150.024C118.915 150.239 120.753 150.038 122.557 149.718C125.929 149.121 129.407 147.994 131.674 145.43C132.476 144.525 133.095 143.476 133.709 142.433C134.208 141.589 134.712 140.719 134.856 139.751C134.91 139.38 134.913 138.996 135.049 138.646C135.485 137.506 137.154 137.07 137.43 135.953C137.449 135.877 137.44 135.798 137.404 135.728C137.369 135.659 137.31 135.604 137.238 135.574C136.619 135.324 135.836 135.831 135.244 136.26C134.104 137.077 132.799 137.62 131.49 138.12C126.348 140.086 121.07 141.675 115.698 142.874C114.105 143.23 112.501 143.553 110.874 143.682C109.434 143.797 107.986 143.759 106.553 143.57L106.271 143.471Z" fill="#FF5663"/>
<path d="M106.319 143.62C107.706 144.488 109.658 144.399 111.292 144.309C114.619 144.125 117.906 143.486 121.06 142.409C121.26 142.338 121.503 142.141 121.372 141.975C121.95 142.399 122.911 142.071 123.107 141.382C123.348 141.504 123.618 141.555 123.887 141.53C124.155 141.505 124.412 141.404 124.626 141.24C124.893 141.026 125.086 140.716 125.395 140.567C125.633 140.451 125.908 140.45 126.172 140.439C129.186 140.318 131.942 138.787 134.565 137.297C135.408 136.817 136.268 136.325 136.916 135.612C136.929 135.598 136.939 135.58 136.942 135.561C136.946 135.542 136.944 135.523 136.938 135.504C136.931 135.486 136.919 135.471 136.905 135.458C136.889 135.447 136.871 135.439 136.852 135.437C136.155 135.365 135.464 135.722 134.767 135.885C133.398 136.21 131.979 135.78 130.61 135.458C128.806 135.036 126.932 135.015 125.119 135.395C123.579 135.711 121.075 137.318 120.931 137.295C119.054 137.033 116.28 137.817 114.715 138.887C113.27 139.874 111.919 140.999 110.602 142.151C109.853 142.806 108.954 143.569 107.989 143.322C107.661 143.239 107.365 143.037 107.028 142.989C106.69 142.94 106.272 143.131 106.272 143.472L106.319 143.62Z" fill="#DC3B63"/>
<path d="M112.007 129.821C111.014 129.642 110.012 129.461 109.086 129.052C108.178 128.651 107.451 127.929 107.043 127.024C106.968 126.861 106.851 126.604 106.921 126.44C106.93 126.421 106.943 126.404 106.96 126.391C107.683 125.761 107.913 125.788 108.598 125.607C110.064 125.222 110.671 125.274 112.134 125.671C113.596 126.069 115.245 127.275 116.759 127.355C118.273 127.436 119.283 127.373 120.244 126.2C120.833 125.484 122.084 123.627 122.757 122.988C123.391 122.384 124.706 122.231 125.577 122.127C126.377 122.03 127.401 122.182 127.591 123.003C127.646 123.264 127.608 123.537 127.483 123.773C127.231 124.271 126.766 124.566 126.309 124.847C125.907 125.093 125.505 125.504 125.098 125.809C125.039 125.857 124.964 125.882 124.887 125.88C124.811 125.878 124.738 125.848 124.681 125.797C124.625 125.746 124.589 125.676 124.579 125.601C124.569 125.526 124.587 125.45 124.629 125.387C124.703 125.262 124.775 125.138 124.842 125.031C124.859 125.004 124.87 124.974 124.874 124.942C124.878 124.911 124.875 124.879 124.866 124.848C124.856 124.818 124.84 124.79 124.819 124.767C124.797 124.745 124.77 124.727 124.741 124.715C124.391 124.578 124.092 124.739 123.715 124.994C123.324 125.261 122.905 125.745 122.659 126.113C121.85 127.324 121.467 128.314 120.38 129.265C120.214 129.407 119.87 129.616 119.634 129.764C119.414 129.892 119.173 129.983 118.922 130.032C117.464 130.253 115.973 130.03 114.643 129.391C113.553 128.863 112.547 128.048 111.341 127.929C111.1 127.906 110.842 127.916 110.657 128.092C110.615 128.133 110.583 128.181 110.562 128.235C110.541 128.29 110.533 128.348 110.538 128.407C110.557 128.6 110.707 128.672 110.852 128.728C111.579 128.993 112.575 128.999 112.847 129.725C112.542 129.89 112.194 129.96 111.849 129.925C111.761 129.916 111.803 129.743 111.812 129.831" fill="#A63344"/>
<path d="M114.222 129.155C114.092 129.048 113.954 128.953 113.809 128.87L112.715 128.203C112.51 128.067 112.291 127.955 112.062 127.868C111.655 127.735 111.36 127.64 110.951 127.697C110.782 127.72 110.445 127.952 110.437 128.183C110.43 128.386 110.443 128.682 110.58 128.776C110.836 128.952 112.905 129.521 113.209 129.555C113.607 129.599 113.964 129.69 114.21 129.281L114.222 129.155Z" fill="black"/>
<path d="M125.172 124.733C125.201 124.574 125.033 124.448 124.877 124.412C124.449 124.312 124.022 124.579 123.659 124.834C123.121 125.211 122.564 125.609 122.253 126.187C122.128 126.434 122.032 126.694 121.968 126.964C121.936 127.046 121.936 127.138 121.968 127.22C122.049 127.353 122.253 127.313 122.396 127.255C122.855 127.069 123.302 126.855 123.735 126.614C123.958 126.497 124.169 126.356 124.363 126.194C124.676 125.92 124.957 125.591 125.119 125.208C125.18 125.058 125.198 124.894 125.17 124.734L125.172 124.733Z" fill="black"/>
<path d="M82.3184 112.384L81.5576 113.966C81.5576 113.966 84.2281 115.546 90.5273 113.362C96.8264 111.177 100.595 106.852 100.595 106.852C100.595 106.852 94.1409 113.889 82.3184 112.384Z" fill="#DD6B7C"/>
<path d="M101.321 105.747C101.479 104.484 93.1416 100.286 87.5434 102.066C81.9452 103.846 79.7413 108.607 80.0974 109.708C80.4536 110.809 82.7437 115.087 90.7653 112.893C95.9589 111.472 101.183 106.847 101.321 105.747Z" fill="url(#paint0_linear_1409_7867)"/>
<path d="M91.1914 112.459C92.3503 112.272 93.4275 111.745 94.2868 110.945C95.1461 110.145 95.749 109.108 96.0191 107.966C96.2892 106.823 96.2144 105.626 95.8043 104.526C95.3941 103.426 94.667 102.472 93.7149 101.786C92.7627 101.099 91.6283 100.71 90.4551 100.668C89.2818 100.626 88.1225 100.933 87.1236 101.549C86.1247 102.166 85.3312 103.066 84.8434 104.133C84.3555 105.201 84.1953 106.39 84.3829 107.549C84.5075 108.318 84.7825 109.056 85.1921 109.719C85.6016 110.382 86.1379 110.958 86.7701 111.414C87.4023 111.87 88.1182 112.197 88.8768 112.376C89.6354 112.556 90.4219 112.584 91.1914 112.459Z" fill="url(#paint1_linear_1409_7867)"/>
<path d="M93.8923 110.828C94.7292 110.106 95.3332 109.152 95.6279 108.087C95.9226 107.021 95.8948 105.893 95.5479 104.843C95.2011 103.793 94.5508 102.87 93.6793 102.19C92.8077 101.51 91.7542 101.104 90.6518 101.023C89.5494 100.942 88.4477 101.189 87.4859 101.734C86.5242 102.279 85.7457 103.097 85.2488 104.084C84.7519 105.072 84.559 106.184 84.6945 107.282C84.8299 108.379 85.2876 109.411 86.0097 110.248C86.9781 111.37 88.3526 112.061 89.8308 112.17C91.309 112.279 92.77 111.796 93.8923 110.828Z" fill="url(#paint2_linear_1409_7867)"/>
<path style="mix-blend-mode:multiply" d="M90.2417 110.222C90.959 110.222 91.6601 110.009 92.2565 109.61C92.8529 109.212 93.3177 108.646 93.5922 107.983C93.8666 107.32 93.9384 106.591 93.7984 105.887C93.6584 105.184 93.313 104.538 92.8057 104.031C92.2985 103.524 91.6523 103.178 90.9488 103.038C90.2452 102.898 89.5161 102.97 88.8534 103.245C88.1908 103.52 87.6244 103.985 87.2261 104.581C86.8277 105.177 86.6151 105.879 86.6152 106.596C86.6154 107.558 86.9976 108.48 87.6776 109.16C88.3577 109.84 89.28 110.222 90.2417 110.222Z" fill="url(#paint3_linear_1409_7867)"/>
<path d="M100.763 104.926C100.763 104.926 93.0361 99.0412 86.6715 100.927C80.3068 102.814 80.123 108.929 80.123 108.929C80.123 108.929 81.2735 104.24 87.542 102.061C93.413 100.02 100.763 104.926 100.763 104.926Z" fill="#DD4C6A"/>
<path d="M100.765 104.927C100.765 104.927 93.6742 100.28 87.5012 102.438C81.3281 104.597 80.0623 109.476 80.0623 109.476L77.3555 108.75L78.5379 107.912C78.5379 107.912 80.7412 103.688 85.2709 101.8C90.1674 99.7601 96.4295 101.824 100.765 104.927Z" fill="#4E1B3D"/>
<path d="M100.461 104.742C100.461 104.742 100.631 106.922 99.6631 107.756C99.6631 107.756 101.856 106.046 101.626 105.554C101.397 105.061 100.461 104.742 100.461 104.742Z" fill="#DD6B7C"/>
<path d="M86.0353 107.724C86.5076 107.808 85.1292 108.744 83.8157 108.978C82.6396 109.187 81.8083 108.86 81.8325 108.693C81.8568 108.526 84.1668 107.394 86.0353 107.724Z" fill="white"/>
<path d="M87.0046 107.495C87.3252 107.109 87.92 107.031 88.0731 107.233C88.2263 107.434 87.8879 108.009 87.6016 108.061C87.3152 108.113 86.8273 107.708 87.0046 107.495Z" fill="white"/>
<g opacity="0.6">
<g style="mix-blend-mode:multiply" opacity="0.6">
<path d="M100.46 104.74C100.46 104.74 87.7464 99.3346 80.0967 109.703L80.0625 109.475C80.0625 109.475 80.1594 105.377 86.3894 102.489C92.6194 99.6017 99.2947 103.925 100.46 104.74Z" fill="#D177B8"/>
</g>
</g>
<path d="M140.386 97.3125L141.797 98.3561C141.797 98.3561 140.174 101.002 133.584 102.012C126.994 103.022 121.645 100.962 121.645 100.962C121.645 100.962 130.64 104.167 140.386 97.3125Z" fill="#DD6B7C"/>
<path d="M120.484 100.322C119.755 99.28 125.165 91.671 130.944 90.6288C136.723 89.5867 140.897 92.7615 141.098 93.9055C141.298 95.0495 141.272 99.8976 133.156 101.707C127.9 102.877 121.12 101.229 120.484 100.322Z" fill="url(#paint4_linear_1409_7867)"/>
<path d="M136.362 97.6447C136.706 96.522 136.709 95.3226 136.371 94.198C136.034 93.0734 135.37 92.0742 134.464 91.3268C133.559 90.5793 132.452 90.1173 131.284 89.999C130.115 89.8807 128.938 90.1115 127.901 90.6622C126.864 91.2129 126.014 92.0588 125.458 93.0928C124.901 94.1269 124.664 95.3027 124.776 96.4716C124.888 97.6404 125.344 98.7498 126.087 99.6594C126.829 100.569 127.825 101.238 128.948 101.582C130.453 102.043 132.08 101.887 133.47 101.148C134.86 100.41 135.9 99.1498 136.362 97.6447Z" fill="url(#paint5_linear_1409_7867)"/>
<path d="M136.021 97.5282C136.344 96.4715 136.347 95.3425 136.029 94.2841C135.711 93.2258 135.086 92.2855 134.233 91.5822C133.381 90.8789 132.339 90.4442 131.239 90.333C130.14 90.2219 129.032 90.4392 128.056 90.9576C127.08 91.476 126.279 92.2722 125.756 93.2454C125.232 94.2187 125.009 95.3253 125.114 96.4255C125.22 97.5256 125.649 98.5698 126.348 99.426C127.046 100.282 127.983 100.912 129.04 101.236C129.742 101.451 130.479 101.526 131.21 101.456C131.94 101.386 132.65 101.173 133.298 100.828C133.947 100.484 134.521 100.015 134.988 99.449C135.455 98.8828 135.806 98.2301 136.021 97.5282Z" fill="url(#paint6_linear_1409_7867)"/>
<path style="mix-blend-mode:multiply" d="M130.679 99.5264C131.396 99.5264 132.098 99.3137 132.694 98.9152C133.29 98.5167 133.755 97.9503 134.03 97.2877C134.304 96.625 134.376 95.8959 134.236 95.1924C134.096 94.4889 133.751 93.8428 133.243 93.3356C132.736 92.8284 132.09 92.4831 131.387 92.3431C130.683 92.2032 129.954 92.275 129.291 92.5495C128.629 92.824 128.062 93.2888 127.664 93.8852C127.265 94.4815 127.053 95.1827 127.053 95.8999C127.053 96.8616 127.435 97.7839 128.115 98.464C128.795 99.144 129.717 99.5262 130.679 99.5264Z" fill="url(#paint7_linear_1409_7867)"/>
<path d="M120.595 99.3352C120.595 99.3352 124.676 90.5216 131.184 89.2145C137.692 87.9073 140.714 93.2284 140.714 93.2284C140.714 93.2284 137.508 89.6212 130.946 90.6242C124.8 91.563 120.595 99.3352 120.595 99.3352Z" fill="#DD4C6A"/>
<path d="M120.595 99.3393C120.595 99.3393 124.692 91.9168 131.159 90.9388C137.625 89.9608 141.022 93.6841 141.022 93.6841L143.074 91.7765L141.638 91.5884C141.638 91.5884 137.716 88.8816 132.83 89.3318C127.551 89.8169 122.977 94.5695 120.595 99.3393Z" fill="#4E1B3D"/>
<path d="M120.775 99.0312C120.775 99.0312 121.645 101.041 122.892 101.325C122.892 101.325 120.154 100.84 120.127 100.299C120.1 99.7585 120.775 99.0312 120.775 99.0312Z" fill="#DD6B7C"/>
<path d="M134.925 94.9258C134.547 95.2207 136.207 95.4045 137.474 94.997C138.614 94.6323 139.192 93.9542 139.095 93.8217C138.997 93.6892 136.417 93.7618 134.925 94.9258Z" fill="white"/>
<path d="M133.961 95.1846C133.5 94.9916 132.934 95.2024 132.897 95.451C132.86 95.6996 133.424 96.0501 133.701 95.9639C133.979 95.8777 134.218 95.2908 133.961 95.1846Z" fill="white"/>
<g style="mix-blend-mode:multiply" opacity="0.6">
<path d="M120.776 99.035C120.776 99.035 129.492 88.3151 141.098 93.9062L141.027 93.6889C141.027 93.6889 139.025 90.1116 132.168 90.4706C125.311 90.8296 121.426 97.7692 120.776 99.035Z" fill="#D177B8"/>
</g>
<path d="M254.792 185.375C254.019 185.296 253.239 185.399 252.513 185.676C248.66 174.513 238.001 167.294 227.62 161.664C225.412 160.467 223.146 159.277 221.363 157.502C219.098 155.244 217.79 152.223 216.56 149.271C214.113 143.401 211.716 137.407 207.846 132.365C203.975 127.323 198.704 123.22 193.258 119.935C187.781 116.631 185.469 106.79 185.263 104.264C184.794 98.4989 183.646 94.7243 178.431 86.5396C175.061 81.2499 170.596 76.7601 166.174 72.3151C157.231 63.3327 150.146 53.1414 141.204 44.1589C135.484 38.414 127.728 33.7525 120.329 30.4359C120.329 30.4359 116.263 28.7227 112.28 28.5411C108.296 28.3595 100.149 28.0425 97.2495 30.307C95.4853 31.6824 93.5901 32.8811 91.5914 33.8857C84.0892 32.2473 78.652 35.6167 73.1692 40.9919C67.6864 46.3671 62.3418 52.9191 60.1336 60.2746C47.3658 102.807 53.4377 125.544 67.2397 154.154C69.121 158.054 71.6134 161.767 72.3685 166.03C73.192 170.681 72.3372 175.494 73.0345 180.165C74.1422 187.591 79.4455 194.244 86.4427 196.976C94.492 193.415 99.7091 177.419 103.873 174.161C104.056 170.722 103.157 167.175 102.184 165.289C101.279 163.537 100.02 158.966 99.0495 158.411C96.8413 157.141 92.5296 154.596 89.0534 150.623C85.8265 146.934 83.5079 144.421 81.9921 139.76C80.4762 135.099 77.2793 133.1 77.1625 128.202C76.8486 115.043 76.5347 101.886 76.2208 88.7279C75.9993 79.4299 75.4372 72.1192 77.1183 62.9687C77.6312 60.1806 78.9576 57.6461 80.9072 55.5904C82.5206 53.8865 85.3479 52.3436 87.5205 51.4589C92.0031 49.6317 95.8433 48.1885 100.326 46.3586C102.724 45.3798 104.809 45.1896 107.387 44.9339C114.704 44.2016 120.444 47.4085 125 53.1663C127.06 55.7691 128.49 60.338 131.518 65.0081C133.96 68.7791 139.2 74.5433 141.408 78.4711C143.033 81.3567 142.67 82.6645 144.257 85.6001C145.941 88.7101 150.749 93.1543 152.483 96.28C153.36 97.8614 154.27 99.4613 154.67 101.226C155.24 103.727 154.734 106.336 154.707 108.902C154.617 117.111 157.926 125.871 155.596 133.739C153.957 139.268 150.454 143.059 149.869 148.795C148.972 157.628 157.158 163.896 163.2 170.406C167.93 175.497 172.144 181.559 177.091 186.441C186.972 196.2 204.78 193.083 206.166 193.741C209.289 201.813 213.608 209.568 219.851 215.563C226.095 221.558 234.425 225.671 243.08 225.686C247.377 225.694 252.135 224.225 254.792 221.11L254.792 185.375Z" fill="#FCB677"/>
<path d="M51.5807 218.535C51.5837 218.526 51.588 218.517 51.5935 218.508C51.5993 218.5 51.6068 218.494 51.6156 218.489C51.7069 218.4 51.8299 218.35 51.9575 218.352C52.0907 218.361 52.2254 218.457 52.3322 218.698C52.3406 218.718 52.3452 218.74 52.3457 218.762L52.3002 218.911C52.2859 218.959 52.2767 219.011 52.2638 219.062L52.1926 219.366L52.1413 219.677L52.1164 219.832L52.1 219.988C52.0231 220.734 52.0252 221.486 52.1064 222.232C52.1898 222.986 52.3274 223.732 52.5181 224.466C52.6107 224.834 52.7219 225.198 52.8387 225.561C52.9555 225.924 53.0866 226.281 53.2283 226.636C53.5068 227.348 53.8217 228.046 54.1543 228.744C54.8168 230.138 55.5448 231.519 56.1717 232.965C56.7985 234.411 57.3214 235.886 57.81 237.368C58.0543 238.108 58.2923 238.85 58.5295 239.59C58.7667 240.331 59.0039 241.074 59.2261 241.824C59.4484 242.574 59.6599 243.329 59.8444 244.094C60.0289 244.859 60.1814 245.634 60.3253 246.397C60.4691 247.16 60.6066 247.925 60.7648 248.676C60.9144 249.426 61.1017 250.168 61.3261 250.899C61.3403 250.944 61.3524 250.99 61.3688 251.035L61.4023 251.134L61.418 251.18L61.4486 251.268L61.5127 251.448C61.5512 251.568 61.5989 251.685 61.6452 251.804C61.6452 251.804 61.6666 251.875 61.7043 251.993C61.7228 252.051 61.7421 252.121 61.7684 252.203L61.861 252.462L61.9657 252.762C62.0064 252.864 62.0498 252.969 62.094 253.075L62.1581 253.234C62.178 253.288 62.1994 253.341 62.2222 253.391C62.2692 253.494 62.3141 253.594 62.3554 253.692C62.3931 253.772 62.4266 253.848 62.4565 253.915C62.4865 253.982 62.5214 254.042 62.5463 254.095C62.5882 254.18 62.6251 254.267 62.6567 254.357C62.7009 254.492 62.6902 254.546 62.6368 254.539C62.5833 254.531 62.49 254.462 62.3704 254.351C62.3105 254.295 62.2421 254.228 62.1737 254.154C62.1369 254.116 62.1027 254.076 62.0712 254.034C62.037 253.991 61.9999 253.947 61.9672 253.901C61.9757 253.925 61.9031 253.823 61.7813 253.658C61.7171 253.578 61.6609 253.474 61.5889 253.363C61.517 253.253 61.4465 253.132 61.3752 253.011L61.1786 252.644L61.0882 252.474C61.0611 252.418 61.0376 252.365 61.0169 252.318L60.8652 251.992C60.8146 251.87 60.7754 251.746 60.732 251.622L60.6679 251.436L60.6522 251.389L60.6223 251.304C60.6059 251.258 60.5917 251.211 60.5781 251.161L60.41 250.6C59.994 249.096 59.7468 247.575 59.4591 246.082C59.3166 245.334 59.1585 244.599 58.9718 243.866C58.7852 243.133 58.5765 242.404 58.3542 241.676C58.132 240.948 57.9005 240.224 57.6668 239.496C57.4332 238.769 57.2003 238.042 56.9545 237.32C56.4723 235.876 55.9573 234.45 55.3461 233.068C54.7349 231.686 54.0233 230.336 53.3644 228.943C53.0353 228.247 52.7233 227.539 52.4384 226.814C52.1553 226.087 51.9174 225.343 51.726 224.586C51.5311 223.826 51.392 223.054 51.31 222.274C51.2274 221.485 51.2274 220.69 51.31 219.901L51.3278 219.729L51.3556 219.557L51.4119 219.214L51.4902 218.874C51.5038 218.817 51.5145 218.76 51.5308 218.704L51.5807 218.535Z" fill="#61328F"/>
<defs>
<linearGradient id="paint0_linear_1409_7867" x1="93.5426" y1="112.374" x2="87.2991" y2="102.168" gradientUnits="userSpaceOnUse">
<stop stop-color="#EEE2FF"/>
<stop offset="1" stop-color="#BDC9FB"/>
</linearGradient>
<linearGradient id="paint1_linear_1409_7867" x1="92.7628" y1="110.69" x2="86.5634" y2="100.629" gradientUnits="userSpaceOnUse">
<stop stop-color="#471F4B"/>
<stop offset="1" stop-color="#310A39"/>
</linearGradient>
<linearGradient id="paint2_linear_1409_7867" x1="93.0568" y1="111.172" x2="87.1822" y2="101.626" gradientUnits="userSpaceOnUse">
<stop stop-color="#57335B"/>
<stop offset="1" stop-color="#310A39"/>
</linearGradient>
<linearGradient id="paint3_linear_1409_7867" x1="92.2932" y1="109.951" x2="88.5221" y2="103.787" gradientUnits="userSpaceOnUse">
<stop stop-color="#A79ABD"/>
<stop offset="0.99" stop-color="#724A60"/>
</linearGradient>
<linearGradient id="paint4_linear_1409_7867" x1="130.469" y1="102.249" x2="131.239" y2="90.2677" gradientUnits="userSpaceOnUse">
<stop stop-color="#EEE2FF"/>
<stop offset="1" stop-color="#BDC9FB"/>
</linearGradient>
<linearGradient id="paint5_linear_1409_7867" x1="130.305" y1="101.831" x2="131.067" y2="89.9808" gradientUnits="userSpaceOnUse">
<stop stop-color="#471F4B"/>
<stop offset="1" stop-color="#310A39"/>
</linearGradient>
<linearGradient id="paint6_linear_1409_7867" x1="130.318" y1="101.47" x2="131.036" y2="90.3138" gradientUnits="userSpaceOnUse">
<stop stop-color="#57335B"/>
<stop offset="1" stop-color="#310A39"/>
</linearGradient>
<linearGradient id="paint7_linear_1409_7867" x1="130.446" y1="99.5185" x2="130.911" y2="92.2806" gradientUnits="userSpaceOnUse">
<stop stop-color="#A79ABD"/>
<stop offset="0.99" stop-color="#724A60"/>
</linearGradient>
</defs>
</svg>
