<svg width="260" height="260" viewBox="0 0 260 260" fill="none" xmlns="http://www.w3.org/2000/svg">
<g filter="url(#filter0_d_380_4054)">
<rect x="40" y="36" width="180" height="180" fill="white"/>
<rect x="40.5" y="36.5" width="179" height="179" stroke="#D9D9D9"/>
</g>
<path d="M117.153 152.929C117.153 152.929 113.332 155.151 119.873 155.903C127.797 156.807 131.847 156.677 140.579 155.025C140.579 155.025 142.876 156.464 146.082 157.711C126.506 166.101 101.777 157.225 117.153 152.929ZM114.761 141.98C114.761 141.98 110.475 145.153 117.021 145.83C125.486 146.703 132.171 146.775 143.738 144.547C143.738 144.547 145.338 146.169 147.854 147.057C124.185 153.978 97.8226 147.602 114.761 141.98Z" fill="#5382A1"/>
<path d="M134.927 123.41C139.751 128.963 133.66 133.961 133.66 133.961C133.66 133.961 145.907 127.638 140.283 119.72C135.029 112.337 131 108.668 152.81 96.0195C152.81 96.0195 118.576 104.57 134.927 123.41" fill="#E76F00"/>
<path d="M160.818 161.028C160.818 161.028 163.646 163.358 157.703 165.161C146.404 168.584 110.674 169.618 100.748 165.297C97.1798 163.745 103.871 161.591 105.976 161.139C108.171 160.663 109.425 160.752 109.425 160.752C105.457 157.956 83.7772 166.241 98.4129 168.613C138.326 175.086 171.171 165.698 160.818 161.028ZM118.99 130.638C118.99 130.638 100.816 134.955 112.555 136.522C117.511 137.186 127.391 137.036 136.595 136.265C144.116 135.63 151.669 134.281 151.669 134.281C151.669 134.281 149.017 135.417 147.098 136.727C128.642 141.581 92.9879 139.323 103.252 134.358C111.933 130.162 118.991 130.638 118.991 130.638H118.99ZM151.594 148.862C170.356 139.113 161.681 129.744 155.626 131.006C154.142 131.315 153.48 131.582 153.48 131.582C153.48 131.582 154.031 130.72 155.084 130.346C167.062 126.135 176.274 142.766 151.217 149.353C151.217 149.354 151.507 149.094 151.594 148.862Z" fill="#5382A1"/>
<path d="M140.283 75.594C140.283 75.594 150.673 85.9884 130.428 101.971C114.193 114.792 126.726 122.102 130.421 130.455C120.945 121.905 113.99 114.378 118.656 107.373C125.504 97.0894 144.475 92.1039 140.283 75.5938" fill="#E76F00"/>
<path d="M120.834 175.28C138.843 176.433 166.497 174.64 167.152 166.119C167.152 166.119 165.893 169.35 152.269 171.915C136.898 174.807 117.94 174.47 106.696 172.616C106.697 172.616 108.998 174.521 120.834 175.28" fill="#5382A1"/>
<defs>
<filter id="filter0_d_380_4054" x="0" y="0" width="260" height="260" filterUnits="userSpaceOnUse" color-interpolation-filters="sRGB">
<feFlood flood-opacity="0" result="BackgroundImageFix"/>
<feColorMatrix in="SourceAlpha" type="matrix" values="0 0 0 0 0 0 0 0 0 0 0 0 0 0 0 0 0 0 127 0" result="hardAlpha"/>
<feOffset dy="4"/>
<feGaussianBlur stdDeviation="20"/>
<feComposite in2="hardAlpha" operator="out"/>
<feColorMatrix type="matrix" values="0 0 0 0 0.0367917 0 0 0 0 0.0348958 0 0 0 0 0.0484375 0 0 0 0.1 0"/>
<feBlend mode="normal" in2="BackgroundImageFix" result="effect1_dropShadow_380_4054"/>
<feBlend mode="normal" in="SourceGraphic" in2="effect1_dropShadow_380_4054" result="shape"/>
</filter>
</defs>
</svg>
