<svg width="260" height="260" viewBox="0 0 260 260" fill="none" xmlns="http://www.w3.org/2000/svg">
<g filter="url(#filter0_d_380_4098)">
<rect x="40" y="36" width="180" height="180" fill="white"/>
<g clip-path="url(#clip0_380_4098)">
<path d="M80.465 149.819H88.7351V114.616H80.465V149.819ZM84.5816 110C87.1719 110 89.1977 108.007 89.1977 105.516C89.1977 102.992 87.1719 101 84.5816 101C82.0239 101 79.998 102.992 79.998 105.516C79.998 108.008 82.0239 110 84.5816 110ZM116.265 101.1C102.29 101.1 93.5148 110.633 93.5148 125.874C93.5148 141.116 102.285 150.617 116.267 150.617C130.217 150.617 138.983 141.118 138.983 125.874C138.983 110.631 130.217 101.1 116.267 101.1H116.265ZM116.265 108.406C124.8 108.406 130.246 115.181 130.246 125.874C130.246 136.535 124.8 143.311 116.265 143.311C107.697 143.311 102.29 136.535 102.29 125.874C102.286 115.181 107.7 108.406 116.267 108.406H116.265ZM142.472 136.336C142.838 145.171 150.078 150.617 161.103 150.617C172.694 150.617 180 144.904 180 135.804C180 128.664 175.884 124.646 166.151 122.421L160.638 121.159C154.76 119.764 152.335 117.909 152.335 114.716C152.335 110.73 155.989 108.074 161.403 108.074C166.882 108.074 170.635 110.764 171.033 115.248H179.203C179.004 106.812 172.029 101.1 161.469 101.1C151.041 101.1 143.634 106.841 143.634 115.347C143.634 122.188 147.819 126.44 156.652 128.466L162.863 129.925C168.907 131.353 171.365 133.345 171.365 136.799C171.365 140.784 167.346 143.64 161.568 143.64C155.718 143.64 151.306 140.751 150.775 136.334H142.472V136.336Z" fill="black"/>
</g>
<rect x="40.5" y="36.5" width="179" height="179" stroke="#D9D9D9"/>
</g>
<defs>
<filter id="filter0_d_380_4098" x="0" y="0" width="260" height="260" filterUnits="userSpaceOnUse" color-interpolation-filters="sRGB">
<feFlood flood-opacity="0" result="BackgroundImageFix"/>
<feColorMatrix in="SourceAlpha" type="matrix" values="0 0 0 0 0 0 0 0 0 0 0 0 0 0 0 0 0 0 127 0" result="hardAlpha"/>
<feOffset dy="4"/>
<feGaussianBlur stdDeviation="20"/>
<feComposite in2="hardAlpha" operator="out"/>
<feColorMatrix type="matrix" values="0 0 0 0 0.0367917 0 0 0 0 0.0348958 0 0 0 0 0.0484375 0 0 0 0.1 0"/>
<feBlend mode="normal" in2="BackgroundImageFix" result="effect1_dropShadow_380_4098"/>
<feBlend mode="normal" in="SourceGraphic" in2="effect1_dropShadow_380_4098" result="shape"/>
</filter>
<clipPath id="clip0_380_4098">
<rect width="100" height="49.6165" fill="white" transform="translate(80 101)"/>
</clipPath>
</defs>
</svg>
