<svg width="80" height="80" viewBox="0 0 80 80" fill="none" xmlns="http://www.w3.org/2000/svg">
<g clip-path="url(#clip0_1098_2854)">
<path d="M58.6004 14.8984H21.2004C17.721 14.8984 14.9004 17.719 14.9004 21.1984V58.5984C14.9004 62.0778 17.721 64.8984 21.2004 64.8984H58.6004C62.0798 64.8984 64.9004 62.0778 64.9004 58.5984V21.1984C64.9004 17.719 62.0798 14.8984 58.6004 14.8984Z" fill="#66C3CD" stroke="#00007E" stroke-width="1.88" stroke-miterlimit="10"/>
<path d="M14.9004 27H64.6004" stroke="#00007E" stroke-width="1.88" stroke-miterlimit="10"/>
<path d="M57.8002 23.0984C58.6838 23.0984 59.4002 22.3821 59.4002 21.4984C59.4002 20.6148 58.6838 19.8984 57.8002 19.8984C56.9165 19.8984 56.2002 20.6148 56.2002 21.4984C56.2002 22.3821 56.9165 23.0984 57.8002 23.0984Z" fill="#00007E" stroke="#00007E" stroke-width="1.88" stroke-miterlimit="10"/>
<path d="M51.5004 23.0984C52.384 23.0984 53.1004 22.3821 53.1004 21.4984C53.1004 20.6148 52.384 19.8984 51.5004 19.8984C50.6167 19.8984 49.9004 20.6148 49.9004 21.4984C49.9004 22.3821 50.6167 23.0984 51.5004 23.0984Z" fill="#00007E" stroke="#00007E" stroke-width="1.88" stroke-miterlimit="10"/>
<path d="M44.9004 43.7031H34.9004V50.5831H44.9004V43.7031Z" stroke="#00007E" stroke-width="1.88" stroke-miterlimit="10"/>
<path d="M44.9004 50.6016H34.9004V57.4816H44.9004V50.6016Z" stroke="#00007E" stroke-width="1.88" stroke-miterlimit="10"/>
<path d="M34.9004 36.7969H24.9004V43.6769H34.9004V36.7969Z" stroke="#00007E" stroke-width="1.88" stroke-miterlimit="10"/>
<path d="M34.9004 43.7031H24.9004V50.5831H34.9004V43.7031Z" stroke="#00007E" stroke-width="1.88" stroke-miterlimit="10"/>
<path d="M34.9004 50.6016H24.9004V57.4816H34.9004V50.6016Z" stroke="#00007E" stroke-width="1.88" stroke-miterlimit="10"/>
<path d="M59.9004 31.7969H49.9004V38.6769H59.9004V31.7969Z" stroke="#00007E" stroke-width="1.88" stroke-miterlimit="10"/>
<path d="M54.9004 43.7031H44.9004V50.5831H54.9004V43.7031Z" stroke="#00007E" stroke-width="1.88" stroke-miterlimit="10"/>
<path d="M54.9004 50.6016H44.9004V57.4816H54.9004V50.6016Z" stroke="#00007E" stroke-width="1.88" stroke-miterlimit="10"/>
<path d="M44.9004 36.7969H34.9004V43.6769H44.9004V36.7969Z" stroke="#00007E" stroke-width="1.88" stroke-miterlimit="10"/>
</g>
<defs>
<clipPath id="clip0_1098_2854">
<rect width="51.9" height="51.9" fill="white" transform="translate(14 14)"/>
</clipPath>
</defs>
</svg>
