<svg width="80" height="80" viewBox="0 0 80 80" fill="none" xmlns="http://www.w3.org/2000/svg">
<rect width="80" height="80" fill="white"/>
<path fill-rule="evenodd" clip-rule="evenodd" d="M41.3809 54.5965C55.188 54.5965 66.3809 48.924 66.3809 41.9271C66.3809 34.9303 55.188 29.2578 41.3809 29.2578C27.574 29.2578 16.3809 34.9303 16.3809 41.9271C16.3809 48.924 27.574 54.5965 41.3809 54.5965Z" fill="#6E81B6"/>
<path fill-rule="evenodd" clip-rule="evenodd" d="M46.4475 46.0193L47.6875 39.637C47.9675 38.1965 47.7347 37.1221 46.9962 36.4432C46.2806 35.7863 45.066 35.4667 43.283 35.4667H41.1354L41.7497 32.3046C41.7612 32.2458 41.7595 32.1851 41.7448 32.1269C41.7301 32.0688 41.7027 32.0147 41.6646 31.9684C41.6265 31.9221 41.5786 31.8848 41.5244 31.8592C41.4701 31.8336 41.4109 31.8203 41.3509 31.8203H38.3868C38.1922 31.8203 38.025 31.9585 37.9878 32.1495L36.6706 38.9251C36.5509 38.1627 36.2559 37.5073 35.7837 36.9665C34.9143 35.9713 33.5391 35.4667 31.6959 35.4667H25.9509C25.7562 35.4667 25.5891 35.6049 25.5519 35.7956L22.8865 49.5106C22.8632 49.63 22.8943 49.7527 22.9717 49.8465C23.0488 49.9405 23.1637 49.9946 23.2855 49.9946H26.2729C26.4676 49.9946 26.6347 49.8564 26.6719 49.6651L27.3167 46.3479H29.5405C30.7074 46.3479 31.6881 46.2215 32.4535 45.9724C33.2362 45.7179 33.9566 45.2862 34.5914 44.6919C35.1044 44.2206 35.5282 43.6927 35.8544 43.1235L35.3221 45.8636C35.2988 45.983 35.3299 46.1063 35.4073 46.1995C35.4844 46.2935 35.5996 46.3476 35.7211 46.3476H38.6852C38.8799 46.3476 39.0471 46.2094 39.0843 46.0187L40.5471 38.4904H42.581C43.4477 38.4904 43.7017 38.663 43.7709 38.7371C43.8335 38.8048 43.9635 39.0433 43.8174 39.7951L42.6385 45.8633C42.6272 45.9221 42.629 45.9827 42.6438 46.0408C42.6586 46.0988 42.6861 46.1529 42.7242 46.1991C42.7623 46.2453 42.8101 46.2826 42.8643 46.3082C42.9184 46.3338 42.9776 46.3472 43.0375 46.3473H46.0487C46.143 46.3475 46.2343 46.3148 46.3071 46.255C46.3799 46.1951 46.4295 46.1118 46.4475 46.0193ZM32.7053 40.7459C32.5191 41.7027 32.1684 42.385 31.6624 42.774C31.1484 43.1704 30.3265 43.3711 29.2191 43.3711H27.895L28.8524 38.4441H30.5644C31.822 38.4441 32.3286 38.7129 32.5321 38.9381C32.8141 39.2507 32.874 39.8761 32.7053 40.7459ZM58.933 36.9665C58.0639 35.9713 56.6887 35.4667 54.8455 35.4667H49.1005C48.9055 35.4667 48.7387 35.6049 48.7015 35.7956L46.0364 49.5106C46.0128 49.63 46.0439 49.7527 46.1213 49.8465C46.1987 49.9402 46.3139 49.9946 46.4348 49.9946H49.4225C49.6175 49.9946 49.7843 49.8564 49.8215 49.6651L50.4663 46.3479H52.6904C53.8576 46.3479 54.8374 46.2215 55.6031 45.9724C56.3861 45.7179 57.1065 45.2862 57.741 44.6919C58.2706 44.2054 58.7063 43.6586 59.0364 43.0682C59.3665 42.4778 59.6032 41.8194 59.7413 41.1108C60.0808 39.3631 59.8091 37.9689 58.933 36.9665ZM56.0245 40.7459C55.838 41.7027 55.4873 42.385 54.9819 42.774C54.4676 43.1704 53.6457 43.3711 52.5386 43.3711H51.2142L52.1713 38.4441H53.8836C55.1412 38.4441 55.6478 38.7129 55.8516 38.9381C56.133 39.2507 56.1932 39.8761 56.0245 40.7459Z" fill="white"/>
<path fill-rule="evenodd" clip-rule="evenodd" d="M30.4794 38.045C31.6143 38.045 32.3709 38.2545 32.7491 38.6735C33.127 39.0925 33.2171 39.8119 33.0194 40.831C32.8126 41.8924 32.4148 42.65 31.8253 43.104C31.2358 43.5581 30.3385 43.7848 29.1342 43.7848H27.3167L28.4322 38.045H30.4794ZM23.2002 49.5954H26.1876L26.8965 45.9493H29.4555C30.5846 45.9493 31.5136 45.8305 32.2428 45.5932C32.9719 45.3559 33.6349 44.9584 34.2313 44.4C34.7319 43.9402 35.137 43.4323 35.4472 42.8773C35.7571 42.3223 35.9771 41.7101 36.1074 41.0405C36.4236 39.4147 36.1851 38.1484 35.3925 37.2414C34.6001 36.3342 33.3392 35.8808 31.6109 35.8808H25.8659L23.2002 49.5954ZM38.3016 32.2344H41.2657L40.5571 35.8808H43.198C44.8589 35.8808 46.0055 36.1704 46.6361 36.7499C47.2667 37.3294 47.4557 38.2687 47.2036 39.5671L45.9635 45.9493H42.9522L44.1312 39.8809C44.2652 39.1904 44.2162 38.7197 43.9831 38.4685C43.75 38.2176 43.2539 38.0918 42.4958 38.0918H40.1269L38.5999 45.9493H35.6358L38.3016 32.2344ZM53.7987 38.045C54.9335 38.045 55.6899 38.2545 56.0684 38.6735C56.4463 39.0925 56.536 39.8119 56.3383 40.831C56.1322 41.8924 55.7343 42.65 55.1445 43.104C54.5553 43.5581 53.6578 43.7848 52.454 43.7848H50.6365L51.7517 38.045H53.7987ZM46.5188 49.5954H49.5065L50.2151 45.9493H52.7741C53.9036 45.9493 54.8325 45.8305 55.5617 45.5932C56.2909 45.3559 56.9538 44.9584 57.5503 44.4C58.0509 43.9402 58.456 43.4323 58.7658 42.8773C59.0757 42.3223 59.2961 41.7101 59.4267 41.0405C59.7426 39.4147 59.5041 38.1484 58.7117 37.2414C57.9188 36.3342 56.6582 35.8808 54.9299 35.8808H49.1849L46.5188 49.5954Z" fill="black"/>
</svg>
