<svg width="80" height="80" viewBox="0 0 80 80" fill="none" xmlns="http://www.w3.org/2000/svg">
<rect x="18" y="15" width="42" height="38" rx="3" fill="white"/>
<path d="M30.7046 25.9219C28.9054 25.9259 27.1622 26.5475 25.7665 27.6828C24.3707 28.8181 23.4071 30.3982 23.0369 32.1589C23.0073 32.2947 23.0086 32.4354 23.0407 32.5706C23.0729 32.7058 23.135 32.8321 23.2224 32.9401C23.3116 33.0508 23.4248 33.1396 23.5534 33.2001C23.682 33.2605 23.8226 33.2909 23.9647 33.289H28.0083C28.0181 33.1929 28.0336 33.0975 28.0547 33.0032L25.3676 31.7302C25.3128 31.7044 25.2637 31.6679 25.223 31.623C25.1823 31.5781 25.1509 31.5256 25.1306 31.4686C25.1102 31.4115 25.1013 31.351 25.1044 31.2905C25.1075 31.23 25.1226 31.1707 25.1486 31.116C25.1745 31.0612 25.2109 31.0121 25.2558 30.9714C25.3007 30.9307 25.3532 30.8993 25.4103 30.8789C25.4673 30.8586 25.5279 30.8497 25.5884 30.8528C25.6489 30.8559 25.7082 30.8709 25.7629 30.897L28.4054 32.1477C28.6492 31.7573 28.9884 31.4353 29.3909 31.212C29.7934 30.9886 30.2461 30.8713 30.7065 30.871C31.3742 30.8713 32.0185 31.1174 32.5165 31.5623C33.0145 32.0073 33.3313 32.6199 33.4065 33.2834H37.4482C37.5885 33.2844 37.7272 33.2534 37.8539 33.193C37.9805 33.1326 38.0918 33.0442 38.1794 32.9346C38.2668 32.8266 38.3289 32.7003 38.361 32.5651C38.3932 32.4298 38.3945 32.2891 38.3649 32.1533C37.9938 30.3949 37.0308 28.817 35.6367 27.683C34.2426 26.5489 32.5017 25.9273 30.7046 25.9219Z" fill="#66C3CD"/>
<path d="M30.7038 25C28.6926 25.0053 26.7441 25.7007 25.184 26.97C23.6239 28.2393 22.5467 30.0056 22.1324 31.9737C22.075 32.2436 22.0785 32.5229 22.1427 32.7913C22.2069 33.0597 22.3302 33.3104 22.5035 33.5251C22.678 33.7413 22.8988 33.9156 23.1496 34.0351C23.4005 34.1546 23.675 34.2162 23.9528 34.2154H37.4475C37.725 34.2159 37.9991 34.1541 38.2496 34.0347C38.5001 33.9152 38.7206 33.7411 38.8949 33.5251C39.0698 33.3111 39.1947 33.0608 39.2606 32.7924C39.3264 32.524 39.3314 32.2443 39.2753 31.9737C38.861 30.0056 37.7838 28.2393 36.2237 26.97C34.6636 25.7007 32.7151 25.0053 30.7038 25ZM38.1786 32.9424C38.091 33.052 37.9798 33.1404 37.8531 33.2008C37.7265 33.2613 37.5878 33.2922 37.4475 33.2913H33.4039C33.3287 32.6277 33.0119 32.0151 32.5139 31.5702C32.0159 31.1252 31.3716 30.8792 30.7038 30.8789C30.2435 30.8791 29.7908 30.9964 29.3883 31.2198C28.9857 31.4431 28.6466 31.7651 28.4028 32.1556L25.7565 30.8993C25.7018 30.8732 25.6426 30.8582 25.582 30.8551C25.5215 30.852 25.461 30.8608 25.4039 30.8812C25.3469 30.9015 25.2944 30.933 25.2495 30.9736C25.2046 31.0143 25.1682 31.0634 25.1423 31.1182C25.1162 31.1729 25.1012 31.2322 25.0981 31.2927C25.095 31.3532 25.1039 31.4138 25.1242 31.4708C25.1446 31.5279 25.176 31.5804 25.2167 31.6253C25.2573 31.6702 25.3065 31.7066 25.3613 31.7325L28.052 33.0018C28.031 33.0961 28.0155 33.1915 28.0056 33.2876H23.9621C23.82 33.2895 23.6793 33.2591 23.5507 33.1986C23.4221 33.1382 23.309 33.0493 23.2198 32.9387C23.1323 32.8307 23.0702 32.7044 23.0381 32.5692C23.006 32.4339 23.0047 32.2932 23.0342 32.1574C23.4045 30.3968 24.3681 28.8167 25.7638 27.6814C27.1596 26.5461 28.9028 25.9244 30.702 25.9204C32.5026 25.9233 34.2476 26.5449 35.6445 27.6811C37.0415 28.8172 38.0056 30.3989 38.3753 32.1611C38.4033 32.2978 38.4002 32.439 38.3662 32.5742C38.3321 32.7095 38.268 32.8353 38.1786 32.9424ZM30.7038 31.7956C31.0988 31.7959 31.4827 31.9265 31.796 32.167C32.1093 32.4075 32.3346 32.7446 32.4371 33.1261H28.9706C29.0733 32.7448 29.2987 32.4079 29.612 32.1674C29.9252 31.9269 30.3089 31.7962 30.7038 31.7956Z" fill="#091796"/>
<path d="M30.7049 31.7891C30.31 31.7897 29.9263 31.9204 29.613 32.1609C29.2998 32.4014 29.0744 32.7383 28.9717 33.1196H32.4381C32.3357 32.7381 32.1104 32.401 31.7971 32.1605C31.4838 31.92 31.0999 31.7894 30.7049 31.7891Z" fill="white"/>
<path d="M30.4579 39.2656C28.6584 39.2692 26.9147 39.8906 25.5186 41.026C24.1225 42.1613 23.1586 43.7417 22.7882 45.5026C22.7592 45.6388 22.7608 45.7796 22.7929 45.9151C22.825 46.0505 22.8868 46.1771 22.9738 46.2857C23.0635 46.3956 23.1769 46.4839 23.3054 46.5439C23.4339 46.604 23.5743 46.6344 23.7161 46.6328H27.7597C27.8349 45.9692 28.1517 45.3566 28.6497 44.9117C29.1476 44.4667 29.7919 44.2207 30.4597 44.2203C30.9201 44.2206 31.3728 44.3379 31.7753 44.5613C32.1778 44.7846 32.5169 45.1066 32.7608 45.4971L35.407 44.2408C35.4617 44.2147 35.521 44.1997 35.5815 44.1966C35.642 44.1935 35.7025 44.2023 35.7596 44.2227C35.8167 44.243 35.8692 44.2744 35.9141 44.3151C35.959 44.3558 35.9954 44.4049 36.0212 44.4597C36.0473 44.5144 36.0623 44.5737 36.0654 44.6342C36.0685 44.6947 36.0597 44.7553 36.0393 44.8123C36.019 44.8694 35.9876 44.9219 35.9469 44.9668C35.9062 45.0117 35.8571 45.0481 35.8023 45.074L33.1152 46.347C33.1356 46.4416 33.1505 46.5325 33.1616 46.6328H37.2052C37.3473 46.6347 37.4879 46.6043 37.6165 46.5438C37.7451 46.4834 37.8583 46.3945 37.9475 46.2839C38.0349 46.1759 38.097 46.0496 38.1291 45.9144C38.1613 45.7791 38.1626 45.6384 38.133 45.5026C37.7622 43.7409 36.7974 42.16 35.4002 41.0246C34.003 39.8893 32.2582 39.2683 30.4579 39.2656Z" fill="#70ADFF"/>
<path d="M30.4571 38.3438C28.4458 38.3487 26.4971 39.044 24.9369 40.3134C23.3768 41.5827 22.2996 43.3492 21.8856 45.3175C21.8292 45.5884 21.8341 45.8684 21.9 46.1372C21.9658 46.4059 22.0909 46.6565 22.2661 46.8707C22.4407 47.0866 22.6616 47.2605 22.9124 47.3797C23.1633 47.4988 23.4377 47.5602 23.7154 47.5592H37.2007C37.4784 47.5602 37.7528 47.4988 38.0036 47.3797C38.2545 47.2605 38.4754 47.0866 38.65 46.8707C38.8236 46.6558 38.947 46.4048 39.0112 46.136C39.0754 45.8673 39.0788 45.5877 39.0212 45.3175C38.6068 43.3508 37.5306 41.5856 35.9721 40.3165C34.4136 39.0474 32.467 38.3511 30.4571 38.3438ZM37.9319 46.2862C37.8427 46.3968 37.7295 46.4857 37.6009 46.5461C37.4723 46.6065 37.3317 46.6369 37.1896 46.635H33.1553C33.1442 46.5385 33.1293 46.4495 33.1089 46.3492L35.796 45.0762C35.8507 45.0504 35.8999 45.0139 35.9406 44.969C35.9813 44.9241 36.0127 44.8717 36.033 44.8146C36.0534 44.7575 36.0622 44.697 36.0591 44.6365C36.056 44.576 36.041 44.5167 36.0149 44.462C35.9891 44.4072 35.9527 44.3581 35.9078 44.3174C35.8629 44.2767 35.8104 44.2453 35.7533 44.2249C35.6962 44.2046 35.6357 44.1957 35.5752 44.1988C35.5147 44.2019 35.4554 44.2169 35.4007 44.243L32.7582 45.4938C32.5143 45.1033 32.1752 44.7813 31.7727 44.558C31.3702 44.3346 30.9174 44.2173 30.4571 44.217C29.7893 44.2173 29.145 44.4634 28.647 44.9084C28.1491 45.3533 27.8323 45.9659 27.7571 46.6295H23.7154C23.5735 46.6311 23.4331 46.6007 23.3046 46.5406C23.1761 46.4805 23.0628 46.3923 22.9731 46.2824C22.886 46.1738 22.8242 46.0472 22.7921 45.9118C22.76 45.7763 22.7585 45.6355 22.7875 45.4993C23.1578 43.7387 24.1214 42.1586 25.5171 41.0233C26.9129 39.888 28.6561 39.2663 30.4553 39.2623C32.2543 39.2667 33.9974 39.8884 35.3931 41.0237C36.7887 42.1589 37.7524 43.7388 38.123 45.4993C38.1527 45.6364 38.1509 45.7784 38.1178 45.9147C38.0847 46.051 38.0211 46.178 37.9319 46.2862ZM32.1792 46.4717H28.7257C28.8282 46.0902 29.0535 45.7531 29.3668 45.5126C29.6801 45.2721 30.064 45.1415 30.459 45.1412C30.8531 45.1422 31.2359 45.2729 31.5485 45.513C31.861 45.7531 32.0859 46.0893 32.1885 46.4699L32.1792 46.4717Z" fill="#091796"/>
<path d="M30.4569 45.1406C30.0619 45.141 29.678 45.2715 29.3647 45.5121C29.0514 45.7526 28.8261 46.0897 28.7236 46.4712H32.1882C32.0859 46.09 31.8609 45.7531 31.5479 45.5126C31.235 45.2721 30.8515 45.1414 30.4569 45.1406Z" fill="white"/>
<path d="M48.6112 25.9219C46.8117 25.9254 45.068 26.5469 43.6719 27.6822C42.2758 28.8176 41.3119 30.3979 40.9416 32.1589C40.9125 32.295 40.9141 32.4359 40.9462 32.5713C40.9783 32.7068 41.0401 32.8334 41.1271 32.942C41.2169 33.0519 41.3302 33.1401 41.4587 33.2002C41.5872 33.2603 41.7276 33.2906 41.8694 33.289H45.913C45.9882 32.6255 46.305 32.0128 46.803 31.5679C47.3009 31.123 47.9453 30.8769 48.613 30.8766C49.0734 30.8769 49.5261 30.9942 49.9286 31.2175C50.3311 31.4409 50.6702 31.7629 50.9141 32.1533L53.5603 30.897C53.615 30.8709 53.6743 30.8559 53.7348 30.8528C53.7953 30.8497 53.8559 30.8586 53.9129 30.8789C53.97 30.8993 54.0225 30.9307 54.0674 30.9714C54.1123 31.012 54.1487 31.0612 54.1746 31.116C54.2006 31.1707 54.2157 31.23 54.2188 31.2905C54.2219 31.351 54.213 31.4115 54.1926 31.4686C54.1723 31.5256 54.1409 31.5781 54.1002 31.623C54.0595 31.6679 54.0104 31.7044 53.9556 31.7302L51.2685 33.0032C51.289 33.0979 51.3038 33.1888 51.3149 33.289H55.3585C55.5006 33.2909 55.6412 33.2605 55.7698 33.2001C55.8984 33.1396 56.0116 33.0508 56.1008 32.9401C56.1883 32.8321 56.2503 32.7058 56.2825 32.5706C56.3146 32.4354 56.3159 32.2947 56.2864 32.1589C55.9155 30.3971 54.9507 28.8163 53.5535 27.6809C52.1563 26.5455 50.4115 25.9245 48.6112 25.9219Z" fill="#70ADFF"/>
<path d="M48.6104 25C46.5991 25.005 44.6504 25.7002 43.0903 26.9696C41.5301 28.239 40.4529 30.0055 40.039 31.9737C39.9826 32.2446 39.9875 32.5247 40.0533 32.7934C40.1191 33.0622 40.2442 33.3128 40.4194 33.5269C40.594 33.7428 40.8149 33.9168 41.0658 34.0359C41.3166 34.1551 41.591 34.2164 41.8687 34.2154H55.354C55.6317 34.2164 55.9061 34.1551 56.157 34.0359C56.4078 33.9168 56.6287 33.7428 56.8033 33.5269C56.9769 33.312 57.1003 33.061 57.1645 32.7923C57.2288 32.5236 57.2322 32.2439 57.1745 31.9737C56.7601 30.007 55.6839 28.2419 54.1254 26.9728C52.5669 25.7037 50.6203 25.0073 48.6104 25ZM56.0852 32.9424C55.996 33.053 55.8828 33.1419 55.7543 33.2024C55.6257 33.2628 55.485 33.2932 55.3429 33.2913H51.3086C51.2975 33.1948 51.2826 33.1057 51.2622 33.0055L53.9493 31.7325C54.0041 31.7066 54.0532 31.6702 54.0939 31.6253C54.1346 31.5804 54.166 31.5279 54.1863 31.4708C54.2067 31.4138 54.2155 31.3532 54.2124 31.2927C54.2093 31.2322 54.1943 31.1729 54.1683 31.1182C54.1424 31.0635 54.106 31.0143 54.0611 30.9736C54.0162 30.933 53.9637 30.9015 53.9066 30.8812C53.8495 30.8609 53.789 30.852 53.7285 30.8551C53.668 30.8582 53.6087 30.8732 53.554 30.8993L50.9115 32.15C50.6676 31.7596 50.3285 31.4376 49.926 31.2142C49.5235 30.9909 49.0708 30.8736 48.6104 30.8733C47.9427 30.8736 47.2983 31.1197 46.8004 31.5646C46.3024 32.0095 45.9856 32.6222 45.9104 33.2857H41.8687C41.7268 33.2873 41.5865 33.2569 41.4579 33.1969C41.3294 33.1368 41.2161 33.0486 41.1264 32.9387C41.0394 32.8301 40.9776 32.7035 40.9455 32.568C40.9134 32.4326 40.9118 32.2917 40.9408 32.1556C41.3111 30.3949 42.2747 28.8148 43.6705 27.6795C45.0662 26.5442 46.8094 25.9226 48.6086 25.9186C50.4076 25.9229 52.1507 26.5447 53.5464 27.6799C54.942 28.8152 55.9057 30.3951 56.2763 32.1556C56.306 32.2926 56.3042 32.4347 56.2711 32.5709C56.238 32.7072 56.1744 32.8342 56.0852 32.9424ZM50.3325 33.128H46.8791C46.9815 32.7465 47.2068 32.4094 47.5201 32.1689C47.8334 31.9283 48.2173 31.7978 48.6123 31.7974C49.0064 31.7985 49.3892 31.9292 49.7018 32.1693C50.0143 32.4094 50.2392 32.7456 50.3418 33.1261L50.3325 33.128Z" fill="#091796"/>
<path d="M48.6102 31.7969C48.2152 31.7972 47.8313 31.9278 47.518 32.1683C47.2047 32.4088 46.9794 32.7459 46.877 33.1274H50.3415C50.2392 32.7462 50.0142 32.4094 49.7012 32.1689C49.3883 31.9284 49.0049 31.7976 48.6102 31.7969Z" fill="white"/>
<path d="M58.7461 40.5122C57.8431 39.6038 56.7688 38.8836 55.5854 38.3933C54.402 37.9031 53.1331 37.6526 51.8522 37.6563C50.5706 37.6529 49.3011 37.9037 48.1171 38.3942C46.9331 38.8848 45.8582 39.6053 44.9546 40.5141C43.2864 42.1882 42.2812 44.4099 42.1249 46.768C41.9687 49.1262 42.672 51.4611 44.1047 53.3407L44.3515 53.6617L42.2731 55.7457L43.5201 56.9927L45.6041 54.9106L45.9251 55.1555C47.8045 56.5885 50.1393 57.2921 52.4974 57.1362C54.8556 56.9803 57.0774 55.9754 58.7517 54.3075C60.5779 52.4761 61.603 49.995 61.6019 47.4087C61.6009 44.8224 60.5738 42.3421 58.7461 40.5122ZM46.081 52.9454C44.5847 51.4463 43.7444 49.4147 43.7444 47.2966C43.7444 45.1786 44.5847 43.147 46.081 41.6479C47.5804 40.1515 49.6123 39.3111 51.7307 39.3111C53.849 39.3111 55.8809 40.1515 57.3804 41.6479C58.1232 42.3876 58.7122 43.2671 59.1132 44.2357C59.5142 45.2043 59.7193 46.2428 59.7167 47.2911C59.7191 48.3395 59.5137 49.3781 59.1124 50.3467C58.711 51.3153 58.1217 52.1948 57.3785 52.9343C56.6387 53.677 55.7596 54.2664 54.7915 54.6686C53.8234 55.0708 52.7855 55.2779 51.7372 55.278C50.6864 55.2797 49.6457 55.0735 48.6749 54.6712C47.7042 54.269 46.8226 53.6786 46.081 52.9343V52.9454Z" fill="#66C3CD"/>
<path d="M60.8927 41.7406V17.6165C60.8917 16.9226 60.6154 16.2573 60.1245 15.7668C59.6337 15.2763 58.9682 15.0005 58.2743 15H20.6165C19.9229 15.001 19.2579 15.277 18.7674 15.7674C18.277 16.2579 18.001 16.9229 18 17.6165V50.4884C18.0005 51.1822 18.2763 51.8475 18.7669 52.338C19.2575 52.8286 19.9227 53.1045 20.6165 53.1049H42.8107C42.9128 53.2682 43.0167 53.4278 43.1299 53.5856L41.6119 55.1017L41.5229 55.0126C41.4087 54.8953 41.2722 54.8021 41.1215 54.7383C40.9708 54.6746 40.8088 54.6416 40.6451 54.6415C40.4837 54.6407 40.3238 54.6718 40.1744 54.7329C40.0251 54.794 39.8893 54.884 39.7748 54.9978L34.9927 59.5999C34.6863 59.9074 34.446 60.2742 34.2865 60.6779C34.127 61.0815 34.0515 61.5135 34.0648 61.9474C34.0776 62.3825 34.1804 62.8102 34.3666 63.2036C34.5528 63.5971 34.8184 63.9478 35.1467 64.2336C35.7158 64.7298 36.4459 65.0022 37.2009 65C37.6344 64.9994 38.0636 64.9134 38.4638 64.7468C38.8641 64.5803 39.2276 64.3365 39.5335 64.0295L44.2563 59.4904C44.4891 59.2576 44.6198 58.9419 44.6198 58.6127C44.6198 58.2835 44.4891 57.9677 44.2563 57.7349L44.1654 57.644L45.6815 56.1279C47.481 57.3998 49.6313 58.0814 51.835 58.0782C53.2387 58.0806 54.6292 57.8061 55.9268 57.2705C57.2243 56.7349 58.4036 55.9487 59.397 54.9569C61.1019 53.2465 62.1778 51.0093 62.4493 48.6096C62.7209 46.2099 62.1722 43.7888 60.8927 41.7406ZM45.9172 55.1648L45.5961 54.9198L43.5122 57.0019L42.2651 55.7549L44.3491 53.6709L44.1023 53.3499C42.6696 51.4704 41.9663 49.1354 42.1225 46.7773C42.2788 44.4191 43.284 42.1974 44.9522 40.5233C45.8558 39.6145 46.9307 38.894 48.1147 38.4034C49.2987 37.9129 50.5682 37.6621 51.8498 37.6655C53.1307 37.6618 54.3996 37.9123 55.583 38.4026C56.7664 38.8928 57.8407 39.613 58.7438 40.5214C60.5707 42.3521 61.5967 44.8328 61.5967 47.4191C61.5967 50.0054 60.5707 52.4861 58.7438 54.3167C57.0694 55.9846 54.8476 56.9895 52.4894 57.1454C50.1313 57.3013 47.7965 56.5977 45.9172 55.1648ZM35.7479 63.5507C35.5144 63.3484 35.3254 63.0998 35.1932 62.8206C35.0609 62.5413 34.9882 62.2377 34.9797 61.9288C34.9676 61.6203 35.0196 61.3126 35.1324 61.0252C35.2451 60.7377 35.4161 60.4768 35.6347 60.2587L40.4206 55.6565C40.4806 55.5978 40.5612 55.5649 40.6451 55.5649C40.729 55.5649 40.8097 55.5978 40.8696 55.6565L43.605 58.3918C43.6624 58.4514 43.6946 58.5309 43.6946 58.6136C43.6946 58.6963 43.6624 58.7758 43.605 58.8354L38.8822 63.3744C38.478 63.7935 37.9301 64.0441 37.3486 64.0758C36.7672 64.1075 36.1953 63.9179 35.7479 63.5451V63.5507ZM18.9223 50.4884V23.0408H59.9685V40.4843C59.7829 40.2728 59.5974 40.0631 59.3988 39.8627C58.4099 38.8686 57.2337 38.0804 55.9383 37.5437C54.6429 37.007 53.2539 36.7324 51.8517 36.7358C50.449 36.7324 49.0596 37.0072 47.7639 37.5442C46.4681 38.0812 45.2917 38.8699 44.3027 39.8645C42.7245 41.4504 41.6824 43.4905 41.3227 45.6987C40.9629 47.9069 41.3035 50.1723 42.2967 52.1771H20.6165C20.1673 52.1766 19.7367 51.998 19.4191 51.6803C19.1014 51.3627 18.9228 50.932 18.9223 50.4828V50.4884ZM20.6165 15.9167H58.2743C58.7235 15.9172 59.1541 16.0959 59.4717 16.4135C59.7894 16.7311 59.968 17.1618 59.9685 17.611V22.1185H18.9223V17.611C18.9228 17.1618 19.1014 16.7311 19.4191 16.4135C19.7367 16.0959 20.1673 15.9172 20.6165 15.9167Z" fill="#091796"/>
<path d="M56.7278 52.2871C57.3846 51.6317 57.9049 50.8525 58.2588 49.9948C58.6127 49.137 58.793 48.2176 58.7894 47.2897C58.7928 46.3615 58.612 45.4419 58.2575 44.5841C57.903 43.7262 57.3818 42.9473 56.724 42.2923C55.3973 40.9694 53.6002 40.2266 51.7266 40.2266C49.8531 40.2266 48.056 40.9694 46.7292 42.2923C45.4056 43.6182 44.6621 45.4152 44.6621 47.2888C44.6621 49.1623 45.4056 50.9593 46.7292 52.2853C48.0552 53.6109 49.8532 54.3558 51.7281 54.3561C53.603 54.3564 55.4014 53.6123 56.7278 52.2871Z" fill="white"/>
<path d="M57.3773 52.9349C58.1214 52.1945 58.7112 51.3138 59.1126 50.3439C59.514 49.3739 59.7189 48.334 59.7155 47.2843C59.7191 46.2347 59.5145 45.1948 59.1135 44.2249C58.7124 43.2549 58.1229 42.3742 57.3792 41.6337C55.8797 40.1373 53.8478 39.2969 51.7295 39.2969C49.6111 39.2969 47.5792 40.1373 46.0798 41.6337C44.5835 43.1328 43.7432 45.1643 43.7432 47.2824C43.7432 49.4005 44.5835 51.432 46.0798 52.9312C46.8211 53.6762 47.7026 54.2672 48.6733 54.6701C49.6441 55.073 50.6849 55.2798 51.736 55.2786C52.7843 55.2785 53.8222 55.0714 54.7903 54.6692C55.7584 54.267 56.6375 53.6776 57.3773 52.9349ZM46.7256 52.2891C45.4019 50.9632 44.6585 49.1662 44.6585 47.2926C44.6585 45.4191 45.4019 43.6221 46.7256 42.2961C48.0523 40.9733 49.8494 40.2304 51.723 40.2304C53.5965 40.2304 55.3936 40.9733 56.7204 42.2961C57.3782 42.9507 57.8996 43.7293 58.2545 44.5868C58.6093 45.4443 58.7905 46.3637 58.7876 47.2917C58.7905 48.22 58.6092 49.1396 58.2544 49.9974C57.8996 50.8552 57.3782 51.6341 56.7204 52.2891C55.3944 53.6133 53.597 54.3571 51.723 54.3571C49.849 54.3571 48.0516 53.6133 46.7256 52.2891Z" fill="#091796"/>
<path d="M43.6104 58.8407C43.6679 58.7812 43.7 58.7017 43.7 58.619C43.7 58.5362 43.6679 58.4567 43.6104 58.3972L40.8751 55.6619C40.8151 55.6032 40.7345 55.5703 40.6506 55.5703C40.5666 55.5703 40.486 55.6032 40.426 55.6619L35.6402 60.264C35.4216 60.4821 35.2505 60.7431 35.1378 61.0305C35.0251 61.318 34.9731 61.6256 34.9851 61.9342C34.9936 62.243 35.0663 62.5467 35.1986 62.8259C35.3309 63.1052 35.5198 63.3538 35.7534 63.5561C36.2009 63.9307 36.7738 64.1215 37.3566 64.0902C37.9393 64.0589 38.4885 63.8076 38.8932 63.3872L43.6104 58.8407Z" fill="#70ADFF"/>
</svg>
