<svg width="260" height="260" viewBox="0 0 260 260" fill="none" xmlns="http://www.w3.org/2000/svg">
<g filter="url(#filter0_d_380_4168)">
<rect x="40" y="36" width="180" height="180" fill="white"/>
<rect x="40.5" y="36.5" width="179" height="179" stroke="#D9D9D9"/>
</g>
<path d="M104.934 140.989L89.5352 125.59L139.535 75.5938H170.329L104.934 140.989ZM170.329 121.73H139.535L128 133.265L143.399 148.664" fill="#42A5F5" fill-opacity="0.8"/>
<path d="M128 164.059L139.535 175.594H170.329L143.399 148.664" fill="#0D47A1"/>
<path d="M112.638 148.672L128.012 133.293L143.387 148.668L128.012 164.046L112.638 148.672Z" fill="#42A5F5"/>
<path d="M128.013 164.047L143.387 148.672L145.534 150.818L130.159 166.193L128.013 164.047Z" fill="url(#paint0_linear_380_4168)"/>
<path d="M128 164.059L150.848 156.166L143.399 148.66" fill="url(#paint1_linear_380_4168)"/>
<defs>
<filter id="filter0_d_380_4168" x="0" y="0" width="260" height="260" filterUnits="userSpaceOnUse" color-interpolation-filters="sRGB">
<feFlood flood-opacity="0" result="BackgroundImageFix"/>
<feColorMatrix in="SourceAlpha" type="matrix" values="0 0 0 0 0 0 0 0 0 0 0 0 0 0 0 0 0 0 127 0" result="hardAlpha"/>
<feOffset dy="4"/>
<feGaussianBlur stdDeviation="20"/>
<feComposite in2="hardAlpha" operator="out"/>
<feColorMatrix type="matrix" values="0 0 0 0 0.0367917 0 0 0 0 0.0348958 0 0 0 0 0.0484375 0 0 0 0.1 0"/>
<feBlend mode="normal" in2="BackgroundImageFix" result="effect1_dropShadow_380_4168"/>
<feBlend mode="normal" in="SourceGraphic" in2="effect1_dropShadow_380_4168" result="shape"/>
</filter>
<linearGradient id="paint0_linear_380_4168" x1="135.703" y1="156.356" x2="137.849" y2="158.503" gradientUnits="userSpaceOnUse">
<stop offset="0.2" stop-opacity="0.15"/>
<stop offset="0.85" stop-color="#616161" stop-opacity="0.01"/>
</linearGradient>
<linearGradient id="paint1_linear_380_4168" x1="128.005" y1="156.36" x2="150.853" y2="156.36" gradientUnits="userSpaceOnUse">
<stop offset="0.2" stop-opacity="0.55"/>
<stop offset="0.85" stop-color="#616161" stop-opacity="0.01"/>
</linearGradient>
</defs>
</svg>
