<svg width="260" height="260" viewBox="0 0 260 260" fill="none" xmlns="http://www.w3.org/2000/svg">
<g filter="url(#filter0_d_380_4176)">
<rect x="40" y="36" width="180" height="180" fill="white"/>
<rect x="40.5" y="36.5" width="179" height="179" stroke="#D9D9D9"/>
</g>
<path d="M82.7871 92.1683L129.306 75.5938L177.078 91.8736L169.343 153.421L129.306 175.594L89.8958 153.715L82.7871 92.1683Z" fill="#E23237"/>
<path d="M177.078 91.8736L129.307 75.5938V175.594L169.343 153.458L177.078 91.8736V91.8736Z" fill="#B52E31"/>
<path d="M129.379 87.2695L100.393 151.763L111.221 151.579L117.041 137.03H143.044L149.416 151.763L159.766 151.947L129.379 87.2695ZM129.453 107.933L139.25 128.411H120.834L129.453 107.933Z" fill="white"/>
<defs>
<filter id="filter0_d_380_4176" x="0" y="0" width="260" height="260" filterUnits="userSpaceOnUse" color-interpolation-filters="sRGB">
<feFlood flood-opacity="0" result="BackgroundImageFix"/>
<feColorMatrix in="SourceAlpha" type="matrix" values="0 0 0 0 0 0 0 0 0 0 0 0 0 0 0 0 0 0 127 0" result="hardAlpha"/>
<feOffset dy="4"/>
<feGaussianBlur stdDeviation="20"/>
<feComposite in2="hardAlpha" operator="out"/>
<feColorMatrix type="matrix" values="0 0 0 0 0.0367917 0 0 0 0 0.0348958 0 0 0 0 0.0484375 0 0 0 0.1 0"/>
<feBlend mode="normal" in2="BackgroundImageFix" result="effect1_dropShadow_380_4176"/>
<feBlend mode="normal" in="SourceGraphic" in2="effect1_dropShadow_380_4176" result="shape"/>
</filter>
</defs>
</svg>
