<svg width="80" height="80" viewBox="0 0 80 80" fill="none" xmlns="http://www.w3.org/2000/svg">
<rect width="80" height="80" fill="white"/>
<path d="M21.1004 50.1964C21.6866 50.1831 22.2695 50.2871 22.8149 50.5022C23.3603 50.7174 23.8573 51.0394 24.2765 51.4493C24.6957 51.8592 25.0288 52.3488 25.2561 52.8892C25.4835 53.4297 25.6005 54.0101 25.6004 54.5965C25.6004 55.7899 25.1263 56.9345 24.2824 57.7785C23.4384 58.6224 22.2939 59.0965 21.1004 59.0965C20.5141 59.0966 19.9336 58.9796 19.3931 58.7522C18.8527 58.5249 18.3631 58.1918 17.9532 57.7726C17.5433 57.3534 17.2213 56.8564 17.0061 56.311C16.791 55.7656 16.687 55.1827 16.7004 54.5965C16.7004 53.4295 17.164 52.3104 17.9891 51.4852C18.8143 50.66 19.9334 50.1964 21.1004 50.1964Z" fill="#00007E"/>
<path d="M51.5998 14C52.6076 14 53.5742 14.4003 54.2868 15.113C54.9994 15.8256 55.3998 16.7922 55.3998 17.8C55.4001 18.8172 55.003 19.7944 54.2931 20.5229C53.5832 21.2515 52.6167 21.6739 51.5998 21.7C50.5829 21.6739 49.6164 21.2515 48.9065 20.5229C48.1966 19.7944 47.7995 18.8172 47.7998 17.8C47.7998 17.301 47.8981 16.8068 48.0891 16.3458C48.28 15.8848 48.5599 15.4658 48.9128 15.113C49.2657 14.7601 49.6846 14.4802 50.1456 14.2892C50.6066 14.0983 51.1008 14 51.5998 14Z" fill="#00007E"/>
<path d="M69 50V53.4L64 54.5C63.6762 55.9079 63.1365 57.2572 62.4 58.5L65.1 62.7L62.8 65.1L58.6 62.3C57.3447 63.1048 55.9565 63.6804 54.5 64L53.3 69H50L48.9 64.1C47.4769 63.6805 46.1024 63.1106 44.8 62.4L40.6 65.2L38.3 62.8L41 58.6C40.2059 57.3864 39.6619 56.0265 39.4 54.6L34.5 53.5V50.1L39.4 49C39.7238 47.5921 40.2635 46.2428 41 45L38.3 40.7L40.6 38.4L44.8 41.1C46.0734 40.3305 47.4556 39.7573 48.9 39.4L50 34.5H53.3L54.4 39.4C55.8584 39.7134 57.2477 40.2894 58.5 41.1L62.7 38.4L65 40.7L62.3 45C63.0941 46.2136 63.6381 47.5735 63.9 49L69 50ZM58.5 51.7C58.4737 49.9139 57.7457 48.2099 56.4733 46.9562C55.2009 45.7025 53.4863 44.9998 51.7 45C49.9137 44.9998 48.1991 45.7025 46.9267 46.9562C45.6543 48.2099 44.9263 49.9139 44.9 51.7C44.9 52.593 45.0759 53.4772 45.4176 54.3022C45.7593 55.1273 46.2602 55.8769 46.8917 56.5083C47.5231 57.1398 48.2727 57.6406 49.0977 57.9824C49.9228 58.3241 50.807 58.5 51.7 58.5C53.5035 58.5 55.2331 57.7836 56.5083 56.5083C57.7836 55.2331 58.5 53.5035 58.5 51.7Z" fill="#66C3CD"/>
<path d="M40.9004 24.8V27.6L36.8004 28.6C36.4817 29.8206 36.0114 30.9964 35.4004 32.1L37.7004 35.7L35.7004 37.7L32.0004 35.4C30.9403 36.0279 29.7952 36.4994 28.6004 36.8L27.6004 40.9H24.8004L23.9004 36.7C22.6682 36.4175 21.4875 35.9452 20.4004 35.3L16.8004 37.7L14.8004 35.7L17.1004 32.1C16.4476 31.0167 15.9748 29.8347 15.7004 28.6L11.4004 27.6V24.8L15.7004 23.9C16.019 22.6794 16.4894 21.5036 17.1004 20.4L14.8004 16.8L16.8004 14.8L20.4004 17.1C21.4666 16.4135 22.6548 15.9382 23.9004 15.7L24.8004 11.5H27.6004L28.5004 15.7C29.6952 16.0006 30.8403 16.4721 31.9004 17.1L35.6004 14.8L37.6004 16.8L35.3004 20.4C35.9532 21.4833 36.426 22.6653 36.7004 23.9L40.9004 24.8ZM31.9004 26.2C31.8756 24.6866 31.2701 23.2407 30.2092 22.1611C29.1483 21.0816 27.7131 20.4511 26.2004 20.4C24.6702 20.4257 23.2098 21.045 22.1276 22.1272C21.0454 23.2094 20.4261 24.6698 20.4004 26.2C20.4261 27.7302 21.0454 29.1906 22.1276 30.2728C23.2098 31.355 24.6702 31.9743 26.2004 32C26.9574 32.0001 27.7069 31.8494 28.405 31.5567C29.1032 31.264 29.736 30.8352 30.2667 30.2953C30.7973 29.7554 31.215 29.1152 31.4955 28.412C31.776 27.7089 31.9137 26.9569 31.9004 26.2Z" fill="#66C3CD"/>
<path d="M51.7002 59.6975C49.5785 59.6975 47.5437 58.8547 46.0434 57.3544C44.5431 55.8541 43.7002 53.8192 43.7002 51.6975C43.7265 49.5931 44.581 47.5839 46.0784 46.1052C47.5759 44.6265 49.5957 43.7973 51.7002 43.7975C52.746 43.7843 53.7841 43.9788 54.7541 44.3699C55.7242 44.761 56.6069 45.3408 57.3511 46.0757C58.0953 46.8106 58.6862 47.686 59.0894 48.651C59.4927 49.6161 59.7003 50.6516 59.7002 51.6975C59.7002 53.8192 58.8573 55.8541 57.3571 57.3544C55.8568 58.8547 53.8219 59.6975 51.7002 59.6975ZM51.7002 46.1975C50.268 46.1975 48.8945 46.7664 47.8818 47.7791C46.8691 48.7918 46.3002 50.1654 46.3002 51.5975C46.2869 52.315 46.4168 53.028 46.6822 53.6947C46.9476 54.3615 47.3433 54.9686 47.846 55.4807C48.3488 55.9928 48.9486 56.3995 49.6104 56.6771C50.2721 56.9547 50.9826 57.0976 51.7002 57.0975C53.1589 57.0975 54.5578 56.518 55.5893 55.4866C56.6207 54.4551 57.2002 53.0562 57.2002 51.5975C57.174 50.1562 56.583 48.7828 55.5544 47.7729C54.5257 46.763 53.1417 46.1973 51.7002 46.1975Z" fill="#00007E"/>
<path d="M51.6996 54.6969C51.3102 54.6971 50.9247 54.6189 50.5662 54.467C50.2077 54.315 49.8834 54.0924 49.6128 53.8124C49.3421 53.5325 49.1307 53.2009 48.991 52.8374C48.8512 52.4739 48.7861 52.086 48.7996 51.6969C48.7996 50.9277 49.1051 50.1901 49.649 49.6463C50.1928 49.1024 50.9304 48.7969 51.6996 48.7969C52.4687 48.7969 53.2063 49.1024 53.7502 49.6463C54.2941 50.1901 54.5996 50.9277 54.5996 51.6969C54.613 52.086 54.5479 52.4739 54.4082 52.8374C54.2685 53.2009 54.057 53.5325 53.7864 53.8124C53.5157 54.0924 53.1915 54.315 52.833 54.467C52.4744 54.6189 52.089 54.6971 51.6996 54.6969Z" fill="#00007E"/>
<path d="M53.2997 70.2017H49.9997C49.7133 70.2057 49.4348 70.107 49.2147 69.9236C48.9946 69.7402 48.8474 69.4841 48.7997 69.2017L47.8997 65.1017C46.8671 64.7885 45.8634 64.387 44.8997 63.9017L41.2997 66.2017C41.0449 66.3373 40.7545 66.3909 40.468 66.3551C40.1816 66.3193 39.9132 66.1959 39.6997 66.0017L37.3997 63.6017C37.2055 63.3881 37.082 63.1198 37.0462 62.8333C37.0104 62.5469 37.064 62.2565 37.1997 62.0017L39.4997 58.4017C38.9981 57.4803 38.5958 56.5081 38.2997 55.5017L34.0997 54.6017C33.8172 54.554 33.5611 54.4067 33.3777 54.1866C33.1943 53.9666 33.0957 53.6881 33.0997 53.4017V50.0017C33.0957 49.7152 33.1943 49.4368 33.3777 49.2167C33.5611 48.9966 33.8172 48.8494 34.0997 48.8017L38.2997 47.9017C38.5958 46.8952 38.9981 45.9231 39.4997 45.0017L37.1997 41.3017C37.064 41.0469 37.0104 40.7564 37.0462 40.47C37.082 40.1836 37.2055 39.9152 37.3997 39.7017L39.6997 37.4017C39.9132 37.2075 40.1816 37.084 40.468 37.0482C40.7545 37.0124 41.0449 37.066 41.2997 37.2017L44.8997 39.5017C45.8634 39.0163 46.8671 38.6148 47.8997 38.3017L48.7997 34.1017C48.8474 33.8192 48.9946 33.5631 49.2147 33.3797C49.4348 33.1963 49.7133 33.0977 49.9997 33.1017H53.2997C53.5862 33.0977 53.8646 33.1963 54.0847 33.3797C54.3048 33.5631 54.452 33.8192 54.4997 34.1017L55.3997 38.3017C56.4445 38.5792 57.4518 38.9821 58.3997 39.5017L61.9997 37.2017C62.2545 37.066 62.545 37.0124 62.8314 37.0482C63.1178 37.084 63.3862 37.2075 63.5997 37.4017L65.8997 39.7017C66.0939 39.9152 66.2174 40.1836 66.2532 40.47C66.289 40.7564 66.2354 41.0469 66.0997 41.3017L63.7997 45.0017C64.3014 45.9231 64.7036 46.8952 64.9997 47.9017L69.1997 48.8017C69.4822 48.8494 69.7383 48.9966 69.9217 49.2167C70.1051 49.4368 70.2037 49.7152 70.1997 50.0017V53.4017C70.2037 53.6881 70.1051 53.9666 69.9217 54.1866C69.7383 54.4067 69.4822 54.554 69.1997 54.6017L64.9997 55.5017C64.7036 56.5081 64.3014 57.4803 63.7997 58.4017L66.0997 62.0017C66.2354 62.2565 66.289 62.5469 66.2532 62.8333C66.2174 63.1198 66.0939 63.3881 65.8997 63.6017L63.5997 66.0017C63.3862 66.1959 63.1178 66.3193 62.8314 66.3551C62.545 66.3909 62.2545 66.3373 61.9997 66.2017L58.3997 63.9017C57.4518 64.4212 56.4445 64.8242 55.3997 65.1017L54.4997 69.2017C54.452 69.4841 54.3048 69.7402 54.0847 69.9236C53.8646 70.107 53.5862 70.2057 53.2997 70.2017ZM50.9997 67.7017H52.2997L53.1997 63.7017C53.2502 63.4823 53.3614 63.2817 53.5206 63.1225C53.6797 62.9634 53.8804 62.8522 54.0997 62.8017C55.4082 62.5118 56.6588 62.0048 57.7997 61.3017C57.9883 61.1635 58.216 61.0891 58.4497 61.0891C58.6835 61.0891 58.9111 61.1635 59.0997 61.3017L62.4997 63.5017L63.3997 62.6017L61.1997 59.2017C61.0616 59.0131 60.9871 58.7854 60.9871 58.5517C60.9871 58.3179 61.0616 58.0902 61.1997 57.9017C61.9028 56.7967 62.4102 55.5789 62.6997 54.3017C62.7502 54.0823 62.8614 53.8817 63.0206 53.7225C63.1797 53.5634 63.3804 53.4522 63.5997 53.4017L67.5997 52.4017V51.1017L63.5997 50.2017C63.3804 50.1511 63.1797 50.04 63.0206 49.8808C62.8614 49.7217 62.7502 49.521 62.6997 49.3017C62.4102 48.0244 61.9028 46.8066 61.1997 45.7017C61.0616 45.5131 60.9871 45.2854 60.9871 45.0517C60.9871 44.8179 61.0616 44.5902 61.1997 44.4017L63.3997 40.9017L62.4997 40.0017L59.0997 42.3017C58.9111 42.4398 58.6835 42.5142 58.4497 42.5142C58.216 42.5142 57.9883 42.4398 57.7997 42.3017C56.6851 41.5275 55.4272 40.9835 54.0997 40.7017C53.8804 40.6511 53.6797 40.54 53.5206 40.3808C53.3614 40.2217 53.2502 40.021 53.1997 39.8017L52.2997 35.7017H50.9997L50.0997 39.6017C50.0492 39.821 49.938 40.0217 49.7789 40.1808C49.6197 40.34 49.419 40.4512 49.1997 40.5017C47.9224 40.7912 46.7047 41.2986 45.5997 42.0017C45.4128 42.1849 45.1615 42.2875 44.8997 42.2875C44.638 42.2875 44.3866 42.1849 44.1997 42.0017L40.7997 39.8017L39.8997 40.7017L42.0997 44.2017C42.2379 44.3902 42.3123 44.6179 42.3123 44.8517C42.3123 45.0854 42.2379 45.3131 42.0997 45.5017C41.3967 46.6066 40.8892 47.8244 40.5997 49.1017C40.5492 49.321 40.438 49.5217 40.2789 49.6808C40.1197 49.84 39.919 49.9512 39.6997 50.0017L35.6997 51.0017V52.3017L39.5997 53.3017C39.819 53.3522 40.0197 53.4634 40.1789 53.6225C40.338 53.7817 40.4492 53.9823 40.4997 54.2017C40.7892 55.4789 41.2966 56.6967 41.9997 57.8017C42.1378 57.9902 42.2123 58.2179 42.2123 58.4517C42.2123 58.6854 42.1378 58.9131 41.9997 59.1017L39.7997 62.5017L40.6997 63.4017L44.0997 61.2017C44.3037 61.0551 44.5485 60.9763 44.7997 60.9763C45.0509 60.9763 45.2957 61.0551 45.4997 61.2017C46.6047 61.9047 47.8225 62.4122 49.0997 62.7017C49.319 62.7522 49.5197 62.8634 49.6789 63.0225C49.838 63.1817 49.9492 63.3824 49.9997 63.6017L50.9997 67.7017Z" fill="#00007E"/>
<path d="M26.1996 33.3015C24.3165 33.3015 22.5106 32.5535 21.1791 31.222C19.8476 29.8905 19.0996 28.0846 19.0996 26.2015C19.0996 25.2692 19.2832 24.3459 19.64 23.4845C19.9969 22.6231 20.5198 21.8404 21.1791 21.1811C21.8384 20.5218 22.6211 19.9988 23.4825 19.642C24.344 19.2852 25.2672 19.1016 26.1996 19.1016C28.0652 19.1278 29.8456 19.8875 31.1555 21.2161C32.4655 22.5448 33.1998 24.3357 33.1996 26.2015C33.2128 27.1292 33.0416 28.0502 32.6957 28.911C32.3499 29.7719 31.8364 30.5554 31.185 31.2161C30.5337 31.8767 29.7575 32.4013 28.9017 32.7593C28.0458 33.1173 27.1273 33.3016 26.1996 33.3015ZM26.1996 21.8015C24.9967 21.8013 23.8416 22.2722 22.9818 23.1133C22.1219 23.9545 21.6258 25.099 21.5996 26.3015C21.6258 27.5041 22.1219 28.6486 22.9818 29.4898C23.8416 30.3309 24.9967 30.8018 26.1996 30.8015C27.3931 30.8015 28.5377 30.3274 29.3816 29.4835C30.2255 28.6396 30.6996 27.495 30.6996 26.3015C30.6996 25.1081 30.2255 23.9635 29.3816 23.1196C28.5377 22.2757 27.3931 21.8015 26.1996 21.8015Z" fill="#00007E"/>
<path d="M26.2002 28.2031C25.6698 28.2031 25.1611 27.9924 24.786 27.6173C24.4109 27.2423 24.2002 26.7336 24.2002 26.2031C24.2002 25.6727 24.4109 25.164 24.786 24.7889C25.1611 24.4138 25.6698 24.2031 26.2002 24.2031C26.7306 24.2031 27.2393 24.4138 27.6144 24.7889C27.9895 25.164 28.2002 25.6727 28.2002 26.2031C28.2002 26.7336 27.9895 27.2423 27.6144 27.6173C27.2393 27.9924 26.7306 28.2031 26.2002 28.2031Z" fill="#00007E"/>
<path d="M27.6001 42.3001H24.8001C24.5047 42.2808 24.2248 42.1612 24.0066 41.9612C23.7884 41.7612 23.645 41.4927 23.6001 41.2001L22.7001 37.8001C21.8922 37.571 21.1187 37.2347 20.4001 36.8001L17.4001 38.7001C17.1453 38.8358 16.8548 38.8894 16.5684 38.8536C16.282 38.8178 16.0136 38.6943 15.8001 38.5001L13.8001 36.5001C13.6059 36.2866 13.4825 36.0182 13.4467 35.7318C13.4108 35.4454 13.4645 35.1549 13.6001 34.9001L15.5001 31.9001C15.1244 31.1185 14.7906 30.3173 14.5001 29.5001L11.0001 28.7001C10.7176 28.6524 10.4615 28.5052 10.2781 28.2851C10.0947 28.065 9.99611 27.7866 10.0001 27.5001V24.7001C9.99611 24.4136 10.0947 24.1352 10.2781 23.9151C10.4615 23.695 10.7176 23.5478 11.0001 23.5001L14.5001 22.7001C14.747 21.8668 15.0822 21.0622 15.5001 20.3001L13.6001 17.3001C13.4645 17.0453 13.4108 16.7549 13.4467 16.4684C13.4825 16.182 13.6059 15.9136 13.8001 15.7001L15.8001 13.7001C16.0136 13.5059 16.282 13.3824 16.5684 13.3466C16.8548 13.3108 17.1453 13.3644 17.4001 13.5001L20.4001 15.4001L22.7001 14.4001L23.6001 11.0001C23.6478 10.7176 23.795 10.4615 24.0151 10.2781C24.2352 10.0947 24.5136 9.99611 24.8001 10.0001H27.6001C27.8866 9.99611 28.165 10.0947 28.3851 10.2781C28.6052 10.4615 28.7524 10.7176 28.8001 11.0001L29.6001 14.4001C30.408 14.6292 31.1816 14.9655 31.9001 15.4001L35.0001 13.5001C35.2549 13.3644 35.5454 13.3108 35.8318 13.3466C36.1182 13.3824 36.3866 13.5059 36.6001 13.7001L38.6001 15.7001C38.7943 15.9136 38.9178 16.182 38.9536 16.4684C38.9894 16.7549 38.9358 17.0453 38.8001 17.3001L36.9001 20.3001C37.2759 21.0818 37.6097 21.8829 37.9001 22.7001L41.3001 23.5001C41.5826 23.5478 41.8387 23.695 42.0221 23.9151C42.2055 24.1352 42.3041 24.4136 42.3001 24.7001V27.6001C42.3041 27.8866 42.2055 28.165 42.0221 28.3851C41.8387 28.6052 41.5826 28.7524 41.3001 28.8001L37.8001 29.6001C37.5532 30.4335 37.218 31.238 36.8001 32.0001L38.7001 35.0001C38.8358 35.2549 38.8894 35.5454 38.8536 35.8318C38.8178 36.1182 38.6943 36.3866 38.5001 36.6001L36.5001 38.6001C36.2866 38.7943 36.0182 38.9178 35.7318 38.9536C35.4454 38.9894 35.1549 38.9358 34.9001 38.8001L31.8001 36.9001L29.5001 37.9001L28.7001 41.3001C28.6751 41.5742 28.5482 41.8289 28.3446 42.0141C28.141 42.1992 27.8753 42.3012 27.6001 42.3001ZM25.8001 39.7001H26.6001L27.3001 36.5001C27.3506 36.2808 27.4618 36.0801 27.621 35.921C27.7801 35.7618 27.9808 35.6506 28.2001 35.6001C29.2591 35.3671 30.2726 34.9617 31.2001 34.4001C31.3887 34.262 31.6164 34.1875 31.8501 34.1875C32.0839 34.1875 32.3115 34.262 32.5001 34.4001L35.4001 36.2001L36.0001 35.6001L34.2001 32.7001C34.0536 32.4961 33.9748 32.2513 33.9748 32.0001C33.9748 31.749 34.0536 31.5041 34.2001 31.3001C34.8745 30.4228 35.3212 29.3921 35.5001 28.3001C35.5506 28.0808 35.6618 27.8801 35.8209 27.721C35.9801 27.5618 36.1808 27.4506 36.4001 27.4001L39.7001 26.6001V25.8001L36.5001 25.1001C36.2808 25.0496 36.0801 24.9384 35.921 24.7793C35.7618 24.6201 35.6506 24.4194 35.6001 24.2001C35.3752 23.1221 34.9329 22.1013 34.3001 21.2001C34.1536 20.9961 34.0748 20.7513 34.0748 20.5001C34.0748 20.249 34.1536 20.0041 34.3001 19.8001L36.2001 17.0001L35.6001 16.4001L32.6001 18.1001C32.4115 18.2382 32.1838 18.3127 31.9501 18.3127C31.7163 18.3127 31.4887 18.2382 31.3001 18.1001C30.3935 17.4977 29.3721 17.0892 28.3001 16.9001C28.0808 16.8496 27.8801 16.7384 27.721 16.5792C27.5618 16.4201 27.4506 16.2194 27.4001 16.0001L26.6001 12.8001H25.8001L25.1001 16.0001C25.0496 16.2194 24.9384 16.4201 24.7793 16.5792C24.6201 16.7384 24.4194 16.8496 24.2001 16.9001C23.1048 17.1168 22.0558 17.5229 21.1001 18.1001C20.9115 18.2382 20.6838 18.3127 20.4501 18.3127C20.2163 18.3127 19.9887 18.2382 19.8001 18.1001L17.0001 16.3001L16.4001 16.9001L18.2001 19.7001C18.3466 19.9041 18.4254 20.1489 18.4254 20.4001C18.4254 20.6513 18.3466 20.8961 18.2001 21.1001C17.5977 22.0068 17.1892 23.0281 17.0001 24.1001C16.9496 24.3194 16.8384 24.5201 16.6793 24.6793C16.5201 24.8384 16.3194 24.9496 16.1001 25.0001L12.9001 25.7001V26.6001L16.1001 27.3001C16.3194 27.3506 16.5201 27.4618 16.6793 27.621C16.8384 27.7801 16.9496 27.9808 17.0001 28.2001C17.2331 29.2591 17.6385 30.2726 18.2001 31.2001C18.3466 31.4041 18.4254 31.6489 18.4254 31.9001C18.4254 32.1513 18.3466 32.3961 18.2001 32.6001L16.4001 35.4001L17.0001 36.0001L19.8001 34.2001C19.9887 34.062 20.2163 33.9875 20.4501 33.9875C20.6838 33.9875 20.9115 34.062 21.1001 34.2001C22.0338 34.821 23.0917 35.2306 24.2001 35.4001C24.4194 35.4506 24.6201 35.5618 24.7793 35.721C24.9384 35.8801 25.0496 36.0808 25.1001 36.3001L25.8001 39.7001Z" fill="#00007E"/>
</svg>
