<svg width="260" height="261" viewBox="0 0 260 261" fill="none" xmlns="http://www.w3.org/2000/svg">
<g filter="url(#filter0_d_380_4139)">
<rect x="40" y="36.8906" width="180" height="180" fill="white"/>
<rect x="40.5" y="37.3906" width="179" height="179" stroke="#D9D9D9"/>
</g>
<path d="M87.0994 119.117C86.9047 119.117 86.856 119.02 86.9534 118.874L87.9758 117.559C88.0732 117.413 88.3167 117.316 88.5114 117.316H105.893C106.088 117.316 106.137 117.462 106.039 117.608L105.212 118.874C105.114 119.02 104.871 119.166 104.725 119.166L87.0994 119.117ZM79.7475 123.596C79.5527 123.596 79.504 123.499 79.6014 123.353L80.6239 122.038C80.7213 121.892 80.9647 121.795 81.1595 121.795H103.361C103.556 121.795 103.654 121.941 103.605 122.087L103.215 123.256C103.167 123.45 102.972 123.548 102.777 123.548L79.7475 123.596ZM91.5301 128.076C91.3353 128.076 91.2866 127.93 91.384 127.784L92.0657 126.566C92.163 126.42 92.3578 126.274 92.5525 126.274H102.29C102.485 126.274 102.582 126.42 102.582 126.615L102.485 127.784C102.485 127.978 102.29 128.124 102.144 128.124L91.5301 128.076ZM142.069 118.241C139.001 119.02 136.908 119.604 133.889 120.383C133.159 120.578 133.11 120.626 132.477 119.896C131.747 119.068 131.211 118.533 130.189 118.046C127.121 116.537 124.151 116.975 121.376 118.776C118.065 120.919 116.361 124.083 116.41 128.027C116.459 131.922 119.136 135.136 122.983 135.671C126.294 136.109 129.069 134.941 131.26 132.458C131.698 131.922 132.088 131.338 132.574 130.656H123.178C122.155 130.656 121.912 130.023 122.252 129.196C122.885 127.686 124.054 125.154 124.736 123.889C124.882 123.596 125.222 123.11 125.953 123.11H143.675C143.578 124.424 143.578 125.739 143.383 127.053C142.848 130.559 141.533 133.772 139.391 136.596C135.885 141.222 131.309 144.094 125.515 144.873C120.743 145.506 116.312 144.581 112.417 141.66C108.814 138.933 106.77 135.33 106.234 130.851C105.601 125.544 107.159 120.773 110.373 116.585C113.829 112.057 118.406 109.185 124.005 108.162C128.582 107.335 132.964 107.87 136.908 110.548C139.488 112.252 141.338 114.589 142.556 117.413C142.848 117.851 142.653 118.095 142.069 118.241Z" fill="#00ACD7"/>
<path d="M158.184 145.166C153.754 145.068 149.713 143.802 146.304 140.881C143.432 138.398 141.63 135.233 141.046 131.484C140.17 125.983 141.679 121.114 144.99 116.78C148.544 112.106 152.829 109.672 158.622 108.649C163.589 107.773 168.263 108.26 172.499 111.133C176.345 113.762 178.731 117.316 179.364 121.99C180.191 128.563 178.293 133.919 173.765 138.495C170.551 141.758 166.607 143.802 162.079 144.728C160.765 144.971 159.45 145.02 158.184 145.166ZM169.772 125.496C169.723 124.863 169.723 124.376 169.626 123.889C168.75 119.069 164.319 116.342 159.694 117.413C155.166 118.436 152.244 121.308 151.173 125.885C150.297 129.683 152.147 133.529 155.652 135.087C158.33 136.256 161.008 136.11 163.589 134.795C167.435 132.799 169.529 129.683 169.772 125.496Z" fill="#00ACD7"/>
<defs>
<filter id="filter0_d_380_4139" x="0" y="0.890625" width="260" height="260" filterUnits="userSpaceOnUse" color-interpolation-filters="sRGB">
<feFlood flood-opacity="0" result="BackgroundImageFix"/>
<feColorMatrix in="SourceAlpha" type="matrix" values="0 0 0 0 0 0 0 0 0 0 0 0 0 0 0 0 0 0 127 0" result="hardAlpha"/>
<feOffset dy="4"/>
<feGaussianBlur stdDeviation="20"/>
<feComposite in2="hardAlpha" operator="out"/>
<feColorMatrix type="matrix" values="0 0 0 0 0.0367917 0 0 0 0 0.0348958 0 0 0 0 0.0484375 0 0 0 0.1 0"/>
<feBlend mode="normal" in2="BackgroundImageFix" result="effect1_dropShadow_380_4139"/>
<feBlend mode="normal" in="SourceGraphic" in2="effect1_dropShadow_380_4139" result="shape"/>
</filter>
</defs>
</svg>
