<svg width="260" height="260" viewBox="0 0 260 260" fill="none" xmlns="http://www.w3.org/2000/svg">
<g filter="url(#filter0_d_380_4110)">
<rect x="40" y="36" width="180" height="180" fill="white"/>
<g clip-path="url(#clip0_380_4110)">
<path d="M94.1893 108.392C93.3734 108.377 92.5631 108.53 91.8086 108.841C91.0541 109.152 90.3714 109.614 89.8028 110.2C89.2219 110.759 88.7617 111.432 88.4508 112.176C88.1398 112.92 87.9845 113.72 87.9946 114.527V140.371C87.9888 141.185 88.145 141.993 88.4539 142.746C88.7629 143.5 89.2186 144.185 89.7944 144.761C90.3703 145.337 91.0549 145.792 91.8084 146.102C92.562 146.411 93.3694 146.567 94.1839 146.562C94.9961 146.578 95.8027 146.426 96.5531 146.114C97.3034 145.803 97.9811 145.34 98.5434 144.754C99.1192 144.179 99.5731 143.494 99.8776 142.74C100.182 141.986 100.331 141.178 100.315 140.365V114.514C100.326 113.707 100.171 112.907 99.8598 112.163C99.5488 111.419 99.0884 110.746 98.5072 110.187C97.9477 109.61 97.2761 109.152 96.5336 108.844C95.7911 108.535 94.9934 108.381 94.1893 108.392Z" fill="#A4C639"/>
<path d="M143.955 85.1957L148.222 77.3248C148.499 76.804 148.397 76.4032 147.916 76.1224C147.396 75.8801 146.994 76.003 146.716 76.484L142.389 84.4164C138.58 82.7504 134.467 81.8904 130.31 81.8904C126.152 81.8904 122.039 82.7504 118.23 84.4164L113.903 76.4822C113.621 76 113.22 75.8795 112.701 76.1205C112.22 76.4026 112.12 76.8004 112.401 77.323L116.668 85.1939C112.34 87.3998 108.895 90.4737 106.331 94.4155C103.798 98.2582 102.46 102.765 102.485 107.367H158.073C158.097 102.765 156.758 98.2581 154.225 94.4155C151.678 90.4874 148.134 87.3058 143.955 85.1957ZM119.281 96.6449C119.067 96.8671 118.81 97.0431 118.526 97.1622C118.242 97.2813 117.936 97.341 117.628 97.3374C117.323 97.3427 117.021 97.2838 116.741 97.1645C116.46 97.0452 116.208 96.8681 116.001 96.6449C115.577 96.199 115.341 95.6074 115.341 94.9923C115.341 94.3772 115.577 93.7855 116.001 93.3396C116.208 93.1167 116.46 92.94 116.741 92.821C117.021 92.702 117.323 92.6433 117.628 92.6489C118.091 92.648 118.545 92.7849 118.93 93.042C119.315 93.2992 119.616 93.6651 119.793 94.0933C119.97 94.5215 120.016 94.9927 119.925 95.447C119.833 95.9013 119.609 96.3182 119.281 96.6449ZM144.609 96.6449C144.402 96.8687 144.15 97.0461 143.87 97.1655C143.589 97.2848 143.287 97.3434 142.982 97.3374C142.39 97.2939 141.836 97.028 141.432 96.5932C141.028 96.1583 140.804 95.5867 140.804 94.9932C140.804 94.3996 141.028 93.828 141.432 93.3931C141.836 92.9583 142.39 92.6924 142.982 92.6489C143.287 92.6433 143.589 92.702 143.869 92.821C144.15 92.94 144.402 93.1167 144.609 93.3396C145.034 93.7849 145.271 94.3768 145.271 94.9923C145.271 95.6078 145.034 96.1996 144.609 96.6449Z" fill="#A4C639"/>
<path d="M102.73 149.557C102.723 150.426 102.89 151.289 103.22 152.093C103.55 152.898 104.036 153.629 104.651 154.244C105.266 154.859 105.997 155.346 106.802 155.676C107.607 156.006 108.469 156.173 109.338 156.167H113.787L113.848 169.81C113.833 170.626 113.986 171.437 114.297 172.192C114.608 172.946 115.071 173.629 115.656 174.198C116.215 174.78 116.888 175.24 117.632 175.551C118.376 175.862 119.177 176.017 119.983 176.006C120.798 176.012 121.605 175.856 122.359 175.546C123.112 175.237 123.797 174.781 124.373 174.205C124.948 173.629 125.404 172.945 125.713 172.191C126.022 171.437 126.178 170.63 126.172 169.815V156.169H134.465V169.81C134.465 171.451 135.117 173.026 136.277 174.186C137.438 175.347 139.012 175.999 140.654 175.999C142.295 175.999 143.87 175.347 145.03 174.186C146.191 173.026 146.843 171.451 146.843 169.81V156.169H151.351C152.216 156.167 153.071 155.994 153.869 155.66C154.667 155.327 155.39 154.839 155.999 154.224C156.607 153.61 157.089 152.882 157.415 152.081C157.741 151.28 157.906 150.423 157.9 149.559V109.533H102.73V149.557Z" fill="#A4C639"/>
<path d="M166.425 108.392C165.621 108.381 164.824 108.534 164.08 108.84C163.337 109.147 162.663 109.601 162.1 110.175C161.514 110.736 161.051 111.413 160.74 112.163C160.428 112.913 160.276 113.719 160.292 114.53V140.371C160.277 141.187 160.43 141.998 160.741 142.753C161.052 143.507 161.515 144.19 162.1 144.759C162.659 145.34 163.331 145.801 164.075 146.112C164.819 146.423 165.619 146.578 166.425 146.567C167.24 146.573 168.048 146.416 168.802 146.107C169.556 145.797 170.241 145.341 170.817 144.764C171.393 144.188 171.848 143.502 172.157 142.748C172.466 141.994 172.621 141.186 172.615 140.371V114.514C172.631 113.703 172.478 112.897 172.167 112.147C171.856 111.397 171.392 110.72 170.807 110.158C170.233 109.584 169.549 109.131 168.796 108.828C168.044 108.524 167.237 108.376 166.425 108.392Z" fill="#A4C639"/>
</g>
<rect x="40.5" y="36.5" width="179" height="179" stroke="#D9D9D9"/>
</g>
<defs>
<filter id="filter0_d_380_4110" x="0" y="0" width="260" height="260" filterUnits="userSpaceOnUse" color-interpolation-filters="sRGB">
<feFlood flood-opacity="0" result="BackgroundImageFix"/>
<feColorMatrix in="SourceAlpha" type="matrix" values="0 0 0 0 0 0 0 0 0 0 0 0 0 0 0 0 0 0 127 0" result="hardAlpha"/>
<feOffset dy="4"/>
<feGaussianBlur stdDeviation="20"/>
<feComposite in2="hardAlpha" operator="out"/>
<feColorMatrix type="matrix" values="0 0 0 0 0.0367917 0 0 0 0 0.0348958 0 0 0 0 0.0484375 0 0 0 0.1 0"/>
<feBlend mode="normal" in2="BackgroundImageFix" result="effect1_dropShadow_380_4110"/>
<feBlend mode="normal" in="SourceGraphic" in2="effect1_dropShadow_380_4110" result="shape"/>
</filter>
<clipPath id="clip0_380_4110">
<rect width="84.6144" height="100" fill="white" transform="translate(88 76)"/>
</clipPath>
</defs>
</svg>
