<svg width="260" height="260" viewBox="0 0 260 260" fill="none" xmlns="http://www.w3.org/2000/svg">
<g filter="url(#filter0_d_380_4087)">
<rect x="40" y="36" width="180" height="180" fill="white"/>
<rect x="40.5" y="36.5" width="179" height="179" stroke="#D9D9D9"/>
</g>
<path fill-rule="evenodd" clip-rule="evenodd" d="M130.381 150.933C157.995 150.933 180.381 139.588 180.381 125.595C180.381 111.601 157.995 100.256 130.381 100.256C102.767 100.256 80.3809 111.601 80.3809 125.595C80.3809 139.588 102.767 150.933 130.381 150.933Z" fill="#6E81B6"/>
<path fill-rule="evenodd" clip-rule="evenodd" d="M140.514 133.785L142.994 121.02C143.554 118.139 143.089 115.99 141.611 114.632C140.18 113.319 137.751 112.68 134.185 112.68H129.89L131.118 106.355C131.142 106.238 131.138 106.116 131.109 106C131.079 105.884 131.025 105.775 130.948 105.683C130.872 105.59 130.776 105.516 130.668 105.464C130.559 105.413 130.441 105.387 130.321 105.387H124.393C124.003 105.387 123.669 105.663 123.595 106.045L120.96 119.596C120.721 118.071 120.131 116.761 119.187 115.679C117.448 113.689 114.697 112.68 111.011 112.68H99.521C99.1316 112.68 98.7973 112.956 98.7229 113.337L93.3921 140.767C93.3455 141.006 93.4078 141.252 93.5626 141.439C93.7167 141.627 93.9465 141.735 94.1901 141.735H100.165C100.554 141.735 100.889 141.459 100.963 141.076L102.253 134.442H106.7C109.034 134.442 110.995 134.189 112.526 133.691C114.091 133.182 115.532 132.318 116.802 131.13C117.828 130.187 118.676 129.132 119.328 127.993L118.263 133.473C118.217 133.712 118.279 133.959 118.434 134.145C118.588 134.333 118.818 134.441 119.061 134.441H124.99C125.379 134.441 125.713 134.165 125.788 133.783L128.713 118.727H132.781C134.515 118.727 135.022 119.072 135.161 119.22C135.286 119.356 135.546 119.833 135.254 121.336L132.896 133.473C132.873 133.59 132.877 133.712 132.907 133.828C132.936 133.944 132.991 134.052 133.067 134.144C133.144 134.237 133.239 134.311 133.348 134.362C133.456 134.414 133.574 134.44 133.694 134.441H139.717C139.905 134.441 140.088 134.376 140.233 134.256C140.379 134.136 140.478 133.97 140.514 133.785ZM113.03 123.238C112.657 125.151 111.956 126.516 110.944 127.294C109.916 128.087 108.272 128.488 106.057 128.488H103.409L105.324 118.634H108.748C111.263 118.634 112.276 119.172 112.683 119.622C113.247 120.247 113.367 121.498 113.03 123.238ZM165.485 115.679C163.747 113.689 160.996 112.68 157.31 112.68H145.82C145.43 112.68 145.096 112.956 145.022 113.337L139.692 140.767C139.645 141.006 139.707 141.252 139.862 141.439C140.017 141.626 140.247 141.735 140.489 141.735H146.464C146.854 141.735 147.188 141.459 147.262 141.076L148.552 134.442H153C155.334 134.442 157.294 134.189 158.825 133.691C160.391 133.182 161.832 132.318 163.101 131.13C164.16 130.157 165.032 129.063 165.692 127.882C166.352 126.702 166.826 125.385 167.102 123.968C167.781 120.472 167.237 117.684 165.485 115.679ZM159.668 123.238C159.295 125.151 158.594 126.516 157.583 127.294C156.554 128.087 154.91 128.488 152.696 128.488H150.048L151.962 118.634H155.386C157.901 118.634 158.915 119.172 159.322 119.622C159.885 120.247 160.006 121.498 159.668 123.238Z" fill="white"/>
<path fill-rule="evenodd" clip-rule="evenodd" d="M108.578 117.82C110.848 117.82 112.361 118.239 113.117 119.077C113.873 119.915 114.053 121.354 113.658 123.392C113.244 125.515 112.449 127.03 111.27 127.939C110.091 128.847 108.296 129.3 105.887 129.3H102.253L104.484 117.82H108.578ZM94.0195 140.921H99.9943L101.412 133.629H106.53C108.788 133.629 110.646 133.392 112.105 132.917C113.563 132.442 114.889 131.647 116.082 130.53C117.083 129.611 117.893 128.595 118.514 127.485C119.133 126.375 119.573 125.151 119.834 123.811C120.466 120.56 119.989 118.027 118.404 116.213C116.819 114.399 114.298 113.492 110.841 113.492H99.351L94.0195 140.921ZM124.222 106.199H130.15L128.733 113.492H134.015C137.337 113.492 139.63 114.071 140.891 115.23C142.153 116.389 142.531 118.268 142.026 120.865L139.546 133.629H133.524L135.882 121.492C136.149 120.111 136.051 119.17 135.585 118.667C135.119 118.166 134.127 117.914 132.611 117.914H127.873L124.819 133.629H118.891L124.222 106.199ZM155.216 117.82C157.486 117.82 158.999 118.239 159.756 119.077C160.512 119.915 160.691 121.354 160.296 123.392C159.883 125.515 159.088 127.03 157.908 127.939C156.73 128.847 154.935 129.3 152.527 129.3H148.892L151.123 117.82H155.216ZM140.657 140.921H146.632L148.049 133.629H153.167C155.426 133.629 157.284 133.392 158.743 132.917C160.201 132.442 161.527 131.647 162.72 130.53C163.721 129.611 164.531 128.595 165.151 127.485C165.771 126.375 166.211 125.151 166.473 123.811C167.104 120.56 166.627 118.027 165.043 116.213C163.457 114.399 160.935 113.492 157.479 113.492H145.989L140.657 140.921Z" fill="black"/>
<defs>
<filter id="filter0_d_380_4087" x="0" y="0" width="260" height="260" filterUnits="userSpaceOnUse" color-interpolation-filters="sRGB">
<feFlood flood-opacity="0" result="BackgroundImageFix"/>
<feColorMatrix in="SourceAlpha" type="matrix" values="0 0 0 0 0 0 0 0 0 0 0 0 0 0 0 0 0 0 127 0" result="hardAlpha"/>
<feOffset dy="4"/>
<feGaussianBlur stdDeviation="20"/>
<feComposite in2="hardAlpha" operator="out"/>
<feColorMatrix type="matrix" values="0 0 0 0 0.0367917 0 0 0 0 0.0348958 0 0 0 0 0.0484375 0 0 0 0.1 0"/>
<feBlend mode="normal" in2="BackgroundImageFix" result="effect1_dropShadow_380_4087"/>
<feBlend mode="normal" in="SourceGraphic" in2="effect1_dropShadow_380_4087" result="shape"/>
</filter>
</defs>
</svg>
