<svg width="1227" height="16" viewBox="0 0 1227 16" fill="none" xmlns="http://www.w3.org/2000/svg">
<path d="M0.666667 8C0.666667 10.9455 3.05448 13.3333 6 13.3333C8.94552 13.3333 11.3333 10.9455 11.3333 8C11.3333 5.05448 8.94552 2.66667 6 2.66667C3.05448 2.66667 0.666667 5.05448 0.666667 8ZM1226.71 8.70711C1227.1 8.31658 1227.1 7.68342 1226.71 7.29289L1220.34 0.928932C1219.95 0.538408 1219.32 0.538408 1218.93 0.928932C1218.54 1.31946 1218.54 1.95262 1218.93 2.34315L1224.59 8L1218.93 13.6569C1218.54 14.0474 1218.54 14.6805 1218.93 15.0711C1219.32 15.4616 1219.95 15.4616 1220.34 15.0711L1226.71 8.70711ZM6 9H1226V7H6V9Z" fill="white"/>
<mask id="path-2-inside-1_509_3057" fill="white">
<path d="M6 3H306V13H6V3Z"/>
</mask>
<path d="M6 3H306H6ZM306 13H6H306ZM5 13V3H7V13H5ZM307 3V13H305V3H307Z" fill="white" mask="url(#path-2-inside-1_509_3057)"/>
<mask id="path-4-inside-2_509_3057" fill="white">
<path d="M306 3H616V13H306V3Z"/>
</mask>
<path d="M615 3V13H617V3H615ZM307 13V3H305V13H307Z" fill="white" mask="url(#path-4-inside-2_509_3057)"/>
<mask id="path-6-inside-3_509_3057" fill="white">
<path d="M616 3H926V13H616V3Z"/>
</mask>
<path d="M925 3V13H927V3H925ZM617 13V3H615V13H617Z" fill="white" mask="url(#path-6-inside-3_509_3057)"/>
<mask id="path-8-inside-4_509_3057" fill="white">
<path d="M926 3H1226V13H926V3Z"/>
</mask>
<path d="M926 3H1226H926ZM1226 13H926H1226ZM925 13V3H927V13H925ZM1226 3V13V3Z" fill="white" mask="url(#path-8-inside-4_509_3057)"/>
</svg>
