<svg width="23" height="26" viewBox="0 0 23 26" fill="none" xmlns="http://www.w3.org/2000/svg">
<path d="M21.584 13.2425L21.7058 13.2809L21.8334 13.2873C21.8764 13.2895 21.9191 13.3088 21.9513 13.3448C21.9839 13.3812 22.0024 13.4312 21.9998 13.4842L22.9985 13.5336L21.9998 13.4842C21.9971 13.537 21.9739 13.5844 21.9386 13.6166L22.6134 14.3546L21.9386 13.6166C21.9037 13.6485 21.8599 13.6634 21.817 13.6613L21.683 13.6545L21.552 13.6833L16.1547 14.869L16.1456 14.871L16.1366 14.8731C15.1932 15.0988 14.3393 15.6029 13.6828 16.3193C13.0346 17.0268 12.6078 17.9097 12.4535 18.8577L11.1922 24.4198C11.1782 24.4415 11.1603 24.4594 11.1401 24.4727C11.1097 24.4926 11.0752 24.5016 11.0411 24.4998C11.0071 24.498 10.9732 24.4853 10.9445 24.4618C10.9229 24.4441 10.905 24.4208 10.8929 24.3934L10.0871 19.1586C9.97628 18.071 9.55983 17.0369 8.88533 16.1785C8.20469 15.3124 7.28993 14.6618 6.25001 14.3065L6.24097 14.3035L6.23187 14.3005L1.42126 12.7591L1.29695 12.7193L1.16658 12.7127C1.12364 12.7105 1.08087 12.6912 1.04867 12.6552L0.306745 13.3194L1.04867 12.6552C1.03265 12.6373 1.01977 12.6158 1.01127 12.5917C1.00277 12.5677 0.998958 12.5418 1.00024 12.5158C1.00286 12.4629 1.02613 12.4156 1.06139 12.3834L0.386605 11.6454L1.06139 12.3834C1.07874 12.3675 1.09845 12.3558 1.11919 12.3483C1.13991 12.3408 1.16154 12.3376 1.18298 12.3387L1.31546 12.3454L1.44509 12.3174L6.37304 11.2502L6.39114 11.2463L6.40909 11.2417C7.45775 10.9736 8.41039 10.4158 9.16067 9.63231C9.91049 8.84931 10.4286 7.87187 10.6584 6.81003C10.6585 6.80949 10.6587 6.80894 10.6588 6.80839L11.8088 1.57858C11.8227 1.55764 11.8402 1.54029 11.8599 1.52735C11.8902 1.50744 11.9248 1.49842 11.9589 1.50023C11.9929 1.50204 12.0268 1.51472 12.0555 1.53821L12.6845 0.770622L12.0555 1.53822C12.0762 1.55521 12.0936 1.57739 12.1056 1.60336L12.9121 7.30824C13.0069 8.26479 13.3716 9.17499 13.9644 9.93031C14.5623 10.6921 15.3669 11.2641 16.2819 11.5753L16.2929 11.5791L16.304 11.5826L21.584 13.2425Z" stroke="white" stroke-width="2"/>
</svg>
