<svg width="80" height="80" viewBox="0 0 80 80" fill="none" xmlns="http://www.w3.org/2000/svg">
<path d="M52.8605 36.7852C52.8636 36.5628 52.9323 36.3463 53.0579 36.163C53.1835 35.9796 53.3604 35.8377 53.5663 35.755C53.7723 35.6723 53.998 35.6525 54.2151 35.6983C54.4322 35.744 54.631 35.8531 54.7864 36.0119C54.9417 36.1707 55.0467 36.372 55.0881 36.5905C55.1295 36.809 55.1054 37.0349 55.019 37.2398C54.9325 37.4446 54.7875 37.6192 54.6023 37.7416C54.417 37.8639 54.1998 37.9286 53.9779 37.9274C53.8296 37.9265 53.6829 37.8963 53.5462 37.8383C53.4096 37.7804 53.2858 37.6959 53.1819 37.5897C53.078 37.4835 52.9961 37.3578 52.941 37.2197C52.8858 37.0816 52.8585 36.934 52.8605 36.7852Z" fill="white"/>
<path d="M70.5131 36.8817C70.5403 36.5995 70.6717 36.3377 70.8815 36.1477C71.0913 35.9577 71.3645 35.8532 71.6472 35.8548C71.9299 35.8563 72.2019 35.9638 72.4096 36.1562C72.6173 36.3485 72.7458 36.6117 72.7698 36.8942C72.7832 37.0514 72.7637 37.2098 72.7126 37.3591C72.6616 37.5084 72.58 37.6453 72.4732 37.7613C72.3664 37.8772 72.2367 37.9696 72.0923 38.0325C71.9479 38.0954 71.792 38.1274 71.6346 38.1265C71.4772 38.1257 71.3217 38.0919 71.178 38.0274C71.0343 37.9629 70.9056 37.8691 70.8001 37.752C70.6946 37.6349 70.6146 37.497 70.5652 37.3471C70.5157 37.1973 70.498 37.0388 70.5131 36.8817Z" fill="white"/>
<path d="M52.75 42.9313C52.7664 42.3094 53.2827 41.8185 53.903 41.835C54.5234 41.8514 55.013 42.369 54.9966 42.991C54.9801 43.613 54.4639 44.1038 53.8435 44.0874C53.2231 44.0709 52.7335 43.5533 52.75 42.9313Z" fill="white"/>
<path d="M57.271 36.8074C57.2981 36.5253 57.4295 36.2635 57.6393 36.0735C57.8492 35.8835 58.1223 35.779 58.405 35.7805C58.6878 35.7821 58.9597 35.8896 59.1674 36.0819C59.3751 36.2743 59.5036 36.5375 59.5276 36.82C59.541 36.9772 59.5215 37.1355 59.4705 37.2848C59.4194 37.4341 59.3379 37.5711 59.231 37.6871C59.1242 37.803 58.9945 37.8954 58.8501 37.9583C58.7057 38.0212 58.5498 38.0532 58.3924 38.0523C58.235 38.0514 58.0795 38.0177 57.9358 37.9532C57.7921 37.8887 57.6634 37.7949 57.5579 37.6778C57.4524 37.5607 57.3724 37.4228 57.323 37.2729C57.2736 37.1231 57.2558 36.9645 57.271 36.8074Z" fill="white"/>
<path d="M66.1008 36.8595C66.1038 36.6371 66.1725 36.4206 66.2981 36.2372C66.4237 36.0539 66.6006 35.9119 66.8066 35.8292C67.0125 35.7465 67.2383 35.7268 67.4554 35.7725C67.6725 35.8182 67.8712 35.9273 68.0266 36.0861C68.1819 36.2449 68.2869 36.4462 68.3283 36.6647C68.3697 36.8833 68.3457 37.1092 68.2592 37.314C68.1728 37.5188 68.0278 37.6934 67.8425 37.8158C67.6572 37.9382 67.44 38.0028 67.2182 38.0016C67.0698 38.0008 66.9231 37.9705 66.7865 37.9125C66.6498 37.8546 66.526 37.7701 66.4221 37.6639C66.3183 37.5577 66.2364 37.432 66.1812 37.2939C66.1261 37.1558 66.0987 37.0082 66.1008 36.8595Z" fill="white"/>
<path d="M49.5345 43.5563C48.9123 43.5528 48.4131 43.1497 48.4158 42.6562C48.4185 42.1628 48.9223 41.7559 49.5445 41.7593C50.1667 41.7628 50.6659 42.1659 50.6632 42.6687C50.6604 43.1715 50.1567 43.5597 49.5345 43.5563Z" fill="white"/>
<path d="M61.6906 36.8321C61.6937 36.6097 61.7623 36.3932 61.8879 36.2099C62.0135 36.0265 62.1905 35.8845 62.3964 35.8018C62.6024 35.7191 62.8281 35.6994 63.0452 35.7451C63.2623 35.7909 63.4611 35.9 63.6164 36.0588C63.7718 36.2176 63.8768 36.4189 63.9182 36.6374C63.9596 36.8559 63.9355 37.0818 63.8491 37.2867C63.7626 37.4915 63.6176 37.6661 63.4324 37.7885C63.2471 37.9108 63.0298 37.9755 62.808 37.9742C62.6596 37.9734 62.5129 37.9432 62.3763 37.8852C62.2397 37.8272 62.1159 37.7427 62.012 37.6366C61.9081 37.5304 61.8262 37.4046 61.7711 37.2666C61.7159 37.1285 61.6886 36.9808 61.6906 36.8321Z" fill="white"/>
<path d="M67.1597 30.2633C67.7795 30.232 68.3073 30.7104 68.3385 31.3318C68.3697 31.9532 67.8925 32.4823 67.2727 32.5136C66.6529 32.5449 66.1251 32.0666 66.0939 31.4451C66.0627 30.8237 66.5399 30.2946 67.1597 30.2633Z" fill="white"/>
<path d="M61.7159 30.8571C61.7194 30.2349 62.2252 29.7333 62.8458 29.7367C63.4664 29.7402 63.9667 30.2473 63.9633 30.8695C63.9598 31.4917 63.4539 31.9933 62.8333 31.9899C62.2128 31.9864 61.7125 31.4792 61.7159 30.8571Z" fill="white"/>
<path d="M72.7596 32.33C72.6457 32.7763 72.0593 33.0151 71.4565 32.8628C70.8537 32.7105 70.4664 32.2149 70.5803 31.7686C70.6942 31.3223 71.2807 31.0742 71.8834 31.2358C72.4862 31.3974 72.8736 31.8837 72.7596 32.33Z" fill="white"/>
<path d="M54.1563 32.7893C53.5709 32.8419 53.0713 32.5039 53.0274 32.0475C52.9835 31.591 53.4316 31.1745 54.0077 31.1218C54.5838 31.0691 55.0927 31.3978 55.1366 31.8636C55.1804 32.3294 54.7417 32.7366 54.1563 32.7893Z" fill="white"/>
<path d="M58.3761 29.981C58.6698 29.9646 58.9582 30.0644 59.1794 30.2588C59.4006 30.4533 59.5369 30.727 59.559 31.0211C59.5778 31.2467 59.5289 31.4728 59.4187 31.6703C59.3084 31.8679 59.1418 32.0279 58.9401 32.1299C58.7385 32.2318 58.5111 32.271 58.2871 32.2425C58.0631 32.2139 57.8527 32.119 57.6829 31.9697C57.5132 31.8204 57.3918 31.6237 57.3343 31.4048C57.2768 31.1858 57.2859 30.9547 57.3604 30.741C57.4349 30.5273 57.5714 30.3407 57.7523 30.2053C57.9333 30.0699 58.1505 29.9918 58.3761 29.981Z" fill="white"/>
<path d="M48.4471 36.9946C48.4498 36.5011 48.9536 36.0942 49.5758 36.0977C50.198 36.1011 50.6972 36.5136 50.6945 37.007C50.6917 37.5005 50.188 37.9074 49.5658 37.9039C48.9436 37.9005 48.4444 37.488 48.4471 36.9946Z" fill="white"/>
<path d="M61.6143 49.0211C61.6178 48.3989 62.1237 47.8973 62.7443 47.9008C63.3649 47.9042 63.8652 48.4114 63.8617 49.0336C63.8583 49.6558 63.3524 50.1574 62.7318 50.1539C62.1112 50.1505 61.6109 49.6433 61.6143 49.0211Z" fill="white"/>
<path d="M66.0382 48.486C66.0416 47.8638 66.5475 47.3622 67.1681 47.3656C67.7887 47.3691 68.289 47.8762 68.2855 48.4984C68.2821 49.1206 67.7762 49.6222 67.1556 49.6188C66.535 49.6153 66.0347 49.1082 66.0382 48.486Z" fill="white"/>
<path d="M49.9484 34.1273C49.3897 34.3942 48.7773 34.2884 48.5753 33.8776C48.3733 33.4668 48.6735 32.9191 49.2322 32.6522C49.7909 32.3853 50.4033 32.4818 50.596 32.8925C50.7888 33.3033 50.5071 33.851 49.9484 34.1273Z" fill="white"/>
<path d="M42.1567 41.2495L42.1755 41.2216C42.9508 42.0825 43.8187 42.9905 44.7889 43.8897C44.7179 44.9694 44.6285 46.021 44.5207 47.026C43.0963 45.8351 41.7567 44.5458 40.5116 43.1677C41.0723 42.547 41.6237 41.9076 42.1567 41.2495Z" fill="white"/>
<path d="M70.4897 48.119C70.3808 47.6715 70.7735 47.1802 71.378 47.0346C71.9825 46.8889 72.5662 47.1249 72.6751 47.5818C72.784 48.0386 72.3821 48.5112 71.7869 48.6662C71.1916 48.8212 70.5987 48.5665 70.4897 48.119Z" fill="white"/>
<path d="M43.7104 21.9009L47.3456 24.5374L45.9677 25.1535C46.8865 28.6036 47.4053 33.8578 47.3748 39.3696C47.348 44.2018 46.9142 48.7431 46.1615 52.1653C45.2947 56.0803 44.1512 57.9827 42.6746 57.9745C41.4859 57.9679 40.5361 56.7429 39.7793 54.2155C39.1409 52.1077 38.6648 49.2001 38.405 45.8095L38.4054 45.7444C38.3991 45.5443 38.4724 45.35 38.609 45.204C38.7457 45.0581 38.9345 44.9726 39.1341 44.9663C39.3336 44.96 39.5275 45.0334 39.673 45.1704C39.8186 45.3074 39.9039 45.4968 39.9101 45.6968C40.1613 48.9756 40.6194 51.7714 41.2212 53.7766C41.887 55.9776 42.525 56.4746 42.6922 56.4756C42.8593 56.4765 43.8671 55.6255 44.7053 51.8406C45.4388 48.5207 45.8627 44.0911 45.8889 39.3614C45.9181 34.0916 45.435 29.0984 44.5897 25.779L43.2584 26.3769L43.7104 21.9009Z" fill="white"/>
<path d="M44.8717 35.6328C43.3677 36.9981 41.9716 38.4783 40.6959 40.0602C38.643 42.6144 36.3092 44.9284 33.7389 46.9582C33.6423 45.9614 33.5738 44.9182 33.524 43.8472C35.4162 42.2108 37.1575 40.4069 38.7267 38.4571C40.4946 36.2623 42.4852 34.2576 44.6663 32.4753C44.7536 33.4906 44.822 34.5524 44.8717 35.6328Z" fill="white"/>
<path d="M61.58 42.9704C61.5965 42.3484 62.1127 41.8576 62.7331 41.874C63.3535 41.8905 63.8431 42.4081 63.8267 43.0301C63.8102 43.652 63.294 44.1429 62.6736 44.1264C62.0532 44.11 61.5636 43.5924 61.58 42.9704Z" fill="white"/>
<path d="M70.4121 43.0212C70.4285 42.3992 70.9448 41.9083 71.5652 41.9248C72.1855 41.9413 72.6751 42.4589 72.6587 43.0808C72.6422 43.7028 72.126 44.1937 71.5056 44.1772C70.8852 44.1607 70.3956 43.6432 70.4121 43.0212Z" fill="white"/>
<path d="M65.9922 42.9938C66.0086 42.3719 66.5248 41.881 67.1452 41.8975C67.7656 41.9139 68.2552 42.4315 68.2388 43.0535C68.2223 43.6755 67.7061 44.1663 67.0857 44.1499C66.4653 44.1334 65.9757 43.6158 65.9922 42.9938Z" fill="white"/>
<path d="M57.2053 48.813C57.2088 48.5861 57.28 48.3654 57.4098 48.1794C57.5395 47.9935 57.7219 47.8507 57.9333 47.7696C58.1447 47.6885 58.3755 47.6727 58.596 47.7244C58.8164 47.776 59.0164 47.8927 59.1701 48.0593C59.3237 48.226 59.4241 48.4349 59.4582 48.6593C59.4923 48.8837 59.4586 49.1131 59.3614 49.3181C59.2642 49.5231 59.108 49.6942 58.913 49.8093C58.7179 49.9245 58.4929 49.9784 58.2669 49.9641C57.9755 49.9481 57.7018 49.8189 57.5036 49.6041C57.3055 49.3893 57.1985 49.1056 57.2053 48.813Z" fill="white"/>
<path d="M57.16 42.9548C57.1754 42.3327 57.6908 41.841 58.3112 41.8564C58.9316 41.8718 59.4221 42.3885 59.4067 43.0105C59.3914 43.6325 58.876 44.1242 58.2556 44.1089C57.6351 44.0935 57.1446 43.5768 57.16 42.9548Z" fill="white"/>
<path d="M48.5107 45.6713C48.7173 45.2628 49.3308 45.1638 49.8865 45.4462C50.4421 45.7286 50.7269 46.2795 50.5204 46.688C50.3138 47.0966 49.7096 47.1863 49.1539 46.9132C48.5982 46.6401 48.3135 46.0799 48.5107 45.6713Z" fill="white"/>
<path d="M52.9258 47.6497C52.971 47.1891 53.4793 46.8623 54.0612 46.9196C54.6431 46.977 55.0782 47.3969 55.033 47.8575C54.9878 48.318 54.4795 48.6449 53.8976 48.5875C53.3157 48.5301 52.8806 48.1103 52.9258 47.6497Z" fill="white"/>
<path d="M37.2747 37.2743L36.3866 38.3308C35.5464 37.4323 34.6043 36.5053 33.56 35.5778C33.6216 34.5167 33.711 33.4744 33.8094 32.4787C35.3002 33.6771 36.7078 34.9759 38.0227 36.366L37.2747 37.2743Z" fill="white"/>
<path d="M20.388 49.7506C20.2458 49.7573 20.1035 49.7357 19.9696 49.6869C19.8357 49.6382 19.7128 49.5633 19.608 49.4666C19.5031 49.3699 19.4185 49.2533 19.3589 49.1236C19.2993 48.9939 19.266 48.8536 19.2608 48.7108C19.2497 48.4224 19.3523 48.1412 19.5464 47.9279C19.7405 47.7147 20.0105 47.5866 20.298 47.5714C20.4403 47.5646 20.5825 47.5863 20.7164 47.635C20.8503 47.6838 20.9732 47.7587 21.078 47.8554C21.1829 47.9521 21.2675 48.0687 21.3271 48.1984C21.3867 48.3281 21.4201 48.4684 21.4252 48.6111C21.4363 48.8996 21.3337 49.1808 21.1396 49.394C20.9456 49.6073 20.6756 49.7353 20.388 49.7506Z" fill="white"/>
<path d="M29.9444 42.5515C29.9417 43.045 29.4473 43.4426 28.8529 43.4393C28.2586 43.436 27.7686 43.0329 27.7713 42.5395C27.7741 42.046 28.2685 41.6391 28.8629 41.6424C29.4572 41.6457 29.9472 42.0487 29.9444 42.5515Z" fill="white"/>
<path d="M21.4549 42.7292C21.4464 42.9428 21.3754 43.1493 21.2507 43.3228C21.126 43.4963 20.9531 43.6291 20.7536 43.7048C20.5541 43.7804 20.3368 43.7956 20.1288 43.7483C19.9208 43.701 19.7313 43.5933 19.5839 43.4388C19.4365 43.2842 19.3377 43.0896 19.2999 42.8792C19.262 42.6687 19.2868 42.4518 19.3711 42.2553C19.4554 42.0589 19.5955 41.8917 19.774 41.7746C19.9524 41.6574 20.1613 41.5955 20.3746 41.5966C20.5197 41.5998 20.6628 41.6317 20.7956 41.6903C20.9284 41.749 21.0484 41.8333 21.1488 41.9385C21.2491 42.0437 21.3278 42.1676 21.3803 42.3033C21.4328 42.439 21.4582 42.5837 21.4549 42.7292Z" fill="white"/>
<path d="M25.701 42.7526C25.6925 42.9663 25.6215 43.1727 25.4968 43.3462C25.3721 43.5197 25.1992 43.6525 24.9997 43.7282C24.8002 43.8039 24.5829 43.819 24.3749 43.7717C24.1669 43.7244 23.9774 43.6168 23.83 43.4622C23.6826 43.3077 23.5838 43.1131 23.546 42.9026C23.5081 42.6922 23.5329 42.4752 23.6172 42.2788C23.7015 42.0823 23.8416 41.9151 24.0201 41.798C24.1985 41.6808 24.4074 41.6189 24.6207 41.62C24.7658 41.6232 24.9089 41.6551 25.0417 41.7138C25.1745 41.7724 25.2945 41.8568 25.3949 41.9619C25.4952 42.0671 25.5739 42.1911 25.6264 42.3267C25.6789 42.4624 25.7043 42.6071 25.701 42.7526Z" fill="white"/>
<path d="M10.7941 42.67C10.7976 42.0478 11.2868 41.5461 11.8869 41.5494C12.487 41.5527 12.9706 42.0598 12.9672 42.682C12.9637 43.3042 12.4745 43.8059 11.8744 43.8026C11.2743 43.7992 10.7907 43.2922 10.7941 42.67Z" fill="white"/>
<path d="M6.55973 42.6426C6.56318 42.0204 7.05244 41.5188 7.65251 41.5221C8.25259 41.5254 8.73626 42.0325 8.73281 42.6547C8.72936 43.2769 8.2401 43.7786 7.64002 43.7752C7.03994 43.7719 6.55628 43.2648 6.55973 42.6426Z" fill="white"/>
<path d="M15.0402 42.6934C15.0437 42.0712 15.5329 41.5695 16.133 41.5729C16.7331 41.5762 17.2167 42.0833 17.2133 42.7055C17.2098 43.3276 16.7206 43.8293 16.1205 43.826C15.5204 43.8227 15.0368 43.3156 15.0402 42.6934Z" fill="white"/>
<path d="M6.57206 47.2144C6.68603 46.7588 7.24453 46.5291 7.81947 46.6812C8.39442 46.8334 8.78172 47.329 8.6678 47.7753C8.55388 48.2216 7.99534 48.4606 7.42039 48.3084C6.84545 48.1563 6.45815 47.6606 6.57206 47.2144Z" fill="white"/>
<path d="M28.4911 45.3276C29.0312 45.0512 29.625 45.157 29.8085 45.5677C29.9919 45.9783 29.7196 46.5262 29.1887 46.8026C28.6578 47.0789 28.0548 46.9639 27.8713 46.5625C27.6878 46.1611 27.9602 45.604 28.4911 45.3276Z" fill="white"/>
<path d="M3.25008 51.9484L3.38754 27.1544L4.2435 26.8706C8.98878 25.2582 13.9414 24.7828 18.5623 25.4882C21.578 25.9518 24.5445 26.9179 27.4247 28.3585C28.2305 28.7633 29.0267 29.196 29.8135 29.6752C30.1004 29.8537 30.3966 30.0323 30.6834 30.2201C30.5576 31.1318 30.4502 32.0809 30.3612 33.0581C29.4101 32.3899 28.4246 31.7722 27.4089 31.2075C24.6962 29.712 21.6102 28.5311 18.1769 27.9999C14.2333 27.4008 10.0059 27.7405 5.91263 29.0027L5.79546 50.1376C9.87451 51.4358 14.0979 51.8316 18.048 51.2669C22.2583 50.6665 26.4189 48.9763 30.2876 46.3349C30.3688 47.3223 30.4657 48.2725 30.5783 49.1856C26.7107 51.6129 22.5879 53.1822 18.4055 53.7828C13.777 54.4369 8.82995 53.9067 4.10279 52.2511L3.25008 51.9484Z" fill="white"/>
<path d="M24.4505 46.7549C25.008 46.7021 25.4891 47.0307 25.533 47.4964C25.5768 47.9622 25.1474 48.3695 24.5899 48.4223C24.0324 48.4751 23.5513 48.1372 23.5074 47.6807C23.4635 47.2243 23.8931 46.7983 24.4505 46.7549Z" fill="white"/>
<path d="M15.0031 48.7637C15.0065 48.1415 15.4958 47.6398 16.0959 47.6432C16.696 47.6465 17.1796 48.1536 17.1762 48.7758C17.1727 49.398 16.6835 49.8996 16.0834 49.8963C15.4833 49.893 14.9996 49.3859 15.0031 48.7637Z" fill="white"/>
<path d="M10.7629 48.1817C10.7663 47.5595 11.2556 47.0578 11.8556 47.0611C12.4557 47.0645 12.9394 47.5715 12.9359 48.1937C12.9325 48.8159 12.4432 49.3176 11.8432 49.3143C11.2431 49.311 10.7594 48.8039 10.7629 48.1817Z" fill="white"/>
<path d="M8.75751 36.5399C8.75405 37.1637 8.26831 37.6731 7.67397 37.6698C7.07962 37.6665 6.59026 37.1517 6.59372 36.5279C6.5806 36.3769 6.59903 36.2249 6.64785 36.0814C6.69668 35.938 6.77481 35.8064 6.87725 35.695C6.97969 35.5835 7.1042 35.4948 7.2428 35.4343C7.38141 35.3739 7.53107 35.3431 7.68221 35.3439C7.83336 35.3448 7.98267 35.3772 8.12059 35.4392C8.25852 35.5012 8.38203 35.5913 8.48323 35.7039C8.58443 35.8164 8.6611 35.9489 8.70833 36.0929C8.75556 36.2368 8.77231 36.3891 8.75751 36.5399Z" fill="white"/>
<path d="M25.621 31.8951C25.572 32.351 25.0872 32.6835 24.5303 32.6246C23.9735 32.5656 23.5579 32.1444 23.5976 31.6883C23.6372 31.2323 24.1313 30.8999 24.6882 30.9588C25.2451 31.0178 25.6607 31.4298 25.621 31.8951Z" fill="white"/>
<path d="M8.75842 31.4294C8.86739 31.8769 8.48395 32.359 7.89802 32.514C7.31208 32.6691 6.76556 32.4146 6.6566 31.9671C6.54763 31.5196 6.93112 31.0282 7.517 30.8825C8.10289 30.7368 8.64951 30.9726 8.75842 31.4294Z" fill="white"/>
<path d="M21.5202 30.9191C21.5136 31.0614 21.4786 31.2009 21.4175 31.3294C21.3563 31.458 21.2702 31.5731 21.1642 31.6679C21.0582 31.7626 20.9343 31.8353 20.7999 31.8815C20.6656 31.9277 20.5233 31.9466 20.3816 31.937C20.2317 31.941 20.0826 31.9139 19.9436 31.8573C19.8047 31.8008 19.6789 31.716 19.5742 31.6083C19.4696 31.5006 19.3883 31.3724 19.3355 31.2317C19.2827 31.0909 19.2595 30.9408 19.2674 30.7906C19.2753 30.6405 19.3141 30.4936 19.3814 30.3592C19.4487 30.2249 19.543 30.1059 19.6584 30.0099C19.7738 29.9138 19.9077 29.8428 20.0519 29.8012C20.196 29.7596 20.3471 29.7484 20.4958 29.7682C20.7831 29.7866 21.0517 29.9177 21.2434 30.1331C21.4351 30.3484 21.5345 30.6308 21.5202 30.9191Z" fill="white"/>
<path d="M15.1047 30.5997C15.1081 29.9775 15.5974 29.4758 16.1974 29.4791C16.7975 29.4824 17.2812 29.9895 17.2777 30.6117C17.2743 31.2339 16.785 31.7356 16.1849 31.7323C15.5849 31.7289 15.1012 31.2218 15.1047 30.5997Z" fill="white"/>
<path d="M10.8586 31.1309C10.862 30.5087 11.3513 30.007 11.9513 30.0104C12.5514 30.0137 13.0351 30.5208 13.0316 31.143C13.0282 31.7651 12.5389 32.2668 11.9389 32.2635C11.3388 32.2602 10.8551 31.7531 10.8586 31.1309Z" fill="white"/>
<path d="M28.8961 35.9807C29.4905 35.984 29.9804 36.3964 29.9777 36.8898C29.9749 37.3833 29.4805 37.7902 28.8861 37.7869C28.2918 37.7836 27.8018 37.3713 27.8046 36.8778C27.8073 36.3843 28.3018 35.9774 28.8961 35.9807Z" fill="white"/>
<path d="M32.3972 53.9217C31.4876 50.4716 30.9596 45.2174 30.9901 39.7056C31.0169 34.8734 31.4507 30.3321 32.2033 26.9099C33.0702 22.9949 34.2137 21.0925 35.6903 21.1007C36.879 21.1073 37.8287 22.3323 38.5948 24.8597C39.2332 26.9675 39.7093 29.8751 39.9691 33.2657C39.9848 33.3684 39.9791 33.4733 39.9525 33.5737C39.9258 33.6741 39.8787 33.7679 39.8142 33.8492C39.7497 33.9305 39.6691 33.9976 39.5775 34.0462C39.4859 34.0948 39.3853 34.1239 39.2819 34.1317C39.1786 34.1395 39.0747 34.1258 38.9769 34.0915C38.8791 34.0571 38.7894 34.0029 38.7135 33.9322C38.6376 33.8614 38.577 33.7757 38.5357 33.6805C38.4944 33.5852 38.4731 33.4824 38.4733 33.3785C38.2129 30.0996 37.764 27.3039 37.1529 25.2987C36.4965 23.0977 35.8584 22.6007 35.682 22.5997C35.5055 22.5987 34.5071 23.4498 33.6689 27.2346C32.9354 30.5545 32.5208 34.9842 32.4945 39.7139C32.4653 44.9837 32.9484 49.9769 33.7844 53.2962L35.1251 52.6984L34.6638 57.1744L31.0193 54.5378L32.3972 53.9217Z" fill="white"/>
<path d="M21.4899 36.6102C21.4933 36.905 21.3803 37.1891 21.1756 37.4008C20.9709 37.6124 20.6911 37.7343 20.3971 37.74C19.8028 37.7367 19.3227 37.222 19.3261 36.5982C19.313 36.4472 19.3315 36.2952 19.3803 36.1518C19.4291 36.0083 19.5072 35.8767 19.6097 35.7653C19.7121 35.6539 19.8366 35.5651 19.9752 35.5047C20.1138 35.4442 20.2635 35.4134 20.4146 35.4143C20.5658 35.4151 20.7151 35.4475 20.853 35.5095C20.9909 35.5715 21.1145 35.6616 21.2157 35.7742C21.3169 35.8867 21.3935 36.0192 21.4408 36.1632C21.488 36.3071 21.5047 36.4594 21.4899 36.6102Z" fill="white"/>
<path d="M29.8744 33.7716C29.6863 34.1802 29.0914 34.2793 28.5543 34.0063C28.0172 33.7333 27.751 33.1732 27.9483 32.7646C28.1455 32.356 28.7312 32.2569 29.2682 32.5392C29.8053 32.8215 30.0716 33.3723 29.8744 33.7716Z" fill="white"/>
<path d="M17.2465 36.5854C17.2431 37.2092 16.7573 37.7186 16.163 37.7153C15.9368 37.7252 15.7128 37.667 15.52 37.5481C15.3272 37.4291 15.1743 37.255 15.0811 37.0482C14.9878 36.8413 14.9586 36.6112 14.997 36.3876C15.0355 36.1639 15.1399 35.9569 15.2968 35.7932C15.4537 35.6296 15.656 35.5169 15.8774 35.4696C16.0988 35.4222 16.3293 35.4425 16.5391 35.5277C16.7489 35.613 16.9285 35.7593 17.0546 35.9478C17.1807 36.1364 17.2475 36.3584 17.2465 36.5854Z" fill="white"/>
<path d="M25.7321 36.6336C25.7355 36.9284 25.6225 37.2126 25.4178 37.4242C25.2131 37.6358 24.9333 37.7578 24.6393 37.7635C24.0449 37.7602 23.5649 37.2454 23.5683 36.6216C23.5552 36.4707 23.5737 36.3186 23.6225 36.1752C23.6713 36.0318 23.7494 35.9001 23.8519 35.7887C23.9543 35.6773 24.0788 35.5885 24.2174 35.5281C24.356 35.4676 24.5057 35.4369 24.6568 35.4377C24.808 35.4385 24.9573 35.471 25.0952 35.533C25.2331 35.5949 25.3567 35.6851 25.4579 35.7976C25.5591 35.9102 25.6357 36.0427 25.6829 36.1866C25.7302 36.3306 25.7469 36.4828 25.7321 36.6336Z" fill="white"/>
<path d="M13.0024 36.562C12.9989 37.1858 12.5132 37.6952 11.9189 37.6919C11.6927 37.7018 11.4687 37.6435 11.2759 37.5246C11.083 37.4057 10.9301 37.2316 10.8369 37.0248C10.7437 36.8179 10.7144 36.5878 10.7529 36.3641C10.7914 36.1404 10.8958 35.9334 11.0527 35.7698C11.2096 35.6062 11.4118 35.4934 11.6332 35.4461C11.8547 35.3988 12.0852 35.4191 12.295 35.5043C12.5048 35.5896 12.6843 35.7359 12.8104 35.9244C12.9365 36.1129 13.0034 36.335 13.0024 36.562Z" fill="white"/>
<path d="M76.0077 27.6486L75.8713 52.2563L75.0431 52.559C70.9486 54.0354 66.2276 54.6144 61.3821 54.2151C59.1563 54.034 56.9604 53.5842 54.8422 52.8753C52.4271 52.0655 50.1217 50.958 47.9789 49.5785L47.6273 49.3438C47.7623 48.4414 47.8698 47.4829 47.9681 46.4965L47.9959 46.5153C50.1086 48.0436 52.4162 49.2808 54.8571 50.1939C57.0249 50.9914 59.2899 51.4925 61.5911 51.6837C65.7498 52.0233 69.792 51.5988 73.3459 50.4547L73.4625 29.4315C69.9215 28.2387 65.8843 27.7694 61.722 28.0722C56.3149 28.4519 51.781 30.4658 48.1077 33.0432C48.0389 32.0559 47.942 31.1056 47.8356 30.1926C48.1432 29.9894 48.4414 29.8049 48.7582 29.6204C52.7834 27.2219 57.0909 25.8492 61.5411 25.5293C66.3908 25.1931 71.1051 25.8151 75.1828 27.3461L76.0077 27.6486Z" fill="white"/>
<circle cx="40" cy="40" r="38" stroke="white" stroke-width="4"/>
</svg>
