<svg width="78" height="108" viewBox="0 0 78 108" fill="none" xmlns="http://www.w3.org/2000/svg">
<path d="M53.8266 107.161C55.5061 103.642 57.2123 100.123 58.8917 96.6307C58.9474 96.5381 59.0362 96.4701 59.1401 96.4404C59.244 96.4107 59.3554 96.4216 59.4516 96.4708L70.0883 101.163C69.3952 99.2433 68.6754 97.3239 67.9556 95.4044L58.8384 70.7188C57.2656 70.852 56.1992 71.4918 55.4261 72.7181C55.1953 73.1131 54.9905 73.5228 54.813 73.9444C54.5868 74.5066 54.3008 75.0429 53.9599 75.5439C53.3041 76.4813 52.4597 77.2713 51.4807 77.8632C50.5298 78.4481 49.4724 78.8387 48.3697 79.0126C47.267 79.1864 46.1407 79.1401 45.056 78.8762C44.3442 78.6993 43.668 78.4017 43.0566 77.9965C44.5317 82.0308 46.0157 86.0562 47.5086 90.0728L53.8266 107.161Z" fill="white"/>
<path d="M7.36133 101.161L17.998 96.4687C18.0943 96.4195 18.2056 96.4086 18.3095 96.4383C18.4134 96.468 18.5022 96.536 18.5579 96.6287L23.6496 107.159L25.729 101.481L34.3663 78.1011C34.0574 78.2822 33.7368 78.4425 33.4066 78.5809C32.3265 78.9774 31.1779 79.1533 30.0286 79.0983C28.8793 79.0434 27.7527 78.7587 26.7153 78.261C24.8226 77.3547 23.4897 75.8884 22.4233 73.4359C22.0949 72.6771 21.5719 72.0187 20.9071 71.5271C20.2423 71.0356 19.4595 70.7284 18.6378 70.6367C16.985 75.0798 15.3411 79.5318 13.706 83.9926C11.5734 89.7242 9.46734 95.429 7.36133 101.161Z" fill="white"/>
<path d="M38.7371 71.8896C56.5449 71.8896 71.0471 57.3874 71.0471 39.5796C71.04 31.0126 67.6337 22.7985 61.5759 16.7407C55.5181 10.6829 47.304 7.27659 38.7371 7.26953C20.9026 7.26953 6.40039 21.7451 6.40039 39.5796C6.40039 57.414 20.9026 71.8896 38.7371 71.8896ZM38.7371 10.042C54.9987 10.042 68.248 23.2913 68.248 39.5796C68.248 55.8679 54.9987 69.1171 38.7371 69.1171C30.9032 69.1171 23.3902 66.0051 17.8509 60.4657C12.3115 54.9264 9.19953 47.4134 9.19953 39.5796C9.19953 31.7457 12.3115 24.2327 17.8509 18.6933C23.3902 13.154 30.9032 10.042 38.7371 10.042Z" fill="white"/>
<path d="M76.0054 52.4306C77.1919 50.7719 77.6801 48.7139 77.365 46.699C77.2229 45.7394 76.8971 44.8161 76.4053 43.9799C76.2164 43.6676 76.0117 43.365 75.7921 43.0735C75.2807 42.45 74.8918 41.7354 74.6459 40.9675C74.3201 39.7816 74.4143 38.5196 74.9124 37.3952C75.169 36.8596 75.4914 36.3582 75.8721 35.9024C76.1905 35.5051 76.4674 35.0763 76.6985 34.6227C77.1429 33.6967 77.3956 32.6904 77.4414 31.6642C77.4873 30.6381 77.3252 29.6132 76.9651 28.6513C76.5813 27.6433 75.9989 26.7227 75.2525 25.9442C74.506 25.1657 73.6107 24.5451 72.6198 24.1193C70.2739 23.133 68.9409 21.2669 68.9676 19.0542C68.9668 18.6353 68.9935 18.2167 69.0476 17.8013C69.1266 17.272 69.1534 16.7363 69.1275 16.2018C69.0269 15.066 68.6813 13.9655 68.1145 12.9761C67.569 12.0446 66.8339 11.2381 65.9567 10.6089C65.0796 9.97978 64.08 9.54197 63.0228 9.32389C62.2199 9.20405 61.4059 9.17722 60.5969 9.24392C59.2906 9.3239 57.931 9.40387 56.5981 8.65743C55.2652 7.911 54.652 6.65804 54.0655 5.48507C53.7224 4.74398 53.2929 4.04603 52.7859 3.40572C51.4164 1.88209 49.4997 0.962097 47.4542 0.846514C45.4717 0.765115 43.5308 1.4311 42.0159 2.7126C39.9899 4.31211 37.3773 4.17882 35.0314 2.3927C34.1994 1.76837 33.2496 1.31899 32.2393 1.07164C31.2289 0.82429 30.1789 0.78409 29.1526 0.95348C28.1263 1.12287 27.145 1.49834 26.2677 2.05724C25.3904 2.61614 24.6354 3.3469 24.0481 4.20547C23.7751 4.63601 23.5431 5.09119 23.355 5.56504C23.2044 5.95059 23.0262 6.32478 22.8218 6.6847C22.2079 7.77304 21.2243 8.60533 20.0494 9.03064C19.0363 9.40386 18.05 9.35055 17.1169 9.24392C15.9645 9.09308 14.7934 9.18387 13.678 9.5105C12.6528 9.84673 11.7087 10.3924 10.9056 11.1129C10.1024 11.8334 9.45788 12.713 9.01278 13.6959C8.53761 14.6848 8.30025 15.7712 8.31965 16.8682C8.31979 17.2429 8.34653 17.617 8.39964 17.9879C8.51945 18.7027 8.51945 19.4324 8.39964 20.1472C8.1571 21.2461 7.57962 22.2428 6.74681 22.9997C6.19865 23.4775 5.56566 23.8483 4.88072 24.0927C4.53416 24.2526 4.21426 24.3859 3.89436 24.5725C3.0003 25.0896 2.2185 25.7801 1.59482 26.6033C0.971146 27.4266 0.518145 28.3661 0.262391 29.3668C0.00663651 30.3675 -0.0467287 31.4091 0.105441 32.4307C0.25761 33.4523 0.612249 34.4332 1.14854 35.3159C1.31087 35.5839 1.4889 35.842 1.68171 36.089C2.18765 36.7062 2.57617 37.411 2.82802 38.1683C3.18136 39.505 3.00967 40.9263 2.34817 42.1404C2.11523 42.5386 1.857 42.9215 1.57507 43.2867C1.26859 43.6775 1.00075 44.0971 0.775319 44.5397C0.297007 45.5309 0.033563 46.6119 0.00223368 47.712C-0.046703 49.7486 0.710127 51.7221 2.10824 53.2037C2.7747 53.8968 3.62778 54.3233 4.53417 54.7765C5.44055 55.2297 6.53355 55.7895 7.27998 56.6959C8.50627 58.1888 8.42629 59.6817 8.37297 61.1479C8.30632 61.8038 8.30632 62.4647 8.37297 63.1206C8.49633 64.2108 8.84719 65.2629 9.40285 66.2088C9.9585 67.1548 10.7066 67.9736 11.5987 68.6122C13.1715 69.7319 14.9309 70.0785 17.4902 69.8385C18.6591 69.7078 19.8392 69.9558 20.8567 70.5461C21.8741 71.1364 22.6751 72.0378 23.1418 73.1175C24.1548 75.3568 25.3544 76.7431 27.0605 77.5428C27.9993 77.9908 29.0178 78.2475 30.0568 78.2978C31.0957 78.3482 32.1343 78.1912 33.112 77.8361C33.8091 77.5373 34.4708 77.1617 35.0847 76.7164C36.1777 76.0233 37.2974 75.3035 38.7903 75.3035H39.3501C40.6297 75.4635 41.6427 76.1299 42.6291 76.7697C43.6154 77.4095 44.2819 77.8627 45.2416 78.076C47.241 78.5558 49.6136 78.5292 51.0798 77.1696C53.3191 75.0636 52.706 75.9167 53.3191 75.0636C53.6239 74.6012 53.8828 74.1101 54.0922 73.5974C54.2821 73.1377 54.5048 72.6922 54.7586 72.2645C56.2782 69.8119 58.7574 69.7319 60.7568 69.9185C61.8225 70.023 62.8982 69.9026 63.9144 69.5652C64.9306 69.2278 65.8647 68.6808 66.6562 67.9596C67.4477 67.2385 68.079 66.3592 68.5093 65.3787C68.9396 64.3982 69.1593 63.3383 69.1542 62.2675C69.1542 61.8943 69.1009 61.5211 69.0742 61.1479C68.9621 60.4873 68.9442 59.8141 69.0209 59.1485C69.2541 57.9196 69.9037 56.8086 70.8603 56.0028C71.3884 55.5938 71.9718 55.2617 72.5931 55.0164C72.9338 54.8927 73.2637 54.7411 73.5795 54.5633C74.5288 54.0305 75.3554 53.3038 76.0054 52.4306ZM71.7134 31.637C71.9041 31.4859 72.1451 31.4128 72.3876 31.4326C72.6301 31.4524 72.856 31.5636 73.0197 31.7436C73.116 31.8334 73.1922 31.9426 73.2433 32.064C73.2943 32.1853 73.3192 32.3161 73.3161 32.4477C73.313 32.5794 73.2821 32.7088 73.2255 32.8277C73.1688 32.9465 73.0876 33.052 72.9872 33.1372C72.8868 33.2225 72.7696 33.2855 72.6431 33.3221C72.5167 33.3588 72.3839 33.3683 72.2535 33.35C72.1231 33.3316 71.9981 33.2859 71.8866 33.2158C71.7752 33.1457 71.6798 33.0528 71.6068 32.9433C71.5254 32.8517 71.4634 32.7446 71.4246 32.6284C71.3857 32.5123 71.3709 32.3894 71.3808 32.2673C71.3908 32.1452 71.4254 32.0264 71.4826 31.9181C71.5397 31.8098 71.6183 31.7141 71.7134 31.637ZM69.7673 24.9724C69.9587 24.818 70.2033 24.7454 70.4479 24.7704C70.6925 24.7953 70.9174 24.9158 71.0736 25.1057C71.2247 25.2964 71.2978 25.5373 71.278 25.7798C71.2582 26.0224 71.147 26.2483 70.967 26.4119C70.772 26.5648 70.5266 26.6387 70.2797 26.619C70.0327 26.5992 69.8022 26.4872 69.6341 26.3053C69.4781 26.1096 69.4048 25.8607 69.4297 25.6118C69.4546 25.3628 69.5757 25.1333 69.7673 24.9724ZM66.3551 18.9742C66.4954 18.8535 66.6684 18.7772 66.8521 18.7551C67.0358 18.7329 67.222 18.7659 67.387 18.8499C67.5519 18.9338 67.6881 19.0649 67.7784 19.2265C67.8686 19.3881 67.9088 19.5729 67.8937 19.7573C67.8786 19.9418 67.8091 20.1176 67.6938 20.2624C67.5786 20.4072 67.4229 20.5145 67.2465 20.5706C67.0701 20.6267 66.8811 20.629 66.7033 20.5774C66.5256 20.5257 66.3673 20.4224 66.2484 20.2805C66.1671 20.189 66.1051 20.0819 66.0662 19.9657C66.0274 19.8495 66.0125 19.7267 66.0225 19.6046C66.0324 19.4825 66.0671 19.3637 66.1242 19.2553C66.1814 19.147 66.2599 19.0514 66.3551 18.9742ZM62.2497 14.0691C62.4377 13.9116 62.6802 13.8345 62.9247 13.8544C63.1691 13.8744 63.3959 13.9898 63.5559 14.1757C63.7088 14.3707 63.7827 14.6161 63.7629 14.863C63.7432 15.11 63.6312 15.3405 63.4493 15.5087C63.2536 15.6646 63.0047 15.7379 62.7557 15.713C62.5067 15.6881 62.2773 15.567 62.1164 15.3754C61.962 15.184 61.8894 14.9394 61.9144 14.6948C61.9393 14.4502 62.0598 14.2253 62.2497 14.0691ZM56.758 9.5105C56.9494 9.35613 57.194 9.28352 57.4386 9.30848C57.6832 9.33344 57.9081 9.45395 58.0643 9.6438C58.1457 9.73535 58.2077 9.84243 58.2465 9.95861C58.2853 10.0748 58.3002 10.1976 58.2903 10.3197C58.2803 10.4418 58.2457 10.5606 58.1885 10.669C58.1313 10.7773 58.0528 10.8729 57.9577 10.9501C57.767 11.1012 57.526 11.1742 57.2835 11.1544C57.041 11.1346 56.8151 11.0235 56.6514 10.8434C56.5693 10.7496 56.5068 10.6403 56.4677 10.522C56.4285 10.4037 56.4134 10.2787 56.4234 10.1544C56.4333 10.0302 56.4681 9.9092 56.5255 9.7986C56.583 9.688 56.6621 9.59005 56.758 9.5105ZM50.7066 6.63138C50.8973 6.48026 51.1382 6.4072 51.3807 6.427C51.6232 6.4468 51.8492 6.55797 52.0128 6.73802C52.1091 6.82782 52.1853 6.93698 52.2364 7.05833C52.2875 7.17968 52.3123 7.31049 52.3093 7.44212C52.3062 7.57375 52.2753 7.70324 52.2186 7.82208C52.1619 7.94092 52.0807 8.04641 51.9804 8.13163C51.88 8.21685 51.7627 8.27988 51.6363 8.31654C51.5098 8.3532 51.377 8.36267 51.2466 8.34435C51.1162 8.32602 50.9912 8.28032 50.8797 8.21022C50.7683 8.14013 50.6729 8.04723 50.5999 7.93765C50.5186 7.8461 50.4566 7.739 50.4177 7.62282C50.3789 7.50665 50.364 7.38381 50.374 7.26172C50.3839 7.13963 50.4186 7.02083 50.4757 6.9125C50.5329 6.80416 50.6114 6.70852 50.7066 6.63138ZM44.4685 4.97857C44.56 4.89719 44.6671 4.8352 44.7833 4.79637C44.8995 4.75753 45.0223 4.74265 45.1444 4.75262C45.2665 4.76258 45.3853 4.7972 45.4937 4.85436C45.602 4.91152 45.6976 4.99004 45.7747 5.0852C45.9259 5.27588 45.9989 5.51686 45.9791 5.75937C45.9594 6.00187 45.8482 6.22781 45.6681 6.39147C45.5783 6.48776 45.4692 6.56395 45.3478 6.61505C45.2264 6.66614 45.0957 6.69096 44.964 6.68789C44.8324 6.68482 44.7029 6.65393 44.5841 6.59724C44.4652 6.54056 44.3597 6.45936 44.2745 6.35899C44.1893 6.25862 44.1263 6.14135 44.0896 6.01489C44.0529 5.88843 44.0435 5.75565 44.0618 5.62526C44.0801 5.49488 44.1258 5.36984 44.1959 5.25838C44.266 5.14693 44.3589 5.05157 44.4685 4.97857ZM37.9105 4.55203C37.9901 4.45606 38.088 4.37701 38.1986 4.31953C38.3092 4.26205 38.4302 4.22732 38.5545 4.21738C38.6787 4.20744 38.8037 4.22249 38.922 4.26165C39.0404 4.30082 39.1496 4.3633 39.2434 4.4454C39.4235 4.60906 39.5347 4.83499 39.5545 5.0775C39.5743 5.32001 39.5012 5.56097 39.3501 5.75166C39.2729 5.84681 39.1773 5.92535 39.069 5.98251C38.9606 6.03967 38.8418 6.07429 38.7197 6.08425C38.5976 6.09422 38.4748 6.07933 38.3586 6.0405C38.2425 6.00166 38.1354 5.93968 38.0438 5.8583C37.854 5.70205 37.7335 5.47718 37.7085 5.23258C37.6835 4.98797 37.7561 4.7434 37.9105 4.55203ZM31.6724 5.0852C31.7496 4.99004 31.8452 4.91152 31.9535 4.85436C32.0619 4.7972 32.1807 4.76258 32.3028 4.75262C32.4249 4.74265 32.5477 4.75753 32.6639 4.79637C32.7801 4.8352 32.8871 4.89719 32.9787 4.97857C33.0883 5.05157 33.1812 5.14693 33.2513 5.25838C33.3214 5.36984 33.3671 5.49488 33.3854 5.62526C33.4037 5.75565 33.3942 5.88843 33.3576 6.01489C33.3209 6.14135 33.2579 6.25862 33.1727 6.35899C33.0875 6.45936 32.982 6.54056 32.8631 6.59724C32.7443 6.65393 32.6148 6.68482 32.4832 6.68789C32.3515 6.69096 32.2208 6.66614 32.0994 6.61505C31.978 6.56395 31.8689 6.48776 31.7791 6.39147C31.599 6.22781 31.4879 6.00187 31.4681 5.75937C31.4483 5.51686 31.5213 5.27588 31.6724 5.0852ZM25.4344 6.73802C25.598 6.55797 25.824 6.4468 26.0665 6.427C26.309 6.4072 26.5499 6.48026 26.7406 6.63138C26.8358 6.70852 26.9143 6.80416 26.9715 6.9125C27.0286 7.02083 27.0633 7.13963 27.0732 7.26172C27.0832 7.38381 27.0683 7.50665 27.0295 7.62282C26.9906 7.739 26.9286 7.8461 26.8473 7.93765C26.7743 8.04723 26.6789 8.14013 26.5674 8.21022C26.456 8.28032 26.331 8.32602 26.2006 8.34435C26.0702 8.36267 25.9374 8.3532 25.8109 8.31654C25.6845 8.27988 25.5672 8.21685 25.4668 8.13163C25.3665 8.04641 25.2853 7.94092 25.2286 7.82208C25.1719 7.70324 25.141 7.57375 25.1379 7.44212C25.1349 7.31049 25.1597 7.17968 25.2108 7.05833C25.2619 6.93698 25.3381 6.82782 25.4344 6.73802ZM19.3829 9.6438C19.4559 9.53421 19.5513 9.44132 19.6627 9.37123C19.7742 9.30113 19.8992 9.25541 20.0296 9.23709C20.16 9.21876 20.2928 9.22825 20.4192 9.26491C20.5457 9.30157 20.663 9.36458 20.7633 9.4498C20.8637 9.53502 20.9449 9.64053 21.0016 9.75937C21.0583 9.87821 21.0892 10.0077 21.0922 10.1393C21.0953 10.271 21.0705 10.4017 21.0194 10.5231C20.9683 10.6445 20.8921 10.7536 20.7958 10.8434C20.6322 11.0235 20.4062 11.1346 20.1637 11.1544C19.9212 11.1742 19.6802 11.1012 19.4895 10.9501C19.3944 10.8729 19.3159 10.7773 19.2587 10.669C19.2015 10.5606 19.1669 10.4418 19.157 10.3197C19.147 10.1976 19.1619 10.0748 19.2007 9.95861C19.2395 9.84243 19.3015 9.73535 19.3829 9.6438ZM13.8913 14.1757C14.0504 13.9848 14.2787 13.8649 14.5262 13.8425C14.7737 13.82 15.02 13.8967 15.2109 14.0558C15.4018 14.2148 15.5216 14.4432 15.5441 14.6907C15.5666 14.9382 15.4899 15.1845 15.3308 15.3754C15.1699 15.567 14.9405 15.6881 14.6915 15.713C14.4425 15.7379 14.1936 15.6646 13.9979 15.5087C13.816 15.3405 13.704 15.11 13.6842 14.863C13.6645 14.6161 13.7384 14.3707 13.8913 14.1757ZM9.78587 19.0809C9.9047 18.939 10.0631 18.8356 10.2408 18.784C10.4185 18.7323 10.6076 18.7347 10.7839 18.7908C10.9603 18.8469 11.116 18.9542 11.2313 19.099C11.3465 19.2438 11.4161 19.4196 11.4311 19.6041C11.4462 19.7885 11.406 19.9733 11.3158 20.1349C11.2256 20.2965 11.0893 20.4276 10.9244 20.5115C10.7595 20.5954 10.5733 20.6285 10.3895 20.6063C10.2058 20.5842 10.0328 20.5079 9.89251 20.3871C9.79735 20.31 9.71882 20.2144 9.66165 20.106C9.60449 19.9977 9.56989 19.8789 9.55993 19.7568C9.54996 19.6347 9.56484 19.5119 9.60368 19.3957C9.64251 19.2795 9.70448 19.1724 9.78587 19.0809ZM6.37359 25.1057C6.53454 24.9141 6.76397 24.7929 7.01296 24.768C7.26195 24.7431 7.51081 24.8165 7.70651 24.9724C7.88844 25.1406 8.00041 25.3711 8.02017 25.618C8.03992 25.865 7.96603 26.1104 7.81315 26.3053C7.6495 26.4854 7.42356 26.5965 7.18106 26.6163C6.93855 26.6361 6.69757 26.5631 6.50688 26.4119C6.31703 26.2557 6.19653 26.0308 6.17157 25.7862C6.14661 25.5416 6.21921 25.2971 6.37359 25.1057ZM4.42753 31.7436C4.59118 31.5636 4.81712 31.4524 5.05962 31.4326C5.30213 31.4128 5.54311 31.4859 5.7338 31.637C5.82895 31.7141 5.90747 31.8098 5.96463 31.9181C6.0218 32.0264 6.05641 32.1452 6.06638 32.2673C6.07634 32.3894 6.06146 32.5123 6.02262 32.6284C5.98379 32.7446 5.9218 32.8517 5.84042 32.9433C5.68418 33.1331 5.45931 33.2536 5.2147 33.2786C4.9701 33.3035 4.72554 33.2309 4.53417 33.0765C4.34651 32.9119 4.2304 32.6806 4.21049 32.4317C4.19058 32.1829 4.26844 31.936 4.42753 31.7436ZM3.60112 39.368C3.41919 39.1998 3.30721 38.9693 3.28745 38.7223C3.26769 38.4754 3.34161 38.23 3.49448 38.035C3.65814 37.855 3.88407 37.7438 4.12658 37.724C4.36908 37.7042 4.61006 37.7773 4.80075 37.9284C4.9906 38.0846 5.11109 38.3095 5.13605 38.5541C5.16101 38.7987 5.08842 39.0433 4.93404 39.2347C4.7731 39.4263 4.54367 39.5474 4.29467 39.5723C4.04568 39.5972 3.79682 39.5239 3.60112 39.368ZM5.33392 47.3388C5.21472 47.366 5.09124 47.3688 4.97093 47.347C4.85062 47.3252 4.73597 47.2794 4.63386 47.2121C4.53175 47.1449 4.44429 47.0577 4.37676 46.9557C4.30923 46.8538 4.26303 46.7393 4.24091 46.619C4.20937 46.4999 4.20246 46.3756 4.22061 46.2537C4.23875 46.1317 4.28157 46.0148 4.34645 45.91C4.41132 45.8052 4.4969 45.7147 4.59793 45.6441C4.69896 45.5735 4.81333 45.5243 4.93404 45.4994C5.05489 45.472 5.17997 45.469 5.302 45.4904C5.42403 45.5119 5.54057 45.5575 5.64479 45.6245C5.74902 45.6915 5.83886 45.7786 5.90907 45.8807C5.97927 45.9828 6.02843 46.0979 6.05369 46.2192C6.10176 46.4626 6.05366 46.7153 5.91945 46.924C5.78524 47.1328 5.57539 47.2815 5.33392 47.3388ZM8.21303 55.2564C7.97284 55.3038 7.72363 55.2549 7.51917 55.1202C7.3147 54.9856 7.17135 54.776 7.12002 54.5366C7.07194 54.2931 7.12007 54.0405 7.25427 53.8317C7.38848 53.6229 7.59834 53.4743 7.8398 53.4169C8.07999 53.3695 8.3292 53.4184 8.53366 53.5531C8.73813 53.6877 8.88148 53.8973 8.93281 54.1367C8.96019 54.2576 8.96322 54.3827 8.94174 54.5047C8.92026 54.6267 8.87469 54.7432 8.80768 54.8475C8.74068 54.9517 8.65358 55.0415 8.55148 55.1117C8.44938 55.1819 8.33433 55.2311 8.21303 55.2564ZM13.1715 63.2272C12.942 63.2537 12.7109 63.1942 12.5228 63.0601C12.3348 62.926 12.2031 62.7269 12.1534 62.5013C12.1036 62.2758 12.1393 62.0398 12.2535 61.839C12.3677 61.6383 12.5523 61.487 12.7716 61.4145C12.8956 61.3735 13.0267 61.359 13.1567 61.3719C13.2866 61.3848 13.4124 61.4248 13.5258 61.4893C13.6393 61.5539 13.738 61.6415 13.8155 61.7466C13.893 61.8517 13.9475 61.9719 13.9757 62.0994C14.0038 62.2269 14.0048 62.3588 13.9787 62.4868C13.9527 62.6147 13.9 62.7357 13.8242 62.842C13.7484 62.9483 13.6512 63.0375 13.5387 63.1039C13.4263 63.1703 13.3012 63.2123 13.1715 63.2272ZM20.2893 69.1188C20.1685 69.1461 20.0434 69.1492 19.9213 69.1277C19.7993 69.1062 19.6828 69.0606 19.5785 68.9936C19.4743 68.9266 19.3845 68.8395 19.3143 68.7374C19.2441 68.6353 19.1949 68.5203 19.1696 68.399C19.1425 68.2798 19.1397 68.1563 19.1614 68.036C19.1832 67.9157 19.2291 67.801 19.2963 67.6989C19.3636 67.5968 19.4508 67.5094 19.5527 67.4418C19.6546 67.3743 19.7692 67.3281 19.8894 67.306C20.1292 67.2569 20.3787 67.3014 20.5869 67.4302C20.795 67.5591 20.946 67.7626 21.0091 67.9991C21.0365 68.1199 21.0395 68.245 21.018 68.3671C20.9965 68.4891 20.951 68.6056 20.884 68.7098C20.8169 68.8141 20.7299 68.9039 20.6278 68.9741C20.5257 69.0443 20.4106 69.0935 20.2893 69.1188ZM28.8733 73.1708C28.6298 73.2189 28.3772 73.1708 28.1684 73.0366C27.9597 72.9024 27.811 72.6925 27.7537 72.4511C27.7265 72.3319 27.7237 72.2084 27.7455 72.0881C27.7672 71.9678 27.8131 71.8531 27.8804 71.751C27.9476 71.6489 28.0348 71.5614 28.1367 71.4939C28.2387 71.4264 28.3532 71.3802 28.4734 71.3581C28.5926 71.3265 28.7169 71.3196 28.8388 71.3378C28.9607 71.3559 29.0777 71.3987 29.1825 71.4636C29.2873 71.5285 29.3777 71.614 29.4483 71.7151C29.5189 71.8161 29.5682 71.9305 29.5931 72.0512C29.6205 72.172 29.6235 72.2971 29.602 72.4192C29.5805 72.5412 29.535 72.6577 29.468 72.7619C29.401 72.8662 29.3139 72.956 29.2118 73.0262C29.1097 73.0964 28.9946 73.1456 28.8733 73.1708ZM39.3501 74.6104C39.1864 74.7904 38.9605 74.9016 38.718 74.9214C38.4755 74.9412 38.2345 74.8682 38.0438 74.717C37.854 74.5608 37.7335 74.3359 37.7085 74.0913C37.6835 73.8467 37.7561 73.6021 37.9105 73.4108C38.0715 73.2192 38.3009 73.098 38.5499 73.0731C38.7989 73.0482 39.0477 73.1215 39.2434 73.2775C39.4254 73.4456 39.5373 73.6761 39.5571 73.9231C39.5769 74.1701 39.503 74.4154 39.3501 74.6104ZM49.6935 72.4511C49.6673 72.5718 49.6175 72.6863 49.547 72.7878C49.4765 72.8893 49.3868 72.976 49.2828 73.0428C49.1788 73.1097 49.0627 73.1554 48.9411 73.1774C48.8194 73.1993 48.6947 73.1971 48.5739 73.1708C48.4531 73.1446 48.3387 73.0948 48.2372 73.0243C48.1356 72.9538 48.0489 72.8641 47.9821 72.7601C47.9153 72.6561 47.8696 72.54 47.8476 72.4184C47.8256 72.2967 47.8279 72.172 47.8541 72.0512C47.879 71.9305 47.9283 71.8161 47.9989 71.7151C48.0695 71.614 48.1599 71.5285 48.2647 71.4636C48.3695 71.3987 48.4865 71.3559 48.6084 71.3378C48.7303 71.3196 48.8546 71.3265 48.9738 71.3581C49.094 71.3802 49.2086 71.4264 49.3105 71.4939C49.4124 71.5614 49.4996 71.6489 49.5668 71.751C49.6341 71.8531 49.68 71.9678 49.7017 72.0881C49.7235 72.2084 49.7207 72.3319 49.6935 72.4511ZM58.2776 68.399C58.2523 68.5203 58.2031 68.6353 58.1329 68.7374C58.0627 68.8395 57.9729 68.9266 57.8687 68.9936C57.7644 69.0606 57.6479 69.1062 57.5259 69.1277C57.4038 69.1492 57.2787 69.1461 57.1579 69.1188C57.0372 69.0939 56.9228 69.0446 56.8218 68.974C56.7208 68.9034 56.6352 68.8129 56.5703 68.7081C56.5055 68.6033 56.4626 68.4864 56.4445 68.3645C56.4263 68.2426 56.4333 68.1182 56.4648 67.9991C56.5373 67.7798 56.6886 67.5952 56.8893 67.481C57.0901 67.3668 57.3261 67.3311 57.5517 67.3809C57.7772 67.4306 57.9763 67.5623 58.1104 67.7503C58.2445 67.9384 58.304 68.1695 58.2776 68.399ZM65.3687 62.5075C65.3466 62.6277 65.3004 62.7422 65.2329 62.8442C65.1653 62.9461 65.0779 63.0333 64.9758 63.1005C64.8736 63.1678 64.759 63.2137 64.6387 63.2355C64.5184 63.2572 64.3949 63.2544 64.2757 63.2272C64.146 63.2123 64.0209 63.1703 63.9085 63.1039C63.796 63.0375 63.6988 62.9483 63.623 62.842C63.5472 62.7357 63.4946 62.6147 63.4685 62.4868C63.4424 62.3588 63.4434 62.2269 63.4716 62.0994C63.4997 61.9719 63.5543 61.8517 63.6317 61.7466C63.7092 61.6415 63.8079 61.5539 63.9214 61.4893C64.0348 61.4248 64.1606 61.3848 64.2905 61.3719C64.4204 61.359 64.5516 61.3735 64.6756 61.4145C64.7953 61.4361 64.9092 61.4824 65.0101 61.5503C65.111 61.6182 65.1967 61.7063 65.2618 61.809C65.3269 61.9117 65.37 62.0268 65.3885 62.147C65.4069 62.2672 65.4001 62.39 65.3687 62.5075ZM70.3272 54.5366C70.2758 54.776 70.1325 54.9856 69.928 55.1202C69.7236 55.2549 69.4744 55.3038 69.2342 55.2564C68.9902 55.2033 68.7774 55.0556 68.6424 54.8456C68.5074 54.6356 68.4614 54.3806 68.5144 54.1367C68.5674 53.8928 68.7152 53.6799 68.9252 53.5449C69.1351 53.41 69.3901 53.3639 69.6341 53.4169C69.8706 53.48 70.0741 53.631 70.2029 53.8391C70.3318 54.0473 70.3762 54.2968 70.3272 54.5366ZM38.7369 72.691C20.4759 72.691 5.6005 57.8422 5.6005 39.5812C5.6005 21.3202 20.4759 6.47144 38.7369 6.47144C56.998 6.47144 71.8467 21.3202 71.8467 39.5812C71.8467 57.8422 56.9713 72.691 38.7369 72.691ZM73.2063 46.619C73.1842 46.7393 73.138 46.8538 73.0704 46.9557C73.0029 47.0577 72.9155 47.1449 72.8133 47.2121C72.7112 47.2794 72.5966 47.3252 72.4763 47.347C72.356 47.3688 72.2325 47.366 72.1133 47.3388C71.8718 47.2815 71.662 47.1328 71.5278 46.924C71.3936 46.7153 71.3454 46.4626 71.3935 46.2192C71.4188 46.0979 71.4679 45.9828 71.5382 45.8807C71.6084 45.7786 71.6982 45.6915 71.8024 45.6245C71.9067 45.5575 72.0232 45.5119 72.1452 45.4904C72.2673 45.469 72.3923 45.472 72.5132 45.4994C72.6339 45.5243 72.7482 45.5735 72.8493 45.6441C72.9503 45.7147 73.0359 45.8052 73.1008 45.91C73.1656 46.0148 73.2085 46.1317 73.2266 46.2537C73.2447 46.3756 73.2378 46.4999 73.2063 46.619ZM73.8461 39.368C73.6547 39.5223 73.4102 39.5949 73.1656 39.57C72.9209 39.545 72.6961 39.4245 72.5398 39.2347C72.4584 39.1431 72.3965 39.036 72.3576 38.9198C72.3188 38.8037 72.3039 38.6808 72.3139 38.5587C72.3239 38.4366 72.3585 38.3178 72.4156 38.2095C72.4728 38.1012 72.5513 38.0055 72.6465 37.9284C72.741 37.8496 72.8501 37.7902 72.9676 37.7536C73.085 37.717 73.2085 37.7039 73.3311 37.7151C73.4536 37.7262 73.5728 37.7614 73.6817 37.8186C73.7907 37.8757 73.8873 37.9538 73.966 38.0484C74.0448 38.1429 74.1042 38.252 74.1408 38.3695C74.1774 38.4869 74.1905 38.6105 74.1794 38.733C74.1682 38.8555 74.1331 38.9747 74.0759 39.0836C74.0187 39.1926 73.9406 39.2892 73.8461 39.368Z" fill="white"/>
<path d="M38.0447 5.85803C38.1362 5.93941 38.2433 6.00139 38.3595 6.04023C38.4757 6.07906 38.5985 6.09395 38.7206 6.08398C38.8427 6.07402 38.9615 6.0394 39.0698 5.98224C39.1782 5.92508 39.2738 5.84654 39.3509 5.75139C39.5021 5.5607 39.5751 5.31973 39.5553 5.07723C39.5355 4.83472 39.4244 4.60879 39.2443 4.44513C39.1545 4.34884 39.0453 4.27264 38.924 4.22155C38.8026 4.17046 38.6719 4.14562 38.5402 4.14869C38.4086 4.15176 38.2791 4.18265 38.1603 4.23934C38.0414 4.29602 37.9359 4.37722 37.8507 4.47759C37.7655 4.57796 37.7025 4.69523 37.6658 4.82169C37.6291 4.94815 37.6197 5.08095 37.638 5.21133C37.6563 5.34172 37.702 5.46675 37.7721 5.57821C37.8422 5.68967 37.9351 5.78503 38.0447 5.85803Z" fill="#1B2233"/>
<path d="M39.2448 73.2794C39.0491 73.1235 38.8003 73.0502 38.5513 73.0751C38.3023 73.1 38.0729 73.2211 37.9119 73.4127C37.7575 73.6041 37.6849 73.8487 37.7099 74.0933C37.7349 74.3379 37.8553 74.5628 38.0452 74.719C38.2359 74.8701 38.4769 74.9432 38.7194 74.9234C38.9619 74.9036 39.1878 74.7924 39.3515 74.6124C39.5043 74.4174 39.5783 74.172 39.5585 73.9251C39.5387 73.6781 39.4268 73.4476 39.2448 73.2794Z" fill="#1B2233"/>
<path d="M4.93294 39.2365C5.08732 39.0451 5.1599 38.8005 5.13495 38.5559C5.10999 38.3113 4.9895 38.0865 4.79965 37.9302C4.60896 37.7791 4.36798 37.706 4.12547 37.7258C3.88297 37.7456 3.65703 37.8568 3.49338 38.0369C3.3405 38.2318 3.26659 38.4772 3.28635 38.7241C3.3061 38.9711 3.41809 39.2016 3.60002 39.3698C3.79572 39.5257 4.04458 39.599 4.29357 39.5741C4.54256 39.5492 4.77199 39.4281 4.93294 39.2365Z" fill="#1B2233"/>
<path d="M4.5344 33.0786C4.72577 33.233 4.97032 33.3056 5.21493 33.2806C5.45954 33.2557 5.6844 33.1352 5.84065 32.9453C5.92203 32.8538 5.98402 32.7467 6.02285 32.6305C6.06169 32.5143 6.07657 32.3915 6.0666 32.2694C6.05664 32.1473 6.02202 32.0285 5.96486 31.9202C5.9077 31.8118 5.82918 31.7162 5.73402 31.6391C5.54313 31.48 5.29684 31.4032 5.04937 31.4257C4.8019 31.4482 4.57351 31.5681 4.41443 31.759C4.25535 31.9499 4.17862 32.1962 4.20112 32.4437C4.22361 32.6911 4.3435 32.9195 4.5344 33.0786Z" fill="#1B2233"/>
<path d="M4.93425 45.4996C4.81354 45.5245 4.69917 45.5738 4.59814 45.6444C4.49711 45.715 4.41153 45.8055 4.34665 45.9103C4.28178 46.0151 4.23896 46.132 4.22081 46.2539C4.20267 46.3758 4.20958 46.5001 4.24112 46.6193C4.26323 46.7395 4.30944 46.8541 4.37697 46.956C4.44449 47.0579 4.53195 47.1451 4.63407 47.2124C4.73618 47.2796 4.85083 47.3255 4.97114 47.3473C5.09144 47.369 5.21492 47.3662 5.33413 47.3391C5.57559 47.2817 5.78545 47.1331 5.91965 46.9243C6.05386 46.7155 6.10197 46.4629 6.05389 46.2194C6.02863 46.0981 5.97948 45.983 5.90927 45.8809C5.83907 45.7788 5.74923 45.6917 5.645 45.6247C5.54077 45.5577 5.42423 45.5122 5.3022 45.4907C5.18017 45.4692 5.05509 45.4723 4.93425 45.4996Z" fill="#1B2233"/>
<path d="M7.83953 53.4161C7.59806 53.4734 7.3882 53.6221 7.254 53.8309C7.11979 54.0396 7.07167 54.2923 7.11974 54.5358C7.17107 54.7751 7.31442 54.9848 7.51889 55.1194C7.72336 55.2541 7.97256 55.3029 8.21275 55.2555C8.33406 55.2303 8.4491 55.1811 8.5512 55.1109C8.6533 55.0407 8.7404 54.9509 8.80741 54.8466C8.87441 54.7424 8.91998 54.6259 8.94146 54.5039C8.96295 54.3818 8.95991 54.2567 8.93253 54.1359C8.88121 53.8965 8.73785 53.6869 8.53339 53.5522C8.32892 53.4176 8.07971 53.3687 7.83953 53.4161Z" fill="#1B2233"/>
<path d="M12.771 61.4143C12.5517 61.4869 12.3671 61.6381 12.2529 61.8389C12.1387 62.0397 12.103 62.2757 12.1528 62.5012C12.2025 62.7268 12.3342 62.9259 12.5222 63.06C12.7103 63.194 12.9414 63.2536 13.1709 63.2271C13.3006 63.2122 13.4257 63.1701 13.5381 63.1038C13.6506 63.0374 13.7478 62.9482 13.8236 62.8419C13.8994 62.7356 13.9521 62.6146 13.9781 62.4866C14.0042 62.3587 14.0032 62.2267 13.9751 62.0992C13.9469 61.9718 13.8924 61.8516 13.8149 61.7465C13.7374 61.6414 13.6387 61.5538 13.5252 61.4892C13.4118 61.4247 13.286 61.3846 13.1561 61.3718C13.0261 61.3589 12.895 61.3734 12.771 61.4143Z" fill="#1B2233"/>
<path d="M19.889 67.3046C19.7687 67.3267 19.6542 67.3729 19.5523 67.4405C19.4503 67.508 19.3631 67.5954 19.2959 67.6976C19.2286 67.7997 19.1828 67.9143 19.161 68.0346C19.1392 68.1549 19.142 68.2784 19.1692 68.3976C19.2222 68.6415 19.37 68.8544 19.5799 68.9894C19.7899 69.1244 20.0449 69.1704 20.2888 69.1174C20.5328 69.0644 20.7456 68.9166 20.8806 68.7066C21.0156 68.4967 21.0616 68.2417 21.0086 67.9977C20.9456 67.7612 20.7945 67.5577 20.5864 67.4289C20.3783 67.3 20.1288 67.2556 19.889 67.3046Z" fill="#1B2233"/>
<path d="M28.4749 71.3583C28.3546 71.3804 28.2401 71.4266 28.1382 71.4942C28.0363 71.5617 27.9491 71.6491 27.8818 71.7512C27.8146 71.8533 27.7687 71.968 27.7469 72.0883C27.7251 72.2086 27.7279 72.3321 27.7551 72.4513C27.8125 72.6928 27.9611 72.9026 28.1699 73.0368C28.3786 73.171 28.6313 73.2192 28.8748 73.1711C28.9961 73.1458 29.1111 73.0967 29.2132 73.0264C29.3153 72.9562 29.4024 72.8664 29.4694 72.7622C29.5364 72.6579 29.582 72.5414 29.6035 72.4194C29.625 72.2974 29.6219 72.1723 29.5946 72.0514C29.5697 71.9307 29.5204 71.8163 29.4498 71.7153C29.3792 71.6143 29.2887 71.5287 29.1839 71.4638C29.0791 71.399 28.9622 71.3561 28.8403 71.338C28.7184 71.3199 28.594 71.3268 28.4749 71.3583Z" fill="#1B2233"/>
<path d="M6.50615 26.4143C6.69684 26.5654 6.93782 26.6385 7.18032 26.6187C7.42283 26.5989 7.64877 26.4877 7.81242 26.3077C7.9653 26.1127 8.03919 25.8674 8.01944 25.6204C7.99968 25.3734 7.88771 25.143 7.70578 24.9748C7.51008 24.8188 7.26122 24.7455 7.01223 24.7704C6.76324 24.7953 6.53381 24.9165 6.37286 25.1081C6.21848 25.2994 6.14588 25.544 6.17084 25.7886C6.1958 26.0332 6.3163 26.2581 6.50615 26.4143Z" fill="#1B2233"/>
<path d="M9.89223 20.3863C10.0325 20.5071 10.2055 20.5833 10.3893 20.6055C10.573 20.6276 10.7592 20.5946 10.9241 20.5107C11.0891 20.4267 11.2253 20.2956 11.3155 20.1341C11.4058 19.9725 11.4459 19.7877 11.4308 19.6032C11.4158 19.4188 11.3462 19.243 11.231 19.0981C11.1157 18.9533 10.96 18.8461 10.7836 18.79C10.6073 18.7339 10.4182 18.7315 10.2405 18.7832C10.0628 18.8348 9.90442 18.9382 9.78559 19.08C9.7042 19.1716 9.64223 19.2787 9.6034 19.3949C9.56456 19.5111 9.54968 19.6339 9.55965 19.756C9.56961 19.8781 9.60421 19.9969 9.66137 20.1052C9.71854 20.2135 9.79707 20.3092 9.89223 20.3863Z" fill="#1B2233"/>
<path d="M13.9985 15.5099C14.1942 15.6658 14.443 15.7392 14.692 15.7143C14.941 15.6894 15.1704 15.5682 15.3314 15.3766C15.4101 15.2821 15.4695 15.173 15.5061 15.0555C15.5427 14.938 15.5558 14.8145 15.5447 14.6919C15.5336 14.5694 15.4984 14.4503 15.4412 14.3413C15.384 14.2324 15.3059 14.1358 15.2114 14.057C15.1169 13.9782 15.0078 13.9189 14.8903 13.8823C14.7728 13.8457 14.6493 13.8326 14.5268 13.8437C14.4042 13.8548 14.2851 13.89 14.1762 13.9472C14.0672 14.0044 13.9706 14.0824 13.8918 14.177C13.7389 14.3719 13.665 14.6173 13.6848 14.8643C13.7045 15.1112 13.8165 15.3417 13.9985 15.5099Z" fill="#1B2233"/>
<path d="M19.4899 10.9486C19.6806 11.0997 19.9215 11.1728 20.1641 11.153C20.4066 11.1332 20.6325 11.022 20.7962 10.842C20.8924 10.7522 20.9686 10.643 21.0197 10.5217C21.0708 10.4003 21.0956 10.2695 21.0926 10.1379C21.0895 10.0063 21.0586 9.87676 21.0019 9.75792C20.9452 9.63908 20.864 9.53357 20.7637 9.44835C20.6633 9.36313 20.546 9.30012 20.4196 9.26346C20.2931 9.2268 20.1603 9.21732 20.0299 9.23564C19.8996 9.25396 19.7745 9.29968 19.6631 9.36978C19.5516 9.43987 19.4562 9.53277 19.3832 9.64235C19.3019 9.7339 19.2399 9.84099 19.2011 9.95716C19.1622 10.0733 19.1473 10.1962 19.1573 10.3183C19.1673 10.4404 19.2019 10.5592 19.259 10.6675C19.3162 10.7758 19.3947 10.8715 19.4899 10.9486Z" fill="#1B2233"/>
<path d="M25.5407 8.069C25.7321 8.22338 25.9767 8.29598 26.2213 8.27102C26.4659 8.24606 26.6908 8.12556 26.847 7.93571C26.9284 7.84416 26.9904 7.73706 27.0292 7.62088C27.068 7.50471 27.0829 7.38187 27.073 7.25978C27.063 7.13769 27.0284 7.01889 26.9712 6.91055C26.914 6.80221 26.8355 6.70658 26.7404 6.62944C26.5497 6.47831 26.3087 6.40526 26.0662 6.42506C25.8237 6.44486 25.5978 6.55603 25.4341 6.73608C25.352 6.82987 25.2895 6.93915 25.2504 7.05748C25.2112 7.17581 25.1962 7.3008 25.2061 7.42504C25.216 7.54929 25.2508 7.67029 25.3082 7.78089C25.3657 7.89149 25.4448 7.98946 25.5407 8.069Z" fill="#1B2233"/>
<path d="M31.779 6.39185C31.8688 6.48815 31.978 6.56434 32.0994 6.61543C32.2207 6.66652 32.3515 6.69135 32.4831 6.68828C32.6148 6.68521 32.7442 6.65432 32.8631 6.59763C32.9819 6.54095 33.0874 6.45975 33.1727 6.35938C33.2579 6.25901 33.3209 6.14174 33.3575 6.01528C33.3942 5.88882 33.4037 5.75604 33.3854 5.62565C33.367 5.49527 33.3213 5.37023 33.2512 5.25877C33.1811 5.14731 33.0882 5.05196 32.9787 4.97896C32.8871 4.89758 32.78 4.83559 32.6638 4.79676C32.5477 4.75792 32.4248 4.74304 32.3027 4.75301C32.1806 4.76297 32.0618 4.79758 31.9535 4.85475C31.8452 4.91191 31.7495 4.99043 31.6724 5.08558C31.5213 5.27627 31.4482 5.51725 31.468 5.75976C31.4878 6.00226 31.599 6.2282 31.779 6.39185Z" fill="#1B2233"/>
<path d="M72.6461 37.9281C72.551 38.0052 72.4724 38.1009 72.4153 38.2092C72.3581 38.3176 72.3235 38.4363 72.3136 38.5584C72.3036 38.6805 72.3185 38.8034 72.3573 38.9195C72.3961 39.0357 72.4581 39.1428 72.5395 39.2344C72.6957 39.4242 72.9206 39.5447 73.1652 39.5697C73.4098 39.5946 73.6544 39.522 73.8458 39.3677C73.9403 39.2889 74.0184 39.1923 74.0755 39.0833C74.1327 38.9744 74.1679 38.8552 74.179 38.7327C74.1902 38.6102 74.1771 38.4866 74.1405 38.3692C74.1039 38.2517 74.0445 38.1426 73.9657 38.0481C73.8869 37.9535 73.7903 37.8755 73.6814 37.8183C73.5724 37.7611 73.4533 37.7259 73.3308 37.7148C73.2082 37.7036 73.0847 37.7167 72.9672 37.7533C72.8498 37.7899 72.7407 37.8493 72.6461 37.9281Z" fill="#1B2233"/>
<path d="M72.9122 33.0768C73.0081 32.9973 73.0872 32.8993 73.1446 32.7887C73.2021 32.6781 73.2369 32.5571 73.2468 32.4329C73.2567 32.3086 73.2417 32.1836 73.2025 32.0653C73.1634 31.947 73.1009 31.8377 73.0188 31.7439C72.8552 31.5638 72.6292 31.4527 72.3867 31.4329C72.1442 31.4131 71.9032 31.4861 71.7125 31.6373C71.6174 31.7144 71.5388 31.81 71.4817 31.9184C71.4245 32.0267 71.3899 32.1455 71.38 32.2676C71.37 32.3897 71.3849 32.5125 71.4237 32.6287C71.4625 32.7449 71.5245 32.852 71.6059 32.9435C71.7621 33.1334 71.987 33.2539 72.2316 33.2788C72.4762 33.3038 72.7208 33.2312 72.9122 33.0768Z" fill="#1B2233"/>
<path d="M72.5129 45.4996C72.392 45.4723 72.2669 45.4692 72.1449 45.4907C72.0229 45.5122 71.9063 45.5577 71.8021 45.6247C71.6979 45.6917 71.608 45.7788 71.5378 45.8809C71.4676 45.983 71.4184 46.0981 71.3932 46.2194C71.3451 46.4629 71.3932 46.7155 71.5274 46.9243C71.6617 47.1331 71.8715 47.2817 72.113 47.3391C72.2322 47.3662 72.3556 47.369 72.476 47.3473C72.5963 47.3255 72.7109 47.2796 72.813 47.2124C72.9151 47.1451 73.0026 47.0579 73.0701 46.956C73.1376 46.8541 73.1839 46.7395 73.206 46.6193C73.2375 46.5001 73.2444 46.3758 73.2263 46.2539C73.2081 46.132 73.1653 46.0151 73.1004 45.9103C73.0356 45.8055 72.95 45.715 72.8489 45.6444C72.7479 45.5738 72.6336 45.5245 72.5129 45.4996Z" fill="#1B2233"/>
<path d="M69.6353 53.416C69.3913 53.363 69.1363 53.409 68.9264 53.544C68.7164 53.679 68.5687 53.8919 68.5156 54.1358C68.4626 54.3797 68.5086 54.6347 68.6436 54.8447C68.7786 55.0547 68.9915 55.2024 69.2354 55.2555C69.4756 55.3029 69.7248 55.254 69.9293 55.1193C70.1337 54.9847 70.2771 54.7751 70.3284 54.5357C70.3774 54.2959 70.333 54.0463 70.2042 53.8382C70.0753 53.6301 69.8718 53.479 69.6353 53.416Z" fill="#1B2233"/>
<path d="M64.6751 61.4143C64.5512 61.3734 64.42 61.3589 64.2901 61.3718C64.1602 61.3846 64.0344 61.4247 63.9209 61.4892C63.8074 61.5538 63.7088 61.6414 63.6313 61.7465C63.5538 61.8516 63.4992 61.9718 63.4711 62.0992C63.443 62.2267 63.4419 62.3587 63.468 62.4866C63.4941 62.6146 63.5467 62.7356 63.6225 62.8419C63.6983 62.9482 63.7956 63.0374 63.908 63.1038C64.0205 63.1701 64.1456 63.2122 64.2753 63.2271C64.3945 63.2543 64.5179 63.2571 64.6382 63.2353C64.7585 63.2136 64.8732 63.1677 64.9753 63.1004C65.0774 63.0332 65.1649 62.946 65.2324 62.8441C65.3 62.7421 65.3461 62.6276 65.3683 62.5074C65.3997 62.3899 65.4064 62.2671 65.388 62.1469C65.3696 62.0267 65.3265 61.9116 65.2614 61.8089C65.1962 61.7062 65.1105 61.6181 65.0096 61.5502C64.9087 61.4823 64.7948 61.436 64.6751 61.4143Z" fill="#1B2233"/>
<path d="M57.5587 67.304C57.3223 67.2558 57.0763 67.301 56.8725 67.4302C56.6687 67.5595 56.5229 67.7627 56.4657 67.9971C56.4342 68.1163 56.4273 68.2406 56.4454 68.3625C56.4636 68.4844 56.5064 68.6013 56.5713 68.7061C56.6361 68.8109 56.7217 68.9014 56.8227 68.972C56.9238 69.0426 57.0381 69.0919 57.1588 69.1168C57.2797 69.1441 57.4048 69.1472 57.5268 69.1257C57.6488 69.1042 57.7654 69.0586 57.8696 68.9916C57.9738 68.9246 58.0637 68.8376 58.1339 68.7355C58.2041 68.6334 58.2532 68.5183 58.2785 68.397C58.3057 68.2778 58.3085 68.1543 58.2867 68.034C58.2649 67.9137 58.219 67.799 58.1518 67.6969C58.0846 67.5948 57.9973 67.5074 57.8954 67.4398C57.7935 67.3723 57.679 67.3261 57.5587 67.304Z" fill="#1B2233"/>
<path d="M48.9751 71.3583C48.856 71.3268 48.7316 71.3199 48.6097 71.338C48.4878 71.3561 48.3709 71.399 48.2661 71.4638C48.1613 71.5287 48.0708 71.6143 48.0002 71.7153C47.9296 71.8163 47.8804 71.9307 47.8555 72.0514C47.8292 72.1722 47.827 72.297 47.849 72.4186C47.8709 72.5402 47.9166 72.6563 47.9835 72.7603C48.0503 72.8643 48.137 72.9541 48.2385 73.0246C48.34 73.095 48.4545 73.1448 48.5752 73.1711C48.696 73.1973 48.8208 73.1995 48.9424 73.1776C49.0641 73.1556 49.1802 73.1099 49.2841 73.0431C49.3881 72.9762 49.4779 72.8896 49.5484 72.788C49.6188 72.6865 49.6686 72.5721 49.6949 72.4513C49.7221 72.3321 49.7249 72.2086 49.7031 72.0883C49.6813 71.968 49.6354 71.8533 49.5682 71.7512C49.5009 71.6491 49.4137 71.5617 49.3118 71.4942C49.2099 71.4266 49.0954 71.3804 48.9751 71.3583Z" fill="#1B2233"/>
<path d="M70.9678 26.412C71.1479 26.2484 71.2591 26.0224 71.2789 25.7799C71.2987 25.5374 71.2256 25.2965 71.0745 25.1058C70.9182 24.9159 70.6934 24.7954 70.4488 24.7704C70.2041 24.7455 69.9596 24.8181 69.7682 24.9725C69.5766 25.1334 69.4554 25.3628 69.4305 25.6118C69.4056 25.8608 69.479 26.1097 69.6349 26.3054C69.8031 26.4873 70.0336 26.5993 70.2805 26.619C70.5275 26.6388 70.7729 26.5649 70.9678 26.412Z" fill="#1B2233"/>
<path d="M67.5556 20.3866C67.6975 20.2678 67.8008 20.1094 67.8524 19.9317C67.9041 19.754 67.9017 19.5649 67.8457 19.3886C67.7896 19.2122 67.6823 19.0565 67.5375 18.9412C67.3927 18.826 67.2169 18.7564 67.0324 18.7414C66.8479 18.7263 66.6632 18.7665 66.5016 18.8567C66.34 18.9469 66.2089 19.0832 66.1249 19.2481C66.041 19.413 66.008 19.5992 66.0301 19.783C66.0523 19.9667 66.1286 20.1397 66.2493 20.28C66.3265 20.3751 66.4221 20.4537 66.5304 20.5108C66.6387 20.568 66.7576 20.6026 66.8797 20.6126C67.0017 20.6226 67.1246 20.6077 67.2407 20.5688C67.3569 20.53 67.464 20.468 67.5556 20.3866Z" fill="#1B2233"/>
<path d="M63.4505 15.5099C63.6324 15.3417 63.7444 15.1112 63.7641 14.8643C63.7839 14.6173 63.71 14.3719 63.5571 14.177C63.3981 13.9861 63.1696 13.8662 62.9222 13.8437C62.6747 13.8212 62.4284 13.8979 62.2375 14.057C62.0466 14.2161 61.9267 14.4445 61.9042 14.692C61.8817 14.9394 61.9585 15.1857 62.1176 15.3766C62.2785 15.5682 62.5079 15.6894 62.7569 15.7143C63.0059 15.7392 63.2548 15.6658 63.4505 15.5099Z" fill="#1B2233"/>
<path d="M57.9565 10.9486C58.0516 10.8715 58.1302 10.7758 58.1873 10.6675C58.2445 10.5592 58.2791 10.4404 58.2891 10.3183C58.299 10.1962 58.2841 10.0733 58.2453 9.95716C58.2065 9.84099 58.1445 9.7339 58.0631 9.64235C57.9901 9.53277 57.8948 9.43987 57.7833 9.36978C57.6718 9.29968 57.5468 9.25396 57.4164 9.23564C57.286 9.21732 57.1532 9.2268 57.0268 9.26346C56.9003 9.30012 56.783 9.36313 56.6827 9.44835C56.5823 9.53357 56.5011 9.63908 56.4444 9.75792C56.3877 9.87676 56.3568 10.0063 56.3538 10.1379C56.3507 10.2695 56.3755 10.4003 56.4266 10.5217C56.4777 10.643 56.5539 10.7522 56.6502 10.842C56.8139 11.022 57.0398 11.1332 57.2823 11.153C57.5248 11.1728 57.7658 11.0997 57.9565 10.9486Z" fill="#1B2233"/>
<path d="M51.9063 8.069C52.0023 7.98946 52.0813 7.89149 52.1388 7.78089C52.1963 7.67029 52.231 7.54929 52.241 7.42504C52.2509 7.3008 52.2358 7.17581 52.1967 7.05748C52.1575 6.93915 52.095 6.82987 52.0129 6.73608C51.8493 6.55603 51.6234 6.44486 51.3809 6.42506C51.1383 6.40526 50.8974 6.47831 50.7067 6.62944C50.6115 6.70658 50.533 6.80221 50.4758 6.91055C50.4187 7.01889 50.3841 7.13769 50.3741 7.25978C50.3641 7.38187 50.379 7.50471 50.4179 7.62088C50.4567 7.73706 50.5187 7.84416 50.6001 7.93571C50.7563 8.12556 50.9812 8.24606 51.2258 8.27102C51.4704 8.29598 51.7149 8.22338 51.9063 8.069Z" fill="#1B2233"/>
<path d="M45.6681 6.39185C45.8482 6.2282 45.9594 6.00226 45.9792 5.75976C45.999 5.51725 45.9259 5.27627 45.7748 5.08558C45.6976 4.99043 45.602 4.91191 45.4937 4.85475C45.3853 4.79758 45.2665 4.76297 45.1444 4.75301C45.0224 4.74304 44.8995 4.75792 44.7833 4.79676C44.6672 4.83559 44.5601 4.89758 44.4685 4.97896C44.3589 5.05196 44.266 5.14731 44.1959 5.25877C44.1258 5.37023 44.0801 5.49527 44.0618 5.62565C44.0435 5.75604 44.053 5.88882 44.0896 6.01528C44.1263 6.14174 44.1893 6.25901 44.2745 6.35938C44.3597 6.45975 44.4652 6.54095 44.5841 6.59763C44.7029 6.65432 44.8324 6.68521 44.964 6.68828C45.0957 6.69135 45.2265 6.66652 45.3478 6.61543C45.4692 6.56434 45.5783 6.48815 45.6681 6.39185Z" fill="#1B2233"/>
<path d="M43.9883 51.9528C43.5713 51.979 43.1553 51.8865 42.7887 51.6862C42.6592 51.5874 42.5569 51.4572 42.4916 51.3079C42.4264 51.1587 42.4001 50.9953 42.4154 50.8331V23.8281H40.6293C40.3094 25.0011 39.5363 26.0141 38.2834 26.8405C37.0304 27.667 35.4043 28.0935 33.3782 28.0935H30.3125V29.6397H37.2437V50.8331C37.2621 50.993 37.24 51.1549 37.1794 51.3039C37.1188 51.453 37.0218 51.5844 36.8971 51.6862C36.5305 51.8865 36.1145 51.979 35.6975 51.9528H30.3125V55.3117H49.3733V51.9528H43.9883Z" fill="white"/>
</svg>
