<svg width="100" height="100" viewBox="0 0 100 100" fill="none" xmlns="http://www.w3.org/2000/svg">
<path fill-rule="evenodd" clip-rule="evenodd" d="M12.7609 62.7459C12.0737 62.7808 11.4202 63.0623 10.9219 63.5415C10.388 64.0548 10.0738 64.7551 10.0454 65.4952L10.0452 65.4987C10.03 65.8709 10.0921 66.2422 10.2276 66.5892C10.3631 66.9362 10.569 67.2513 10.8324 67.5147C11.0958 67.7781 11.4109 67.984 11.7579 68.1195C12.0687 68.2408 12.3989 68.3033 12.7318 68.3041C13.3353 68.158 13.8761 67.8193 14.2713 67.3377C14.6915 66.8256 14.9212 66.1838 14.9212 65.5214C14.9212 64.859 14.6915 64.2172 14.2713 63.7052C13.8825 63.2313 13.3526 62.8957 12.7609 62.7459ZM8.84258 61.379C9.93587 60.3277 11.394 59.7411 12.9107 59.7422L13.0579 59.7423L13.2023 59.771C14.5326 60.0358 15.73 60.7535 16.5904 61.8021C17.4509 62.8506 17.9212 64.165 17.9212 65.5214C17.9212 66.8778 17.4509 68.1922 16.5904 69.2407C15.73 70.2893 14.5326 71.007 13.2023 71.2718L13.0877 71.2946L12.9708 71.2994C12.1844 71.3315 11.3999 71.2003 10.6667 70.914C9.93352 70.6277 9.26764 70.1926 8.71109 69.636C8.15453 69.0794 7.71938 68.4136 7.43309 67.6804C7.14701 66.9478 7.01577 66.1638 7.04765 65.378C7.10643 63.8631 7.74973 62.4298 8.84258 61.379Z" fill="#00007E"/>
<path fill-rule="evenodd" clip-rule="evenodd" d="M68.3297 6.31334C67.4806 5.769 66.4878 5.4917 65.4794 5.51724L65.4605 5.51772H65.4415C64.148 5.51772 62.9076 6.03153 61.993 6.94612C61.0784 7.86072 60.5646 9.10117 60.5646 10.3946V10.4136L60.5641 10.4326C60.5386 11.4409 60.8159 12.4337 61.3602 13.2828C61.9046 14.132 62.6909 14.7984 63.6178 15.1962C64.5447 15.5939 65.5695 15.7047 66.56 15.5142C67.5505 15.3237 68.4611 14.8406 69.1743 14.1274C69.8875 13.4142 70.3706 12.5036 70.5611 11.5131C70.7516 10.5227 70.6408 9.49783 70.243 8.57093C69.8453 7.64405 69.1788 6.85767 68.3297 6.31334ZM65.4225 2.51775C67.0239 2.48096 68.6 2.9231 69.9487 3.78773C71.3028 4.65577 72.3656 5.90979 72.9999 7.38788C73.6342 8.86597 73.8109 10.5003 73.5071 12.0798C73.2033 13.6593 72.433 15.1114 71.2956 16.2488C70.1583 17.3861 68.7061 18.1564 67.1266 18.4602C65.5472 18.764 63.9129 18.5873 62.4348 17.9531C60.9567 17.3188 59.7026 16.256 58.8346 14.9019C57.97 13.5531 57.5278 11.977 57.5646 10.3756C57.5696 8.29336 58.399 6.29752 59.8717 4.8248C61.3444 3.35209 63.3402 2.52277 65.4225 2.51775Z" fill="#00007E"/>
<path fill-rule="evenodd" clip-rule="evenodd" d="M90.4462 27.0943C89.9611 26.7933 89.3971 26.6442 88.8267 26.6662L88.7972 26.6673L88.7678 26.6673C88.4046 26.667 88.0451 26.7401 87.7108 26.8823C87.3766 27.0244 87.0745 27.2326 86.8228 27.4945C86.571 27.7563 86.3748 28.0663 86.2458 28.4058C86.1169 28.7454 86.0579 29.1075 86.0725 29.4704L86.0736 29.4999L86.0737 29.5293C86.0741 30.1002 86.2452 30.6579 86.5649 31.1308C86.8847 31.6038 87.3385 31.9703 87.8681 32.1834C88.3977 32.3965 88.9789 32.4464 89.5371 32.3267C90.0953 32.207 90.6049 31.9231 91.0006 31.5116C91.3963 31.1001 91.6599 30.5797 91.7577 30.0173C91.8554 29.4549 91.7827 28.876 91.5491 28.3552C91.3154 27.8343 90.9313 27.3952 90.4462 27.0943ZM88.7406 23.6673C89.8988 23.6286 91.0427 23.9339 92.0278 24.545C93.0212 25.1613 93.8076 26.0605 94.2862 27.1271C94.7647 28.1937 94.9135 29.3791 94.7134 30.5308C94.5133 31.6826 93.9734 32.7483 93.1631 33.591C92.3529 34.4336 91.3092 35.0149 90.1661 35.26C89.0231 35.5051 87.8328 35.4029 86.7483 34.9666C85.6637 34.5302 84.7344 33.7796 84.0796 32.8111C83.4304 31.8508 83.0804 30.7197 83.0738 29.5609C83.0474 28.8039 83.1723 28.0492 83.4412 27.3409C83.7137 26.6234 84.1283 25.9683 84.6603 25.4151C85.1922 24.8619 85.8305 24.4219 86.5368 24.1215C87.234 23.825 87.9832 23.6707 88.7406 23.6673Z" fill="#00007E"/>
<path fill-rule="evenodd" clip-rule="evenodd" d="M65.4936 38.9922H73.4202L75.3245 47.6482C77.2349 48.1608 79.0646 48.937 80.7608 49.9543L88.2126 45.102L93.7509 50.8811L89.0916 58.1287C90.0843 59.8241 90.819 61.6578 91.2717 63.5694L99.8945 65.4665V73.411L91.4017 75.3176C90.8925 77.2003 90.1646 79.0169 89.2329 80.7305L93.9235 88.2007L88.3725 93.7518L80.9355 89.082C79.2316 90.081 77.3877 90.8193 75.4653 91.2724L73.3969 99.8906H65.4993L63.4207 91.4031C61.5346 90.8945 59.7146 90.1666 57.998 89.2342L50.7172 93.9148L44.9381 88.3765L49.7958 80.9165C48.8047 79.2226 48.0711 77.3908 47.6189 75.4812L38.9961 73.5841V65.6576L47.6527 63.58C48.1597 61.7011 48.8844 59.8879 49.812 58.1772L44.9431 50.8738L50.7099 45.107L57.9859 49.9577C59.6913 48.9666 61.5149 48.1942 63.4136 47.659L65.4936 38.9922ZM67.8588 41.9922L65.9063 50.1276L65.0119 50.342C62.7935 50.8736 60.6795 51.7721 58.7571 53.0003L57.9321 53.5274L51.0921 48.9674L48.8035 51.2561L53.3438 58.0665L52.8627 58.8782C51.7056 60.8307 50.8577 62.9506 50.349 65.1625L50.1408 66.068L41.9961 68.0227V71.1724L50.1826 72.9734L50.3625 73.9534C50.766 76.1511 51.604 78.2461 52.8275 80.1158L53.3636 80.9351L48.8085 87.9304L51.0849 90.112L57.9175 85.7196L58.7143 86.1918C60.6668 87.3489 62.7866 88.1968 64.9985 88.7055L65.8994 88.9127L67.8532 96.8906H71.0317L72.9974 88.7004L73.9573 88.5242C76.155 88.1207 78.25 87.2827 80.1197 86.0592L80.9244 85.5327L87.9423 89.9393L90.111 87.7706L85.7291 80.7919L86.1957 80.0046C87.3528 78.0521 88.2007 75.9322 88.7094 73.7203L88.9211 72.7998L96.8945 71.0098V67.8782L88.708 66.0772L88.5281 65.0972C88.1246 62.8995 87.2866 60.8044 86.0631 58.9348L85.5304 58.1207L89.9481 51.2488L87.7665 48.9724L80.7643 53.532L79.9423 52.9851C78.0553 51.7295 75.9515 50.8354 73.7379 50.3482L72.8014 50.1421L71.0085 41.9922H67.8588ZM66.8899 56.6858C69.4121 56.1937 72.0238 56.4654 74.3907 57.4661C76.7576 58.4668 78.7721 60.151 80.1763 62.3032C81.5785 64.4524 82.3085 66.9705 82.2732 69.5362C82.2703 72.9122 80.928 76.1493 78.5406 78.5367C76.1532 80.9241 72.9161 82.2664 69.5401 82.2693C66.9744 82.3046 64.4563 81.5746 62.3071 80.1724C60.1549 78.7682 58.4707 76.7537 57.47 74.3868C56.4693 72.0199 56.1976 69.4082 56.6897 66.8859C57.1819 64.3637 58.4154 62.0457 60.2325 60.2286C62.0496 58.4115 64.3676 57.178 66.8899 56.6858ZM73.2224 60.2293C71.4055 59.4611 69.4006 59.2525 67.4644 59.6303C65.5282 60.0081 63.7488 60.955 62.3539 62.3499C60.9589 63.7449 60.012 65.5243 59.6342 67.4605C59.2564 69.3967 59.465 71.4015 60.2332 73.2185C61.0014 75.0355 62.2943 76.582 63.9464 77.6599C65.5986 78.7379 67.5348 79.2983 69.5073 79.2695L69.5182 79.2693H69.5292C72.1135 79.2693 74.5919 78.2427 76.4193 76.4154C78.2466 74.588 79.2732 72.1096 79.2732 69.5253V69.5143L79.2734 69.5034C79.3022 67.5309 78.7418 65.5947 77.6638 63.9425C76.5859 62.2904 75.0394 60.9975 73.2224 60.2293Z" fill="#00007E"/>
<path fill-rule="evenodd" clip-rule="evenodd" d="M22.6076 0H29.704L31.4507 7.33604C32.9779 7.78595 34.4542 8.39335 35.8558 9.14842L42.1532 5.12505L47.2037 10.1755L43.2019 16.6133C43.9979 18.003 44.6113 19.4895 45.0269 21.036L52.5073 22.6017V29.677L45.1777 31.5966C44.7272 33.1316 44.1176 34.6153 43.3589 36.0236L47.3823 42.3211L42.3211 47.3823L36.0236 43.3589C34.6153 44.1176 33.1316 44.7272 31.5966 45.1777L29.677 52.5073H22.6017L21.0294 44.9954C19.5142 44.547 18.0492 43.9435 16.6578 43.1945L10.1923 47.3883L5.12505 42.3211L9.1312 36.0505C8.32963 34.649 7.71373 33.1491 7.29908 31.5887L0 29.677V22.6076L7.34265 21.0342C7.7931 19.5109 8.40028 18.0384 9.15446 16.6404L5.13578 10.1755L10.1755 5.13578L16.6133 9.13765C18.0044 8.34075 19.4926 7.72687 21.0409 7.31125L22.6076 0ZM25.0329 3L23.5728 9.81363L22.6216 10.0157C20.7708 10.409 19.0068 11.1354 17.4157 12.1594L16.6178 12.6728L10.6135 8.94043L8.94043 10.6135L12.6525 16.5851L12.1886 17.3684C11.2085 19.0231 10.4724 20.8107 10.0032 22.6758L9.77544 23.581L3 25.0329V27.3615L9.82346 29.1486L10.0157 30.0535C10.409 31.9044 11.1354 33.6683 12.1594 35.2594L12.6799 36.0683L8.95116 41.9045L10.5968 43.5501L16.568 39.6769L17.3684 40.1509C19.0231 41.131 20.8107 41.8671 22.6758 42.3363L23.5858 42.5653L25.0388 49.5073H27.3615L29.139 42.7206L29.9993 42.5042C31.8644 42.0349 33.652 41.2988 35.3068 40.3187L36.101 39.8483L41.9045 43.5562L43.5562 41.9045L39.8483 36.101L40.3187 35.3068C41.2988 33.652 42.0349 31.8644 42.5042 29.9993L42.7206 29.139L49.5073 27.3615V25.0388L42.5269 23.5778L42.3238 22.6216C41.9305 20.7708 41.2041 19.0068 40.1801 17.4157L39.6667 16.6178L43.3991 10.6135L41.7367 8.95116L35.9331 12.659L35.139 12.1886C33.4842 11.2085 31.6966 10.4724 29.8315 10.0032L28.949 9.78115L27.3345 3H25.0329ZM23.9782 15.152C26.1573 14.7185 28.416 14.941 30.4687 15.7912C32.5214 16.6415 34.2758 18.0813 35.5102 19.9287C36.7421 21.7724 37.4008 23.9394 37.4034 26.1566C37.4278 27.638 37.1545 29.1093 36.5996 30.4831C36.0431 31.8611 35.2147 33.1129 34.1638 34.1638C33.1129 35.2147 31.8611 36.0431 30.4831 36.5996C29.1093 37.1545 27.638 37.4278 26.1566 37.4034C23.9394 37.4008 21.7724 36.7421 19.9287 35.5102C18.0813 34.2758 16.6415 32.5214 15.7912 30.4687C14.941 28.416 14.7185 26.1573 15.152 23.9782C15.5854 21.7991 16.6553 19.7974 18.2264 18.2264C19.7974 16.6553 21.7991 15.5854 23.9782 15.152ZM29.3206 18.5629C27.8161 17.9397 26.1606 17.7766 24.5634 18.0943C22.9663 18.412 21.4992 19.1962 20.3477 20.3477C19.1962 21.4992 18.412 22.9663 18.0943 24.5634C17.7766 26.1606 17.9397 27.8161 18.5629 29.3206C19.186 30.8251 20.2414 32.111 21.5954 33.0158C22.9494 33.9205 24.5413 34.4034 26.1698 34.4034H26.183L26.1963 34.4036C27.2794 34.4228 28.3552 34.2236 29.3597 33.8179C30.3641 33.4123 31.2765 32.8084 32.0425 32.0425C32.8084 31.2765 33.4123 30.3641 33.8179 29.3597C34.2236 28.3552 34.4228 27.2794 34.4036 26.1963L34.4034 26.183V26.1698C34.4034 24.5413 33.9205 22.9494 33.0158 21.5954C32.111 20.2414 30.8251 19.186 29.3206 18.5629Z" fill="#00007E"/>
<path d="M33.9973 93.3359H30.6641V96.6558H33.9973V93.3359Z" fill="#00007E"/>
<path d="M30.6652 96.6719H27.332V99.9917H30.6652V96.6719Z" fill="#00007E"/>
<path d="M30.6652 89.9922H27.332V93.3121H30.6652V89.9922Z" fill="#00007E"/>
<path d="M27.3293 93.3359H23.9961V96.6558H27.3293V93.3359Z" fill="#00007E"/>
<path d="M69.132 73.9869C67.8254 73.9876 66.5697 73.4803 65.6302 72.5721C64.6908 71.664 64.1412 70.4262 64.0977 69.1203C64.1397 67.7984 64.6835 66.5422 65.6187 65.607C66.5539 64.6718 67.8102 64.1279 69.132 64.0859C70.4379 64.1295 71.6757 64.6791 72.5839 65.6185C73.492 66.558 73.9993 67.8137 73.9986 69.1203C73.9986 69.7594 73.8727 70.3922 73.6281 70.9827C73.3836 71.5731 73.0251 72.1096 72.5732 72.5615C72.1213 73.0134 71.5848 73.3719 70.9944 73.6164C70.4039 73.861 69.7711 73.9869 69.132 73.9869Z" stroke="#00007E" stroke-width="3" stroke-miterlimit="10"/>
<path d="M26.1687 29.7006C25.2635 29.6575 24.4097 29.2672 23.7847 28.6109C23.1596 27.9547 22.8115 27.0828 22.8125 26.1766C22.8125 25.2864 23.1661 24.4328 23.7955 23.8033C24.4249 23.1739 25.2786 22.8203 26.1687 22.8203C27.075 22.8193 27.9469 23.1674 28.6031 23.7925C29.2594 24.4175 29.6497 25.2713 29.6928 26.1766C29.6518 27.098 29.2673 27.9707 28.6151 28.6229C27.9629 29.2752 27.0902 29.6596 26.1687 29.7006Z" stroke="#00007E" stroke-width="3" stroke-miterlimit="10"/>
</svg>
