<svg width="100" height="100" viewBox="0 0 100 100" fill="none" xmlns="http://www.w3.org/2000/svg">
<path d="M98.7842 100H1.21579C0.893335 100 0.584108 99.8719 0.3561 99.6439C0.128093 99.4159 0 99.1067 0 98.7842V1.21579C0 0.893335 0.128093 0.584108 0.3561 0.3561C0.584108 0.128093 0.893335 0 1.21579 0H98.7842C99.1067 0 99.4159 0.128093 99.6439 0.3561C99.8719 0.584108 100 0.893335 100 1.21579V98.7842C100 99.1067 99.8719 99.4159 99.6439 99.6439C99.4159 99.8719 99.1067 100 98.7842 100ZM2.1277 97.8724H97.8724V2.1277H2.1277V97.8724Z" fill="white"/>
<path d="M98.7842 100H1.21579C0.893335 100 0.584108 99.8719 0.3561 99.6439C0.128093 99.4159 0 99.1067 0 98.7842V1.21579C0 0.893335 0.128093 0.584108 0.3561 0.3561C0.584108 0.128093 0.893335 0 1.21579 0H98.7842C99.1067 0 99.4159 0.128093 99.6439 0.3561C99.8719 0.584108 100 0.893335 100 1.21579V98.7842C100 99.1067 99.8719 99.4159 99.6439 99.6439C99.4159 99.8719 99.1067 100 98.7842 100ZM2.1277 97.8724H97.8724V2.1277H2.1277V97.8724Z" fill="#00007E"/>
<path d="M98.7842 19.1511H1.21579C0.939688 19.1599 0.668922 19.0743 0.447931 18.9086C0.226941 18.7428 0.0689213 18.5067 0 18.2392C0 17.9168 0.128093 17.6075 0.3561 17.3795C0.584108 17.1515 0.893335 17.0234 1.21579 17.0234H98.7842C99.1067 17.0234 99.4159 17.1515 99.6439 17.3795C99.8719 17.6075 100 17.9168 100 18.2392C99.9311 18.5067 99.7732 18.7428 99.5522 18.9086C99.3312 19.0743 99.0603 19.1599 98.7842 19.1511Z" fill="white"/>
<path d="M98.7842 19.1511H1.21579C0.939688 19.1599 0.668922 19.0743 0.447931 18.9086C0.226941 18.7428 0.0689213 18.5067 0 18.2392C0 17.9168 0.128093 17.6075 0.3561 17.3795C0.584108 17.1515 0.893335 17.0234 1.21579 17.0234H98.7842C99.1067 17.0234 99.4159 17.1515 99.6439 17.3795C99.8719 17.6075 100 17.9168 100 18.2392C99.9311 18.5067 99.7732 18.7428 99.5522 18.9086C99.3312 19.0743 99.0603 19.1599 98.7842 19.1511Z" fill="#00007E"/>
<path d="M31.0048 19.149C30.7288 19.1577 30.4579 19.0722 30.2369 18.9064C30.0159 18.7407 29.858 18.5046 29.7891 18.2371V1.21579C29.7891 0.893335 29.9172 0.584108 30.1452 0.3561C30.3732 0.128093 30.6824 0 31.0048 0C31.2724 0.0689213 31.5084 0.226941 31.6741 0.447931C31.8398 0.668922 31.9254 0.939688 31.9167 1.21579V18.2371C31.9167 18.4789 31.8206 18.7108 31.6496 18.8819C31.4786 19.0529 31.2467 19.149 31.0048 19.149Z" fill="white"/>
<path d="M31.0048 19.149C30.7288 19.1577 30.4579 19.0722 30.2369 18.9064C30.0159 18.7407 29.858 18.5046 29.7891 18.2371V1.21579C29.7891 0.893335 29.9172 0.584108 30.1452 0.3561C30.3732 0.128093 30.6824 0 31.0048 0C31.2724 0.0689213 31.5084 0.226941 31.6741 0.447931C31.8398 0.668922 31.9254 0.939688 31.9167 1.21579V18.2371C31.9167 18.4789 31.8206 18.7108 31.6496 18.8819C31.4786 19.0529 31.2467 19.149 31.0048 19.149Z" fill="#00007E"/>
<path d="M98.7841 10.6276H54.4072C53.7993 10.6276 53.1914 10.3237 53.1914 9.71579C53.1914 9.39334 53.3195 9.08411 53.5475 8.8561C53.7755 8.62809 54.0847 8.5 54.4072 8.5H98.7841C99.1066 8.5 99.4158 8.62809 99.6438 8.8561C99.8718 9.08411 99.9999 9.39334 99.9999 9.71579C99.9999 10.3237 99.392 10.6276 98.7841 10.6276Z" fill="white"/>
<path d="M98.7841 10.6276H54.4072C53.7993 10.6276 53.1914 10.3237 53.1914 9.71579C53.1914 9.39334 53.3195 9.08411 53.5475 8.8561C53.7755 8.62809 54.0847 8.5 54.4072 8.5H98.7841C99.1066 8.5 99.4158 8.62809 99.6438 8.8561C99.8718 9.08411 99.9999 9.39334 99.9999 9.71579C99.9999 10.3237 99.392 10.6276 98.7841 10.6276Z" fill="#00007E"/>
<path d="M2.43205 71.4361C2.3123 71.4361 2.19372 71.4125 2.08309 71.3667C1.97246 71.3209 1.87187 71.2537 1.78719 71.169C1.70252 71.0844 1.63535 70.9839 1.58952 70.8732C1.5437 70.7626 1.52014 70.644 1.52014 70.5243C1.5114 70.2482 1.59696 69.9773 1.7627 69.7563C1.92845 69.5353 2.16455 69.3774 2.43205 69.3085C3.91649 69.5659 5.43921 69.4956 6.89365 69.1026C8.34808 68.7096 9.699 68.0034 10.8517 67.0333C12.0045 66.0633 12.9312 64.8529 13.567 63.487C14.2027 62.1211 14.5321 60.6327 14.5321 59.1261C14.5321 57.6195 14.2027 56.1311 13.567 54.7652C12.9312 53.3994 12.0045 52.1889 10.8517 51.2189C9.699 50.2488 8.34808 49.5426 6.89365 49.1495C5.43921 48.7565 3.91649 48.6863 2.43205 48.9437C2.16455 48.8748 1.92845 48.7169 1.7627 48.4959C1.59696 48.2749 1.5114 48.004 1.52014 47.7279C1.52014 47.6082 1.5437 47.4896 1.58952 47.379C1.63535 47.2683 1.70252 47.1678 1.78719 47.0832C1.87187 46.9985 1.97246 46.9313 2.08309 46.8855C2.19372 46.8397 2.3123 46.816 2.43205 46.816C4.21072 46.5357 6.02894 46.6442 7.76168 47.1339C9.49443 47.6236 11.1005 48.483 12.4693 49.6529C13.838 50.8229 14.9371 52.2755 15.6906 53.9108C16.4441 55.5462 16.8343 57.3255 16.8343 59.1261C16.8343 60.9267 16.4441 62.7059 15.6906 64.3413C14.9371 65.9766 13.838 67.4293 12.4693 68.5993C11.1005 69.7692 9.49443 70.6286 7.76168 71.1183C6.02894 71.608 4.21072 71.7165 2.43205 71.4361Z" fill="white"/>
<path d="M2.43205 71.4361C2.3123 71.4361 2.19372 71.4125 2.08309 71.3667C1.97246 71.3209 1.87187 71.2537 1.78719 71.169C1.70252 71.0844 1.63535 70.9839 1.58952 70.8732C1.5437 70.7626 1.52014 70.644 1.52014 70.5243C1.5114 70.2482 1.59696 69.9773 1.7627 69.7563C1.92845 69.5353 2.16455 69.3774 2.43205 69.3085C3.91649 69.5659 5.43921 69.4956 6.89365 69.1026C8.34808 68.7096 9.699 68.0034 10.8517 67.0333C12.0045 66.0633 12.9312 64.8529 13.567 63.487C14.2027 62.1211 14.5321 60.6327 14.5321 59.1261C14.5321 57.6195 14.2027 56.1311 13.567 54.7652C12.9312 53.3994 12.0045 52.1889 10.8517 51.2189C9.699 50.2488 8.34808 49.5426 6.89365 49.1495C5.43921 48.7565 3.91649 48.6863 2.43205 48.9437C2.16455 48.8748 1.92845 48.7169 1.7627 48.4959C1.59696 48.2749 1.5114 48.004 1.52014 47.7279C1.52014 47.6082 1.5437 47.4896 1.58952 47.379C1.63535 47.2683 1.70252 47.1678 1.78719 47.0832C1.87187 46.9985 1.97246 46.9313 2.08309 46.8855C2.19372 46.8397 2.3123 46.816 2.43205 46.816C4.21072 46.5357 6.02894 46.6442 7.76168 47.1339C9.49443 47.6236 11.1005 48.483 12.4693 49.6529C13.838 50.8229 14.9371 52.2755 15.6906 53.9108C16.4441 55.5462 16.8343 57.3255 16.8343 59.1261C16.8343 60.9267 16.4441 62.7059 15.6906 64.3413C14.9371 65.9766 13.838 67.4293 12.4693 68.5993C11.1005 69.7692 9.49443 70.6286 7.76168 71.1183C6.02894 71.608 4.21072 71.7165 2.43205 71.4361Z" fill="#00007E"/>
<path d="M6.99094 91.476H1.21579C0.893335 91.476 0.584108 91.3479 0.3561 91.1199C0.128093 90.8919 0 90.5827 0 90.2602C0.0689213 89.9927 0.226941 89.7566 0.447931 89.5909C0.668922 89.4251 0.939688 89.3396 1.21579 89.3483H6.383L7.90276 81.1417L8.81457 80.5337C11.3154 79.9696 13.6873 78.9384 15.8055 77.4942H17.0213L24.0121 82.0535L27.0517 79.014L22.4924 72.0231C22.3429 71.8559 22.2602 71.6395 22.2602 71.4152C22.2602 71.1909 22.3429 70.9745 22.4924 70.8073C23.9745 68.7425 24.9151 66.3388 25.228 63.8164L26.1398 63.2085L34.3466 61.3848V57.1295L26.1398 55.3058L25.228 54.3939C24.9151 51.8715 23.9745 49.4679 22.4924 47.403C22.1884 47.0991 22.1884 46.7952 22.4924 46.1872L27.0517 39.1963L24.0121 36.1568L17.0213 40.7161H15.8055C13.6715 39.3658 11.2983 38.4372 8.81457 37.9805L7.90276 37.0687L6.383 28.862H1.21579C0.607884 28.862 0 28.5581 0 27.9502C0 27.6277 0.128093 27.3185 0.3561 27.0905C0.584108 26.8625 0.893335 26.7344 1.21579 26.7344H6.99094C7.59884 26.7344 7.90277 27.0383 8.20673 27.6462L10.0305 35.8529C12.2604 36.5047 14.4035 37.4231 16.4134 38.5885L23.4043 34.0292C23.6199 33.8565 23.8879 33.7624 24.1642 33.7624C24.4404 33.7624 24.7084 33.8565 24.9241 34.0292L29.1794 38.2845C29.3127 38.5155 29.383 38.7776 29.383 39.0444C29.383 39.3111 29.3127 39.5732 29.1794 39.8042L24.6201 46.7951C25.7854 48.805 26.7039 50.9481 27.3556 53.1781L35.5624 55.0018C36.1703 55.3058 36.4742 55.6097 36.4742 56.2176V61.9927C36.4742 62.6006 36.1703 63.2085 35.5624 63.2085L27.3556 65.0322C26.7039 67.2621 25.7854 69.4053 24.6201 71.4152L29.1794 78.71C29.3289 78.8772 29.4115 79.0936 29.4115 79.3179C29.4115 79.5422 29.3289 79.7587 29.1794 79.9259L24.9241 84.1812H23.4043L16.4134 79.6219C14.4035 80.7872 12.2604 81.7057 10.0305 82.3574L8.20673 90.5642C7.90277 91.1721 7.59884 91.476 6.99094 91.476Z" fill="white"/>
<path d="M6.99094 91.476H1.21579C0.893335 91.476 0.584108 91.3479 0.3561 91.1199C0.128093 90.8919 0 90.5827 0 90.2602C0.0689213 89.9927 0.226941 89.7566 0.447931 89.5909C0.668922 89.4251 0.939688 89.3396 1.21579 89.3483H6.383L7.90276 81.1417L8.81457 80.5337C11.3154 79.9696 13.6873 78.9384 15.8055 77.4942H17.0213L24.0121 82.0535L27.0517 79.014L22.4924 72.0231C22.3429 71.8559 22.2602 71.6395 22.2602 71.4152C22.2602 71.1909 22.3429 70.9745 22.4924 70.8073C23.9745 68.7425 24.9151 66.3388 25.228 63.8164L26.1398 63.2085L34.3466 61.3848V57.1295L26.1398 55.3058L25.228 54.3939C24.9151 51.8715 23.9745 49.4679 22.4924 47.403C22.1884 47.0991 22.1884 46.7952 22.4924 46.1872L27.0517 39.1963L24.0121 36.1568L17.0213 40.7161H15.8055C13.6715 39.3658 11.2983 38.4372 8.81457 37.9805L7.90276 37.0687L6.383 28.862H1.21579C0.607884 28.862 0 28.5581 0 27.9502C0 27.6277 0.128093 27.3185 0.3561 27.0905C0.584108 26.8625 0.893335 26.7344 1.21579 26.7344H6.99094C7.59884 26.7344 7.90277 27.0383 8.20673 27.6462L10.0305 35.8529C12.2604 36.5047 14.4035 37.4231 16.4134 38.5885L23.4043 34.0292C23.6199 33.8565 23.8879 33.7624 24.1642 33.7624C24.4404 33.7624 24.7084 33.8565 24.9241 34.0292L29.1794 38.2845C29.3127 38.5155 29.383 38.7776 29.383 39.0444C29.383 39.3111 29.3127 39.5732 29.1794 39.8042L24.6201 46.7951C25.7854 48.805 26.7039 50.9481 27.3556 53.1781L35.5624 55.0018C36.1703 55.3058 36.4742 55.6097 36.4742 56.2176V61.9927C36.4742 62.6006 36.1703 63.2085 35.5624 63.2085L27.3556 65.0322C26.7039 67.2621 25.7854 69.4053 24.6201 71.4152L29.1794 78.71C29.3289 78.8772 29.4115 79.0936 29.4115 79.3179C29.4115 79.5422 29.3289 79.7587 29.1794 79.9259L24.9241 84.1812H23.4043L16.4134 79.6219C14.4035 80.7872 12.2604 81.7057 10.0305 82.3574L8.20673 90.5642C7.90277 91.1721 7.59884 91.476 6.99094 91.476Z" fill="#00007E"/>
<path d="M90.2737 91.4854H48.0245C47.702 91.4854 47.3927 91.3573 47.1647 91.1293C46.9367 90.9012 46.8086 90.592 46.8086 90.2696V79.6313C46.8775 79.3638 47.0355 79.1277 47.2565 78.9619C47.4775 78.7962 47.7484 78.7106 48.0245 78.7194H90.2737C90.5498 78.7106 90.8207 78.7962 91.0417 78.9619C91.2626 79.1277 91.4206 79.3638 91.4895 79.6313V90.2696C91.4895 90.592 91.3614 90.9012 91.1334 91.1293C90.9054 91.3573 90.5962 91.4854 90.2737 91.4854ZM48.9363 89.3577H89.3618V80.8471H48.9363V89.3577Z" fill="white"/>
<path d="M90.2737 91.4854H48.0245C47.702 91.4854 47.3927 91.3573 47.1647 91.1293C46.9367 90.9012 46.8086 90.592 46.8086 90.2696V79.6313C46.8775 79.3638 47.0355 79.1277 47.2565 78.9619C47.4775 78.7962 47.7484 78.7106 48.0245 78.7194H90.2737C90.5498 78.7106 90.8207 78.7962 91.0417 78.9619C91.2626 79.1277 91.4206 79.3638 91.4895 79.6313V90.2696C91.4895 90.592 91.3614 90.9012 91.1334 91.1293C90.9054 91.3573 90.5962 91.4854 90.2737 91.4854ZM48.9363 89.3577H89.3618V80.8471H48.9363V89.3577Z" fill="#00007E"/>
<path d="M90.2737 72.3441H48.0245C47.702 72.3441 47.3927 72.216 47.1647 71.988C46.9367 71.76 46.8086 71.4507 46.8086 71.1282V60.7939C46.8086 60.4715 46.9367 60.1622 47.1647 59.9342C47.3927 59.7062 47.702 59.5781 48.0245 59.5781H90.2737C90.5962 59.5781 90.9054 59.7062 91.1334 59.9342C91.3614 60.1622 91.4895 60.4715 91.4895 60.7939V71.1282C91.4895 71.4507 91.3614 71.76 91.1334 71.988C90.9054 72.216 90.5962 72.3441 90.2737 72.3441ZM48.9363 70.2164H89.3618V61.7058H48.9363V70.2164Z" fill="white"/>
<path d="M90.2737 72.3441H48.0245C47.702 72.3441 47.3927 72.216 47.1647 71.988C46.9367 71.76 46.8086 71.4507 46.8086 71.1282V60.7939C46.8086 60.4715 46.9367 60.1622 47.1647 59.9342C47.3927 59.7062 47.702 59.5781 48.0245 59.5781H90.2737C90.5962 59.5781 90.9054 59.7062 91.1334 59.9342C91.3614 60.1622 91.4895 60.4715 91.4895 60.7939V71.1282C91.4895 71.4507 91.3614 71.76 91.1334 71.988C90.9054 72.216 90.5962 72.3441 90.2737 72.3441ZM48.9363 70.2164H89.3618V61.7058H48.9363V70.2164Z" fill="#00007E"/>
<path d="M90.2737 53.18H48.0245C47.7484 53.1887 47.4775 53.1031 47.2565 52.9374C47.0355 52.7717 46.8775 52.5357 46.8086 52.2681V41.6298C46.8086 41.3074 46.9367 40.9982 47.1647 40.7702C47.3927 40.5422 47.702 40.4141 48.0245 40.4141H90.2737C90.5962 40.4141 90.9054 40.5422 91.1334 40.7702C91.3614 40.9982 91.4895 41.3074 91.4895 41.6298V52.2681C91.4206 52.5357 91.2626 52.7717 91.0417 52.9374C90.8207 53.1031 90.5498 53.1887 90.2737 53.18ZM48.9363 51.0524H89.3618V42.5417H48.9363V51.0524Z" fill="white"/>
<path d="M90.2737 53.18H48.0245C47.7484 53.1887 47.4775 53.1031 47.2565 52.9374C47.0355 52.7717 46.8775 52.5357 46.8086 52.2681V41.6298C46.8086 41.3074 46.9367 40.9982 47.1647 40.7702C47.3927 40.5422 47.702 40.4141 48.0245 40.4141H90.2737C90.5962 40.4141 90.9054 40.5422 91.1334 40.7702C91.3614 40.9982 91.4895 41.3074 91.4895 41.6298V52.2681C91.4206 52.5357 91.2626 52.7717 91.0417 52.9374C90.8207 53.1031 90.5498 53.1887 90.2737 53.18ZM48.9363 51.0524H89.3618V42.5417H48.9363V51.0524Z" fill="#00007E"/>
<path d="M98.7832 29.7918H39.5127C39.2366 29.8005 38.9657 29.7149 38.7447 29.5492C38.5237 29.3835 38.3658 29.1474 38.2969 28.8798C38.2969 28.5574 38.425 28.2482 38.653 28.0202C38.881 27.7922 39.1902 27.6641 39.5127 27.6641H98.7832C99.1056 27.6641 99.4149 27.7922 99.6429 28.0202C99.8709 28.2482 99.999 28.5574 99.999 28.8798C99.9301 29.1474 99.7721 29.3835 99.5511 29.5492C99.3302 29.7149 99.0593 29.8005 98.7832 29.7918Z" fill="white"/>
<path d="M98.7832 29.7918H39.5127C39.2366 29.8005 38.9657 29.7149 38.7447 29.5492C38.5237 29.3835 38.3658 29.1474 38.2969 28.8798C38.2969 28.5574 38.425 28.2482 38.653 28.0202C38.881 27.7922 39.1902 27.6641 39.5127 27.6641H98.7832C99.1056 27.6641 99.4149 27.7922 99.6429 28.0202C99.8709 28.2482 99.999 28.5574 99.999 28.8798C99.9301 29.1474 99.7721 29.3835 99.5511 29.5492C99.3302 29.7149 99.0593 29.8005 98.7832 29.7918Z" fill="#00007E"/>
<path d="M11.853 7.60156H7.59766V11.8569H11.853V7.60156Z" fill="white"/>
<path d="M11.853 7.60156H7.59766V11.8569H11.853V7.60156Z" fill="#00007E"/>
<path d="M18.2358 7.60156H13.9805V11.8569H18.2358V7.60156Z" fill="white"/>
<path d="M18.2358 7.60156H13.9805V11.8569H18.2358V7.60156Z" fill="#00007E"/>
<path d="M24.6186 7.60156H20.3633V11.8569H24.6186V7.60156Z" fill="white"/>
<path d="M24.6186 7.60156H20.3633V11.8569H24.6186V7.60156Z" fill="#00007E"/>
<path d="M58.6655 33.125H54.4102V37.3803H58.6655V33.125Z" fill="white"/>
<path d="M58.6655 33.125H54.4102V37.3803H58.6655V33.125Z" fill="#00007E"/>
<path d="M67.1694 33.125H62.9141V37.3803H67.1694V33.125Z" fill="white"/>
<path d="M67.1694 33.125H62.9141V37.3803H67.1694V33.125Z" fill="#00007E"/>
<path d="M75.685 33.125H71.4297V37.3803H75.685V33.125Z" fill="white"/>
<path d="M75.685 33.125H71.4297V37.3803H75.685V33.125Z" fill="#00007E"/>
<path d="M84.1967 33.125H79.9414V37.3803H84.1967V33.125Z" fill="white"/>
<path d="M84.1967 33.125H79.9414V37.3803H84.1967V33.125Z" fill="#00007E"/>
</svg>
