<svg width="80" height="80" viewBox="0 0 80 80" fill="none" xmlns="http://www.w3.org/2000/svg">
<path d="M33.2806 10.8418C34.7026 10.8023 35.9073 11.3553 36.9146 12.323C37.9218 13.2908 38.5933 13.9228 39.3636 14.772C39.8376 15.2855 40.1536 15.2657 40.6276 14.772C42.3063 13.113 43.8468 11.296 45.644 9.75553C48.7645 7.04979 53.4847 8.53103 54.4327 12.56C54.6105 13.3105 54.887 13.6463 55.6572 13.8438C57.8692 14.377 59.2715 15.799 59.7455 18.0307C59.9035 18.6825 60.1997 18.9392 60.8317 19.0775C63.0832 19.6107 64.5447 21.013 65.0384 23.2842C65.1964 23.9557 65.4927 24.2322 66.1839 24.3902C70.3709 25.3777 71.8521 30.3152 68.9292 33.4752C68.2577 34.2059 67.5664 34.8971 66.8357 35.5686C66.1049 36.2401 66.2827 36.3784 66.5394 36.9511C67.4084 38.9656 68.0009 41.0394 67.9812 43.2514C67.9812 43.8241 68.3564 44.1401 68.7119 44.4956L78.9621 54.7655C80.1076 55.8913 80.3051 56.8788 79.5151 57.649C78.7251 58.4193 77.6981 58.2415 76.5921 57.1355C75.4861 56.0295 73.8271 54.4101 72.5039 53.0078C71.9706 52.4548 71.5954 52.4746 71.1609 53.0276C70.9295 53.3084 70.6715 53.5664 70.3907 53.7978C69.6402 54.4298 68.7712 54.4101 68.1589 53.7978C67.5467 53.1856 67.4677 52.2771 68.0799 51.4871C68.6922 50.6971 69.4427 50.6576 69.2452 49.9268C69.0477 49.1961 68.4157 48.9591 67.9417 48.4851C66.2037 46.7471 66.2037 46.7471 64.4262 48.5048C61.0292 51.9018 57.652 55.3185 54.2155 58.6958C53.6427 59.2685 53.5637 59.6438 54.2155 60.1968C54.8584 60.7575 55.4591 61.3648 56.0127 62.0138C56.6052 62.6853 57.0792 62.626 57.6125 61.9743C57.8461 61.6946 58.1112 61.4427 58.4025 61.2238C59.1135 60.6905 59.8245 60.73 60.4565 61.3423C61.0885 61.9545 61.1872 62.6655 60.7132 63.3963C60.4963 63.6891 60.2516 63.9603 59.9825 64.206C59.0937 65.1145 59.1135 65.0947 60.0417 66.023C63.702 69.657 67.3492 73.3107 70.9831 76.9842C71.8719 77.8729 71.9311 78.7419 71.2202 79.4924C70.5092 80.2429 69.5612 80.1639 68.6329 79.2357C65.5914 76.2205 62.5631 73.1922 59.548 70.1507C55.9732 66.576 52.3787 63.0013 48.804 59.387C48.3103 58.8933 47.8165 58.6168 47.066 58.7155C44.3405 58.992 41.852 58.281 39.5611 56.8393C38.5538 56.227 37.5466 55.5753 36.5986 54.8643C35.6506 54.1533 35.3741 54.3903 34.7816 54.963C33.1226 56.6023 31.4241 58.2218 29.7849 59.861L10.7262 78.9197L10.2324 79.4134C9.44245 80.1047 8.51421 80.1047 7.84271 79.4134C7.17121 78.7222 7.19096 77.7939 7.92171 77.0434C8.31671 76.6089 8.79071 76.2337 9.20545 75.7992C12.6024 72.3627 15.9599 68.8867 19.4162 65.5095C21.2726 63.6925 23.0896 61.836 24.9856 60.0585C25.5781 59.5055 25.4991 59.1698 24.9659 58.6365C21.8059 55.516 18.6657 52.3758 15.5452 49.2158C14.8737 48.5048 14.4589 48.4653 13.7479 49.1961C10.2719 52.7313 6.73671 56.227 3.22123 59.7425C2.95087 60.08 2.60615 60.3504 2.21399 60.5325C1.46349 60.809 0.851245 60.572 0.377247 59.9795C-0.0967508 59.387 -0.116502 58.6365 0.357496 57.965C0.831493 57.2935 1.99674 56.2665 2.82623 55.4173C6.53922 51.6846 10.2719 47.9913 14.0047 44.2784L17.3029 41.0196C17.7769 40.5654 17.7967 40.1506 17.3029 39.6964C16.8092 39.2421 16.2957 38.7286 15.8217 38.2349C13.2937 35.5094 13.8664 31.5002 17.0857 29.6437C17.5794 29.3474 17.6782 29.0907 17.5399 28.5574C16.5722 25.1604 18.1719 22.3757 21.6084 21.487C22.1811 21.329 22.4576 21.092 22.5959 20.4797C23.1291 18.169 24.5906 16.7272 26.9014 16.2335C27.5136 16.0952 27.7704 15.8977 27.8889 15.2657C28.4024 12.56 30.5551 10.822 33.2806 10.8418ZM61.8192 24.3902C61.8389 23.4225 61.3057 22.8892 60.5947 22.5337C59.8837 22.1782 59.074 22.3165 58.4025 22.8892C56.6052 24.4495 55.0055 26.1874 53.307 27.8464C52.8527 28.3007 52.3985 28.7154 51.6875 28.5772C51.3935 28.537 51.1156 28.4187 50.8829 28.2346C50.6501 28.0505 50.471 27.8073 50.3643 27.5304C50.0878 26.8194 50.3248 26.2269 50.8185 25.7134C52.4182 24.1137 54.0377 22.514 55.6177 20.8945C56.704 19.7885 56.783 18.564 55.8942 17.6555C55.0055 16.747 53.8402 16.826 52.6947 17.9517C51.5492 19.0775 50.621 20.065 49.5348 21.0722C49.2412 21.3703 48.8414 21.5398 48.423 21.5435C48.0046 21.5472 47.6018 21.3848 47.303 21.092C47.013 20.7969 46.8378 20.4081 46.8088 19.9954C46.7799 19.5827 46.8991 19.1732 47.145 18.8405C47.3405 18.5783 47.5586 18.3338 47.7968 18.1097C48.725 17.1815 49.6928 16.273 50.5815 15.3052C51.4702 14.3375 51.4702 12.955 50.2853 12.086C49.4558 11.4738 48.4485 11.5923 47.54 12.5008C46.039 13.9623 44.5775 15.483 43.0568 16.9445C42.5235 17.458 42.5038 17.8332 42.9778 18.4257C45.565 21.6845 43.985 26.1479 39.9166 27.0564C39.2451 27.2144 38.9291 27.5107 38.7711 28.1822C38.2378 30.4929 36.7961 31.9149 34.4853 32.4482C34.0508 32.5469 33.6953 32.6654 33.5966 33.1987C33.1028 35.7464 31.5426 37.2474 29.0146 37.7411C28.5406 37.8201 28.3431 38.0176 28.2641 38.4916C28.1717 39.2633 27.9028 40.0032 27.478 40.654C27.0533 41.3048 26.4843 41.8489 25.8151 42.2441C25.1634 42.6589 25.2424 42.9551 25.7361 43.4291C28.2641 45.9439 30.7789 48.4587 33.2806 50.9736C33.7151 51.4278 34.0903 51.4673 34.6433 51.1908C35.7774 50.6484 37.0202 50.3714 38.2773 50.3811C44.4788 50.3613 49.6533 47.9913 53.9982 43.6661L62.8067 34.8774L66.1444 31.5199C66.7172 30.9472 67.2109 30.2954 67.0727 29.4264C66.9344 28.5574 66.6184 28.0242 65.8482 27.7674C65.0779 27.5107 64.1694 27.6094 63.4782 28.3007C61.7994 29.9794 60.1405 31.6779 58.442 33.3369C57.6717 34.0874 56.7435 34.1072 56.072 33.4554C55.4005 32.8037 55.3412 31.7964 56.072 30.9867C56.2197 30.8126 56.378 30.6477 56.546 30.4929L61.0292 26.0294C61.5032 25.5554 61.8784 25.0222 61.8192 24.3902ZM40.8843 53.6201C41.7501 54.3112 42.7506 54.814 43.8219 55.0963C44.8932 55.3785 46.0116 55.4341 47.1055 55.2593C48.5868 55.042 49.6533 55.3778 50.542 56.5233C50.9172 56.9775 51.2332 56.9578 51.6677 56.5233C55.7889 52.3758 59.9232 48.2415 64.0707 44.1204C64.234 43.981 64.366 43.8086 64.4579 43.6146C64.5498 43.4206 64.5995 43.2093 64.6039 42.9946C64.5584 41.7763 64.3321 40.5716 63.9324 39.4199C63.7547 38.9459 63.5177 38.7681 63.0832 39.2026C61.7599 40.5654 60.3972 41.9084 59.0937 43.2909C56.5065 46.0163 53.86 48.6628 50.5223 50.4996C47.5391 52.1475 44.2672 53.2068 40.8843 53.6201ZM31.1081 53.7978C31.0954 53.6737 31.0573 53.5535 30.9961 53.4448C30.935 53.3361 30.8521 53.2411 30.7526 53.1658L20.7789 43.1921C20.4037 42.8169 20.1469 42.8169 19.7914 43.1921C19.0409 43.9624 18.2707 44.7326 17.4807 45.4831C17.1054 45.8583 17.1844 46.1348 17.5202 46.4706C20.8381 49.7622 24.1364 53.0605 27.4149 56.3653C27.7901 56.7405 28.0864 56.8195 28.4814 56.4048C29.2319 55.6543 30.0219 54.963 30.7723 54.2323C30.8918 54.0934 31.0039 53.9484 31.1081 53.7978ZM25.8941 21.4475C25.8695 21.7289 25.9062 22.0124 26.0017 22.2784C26.0971 22.5443 26.2491 22.7864 26.4471 22.988C28.3234 24.8445 30.1601 26.7207 32.0561 28.5574C32.9646 29.4264 34.0706 29.4067 34.8803 28.6364C35.6901 27.8662 35.8678 26.6219 34.9988 25.7134C33.1423 23.7582 31.2266 21.8425 29.2714 19.986C28.6394 19.3737 27.7704 19.2947 26.9606 19.7095C26.1509 20.1242 25.8546 20.618 25.8941 21.4475ZM30.2391 32.3099C30.2984 31.7372 29.9231 31.2039 29.4491 30.7299C27.7506 29.0314 26.0521 27.3132 24.3536 25.6344C24.0949 25.3788 23.8025 25.1595 23.4846 24.9827C22.6156 24.5284 21.8059 24.726 21.1541 25.4172C20.5024 26.1084 20.3839 26.9379 20.8381 27.7674C21.0757 28.1683 21.3682 28.5339 21.7071 28.8537C23.1686 30.3547 24.6696 31.8359 26.1706 33.3172C26.4927 33.6425 26.8582 33.9216 27.2569 34.1467C28.6394 34.8972 30.1996 33.9887 30.2391 32.3099ZM33.2806 14.2388C32.3721 14.219 31.7203 14.5745 31.4043 15.3447C31.0883 16.115 31.0883 16.9247 31.7006 17.5567C33.5373 19.4725 35.3938 21.3882 37.2898 23.2447C38.2181 24.1335 39.4821 24.0742 40.2918 23.225C41.1015 22.3757 41.062 21.2302 40.1536 20.302L34.8013 14.93C34.3471 14.4757 33.8533 14.1993 33.2806 14.2388ZM19.5939 32.4087C18.7842 32.3889 18.1719 32.7247 17.8164 33.4357C17.4609 34.1467 17.4609 35.0156 18.0534 35.6674C19.2121 36.9182 20.4168 38.123 21.6676 39.2816C22.2996 39.8741 23.1291 39.8741 23.8796 39.5186C24.2166 39.3727 24.5021 39.1291 24.6992 38.8193C24.8964 38.5095 24.9961 38.1477 24.9856 37.7806C24.9919 37.4665 24.9319 37.1546 24.8094 36.8654C24.6868 36.5761 24.5046 36.3159 24.2746 36.1019C23.2871 35.0749 22.2996 34.0874 21.2726 33.0999C21.0576 32.8725 20.7968 32.6933 20.5075 32.5741C20.2181 32.455 19.9067 32.3986 19.5939 32.4087Z" fill="white"/>
<path d="M68.2154 13.2911C67.8966 13.3139 67.5792 13.2317 67.3117 13.0569C67.0441 12.8821 66.8413 12.6244 66.7341 12.3234C66.5893 12.0243 66.5437 11.6867 66.6041 11.3598C66.6645 11.033 66.8277 10.734 67.0699 10.5064L71.8296 5.78617C72.6788 4.95667 73.5083 4.10743 74.3773 3.31743C75.2463 2.52743 76.1943 2.58668 76.8263 3.27793C77.4583 3.96917 77.3991 4.89742 76.6288 5.66767C74.2786 8.0574 71.8888 10.4076 69.5386 12.7776C69.3706 12.9569 69.1645 13.0961 68.9354 13.185C68.7064 13.2739 68.4603 13.3102 68.2154 13.2911Z" fill="white"/>
<path d="M13.2896 11.6712C13.2501 13.0339 11.9861 13.7251 10.8011 13.0537C10.4091 12.8202 10.0559 12.527 9.75436 12.1847C7.62137 10.0385 5.50813 7.88576 3.41464 5.72644C2.6049 4.91669 2.5259 3.94895 3.15789 3.27745C3.78989 2.60595 4.85639 2.56645 5.68588 3.39595L12.7168 10.4072C12.8969 10.5648 13.0412 10.7592 13.1399 10.9772C13.2387 11.1952 13.2897 11.4318 13.2896 11.6712Z" fill="white"/>
<path d="M20.7598 4.36473C20.7598 5.21397 20.7795 6.06322 20.74 6.93221C20.7005 7.80121 19.9698 8.6702 19.1008 8.68995C18.6502 8.67458 18.2232 8.48471 17.91 8.16043C17.5968 7.83614 17.4218 7.40282 17.4221 6.95196C17.3826 5.21397 17.3826 3.45623 17.4418 1.71824C17.4616 0.631996 18.1331 0 19.0811 0C20.029 0 20.7203 0.671495 20.7598 1.79724C20.7993 2.92298 20.7598 3.49573 20.7598 4.36473Z" fill="white"/>
<path d="M4.20892 20.7596C3.35968 20.7596 2.51043 20.7991 1.66119 20.7596C0.811942 20.7201 0.0416952 20.0881 0.00219544 19.1599C-0.0373044 18.2316 0.456444 17.5996 1.46369 17.5009C3.36256 17.333 5.27254 17.333 7.17141 17.5009C7.58706 17.5214 7.97784 17.705 8.25887 18.012C8.53991 18.3189 8.68851 18.7243 8.6724 19.1401C8.64259 19.5716 8.45116 19.976 8.13632 20.2725C7.82148 20.569 7.40639 20.7359 6.97391 20.7399C6.06542 20.7991 5.13717 20.7596 4.20892 20.7596Z" fill="white"/>
<path d="M75.5677 20.7646C74.758 20.7646 73.9285 20.7843 73.1187 20.7646C72.0127 20.7251 71.361 20.1326 71.3215 19.2043C71.3052 18.7708 71.4595 18.3481 71.7511 18.0269C72.0428 17.7057 72.4486 17.5116 72.8817 17.4861C74.7419 17.338 76.6108 17.338 78.4709 17.4861C78.8883 17.5116 79.2791 17.6995 79.5597 18.0095C79.8402 18.3196 79.9882 18.7272 79.9719 19.1451C79.9522 20.0338 79.3202 20.6856 78.3129 20.7448C77.3057 20.804 76.4762 20.7646 75.5677 20.7646Z" fill="white"/>
<path d="M62.4754 4.30548C62.4754 5.19422 62.4952 6.08297 62.4754 6.97171C62.4557 7.86046 61.7644 8.7097 60.8559 8.68995C59.9474 8.6702 59.2759 8.01846 59.2562 6.93221C59.2167 5.19422 59.2167 3.45623 59.2562 1.71824C59.2759 0.671496 59.9474 0 60.8757 0C61.8039 0 62.4359 0.691245 62.4754 1.75774V4.30548Z" fill="white"/>
<path d="M64.2875 55.9083C64.5003 55.8976 64.7131 55.9291 64.9137 56.0008C65.1143 56.0725 65.2988 56.1831 65.4566 56.3262C65.6144 56.4693 65.7424 56.6422 65.8333 56.8349C65.9242 57.0275 65.9762 57.2362 65.9863 57.449C65.9919 57.8949 65.824 58.3254 65.5181 58.6498C65.2122 58.9741 64.7922 59.1669 64.3468 59.1873C63.9183 59.1828 63.5077 59.0145 63.1992 58.717C62.8907 58.4196 62.7076 58.0154 62.6875 57.5873C62.6964 57.1582 62.8655 56.7479 63.1616 56.4372C63.4577 56.1265 63.8593 55.9378 64.2875 55.9083Z" fill="white"/>
</svg>
