<svg width="101" height="51" viewBox="0 0 101 51" fill="none" xmlns="http://www.w3.org/2000/svg">
<path fill-rule="evenodd" clip-rule="evenodd" d="M50.3809 50.9331C77.9952 50.9331 100.381 39.5882 100.381 25.5945C100.381 11.6008 77.9952 0.255859 50.3809 0.255859C22.7671 0.255859 0.380859 11.6008 0.380859 25.5945C0.380859 39.5882 22.7671 50.9331 50.3809 50.9331Z" fill="#6E81B6"/>
<path fill-rule="evenodd" clip-rule="evenodd" d="M60.5141 33.7847L62.9942 21.0201C63.5541 18.1392 63.0886 15.9904 61.6115 14.6324C60.1804 13.3186 57.7511 12.6795 54.1851 12.6795H49.8899L51.1185 6.3553C51.1415 6.2376 51.1382 6.11626 51.1088 5.99999C51.0794 5.88372 51.0246 5.7754 50.9483 5.68281C50.8721 5.59022 50.7763 5.51565 50.6679 5.46446C50.5594 5.41327 50.4409 5.38672 50.321 5.38672H44.3928C44.0034 5.38672 43.6691 5.66302 43.5947 6.04514L40.9604 19.5963C40.721 18.0714 40.1309 16.7606 39.1865 15.679C37.4477 13.6886 34.6973 12.6795 31.011 12.6795H19.521C19.1316 12.6795 18.7973 12.9558 18.7229 13.3373L13.3921 40.7673C13.3455 41.0061 13.4078 41.2516 13.5626 41.439C13.7167 41.6271 13.9465 41.7353 14.1901 41.7353H20.1649C20.5543 41.7353 20.8886 41.459 20.963 41.0763L22.2526 34.4419H26.7001C29.0339 34.4419 30.9953 34.1891 32.5261 33.6909C34.0915 33.1819 35.5323 32.3185 36.8019 31.1298C37.828 30.1872 38.6756 29.1316 39.328 27.9931L38.2633 33.4733C38.2167 33.7121 38.279 33.9588 38.4338 34.145C38.588 34.333 38.8183 34.4413 39.0614 34.4413H44.9896C45.3789 34.4413 45.7133 34.165 45.7876 33.7834L48.7133 18.7268H52.7812C54.5146 18.7268 55.0225 19.0721 55.1609 19.2202C55.2861 19.3556 55.546 19.8327 55.254 21.3363L52.896 33.4727C52.8734 33.5903 52.8771 33.7116 52.9067 33.8277C52.9364 33.9438 52.9912 34.0519 53.0675 34.1443C53.1437 34.2368 53.2394 34.3113 53.3477 34.3625C53.456 34.4137 53.5743 34.4404 53.6941 34.4407H59.7166C59.9051 34.441 60.0878 34.3758 60.2333 34.256C60.3789 34.1363 60.4781 33.9696 60.5141 33.7847ZM33.0298 23.2378C32.6573 25.1514 31.956 26.516 30.9439 27.2942C29.916 28.0868 28.2721 28.4883 26.0574 28.4883H23.4092L25.324 18.6343H28.7479C31.2631 18.6343 32.2764 19.1718 32.6833 19.6223C33.2474 20.2474 33.3671 21.4984 33.0298 23.2378ZM85.4851 15.679C83.7469 13.6886 80.9965 12.6795 77.3102 12.6795H65.8202C65.4302 12.6795 65.0965 12.9558 65.0221 13.3373L59.6919 40.7673C59.6447 41.0061 59.707 41.2516 59.8618 41.439C60.0165 41.6265 60.2469 41.7353 60.4887 41.7353H66.4641C66.8541 41.7353 67.1878 41.459 67.2622 41.0763L68.5518 34.4419H72.9999C75.3343 34.4419 77.2939 34.1891 78.8253 33.6909C80.3913 33.1819 81.8321 32.3185 83.1011 31.1298C84.1604 30.157 85.0317 29.0633 85.6919 27.8825C86.3521 26.7016 86.8255 25.3848 87.1018 23.9676C87.7808 20.4723 87.2373 17.6839 85.4851 15.679ZM79.6682 23.2378C79.2951 25.1514 78.5938 26.516 77.5829 27.2942C76.5544 28.0868 74.9105 28.4883 72.6964 28.4883H70.0476L71.9618 18.6343H75.3863C77.9015 18.6343 78.9148 19.1718 79.3223 19.6223C79.8852 20.2474 80.0055 21.4984 79.6682 23.2378Z" fill="white"/>
<path fill-rule="evenodd" clip-rule="evenodd" d="M28.578 17.8204C30.8477 17.8204 32.361 18.2394 33.1174 19.0774C33.8731 19.9154 34.0533 21.3543 33.6579 23.3925C33.2443 25.5153 32.4487 27.0304 31.2697 27.9385C30.0907 28.8467 28.2962 29.3001 25.8874 29.3001H22.2525L24.4835 17.8204H28.578ZM14.0195 40.9213H19.9943L21.4121 33.6291H26.5301C28.7884 33.6291 30.6463 33.3915 32.1047 32.9169C33.563 32.4423 34.8889 31.6472 36.0818 30.5305C37.083 29.6109 37.8932 28.5951 38.5135 27.4851C39.1333 26.375 39.5734 25.1507 39.834 23.8115C40.4664 20.5599 39.9894 18.0272 38.4041 16.2134C36.8194 14.3989 34.2976 13.492 30.841 13.492H19.351L14.0195 40.9213ZM44.2223 6.19922H50.1505L48.7333 13.492H54.0152C57.3369 13.492 59.6302 14.0712 60.8914 15.2303C62.1526 16.3893 62.5305 18.2678 62.0263 20.8646L59.5461 33.6291H53.5236L55.8816 21.4922C56.1494 20.1113 56.0515 19.1699 55.5853 18.6675C55.1192 18.1656 54.127 17.9141 52.6106 17.9141H47.8729L44.819 33.6291H38.8908L44.2223 6.19922ZM75.2165 17.8204C77.4862 17.8204 78.9989 18.2394 79.7559 19.0774C80.5116 19.9154 80.6912 21.3543 80.2958 23.3925C79.8835 25.5153 79.0878 27.0304 77.9082 27.9385C76.7298 28.8467 74.9347 29.3001 72.5272 29.3001H68.8922L71.1226 17.8204H75.2165ZM60.6568 40.9213H66.6322L68.0494 33.6291H73.1674C75.4263 33.6291 77.2842 33.3915 78.7426 32.9169C80.2009 32.4423 81.5268 31.6472 82.7197 30.5305C83.7209 29.6109 84.5311 28.5951 85.1508 27.4851C85.7706 26.375 86.2113 25.1507 86.4725 23.8115C87.1043 20.5599 86.6273 18.0272 85.0426 16.2134C83.4567 14.3989 80.9355 13.492 77.4789 13.492H65.9889L60.6568 40.9213Z" fill="black"/>
</svg>
