<svg width="85" height="100" viewBox="0 0 85 100" fill="none" xmlns="http://www.w3.org/2000/svg">
<g clip-path="url(#clip0_380_4112)">
<path d="M6.18934 32.3916C5.37338 32.377 4.5631 32.5299 3.8086 32.8409C3.0541 33.1519 2.37141 33.6144 1.80275 34.1997C1.22186 34.7593 0.761744 35.4318 0.450765 36.176C0.139786 36.9202 -0.0154594 37.7202 -0.00539999 38.5267V64.3706C-0.0111682 65.1851 0.144972 65.9926 0.453949 66.7462C0.762926 67.4999 1.21858 68.1846 1.79444 68.7606C2.3703 69.3366 3.05488 69.7925 3.80842 70.1017C4.56196 70.4109 5.36943 70.5673 6.18391 70.5617C6.99606 70.5779 7.80275 70.4256 8.55308 70.1144C9.30341 69.8032 9.98109 69.3398 10.5434 68.7536C11.1192 68.1793 11.5731 67.4945 11.8776 66.7404C12.1821 65.9862 12.331 65.1783 12.3154 64.3652V38.514C12.3259 37.7075 12.1708 36.9073 11.8598 36.1631C11.5488 35.4189 11.0884 34.7463 10.5072 34.1871C9.94772 33.6095 9.27612 33.1523 8.53363 32.8436C7.79114 32.5348 6.9934 32.381 6.18934 32.3916Z" fill="#A4C639"/>
<path d="M55.9548 9.19567L60.222 1.32477C60.4992 0.804026 60.3974 0.403219 59.9164 0.122352C59.3957 -0.119941 58.9943 0.00301359 58.7158 0.483983L54.3889 8.41636C50.5797 6.75042 46.4671 5.89042 42.3095 5.89042C38.1519 5.89042 34.0393 6.75042 30.2301 8.41636L25.9032 0.482175C25.6211 0 25.2203 -0.120544 24.7008 0.120544C24.2198 0.402616 24.1204 0.80041 24.4006 1.32297L28.6679 9.19386C24.3404 11.3998 20.8946 14.4737 18.3307 18.4155C15.7978 22.2582 14.4596 26.7649 14.4847 31.3673H70.0728C70.0973 26.7648 68.7584 22.2581 66.2251 18.4155C63.678 14.4874 60.1339 11.3058 55.9548 9.19567ZM31.2807 20.6449C31.0671 20.8671 30.8103 21.0431 30.526 21.1622C30.2418 21.2813 29.9362 21.341 29.628 21.3374C29.3233 21.3427 29.021 21.2838 28.7406 21.1645C28.4602 21.0452 28.2081 20.8681 28.0007 20.6449C27.577 20.199 27.3408 19.6074 27.3408 18.9923C27.3408 18.3772 27.577 17.7855 28.0007 17.3396C28.2083 17.1167 28.4604 16.94 28.7408 16.821C29.0212 16.702 29.3235 16.6433 29.628 16.6489C30.0914 16.648 30.5446 16.7849 30.93 17.042C31.3155 17.2992 31.6158 17.6651 31.7929 18.0933C31.97 18.5215 32.0158 18.9927 31.9246 19.447C31.8334 19.9013 31.6093 20.3182 31.2807 20.6449ZM56.6093 20.6449C56.4023 20.8687 56.1503 21.0461 55.8698 21.1655C55.5893 21.2848 55.2867 21.3434 54.982 21.3374C54.39 21.2939 53.8364 21.028 53.4323 20.5932C53.0283 20.1583 52.8037 19.5867 52.8037 18.9932C52.8037 18.3996 53.0283 17.828 53.4323 17.3931C53.8364 16.9583 54.39 16.6924 54.982 16.6489C55.2865 16.6433 55.5888 16.702 55.8692 16.821C56.1495 16.94 56.4017 17.1167 56.6093 17.3396C57.0342 17.7849 57.2713 18.3768 57.2713 18.9923C57.2713 19.6078 57.0342 20.1996 56.6093 20.6449Z" fill="#A4C639"/>
<path d="M14.7297 73.5567C14.7234 74.4264 14.8901 75.2887 15.22 76.0934C15.5498 76.8982 16.0364 77.6293 16.6513 78.2444C17.2662 78.8595 17.9972 79.3462 18.8019 79.6763C19.6065 80.0064 20.4688 80.1733 21.3385 80.1673H25.7865L25.848 93.8098C25.8332 94.6261 25.986 95.4367 26.297 96.1916C26.608 96.9464 27.0706 97.6294 27.6562 98.1982C28.2154 98.7796 28.8879 99.24 29.6321 99.551C30.3764 99.862 31.1765 100.017 31.9831 100.006C32.7976 100.012 33.605 99.8556 34.3586 99.5464C35.1121 99.2372 35.7967 98.7813 36.3726 98.2053C36.9484 97.6292 37.4041 96.9445 37.713 96.1909C38.022 95.4373 38.1782 94.6298 38.1724 93.8153V80.1691H46.4646V93.8098C46.4646 95.4514 47.1167 97.0256 48.2774 98.1864C49.4381 99.3471 51.0124 99.9992 52.6539 99.9992C54.2954 99.9992 55.8697 99.3471 57.0304 98.1864C58.1911 97.0256 58.8432 95.4514 58.8432 93.8098V80.1691H63.3509C64.2156 80.167 65.0713 79.9941 65.8689 79.6604C66.6665 79.3267 67.3904 78.8387 67.9989 78.2244C68.6074 77.6102 69.0886 76.8818 69.4149 76.0811C69.7411 75.2804 69.906 74.4231 69.9001 73.5585V33.5332H14.7297V73.5567Z" fill="#A4C639"/>
<path d="M78.4254 32.3918C77.6215 32.3814 76.8237 32.5341 76.0804 32.8405C75.337 33.1469 74.6635 33.6007 74.1003 34.1746C73.5142 34.7362 73.0509 35.4133 72.7396 36.163C72.4284 36.9127 72.2761 37.7189 72.2922 38.5305V64.3708C72.2773 65.1871 72.4301 65.9977 72.7411 66.7525C73.0522 67.5073 73.5148 68.1903 74.1003 68.7592C74.6592 69.3404 75.3315 69.8007 76.0754 70.1117C76.8193 70.4227 77.6192 70.5778 78.4254 70.5673C79.2404 70.5729 80.0483 70.4163 80.8022 70.1068C81.5561 69.7973 82.2409 69.3409 82.8168 68.7643C83.3928 68.1877 83.8483 67.5024 84.157 66.7481C84.4656 65.9938 84.6212 65.1857 84.6147 64.3708V38.5142C84.6305 37.7026 84.478 36.8966 84.1668 36.1469C83.8556 35.3972 83.3925 34.7201 82.8066 34.1583C82.233 33.5839 81.5492 33.1313 80.7964 32.8278C80.0435 32.5242 79.237 32.3759 78.4254 32.3918Z" fill="#A4C639"/>
</g>
<defs>
<clipPath id="clip0_380_4112">
<rect width="84.6144" height="100" fill="white"/>
</clipPath>
</defs>
</svg>
