<svg width="100" height="100" viewBox="0 0 100 100" fill="none" xmlns="http://www.w3.org/2000/svg">
<path d="M98.7836 99.9994H1.21578C0.939682 100.008 0.668917 99.9226 0.447929 99.7568C0.22694 99.5911 0.0689208 99.355 0 99.0875V1.21578C0 0.89333 0.128092 0.584105 0.356098 0.356098C0.584105 0.128092 0.89333 0 1.21578 0H98.7836C99.1061 0 99.4153 0.128092 99.6433 0.356098C99.8713 0.584105 99.9994 0.89333 99.9994 1.21578V99.0875C99.9305 99.355 99.7726 99.5911 99.5516 99.7568C99.3306 99.9226 99.0597 100.008 98.7836 99.9994ZM2.12768 97.8718H97.8718V2.12764H2.12768V97.8718Z" fill="#00007E"/>
<path d="M98.7836 19.1511H1.21578C0.607881 19.1511 0 18.8472 0 18.2393C0 17.9168 0.128092 17.6075 0.356098 17.3795C0.584105 17.1515 0.89333 17.0234 1.21578 17.0234H98.7836C99.1061 17.0234 99.4153 17.1515 99.6433 17.3795C99.8713 17.6075 99.9994 17.9168 99.9994 18.2393C99.9994 18.8472 99.3915 19.1511 98.7836 19.1511Z" fill="#00007E"/>
<path d="M31.0048 19.1488C30.3969 19.1488 29.7891 18.8449 29.7891 18.237V1.21578C29.7891 0.89333 29.9172 0.584105 30.1452 0.356098C30.3732 0.128092 30.6824 0 31.0048 0C31.2723 0.0689208 31.5084 0.226893 31.6741 0.447882C31.8398 0.668871 31.9254 0.939682 31.9167 1.21578V18.237C31.9167 18.4788 31.8206 18.7107 31.6496 18.8817C31.4786 19.0527 31.2467 19.1488 31.0048 19.1488Z" fill="#00007E"/>
<path d="M98.7799 10.6355H54.4033C53.7954 10.6355 53.1875 10.3315 53.1875 9.72359C53.1875 9.40114 53.3156 9.09192 53.5436 8.86391C53.7716 8.6359 54.0808 8.50781 54.4033 8.50781H98.7799C99.1024 8.50781 99.4116 8.6359 99.6396 8.86391C99.8676 9.09192 99.9957 9.40114 99.9957 9.72359C99.9957 10.3315 99.3878 10.6355 98.7799 10.6355Z" fill="#00007E"/>
<path d="M48.0256 10.6369H47.1137V10.029C47.0998 9.86438 47.1195 9.69857 47.1718 9.54179C47.224 9.38501 47.3077 9.24054 47.4177 9.11719H48.9374C49.0474 9.24054 49.1311 9.38501 49.1833 9.54179C49.2356 9.69857 49.2554 9.86438 49.2414 10.029V10.6369H48.0256Z" fill="#00007E"/>
<path d="M11.8569 7.59375H7.60156V11.849H11.8569V7.59375Z" fill="#00007E"/>
<path d="M13.9819 86.3281H9.72656V90.5834H13.9819V86.3281Z" fill="#00007E"/>
<path d="M13.9819 61.0938H9.72656V84.0116H13.9819V61.0938Z" fill="#00007E"/>
<path d="M22.4897 86.3281H18.2344V90.5834H22.4897V86.3281Z" fill="#00007E"/>
<path d="M22.4897 71.4297H18.2344V84.1956H22.4897V71.4297Z" fill="#00007E"/>
<path d="M31.0053 86.3281H26.75V90.5834H31.0053V86.3281Z" fill="#00007E"/>
<path d="M31.0053 68.0781H26.75V84.1267H31.0053V68.0781Z" fill="#00007E"/>
<path d="M39.5131 86.3281H35.2578V90.5834H39.5131V86.3281Z" fill="#00007E"/>
<path d="M39.5131 54.4062H35.2578V84.1933H39.5131V54.4062Z" fill="#00007E"/>
<path d="M48.0248 86.3281H43.7695V90.5834H48.0248V86.3281Z" fill="#00007E"/>
<path d="M48.0248 75.6875H43.7695V84.1981H48.0248V75.6875Z" fill="#00007E"/>
<path d="M56.5365 86.3281H52.2812V90.5834H56.5365V86.3281Z" fill="#00007E"/>
<path d="M56.5365 61.0938H52.2812V84.0116H56.5365V61.0938Z" fill="#00007E"/>
<path d="M65.0444 86.3281H60.7891V90.5834H65.0444V86.3281Z" fill="#00007E"/>
<path d="M65.0444 54.4062H60.7891V84.1933H65.0444V54.4062Z" fill="#00007E"/>
<path d="M73.5522 86.3281H69.2969V90.5834H73.5522V86.3281Z" fill="#00007E"/>
<path d="M73.5522 69.2969H69.2969V84.1904H73.5522V69.2969Z" fill="#00007E"/>
<path d="M82.0678 86.3281H77.8125V90.5834H82.0678V86.3281Z" fill="#00007E"/>
<path d="M82.0678 63.5234H77.8125V84.1312H82.0678V63.5234Z" fill="#00007E"/>
<path d="M90.5756 86.3281H86.3203V90.5834H90.5756V86.3281Z" fill="#00007E"/>
<path d="M90.5756 65.9609H86.3203V84.2891H90.5756V65.9609Z" fill="#00007E"/>
<path d="M18.2397 7.59375H13.9844V11.849H18.2397V7.59375Z" fill="#00007E"/>
<path d="M24.6225 7.59375H20.3672V11.849H24.6225V7.59375Z" fill="#00007E"/>
<path d="M90.5703 29.0703L79.0245 29.2341L84.9393 39.1512L90.5703 29.0703ZM9.57031 48.0703C19.3773 48.0703 33.2899 46.7189 46.9797 44.3669C60.6567 42.0171 74.207 38.6525 83.2526 34.5913L82.4335 32.7668C73.6208 36.7234 60.2688 40.0545 46.641 42.3958C33.0259 44.735 19.2314 46.0703 9.57031 46.0703V48.0703Z" fill="#00007E"/>
<path d="M10.5703 28.5703L10.5703 47.5703H90.5703" stroke="#00007E" stroke-width="2"/>
</svg>
