<svg width="120" height="120" viewBox="0 0 120 120" fill="none" xmlns="http://www.w3.org/2000/svg">
<g clip-path="url(#clip0_1559_3061)">
<path d="M75 118V97H45V117.903" fill="#66C3CD"/>
<path d="M75 118V97H45V117.903" stroke="#00007E" stroke-width="3" stroke-linecap="round" stroke-linejoin="round"/>
<path d="M3.49957 103.441C3.2283 103.442 2.95979 103.387 2.71038 103.28C2.46097 103.174 2.23588 103.018 2.04879 102.822C1.86171 102.626 1.71654 102.394 1.62212 102.141C1.5277 101.887 1.48601 101.617 1.49957 101.346V89.7754H118.5V101.346C118.513 101.617 118.471 101.887 118.377 102.141C118.283 102.394 118.137 102.626 117.95 102.822C117.763 103.018 117.538 103.174 117.289 103.28C117.039 103.387 116.771 103.442 116.5 103.441H3.49957Z" fill="#2892FF"/>
<path d="M117 91.2718V101.347C117.002 101.49 116.953 101.628 116.861 101.738C116.769 101.848 116.641 101.921 116.5 101.945H3.5C3.35876 101.921 3.23071 101.848 3.13901 101.738C3.04731 101.628 2.998 101.49 3 101.347V91.2718H117ZM120 88.2793H2.68381e-07V101.347C-0.000361568 102.282 0.365166 103.181 1.01882 103.851C1.67247 104.522 2.56266 104.912 3.5 104.938H116.5C117.437 104.912 118.328 104.522 118.981 103.851C119.635 103.181 120 102.282 120 101.347V88.2793Z" fill="#00007E"/>
<path d="M1.5 92.3692V29.5263C1.5 28.6268 1.85821 27.7642 2.49584 27.1281C3.13346 26.4921 3.99826 26.1348 4.9 26.1348H114.9C115.811 26.1344 116.687 26.4885 117.34 27.1218C117.994 27.7551 118.374 28.6177 118.4 29.5263V92.3692H1.5Z" fill="white"/>
<path d="M114.9 27.6303C115.158 27.6167 115.416 27.6557 115.658 27.7449C115.9 27.834 116.121 27.9715 116.309 28.1488C116.496 28.3262 116.645 28.5397 116.746 28.7764C116.848 29.0131 116.9 29.268 116.9 29.5255V90.8722H3V29.5255C3 29.0229 3.20018 28.5408 3.5565 28.1854C3.91282 27.8299 4.39609 27.6303 4.9 27.6303H114.9ZM114.9 24.6377H4.9C3.60044 24.6377 2.3541 25.1527 1.43518 26.0693C0.516248 26.986 0 28.2292 0 29.5255L0 93.8647H120V29.5255C120 28.8752 119.87 28.2313 119.618 27.6317C119.365 27.0321 118.995 26.4888 118.53 26.0336C118.064 25.5784 117.512 25.2205 116.906 24.9808C116.3 24.7411 115.652 24.6245 115 24.6377H114.9Z" fill="#00007E"/>
<rect x="33.5" y="113.221" width="53" height="4.98005" rx="1.5" fill="#66C3CD" stroke="#00007E" stroke-width="3"/>
<path d="M100.7 52.0705C101.217 51.4704 101.608 50.7724 101.848 50.0183C102.089 49.2641 102.174 48.4693 102.1 47.6815C101.902 46.1207 101.115 44.6939 99.8998 43.6914C98.8379 42.7933 97.4919 42.2986 96.0998 42.2949H95.4998C94.7043 42.37 93.9319 42.6027 93.2278 42.9796C92.5238 43.3564 91.9022 43.8698 91.3998 44.4894C90.4061 45.7385 89.9437 47.3267 90.1121 48.9124C90.2804 50.498 91.0659 51.9544 92.2998 52.9682C92.9063 53.4689 93.6072 53.8433 94.3611 54.0696C95.115 54.2959 95.9067 54.3693 96.6895 54.2857C97.4723 54.202 98.2304 53.9629 98.9191 53.5825C99.6078 53.202 100.213 52.6879 100.7 52.0705Z" fill="white"/>
<path d="M108.8 49.3773L109.1 49.1778C109.1 49.0781 109.2 48.9783 109.2 48.8786L108.8 45.1878C108.8 45.0881 108.7 44.9883 108.6 44.8886C108.5 44.7888 108.4 44.7888 108.3 44.7888L106.3 44.9883C106.092 45.0054 105.883 44.9569 105.704 44.8495C105.525 44.7422 105.383 44.5814 105.3 44.3898L104.5 42.8935C104.362 42.7054 104.288 42.4783 104.288 42.2452C104.288 42.012 104.362 41.7849 104.5 41.5968L105.8 40.1005C105.838 40.0564 105.865 40.0047 105.88 39.9491C105.895 39.8934 105.898 39.8352 105.889 39.7783C105.879 39.7214 105.857 39.6673 105.825 39.6196C105.792 39.5719 105.75 39.5318 105.7 39.502L102.9 37.108H102.6C102.4 37.108 102.3 37.2078 102.3 37.3075L101 38.704C100.863 38.8809 100.67 39.0066 100.452 39.0609C100.235 39.1152 100.005 39.0949 99.8005 39.0033L98.2005 38.5045C97.9757 38.4664 97.7683 38.3595 97.6071 38.1987C97.4458 38.0378 97.3387 37.831 97.3005 37.6068L97.1005 35.6118C97.105 35.5577 97.0986 35.5033 97.0814 35.4518C97.0642 35.4004 97.0366 35.353 97.0005 35.3125H96.7005L93.0005 35.7115L92.7005 35.911C92.6005 35.911 92.6005 36.1105 92.6005 36.2103L92.8005 38.2053C92.8106 38.4253 92.7474 38.6425 92.6207 38.8229C92.4941 39.0034 92.3112 39.1369 92.1005 39.2028L90.6005 40.0008C90.4219 40.1167 90.2135 40.1784 90.0005 40.1784C89.7874 40.1784 89.579 40.1167 89.4005 40.0008L87.8005 38.704C87.8005 38.6043 87.7005 38.6043 87.5005 38.6043H87.3005L84.9005 41.497C84.8643 41.5375 84.8367 41.5849 84.8195 41.6364C84.8024 41.6878 84.7959 41.7422 84.8005 41.7963C84.7959 41.8503 84.8024 41.9047 84.8195 41.9562C84.8367 42.0076 84.8643 42.0551 84.9005 42.0955L86.5005 43.3923C86.665 43.5388 86.7816 43.7313 86.8351 43.9448C86.8886 44.1582 86.8765 44.3828 86.8005 44.5893C86.5884 45.1061 86.4211 45.64 86.3005 46.1853C86.2499 46.4041 86.1388 46.6043 85.9796 46.763C85.8205 46.9218 85.6198 47.0327 85.4005 47.0831L83.4005 47.2826H83.1005C83.0643 47.3231 83.0367 47.3705 83.0196 47.4219C83.0024 47.4734 82.9959 47.5278 83.0005 47.5818L83.4005 51.2726C83.3959 51.3266 83.4024 51.3811 83.4196 51.4325C83.4367 51.484 83.4643 51.5314 83.5005 51.5719H83.8005L85.8005 51.3724C86.0345 51.3565 86.2675 51.4158 86.4653 51.5414C86.6632 51.667 86.8157 51.8524 86.9005 52.0706C87.1277 52.5894 87.3951 53.0896 87.7005 53.5669C87.8022 53.7545 87.847 53.9676 87.8292 54.1802C87.8115 54.3928 87.732 54.5956 87.6005 54.7639L86.4005 56.2601C86.2005 56.4596 86.2005 56.7589 86.4005 56.8586L89.3005 59.2526H89.9005L91.2005 57.6566C91.4056 57.4258 91.6922 57.2828 92.0005 57.2576H92.4005L94.0005 57.7564C94.2069 57.8123 94.3925 57.9269 94.5345 58.0864C94.6766 58.2458 94.769 58.4431 94.8005 58.6541L95.0005 60.6492C95.0005 60.7489 95.1005 60.8487 95.2005 60.9484H95.5005L99.2005 60.5494C99.253 60.5494 99.305 60.5391 99.3535 60.519C99.4021 60.499 99.4462 60.4696 99.4833 60.4325C99.5204 60.3955 99.5499 60.3515 99.57 60.3031C99.5901 60.2547 99.6005 60.2028 99.6005 60.1504L99.4005 58.1554C99.3602 57.9317 99.3977 57.7009 99.5068 57.5014C99.6159 57.3019 99.7901 57.1455 100 57.0581L101.5 56.2601C101.704 56.15 101.935 56.1008 102.165 56.1185C102.396 56.1362 102.616 56.22 102.8 56.3599L104.3 57.5569C104.5 57.7564 104.8 57.7564 104.9 57.5569L107.3 54.6641C107.352 54.5673 107.37 54.4562 107.352 54.348C107.334 54.2398 107.281 54.1405 107.2 54.0656L105.7 53.1679C105.507 53.0444 105.367 52.8515 105.312 52.6289C105.256 52.4063 105.288 52.1708 105.4 51.9709C105.6 51.4721 105.7 50.9733 105.9 50.3748C105.943 50.1624 106.054 49.9695 106.217 49.8256C106.379 49.6816 106.584 49.5943 106.8 49.5768L108.8 49.3773ZM101.6 52.7689C100.929 53.5754 100.089 54.2255 99.1385 54.6735C98.1884 55.1216 97.1514 55.3567 96.1005 55.3624C94.4578 55.3817 92.8622 54.8158 91.6005 53.7664C90.4995 52.882 89.6881 51.69 89.2704 50.3429C88.8527 48.9959 88.8476 47.5551 89.2557 46.2051C89.6639 44.8551 90.4667 43.6574 91.5614 42.7653C92.6561 41.8733 93.9929 41.3274 95.4005 41.1978C97.273 41.0618 99.1285 41.6313 100.6 42.7938C101.333 43.3775 101.941 44.1021 102.388 44.9246C102.834 45.7471 103.111 46.6507 103.2 47.5818C103.347 49.4508 102.775 51.3052 101.6 52.7689Z" fill="#66C3CD"/>
<path d="M86.0002 73.6164C86.1023 74.8164 86.6733 75.9283 87.59 76.7121C88.5068 77.4959 89.6956 77.8888 90.9002 77.8059C91.5007 77.7684 92.0876 77.6111 92.6261 77.3434C93.1646 77.0756 93.6438 76.7029 94.0354 76.2472C94.427 75.7915 94.723 75.262 94.9059 74.6902C95.0888 74.1184 95.1548 73.5158 95.1002 72.9181C95.0849 72.3156 94.933 71.7244 94.6559 71.1888C94.3788 70.6533 93.9837 70.1873 93.5002 69.8259C93.0537 69.4288 92.5309 69.1268 91.9635 68.9381C91.3961 68.7495 90.7961 68.6782 90.2002 68.7286C88.9971 68.8305 87.8824 69.4001 87.0967 70.3145C86.3109 71.2289 85.9171 72.4149 86.0002 73.6164Z" fill="white"/>
<path d="M100.81 73.9723L101.017 73.9677L100.742 70.9508C100.739 70.8466 100.635 70.8489 100.633 70.7447L98.8662 70.7842C98.6612 70.8209 98.45 70.7792 98.2742 70.6673C98.0984 70.5554 97.9708 70.3816 97.9167 70.18L97.2674 69.0478C97.1512 68.8749 97.0959 68.6681 97.11 68.4601C97.1242 68.2522 97.2071 68.0549 97.3455 67.8994L98.3568 66.6259C98.3603 66.5693 98.3523 66.5127 98.3332 66.4593C98.3141 66.406 98.2844 66.3571 98.2459 66.3156L95.9148 64.3871L95.603 64.3941L94.5918 65.6676C94.4513 65.8227 94.2711 65.9362 94.0708 65.9958C93.8705 66.0554 93.6577 66.0588 93.4555 66.0057L92.1989 65.6168C91.9954 65.558 91.8146 65.4382 91.6808 65.2735C91.547 65.1088 91.4666 64.9071 91.4503 64.6954L91.4129 63.0283C91.4106 62.9241 91.3066 62.9264 91.3043 62.8223L91.0964 62.8269L88.087 63.1026L87.9831 63.105C87.9831 63.105 87.8815 63.2115 87.9854 63.2092L88.0229 64.8762C88.0389 65.0789 87.9888 65.2813 87.8801 65.4529C87.7715 65.6246 87.6101 65.7562 87.4203 65.8279L86.1871 66.4809C86.0156 66.5854 85.8196 66.6427 85.6189 66.6472C85.4183 66.6517 85.2199 66.6031 85.0439 66.5064L83.7709 65.3882L83.4591 65.3952L81.6398 67.7292C81.6122 67.7298 81.586 67.7414 81.567 67.7613C81.5479 67.7813 81.5376 67.8081 81.5382 67.8357L81.5429 68.0441L82.8135 69.0581C82.9751 69.1941 83.0861 69.3809 83.1285 69.5881C83.1709 69.7953 83.1422 70.0108 83.0471 70.1996C82.9525 70.6187 82.754 71.0401 82.6594 71.4592C82.6385 71.6623 82.544 71.8506 82.3937 71.9885C82.2435 72.1263 82.048 72.2041 81.8443 72.2071L80.1861 72.4526L80.0821 72.4549C80.0845 72.5591 79.9805 72.5615 79.9829 72.6656L80.3625 75.6802L80.5751 75.884L82.1294 75.6407C82.3457 75.618 82.5637 75.6639 82.7527 75.7718C82.9416 75.8798 83.0921 76.0445 83.1828 76.2426L83.8345 77.479C83.9506 77.6519 84.006 77.8587 83.9918 78.0667C83.9776 78.2747 83.8948 78.472 83.7563 78.6274L82.745 79.9009C82.745 79.9009 82.6434 80.0075 82.7474 80.0051L82.7521 80.2135L85.0807 82.0379L85.2886 82.0332C85.3162 82.0326 85.3424 82.021 85.3614 82.001C85.3805 81.9811 85.3908 81.9543 85.3902 81.9267L86.4015 80.6532C86.5949 80.461 86.8504 80.3444 87.122 80.3243L87.5377 80.3151L88.8982 80.7016C89.1009 80.7226 89.2888 80.8174 89.4263 80.9681C89.5639 81.1187 89.6415 81.3147 89.6445 81.5189L89.6913 83.6027C89.6925 83.658 89.7156 83.7105 89.7555 83.7487C89.7953 83.7869 89.8487 83.8077 89.9038 83.8064L92.9109 83.4265L93.3267 83.4172L93.2869 81.646C93.2781 81.4313 93.3298 81.2184 93.4359 81.0317C93.542 80.845 93.6984 80.692 93.8871 80.5901C94.3143 80.4773 94.704 80.2528 95.0163 79.9394C95.1888 79.8231 95.3951 79.7676 95.6025 79.7819C95.81 79.7961 96.0068 79.8792 96.1619 80.0181L97.4325 81.0321L97.7443 81.0251L99.6676 78.6888C99.7692 78.5823 99.7692 78.5823 99.7669 78.4781L99.6629 78.4804L98.3923 77.4664C98.2376 77.3255 98.1243 77.1449 98.0648 76.944C98.0053 76.7432 98.0018 76.5299 98.0548 76.3273C98.231 75.9234 98.3611 75.5009 98.4424 75.0677C98.5066 74.8569 98.6251 74.6669 98.7861 74.5168C98.9471 74.3668 99.1448 74.262 99.3591 74.2132L100.81 73.9723ZM90 67.8299C91.5376 67.6934 93.0222 67.7523 94.2439 68.6984C94.8609 69.1832 95.3719 69.7899 95.7452 70.481C96.1185 71.172 96.3461 71.9326 96.4139 72.7154C96.4978 73.4801 96.4301 74.2538 96.2147 74.9921C95.9993 75.7304 95.6404 76.4187 95.1587 77.0174C94.1201 78.1924 93.0493 78.0743 91.5 78.3037L90.5 78.3037C89.0323 78.3164 88.0977 78.4559 87 77.479C85.9023 76.5021 84.9558 75.3757 84.7943 73.9133C84.7057 73.1481 84.7691 72.3729 84.9808 71.6324C85.1925 70.892 85.5484 70.2009 86.0279 69.599C86.5074 68.9972 87.3493 68.8308 88.0229 68.4601C88.6964 68.0894 89.236 67.9125 90 67.8299Z" fill="#2892FF"/>
<path d="M110.1 45.0882C110.087 44.8585 110.026 44.6339 109.923 44.4281C109.82 44.2223 109.676 44.0396 109.5 43.8912C109.326 43.7335 109.119 43.616 108.895 43.547C108.67 43.478 108.433 43.4593 108.2 43.4922L106.4 43.6917C106.228 43.1981 105.992 42.7287 105.7 42.2951L106.8 40.8986C106.964 40.7292 107.086 40.5234 107.156 40.2981C107.225 40.0727 107.24 39.8342 107.2 39.6019C107.192 39.3851 107.134 39.173 107.03 38.9826C106.926 38.7921 106.778 38.6285 106.6 38.5046L103.7 36.1106C103.33 35.8353 102.872 35.7037 102.412 35.7405C101.952 35.7772 101.521 35.9797 101.2 36.3101L100.1 37.7066L98.5999 37.3076V35.5121C98.5261 35.0452 98.28 34.6227 97.91 34.3274C97.54 34.0322 97.0727 33.8855 96.5999 33.9161L92.8999 34.3151C92.6673 34.3271 92.4396 34.3867 92.2311 34.4901C92.0225 34.5935 91.8375 34.7386 91.6875 34.9163C91.5374 35.094 91.4256 35.3006 91.3589 35.5232C91.2923 35.7458 91.2722 35.9797 91.2999 36.2104V38.0059L89.9999 38.7041L88.5999 37.6069C88.4259 37.4492 88.2192 37.3317 87.9945 37.2627C87.7698 37.1938 87.5327 37.175 87.2999 37.2079C87.0656 37.1994 86.833 37.2498 86.6233 37.3544C86.4137 37.459 86.2337 37.6144 86.0999 37.8064L83.7999 40.6991C83.6355 40.8686 83.5136 41.0743 83.4441 41.2997C83.3746 41.525 83.3594 41.7636 83.3999 41.9959C83.4071 42.2269 83.4644 42.4535 83.568 42.6602C83.6716 42.8668 83.819 43.0486 83.9999 43.1929L85.3999 44.2902C85.1999 44.7889 85.0999 45.2877 84.8999 45.7864H83.2999C82.8259 45.8597 82.3972 46.1092 82.0999 46.4847C81.9355 46.6541 81.8136 46.8599 81.7441 47.0852C81.6746 47.3106 81.6594 47.5491 81.6999 47.7814L81.9999 51.4722C82.074 51.9315 82.3239 52.3441 82.697 52.6232C83.0701 52.9023 83.5371 53.0261 83.9999 52.9685H85.6999L86.4999 54.2652L85.2999 55.6617C85.0188 56.0341 84.8772 56.4929 84.8999 56.9585C84.9734 57.4313 85.2234 57.8589 85.5999 58.1555L88.3999 60.4498C88.5774 60.602 88.7844 60.7159 89.0081 60.7846C89.2318 60.8533 89.4673 60.8751 89.6999 60.8488C89.9341 60.8572 90.1668 60.8068 90.3764 60.7022C90.5861 60.5977 90.7661 60.4423 90.8999 60.2503L92.0999 58.8538L93.4999 59.3525L93.6999 61.0483C93.7133 61.278 93.7734 61.5025 93.8765 61.7083C93.9797 61.9141 94.1237 62.0968 94.2999 62.2453C94.4471 62.3819 94.6203 62.4877 94.8093 62.5562C94.9982 62.6248 95.1991 62.6547 95.3999 62.6443H95.5999L99.2999 62.345C99.5368 62.3202 99.7665 62.2488 99.9755 62.1348C100.185 62.0208 100.369 61.8665 100.518 61.681C100.667 61.4954 100.777 61.2822 100.843 61.0537C100.908 60.8252 100.928 60.5861 100.9 60.35L100.7 58.6543L102.1 57.8563L103.5 59.0533C103.677 59.1921 103.879 59.2946 104.096 59.3547C104.313 59.4149 104.539 59.4315 104.763 59.4037C104.986 59.3759 105.201 59.3041 105.397 59.1926C105.592 59.0811 105.763 58.932 105.9 58.754L108.3 55.961C108.598 55.601 108.744 55.1392 108.707 54.6736C108.67 54.208 108.452 53.7753 108.1 53.4672L106.7 52.2702C106.893 51.8237 107.027 51.3544 107.1 50.8737L108.9 50.6742C109.13 50.6609 109.355 50.6009 109.562 50.498C109.768 50.3951 109.951 50.2514 110.1 50.0757C110.367 49.6964 110.507 49.2425 110.5 48.7789L110.1 45.0882ZM105.6 50.375C105.479 50.8877 105.311 51.3884 105.1 51.8712C104.996 52.1304 104.979 52.4159 105.051 52.6854C105.123 52.955 105.281 53.1942 105.5 53.3675L107.1 54.6642L104.7 57.557C104.7 57.5835 104.689 57.6088 104.671 57.6275C104.652 57.6462 104.626 57.6567 104.6 57.6567H104.5L102.9 56.36C102.699 56.1754 102.44 56.0649 102.167 56.0468C101.895 56.0286 101.624 56.1039 101.4 56.2602L99.8999 57.0582C99.6465 57.1626 99.4327 57.3443 99.289 57.5772C99.1453 57.8101 99.0791 58.0823 99.0999 58.355L99.2999 60.35C99.2999 60.3765 99.2894 60.4018 99.2706 60.4205C99.2518 60.4393 99.2264 60.4498 99.1999 60.4498L95.4999 60.749C95.3999 60.8488 95.3999 60.749 95.2999 60.749L95.0999 58.754C95.0237 58.514 94.8791 58.3013 94.6838 58.1419C94.4884 57.9825 94.2508 57.8832 93.9999 57.8563L92.4999 57.3575H91.9999C91.8051 57.3534 91.6123 57.3967 91.4381 57.4836C91.2639 57.5705 91.1135 57.6984 90.9999 57.8563L89.6999 59.3525H89.3999L86.5999 57.0582C86.5637 57.0178 86.5362 56.9703 86.519 56.9189C86.5018 56.8674 86.4953 56.813 86.4999 56.759L87.7999 55.163C87.9784 54.9392 88.0837 54.6661 88.1016 54.3807C88.1195 54.0952 88.0491 53.8112 87.8999 53.567C87.5753 53.137 87.3065 52.6677 87.0999 52.1705C87.0288 51.8955 86.8537 51.6587 86.6112 51.5099C86.3688 51.3611 86.078 51.3118 85.7999 51.3725L83.7999 51.572C83.6999 51.572 83.6999 51.572 83.6999 51.4722H83.5999L83.1999 47.7814H83.2999C83.2999 47.755 83.3104 47.7296 83.3292 47.7109C83.3479 47.6922 83.3734 47.6817 83.3999 47.6817L85.3999 47.4822C85.6689 47.4634 85.9238 47.3548 86.1234 47.1738C86.323 46.9928 86.4556 46.7501 86.4999 46.4847C86.6999 45.8862 86.7999 45.3874 86.9999 44.8887C87.1034 44.6295 87.1204 44.344 87.0484 44.0744C86.9763 43.8049 86.819 43.5657 86.5999 43.3924L85.0999 42.0957C85.0734 42.0957 85.0479 42.0851 85.0292 42.0664C85.0104 42.0477 84.9999 42.0224 84.9999 41.9959C84.9999 41.9694 85.0104 41.9441 85.0292 41.9254C85.0479 41.9067 85.0734 41.8961 85.0999 41.8961L87.3999 39.0034H87.6999L89.1999 40.3001C89.4394 40.4508 89.7167 40.5307 89.9999 40.5307C90.283 40.5307 90.5604 40.4508 90.7999 40.3001L92.1999 39.6019C92.4713 39.4929 92.698 39.2957 92.8432 39.0423C92.9883 38.7889 93.0436 38.494 92.9999 38.2054L92.7999 36.2104H92.9999L96.6999 35.9111H96.8999L97.0999 37.9061C97.114 38.1868 97.2192 38.4553 97.3996 38.6712C97.5799 38.887 97.8257 39.0386 98.0999 39.1031L99.6999 39.6019C99.9615 39.6904 100.243 39.6998 100.51 39.6288C100.777 39.5578 101.017 39.4096 101.2 39.2029L102.5 37.6069H102.7L105.6 40.0009C105.6 40.0273 105.61 40.0527 105.629 40.0714C105.648 40.0901 105.673 40.1006 105.7 40.1006H105.6L104.3 41.6966C104.158 41.9204 104.082 42.1798 104.082 42.4448C104.082 42.7097 104.158 42.9692 104.3 43.1929C104.574 43.6717 104.808 44.1721 105 44.6892C105.142 44.9339 105.346 45.1367 105.592 45.2769C105.838 45.4172 106.117 45.4897 106.4 45.4872L108.4 45.2877H108.5L108.9 48.9784V49.1779H108.8L106.8 49.3774C106.523 49.406 106.261 49.5161 106.047 49.6937C105.834 49.8714 105.678 50.1086 105.6 50.375Z" fill="#00007E"/>
<path d="M100.8 42.5934C99.2666 41.4003 97.3374 40.8301 95.3999 40.9974C94.4346 41.0716 93.4942 41.3392 92.6349 41.7843C91.7756 42.2293 91.0152 42.8427 90.399 43.5877C89.7829 44.3327 89.3237 45.1939 89.0489 46.12C88.7742 47.0461 88.6895 48.018 88.7999 48.9774C88.857 49.9445 89.1181 50.8886 89.5662 51.7481C90.0142 52.6075 90.6391 53.3629 91.3999 53.965C92.7178 55.0643 94.382 55.6647 96.0999 55.6607C97.6211 55.6568 99.1041 55.1854 100.347 54.3106C101.59 53.4358 102.532 52.2002 103.046 50.772C103.56 49.3437 103.62 47.7923 103.218 46.3288C102.816 44.8654 101.972 43.561 100.8 42.5934ZM100.5 51.97C99.5252 53.1371 98.1293 53.8749 96.6138 54.0242C95.0983 54.1736 93.5847 53.7223 92.3999 52.768C91.236 51.7795 90.4865 50.3911 90.2999 48.8777C90.1605 47.3578 90.6287 45.8445 91.6027 44.6675C92.5767 43.4904 93.9774 42.7449 95.4999 42.5934C96.2525 42.4904 97.0185 42.5532 97.7441 42.7772C98.4697 43.0012 99.1373 43.3811 99.6999 43.8902C100.311 44.3491 100.814 44.9345 101.177 45.606C101.539 46.2775 101.752 47.0193 101.8 47.7804C101.89 48.5306 101.821 49.2914 101.597 50.0131C101.373 50.7349 100.999 51.4016 100.5 51.97Z" fill="#00007E"/>
<path d="M101.2 69.8256C101.048 69.7016 100.872 69.6108 100.682 69.5592C100.493 69.5077 100.294 69.4965 100.1 69.5264H98.8002L98.4002 68.6286L99.2002 67.6311C99.4501 67.326 99.5692 66.9349 99.5317 66.5427C99.4943 66.1506 99.3033 65.7889 99.0002 65.5364L96.8002 63.6411C96.6465 63.5019 96.4654 63.396 96.2685 63.3302C96.0716 63.2645 95.8631 63.2402 95.6563 63.2589C95.4495 63.2777 95.2488 63.3391 95.0671 63.4392C94.8853 63.5393 94.7263 63.676 94.6002 63.8406L93.8002 64.7384L92.9002 64.4391V63.3418C92.8883 63.1359 92.8339 62.9346 92.7403 62.7507C92.6467 62.5667 92.5159 62.404 92.3563 62.2729C92.1966 62.1417 92.0115 62.045 91.8126 61.9886C91.6136 61.9322 91.4051 61.9175 91.2002 61.9453L88.3002 62.1448C88.1081 62.155 87.9202 62.2045 87.7481 62.2903C87.5761 62.3761 87.4236 62.4964 87.3002 62.6436C87.1632 62.7904 87.0572 62.9632 86.9885 63.1517C86.9198 63.3402 86.8898 63.5405 86.9002 63.7408V65.0376L86.1002 65.5364L85.1002 64.6386C84.7698 64.405 84.3666 64.2968 83.9633 64.3333C83.56 64.3699 83.183 64.5489 82.9002 64.8381L81.0002 67.0326C80.7956 67.3616 80.6914 67.7428 80.7002 68.1299C80.7167 68.5468 80.8962 68.9406 81.2002 69.2271L82.2002 70.0251L81.9002 70.9229H80.6002C80.1936 70.973 79.8217 71.1768 79.5612 71.4923C79.3007 71.8078 79.1715 72.2109 79.2002 72.6187L79.4002 75.5114C79.4504 75.9171 79.6547 76.288 79.971 76.5478C80.2873 76.8077 80.6915 76.9366 81.1002 76.9079H82.4002C82.5131 77.1836 82.6468 77.4504 82.8002 77.7059L82.0002 78.7034C81.8632 78.8503 81.7572 79.023 81.6885 79.2115C81.6198 79.4 81.5898 79.6004 81.6002 79.8007C81.6529 80.2293 81.8675 80.6217 82.2002 80.898L84.4002 82.7932C84.5523 82.9173 84.7288 83.0081 84.9183 83.0596C85.1078 83.1112 85.3061 83.1224 85.5002 83.0925C85.695 83.0965 85.8878 83.0533 86.062 82.9664C86.2362 82.8795 86.3866 82.7516 86.5002 82.5937L87.4002 81.5962L88.3002 81.8955V83.1922C88.3256 83.5715 88.4948 83.9269 88.7734 84.1863C89.052 84.4457 89.4191 84.5896 89.8002 84.5887H90.0002L92.9002 84.3892C93.3136 84.2904 93.6932 84.0839 94.0002 83.7907C94.146 83.6526 94.251 83.4773 94.3039 83.2839C94.3568 83.0904 94.3555 82.8862 94.3002 82.6935V81.3967L95.2002 80.9977L96.2002 81.7957C96.3386 81.9383 96.5058 82.0498 96.6907 82.1229C96.8757 82.196 97.0741 82.2289 97.2728 82.2195C97.4715 82.21 97.6659 82.1584 97.8431 82.0682C98.0203 81.9779 98.1761 81.851 98.3002 81.696L100.2 79.4017C100.337 79.2549 100.443 79.0821 100.512 78.8936C100.581 78.7051 100.611 78.5047 100.6 78.3044C100.604 78.0988 100.55 77.8962 100.444 77.7198C100.338 77.5435 100.184 77.4004 100 77.3069L99.1002 76.4092L99.4002 75.5114H100.6C100.809 75.5155 101.017 75.4728 101.207 75.3865C101.397 75.3002 101.566 75.1725 101.7 75.0127C101.837 74.8659 101.943 74.6931 102.012 74.5046C102.081 74.3161 102.111 74.1157 102.1 73.9154L101.8 71.0226C101.793 70.7917 101.736 70.565 101.632 70.3584C101.528 70.1517 101.381 69.9699 101.2 69.8256ZM97.8002 74.9129C97.7126 75.3257 97.5785 75.7273 97.4002 76.1099C97.2932 76.344 97.2645 76.6062 97.3186 76.8577C97.3726 77.1092 97.5064 77.3367 97.7002 77.5064L98.9002 78.4042L97.1002 80.5987L95.9002 79.6012C95.7069 79.4401 95.4676 79.3438 95.2164 79.3259C94.9651 79.308 94.7145 79.3694 94.5002 79.5014L93.4002 80.1C93.1633 80.1984 92.9609 80.3646 92.8186 80.5776C92.6762 80.7907 92.6002 81.0409 92.6002 81.297L92.8002 82.7932L90.0002 83.0925L89.8002 81.4965C89.7732 81.2462 89.6737 81.0091 89.5139 80.8143C89.354 80.6194 89.1408 80.4752 88.9002 80.3992L87.7002 80.1H87.2002C87.0304 80.0992 86.8624 80.1343 86.7073 80.2031C86.5521 80.2719 86.4134 80.3727 86.3002 80.499L85.4002 81.696L83.2002 79.8007L84.2002 78.7034C84.3578 78.4893 84.4509 78.2349 84.4686 77.9698C84.4864 77.7048 84.4279 77.4403 84.3002 77.2072L83.7002 76.1099C83.6112 75.8736 83.4433 75.6751 83.2247 75.5479C83.0061 75.4207 82.7502 75.3726 82.5002 75.4117H81.0002L80.8002 72.6187H82.3002C82.5472 72.5806 82.7795 72.4772 82.9729 72.3194C83.1664 72.1615 83.3139 71.9549 83.4002 71.7209C83.4573 71.3004 83.593 70.8944 83.8002 70.5239C83.8962 70.2796 83.9091 70.0105 83.8368 69.7582C83.7645 69.5059 83.6111 69.2842 83.4002 69.1274L82.3002 68.1299L84.1002 65.9354L85.3002 66.9329C85.4854 67.1096 85.7266 67.2162 85.9822 67.2344C86.2378 67.2526 86.4917 67.1813 86.7002 67.0326L87.8002 66.5339C88.0371 66.4451 88.2361 66.2776 88.3636 66.0595C88.4911 65.8415 88.5394 65.5862 88.5002 65.3369V63.7408L91.3002 63.4416V64.9379C91.319 65.2062 91.4279 65.4605 91.6094 65.6595C91.7908 65.8586 92.0342 65.9909 92.3002 66.0351L93.5002 66.4341C93.7198 66.5332 93.966 66.5576 94.2009 66.5035C94.4358 66.4495 94.6463 66.3199 94.8002 66.1349L95.8002 64.9379L98.0002 66.7334L97.0002 67.9304C96.8231 68.1151 96.7162 68.3557 96.6979 68.6107C96.6797 68.8656 96.7512 69.1189 96.9002 69.3269C97.1075 69.6728 97.2752 70.0409 97.4002 70.4241C97.4989 70.6605 97.6656 70.8623 97.8791 71.0044C98.0927 71.1464 98.3436 71.2221 98.6002 71.2221L100.1 71.0226L100.4 73.9154H98.9002C98.6312 73.9342 98.3763 74.0428 98.1767 74.2238C97.9771 74.4048 97.8445 74.6475 97.8002 74.9129Z" fill="#00007E"/>
<path d="M94.4 68.7274C93.1854 67.7727 91.6527 67.3138 90.1119 67.4434C88.5711 67.573 87.1371 68.2815 86.1 69.4256C85.0903 70.6185 84.588 72.1577 84.7 73.7149C84.8474 75.1793 85.5306 76.5381 86.619 77.5318C87.7074 78.5255 89.1246 79.0843 90.6 79.1014H91.1C91.8714 79.0513 92.625 78.8478 93.3164 78.5029C94.0079 78.1581 94.6232 77.6788 95.1263 77.0933C95.6294 76.5079 96.0101 75.8279 96.246 75.0936C96.4819 74.3592 96.5683 73.5853 96.5 72.8171C96.324 71.2439 95.577 69.7892 94.4 68.7274ZM90.6 68.9269C91.6156 68.9554 92.596 69.3047 93.4 69.9244C94.2765 70.6852 94.8157 71.761 94.9 72.9169C94.9654 74.0361 94.6087 75.1391 93.9 76.0092C93.1372 76.8835 92.0588 77.4214 90.9 77.5054C90.342 77.5654 89.7777 77.5076 89.2436 77.3357C88.7095 77.1638 88.2176 76.8818 87.8 76.5079C87.3647 76.1539 87.0069 75.7145 86.7489 75.2169C86.4908 74.7193 86.338 74.1741 86.3 73.6152C86.2153 72.4821 86.5744 71.3605 87.3017 70.4861C88.0291 69.6118 89.068 69.0528 90.2 68.9269H90.6Z" fill="#00007E"/>
<path d="M65.9004 83.8896H15.9004C15.2438 83.8896 14.5936 83.7606 13.987 83.5099C13.3803 83.2593 12.8291 82.8919 12.3649 82.4288C11.9006 81.9656 11.5323 81.4158 11.281 80.8107C11.0297 80.2056 10.9004 79.557 10.9004 78.902V5.48558C10.9004 4.1628 11.4272 2.8942 12.3649 1.95886C13.3025 1.02352 14.5743 0.498047 15.9004 0.498047H65.9004C68.7004 0.498047 70.9004 2.79231 70.9004 23.4407" fill="white"/>
<path d="M69.9999 57.0572C70.3712 57.0572 70.7273 56.9101 70.9898 56.6482C71.2524 56.3863 71.3999 56.0311 71.3999 55.6607V3.98988C71.4273 3.00109 71.0662 2.04077 70.3936 1.31392C69.721 0.587072 68.7902 0.151292 67.7999 0.0996094H13.9999C13.0096 0.151292 12.0788 0.587072 11.4062 1.31392C10.7336 2.04077 10.3724 3.00109 10.3999 3.98988V80.4986C10.3724 81.4874 10.7336 82.4477 11.4062 83.1746C12.0788 83.9014 13.0096 84.3372 13.9999 84.3889H67.7999C68.7902 84.3372 69.721 83.9014 70.3936 83.1746C71.0662 82.4477 71.4273 81.4874 71.3999 80.4986V54.9625C71.3999 54.7791 71.3637 54.5975 71.2933 54.428C71.223 54.2586 71.1199 54.1046 70.9898 53.975C70.8598 53.8453 70.7055 53.7424 70.5357 53.6722C70.3658 53.6021 70.1837 53.5659 69.9999 53.5659C69.816 53.5659 69.634 53.6021 69.4641 53.6722C69.2943 53.7424 69.1399 53.8453 69.0099 53.975C68.8799 54.1046 68.7768 54.2586 68.7065 54.428C68.6361 54.5975 68.5999 54.7791 68.5999 54.9625V80.4986C68.6046 80.732 68.5271 80.9596 68.381 81.1419C68.2348 81.3241 68.0292 81.4495 67.7999 81.4961H13.9999C13.7706 81.4495 13.565 81.3241 13.4188 81.1419C13.2726 80.9596 13.1952 80.732 13.1999 80.4986V3.89013C13.1952 3.65677 13.2726 3.42915 13.4188 3.24688C13.565 3.06462 13.7706 2.93926 13.9999 2.89263H67.7999C67.9184 2.90502 68.0332 2.94075 68.1377 2.99775C68.2423 3.05475 68.3344 3.13187 68.4088 3.22466C68.4832 3.31745 68.5384 3.42405 68.5712 3.53829C68.604 3.65252 68.6138 3.77212 68.5999 3.89013V55.6607C68.5999 56.0311 68.7474 56.3863 69.0099 56.6482C69.2725 56.9101 69.6286 57.0572 69.9999 57.0572Z" fill="#00007E"/>
<path d="M47.5996 47.2826H59.6996V35.3125H47.5996V47.2826ZM49.2996 39.901C49.3965 39.8249 49.5081 39.7695 49.6274 39.7383C49.7467 39.707 49.8711 39.7005 49.993 39.7192C50.1149 39.7379 50.2317 39.7814 50.336 39.847C50.4404 39.9126 50.5301 39.9989 50.5996 40.1005L52.8996 42.8935L56.6996 37.0083C56.7502 36.9016 56.8239 36.8075 56.9154 36.7326C57.0069 36.6578 57.1139 36.6041 57.2287 36.5755C57.3434 36.5469 57.4631 36.544 57.5792 36.5671C57.6952 36.5902 57.8046 36.6387 57.8996 36.709C58.0094 36.7701 58.1051 36.8535 58.1805 36.9537C58.256 37.054 58.3096 37.1689 58.3379 37.291C58.3661 37.4132 58.3684 37.5399 58.3446 37.663C58.3208 37.7861 58.2714 37.9029 58.1996 38.0058L53.7996 44.8886C53.6996 45.1878 53.3996 45.2876 53.0996 45.3873H52.9996C52.7298 45.3317 52.4847 45.1919 52.2996 44.9883L49.1996 41.1978C49.118 41.1074 49.0556 41.0015 49.0163 40.8863C48.977 40.7712 48.9616 40.6493 48.9709 40.528C48.9803 40.4068 49.0142 40.2886 49.0707 40.1809C49.1272 40.0731 49.2051 39.9779 49.2996 39.901Z" fill="white"/>
<path d="M60.5998 33.416H46.6998C46.4611 33.416 46.2322 33.5106 46.0634 33.679C45.8946 33.8473 45.7998 34.0757 45.7998 34.3138V48.1791C45.7998 48.4172 45.8946 48.6456 46.0634 48.8139C46.2322 48.9823 46.4611 49.0769 46.6998 49.0769H60.5998C60.8385 49.0769 61.0674 48.9823 61.2362 48.8139C61.405 48.6456 61.4998 48.4172 61.4998 48.1791V34.3138C61.4998 34.0757 61.405 33.8473 61.2362 33.679C61.0674 33.5106 60.8385 33.416 60.5998 33.416ZM59.6998 47.2814H47.5998V35.3113H59.6998V47.2814Z" fill="#00007E"/>
<path d="M52.3001 44.9874C52.4851 45.191 52.7303 45.3308 53.0001 45.3864H53.1001C53.4001 45.2866 53.7001 45.1869 53.8001 44.8876L58.2001 38.0049C58.2719 37.902 58.3213 37.7852 58.3451 37.6621C58.3689 37.539 58.3666 37.4123 58.3384 37.2901C58.3101 37.168 58.2565 37.053 58.181 36.9528C58.1055 36.8526 58.0098 36.7692 57.9001 36.7081C57.8051 36.6377 57.6957 36.5893 57.5796 36.5662C57.4636 36.5431 57.3439 36.546 57.2291 36.5746C57.1144 36.6032 57.0074 36.6569 56.9159 36.7317C56.8244 36.8065 56.7507 36.9007 56.7001 37.0073L52.9001 42.8926L50.6001 40.0996C50.5306 39.998 50.4409 39.9117 50.3365 39.8461C50.2322 39.7805 50.1154 39.737 49.9935 39.7183C49.8716 39.6996 49.7472 39.7061 49.6279 39.7374C49.5086 39.7686 49.397 39.824 49.3001 39.9001C49.2056 39.977 49.1277 40.0722 49.0712 40.1799C49.0147 40.2877 48.9808 40.4058 48.9714 40.5271C48.962 40.6484 48.9775 40.7703 49.0168 40.8854C49.0561 41.0005 49.1185 41.1065 49.2001 41.1969L52.3001 44.9874Z" fill="#00007E"/>
<path d="M39.9001 64.2402H22.8001C22.5614 64.2402 22.3325 64.3348 22.1637 64.5032C21.9949 64.6715 21.9001 64.8999 21.9001 65.138C21.886 65.264 21.8988 65.3915 21.9376 65.5122C21.9765 65.633 22.0405 65.7441 22.1256 65.8383C22.2106 65.9326 22.3147 66.0078 22.4309 66.059C22.5472 66.1102 22.673 66.1363 22.8001 66.1355H39.9001C40.0272 66.1363 40.153 66.1102 40.2693 66.059C40.3856 66.0078 40.4896 65.9326 40.5746 65.8383C40.6597 65.7441 40.7237 65.633 40.7626 65.5122C40.8014 65.3915 40.8142 65.264 40.8001 65.138C40.8001 64.8999 40.7053 64.6715 40.5365 64.5032C40.3677 64.3348 40.1388 64.2402 39.9001 64.2402Z" fill="#091796"/>
<path d="M59.5996 11.3711H47.5996V23.3711H59.5996V11.3711Z" fill="#66C3CD"/>
<path d="M45.7998 24.3393C45.7998 24.5774 45.8946 24.8057 46.0634 24.9741C46.2322 25.1424 46.4611 25.237 46.6998 25.237H60.5998C60.8385 25.237 61.0674 25.1424 61.2362 24.9741C61.405 24.8057 61.4998 24.5774 61.4998 24.3393V10.4739C61.4998 10.356 61.4765 10.2393 61.4313 10.1304C61.3861 10.0215 61.3198 9.92248 61.2362 9.83912C61.1526 9.75575 61.0534 9.68963 60.9442 9.64451C60.835 9.59939 60.718 9.57617 60.5998 9.57617H46.6998C46.5816 9.57617 46.4646 9.59939 46.3554 9.64451C46.2462 9.68963 46.147 9.75575 46.0634 9.83912C45.9798 9.92248 45.9135 10.0215 45.8683 10.1304C45.8231 10.2393 45.7998 10.356 45.7998 10.4739V24.3393ZM47.5998 11.3717H59.6998V23.3418H47.5998V11.3717Z" fill="#00007E"/>
<path d="M47.5996 71.2222H59.6996V59.1523H47.5996V71.2222ZM49.2996 63.8406C49.3902 63.7592 49.4964 63.697 49.6119 63.6578C49.7273 63.6186 49.8495 63.6032 49.9711 63.6125C50.0926 63.6218 50.211 63.6557 50.3191 63.7121C50.4271 63.7684 50.5226 63.8461 50.5996 63.9404L52.8996 66.7334L56.6996 60.9479C56.7502 60.8412 56.8239 60.7471 56.9154 60.6722C57.0069 60.5974 57.1139 60.5437 57.2287 60.5151C57.3434 60.4865 57.4631 60.4836 57.5792 60.5067C57.6952 60.5298 57.8046 60.5782 57.8996 60.6486C58.0094 60.7097 58.1051 60.7931 58.1805 60.8933C58.256 60.9936 58.3096 61.1085 58.3379 61.2306C58.3661 61.3528 58.3684 61.4795 58.3446 61.6026C58.3208 61.7257 58.2714 61.8425 58.1996 61.9454L53.7996 68.8282C53.7288 68.9505 53.6267 69.0519 53.5037 69.122C53.3807 69.1922 53.2413 69.2284 53.0996 69.2272H52.9996C52.738 69.2137 52.4898 69.1076 52.2996 68.9279L49.1996 65.1374C49.118 65.047 49.0556 64.9411 49.0163 64.8259C48.977 64.7108 48.9616 64.5889 48.9709 64.4676C48.9803 64.3463 49.0142 64.2282 49.0707 64.1205C49.1272 64.0127 49.2051 63.9175 49.2996 63.8406Z" fill="white"/>
<path d="M60.5998 57.3574H46.6998C46.4611 57.3574 46.2322 57.452 46.0634 57.6204C45.8946 57.7887 45.7998 58.0171 45.7998 58.2552V72.1205C45.7998 72.3586 45.8946 72.587 46.0634 72.7553C46.2322 72.9237 46.4611 73.0183 46.6998 73.0183H60.5998C60.8385 73.0183 61.0674 72.9237 61.2362 72.7553C61.405 72.587 61.4998 72.3586 61.4998 72.1205V58.2552C61.4998 58.0171 61.405 57.7887 61.2362 57.6204C61.0674 57.452 60.8385 57.3574 60.5998 57.3574ZM59.6998 71.2228H47.5998V59.1529H59.6998V71.2228Z" fill="#00007E"/>
<path d="M52.3001 68.9269C52.4903 69.1066 52.7385 69.2127 53.0001 69.2261H53.1001C53.2417 69.2274 53.3812 69.1911 53.5042 69.121C53.6272 69.0509 53.7293 68.9495 53.8001 68.8271L58.2001 61.9443C58.2719 61.8414 58.3213 61.7246 58.3451 61.6015C58.3689 61.4784 58.3666 61.3517 58.3384 61.2296C58.3101 61.1074 58.2565 60.9925 58.181 60.8923C58.1055 60.792 58.0098 60.7087 57.9001 60.6475C57.8051 60.5772 57.6957 60.5287 57.5796 60.5056C57.4636 60.4826 57.3439 60.4854 57.2291 60.5141C57.1144 60.5427 57.0074 60.5963 56.9159 60.6712C56.8244 60.746 56.7507 60.8401 56.7001 60.9468L52.9001 66.7323L50.6001 63.9393C50.5231 63.845 50.4276 63.7674 50.3196 63.711C50.2115 63.6546 50.0931 63.6208 49.9715 63.6114C49.85 63.6021 49.7278 63.6175 49.6123 63.6567C49.4969 63.696 49.3907 63.7582 49.3001 63.8396C49.2056 63.9164 49.1277 64.0116 49.0712 64.1194C49.0147 64.2272 48.9808 64.3453 48.9714 64.4666C48.962 64.5878 48.9775 64.7097 49.0168 64.8249C49.0561 64.94 49.1185 65.046 49.2001 65.1363L52.3001 68.9269Z" fill="#00007E"/>
<path d="M39.9004 39.9004H22.8004C22.4291 39.9004 22.073 40.0475 21.8104 40.3094C21.5479 40.5713 21.4004 40.9265 21.4004 41.2969C21.4004 41.6673 21.5479 42.0225 21.8104 42.2844C22.073 42.5463 22.4291 42.6934 22.8004 42.6934H39.9004C40.2717 42.6934 40.6278 42.5463 40.8903 42.2844C41.1529 42.0225 41.3004 41.6673 41.3004 41.2969C41.3004 40.9265 41.1529 40.5713 40.8903 40.3094C40.6278 40.0475 40.2717 39.9004 39.9004 39.9004Z" fill="#00007E"/>
<path d="M22.8004 18.754H39.9004C40.2717 18.754 40.6278 18.6068 40.8903 18.3449C41.1529 18.083 41.3004 17.7278 41.3004 17.3574C41.3004 16.9871 41.1529 16.6319 40.8903 16.37C40.6278 16.1081 40.2717 15.9609 39.9004 15.9609H22.8004C22.4291 15.9609 22.073 16.1081 21.8104 16.37C21.5479 16.6319 21.4004 16.9871 21.4004 17.3574C21.4004 17.7278 21.5479 18.083 21.8104 18.3449C22.073 18.6068 22.4291 18.754 22.8004 18.754Z" fill="#00007E"/>
<path d="M39.9004 63.7402H22.8004C22.6165 63.7402 22.4345 63.7764 22.2646 63.8465C22.0948 63.9167 21.9404 64.0196 21.8104 64.1493C21.6804 64.2789 21.5773 64.4329 21.507 64.6023C21.4366 64.7718 21.4004 64.9534 21.4004 65.1367C21.3995 65.5169 21.5438 65.8831 21.8038 66.161C22.0638 66.4389 22.4202 66.6077 22.8004 66.633H39.9004C40.2806 66.6077 40.637 66.4389 40.897 66.161C41.157 65.8831 41.3012 65.5169 41.3004 65.1367C41.3004 64.7664 41.1529 64.4112 40.8903 64.1493C40.6278 63.8874 40.2717 63.7402 39.9004 63.7402Z" fill="#00007E"/>
<path d="M83.0996 49.0781H68.5996" stroke="#00007E" stroke-width="2" stroke-miterlimit="10"/>
</g>
<defs>
<clipPath id="clip0_1559_3061">
<rect width="120" height="120" fill="white"/>
</clipPath>
</defs>
</svg>
