<svg width="121" height="120" viewBox="0 0 121 120" fill="none" xmlns="http://www.w3.org/2000/svg">
<g clip-path="url(#clip0_1559_2905)">
<path d="M74.6004 118.9V98.9004H46.4004V118.9" fill="#66C3CD"/>
<path d="M74.6004 118.9V98.9004H46.4004V118.9" stroke="#00007E" stroke-width="3" stroke-linecap="round" stroke-linejoin="round"/>
<path d="M67.1996 103.4H5.09961C4.18842 103.4 3.31301 103.045 2.65943 102.41C2.00585 101.776 1.62564 100.911 1.59961 100V87H119.4V100C119.374 100.911 118.993 101.776 118.34 102.41C117.686 103.045 116.811 103.4 115.9 103.4H67.1996Z" fill="#2892FF" stroke="#00007E" stroke-width="2.26" stroke-linecap="round" stroke-linejoin="round"/>
<path d="M119.4 93.5992H1.59961V30.0992C1.59961 28.7997 2.11586 27.5533 3.03479 26.6344C3.95371 25.7155 5.20005 25.1992 6.49961 25.1992H114.4C115.038 25.1991 115.671 25.3265 116.26 25.5739C116.849 25.8214 117.383 26.1839 117.83 26.6403C118.277 27.0966 118.628 27.6377 118.863 28.2316C119.099 28.8256 119.213 29.4605 119.2 30.0992L119.4 93.5992Z" fill="white"/>
<path d="M119.4 94.6996H1.6C1.45555 94.6996 1.31251 94.6712 1.17905 94.6159C1.04559 94.5606 0.924327 94.4796 0.822183 94.3774C0.720038 94.2753 0.639013 94.154 0.583733 94.0206C0.528452 93.8871 0.5 93.7441 0.5 93.5996L0.5 30.0996C0.5 28.5083 1.13214 26.9822 2.25736 25.857C3.38258 24.7317 4.9087 24.0996 6.5 24.0996H114.4C115.991 24.0996 117.517 24.7317 118.643 25.857C119.768 26.9822 120.4 28.5083 120.4 30.0996V93.5996C120.393 93.8925 120.287 94.1744 120.1 94.3996C119.91 94.5798 119.662 94.6861 119.4 94.6996ZM2.8 92.3996H118.2V30.0996C118.2 29.1183 117.81 28.1772 117.116 27.4833C116.422 26.7894 115.481 26.3996 114.5 26.3996H6.5C6.01036 26.3858 5.52305 26.4721 5.06791 26.6531C4.61276 26.8342 4.19935 27.1062 3.85299 27.4526C3.50662 27.799 3.23458 28.2124 3.05352 28.6675C2.87247 29.1227 2.7862 29.61 2.8 30.0996V92.3996Z" fill="#00007E"/>
<rect x="34.5" y="113.5" width="53" height="5" rx="1.5" fill="#66C3CD" stroke="#00007E" stroke-width="3"/>
<path d="M101.8 17.0996H18.0996V93.2596H101.8V17.0996Z" fill="white" stroke="#00007E" stroke-width="2.31" stroke-linecap="round" stroke-linejoin="round"/>
<path d="M99.0996 1.09961H20.8996C20.5319 1.09961 20.1678 1.17203 19.8281 1.31275C19.4884 1.45346 19.1797 1.65971 18.9197 1.91971C18.6597 2.17971 18.4535 2.48838 18.3127 2.8281C18.172 3.16781 18.0996 3.53191 18.0996 3.89961V17.0996H101.8V3.89961C101.8 3.17401 101.519 2.47656 101.015 1.95424C100.512 1.43192 99.8247 1.12552 99.0996 1.09961Z" fill="#2892FF"/>
<path d="M101.8 18.2994H18.0997C17.9464 18.3 17.7947 18.2686 17.6543 18.2072C17.5139 18.1458 17.3878 18.0557 17.2842 17.9427C17.1807 17.8297 17.1019 17.6963 17.0529 17.5511C17.0039 17.4059 16.9857 17.252 16.9997 17.0994V3.8994C16.9859 3.3835 17.0774 2.8702 17.2685 2.3908C17.4596 1.91141 17.7464 1.47597 18.1113 1.11104C18.4762 0.746113 18.9117 0.459344 19.3911 0.268222C19.8705 0.0771013 20.3838 -0.014366 20.8997 -0.000601185H99.0997C99.6072 -0.000776961 100.11 0.100726 100.577 0.297917C101.045 0.495108 101.468 0.78399 101.823 1.14751C102.177 1.51104 102.455 1.94183 102.64 2.41447C102.825 2.88711 102.913 3.39202 102.9 3.8994V17.0994C102.914 17.252 102.895 17.4059 102.846 17.5511C102.797 17.6963 102.719 17.8297 102.615 17.9427C102.512 18.0557 102.385 18.1458 102.245 18.2072C102.105 18.2686 101.953 18.3 101.8 18.2994ZM19.1997 15.9994H100.7V3.8994C100.7 3.47505 100.531 3.06809 100.231 2.76803C99.931 2.46797 99.524 2.2994 99.0997 2.2994H20.8997C20.4656 2.29865 20.0477 2.46396 19.7316 2.76146C19.4155 3.05895 19.2252 3.46608 19.1997 3.8994V15.9994Z" fill="#00007E"/>
<path d="M43.1321 71.4599L67.7086 46.5273C67.1605 44.8248 67.1268 42.995 67.6118 41.2729C68.0967 39.5508 69.0783 38.0151 70.4303 36.863C71.7824 35.7109 73.4432 34.995 75.1994 34.8073C76.9556 34.6196 78.7271 34.9686 80.2863 35.8095L75.3412 40.8246C74.3323 41.8477 74.2248 43.5334 75.2089 44.5817C75.4472 44.8402 75.7344 45.0473 76.0534 45.1907C76.3724 45.3341 76.7166 45.4108 77.0655 45.4163C77.4144 45.4218 77.7607 45.3559 78.084 45.2226C78.4072 45.0893 78.7006 44.8913 78.9466 44.6404L83.9744 39.5499C84.7977 41.1319 85.1369 42.9271 84.9486 44.7057C84.7603 46.4843 84.0531 48.1655 82.9175 49.5343C81.7818 50.903 80.2693 51.8971 78.5735 52.3893C76.8777 52.8814 75.0756 52.8493 73.3979 52.2971L48.8214 77.2297C48.4481 77.6091 48.0047 77.91 47.5166 78.1154C47.0285 78.3207 46.5052 78.4264 45.9768 78.4264C45.4483 78.4264 44.9251 78.3207 44.4369 78.1154C43.9488 77.91 43.5054 77.6091 43.1321 77.2297C42.7581 76.8511 42.4613 76.4015 42.2588 75.9064C42.0564 75.4114 41.9521 74.8807 41.9521 74.3448C41.9521 73.8089 42.0564 73.2782 42.2588 72.7832C42.4613 72.2882 42.7581 71.8385 43.1321 71.4599Z" fill="#2892FF" stroke="#00007E" stroke-width="2" stroke-linecap="round" stroke-linejoin="round"/>
<path d="M76.185 78.0588L80.6835 73.4966C80.8088 73.371 80.9082 73.2215 80.9761 73.0566C81.044 72.8918 81.0789 72.715 81.0789 72.5364C81.0789 72.3577 81.044 72.1809 80.9761 72.016C80.9082 71.8512 80.8088 71.7017 80.6835 71.5761L49.2766 39.7164L41.3628 36.8902C41.1855 36.8262 40.9939 36.8148 40.8104 36.8571C40.6269 36.8994 40.4591 36.9937 40.3265 37.1291C40.1938 37.2645 40.1019 37.4353 40.0614 37.6217C40.0208 37.8081 40.0334 38.0023 40.0976 38.1817L42.8761 46.199L74.2913 78.0588C74.5425 78.3133 74.8831 78.4562 75.2382 78.4562C75.5932 78.4562 75.9338 78.3133 76.185 78.0588Z" fill="#66C3CD" stroke="#00007E" stroke-width="2" stroke-linecap="round" stroke-linejoin="round"/>
<path d="M42.8761 46.199C44.4886 44.5805 46.1425 46.2745 47.7467 44.6559C49.351 43.0374 47.6806 41.3433 49.2766 39.7164L41.3628 36.8902C41.1855 36.8262 40.9939 36.8148 40.8104 36.8571C40.6269 36.8994 40.4591 36.9937 40.3265 37.1291C40.1938 37.2645 40.1019 37.4353 40.0614 37.6217C40.0208 37.8081 40.0334 38.0023 40.0976 38.1817L42.8761 46.199Z" fill="#66C3CD" stroke="#00007E" stroke-width="2" stroke-linecap="round" stroke-linejoin="round"/>
<path d="M50.8975 47.8535L68.9908 66.1945" stroke="#00007E" stroke-width="2" stroke-linecap="round" stroke-linejoin="round"/>
<path d="M70.4209 74.1356L76.8131 67.6445L80.6831 71.5777C80.8084 71.7033 80.9079 71.8528 80.9757 72.0177C81.0436 72.1825 81.0786 72.3593 81.0786 72.538C81.0786 72.7166 81.0436 72.8934 80.9757 73.0583C80.9079 73.2231 80.8084 73.3726 80.6831 73.4982L76.1846 78.0604C75.9334 78.3149 75.5929 78.4579 75.2378 78.4579C74.8827 78.4579 74.5421 78.3149 74.291 78.0604L70.4209 74.1356Z" fill="white" stroke="#00007E" stroke-width="2" stroke-linecap="round" stroke-linejoin="round"/>
<path d="M79.2613 70.1328L76.0693 73.3699" stroke="#00007E" stroke-width="2" stroke-linecap="round" stroke-linejoin="round"/>
<path d="M45.0261 38.1984C45.0269 39.1755 44.6463 40.1131 43.9676 40.8066C43.2796 41.4997 42.3491 41.8886 41.3793 41.8884C40.7178 39.9847 40.0976 38.1817 40.0976 38.1817C40.0334 38.0023 40.0208 37.8081 40.0614 37.6217C40.1019 37.4353 40.1938 37.2645 40.3265 37.1291C40.4591 36.9937 40.6269 36.8994 40.8104 36.8571C40.9939 36.8148 41.1855 36.8262 41.3628 36.8902L45.0261 38.1984Z" fill="#66C3CD" stroke="#00007E" stroke-width="2" stroke-linecap="round" stroke-linejoin="round"/>
</g>
<defs>
<clipPath id="clip0_1559_2905">
<rect width="120" height="120" fill="white" transform="translate(0.5)"/>
</clipPath>
</defs>
</svg>
