<svg width="86" height="97" viewBox="0 0 86 97" fill="none" xmlns="http://www.w3.org/2000/svg">
<path d="M2.32617 14.1848H80.8772V5.55874C80.8763 4.69911 80.5344 3.87496 79.9266 3.26711C79.3187 2.65926 78.4945 2.31735 77.6349 2.31641H5.5685C4.70887 2.31735 3.88473 2.65926 3.27688 3.26711C2.66902 3.87496 2.32711 4.69911 2.32617 5.55874V14.1848ZM69.4243 4.83073C70.359 4.83167 71.255 5.20361 71.9156 5.86484C72.5762 6.52607 72.9472 7.42251 72.9472 8.35716C72.9463 9.2912 72.5748 10.1867 71.9143 10.8472C71.2539 11.5076 70.3584 11.8791 69.4243 11.88C68.4903 11.8791 67.5948 11.5076 66.9343 10.8472C66.2738 10.1867 65.9024 9.2912 65.9014 8.35716C65.9014 7.42251 66.2725 6.52607 66.933 5.86484C67.5936 5.20361 68.4897 4.83167 69.4243 4.83073ZM60.191 4.83073C61.1256 4.83167 62.0217 5.20361 62.6822 5.86484C63.3428 6.52607 63.7139 7.42251 63.7138 8.35716C63.7129 9.2912 63.3414 10.1867 62.681 10.8472C62.0205 11.5076 61.125 11.8791 60.191 11.88C59.2569 11.8791 58.3614 11.5076 57.7009 10.8472C57.0405 10.1867 56.669 9.2912 56.6681 8.35716C56.668 7.42312 57.0386 6.52723 57.6984 5.8661C58.3582 5.20496 59.2534 4.83261 60.1874 4.83073H60.191Z" fill="white"/>
<path d="M50.8901 48.1452C52.7828 46.2418 55.0341 44.7325 57.5138 43.7048C59.9936 42.677 62.6525 42.1512 65.3368 42.1578C68.0202 42.1512 70.6783 42.6767 73.1574 43.7038C75.6365 44.7309 77.8874 46.2393 79.7799 48.1417C80.1634 48.5252 80.5257 48.9265 80.8701 49.3314V15.9492H2.32617V68.4657C2.32711 69.3254 2.66902 70.1495 3.27688 70.7574C3.88473 71.3652 4.70887 71.7071 5.5685 71.7081H47.0512C45.1505 67.8715 44.4987 63.5361 45.1871 59.3102C45.8756 55.0844 47.8699 51.1801 50.8901 48.1452ZM46.5362 32.0721C46.5358 31.9561 46.5582 31.8412 46.6022 31.734C46.6463 31.6267 46.7111 31.5292 46.7929 31.447C46.8748 31.3649 46.972 31.2997 47.0791 31.2552C47.1862 31.2107 47.301 31.1878 47.417 31.1878H53.6566C53.8911 31.1878 54.116 31.281 54.2819 31.4468C54.4477 31.6126 54.5408 31.8376 54.5408 32.0721V37.8891H56.5473V22.3522C56.5473 22.2362 56.5702 22.1214 56.6147 22.0143C56.6592 21.9072 56.7244 21.81 56.8066 21.7282C56.8887 21.6463 56.9862 21.5816 57.0935 21.5375C57.2007 21.4934 57.3156 21.471 57.4316 21.4715H63.6641C63.8977 21.4715 64.1217 21.5643 64.2869 21.7294C64.4521 21.8946 64.5448 22.1186 64.5448 22.3522V37.8891H66.5442V28.4711C66.5438 28.3551 66.5662 28.2402 66.6102 28.1329C66.6543 28.0257 66.7191 27.9282 66.8009 27.846C66.8827 27.7639 66.98 27.6987 67.0871 27.6542C67.1942 27.6097 67.309 27.5868 67.4249 27.5868H73.6646C73.8991 27.5868 74.124 27.68 74.2898 27.8458C74.4557 28.0116 74.5489 28.2366 74.5489 28.4711V38.7698C74.5489 39.0044 74.4557 39.2293 74.2898 39.3951C74.124 39.5609 73.8991 39.6541 73.6646 39.6541H47.4063C47.2903 39.6541 47.1755 39.6312 47.0684 39.5867C46.9614 39.5422 46.8641 39.477 46.7823 39.3949C46.7005 39.3127 46.6357 39.2152 46.5916 39.1079C46.5476 39.0007 46.5251 38.8858 46.5256 38.7698L46.5362 32.0721ZM40.0764 61.5478C39.7421 61.961 39.3194 62.2938 38.8394 62.5218C38.3594 62.7499 37.8343 62.8673 37.3029 62.8654H11.4992C10.9683 62.8667 10.4439 62.7491 9.96457 62.5211C9.4852 62.2931 9.06306 61.9605 8.72916 61.5478C8.39389 61.138 8.15452 60.6584 8.02855 60.1441C7.90259 59.6297 7.89323 59.0938 8.00115 58.5754C8.79342 54.8087 10.8547 51.4281 13.8405 48.9989C16.8263 46.5697 20.5555 45.2391 24.4046 45.2296C28.2533 45.2404 31.9819 46.5715 34.9674 49.0005C37.9529 51.4295 40.0145 54.8093 40.808 58.5754C40.9154 59.094 40.9055 59.6302 40.7789 60.1445C40.6523 60.6588 40.4123 61.1383 40.0764 61.5478ZM40.5487 38.6526C40.2152 39.066 39.7932 39.3992 39.3138 39.6278C38.8344 39.8565 38.3099 39.9747 37.7787 39.9737H11.9715C11.4398 39.9752 10.9145 39.8573 10.4345 39.6286C9.95443 39.4 9.53186 39.0664 9.19794 38.6526C8.86626 38.2417 8.6304 37.762 8.50753 37.2484C8.38467 36.7348 8.37788 36.2003 8.48768 35.6838C9.28055 31.9174 11.3421 28.5371 14.3277 26.1081C17.3133 23.679 21.0422 22.3481 24.8911 22.338C28.74 22.3481 32.4689 23.679 35.4545 26.1081C38.4401 28.5371 40.5017 31.9174 41.2945 35.6838C41.3995 36.2029 41.387 36.739 41.2579 37.2527C41.1289 37.7664 40.8866 38.2447 40.5487 38.6526Z" fill="white"/>
<path d="M69.4258 10.112C69.8931 10.1121 70.3416 9.92791 70.674 9.5995C71.0063 9.2711 71.1959 8.82491 71.2015 8.35768C71.2015 7.88675 71.0144 7.43511 70.6814 7.10211C70.3484 6.76911 69.8968 6.58203 69.4258 6.58203C68.958 6.58671 68.5109 6.77584 68.1817 7.10833C67.8526 7.44082 67.6679 7.88981 67.668 8.35768C67.6735 8.82185 67.8606 9.2654 68.1892 9.5933C68.5177 9.92121 68.9617 10.1074 69.4258 10.112Z" fill="white"/>
<path d="M69.4272 11.8813C70.3612 11.8804 71.2568 11.5089 71.9172 10.8485C72.5777 10.188 72.9492 9.2925 72.9501 8.35846C72.9501 7.42381 72.579 6.52737 71.9185 5.86614C71.2579 5.20491 70.3618 4.83297 69.4272 4.83203C68.4925 4.83297 67.5965 5.20491 66.9359 5.86614C66.2753 6.52737 65.9043 7.42381 65.9043 8.35846C65.9052 9.2925 66.2767 10.188 66.9372 10.8485C67.5976 11.5089 68.4932 11.8804 69.4272 11.8813ZM69.4272 6.60057C69.8981 6.60057 70.3498 6.78765 70.6828 7.12065C71.0158 7.45365 71.2028 7.90528 71.2028 8.37622C71.1972 8.84344 71.0077 9.28964 70.6753 9.61804C70.3429 9.94644 69.8945 10.1306 69.4272 10.1306C68.963 10.1259 68.5191 9.93975 68.1905 9.61184C67.862 9.28393 67.6749 8.84039 67.6693 8.37622C67.6693 7.90834 67.8539 7.45938 68.1831 7.12689C68.5122 6.7944 68.9593 6.60525 69.4272 6.60057Z" fill="#091796"/>
<path d="M60.1876 10.112C60.6548 10.1121 61.1033 9.92791 61.4357 9.5995C61.7681 9.2711 61.9576 8.82491 61.9632 8.35768C61.9632 7.88675 61.7761 7.43511 61.4431 7.10211C61.1101 6.76911 60.6585 6.58203 60.1876 6.58203C59.7197 6.58671 59.2726 6.77584 58.9435 7.10833C58.6143 7.44082 58.4297 7.88981 58.4297 8.35768C58.4352 8.82185 58.6223 9.2654 58.9509 9.5933C59.2795 9.92121 59.7234 10.1074 60.1876 10.112Z" fill="white"/>
<path d="M60.1889 11.8813C61.1229 11.8804 62.0184 11.5089 62.6789 10.8485C63.3394 10.188 63.7108 9.2925 63.7118 8.35846C63.7118 7.42381 63.3407 6.52737 62.6802 5.86614C62.0196 5.20491 61.1235 4.83297 60.1889 4.83203C59.2542 4.83297 58.3582 5.20491 57.6976 5.86614C57.037 6.52737 56.666 7.42381 56.666 8.35846C56.667 9.2925 57.0384 10.188 57.6988 10.8485C58.3593 11.5089 59.2548 11.8804 60.1889 11.8813ZM60.1889 6.60057C60.6598 6.60057 61.1114 6.78765 61.4444 7.12065C61.7774 7.45365 61.9645 7.90528 61.9645 8.37622C61.9589 8.84344 61.7694 9.28964 61.437 9.61804C61.1046 9.94644 60.6561 10.1306 60.1889 10.1306C59.7247 10.1259 59.2808 9.93975 58.9522 9.61184C58.6236 9.28393 58.4365 8.84039 58.431 8.37622C58.431 7.90834 58.6156 7.45938 58.9448 7.12689C59.274 6.7944 59.721 6.60525 60.1889 6.60057Z" fill="#091796"/>
<path d="M24.8747 24.1094C21.4316 24.117 18.0956 25.3067 15.4245 27.4793C12.7534 29.652 10.9094 32.6759 10.2008 36.0453C10.1442 36.3052 10.1467 36.5745 10.2082 36.8332C10.2697 37.092 10.3885 37.3337 10.5559 37.5404C10.7266 37.7521 10.9431 37.9222 11.1892 38.0378C11.4353 38.1535 11.7045 38.2117 11.9764 38.208H19.7147C19.7336 38.0241 19.7632 37.8415 19.8035 37.6611L14.6612 35.2249C14.5564 35.1754 14.4623 35.1057 14.3845 35.0198C14.3066 34.9339 14.2465 34.8334 14.2076 34.7242C14.1686 34.615 14.1516 34.4992 14.1576 34.3834C14.1635 34.2676 14.1922 34.1541 14.2421 34.0494C14.2916 33.9446 14.3613 33.8506 14.4473 33.7727C14.5332 33.6949 14.6336 33.6347 14.7429 33.5958C14.8521 33.5569 14.9679 33.5399 15.0837 33.5458C15.1995 33.5518 15.313 33.5805 15.4176 33.6304L20.4747 36.024C20.9413 35.2768 21.5903 34.6605 22.3606 34.2331C23.131 33.8057 23.9973 33.5812 24.8783 33.5807C26.1562 33.5813 27.3892 34.0522 28.3422 34.9037C29.2952 35.7551 29.9015 36.9276 30.0454 38.1974H37.7801C38.0486 38.1991 38.3141 38.14 38.5564 38.0243C38.7988 37.9087 39.0118 37.7396 39.1793 37.5297C39.3467 37.323 39.4655 37.0813 39.527 36.8226C39.5885 36.5638 39.591 36.2945 39.5345 36.0346C38.8242 32.6696 36.9813 29.6499 34.3134 27.4796C31.6455 25.3094 28.3139 24.1198 24.8747 24.1094Z" fill="#66C3CD"/>
<path d="M24.8736 22.3398C21.0247 22.35 17.2958 23.6808 14.3102 26.1099C11.3246 28.539 9.26306 31.9192 8.47019 35.6856C8.36039 36.2021 8.36717 36.7367 8.49004 37.2502C8.61291 37.7638 8.84877 38.2436 9.18044 38.6545C9.51436 39.0683 9.93694 39.4018 10.417 39.6305C10.897 39.8591 11.4223 39.977 11.954 39.9756H37.779C38.3101 39.9765 38.8347 39.8583 39.3141 39.6297C39.7935 39.4011 40.2155 39.0678 40.549 38.6545C40.8838 38.2451 41.1229 37.766 41.2488 37.2524C41.3748 36.7387 41.3844 36.2035 41.277 35.6856C40.4842 31.9192 38.4227 28.539 35.437 26.1099C32.4514 23.6808 28.7226 22.35 24.8736 22.3398ZM39.1782 37.5394C39.0107 37.7492 38.7977 37.9183 38.5553 38.034C38.313 38.1496 38.0476 38.2088 37.779 38.207H30.0408C29.8968 36.9372 29.2906 35.7648 28.3376 34.9133C27.3846 34.0619 26.1516 33.5909 24.8736 33.5903C23.9927 33.5909 23.1263 33.8154 22.356 34.2428C21.5857 34.6702 20.9367 35.2864 20.47 36.0336L15.4059 33.6294C15.3012 33.5795 15.1877 33.5508 15.0719 33.5448C14.9561 33.5389 14.8403 33.5559 14.7311 33.5948C14.6219 33.6337 14.5214 33.6939 14.4355 33.7717C14.3496 33.8496 14.2799 33.9436 14.2304 34.0484C14.1805 34.1531 14.1518 34.2666 14.1458 34.3824C14.1399 34.4982 14.1569 34.614 14.1958 34.7232C14.2347 34.8324 14.2948 34.9329 14.3727 35.0188C14.4505 35.1047 14.5446 35.1744 14.6494 35.2239L19.7988 37.653C19.7586 37.8334 19.7289 38.016 19.71 38.1999H11.9718C11.6999 38.2036 11.4307 38.1454 11.1846 38.0298C10.9385 37.9141 10.7219 37.744 10.5513 37.5323C10.3839 37.3256 10.2651 37.0839 10.2036 36.8251C10.1421 36.5663 10.1396 36.2971 10.1961 36.0372C10.9048 32.6678 12.7488 29.6439 15.4199 27.4712C18.0909 25.2986 21.427 24.1089 24.8701 24.1013C28.316 24.1068 31.6553 25.2964 34.3287 27.4706C37.0021 29.6449 38.8471 32.6718 39.5547 36.0443C39.6083 36.3057 39.6024 36.576 39.5372 36.8348C39.472 37.0937 39.3493 37.3345 39.1782 37.5394ZM24.8736 35.3447C25.6295 35.3454 26.3641 35.5952 26.9637 36.0555C27.5634 36.5158 27.9945 37.1609 28.1905 37.8909H21.5567C21.7533 37.1612 22.1846 36.5164 22.7841 36.0562C23.3835 35.596 24.1179 35.346 24.8736 35.3447Z" fill="#091796"/>
<path d="M24.8755 35.3438C24.1197 35.345 23.3854 35.5951 22.7859 36.0553C22.1865 36.5155 21.7551 37.1603 21.5586 37.89H28.1924C27.9964 37.16 27.5652 36.5149 26.9656 36.0546C26.366 35.5943 25.6314 35.3444 24.8755 35.3438Z" fill="white"/>
<path d="M24.4026 47C20.9589 47.0068 17.622 48.1961 14.9502 50.3688C12.2784 52.5415 10.4339 55.5659 9.7251 58.9359C9.66952 59.1964 9.67255 59.466 9.73397 59.7252C9.79539 59.9844 9.91366 60.2267 10.0802 60.4345C10.2519 60.6448 10.4688 60.8137 10.7147 60.9286C10.9607 61.0436 11.2293 61.1017 11.5007 61.0986H19.239C19.3829 59.8288 19.9892 58.6564 20.9422 57.8049C21.8952 56.9535 23.1282 56.4825 24.4062 56.4819C25.2871 56.4825 26.1535 56.707 26.9238 57.1344C27.6941 57.5618 28.3431 58.1781 28.8098 58.9252L33.8739 56.521C33.9786 56.4711 34.092 56.4424 34.2078 56.4364C34.3236 56.4305 34.4395 56.4475 34.5487 56.4864C34.6579 56.5254 34.7583 56.5855 34.8443 56.6633C34.9302 56.7412 34.9999 56.8352 35.0494 56.9401C35.0993 57.0447 35.128 57.1582 35.134 57.274C35.1399 57.3898 35.1229 57.5056 35.084 57.6148C35.045 57.724 34.9849 57.8245 34.9071 57.9104C34.8292 57.9963 34.7352 58.0661 34.6303 58.1155L29.4881 60.5517C29.5271 60.7329 29.5555 60.9069 29.5768 61.0986H37.3151C37.587 61.1023 37.8562 61.0441 38.1023 60.9285C38.3484 60.8128 38.565 60.6427 38.7356 60.431C38.903 60.2243 39.0218 59.9826 39.0833 59.7238C39.1448 59.4651 39.1473 59.1958 39.0907 58.9359C38.381 55.5644 36.5347 52.5391 33.8608 50.3663C31.187 48.1934 27.848 47.0051 24.4026 47Z" fill="#70ADFF"/>
<path d="M24.4018 45.2305C20.5527 45.24 16.8235 46.5706 13.8377 48.9998C10.852 51.429 8.79064 54.8095 7.99838 58.5762C7.89045 59.0946 7.89981 59.6306 8.02578 60.1449C8.15174 60.6592 8.39112 61.1388 8.72639 61.5487C9.06066 61.9618 9.48338 62.2947 9.9634 62.5227C10.4434 62.7507 10.9685 62.8681 11.5 62.8662H37.3072C37.8386 62.8681 38.3637 62.7507 38.8437 62.5227C39.3238 62.2947 39.7465 61.9618 40.0808 61.5487C40.4129 61.1373 40.6491 60.657 40.772 60.1428C40.8949 59.6285 40.9014 59.0933 40.791 58.5762C39.998 54.8125 37.9385 51.4345 34.9559 49.0058C31.9733 46.5771 28.2481 45.2445 24.4018 45.2305ZM38.7064 60.43C38.5357 60.6417 38.3192 60.8118 38.0731 60.9275C37.827 61.0431 37.5578 61.1013 37.2859 61.0976H29.5654C29.5441 60.913 29.5157 60.7425 29.4766 60.5508L34.6189 58.1146C34.7237 58.0651 34.8178 57.9954 34.8956 57.9094C34.9735 57.8235 35.0336 57.7231 35.0725 57.6138C35.1114 57.5046 35.1284 57.3888 35.1225 57.273C35.1166 57.1572 35.0878 57.0437 35.0379 56.9391C34.9884 56.8342 34.9187 56.7402 34.8328 56.6623C34.7469 56.5845 34.6464 56.5244 34.5372 56.4854C34.428 56.4465 34.3122 56.4295 34.1964 56.4355C34.0806 56.4414 33.9671 56.4701 33.8624 56.52L28.8054 58.9136C28.3387 58.1664 27.6897 57.5502 26.9194 57.1228C26.1491 56.6953 25.2828 56.4708 24.4018 56.4703C23.1239 56.4709 21.8908 56.9418 20.9378 57.7933C19.9849 58.6447 19.3786 59.8172 19.2347 61.087H11.5C11.2285 61.0901 10.9599 61.032 10.7139 60.917C10.468 60.802 10.2511 60.6332 10.0794 60.4229C9.91286 60.215 9.79459 59.9727 9.73317 59.7136C9.67175 59.4544 9.66872 59.1848 9.7243 58.9243C10.4329 55.5549 12.277 52.531 14.948 50.3583C17.6191 48.1856 20.9552 46.996 24.3983 46.9884C27.8412 46.9967 31.1769 48.1865 33.8478 50.3591C36.5187 52.5316 38.363 55.5552 39.0722 58.9243C39.129 59.1866 39.1256 59.4583 39.0622 59.7191C38.9989 59.9799 38.8772 60.223 38.7064 60.43ZM27.6974 60.7851H21.0884C21.2844 60.0551 21.7156 59.41 22.3152 58.9497C22.9148 58.4894 23.6494 58.2396 24.4054 58.2389C25.1596 58.2409 25.8922 58.4909 26.4903 58.9504C27.0884 59.4099 27.5188 60.0534 27.7151 60.7816L27.6974 60.7851Z" fill="#091796"/>
<path d="M24.4009 58.25C23.645 58.2507 22.9104 58.5005 22.3108 58.9608C21.7112 59.4211 21.28 60.0662 21.084 60.7963H27.7142C27.5184 60.0668 27.0878 59.4221 26.4889 58.9619C25.89 58.5017 25.1562 58.2515 24.4009 58.25Z" fill="white"/>
<path d="M52.7738 32.9531H48.3027V37.8859H52.7738V32.9531Z" fill="#66C3CD"/>
<path d="M62.7859 23.2383H58.3184V37.8909H62.7859V23.2383Z" fill="#66C3CD"/>
<path d="M72.7914 29.3516H68.3203V37.8853H72.7914V29.3516Z" fill="#66C3CD"/>
<path d="M47.4179 39.6553H73.6761C73.9106 39.6553 74.1356 39.5621 74.3014 39.3963C74.4672 39.2305 74.5604 39.0055 74.5604 38.771V28.4723C74.5604 28.2377 74.4672 28.0128 74.3014 27.847C74.1356 27.6811 73.9106 27.588 73.6761 27.588H67.4365C67.3205 27.588 67.2057 27.6109 67.0986 27.6554C66.9915 27.6999 66.8943 27.765 66.8125 27.8472C66.7306 27.9294 66.6659 28.0269 66.6218 28.1341C66.5778 28.2414 66.5553 28.3563 66.5558 28.4723V37.8903H64.5457V22.3534C64.5457 22.1198 64.453 21.8958 64.2878 21.7306C64.1226 21.5655 63.8986 21.4727 63.665 21.4727H57.4325C57.3165 21.4722 57.2016 21.4946 57.0943 21.5387C56.9871 21.5827 56.8896 21.6475 56.8075 21.7294C56.7253 21.8112 56.6601 21.9084 56.6156 22.0155C56.5711 22.1226 56.5482 22.2374 56.5482 22.3534V37.8903H54.5417V32.0733C54.5417 31.8387 54.4486 31.6138 54.2827 31.448C54.1169 31.2822 53.892 31.189 53.6575 31.189H47.4179C47.3019 31.189 47.1871 31.2119 47.08 31.2564C46.9729 31.3009 46.8756 31.3661 46.7938 31.4482C46.712 31.5304 46.6472 31.6279 46.6031 31.7352C46.5591 31.8424 46.5366 31.9573 46.5371 32.0733V38.771C46.5366 38.887 46.5591 39.0019 46.6031 39.1091C46.6472 39.2164 46.712 39.3139 46.7938 39.3961C46.8756 39.4782 46.9729 39.5434 47.08 39.5879C47.1871 39.6324 47.3019 39.6553 47.4179 39.6553ZM52.7732 37.8796H48.3021V32.9433H52.7732V37.8796ZM62.7808 23.227V37.8796H58.3132V23.227H62.7808ZM72.7918 29.3423V37.8654H68.3208V29.3423H72.7918Z" fill="#091796"/>
<path d="M78.5388 49.3913C76.8106 47.6528 74.7547 46.2746 72.49 45.3364C70.2253 44.3982 67.797 43.9188 65.3457 43.9259C62.8932 43.9193 60.4636 44.3993 58.1978 45.338C55.932 46.2768 53.8749 47.6557 52.1456 49.3948C48.9532 52.5986 47.0294 56.8503 46.7304 61.3632C46.4314 65.876 47.7773 70.3444 50.5191 73.9414L50.9914 74.5558L47.014 78.5439L49.4004 80.9303L53.3885 76.9458L54.0029 77.4146C57.5995 80.1568 62.0676 81.5033 66.5805 81.2049C71.0933 80.9066 75.3453 78.9835 78.5495 75.7916C82.0443 72.2868 84.006 67.5387 84.004 62.5892C84.002 57.6398 82.0365 52.8933 78.5388 49.3913ZM54.3012 73.185C51.4378 70.316 49.8296 66.4282 49.8296 62.3748C49.8296 58.3214 51.4378 54.4336 54.3012 51.5647C57.1708 48.701 61.0591 47.0928 65.1131 47.0928C69.1671 47.0928 73.0555 48.701 75.9251 51.5647C77.3468 52.9802 78.4738 54.6634 79.2413 56.517C80.0087 58.3706 80.4012 60.358 80.3961 62.3642C80.4007 64.3706 80.0077 66.3581 79.2397 68.2117C78.4716 70.0654 77.3438 71.7484 75.9215 73.1637C74.5058 74.5851 72.8234 75.7131 70.9708 76.4828C69.1181 77.2525 67.1317 77.6488 65.1256 77.6489C63.1147 77.6521 61.123 77.2575 59.2653 76.4877C57.4076 75.7179 55.7205 74.5882 54.3012 73.1637V73.185Z" fill="#66C3CD"/>
<path d="M82.6471 51.7366V5.56981C82.6452 4.24175 82.1166 2.96869 81.1771 2.02994C80.2377 1.09119 78.9643 0.563439 77.6362 0.5625H5.56982C4.24237 0.564379 2.96983 1.09253 2.03118 2.03118C1.09253 2.96983 0.564379 4.24237 0.5625 5.56981V68.4774C0.563441 69.8052 1.09129 71.0783 2.03014 72.0171C2.96899 72.956 4.24208 73.4838 5.56982 73.4848H48.0433C48.2386 73.7973 48.4375 74.1027 48.6541 74.4045L45.7492 77.306L45.5787 77.1355C45.3603 76.911 45.0991 76.7325 44.8106 76.6106C44.5221 76.4886 44.2121 76.4256 43.8989 76.4252C43.5901 76.4237 43.284 76.4832 42.9982 76.6002C42.7124 76.7172 42.4525 76.8895 42.2334 77.1071L33.0817 85.9143C32.4955 86.5028 32.0357 87.2048 31.7303 87.9773C31.425 88.7497 31.2806 89.5764 31.3061 90.4067C31.3306 91.2393 31.5273 92.0579 31.8836 92.8108C32.2399 93.5638 32.7482 94.2349 33.3764 94.7819C34.4655 95.7315 35.8628 96.2528 37.3077 96.2486C38.1373 96.2474 38.9586 96.0828 39.7245 95.7641C40.4905 95.4454 41.1861 94.9789 41.7717 94.3912L50.8097 85.7048C51.2552 85.2592 51.5054 84.655 51.5054 84.025C51.5054 83.395 51.2552 82.7908 50.8097 82.3452L50.6357 82.1712L53.5371 79.2698C56.981 81.704 61.096 83.0082 65.3132 83.0022C67.9996 83.0067 70.6605 82.4814 73.1437 81.4565C75.6269 80.4315 77.8837 78.927 79.7848 77.029C83.0476 73.7556 85.1064 69.4743 85.6261 64.8819C86.1459 60.2895 85.0959 55.6563 82.6471 51.7366ZM53.9882 77.4267L53.3738 76.9579L49.3857 80.9425L46.9992 78.556L50.9873 74.5679L50.515 73.9535C47.7732 70.3566 46.4273 65.8882 46.7263 61.3753C47.0253 56.8625 48.9491 52.6107 52.1415 49.407C53.8708 47.6678 55.9279 46.2889 58.1937 45.3502C60.4595 44.4114 62.8891 43.9314 65.3416 43.938C67.7929 43.9309 70.2213 44.4104 72.4859 45.3485C74.7506 46.2867 76.8065 47.665 78.5347 49.4034C82.0309 52.9068 83.9945 57.6541 83.9945 62.6036C83.9945 67.5531 82.0309 72.3004 78.5347 75.8037C75.3305 78.9956 71.0785 80.9187 66.5657 81.2171C62.0528 81.5155 57.5847 80.1689 53.9882 77.4267ZM34.5271 93.475C34.0801 93.0879 33.7186 92.6121 33.4654 92.0777C33.2123 91.5434 33.0732 90.9622 33.0568 90.3712C33.0338 89.7807 33.1333 89.1919 33.3491 88.6418C33.5648 88.0918 33.8921 87.5923 34.3104 87.175L43.4692 78.3678C43.584 78.2554 43.7383 78.1925 43.8989 78.1925C44.0596 78.1925 44.2138 78.2554 44.3286 78.3678L49.5632 83.6024C49.6733 83.7163 49.7347 83.8684 49.7347 84.0268C49.7347 84.1851 49.6733 84.3373 49.5632 84.4511L40.5252 93.1376C39.7516 93.9397 38.7031 94.4193 37.5904 94.4799C36.4776 94.5405 35.3832 94.1777 34.5271 93.4643V93.475ZM2.32748 68.4774V15.9503H80.8785V49.3324C80.5234 48.9276 80.1683 48.5263 79.7883 48.1427C77.8958 46.2403 75.6449 44.7319 73.1658 43.7048C70.6867 42.6777 68.0286 42.1523 65.3452 42.1588C62.6609 42.1522 60.002 42.6781 57.5222 43.7058C55.0425 44.7335 52.7912 46.2428 50.8985 48.1463C47.8783 51.1811 45.8841 55.0854 45.1956 59.3113C44.5071 63.5371 45.1589 67.8725 47.0596 71.7091H5.56982C4.71018 71.7082 3.88604 71.3663 3.27819 70.7584C2.67033 70.1506 2.32842 69.3264 2.32748 68.4668V68.4774ZM5.56982 2.31684H77.6362C78.4958 2.31778 79.32 2.65969 79.9279 3.26754C80.5357 3.87539 80.8776 4.69954 80.8785 5.55917V14.1853H2.32748V5.55917C2.32842 4.69954 2.67033 3.87539 3.27819 3.26754C3.88604 2.65969 4.71018 2.31778 5.56982 2.31684Z" fill="#091796"/>
<path d="M74.6762 71.9282C75.9331 70.6738 76.929 69.1828 77.6062 67.5413C78.2834 65.8998 78.6286 64.1403 78.6217 62.3646C78.6282 60.5883 78.2822 58.8283 77.6038 57.1867C76.9253 55.5451 75.9278 54.0544 74.6691 52.8009C72.1302 50.2693 68.6909 48.8477 65.1055 48.8477C61.52 48.8477 58.0808 50.2693 55.5419 52.8009C53.0087 55.3384 51.5859 58.7773 51.5859 62.3628C51.5859 65.9483 53.0087 69.3872 55.5419 71.9247C58.0793 74.4615 61.5202 75.887 65.1083 75.8877C68.6964 75.8883 72.1379 74.4641 74.6762 71.9282Z" fill="white"/>
<path d="M75.9201 73.1657C77.3441 71.7488 78.4729 70.0635 79.2409 68.2073C80.009 66.351 80.4012 64.3609 80.3947 62.352C80.4016 60.3434 80.0101 58.3534 79.2426 56.4972C78.4751 54.641 77.347 52.9555 75.9236 51.5384C73.0541 48.6747 69.1656 47.0664 65.1117 47.0664C61.0577 47.0664 57.1693 48.6747 54.2998 51.5384C51.4363 54.4073 49.8281 58.2951 49.8281 62.3485C49.8281 66.4019 51.4363 70.2897 54.2998 73.1586C55.7185 74.5845 57.4053 75.7154 59.263 76.4865C61.1208 77.2575 63.1127 77.6533 65.1241 77.651C67.1303 77.6508 69.1167 77.2545 70.9693 76.4848C72.8219 75.7151 74.5044 74.5872 75.9201 73.1657ZM55.5356 71.9299C53.0025 69.3924 51.5797 65.9535 51.5797 62.368C51.5797 58.7826 53.0025 55.3436 55.5356 52.8062C58.0746 50.2745 61.5138 48.8529 65.0993 48.8529C68.6847 48.8529 72.1239 50.2745 74.6629 52.8062C75.9218 54.0589 76.9196 55.5489 77.5987 57.1899C78.2778 58.8309 78.6246 60.5903 78.619 62.3662C78.6245 64.1427 78.2777 65.9026 77.5986 67.5442C76.9195 69.1858 75.9217 70.6764 74.6629 71.9299C72.1253 74.4641 68.6856 75.8876 65.0993 75.8876C61.5129 75.8876 58.0732 74.4641 55.5356 71.9299Z" fill="#091796"/>
<path d="M49.5741 84.454C49.6841 84.3401 49.7456 84.1879 49.7456 84.0296C49.7456 83.8712 49.6841 83.7191 49.5741 83.6052L44.3395 78.3706C44.2247 78.2582 44.0705 78.1953 43.9098 78.1953C43.7492 78.1953 43.5949 78.2582 43.4801 78.3706L34.3213 87.1778C33.903 87.5951 33.5757 88.0946 33.3599 88.6447C33.1442 89.1947 33.0447 89.7835 33.0677 90.374C33.084 90.965 33.2232 91.5462 33.4763 92.0805C33.7294 92.6149 34.091 93.0907 34.5379 93.4778C35.3943 94.1947 36.4908 94.56 37.606 94.5C38.7212 94.44 39.7722 93.9592 40.5467 93.1546L49.5741 84.454Z" fill="#70ADFF"/>
</svg>
