<svg width="34" height="44" viewBox="0 0 34 44" fill="none" xmlns="http://www.w3.org/2000/svg">
<path d="M33.0358 10.5295C32.7865 9.96745 32.4261 9.46168 31.9761 9.04267C31.5493 8.64396 31.0511 8.32929 30.5077 8.11514C30.4705 8.10049 30.4332 8.08615 30.3959 8.07246V6.58147C30.3959 4.8809 29.7207 3.31379 28.495 2.16904C27.3611 1.11199 25.8691 0.523221 24.3189 0.521022C22.7206 0.521022 21.2086 1.15264 20.0606 2.30059L17.7711 4.5901C17.454 3.65514 16.9088 2.81396 16.1849 2.1426C15.0513 1.08907 13.5618 0.502408 12.0142 0.5C10.4159 0.5 8.90389 1.13194 7.75627 2.27956L2.89217 7.1443C1.97528 8.06091 1.24795 9.14918 0.751708 10.3469C0.255467 11.5447 4.32185e-05 12.8285 2.32285e-05 14.1249V31.668C-0.00203625 32.3171 0.132875 32.9593 0.395942 33.5527C0.645194 34.1146 1.00555 34.6204 1.45533 35.0395C1.88217 35.4384 2.38045 35.753 2.92402 35.967C2.97626 35.9883 3.02935 36.008 3.08328 36.0263V37.4395C3.08328 39.1401 3.75822 40.7072 4.9842 41.852C6.11786 42.9083 7.60891 43.4969 9.15839 43.5C10.7567 43.5 12.2687 42.8681 13.4163 41.7204L15.732 39.4048C16.0488 40.3316 16.5902 41.1655 17.3077 41.8322C18.4419 42.889 19.9339 43.4776 21.4841 43.4799C23.0862 43.4799 24.6011 42.8451 25.7497 41.6924L30.5533 36.8713C32.3968 35.021 33.4319 32.5154 33.4317 29.9034V12.4142C33.4338 11.7651 33.2989 11.1229 33.0358 10.5295Z" fill="white"/>
<path d="M2.89941 14.1076V31.5917C2.89941 33.1502 4.78377 33.9306 5.88584 32.8285L15.1758 23.5386V6.5934C15.1758 3.75667 11.744 2.33895 9.74183 4.34848L4.93985 9.16862C3.63305 10.4801 2.89933 12.2561 2.89941 14.1076Z" fill="url(#paint0_linear_1007_3850)"/>
<path d="M18.1885 20.4613L18.235 37.4558C18.2426 40.2852 21.6642 41.6969 23.6648 39.6963L28.5282 34.8328C29.8406 33.5205 30.5779 31.7406 30.5779 29.8846V12.3467C30.5779 10.7904 28.6986 10.0088 27.5946 11.1064L18.1885 20.4613Z" fill="url(#paint1_linear_1007_3850)"/>
<path d="M22.0669 4.32477L6.4913 19.9003C6.13373 20.2585 5.93281 20.7438 5.93262 21.2499V37.4243C5.93262 40.2591 9.3586 41.6771 11.3624 39.6733L26.938 24.0978C27.1152 23.9205 27.2558 23.7101 27.3517 23.4786C27.4476 23.247 27.497 22.9988 27.497 22.7482V6.57383C27.4973 3.73997 24.0713 2.32097 22.0669 4.32477Z" fill="url(#paint2_linear_1007_3850)"/>
<path d="M27.5008 11.1992L21.9496 16.7204C21.5916 17.0765 21.107 17.2763 20.602 17.2759H16.13C15.8766 17.2759 15.6335 17.1752 15.4543 16.996C15.2751 16.8168 15.1744 16.5738 15.1744 16.3204V11.2161L6.49162 19.9011C6.31435 20.0784 6.17375 20.2889 6.07783 20.5205C5.98192 20.7521 5.93257 21.0003 5.93262 21.251V32.7855L11.5363 27.1818C11.7135 27.0046 11.9239 26.864 12.1555 26.7681C12.387 26.6722 12.6352 26.6228 12.8859 26.6228H17.2544C17.5072 26.6228 17.7497 26.723 17.9288 26.9015C18.1079 27.0799 18.209 27.3221 18.2099 27.5749L18.2242 32.8193L26.9405 24.1005C27.1177 23.9233 27.2583 23.7129 27.3542 23.4813C27.4501 23.2498 27.4995 23.0016 27.4995 22.7509L27.5008 11.1992Z" fill="#150DCE"/>
<defs>
<linearGradient id="paint0_linear_1007_3850" x1="9.03758" y1="33.3445" x2="9.03758" y2="3.40662" gradientUnits="userSpaceOnUse">
<stop stop-color="white"/>
<stop offset="0.69" stop-color="#2892FF"/>
</linearGradient>
<linearGradient id="paint1_linear_1007_3850" x1="24.383" y1="40.6343" x2="24.383" y2="10.5939" gradientUnits="userSpaceOnUse">
<stop offset="0.31" stop-color="#2892FF"/>
<stop offset="1" stop-color="white"/>
</linearGradient>
<linearGradient id="paint2_linear_1007_3850" x1="16.7157" y1="40.6101" x2="16.7157" y2="3.38674" gradientUnits="userSpaceOnUse">
<stop stop-color="white"/>
<stop offset="0.06" stop-color="#E6F5F7"/>
<stop offset="0.22" stop-color="#AFE0E5"/>
<stop offset="0.35" stop-color="#87D0D8"/>
<stop offset="0.45" stop-color="#6FC7D0"/>
<stop offset="0.52" stop-color="#66C3CD"/>
<stop offset="0.58" stop-color="#6FC7D0"/>
<stop offset="0.67" stop-color="#87D0D8"/>
<stop offset="0.8" stop-color="#AFE0E5"/>
<stop offset="0.94" stop-color="#E6F5F7"/>
<stop offset="1" stop-color="white"/>
</linearGradient>
</defs>
</svg>
