<svg width="100" height="99" viewBox="0 0 100 99" fill="none" xmlns="http://www.w3.org/2000/svg">
<path d="M55.7262 82.7501C57.8106 82.8984 59.8775 82.2815 61.5395 81.0149C63.2015 79.7483 64.3445 77.9191 64.7543 75.87C65.1641 73.821 64.8126 71.6929 63.7656 69.8845C62.7185 68.0761 61.0479 66.7116 59.0669 66.0469C55.7612 68.628 52.0358 70.6207 48.0539 71.9375C47.9081 72.4716 47.8148 73.0186 47.7755 73.5708C47.6142 75.842 48.3608 78.0844 49.8516 79.8055C51.3423 81.5266 53.4552 82.5857 55.7262 82.7501Z" fill="white"/>
<path d="M65.5927 59.4961C64.1314 61.3839 62.4892 63.1243 60.6894 64.6927C62.8508 65.6843 64.6084 67.3848 65.6709 69.5123C66.7334 71.6397 67.0371 74.0664 66.5315 76.39C66.026 78.7137 64.7417 80.7949 62.8913 82.2886C61.0409 83.7823 58.7356 84.5988 56.3576 84.6029C56.1015 84.6029 55.8491 84.6029 55.593 84.5732C52.8387 84.3707 50.2769 83.0853 48.4682 80.9983C46.6595 78.9113 45.7512 76.1928 45.9422 73.4377C45.9645 73.1334 46.0016 72.8327 46.0499 72.5357C43.7354 73.1532 41.3658 73.5411 38.9752 73.6938C38.958 74.5132 38.9951 75.3329 39.0865 76.1474C39.1074 76.311 39.0841 76.4773 39.0188 76.6288C38.9535 76.7803 38.8486 76.9114 38.7153 77.0085L34.3613 80.0448C35.098 82.8662 36.3833 85.5149 38.1437 87.8396L43.2252 86.2992C43.3843 86.2515 43.5533 86.2473 43.7146 86.2871C43.8758 86.3269 44.0235 86.4093 44.142 86.5256C45.6669 88.0366 47.4592 89.2512 49.4277 90.1076C49.5805 90.1729 49.7127 90.2785 49.8101 90.4132C49.9075 90.5479 49.9665 90.7066 49.9807 90.8722L50.4336 96.1653C53.2448 96.9401 56.1814 97.1521 59.0747 96.7889L60.2848 91.6145C60.3216 91.4526 60.4019 91.3038 60.517 91.1841C60.6321 91.0645 60.7777 90.9784 60.938 90.9353C63.0094 90.3716 64.9578 89.4276 66.6839 88.1514C66.8168 88.0513 66.9745 87.9894 67.14 87.9724C67.3055 87.9554 67.4726 87.9839 67.6231 88.0549L72.4484 90.308C74.5233 88.2599 76.1743 85.8231 77.3072 83.1367L73.4357 79.5066C73.3139 79.3937 73.225 79.2497 73.1786 79.0902C73.1321 78.9307 73.13 78.7616 73.1722 78.6009C73.4486 77.5645 73.6276 76.5044 73.7067 75.4347C73.7831 74.3645 73.7583 73.2895 73.6325 72.224C73.6119 72.0604 73.6355 71.8942 73.7007 71.7428C73.766 71.5914 73.8706 71.4602 74.0037 71.3628L78.3539 68.3265C77.6172 65.5051 76.332 62.8564 74.5716 60.5317L69.4901 62.0721C69.3311 62.1207 69.1618 62.1253 69.0004 62.0854C68.839 62.0456 68.6914 61.9627 68.5733 61.8457C67.6684 60.9562 66.6689 60.1683 65.5927 59.4961Z" fill="#66C3CD"/>
<path d="M99.7374 35.8548C99.7048 35.674 99.6193 35.507 99.4918 35.3748C99.3643 35.2427 99.2004 35.1514 99.0209 35.1124L95.1421 34.2735C94.6912 32.8879 94.0302 31.5797 93.1822 30.3947L94.8044 26.7719C94.8811 26.6034 94.9048 26.4156 94.8723 26.2332C94.8398 26.0509 94.7527 25.8828 94.6225 25.7512C92.7003 23.7612 90.3563 22.2277 87.763 21.2636C87.5901 21.197 87.401 21.1845 87.2207 21.2276C87.0405 21.2707 86.8776 21.3673 86.7534 21.5048L84.0845 24.4483C82.6594 24.1529 81.1983 24.0716 79.7492 24.2071L77.4218 20.9852C77.3162 20.8313 77.1662 20.7134 76.9918 20.647C76.8173 20.5807 76.6268 20.5692 76.4457 20.614C75.108 20.9524 73.8111 21.4353 72.5779 22.0542C71.852 22.4216 71.1514 22.8371 70.4807 23.2977C67.9659 17.1578 63.8296 11.8169 58.5141 7.84602C53.1986 3.87514 46.9038 1.4236 40.3028 0.753562C33.7018 0.0835199 27.0428 1.22016 21.0379 4.04194C15.0329 6.86372 9.90769 11.2646 6.21039 16.7738C2.51309 22.2831 0.382643 28.6937 0.0469037 35.3202C-0.288836 41.9466 1.18275 48.5397 4.30427 54.3944C7.42579 60.2492 12.0799 65.1455 17.7689 68.5598C23.4579 71.9741 29.9679 73.778 36.6029 73.7785H37.1262C37.1137 74.4585 37.1361 75.1386 37.1931 75.8163L32.7648 78.9045C32.6124 79.0106 32.4955 79.1601 32.4293 79.3336C32.3631 79.507 32.3507 79.6964 32.3936 79.877C33.2147 83.3887 34.8087 86.6729 37.0594 89.4907C37.1747 89.6356 37.3307 89.7427 37.5073 89.7983C37.6839 89.8539 37.873 89.8553 38.0505 89.8025L43.2248 88.2324C44.6877 89.598 46.356 90.7253 48.1689 91.573L48.6292 96.9626C48.6453 97.1472 48.7166 97.3228 48.8338 97.4664C48.9509 97.6101 49.1085 97.7152 49.2862 97.7681C51.0075 98.2847 52.7797 98.6133 54.5718 98.748C55.1323 98.7888 55.6854 98.8074 56.2681 98.8074C57.4992 98.8067 58.7287 98.7161 59.9466 98.5364C60.1299 98.5087 60.3007 98.4267 60.437 98.301C60.5732 98.1753 60.6688 98.0116 60.7112 97.8311L61.9398 92.5641C63.8558 91.9862 65.6684 91.1093 67.3108 89.9658L72.2067 92.2597C72.3749 92.3379 72.5626 92.3641 72.7458 92.335C72.929 92.3059 73.0992 92.2229 73.2349 92.0964C75.8651 89.629 77.9118 86.6059 79.2258 83.2474C79.2949 83.0754 79.3103 82.8865 79.2699 82.7056C79.2294 82.5247 79.1351 82.3603 78.9994 82.234L75.0574 78.5222C75.2878 77.5459 75.4417 76.553 75.5177 75.5527C75.5874 74.5551 75.5774 73.5534 75.488 72.5573L79.9199 69.4654C80.0719 69.359 80.1886 69.2094 80.2547 69.0361C80.3209 68.8627 80.3335 68.6735 80.2911 68.4929C79.4739 64.9799 77.8797 61.6948 75.6254 58.8792C75.5101 58.7343 75.3541 58.6272 75.1775 58.5716C75.0009 58.5161 74.8117 58.5146 74.6342 58.5674L69.46 60.1376C68.6034 59.3379 67.6753 58.6185 66.6873 57.9884C67.6512 56.6004 68.5193 55.1481 69.2855 53.6419C69.7631 54.0279 70.258 54.3879 70.7703 54.722C71.9276 55.4708 73.162 56.093 74.4524 56.5779C74.6258 56.6435 74.815 56.6552 74.9951 56.6115C75.1752 56.5678 75.3379 56.4707 75.462 56.3329L78.1309 53.3932C79.5562 53.6873 81.0173 53.7674 82.4662 53.6307L84.7936 56.8526C84.8794 56.9685 84.9914 57.0625 85.1203 57.127C85.2493 57.1915 85.3917 57.2246 85.5359 57.2237C85.6124 57.2249 85.6887 57.2149 85.7623 57.1941C88.4486 56.5185 90.9497 55.2502 93.082 53.4822C93.2248 53.3648 93.3291 53.2072 93.3813 53.0299C93.4336 52.8525 93.4315 52.6636 93.3753 52.4874L92.1615 48.7014C93.1302 47.616 93.9321 46.3925 94.5408 45.0712L98.4902 44.6666C98.6739 44.6466 98.8476 44.5724 98.989 44.4535C99.1305 44.3345 99.2334 44.1761 99.2846 43.9985C100.046 41.3374 100.202 38.5395 99.7411 35.8102L99.7374 35.8548ZM98.1227 39.871C98.0632 40.9048 97.9091 41.9311 97.6624 42.9369L93.8133 43.3341C93.6473 43.3504 93.4887 43.4114 93.3547 43.5108C93.2207 43.6102 93.1162 43.7441 93.0524 43.8983C92.4408 45.3745 91.5597 46.7238 90.4541 47.8774C90.3393 47.9976 90.2591 48.1466 90.2218 48.3086C90.1846 48.4706 90.1917 48.6396 90.2425 48.7979L91.4266 52.4838C89.7801 53.7523 87.9087 54.6981 85.9108 55.2713L83.6466 52.1348C83.5601 52.0196 83.4481 51.926 83.3193 51.8616C83.1904 51.7972 83.0483 51.7637 82.9042 51.7637C82.8647 51.76 82.8249 51.76 82.7854 51.7637C81.199 51.9703 79.5881 51.8809 78.0343 51.5001C77.8726 51.4604 77.7032 51.465 77.5438 51.5133C77.3845 51.5616 77.241 51.652 77.1286 51.7748L74.5303 54.6403C73.5724 54.2452 72.654 53.7605 71.7873 53.1927C71.202 52.8108 70.6428 52.3904 70.1133 51.9344C71.4424 48.9305 72.3577 45.7602 72.8341 42.5101C73.736 44.2432 75.1876 45.628 76.9613 46.4472C78.735 47.2664 80.7306 47.4737 82.6348 47.0365C84.539 46.5994 86.2443 45.5426 87.4832 44.0318C88.7221 42.521 89.4244 40.6418 89.4801 38.6889C89.5358 36.7359 88.9418 34.8196 87.7911 33.2407C86.6404 31.6617 84.9981 30.5094 83.1219 29.9644C81.2457 29.4194 79.2417 29.5125 77.4241 30.2293C75.6065 30.946 74.0783 32.2457 73.079 33.9246C72.8145 30.9134 72.1748 27.9469 71.1749 25.0942C71.888 24.5748 72.6414 24.1131 73.4279 23.7134C74.3538 23.2475 75.3205 22.8673 76.3157 22.5776L78.58 25.7178C78.6783 25.8517 78.8107 25.9569 78.9635 26.0221C79.1163 26.0874 79.2837 26.1105 79.4485 26.0889C81.0348 25.8805 82.6461 25.9699 84.1996 26.3525C84.3617 26.3922 84.5314 26.3872 84.6909 26.3382C84.8503 26.2892 84.9935 26.1979 85.1053 26.0741L87.7036 23.2086C88.6608 23.6052 89.5791 24.0898 90.4467 24.6562C91.3132 25.2253 92.1258 25.8726 92.8742 26.5901L91.293 30.12C91.2234 30.2708 91.1967 30.4378 91.2157 30.6028C91.2347 30.7677 91.2987 30.9243 91.4006 31.0554C91.8867 31.6896 92.314 32.3667 92.6775 33.0783C93.0368 33.792 93.3288 34.5376 93.5497 35.3054C93.5955 35.4651 93.684 35.6094 93.8056 35.7225C93.9273 35.8357 94.0775 35.9135 94.2402 35.9476L98.0188 36.7679C98.1493 37.7968 98.1841 38.8356 98.1227 39.871ZM69.4748 62.0677L74.5563 60.5273C76.3167 62.852 77.6019 65.5007 78.3386 68.3221L73.9884 71.3584C73.8553 71.4558 73.7508 71.587 73.6855 71.7384C73.6203 71.8898 73.5966 72.0559 73.6172 72.2195C73.743 73.2851 73.7679 74.3601 73.6914 75.4303C73.6123 76.5 73.4334 77.56 73.157 78.5965C73.1147 78.7571 73.1169 78.9263 73.1633 79.0858C73.2097 79.2453 73.2986 79.3892 73.4205 79.5021L77.292 83.1323C76.1591 85.8187 74.5081 88.2555 72.4332 90.3036L67.6078 88.0505C67.4573 87.9795 67.2903 87.951 67.1248 87.968C66.9593 87.985 66.8016 88.0469 66.6687 88.147C64.9425 89.4232 62.9941 90.3672 60.9228 90.9309C60.7624 90.974 60.6169 91.06 60.5018 91.1797C60.3866 91.2994 60.3063 91.4482 60.2695 91.6101L59.0594 96.7844C56.1661 97.1476 53.2295 96.9357 50.4183 96.1608L49.9655 90.8678C49.9512 90.7021 49.8923 90.5435 49.7949 90.4088C49.6975 90.2741 49.5652 90.1685 49.4124 90.1031C47.4439 89.2468 45.6516 88.0322 44.1268 86.5212C44.0082 86.4049 43.8606 86.3225 43.6993 86.2827C43.538 86.2428 43.369 86.247 43.2099 86.2948L38.1285 87.8352C36.3681 85.5105 35.0828 82.8618 34.3461 80.0404L38.7 77.0041C38.8334 76.907 38.9382 76.7758 39.0035 76.6243C39.0688 76.4728 39.0922 76.3066 39.0712 76.143C38.9798 75.3285 38.9427 74.5089 38.9599 73.6895C41.3505 73.5367 43.7201 73.1488 46.0346 72.5313C45.9863 72.8283 45.9493 73.1289 45.927 73.4333C45.736 76.1884 46.6442 78.9069 48.4529 80.9939C50.2616 83.0809 52.8235 84.3663 55.5778 84.5688C55.8339 84.5688 56.0862 84.5985 56.3424 84.5985C58.7204 84.5944 61.0257 83.7779 62.876 82.2842C64.7264 80.7905 66.0108 78.7093 66.5163 76.3856C67.0219 74.0619 66.7182 71.6353 65.6556 69.5078C64.5931 67.3804 62.8355 65.6799 60.6741 64.6883C62.4739 63.12 64.1162 61.3795 65.5774 59.4917C66.6499 60.1657 67.6457 60.9548 68.5469 61.845C68.6664 61.9634 68.8162 62.0467 68.9798 62.086C69.1434 62.1253 69.3146 62.1189 69.4748 62.0677ZM48.0576 71.9337C52.0395 70.6169 55.7649 68.6242 59.0706 66.0431C60.5922 66.5539 61.9401 67.4814 62.961 68.7199C63.982 69.9584 64.6352 71.4585 64.8463 73.0496C65.0574 74.6408 64.8181 76.2593 64.1555 77.7212C63.4929 79.1832 62.4335 80.43 61.0978 81.32C59.762 82.2101 58.2034 82.7077 56.5991 82.7563C54.9947 82.805 53.4089 82.4026 52.0217 81.5951C50.6345 80.7876 49.5016 79.6072 48.7517 78.1881C48.0017 76.769 47.6648 75.168 47.7792 73.5669C47.819 73.0173 47.9122 72.4727 48.0576 71.9411V71.9337ZM36.6029 71.9337C29.7278 71.9337 23.0071 69.895 17.2906 66.0754C11.5741 62.2558 7.11868 56.8268 4.48769 50.475C1.85669 44.1232 1.16825 37.1339 2.50952 30.3909C3.85079 23.6479 7.16153 17.454 12.023 12.5926C16.8844 7.73111 23.0782 4.42041 29.8213 3.07914C36.5643 1.73787 43.5537 2.42626 49.9055 5.05726C56.2573 7.68825 61.6862 12.1437 65.5058 17.8602C69.3255 23.5766 71.3641 30.2974 71.3641 37.1725C71.3533 46.3868 67.6884 55.2207 61.1733 61.7365C54.6581 68.2524 45.8246 71.9182 36.6103 71.93L36.6029 71.9337ZM77.485 32.2172C78.7141 31.5961 80.0997 31.3534 81.4668 31.5197C82.8338 31.6861 84.1209 32.2541 85.1651 33.1519C86.2094 34.0497 86.964 35.237 87.3335 36.5636C87.703 37.8902 87.671 39.2967 87.2412 40.605C86.8115 41.9134 86.0034 43.065 84.9193 43.9141C83.8351 44.7633 82.5236 45.2719 81.1503 45.3757C79.7771 45.4795 78.4039 45.1738 77.2044 44.4972C76.005 43.8207 75.0331 42.8036 74.4116 41.5747C73.9942 40.7591 73.7426 39.8689 73.6713 38.9555C73.6 38.0422 73.7105 37.1237 73.9963 36.2532C74.2821 35.3828 74.7375 34.5776 75.3363 33.8842C75.9351 33.1908 76.6654 32.6229 77.485 32.2134V32.2172Z" fill="#091796"/>
<path d="M94.2245 35.952C94.0619 35.9179 93.9117 35.8401 93.79 35.727C93.6684 35.6138 93.58 35.4696 93.5342 35.3099C93.3133 34.542 93.0212 33.7964 92.6619 33.0828C92.2984 32.3712 91.8711 31.6941 91.385 31.0598C91.2831 30.9288 91.2191 30.7722 91.2001 30.6072C91.1811 30.4423 91.2078 30.2752 91.2774 30.1244L92.8586 26.5945C92.1102 25.8771 91.2976 25.2297 90.4311 24.6606C89.5635 24.0943 88.6452 23.6096 87.6881 23.213L85.0898 26.0786C84.978 26.2024 84.8347 26.2936 84.6753 26.3427C84.5158 26.3917 84.3461 26.3966 84.184 26.357C82.6305 25.9744 81.0193 25.885 79.433 26.0934C79.2682 26.115 79.1006 26.0919 78.9479 26.0266C78.7951 25.9613 78.6626 25.8562 78.5644 25.7222L76.3001 22.582C75.3049 22.8717 74.3382 23.252 73.4123 23.7179C72.6258 24.1176 71.8724 24.5793 71.1593 25.0987C72.1592 27.9514 72.7989 30.9178 73.0634 33.9291C74.0621 32.2556 75.5877 30.9608 77.4012 30.2476C79.2148 29.5343 81.2138 29.4428 83.0849 29.9875C84.956 30.5322 86.5935 31.6823 87.7408 33.2576C88.8881 34.8328 89.4803 36.7442 89.4247 38.6922C89.3691 40.6402 88.6689 42.5147 87.4336 44.0219C86.1983 45.5292 84.4979 46.584 82.5988 47.0211C80.6997 47.4583 78.7093 47.253 76.9393 46.4375C75.1694 45.6219 73.7201 44.2422 72.8185 42.5145C72.342 45.7646 71.4267 48.935 70.0977 51.9389C70.6272 52.3949 71.1864 52.8153 71.7717 53.1972C72.6384 53.765 73.5569 54.2497 74.5148 54.6448L77.1131 51.7793C77.2255 51.6564 77.3688 51.5661 77.5282 51.5178C77.6876 51.4695 77.857 51.4649 78.0187 51.5046C79.5725 51.8854 81.1835 51.9747 82.7699 51.7681C82.8094 51.7645 82.8491 51.7645 82.8886 51.7681C83.0327 51.7681 83.1748 51.8017 83.3036 51.8661C83.4325 51.9305 83.5445 52.0241 83.631 52.1393L85.8952 55.2758C87.8931 54.7026 89.7645 53.7568 91.4109 52.4882L90.2269 48.8024C90.1761 48.6441 90.169 48.475 90.2062 48.313C90.2435 48.151 90.3237 48.0021 90.4385 47.8819C91.5441 46.7283 92.4252 45.379 93.0368 43.9028C93.1006 43.7486 93.2051 43.6147 93.3391 43.5153C93.4731 43.4159 93.6317 43.3548 93.7977 43.3386L97.6468 42.9414C97.8935 41.9356 98.0476 40.9093 98.1071 39.8754C98.1633 38.8408 98.1236 37.8033 97.9884 36.7761L94.2245 35.952Z" fill="#66C3CD"/>
<path d="M83.768 44.6461C84.997 44.0246 86.014 43.0527 86.6906 41.8532C87.3671 40.6537 87.6728 39.2805 87.569 37.9073C87.4653 36.5341 86.9566 35.2225 86.1074 34.1384C85.2582 33.0542 84.1067 32.2462 82.7983 31.8164C81.4899 31.3867 80.0835 31.3546 78.7569 31.7241C77.4303 32.0937 76.243 32.8483 75.3452 33.8926C74.4474 34.9368 73.8795 36.2238 73.7131 37.5908C73.5467 38.9579 73.7894 40.3436 74.4105 41.5727C75.2451 43.2199 76.6992 44.4687 78.4536 45.0449C80.208 45.6212 82.1193 45.4777 83.768 44.6461Z" fill="white"/>
<path d="M71.3643 37.1675C71.3643 30.2924 69.3257 23.5717 65.506 17.8552C61.6864 12.1388 56.2575 7.68331 49.9057 5.05231C43.5539 2.42131 36.5645 1.73292 29.8215 3.07419C23.0785 4.41546 16.8846 7.72616 12.0232 12.5876C7.16174 17.4491 3.851 23.6429 2.50973 30.3859C1.16846 37.129 1.85689 44.1183 4.48789 50.4701C7.11889 56.8219 11.5743 62.2508 17.2908 66.0704C23.0073 69.8901 29.728 71.9288 36.6031 71.9288C45.8193 71.9189 54.6553 68.2535 61.1722 61.7366C67.6891 55.2197 71.3545 46.3838 71.3643 37.1675ZM45.7045 62.278H27.8877C27.0894 62.2798 26.2994 62.1158 25.5678 61.7963C24.8362 61.4768 24.179 61.0089 23.6377 60.4221C23.0923 59.8358 22.6725 59.1442 22.4044 58.3897C22.1363 57.6351 22.0255 56.8337 22.0787 56.0347C22.2269 53.0368 22.628 50.0568 23.2777 47.1264H13.9981C13.3314 47.1283 12.6716 46.9921 12.0603 46.7264C11.4489 46.4606 10.8992 46.071 10.4458 45.5822C9.98933 45.0926 9.63814 44.5145 9.41404 43.8837C9.18994 43.2529 9.09769 42.5828 9.14299 41.9149C9.43622 37.5795 10.0301 32.743 12.2201 29.7773C12.9625 28.7528 14.2727 27.2495 15.8725 26.4366C14.7351 25.1228 14.1115 23.4418 14.1168 21.7041C14.1168 17.7881 17.2088 14.5996 21.0097 14.5996C24.8106 14.5996 27.9026 17.7881 27.9026 21.7041C27.908 23.3937 27.318 25.0312 26.236 26.329C27.1551 26.7824 27.9879 27.3929 28.6969 28.1329C29.211 26.4637 30.2414 25.0007 31.64 23.9544C33.0385 22.9082 34.733 22.3327 36.4795 22.3109C38.2259 22.289 39.9342 22.8219 41.3585 23.8327C42.7828 24.8436 43.8496 26.2804 44.4054 27.9362C45.0113 27.3494 45.6959 26.8497 46.4394 26.4515C45.301 25.138 44.6761 23.4571 44.68 21.7189C44.68 17.8029 47.772 14.6145 51.5729 14.6145C55.3738 14.6145 58.4657 17.8029 58.4657 21.7189C58.4712 23.4086 57.8811 25.0461 56.7991 26.3438C58.6068 27.1864 60.0544 28.9421 60.8821 30.0816C62.9385 33.0103 63.499 37.7317 63.7736 41.9595C63.8159 42.6255 63.7215 43.2931 63.4962 43.9212C63.2708 44.5493 62.9193 45.1247 62.4634 45.6119C62.0101 46.0996 61.4609 46.4882 60.8502 46.7533C60.2395 47.0184 59.5807 47.1542 58.9149 47.1523H50.3443C50.9852 50.0837 51.38 53.0635 51.5246 56.0607C51.5747 56.8572 51.4617 57.6555 51.1923 58.4068C50.923 59.158 50.503 59.8463 49.9582 60.4295C49.4175 61.016 48.7609 61.4838 48.0299 61.8033C47.299 62.1228 46.5096 62.287 45.7119 62.2854L45.7045 62.278Z" fill="white"/>
<path d="M44.94 30.9117C44.9409 33.0612 44.1477 35.1351 42.7129 36.7356C45.0328 37.7043 46.9073 39.9463 47.9466 41.4273C48.7524 42.6181 49.3778 43.9214 49.8025 45.2951H58.9076C59.3207 45.2979 59.7298 45.2145 60.1088 45.0502C60.4878 44.886 60.8284 44.6444 61.1087 44.3411C61.3939 44.039 61.6135 43.6814 61.754 43.2905C61.8946 42.8996 61.9529 42.4839 61.9253 42.0695C61.6803 38.3242 61.183 33.6956 59.3642 31.1307C58.0242 29.2228 56.5098 27.9942 55.2144 27.7344C54.1436 28.4264 52.8976 28.7985 51.6227 28.807C50.3479 28.8156 49.097 28.4602 48.0171 27.7826C47.0372 28.0722 45.9385 28.8962 44.8881 30.1174C44.9252 30.3809 44.94 30.6445 44.94 30.9117Z" fill="#70ADFF"/>
<path d="M51.5893 26.9609C54.3732 26.9609 56.6374 24.6002 56.6374 21.7013C56.6374 18.8023 54.3732 16.4453 51.5893 16.4453C48.8055 16.4453 46.5449 18.8023 46.5449 21.7013C46.5449 24.6002 48.8092 26.9609 51.5893 26.9609Z" fill="white"/>
<path d="M14.0167 45.2952H23.8085C24.2677 43.793 24.9631 42.3734 25.8686 41.0897C26.8337 39.7832 28.5226 37.8344 30.5863 36.8545C29.0907 35.2389 28.2619 33.1172 28.2665 30.9156C28.2665 30.7485 28.2665 30.5852 28.2665 30.4219C27.0675 28.9372 25.7758 27.9647 24.6511 27.7383C23.5797 28.4302 22.3331 28.8022 21.0577 28.8107C19.7822 28.8193 18.5308 28.464 17.4501 27.7865C16.2772 28.1317 14.9336 29.2379 13.7087 30.8933C11.7897 33.4916 11.2477 38.2279 10.9879 42.0622C10.9589 42.476 11.0153 42.8913 11.1535 43.2823C11.2918 43.6734 11.509 44.0318 11.7917 44.3354C12.0743 44.6389 12.4165 44.8811 12.7967 45.0469C13.1769 45.2126 13.5871 45.2984 14.0019 45.2989L14.0167 45.2952Z" fill="#70ADFF"/>
<path d="M21.0188 26.9609C23.8027 26.9609 26.0669 24.6002 26.0669 21.7013C26.0669 18.8023 23.8027 16.4453 21.0188 16.4453C18.235 16.4453 15.9707 18.8023 15.9707 21.7013C15.9707 24.6002 18.2424 26.9609 21.0188 26.9609Z" fill="white"/>
<path d="M49.6731 56.1885C49.3687 51.5079 48.7303 45.7212 46.455 42.4882C45.5975 41.2707 43.4521 38.5573 41.0765 38.1602C39.7636 39.0301 38.2255 39.4983 36.6505 39.5076C35.0756 39.5168 33.532 39.0666 32.2089 38.2121C30.0858 38.7689 28.152 41.1036 27.3539 42.1875C24.9375 45.4613 24.2546 51.3817 23.9316 56.1737C23.8934 56.7182 23.9677 57.2648 24.1498 57.7794C24.3318 58.294 24.6179 58.7656 24.9901 59.165C25.3623 59.5643 25.8126 59.8828 26.3131 60.1006C26.8137 60.3185 27.3537 60.4309 27.8996 60.4311H45.7163C46.261 60.4313 46.7999 60.3196 47.2997 60.1029C47.7994 59.8862 48.2492 59.569 48.6213 59.1712C48.9933 58.7734 49.2797 58.3033 49.4626 57.7903C49.6454 57.2772 49.7209 56.732 49.6842 56.1885H49.6731Z" fill="#66C3CD"/>
<path d="M49.9483 60.4393C50.4931 59.8561 50.913 59.1678 51.1824 58.4165C51.4517 57.6653 51.5648 56.867 51.5147 56.0705C51.3701 53.0733 50.9753 50.0935 50.3344 47.1621H58.9199C59.5856 47.164 60.2445 47.0281 60.8552 46.763C61.4659 46.4979 62.0151 46.1093 62.4683 45.6217C62.9243 45.1344 63.2758 44.5591 63.5011 43.931C63.7264 43.3028 63.8208 42.6352 63.7786 41.9692C63.5039 37.734 62.9434 33.0126 60.8871 30.0914C60.0705 28.9333 58.6228 27.1962 56.8041 26.3536C57.886 25.0558 58.4761 23.4183 58.4707 21.7286C58.4707 17.8127 55.3788 14.6242 51.5779 14.6242C47.7769 14.6242 44.685 17.8127 44.685 21.7286C44.681 23.4668 45.3059 25.1477 46.4444 26.4612C45.7008 26.8594 45.0162 27.3591 44.4103 27.9459C43.8546 26.2901 42.7877 24.8534 41.3634 23.8425C39.9391 22.8316 38.2309 22.2987 36.4844 22.3206C34.738 22.3425 33.0434 22.918 31.6449 23.9642C30.2464 25.0104 29.2159 26.4735 28.7018 28.1427C27.9928 27.4027 27.16 26.7922 26.2409 26.3387C27.3229 25.041 27.913 23.4035 27.9075 21.7138C27.9075 17.7978 24.8155 14.6094 21.0146 14.6094C17.2137 14.6094 14.1217 17.7978 14.1217 21.7138C14.1164 23.4516 14.7401 25.1326 15.8774 26.4464C14.2776 27.2778 12.9823 28.7811 12.2251 29.787C10.0351 32.7565 9.44117 37.5819 9.14793 41.9247C9.10264 42.5926 9.19488 43.2627 9.41898 43.8935C9.64308 44.5243 9.99427 45.1024 10.4508 45.592C10.9041 46.0808 11.4538 46.4704 12.0652 46.7361C12.6766 47.0019 13.3364 47.1381 14.003 47.1361H23.2826C22.6329 50.0665 22.2319 53.0466 22.0837 56.0445C22.0305 56.8435 22.1413 57.6449 22.4094 58.3994C22.6775 59.1539 23.0972 59.8456 23.6426 60.4319C24.1839 61.0186 24.8412 61.4866 25.5728 61.8061C26.3044 62.1256 27.0944 62.2896 27.8927 62.2878H45.7094C46.5054 62.2892 47.293 62.1257 48.0225 61.8076C48.7521 61.4894 49.4078 61.0235 49.9483 60.4393ZM45.702 60.4393H27.8852C27.3394 60.4391 26.7994 60.3266 26.2988 60.1088C25.7983 59.891 25.3479 59.5725 24.9758 59.1731C24.6036 58.7738 24.3175 58.3022 24.1354 57.7875C23.9533 57.2729 23.8791 56.7264 23.9173 56.1818C24.2402 51.3899 24.9232 45.4695 27.3396 42.1957C28.1376 41.1118 30.0715 38.7771 32.1947 38.2203C33.5178 39.0748 35.0612 39.525 36.6362 39.5157C38.2112 39.5065 39.7493 39.0383 41.0622 38.1683C43.4378 38.5655 45.5832 41.2789 46.4407 42.4963C48.716 45.7293 49.3544 51.5161 49.6588 56.1967C49.6954 56.7402 49.62 57.2853 49.4371 57.7984C49.2543 58.3115 48.968 58.7816 48.5959 59.1794C48.2238 59.5772 47.7739 59.8943 47.2742 60.1111C46.7745 60.3278 46.2356 60.4395 45.6909 60.4393H45.702ZM11.0001 42.0658C11.26 38.2314 11.8019 33.4989 13.7209 30.8969C14.9458 29.2414 16.2895 28.1353 17.4624 27.7901C18.5431 28.4675 19.7945 28.8228 21.0699 28.8143C22.3453 28.8057 23.5919 28.4337 24.6634 27.7418C25.7769 27.9682 27.0798 28.9259 28.2787 30.4255C28.2787 30.5888 28.2787 30.7521 28.2787 30.9191C28.2741 33.1207 29.1029 35.2425 30.5986 36.858C28.5348 37.838 26.846 39.7867 25.8809 41.0933C24.9754 42.3769 24.28 43.7965 23.8208 45.2987H14.029C13.6142 45.2982 13.204 45.2124 12.8238 45.0467C12.4436 44.8809 12.1015 44.6388 11.8188 44.3352C11.5361 44.0317 11.3189 43.6732 11.1806 43.2822C11.0424 42.8911 10.986 42.4758 11.015 42.062L11.0001 42.0658ZM15.9777 21.7101C15.9777 18.8112 18.2419 16.4541 21.0258 16.4541C23.8097 16.4541 26.0739 18.8112 26.0739 21.7101C26.0739 24.609 23.8097 26.9697 21.0258 26.9697C18.2419 26.9697 15.9777 24.6016 15.9777 21.7027V21.7101ZM36.6006 24.1673C40.1788 24.1673 43.0926 27.1962 43.0926 30.9191C43.0926 34.6421 40.1788 37.671 36.6006 37.671C33.0224 37.671 30.1086 34.6421 30.1086 30.9191C30.1086 27.1962 33.0224 24.1599 36.608 24.1599L36.6006 24.1673ZM46.5446 21.7101C46.5446 18.8112 48.8088 16.4541 51.589 16.4541C54.3692 16.4541 56.637 18.8112 56.637 21.7101C56.637 24.609 54.3729 26.9697 51.589 26.9697C48.8051 26.9697 46.5446 24.6016 46.5446 21.7027V21.7101ZM48.0293 27.7901C49.1093 28.4676 50.3601 28.823 51.6349 28.8145C52.9098 28.8059 54.1558 28.4338 55.2265 27.7418C56.5219 28.0016 58.0364 29.2266 59.3764 31.1382C61.1804 33.703 61.6926 38.3317 61.9375 42.0769C61.9651 42.4914 61.9068 42.907 61.7663 43.2979C61.6257 43.6888 61.4061 44.0465 61.121 44.3485C60.8406 44.6519 60.5 44.8934 60.121 45.0577C59.742 45.2219 59.3329 45.3053 58.9199 45.3025H49.8147C49.39 43.9288 48.7646 42.6255 47.9588 41.4348C46.9195 39.95 45.045 37.7229 42.7251 36.743C44.16 35.1426 44.9531 33.0686 44.9522 30.9191C44.9522 30.6519 44.9522 30.3883 44.9151 30.1248C45.9507 28.8925 47.0494 28.0722 48.0293 27.7826V27.7901Z" fill="#091796"/>
<path d="M30.1113 30.912C30.1113 34.6238 33.0251 37.6638 36.6033 37.6638C40.1815 37.6638 43.0953 34.635 43.0953 30.912C43.0953 27.189 40.1815 24.1602 36.6033 24.1602C33.0251 24.1602 30.1113 27.1779 30.1113 30.912Z" fill="white"/>
</svg>
