<svg width="117" height="103" viewBox="0 0 117 103" fill="none" xmlns="http://www.w3.org/2000/svg">
<path d="M43.68 86.5474C67.2515 86.5474 86.36 67.424 86.36 43.8342C86.36 20.2444 67.2515 1.12109 43.68 1.12109C20.1085 1.12109 1 20.2444 1 43.8342C1 67.424 20.1085 86.5474 43.68 86.5474Z" fill="#66C3CD" stroke="#0F0996" stroke-width="1.9" stroke-linecap="round" stroke-linejoin="round"/>
<path d="M28.1304 30.7344L14.6504 44.2248L27.8504 57.4251" stroke="#0F0996" stroke-width="1.9" stroke-linecap="round" stroke-linejoin="round"/>
<path d="M50.6113 23.9805L37.5312 63.6913" stroke="#0F0996" stroke-width="1.9" stroke-linecap="round" stroke-linejoin="round"/>
<path d="M59.2305 57.4251L72.7105 43.9346L59.5105 30.7344" stroke="#0F0996" stroke-width="1.9" stroke-linecap="round" stroke-linejoin="round"/>
<path d="M108.361 68.1729V51.3799C108.384 48.5607 107.313 45.8424 105.373 43.7981C103.433 41.7538 100.776 40.5432 97.9611 40.4214C96.5256 40.3786 95.0963 40.6243 93.7574 41.144C92.4186 41.6637 91.1974 42.4468 90.1663 43.447C89.1351 44.4473 88.3147 45.6444 87.7539 46.9674C87.1931 48.2904 86.9032 49.7125 86.9011 51.1497V72.4662L79.2211 73.6572V51.2898C79.1905 46.4194 81.0686 41.731 84.4524 38.2305C87.8362 34.73 92.4561 32.6961 97.321 32.5653C99.7655 32.5228 102.194 32.9679 104.465 33.8748C106.735 34.7816 108.803 36.132 110.546 37.8471C112.29 39.5622 113.675 41.6077 114.62 43.8642C115.565 46.1206 116.052 48.5429 116.051 50.9896V68.243C116.05 68.4712 116.003 68.6969 115.915 68.9071C115.826 69.1174 115.696 69.3079 115.534 69.4679C115.371 69.6278 115.178 69.7541 114.967 69.8393C114.755 69.9245 114.529 69.9669 114.301 69.9643L110.061 69.9143C109.835 69.9117 109.612 69.8645 109.404 69.7756C109.197 69.6867 109.009 69.5577 108.851 69.396C108.693 69.2343 108.568 69.0431 108.484 68.8332C108.4 68.6234 108.358 68.399 108.361 68.1729Z" fill="#70ADFF" stroke="#0F0996" stroke-width="1.9" stroke-linecap="round" stroke-linejoin="round"/>
<path d="M89.5909 64.5508H49.5009C47.0874 64.5508 45.1309 66.5088 45.1309 68.9242V96.8258C45.1309 99.2412 47.0874 101.199 49.5009 101.199H89.5909C92.0043 101.199 93.9609 99.2412 93.9609 96.8258V68.9242C93.9609 66.5088 92.0043 64.5508 89.5909 64.5508Z" fill="#70ADFF" stroke="#0F0996" stroke-width="1.9" stroke-linecap="round" stroke-linejoin="round"/>
<path d="M74.2403 78.6679C74.2403 77.3408 73.7135 76.0681 72.7758 75.1297C71.8381 74.1913 70.5664 73.6641 69.2403 73.6641C67.9142 73.6641 66.6424 74.1913 65.7047 75.1297C64.7671 76.0681 64.2403 77.3408 64.2403 78.6679C64.237 79.5533 64.4686 80.4238 64.9113 81.1903C65.354 81.9569 65.9921 82.5922 66.7603 83.0314V92.1284H71.7603V83.0314C72.5211 82.5871 73.1511 81.9496 73.5866 81.1834C74.0221 80.4172 74.2476 79.5494 74.2403 78.6679Z" fill="white" stroke="#0F0996" stroke-width="1.9" stroke-linecap="round" stroke-linejoin="round"/>
</svg>
