<svg width="90" height="101" viewBox="0 0 90 101" fill="none" xmlns="http://www.w3.org/2000/svg">
<path d="M26.8244 38.7755C26.8295 34.9598 27.7553 31.2017 29.5232 27.821C31.291 24.4402 33.8486 21.5368 36.9784 19.3576C40.1081 17.1784 43.7175 15.7879 47.4995 15.3043C51.2815 14.8208 55.1243 15.2585 58.701 16.5803C62.2777 17.902 65.4825 20.0687 68.0428 22.8961C70.6032 25.7235 72.4434 29.1278 73.4068 32.8197C74.3703 36.5116 74.4286 40.3817 73.5767 44.101C72.7248 47.8202 70.988 51.2786 68.5139 54.1819C63.4399 60.146 60.6568 67.7253 60.6646 75.5583V76.1377H40.2859V75.5583C40.2297 67.6427 37.3998 59.9978 32.2894 53.956C28.7396 49.6971 26.8044 44.3216 26.8244 38.7755Z" fill="#66C3CD" stroke="#0F0996" stroke-width="1.92" stroke-linecap="round" stroke-linejoin="round"/>
<path d="M50.5 7.6568V1.11719" stroke="#0F0996" stroke-width="1.92" stroke-linecap="round" stroke-linejoin="round"/>
<path d="M88.5794 38.8125H81.6328" stroke="#0F0996" stroke-width="1.92" stroke-linecap="round" stroke-linejoin="round"/>
<path d="M77.2174 65.5531L72.5078 60.8398" stroke="#0F0996" stroke-width="1.92" stroke-linecap="round" stroke-linejoin="round"/>
<path d="M77.4921 11.8008L72.5078 16.789" stroke="#0F0996" stroke-width="1.92" stroke-linecap="round" stroke-linejoin="round"/>
<path d="M88.5794 38.8125H81.6328" stroke="#0F0996" stroke-width="1.92" stroke-linecap="round" stroke-linejoin="round"/>
<path d="M77.2174 65.5531L72.5078 60.8398" stroke="#0F0996" stroke-width="1.92" stroke-linecap="round" stroke-linejoin="round"/>
<path d="M77.4921 11.8008L72.5078 16.789" stroke="#0F0996" stroke-width="1.92" stroke-linecap="round" stroke-linejoin="round"/>
<path d="M21.1523 68.1846L28.4914 60.8398" stroke="#0F0996" stroke-width="1.92" stroke-linecap="round" stroke-linejoin="round"/>
<path d="M60.0347 89.7578H40.9609C40.9609 91.0112 41.2076 92.2523 41.6869 93.4103C42.1662 94.5682 42.8686 95.6204 43.7542 96.5066C44.6398 97.3929 45.6911 98.0959 46.8482 98.5756C48.0053 99.0552 49.2454 99.3021 50.4978 99.3021C51.7502 99.3021 52.9904 99.0552 54.1474 98.5756C55.3045 98.0959 56.3558 97.3929 57.2414 96.5066C58.127 95.6204 58.8295 94.5682 59.3088 93.4103C59.788 92.2523 60.0347 91.0112 60.0347 89.7578Z" fill="#70ADFF" stroke="#0F0996" stroke-width="1.92" stroke-linecap="round" stroke-linejoin="round"/>
<path d="M47.6252 66.4839L44.6621 34.7383H56.3379L53.3748 66.4839" stroke="#0F0996" stroke-width="1.92" stroke-linecap="round" stroke-linejoin="round"/>
<path d="M38.9021 89.7656H62.1066C63.8135 89.7656 65.1973 88.3808 65.1973 86.6726V79.0136C65.1973 77.3053 63.8135 75.9205 62.1066 75.9205H38.9021C37.1952 75.9205 35.8115 77.3053 35.8115 79.0136V86.6726C35.8115 88.3808 37.1952 89.7656 38.9021 89.7656Z" fill="#70ADFF" stroke="#0F0996" stroke-width="1.92" stroke-linecap="round" stroke-linejoin="round"/>
<path d="M11.2433 99.3079V56.8005H1L21.8497 31.457L42.6994 56.8005H32.456V99.3079" fill="white"/>
<path d="M11.2433 99.3079V56.8005H1L21.8497 31.457L42.6994 56.8005H32.456V99.3079" stroke="#0F0996" stroke-width="1.92" stroke-linecap="round" stroke-linejoin="round"/>
</svg>
