<svg width="82" height="86" viewBox="0 0 82 86" fill="none" xmlns="http://www.w3.org/2000/svg">
<g clip-path="url(#clip0_1007_3659)">
<path d="M67.7389 22.7502C67.6272 22.7325 67.5202 22.6927 67.4242 22.633C67.3281 22.5734 67.245 22.4951 67.1797 22.4028C67.1138 22.3106 67.0672 22.2061 67.0424 22.0955C67.0177 21.9849 67.0154 21.8704 67.0357 21.7589C67.1598 21.1282 67.2222 20.487 67.2221 19.8442C67.2221 17.1478 66.1509 14.5619 64.2443 12.6553C62.3377 10.7486 59.7518 9.67752 57.0554 9.67752C55.4067 9.67526 53.7829 10.0798 52.3279 10.8552C52.145 10.9493 51.9341 10.9737 51.7346 10.9238C51.5351 10.8739 51.3605 10.7532 51.2434 10.584C48.9998 7.29163 45.7601 4.8048 41.9997 3.48831C38.2393 2.17182 34.1559 2.09496 30.3486 3.26899C26.5413 4.44303 23.2104 6.80617 20.8444 10.0118C18.4784 13.2175 17.2019 17.0969 17.2021 21.0811C17.2021 21.1828 17.2021 21.2845 17.2021 21.4031C17.2021 21.5217 17.2021 21.5979 17.2021 21.6996C17.2171 21.9218 17.144 22.1409 16.9987 22.3096C16.921 22.3912 16.8277 22.4564 16.7244 22.5015C16.6211 22.5466 16.5099 22.5707 16.3972 22.5722H16.3464C12.6387 22.5812 9.08566 24.0592 6.46552 26.6825C3.84537 29.3059 2.37166 32.8607 2.36719 36.5684C2.36719 44.0832 8.38247 49.7511 16.3633 49.7511L24.6576 49.8867V43.4309C24.6576 43.2062 24.7469 42.9907 24.9057 42.8318C25.0646 42.6729 25.2801 42.5836 25.5048 42.5836H28.3007V36.4243C28.1856 34.8002 28.4062 33.1697 28.9486 31.6345C29.4911 30.0993 30.3438 28.6922 31.4538 27.5008C32.5637 26.3095 33.907 25.3595 35.4 24.7099C36.8931 24.0603 38.5039 23.725 40.1321 23.725C41.7604 23.725 43.3712 24.0603 44.8642 24.7099C46.3573 25.3595 47.7006 26.3095 48.8105 27.5008C49.9204 28.6922 50.7731 30.0993 51.3156 31.6345C51.8581 33.1697 52.0786 34.8002 51.9636 36.4243V42.5921H54.7679C54.9926 42.5921 55.2081 42.6814 55.367 42.8403C55.5258 42.9991 55.6151 43.2146 55.6151 43.4393V50.412L65.6377 50.5814C69.1739 50.5963 72.5844 49.2714 75.1831 46.8732C77.7817 44.475 79.3757 41.1816 79.6441 37.6557C79.9125 34.1297 78.8355 30.6329 76.6298 27.869C74.4241 25.1051 71.2534 23.2792 67.7558 22.7586L67.7389 22.7502Z" fill="white"/>
<path d="M44.7628 36.4234C44.7628 35.1943 44.2745 34.0155 43.4054 33.1464C42.5363 32.2773 41.3575 31.7891 40.1284 31.7891C38.8994 31.7891 37.7206 32.2773 36.8515 33.1464C35.9824 34.0155 35.4941 35.1943 35.4941 36.4234V42.5911H44.7628V36.4234Z" fill="white"/>
<path d="M77.4653 26.3176C75.2164 23.7216 72.1774 21.9357 68.8152 21.2342C68.8727 20.7733 68.901 20.3093 68.8999 19.8448C68.8947 17.8702 68.3965 15.9281 67.4507 14.1947C66.5048 12.4613 65.1412 10.9915 63.4835 9.91864C61.8257 8.84574 59.9264 8.20369 57.9577 8.05073C55.9889 7.89776 54.0132 8.23873 52.2096 9.0427C49.687 5.63211 46.1608 3.09592 42.1249 1.78931C38.089 0.482697 33.7455 0.471098 29.7027 1.75614C25.6599 3.04117 22.1202 5.55849 19.5794 8.95556C17.0386 12.3526 15.6239 16.4593 15.5334 20.7005C15.5334 20.7683 15.5334 20.836 15.5334 20.9123C11.5278 21.133 7.75854 22.8779 4.99852 25.7891C2.2385 28.7004 0.696963 32.5573 0.690055 36.569C0.671702 38.5758 1.07296 40.5643 1.86811 42.407C2.66325 44.2497 3.83473 45.9059 5.30741 47.2694C8.33695 49.9997 12.2857 51.4854 16.3637 51.4292L24.6664 51.5733V57.7071H19.0748C18.8501 57.7071 18.6346 57.7964 18.4757 57.9553C18.3168 58.1142 18.2276 58.3297 18.2276 58.5544V67.213C16.8889 67.4261 15.6798 68.136 14.8412 69.201C14.0027 70.266 13.5963 71.6079 13.7032 72.9592C13.8101 74.3105 14.4224 75.5719 15.418 76.4918C16.4135 77.4117 17.7193 77.9226 19.0748 77.9226C20.4303 77.9226 21.736 77.4117 22.7316 76.4918C23.7272 75.5719 24.3394 74.3105 24.4463 72.9592C24.5532 71.6079 24.1469 70.266 23.3084 69.201C22.4698 68.136 21.2607 67.4261 19.922 67.213V59.3847H24.6241V60.0285C24.6252 61.0264 24.8236 62.0141 25.208 62.935C25.5925 63.8558 26.1552 64.6915 26.864 65.3939C27.5727 66.0963 28.4133 66.6516 29.3376 67.0278C30.2618 67.4039 31.2513 67.5936 32.2491 67.5858H39.3234V74.7872C37.987 75.0003 36.78 75.7092 35.9431 76.7726C35.1061 77.836 34.7007 79.1758 34.8076 80.5248C34.9144 81.8739 35.5258 83.1331 36.5198 84.0514C37.5138 84.9697 38.8173 85.4797 40.1706 85.4797C41.5239 85.4797 42.8274 84.9697 43.8214 84.0514C44.8154 83.1331 45.4268 81.8739 45.5337 80.5248C45.6406 79.1758 45.2351 77.836 44.3982 76.7726C43.5612 75.7092 42.3542 75.0003 41.0178 74.7872V67.5858H48.0921C50.0957 67.5835 52.0167 66.7866 53.4334 65.3698C54.8502 63.9531 55.6471 62.0321 55.6494 60.0285V59.3847H60.3938V67.213C59.8528 67.3035 59.3277 67.4719 58.8349 67.7128C57.8682 68.1928 57.0683 68.9524 56.5389 69.893C56.0096 70.8335 55.7754 71.9115 55.8668 72.9869C55.9582 74.0623 56.3709 75.0854 57.0513 75.9231C57.7317 76.7609 58.6483 77.3747 59.6821 77.6847C60.1844 77.8388 60.7072 77.9159 61.2326 77.9134C62.5948 77.9266 63.9114 77.4226 64.9165 76.5029C65.9216 75.5833 66.5404 74.3165 66.6479 72.9584C66.7555 71.6003 66.3437 70.252 65.4959 69.1856C64.648 68.1193 63.4272 67.4143 62.0798 67.213V58.5459C62.0798 58.3212 61.9905 58.1057 61.8316 57.9468C61.6728 57.7879 61.4573 57.6987 61.2326 57.6987H55.6494V52.0816L65.6466 52.251C68.6518 52.2534 71.5944 51.3917 74.1237 49.7686C76.653 48.1455 78.6623 45.8295 79.9123 43.0965C81.1623 40.3635 81.6002 37.3288 81.1739 34.3539C80.7475 31.3791 79.4749 28.5895 77.5077 26.3176H77.4653ZM19.0663 76.2105C18.0844 76.2105 17.1427 75.8204 16.4483 75.1261C15.754 74.4318 15.364 73.4901 15.364 72.5081C15.364 71.5262 15.754 70.5845 16.4483 69.8902C17.1427 69.1958 18.0844 68.8058 19.0663 68.8058C20.0482 68.8058 20.9899 69.1958 21.6843 69.8902C22.3786 70.5845 22.7687 71.5262 22.7687 72.5081C22.7687 73.4901 22.3786 74.4318 21.6843 75.1261C20.9899 75.8204 20.0482 76.2105 19.0663 76.2105ZM40.1283 83.8355C39.396 83.8355 38.6802 83.6183 38.0713 83.2115C37.4625 82.8047 36.9879 82.2265 36.7077 81.55C36.4275 80.8734 36.3542 80.129 36.497 79.4108C36.6399 78.6926 36.9925 78.0329 37.5103 77.5152C38.0281 76.9974 38.6878 76.6448 39.4059 76.5019C40.1241 76.359 40.8686 76.4324 41.5451 76.7126C42.2216 76.9928 42.7998 77.4674 43.2066 78.0762C43.6135 78.6851 43.8306 79.4009 43.8306 80.1331C43.8217 81.1092 43.4277 82.0422 42.7343 82.7292C42.0409 83.4162 41.1043 83.8016 40.1283 83.8016V83.8355ZM61.1817 76.2105C60.4495 76.2105 59.7336 75.9933 59.1248 75.5865C58.5159 75.1797 58.0414 74.6015 57.7612 73.9249C57.481 73.2484 57.4076 72.504 57.5505 71.7858C57.6934 71.0676 58.046 70.4079 58.5638 69.8902C59.0815 69.3724 59.7412 69.0198 60.4594 68.8769C61.1776 68.734 61.922 68.8074 62.5986 69.0876C63.2751 69.3678 63.8533 69.8424 64.2601 70.4512C64.6669 71.0601 64.8841 71.7759 64.8841 72.5081C64.8841 73.4901 64.494 74.4318 63.7997 75.1261C63.1054 75.8204 62.1636 76.2105 61.1817 76.2105ZM65.6212 50.5735L55.5985 50.4041V43.4314C55.5985 43.2068 55.5093 42.9913 55.3504 42.8324C55.1915 42.6735 54.976 42.5842 54.7513 42.5842H51.947V36.4249C52.0621 34.8008 51.8415 33.1703 51.299 31.6351C50.7565 30.0999 49.9038 28.6928 48.7939 27.5014C47.684 26.3101 46.3407 25.3601 44.8476 24.7105C43.3546 24.0609 41.7438 23.7256 40.1155 23.7256C38.4873 23.7256 36.8765 24.0609 35.3835 24.7105C33.8904 25.3601 32.5471 26.3101 31.4372 27.5014C30.3273 28.6928 29.4745 30.0999 28.9321 31.6351C28.3896 33.1703 28.169 34.8008 28.2841 36.4249V42.5927H25.4713C25.2466 42.5927 25.0311 42.682 24.8722 42.8408C24.7133 42.9997 24.6241 43.2152 24.6241 43.4399V49.8958L16.3298 49.7602C8.34895 49.7602 2.33367 44.0923 2.33367 36.5774C2.33814 32.8697 3.81184 29.3149 6.43198 26.6916C9.05213 24.0683 12.6052 22.5903 16.3128 22.5813H16.3637C16.4827 22.5833 16.6008 22.5602 16.7103 22.5135C16.8198 22.4668 16.9182 22.3975 16.9991 22.3102C17.0771 22.2293 17.1383 22.1338 17.179 22.029C17.2197 21.9243 17.2392 21.8125 17.2363 21.7002C17.2363 21.5985 17.2363 21.5053 17.2363 21.4037C17.2363 21.302 17.2363 21.1834 17.2363 21.0817C17.2361 17.0975 18.5126 13.2181 20.8786 10.0124C23.2446 6.80677 26.5755 4.44362 30.3829 3.26959C34.1902 2.09555 38.2735 2.17242 42.034 3.48891C45.7944 4.8054 49.034 7.29222 51.2777 10.5846C51.3947 10.7538 51.5693 10.8745 51.7689 10.9244C51.9684 10.9743 52.1793 10.9499 52.3621 10.8558C53.8171 10.0803 55.4409 9.67585 57.0896 9.67812C59.786 9.67812 62.3719 10.7492 64.2786 12.6559C66.1852 14.5625 67.2563 17.1484 67.2563 19.8448C67.2565 20.4876 67.194 21.1288 67.0699 21.7595C67.0496 21.871 67.0519 21.9854 67.0767 22.096C67.1014 22.2066 67.1481 22.3112 67.2139 22.4034C67.2793 22.4957 67.3624 22.5739 67.4584 22.6336C67.5544 22.6933 67.6614 22.7331 67.7731 22.7508C71.2707 23.2713 74.4414 25.0972 76.6471 27.8612C78.8528 30.6251 79.9298 34.1218 79.6614 37.6478C79.393 41.1737 77.799 44.4672 75.2004 46.8653C72.6017 49.2635 69.1912 50.5885 65.655 50.5735H65.6212ZM53.921 60.0285C53.9078 61.5838 53.284 63.0717 52.1842 64.1715C51.0844 65.2713 49.5966 65.895 48.0413 65.9083H32.2491C31.4727 65.915 30.7026 65.7678 29.9834 65.4754C29.2642 65.1829 28.61 64.7509 28.0586 64.2042C27.5072 63.6576 27.0696 63.0071 26.7709 62.2904C26.4722 61.5737 26.3185 60.805 26.3185 60.0285V44.2787H53.9041L53.921 60.0285ZM29.9785 36.4249C29.9785 33.7286 31.0497 31.1426 32.9563 29.236C34.8629 27.3294 37.4488 26.2583 40.1452 26.2583C42.8416 26.2583 45.4275 27.3294 47.3341 29.236C49.2407 31.1426 50.3119 33.7286 50.3119 36.4249V42.5927H46.4739V36.4249C46.505 35.576 46.3647 34.7296 46.0613 33.9361C45.7579 33.1427 45.2976 32.4186 44.7081 31.807C44.1185 31.1955 43.4117 30.709 42.6299 30.3768C41.8481 30.0445 41.0074 29.8733 40.1579 29.8733C39.3084 29.8733 38.4677 30.0445 37.6859 30.3768C36.9041 30.709 36.1973 31.1955 35.6077 31.807C35.0182 32.4186 34.5579 33.1427 34.2545 33.9361C33.9511 34.7296 33.8108 35.576 33.8419 36.4249V42.5927H30.0124L29.9785 36.4249ZM35.4939 36.4249C35.4939 35.1958 35.9822 34.0171 36.8513 33.148C37.7204 32.2789 38.8992 31.7906 40.1283 31.7906C41.3573 31.7906 42.5361 32.2789 43.4052 33.148C44.2743 34.0171 44.7626 35.1958 44.7626 36.4249V42.5927H35.4939V36.4249Z" fill="#0F0996"/>
<path d="M40.1281 76.3984C39.3959 76.3984 38.6801 76.6156 38.0712 77.0224C37.4624 77.4292 36.9878 78.0075 36.7076 78.684C36.4274 79.3605 36.3541 80.1049 36.4969 80.8231C36.6398 81.5413 36.9924 82.201 37.5102 82.7188C38.028 83.2366 38.6877 83.5892 39.4058 83.732C40.124 83.8749 40.8685 83.8016 41.545 83.5213C42.2215 83.2411 42.7997 82.7666 43.2065 82.1577C43.6134 81.5489 43.8305 80.8331 43.8305 80.1008C43.8305 79.1189 43.4404 78.1772 42.7461 77.4828C42.0518 76.7885 41.1101 76.3984 40.1281 76.3984Z" fill="#66C3CD"/>
<path d="M61.1809 68.8047C60.4486 68.8047 59.7328 69.0218 59.124 69.4287C58.5151 69.8355 58.0406 70.4137 57.7603 71.0902C57.4801 71.7667 57.4068 72.5112 57.5497 73.2293C57.6925 73.9475 58.0451 74.6072 58.5629 75.125C59.0807 75.6428 59.7404 75.9954 60.4586 76.1383C61.1768 76.2811 61.9212 76.2078 62.5977 75.9276C63.2742 75.6474 63.8525 75.1728 64.2593 74.564C64.6661 73.9551 64.8832 73.2393 64.8832 72.5071C64.8832 71.5251 64.4932 70.5834 63.7988 69.8891C63.1045 69.1948 62.1628 68.8047 61.1809 68.8047Z" fill="#66C3CD"/>
<path d="M19.0839 68.8049C18.3523 68.8083 17.6382 69.0283 17.0316 69.4371C16.4249 69.846 15.953 70.4254 15.6754 71.1022C15.3978 71.779 15.3269 72.5229 15.4717 73.2399C15.6164 73.957 15.9704 74.6151 16.4888 75.1312C17.0073 75.6473 17.667 75.9982 18.3847 76.1397C19.1024 76.2812 19.846 76.2069 20.5215 75.9262C21.197 75.6455 21.7743 75.1709 22.1804 74.5624C22.5864 73.954 22.8032 73.2388 22.8032 72.5073C22.8032 72.0175 22.706 71.5326 22.5173 71.0806C22.3286 70.6286 22.0521 70.2186 21.7038 69.8742C21.3555 69.5299 20.9424 69.2581 20.4883 69.0745C20.0342 68.891 19.5482 68.7993 19.0584 68.8049H19.0839Z" fill="#66C3CD"/>
<path d="M53.9209 44.2773H26.3184V60.0272C26.3183 60.8036 26.4721 61.5724 26.7707 62.2891C27.0694 63.0058 27.507 63.6562 28.0584 64.2029C28.6098 64.7495 29.264 65.1816 29.9832 65.474C30.7025 65.7665 31.4725 65.9136 32.2489 65.9069H48.075C49.6303 65.8937 51.1182 65.2699 52.2179 64.1701C53.3177 63.0703 53.9415 61.5825 53.9547 60.0272L53.9209 44.2773ZM42.729 55.7996V60.7643C42.729 60.989 42.6398 61.2045 42.4809 61.3634C42.322 61.5223 42.1065 61.6115 41.8818 61.6115H38.3489C38.1242 61.6115 37.9087 61.5223 37.7498 61.3634C37.591 61.2045 37.5017 60.989 37.5017 60.7643V55.7996C36.6717 55.2413 36.0429 54.4312 35.708 53.4887C35.3732 52.5461 35.35 51.5209 35.6418 50.5641C35.9336 49.6073 36.525 48.7696 37.3289 48.1743C38.1328 47.5791 39.1066 47.2578 40.1069 47.2578C41.1072 47.2578 42.081 47.5791 42.8849 48.1743C43.6888 48.7696 44.2802 49.6073 44.572 50.5641C44.8638 51.5209 44.8406 52.5461 44.5058 53.4887C44.1709 54.4312 43.5421 55.2413 42.7121 55.7996H42.729Z" fill="#2DB5FF"/>
<path d="M33.8086 36.4245C33.7775 35.5756 33.9179 34.7291 34.2213 33.9357C34.5247 33.1423 34.9849 32.4181 35.5745 31.8066C36.1641 31.195 36.8709 30.7086 37.6527 30.3763C38.4345 30.0441 39.2752 29.8728 40.1247 29.8728C40.9742 29.8728 41.8149 30.0441 42.5967 30.3763C43.3785 30.7086 44.0853 31.195 44.6749 31.8066C45.2644 32.4181 45.7247 33.1423 46.0281 33.9357C46.3315 34.7291 46.4718 35.5756 46.4407 36.4245V42.5923H50.2786V36.4245C50.2786 33.7281 49.2075 31.1422 47.3009 29.2356C45.3943 27.3289 42.8083 26.2578 40.112 26.2578C37.4156 26.2578 34.8297 27.3289 32.9231 29.2356C31.0164 31.1422 29.9453 33.7281 29.9453 36.4245V42.5923H33.7748L33.8086 36.4245Z" fill="#2DB5FF"/>
<path d="M40.1292 48.9649C39.4608 48.9607 38.8105 49.1818 38.2832 49.5925C37.7559 50.0032 37.3823 50.5796 37.2227 51.2286C37.0631 51.8777 37.1269 52.5616 37.4037 53.17C37.6804 53.7784 38.1541 54.2758 38.7482 54.582C38.8835 54.654 38.9967 54.7614 39.0758 54.8927C39.1549 55.024 39.1969 55.1743 39.1973 55.3275V59.9195H41.0527V55.353C41.0531 55.1997 41.0951 55.0494 41.1742 54.9181C41.2532 54.7868 41.3664 54.6794 41.5017 54.6074C42.0952 54.3015 42.5685 53.8049 42.8454 53.1973C43.1223 52.5898 43.1867 51.9068 43.0282 51.2582C42.8697 50.6096 42.4976 50.0333 41.9717 49.6219C41.4459 49.2105 40.7969 48.988 40.1292 48.9903V48.9649Z" fill="white"/>
<path d="M40.1279 47.2852C39.1319 47.287 38.1627 47.6078 37.3625 48.2007C36.5622 48.7936 35.9729 49.6273 35.6811 50.5795C35.3893 51.5318 35.4102 52.5525 35.7409 53.4919C36.0715 54.4314 36.6945 55.2402 37.5185 55.7998V60.7645C37.5185 60.9892 37.6077 61.2047 37.7666 61.3636C37.9255 61.5224 38.141 61.6117 38.3657 61.6117H41.8986C42.1233 61.6117 42.3388 61.5224 42.4977 61.3636C42.6566 61.2047 42.7458 60.9892 42.7458 60.7645V55.7998C43.5749 55.2439 44.2032 54.4361 44.5378 53.4957C44.8724 52.5553 44.8957 51.5322 44.604 50.5776C44.3124 49.6229 43.7215 48.7875 42.9185 48.1946C42.1154 47.6017 41.143 47.2828 40.1449 47.2852H40.1279ZM43.1017 51.9449C43.103 52.4889 42.9542 53.0227 42.6717 53.4876C42.3891 53.9524 41.9839 54.3304 41.5004 54.5797C41.3651 54.6518 41.2519 54.7592 41.1728 54.8905C41.0938 55.0218 41.0518 55.172 41.0514 55.3253V59.9173H39.196V55.3507C39.1955 55.1975 39.1536 55.0472 39.0745 54.9159C38.9954 54.7846 38.8822 54.6772 38.7469 54.6052C38.2805 54.3606 37.8873 53.9965 37.6077 53.5501C37.3281 53.1037 37.1721 52.5911 37.1556 52.0646C37.1391 51.5381 37.2628 51.0168 37.5139 50.5538C37.765 50.0908 38.1346 49.7028 38.5849 49.4294C39.0351 49.1561 39.5499 49.0073 40.0765 48.9982C40.6032 48.9891 41.1228 49.1201 41.5822 49.3776C42.0416 49.6352 42.4244 50.0102 42.6914 50.4643C42.9583 50.9183 43.0999 51.4351 43.1017 51.9618V51.9449Z" fill="#0F0996"/>
</g>
<defs>
<clipPath id="clip0_1007_3659">
<rect width="80.6132" height="84.7222" fill="white" transform="translate(0.681641 0.765625)"/>
</clipPath>
</defs>
</svg>
