<svg width="250" height="250" viewBox="0 0 250 250" fill="none" xmlns="http://www.w3.org/2000/svg">
<path d="M260.5 88.7779V87.9174C260.395 81.3099 257.824 38.6684 209.089 30.1618C166.652 22.7536 163.856 -10 163.856 -10H117.697C117.697 -10 123.85 30.3598 53.9532 65.9748C13.7201 86.4671 3.15841 120.841 0.5 143.178V250H260.5V88.5927C260.5 88.7145 260.5 88.7779 260.5 88.7779Z" fill="#150DCE"/>
<path d="M117.691 -10H0.5V143.178C3.15841 120.841 13.7201 86.4671 53.9467 65.9748C123.843 30.3598 117.691 -10 117.691 -10Z" fill="#66C3CD"/>
<path d="M209.086 30.1618C257.82 38.6684 260.392 81.307 260.497 87.9174V-10H163.854C163.854 -10 166.649 22.755 209.086 30.1618Z" fill="#00007E"/>
<path d="M31.5209 197.188C39.5 189.996 52.4454 184.11 62.7255 173.453C73.0056 162.796 83.6106 151.372 97.7211 146.865C110.138 142.899 123.569 144.848 136.459 146.835C147.359 148.518 158.506 150.27 168.244 155.455C171.602 157.237 174.743 159.411 178.12 161.153C181.695 163.003 185.496 164.371 189.287 165.729L215.686 175.185C218.04 176.031 220.462 176.907 222.362 178.541C224.263 180.174 225.434 182.339 226.616 184.484C232.288 194.797 237.989 205.178 241.593 216.376C243.799 223.255 245.197 230.369 246.585 237.464L256.934 290.267C241.869 285.258 225.543 286.537 209.709 287.639C159.3 291.175 108.802 292.428 58.2157 291.398C54.405 291.319 50.5056 291.211 46.9805 289.784C42.3131 287.885 19.3404 291.634 18.9465 286.616C14.8109 234.896 20.9947 246.832 19.6654 229.336C18.6807 216.494 20.0297 203.023 31.5209 197.188Z" fill="#242424"/>
<path d="M142.317 150.429C142.987 157.711 148.698 163.339 153.592 168.791C154.931 170.286 156.24 171.831 157.136 173.622C158.791 176.948 158.85 180.845 158.298 184.515C157.314 190.99 158.702 196.894 156.171 202.946C147.634 223.355 137.305 244.895 133.642 266.721C131.042 265.245 128.305 264.005 125.814 262.352C116.952 256.457 112.284 246.145 108.07 236.383L95.4264 207.118C92.3444 199.984 89.2229 192.712 88.4549 184.988C87.0566 170.926 91.3892 150.321 89.5872 136.298C89.3706 134.655 91.8815 138.808 93.5358 138.935C93.9986 138.975 94.4122 139.24 94.7962 139.496C99.3947 142.429 104.712 144.003 109.95 145.538C120.851 148.736 132.391 151.964 143.42 149.199" fill="#FFAD87"/>
<path d="M146.543 295.578L177.275 251.415L182.514 243.897C188.244 235.67 193.985 227.414 200.553 219.837C200.996 219.326 201.469 218.716 201.341 218.056C201.242 217.554 200.819 217.19 200.425 216.866C198.436 215.222 196.447 213.54 194.842 211.522C193.434 209.741 192.331 207.744 191.218 205.766C186.413 197.165 181.26 188.772 175.759 180.585C174.804 179.168 173.514 177.583 171.8 177.702C170.382 177.8 169.358 179.05 168.511 180.191C160.329 191.291 154.43 202.499 148.532 214.957C146.297 219.66 144.278 225.594 142.398 230.445C140.783 234.608 137.927 239.656 136.854 243.985C135.977 247.518 134.51 249.151 134.008 252.753L132.403 264.246C132.137 266.106 131.881 268.005 132.196 269.855C132.462 271.39 133.112 272.817 133.782 274.214C137.418 281.817 141.823 289.028 146.927 295.735" fill="#242424"/>
<g style="mix-blend-mode:multiply">
<path d="M147.861 147.407C149.712 155.703 155.955 178.581 162.513 183.983C164.836 185.912 149.328 193.381 146.659 194.394C143.301 195.664 139.786 196.963 136.222 196.52C134.823 196.353 133.336 195.811 132.637 194.581C132.106 193.656 132.145 192.525 132.115 191.452C132.034 188.256 131.265 185.115 129.861 182.242C127.158 185.689 123.839 188.605 120.073 190.842C119.098 191.432 117.69 191.905 116.941 191.049C116.757 190.811 116.62 190.541 116.538 190.252C115.415 186.876 116.055 183.206 116.439 179.673C116.823 176.141 116.843 172.274 114.755 169.39C113.249 167.324 110.876 166.094 108.67 164.785C102.485 161.104 97.0746 156.258 92.738 150.517L92.8266 152.701C93.5257 159.717 94.3725 161.518 95.7019 168.318C97.0312 175.117 96.1351 182.438 92.669 188.431C89.7544 185.184 90.168 181.878 90.0006 177.518C89.9316 175.698 91.3003 170.099 91.6745 168.318C93.2599 160.593 91.1132 147.407 90.3058 142.891L147.861 147.407Z" fill="#BB927F"/>
</g>
<path d="M162.514 183.981C161.854 180.37 160.062 177.063 158.841 173.6C158.585 172.881 158.319 172.143 157.916 171.484C157.512 170.825 157.01 170.333 156.508 169.801C152.845 165.977 156.403 169.788 152.707 165.996V171.484C158.083 176.936 157.276 178.963 156.872 186.618L156.419 186.963C154.736 188.025 153.282 189.413 152.144 191.046C151.006 192.678 150.206 194.522 149.792 196.468C149.595 197.423 149.487 198.417 149.014 199.273C148.542 200.129 147.498 200.956 146.562 201.595L132.452 211.337C132.173 211.53 131.848 211.644 131.511 211.668C131.173 211.693 130.835 211.626 130.532 211.475L125.49 208.916L124.692 208.533C121.039 207.696 119.897 209.271 119.897 210.569C119.907 210.815 119.828 211.229 119.917 211.553C116.145 210.146 114.826 205.531 111.941 202.727C109.489 200.355 105.688 199.066 104.566 195.839C104.182 194.746 104.172 193.556 103.876 192.434C102.301 186.53 93.8916 185.014 91.4595 179.415C90.6717 177.595 90.6225 175.548 90.6914 173.57C90.8194 169.87 92.6903 167.981 92.2078 162.588L92.1389 156.586C87.6881 167.085 82.3807 179.947 82.814 191.342C83.2472 202.737 87.4813 214.26 95.8511 222.004C99.5732 225.448 102.192 228.168 105.501 231.996C108.501 236.496 112.453 240.189 114.343 244.676L119.572 257.074L120.36 259.288C120.901 262.103 123.275 264.179 125.687 265.724C128.099 267.269 130.768 268.568 132.59 270.772L132.629 265.724C134.096 251.534 139.285 238.024 144.662 224.808C146.247 220.892 147.862 216.985 149.969 213.325C154.528 205.413 161.48 198.368 162.622 189.305C162.622 189.305 162.75 185.29 162.514 183.981ZM152.707 204.951C151.279 206.456 150.452 208.414 149.654 210.333C144.79 222.063 140.188 233.897 135.849 245.837C134.687 249.045 133.387 252.459 130.591 254.417H120.931C114.393 241.615 110.119 231.706 103.571 218.904C101.139 214.141 98.6378 208.739 100.272 203.642V200.021C100.637 199.922 101.031 200.001 101.395 200.099C106.249 201.428 109.814 205.453 113.132 209.241C114.974 211.347 116.273 212.055 118.706 213.531L118.804 214.692C118.932 216.119 119.228 216.542 120.005 216.405C119.493 219.15 118.981 221.994 119.651 224.7C120.015 226.206 120.744 227.642 120.803 229.187C120.862 230.732 120.242 232.277 119.917 233.822C119.592 235.367 119.661 237.197 120.833 238.26C121.719 239.067 123.324 238.919 124.043 238.102C124.151 237.778 124.269 237.463 124.407 237.138C124.41 237.494 124.28 237.838 124.043 238.102C122.211 243.269 122.31 248.877 122.861 254.417H124.87C124.204 250.185 124.631 245.853 126.11 241.832C126.051 246.044 126.347 250.255 126.997 254.417H128.986L128.956 254.122C128.257 247.264 129.074 240.346 129.202 233.458C129.313 227.6 128.924 221.744 128.04 215.952L131.792 224.11C132.176 224.946 132.659 225.871 133.545 226.147C134.717 226.511 135.938 225.399 136.164 224.188C136.391 222.978 135.938 221.768 135.494 220.616C134.657 218.461 133.811 216.316 132.974 214.161L132.895 214.014C136.872 212.014 140.656 209.652 144.199 206.958C148.335 203.809 152.48 200.07 157.65 199.529L152.707 204.951Z" fill="black"/>
<path d="M93.045 39.7115C76.0296 50.6735 67.3841 74.91 61.8108 95.8992C56.2375 116.888 54.4749 138.655 52.0428 160.235C50.8513 170.803 49.1281 182.168 41.6445 189.726C53.9826 191.694 67.2266 185.455 73.5581 174.69C75.3502 171.649 76.6401 168.274 78.8951 165.568C80.7364 163.364 83.1391 161.691 85.1872 159.693C91.9126 153.13 91.501 155.004 93.001 134.004C93.3062 124.616 93.4093 115.265 92.72 105.897C92.0307 96.529 92.5034 86.7183 96.8754 78.4131C99.2386 73.9063 102.655 70.0292 106.407 66.5852C111.191 62.2007 116.539 58.4744 122.31 55.5051C123.984 54.6391 125.727 53.8125 127.085 52.5038C128.139 51.4902 128.907 50.2307 129.665 48.9908C132.639 44.1101 133.722 38.3831 132.432 31.9377C131.92 29.212 131.083 28.3854 126.367 27.7458C121.65 27.1062 119.228 28.0508 114.61 29.212C107.864 30.9242 101.818 34.1616 93.9706 38.5602L93.045 39.7115Z" fill="#FF8D06"/>
<path d="M142.15 150.975C143.631 156.119 146.639 160.693 150.776 164.092C151.82 164.939 152.923 165.706 154.016 166.474C156.231 152.599 162.002 139.157 161.44 125.125C155.572 128.933 153.809 136.628 149.565 142.188C147.202 145.268 143.588 146.705 142.367 150.385L142.15 150.975Z" fill="#945000"/>
<path d="M75 150.5C79 142.5 77.6667 123.5 76.5 115L85.5 113.5L94 142L92 150.5L85.5 174L55.5 192C55.8333 190.667 57.1 186.4 59.5 180C62.5 172 70 160.5 75 150.5Z" fill="#945000"/>
<path d="M128.06 51.236C122.536 51.1671 117.73 53.3319 112.393 54.7489C100.006 58.0257 90.7501 68.9877 86.5356 81.0715C82.3212 93.1553 82.4197 106.312 83.4241 119.074C85.5005 126 84.7041 132.201 87.5006 138.096C91.4197 146.361 98.0005 151 105 157.5C112 164 117 166.081 125.49 166.081C129.5 166.081 133.013 163.169 136.37 160.895C139.226 158.957 142.091 157.018 144.661 154.716C154.272 146.066 158.802 133.156 161.431 120.511C164.326 106.656 165.133 91.2857 157.659 79.2708C155.158 75.2658 153.1 71.0345 149.831 67.6298C146.857 64.5498 145.518 62.0897 142.554 59.0196C138.95 55.2803 133.761 50.9506 131.427 51.5607L128.06 51.236Z" fill="#FFAD87"/>
<path d="M141.481 99.5526C142.397 99.2181 143.401 99.2771 144.366 99.2181C147.881 99.0311 151.535 98.8638 154.804 100.173C155.739 100.546 156.625 101.039 157.502 101.531C159.855 102.839 162.228 104.158 164.217 105.978C162.553 102.721 160.446 99.7298 157.216 98.0077C156.655 97.7125 155.848 97.2402 155.296 96.9253C152.165 95.1344 149.349 95.0458 147.3 94.9572C146.503 94.9179 145.764 94.8588 145.144 94.8785C142.397 94.9671 141.776 95.5673 141.186 96.0889C141.314 95.7149 141.875 94.9179 142.18 94.6719C141.53 94.8293 140.615 95.6854 140.24 96.2365C140.358 95.8822 140.615 95.1836 140.733 94.8293C140.073 95.0261 139.354 95.833 139.019 96.4431C139 96.0889 139.216 95.3115 139.354 94.9966C138.31 95.4099 137.592 96.9548 137.257 98.0274C137.19 98.2 137.157 98.3836 137.158 98.5686C137.182 98.8109 137.278 99.0406 137.434 99.2279C137.887 99.8282 138.645 100.163 139.393 100.192C140.142 100.222 140.969 99.7396 141.481 99.5526Z" fill="#4A443C"/>
<path d="M253.31 293.721C235.57 266.45 222.381 236.48 214.258 204.982C214.061 204.224 213.894 203.467 213.746 202.699L213.46 201.125C212.909 198.212 212.298 195.211 210.762 192.672C205.173 183.446 202.498 176.772 201.321 173.28C200.873 171.953 201.974 170.78 203.319 171.167C209.58 172.967 224.715 179.136 232.662 197.976C226.074 167.264 205.78 141.522 192.959 112.848C182.088 88.5425 175.895 60.9112 156.881 42.264C149.909 35.4152 139.973 29.885 130.639 32.778C130.639 32.778 127.163 50.8053 127.242 50.8053C127.271 51.3268 127.734 51.8188 128.216 52.0943C128.699 52.3699 129.339 52.6257 129.94 53.0292L130.432 53.2358C135.198 55.3669 139.569 58.288 143.361 61.8755C145.576 63.9617 147.585 66.284 149.161 68.8818C150.982 71.8732 152.193 75.1894 153.267 78.5252C154.34 81.861 155.344 85.4429 156.172 88.9657C158.665 107.111 158.572 125.518 155.896 143.638C153.158 162.108 147.752 181.011 152.351 199.117L156.162 207.944C162.73 240.584 181.33 270.341 184.373 303.492C188.136 303.836 191.69 305.374 194.515 307.881C199.911 299.369 199.645 288.555 198.72 278.528C196.425 253.681 191.256 229.248 185.131 205.031C198.641 240.141 222.982 271.197 253.31 293.721Z" fill="#FF8D06"/>
<path d="M112.827 90.8083C109.341 89.2437 105.481 88.0432 101.66 88.2597C100.693 88.3317 99.7322 88.4731 98.7852 88.6828C96.2841 89.1945 93.6353 90.0407 92.1484 92.117C93.3202 91.6349 94.6003 91.5168 95.8607 91.4774C99.962 91.3466 104.053 91.9634 107.933 93.2979C108.617 93.5283 109.285 93.8045 109.932 94.1244C110.611 94.4689 111.241 94.892 111.901 95.2758C113.944 96.4663 116.192 97.264 118.528 97.6276C119.158 97.726 119.887 97.7653 120.36 97.3324C120.832 96.8994 120.793 95.8071 120.478 95.0691C120.093 94.1434 119.546 93.2937 118.863 92.5598C118.97 93.1521 119.042 93.7501 119.08 94.3508C118.292 93.8391 117.662 92.5795 116.972 91.9498C117.022 92.1859 117.327 93.3077 117.12 93.4356C116.381 91.9498 115.279 91.2511 114.363 90.454C114.865 91.1625 115.111 92.2548 114.983 92.5008C114.284 91.5069 113.506 91.2019 113.27 91.0445L112.827 90.8083Z" fill="#4A443C"/>
<path d="M110.926 137.567C119.119 140.893 128.296 140.519 137.099 139.742C137.67 139.624 138.202 140.371 137.099 140.962C135.996 141.552 134.736 142.162 133.968 143.048C132.973 144.209 132.156 145.597 130.836 146.374C129.665 147.063 128.349 147.411 127 147.5C123.367 147.746 119.463 147.594 116.184 146.01C114.756 145.321 113.486 144.337 112.265 143.333C111.655 142.831 111.044 142.31 110.67 141.611C110.296 140.913 110.188 140.135 109.872 139.437C109.311 138.216 108.228 137.842 107.135 137.075C106.997 136.937 106.338 135.842 107.5 136C108.662 136.157 110.926 137.567 110.926 137.567Z" fill="#CE4447"/>
<path d="M131.477 138.662C129.537 137.954 127.577 137.068 125.519 137.177C125.056 137.196 124.584 137.275 124.111 137.236C123.638 137.196 123.274 137.078 122.861 136.97C118.932 135.917 114.816 136.763 110.749 136.645C110.463 136.635 109.971 136.596 109.459 136.547C108.947 136.498 108.09 135.966 107.706 135.917C107.322 135.868 107 136.004 107 136.004C108.349 136.25 109.922 137.324 111.123 137.993C114.412 139.814 117.061 140.119 121.226 140.945C121.344 140.965 122.605 141.487 123.156 141.477C123.855 141.467 124.308 141.25 125.568 141.25C129.3 141.27 133.975 141.224 137.5 140.004C137.539 139.984 137.739 139.661 137 139.504C135.72 139.228 132.56 139.056 131.477 138.662Z" fill="#C12024"/>
<g style="mix-blend-mode:multiply">
<path d="M133.465 123.347C133.554 124.164 133.534 125.001 133.2 125.748C132.952 126.319 132.498 126.775 131.929 127.028C131.644 127.147 131.332 127.193 131.024 127.16C130.716 127.127 130.421 127.017 130.167 126.841C129.96 126.673 129.783 126.457 129.537 126.349C129.005 126.122 128.434 126.506 127.922 126.762C126.07 127.677 123.727 126.91 122.27 125.443C121.935 125.099 121.63 124.715 121.226 124.43C120.822 124.144 120.32 123.987 119.857 124.144C119.583 124.226 119.316 124.332 119.06 124.459C117.514 125.355 116.834 124.558 116.834 123.987C116.814 121.222 118.035 120.317 117.464 120.395C117.273 120.435 117.096 120.527 116.952 120.661C115.633 121.734 115.436 123.721 115.948 125.345C116.263 126.319 116.992 127.352 118.016 127.352C118.291 127.352 118.547 127.274 118.823 127.264C119.837 127.195 120.733 127.933 121.374 128.72C122.014 129.507 122.545 130.422 123.392 130.993C123.846 131.289 124.365 131.472 124.905 131.527C125.444 131.582 125.989 131.507 126.494 131.308C127.547 130.875 128.394 129.911 129.517 129.803C129.97 129.753 130.423 129.862 130.876 129.852C132.274 129.842 133.505 128.74 133.968 127.421C134.43 126.103 134.391 124.548 133.721 123.318C133.554 123.003 133.495 123.013 133.456 123.111C133.441 123.19 133.444 123.27 133.465 123.347Z" fill="#BB927F"/>
</g>
<path d="M119.433 126.887C119.246 126.837 119.01 126.7 118.695 126.877C118.537 126.956 118.399 127.142 118.478 127.31C118.509 127.373 118.553 127.43 118.606 127.477C118.744 127.615 118.823 127.802 118.97 127.93C119.118 128.058 119.354 128.156 119.571 128.225C120.308 128.482 121.028 128.784 121.727 129.13C121.538 128.662 121.275 128.227 120.949 127.841C120.595 127.428 120.142 127.064 119.61 126.946L119.433 126.887Z" fill="#4E1B3D"/>
<path d="M127.598 130.677C128.149 130.205 128.779 129.565 129.469 129.329C129.672 129.248 129.891 129.214 130.109 129.231C130.325 129.26 130.542 129.398 130.591 129.604C130.64 129.811 130.493 130.116 130.266 130.234C130.031 130.338 129.775 130.388 129.518 130.382C128.848 130.421 128.277 130.648 127.598 130.677Z" fill="#4E1B3D"/>
<path d="M83.7301 107.231C84.2421 111.532 84.5966 115.704 83.7695 119.925C83.7477 120.023 83.7064 120.115 83.648 120.196C83.5896 120.277 83.5153 120.345 83.4297 120.397C83.3441 120.448 83.2489 120.482 83.1499 120.496C83.0509 120.509 82.9501 120.503 82.8537 120.476C80.8548 119.925 78.7279 118.754 77.8023 116.993C77.4971 116.412 77.2706 115.792 76.8767 115.261C76.4828 114.73 75.6459 114.129 74.9861 113.618C71.973 111.305 70.1021 107.753 69.1962 104.063C68.2903 100.373 68.2903 96.5352 68.438 92.7467C68.5365 90.3949 68.9599 87.6199 71.0572 86.5572C71.9435 86.1045 72.9872 86.0652 73.9719 86.2029C78.0583 86.7835 81.229 90.3358 82.5682 94.2522C83.9073 98.1686 83.7301 107.231 83.7301 107.231Z" fill="#FFAD87"/>
<path d="M33.2246 223.433C35.1349 226.307 38.5222 227.94 41.9292 228.413C45.3362 228.885 48.8121 228.324 52.1798 227.576C59.4664 225.953 66.5857 223.424 74.02 222.745C76.1272 222.558 78.4806 222.4 79.8789 220.826C81.6415 218.848 80.7946 215.482 78.7465 213.819C76.6983 212.157 73.8723 211.792 71.2334 211.822C63.159 211.91 55.4292 214.872 47.8964 217.795L33.8843 223.227L33.2246 223.433Z" fill="#000E17"/>
<path d="M92.3638 154.985C92.7675 163.211 91.8419 175.197 88.041 179.31C88.041 179.31 85.4809 188.265 84.8605 191.561C83.3244 199.748 85.9338 205.682 89.8529 213.032C93.7719 220.383 100.251 224.713 105.716 231.001C112.077 238.332 116.449 250.209 122.81 257.54C125.813 260.994 129.831 261.919 132.549 265.609C140.475 276.374 151.809 295.69 156.998 308C151.208 295.986 83.6986 268.098 48.0925 254.686C50.1111 252.679 52.041 250.514 53.2719 248.664C60.4995 237.771 69.9623 227.596 77.1898 216.703C73.6154 214.528 68.5542 216.693 64.6351 218.149C60.7161 219.606 57.1023 220.865 53.1636 222.282C46.8813 224.555 37.1034 226.779 30.959 224.162C37.0049 213.849 43.7796 203.546 48.506 194.257C49.3824 192.535 50.308 190.794 51.7456 189.504C53.3408 188.078 55.4087 187.34 57.2992 186.356C71.3014 179.133 76.7386 155.481 91.499 150L92.3638 154.985Z" fill="#242424"/>
<path d="M117.118 103.87C117.667 103.02 112.321 97.2735 107.197 96.6992C102.073 96.1248 98.4764 98.967 98.3962 99.8723C98.236 101.682 99.8683 104.511 106.537 105.159C110.391 105.235 116.641 104.609 117.118 103.87Z" fill="url(#paint0_linear_1704_6330)"/>
<path d="M112.081 101.772C112.72 99.31 110.993 96.7641 108.224 96.0856C105.454 95.4072 102.691 96.8532 102.052 99.3153C101.413 101.777 103.14 104.323 105.909 105.002C108.678 105.68 111.442 104.234 112.081 101.772Z" fill="url(#paint1_linear_1704_6330)"/>
<path d="M108.578 105.133C111.113 104.472 112.483 102.066 111.64 99.7585C110.797 97.4514 108.059 96.1174 105.524 96.7789C102.99 97.4403 101.619 99.8468 102.463 102.154C103.306 104.461 106.044 105.795 108.578 105.133Z" fill="url(#paint2_linear_1704_6330)"/>
<path style="mix-blend-mode:multiply" d="M106.528 103.72C108.238 104.043 109.857 103.07 110.145 101.546C110.433 100.022 109.281 98.5252 107.571 98.2022C105.862 97.8791 104.243 98.8523 103.955 100.376C103.667 101.9 104.819 103.397 106.528 103.72Z" fill="url(#paint3_linear_1704_6330)"/>
<path d="M103.312 100.384C103.661 100.599 102.25 100.808 101.122 100.545C100.112 100.309 99.5552 99.8069 99.6287 99.6997C99.7023 99.5926 101.929 99.5421 103.312 100.384Z" fill="white"/>
<path d="M104.164 100.537C104.545 100.37 105.049 100.508 105.102 100.7C105.155 100.892 104.698 101.187 104.452 101.131C104.206 101.075 103.952 100.631 104.164 100.537Z" fill="white"/>
<path d="M116.943 103.103C116.943 103.103 112.651 96.3537 106.872 95.6023C101.094 94.8509 98.9083 99.1554 98.9083 99.1554C98.9083 99.1554 101.401 96.1875 107.2 96.6987C112.63 97.177 116.943 103.103 116.943 103.103Z" fill="#DD4C6A"/>
<path d="M98.3957 99.8757L97.9348 101.387C97.9348 101.387 99.2399 105.111 105.358 105.655C107.131 105.812 114.077 105.075 115.535 104.923C115.705 104.905 116.194 104.26 116.194 104.26C116.194 104.26 100.105 107.829 98.3957 99.8757Z" fill="#DD6B7C"/>
<path d="M116.942 103.104C116.942 103.104 112.753 97.4492 107.039 96.9532C101.325 96.4573 97.9618 101.497 97.9618 101.497L95 100.5L97.962 97.9057C97.962 97.9057 101.153 95.6162 105.446 95.7619C110.087 95.9206 114.469 99.4575 116.942 103.104Z" fill="#4E1B3D"/>
<path d="M116.759 102.877C116.759 102.877 116.169 104.492 115.108 104.767C115.108 104.767 118.56 105.843 119.034 104.83C119.271 104.324 116.759 102.877 116.759 102.877Z" fill="#DD6B7C"/>
<g style="mix-blend-mode:multiply" opacity="0.6">
<path d="M116.76 102.869C116.76 102.869 108.34 95.4036 98.6962 100.282L98.3975 99.8766C98.3975 99.8766 100.121 96.6302 106.123 96.623C112.126 96.6157 116.088 101.903 116.76 102.869Z" fill="#D177B8"/>
</g>
<path d="M134.926 106.657C134.646 105.733 141.44 102.071 146.521 103.016C151.603 103.962 154.229 107.556 154.043 108.397C153.672 110.077 151.286 112.165 144.702 110.845C140.983 109.813 135.17 107.461 134.926 106.657Z" fill="url(#paint4_linear_1704_6330)"/>
<path d="M140.366 106.199C140.467 103.793 142.861 101.987 145.714 102.166C148.567 102.345 150.798 104.44 150.698 106.846C150.597 109.253 148.203 111.058 145.35 110.88C142.497 110.701 140.266 108.605 140.366 106.199Z" fill="url(#paint5_linear_1704_6330)"/>
<path d="M142.751 110.232C140.512 108.911 139.895 106.346 141.372 104.503C142.85 102.661 145.863 102.239 148.102 103.56C150.341 104.882 150.958 107.447 149.481 109.289C148.003 111.132 144.99 111.554 142.751 110.232Z" fill="url(#paint6_linear_1704_6330)"/>
<path style="mix-blend-mode:multiply" d="M145.128 109.542C143.395 109.345 142.124 108.004 142.289 106.545C142.455 105.087 143.994 104.064 145.727 104.261C147.46 104.458 148.731 105.799 148.566 107.258C148.4 108.716 146.861 109.739 145.128 109.542Z" fill="url(#paint7_linear_1704_6330)"/>
<path d="M149.18 107.44C148.783 107.534 150.076 108.126 151.234 108.21C152.271 108.286 152.951 107.992 152.911 107.874C152.872 107.756 150.751 107.075 149.18 107.44Z" fill="white"/>
<path d="M148.317 107.341C148 107.082 147.476 107.063 147.37 107.221C147.264 107.379 147.617 107.776 147.869 107.796C148.121 107.815 148.493 107.486 148.317 107.341Z" fill="white"/>
<path d="M135.319 106.013C135.319 106.013 141.392 101.144 147.152 102.117C152.913 103.09 153.761 107.601 153.761 107.601C153.761 107.601 152.23 104.209 146.52 103.014C141.173 101.894 135.319 106.013 135.319 106.013Z" fill="#DD4C6A"/>
<path d="M154.043 108.402L154.047 109.899C154.047 109.899 151.716 112.889 145.69 111.632C143.944 111.267 137.495 108.617 136.141 108.063C135.982 107.998 135.701 107.276 135.701 107.276C135.701 107.276 150.098 115.096 154.043 108.402Z" fill="#DD6B7C"/>
<path d="M135.32 106.017C135.32 106.017 140.978 102.107 146.602 103.292C152.226 104.477 153.845 109.988 153.845 109.988L156.843 109.983C156.843 109.983 155.934 107.879 155.032 106.746C153.154 104.387 152.635 103.766 148.474 102.671C143.977 101.488 138.749 103.43 135.32 106.017Z" fill="#4E1B3D"/>
<path d="M135.56 105.864C135.56 105.864 135.657 107.491 136.595 108.043C136.595 108.043 132.972 108.028 132.811 106.978C132.731 106.453 135.56 105.864 135.56 105.864Z" fill="#DD6B7C"/>
<g style="mix-blend-mode:multiply" opacity="0.6">
<path d="M135.563 105.855C135.563 105.855 145.803 101.52 153.639 108.681L154.043 108.4C154.043 108.4 153.331 104.976 147.576 103.254C141.82 101.532 136.487 105.175 135.563 105.855Z" fill="#D177B8"/>
</g>
<path d="M124.473 34.7664C126.344 33.4773 126.6 30.6434 125.566 28.6261C124.532 26.6089 122.553 25.2509 120.544 24.1882C116.064 21.8005 111.126 20.3949 106.06 20.0651C102.544 19.8388 98.9107 20.1635 95.7105 21.6592C94.1055 22.4071 92.5004 23.6174 92.1558 25.369C91.9589 26.3825 92.2149 27.4158 92.4709 28.4195C93.1011 30.8697 93.7904 33.4085 95.4151 35.347C96.7641 36.9411 98.6448 38.0038 100.575 38.7812C102.918 39.716 105.567 40.2769 107.96 39.4799C108.767 39.2142 109.526 38.7911 110.284 38.4073C114.522 36.272 119.177 35.0898 123.922 34.9435L124.473 34.7664Z" fill="#242424"/>
<path d="M125.547 34.7664C127.418 33.4773 127.664 30.6434 126.63 28.6261C125.596 26.6089 123.617 25.2509 121.618 24.1882C117.134 21.8017 112.193 20.3962 107.124 20.0651C103.608 19.8388 99.975 20.1635 96.7846 21.6592C95.1697 22.4071 93.5745 23.6174 93.2299 25.369C93.0231 26.3825 93.2791 27.4158 93.5351 28.4195C94.1653 30.8697 94.8546 33.4085 96.4892 35.347C97.8283 36.9411 99.7091 38.0038 101.649 38.7812C103.992 39.716 106.631 40.2769 109.034 39.4799C109.841 39.2142 110.59 38.7911 111.348 38.4073C115.587 36.2729 120.242 35.0907 124.986 34.9435L125.547 34.7664Z" fill="#242424"/>
<path d="M170.174 45.424C170.942 45.611 171.779 47.0772 171.956 47.8447C172.133 48.6122 172.015 49.4191 171.887 50.2063C171.129 55.0477 170.45 59.4069 170.45 64.268L171.227 64.6223C171.227 58.2261 172.901 51.5938 173.719 44.9812C173.876 43.6429 173.975 42.1275 173.079 41.114C172.37 40.3169 171.73 40.0709 170.666 39.9922L170.174 45.424Z" fill="#242424"/>
<path d="M91.9794 24.5525C91.0538 24.4837 89.3208 24.5427 88.8383 25.3299C88.7015 25.5744 88.6082 25.8408 88.5626 26.1171C88.1982 27.7014 87.8241 29.2857 87.5877 30.8897C87.4499 31.7851 87.3514 32.6806 87.1742 33.5662C86.9969 34.4518 86.7901 35.121 86.5735 35.8885C85.213 40.7489 84.1346 45.6838 83.3438 50.6685C84.1709 50.2552 84.3087 49.163 84.4171 48.2478C84.5746 46.9686 84.8897 45.7287 85.195 44.479C86.1796 40.5495 87.2103 36.6363 88.2869 32.7396C88.4346 32.2181 88.5823 31.6867 88.8777 31.2341C89.1731 30.7814 89.6556 30.4173 90.1972 30.3976C90.4827 30.378 90.788 30.4567 91.0243 30.2894C91.2606 30.1221 91.2606 29.4923 91.0243 29.1381C90.788 28.7838 90.4532 28.4394 90.4827 28.0065C90.5122 27.5735 91.1129 27.1897 91.5462 27.4161L91.9794 24.5525Z" fill="#242424"/>
<path d="M138.822 36.0166C135.917 30.2994 139.6 28.7644 141.165 28.3904C148.058 26.7373 155.719 29.158 162.218 31.992C165.29 33.3302 167.762 35.5049 169.534 38.3487C169.958 39.0376 170.292 39.8051 170.41 40.6022C170.607 42.0093 170.125 43.4165 169.534 44.7055C168.943 45.9946 168.313 47.1065 167.388 48.0709C164.473 51.141 159.481 51.4756 155.571 49.8323C155.024 49.6298 154.515 49.3371 154.065 48.9663C153.503 48.494 153.119 47.8446 152.706 47.2345C149.486 42.3931 144.868 38.7325 139.235 37.2368L138.822 36.0166Z" fill="#242424"/>
<path d="M126.238 31.6102C127.902 30.4983 130.019 30.144 131.998 30.4491C133.977 30.7541 135.838 31.6496 137.443 32.8501C137.739 33.0764 138.054 33.3224 138.418 33.3618C138.782 33.4011 139.216 33.1551 139.216 32.7812C139.216 32.4073 139.009 32.3187 138.812 32.1416C136.035 29.6618 132.175 28.0874 128.552 28.9632C127.813 29.1501 127.084 29.4355 126.513 29.9275C125.942 30.4195 125.538 31.1674 125.568 31.9251L126.238 31.6102Z" fill="#242424"/>
<defs>
<linearGradient id="paint0_linear_1704_6330" x1="108.213" y1="105.593" x2="107.216" y2="96.1233" gradientUnits="userSpaceOnUse">
<stop stop-color="#EEE2FF"/>
<stop offset="1" stop-color="#BDC9FB"/>
</linearGradient>
<linearGradient id="paint1_linear_1704_6330" x1="108.559" y1="105.297" x2="107.532" y2="96.0879" gradientUnits="userSpaceOnUse">
<stop stop-color="#471F4B"/>
<stop offset="1" stop-color="#310A39"/>
</linearGradient>
<linearGradient id="paint2_linear_1704_6330" x1="107.453" y1="105.441" x2="106.51" y2="96.7199" gradientUnits="userSpaceOnUse">
<stop stop-color="#262C33"/>
<stop offset="1" stop-color="#310A39"/>
</linearGradient>
<linearGradient id="paint3_linear_1704_6330" x1="107.189" y1="103.549" x2="106.594" y2="97.8925" gradientUnits="userSpaceOnUse">
<stop stop-color="#A79ABD"/>
<stop offset="0.99" stop-color="#724A60"/>
</linearGradient>
<linearGradient id="paint4_linear_1704_6330" x1="142.968" y1="110.758" x2="146.403" y2="102.382" gradientUnits="userSpaceOnUse">
<stop stop-color="#EEE2FF"/>
<stop offset="1" stop-color="#BDC9FB"/>
</linearGradient>
<linearGradient id="paint5_linear_1704_6330" x1="142.722" y1="110.388" x2="146.114" y2="102.256" gradientUnits="userSpaceOnUse">
<stop stop-color="#471F4B"/>
<stop offset="1" stop-color="#310A39"/>
</linearGradient>
<linearGradient id="paint6_linear_1704_6330" x1="143.741" y1="110.832" x2="146.926" y2="103.123" gradientUnits="userSpaceOnUse">
<stop stop-color="#262C33"/>
<stop offset="1" stop-color="#310A39"/>
</linearGradient>
<linearGradient id="paint7_linear_1704_6330" x1="144.544" y1="109.199" x2="146.596" y2="104.196" gradientUnits="userSpaceOnUse">
<stop stop-color="#A79ABD"/>
<stop offset="0.99" stop-color="#724A60"/>
</linearGradient>
</defs>
</svg>
