<svg width="251" height="250" viewBox="0 0 251 250" fill="none" xmlns="http://www.w3.org/2000/svg">
<mask id="mask0_1708_12041" style="mask-type:alpha" maskUnits="userSpaceOnUse" x="0" y="0" width="251" height="250">
<rect x="0.5" width="250" height="250" fill="#C4C4C4"/>
</mask>
<g mask="url(#mask0_1708_12041)">
<path d="M113.393 257.924C110.769 248.354 103.905 240.496 96.3355 234.084C87.9696 227.002 78.0111 221.242 67.5215 218.086C77.4994 239.497 93.8397 257.345 114.113 269.199C114.634 265.43 114.389 261.595 113.393 257.924Z" fill="#781ED1"/>
<path d="M229.24 270.037H280.5V214.703C270.849 240.016 252.562 256.851 229.24 270.037Z" fill="#FA9101"/>
<path d="M114.112 269.196C114.633 265.429 114.388 261.595 113.392 257.924C110.769 248.354 103.904 240.496 96.3348 234.084C87.9696 227.002 78.0111 221.242 67.5215 218.086C77.4994 239.495 93.8397 257.342 114.112 269.196Z" fill="#66C3CD"/>
<path d="M277.043 54.0868C268.211 52.2934 258.068 51.408 252.524 44.3012C247.858 38.3179 248.036 29.6286 243.502 23.5437C236.556 14.2226 222.568 15.153 211.093 17.0254L170.456 23.6577C166.623 24.2834 162.684 24.9076 158.884 24.1097C155.083 23.3119 151.394 20.761 150.405 17.0045C148.989 11.6259 153.344 6.57769 157.477 2.85604C163.777 -2.80892 170.412 -8.09074 177.344 -12.9609L99.4373 -12.9609C96.9364 -10.2662 94.7141 -7.32561 92.8043 -4.18406C90.0627 0.337732 87.9568 5.22471 85.154 9.7093C80.1519 17.6825 73.0939 24.1607 64.7222 28.4625C52.5493 34.6939 38.176 36.0143 26.5141 43.1614C15.9531 49.6348 8.47574 60.5989 5.2573 72.5593C2.03885 84.5197 2.89871 97.385 6.63276 109.196C10.0683 120.062 15.8376 130.074 19.3174 140.927C22.7971 151.779 23.7182 164.303 17.7566 174.016C14.7095 178.978 10.1117 182.801 5.29607 186.079C2.86227 187.737 0.249363 189.305 -2.5 190.334V270.039H24.1904C19.3329 261.865 16.7424 252.381 17.372 242.869C17.8861 235.087 20.6098 227.02 26.7009 222.15C29.548 219.874 32.9727 218.419 36.4702 217.394C46.6722 214.405 57.3463 215.025 67.5204 218.092C60.6121 203.267 56.754 186.735 56.754 169.301C56.754 105.43 108.531 53.6526 172.402 53.6526C221.763 53.6526 263.901 84.5763 280.499 128.107V54.8613C279.353 54.5817 278.201 54.3235 277.043 54.0868Z" fill="#66C3CD"/>
<path d="M67.5209 218.09C57.3468 215.026 46.6727 214.406 36.4708 217.392C32.9724 218.417 29.5477 219.873 26.7014 222.148C20.6104 227.018 17.8866 235.085 17.3725 242.867C16.743 252.378 19.3334 261.862 24.1909 270.037H113.983C114.031 269.758 114.074 269.479 114.112 269.199C93.8391 257.346 77.4988 239.498 67.5209 218.09Z" fill="#66C3CD"/>
<path d="M172.404 53.6484C108.533 53.6484 56.7559 105.426 56.7559 169.297C56.7559 186.73 60.614 203.263 67.5223 218.088C78.0119 221.246 87.9704 227.004 96.334 234.088C103.906 240.5 110.77 248.358 113.392 257.928C114.388 261.599 114.633 265.433 114.113 269.201C114.595 269.483 115.08 269.762 115.567 270.038H229.24C252.562 256.852 270.849 240.017 280.5 214.704V128.103C263.902 84.5761 221.765 53.6484 172.404 53.6484Z" fill="#150DCE"/>
<path d="M211.999 195.523C207.007 185.478 195.998 177.471 188.64 168.969C179.236 158.082 175.367 143.405 174.043 129.09C172.72 114.774 173.622 100.278 172.359 85.942C171.656 78.0495 170.294 70.2295 168.289 62.5637C166.986 57.5712 165.402 52.6188 163.036 48.0274C157.101 36.5587 146.154 27.7568 133.662 24.4485C121.171 21.1402 107.317 23.3658 96.4696 30.4034C81.7328 39.9873 73.5925 57.1501 69.5023 74.2729C65.4121 91.3956 64.6502 109.14 60.7003 126.283C58.6953 134.964 55.8883 143.446 52.8206 151.806C48.7304 162.901 44.1724 173.808 39.1465 184.528C39.8691 184.762 40.5366 185.141 41.1087 185.64C41.6808 186.14 42.1456 186.751 42.4748 187.435C44.6201 187.014 46.7856 186.593 48.951 186.212C82.9759 180.498 117.602 189.46 152.088 190.523C172.74 191.145 192.17 189.769 211.999 195.523Z" fill="#551400"/>
<path d="M88.971 113.568C87.6853 115.557 85.947 117.212 83.8983 118.4C83.357 118.701 82.6552 118.982 82.154 118.621C81.6527 118.26 81.6728 117.779 81.6327 117.297C81.1114 112.104 80.6101 106.911 80.2693 101.698C80.2091 100.636 80.149 99.5531 80.4297 98.5305C80.7104 97.508 81.352 96.5255 82.3545 96.1446C83.357 95.7636 84.8407 96.1646 85.743 97.0067C86.6452 97.8488 87.1465 99.0117 87.5675 100.175C89.1114 104.345 88.971 113.568 88.971 113.568Z" fill="#F9A677"/>
<path d="M158.874 121.544C159.306 122.072 160.27 122.12 160.938 121.8C161.607 121.48 162 120.92 162.315 120.361C163.73 117.771 163.652 114.845 163.966 112.031C164.2 109.889 164.674 107.77 165.382 105.699C165.756 104.628 166.188 103.573 166.405 102.469C166.562 101.606 166.582 100.663 166.011 99.9111C165.441 99.1596 164.163 98.7279 163.239 99.1916C162.315 99.6553 162.256 100.423 162.118 101.174C160.925 107.698 159.719 114.221 158.5 120.745L158.874 121.544Z" fill="#F9A677"/>
<path d="M87.1678 119.504C92.7818 134.862 91.9598 156.436 83.7593 170.612C82.9573 172.015 79.7493 174.461 79.8094 176.085C79.9097 178.672 79.8094 180.877 82.1152 182.06C94.8871 188.597 114.817 187.233 129.153 186.351C134.526 186.03 139.96 185.589 145.132 184.045C150.305 182.501 155.278 179.755 158.626 175.524C156.601 176.105 154.696 174.161 153.934 172.176C153.173 170.191 152.932 167.965 151.569 166.321C149.544 163.855 147.097 164.637 144.651 162.552C142.566 160.767 141.744 157.118 142.005 154.391C142.265 151.664 142.125 148.817 143.228 146.311L142.987 145.549C135.488 145.188 127.95 144.827 120.631 143.123C113.313 141.419 106.195 138.291 100.822 133.058C98.9572 131.233 97.3332 129.208 95.6891 127.183C92.7217 123.554 89.654 119.985 86.5262 116.477L87.1678 119.504Z" fill="#F9A677"/>
<path d="M94.8667 143.866L98.5559 147.074C100.421 149.059 103.09 151.085 105.5 152.5C109.881 155.073 113 156.5 117.824 157.279C121.022 157.796 124.5 157.5 127.5 157C119.68 153.932 112.651 149.72 105.934 144.728C102.827 142.402 99.7389 140.016 97.0521 137.209C93.3629 133.359 90.3672 125.535 87.5 121.023C88.1015 125.715 88.7113 133.72 89.1524 138.432C89.4331 141.299 89.6737 144.207 89.393 147.074C88.5309 156.397 82.4758 164.397 80.0698 173.44C79.3881 176.026 79.0071 178.713 79.4282 181.339C79.8492 183.966 81.0923 186.552 83.2176 188.136C84.2602 188.918 85.4632 189.439 86.6863 189.881C92.4896 191.921 98.8037 191.992 104.651 190.081C105.894 189.66 107.278 188.958 107.478 187.675C107.639 186.753 107.097 185.871 106.536 185.129C104.711 182.783 103.368 178.813 102.165 176.086C100.32 171.876 99.3579 167.445 98.5559 163.936C96.7714 155.956 94.6862 151.786 94.3855 144.187" fill="#E28049"/>
<path d="M143.607 141.859C142.384 152.586 136.549 162.27 134.605 172.897C134.164 175.263 133.923 177.669 133.362 179.995C132.684 182.739 131.559 185.354 130.033 187.734C142.163 188.857 154.715 184.546 163.617 176.185C160.53 172.49 157.823 168.493 155.537 164.255C154.715 162.711 153.933 161.127 152.75 159.844C151.567 158.561 150.605 158.06 149.522 157.158C145.211 153.508 143.026 147.493 144.008 141.92" fill="#E28049"/>
<path d="M64.3103 186.548C67.3379 190.478 72.6912 191.681 77.6035 192.463C95.4715 195.315 113.58 196.369 131.658 195.611C139.177 195.29 146.836 194.608 153.814 191.781C158.145 190.017 162.114 187.45 166.044 184.904C169.252 182.839 172.681 180.493 173.844 176.864C174.646 174.418 174.285 171.771 173.904 169.225C173.583 167.019 172.661 164.253 170.435 164.172C169.393 164.152 168.47 164.754 167.668 165.395C161.974 169.887 158.185 176.563 152.089 180.473C145.994 184.383 138.516 185.024 131.358 185.566C114.175 186.889 96.0696 188.012 80.5508 180.513C78.3253 179.43 76.1398 178.167 73.7338 177.546C71.3278 176.924 68.581 177.065 66.6161 178.568C64.0898 180.493 63.5484 184.022 63.1875 187.19" fill="black"/>
<path d="M64.0897 186.757C66.3353 189.624 69.7639 191.067 73.1924 191.91C77.3428 192.932 81.6736 193.433 85.9041 193.975C95.4502 195.194 105.054 195.904 114.676 196.1C119.468 196.2 124.26 196.16 129.052 196.02C133.844 195.879 138.054 195.639 142.525 194.997C146.997 194.356 151.287 193.293 155.358 191.448C159.428 189.604 163.137 187.198 166.846 184.772C169.814 182.807 172.982 180.501 174.144 176.952C174.826 174.847 174.666 172.601 174.365 170.436C174.164 168.832 173.944 167.128 173.102 165.704C172.26 164.281 171.117 163.619 169.633 163.98C168.731 164.2 167.949 164.782 167.247 165.363C166.545 165.945 165.763 166.626 165.062 167.288C162.255 169.995 159.829 173.083 157.102 175.87C154.375 178.656 150.987 181.163 147.097 182.586C143.207 184.01 138.977 184.611 134.826 184.992C126.285 185.774 117.623 186.396 109.022 186.195C100.42 185.995 91.8791 184.852 83.8991 181.664C81.854 180.842 79.8891 179.819 77.9042 178.857C75.9192 177.895 74.1548 177.173 72.1097 176.952C70.0646 176.732 68.3603 177.052 66.8165 178.075C65.2726 179.098 64.4305 180.501 63.8691 182.105C63.3077 183.709 63.0872 185.473 62.8867 187.198C62.8466 187.579 63.4481 187.579 63.4882 187.198C63.8691 183.769 64.5508 179.479 68.1799 178.035C72.2501 176.391 76.4004 178.797 79.9493 180.541C87.2876 184.19 95.3678 185.915 103.488 186.536C111.608 187.158 120.27 186.697 128.631 186.075C136.43 185.514 144.871 185.213 151.749 181.042C154.957 179.078 157.583 176.351 160.069 173.564C162.555 170.777 165.082 167.649 168.17 165.383C168.972 164.822 169.914 164.281 170.936 164.561C171.638 164.762 172.18 165.323 172.54 165.945C173.443 167.428 173.623 169.273 173.844 170.957C174.104 173.103 174.185 175.348 173.342 177.393C172.641 179.098 171.378 180.521 169.994 181.724C168.611 182.927 166.967 183.97 165.383 184.992C163.799 186.015 161.713 187.338 159.849 188.441C156.039 190.646 152.029 192.371 147.739 193.413C143.448 194.456 139.097 194.897 134.706 195.158C130.315 195.418 125.563 195.539 120.992 195.559C111.658 195.579 102.329 195.117 93.042 194.175C88.3636 193.707 83.712 193.113 79.0871 192.391C75.4581 191.849 71.6887 191.268 68.4004 189.524C66.8948 188.754 65.5745 187.666 64.5308 186.336C64.2902 186.035 63.8691 186.456 64.0897 186.757Z" fill="#211B1E"/>
<path d="M75.3574 175.225C66.2346 172.197 59.6309 175.465 50.4552 177.891C33.9997 182.242 23.4997 194.523 17.9997 212.523C15.4998 231 17.9995 258.5 17.9995 258.5C17.9995 258.5 113.044 256.145 119.5 255.523C166.357 251.092 182.425 261.124 228.5 251.5L217.412 206.463C214.164 200.027 210.896 193.53 206.284 187.997C198.665 178.924 187.96 172.989 176.229 171.335C171.497 170.693 166.425 170.834 162.314 173.24C158.204 175.646 155.738 179.716 151.888 182.242C148.039 184.769 143.648 185.39 139.237 186.012C128.29 187.576 117.202 188.879 106.214 187.756C95.227 186.633 84.1995 182.884 76.019 175.465L75.3574 175.225Z" fill="#211B1E"/>
<path d="M124.039 29.3228L147.658 59.9192C155.939 70.6459 164.145 84.6105 162 98.0039C162.321 103.221 162.441 105.796 162 111.004C161.799 113.31 162.5 115.004 161.5 118.004C160.598 119.708 160.23 119.86 159.227 121.504C156.2 126.577 158.666 133.383 159.227 139.257C160.591 153.433 157.724 167.748 158.686 181.964C160.41 207.508 174.185 230.425 182.826 254.525C188.601 245.563 194.636 235.297 192.27 224.911C191.548 221.723 190.064 218.776 188.841 215.748C187.317 211.939 186.215 207.969 185.192 203.999C176.47 169.693 175.027 134.004 174.084 98.6358C173.744 86.3451 173.463 73.9341 170.515 62.0044C167.568 50.0746 161.693 38.4656 152.009 30.8867C142.325 23.3078 128.47 20.4606 117.383 25.7739" fill="#551400"/>
<path d="M136.356 52.5L122.983 53.5025C119.374 53.7632 115.665 54.0639 112.376 55.5677C107.885 57.5927 104.677 61.6228 101.63 65.5125L90.582 79.6277C89.2988 81.2718 87.9955 82.956 87.1735 84.8808C86.3514 86.8056 85.9705 89.4723 85.7299 91.8382C84.9078 99.4973 84.0056 107.197 85.8502 114.655C88.6171 125.823 87.4299 130.57 99.5 142.5C101.585 144.565 104.614 147.296 107 149C109.927 151.085 112.912 154.353 117.5 155.5C125.5 157.5 131.945 157.803 138.582 153.071C145.218 148.339 151.291 139.758 155 132.5C157.757 126 158.893 124.72 160.677 117.783C161.78 113.432 162.542 103.547 162 99.0963C161.679 96.6101 161.5 92.5 161.5 92.5C161.5 92.5 162.02 81.6728 160.296 77.0012C159.273 74.2343 157.83 69.6428 156.146 67.1967C151.294 60.1992 146.081 54.6855 137.84 52.5H136.356Z" fill="#F9A677"/>
<path d="M114.716 133.739C115.558 133.959 116.22 134.601 116.842 135.222L119.127 137.468C119.661 138.019 120.231 138.535 120.832 139.012C123.278 140.816 126.526 141.137 129.573 140.977C130.513 140.941 131.446 140.814 132.36 140.596C134.887 139.934 136.992 138.15 138.796 136.245C139.558 135.423 140.481 134.501 141.603 134.601C141.924 134.641 142.325 134.701 142.466 134.44C142.508 134.339 142.512 134.225 142.474 134.121C142.437 134.017 142.363 133.931 142.265 133.879C142.074 133.778 141.858 133.736 141.643 133.759C141.005 133.826 140.374 133.953 139.759 134.14C134.506 135.523 128.912 136.465 123.659 135.082C122.135 134.681 120.651 134.079 119.107 133.719C117.776 133.395 116.406 133.26 115.037 133.318C114.416 133.318 113.674 133.478 113.453 134.039C113.823 134.097 114.202 134.062 114.556 133.939" fill="#FF5D5B"/>
<path d="M114.454 133.382C116.887 133.288 119.308 133.754 121.532 134.745C121.953 134.946 122.354 135.146 122.775 135.307C123.237 135.486 123.713 135.627 124.198 135.728C127.948 136.63 131.938 136.71 135.587 135.487C137.552 134.825 140.299 134.284 142.263 133.883C141.822 133.001 139.737 133.542 138.835 133.482C137.933 133.422 137.492 133.462 136.83 133.382C135.066 133.181 133.321 132.239 131.597 132.7C130.886 132.88 130.162 133.001 129.431 133.061C128.629 133.101 127.827 132.881 127.045 132.62C124.379 131.798 121.552 132.54 118.765 132.58C117.221 132.6 114.835 131.918 113.752 132.56C113.432 132.74 113.331 133.302 113.452 134.044C113.452 134.044 113.913 133.382 114.454 133.382Z" fill="#DC2A18"/>
<path d="M103.307 86.9225C105.593 86.8423 107.879 87.103 110.164 87.3636C112.45 87.6243 115.137 87.9451 117.503 88.6669C118.946 89.108 120.33 89.6894 121.813 89.93C123.297 90.1706 124.961 90.0303 126.104 89.128C125.496 88.8753 124.829 88.7989 124.179 88.9075L125.483 87.3035C124.819 87.1653 124.13 87.2209 123.498 87.4639C123.79 86.991 123.884 86.4216 123.758 85.8799C123.496 85.9282 123.254 86.05 123.058 86.231C122.863 86.4121 122.723 86.645 122.655 86.9025C122.539 85.7647 122.045 84.6987 121.252 83.8749C121.277 84.9074 120.952 85.918 120.33 86.7421C120.358 86.2226 120.255 85.7044 120.031 85.235C119.807 84.7656 119.468 84.36 119.046 84.0554C119.045 84.7482 119.147 85.4373 119.347 86.1005C117.984 84.5767 116.159 83.093 113.954 83.093L115.177 84.1957C113.874 83.8348 112.53 83.5341 111.187 83.2534C111.392 83.5749 111.649 83.8596 111.949 84.0955C110.124 83.5341 108.239 82.9727 106.315 82.9927C104.39 83.0128 102.084 83.7145 100.139 84.5967C99.3119 84.9308 98.5303 85.3687 97.8134 85.9C96.8711 86.6819 96.2295 87.6844 95.5879 88.6869C95.9087 88.6067 101.021 86.9827 103.307 86.9225Z" fill="#40281E"/>
<path d="M137.172 87.9087C136.832 89.0315 136.631 90.4951 137.614 91.0966C137.915 91.2624 138.252 91.3519 138.596 91.3573C140.24 91.4776 141.804 90.856 143.348 90.3347C149.263 88.2896 155.839 87.3072 161.694 89.5127C161.254 88.6419 160.73 87.816 160.13 87.0465C159.268 85.8235 158.105 84.4601 156.601 84.5603C156.621 84.0791 156.06 83.7383 155.598 83.7984C155.137 83.8586 154.716 84.1393 154.335 84.44C154.516 84.2997 154.395 83.9588 154.175 83.8786C153.952 83.8257 153.717 83.8541 153.513 83.9588L151.789 84.6205L151.649 83.8786C150.468 84.5694 149.126 84.936 147.759 84.9413C147.847 84.8216 147.904 84.6822 147.925 84.5353C147.946 84.3884 147.93 84.2386 147.879 84.0992L145.092 86.6856C146.035 85.2019 146.215 85.0816 146.796 83.4375C145.493 84.5804 145.032 84.5403 144.33 86.1242C144.567 85.2492 144.553 84.3251 144.29 83.4576L142.947 87.4074C143.024 86.3706 142.764 85.3366 142.205 84.4601L141.002 87.5678C141.062 87.1869 140.761 86.2646 140.461 86.0039C140.28 86.0641 140.24 86.425 140.08 86.6656L139.498 88.3297C139.057 88.3297 138.977 87.5478 138.536 87.5077C138.473 87.5126 138.412 87.5302 138.357 87.5594C138.301 87.5886 138.253 87.6289 138.213 87.6777C138.174 87.7264 138.145 87.7828 138.128 87.8432C138.111 87.9036 138.106 87.9668 138.115 88.029C138.147 88.2745 138.252 88.505 138.416 88.6906L137.213 87.648L137.172 87.9087Z" fill="#40281E"/>
<path d="M119.848 115.852C119.166 117.355 118.665 119.06 119.146 120.644C119.627 122.227 121.512 123.451 122.995 122.729C123.818 122.308 124.399 121.405 125.321 121.325C126.584 121.225 127.286 122.709 128.229 123.551C129.171 124.393 131.116 124.714 132.579 124.273C134.043 123.831 135.306 122.849 136.469 121.847C136.65 121.706 136.87 121.546 137.091 121.626C137.311 121.706 137.371 122.207 137.211 122.508C137.051 122.809 136.89 123.21 137.111 123.471C137.686 123.437 138.246 123.271 138.746 122.986C139.247 122.701 139.675 122.304 139.998 121.826C140.64 120.884 140.539 117.636 140.178 116.553C140.299 117.075 139.597 119.36 139.336 119.922C139.076 120.483 138.474 121.065 137.933 120.764C137.712 120.623 137.826 119.821 137.111 119.821C136.89 119.661 136.128 120.202 135.547 120.503C133.742 121.425 130.835 121.706 129.051 120.744C128.369 120.383 126.685 119.24 125.502 119.28C123.757 119.32 123.256 120.644 122.113 120.844C121.672 120.924 121.171 120.984 120.79 120.724C120.333 120.34 120.009 119.82 119.868 119.24C119.627 118.217 119.848 115.852 119.848 115.852Z" fill="#E28049"/>
<path d="M125.763 121.445C125.317 121.449 124.883 121.589 124.52 121.846C124.164 122.108 123.835 122.403 123.537 122.729C124.379 122.809 125.141 123.21 125.963 123.31C126.785 123.41 127.447 123.25 128.088 123.571C127.708 122.608 126.906 121.746 125.903 121.445H125.763Z" fill="black"/>
<path d="M125.763 121.149C124.74 121.129 123.998 121.831 123.337 122.512C123.292 122.553 123.262 122.606 123.248 122.665C123.234 122.723 123.239 122.785 123.26 122.841C123.282 122.897 123.32 122.945 123.369 122.98C123.418 123.014 123.477 123.033 123.537 123.034C124.299 123.114 125.001 123.475 125.763 123.595C126.525 123.715 127.286 123.515 127.948 123.836C128.149 123.936 128.489 123.775 128.389 123.495C128.137 122.895 127.762 122.355 127.286 121.911C126.885 121.55 126.324 121.149 125.763 121.149C125.683 121.149 125.606 121.181 125.55 121.237C125.494 121.293 125.462 121.37 125.462 121.45C125.462 121.529 125.494 121.606 125.55 121.662C125.606 121.719 125.683 121.75 125.763 121.75C126.164 121.75 126.625 122.111 126.905 122.392C127.295 122.742 127.603 123.173 127.808 123.655L128.249 123.314C127.507 122.973 126.725 123.114 125.923 123.014C125.121 122.913 124.359 122.512 123.537 122.432L123.758 122.933C124.299 122.372 124.92 121.73 125.763 121.75C125.842 121.75 125.919 121.719 125.975 121.662C126.032 121.606 126.063 121.529 126.063 121.45C126.063 121.37 126.032 121.293 125.975 121.237C125.919 121.181 125.842 121.149 125.763 121.149Z" fill="black"/>
<path d="M135.829 122.334L135.609 122.575C135.469 122.735 135.408 122.956 135.248 123.096C135.565 123.156 135.888 123.176 136.21 123.156C136.326 123.163 136.441 123.149 136.551 123.116C136.649 123.071 136.736 123.008 136.809 122.928C136.881 122.849 136.937 122.756 136.972 122.655C137.045 122.456 137.079 122.245 137.073 122.034C137.084 121.997 137.089 121.959 137.085 121.921C137.082 121.883 137.071 121.846 137.053 121.813C136.992 121.733 136.852 121.753 136.772 121.793L136.491 121.933C136.26 122.048 136.038 122.182 135.829 122.334Z" fill="black"/>
<path d="M135.628 122.132C135.488 122.246 135.366 122.382 135.267 122.533L135.167 122.734L135.087 122.834C135.067 122.874 135.127 122.814 135.087 122.834L135.047 122.894C135.01 122.931 134.983 122.976 134.969 123.026C134.954 123.076 134.953 123.129 134.965 123.179C134.977 123.229 135.002 123.276 135.038 123.314C135.073 123.352 135.118 123.38 135.167 123.396C135.564 123.466 135.968 123.486 136.37 123.456C136.578 123.436 136.774 123.352 136.932 123.215C137.053 123.111 137.149 122.981 137.212 122.834C137.294 122.635 137.348 122.426 137.373 122.213C137.398 122.11 137.4 122.002 137.38 121.898C137.359 121.795 137.315 121.696 137.252 121.611C136.992 121.31 136.611 121.531 136.33 121.671C136.082 121.801 135.847 121.956 135.628 122.132C135.599 122.159 135.575 122.191 135.558 122.227C135.542 122.264 135.533 122.303 135.533 122.343C135.533 122.383 135.542 122.422 135.558 122.458C135.575 122.495 135.599 122.527 135.628 122.554C135.685 122.609 135.76 122.639 135.839 122.639C135.918 122.639 135.993 122.609 136.049 122.554C136.009 122.574 136.09 122.513 136.049 122.554L136.13 122.493L136.27 122.393L136.531 122.253L136.651 122.193L136.831 122.092L136.912 122.052H136.892C136.972 122.032 136.851 122.032 136.892 122.032C136.932 122.032 136.871 122.032 136.871 122.032C136.871 122.032 136.932 122.052 136.851 122.012C136.771 121.972 136.751 121.932 136.791 121.932C136.831 121.932 136.771 122.112 136.771 122.112C136.754 122.248 136.727 122.382 136.691 122.513C136.691 122.513 136.671 122.574 136.691 122.533C136.711 122.493 136.671 122.554 136.671 122.554C136.666 122.584 136.652 122.611 136.631 122.634C136.631 122.654 136.591 122.694 136.611 122.674H136.591C136.571 122.694 136.571 122.714 136.551 122.714L136.511 122.754H136.531L136.45 122.794C136.43 122.834 136.511 122.794 136.45 122.794H136.35C136.177 122.804 136.003 122.804 135.829 122.794H135.328L135.468 123.295C135.579 123.163 135.68 123.023 135.769 122.874C135.769 122.834 135.789 122.814 135.809 122.774C135.829 122.734 135.829 122.734 135.849 122.734C135.869 122.734 135.849 122.734 135.849 122.714L136.049 122.533C136.093 122.476 136.114 122.404 136.109 122.332C136.104 122.259 136.073 122.192 136.021 122.14C135.97 122.089 135.902 122.058 135.83 122.053C135.758 122.048 135.686 122.069 135.628 122.112V122.132Z" fill="black"/>
<path d="M110.786 32.549C101.223 36.0487 93.1767 42.7693 88.0296 51.5565C79.749 65.8121 80.2502 83.2957 80.972 99.7568L82.0547 124.318C82.3354 130.413 82.5961 136.529 83.6186 142.564C85.6036 154.273 90.3956 165.341 92.9018 176.95C95.4081 188.559 95.368 201.591 88.4908 211.275C86.987 213.401 85.1625 215.325 83.9194 217.631C80.9119 223.145 81.5134 230.082 78.4858 235.596C77.9445 236.578 77.2628 237.521 76.2803 238.082C75.2979 238.644 74.0147 238.704 72.8317 238.764L38.7266 240.107C38.7266 239.626 39.6088 238.944 39.6088 238.944C41.9546 237.721 41.7742 236.418 43.318 234.714C44.8619 233.009 46.9671 231.947 48.7315 230.503C54.8869 225.411 56.13 216.629 56.932 208.689C61.5435 163.696 66.5961 118.758 72.0899 73.8722C72.6914 68.8998 73.3129 63.8672 75.0172 59.1555C77.6237 51.9174 82.5961 45.8222 87.6888 40.0478C91.4382 35.7771 95.368 31.5465 100.18 28.519C104.992 25.4914 110.867 23.7471 116.441 24.91" fill="#551400"/>
<path d="M138.888 100.12C138.381 99.3615 143.37 94.1532 148.135 93.5915C152.9 93.0299 156.233 95.5499 156.304 96.3621C156.447 97.9858 154.92 100.541 148.719 101.182C145.137 101.285 139.329 100.779 138.888 100.12Z" fill="url(#paint0_linear_1708_12041)"/>
<path d="M143.272 97.8875C142.738 95.8028 144.025 93.676 146.146 93.1372C148.268 92.5984 150.421 93.8515 150.955 95.9362C151.489 98.021 150.202 100.148 148.08 100.687C145.958 101.225 143.806 99.9722 143.272 97.8875Z" fill="url(#paint1_linear_1708_12041)"/>
<path d="M146.025 100.757C144.062 100.169 142.965 98.1222 143.576 96.1862C144.186 94.2503 146.273 93.1581 148.236 93.7467C150.199 94.3353 151.296 96.3819 150.685 98.3178C150.075 100.254 147.988 101.346 146.025 100.757Z" fill="url(#paint2_linear_1708_12041)"/>
<path style="mix-blend-mode:multiply" d="M147.583 99.5918C146.272 99.8437 145.008 99.0031 144.761 97.7144C144.513 96.4256 145.375 95.1767 146.687 94.9248C147.998 94.6729 149.261 95.5135 149.509 96.8023C149.756 98.091 148.894 99.34 147.583 99.5918Z" fill="url(#paint3_linear_1708_12041)"/>
<path d="M149.764 96.9425C149.468 97.059 150.497 97.4789 151.386 97.4574C152.182 97.4388 152.679 97.1202 152.641 97.0187C152.602 96.9173 150.935 96.487 149.764 96.9425Z" fill="white"/>
<path d="M149.097 96.9252C148.836 96.7205 148.435 96.7471 148.366 96.8966C148.296 97.0462 148.595 97.3702 148.789 97.3666C148.982 97.3631 149.242 97.0396 149.097 96.9252Z" fill="white"/>
<path d="M139.055 99.4269C139.055 99.4269 138.214 92.3204 148 90.9965C153.373 90.2701 157.499 95.4953 157.499 95.4953C157.499 95.4953 153.524 93.0777 148.133 93.5887C143.084 94.0668 139.055 99.4269 139.055 99.4269Z" fill="#421D13"/>
<path d="M156.304 96.3583L156.727 97.7114C156.727 97.7114 155.501 101.067 149.812 101.61C148.164 101.767 141.71 101.167 140.356 101.044C140.197 101.03 139.745 100.455 139.745 100.455C139.745 100.455 141.014 100.204 142.66 100.39C147.056 100.886 155.127 101.566 156.304 96.3583Z" fill="#E28049"/>
<path d="M139.056 99.4286C139.056 99.4286 142.97 94.313 148.282 93.8165C153.595 93.32 156.574 97.8549 156.574 97.8549L159.227 97.014C159.227 97.014 157.832 95.3644 156.716 94.5905C154.392 92.9799 153.758 92.5633 149.767 92.7325C145.453 92.9166 141.367 96.1318 139.056 99.4286Z" fill="#4E1B3D"/>
<path d="M139.225 99.2232C139.225 99.2232 139.768 100.668 140.753 100.906C140.753 100.906 138.956 101.336 138.52 100.43C138.301 99.9779 139.225 99.2232 139.225 99.2232Z" fill="#E28049"/>
<g style="mix-blend-mode:multiply" opacity="0.6">
<path d="M139.226 99.2142C139.226 99.2142 147.079 92.4351 156.025 96.7298L156.304 96.3627C156.304 96.3627 154.714 93.463 149.135 93.5102C143.555 93.5575 139.854 98.3404 139.226 99.2142Z" fill="#D177B8"/>
</g>
<path d="M122.501 98.8683C123.065 98.0388 117.464 92.3044 112.134 91.6681C106.804 91.0319 103.087 93.7821 103.011 94.6727C102.858 96.4533 104.577 99.2622 111.514 99.992C115.519 100.121 122.011 99.5899 122.501 98.8683Z" fill="url(#paint4_linear_1708_12041)"/>
<path d="M115.267 96.4036C115.855 94.119 114.407 91.7805 112.032 91.1805C109.657 90.5804 107.255 91.946 106.667 94.2306C106.078 96.5152 107.527 98.8536 109.901 99.4537C112.276 100.054 114.678 98.6881 115.267 96.4036Z" fill="url(#paint5_linear_1708_12041)"/>
<path d="M112.199 99.5379C114.392 98.9005 115.61 96.6602 114.919 94.5339C114.228 92.4077 111.89 91.2007 109.697 91.8381C107.504 92.4755 106.287 94.7158 106.978 96.8421C107.669 98.9683 110.007 100.175 112.199 99.5379Z" fill="url(#paint6_linear_1708_12041)"/>
<path style="mix-blend-mode:multiply" d="M110.455 98.2589C111.922 98.5407 113.332 97.624 113.603 96.2113C113.874 94.7987 112.905 93.425 111.438 93.1431C109.971 92.8613 108.561 93.778 108.29 95.1907C108.019 96.6034 108.988 97.9771 110.455 98.2589Z" fill="url(#paint7_linear_1708_12041)"/>
<path d="M113.821 95.1307C113.417 95.2864 114.785 95.8686 115.983 95.8484C117.056 95.8311 117.739 95.4022 117.691 95.2637C117.643 95.1251 115.416 94.5223 113.821 95.1307Z" fill="white"/>
<path d="M112.923 95.099C112.581 94.8177 112.04 94.8497 111.941 95.0527C111.841 95.2556 112.229 95.6999 112.49 95.697C112.751 95.6941 113.113 95.2563 112.923 95.099Z" fill="white"/>
<path d="M122.314 98.1109C122.314 98.1109 119.221 88.4159 112.138 90.0028C105.299 90.7351 103.539 93.9741 103.539 93.9741C103.539 93.9741 106.107 91.0849 112.138 91.6683C117.785 92.2141 122.314 98.1109 122.314 98.1109Z" fill="#421D13"/>
<path d="M103.012 94.6744L102.545 96.1568C102.545 96.1568 103.93 99.8431 110.293 100.463C112.137 100.642 119.351 100.012 120.865 99.8821C121.042 99.8669 121.545 99.2381 121.545 99.2381C121.545 99.2381 120.125 98.9576 118.285 99.1544C113.371 99.6802 104.35 100.392 103.012 94.6744Z" fill="#E28049"/>
<path d="M122.31 98.11C122.31 98.11 117.912 92.4818 111.969 91.9147C103.499 92.0536 102.716 96.3095 102.716 96.3095L98.9997 95.5038C98.9997 95.5038 102.441 92.5676 103.787 91.8947C106.107 90.7346 107.131 90.4018 110.169 90.1502C116.992 89.5851 119.712 94.4837 122.31 98.11Z" fill="#4E1B3D"/>
<path d="M122.12 97.8825C122.12 97.8825 121.52 99.4654 120.419 99.7221C120.419 99.7221 122.43 100.201 122.914 99.2099C123.156 98.7144 122.12 97.8825 122.12 97.8825Z" fill="#E28049"/>
<g style="mix-blend-mode:multiply" opacity="0.6">
<path d="M122.121 97.8767C122.121 97.8767 113.311 90.407 103.326 95.0803L103.012 94.6764C103.012 94.6764 104.778 91.5023 111.017 91.5777C117.256 91.6531 121.415 96.9155 122.121 97.8767Z" fill="#D177B8"/>
</g>
</g>
<defs>
<linearGradient id="paint0_linear_1708_12041" x1="147.159" y1="101.587" x2="147.945" y2="93.0586" gradientUnits="userSpaceOnUse">
<stop stop-color="#EEE2FF"/>
<stop offset="1" stop-color="#BDC9FB"/>
</linearGradient>
<linearGradient id="paint1_linear_1708_12041" x1="146.043" y1="100.903" x2="147.102" y2="93.2057" gradientUnits="userSpaceOnUse">
<stop stop-color="#471F4B"/>
<stop offset="1" stop-color="#310A39"/>
</linearGradient>
<linearGradient id="paint2_linear_1708_12041" x1="146.897" y1="101.031" x2="147.872" y2="93.7381" gradientUnits="userSpaceOnUse">
<stop stop-color="#4F3020"/>
<stop offset="1" stop-color="#310A39"/>
</linearGradient>
<linearGradient id="paint3_linear_1708_12041" x1="147.071" y1="99.4402" x2="147.69" y2="94.7088" gradientUnits="userSpaceOnUse">
<stop stop-color="#A79ABD"/>
<stop offset="0.99" stop-color="#724A60"/>
</linearGradient>
<linearGradient id="paint4_linear_1708_12041" x1="113.259" y1="100.443" x2="112.448" y2="91.0753" gradientUnits="userSpaceOnUse">
<stop stop-color="#EEE2FF"/>
<stop offset="1" stop-color="#BDC9FB"/>
</linearGradient>
<linearGradient id="paint5_linear_1708_12041" x1="112.18" y1="99.6999" x2="111.069" y2="91.2376" gradientUnits="userSpaceOnUse">
<stop stop-color="#471F4B"/>
<stop offset="1" stop-color="#310A39"/>
</linearGradient>
<linearGradient id="paint6_linear_1708_12041" x1="111.225" y1="99.8339" x2="110.203" y2="91.8175" gradientUnits="userSpaceOnUse">
<stop stop-color="#4F3020"/>
<stop offset="1" stop-color="#310A39"/>
</linearGradient>
<linearGradient id="paint7_linear_1708_12041" x1="111.027" y1="98.0947" x2="110.379" y2="92.8939" gradientUnits="userSpaceOnUse">
<stop stop-color="#A79ABD"/>
<stop offset="0.99" stop-color="#724A60"/>
</linearGradient>
</defs>
</svg>
