<svg width="250" height="250" viewBox="0 0 250 250" fill="none" xmlns="http://www.w3.org/2000/svg">
<mask id="mask0_1708_12947" style="mask-type:alpha" maskUnits="userSpaceOnUse" x="0" y="0" width="250" height="250">
<rect width="250" height="250" fill="#C4C4C4"/>
</mask>
<g mask="url(#mask0_1708_12947)">
<ellipse cx="241.473" cy="15.6935" rx="22.5081" ry="27.861" transform="rotate(136.28 241.473 15.6935)" fill="#150DCE"/>
<path d="M-28.998 223.523C-28.998 179.03 7.26701 142.961 52.002 142.961C96.7369 142.961 133.002 179.03 133.002 223.523C133.002 249.867 120.286 273.262 100.625 287.961H3.37846C-16.2823 273.262 -28.998 249.867 -28.998 223.523Z" fill="#150DCE"/>
<path d="M9 2.10302C9 53.9614 51.0854 96 103 96C154.915 96 197 53.9614 197 2.10302C197 -28.6008 182.243 -55.868 159.427 -73H46.5727C23.7566 -55.868 9 -28.6008 9 2.10302Z" fill="#66C3CD"/>
<path d="M233.899 132.795C232.726 140.991 231.716 149.794 235.48 157.168C238.735 163.545 245.529 169.292 243.891 176.262C242.908 180.442 239.122 183.248 235.739 185.89C215.968 201.34 201.612 225.07 200.729 249.867H254.159V69.9609C248.673 77.518 244.643 86.1643 241.728 95.0676C237.728 107.291 235.719 120.062 233.899 132.795Z" fill="#66C3CD"/>
<ellipse cx="171.895" cy="140.807" rx="47.3084" ry="36.0589" transform="rotate(136.28 171.895 140.807)" fill="#66C3CD"/>
<ellipse cx="5.50165" cy="109.178" rx="29.3924" ry="27.861" transform="rotate(136.28 5.50165 109.178)" fill="#150DCE"/>
<path d="M166.121 69.9307C165.497 68.1931 165.463 63.0928 164.843 61.3552C163.027 56.2646 160.963 50.8421 156.521 47.7624C153.446 45.6344 149.586 44.9169 145.847 44.9462C142.108 44.9755 138.414 45.688 134.704 46.1566C128.236 46.9811 121.696 47.0842 115.206 46.4641C111.106 46.0687 106.952 45.3903 102.901 46.142C98.6306 46.9424 94.687 49.3779 92.0709 52.8481C89.7721 55.8888 88.5226 59.5835 87.4195 63.2343C86.4971 66.2897 85.6478 69.3694 85.0133 72.4931C81.26 90.9276 85.6478 109.963 89.4597 128.382L89.7379 131.018C91.2753 138.539 93.5742 145.948 98.1181 152.137C99.963 154.651 102.101 156.925 104.239 159.195L112.755 168.229C114.298 169.869 115.85 171.514 117.67 172.846C123.439 177.058 131.527 177.507 138.057 174.603C144.915 171.553 149.83 165.403 154.266 159.351C158.312 153.831 162.741 150.09 164.74 143.654C166.527 138.857 167.303 131.823 168.132 126.772C170.168 114.36 171.934 101.865 172.193 89.2926C172.247 86.7448 172.232 84.1678 171.695 81.6738C170.856 77.8131 168.801 74.3429 166.776 70.9508L166.121 69.9307Z" fill="#F7B596"/>
<path d="M98.289 86.8888C101.982 84.0976 107.032 84.0976 111.668 84.3632C114.639 84.531 117.793 85.6586 120.214 87.3827C121.402 84.1768 119.154 79.34 115.784 78.655L115.723 79.9737C113.855 78.4173 111.218 78.2682 108.782 78.1937C104.39 78.0585 99.5842 78.0539 96.1444 80.7659C92.3243 83.7761 91.4561 89.0929 90.8648 93.8971C90.7851 94.5495 90.7147 95.2531 91.0526 95.8169C91.3904 96.3808 92.3196 96.6045 92.6998 96.0686C92.6998 96.0686 95.4967 88.995 98.289 86.8888Z" fill="#180A09"/>
<path d="M135.092 79.1179C132.759 81.3373 132.458 84.1268 133.815 87.0172C136.854 84.7496 140.217 84.5172 143.944 83.6707C147.945 82.7583 152.368 82.1794 155.978 84.0961C159.314 85.8637 161.242 88.4684 162.29 92.0299C162.474 92.6528 162.766 93.4028 163.427 93.4949C163.953 93.5651 164.439 93.1265 164.587 92.6308C164.736 92.1352 164.632 91.5957 164.515 91.0913C163.336 86.1223 160.883 82.4835 157.385 78.6924C156.954 78.2275 156.491 77.7626 155.906 77.4994C155.178 77.1661 154.342 77.1836 153.537 77.2056L146.299 77.4029C144.299 77.4599 142.258 77.5214 140.37 78.1705C138.663 78.7616 137.159 79.8051 136.027 81.1837C135.906 80.4688 135.712 79.4732 135.587 78.7626L135.092 79.1179Z" fill="#180A09"/>
<path d="M112.044 144.155C113.742 145.171 115.367 146.049 116.768 147.445C117.393 148.07 117.979 148.763 118.764 149.168C119.355 149.47 120.346 150.007 120.99 150.159C122.776 150.578 123.713 150.983 125.261 151.086C133.597 151.657 135.188 150.7 136.008 150.349C137.355 149.768 139.273 148.031 140.454 147.162C142.753 145.459 144.754 143.575 147.263 142.198C146.16 141.578 144.789 141.915 143.563 142.242C140.176 143.14 136.735 143.833 133.25 144.219C129.087 144.673 124.89 144.687 120.707 144.634C119.409 144.619 118.106 144.595 116.837 144.321C115.309 143.985 113.776 143.282 112.239 143.579C112.009 143.623 111.726 143.882 111.907 144.038C111.949 144.081 111.995 144.121 112.044 144.155Z" fill="#EB6757"/>
<path d="M111.907 144.043C112.951 144.702 113.639 143.945 114.581 144.126C114.972 144.204 115.269 144.282 115.582 144.531C116.597 145.341 117.993 145.454 119.291 145.473C120.589 145.493 122.234 145.644 123.503 145.634C124.606 145.619 125.827 145.639 126.29 145.781C127.081 146.015 127.915 146.054 128.74 146.059C129.549 146.071 130.357 146.037 131.161 145.956C131.718 145.898 132.63 145.512 133.182 145.424C133.914 145.307 135.5 145.292 136.232 145.175C138.507 144.814 139.605 144.638 141.694 143.672C142.68 143.213 143.612 142.628 144.652 142.305C145.467 142.052 146.418 142.105 147.263 142.203C148.288 141.827 147.951 140.705 146.872 140.612C145.364 140.485 143.568 141.012 141.704 140.958C141.259 140.944 139.58 140.841 139.073 140.705C137.736 140.348 135.534 140.226 134.182 140.504C132.83 140.783 132.132 141.578 130.771 141.856C129.624 142.091 128.321 142.286 127.164 142.105C126.007 141.925 124.987 141.08 123.864 141.017C123.118 140.973 122.068 141.139 121.331 141.256C118.31 141.73 116.255 142.711 113.2 142.598C112.893 142.589 112.458 142.462 112.131 142.427C111.009 142.315 111.287 143.472 111.35 143.56C111.414 143.648 111.907 144.043 111.907 144.043Z" fill="#AC2D27"/>
<path d="M169.299 106.297C169.649 103.669 170.629 101.164 172.155 98.9955C172.843 98.0194 173.668 97.0969 174.746 96.5796C175.825 96.0622 177.196 96.0378 178.143 96.7602C179.002 97.4093 179.368 98.5319 179.471 99.6008C179.817 103.173 177.831 106.487 176.298 109.728C174.473 113.584 173.214 117.723 172.799 121.969C172.672 123.282 172.589 124.698 171.764 125.732C170.939 126.767 169.041 127.006 168.421 125.84C168.196 125.41 168.191 124.907 168.191 124.424C168.211 118.665 169.299 106.297 169.299 106.297Z" fill="#F7B596"/>
<path d="M85.5609 105.199L83.9454 91.7818C83.8478 90.996 83.7551 90.1809 83.9649 89.4147C84.3163 88.131 85.4292 87.2379 86.3126 86.2422C89.1044 83.1039 89.7925 78.6331 89.8657 74.4357C89.939 70.2382 89.529 65.9578 90.6027 61.897C92.1695 55.9718 97.0551 51.0471 102.966 49.4316C105.845 48.6458 108.91 48.0943 111.858 48.5726C123.811 50.5054 132.753 49.9539 145.604 48.1724C147.868 47.8551 150.25 48.1285 152.369 48.9875C154.248 49.7489 155.795 51.1399 157.22 52.5797C159.885 55.2739 162.34 58.3487 163.37 61.9947C164.819 67.1292 163.331 72.9275 165.62 77.7448C167.177 81.0198 170.335 83.4602 171.301 86.9548C171.916 89.1804 171.55 91.5378 171.281 93.8317C170.775 98.1445 170.626 102.492 170.837 106.829C174.395 93.0166 174.112 75.4948 171.769 61.4285C171.662 60.7598 173.136 62.0923 173.009 61.4285C172.438 58.3634 171.013 56.3037 170.159 53.302L171.15 53.5607C170.242 51.0813 169.336 48.5986 168.431 46.1127C167.714 44.1409 166.972 42.1252 165.664 40.4803C164.507 39.0308 162.965 37.9375 161.447 36.8686C155.556 32.7102 149.611 28.5225 143.012 25.6136C136.413 22.7047 129.029 21.1184 121.932 22.4216C119.15 22.9341 116.466 23.8712 113.796 24.8083C107.305 27.0876 100.74 29.4011 94.9661 33.1446C89.1922 36.8881 84.1894 42.2569 82.2664 48.8606C81.178 52.5748 81.1048 56.4989 81.0414 60.3694C80.851 71.722 81.3537 82.6158 82.4714 93.9147C83.5061 104.389 85.5609 105.199 85.5609 105.199Z" fill="#180A09"/>
<path d="M84.3557 100.268C83.9165 98.3299 82.4181 96.2605 80.4414 96.4948C79.1577 96.6461 78.1572 97.793 77.8155 99.0376C77.4739 100.282 77.6691 101.62 77.9668 102.874C79.4847 109.277 83.5748 115.095 83.6529 121.67C83.6627 122.743 83.3308 124.437 83.5748 125.477C83.8188 126.516 84.263 127.082 85.1562 127.668C86.3275 128.439 88.4507 128 89.0852 127.668C90.6665 126.843 90.2712 124.31 90.4274 122.534C90.5836 120.757 90.1443 118.99 89.7099 117.262C88.397 112.05 84.3557 100.268 84.3557 100.268Z" fill="#F7B596"/>
<path d="M44.5005 183.504C44.5005 183.504 53.4233 180.826 67.0006 175.504C77.4414 171.411 83.2814 170.325 91.5006 167.504C95.5272 166.123 101.284 168.075 105.501 167.504C111.03 166.747 124.099 181.352 129.678 181.22C141.846 180.937 147.18 172.747 156.39 162.713C158.513 160.399 159.646 162.776 162.755 163.576C168.319 165.011 176.533 167.105 181.882 168.828C196.574 173.553 230.728 189.465 243.728 200.465C249.228 205.119 257.728 223.465 252.228 252.465C227.664 253.021 165.932 271.026 139.322 269.21C107.998 267.077 7.13218 260.28 7.0004 258.504C5.73141 241.709 4.02599 224.11 11.0005 209.004C13.725 203.103 20.3218 195.004 23.5006 193.504C26.6794 192.004 44.5005 183.504 44.5005 183.504Z" fill="#1B1B29"/>
<path d="M163.222 147.219C162.256 156.033 163.389 161.446 162.599 170.998C161.988 178.383 166.17 185.46 165.072 192.786C163.54 202.962 162.716 214.073 155.072 220.965C149.245 226.217 135.701 230.782 127.896 231.631C120.258 232.461 111.087 233.008 103.693 230.899C96.2986 228.791 90.0415 221.382 85.888 214.91C81.7344 208.438 80.6704 200.463 80.851 192.786C81.0365 185.196 82.8326 176.811 89.0312 172.423C90.2269 171.574 93.8631 170.071 95.0101 169.163C98.0898 166.722 97.3089 163.579 97.6261 159.665C97.9434 155.751 96.9526 153.115 96.201 149.259C98.5437 153.422 103.151 154.667 107.324 156.995L115.236 161.402C118.638 163.301 122.074 165.209 125.803 166.361C129.532 167.513 133.612 167.85 137.302 166.591C141.123 165.287 144.174 162.418 147.097 159.626C152.52 154.438 157.795 152.407 163.222 147.219Z" fill="#F7B596"/>
<path d="M163.222 147.219C163.032 152.827 162.848 152.314 160.315 157.322C159.353 159.23 158.079 160.963 156.791 162.671C152.437 168.434 147.823 173.991 142.949 179.344C140.035 182.551 136.921 185.752 132.958 187.495C128.995 189.237 123.953 189.213 120.717 186.333C118.687 184.522 117.633 181.887 116.149 179.603C113.738 175.888 110.17 173.106 107.251 169.778C102.107 163.906 99.1052 156.507 96.2012 149.259C97.5145 151.535 98.3348 152.536 99.433 153.454C105.212 158.286 108.546 161.583 116.222 166.957C121.195 172.618 132.07 173.706 138.762 170.24C142.549 168.283 146.639 165.995 149.313 162.671C154.116 156.692 156.017 156.075 160.824 150.096L163.222 147.219Z" fill="#D16E4A"/>
<path d="M136.808 127.461C135.53 128.223 134.939 129.199 134.041 130.385C135.232 129.453 136.535 129.702 138.024 129.438C138.419 129.37 138.805 129.111 139.049 128.789C139.356 128.389 139.439 127.925 139.107 127.544C138.775 127.164 138.526 126.934 138.024 126.963C137.697 126.978 137.106 127.281 136.808 127.461Z" fill="#671617"/>
<path d="M120.219 127.765C119.872 127.965 119.726 128.409 119.638 128.794C119.594 128.985 119.584 129.199 119.697 129.356C119.868 129.605 120.229 129.59 120.531 129.556C122.03 129.39 123.611 129.317 124.992 129.936C124.787 129.063 124.026 128.409 123.191 128.087C122.35 127.759 121.447 127.619 120.546 127.677C120.433 127.689 120.323 127.718 120.219 127.765Z" fill="#671617"/>
<path d="M119.78 129.331C119.872 128.282 120.556 127.994 121.586 128.214C122.658 128.441 123.667 128.905 124.538 129.57C125.793 130.527 126.998 131.772 128.004 132.235C129.424 132.88 131.289 132.719 132.528 131.777C133.768 130.835 135.096 129.258 136.355 128.331C136.853 127.965 137.887 127.286 138.488 127.433C139.088 127.579 139.342 128.682 138.849 129.058C140.191 129.683 141.406 128.55 141.948 127.174C142.49 125.798 141.196 122.162 140.611 120.805C140.938 121.615 140.567 124.163 140.142 124.626C139.718 125.09 139.61 125.275 139.034 125.027C138 124.578 137.824 122.757 136.696 122.767C136.145 122.82 136.111 123.411 135.94 123.679C134.754 125.563 132.943 126.779 130.717 126.91C128.17 127.057 125.593 125.69 124.29 123.494C124.109 123.186 123.889 122.82 123.528 122.796C123.167 122.772 122.874 123.143 122.645 123.45C122.016 124.291 121.149 124.924 120.156 125.266C119.648 125.437 119.082 125.529 118.589 125.324C117.94 125.056 117.632 124.719 117.583 124.021C117.535 123.323 118.13 122.493 118.34 121.825C117.149 122.981 116.324 124.163 116.231 125.817C116.139 127.472 116.632 129.468 118.286 129.473C118.662 129.473 119.78 129.331 119.78 129.331Z" fill="#EE845C"/>
<path d="M118.899 100.371C117.486 99.2024 112.401 94.8289 107.002 95.0426C101.604 95.2562 98.0513 98.5549 98.1122 99.4961C98.2339 101.378 101.133 103.731 108.144 103.35C112.148 102.825 118.522 101.204 118.899 100.371Z" fill="url(#paint0_linear_1708_12947)"/>
<path d="M112.783 99.6832C113.029 97.0303 111.16 94.678 108.609 94.4293C106.057 94.1805 103.79 96.1295 103.543 98.7824C103.297 101.435 105.166 103.788 107.717 104.036C110.269 104.285 112.536 102.336 112.783 99.6832Z" fill="url(#paint1_linear_1708_12947)"/>
<path d="M110.161 103.565C112.307 102.476 113.203 99.7874 112.161 97.5595C111.119 95.3317 108.535 94.4083 106.389 95.4972C104.244 96.5861 103.348 99.2748 104.39 101.503C105.432 103.73 108.016 104.654 110.161 103.565Z" fill="url(#paint2_linear_1708_12947)"/>
<path style="mix-blend-mode:multiply" d="M108.122 101.258C109.728 101.314 111.077 100.009 111.135 98.3436C111.193 96.6781 109.938 95.2826 108.332 95.2265C106.726 95.1705 105.377 96.4751 105.319 98.1405C105.26 99.806 106.515 101.202 108.122 101.258Z" fill="url(#paint3_linear_1708_12947)"/>
<path d="M108.952 98.3713C108.656 98.559 109.734 99.084 110.643 98.9892C111.456 98.9051 111.945 98.4145 111.899 98.2724C111.854 98.1304 110.122 97.6367 108.952 98.3713Z" fill="white"/>
<path d="M106.338 99.1071C106.012 98.8653 105.53 98.9296 105.455 99.1259C105.38 99.3223 105.758 99.7138 105.992 99.6945C106.225 99.6753 106.519 99.2423 106.338 99.1071Z" fill="white"/>
<path d="M118.593 100.256C118.593 100.256 118.292 97.8278 116.783 96.1715C112.176 91.5395 111.114 91.0364 105.521 91.0163C97.2609 91.3331 96.8171 101.246 96.8171 101.246C96.8171 101.246 101.1 95.0975 107.504 94.6119C113.207 94.1796 118.593 100.256 118.593 100.256Z" fill="#FF9570"/>
<path d="M98.3964 100.435C97.6391 100.092 96.8171 101.241 96.8171 101.241C96.8171 101.241 101.919 107.096 108.59 105.19C110.517 104.867 116.532 102.966 117.988 101.261C118.111 101.117 118.506 100.334 118.506 100.334C118.506 100.334 107.055 104.359 98.3964 100.435Z" fill="#E78662"/>
<path d="M118.595 100.252C118.595 100.252 113.356 95.107 107.359 95.4935C103.199 95.7617 98.3533 100.734 98.3533 100.734L94.7692 102.27C94.7692 102.27 96.9999 98.9779 98.1088 97.8928C100.417 95.6343 101.05 95.0443 105.52 94.5209C111.856 94.0181 115.453 96.8982 118.595 100.252Z" fill="#301A1C"/>
<path d="M118.489 99.8601C118.489 99.8601 116.303 101.762 115.248 102.211C115.248 102.211 119.691 101.842 119.856 101.286C120.02 100.729 118.489 99.8601 118.489 99.8601Z" fill="#E78662"/>
<g style="mix-blend-mode:multiply" opacity="0.6">
<path d="M118.367 100.036C118.367 100.036 107.566 94.2154 98.3528 100.731L98.8715 99.8431C98.8715 99.8431 100.14 96.243 106.357 95.295C112.573 94.347 117.517 99.1496 118.367 100.036Z" fill="#77B1D1"/>
</g>
<path d="M136.612 99.4949C138.037 98.3172 143.163 93.908 148.606 94.1234C154.049 94.3388 157.63 97.6644 157.569 98.6132C157.446 100.51 154.523 102.883 147.455 102.499C143.419 101.97 136.992 100.335 136.612 99.4949Z" fill="url(#paint4_linear_1708_12947)"/>
<path d="M142.779 98.792C142.531 96.1175 144.415 93.746 146.987 93.4953C149.559 93.2445 151.845 95.2093 152.094 97.8839C152.342 100.558 150.458 102.93 147.886 103.181C145.314 103.431 143.027 101.467 142.779 98.792Z" fill="url(#paint5_linear_1708_12947)"/>
<path d="M145.423 102.708C143.259 101.611 142.357 98.9 143.407 96.654C144.457 94.408 147.062 93.4771 149.225 94.5749C151.389 95.6726 152.291 98.3832 151.241 100.629C150.191 102.875 147.586 103.806 145.423 102.708Z" fill="url(#paint6_linear_1708_12947)"/>
<path style="mix-blend-mode:multiply" d="M147.479 100.386C145.86 100.442 144.5 99.1269 144.441 97.4479C144.383 95.7689 145.648 94.362 147.267 94.3055C148.886 94.2489 150.247 95.5642 150.305 97.2432C150.364 98.9222 149.099 100.329 147.479 100.386Z" fill="url(#paint7_linear_1708_12947)"/>
<path d="M143.967 97.3046C143.669 97.4939 144.756 98.0232 145.671 97.9276C146.491 97.8428 146.985 97.3482 146.939 97.205C146.892 97.0618 145.147 96.564 143.967 97.3046Z" fill="white"/>
<path d="M141.332 98.0539C141.003 97.8101 140.517 97.8749 140.441 98.0729C140.366 98.2708 140.747 98.6655 140.983 98.6461C141.218 98.6267 141.514 98.1902 141.332 98.0539Z" fill="white"/>
<path d="M136.922 99.3813C136.922 99.3813 137.225 96.9329 138.747 95.2631C143.392 90.5932 144.462 90.0861 150.101 90.0658C158.428 90.3852 158.875 100.379 158.875 100.379C158.875 100.379 154.558 94.1803 148.101 93.6907C142.352 93.2548 136.922 99.3813 136.922 99.3813Z" fill="#FF9570"/>
<path d="M157.282 99.5677C158.045 99.2217 158.874 100.38 158.874 100.38C158.874 100.38 153.73 106.283 147.005 104.361C145.062 104.036 138.998 102.119 137.531 100.4C137.407 100.255 137.008 99.4653 137.008 99.4653C137.008 99.4653 148.552 103.524 157.282 99.5677Z" fill="#E78662"/>
<path d="M136.919 99.3725C136.919 99.3725 142.2 94.186 148.246 94.5757C152.44 94.846 157.325 99.8592 157.325 99.8592L160.938 101.408C160.938 101.408 158.689 98.0884 157.571 96.9945C155.245 94.7176 154.606 94.1228 150.099 93.5952C143.712 93.0883 140.085 95.9918 136.919 99.3725Z" fill="#301A1C"/>
<path d="M137.026 98.986C137.026 98.986 139.23 100.904 140.294 101.356C140.294 101.356 135.461 101.516 135.295 100.955C135.128 100.393 137.026 98.986 137.026 98.986Z" fill="#E78662"/>
<g style="mix-blend-mode:multiply" opacity="0.6">
<path d="M137.149 99.1561C137.149 99.1561 148.038 93.2885 157.327 99.8575L156.804 98.962C156.804 98.962 155.525 95.3326 149.257 94.3768C142.99 93.4211 138.006 98.2629 137.149 99.1561Z" fill="#77B1D1"/>
</g>
</g>
<defs>
<linearGradient id="paint0_linear_1708_12947" x1="109.949" y1="103.532" x2="107.463" y2="93.9605" gradientUnits="userSpaceOnUse">
<stop stop-color="#F3F8FF"/>
<stop offset="1" stop-color="#BDC9FB"/>
</linearGradient>
<linearGradient id="paint1_linear_1708_12947" x1="110.113" y1="103.907" x2="107.204" y2="94.7971" gradientUnits="userSpaceOnUse">
<stop stop-color="#471F4B"/>
<stop offset="1" stop-color="#310A39"/>
</linearGradient>
<linearGradient id="paint2_linear_1708_12947" x1="109.21" y1="104.063" x2="106.516" y2="95.508" gradientUnits="userSpaceOnUse">
<stop stop-color="#665E5B"/>
<stop offset="1" stop-color="#074D64"/>
</linearGradient>
<linearGradient id="paint3_linear_1708_12947" x1="108.703" y1="100.966" x2="106.916" y2="95.2113" gradientUnits="userSpaceOnUse">
<stop stop-color="#A79ABD"/>
<stop offset="0.99" stop-color="#724A60"/>
</linearGradient>
<linearGradient id="paint4_linear_1708_12947" x1="145.635" y1="102.682" x2="148.141" y2="93.0325" gradientUnits="userSpaceOnUse">
<stop stop-color="#F3F8FF"/>
<stop offset="1" stop-color="#BDC9FB"/>
</linearGradient>
<linearGradient id="paint5_linear_1708_12947" x1="145.471" y1="103.051" x2="148.403" y2="93.8661" gradientUnits="userSpaceOnUse">
<stop stop-color="#471F4B"/>
<stop offset="1" stop-color="#310A39"/>
</linearGradient>
<linearGradient id="paint6_linear_1708_12947" x1="146.382" y1="103.21" x2="149.098" y2="94.5858" gradientUnits="userSpaceOnUse">
<stop stop-color="#665E5B"/>
<stop offset="1" stop-color="#005D72"/>
</linearGradient>
<linearGradient id="paint7_linear_1708_12947" x1="146.894" y1="100.092" x2="148.695" y2="94.2902" gradientUnits="userSpaceOnUse">
<stop stop-color="#A79ABD"/>
<stop offset="0.99" stop-color="#724A60"/>
</linearGradient>
</defs>
</svg>
