<svg width="251" height="250" viewBox="0 0 251 250" fill="none" xmlns="http://www.w3.org/2000/svg">
<mask id="mask0_1708_11749" style="mask-type:alpha" maskUnits="userSpaceOnUse" x="0" y="0" width="251" height="250">
<rect x="0.5" width="250" height="250" fill="#C4C4C4"/>
</mask>
<g mask="url(#mask0_1708_11749)">
<path d="M57.2732 69.0814C57.2732 41.0648 66.9986 15.3205 83.2575 -4.96094H29.2309C34.4429 2.64485 37.2247 11.6529 37.209 20.8731C37.209 44.7853 18.8772 64.4113 -4.5 66.4693V254.919H-4.49644V101.911C0.734904 106.897 4.67052 132.191 10.8186 135.999C25.7583 145.259 39.7157 157.516 46.2349 173.837C53.2278 191.345 50.8586 211.323 56.6093 229.278C59.4515 238.152 64.2369 246.405 68.0065 254.922H255.384V156.781C234.347 175.899 206.403 187.547 175.74 187.547C110.312 187.547 57.2732 134.508 57.2732 69.0814Z" fill="#150DCE"/>
<path d="M215 32C136.5 43.5 172 -4.96094 108.265 -4.96094H83.2578C66.9989 15.3205 57.2734 41.0648 57.2734 69.0814C57.2734 134.508 110.313 187.547 175.74 187.547C206.404 187.547 234.347 175.897 255.384 156.781V110.017C255.384 83 224.657 32.0065 215 32Z" fill="#66C3CD"/>
<path d="M23.7564 175.154C48.9579 167.769 76.0854 160.359 91.4598 139.067C93.1847 136.715 95.2523 134.234 97.7857 132.784C100.319 131.333 102.152 131.167 104.693 130.969C118.341 129.966 132.049 130.109 145.673 131.398C149.212 131.739 152.993 132.238 155.794 134.49C157.661 135.992 158.905 138.125 160.491 139.897C163.546 143.285 167.819 145.26 172.037 146.897C188.303 153.161 205.803 155.536 222.103 161.617C224.501 162.517 226.958 163.541 228.758 165.348C232.12 168.62 232.698 173.704 233.376 178.332C237.891 208.248 254.813 236.715 251.074 266.752C250.965 267.636 250.795 268.581 250.172 269.211C249.549 269.841 248.292 270.062 247.252 270.104L108.887 276.386C94.6009 277.036 80.223 277.685 66.1461 275.313C56.5182 273.667 47.0687 270.648 37.3263 270.221C27.5839 269.795 18.1925 271.851 9.35578 268.752C14.3156 258.483 11.6076 246.359 12.6141 235.007C13.3843 226.494 16.287 218.357 18.4587 210.083C21.3194 199.022 22.8852 187.666 23.1248 176.243L23.7564 175.154Z" fill="#206D41"/>
<path d="M90.1592 103.858C92.564 115.854 94.3777 121.848 98.9362 124.898C103.495 127.948 104.551 128.67 108.275 132.194C109.807 133.659 114.379 137.626 116.004 138.971C121.243 143.256 129.368 143.53 135.504 140.649C141.64 137.768 143.648 133.373 147.063 127.263C148.898 123.935 152.971 120.221 154.292 116.608C156.161 111.447 156.967 104.31 157.832 98.8851L159.767 86.909C160.215 84.1971 160.664 81.4546 160.041 78.7838C159.701 77.3408 159.054 75.9839 158.837 74.5127C158.62 73.0415 159.028 70.8179 159.307 68.9891C159.938 64.6301 159.532 60.1905 159.003 55.8098C158.207 49.2845 156.957 42.5674 153.145 37.2084C149.333 31.8495 142.559 27.9635 135.74 26.4303C128.922 24.897 121.825 25.2231 114.903 26.0109C110.431 26.5224 105.99 27.2659 101.596 28.2383C97.9738 29.0571 94.2555 30.1187 91.4888 32.604C86.2978 37.2447 86.0285 45.1256 86.1435 52.0661C86.2196 57.8138 86.3269 63.5315 86.403 69.2792C86.4474 71.817 86.4912 74.3853 86.1077 76.9151C85.8251 78.9577 85.2686 80.934 85.0471 82.9778C84.2771 89.8406 87.24 96.498 90.1186 102.757L90.1592 103.858Z" fill="#E4844D"/>
<path d="M157.587 77.8209C158.641 77.0458 159.756 76.2719 161.045 75.9598C162.335 75.6476 163.827 75.9506 164.664 76.9443C165.501 77.938 165.563 79.5285 165.477 80.9024C165.14 85.8171 164.316 90.6616 163.523 95.5067C163.354 96.39 163.183 97.3343 162.62 98.0574C162.056 98.7804 161.285 99.1328 160.484 99.4847L157.371 100.894C156.763 97.4285 158.782 94.0428 159.153 90.5347C159.413 88.0943 158.877 85.6697 158.31 83.3056L157.094 78.0256" fill="#E4844D"/>
<path d="M86.5932 85.3291C86.2314 83.4273 87.1562 81.3661 86.4254 79.5797C85.6946 77.7933 83.8116 77.1468 82.0791 76.6254C80.3466 76.1041 78.6684 75.9505 77.7284 77.1861C77.1342 77.9086 77.1459 78.9175 77.1893 79.8658C77.2242 81.2725 77.2885 82.7408 78.0302 83.9467C78.7718 85.1526 79.1978 85.2522 79.6419 86.0247C80.4706 87.4767 80.162 89.2743 80.2834 90.9577C80.4223 93.3443 81.4195 95.5942 82.3873 97.7824C82.9751 99.0466 83.5616 100.372 84.5206 101.398C85.4795 102.425 86.8719 103.154 88.2509 102.966C88.8118 102.895 89.3277 102.622 89.7018 102.198C89.9368 101.79 90.0711 101.331 90.0935 100.861C90.154 99.8024 89.949 98.746 89.4971 97.7874C89.0452 96.8287 88.3608 95.9983 87.5062 95.3716C87.1728 91.942 86.7784 88.5114 86.3839 85.0807" fill="#E4844D"/>
<path d="M157.558 79.22C160.045 76.9741 161.268 73.6958 161.94 70.4379C164.362 58.5931 161.11 46.1229 154.823 35.7967C152.688 32.303 149.355 29.062 146.319 26.3461C141.208 21.7882 133.864 19.8477 127.034 18.9561C120.204 18.0645 114.794 18.789 107.992 19.7012C105.173 20.0766 103.149 20.4056 100.62 21.6116C98.5848 22.5822 95.1567 24.4745 93.5082 26.0025C85.3869 33.7063 81.1734 40.0158 79.5483 48.4827C78.4333 54.1776 78.9518 68.9809 79.7968 71.1974C81.4315 75.3237 85.719 78.1546 86.6774 82.4822C89.17 70.4843 90.2094 58.23 89.7732 45.9837C89.6774 42.9254 89.5251 39.6215 91.1324 37.0229C92.7398 34.4242 94.9897 33.427 97.4529 32.4643C104.227 29.8093 111.604 29.2439 118.857 28.7374L128.345 28.0586C129.937 27.9355 133.144 28.0565 133.144 28.0565C133.144 28.0565 137.072 28.404 139.474 29.1221C141.738 29.799 143.394 30.7541 145.03 31.5182C147.637 32.6978 149.426 35.0847 151.095 37.4082C152.763 39.7318 152.935 40.9759 153.951 43.8374C154.649 45.7761 155.48 49.9415 155.717 51.9632C156.857 61.3044 158.037 69.9696 156.793 79.2975" fill="black"/>
<path d="M132.295 60.6217C131.515 61.1725 130.885 61.9102 130.463 62.7674C130.041 63.6245 129.841 64.5737 129.881 65.5282C129.905 65.8954 129.988 66.3249 130.29 66.5139C130.57 66.6645 130.893 66.7138 131.205 66.6532C136.502 66.1408 142.062 64.6857 147.007 66.673C149.53 67.6913 151.638 69.5284 152.992 71.8891C153.923 69.4918 152.783 66.6891 150.859 65.0027C148.934 63.3162 146.381 62.5045 143.917 61.8777C142.244 61.4492 140.54 61.0506 138.826 61.202C137.111 61.3534 135.673 61.4183 134.699 62.8366C134.958 62.0773 134.716 61.92 134.609 61.1233C133.734 62.1768 133.523 61.9894 132.231 62.4238C132.388 61.8356 132.41 61.2195 132.295 60.6217Z" fill="black"/>
<path d="M91.16 73.1908C91.9122 71.8066 92.9848 70.6225 94.2882 69.7376C95.5915 68.8526 97.0877 68.2924 98.6518 68.1039C101.132 67.8445 103.656 68.5641 106.164 68.4886C108.671 68.4131 111.507 67.1517 112.012 64.6854C112.089 64.3615 112.075 64.0223 111.969 63.7065C111.885 63.4609 111.719 63.2517 111.499 63.114C111.278 62.9763 111.018 62.9185 110.76 62.9504C110.633 62.9762 110.513 63.0279 110.406 63.1022C110.3 63.1765 110.21 63.2718 110.142 63.3823C110.074 63.4928 110.029 63.6161 110.011 63.7445C109.993 63.8729 110.001 64.0038 110.035 64.1289C109.597 63.0204 108.168 62.6575 106.972 62.8185C105.777 62.9796 104.637 63.478 103.414 63.4857C101.703 63.4843 100.041 62.4447 98.3549 62.7189C97.7566 62.8108 97.1818 63.0181 96.6624 63.3292C94.7308 64.3523 93.0842 65.84 91.871 67.6583C90.6579 69.4766 89.9163 71.5682 89.7131 73.7445" fill="black"/>
<path d="M111.042 111.86C111.551 110.8 112.651 109.139 113.789 108.794C114.947 108.489 116.145 108.367 117.341 108.432C124.493 108.443 131.692 109.22 138.774 108.099C139.57 107.991 140.641 107.95 140.994 108.69C141.347 109.43 140.722 110.183 140.131 110.722C137.068 113.464 133.47 115.54 129.564 116.821C128.79 117.103 127.987 117.293 127.169 117.388C125.332 117.567 123.507 117.044 121.714 116.522C119.92 115.999 118.187 115.509 116.615 114.593C115.979 114.245 115.406 113.837 114.77 113.519C113.467 112.914 111.938 112.977 111.042 111.86Z" fill="#FAF1E6"/>
<path d="M111.04 111.87C112.151 109.69 115.006 109.041 117.414 109.391C119.822 109.742 122.125 110.824 124.534 111.083C126.395 111.27 128.265 111 130.135 110.729L141.721 108.958C140.016 107.741 138.086 106.875 136.042 106.412C133.999 105.948 131.884 105.897 129.821 106.261C128.747 106.485 127.64 106.801 126.54 106.811C124.095 106.796 121.772 105.163 119.351 105.515C116.929 105.867 115.488 107.766 113.394 108.583C112.655 108.875 111.857 109.043 111.237 109.521C110.617 109.998 110.292 111.001 110.832 111.591" fill="#DC3B63"/>
<path d="M111.043 111.858C112.815 112.405 113.692 112.397 115.25 112.456C117.296 112.556 119.076 113.781 120.989 114.458C124.694 115.781 128.803 115.032 132.526 113.726C135.767 112.62 138.863 111.128 141.748 109.283C139.158 112.448 136.74 115.749 134.503 119.173C133.371 120.864 129.967 123.092 127.948 123.208C124.643 123.39 121.41 121.405 118.914 119.218C116.417 117.032 113.992 114.328 111.031 112.5L111.043 111.858Z" fill="#FF5663"/>
<path d="M114.704 98.9472C114.311 98.4332 114.002 97.86 113.789 97.249C113.648 96.6045 113.784 95.843 114.281 95.4549C114.777 95.0668 115.633 95.0522 116.269 95.3392C116.906 95.6261 117.479 96.0647 118.084 96.3817C121.173 97.937 124.882 95.6833 128.296 96.2054C129.21 96.3753 130.12 96.7285 131.04 96.5929C131.959 96.4572 133.045 95.5911 134.123 95.1833C135.2 94.7754 136.75 95.2323 136.76 96.3634C136.76 96.3634 136.649 97.37 136.366 97.7926C135.611 98.94 134.224 99.556 132.848 99.5915L134.846 97.3669C133.211 97.9235 131.693 98.7758 130.367 99.8814C128.939 101.077 127.502 102.701 125.609 102.635C123.715 102.569 121.899 99.9679 119.81 98.8591C119.071 98.4835 118.249 98.3009 117.42 98.3282C116.591 98.3555 115.783 98.5918 115.07 99.0152L114.704 98.9472Z" fill="#B36B34"/>
<path d="M96.7525 122.953C96.7525 122.953 97.0188 127.225 97.7868 132.772C98.5949 138.607 99.9724 145.823 102.766 149.778C103.782 151.184 104.902 152.513 106.116 153.753C112.134 160.026 119.361 165.016 127.36 168.423C127.662 168.575 127.995 168.655 128.334 168.655C128.717 168.561 129.069 168.367 129.353 168.093C137.707 161.036 146.184 153.889 152.495 144.929C153.751 143.149 154.98 141.185 155.112 139.017C155.234 137.4 154.774 135.832 154.375 134.266C153.156 129.312 152.695 124.202 153.007 119.111C152.146 119.4 151.611 120.215 151.108 120.97C148.054 125.743 145.211 130.702 141.192 134.754C137.174 138.805 131.86 141.823 126.179 141.626C120.497 141.428 114.912 137.717 110.463 133.691C106.015 129.665 96.7525 122.953 96.7525 122.953Z" fill="#E4844D"/>
<path d="M97.787 132.789C93.4175 137.628 91.6692 144.272 91.7 150.814C91.7307 157.355 93.3538 163.743 94.9785 170.04L98.0266 181.956C100.931 193.38 103.866 204.805 107.047 216.143C108.366 220.845 109.745 225.547 111.125 230.219L116.238 247.767L121.153 264.486C121.295 265.069 121.497 265.685 121.98 266.03C122.462 266.375 123.257 266.39 123.931 266.311C131.465 265.626 139.048 265.645 146.579 266.367C147.647 266.448 148.899 266.501 149.617 265.69C150.335 264.878 150.16 264.477 150.263 263.837C152.373 247.432 158.147 232.808 160.256 216.433C160.865 211.677 162.253 204.428 162.617 199.666C163.501 188.343 162.723 175.95 162.263 164.601C161.992 157.811 157.623 152.778 157.353 145.987C157.159 141.613 156.851 136.869 154.041 133.485C154.226 139.907 150.448 145.828 145.841 150.296C141.234 154.764 135.788 158.3 131.241 162.83C129.498 164.54 127.229 166.546 124.985 165.617C123.832 165.137 123.12 163.993 122.312 163.031C119.713 159.834 115.739 158.201 112.203 156.056C103.952 151.043 99.9035 142.212 97.787 132.789Z" fill="#E9F2F8"/>
<path d="M127.551 102.085C129.894 100.998 132.842 99.9218 134.709 98.1838C135.02 97.8839 135.363 97.493 135.279 97.0941C135.195 96.6952 135.281 96.9719 135.221 96.9402L135.068 96.9373C132.092 97.5542 129.369 99.643 127.551 102.085Z" fill="#423609"/>
<path d="M115.976 99.5399C118.318 101.073 121.458 101.974 124.252 102.14C124.239 101.192 122.989 100.435 122.236 99.8707C121.327 99.1262 120.306 98.5295 119.212 98.1026C118.107 97.6802 116.893 97.636 115.76 97.977C115.553 98.0413 115.376 98.1794 115.264 98.3651C115.243 98.4481 115.239 98.5347 115.253 98.6192C115.268 98.7037 115.299 98.7843 115.347 98.8557L115.976 99.5399Z" fill="#46390A"/>
<path d="M153.351 116.286C152.953 116.34 152.73 116.794 152.601 117.189C149.001 126.765 144.637 136.036 139.552 144.913C139.039 145.859 138.461 146.768 137.82 147.632C135.845 150.176 132.989 151.889 129.814 152.434C127.851 152.764 125.837 152.604 123.854 152.384C122.33 152.172 120.806 151.93 119.381 151.353C115.952 149.975 113.535 146.873 111.576 143.719C109.618 140.564 107.846 137.23 105.111 134.734C103.097 132.924 100.584 131.624 99.0982 129.365C101.187 133.771 102.564 138.48 103.178 143.317C103.201 143.407 103.21 143.5 103.203 143.593C103.163 144.142 102.425 144.373 101.94 144.15C101.455 143.927 101.159 143.433 100.923 142.939C99.1484 139.506 98.4394 136.595 97.7862 132.779C97.1474 129.047 96.5454 124.414 96.5102 120.636C100.912 122.716 104.948 125.495 108.46 128.867C111.314 131.579 113.822 134.744 117.114 136.884C121.492 139.747 127.368 141.018 132.231 139.183C134.858 138.15 137.3 136.699 139.464 134.886C145.428 129.771 149.653 122.82 152.844 115.635" fill="#69460F" fill-opacity="0.4"/>
<path d="M108.088 108.078C109.54 108.515 110.72 107.852 111.835 107.108C112.949 106.365 113.943 105.497 115.175 105C116.407 104.504 118.455 104.481 120.1 104.787C121.745 105.092 123.355 105.612 125.002 105.795C126.866 105.969 128.745 105.849 130.572 105.441C131.422 105.229 132.282 105.062 133.149 104.938C135.363 104.682 137.599 105.165 139.511 106.31C140.086 106.627 140.629 107.034 141.267 107.199C141.983 107.319 142.975 107.773 143.41 107.056C143.653 106.653 143.588 106.313 143.49 105.853C143.217 104.566 141.555 104.912 140.528 104.251C139.501 103.59 138.023 102.523 137.05 102.23C134.131 101.411 133.303 101.579 130.414 102.412C129.8 102.584 129.215 102.817 128.6 103.02C126.499 103.682 124.245 103.672 122.151 102.991C120.419 102.439 118.818 101.431 116.986 101.305C115.155 101.179 113.705 101.886 112.372 102.87C111.04 103.853 109.916 105.086 108.853 106.35C108.421 106.823 107.205 107.53 107.205 107.53" fill="black"/>
<path d="M93.8274 112.273C94.898 115.502 96.6737 118.622 99.3543 120.751C102.035 122.879 105.5 123.891 107.963 126.26C109.705 127.913 110.795 130.103 112.412 131.906C115.285 135.139 119.534 136.807 123.601 138.32C125.179 138.93 126.788 139.541 128.468 139.572C130.912 139.648 133.225 138.53 135.208 137.13C137.19 135.731 138.903 133.99 140.886 132.56C141.711 131.896 142.435 131.117 143.038 130.246C143.978 129.011 144.524 127.646 145.07 126.189C146.164 123.275 148.499 120.995 150.409 118.555C154.194 113.713 156.566 107.918 157.262 101.811C157.518 108.683 155.652 115.468 151.918 121.243C149.935 124.293 147.47 126.998 145.609 130.08C144.821 131.38 144.123 132.712 143.305 133.98C139.31 140.049 131.726 143.545 124.53 142.616C122.764 142.398 121.035 141.944 119.389 141.267C118.555 140.966 117.753 140.583 116.996 140.122C116.358 139.697 115.744 139.236 115.157 138.743L110.672 135.053L101.46 127.484C100.406 126.608 99.353 125.733 98.3624 124.767C92.7807 119.222 90.5491 111.05 89.9312 103.214C89.8792 102.724 89.8589 102.173 90.1413 101.781C90.4237 101.389 91.1593 101.28 91.3647 101.743C91.57 102.205 92.7878 109.013 93.8274 112.273Z" fill="black"/>
<path d="M154.216 133.846C159.603 138.626 160.239 142.253 166.963 144.834C169.815 145.957 176.088 153.776 178.53 155.595C183.533 159.356 181.743 163.602 185.154 169.167C188.565 174.732 191.93 179.939 191.93 179.939C192.436 182.271 192.994 186.797 191.763 188.852C191.216 189.656 188.534 191.732 187.778 192.343L183.931 194.186L197.378 187.743C200.276 186.361 203.299 184.919 206.538 184.949C195.374 210.1 187.572 236.613 183.335 263.803C183.303 264.223 183.17 264.63 182.946 264.988C182.414 265.65 181.406 265.631 180.582 265.555C169.995 264.613 159.355 264.435 148.743 265.022C151.544 250.831 154.377 236.609 156.448 222.252C158.104 211.055 154.323 180.645 155.043 169.369C156.24 151.083 160.128 151.195 154.216 133.846Z" fill="#001C20"/>
<path d="M96.3579 135.519C93.3823 142.646 92.6535 150.58 93.3965 158.265C94.1395 165.951 96.0312 172.68 97.9778 179.747C100.726 189.701 103.516 199.636 106.347 209.551L113.345 234.195C116.268 244.612 119.222 255.028 122.576 265.3C110.545 263.027 98.0165 266.125 85.8531 264.401C84.9081 264.261 83.9638 264.09 83.1479 263.586C82.3321 263.082 81.6459 262.182 81.0807 261.347C67.5347 241.991 53.811 222.325 45.974 200.05C52.5815 198.125 58.2809 207.187 65.0558 206.122C65.3212 201.725 66.0749 197.368 66.8287 193.012C68.5066 183.354 70.154 173.695 71.8319 164.037C72.1762 161.965 72.5528 159.802 73.747 158.052C74.9411 156.301 76.2092 155.5 77.6047 154.425C85.1113 148.544 91.8917 143.902 96.3579 135.519Z" fill="#001C20"/>
<path d="M62.0459 201.995C62.6177 204.114 64.6715 205.436 66.5453 206.572L76.8516 212.816C77.758 213.383 78.8483 213.923 79.8046 213.452C80.2559 213.162 80.6222 212.757 80.8657 212.28C86.8772 203.06 92.1865 193.402 96.7487 183.386C97.227 182.325 97.7064 181.203 97.7586 180.043C97.7374 179.319 97.6381 178.6 97.4624 177.898C96.3897 173.14 95.347 168.413 94.3043 163.687C93.2615 158.96 92.2448 154.479 92.3937 149.775C92.6006 143.604 95.6011 138.573 97.7877 132.775C94.6529 133.695 91.4707 135.361 89.6777 138.078C87.8848 140.796 86.5151 143.766 84.4505 146.295C80.6668 150.87 74.8383 153.634 71.9603 158.807C70.2833 161.863 69.8194 165.431 69.3267 168.906C67.7032 180.319 65.4512 191.634 62.5811 202.799" fill="#00331E"/>
<path d="M156.824 172.623C165.835 180.197 174.197 188.512 181.821 197.481C183.397 193.292 189.528 192.337 191.043 188.147C192.557 183.958 189.075 180.561 186.63 177.306C179.142 167.416 177.33 153.169 167.13 146.132C164.716 144.467 161.956 143.315 159.823 141.289C158.685 140.176 157.775 138.85 157.145 137.387C155.604 149.554 153.96 160.68 156.824 172.623Z" fill="#00331E"/>
<path d="M124.511 166.224C124.412 166.65 123.93 167.894 124.599 168.09C124.708 168.116 124.822 168.104 124.923 168.056C125.024 168.008 125.106 167.927 125.154 167.826C125.173 167.812 125.189 167.794 125.2 167.773C125.211 167.751 125.217 167.728 125.217 167.704C125.235 167.689 125.247 167.667 125.249 167.644C125.248 167.705 124.94 167.852 124.787 167.819L124.516 167.6C124.398 167.384 124.49 167.355 124.456 167.568C124.421 167.781 124.388 167.903 124.355 168.055C124.219 168.786 124.053 169.517 123.916 170.278C123.566 171.855 123.322 173.454 123.185 175.063C122.971 178.33 123.708 181.431 124.29 184.62C125.482 191.214 124.775 197.956 124.681 204.617C124.588 211.279 124.765 218.159 125.006 224.919L125.726 245.289L126.087 255.413C126.208 258.777 126.359 262.142 126.144 265.47C126.098 266.294 126.021 267.118 125.945 267.942C125.868 268.766 126.79 268.538 126.862 267.959C127.263 264.452 127.208 260.874 127.09 257.357C126.972 253.84 126.827 250.139 126.681 246.529C126.449 239.312 126.155 232.123 125.922 224.936C125.69 217.749 125.487 210.593 125.621 203.412C125.688 199.837 125.876 196.295 125.881 192.75C125.884 190.962 125.795 189.175 125.614 187.396C125.432 185.711 125.126 184.086 124.79 182.429C124.42 180.755 124.186 179.054 124.09 177.342C124.026 175.542 124.162 173.74 124.496 171.97C124.767 170.569 125.098 169.169 125.338 167.768C125.374 167.493 125.441 167.189 125.2 167.001C125.141 166.962 125.075 166.935 125.005 166.922C124.936 166.909 124.864 166.911 124.795 166.927C124.726 166.943 124.661 166.973 124.604 167.015C124.547 167.057 124.499 167.11 124.463 167.171C124.454 167.216 124.432 167.258 124.4 167.292C124.334 167.535 124.435 167.048 124.86 167.209L125.131 167.428C125.308 167.767 125.127 167.642 125.19 167.551L125.193 167.398C125.259 167.094 125.326 166.79 125.362 166.485C125.399 166.18 124.613 165.676 124.511 166.224Z" fill="#E5E5E5"/>
<path d="M132.372 208.498C132.436 208.239 132.578 208.006 132.778 207.83C132.977 207.653 133.226 207.542 133.491 207.51C134.03 207.47 134.569 207.586 135.043 207.845C135.757 208.092 136.37 208.565 136.791 209.192C137.116 209.778 137.164 210.482 137.212 211.186C137.281 212.441 137.252 213.968 136.23 214.714C135.831 214.989 135.361 215.139 134.877 215.147C133.982 215.172 133.107 214.876 132.411 214.314C131.714 213.751 131.241 212.959 131.077 212.078C130.913 211.198 131.068 210.288 131.515 209.513C131.962 208.737 132.671 208.146 133.515 207.847" fill="#E5E5E5"/>
<path d="M134.547 247.552C134.837 246.762 135.997 246.845 136.723 247.256C139.021 248.583 139.782 252.02 138.244 254.192C138.068 254.471 137.821 254.699 137.528 254.851C137.005 255.086 136.366 254.921 135.753 254.971C135.363 255.072 134.962 255.126 134.558 255.132C134.251 255.084 133.964 254.95 133.73 254.745C133.496 254.541 133.324 254.274 133.235 253.977C133.001 253.391 133.045 252.72 133.056 252.109C133.033 251.038 133.166 249.97 133.451 248.937C133.806 247.935 134.496 247.001 135.512 246.622" fill="#E5E5E5"/>
<path d="M190.367 242.251C194.775 241.098 199.078 239.573 203.228 237.692C204.215 237.252 205.202 236.781 206.272 236.74C207.343 236.699 208.525 237.241 208.872 238.256C209.22 239.271 208.937 239.694 208.68 240.361C207.779 242.79 205.758 244.647 203.533 245.92C201.309 247.193 198.789 247.94 196.299 248.658C194.676 249.159 193.025 249.567 191.356 249.88C190.129 250.102 188.481 249.979 188.106 248.75C187.732 247.52 188.475 246.984 188.948 246.198C189.617 244.987 189.969 243.627 189.97 242.243" fill="#FB2D5F"/>
<path d="M128.084 177.884C129.244 177.967 130.526 178.052 131.545 177.49C132.515 176.915 133.223 175.986 133.519 174.898C133.875 173.865 133.926 172.736 133.977 171.636L134.123 168.766C134.211 167.331 134.18 165.68 133.097 164.742C132.015 163.805 130.881 163.937 129.688 163.976L126.842 164.167C125.587 164.297 123.995 164.42 123.211 165.506C122.426 166.591 122.691 167.146 122.705 168.002C122.781 170.864 123.328 173.693 124.322 176.377C124.497 176.859 124.825 177.27 125.256 177.549C125.687 177.827 126.196 177.957 126.708 177.919L128.084 177.884Z" fill="#D90236"/>
<path d="M97.7584 160.137C102.328 159.336 107.045 160.402 111.482 161.769C115.919 163.135 120.319 164.868 124.924 165.412C130.139 166.06 135.413 165.18 140.481 163.807C145.55 162.435 150.445 160.57 155.485 159.136C155.817 159.012 156.176 158.976 156.526 159.033C156.828 159.157 157.096 159.35 157.31 159.598C158.619 160.986 159.63 162.628 160.28 164.422C160.93 166.217 161.205 168.125 161.089 170.03C160.75 175.067 157.733 179.504 154.602 183.48C153.695 184.624 152.632 185.858 151.161 186.075C150.334 186.182 149.513 185.922 148.724 185.663C144.56 184.393 140.216 182.967 137.28 179.764C136.83 179.209 136.339 178.689 135.811 178.208C134.667 177.27 133.145 176.936 131.683 176.695C130.22 176.453 128.236 176.294 126.548 176.66C123.081 177.39 120.462 180.122 117.492 182.054C113.708 184.531 109.261 185.802 104.739 185.698C103.396 185.642 101.993 185.463 100.877 184.678C100.136 184.096 99.5255 183.366 99.0827 182.536C95.2863 176.321 94.7035 168.241 97.5189 161.508" fill="#D90236"/>
<path d="M224.616 162.895C223.893 198.338 209.999 232.037 209.307 267.48C209.27 269.466 209.59 271.947 211.473 272.624C212.353 272.946 213.336 272.72 214.287 272.524C225.706 269.869 237.416 268.67 249.137 268.956C250.176 268.976 251.462 268.847 251.786 267.844C251.901 267.409 251.877 266.95 251.719 266.529C249.686 257.535 252.551 248.144 251.744 238.959C251.371 234.398 250.078 229.973 248.815 225.609L238.477 189.929C236.783 184.09 235.089 178.221 234.621 172.191C234.473 170.293 234.447 168.367 233.685 166.61C232.249 163.313 228.036 161.431 224.65 162.682L224.616 162.895Z" fill="#004631"/>
<path d="M23.1264 176.237C32.845 206.265 44.2659 235.716 57.3336 264.445L13.8585 265.04C11.8102 265.063 9.18931 264.647 8.7986 262.653C8.57241 261.671 9.04898 260.701 9.40276 259.761C11.2333 255.026 10.5375 249.726 10.2661 244.616C9.42807 228.921 13.1727 213.341 17.672 198.264C18.4544 195.65 19.2679 193.006 19.2575 190.286C19.2249 188.757 18.9784 187.224 18.9464 185.665C18.9468 183.669 19.3768 181.697 20.207 179.883C21.0372 178.068 22.2483 176.453 23.758 175.148" fill="#003B28"/>
<path d="M97.8019 77.8676L98.9145 80.4864C98.9145 80.4864 100.267 81.7037 105.472 81.2201C108.587 80.9351 111.605 79.9912 114.327 78.4511C114.327 78.4511 114.765 77.8785 113.2 78.2467C110.805 78.8133 103.866 78.8672 97.8019 77.8676Z" fill="#B36B34"/>
<path d="M115.105 77.6541C115.262 77.4431 109.786 72.7867 105.164 73.0978C100.543 73.4089 97.7238 77.0853 97.8006 77.8814C97.8006 77.8814 100.467 79.1232 106.122 79.137C110.676 79.1303 114.665 78.3184 115.105 77.6541Z" fill="url(#paint0_linear_1708_11749)"/>
<path d="M110.437 76.5511C110.574 74.835 108.885 73.3 106.664 73.1225C104.443 72.945 102.532 74.1923 102.395 75.9084C102.258 77.6245 103.947 79.1595 106.168 79.337C108.388 79.5144 110.3 78.2672 110.437 76.5511Z" fill="url(#paint1_linear_1708_11749)"/>
<path d="M110.195 76.5387C110.324 74.9235 108.737 73.4791 106.651 73.3124C104.565 73.1456 102.769 74.3198 102.64 75.9349C102.511 77.5501 104.097 78.9945 106.184 79.1612C108.27 79.328 110.066 78.1538 110.195 76.5387Z" fill="url(#paint2_linear_1708_11749)"/>
<path style="mix-blend-mode:multiply" d="M108.853 76.4305C108.936 75.3874 107.913 74.4546 106.567 74.347C105.221 74.2395 104.062 74.9979 103.979 76.041C103.896 77.0841 104.919 78.0169 106.265 78.1244C107.611 78.232 108.77 77.4736 108.853 76.4305Z" fill="url(#paint3_linear_1708_11749)"/>
<path d="M114.773 77.2063C114.773 77.2063 109.886 72.1024 104.685 72.3722C99.484 72.6419 98.247 76.684 98.247 76.684C98.247 76.684 99.9523 73.751 105.127 73.2668C110.301 72.7826 114.773 77.2063 114.773 77.2063Z" fill="#DD4C6A"/>
<path d="M114.775 77.2085C114.775 77.2085 110.874 73.315 105.033 73.5117C103.555 73.5592 102.114 73.9848 100.848 74.7478C99.5815 75.5108 98.5319 76.5857 97.7992 77.8698L96.1493 77.839L97.2275 75.7501C97.2275 75.7501 99.2711 72.7012 103.072 72.1302C106.873 71.5593 112.846 72.496 114.775 77.2085Z" fill="black"/>
<path d="M114.592 77.0283C114.592 77.0283 114.35 78.5212 113.457 78.9018C113.457 78.9018 116.053 78.9502 115.969 78.5819C115.884 78.2136 114.592 77.0283 114.592 77.0283Z" fill="#A16B25"/>
<path d="M103.015 76.7708C103.349 76.8993 102.118 77.3347 101.08 77.2848C100.042 77.2348 99.5596 76.8897 99.623 76.7686C99.6864 76.6476 101.618 76.2864 103.015 76.7708Z" fill="white"/>
<path d="M103.781 76.7864C104.091 76.5782 104.579 76.6179 104.637 76.7718C104.696 76.9257 104.384 77.256 104.139 77.2514C103.895 77.2469 103.626 76.9057 103.781 76.7864Z" fill="white"/>
<g style="mix-blend-mode:multiply" opacity="0.6">
<path d="M114.595 77.0251C114.595 77.0251 105.773 71.4809 98.1165 77.2066L98.1199 77.0233C98.1199 77.0233 98.9039 74.3176 104.179 73.3768C109.454 72.436 113.844 76.3081 114.595 77.0251Z" fill="#D177B8"/>
</g>
<path d="M147.671 76.9349L146.43 79.5404C146.43 79.5404 145.064 80.6764 139.881 79.9989C136.777 79.6052 133.795 78.5488 131.136 76.9014C131.136 76.9014 130.719 76.3129 132.27 76.7392C134.611 77.3942 141.574 77.7075 147.671 76.9349Z" fill="#B36B34"/>
<path d="M130.351 76.0963C130.233 75.8496 135.879 71.4007 140.455 71.8835C145.031 72.3662 147.772 76.1769 147.666 76.9391C147.666 76.9391 144.955 78.0805 139.304 77.8834C134.722 77.7367 130.797 76.7465 130.351 76.0963Z" fill="url(#paint4_linear_1708_11749)"/>
<path d="M139.349 78.0263C141.575 77.9318 143.321 76.4609 143.247 74.7409C143.174 73.0209 141.311 71.7032 139.085 71.7976C136.859 71.8921 135.114 73.3631 135.187 75.0831C135.26 76.8031 137.124 78.1208 139.349 78.0263Z" fill="url(#paint5_linear_1708_11749)"/>
<path d="M139.338 77.8343C141.429 77.7456 143.068 76.3613 142.999 74.7425C142.931 73.1237 141.18 71.8833 139.089 71.9721C136.998 72.0609 135.358 73.4451 135.427 75.0639C135.496 76.6828 137.247 77.9231 139.338 77.8343Z" fill="url(#paint6_linear_1708_11749)"/>
<path style="mix-blend-mode:multiply" d="M139.297 76.7995C140.646 76.7423 141.703 75.8483 141.659 74.8028C141.615 73.7573 140.485 72.9562 139.136 73.0135C137.787 73.0708 136.729 73.9647 136.774 75.0102C136.818 76.0557 137.948 76.8568 139.297 76.7995Z" fill="url(#paint7_linear_1708_11749)"/>
<path d="M130.698 75.6323C130.698 75.6323 135.803 70.7148 140.99 71.1784C146.178 71.642 147.232 75.7268 147.232 75.7268C147.232 75.7268 145.668 72.7328 140.485 72.0553C135.301 71.3779 130.698 75.6323 130.698 75.6323Z" fill="#DD4C6A"/>
<path d="M130.698 75.6347C130.698 75.6347 134.771 71.89 140.571 72.3039C142.05 72.4073 143.478 72.8864 144.72 73.6958C145.962 74.5052 146.976 75.6183 147.668 76.9294L149.318 76.9602L148.318 74.8631C148.318 74.8631 146.39 71.7095 142.612 71.0277C138.835 70.3459 132.832 70.998 130.698 75.6347Z" fill="black"/>
<path d="M130.915 75.4638C130.915 75.4638 131.101 76.9646 131.979 77.4088C131.979 77.4088 129.383 77.3298 129.482 76.9649C129.58 76.6001 130.915 75.4638 130.915 75.4638Z" fill="#A16B25"/>
<path d="M137.633 75.8643C137.331 75.6447 136.872 75.6667 136.778 75.8178C136.683 75.9688 137.044 76.3117 137.257 76.3157C137.471 76.3196 137.814 75.9899 137.633 75.8643Z" fill="white"/>
<g style="mix-blend-mode:multiply" opacity="0.6">
<path d="M130.914 75.4606C130.914 75.4606 139.937 70.2495 147.374 76.2568L147.377 76.1041C147.377 76.1041 146.695 73.371 141.429 72.203C136.163 71.0349 131.691 74.7721 130.914 75.4606Z" fill="#D177B8"/>
</g>
<path d="M110.938 78.8265C112.458 78.4229 113.993 79.0635 114.572 79.4343C114.698 79.8863 114.867 80.9508 114.531 81.5925C114.111 82.3946 112.487 82.6343 111.402 82.884C110.318 83.1338 107.899 82.5487 108.054 81.4716C108.209 80.3946 109.039 79.331 110.938 78.8265Z" fill="#B36B34"/>
<path d="M133.079 78.0746C132.339 78.49 131.822 78.2728 131.364 78.8474C130.413 80.0425 132.799 81.878 133.527 82.1062C134.437 82.3915 135.497 81.6065 136.159 81.2164C136.82 80.8263 136.462 78.9426 136.216 78.1332C135.97 77.3238 134.004 77.5554 133.079 78.0746Z" fill="#B36B34"/>
</g>
<defs>
<linearGradient id="paint0_linear_1708_11749" x1="106.423" y1="79.8318" x2="103.852" y2="72.2849" gradientUnits="userSpaceOnUse">
<stop stop-color="#EEE2FF"/>
<stop offset="1" stop-color="#BDC9FB"/>
</linearGradient>
<linearGradient id="paint1_linear_1708_11749" x1="105.613" y1="80.4162" x2="106.574" y2="74.2979" gradientUnits="userSpaceOnUse">
<stop stop-color="#471F4B"/>
<stop offset="1" stop-color="#310A39"/>
</linearGradient>
<linearGradient id="paint2_linear_1708_11749" x1="105.642" y1="80.2459" x2="106.547" y2="74.4823" gradientUnits="userSpaceOnUse">
<stop stop-color="#57335B"/>
<stop offset="1" stop-color="#310A39"/>
</linearGradient>
<linearGradient id="paint3_linear_1708_11749" x1="105.799" y1="79.2311" x2="106.386" y2="75.4947" gradientUnits="userSpaceOnUse">
<stop stop-color="#A79ABD"/>
<stop offset="0.99" stop-color="#724A60"/>
</linearGradient>
<linearGradient id="paint4_linear_1708_11749" x1="137.761" y1="79.3801" x2="140.589" y2="71.9222" gradientUnits="userSpaceOnUse">
<stop stop-color="#EEE2FF"/>
<stop offset="1" stop-color="#BDC9FB"/>
</linearGradient>
<linearGradient id="paint5_linear_1708_11749" x1="139.886" y1="79.1566" x2="139.154" y2="73.0038" gradientUnits="userSpaceOnUse">
<stop stop-color="#471F4B"/>
<stop offset="1" stop-color="#310A39"/>
</linearGradient>
<linearGradient id="paint6_linear_1708_11749" x1="139.861" y1="78.9695" x2="139.171" y2="73.1762" gradientUnits="userSpaceOnUse">
<stop stop-color="#57335B"/>
<stop offset="1" stop-color="#310A39"/>
</linearGradient>
<linearGradient id="paint7_linear_1708_11749" x1="139.741" y1="77.957" x2="139.293" y2="74.1986" gradientUnits="userSpaceOnUse">
<stop stop-color="#A79ABD"/>
<stop offset="0.99" stop-color="#724A60"/>
</linearGradient>
</defs>
</svg>
