<svg width="251" height="250" viewBox="0 0 251 250" fill="none" xmlns="http://www.w3.org/2000/svg">
<mask id="mask0_1708_12791" style="mask-type:alpha" maskUnits="userSpaceOnUse" x="0" y="0" width="251" height="250">
<rect x="0.5" width="250" height="250" fill="#C4C4C4"/>
</mask>
<g mask="url(#mask0_1708_12791)">
<path d="M113.393 257.924C110.769 248.354 103.905 240.496 96.3355 234.084C87.9696 227.002 78.0111 221.242 67.5215 218.086C77.4994 239.497 93.8397 257.345 114.113 269.199C114.634 265.43 114.389 261.595 113.393 257.924Z" fill="#781ED1"/>
<path d="M229.24 270.037H280.5V214.703C270.849 240.016 252.562 256.851 229.24 270.037Z" fill="#FA9101"/>
<path d="M114.112 269.196C114.633 265.429 114.388 261.595 113.392 257.924C110.769 248.354 103.904 240.496 96.3348 234.084C87.9696 227.002 78.0111 221.242 67.5215 218.086C77.4994 239.495 93.8397 257.342 114.112 269.196Z" fill="#FA9101"/>
<path d="M277.043 54.0868C268.211 52.2934 258.068 51.408 252.524 44.3012C247.858 38.3179 248.036 29.6286 243.502 23.5437C236.556 14.2226 222.568 15.153 211.093 17.0254L170.456 23.6577C166.623 24.2834 162.684 24.9076 158.884 24.1097C155.083 23.3119 151.394 20.761 150.405 17.0045C148.989 11.6259 153.344 6.57769 157.477 2.85604C163.777 -2.80892 170.412 -8.09074 177.344 -12.9609L99.4373 -12.9609C96.9364 -10.2662 94.7141 -7.32561 92.8043 -4.18406C90.0627 0.337732 87.9568 5.22471 85.154 9.7093C80.1519 17.6825 73.0939 24.1607 64.7222 28.4625C52.5493 34.6939 38.176 36.0143 26.5141 43.1614C15.9531 49.6348 8.47574 60.5989 5.2573 72.5593C2.03885 84.5197 2.89871 97.385 6.63276 109.196C10.0683 120.062 15.8376 130.074 19.3174 140.927C22.7971 151.779 23.7182 164.303 17.7566 174.016C14.7095 178.978 10.1117 182.801 5.29607 186.079C2.86227 187.737 0.249363 189.305 -2.5 190.334V270.039H24.1904C19.3329 261.865 16.7424 252.381 17.372 242.869C17.8861 235.087 20.6098 227.02 26.7009 222.15C29.548 219.874 32.9727 218.419 36.4702 217.394C46.6722 214.405 57.3463 215.025 67.5204 218.092C60.6121 203.267 56.754 186.735 56.754 169.301C56.754 105.43 108.531 53.6526 172.402 53.6526C221.763 53.6526 263.901 84.5763 280.499 128.107V54.8613C279.353 54.5817 278.201 54.3235 277.043 54.0868Z" fill="#66C3CD"/>
<path d="M67.5209 218.09C57.3468 215.026 46.6727 214.406 36.4708 217.392C32.9724 218.417 29.5477 219.873 26.7014 222.148C20.6104 227.018 17.8866 235.085 17.3725 242.867C16.743 252.378 19.3334 261.862 24.1909 270.037H113.983C114.031 269.758 114.074 269.479 114.112 269.199C93.8391 257.346 77.4988 239.498 67.5209 218.09Z" fill="#66C3CD"/>
<path d="M172.404 53.6484C108.533 53.6484 56.7559 105.426 56.7559 169.297C56.7559 186.73 60.614 203.263 67.5223 218.088C78.0119 221.246 87.9704 227.004 96.334 234.088C103.906 240.5 110.77 248.358 113.392 257.928C114.388 261.599 114.633 265.433 114.113 269.201C114.595 269.483 115.08 269.762 115.567 270.038H229.24C252.562 256.852 270.849 240.017 280.5 214.704V128.103C263.902 84.5761 221.765 53.6484 172.404 53.6484Z" fill="#150DCE"/>
<path d="M151.588 102.203L151.187 110.551C151.012 114.155 150.837 117.809 151.701 121.313C152.44 124.329 153.917 127.133 154.781 130.124C156.033 134.479 155.921 139.122 155.482 143.64C155.169 146.806 154.618 150.135 152.602 152.588C151.25 154.215 149.372 155.304 147.531 156.342L132.429 164.965C131.139 165.703 129.849 166.429 128.672 167.33C126.606 168.92 124.891 170.997 122.574 172.174C120.045 173.463 117.102 173.538 114.272 173.588C111.78 173.625 109.15 173.638 106.984 172.411C105.97 171.836 105.118 171.022 104.267 170.221C100.798 166.892 97.2416 163.426 95.4635 158.97C94.6495 156.906 94.2488 154.69 93.9107 152.488C92.5082 143.227 92.1952 133.841 92.0449 124.467C95.9143 125.155 99.408 127.095 102.977 128.71C111.542 132.564 121.522 134.579 130.3 131.238C136.073 129.035 140.844 124.655 144.237 119.486C147.631 114.317 149.697 108.398 151.087 102.378L151.588 102.203Z" fill="#EB9F7F"/>
<path d="M153.905 84.9688C154.711 81.9247 156.051 79.0477 157.862 76.4712C158.238 75.9456 158.651 75.4075 159.265 75.1947C160.242 74.8568 161.344 75.5701 161.807 76.4962C162.27 77.4223 162.258 78.5111 162.233 79.5499C162.145 83.8925 162.07 88.2352 161.982 92.5778C161.92 95.4687 161.869 98.3847 161.218 101.201C160.918 102.477 160.492 103.766 159.653 104.767C158.814 105.768 157.524 106.482 156.222 106.319C154.92 106.156 153.818 105.105 153.242 103.904C152.666 102.702 152.54 101.338 152.465 100.012C152.232 95.4496 152.649 90.8775 153.705 86.433L153.905 84.9688Z" fill="#DE9F83"/>
<path d="M79.7723 95.282C79.6346 93.5424 79.4969 91.7528 78.708 90.1884C77.9191 88.6241 76.3538 87.335 74.6132 87.4352C74.3001 87.4477 73.962 87.5353 73.7617 87.7731C73.5613 88.0108 73.5613 88.599 73.6615 89.012L78.0192 107.884C78.4199 109.624 78.8457 111.414 79.8725 112.878C80.8993 114.342 83.6041 115.956 84.7687 114.73C85.4825 113.967 84.8188 112.039 84.681 111.001C84.0294 106.102 82.9055 101.278 81.3251 96.596L79.7723 95.282Z" fill="#DE9F83"/>
<path d="M151.5 100.077C150.818 106.648 149.718 113.169 148.207 119.6C146.604 126.421 144.475 133.254 140.456 138.985C136.436 144.717 130.288 149.298 123.313 149.961C117.765 150.487 112.268 148.572 107.322 146.019C104.705 144.68 102.15 143.14 99.9838 141.15C94.2612 135.919 91.6566 128.21 89.2773 120.839C97.5054 124.497 106.185 127.043 115.086 128.41C119.957 129.149 125.103 129.499 129.649 127.609C133.33 126.083 136.273 123.217 138.903 120.226C144.273 114.134 148.724 107.292 152.114 99.9141" fill="#BB6343"/>
<path d="M87.7119 51.2031C84.406 52.2293 81.9642 55.0702 80.3363 58.1238C77.5188 63.3676 76.6172 69.4623 76.805 75.4068C76.9929 81.3514 78.195 87.2209 79.3971 93.0528L81.4758 103.09C82.1924 106.466 83.1508 109.787 84.3434 113.026C86.2343 118.158 89.0142 122.375 92.1823 126.818C95.5633 131.536 99.2072 136.367 104.379 138.982C110.202 141.923 117.076 141.623 123.588 141.172C126.205 140.997 128.885 140.784 131.252 139.646C134.269 138.206 136.423 135.428 138.289 132.65C150.749 114.14 156.058 90.9628 152.89 68.8866C152.552 66.5964 152.101 64.2186 150.686 62.3789C148.006 58.8747 142.972 58.4868 138.565 58.299C121.651 57.5594 104.841 55.2594 88.3505 51.4284L87.7119 51.2031Z" fill="#EB9F7F"/>
<path d="M121.943 80.2594C123.108 79.2963 127.3 75.691 131.751 75.8671C136.201 76.0433 139.13 78.7625 139.079 79.5384C138.979 81.0895 136.589 83.0295 130.809 82.7158C127.509 82.2829 122.254 80.9463 121.943 80.2594Z" fill="url(#paint0_linear_1708_12791)"/>
<path d="M126.987 79.689C126.784 77.502 128.324 75.5629 130.428 75.3579C132.531 75.1528 134.4 76.7595 134.603 78.9464C134.806 81.1334 133.266 83.0725 131.163 83.2775C129.059 83.4826 127.19 81.8759 126.987 79.689Z" fill="url(#paint1_linear_1708_12791)"/>
<path d="M129.148 82.8926C127.379 81.995 126.641 79.7786 127.5 77.942C128.359 76.1055 130.489 75.3443 132.258 76.2419C134.027 77.1395 134.765 79.356 133.906 81.1925C133.048 83.0291 130.917 83.7903 129.148 82.8926Z" fill="url(#paint2_linear_1708_12791)"/>
<path style="mix-blend-mode:multiply" d="M130.831 81.782C129.507 81.8282 128.394 80.7527 128.346 79.3798C128.298 78.0069 129.333 76.8565 130.657 76.8103C131.981 76.764 133.094 77.8395 133.141 79.2124C133.189 80.5854 132.155 81.7358 130.831 81.782Z" fill="url(#paint3_linear_1708_12791)"/>
<path d="M127.501 78.4877C127.257 78.6424 128.146 79.0752 128.895 78.9971C129.565 78.9277 129.969 78.5233 129.931 78.4062C129.893 78.2891 128.466 77.8821 127.501 78.4877Z" fill="white"/>
<path d="M125.346 79.0994C125.077 78.9 124.68 78.953 124.618 79.1149C124.556 79.2768 124.868 79.5995 125.061 79.5836C125.253 79.5678 125.496 79.2109 125.346 79.0994Z" fill="white"/>
<path d="M122.196 80.1646C122.196 80.1646 125.77 73.2798 133.579 73.2518C140.388 73.5129 140.478 82.21 140.478 82.21C140.478 82.21 136.616 75.9118 131.337 75.5115C126.635 75.1551 122.196 80.1646 122.196 80.1646Z" fill="#DB7A58"/>
<path d="M138.846 80.3185C139.512 80.1557 139.968 81.6982 139.968 81.6982C139.968 81.6982 135.942 85.8094 130.442 84.2381C128.854 83.9721 123.895 82.4049 122.695 80.9993C122.594 80.8807 122.268 80.2347 122.268 80.2347C122.268 80.2347 131.093 82.2142 138.846 80.3185Z" fill="#CC876F"/>
<path d="M122.195 80.1583C122.195 80.1583 126.513 75.9173 131.457 76.236C134.887 76.4571 138.556 80.3193 138.556 80.3193L140.91 82.6752C140.91 82.6752 139.997 79.1084 139.082 78.2139C137.18 76.352 136.658 75.8657 132.973 75.4343C127.75 75.0198 124.784 77.3939 122.195 80.1583Z" fill="#301A1C"/>
<path d="M122.382 79.4658C122.382 79.4658 124.183 81.0337 125.053 81.4036C125.053 81.4036 122.037 81.499 121.765 80.5814C121.629 80.1226 122.382 79.4658 122.382 79.4658Z" fill="#CC876F"/>
<g style="mix-blend-mode:multiply" opacity="0.6">
<path d="M122.382 79.9915C122.382 79.9915 131.348 75.3047 138.943 80.6761L138.454 79.8329C138.454 79.8329 137.408 76.865 132.283 76.0836C127.159 75.3021 123.083 79.2612 122.382 79.9915Z" fill="#D177B8"/>
</g>
<path d="M109.1 82.4494C107.902 81.4584 103.588 77.7485 99.0087 77.9297C94.4293 78.111 91.4158 80.9091 91.4674 81.7075C91.5706 83.3036 94.0302 85.2998 99.9773 84.977C103.373 84.5316 108.781 83.1561 109.1 82.4494Z" fill="url(#paint4_linear_1708_12791)"/>
<path d="M103.911 81.8535C104.12 79.6031 102.534 77.6078 100.37 77.3968C98.206 77.1858 96.2823 78.839 96.0735 81.0894C95.8646 83.3398 97.4497 85.3351 99.6139 85.5461C101.778 85.7571 103.702 84.1039 103.911 81.8535Z" fill="url(#paint5_linear_1708_12791)"/>
<path d="M101.687 85.1556C103.507 84.2319 104.267 81.9512 103.383 80.0614C102.5 78.1716 100.308 77.3883 98.4873 78.312C96.667 79.2356 95.9077 81.5164 96.7912 83.4062C97.6748 85.296 99.8667 86.0792 101.687 85.1556Z" fill="url(#paint6_linear_1708_12791)"/>
<path style="mix-blend-mode:multiply" d="M99.9565 84.0067C101.319 84.0543 102.464 82.9476 102.513 81.5349C102.562 80.1222 101.498 78.9384 100.135 78.8908C98.7725 78.8432 97.628 79.9499 97.5787 81.3626C97.5294 82.7754 98.5939 83.9592 99.9565 84.0067Z" fill="url(#paint7_linear_1708_12791)"/>
<path d="M100.661 80.7406C100.41 80.8999 101.325 81.3452 102.096 81.2647C102.786 81.1934 103.201 80.7772 103.162 80.6567C103.123 80.5363 101.654 80.1174 100.661 80.7406Z" fill="white"/>
<path d="M98.4445 81.3693C98.168 81.1641 97.7591 81.2187 97.6955 81.3852C97.6318 81.5518 97.9529 81.8838 98.1509 81.8676C98.3489 81.8513 98.5983 81.4839 98.4445 81.3693Z" fill="white"/>
<path d="M108.841 82.3485C108.841 82.3485 105.162 75.264 97.1276 75.2352C90.1213 75.5039 90.0279 84.4532 90.0279 84.4532C90.0279 84.4532 94.0021 77.9723 99.4349 77.5605C104.272 77.1937 108.841 82.3485 108.841 82.3485Z" fill="#DB7A58"/>
<path d="M91.7086 82.5043C91.0235 82.3368 90.5541 83.9241 90.5541 83.9241C90.5541 83.9241 94.6967 88.1545 100.356 86.5376C101.99 86.2639 107.093 84.6512 108.327 83.2049C108.432 83.0828 108.767 82.4182 108.767 82.4182C108.767 82.4182 99.6862 84.455 91.7086 82.5043Z" fill="#CC876F"/>
<path d="M108.842 82.3449C108.842 82.3449 104.399 77.981 99.3114 78.3089C95.7823 78.5363 92.007 82.5105 92.007 82.5105L89.5843 84.9348C89.5843 84.9348 90.5241 81.2645 91.4648 80.3441C93.4225 78.4283 93.9596 77.9278 97.7518 77.4839C103.126 77.0573 106.178 79.5004 108.842 82.3449Z" fill="#301A1C"/>
<path d="M108.649 81.6325C108.649 81.6325 106.795 83.2459 105.9 83.6265C105.9 83.6265 109.004 83.7246 109.283 82.7804C109.423 82.3083 108.649 81.6325 108.649 81.6325Z" fill="#CC876F"/>
<g style="mix-blend-mode:multiply" opacity="0.6">
<path d="M108.649 82.1706C108.649 82.1706 99.424 77.3478 91.6085 82.875L92.1121 82.0073C92.1121 82.0073 93.1884 78.9534 98.4615 78.1493C103.735 77.3451 107.929 81.419 108.649 82.1706Z" fill="#D177B8"/>
</g>
<path d="M101.8 111.648C108.587 110.209 115.425 108.757 122.362 108.632C126.256 108.569 130.188 108.92 134.008 108.156C133.87 109.258 133.181 110.196 132.455 111.022C130.367 113.343 127.733 115.107 124.791 116.153C123.213 116.704 121.585 117.054 119.945 117.342C118.374 117.638 116.784 117.822 115.187 117.893C109.89 118.03 104.405 115.915 101.137 111.723L101.8 111.648Z" fill="#F5EDE0"/>
<path d="M101.575 111.898C104.417 112.462 105.582 111.748 108.099 111.348C111.668 110.785 114.447 110.972 118.016 110.409C119.594 110.159 122.336 109.959 123.939 109.884C127.896 109.708 131.991 109.696 135.072 107.205C131.766 108.544 128.209 106.254 124.678 105.716C122.925 105.453 121.147 105.616 119.381 105.791L112.006 106.517C109.839 106.73 107.585 106.968 105.732 108.119C104.718 108.757 103.866 109.633 102.852 110.271C101.838 110.91 99.9968 110.509 98.9199 109.971C98.9199 109.971 101.011 111.786 101.575 111.898Z" fill="#C5525D"/>
<path d="M101.575 111.896C103.39 112.547 104.668 115.45 108.562 116.151C113.095 116.977 118.43 116.652 122.712 114.925C123.363 114.662 124.002 114.349 124.666 114.136C125.329 113.924 126.143 113.786 126.869 113.598C130.2 112.735 133.631 110.307 135.072 107.203C135.648 108.179 134.583 110.257 134.145 111.295C133.707 112.334 131.778 114.712 131.102 115.626C130.038 117.027 128.009 119.956 125.342 120.769C121.986 121.82 120.972 121.871 117.453 121.808C116.15 121.783 112.494 122.421 111.204 122.196C108.099 121.658 106.947 120.919 104.968 118.454C104.317 117.641 103.24 116.752 102.551 115.976C100.448 113.623 100.16 111.346 98.9199 109.969L101.575 111.896Z" fill="#E1586D"/>
<path d="M112.118 99.3164C111.704 99.3664 110.74 99.3039 110.327 99.2538C109.663 99.1787 108.949 99.1036 108.424 98.6906C108.267 98.5827 108.139 98.4389 108.05 98.2712C107.96 98.1035 107.912 97.9169 107.91 97.727C107.935 97.1638 108.486 96.7633 109.025 96.5631C109.2 96.4975 109.38 96.4431 109.563 96.4004C110.477 96.1877 111.754 96.1877 112.531 96.6883C113.307 97.1889 113.583 98.2151 113.52 99.1412L112.118 99.3164Z" fill="#3D1410"/>
<path d="M117.364 98.4606L121.997 97.7347C122.41 97.6721 122.923 97.522 123.011 97.109C123.099 96.696 122.748 96.4081 122.423 96.2079C121.993 95.943 121.514 95.7686 121.014 95.6954C120.514 95.6222 120.005 95.6518 119.517 95.7824C118.919 95.9639 118.383 96.3082 117.97 96.7768C117.556 97.2453 117.281 97.8197 117.176 98.4356L117.364 98.4606Z" fill="#3D1410"/>
<path d="M108.212 95.9741C108.412 95.874 108.625 95.7989 108.775 95.6362C111.418 92.7828 114.273 92.983 117.002 93.6088C118.605 93.9717 118.856 94.3597 120.496 94.5599C124.34 95.048 124.841 93.1207 124.816 91.4688C125.981 92.8954 126.081 96.1618 124.979 97.5885C124.884 97.7107 124.76 97.8069 124.618 97.8681C124.477 97.9293 124.321 97.9536 124.168 97.9386C124.014 97.9236 123.866 97.8698 123.739 97.7823C123.611 97.6948 123.508 97.5765 123.439 97.4383C123.199 96.9791 122.84 96.5928 122.399 96.3198C121.959 96.0468 121.453 95.8971 120.934 95.8865C119.457 95.899 117.578 96.3746 117.441 98.2393C117.403 98.6147 117.103 98.9151 116.827 99.1654C115.512 100.379 113.697 99.6284 113.421 98.84C113.146 98.0516 113.308 97.2131 112.745 96.8501C112.181 96.4872 111.305 96.4872 110.616 96.4997C109.927 96.5122 109.552 96.7375 108.938 97.1755C108.325 97.6135 107.961 98.4645 107.235 98.7148C106.509 98.9651 105.382 98.1642 105.194 97.2381C105.006 96.312 105.645 94.3096 105.995 93.4336C105.995 93.4336 105.156 97.4133 108.212 95.9741Z" fill="#BB6343"/>
<path d="M237.352 223.707C232.982 221.329 227.134 219.202 226.721 214.258C226.621 213.032 226.884 211.73 226.333 210.641C225.268 208.526 222.188 208.802 219.946 209.553C210.987 212.516 202.986 217.827 196.78 224.933C193.825 228.325 190.782 232.38 186.963 234.357C187.339 234.395 187.702 234.457 188.077 234.507L199.047 236.109C208.739 237.536 219.132 239.3 226.082 246.184C228.612 248.687 230.515 251.728 232.656 254.556C235.787 258.661 239.443 262.365 242.236 266.695C243.211 268.188 244.045 269.767 244.728 271.414C246.222 264.13 247.37 256.784 248.171 249.375C248.66 244.932 249.023 240.427 248.622 235.972C246.318 230.815 242.311 226.41 237.352 223.707Z" fill="#DAE1ED"/>
<path d="M191.12 211.748C193.462 208.534 196.862 206.247 200.724 205.29C203.241 204.677 205.896 204.64 208.313 203.701C211.406 202.499 213.735 199.959 216.264 197.819C218.794 195.679 221.962 193.789 225.23 194.327C228.774 194.915 232.017 198.257 235.411 197.068C237.164 196.455 238.353 194.728 240.106 194.064C242.11 193.326 244.364 194.24 245.879 195.804C246.004 192.8 246.881 189.872 246.981 186.868C247.081 183.627 245.929 179.973 242.974 178.634C243.863 178.371 244.076 177.532 243.926 176.594C237.339 176.669 230.84 179.334 224.842 182.301C214.74 187.297 205.134 193.239 196.154 200.047L195.815 198.545L195.966 198.182C194.563 199.884 193.223 201.636 192.059 203.513C188.878 208.619 187.087 214.401 185.146 220.12C187.801 218.08 189.104 214.539 191.12 211.748Z" fill="#DAE1ED"/>
<path d="M199.497 262.057C196.467 258.603 192.247 256.463 188.14 254.398C182.154 251.407 175.655 248.316 169.056 249.417H168.442C174.516 246.326 176.331 237.027 182.292 234.724L183.532 224.688C182.304 227.929 180.889 231.083 179.011 233.986C173.639 242.296 164.961 247.79 156.559 253.009C148.156 258.227 139.754 263.421 130.225 265.636L130.613 266.024C153.303 268.477 176.031 270.93 198.859 271.43L203.004 271.518C203.229 268.177 201.764 264.647 199.497 262.057Z" fill="#DAE1ED"/>
<path d="M232.655 254.558C230.514 251.73 228.611 248.689 226.081 246.186C219.131 239.303 208.738 237.538 199.046 236.111L188.076 234.51C187.701 234.459 187.337 234.397 186.962 234.359C185.497 235.11 183.919 235.573 182.191 235.561L182.291 234.735C176.33 237.038 174.515 246.336 168.441 249.427H169.055C175.654 248.326 182.153 251.417 188.139 254.408C192.246 256.473 196.466 258.613 199.496 262.067C201.763 264.658 203.228 268.187 203.003 271.541C208.625 271.641 214.248 271.779 219.795 272.58C227.772 273.731 235.485 276.222 243.036 279.012C243.637 276.484 244.201 273.956 244.727 271.428C244.044 269.782 243.21 268.202 242.235 266.71C239.442 262.368 235.786 258.663 232.655 254.558Z" fill="#182327"/>
<path d="M246.432 222.428C246.131 216.984 247.721 211.54 247.221 206.121C246.92 202.892 245.881 199.739 245.868 196.51C245.868 196.272 245.868 196.034 245.881 195.796C244.366 194.232 242.112 193.319 240.108 194.057C238.355 194.72 237.165 196.447 235.412 197.06C232.019 198.249 228.775 194.908 225.232 194.32C221.963 193.782 218.795 195.671 216.266 197.811C213.736 199.951 211.407 202.492 208.314 203.693C205.897 204.632 203.243 204.669 200.726 205.283C196.864 206.24 193.463 208.526 191.121 211.74C189.105 214.531 187.803 218.073 185.148 220.113C184.622 221.652 184.096 223.179 183.533 224.693L182.293 234.73C182.831 234.528 183.389 234.386 183.958 234.305C184.96 234.154 185.962 234.23 186.964 234.355C190.783 232.377 193.826 228.323 196.781 224.931C202.987 217.825 210.987 212.513 219.947 209.55C222.189 208.799 225.269 208.524 226.334 210.639C226.885 211.728 226.622 213.029 226.722 214.256C227.135 219.199 232.983 221.327 237.353 223.705C242.312 226.408 246.319 230.813 248.623 235.969C248.56 235.356 248.498 234.743 248.41 234.129C247.859 230.212 246.645 226.383 246.432 222.428Z" fill="#182327"/>
<path d="M196.154 200.043C205.135 193.236 214.741 187.294 224.843 182.297C230.841 179.331 237.34 176.665 243.927 176.59C243.775 175.764 243.442 174.981 242.95 174.3C239.262 169.228 235.153 164.477 230.666 160.096C227.573 157.079 223.165 154.038 219.27 155.928C216.703 157.167 215.514 160.096 214.537 162.774L209.954 175.389C208.589 179.118 207.212 182.885 205.196 186.314C202.641 190.632 199.135 194.286 195.967 198.178L195.816 198.541L196.154 200.043Z" fill="#182327"/>
<path d="M183.995 220.856L183.531 224.698C184.095 223.183 184.621 221.657 185.147 220.117C184.785 220.396 184.399 220.643 183.995 220.856Z" fill="#182327"/>
<path d="M186.962 234.36C185.961 234.235 184.959 234.16 183.957 234.31C183.388 234.391 182.83 234.534 182.292 234.735L182.191 235.561C183.919 235.574 185.497 235.111 186.962 234.36Z" fill="#182327"/>
<path d="M63.2809 255.56C64.0072 255.698 64.7335 255.848 65.4598 256.048C62.3793 247.05 58.5601 238.34 53.0002 230.668C49.4689 225.787 45.2865 221.407 41.8805 216.451C38.4744 211.495 35.8072 205.751 35.8823 199.731C35.97 194.112 38.4118 188.831 40.8161 183.75L39.7893 184.388C37.2264 187.475 34.6635 190.562 32.1006 193.649C28.895 197.504 25.6141 201.509 24.124 206.289C23.2099 209.268 23.022 212.409 23.0596 215.513C23.0784 215.876 23.0658 216.24 23.022 216.601C23.4228 216.777 23.8235 216.977 24.1991 217.177C36.3081 223.585 48.4797 230.455 57.7461 240.555L34.7679 240.104C33.9539 240.079 33.14 240.067 32.3761 239.804C30.7983 239.253 29.7715 237.777 28.6195 236.575C27.4674 235.374 25.7644 234.31 24.2117 234.923C24.0864 237.989 23.9487 241.093 22.972 243.996C22.3083 245.924 21.2188 247.763 19.7287 249.128C19.065 255.122 18.0006 261.142 17.6625 267.161C17.625 267.7 17.625 268.3 17.9881 268.701C18.3513 269.101 18.8647 269.139 19.353 269.176L23.6106 269.564C33.3153 258.626 48.8428 253.02 63.2809 255.56Z" fill="#DAE1ED"/>
<path d="M22.9719 243.997C23.9487 241.093 24.0864 237.989 24.2116 234.923C25.7644 234.31 27.4674 235.361 28.6194 236.575C29.7715 237.789 30.7983 239.253 32.3761 239.804C33.14 240.067 33.9539 240.079 34.7678 240.104L57.7461 240.555C48.4796 230.456 36.3081 223.585 24.1991 217.177C23.8234 216.977 23.4227 216.777 23.022 216.602C23.002 216.75 22.9684 216.897 22.9218 217.04C22.6839 217.853 22.0328 218.454 21.4943 219.117C17.938 223.472 19.4281 229.817 20.0167 235.411C20.5051 239.992 20.2296 244.547 19.7287 249.128C21.2188 247.764 22.3082 245.924 22.9719 243.997Z" fill="#182327"/>
<path d="M90.7048 145.531C94.2236 151.463 94.8497 148.597 98.381 154.529C102.075 160.774 107.034 167.783 114.297 167.895C116.3 167.92 118.266 167.395 120.182 166.819C133.113 162.895 145.232 156.676 155.958 148.46C157.285 147.434 159.026 146.332 160.504 147.121C161.668 147.734 162.006 149.236 162.094 150.55C162.445 156.419 160.115 162.138 157.035 167.132C153.954 172.125 150.11 176.631 146.967 181.587C136.799 197.656 134.658 217.379 133.005 236.326C131.878 249.342 130.939 262.921 135.797 275.06C130.5 276.491 125.071 277.384 119.594 277.726C118.429 277.801 117.189 277.826 116.162 277.288C115.136 276.749 114.322 275.46 113.708 274.309C111.604 270.396 109.505 266.483 107.409 262.57C105.957 259.854 104.492 257.126 103.34 254.26C101.975 250.831 101.061 247.239 100.159 243.648L97.0035 231.12C93.3971 216.853 89.8032 202.586 86.585 188.232C85.433 183.113 84.331 177.97 83.9178 172.751C83.0663 161.988 90.7048 145.531 90.7048 145.531Z" fill="#1C2431"/>
<path d="M126.981 270.628C124.79 251.968 124.615 235.061 127.745 216.526C130.237 201.734 135.071 193.186 139.115 179.995C143.385 166.079 162.043 152.7 173.288 143.452C174.415 142.513 175.592 141.562 176.995 141.137C178.397 140.711 179.775 140.811 181.177 140.987C192.097 142.338 201.989 147.882 212.445 151.349C215.893 152.488 219.411 153.403 222.976 154.09C217.78 161.261 212.758 168.807 210.454 177.355C209.791 179.808 209.365 182.311 208.526 184.713C205.621 192.961 198.283 198.73 193.211 205.863C188.14 212.997 185.297 221.72 183.594 230.405C182.943 233.684 182.43 237.038 181.052 240.092C177.734 247.4 170.12 251.643 162.97 255.322C151.362 261.304 139.579 267.199 126.981 270.628Z" fill="black"/>
<path d="M116.502 271.275C113.847 254.768 109.452 243.429 105.332 227.222C102.289 215.283 99.0331 209.101 96.6789 196.999C94.7881 187.262 93.085 167.389 81.3142 158.328C75.5414 160.931 69.6936 163.584 64.8099 167.627C63.0443 169.091 61.4164 170.73 59.538 172.057C53.6651 176.187 45.8137 176.925 40.2163 181.406C33.5044 186.774 31.601 196.511 33.5294 204.871C35.4579 213.231 40.5544 220.477 45.9264 227.172C51.2984 233.868 57.0837 240.363 60.8278 248.085C62.3806 251.288 63.5452 254.655 64.6972 258.021C67.139 265.242 66.563 263.115 68.7544 270.424L116.502 271.275Z" fill="black"/>
<path d="M86.9853 77.2466C88.4003 74.8062 90.7795 72.7663 93.6847 72.4159C96.5898 72.0655 99.5576 72.5911 102.475 72.3408C102.888 72.3033 103.327 72.2532 103.677 72.028C104.654 71.4022 104.454 69.7878 103.577 69.0119C102.701 68.236 101.461 68.0983 100.296 68.0107C99.1318 67.9231 97.8796 67.8355 96.6775 67.7729C94.9995 67.6978 93.2464 67.6227 91.7312 68.3361C86.0211 70.9892 86.9853 77.2466 86.9853 77.2466Z" fill="#301A1C"/>
<path d="M123.726 65.9829C122.749 66.1706 121.66 66.4335 121.184 67.3095C120.433 68.6986 122.073 70.3631 123.663 70.3756C125.254 70.3881 126.631 69.4245 128.046 68.7112C133.23 66.1331 139.967 67.0842 144.25 70.9889C144.012 69.1992 143.411 67.3095 141.946 66.2332C141.144 65.6325 140.143 65.3447 139.166 65.1194C134.593 64.067 129.834 64.1313 125.291 65.3071L123.726 65.9829Z" fill="#301A1C"/>
<path d="M79.7853 92.9303C79.5599 82.8851 79.6225 72.8357 79.9732 62.7821C80.9359 65.7098 82.324 68.4801 84.093 71.0043C83.4031 67.8628 83.3054 64.6203 83.805 61.443C85.097 63.7531 86.5184 65.9884 88.0625 68.1384C87.9754 64.9226 88.2484 61.7072 88.8764 58.5521C89.1144 60.6671 90.6796 62.4567 92.5329 63.4954C94.3862 64.5342 96.54 64.9346 98.6563 65.2225C104.443 66.0332 110.301 66.2011 116.125 65.7231C124.014 65.0848 131.778 63.2576 139.679 62.8196C143.511 62.6069 148.019 63.0699 150.047 66.3113C150.911 67.6879 151.174 69.3399 151.387 70.9418C152.08 76.0562 152.552 81.1956 152.802 86.36C156.747 76.7862 162.607 67.4751 162.494 57.1254C162.432 52.3947 161.117 47.7768 159.802 43.2339C158.663 39.3042 157.448 35.2244 154.668 32.2208C151.625 28.9169 147.155 27.4026 143.035 25.6005C137.074 22.9974 131.502 19.5558 125.567 16.8776C119.631 14.1994 113.119 12.3222 106.658 13.0856C100.81 13.7739 95.3629 16.6148 90.8049 20.3442C86.2468 24.0736 82.4901 28.6666 78.9088 33.3471C73.8623 39.98 69.0162 47.0134 66.8374 55.0604C66.2363 57.3006 65.8356 59.6659 66.1612 61.9686C66.4867 64.2713 67.3758 66.1611 68.2774 68.1635L78.4204 90.5525" fill="#301A1C"/>
<path d="M157.586 137.367C159.264 140.733 163.296 142.248 167.04 142.523C170.559 142.773 174.102 142.21 177.621 142.498C171.936 136.403 163.859 132.686 156.133 129.257C155.545 129.007 154.743 128.807 154.38 129.32C154.017 129.833 154.267 130.133 154.38 130.534C157.21 140.158 154.743 151.171 148.081 158.667C144.65 162.547 140.017 165.826 138.74 170.832C137.976 173.823 138.539 176.964 139.115 179.992C141.996 177.114 142.784 172.746 145.201 169.467C148.282 165.3 153.378 163.573 158.663 162.972C158.663 162.835 158.65 162.697 158.65 162.559C158.291 154.166 157.936 145.769 157.586 137.367Z" fill="#DAE1ED"/>
<path d="M164.623 162.718C171.749 162.83 179.35 163.569 185.561 160.064C185.561 160.064 188.14 159.276 188.441 158.738C184.884 155.109 183.194 150.078 180.326 145.873C179.508 144.686 178.604 143.561 177.621 142.506C174.103 142.218 170.559 142.781 167.04 142.531C163.296 142.256 159.264 140.741 157.586 137.375C157.937 145.768 158.291 154.166 158.65 162.567C158.65 162.705 158.663 162.843 158.663 162.98C160.642 162.769 162.633 162.681 164.623 162.718Z" fill="#182327"/>
<path d="M95.7014 172.009C94.7121 170.983 93.4223 170.319 92.3704 169.368C90.968 168.092 90.1791 166.302 89.9787 164.438L86.9608 170.257C86.8356 170.495 86.6979 170.757 86.46 170.895L86.3222 170.945C85.8339 173.461 86.6102 176.239 88.5011 177.966C89.6531 179.03 91.1307 179.706 92.2077 180.832C93.823 182.521 94.3489 184.962 94.7872 187.265L96.6781 197.001L97.8176 182.284C98.0931 178.692 98.2058 174.612 95.7014 172.009Z" fill="#DAE1ED"/>
<path d="M85.4198 152.262C85.6953 151.698 86.1586 150.998 86.7722 151.16C86.9746 151.229 87.1529 151.355 87.2856 151.523C88.2373 152.574 88.4001 154.101 88.7382 155.49C89.1302 157.022 89.8009 158.469 90.7167 159.758C91.2563 158.541 92.1179 157.494 93.2086 156.729C93.9724 156.191 94.849 155.791 95.4501 155.077C98.2926 151.748 92.307 146.455 92.7828 142.562C87.7865 143.388 86.2337 148.006 83.0656 151.974C75.7889 161.105 66.5825 168.515 56.1053 173.674C54.0517 174.676 51.6349 176.052 51.5723 178.33C51.5723 178.33 70.7563 176.415 78.0066 171.559C78.8832 170.971 79.7973 170.333 80.7365 169.77L70.7688 167.342C75.1516 161.835 82.2892 158.594 85.4198 152.262Z" fill="#DAE1ED"/>
<path d="M92.3076 159.938L91.7441 161.026C91.8944 161.201 92.0572 161.364 92.22 161.527L92.3076 159.938Z" fill="#182327"/>
<path d="M86.9607 170.262L89.9786 164.443C89.7995 162.845 90.0548 161.228 90.7174 159.762C89.8016 158.473 89.1309 157.026 88.7389 155.495C88.4008 154.106 88.238 152.579 87.2863 151.527C87.1536 151.36 86.9754 151.234 86.7729 151.165C86.1593 151.002 85.696 151.703 85.4205 152.266C82.29 158.598 75.1523 161.84 70.7695 167.346L80.7372 169.774C82.891 168.46 85.1826 167.484 87.4992 168.21C86.9079 169.025 86.5057 169.961 86.3221 170.951L86.4598 170.9C86.6978 170.763 86.8355 170.5 86.9607 170.262Z" fill="#182327"/>
</g>
<defs>
<linearGradient id="paint0_linear_1708_12791" x1="129.321" y1="82.8657" x2="131.371" y2="74.9751" gradientUnits="userSpaceOnUse">
<stop stop-color="#EEE2FF"/>
<stop offset="1" stop-color="#BDC9FB"/>
</linearGradient>
<linearGradient id="paint1_linear_1708_12791" x1="129.188" y1="83.1713" x2="131.586" y2="75.6611" gradientUnits="userSpaceOnUse">
<stop stop-color="#471F4B"/>
<stop offset="1" stop-color="#310A39"/>
</linearGradient>
<linearGradient id="paint2_linear_1708_12791" x1="129.933" y1="83.3031" x2="132.154" y2="76.2508" gradientUnits="userSpaceOnUse">
<stop stop-color="#8B4C6B"/>
<stop offset="1" stop-color="#310A39"/>
</linearGradient>
<linearGradient id="paint3_linear_1708_12791" x1="130.352" y1="81.5416" x2="131.825" y2="76.7977" gradientUnits="userSpaceOnUse">
<stop stop-color="#A79ABD"/>
<stop offset="0.99" stop-color="#724A60"/>
</linearGradient>
<linearGradient id="paint4_linear_1708_12791" x1="101.508" y1="85.1312" x2="99.3996" y2="77.0118" gradientUnits="userSpaceOnUse">
<stop stop-color="#EEE2FF"/>
<stop offset="1" stop-color="#BDC9FB"/>
</linearGradient>
<linearGradient id="paint5_linear_1708_12791" x1="101.646" y1="85.4368" x2="99.1786" y2="77.7088" gradientUnits="userSpaceOnUse">
<stop stop-color="#471F4B"/>
<stop offset="1" stop-color="#310A39"/>
</linearGradient>
<linearGradient id="paint6_linear_1708_12791" x1="100.88" y1="85.5779" x2="98.5947" y2="78.3212" gradientUnits="userSpaceOnUse">
<stop stop-color="#8B4C6B"/>
<stop offset="1" stop-color="#310A39"/>
</linearGradient>
<linearGradient id="paint7_linear_1708_12791" x1="100.449" y1="83.7593" x2="98.9334" y2="78.8779" gradientUnits="userSpaceOnUse">
<stop stop-color="#A79ABD"/>
<stop offset="0.99" stop-color="#724A60"/>
</linearGradient>
</defs>
</svg>
