<svg width="250" height="250" viewBox="0 0 250 250" fill="none" xmlns="http://www.w3.org/2000/svg">
<mask id="mask0_2166_6362" style="mask-type:alpha" maskUnits="userSpaceOnUse" x="0" y="0" width="250" height="250">
<rect width="250" height="250" fill="#C4C4C4"/>
</mask>
<g mask="url(#mask0_2166_6362)">
<path d="M269 84.0391C268.559 83.6743 222.578 99.7447 206 81.5391C184.989 58.4641 260 22.5391 236.167 7.53906C212.334 -7.46094 181.5 20.8339 181.5 45.5391C160 37.8913 207.5 5.03906 151.5 -5.46094L117 -8H85.002L6.61217 -1C-15 73.0731 46.2329 0.408335 59 18.0391C64.431 25.5391 -1.1166 72.994 -22.5 74.876V112.746C-20.8559 114.513 -14.5219 128.399 -11.0636 133.02C-7.04674 138.387 -10.1095 172.633 -5.5 177.5C-5.5 225.5 -5.5 235.5 -1 248.5C3.5 261.5 3 258 8.83606 265.073C8.48676 266.539 8.27428 268.034 8.20137 269.539H84.5865C66.2911 249.429 54.943 222.887 54.3353 193.704C28.569 178.631 11.2644 150.669 11.2644 118.668C11.2644 70.6875 50.1575 31.7922 98.1393 31.7922C130.145 31.7922 170.428 49.1111 185.5 74.876C205.323 118.677 231 94.5 242 151.136C253.508 210.391 269 84.0391 269 84.0391Z" fill="#66C3CD"/>
<path d="M78.4983 57C49.2276 57 25.5 84.31 25.5 118.002C25.5 140.474 36.0601 160.107 51.7781 170.69C59.6235 175.972 68.7543 179 78.5 179C107.771 179 131.5 151.692 131.5 118.002C131.5 106.785 128.869 96.2762 124.28 87.2469C115.083 69.1528 98.024 57 78.4983 57Z" fill="#150DCE"/>
<ellipse cx="35.889" cy="46.8815" rx="35.889" ry="46.8815" transform="matrix(-0.910076 0.414442 0.414442 0.910076 195.824 95)" fill="#150DCE"/>
<path d="M-40.5 286.376L-28.1826 251.106C-24.0213 239.155 -19.5687 226.748 -10.497 217.91C-3.17315 210.731 6.52267 206.582 16.1353 203.096C44.6216 192.801 74.5683 187.086 104.854 186.167C140.308 185.088 175.596 190.648 210.634 196.167C220.58 197.744 230.817 199.403 239.431 204.632C248.044 209.86 253.621 217.371 259.113 225.213C271.015 242.184 281.668 261.189 282.5 281.895C252.747 285.961 222.785 290.069 192.741 288.866C182.088 288.451 171.435 287.372 160.782 286.833C123.039 284.882 85.1712 289.654 47.4698 287.248C18.8817 285.38 -9.87284 279.447 -38.1281 284.177" fill="#2D344B"/>
<path d="M82.1329 287.238L78.8455 248.98C78.471 244.333 78.0548 239.602 76.3903 235.245C74.0184 228.855 69.3161 223.71 64.6555 218.772C59.9948 213.834 55.0013 208.523 48.468 206.406C44.8477 205.245 40.7696 205.079 37.6486 202.838C33.5706 199.933 32.7384 198.978 32.7383 197.526C33.1018 196.971 38.742 195.709 39.3548 195.452C40.187 195.245 38.6057 188.439 39.3548 188.854C47.0532 193.253 53.8777 200.099 62.7413 201.095C69.3993 201.842 76.8897 199.186 82.5074 202.838C88.1252 206.489 88.7078 212.921 89.2071 218.938C90.7468 237.333 91.1221 255.808 90.3307 274.25C90.2058 277.279 89.9978 280.433 88.6246 283.13C87.2513 285.827 84.3384 288.026 81.3007 287.57" fill="#232838"/>
<path d="M74.143 201.512L65.4043 216.326C69.6488 215.33 74.8088 214.583 77.7634 217.778C79.4695 219.563 79.9272 222.177 80.3434 224.625C83.6441 246.058 85.7833 267.653 86.7518 289.315C91.081 265.731 93.1985 241.796 93.0769 217.82C93.0353 211.679 92.4111 204.625 87.5008 200.973C83.8805 198.276 78.9701 198.276 74.4759 198.359L74.143 201.512Z" fill="#33406F"/>
<path d="M149.047 288.995L153.167 270.115C154.665 263.186 156.288 256.007 160.532 250.281C172.267 234.388 198.733 236.048 210.801 220.405C216.169 213.392 217.251 204.803 214.005 196.587C204.226 192.977 194.072 197.79 185.625 203.848C170.228 214.927 155.081 227.625 146.966 244.762C139.836 259.996 138.867 277.383 144.261 293.311C145.567 292.54 146.677 291.481 147.507 290.215C148.336 288.949 148.863 287.509 149.047 286.008" fill="#232838"/>
<path d="M195.28 199.314C197.114 205.962 201.316 211.716 207.098 215.497C202.958 221.257 196.943 225.407 190.078 227.24C186.458 228.194 182.671 228.485 179.051 229.398C163.654 233.381 153.667 248.568 149.547 263.88C147.341 272.17 146.429 280.749 146.842 289.316C144.512 289.44 143.43 286.494 143.139 284.212C140.6 265.622 142.848 244.834 155.956 231.348C167.649 219.356 186.749 214.293 193.615 199.023L195.28 199.314Z" fill="#33406F"/>
<path d="M165.445 153.089C167.11 147.612 171.479 143.172 172.644 137.57C185.086 144.873 197.986 153.878 202.314 167.612C203.521 171.513 204.062 175.745 206.642 178.899C208.306 180.932 210.803 182.426 211.594 184.957C212.384 187.488 211.136 190.186 209.721 192.426C196.447 213.506 167.442 220.477 154.085 241.473C144.68 256.245 144.93 275.042 147.01 292.429L115.093 292.968C104.108 293.175 91.5404 292.677 84.4662 284.337C88.6373 259.334 90.3654 233.987 89.6262 208.651C89.543 206.908 89.1268 204.667 87.3791 204.294C86.5052 204.128 85.5897 204.543 84.7575 204.916C81.9278 206.161 78.8068 206.742 75.6858 207.032C68.1513 207.678 60.5645 206.754 53.4076 204.318C46.2508 201.882 39.6805 197.988 34.1145 192.883C33.0741 191.928 31.9922 190.725 31.9506 189.314C31.909 187.903 32.8245 186.825 33.4487 185.621C35.3628 182.011 34.9467 177.654 35.1548 173.546C35.779 161.098 43.3525 149.189 54.38 143.338C65.4074 137.487 79.5142 137.819 90.2504 144.209C94.162 155.911 162.782 161.969 165.445 153.089Z" fill="#1D2128"/>
<path d="M89.415 152.346C87.1679 150.603 84.9208 148.86 82.2992 147.864C79.6775 146.868 76.5982 146.661 74.143 147.989C72.6866 148.818 71.563 150.146 70.4395 151.433C64.4472 158.404 58.2052 166.412 58.5381 175.583C58.5798 177.533 58.9543 179.483 59.9946 181.101C62.533 185.085 67.8595 185.832 72.4369 186.828C81.9858 188.846 90.8551 193.275 98.1953 199.691C102.731 203.716 106.643 208.446 111.345 212.264C116.047 216.081 120.333 217.409 126.409 217.036C124.869 215.044 124.453 215.044 122.248 213.799C120.042 212.554 117.046 211.558 114.549 210.189C110.221 207.782 106.934 203.882 103.896 200.023C98.8953 193.734 95.4586 186.355 93.8676 178.487C92.2863 170.728 92.4527 162.844 91.8701 155.001C91.7869 153.839 91.454 152.429 90.3305 152.138L89.415 152.346Z" fill="#111312"/>
<path d="M165.858 147.328C164.817 155.793 163.735 164.299 164.609 172.764C164.942 176.25 165.65 179.777 164.942 183.221C164.235 186.665 162.321 189.404 160.24 192.059C153.207 200.815 143.844 207.329 134.606 213.72C132.151 215.421 129.405 217.205 126.409 217.039C123.412 216.873 121.415 215.213 119.293 213.595L106.226 203.802C103.064 201.354 99.7762 198.865 97.6956 195.462C96.0727 192.806 95.2404 189.777 94.6162 186.748C92.7062 177.862 91.9095 168.775 92.2443 159.694C92.3275 158.2 92.702 156.291 94.1585 155.918C95.4485 159.901 98.6527 163.055 102.439 164.797C105.019 165.959 107.808 166.499 110.596 166.955C122.553 168.952 134.706 169.523 146.799 168.656C148.796 168.49 150.794 168.324 152.583 167.495C156.203 165.876 158.326 162.1 159.824 158.449C161.322 154.797 162.487 150.814 165.233 147.951" fill="#FFB28E"/>
<path d="M92.3277 149.69C92.2861 157.16 93.9922 165.085 99.2355 170.396C101.607 172.803 104.562 174.546 107.516 176.206C113.384 179.484 119.543 182.471 126.159 183.633C132.776 184.795 139.975 183.882 145.426 179.94C147.045 178.693 148.561 177.319 149.962 175.832L158.659 167.16C160.823 164.961 163.028 162.761 164.318 159.981C165.608 157.201 165.858 154.462 166.191 151.599C166.524 148.736 166.274 145.375 163.652 144.711C162.654 144.421 161.572 144.711 160.573 145.126C154.706 147.408 150.253 152.346 144.677 155.375C140.141 157.782 135.023 158.819 129.946 159.691C124.869 160.562 119.21 161.226 114.05 159.815C108.89 158.404 105.02 155.292 101.399 151.807C99.9013 150.396 98.4032 148.861 96.489 148.114C94.5748 147.367 91.9948 147.823 90.9961 149.608" fill="#D16E4A"/>
<path d="M176.679 91.4731C177.371 88.9051 177.652 86.2444 177.512 83.5891C176.763 75.0412 169.397 68.4436 167.524 60.1031C166.692 56.4516 166.984 52.5926 166.359 48.8996C165.735 45.2065 163.987 41.3475 160.534 39.8122C155.415 37.613 149.881 41.5135 144.388 42.4679C132.403 44.5011 120.793 32.2187 109.183 35.8702C104.314 37.4055 100.736 41.4305 97.4066 45.331C94.0776 49.2315 91.2063 52.5926 88.9592 56.7835C84.3401 65.2485 83.5079 75.2487 82.8005 84.8755C82.3011 91.4316 81.8017 98.0293 81.9682 104.627C82.114 109.726 82.5726 114.812 83.3414 119.855C84.7563 129.482 87.3779 139.565 94.4521 146.246C98.5302 150.105 103.773 152.429 108.892 154.753C114.01 157.076 118.172 158.86 123.123 159.856C130.406 161.309 137.979 160.396 145.053 158.197C149.548 156.786 154 154.794 157.371 151.516C159.493 149.441 161.074 146.91 162.656 144.42L170.104 132.677C171.686 130.271 173.225 127.822 174.266 125.125C176.929 118.154 175.889 110.353 174.807 102.967L176.679 91.4731Z" fill="#FFB28E"/>
<path d="M129.24 114.96C130.14 115.468 131.155 115.738 132.189 115.745C133.223 115.753 134.242 115.497 135.149 115.001L135.524 114.753C135.653 114.543 135.703 114.294 135.664 114.05C135.626 113.807 135.503 113.585 135.316 113.425C134.932 113.141 134.492 112.943 134.026 112.844L132.694 112.512C132.356 112.413 132.006 112.357 131.654 112.346C131.361 112.333 131.069 112.381 130.796 112.489C130.524 112.596 130.277 112.759 130.072 112.968C129.656 113.383 129.115 113.881 129.115 114.462L129.24 114.96Z" fill="#3C0600"/>
<path d="M117.129 114.879L117.629 115.128C118.142 115.358 118.67 115.552 119.21 115.709L119.917 115.792L120.833 115.917C121.331 115.986 121.837 115.972 122.331 115.875L122.914 115.585C123.073 115.522 123.216 115.422 123.33 115.294C123.397 115.123 123.426 114.938 123.413 114.755C123.44 114.418 123.352 114.081 123.163 113.8L122.83 113.468C122.612 113.279 122.375 113.112 122.123 112.97C121.676 112.783 121.181 112.74 120.708 112.846C120.24 112.946 119.78 113.085 119.335 113.261C118.5 113.57 117.704 113.973 116.963 114.464L117.129 114.879Z" fill="#3C0600"/>
<path d="M79.3451 112.555C77.8054 113.177 75.8496 108.073 76.5986 104.214C77.3477 100.355 78.388 94.5047 77.639 89.8573C77.3477 88.1145 77.7638 85.6663 78.5128 85.5418C79.2619 85.4174 80.2606 86.4132 80.6351 87.3261C83.2567 93.7578 83.0486 100.936 82.4245 107.824C82.4245 107.824 80.8848 111.849 79.3451 112.555Z" fill="#FFB28E"/>
<path d="M118.253 115.045C119.169 113.717 120.875 112.722 122.165 113.717C123.455 114.713 123.205 114.962 123.746 115.585C125.078 116.996 127.699 117.12 128.865 115.543C129.203 114.995 129.509 114.427 129.78 113.842C130.155 113.303 130.82 112.514 131.445 112.556C131.951 112.576 132.448 112.703 132.901 112.929C133.775 113.552 134.149 114.589 135.148 115.004C136.147 115.419 137.354 115.46 138.227 114.838C138.624 114.54 138.942 114.15 139.152 113.701C139.362 113.253 139.459 112.76 139.434 112.265C139.391 111.269 139.18 110.287 138.81 109.361C138.602 108.738 138.269 107.991 137.603 107.867C136.937 107.742 136.896 108.406 136.605 109.029C136.313 109.651 136.272 110.564 135.731 110.937C135.19 111.311 133.317 110.688 132.485 110.066C131.653 109.444 131.611 108.323 130.571 108.365C129.53 108.406 128.573 109.444 128.24 109.651C127.158 110.232 125.702 110.481 124.745 109.651C123.788 108.821 123.913 108.531 123.247 108.489C122.581 108.448 122.123 109.029 121.749 109.527C121.28 110.12 120.765 110.675 120.209 111.186C119.585 111.767 118.836 112.348 117.962 112.39C117.088 112.431 116.173 111.767 116.214 110.896C116.33 110.468 116.483 110.052 116.672 109.651C116.755 109.236 116.63 108.655 116.173 108.614C115.715 108.572 115.548 108.904 115.34 109.195C114.716 110.232 114.009 111.228 114.3 113.759C114.591 116.29 117.795 115.751 118.253 115.045Z" fill="#EE845C"/>
<path d="M108.308 128.722C109.93 129.967 112.011 130.423 114.05 130.465C116.089 130.506 118.087 130.216 120.126 130.05C124.786 129.676 129.489 130.133 134.191 130.133C138.893 130.133 144.053 129.469 147.549 128.266C147.388 128.822 147.09 129.329 146.683 129.742C146.277 130.155 145.773 130.461 145.218 130.631C144.344 131.004 142.305 132.291 141.39 132.581C140.474 132.872 138.269 133.121 137.27 133.743C135.356 134.946 133.691 134.697 129.364 134.697C127.907 134.697 122.581 134.946 121.291 134.365C120.708 134.075 120.084 133.992 119.501 133.701C118.323 133.114 117.031 132.789 115.715 132.747C113.99 132.623 112.301 132.202 110.721 131.502C109.514 130.963 108.183 130.133 107.975 128.805L108.308 128.722Z" fill="#EB6757"/>
<path d="M108.266 128.729C109.847 127.817 111.803 128.148 113.592 127.983C116.006 127.775 118.294 126.655 120.708 126.696C122.372 126.738 123.995 127.36 125.701 127.402C127.408 127.443 128.947 126.862 130.529 126.613C136.063 125.659 141.931 128.19 147.548 128.273C143.762 130.597 140.308 131.136 135.897 130.763C131.486 130.389 125.66 130.638 121.249 130.846C119.043 130.97 116.796 131.51 114.591 131.095C108.931 129.974 108.266 128.729 108.266 128.729Z" fill="#AC2D27"/>
<path d="M90.04 89.4837C92.0374 89.4007 93.4107 87.5335 94.9919 86.3301C97.78 84.2139 99.5694 82.9275 103.065 83.052C106.56 83.1765 112.095 84.6288 115.507 83.7574C116.756 83.4255 118.17 82.6786 118.17 81.3922C118.17 80.1059 117.421 79.6495 116.631 79.11C111.845 75.7905 105.437 76.2054 99.8191 77.7822C97.8216 78.3216 96.6565 79.6495 95.2416 81.1433C92.9945 83.5085 93.0777 84.0479 89.9984 88.2389C89.3326 89.1102 90.04 89.4837 90.04 89.4837Z" fill="#341D10"/>
<path d="M175.22 113.892C175.085 107.034 176.228 100.21 178.59 93.7672C179.048 92.5223 179.547 91.236 180.546 90.3231C181.545 89.4102 183.001 88.9123 184.208 89.5347C185.415 90.1571 186.039 92.0659 186.247 93.6427C186.955 99.1615 187.662 104.971 185.706 110.158C184.583 113.104 182.71 115.676 181.878 118.664C181.586 119.577 181.42 120.573 180.837 121.32C180.255 122.067 178.965 122.398 178.299 121.735C178.035 121.429 177.862 121.055 177.8 120.656C177.217 118.705 175.22 113.892 175.22 113.892Z" fill="#FFB28E"/>
<path d="M143.055 83.7099C145.469 83.5854 147.924 83.1705 150.255 83.7099C153.708 84.4983 155.248 84.2079 159.867 88.2329C160.575 88.8138 160.949 87.3615 160.575 86.5316C160.2 85.7017 157.995 83.461 157.37 82.7971C154.79 80.0999 154.083 79.7264 151.586 78.5646C149.089 77.4027 144.554 77.1538 142.39 76.9878C140.754 76.8772 139.113 76.891 137.479 77.0293C135.94 77.1538 134.525 77.3613 134.275 78.8551C134.025 80.3489 135.232 81.6767 136.605 82.1746C136.605 82.1746 140.684 83.8344 143.055 83.7099Z" fill="#341D10"/>
<path d="M113.552 40.0192L127.451 49.4385C130.031 51.1813 132.777 53.007 135.898 53.422C140.184 53.9614 144.304 51.8037 148.424 50.3099C152.544 48.8161 157.62 48.2352 160.7 51.3473C160.719 49.9533 160.317 48.5859 159.545 47.4236C158.772 46.2614 157.667 45.3584 156.372 44.8326C159.659 44.9156 162.323 47.8617 163.238 51.0153C164.154 54.1689 163.737 57.53 163.571 60.7666C163.28 65.3725 163.113 70.2688 165.277 74.3353C170.978 84.958 173.475 80.3935 174.64 86.4103C175.514 90.8087 173.35 104.253 173.1 111.971C176.221 110.809 177.927 105.747 178.843 102.552C179.659 99.5741 180.23 96.5348 180.549 93.4644C180.799 91.3896 182.006 88.734 184.086 89.1489C185.218 70.6808 180.627 52.3123 170.936 36.5337C170.271 35.5378 168.773 34.4589 168.065 35.4133C160.866 25.6206 148.965 19.4378 136.772 19.1059C134.9 19.0644 132.985 19.1474 131.113 18.8569C128.283 18.442 125.453 17.1971 122.665 17.8196C121.62 18.1123 120.614 18.5303 119.669 19.0644L115.508 21.1806C113.178 22.384 110.806 23.5873 108.767 25.2886C107.685 26.2015 106.686 27.2388 105.396 27.8613C104.106 28.4837 102.858 28.6912 101.609 29.1476C98.1554 30.3924 95.6586 33.3386 93.3283 36.2017C89.8744 40.4756 90.4986 42.3429 87.0031 46.5754C84.7144 49.397 82.6753 50.1439 80.1786 53.8784C78.6805 56.1192 77.9731 63.7127 77.9315 66.4098C77.8899 69.107 76.8911 71.5552 76.8911 74.1693C76.8495 88.3605 79.3047 83.3397 80.5531 89.9373C81.8015 96.535 81.7599 104.917 81.7183 106.66C84.3399 105.871 84.5896 102.303 84.4231 99.5226C83.9572 92.8921 84.1803 86.2314 85.0889 79.6466C86.2541 71.0572 88.626 62.5093 93.2034 55.1233C97.7809 47.7372 104.813 41.7205 113.178 39.3968" fill="#341D10"/>
<path d="M123.038 151.226C126.076 149.525 129.28 149.65 132.734 150.023C136.188 150.396 139.713 152.056 142.21 150.023C143.25 149.152 146.835 147.107 147.792 146.194C150.413 143.663 152.001 144.421 154.664 141.973C156.328 140.438 156.801 137.95 157.467 135.792C157.925 134.306 163.82 125.231 165.109 124.338C166.398 123.444 167.356 123.134 168.313 122.346C172.266 118.985 171.392 112.097 175.387 108.86C176.438 110.42 177.144 112.185 177.46 114.038C177.775 115.89 177.693 117.789 177.218 119.607C176.927 120.645 176.511 121.724 176.594 122.802C176.677 123.881 177.634 125.458 177.967 126.869C178.3 128.28 178.716 133.01 177.884 133.55C174.472 135.292 173.806 139.774 173.598 143.591L173.182 149.899C173.14 150.562 172.225 154.753 170.185 157.119C167.148 160.687 163.111 163.301 159.574 166.372C157.285 168.364 154.705 171.559 151.959 170.189C152.458 171.268 147.714 172.555 146.549 172.43C145.384 172.306 138.31 174.007 132.567 173.965C131.777 173.924 131.153 174.712 130.32 174.795C129.488 174.878 128.614 174.422 127.782 174.173C124.994 173.26 121.956 173.799 119.043 173.716C116.13 173.633 112.76 172.513 111.719 169.774C111.137 170.978 100.9 168.032 99.9428 167.492C96.5305 165.501 94.2418 162.098 92.286 158.695C90.9127 156.372 89.6644 154.006 88.4992 151.6C86.5018 147.533 84.7956 143.342 83.0895 139.151C82.5069 137.782 81.966 136.371 82.0492 134.919C82.1324 134.089 82.3821 133.259 82.3405 132.471C82.174 130.52 80.3014 129.234 79.5524 127.45C78.8034 125.666 79.8437 122.388 80.3014 119.856C80.7592 117.325 80.3847 114.379 80.3847 111.64C80.3847 108.902 80.884 105.956 82.8814 104.047C85.3366 109.981 85.0037 116.62 86.2105 122.927C86.8064 125.906 87.7563 128.803 89.0402 131.558C90.6631 135.085 93.0766 138.487 96.6553 140.064C98.5279 140.853 100.609 141.102 102.523 141.849C106.06 143.218 108.681 146.081 111.594 148.446C114.507 150.811 118.419 152.637 121.956 151.475L123.038 151.226Z" fill="#341D10"/>
<path d="M158.119 207.324C170.853 202.137 179.758 198.568 190.494 190.02C193.074 187.987 195.529 185.747 197.277 182.966C202.437 174.875 200.481 163.879 195.072 155.912C189.662 147.945 181.506 142.468 173.558 137.156C169.465 141.828 166.579 147.426 165.152 153.464C163.654 159.729 163.82 166.244 164.153 172.676C164.361 176.12 164.569 179.564 163.779 182.925C162.197 189.481 156.829 194.377 151.669 198.776C143.263 205.871 140.683 212.096 126.41 217.034C126.41 217.034 134.608 216.868 158.119 207.324Z" fill="#111312"/>
<path d="M116.192 93.4473C116.607 92.385 112.63 86.4018 106.562 87.0504C100.493 87.6989 97.0734 91.6904 97.215 92.6967C97.4981 94.7086 100.116 97.3849 107.988 96.432C112.46 95.5572 115.832 94.3716 116.192 93.4473Z" fill="url(#paint0_linear_2166_6362)"/>
<path d="M112.001 91.1155C111.796 88.4495 109.485 86.4516 106.839 86.6529C104.194 86.8542 102.216 89.1787 102.421 91.8447C102.626 94.5107 104.938 96.5087 107.583 96.3073C110.229 96.106 112.207 93.7815 112.001 91.1155Z" fill="url(#paint1_linear_2166_6362)"/>
<path d="M109.971 95.5664C111.992 94.0995 112.447 91.2568 110.987 89.217C109.527 87.1772 106.705 86.7129 104.683 88.1798C102.662 89.6468 102.207 92.4895 103.667 94.5292C105.127 96.569 107.95 97.0334 109.971 95.5664Z" fill="url(#paint2_linear_2166_6362)"/>
<path style="mix-blend-mode:multiply" d="M109.729 91.8764C109.64 92.3497 109.411 92.7768 109.071 93.1034C108.73 93.4301 108.294 93.6418 107.816 93.7117C107.338 93.7816 106.84 93.7066 106.386 93.4961C105.932 93.2857 105.542 92.9492 105.264 92.5294C104.987 92.1095 104.835 91.6251 104.828 91.1374C104.821 90.6497 104.959 90.1807 105.225 89.7895C105.491 89.3984 105.872 89.1028 106.321 88.9401C106.77 88.7774 107.266 88.755 107.747 88.8756C108.391 89.0372 108.961 89.4441 109.333 90.0068C109.705 90.5695 109.847 91.242 109.729 91.8764Z" fill="url(#paint3_linear_2166_6362)"/>
<path d="M109.639 89.7343C109.967 89.9611 108.871 90.7656 107.903 90.7188C107.037 90.678 106.481 90.0599 106.517 89.8643C106.554 89.6686 108.343 88.8479 109.639 89.7343Z" fill="white"/>
<path d="M110.359 89.7006C110.632 89.307 111.069 89.3607 111.152 89.6498C111.235 89.939 110.928 90.5628 110.718 90.5548C110.507 90.5467 110.208 89.9206 110.359 89.7006Z" fill="white"/>
<path d="M116.446 90.872C116.446 90.872 113.909 84.8096 105.899 85.9331C95.0253 87.4599 92.417 94.6214 92.417 94.6214C92.417 94.6214 94.3091 94.7625 94.9566 94.4496C98.0716 92.9442 101.373 88.4325 109.561 87.757C113.288 87.4496 114.527 90.5446 116.56 92.5701C117.733 93.5837 116.446 90.872 116.446 90.872Z" fill="#B95F47"/>
<path d="M97.4095 92.8703C97.4095 92.8703 95.5059 92.3407 97.8024 95.3908C100.099 98.4409 105.869 100.765 110.038 99.4201C114.207 98.0752 116.035 96.0594 116.538 94.724C117.041 93.3886 115.797 93.8981 115.797 93.8981C115.797 93.8981 105.855 97.1715 97.4095 92.8703Z" fill="#E78662"/>
<path d="M116.588 92.9938C116.588 92.9938 112.825 87.7134 106.348 88.6579C99.5305 89.6521 97.3902 94.1284 97.3902 94.1284L94.9567 94.4509C94.9567 94.4509 95.6726 93.5721 96.8383 92.3204C98.3928 90.6511 100.773 87.9574 104.712 87.4081C110.62 86.5843 114.98 88.0769 116.588 92.9938Z" fill="#341D10"/>
<path d="M115.992 92.228C115.992 92.228 115.738 94.2939 114.584 94.8579C114.584 94.8579 117.706 94.959 117.991 93.7377C118.134 93.127 115.992 92.228 115.992 92.228Z" fill="#D0664B"/>
<g style="mix-blend-mode:multiply" opacity="0.6">
<path d="M119.347 92.7475C120.406 95.6453 110.242 95.5083 94.9582 94.4541L97.2172 92.6956C97.2172 92.6956 98.3679 88.7297 105.301 87.2289C112.234 85.728 118.289 89.8497 119.347 92.7475Z" fill="#CFE2E7"/>
</g>
<path d="M136.61 93.4473C136.196 92.385 140.173 86.4018 146.241 87.0504C152.309 87.6989 155.729 91.6904 155.588 92.6967C155.305 94.7086 152.687 97.3849 144.815 96.432C140.343 95.5572 136.971 94.3716 136.61 93.4473Z" fill="url(#paint4_linear_2166_6362)"/>
<path d="M140.803 91.1155C141.009 88.4495 143.32 86.4516 145.966 86.6529C148.611 86.8542 150.589 89.1787 150.384 91.8447C150.178 94.5107 147.867 96.5087 145.222 96.3073C142.576 96.106 140.598 93.7815 140.803 91.1155Z" fill="url(#paint5_linear_2166_6362)"/>
<path d="M142.834 95.5664C140.812 94.0995 140.357 91.2568 141.818 89.217C143.278 87.1772 146.1 86.7129 148.121 88.1798C150.143 89.6468 150.598 92.4895 149.137 94.5292C147.677 96.569 144.855 97.0334 142.834 95.5664Z" fill="url(#paint6_linear_2166_6362)"/>
<path style="mix-blend-mode:multiply" d="M143.727 90.2361C143.462 90.6383 143.331 91.1046 143.349 91.5761C143.368 92.0476 143.536 92.5031 143.832 92.885C144.127 93.2669 144.538 93.558 145.011 93.7215C145.484 93.885 145.998 93.9136 146.489 93.8036C146.98 93.6936 147.426 93.45 147.769 93.1036C148.112 92.7572 148.338 92.3235 148.418 91.8575C148.498 91.3915 148.429 90.914 148.218 90.4854C148.008 90.0569 147.666 89.6965 147.236 89.4499C146.66 89.1194 145.967 89.0166 145.309 89.164C144.651 89.3114 144.082 89.697 143.727 90.2361Z" fill="url(#paint7_linear_2166_6362)"/>
<path d="M148.091 89.5624C148.418 89.7893 147.322 90.5937 146.355 90.547C145.488 90.5062 144.932 89.888 144.969 89.6924C145.005 89.4967 146.794 88.6761 148.091 89.5624Z" fill="white"/>
<path d="M148.811 89.5288C149.083 89.1352 149.52 89.1888 149.603 89.478C149.686 89.7671 149.379 90.3909 149.169 90.3829C148.958 90.3749 148.659 89.7488 148.811 89.5288Z" fill="white"/>
<path d="M136.357 90.872C136.357 90.872 138.894 84.8096 146.903 85.9331C157.777 87.4599 160.386 94.6214 160.386 94.6214C160.386 94.6214 158.494 94.7625 157.846 94.4496C154.731 92.9442 151.43 88.4325 143.241 87.757C139.515 87.4496 138.276 90.5446 136.243 92.5701C135.07 93.5837 136.357 90.872 136.357 90.872Z" fill="#B95F47"/>
<path d="M155.393 92.8703C155.393 92.8703 157.297 92.3407 155 95.3908C152.704 98.4409 146.934 100.765 142.765 99.4201C138.595 98.0752 136.768 96.0594 136.265 94.724C135.762 93.3886 137.005 93.8981 137.005 93.8981C137.005 93.8981 146.948 97.1715 155.393 92.8703Z" fill="#E78662"/>
<path d="M136.214 92.9938C136.214 92.9938 139.977 87.7134 146.454 88.6579C153.272 89.6521 155.413 94.1284 155.413 94.1284L157.846 94.4509C157.846 94.4509 157.13 93.5721 155.964 92.3204C154.41 90.6511 152.03 87.9574 148.091 87.4081C142.183 86.5843 137.823 88.0769 136.214 92.9938Z" fill="#341D10"/>
<path d="M136.811 92.228C136.811 92.228 137.065 94.2939 138.219 94.8579C138.219 94.8579 135.096 94.959 134.811 93.7377C134.669 93.127 136.811 92.228 136.811 92.228Z" fill="#D0664B"/>
<g style="mix-blend-mode:multiply" opacity="0.6">
<path d="M133.455 92.7475C132.397 95.6453 142.561 95.5083 157.845 94.4541L155.586 92.6956C155.586 92.6956 154.435 88.7297 147.502 87.2289C140.569 85.728 134.514 89.8497 133.455 92.7475Z" fill="#CFE2E7"/>
</g>
</g>
<defs>
<linearGradient id="paint0_linear_2166_6362" x1="110.037" y1="96.4926" x2="106.759" y2="86.3175" gradientUnits="userSpaceOnUse">
<stop stop-color="#EEE2FF"/>
<stop offset="1" stop-color="#BDC9FB"/>
</linearGradient>
<linearGradient id="paint1_linear_2166_6362" x1="110.005" y1="95.76" x2="105.639" y2="87.1768" gradientUnits="userSpaceOnUse">
<stop stop-color="#111111"/>
<stop offset="1" stop-color="#496467"/>
</linearGradient>
<linearGradient id="paint2_linear_2166_6362" x1="109.078" y1="96.2319" x2="104.975" y2="88.0881" gradientUnits="userSpaceOnUse">
<stop stop-color="#586655"/>
<stop offset="1" stop-color="#433A45"/>
</linearGradient>
<linearGradient id="paint3_linear_2166_6362" x1="106.852" y1="93.6601" x2="108.033" y2="88.9473" gradientUnits="userSpaceOnUse">
<stop stop-color="#A79ABD"/>
<stop offset="0.99" stop-color="#724A60"/>
</linearGradient>
<linearGradient id="paint4_linear_2166_6362" x1="142.766" y1="96.4926" x2="146.044" y2="86.3175" gradientUnits="userSpaceOnUse">
<stop stop-color="#EEE2FF"/>
<stop offset="1" stop-color="#BDC9FB"/>
</linearGradient>
<linearGradient id="paint5_linear_2166_6362" x1="142.8" y1="95.76" x2="147.166" y2="87.1768" gradientUnits="userSpaceOnUse">
<stop stop-color="#111111"/>
<stop offset="1" stop-color="#496467"/>
</linearGradient>
<linearGradient id="paint6_linear_2166_6362" x1="143.727" y1="96.2319" x2="147.83" y2="88.0881" gradientUnits="userSpaceOnUse">
<stop stop-color="#586655"/>
<stop offset="1" stop-color="#433A45"/>
</linearGradient>
<linearGradient id="paint7_linear_2166_6362" x1="144.562" y1="93.5168" x2="146.981" y2="89.3031" gradientUnits="userSpaceOnUse">
<stop stop-color="#A79ABD"/>
<stop offset="0.99" stop-color="#724A60"/>
</linearGradient>
</defs>
</svg>
