<svg width="250" height="250" viewBox="0 0 250 250" fill="none" xmlns="http://www.w3.org/2000/svg">
<path d="M33.1516 18.6691C33.1652 10.2351 30.6193 1.99538 25.8502 -4.96094H-5V60.376C16.3834 58.494 33.1516 40.5419 33.1516 18.6691Z" fill="#66C3CD"/>
<path d="M35.8478 232.33C53.5598 202.619 54.0036 168.202 24.1122 136.64C19.5027 131.774 10.4533 123.89 6.43644 118.524C2.97808 113.903 -3.35595 100.017 -5 98.25V255.043H25.7014C25.7748 253.538 25.9877 252.043 26.3375 250.577C27.9367 243.874 32.3182 238.25 35.8478 232.33Z" fill="#00007E"/>
<path d="M210.152 148.825C207.531 160.062 207.615 172.347 212.868 182.621C215.108 187.002 218.216 190.894 220.435 195.285C225.998 206.287 225.299 220.204 218.66 230.592C212.837 239.705 202.909 246.198 197.183 255.041H255V104.398C247.958 105.121 241.026 107.519 235.075 111.341C222.131 119.653 213.646 133.843 210.152 148.825Z" fill="#FA9101"/>
<path d="M171.449 12.6842C182.743 16.3527 194.638 17.7666 206.128 20.7677C223.442 25.3032 239.629 33.3772 253.667 44.4804C254.113 44.8337 254.558 45.1927 255 45.5574V-4.96094H144.85C151.09 3.75868 161.159 9.3412 171.449 12.6842Z" fill="#00007E"/>
<path d="M255 45.5574C254.559 45.1927 254.115 44.8337 253.667 44.4804C239.629 33.3772 223.442 25.3032 206.128 20.7677C194.638 17.7666 182.743 16.3512 171.449 12.6842C161.159 9.3412 151.09 3.75868 144.85 -4.96094H25.8502C30.6193 1.99538 33.1652 10.2351 33.1516 18.6691C33.1516 40.5419 16.3834 58.494 -5 60.376V98.2462C-3.35595 100.013 2.97808 113.899 6.43644 118.52C10.4533 123.887 19.5027 131.769 24.1122 136.636C54.0036 168.198 53.5598 202.615 35.8478 232.326C32.3182 238.246 27.9367 243.87 26.3361 250.573C25.9868 252.039 25.7743 253.534 25.7014 255.039H102.087C83.7911 234.929 72.443 208.387 71.8353 179.204C46.069 164.131 28.7644 136.169 28.7644 104.168C28.7644 56.1875 67.6575 17.2922 115.639 17.2922C147.645 17.2922 175.607 34.6018 190.679 60.3667C214.587 60.8654 236.724 68.5706 255.002 81.4011L255 45.5574Z" fill="#150DCE"/>
<path d="M115.637 17.2891C67.6578 17.2891 28.7646 56.1843 28.7646 104.168C28.7646 136.173 46.0742 164.135 71.8385 179.208C84.6981 186.73 99.6649 191.043 115.64 191.043C163.619 191.043 202.514 152.15 202.514 104.168C202.514 88.1936 198.202 73.2268 190.679 60.3671C175.604 34.5972 147.642 17.2891 115.637 17.2891Z" fill="#00007E"/>
<path d="M218.66 230.587C225.299 220.198 225.997 206.281 220.435 195.279C218.215 190.889 215.107 186.996 212.868 182.615C207.614 172.342 207.531 160.056 210.152 148.819C213.642 133.838 222.13 119.647 235.075 111.335C241.026 107.513 247.958 105.115 255 104.393V81.3937C236.722 68.5633 214.584 60.8573 190.677 60.3594C198.2 73.219 202.512 88.1858 202.512 104.16C202.512 152.14 163.619 191.035 115.637 191.035C99.6624 191.035 84.6956 186.722 71.8359 179.2C72.4436 208.383 83.7917 234.926 102.087 255.035H197.183C202.909 246.192 212.836 239.7 218.66 230.587Z" fill="#66C3CD"/>
<path d="M235.075 111.341C222.131 119.653 213.646 133.843 210.152 148.825C207.531 160.062 207.615 172.347 212.868 182.621C215.108 187.002 218.216 190.894 220.435 195.285C225.998 206.287 225.299 220.204 218.66 230.592C212.837 239.705 202.909 246.198 197.183 255.041H255V104.398C247.958 105.121 241.026 107.518 235.075 111.341Z" fill="#00007E"/>
<path d="M26.5451 255.042C29.5077 244.768 33.7396 234.769 38.451 225.174C40.4213 221.163 40.3985 221.238 41.2804 219.702C77.6305 198.694 122.343 181.098 169.106 177.059L159.185 177.205C109.565 171.395 90.899 166.494 43.428 182.066C33.7596 185.238 23.8653 189.846 18.3704 198.412C14.6008 204.286 13.3321 211.37 12.1418 218.247L5.77148 255.042H26.5451Z" fill="#FBB577"/>
<path d="M47.3097 179.747C44.9529 182.009 43.2105 184.833 42.2465 187.953C41.8818 189.141 41.6332 190.36 41.3853 191.578C40.2392 197.205 39.0909 202.851 38.5395 208.57C37.9982 214.189 38.0359 219.844 38.0744 225.488C41.6289 222.172 46.3495 220.469 50.8963 218.744C52.7035 218.058 54.5292 217.341 56.0685 216.168C57.6079 214.996 58.8388 213.29 59.0097 211.364C59.081 210.581 58.972 209.786 58.8993 209C58.6895 206.723 58.7729 204.429 59.1472 202.173C59.5333 199.851 60.2235 197.592 60.9124 195.341C61.8384 192.309 62.7694 189.273 63.9134 186.317C64.6877 184.315 65.571 182.119 64.8572 180.095C64.1435 178.071 61.9424 176.853 59.7997 176.689C57.657 176.524 55.5414 177.211 53.5227 177.955C51.5039 178.7 47.3097 179.747 47.3097 179.747Z" fill="black"/>
<path d="M232.806 255.038C230.972 249.407 228.938 243.838 226.596 238.493C220.684 225.008 216.481 210.558 210.573 197.073C208.614 192.6 206.599 190.11 203.113 186.691C197.241 180.932 187.078 181.562 178.867 181.095C145.852 179.23 112.431 184.372 82.3569 198.115C67.2982 204.998 62.7949 206.429 47.9671 214.449C46.0438 215.489 39.6634 218.225 38.2687 219.905C36.9801 221.457 32.1206 230.342 31.2879 232.18C28.0197 239.389 25.8742 247.402 23.5947 255.038H232.806Z" fill="black"/>
<path d="M45.3224 180.849C39.9358 187.498 37.7069 196.599 39.4101 204.984C44.0402 200.297 51.5674 199.946 56.9148 196.098C61.696 192.657 64.4719 186.607 69.8792 184.268C71.9499 183.373 74.3291 183.069 76.0822 181.647C78.6152 179.593 80.2992 175.213 81.8613 172.349C85.1444 166.332 91.5725 165.365 98.3439 164.3C110.153 162.439 122.832 160.695 133.581 165.925C129.108 166.321 128.012 172.306 128.151 176.794C128.303 181.769 129.174 187.83 133.804 189.66C130.481 189.903 127.599 192.936 127.527 196.266C130.531 194.617 133.638 193.161 136.827 191.906C136.317 191.061 135.92 192.874 136.49 193.68C137.98 195.786 137.202 198.867 135.436 200.746C133.67 202.626 131.162 203.591 128.748 204.498C135.602 203.347 142.168 200.882 148.087 197.239C146.734 201.301 144.214 204.874 140.841 207.511C149.778 206.887 157.854 201.535 164.318 195.333C165.387 197.049 165.053 204.188 166.121 205.902C172.09 200.991 178.07 199.186 182.523 195.98C186.975 192.774 188.586 185.207 184.166 181.954L188.641 173.179C189.529 171.437 190.444 169.525 190.065 167.606C189.266 163.546 183.555 162.418 181.827 158.655C187.061 155.335 187.941 146.897 183.506 142.568C182.944 142.019 182.304 141.515 181.96 140.81C181.498 139.863 181.656 138.75 181.738 137.7C182.258 131.11 179.111 124.348 173.735 120.5C177.802 117.234 179.157 111.026 176.819 106.361C176.17 105.066 175.264 103.86 175.007 102.434C174.637 100.389 175.669 98.3919 176.324 96.4209C178.901 88.675 175.733 80.2909 172.343 72.8663C169.411 66.4482 166.278 60.1275 162.946 53.9041C155.993 40.9234 146.623 27.2502 132.212 24.2228C126.27 22.9741 119.066 24.319 116.067 29.5995C110.387 26.7722 103.474 28.7326 97.9029 31.7699C79.0925 42.0275 68.0792 64.9117 71.8004 86.0109C72.4757 89.8411 73.5513 93.9598 71.8766 97.4701C71.0303 99.2438 69.5672 100.634 68.1369 101.982L56.189 113.233C53.6787 115.597 51.011 118.267 50.6485 121.696C50.0993 126.888 54.9324 130.923 56.8863 135.764C58.3822 139.478 58.1443 143.632 57.8836 147.627C57.6321 151.423 57.2988 155.454 55.025 158.505C52.6359 161.71 48.3469 163.464 46.9266 167.201C45.4485 171.089 47.6489 175.832 45.6201 179.462" fill="#FA9101"/>
<path d="M78.5297 118.074C77.5823 117.326 76.0978 117.744 75.2957 118.644C74.4936 119.544 73.8781 120.295 73.6124 121.473C72.9749 124.297 72.6558 127.67 72.96 130.548C73.0497 131.395 73.2207 132.232 73.3297 133.077C73.5028 134.419 73.5248 135.805 74.0192 137.066C74.5136 138.327 76.0992 139.456 76.9953 139.456C78.1607 139.456 79.1822 138.58 79.7164 137.544C80.2506 136.509 80.3924 135.322 80.5249 134.164C80.7571 132.137 80.99 130.103 80.9366 128.063C80.8476 124.644 80.4323 121.498 78.8039 118.489L78.5297 118.074Z" fill="#DC3B63"/>
<path d="M85.3235 128.448C86.5249 138.889 86.5249 149.433 85.3235 159.874C84.6824 165.437 82.3182 171.151 80.2959 175.456C91.6504 177.457 102.464 178.493 113.989 178.793C119.574 178.936 125.322 178.854 130.503 176.763C129.568 176.873 128.702 176.095 128.432 175.196C128.162 174.297 128.361 173.319 128.661 172.427C130.086 168.205 133.668 165.069 137.439 162.692C138.579 161.974 139.899 161.054 139.877 159.707C139.866 158.995 139.464 158.362 139.13 157.736C136.345 152.517 137.777 146.148 139.266 140.426L143.299 124.961L85.3235 128.448Z" fill="#FBB577"/>
<path d="M119.871 33.6406C115.038 35.0477 110.278 36.6797 105.591 38.5365C103.678 39.2951 101.764 40.0986 100.061 41.2533C96.6948 43.5327 94.3626 47.0395 92.3973 50.5998C89.2497 56.299 86.8116 62.3621 85.1372 68.6537C84.6386 70.52 84.2112 72.4155 83.4277 74.1821C82.8329 75.5305 81.6689 78.9134 80.9445 80.1963C77.5873 86.1435 75.5358 91.5116 76.1576 97.4802C76.8956 104.568 77.0274 111.095 77.9384 119.159C78.3719 122.926 79.8457 126.497 82.1946 129.474C86.2463 134.566 88.4838 136.214 94.8741 137.452C99.6509 138.378 109.136 139.241 113.99 139.574C121.076 140.06 128.386 139.258 134.777 136.16C141.168 133.062 144.109 129.026 145.916 122.158C147.152 117.457 147.704 112.072 150.019 107.797C151.414 105.22 151.76 101.518 151.853 98.4711C151.887 97.3556 151.437 92.8344 150.766 91.9433C147.081 87.0539 146.788 84.835 146.056 78.7567C145.788 76.5292 145.729 74.2484 145.021 72.1199C143.952 68.9144 143.397 69.3532 141.799 66.3785C139.848 62.7507 138.642 59.677 136.913 55.8425C135.45 52.5978 132.947 47.3181 131.12 44.2636C130.008 42.4044 128.817 39.6634 126.704 38.1091C124.961 36.8226 119.871 33.6406 119.871 33.6406Z" fill="#FBB577"/>
<path d="M119.395 80.0659C123.286 80.0288 127.047 78.456 130.934 78.4688C136.281 78.4859 141.482 81.7904 143.769 86.6229C140.827 85.5465 137.563 86.662 134.438 86.4341C128.8 86.0217 124.307 81.3502 118.761 80.2554" fill="url(#paint0_linear_1409_8265)"/>
<path d="M133.567 86.2152C135.757 86.2152 137.534 84.4391 137.534 82.2482C137.534 80.0573 135.757 78.2812 133.567 78.2812C131.376 78.2812 129.6 80.0573 129.6 82.2482C129.6 84.4391 131.376 86.2152 133.567 86.2152Z" fill="url(#paint1_linear_1409_8265)"/>
<path style="mix-blend-mode:multiply" d="M130.993 82.2533C130.993 82.7626 131.144 83.2604 131.427 83.6838C131.71 84.1073 132.112 84.4374 132.582 84.6323C133.052 84.8272 133.57 84.8783 134.07 84.779C134.569 84.6797 135.028 84.4345 135.388 84.0744C135.748 83.7143 135.993 83.2555 136.092 82.7561C136.192 82.2567 136.141 81.739 135.946 81.2685C135.751 80.7981 135.421 80.3961 134.997 80.1132C134.574 79.8304 134.076 79.6795 133.567 79.6797C132.884 79.6799 132.23 79.9511 131.747 80.4337C131.265 80.9163 130.993 81.5708 130.993 82.2533Z" fill="url(#paint2_linear_1409_8265)"/>
<path d="M136.197 82.4385C135.799 82.4485 136.812 83.3873 137.857 83.7428C138.794 84.0612 139.515 83.8966 139.516 83.7599C139.516 83.6231 137.765 82.3979 136.197 82.4385Z" fill="white"/>
<path d="M135.428 82.1318C135.215 81.7756 134.737 81.6374 134.589 81.7849C134.442 81.9323 134.644 82.4431 134.874 82.5221C135.104 82.6012 135.547 82.3291 135.428 82.1318Z" fill="white"/>
<path d="M118.929 79.8795C120.655 79.4742 122.167 78.4656 123.779 77.7297C127.681 75.9489 132.302 75.8121 136.302 77.3579C137.011 77.6314 137.708 77.9605 138.301 78.4349C138.824 78.8538 139.253 79.3752 139.679 79.8924C140.523 80.921 141.061 82.1398 141.598 83.3586C138.974 81.1567 136.967 79.5561 133.645 78.7156C132.408 78.4022 130.143 78.4235 128.763 78.5981C125.325 79.0312 122.094 81.1518 118.765 80.1901L118.929 79.8795Z" fill="#4E1B3D"/>
<path d="M84.3514 76.6398C86.0375 76.2666 87.2306 74.8227 88.6133 73.7905C90.6131 72.309 93.0989 71.6378 95.5727 71.9114C99.67 72.383 102.981 75.3256 106.628 77.2468C105.121 77.0067 103.576 76.7666 102.08 77.0623C101.235 77.2289 100.431 77.5609 99.5924 77.7582C98.4591 78.0239 97.2837 78.0346 96.1198 78.0431C93.5554 78.0567 90.9604 78.051 88.4644 77.4583C87.0148 77.1143 85.5502 76.57 84.0771 76.7937" fill="url(#paint3_linear_1409_8265)"/>
<path d="M95.3454 77.9897C97.4352 77.9897 99.1293 76.2956 99.1293 74.2058C99.1293 72.116 97.4352 70.4219 95.3454 70.4219C93.2556 70.4219 91.5615 72.116 91.5615 74.2058C91.5615 76.2956 93.2556 77.9897 95.3454 77.9897Z" fill="url(#paint4_linear_1409_8265)"/>
<path style="mix-blend-mode:multiply" d="M92.8896 74.2047C92.8895 74.6903 93.0334 75.1651 93.3031 75.569C93.5728 75.9729 93.9563 76.2877 94.4049 76.4737C94.8536 76.6596 95.3473 76.7084 95.8236 76.6137C96.3 76.519 96.7376 76.2852 97.081 75.9419C97.4245 75.5985 97.6584 75.161 97.7532 74.6847C97.848 74.2084 97.7994 73.7146 97.6136 73.2659C97.4278 72.8172 97.1131 72.4337 96.7093 72.1639C96.3055 71.894 95.8307 71.75 95.345 71.75C94.694 71.75 94.0695 72.0086 93.6091 72.4689C93.1486 72.9292 92.8898 73.5536 92.8896 74.2047Z" fill="url(#paint5_linear_1409_8265)"/>
<path d="M92.9264 73.8211C93.2719 73.9052 92.2062 74.5335 91.2232 74.6425C90.3428 74.7408 89.7437 74.458 89.7693 74.339C89.795 74.22 91.5623 73.4863 92.9264 73.8211Z" fill="white"/>
<path d="M93.6578 73.7061C93.9114 73.4376 94.3581 73.4069 94.4585 73.5636C94.5589 73.7204 94.2847 74.1292 94.0703 74.1542C93.8559 74.1791 93.5154 73.8564 93.6578 73.7061Z" fill="white"/>
<path d="M83.9199 76.5665C84.8403 76.4953 85.5583 75.7181 85.9679 74.8897C86.3775 74.0613 86.9124 73.4501 87.3448 72.6338C88.5123 70.4256 91.9436 69.523 94.4318 69.7431C96.9199 69.9632 98.1693 70.7675 100.265 72.128C102.024 73.2677 103.717 74.5221 105.271 75.9318C105.579 76.2118 105.895 76.5174 106.015 76.9156C103.485 75.6569 101.197 73.8618 98.4464 72.6416C97.861 72.386 97.2482 72.1984 96.62 72.0824C96.1841 72.0112 94.8086 71.7811 93.7095 71.8759C89.7418 72.2192 86.9324 75.8571 84.6629 76.5893" fill="#4E1B3D"/>
<path d="M90.4521 108.992C91.2407 109.371 91.4594 110.397 92.1097 110.982C93.2858 112.04 94.7368 112.681 96.2113 113.328C98.4096 114.293 100.406 115.082 102.77 115.504C104.551 115.823 108.453 116.313 110.261 116.31C112.985 116.306 113.732 116.3 116.417 115.841C118.437 115.494 120.644 115.069 122.34 114.585C121.157 114.812 120.19 114.807 119.035 114.524C118.306 114.345 117.578 114.168 116.855 113.968C115.991 113.73 115.093 113.166 114.248 112.87C112.938 112.411 111.252 111.911 109.935 111.471C104.962 109.81 101.193 109.42 96.1102 109.303C94.662 109.269 91.9495 109.407 90.559 109.002" fill="#FF5663"/>
<path d="M88.8376 108.146C90.4795 109.23 92.5125 109.541 94.408 109.417C101.211 108.971 108.177 110.592 114.507 113.121C117.221 114.204 120.248 115.517 122.94 114.379C120.924 114.241 119.199 112.998 117.398 112.081C115.111 110.917 113.86 110.198 112.99 109.506C112.12 108.815 111.148 107.374 108.645 106.728C107.949 106.549 105.197 106.852 104.479 106.871C102.663 106.912 102.714 106.002 100.917 105.737C99.5368 105.534 95.6397 105.84 93.4129 107.12C92.1927 107.821 90.0386 108.881 88.8369 108.149" fill="#DC3B63"/>
<path d="M84.6826 70.1813C85.9328 65.6474 89.2793 64.4499 93.9778 64.6522C97.5003 64.804 100.845 66.718 104.36 66.4331C105.774 66.3177 107.414 65.5184 107.464 64.1002C107.517 62.5616 105.745 61.7039 104.275 61.2459L103.953 62.2239C103.584 61.7461 103.1 61.3696 102.546 61.1298L102.275 62.3407L100.79 60.748C100.728 60.9555 100.711 61.1741 100.742 61.3885C100.773 61.6029 100.85 61.808 100.969 61.9896C99.0453 60.5143 96.3741 60.5236 93.9828 60.9282C92.1507 61.2381 90.2573 61.6711 88.7714 62.7874C85.0523 65.5804 84.6826 70.1813 84.6826 70.1813Z" fill="#A63344"/>
<path d="M84.2109 131.871C89.4936 133.526 92.189 131.153 97.7188 130.945C99.9983 130.858 106.278 131.545 108.446 132.263C110.099 132.81 111.668 133.578 113.282 134.228C121.942 137.709 133.146 134.696 141.72 131.008C140.763 133.572 137.683 138.583 135.482 140.212C133.28 141.841 130.791 143.03 128.319 144.208C124.757 145.906 121.137 147.623 117.243 148.255C115.506 148.54 113.741 148.599 111.981 148.632C108.612 148.695 105.154 148.642 102.008 147.433C100.384 146.809 98.8899 145.892 97.4061 144.981C95.9102 144.062 94.3979 143.153 93.0061 142.079C87.7868 138.054 84.2109 131.871 84.2109 131.871Z" fill="#E78867"/>
<path d="M103.128 95.1796C103.128 95.1796 106.125 93.6545 104.405 92.1401C102.686 90.6257 99.2618 93.1957 98.4932 96.5715L100.822 95.0756C100.822 95.0756 101.493 95.9311 103.128 95.1796Z" fill="black"/>
<path d="M110.383 97.2178C110.383 97.2178 106.775 95.9613 108.603 94.1277C110.431 92.2942 114.636 94.6142 115.863 98.1282L113.026 96.816C113.026 96.816 112.34 97.8176 110.383 97.2178Z" fill="black"/>
<path d="M102.52 97.7233C102.76 96.7777 103.156 95.8786 103.691 95.0628C103.996 94.5969 104.361 94.1147 104.349 93.5584C104.329 92.6801 103.351 92.0988 102.474 92.0938C102.036 92.0938 101.559 92.2106 101.298 92.5625C100.909 93.0854 101.165 93.8141 101.191 94.4652C101.234 95.5507 100.494 96.6207 99.4642 96.964C98.4342 97.3073 96.3015 97.9613 96.3008 95.2273C96.3008 93.7314 97.7853 92.7848 98.5012 92.3958C98.9186 92.1686 99.3887 92.0511 99.8104 91.8317C100.731 91.3509 101.18 90.1513 102.086 89.6455C103.167 89.0422 103.683 89.1683 104.262 89.2844C105.078 89.4475 106.089 90.0957 107.371 90.2816C108.897 90.5039 111.599 89.419 113.432 90.3906C114.857 91.1443 115.755 93.4536 116.106 93.8412C116.408 94.1731 118.991 96.2025 119.905 97.5645C120.126 97.8957 120.308 98.2839 120.256 98.6786C120.211 99.0226 119.995 99.3197 119.771 99.5839C119.242 100.211 118.611 100.777 117.848 101.076C117.085 101.375 116.171 101.373 115.485 100.925C115.363 100.853 115.261 100.753 115.188 100.632C115.081 100.432 115.117 100.189 115.145 99.9643C115.331 98.6522 115.359 97.2283 114.66 96.1021C114.108 95.211 113.171 94.6261 112.205 94.2194C111.664 93.9815 111.094 93.8156 110.51 93.7258C110.011 93.6545 109.479 93.6681 109.032 93.901C108.586 94.1339 108.573 94.6133 108.655 95.1077C108.743 95.6519 108.931 96.0259 109.367 96.3664C109.803 96.7068 111.171 97.7511 111.012 98.2782C110.852 98.8054 109.216 98.9079 108.657 98.8844C107.963 98.8559 107.375 98.8374 106.695 98.9713C105.958 99.1138 105.144 99.2506 104.495 98.8709C103.938 98.5447 103.59 97.8808 102.968 97.7084C102.884 97.687 102.52 97.7233 102.52 97.7233Z" fill="#E27C63"/>
<path d="M145.902 77.287C145.918 75.5646 145.174 72.6184 145.169 72.6027C144.742 72.1696 144.314 71.7757 143.903 71.3982C142.93 70.5064 142.031 69.6338 140.85 69.0432C139.884 68.561 139.003 68.1079 137.942 67.9156L131.909 66.8222C131.909 66.8222 130.627 67.4355 129.98 67.8309C130.152 67.4263 130.264 67.0708 130.661 66.8749C130.205 67.0587 129.954 67.2596 129.499 67.4448C129.165 67.5787 128.819 67.7155 128.461 67.6962C128.77 67.3023 129.689 66.8307 129.689 66.8307C127.409 66.34 124.916 68.1528 124.677 70.47C124.65 70.7329 124.657 71.0235 124.827 71.2258C125.01 71.4452 125.325 71.4915 125.61 71.5107C130.195 71.874 135.886 71.28 138.987 72.7488C140.295 73.3685 141.519 74.1172 142.727 74.9121C143.32 75.3018 143.951 75.6316 144.527 76.044C145.031 76.4075 145.492 76.8253 145.904 77.2899L145.902 77.287Z" fill="#A63344"/>
<path d="M101.697 77.1448C96.939 78.0936 96.5864 78.0188 91.7354 77.9362C90.1683 77.9098 87.7748 77.2844 86.0546 76.7394C85.588 76.592 84.2075 76.7223 84.0771 76.7872C84.0771 76.7872 86.8239 78.9042 89.6832 78.7731C99.1693 78.3372 98.6165 78.4733 101.697 77.1448Z" fill="#DD4C6A"/>
<path d="M120.655 80.6161C121.696 81.1226 122.805 81.4709 123.869 81.9311C126.077 82.8827 128.078 84.2946 130.344 85.0988C133.132 86.0882 136.158 86.2172 139.117 86.2207C139.058 86.7329 136.656 87.2892 134.997 87.2671C134.881 87.2671 130.052 87.1154 126.72 84.7106C124.779 83.3094 121.105 80.7785 118.768 80.2578" fill="#DD4C6A"/>
<defs>
<linearGradient id="paint0_linear_1409_8265" x1="118.765" y1="82.5455" x2="143.773" y2="82.5455" gradientUnits="userSpaceOnUse">
<stop stop-color="#EEE2FF"/>
<stop offset="1" stop-color="#BDC9FB"/>
</linearGradient>
<linearGradient id="paint1_linear_1409_8265" x1="133.567" y1="86.2152" x2="133.567" y2="78.2812" gradientUnits="userSpaceOnUse">
<stop stop-color="#BAA9CC"/>
<stop offset="0.96" stop-color="#404577"/>
</linearGradient>
<linearGradient id="paint2_linear_1409_8265" x1="133.568" y1="84.8277" x2="133.568" y2="79.6797" gradientUnits="userSpaceOnUse">
<stop stop-color="#A79ABD"/>
<stop offset="0.99" stop-color="#724A60"/>
</linearGradient>
<linearGradient id="paint3_linear_1409_8265" x1="84.0771" y1="74.9445" x2="106.628" y2="74.9445" gradientUnits="userSpaceOnUse">
<stop stop-color="#EEE2FF"/>
<stop offset="1" stop-color="#BDC9FB"/>
</linearGradient>
<linearGradient id="paint4_linear_1409_8265" x1="95.3454" y1="77.9897" x2="95.3454" y2="70.4226" gradientUnits="userSpaceOnUse">
<stop stop-color="#BAA9CC"/>
<stop offset="0.96" stop-color="#404577"/>
</linearGradient>
<linearGradient id="paint5_linear_1409_8265" x1="95.345" y1="76.6601" x2="95.345" y2="71.75" gradientUnits="userSpaceOnUse">
<stop stop-color="#A79ABD"/>
<stop offset="0.99" stop-color="#724A60"/>
</linearGradient>
</defs>
</svg>
