<svg width="251" height="250" viewBox="0 0 251 250" fill="none" xmlns="http://www.w3.org/2000/svg">
<mask id="mask0_1708_10568" style="mask-type:alpha" maskUnits="userSpaceOnUse" x="0" y="0" width="251" height="250">
<rect x="0.5" width="250" height="250" fill="#C4C4C4"/>
</mask>
<g mask="url(#mask0_1708_10568)">
<path d="M208.817 0.0406692C165.134 0.0406693 175.52 0.0406692 175.52 0.0406692C200.658 18.9379 216.918 49.0146 216.918 82.8821C216.918 140.084 170.547 186.454 113.346 186.454C56.1453 186.454 9.77441 140.084 9.77441 82.8821C9.77441 49.0146 26.0336 18.9379 51.1731 0.0406692H-4.5V255.041H-4.07523V137.125C-3.9921 137.233 -3.90826 137.34 -3.82442 137.444C7.70297 151.808 19.44 166.543 25.859 184.207C33.9505 206.473 32.8208 231.122 31.0728 255.041H197.067C197.951 230.243 212.306 206.513 232.078 191.063C235.461 188.419 239.247 185.614 240.229 181.435C241.868 174.466 235.074 168.72 231.819 162.342C228.055 154.967 229.065 146.164 230.238 137.968C232.06 125.237 234.069 112.464 238.069 100.242C240.984 91.339 245.014 82.6928 250.5 75.1357V51.3201C250.5 25.9715 255.5 6 255.5 0.0393329C255.5 -5.92133 226.938 0.0406692 208.817 0.0406692Z" fill="#66C3CD"/>
<path d="M9.77344 82.8805C9.77344 140.082 56.1443 186.452 113.345 186.452C170.546 186.452 216.917 140.082 216.917 82.8805C216.917 49.013 200.657 18.9363 175.519 0.0390625H51.1722C26.0327 18.9363 9.77344 49.013 9.77344 82.8805Z" fill="#150DCE"/>
<g clip-path="url(#clip0_1708_10568)">
<path d="M147.481 43.7422C147.401 43.9704 147.39 44.2174 147.451 44.4516C147.512 44.6859 147.641 44.8967 147.822 45.0572C148.212 45.3686 148.659 45.6002 149.138 45.739C152.256 46.9566 154.984 49.0509 158.054 50.3659C162.147 52.1679 166.921 52.7036 170.332 55.5771C172.573 57.5253 173.986 60.3501 174.717 63.2236C175.448 66.0971 175.594 69.068 175.74 72.0876L176.13 81.1464C176.179 82.4127 176.228 83.8251 175.545 84.9453C175.459 85.1271 175.336 85.2897 175.186 85.4235C175.035 85.5574 174.859 85.6597 174.668 85.7245C173.889 85.9681 173.158 85.2862 172.671 84.6531C168.091 79.1009 165.606 71.9415 160.636 66.7302C156.787 62.7365 151.72 60.1065 146.994 57.1356C145.337 56.1129 143.632 54.8953 142.852 53.0933C142.073 51.2912 142.365 49.4405 142.852 47.6872C143.34 45.9338 144.07 44.7163 145.532 44.424C146.214 44.2779 147.042 44.424 147.481 43.8883" fill="#F79C88"/>
<path fill-rule="evenodd" clip-rule="evenodd" d="M70.6949 241.089C72.5993 247.119 75.2683 252.88 78.6367 258.233C80.5857 261.301 82.7782 264.32 84.2886 267.632C88.1865 275.961 87.7967 285.555 88.1377 294.76C88.1865 295.734 88.2352 296.806 88.8686 297.536C89.502 298.267 91.1098 298.656 92.3766 298.754L166.923 302.747C169.213 302.894 171.649 302.942 173.647 301.822C175.644 300.702 177.252 297.39 178.275 294.663C182.319 283.558 187.728 272.697 195.767 263.98C198.106 261.398 200.737 258.914 202.101 255.651C203.904 251.317 203.027 246.349 204.099 241.771C204.488 240.066 205.122 238.41 205.414 236.657C205.837 233.798 205.233 230.882 203.709 228.426C201.419 224.871 197.326 222.776 193.185 221.9C189.043 221.023 182.69 219.208 178.5 219.5L145.972 224.043C138.176 224.578 130.234 225.114 122.536 223.604C117.177 222.533 114.497 217.565 109.332 215.812C105.629 214.594 103.437 213.036 99.6364 212.062C98.0285 211.623 93.2049 211.429 91.0124 211.38C88.1965 211.211 85.3868 211.8 82.8757 213.084C77.4187 215.714 72.3027 219.562 71.0847 225.455C70.3538 228.962 69.5255 233.978 70.1589 237.047" fill="#DE2227"/>
<path fill-rule="evenodd" clip-rule="evenodd" d="M87.2609 270.609C84.4349 262.086 75.5673 248.644 74.9827 239.683C74.398 230.721 78.0522 220.932 86.0915 216.987C94.1308 213.042 103.486 215.915 111.427 219.714C119.369 223.513 127.214 228.432 136.033 228.724C140.954 228.919 146.073 228.438 150.65 226.63C172.5 218 177.5 221 194.939 227.75C196.888 228.237 198.934 228.822 200.347 230.234C202.783 232.572 202.783 236.419 202.588 239.829C202.393 244.309 201.955 249.277 198.788 252.492C197.424 253.953 195.28 254.537 193.964 256.096C189.384 261.453 185.048 271.048 183.05 276.454C181.053 281.86 175.791 298.419 175.791 298.419C169.929 299.396 163.998 299.901 158.055 299.929C135.448 299.685 115.861 298.662 92.9614 294.084C77.8086 291.26 45.2616 275.236 44.8718 272.801C42.0459 270.268 39.0251 267.931 36.93 264.862C33.9579 260.43 32.4962 253.173 23.3363 260.138C22.1182 261.063 21.1437 262.33 19.7795 263.012C17.5382 264.083 15.8329 262.378 13.5917 263.352C8.42701 265.544 4.383 269.392 -0.586747 273.093C-4.82565 276.259 -11.5494 283.175 -10.7211 287.509C-8.38242 290.091 -4.14353 287.461 -2.09716 284.636C-0.0507975 281.811 2.53152 278.158 5.94213 279.035C3.06748 286.146 2.62898 292.672 3.65216 300.27C6.38065 300.513 7.69616 300.124 6.67298 296.032C7.59872 299.393 8.18339 303.094 9.35275 306.699C9.8887 308.354 10.3272 307.867 11.4966 306.601L12.3736 305.286C14.3225 302.072 16.8074 308.257 16.8074 308.257C19.9744 307.916 19.5846 302.802 18.5614 299.734C17.5382 296.666 16.7099 293.695 16.4176 290.48C23.6286 295.692 34.3477 302.997 42.5819 306.358C57.2475 312.299 57.1013 309.085 65.2381 313.273C70.8412 316.098 75.9571 319.8 81.2679 323.112C100.639 335.041 122.673 341.97 145.387 343.275C152.111 343.616 158.884 343.518 165.461 344.979C170.041 346.002 174.524 347.756 179.201 348.048C187.533 348.583 195.572 344.298 201.37 338.307C207.168 332.317 210.53 324.475 214.477 317.121C232.894 282.444 240.251 240.949 241.713 200.963C241.956 193.414 240.202 185.817 234.112 181.385C231.335 179.388 225.586 176.417 222.224 175.881C212.528 174.274 206.145 174.858 196.595 172.618C187.046 170.378 176.327 166.92 171.259 158.494C168.872 154.5 168.385 149.63 168.092 145.101C167.946 142.568 167.849 140.035 167.751 137.454C167.654 136.188 167.508 134.873 167.459 133.558C167.41 132.243 167.849 131.61 167.8 130.733C167.605 127.421 163.756 139.11 158.981 142.519C154.206 145.928 152.939 148.851 148.116 150.068C145.68 150.701 142.513 151.822 139.346 151.822C135.253 151.773 131.209 150.458 130.088 149.581C127.847 147.925 121.805 144.662 116.446 139.159C115.471 138.185 117.226 143.201 117.713 144.419C122.086 155.05 125.669 165.989 128.432 177.147C128.675 178.121 128.919 179.242 128.529 180.216C128.139 181.19 126.093 182.164 124.485 182.505L81.9988 190.833C71.7182 192.879 60.6581 195.362 53.9343 203.399C49.7441 208.464 47.8927 215.087 46.6259 221.565L44.5795 268.856L91.3536 288.63C91.3536 288.63 91.8895 284.49 87.2609 270.609Z" fill="#F79C88"/>
<path d="M197.811 186.731C196.885 188.339 196.154 190.092 195.326 191.797C194.5 193.299 193.83 194.882 193.328 196.521C192.939 198.079 191.038 204.849 190.454 209.135C189.479 216.294 186.897 223.113 187.53 230.321C187.579 230.662 190.015 231.441 190.356 231.587C190.567 231.642 190.79 231.625 190.99 231.539L194.108 230.418C193.808 222.228 194.264 214.027 195.472 205.921C195.717 204.106 196.108 202.315 196.642 200.563C197.567 197.592 199.857 191.212 201.465 188.582C204.681 183.225 205.168 180.254 212.769 174.75C210.856 174.295 208.885 174.131 206.922 174.263C206.922 174.263 204.389 175.53 197.811 186.731Z" fill="#E22028"/>
<g opacity="0.5">
<path d="M202.635 236.516L202.781 236.759C202.785 236.708 202.773 236.658 202.747 236.614C202.721 236.57 202.682 236.536 202.635 236.516Z" fill="white"/>
</g>
<g opacity="0.75">
<path d="M167.457 131.359C164.777 137.399 161.854 143.389 157.907 148.746C153.961 154.104 149.088 158.828 143.144 161.702C139.49 163.455 135.251 164.819 133.253 168.325C132.376 169.932 132.084 171.783 131.402 173.488C130.72 175.192 129.453 176.848 127.65 177.092L123.996 169.786C123.344 168.562 122.821 167.272 122.437 165.939C121.95 163.893 122.145 161.75 122.096 159.656C121.998 155.321 120.634 151.084 119.757 146.847C119.088 143.803 118.681 140.707 118.539 137.593C123.07 138.714 127.65 139.834 131.938 141.636C134.033 142.512 136.079 143.535 138.272 143.827C140.464 144.12 142.072 143.779 143.972 143.438C151.38 141.871 158.433 138.949 164.777 134.817C165.216 134.525 165.703 134.038 165.459 133.551" fill="#C5524A"/>
<path d="M166.969 131.312C163.413 139.3 159.417 147.238 153.327 153.619C150.532 156.611 147.254 159.113 143.631 161.022C140.513 162.629 136.956 163.7 134.422 166.135C132.766 167.743 132.084 169.691 131.45 171.834C130.817 173.977 129.94 176.363 127.699 176.704L128.137 176.85L124.483 169.545C123.129 167.25 122.485 164.607 122.631 161.947C122.663 159.384 122.451 156.824 121.998 154.3C121.462 151.719 120.78 149.187 120.244 146.557C119.62 143.587 119.213 140.575 119.026 137.546L118.198 137.936C121.706 138.813 125.214 139.689 128.624 140.858C130.33 141.443 131.937 142.125 133.545 142.806C135.056 143.527 136.665 144.019 138.32 144.268C140.017 144.399 141.724 144.284 143.387 143.927C145.044 143.569 146.701 143.18 148.357 142.758C151.544 141.828 154.655 140.656 157.663 139.251C159.369 138.471 161.029 137.593 162.633 136.621L164.923 135.209C165.508 134.819 166.287 134.235 165.995 133.407C165.702 132.579 164.777 133.212 164.972 133.699C165.167 134.186 163.802 135.014 163.315 135.306L161.22 136.524C159.856 137.303 158.491 137.985 157.079 138.667C154.227 139.993 151.279 141.1 148.26 141.979C146.798 142.368 145.336 142.758 143.875 143.05C142.17 143.463 140.411 143.611 138.661 143.488C137.099 143.228 135.576 142.77 134.13 142.125C132.668 141.491 131.207 140.81 129.696 140.274C126.139 139.008 122.485 138.131 118.831 137.206C118.587 137.157 117.954 137.206 118.003 137.595C118.14 140.275 118.449 142.943 118.928 145.583C119.416 148.261 120.146 150.843 120.731 153.473C121.314 156.128 121.608 158.839 121.608 161.557C121.527 162.843 121.592 164.134 121.803 165.405C122.039 166.641 122.449 167.838 123.021 168.96C124.337 171.785 125.798 174.561 127.163 177.337C127.215 177.4 127.284 177.447 127.361 177.473C127.439 177.498 127.522 177.502 127.601 177.483C129.404 177.191 130.719 175.925 131.548 174.366C132.376 172.808 132.717 170.275 133.789 168.376C135.592 165.113 139.587 163.798 142.803 162.288C150.452 158.732 156.348 152.401 160.781 145.29C163.504 140.861 165.898 136.238 167.944 131.459C168.187 130.874 167.164 130.874 166.969 131.312Z" fill="#C5524A"/>
</g>
<path d="M193.134 129.656C192.452 126.685 190.113 118.795 194.06 111.051C194.06 111.051 202.537 98.9237 199.468 91.4234C196.398 83.923 190.454 81.1957 188.213 77.3481C185.972 73.5005 182.025 59.7174 178.761 54.4088C175.496 49.1001 156.445 50.6586 155.032 50.6586C150.209 50.6099 165.508 55.0906 168.626 58.7434C169.682 59.9506 170.598 61.2741 171.355 62.6883C172.865 66.682 173.255 68.0457 174.278 74.5233C174.96 79.0527 174.034 83.8256 174.765 88.3551C176.13 96.9269 175.301 101.359 174.814 104.671C174.034 110.223 172.427 120.986 172.232 121.522C171.257 124.249 170.721 125.321 169.552 127.951C168.474 130.391 167.254 132.765 165.898 135.062C165.752 139.055 166.287 143.049 166.629 147.238C167.213 154.884 169.454 159.219 170.575 161.021C171.696 162.823 173.791 164.819 176.86 167.206C184.607 171.346 190.064 170.907 193.036 171.833C196.593 168.472 197.129 164.235 197.227 159.365C197.324 154.494 196.35 149.575 195.862 144.705C195.245 139.64 194.334 134.615 193.134 129.656Z" fill="#EAA76E"/>
<path d="M192.744 200.664C193.787 199.243 194.746 197.763 195.619 196.232C198.245 191.603 200.011 186.537 200.832 181.28C201.376 177.801 201.556 174.276 201.368 170.76C201.13 167.243 200.576 163.755 199.712 160.337C198.104 153.421 195.522 146.749 193.621 139.784C193.134 138.031 192.696 136.278 192.306 134.524C191.965 132.722 191.624 130.969 191.429 129.167C191.332 128.242 191.234 127.365 191.185 126.44C191.137 125.514 191.088 124.638 191.088 123.712C191.089 121.901 191.235 120.094 191.526 118.306C191.513 118.267 191.51 118.226 191.517 118.186C191.524 118.145 191.541 118.107 191.567 118.075C191.593 118.043 191.626 118.018 191.664 118.003C191.702 117.987 191.743 117.981 191.784 117.986C191.825 117.99 191.864 118.005 191.897 118.029C191.931 118.052 191.958 118.084 191.976 118.121C191.994 118.158 192.002 118.198 192 118.239C191.999 118.28 191.986 118.32 191.965 118.355C191.916 120.126 191.965 121.898 192.111 123.664L192.403 126.294L192.842 128.924C193.183 130.677 193.573 132.382 194.011 134.135C194.45 135.888 194.937 137.544 195.473 139.249C197.568 146.018 200.053 152.788 201.71 159.899C202.54 163.448 203.03 167.069 203.171 170.711C203.31 174.351 203.032 177.995 202.343 181.572C201.659 185.156 200.53 188.641 198.981 191.946C197.42 195.195 195.438 198.224 193.086 200.956C193.04 201.001 192.979 201.026 192.915 201.026C192.851 201.026 192.79 201.001 192.744 200.956C192.647 200.907 192.647 200.761 192.744 200.664Z" fill="#FDD6BF"/>
<path d="M34.2005 251.122C35.5299 249.655 36.6304 247.997 37.4649 246.203C38.2747 244.414 38.8637 242.533 39.2189 240.602C39.9011 236.754 39.7062 232.76 39.1215 228.864C38.4743 224.962 37.5129 221.118 36.2468 217.37C34.98 213.62 33.6158 209.87 32.3977 206.022C31.081 202.17 30.1028 198.21 29.4743 194.187C28.9302 190.097 28.9466 185.951 29.5231 181.865C30.633 173.648 33.8937 165.869 38.9753 159.316C41.5739 156.134 44.4609 153.2 47.5993 150.549C50.6688 147.919 53.8358 145.435 56.8567 142.903C59.9094 140.456 62.7757 137.787 65.4319 134.915C68.0612 132.117 70.217 128.909 71.8146 125.418C73.3312 121.856 74.49 118.153 75.274 114.362C76.1023 110.515 76.7844 106.57 77.7589 102.625C78.7235 98.6135 80.18 94.7366 82.0952 91.0821C83.1061 89.2777 84.2979 87.5806 85.652 86.0169C86.9998 84.4567 88.577 83.1101 90.3294 82.0233C90.3693 82.0018 90.4155 81.9949 90.46 82.0038C90.5044 82.0127 90.5444 82.0368 90.573 82.072C90.6007 82.1065 90.6157 82.1495 90.6157 82.1937C90.6157 82.238 90.6007 82.2809 90.573 82.3155C89.2347 83.7693 88.0433 85.3517 87.0162 87.0397C85.9951 88.6833 85.1149 90.4103 84.3852 92.2023C82.9745 95.8346 81.8822 99.5827 81.1207 103.404L79.9514 109.2C79.5616 111.148 79.1718 113.145 78.7333 115.142C77.8076 119.087 76.7357 123.08 74.9816 126.879C74.1129 128.78 73.0861 130.605 71.9121 132.334C70.7215 134.057 69.4194 135.7 68.0143 137.253C65.2125 140.211 62.2001 142.961 59.0005 145.484C55.8822 148.065 52.7152 150.452 49.6944 153.033C46.6844 155.514 43.9115 158.27 41.4115 161.264C36.5557 167.339 33.3654 174.573 32.1541 182.255C31.5612 186.107 31.4793 190.021 31.9105 193.895C32.423 197.792 33.2706 201.638 34.4441 205.389C35.5647 209.188 36.8315 212.987 37.9521 216.834C39.1341 220.702 39.9977 224.661 40.5345 228.669C40.7788 230.689 40.8765 232.724 40.8268 234.757C40.7709 236.786 40.5427 238.806 40.1447 240.796C39.7179 242.8 39.0127 244.735 38.0496 246.543C37.578 247.442 37.0406 248.305 36.4417 249.125C35.8328 249.921 35.1823 250.686 34.4928 251.414C34.4484 251.439 34.398 251.453 34.3466 251.453C34.2953 251.453 34.2449 251.439 34.2005 251.414C34.1517 251.316 34.103 251.219 34.2005 251.122Z" fill="#FDC898"/>
<path d="M57.0038 153.815C55.4421 154.654 53.9293 155.581 52.4726 156.591C51.002 157.598 49.602 158.705 48.2824 159.903C45.6446 162.255 43.3047 164.921 41.315 167.841C39.3178 170.731 37.6508 173.835 36.3453 177.095C35.0293 180.376 34.0023 183.766 33.2757 187.225C31.814 194.141 31.2294 201.301 29.9626 208.411C29.6215 210.165 29.2804 211.967 28.8419 213.72C28.4579 215.49 27.9533 217.231 27.3315 218.931C27.0392 219.808 26.7468 220.636 26.4058 221.513C26.0647 222.389 25.6749 223.169 25.2851 223.997C24.4998 225.624 23.5875 227.188 22.5567 228.672C22.5421 228.696 22.5225 228.717 22.4992 228.733C22.4759 228.749 22.4495 228.759 22.4217 228.764C22.3939 228.768 22.3655 228.767 22.3383 228.76C22.3111 228.752 22.2859 228.739 22.2643 228.721C22.1669 228.672 22.1669 228.575 22.2156 228.477C22.9952 226.87 23.726 225.263 24.3594 223.607L25.2364 221.074L25.9673 218.542C26.4058 216.837 26.8443 215.084 27.1366 213.33C27.429 211.577 27.77 209.873 28.0624 208.071C29.0855 201.057 29.7677 193.898 31.3268 186.787C32.0835 183.228 33.1934 179.753 34.64 176.413C36.0962 173.063 37.9094 169.878 40.0482 166.916C42.2325 163.987 44.7689 161.337 47.6003 159.026C50.4064 156.757 53.5034 154.874 56.8089 153.425C56.8369 153.409 56.8686 153.4 56.9011 153.399C56.9335 153.397 56.9657 153.405 56.9948 153.419C57.0238 153.434 57.0488 153.455 57.0674 153.482C57.086 153.508 57.0976 153.539 57.1013 153.571C57.1183 153.617 57.1177 153.667 57.0997 153.712C57.0817 153.757 57.0475 153.794 57.0038 153.815Z" fill="#FDC898"/>
<path d="M147.774 47.0565C149.187 50.5632 155.472 51.9756 159.175 52.8523C163.37 53.7439 167.467 55.049 171.404 56.7485C175.351 58.5018 178.518 62.7877 179.2 64.6385C180.71 68.6809 180.905 73.259 183.195 76.9117C186.265 81.7334 191.868 84.5582 194.645 89.5259C195.597 91.3388 196.239 93.2976 196.545 95.3216C197.359 100.659 196.454 106.117 193.963 110.907C196.838 107.449 199.761 103.942 201.661 99.8511C203.562 95.76 204.39 90.987 202.928 86.7498C201.466 82.5126 196.886 78.3728 193.963 74.0382C189.237 67.0737 188.506 58.2096 184.998 50.5632C183.244 46.7156 180.808 43.2577 178.372 39.7997C175.936 36.3418 173.694 33.1761 170.576 30.5948C167.458 28.0135 163.365 26.3089 159.467 24.653C153.328 22.1204 146.117 19.5878 140.368 22.8509C139.788 23.1041 139.332 23.5771 139.101 24.1659C139.054 24.6867 139.156 25.21 139.393 25.6757C140.66 28.9876 141.927 32.2994 143.242 35.6599C144.558 39.0205 143.73 43.3551 146.945 45.6928L147.774 47.0565Z" fill="#FDC898"/>
<path fill-rule="evenodd" clip-rule="evenodd" d="M123.217 148.408C117.613 143.811 113.41 137.737 111.085 130.874C109.77 127.124 109.428 122.4 108.6 118.504C106.456 107.984 106.554 107.302 105.531 101.409L105.433 100.532C105.872 98.5839 106.797 97.3664 106.7 96.6845C106.653 95.3749 107.01 94.0826 107.723 92.983C107.577 89.0868 107.528 86.3594 107.528 86.3594C97.7836 91.4245 89.7931 100.289 86.8697 110.857C83.9463 121.426 86.4312 133.65 94.0807 141.54C96.0296 143.586 98.2709 145.291 100.463 147.044C111.436 155.965 121.3 166.168 129.843 177.435C129.892 174.464 129.113 171.493 128.382 168.571C126.676 161.85 124.971 155.129 123.217 148.408Z" fill="#FAB897"/>
<path d="M125.166 28.7899C119.844 29.7043 114.921 32.199 111.036 35.9493C110.94 36.0139 110.872 36.1143 110.849 36.2285C110.827 36.3426 110.85 36.4612 110.915 36.5581C110.979 36.655 111.08 36.7222 111.194 36.7451C111.308 36.7679 111.427 36.7444 111.524 36.6799C112.447 36.2613 113.41 35.935 114.398 35.7058C114.495 35.6894 114.594 35.7058 114.68 35.7523C114.766 35.7988 114.834 35.8727 114.873 35.9623C114.913 36.0518 114.921 36.152 114.896 36.2467C114.872 36.3414 114.817 36.4253 114.739 36.485C114.669 36.556 114.622 36.6468 114.605 36.7452C114.588 36.8437 114.602 36.9449 114.645 37.0353C114.687 37.1257 114.756 37.2008 114.843 37.2505C114.93 37.3001 115.03 37.322 115.129 37.313C116.26 36.9718 117.417 36.7274 118.589 36.5824C118.698 36.5437 118.819 36.5501 118.924 36.6004C119.029 36.6506 119.11 36.7405 119.149 36.8503C119.188 36.9601 119.181 37.0808 119.131 37.1858C119.081 37.2909 118.991 37.3717 118.881 37.4104C113.883 40.4283 109.529 44.4001 106.067 49.0992C105.983 49.1832 105.936 49.2971 105.936 49.4158C105.936 49.5345 105.983 49.6484 106.067 49.7324C106.151 49.8163 106.265 49.8635 106.383 49.8635C106.502 49.8635 106.616 49.8163 106.7 49.7324C110.246 47.2062 114.013 45.0056 117.955 43.1574C118.003 43.1254 118.057 43.1032 118.114 43.092C118.17 43.0808 118.228 43.0809 118.285 43.0922C118.341 43.1035 118.395 43.1258 118.443 43.1579C118.491 43.19 118.532 43.2312 118.564 43.2792C118.596 43.3271 118.618 43.3809 118.63 43.4375C118.641 43.494 118.641 43.5522 118.629 43.6088C118.618 43.6653 118.596 43.7191 118.564 43.767C118.532 43.8149 118.49 43.856 118.442 43.888L117.858 44.4237C117.767 44.4823 117.701 44.5723 117.673 44.6763C117.645 44.7803 117.656 44.8911 117.704 44.9876C117.752 45.084 117.834 45.1593 117.935 45.199C118.035 45.2388 118.146 45.2402 118.247 45.203L122.291 44.2289C122.381 44.2148 122.474 44.2291 122.555 44.2698C122.636 44.3104 122.703 44.3754 122.746 44.4557C122.789 44.536 122.806 44.6276 122.794 44.7179C122.783 44.8082 122.743 44.8926 122.681 44.9594C121.577 45.8816 120.638 46.9851 119.904 48.2226C119.85 48.3092 119.827 48.4121 119.841 48.5134C119.854 48.6148 119.903 48.7082 119.978 48.7775C120.053 48.8469 120.15 48.8878 120.252 48.8932C120.355 48.8985 120.455 48.8681 120.537 48.807C126.013 45.405 131.766 42.4723 137.737 40.0404C137.853 40.0146 137.954 39.9436 138.018 39.8431C138.082 39.7427 138.104 39.6209 138.078 39.5046C138.052 39.3884 137.981 39.2872 137.88 39.2232C137.78 39.1593 137.658 39.1379 137.542 39.1637C135.556 39.4449 133.6 39.9012 131.695 40.5274C131.592 40.5855 131.469 40.6002 131.355 40.5683C131.241 40.5363 131.144 40.4603 131.086 40.357C131.028 40.2536 131.013 40.1314 131.045 40.0173C131.077 39.9031 131.153 39.8063 131.257 39.7482L131.987 39.2124C132.065 39.1527 132.12 39.0688 132.144 38.9741C132.169 38.8794 132.16 38.7792 132.121 38.6897C132.082 38.6001 132.014 38.5262 131.928 38.4797C131.842 38.4332 131.743 38.4168 131.646 38.4332L125.994 39.3585C125.885 39.3973 125.764 39.3908 125.659 39.3406C125.554 39.2904 125.473 39.2005 125.434 39.0907C125.395 38.9809 125.402 38.8602 125.452 38.7551C125.502 38.6501 125.592 38.5693 125.702 38.5306C128.577 36.9073 131.555 35.4755 134.618 34.2447C134.735 34.2253 134.839 34.1605 134.907 34.0646C134.976 33.9687 135.003 33.8496 134.984 33.7333C134.964 33.617 134.9 33.5133 134.804 33.4447C134.708 33.3762 134.589 33.3486 134.472 33.368C131.83 33.367 129.192 33.5624 126.579 33.9525C126.469 33.9912 126.349 33.9848 126.243 33.9345C126.138 33.8843 126.058 33.7944 126.019 33.6846C125.98 33.5748 125.986 33.4541 126.037 33.3491C126.087 33.244 126.177 33.1633 126.287 33.1245L130.087 31.2251C130.197 31.1863 130.287 31.1055 130.337 31.0005C130.387 30.8955 130.394 30.7748 130.355 30.665C130.316 30.5552 130.236 30.4653 130.13 30.4151C130.025 30.3648 129.905 30.3584 129.795 30.3971C127.996 30.7287 126.234 31.2343 124.533 31.9069C124.432 31.9441 124.32 31.9427 124.22 31.903C124.12 31.8632 124.037 31.788 123.989 31.6915C123.941 31.5951 123.93 31.4843 123.958 31.3802C123.987 31.2762 124.052 31.1863 124.143 31.1277C125.213 30.3541 126.375 29.7161 127.602 29.2282C127.684 29.1669 127.745 29.0814 127.775 28.9838C127.806 28.8863 127.805 28.7816 127.772 28.6846C127.74 28.5876 127.678 28.5033 127.595 28.4435C127.512 28.3837 127.412 28.3516 127.31 28.3516L125.166 28.7899Z" fill="#FFEFE5"/>
<g opacity="0.6">
<path d="M185.485 157.275C183.926 153.379 179.444 143.735 179.395 139.547C179.346 136.138 178.956 131.365 181.1 122.744C183.488 113.344 188.555 108.523 188.214 95.178C187.532 85.9731 182.416 77.2551 180.126 71.2646C178.956 68.0502 176.715 65.3228 174.425 62.7902C173.005 61.175 171.457 59.6765 169.796 58.3095C163.414 53.293 152.743 51.4423 146.945 45.6953L150.453 48.6662C156.982 53.1956 154.936 50.9066 158.152 53.1469C159.908 54.3109 161.555 55.6313 163.073 57.0919C165.411 59.5271 167.068 62.498 168.383 65.5663C172.135 74.1868 173.889 84.0249 171.258 93.0351C170.04 97.1749 167.896 101.022 167.263 105.26C166.629 109.497 167.896 114.513 171.745 116.413C172.433 116.729 173.151 116.973 173.889 117.143L172.525 119.238C172.33 120.455 172.184 121.234 172.135 121.38C171.161 124.108 170.625 125.179 169.455 127.809C168.382 130.26 167.145 132.635 165.752 134.92C165.655 138.914 166.191 142.907 166.532 147.096C167.117 154.742 169.358 159.077 170.479 160.879C171.599 162.681 173.646 164.678 176.764 167.064C184.511 171.204 186.07 170.279 188.311 170.863C188.701 170.327 188.701 170.62 189.042 168.964C189.968 164.532 186.313 159.32 185.485 157.275Z" fill="#BA6929"/>
</g>
<path d="M144.411 47.0086C144.659 48.1338 145.127 49.199 145.787 50.1434C146.448 51.0877 147.288 51.8926 148.26 52.5121C150.209 53.7784 152.499 54.4603 154.643 55.3856C158.248 56.9441 161.659 59.428 163.559 62.886C165.459 66.3439 165.752 69.8506 168.236 72.3344C169.747 73.8929 171.988 75.9872 172.914 77.8379C174.765 81.6368 174.863 84.4616 175.74 88.6014C179.199 105.94 179.345 107.839 173.109 121.233C172.573 122.84 168.919 132.97 168.334 133.749C163.949 139.935 161.025 142.857 157.42 146.071C154.691 148.458 153.717 150.162 152.158 151.429C148.065 154.887 142.365 155.13 137.785 154.741C135.202 154.497 131.256 154.741 128.917 152.987C127.553 152.013 123.314 148.507 122.096 147.338C116.931 142.467 115 143 109.72 131.801C106.894 127.369 107.625 126.103 105.53 120.648C104.31 117.221 103.652 113.619 103.581 109.982C103.581 108.326 102.168 104.82 102.022 103.115C101.681 99.8032 101.388 94.1536 102.509 91.9132C105.432 86.3123 108.599 82.1725 109.574 75.9385C110.743 68.6817 112.838 61.7171 118.442 56.9929C121.024 54.7525 123.46 53.9732 126.676 52.7069C129.891 51.4407 132.815 50.1744 135.495 49.1029C137.091 48.4515 138.572 47.547 139.88 46.4242C141.049 45.4014 141.975 43.502 141.731 41.9922C141.731 41.9922 143.875 44.9144 144.411 47.0086Z" fill="#F59F90"/>
<g opacity="0.5">
<path d="M146.992 44.8212C138.515 61.0394 129.696 58.4094 123.898 70.0008C123.362 71.0723 121.998 72.6795 120.974 73.2153C116.638 75.3582 112.594 73.1178 103.678 77.696C104.36 73.5562 105.237 69.4651 106.845 65.6662C108.453 61.8673 110.937 58.2633 114.348 55.8768C117.759 53.4904 120.731 52.6137 124.141 51.4935L145.58 44.3828" fill="#EC8277"/>
</g>
<path d="M125.458 82.4123L126.92 83.2889C127.341 83.5176 127.734 83.7955 128.089 84.1169C128.625 84.6104 129.099 85.1664 129.502 85.7728C130.567 87.0449 131.362 88.5194 131.841 90.1074C132.059 89.1718 132.085 88.2018 131.917 87.256C131.75 86.3101 131.392 85.4079 130.866 84.6039C129.697 82.7532 129.697 81.8278 128.869 81.5356C128.04 81.2434 125.166 81.146 124.143 82.0226" fill="#EC8277"/>
<path d="M137 127.5L125 129L127.5 131.5H147.5L150 129L137 127.5Z" fill="#FF6D62"/>
<path d="M123.021 128.337C123.5 127.5 123.98 128.091 124.5 128C125.496 127.825 126.611 127.717 127.601 127.412C128.235 127.217 128.868 126.535 129.891 126.194C130.915 125.854 131.597 125.269 132.62 125.172C133.607 125.049 134.605 125.049 135.592 125.172C136.177 125.318 136.615 125.805 137.492 125.805C138.369 125.805 138.759 125.22 139.246 125.074C140.614 124.677 142.076 124.763 143.388 125.318C143.984 125.68 144.603 126.006 145.239 126.292C146.56 127.043 147.708 127.215 148.5 127.5C150.035 128.053 150.591 128.003 151.622 127.802C152.42 127.302 152.777 127.5 152.889 127.802C153.376 129.117 150.647 128.873 149.332 129.068C148.016 129.263 146.652 129.555 145.142 129.312C144.236 129.097 143.342 128.837 142.462 128.532C140.708 128.045 138.856 129.214 137.102 128.922L135.397 128.386C132.961 127.85 130.525 129.896 128.04 129.604C127.601 129.506 126.919 129.652 126.432 129.506L125.019 128.971L123.021 128.337Z" fill="#D63942"/>
<path d="M122.877 128.588C125.118 129.172 126.482 129.513 128.431 129.854C129.443 130.048 130.471 130.146 131.501 130.146C134.424 130.146 137.786 130.146 140.904 130.049C144.023 129.951 146.849 130.098 149.626 129.075C150.357 128.831 151.965 129.075 152.598 128.539C151.867 129.172 150.747 129.318 150.162 129.951C149.577 130.585 148.115 131.9 147.726 132.63C146.703 134.335 144.754 135.26 142.853 135.893C141.346 136.4 139.767 136.663 138.176 136.673C135.545 136.867 131.891 137.062 129.649 135.65C128.215 134.565 126.922 133.305 125.8 131.9C124.777 130.682 122.877 128.588 122.877 128.588Z" fill="#FF6D62"/>
<path d="M152.157 128.542C151.688 128.775 151.17 128.892 150.647 128.883L149.234 129.078C148.409 129.175 147.579 129.224 146.749 129.224C145.541 129.203 144.343 129.007 143.192 128.639C142.191 128.363 141.139 128.33 140.123 128.542C138.918 128.817 137.665 128.8 136.468 128.493C135.539 128.299 134.586 128.25 133.642 128.347C132.619 128.493 131.645 128.883 130.622 129.126C129.587 129.393 128.509 129.442 127.455 129.272C126.675 129.175 125.895 128.834 125.165 128.688L124.5 128.347C124.359 128.311 123.5 128.001 123.5 128.001C123.5 128.001 123.251 127.841 123 128.001C122.533 128.298 122.29 128.639 122.533 128.737L126.236 129.662C128.38 130.149 130.475 129.808 132.522 129.224C133.039 129.048 133.583 128.966 134.13 128.98C134.752 129.01 135.372 129.092 135.981 129.224C137.107 129.443 138.265 129.443 139.392 129.224C140.056 129.151 140.725 129.151 141.389 129.224C142.071 129.37 142.754 129.272 143.387 129.419C144.522 129.67 145.687 129.752 146.846 129.662C147.821 129.613 148.795 129.467 149.77 129.37C150.744 129.272 151.976 129.133 152.999 128.5C153.194 128.354 153.097 128.305 152.902 128.257C152.63 128.252 152.395 128.41 152.157 128.542Z" fill="#D63942"/>
<path d="M146.361 80.66C152.695 81.0983 153.816 77.1534 159.906 77.3969C162.05 77.4456 167.848 79.345 169.456 80.66C169.846 80.5626 169.699 80.1243 169.505 79.8321C169.31 79.5398 165.753 77.056 164.437 76.3741C163.479 75.7917 162.468 75.3024 161.417 74.913C158.98 74.2312 156.934 74.913 152.062 76.0332C150.941 76.3254 148.602 76.715 147.141 77.2508C146.628 77.4603 146.175 77.7953 145.825 78.2248C145.143 79.1502 145.728 80.6113 146.361 80.66Z" fill="#C5524A"/>
<path d="M146.019 80.909C147.768 81.0255 149.524 80.7938 151.183 80.2272C152.547 79.7401 153.814 79.0096 155.13 78.4252C156.669 77.7813 158.339 77.5141 160.002 77.6459C161.53 77.892 163.031 78.2834 164.485 78.8148C165.995 79.3018 167.7 79.8376 168.967 80.8603C169.162 81.0551 169.552 80.909 169.747 80.8116C169.942 80.7142 170.039 79.6914 169.503 79.2531C168.967 78.8148 167.993 78.1329 167.262 77.6459C166.531 77.1589 165.703 76.6231 164.923 76.1848C163.96 75.5812 162.93 75.0909 161.854 74.7237C160.051 74.188 158.199 74.4315 156.397 74.8211L152.353 75.7465C151.134 76.0387 149.965 76.2335 148.747 76.5744C147.529 76.9153 146.067 77.2076 145.336 78.279C144.606 79.3505 144.898 80.7142 146.019 80.909C146.262 80.9577 147.188 80.5194 146.652 80.422C146.116 80.3246 146.067 79.6914 146.067 79.3505C146.022 79.0697 146.053 78.7819 146.156 78.5167C146.258 78.2514 146.43 78.0181 146.652 77.8407C147.529 77.1589 148.747 76.9641 149.77 76.7205C151.914 76.2822 154.058 75.7465 156.202 75.2594C158.345 74.7724 159.32 74.675 160.879 75.1133C162.438 75.5516 164.046 76.5744 165.459 77.4998C166.284 77.9903 167.081 78.5269 167.846 79.107C167.944 79.1557 169.6 80.3246 169.113 80.5681H169.942C168.87 79.6914 167.408 79.1557 166.141 78.6687C164.585 78.1115 162.989 77.672 161.366 77.3537C159.795 77.0772 158.183 77.1436 156.64 77.5485C155.197 77.9519 153.807 78.5241 152.499 79.2531C150.683 80.1436 148.672 80.5624 146.652 80.4707C146.457 80.4707 146.067 80.4707 145.921 80.6655C145.775 80.8603 145.775 80.8603 146.019 80.909Z" fill="#C5524A"/>
<path d="M108.406 80.5165C111.183 78.7632 112.743 78.5684 114.594 78.6658C116.446 78.7632 118.638 80.0295 119.71 80.273C125.07 81.5393 124.582 80.76 127.895 81.5393C127.99 81.5641 128.09 81.5599 128.182 81.5272C128.274 81.4946 128.354 81.435 128.412 81.3562C128.47 81.2774 128.503 81.1831 128.506 81.0855C128.509 80.9878 128.483 80.8914 128.431 80.8087C128.042 79.3963 127.262 79.2015 126.044 78.3736C124.826 77.5456 116.446 76.7177 115.52 76.4741C112.694 75.841 109.332 77.8378 108.747 78.4223L108.406 80.5165Z" fill="#C5524A"/>
<path d="M108.746 80.7113C110.5 79.6398 112.205 78.9092 114.3 79.0067C116.395 79.1041 117.808 80.2242 119.611 80.6626C121.208 81.0681 122.839 81.3289 124.483 81.4418L125.994 81.5392C126.676 81.6366 127.456 81.9776 128.138 81.8315C128.344 81.8252 128.543 81.7498 128.702 81.6174C128.861 81.485 128.971 81.3031 129.015 81.1009C129.004 80.6509 128.869 80.2126 128.625 79.8346C128.186 79.1041 127.407 78.7144 126.725 78.2761C126.043 77.8378 124.581 77.4968 123.412 77.2533L118.734 76.5715L116.785 76.328L115.616 76.1332C113.423 75.7435 111.133 76.5228 109.282 77.5943C108.795 77.8865 108.307 78.1787 108.161 78.7144L107.869 80.5652C107.82 81.0035 108.843 80.8574 108.941 80.4678L109.184 78.9579C109.168 78.7581 109.202 78.5573 109.282 78.3735C109.184 78.5683 109.233 78.4709 109.331 78.4222L109.72 78.13C111.279 77.1559 113.277 76.4741 115.129 76.815C116.98 77.1559 119.903 77.4481 122.291 77.8378C123.392 77.9308 124.474 78.1767 125.507 78.5683C126.178 78.9045 126.801 79.3305 127.358 79.8346C127.6 80.1813 127.797 80.5578 127.943 80.9548C128.04 81.1983 128.04 81.1496 127.748 81.1009L127.212 81.0035C126.211 80.8556 125.202 80.758 124.191 80.7113C122.531 80.6034 120.893 80.2759 119.319 79.7372C117.516 79.1041 115.859 78.2761 113.862 78.3248C111.864 78.3735 109.867 79.2015 108.064 80.3217C108.02 80.3365 107.981 80.3636 107.952 80.3997C107.923 80.4357 107.905 80.4793 107.9 80.5253C107.895 80.5713 107.903 80.6178 107.923 80.6594C107.944 80.7009 107.976 80.7358 108.015 80.76C108.21 80.9548 108.551 80.8087 108.746 80.7113Z" fill="#C5524A"/>
<path d="M175.399 101.653C175.447 105.257 175.788 109.64 175.155 112.952C174.765 114.803 174.619 116.702 174.034 118.456C173.772 119.121 173.56 119.804 173.401 120.501C173.276 121.249 173.326 122.016 173.547 122.741C173.937 123.618 176.324 122.011 176.714 121.086C178.371 116.702 178.907 111.394 179.93 106.475C180.466 103.845 181.148 101.312 181.781 98.7307C182.415 96.1494 181.781 87.7237 179.345 87.6263C178.224 87.5776 177.786 88.8926 177.396 90.4024C177.201 91.1817 177.153 92.1557 176.812 92.7402C176.47 93.3246 175.545 92.6915 175.301 91.7174C175.204 92.5454 174.911 93.2759 175.009 94.0552C175.009 94.0552 175.35 98.682 175.399 101.653Z" fill="#F79C88"/>
<path d="M145.972 32.9285C144.949 30.0063 139.93 22.0676 139.93 22.0676C138.079 21.1423 131.696 20.1195 122.244 22.165C108.309 25.2334 89.1607 41.5977 80.0982 62.1019C78.8702 64.9741 78.1609 68.0411 78.0032 71.1607C77.2236 85.3334 80.7316 99.7983 77.3698 113.533C72.5949 132.917 55.4931 146.407 44.8715 163.259C32.6908 182.545 29.134 206.167 29.5725 228.96C30.0597 255.698 36.1014 283.118 51.7414 304.791C47.1615 288.816 47.064 271.965 47.2589 255.357C47.5026 235.048 48.8668 212.936 62.1195 197.546C59.8782 204.852 57.5882 212.303 58.1242 219.95C58.8063 229.301 63.6786 237.775 68.4534 245.86C75.2747 257.354 82.0472 268.897 88.8197 280.391C88.2837 272.062 82.8755 264.854 80.6829 256.818C78.1981 247.759 79.9521 237.873 84.3372 229.544C88.7222 221.216 95.5922 214.446 103.242 208.991C109.819 204.316 114.984 198.325 121.22 193.163C125.411 189.656 127.749 186.296 128.919 182.984C135.058 172.805 129.698 156.489 122.097 147.333C118.882 143.534 117.5 144 109.478 131.358C108.504 129.507 107.091 122.932 104.411 112.315C102.901 106.13 101.39 97.9963 102.901 91.9083C103.68 89.0348 105.532 86.9406 106.555 85.4308C114.253 74.3751 114.156 65.5111 122.439 58.3517C125.411 55.7704 137.202 54.2119 139.93 52.9943C144.9 50.754 145.485 46.2732 146.946 45.6888C146.946 45.6888 147.141 36.1429 145.972 32.9285Z" fill="#FDC898"/>
<path d="M130.525 114.805C130.816 114.725 131.122 114.715 131.417 114.774C131.713 114.833 131.992 114.961 132.23 115.145C132.668 115.535 132.961 116.168 133.399 116.607C133.773 116.965 134.217 117.241 134.704 117.417C135.191 117.594 135.709 117.666 136.225 117.629C137.406 117.656 138.57 117.352 139.587 116.753C140.659 116.071 141.585 114.707 142.949 114.658C143.485 114.658 143.68 113.977 143.047 113.977C142.413 113.977 140.757 114.902 139.782 115.681C139.28 116.143 138.687 116.494 138.041 116.712C137.394 116.931 136.71 117.011 136.03 116.947C135.445 116.933 134.88 116.728 134.423 116.363C133.887 115.925 133.594 115.292 133.156 114.805C132.717 114.317 131.304 113.977 130.33 114.171C129.355 114.366 129.94 114.902 130.525 114.805Z" fill="#D63942"/>
<path d="M130.037 114.462C129.708 114.51 129.393 114.626 129.112 114.803C128.943 114.906 128.795 115.038 128.673 115.192C128.626 115.283 128.602 115.383 128.602 115.485C128.602 115.586 128.626 115.687 128.673 115.777C128.819 115.972 129.112 115.972 129.355 115.972C130.271 115.842 131.169 115.614 132.035 115.29C132.084 115.241 132.181 115.241 132.181 115.144C132.181 115.046 132.181 114.949 132.084 114.852C131.553 114.5 130.909 114.361 130.281 114.462H129.891" fill="#D63942"/>
<path d="M141.78 114.605C142.13 114.434 142.511 114.334 142.901 114.312C143.104 114.324 143.301 114.388 143.472 114.499C143.643 114.611 143.782 114.764 143.875 114.946C143.901 114.99 143.914 115.04 143.914 115.092C143.914 115.143 143.901 115.193 143.875 115.238C143.83 115.298 143.771 115.347 143.703 115.381C143.636 115.415 143.561 115.433 143.485 115.433L142.852 115.627L141.926 115.871C141.415 115.921 140.909 116.019 140.416 116.163C140.367 116.163 140.367 116.066 140.367 116.017L140.513 115.822C140.971 115.455 141.395 115.047 141.78 114.605Z" fill="#D63942"/>
<path d="M141.977 114.9L142.61 114.705C142.774 114.668 142.944 114.685 143.097 114.753C143.215 114.807 143.316 114.891 143.39 114.997C143.388 115.023 143.391 115.05 143.399 115.075C143.407 115.1 143.421 115.123 143.438 115.143H143.487C143.438 115.192 143.536 115.143 143.438 115.143H143.292C142.802 115.318 142.296 115.449 141.782 115.533C141.252 115.594 140.73 115.709 140.223 115.874H140.807C140.856 115.874 140.807 116.068 140.759 116.068C140.71 116.068 140.856 115.971 140.856 115.971L141.051 115.825L141.49 115.435L142.172 114.705C142.213 114.674 142.243 114.631 142.258 114.583C142.273 114.534 142.273 114.481 142.257 114.433C142.24 114.384 142.209 114.342 142.168 114.312C142.126 114.282 142.077 114.266 142.026 114.266C141.917 114.225 141.799 114.217 141.687 114.243C141.574 114.269 141.471 114.328 141.392 114.412L140.71 115.094C140.609 115.22 140.495 115.334 140.369 115.435C140.201 115.538 140.052 115.67 139.93 115.825C139.903 115.905 139.893 115.99 139.901 116.074C139.91 116.158 139.936 116.239 139.979 116.312C140.071 116.41 140.194 116.473 140.327 116.49C140.46 116.508 140.596 116.479 140.71 116.409L141.587 116.215C142.295 116.099 142.995 115.936 143.682 115.727C144.023 115.581 144.413 115.338 144.364 114.9C144.298 114.604 144.125 114.343 143.877 114.169C143.146 113.731 142.269 113.974 141.538 114.266C141.489 114.287 141.445 114.318 141.408 114.357C141.371 114.396 141.343 114.442 141.324 114.492C141.306 114.542 141.298 114.596 141.302 114.649C141.305 114.702 141.319 114.754 141.343 114.802C141.49 114.997 141.782 114.948 141.977 114.851V114.9Z" fill="#D63942"/>
<g opacity="0.35">
<path d="M112.498 127.897C113.482 125.986 114.156 123.931 114.496 121.809C115.031 117.767 113.862 113.724 112.742 109.828C112.4 108.513 112.011 107.198 111.182 106.175C110.354 105.152 108.99 104.373 107.723 104.714C106.456 105.055 105.872 106.029 105.482 107.101C105.198 108.197 105.132 109.339 105.287 110.461C105.4 112.555 105.66 114.638 106.066 116.695C106.602 119.763 107.431 122.929 109.331 125.364C110.155 126.457 111.18 127.383 112.352 128.092" fill="#EC8277"/>
<path d="M113.18 127.804C114.057 126.084 114.68 124.247 115.032 122.349C115.364 120.449 115.381 118.508 115.081 116.602C114.782 114.625 114.342 112.672 113.765 110.758C113.278 109.102 112.888 107.3 111.816 105.936C111.379 105.34 110.778 104.884 110.085 104.625C109.393 104.365 108.64 104.313 107.918 104.475C107.181 104.613 106.498 104.956 105.946 105.464C105.395 105.972 104.998 106.625 104.8 107.349C104.264 109.102 104.556 111.147 104.8 112.998C104.99 114.915 105.299 116.818 105.726 118.696C106.603 122.544 108.259 126.148 111.67 128.34C111.914 128.486 112.352 128.34 112.547 128.291C112.742 128.242 113.18 127.999 112.985 127.901C110.208 126.099 108.552 123.372 107.626 120.304C106.688 117.051 106.132 113.701 105.969 110.319C105.872 108.664 105.823 106.764 106.993 105.498C107.241 105.197 107.585 104.991 107.967 104.913C108.305 104.925 108.638 105.008 108.941 105.157C109.661 105.479 110.27 106.003 110.696 106.667C111.621 107.982 111.962 109.638 112.401 111.147C112.899 112.878 113.306 114.634 113.619 116.407C113.992 118.45 114.025 120.54 113.716 122.593C113.326 124.487 112.687 126.321 111.816 128.048C111.67 128.242 112.303 128.194 112.352 128.145C112.507 128.151 112.661 128.124 112.804 128.065C112.947 128.006 113.075 127.917 113.18 127.804Z" fill="#EC8277"/>
</g>
<g opacity="0.35">
<path d="M166.339 121.969C167.216 121.141 167.411 120.557 168.288 119.68C169.165 118.804 171.455 116.417 172.429 114.372C173.059 112.907 173.501 111.369 173.745 109.794L174.524 106.092C174.726 105.462 174.759 104.791 174.622 104.144C174.329 102.926 172.965 102.196 171.698 102.244C170.432 102.293 169.262 102.878 168.19 103.511C166.891 104.298 165.638 105.16 164.439 106.092C163.328 106.849 162.424 107.87 161.808 109.063C161.32 110.183 161.32 111.401 161.32 112.618V117.489C161.32 118.511 161.32 119.632 161.954 120.508C162.4 121.033 162.946 121.464 163.562 121.775C164.439 122.262 165.657 122.7 166.339 121.969Z" fill="#EC8277"/>
<path d="M166.874 121.969C167.458 121.336 167.946 120.606 168.53 119.972C169.115 119.339 169.846 118.609 170.479 117.878C171.802 116.492 172.83 114.851 173.5 113.057C174.182 111.108 174.475 108.965 174.913 106.969C175.108 106.043 175.449 105.02 175.254 104.095C175.17 103.739 175.009 103.406 174.782 103.12C174.554 102.834 174.266 102.601 173.939 102.439C172.477 101.611 170.723 101.952 169.261 102.634C167.488 103.521 165.807 104.581 164.243 105.8C162.879 106.871 161.514 108.04 161.027 109.745C160.786 110.666 160.687 111.618 160.735 112.569V115.833C160.735 117.878 160.394 120.216 162.294 121.531C164.194 122.846 165.51 123.284 166.874 121.969C167.069 121.726 166.679 121.677 166.533 121.677C166.397 121.672 166.262 121.696 166.137 121.746C166.011 121.796 165.897 121.872 165.802 121.969C165.363 122.408 164.145 121.58 163.804 121.336C163.052 121.005 162.457 120.393 162.148 119.631C161.941 118.954 161.859 118.244 161.904 117.537V114.664C161.904 112.959 161.709 111.06 162.245 109.355C162.781 107.65 163.999 106.774 165.266 105.848C166.641 104.778 168.108 103.833 169.651 103.024C171.015 102.39 172.769 102.244 173.744 103.608C173.951 103.966 174.08 104.364 174.122 104.775C174.164 105.187 174.118 105.602 173.987 105.995C173.841 106.822 173.646 107.65 173.5 108.478C173.11 110.134 172.818 111.839 172.282 113.446C171.574 115.19 170.531 116.778 169.213 118.122C168.579 118.804 167.897 119.437 167.312 120.167C166.85 120.801 166.346 121.403 165.802 121.969C165.558 122.164 165.948 122.261 166.094 122.261C166.376 122.239 166.646 122.138 166.874 121.969Z" fill="#EC8277"/>
</g>
<path d="M142.609 91.3763C141.745 90.3873 141.247 89.1326 141.196 87.821C141.05 86.6034 141.147 85.2397 142.073 84.4117C142.513 84.033 143.027 83.7509 143.583 83.5838L147.578 81.9766C146.604 82.9506 145.629 83.9734 144.704 85.0449C144.125 85.5878 143.676 86.2535 143.388 86.993C143.248 87.5004 143.183 88.0253 143.193 88.5515L143.047 91.9121L142.609 91.3763Z" fill="#EC8277"/>
<g opacity="0.5">
<path d="M109.477 131.361C108.552 129.51 107.09 122.935 104.41 112.318C102.9 106.133 101.389 97.9991 102.9 91.9112C103.679 89.0377 105.531 86.9435 106.554 85.4337C114.106 74.5728 115.178 71.9428 122.291 59.1825C122.145 58.5494 122.048 57.9162 121.902 57.2344H121.756L104.654 77.495C89.4522 95.4666 73.3736 115.825 74.1044 139.348C74.2993 145.339 75.3712 151.232 75.42 157.174C75.7123 182.792 70.304 182.548 60.5594 191.899C56.0769 196.185 52.1303 204.075 50.5225 208.702C48.3787 215.082 45.5527 241.333 45.504 248.103C45.4553 254.142 46.2836 273.575 46.2836 273.575L47.794 274.89C47.794 274.89 47.1606 261.594 47.2581 255.311C47.5017 235.002 48.8659 212.891 62.1186 197.5C59.8773 204.806 57.5873 212.257 58.1233 219.904C58.8054 229.255 63.6777 237.729 68.4526 245.814C75.2738 257.308 82.0463 268.851 88.8188 280.345C88.2828 272.016 82.8746 264.808 80.682 256.772C78.1972 247.713 79.9512 237.827 84.3363 229.498C88.7214 221.17 95.5913 214.4 103.241 208.946C109.818 204.27 114.983 198.28 121.22 193.117C125.41 189.61 127.748 186.25 128.918 182.938C135.057 172.759 129.697 156.443 122.097 147.287C118.881 143.537 116.5 142.5 109.477 131.361Z" fill="#F4B98B"/>
</g>
<g opacity="0.35">
<path d="M93.3993 163.407C96.5175 178.651 72.2535 185.762 62.1191 197.548C59.8778 204.854 57.5879 212.305 58.1238 219.952C58.8059 229.303 63.6782 237.777 68.4531 245.862C75.2743 257.356 82.0468 268.899 88.8193 280.393C88.2833 272.065 82.8751 264.856 80.6826 256.82C78.1977 247.762 79.9517 237.875 84.3368 229.546C88.7219 221.218 95.5918 214.448 103.241 208.994C108.601 205.195 113.035 200.519 117.81 196.136L118.102 194.87C123.023 168.765 90.6221 149.965 93.3993 163.407Z" fill="#F4B98B"/>
</g>
<g opacity="0.5">
<path d="M146.945 45.6905C146.983 45.3998 146.999 45.1068 146.994 44.8138C146.522 44.6667 146.025 44.617 145.532 44.6677L144.607 45.3495C138.078 49.3919 129.99 49.7328 122.438 51.2426C113.424 52.996 104.654 56.6 97.589 62.4444C90.5242 68.2888 85.2621 76.5197 83.8004 85.5786C83.0209 90.4489 83.3619 95.4167 83.9953 100.336C85.5608 112.612 89.0637 124.563 94.3733 135.743C100.659 148.942 109.624 161.799 109.477 176.41C109.38 188.002 103.485 198.668 97.4429 208.555C95.3478 212.061 93.0091 215.665 89.3549 217.516C90.5844 217.653 91.8208 217.718 93.0578 217.711C96.1641 214.485 99.5743 211.565 103.241 208.993C109.819 204.318 114.983 198.327 121.22 193.164C125.41 189.658 127.749 186.297 128.918 182.985C135.057 172.806 129.698 156.491 122.097 147.335C118.881 143.536 116.542 145.192 109.477 131.36C108.503 129.509 107.09 122.934 104.41 112.317C102.9 106.131 101.389 97.9979 102.9 91.91C103.679 89.0365 105.531 86.9423 106.554 85.4325C114.252 74.3768 117.907 63.5159 122.438 58.3534C125.02 55.3824 137.201 54.2136 139.929 52.996C144.899 50.7556 145.484 46.2749 146.945 45.6905Z" fill="#F4B98B"/>
</g>
<g opacity="0.75">
<path d="M123.168 148.317C120.001 144.518 116.5 143 109.477 131.368C108.503 129.518 106.992 122.602 104.312 111.936C102.899 106.043 101.535 98.8346 102.704 92.8441C102.656 92.6493 104.653 87.8276 104.605 87.6328L101.827 91.8213L99.3426 96.3507C99.099 98.5911 99.0015 100.831 98.9041 103.072C98.6848 106.593 98.7336 110.126 99.0503 113.64C100.609 126.742 109.331 137.749 116.883 148.609C123.899 158.691 130.379 170.477 129.161 182.507C134.91 172.328 130.672 157.327 123.168 148.317Z" fill="#C5524A"/>
</g>
<g opacity="0.3">
<path d="M146.946 45.6958C145.826 45.6471 143.633 49.4946 141.197 50.3713C138.761 51.248 136.227 51.4915 133.742 52.1246C132.037 52.563 130.38 53.1474 128.772 53.7318C127.534 54.1207 126.341 54.6433 125.216 55.2904C123.218 56.5079 121.805 58.4561 120.636 60.5016C119.466 62.5472 118.638 64.7388 117.469 66.7843C118.638 64.8362 119.856 62.9368 121.123 61.0861C122.061 59.8723 123.159 58.791 124.387 57.8716C126.141 56.654 127.749 56.5566 129.844 56.1183C133.109 55.5665 136.32 54.7355 139.443 53.6344C141.164 53.0704 142.675 52.0011 143.779 50.5661C144.047 50.0585 144.374 49.5843 144.754 49.1537C145.728 48.1309 147.141 47.0108 146.946 45.6958Z" fill="#BA6929"/>
</g>
<path d="M130.805 90.9863C131.3 90.0781 125.71 84.5473 120.623 84.3045C115.537 84.0617 112.145 87.2185 112.116 88.152C112.057 90.0182 113.823 92.8082 120.438 93.0219C124.244 92.8403 130.375 91.7765 130.805 90.9863Z" fill="url(#paint0_linear_1708_10568)"/>
<path d="M123.824 88.9908C124.272 86.5652 122.785 84.244 120.503 83.8061C118.222 83.3683 116.009 84.9796 115.562 87.4051C115.115 89.8306 116.602 92.1518 118.883 92.5897C121.165 93.0276 123.377 91.4163 123.824 88.9908Z" fill="url(#paint1_linear_1708_10568)"/>
<path d="M121.068 92.5023C123.117 91.6659 124.163 89.2368 123.405 87.0769C122.646 84.9171 120.371 83.8443 118.321 84.6807C116.272 85.5172 115.226 87.9462 115.984 90.1061C116.743 92.266 119.019 93.3388 121.068 92.5023Z" fill="url(#paint2_linear_1708_10568)"/>
<path style="mix-blend-mode:multiply" d="M119.459 90.4381C120.414 90.559 121.292 89.8349 121.42 88.8209C121.549 87.8068 120.879 86.8867 119.924 86.7658C118.969 86.6449 118.091 87.3689 117.963 88.383C117.834 89.3971 118.504 90.3171 119.459 90.4381Z" fill="url(#paint3_linear_1708_10568)"/>
<path d="M122.39 87.7812C122.015 87.9751 123.341 88.4736 124.476 88.3583C125.493 88.2557 126.119 87.7554 126.067 87.6149C126.015 87.4744 123.874 87.022 122.39 87.7812Z" fill="white"/>
<path d="M121.539 87.8229C121.201 87.5568 120.69 87.6328 120.605 87.852C120.52 88.0712 120.909 88.5033 121.157 88.4798C121.404 88.4562 121.727 87.9717 121.539 87.8229Z" fill="white"/>
<path d="M127.91 87.6034C127.91 87.6034 130.706 91.6603 126.246 91.7175C126.246 91.7175 130.468 92.3481 131.2 91.3184C131.566 90.8035 127.91 87.6034 127.91 87.6034Z" fill="#EC8277"/>
<path d="M130.722 90.7023C130.722 90.7023 127.972 82.3786 120.545 82.5725C113.119 82.7663 112.581 87.3855 112.581 87.3855C112.581 87.3855 114.601 84.4322 120.35 84.5647C125.733 84.6884 130.722 90.7023 130.722 90.7023Z" fill="#421D13"/>
<path d="M112.116 88.1638L111.274 89.3854C111.274 89.3854 113.237 93.4742 119.302 93.6185C125.367 93.7627 127.873 92.4352 129.302 92.1812C129.469 92.1514 129.916 91.4569 129.916 91.4569C129.916 91.4569 128.555 91.2766 126.82 91.6265C122.184 92.561 113.662 94.0124 112.116 88.1638Z" fill="#EC8277"/>
<path d="M130.723 90.696C130.723 90.696 125.539 84.6928 119.875 84.5702C111.847 85.382 111.527 89.6435 111.527 89.6435L107.964 89.0971C107.964 89.0971 111.086 85.7682 112.33 84.9615C114.475 83.5706 115.43 83.1434 118.299 82.6422C124.744 81.5162 128.082 87.1243 130.723 90.696Z" fill="#4E1B3D"/>
<g style="mix-blend-mode:multiply" opacity="0.6">
<path d="M130.395 89.9932C130.395 89.9932 121.678 82.908 112.432 88.5612L111.274 89.3856C111.274 89.3856 112.272 85.1963 119.558 84.3078C125.48 83.8951 129.679 89.0479 130.395 89.9932Z" fill="#D177B8"/>
</g>
<path d="M146.561 90.174C146.149 89.2032 152.327 84.1298 157.486 84.3792C162.646 84.6285 165.766 88.1662 165.705 89.1173C165.584 91.0189 163.532 93.6809 156.832 93.253C153.007 92.6974 146.919 91.0187 146.561 90.174Z" fill="url(#paint4_linear_1708_10568)"/>
<path d="M152.74 88.7256C152.522 86.218 154.247 84.005 156.593 83.7826C158.939 83.5603 161.017 85.4129 161.235 87.9205C161.453 90.4281 159.727 92.6412 157.381 92.8635C155.035 93.0858 152.957 91.2332 152.74 88.7256Z" fill="url(#paint5_linear_1708_10568)"/>
<path d="M155.185 92.5587C153.196 91.5091 152.374 88.9396 153.349 86.8194C154.323 84.6992 156.724 83.8313 158.713 84.8809C160.701 85.9304 161.523 88.5 160.549 90.6202C159.574 92.7404 157.173 93.6083 155.185 92.5587Z" fill="url(#paint6_linear_1708_10568)"/>
<path style="mix-blend-mode:multiply" d="M157.007 90.6265C156.031 90.6563 155.214 89.8351 155.182 88.7924C155.151 87.7498 155.916 86.8804 156.892 86.8507C157.867 86.821 158.684 87.6421 158.716 88.6848C158.747 89.7275 157.982 90.5968 157.007 90.6265Z" fill="url(#paint7_linear_1708_10568)"/>
<path d="M157.431 87.0152C157.071 87.2488 158.458 87.626 159.594 87.3981C160.61 87.1948 161.194 86.6254 161.128 86.4877C161.062 86.35 158.857 86.0992 157.431 87.0152Z" fill="white"/>
<path d="M156.575 87.136C156.208 86.8987 155.699 87.0258 155.635 87.2567C155.57 87.4877 156.005 87.8887 156.253 87.8406C156.5 87.7926 156.779 87.2688 156.575 87.136Z" fill="white"/>
<path d="M149.809 87.0194C149.809 87.0194 146.594 90.868 151.092 91.3611C151.092 91.3611 146.769 91.5899 146.129 90.4725C145.809 89.9138 149.809 87.0194 149.809 87.0194Z" fill="#EC8277"/>
<path d="M146.67 89.8927C146.67 89.8927 150.251 81.7053 157.731 82.6264C165.211 83.5475 165.308 88.2924 165.308 88.2924C165.308 88.2924 163.553 85.0952 157.736 84.6693C152.288 84.27 146.67 89.8927 146.67 89.8927Z" fill="#421D13"/>
<path d="M165.703 89.1226L166.435 90.4458C166.435 90.4458 164.058 94.408 157.921 93.963C151.783 93.5181 149.381 91.9253 147.963 91.5278C147.796 91.4812 147.413 90.7322 147.413 90.7322C147.413 90.7322 148.804 90.6818 150.522 91.2063C155.113 92.6078 163.578 94.9133 165.703 89.1226Z" fill="#EC8277"/>
<path d="M146.671 89.8934C146.671 89.8934 152.485 84.3005 158.216 84.7283C166.243 86.3357 166.154 90.696 166.154 90.696L169.805 90.4885C169.805 90.4885 166.974 86.8023 165.796 85.8615C163.765 84.2394 162.842 83.7124 159.993 82.9234C153.594 81.1511 149.682 86.5225 146.671 89.8934Z" fill="#4E1B3D"/>
<g style="mix-blend-mode:multiply" opacity="0.6">
<path d="M147.071 89.2041C147.071 89.2041 156.557 82.8566 165.346 89.5011L166.437 90.4515C166.437 90.4515 165.833 86.0984 158.562 84.4854C152.623 83.4886 147.885 88.3136 147.071 89.2041Z" fill="#D177B8"/>
</g>
<path d="M139.215 117.69C140.375 117.2 141.666 117.118 142.859 116.693C143.051 116.64 143.23 116.545 143.382 116.415C143.692 116.089 143.676 115.517 143.463 115.108C143.039 114.357 141.993 114.062 141.274 114.504C140.954 114.739 140.682 115.033 140.473 115.37C140.009 116.047 139.594 116.757 139.231 117.494" fill="#603030"/>
<path d="M129.047 115.605C129.055 115.838 129.126 116.066 129.254 116.269C129.383 116.472 129.564 116.644 129.783 116.77C130.227 117.006 130.709 117.176 131.213 117.275C132.312 117.52 133.426 117.708 134.549 117.838C134.744 117.857 135.004 117.838 135.047 117.663C135.045 117.6 135.023 117.539 134.982 117.488L133.942 115.469C133.827 115.226 133.689 114.992 133.531 114.77C133.238 114.429 132.848 114.165 132.402 114.008C131.955 113.851 131.469 113.805 130.996 113.877C130.065 114.013 129.588 114.653 129.09 115.391L129.047 115.605Z" fill="#603030"/>
<path d="M131.047 114.262C131.945 114.262 132.681 114.507 133.171 115.275C133.661 116.043 133.727 116.647 134.184 117.252C135.066 118.412 137.207 118.935 138.482 118.232C139.756 117.53 139.887 116.239 140.786 115.079C140.949 114.883 141.112 114.67 141.358 114.588C141.897 114.376 143.09 114.768 143.384 115.275C143.678 115.781 143.596 116.549 144.332 116.696C144.707 116.762 145.132 116.549 145.426 116.321C146.064 115.847 146.341 115.34 146.374 114.588C146.407 113.837 146.26 109.882 145.884 109C145.9 109.768 145.868 113.984 144.021 113.771C142.73 113.624 143.482 111.827 141.733 112.007C141.527 112.011 141.325 112.062 141.141 112.155C140.957 112.248 140.796 112.382 140.671 112.546C139.92 113.559 138.514 114.507 136.897 114.507C135.834 114.507 134.674 114.36 133.874 113.379C133.547 113.003 133.187 112.268 132.191 112.219C130.704 112.137 130.605 113.608 129.658 113.608C129.02 113.624 127.435 113.379 126.929 111.288C126.814 110.863 126.831 110.013 126.651 109.605C126.341 111.304 126.439 115.373 127.615 116.141C127.803 116.288 128.033 116.37 128.272 116.376C128.51 116.382 128.744 116.311 128.939 116.174C129.658 115.683 130.491 114.262 131.047 114.262Z" fill="#D1655A"/>
</g>
</g>
<defs>
<linearGradient id="paint0_linear_1708_10568" x1="122.115" y1="93.3545" x2="120.397" y2="83.751" gradientUnits="userSpaceOnUse">
<stop stop-color="#EEE2FF"/>
<stop offset="1" stop-color="#BDC9FB"/>
</linearGradient>
<linearGradient id="paint1_linear_1708_10568" x1="121.056" y1="92.6667" x2="119.087" y2="84.0571" gradientUnits="userSpaceOnUse">
<stop stop-color="#471F4B"/>
<stop offset="1" stop-color="#310A39"/>
</linearGradient>
<linearGradient id="paint2_linear_1708_10568" x1="120.158" y1="92.8873" x2="118.326" y2="84.7259" gradientUnits="userSpaceOnUse">
<stop stop-color="#6A8487"/>
<stop offset="1" stop-color="#083039"/>
</linearGradient>
<linearGradient id="paint3_linear_1708_10568" x1="119.822" y1="90.2913" x2="119.026" y2="86.692" gradientUnits="userSpaceOnUse">
<stop stop-color="#A79ABD"/>
<stop offset="0.99" stop-color="#724A60"/>
</linearGradient>
<linearGradient id="paint4_linear_1708_10568" x1="155.107" y1="93.4273" x2="157.802" y2="83.8484" gradientUnits="userSpaceOnUse">
<stop stop-color="#EEE2FF"/>
<stop offset="1" stop-color="#BDC9FB"/>
</linearGradient>
<linearGradient id="paint5_linear_1708_10568" x1="155.18" y1="92.7298" x2="158.033" y2="84.1869" gradientUnits="userSpaceOnUse">
<stop stop-color="#471F4B"/>
<stop offset="1" stop-color="#310A39"/>
</linearGradient>
<linearGradient id="paint6_linear_1708_10568" x1="156.066" y1="93.0385" x2="158.735" y2="84.9367" gradientUnits="userSpaceOnUse">
<stop stop-color="#6A8487"/>
<stop offset="1" stop-color="#083039"/>
</linearGradient>
<linearGradient id="paint7_linear_1708_10568" x1="156.654" y1="90.4421" x2="157.819" y2="86.8679" gradientUnits="userSpaceOnUse">
<stop stop-color="#A79ABD"/>
<stop offset="0.99" stop-color="#724A60"/>
</linearGradient>
<clipPath id="clip0_1708_10568">
<rect width="232" height="229" fill="white" transform="translate(18.5 21)"/>
</clipPath>
</defs>
</svg>
