<svg width="80" height="80" viewBox="0 0 80 80" fill="none" xmlns="http://www.w3.org/2000/svg">
<rect width="80" height="80" fill="white"/>
<path d="M22.0974 31.1958C21.6894 31.1885 21.2843 31.2649 20.9071 31.4204C20.5299 31.5759 20.1886 31.8072 19.9042 32.0998C19.6138 32.3795 19.3838 32.7158 19.2283 33.0879C19.0728 33.4599 18.9952 33.8599 19.0002 34.2631V47.1842C18.9973 47.5914 19.0754 47.9951 19.2299 48.3719C19.3844 48.7487 19.6122 49.0911 19.9001 49.379C20.188 49.667 20.5303 49.895 20.907 50.0495C21.2838 50.2041 21.6875 50.2823 22.0947 50.2795C22.5007 50.2876 22.904 50.2115 23.2792 50.0559C23.6543 49.9003 23.9931 49.6686 24.2743 49.3755C24.5622 49.0884 24.7891 48.746 24.9413 48.369C25.0936 47.992 25.168 47.588 25.1602 47.1815V34.2568C25.1654 33.8535 25.0879 33.4535 24.9324 33.0814C24.7769 32.7093 24.5468 32.3731 24.2562 32.0935C23.9764 31.8047 23.6407 31.5761 23.2695 31.4218C22.8982 31.2674 22.4994 31.1905 22.0974 31.1958Z" fill="#A4C639"/>
<path d="M46.9789 19.5975L49.1123 15.6623C49.251 15.402 49.2 15.2016 48.9596 15.0612C48.6992 14.94 48.4985 15.0015 48.3593 15.242L46.196 19.2079C44.2915 18.375 42.2354 17.945 40.1567 17.945C38.0781 17.945 36.0219 18.375 34.1175 19.2079L31.9541 15.2411C31.8131 15 31.6127 14.9397 31.353 15.0603C31.1125 15.2013 31.0628 15.4002 31.2029 15.6614L33.3364 19.5966C31.1728 20.6995 29.45 22.2363 28.1681 24.2071C26.9018 26.1283 26.2327 28.3815 26.2453 30.6825H54.0374C54.0497 28.3815 53.3803 26.1283 52.1137 24.2071C50.8402 22.2432 49.0683 20.6525 46.9789 19.5975ZM34.6427 25.3217C34.5359 25.4328 34.4075 25.5208 34.2654 25.5804C34.1233 25.6399 33.9705 25.6697 33.8164 25.668C33.6641 25.6706 33.5129 25.6412 33.3727 25.5815C33.2325 25.5219 33.1065 25.4333 33.0028 25.3217C32.791 25.0988 32.6729 24.803 32.6729 24.4955C32.6729 24.1879 32.791 23.8922 33.0028 23.6692C33.1066 23.5578 33.2327 23.4694 33.3728 23.4099C33.513 23.3504 33.6642 23.3211 33.8164 23.3239C34.0481 23.3234 34.2747 23.3918 34.4674 23.5204C34.6601 23.649 34.8102 23.8319 34.8988 24.046C34.9873 24.2601 35.0102 24.4957 34.9646 24.7228C34.919 24.9499 34.807 25.1584 34.6427 25.3217ZM47.3061 25.3217C47.2026 25.4336 47.0766 25.5223 46.9364 25.582C46.7962 25.6417 46.6449 25.671 46.4925 25.668C46.1965 25.6462 45.9198 25.5133 45.7178 25.2959C45.5157 25.0785 45.4035 24.7927 45.4035 24.4959C45.4035 24.1992 45.5157 23.9134 45.7178 23.696C45.9198 23.4786 46.1965 23.3456 46.4925 23.3239C46.6448 23.3211 46.7959 23.3504 46.9361 23.4099C47.0763 23.4694 47.2023 23.5578 47.3061 23.6692C47.5186 23.8918 47.6371 24.1877 47.6371 24.4955C47.6371 24.8032 47.5186 25.0991 47.3061 25.3217Z" fill="#A4C639"/>
<path d="M26.3673 51.776C26.3641 52.2108 26.4475 52.6419 26.6124 53.0443C26.7773 53.4466 27.0206 53.8122 27.328 54.1197C27.6355 54.4272 28.0009 54.6706 28.4032 54.8356C28.8055 55.0006 29.2366 55.0841 29.6714 55.0811H31.8953L31.9261 61.9019C31.9186 62.31 31.995 62.7152 32.1505 63.0926C32.306 63.47 32.5373 63.8115 32.8301 64.0959C33.1097 64.3866 33.4459 64.6167 33.818 64.7722C34.1901 64.9277 34.5901 65.0052 34.9934 64.9999C35.4006 65.0027 35.8043 64.9245 36.181 64.7699C36.5578 64.6153 36.9001 64.3874 37.188 64.0994C37.4759 63.8114 37.7037 63.4691 37.8582 63.0923C38.0126 62.7155 38.0907 62.3118 38.0878 61.9046V55.082H42.2336V61.9019C42.2336 62.7226 42.5597 63.5096 43.14 64.09C43.7203 64.6703 44.5074 64.9963 45.3281 64.9963C46.1488 64.9963 46.9359 64.6703 47.5162 64.09C48.0965 63.5096 48.4225 62.7226 48.4225 61.9019V55.082H50.6762C51.1085 55.0809 51.5363 54.9945 51.9351 54.8276C52.3339 54.6608 52.6958 54.4168 53.0001 54.1097C53.3043 53.8026 53.5449 53.4384 53.708 53.0381C53.8711 52.6378 53.9536 52.2092 53.9506 51.7769V31.7656H26.3673V51.776Z" fill="#A4C639"/>
<path d="M58.2125 31.1959C57.8105 31.1907 57.4117 31.267 57.0401 31.4202C56.6684 31.5734 56.3317 31.8003 56.0501 32.0872C55.757 32.368 55.5254 32.7065 55.3698 33.0814C55.2142 33.4562 55.138 33.8592 55.1461 34.265V47.1843C55.1387 47.5924 55.2151 47.9977 55.3706 48.3751C55.5261 48.7525 55.7573 49.0939 56.0501 49.3783C56.3295 49.6689 56.6656 49.8991 57.0376 50.0546C57.4095 50.2101 57.8094 50.2876 58.2125 50.2824C58.6199 50.2851 59.0239 50.2069 59.4008 50.0521C59.7777 49.8973 60.1201 49.6692 60.4081 49.3809C60.696 49.0926 60.9238 48.75 61.0781 48.3729C61.2324 47.9958 61.3102 47.5917 61.3069 47.1843V34.2569C61.3148 33.8511 61.2386 33.4481 61.083 33.0733C60.9274 32.6985 60.6959 32.36 60.4029 32.0791C60.1162 31.7919 59.7743 31.5656 59.3979 31.4139C59.0215 31.2621 58.6183 31.1879 58.2125 31.1959Z" fill="#A4C639"/>
</svg>
