<svg width="80" height="80" viewBox="0 0 80 80" fill="none" xmlns="http://www.w3.org/2000/svg">
<rect width="80" height="80" fill="white"/>
<path d="M47.9816 24.193C47.6193 24.0909 47.2852 23.9074 47.0048 23.6564C46.7243 23.4055 46.5049 23.0937 46.3633 22.7451C46.2242 22.4013 46.1671 22.0299 46.1967 21.6603C46.2263 21.2906 46.3416 20.933 46.5336 20.6157L47.3002 19.4233L46.0226 18.1457L44.8302 18.9123C44.4977 19.1055 44.1258 19.2211 43.7424 19.2506C43.359 19.2801 42.9738 19.2227 42.6157 19.0826C42.2715 18.948 41.9665 18.7294 41.7285 18.4467C41.4905 18.1641 41.327 17.8264 41.2529 17.4643L40.9122 16.1016H39.1236L38.7829 17.4643C38.7088 17.8264 38.5453 18.1641 38.3072 18.4467C38.0692 18.7294 37.7642 18.948 37.4201 19.0826C37.0764 19.2217 36.7049 19.2788 36.3353 19.2492C35.9657 19.2196 35.608 19.1042 35.2908 18.9123L34.0983 18.1457L32.7356 19.3381L33.5021 20.5306C33.7335 20.8309 33.8728 21.192 33.9031 21.57C33.9333 21.9479 33.8532 22.3266 33.6725 22.6599C33.5309 23.0086 33.3114 23.3203 33.031 23.5712C32.7505 23.8222 32.4164 24.0057 32.0542 24.1078L30.6914 24.5337V26.2372L32.0542 26.5779C32.4162 26.6519 32.7539 26.8155 33.0366 27.0535C33.3193 27.2915 33.5378 27.5965 33.6725 27.9406C33.8532 28.274 33.9333 28.6526 33.9031 29.0306C33.8728 29.4085 33.7335 29.7696 33.5021 30.07L32.7356 31.3476L34.0983 32.6252L35.2908 31.8586C35.608 31.6666 35.9657 31.5513 36.3353 31.5217C36.7049 31.4921 37.0764 31.5491 37.4201 31.6882C37.775 31.8304 38.087 32.062 38.3258 32.3605C38.5646 32.6591 38.7221 33.0143 38.7829 33.3917L39.1236 34.7545H40.9122L41.2529 33.3917C41.3137 33.0143 41.4711 32.6591 41.71 32.3605C41.9488 32.062 42.2608 31.8304 42.6157 31.6882C42.9738 31.5482 43.359 31.4907 43.7424 31.5202C44.1258 31.5497 44.4977 31.6654 44.8302 31.8586L46.0226 32.6252L47.3002 31.3476L46.5336 30.1551C46.3416 29.8379 46.2263 29.4803 46.1967 29.1106C46.1671 28.741 46.2242 28.3695 46.3633 28.0258C46.4979 27.6817 46.7165 27.3767 46.9992 27.1387C47.2818 26.9006 47.6195 26.7371 47.9816 26.663L49.3443 26.3223V24.5337L47.9816 24.193Z" fill="#2892FF"/>
<path d="M33.0764 64.0579L29.8398 47.875H50.2814L47.0448 64.0579H33.0764Z" fill="#66C3CD"/>
<path d="M52.4102 43.5312V47.8751H50.2809H29.8393H27.71V43.5312H40.0601H52.4102Z" fill="#66C3CD"/>
<path d="M49.7695 36.8064L46.0219 40.554C45.6317 40.9588 45.1651 41.2823 44.6492 41.5059C44.1333 41.7294 43.5782 41.8486 43.016 41.8565C42.4538 41.8644 41.8956 41.7609 41.3736 41.552C40.8516 41.3431 40.3761 41.0328 39.9746 40.6392L43.7222 36.9768C44.5103 36.1678 45.5824 35.6976 46.7113 35.6658C47.8403 35.634 48.9372 36.0431 49.7695 36.8064Z" fill="#66C3CD"/>
<path d="M40.0605 40.4669C39.6663 40.858 39.198 41.1665 38.6831 41.3744C38.1681 41.5822 37.6168 41.6851 37.0616 41.6772C36.5063 41.6693 35.9582 41.5506 35.4494 41.3282C34.9406 41.1057 34.4813 40.784 34.0984 40.3818L30.2656 36.6342C31.0798 35.8228 32.1824 35.3672 33.3319 35.3672C34.4813 35.3672 35.5839 35.8228 36.3981 36.6342L40.0605 40.4669Z" fill="#66C3CD"/>
<path d="M40.0592 22.6657C40.4133 22.6655 40.7637 22.7365 41.0897 22.8745C41.4158 23.0125 41.7107 23.2146 41.957 23.4689C42.2034 23.7232 42.396 24.0244 42.5236 24.3546C42.6512 24.6849 42.711 25.0374 42.6996 25.3912C42.6996 26.0915 42.4214 26.7631 41.9263 27.2582C41.4311 27.7534 40.7595 28.0316 40.0592 28.0316C39.359 28.0316 38.6874 27.7534 38.1922 27.2582C37.6971 26.7631 37.4189 26.0915 37.4189 25.3912C37.3948 25.0343 37.4459 24.6764 37.5689 24.3405C37.692 24.0046 37.8841 23.6983 38.133 23.4414C38.3819 23.1844 38.682 22.9826 39.0138 22.849C39.3456 22.7154 39.7018 22.6529 40.0592 22.6657Z" fill="white"/>
<path d="M40.0601 29.1429C39.0662 29.1429 38.113 28.7481 37.4101 28.0453C36.7073 27.3424 36.3125 26.3892 36.3125 25.3953C36.3123 24.3934 36.7044 23.4312 37.4048 22.7148C38.1053 21.9984 39.0584 21.5848 40.0601 21.5625C41.0766 21.5625 42.0515 21.9663 42.7703 22.6851C43.4891 23.4039 43.8929 24.3788 43.8929 25.3953C43.8706 26.397 43.457 27.3501 42.7406 28.0506C42.0242 28.7511 41.062 29.1432 40.0601 29.1429ZM40.0601 23.6918C39.6233 23.7137 39.2116 23.9028 38.9103 24.2199C38.609 24.537 38.4413 24.9579 38.4418 25.3953C38.4295 25.611 38.4629 25.827 38.5398 26.0289C38.6168 26.2309 38.7355 26.4142 38.8884 26.567C39.0412 26.7199 39.2246 26.8387 39.4265 26.9156C39.6284 26.9926 39.8444 27.0259 40.0601 27.0136C40.2759 27.0259 40.4918 26.9926 40.6937 26.9156C40.8957 26.8387 41.0791 26.7199 41.2319 26.567C41.3847 26.4142 41.5035 26.2309 41.5804 26.0289C41.6574 25.827 41.6908 25.611 41.6784 25.3953C41.679 24.9579 41.5112 24.537 41.21 24.2199C40.9087 23.9028 40.497 23.7137 40.0601 23.6918Z" fill="#00007E"/>
<path d="M40.9119 35.7823H39.1233C38.8793 35.7858 38.6421 35.7018 38.4547 35.5456C38.2672 35.3893 38.1418 35.1712 38.1012 34.9306L37.7605 33.5678C37.7375 33.3541 37.6527 33.1517 37.5166 32.9854C37.3805 32.819 37.1989 32.6958 36.994 32.6309C36.8208 32.5369 36.6242 32.4949 36.4277 32.51C36.2313 32.5251 36.0434 32.5967 35.8867 32.7161L34.6943 33.5678C34.4644 33.6905 34.2024 33.7399 33.9436 33.7095C33.6848 33.679 33.4415 33.5702 33.2463 33.3975L31.9687 32.0347C31.8033 31.8529 31.6982 31.6243 31.6677 31.3803C31.6372 31.1364 31.6828 30.889 31.7984 30.672L32.5649 29.4795C32.6615 29.3133 32.7194 29.1274 32.7341 28.9356C32.7489 28.7439 32.7202 28.5513 32.6501 28.3723C32.476 28.0163 32.1707 27.7415 31.7984 27.6057L30.4356 27.265C30.195 27.2244 29.9769 27.099 29.8207 26.9116C29.6645 26.7241 29.5805 26.4869 29.5839 26.2429V24.5395C29.5588 24.2813 29.6329 24.0232 29.7911 23.8176C29.9492 23.612 30.1796 23.4743 30.4356 23.4322L31.7984 23.0916C31.9902 23.0389 32.1671 22.9422 32.315 22.8091C32.4629 22.676 32.5776 22.5102 32.6501 22.325C32.7442 22.1518 32.7861 21.9552 32.771 21.7588C32.7559 21.5623 32.6843 21.3744 32.5649 21.2177L31.7984 20.0253C31.6828 19.8083 31.6372 19.5609 31.6677 19.3169C31.6982 19.073 31.8033 18.8444 31.9687 18.6625L33.2463 17.3849C33.4415 17.2123 33.6848 17.1034 33.9436 17.0729C34.2024 17.0425 34.4644 17.0919 34.6943 17.2146L35.8867 17.9812C36.053 18.0778 36.2389 18.1356 36.4306 18.1503C36.6223 18.1651 36.8149 18.1364 36.994 18.0663C37.1792 17.9938 37.345 17.8791 37.4781 17.7312C37.6112 17.5833 37.7079 17.4064 37.7605 17.2146L38.1012 15.8518C38.1418 15.6112 38.2672 15.3931 38.4547 15.2369C38.6421 15.0807 38.8793 14.9967 39.1233 15.0001H40.9119C41.1559 14.9967 41.3931 15.0807 41.5805 15.2369C41.768 15.3931 41.8933 15.6112 41.934 15.8518L42.2747 17.2146C42.3193 17.4236 42.4235 17.6153 42.5746 17.7664C42.7257 17.9175 42.9174 18.0217 43.1264 18.0663H43.6375L44.3188 17.896L45.5113 17.1294C45.7283 17.0139 45.9757 16.9682 46.2196 16.9987C46.4636 17.0292 46.6922 17.1343 46.874 17.2998L48.1516 18.5774C48.3171 18.7592 48.4222 18.9878 48.4527 19.2318C48.4832 19.4757 48.4375 19.7231 48.322 19.9401L47.5554 21.1326C47.4588 21.2988 47.401 21.4847 47.3862 21.6765C47.3715 21.8682 47.4002 22.0607 47.4702 22.2398C47.6444 22.5958 47.9497 22.8705 48.322 23.0064L49.6848 23.3471C49.9407 23.3891 50.1712 23.5268 50.3293 23.7325C50.4875 23.9381 50.5615 24.1961 50.5365 24.4543V26.1578C50.5399 26.4018 50.4559 26.6389 50.2997 26.8264C50.1435 27.0138 49.9254 27.1392 49.6848 27.1799L48.322 27.5205C48.1407 27.5693 47.9715 27.6551 47.825 27.7723C47.6784 27.8896 47.5576 28.0358 47.4702 28.2019C47.3762 28.3751 47.3342 28.5717 47.3493 28.7681C47.3645 28.9646 47.436 29.1525 47.5554 29.3092L48.322 30.5016C48.4375 30.7186 48.4832 30.966 48.4527 31.21C48.4222 31.4539 48.3171 31.6825 48.1516 31.8644L46.874 33.2272C46.6922 33.3926 46.4636 33.4977 46.2196 33.5282C45.9757 33.5587 45.7283 33.513 45.5113 33.3975L44.3188 32.5458C44.1526 32.4491 43.9667 32.3913 43.775 32.3766C43.5832 32.3618 43.3907 32.3906 43.2116 32.4606H43.1264C42.9192 32.5362 42.7335 32.6609 42.5851 32.8241C42.4368 32.9873 42.3303 33.1841 42.2747 33.3975L41.934 34.7603C41.934 35.0313 41.8263 35.2913 41.6346 35.483C41.443 35.6747 41.183 35.7823 40.9119 35.7823ZM39.975 33.653L40.1454 33.0568C40.2822 32.53 40.5375 32.0413 40.8917 31.628C41.2459 31.2147 41.6898 30.8878 42.1895 30.672C42.6522 30.4981 43.1432 30.4115 43.6375 30.4164C44.2702 30.4129 44.8907 30.5902 45.4261 30.9275L45.9371 31.2682H46.0223L45.6816 30.7571C45.3879 30.3074 45.2108 29.7916 45.1662 29.2563C45.1216 28.721 45.2109 28.1831 45.4261 27.6909C45.6304 27.1838 45.9538 26.7334 46.3689 26.3776C46.784 26.0218 47.2786 25.7711 47.8109 25.6467C47.2726 25.5073 46.7753 25.2414 46.3605 24.871C45.9457 24.5007 45.6254 24.0366 45.4261 23.5174C45.2109 23.0253 45.1216 22.4873 45.1662 21.952C45.2108 21.4167 45.3879 20.9009 45.6816 20.4512L46.0223 19.9401H45.9371L45.4261 20.1956C44.8949 20.5421 44.2715 20.7202 43.6375 20.7067C43.1438 20.7044 42.6541 20.618 42.1895 20.4512C41.6824 20.2468 41.232 19.9235 40.8762 19.5084C40.5204 19.0933 40.2697 18.5987 40.1454 18.0663V17.5553H40.0602V18.0663C39.9233 18.5932 39.6681 19.0818 39.3139 19.4951C38.9596 19.9084 38.5157 20.2354 38.016 20.4512C37.5834 20.6266 37.12 20.7135 36.6533 20.7067C36.0205 20.7102 35.4 20.5329 34.8646 20.1956L34.4388 19.9401H34.3536L34.6943 20.4512C34.988 20.9009 35.1651 21.4167 35.2097 21.952C35.2543 22.4873 35.165 23.0253 34.9498 23.5174C34.7424 24.0465 34.409 24.5171 33.9786 24.8881C33.5482 25.2592 33.0337 25.5196 32.4798 25.6467H32.3946C32.9217 25.7795 33.4145 26.0228 33.8403 26.3605C34.2662 26.6983 34.6154 27.1227 34.8646 27.6057C35.0798 28.0979 35.1691 28.6358 35.1245 29.1711C35.0799 29.7064 34.9028 30.2222 34.6091 30.672L34.2684 31.183H34.3536L34.8646 30.8423C35.3958 30.4958 36.0192 30.3178 36.6533 30.3313C37.0916 30.3335 37.5254 30.4202 37.9309 30.5868C38.4379 30.7911 38.8884 31.1145 39.2442 31.5296C39.6 31.9446 39.8506 32.4393 39.975 32.9716V33.653Z" fill="#00007E"/>
<path d="M43.0407 43.0276C42.3445 43.0408 41.653 42.9117 41.0085 42.648C40.3641 42.3844 39.7803 41.9918 39.2931 41.4945H39.2079C39.0113 41.2846 38.8912 41.0145 38.8672 40.7279C38.8665 40.5833 38.8965 40.4402 38.9553 40.3081C39.014 40.1759 39.1001 40.0578 39.2079 39.9614L43.0407 36.2137C43.528 35.7164 44.1117 35.3238 44.7562 35.0602C45.4006 34.7965 46.0921 34.6674 46.7883 34.6806C48.1747 34.677 49.5121 35.1937 50.5359 36.1286C50.7337 36.3347 50.8442 36.6094 50.8442 36.8951C50.8442 37.1808 50.7337 37.4555 50.5359 37.6617L46.7883 41.4093C45.8011 42.4214 44.4543 43.003 43.0407 43.0276ZM41.5076 40.4724C41.9382 40.6654 42.3995 40.7807 42.8703 40.8131C43.7553 40.8142 44.6077 40.4794 45.2552 39.8762L48.1511 36.9803C47.7238 36.7778 47.2606 36.662 46.7883 36.6396C45.9312 36.6515 45.11 36.986 44.4886 37.5765L41.5076 40.4724Z" fill="#00007E"/>
<path d="M37.0781 43.0181C35.6387 42.9975 34.2639 42.4171 33.2453 41.3999L29.4977 37.6522C29.2999 37.446 29.1895 37.1714 29.1895 36.8857C29.1895 36.5999 29.2999 36.3253 29.4977 36.1191C29.9908 35.6296 30.5756 35.2422 31.2187 34.9791C31.8618 34.716 32.5505 34.5824 33.2453 34.586C34.6728 34.5838 36.046 35.1331 37.0781 36.1191L40.8257 39.8667C41.0224 40.0766 41.1424 40.3467 41.1664 40.6333C41.1671 40.7779 41.1371 40.921 41.0784 41.0531C41.0196 41.1853 40.9335 41.3035 40.8257 41.3999H40.7406C40.2705 41.9023 39.7038 42.3045 39.0744 42.5826C38.4451 42.8607 37.7661 43.0088 37.0781 43.0181ZM31.8826 36.9708L34.8636 39.8667C35.1635 40.1705 35.522 40.4102 35.9173 40.5712C36.3126 40.7323 36.7365 40.8114 37.1633 40.8036C37.641 40.8244 38.1144 40.706 38.5261 40.463L35.6302 37.5671C35.3145 37.2608 34.9411 37.0202 34.5317 36.8594C34.1223 36.6986 33.6851 36.6207 33.2453 36.6302C32.773 36.6525 32.3098 36.7683 31.8826 36.9708Z" fill="#00007E"/>
<path d="M40.0594 44.6413C39.914 44.6413 39.77 44.6127 39.6357 44.557C39.5013 44.5014 39.3793 44.4198 39.2765 44.317C39.1736 44.2142 39.0921 44.0921 39.0364 43.9578C38.9808 43.8234 38.9521 43.6795 38.9521 43.5341V34.5057C38.9521 34.3603 38.9808 34.2163 39.0364 34.082C39.0921 33.9476 39.1736 33.8256 39.2765 33.7227C39.3793 33.6199 39.5013 33.5384 39.6357 33.4827C39.77 33.4271 39.914 33.3984 40.0594 33.3984C40.2048 33.3984 40.3488 33.4271 40.4831 33.4827C40.6175 33.5384 40.7395 33.6199 40.8423 33.7227C40.9452 33.8256 41.0267 33.9476 41.0824 34.082C41.138 34.2163 41.1667 34.3603 41.1667 34.5057V43.5341C41.1311 43.8153 41.003 44.0767 40.8025 44.2772C40.6021 44.4777 40.3407 44.6057 40.0594 44.6413Z" fill="#00007E"/>
<path d="M47.0445 64.9938H46.8741C46.5945 64.9323 46.3497 64.7649 46.1908 64.5267C46.032 64.2885 45.9717 63.998 46.0224 63.7162L49.259 47.5333C49.3205 47.2537 49.488 47.0088 49.7262 46.85C49.9644 46.6912 50.2548 46.6309 50.5366 46.6816C50.8162 46.7431 51.0611 46.9106 51.2199 47.1488C51.3787 47.387 51.4391 47.6774 51.3883 47.9592L48.1517 64.1421C48.0802 64.3825 47.9347 64.5942 47.7359 64.7471C47.5371 64.9 47.2952 64.9863 47.0445 64.9938Z" fill="#00007E"/>
<path d="M32.9901 64.9938C32.7461 64.9972 32.5089 64.9132 32.3215 64.757C32.134 64.6008 32.0086 64.3827 31.968 64.1421L28.7314 47.9592C28.6807 47.6774 28.741 47.387 28.8998 47.1488C29.0586 46.9106 29.3035 46.7431 29.5831 46.6816C29.8649 46.6309 30.1554 46.6912 30.3936 46.85C30.6318 47.0088 30.7992 47.2537 30.8607 47.5333L34.1825 63.7162C34.2067 63.8618 34.2015 64.0108 34.1672 64.1544C34.133 64.298 34.0704 64.4333 33.9831 64.5523C33.8958 64.6714 33.7856 64.7717 33.6589 64.8476C33.5323 64.9234 33.3917 64.9731 33.2456 64.9938H32.9901Z" fill="#00007E"/>
<path d="M52.41 48.9029H27.7098C27.4161 48.9029 27.1345 48.7862 26.9269 48.5785C26.7192 48.3709 26.6025 48.0893 26.6025 47.7956V43.537C26.6025 43.2433 26.7192 42.9616 26.9269 42.754C27.1345 42.5463 27.4161 42.4297 27.7098 42.4297H52.4952C52.6406 42.4297 52.7846 42.4583 52.9189 42.514C53.0533 42.5696 53.1753 42.6512 53.2781 42.754C53.381 42.8568 53.4625 42.9789 53.5182 43.1132C53.5738 43.2476 53.6024 43.3915 53.6024 43.537V47.7956C53.5634 48.09 53.4229 48.3616 53.2053 48.5636C52.9877 48.7657 52.7065 48.8856 52.41 48.9029ZM28.7319 46.7735H51.3028V44.6442H28.7319V46.7735Z" fill="#00007E"/>
<path d="M60.9273 64.9912H19.1073C18.8136 64.9912 18.5319 64.8746 18.3243 64.6669C18.1166 64.4593 18 64.1776 18 63.884C18 63.5903 18.1166 63.3087 18.3243 63.101C18.5319 62.8934 18.8136 62.7767 19.1073 62.7767H61.0125C61.1649 62.765 61.3181 62.7849 61.4624 62.8353C61.6067 62.8856 61.739 62.9653 61.8511 63.0693C61.9631 63.1733 62.0523 63.2994 62.1132 63.4396C62.1741 63.5798 62.2053 63.7311 62.2049 63.884C62.1941 64.0407 62.1524 64.1938 62.0823 64.3343C62.0122 64.4749 61.9149 64.6003 61.7962 64.7031C61.6775 64.806 61.5396 64.8845 61.3905 64.9339C61.2414 64.9833 61.084 65.0028 60.9273 64.9912Z" fill="#00007E"/>
<path d="M49.1739 53.2379H37.3348C37.1894 53.2379 37.0454 53.2093 36.9111 53.1537C36.7767 53.098 36.6547 53.0165 36.5519 52.9136C36.449 52.8108 36.3675 52.6888 36.3118 52.5544C36.2562 52.4201 36.2275 52.2761 36.2275 52.1307C36.2275 51.9853 36.2562 51.8413 36.3118 51.707C36.3675 51.5726 36.449 51.4506 36.5519 51.3477C36.6547 51.2449 36.7767 51.1634 36.9111 51.1077C37.0454 51.0521 37.1894 51.0234 37.3348 51.0234H49.1739C49.4675 51.0234 49.7492 51.1401 49.9568 51.3477C50.1645 51.5554 50.2811 51.837 50.2811 52.1307C50.2612 52.4178 50.1382 52.688 49.9347 52.8915C49.7312 53.095 49.461 53.2181 49.1739 53.2379Z" fill="#00007E"/>
<path d="M39.4632 60.7379H32.9901C32.6964 60.7379 32.4148 60.6213 32.2071 60.4136C31.9995 60.206 31.8828 59.9244 31.8828 59.6307C31.8828 59.337 31.9995 59.0554 32.2071 58.8477C32.4148 58.6401 32.6964 58.5234 32.9901 58.5234H39.4632C39.7569 58.5234 40.0385 58.6401 40.2462 58.8477C40.4538 59.0554 40.5705 59.337 40.5705 59.6307C40.5705 59.9244 40.4538 60.206 40.2462 60.4136C40.0385 60.6213 39.7569 60.7379 39.4632 60.7379Z" fill="#00007E"/>
</svg>
