<svg width="80" height="80" viewBox="0 0 80 80" fill="none" xmlns="http://www.w3.org/2000/svg">
<rect width="80" height="80" fill="white"/>
<path d="M6.0374 34.05C5.88159 34.05 5.84264 33.9721 5.92054 33.8552L6.73851 32.8036C6.81641 32.6867 7.01117 32.6088 7.16697 32.6088H21.0725C21.2283 32.6088 21.2672 32.7257 21.1893 32.8425L20.5271 33.8552C20.4492 33.9721 20.2545 34.0889 20.1376 34.0889L6.0374 34.05ZM0.155804 37.6335C0 37.6335 -0.0389509 37.5556 0.0389509 37.4387L0.856921 36.387C0.934823 36.2702 1.12958 36.1923 1.28538 36.1923H19.047C19.2028 36.1923 19.2807 36.3091 19.2418 36.426L18.9302 37.3608C18.8912 37.5166 18.7354 37.5945 18.5796 37.5945L0.155804 37.6335ZM9.58193 41.217C9.42613 41.217 9.38718 41.1001 9.46508 40.9833L10.0104 40.0095C10.0883 39.8926 10.2441 39.7758 10.3999 39.7758H18.1901C18.3459 39.7758 18.4238 39.8926 18.4238 40.0484L18.3459 40.9833C18.3459 41.1391 18.1901 41.2559 18.0732 41.2559L9.58193 41.217ZM50.013 33.3489C47.5591 33.9721 45.8842 34.4395 43.4692 35.0627C42.885 35.2185 42.846 35.2575 42.3397 34.6732C41.7554 34.011 41.3269 33.5826 40.509 33.1931C38.0551 31.9856 35.6791 32.3361 33.4589 33.7773C30.8102 35.4912 29.4469 38.023 29.4859 41.178C29.5248 44.2941 31.6671 46.8648 34.7442 47.2933C37.3929 47.6439 39.6131 46.709 41.3659 44.7225C41.7165 44.2941 42.0281 43.8267 42.4176 43.2814H34.9C34.0821 43.2814 33.8873 42.775 34.16 42.1128C34.6663 40.9054 35.6012 38.8799 36.1465 37.8672C36.2633 37.6335 36.536 37.244 37.1202 37.244H51.2984C51.2205 38.2956 51.2205 39.3473 51.0647 40.399C50.6362 43.2035 49.5845 45.7742 47.8707 48.0334C45.0662 51.7337 41.4048 54.0318 36.7697 54.655C32.9525 55.1614 29.408 54.4213 26.2919 52.0843C23.4095 49.903 21.7736 47.0206 21.3451 43.4372C20.8388 39.1915 22.0852 35.3743 24.6559 32.0245C27.4215 28.4021 31.0828 26.104 35.5622 25.286C39.2236 24.6239 42.7292 25.0523 45.8842 27.1946C47.9486 28.5579 49.4287 30.4275 50.4025 32.6867C50.6362 33.0373 50.4804 33.232 50.013 33.3489Z" fill="#00ACD7"/>
<path d="M62.9059 54.8874C59.3614 54.8095 56.1284 53.7968 53.4019 51.4597C51.1038 49.4732 49.6626 46.9414 49.1952 43.9422C48.4941 39.5408 49.7015 35.6457 52.3502 32.179C55.1936 28.4397 58.6213 26.4922 63.2565 25.6742C67.2294 24.9731 70.9687 25.3626 74.3575 27.6607C77.4346 29.7641 79.3432 32.6075 79.8495 36.3468C80.5117 41.6052 78.9926 45.8898 75.3702 49.5511C72.7994 52.1609 69.6444 53.7968 66.022 54.5369C64.9703 54.7316 63.9186 54.7706 62.9059 54.8874ZM72.1762 39.1513C72.1373 38.6449 72.1373 38.2554 72.0594 37.8659C71.3582 34.0097 67.8137 31.8285 64.1134 32.6854C60.4909 33.5034 58.1539 35.8015 57.297 39.4629C56.5959 42.501 58.076 45.5782 60.8805 46.8246C63.0228 47.7594 65.1651 47.6426 67.2295 46.5909C70.3066 44.9939 71.9815 42.501 72.1762 39.1513Z" fill="#00ACD7"/>
</svg>
