<svg width="80" height="80" viewBox="0 0 80 80" fill="none" xmlns="http://www.w3.org/2000/svg">
<rect width="80" height="80" fill="white"/>
<path d="M34.8764 47.6695C34.8764 47.6695 32.9657 48.7806 36.2362 49.1566C40.1983 49.6085 42.2232 49.5438 46.5896 48.7174C46.5896 48.7174 47.7376 49.4371 49.3406 50.0606C39.5527 54.2556 27.1883 49.8176 34.8764 47.6695ZM33.6803 42.1953C33.6803 42.1953 31.5373 43.7817 34.8102 44.1201C39.0427 44.5568 42.3851 44.5925 48.1688 43.4788C48.1688 43.4788 48.9688 44.2898 50.2267 44.7334C38.3924 48.1939 25.2111 45.0063 33.6803 42.1953Z" fill="#5382A1"/>
<path d="M43.7629 32.9061C46.1747 35.6828 43.1293 38.1815 43.1293 38.1815C43.1293 38.1815 49.2531 35.0202 46.4407 31.0613C43.814 27.3698 41.7996 25.5353 52.7045 19.2109C52.7045 19.2109 35.5874 23.4859 43.7629 32.906" fill="#E76F00"/>
<path d="M56.7088 51.7173C56.7088 51.7173 58.1227 52.8822 55.1515 53.7836C49.5018 55.4951 31.6366 56.012 26.6737 53.8517C24.8897 53.0758 28.2353 51.9987 29.2876 51.7726C30.3851 51.5346 31.0123 51.579 31.0123 51.579C29.0283 50.1813 18.1884 54.3234 25.5062 55.5095C45.4629 58.7459 61.8852 54.0522 56.7088 51.7173ZM35.795 36.5221C35.795 36.5221 26.7078 38.6806 32.5771 39.4642C35.0553 39.796 39.9955 39.7211 44.5972 39.3354C48.358 39.0184 52.1342 38.3437 52.1342 38.3437C52.1342 38.3437 50.8082 38.9117 49.8488 39.5667C40.6207 41.9938 22.7937 40.8647 27.9259 38.3821C32.2662 36.2841 35.7952 36.5221 35.7952 36.5221H35.795ZM52.0967 45.6341C61.4777 40.7595 57.1403 36.0751 54.1129 36.7063C53.3708 36.8606 53.0401 36.9943 53.0401 36.9943C53.0401 36.9943 53.3155 36.5629 53.8416 36.3762C59.8307 34.2705 64.4367 42.5863 51.9083 45.8798C51.9083 45.8799 52.0535 45.7502 52.0967 45.6341Z" fill="#5382A1"/>
<path d="M46.4408 9.00014C46.4408 9.00014 51.6361 14.1973 41.5133 22.1886C33.396 28.5992 39.6623 32.2543 41.51 36.4304C36.7717 32.1554 33.2944 28.3921 35.6273 24.8896C39.0512 19.7478 48.5369 17.2551 46.4408 9" fill="#E76F00"/>
<path d="M36.7173 58.846C45.7217 59.4225 59.5489 58.5262 59.8764 54.2656C59.8764 54.2656 59.247 55.8809 52.4348 57.1636C44.7493 58.6098 35.2705 58.441 29.6484 57.514C29.6486 57.514 30.7993 58.4666 36.7175 58.846" fill="#5382A1"/>
</svg>
