<svg width="83" height="83" viewBox="0 0 83 83" fill="none" xmlns="http://www.w3.org/2000/svg">
<rect width="83" height="83" fill="white"/>
<path d="M69.1468 42.0056C69.1468 38.2865 64.4893 34.7616 57.3478 32.5757C58.996 25.2973 58.2636 19.5069 55.0359 17.6524C54.2922 17.2175 53.4227 17.0116 52.4725 17.0116V19.5641C52.999 19.5641 53.4227 19.6662 53.7773 19.8615C55.3337 20.7542 56.0089 24.1531 55.4824 28.5247C55.3568 29.6005 55.1506 30.7335 54.8987 31.8896C52.6556 31.3403 50.2066 30.9166 47.6316 30.6419C46.0868 28.5247 44.4845 26.6022 42.8707 24.9199C46.6017 21.4522 50.1038 19.5525 52.4841 19.5525V17C49.3367 17 45.2169 19.2431 41.0513 23.1342C36.8832 19.2659 32.7652 17.0459 29.6171 17.0459V19.5984C31.9862 19.5984 35.4994 21.4866 39.2301 24.9315C37.5258 26.7246 35.9466 28.6325 34.5036 30.6419C31.9171 30.9166 29.4684 31.3399 27.2252 31.9011C26.9618 30.7569 26.7675 29.6468 26.63 28.5822C26.0923 24.2106 26.7559 20.8117 28.301 19.9075C28.6441 19.7016 29.0906 19.61 29.6171 19.61V17.0575C28.6557 17.0575 27.7858 17.2638 27.0306 17.6987C23.8144 19.5522 23.0939 25.3313 24.7531 32.5872C17.635 34.7844 13 38.298 13 42.0056C13 45.7255 17.6578 49.2503 24.799 51.4359C23.1511 58.7146 23.8835 64.5047 27.1109 66.3592C27.8548 66.7941 28.7244 67 29.6858 67C32.8329 67 36.953 64.7569 41.1186 60.8658C45.2843 64.7341 49.4044 66.9544 52.5514 66.9544C53.5125 66.9544 54.3824 66.7502 55.138 66.3132C58.3534 64.4594 59.0746 58.6799 57.4151 51.4247C64.5107 49.2387 69.1454 45.7139 69.1454 42.0056H69.1468ZM54.2453 34.3726C53.8216 35.849 53.2954 37.3706 52.7002 38.8929C52.2309 37.9774 51.7387 37.0619 51.2027 36.1461C50.6762 35.231 50.1136 34.3383 49.5545 33.4684C51.1796 33.7086 52.7475 34.0064 54.247 34.3726H54.2453ZM49.0042 46.5606C48.1115 48.1057 47.1963 49.5705 46.2475 50.9325C44.5421 51.0813 42.8142 51.1613 41.0744 51.1613C39.3462 51.1613 37.6183 51.0813 35.9245 50.9438C34.9745 49.5825 34.0513 48.1329 33.1549 46.595C32.2853 45.0975 31.4957 43.5735 30.7746 42.0403C31.4842 40.5068 32.2853 38.9729 33.1436 37.4737C34.0363 35.929 34.9518 34.4642 35.9003 33.1022C37.6057 32.9534 39.3336 32.8731 41.0734 32.8731C42.8016 32.8731 44.5298 32.9534 46.2233 33.0906C47.173 34.4519 48.0963 35.9016 48.9929 37.4397C49.8628 38.9372 50.6524 40.4608 51.3732 41.9944C50.6517 43.5279 49.8621 45.0615 49.0035 46.5606H49.0042ZM52.7009 45.073C53.3017 46.5644 53.8281 48.0826 54.2803 49.6277C52.7808 49.9939 51.2017 50.3029 49.565 50.5432C50.1259 49.6621 50.6881 48.7582 51.2133 47.8308C51.7394 46.9156 52.2315 45.9885 52.7009 45.0741V45.073ZM41.0955 57.2842C39.9731 56.1188 38.9112 54.8967 37.9141 53.6225C38.9443 53.6681 39.9969 53.7025 41.0611 53.7025C42.1369 53.7025 43.2015 53.6797 44.2429 53.6225C43.2605 54.8989 42.2098 56.1212 41.0955 57.2842ZM32.5811 50.5432C30.956 50.3029 29.388 50.0051 27.8889 49.6389C28.3123 48.1629 28.8391 46.6406 29.434 45.1186C29.9033 46.0341 30.3954 46.9496 30.9315 47.8651C31.4675 48.7806 32.0205 49.6747 32.5811 50.5432ZM41.0383 26.7277C42.1611 27.893 43.223 29.1154 44.2198 30.3901C43.1899 30.3441 42.1369 30.3097 41.0727 30.3097C39.9969 30.3097 38.9327 30.3325 37.8913 30.3901C38.8735 29.1135 39.9241 27.8909 41.0383 26.7277ZM32.5695 33.4684C32.009 34.3495 31.4464 35.2538 30.9219 36.1805C30.3954 37.0963 29.9033 38.0118 29.434 38.9273C28.8332 37.4355 28.3068 35.9173 27.8548 34.3726C29.354 34.0194 30.9332 33.7086 32.5695 33.4684ZM22.2125 47.7964C18.1625 46.0682 15.5419 43.8022 15.5419 42.0053C15.5419 40.2083 18.1625 37.9315 22.2125 36.2149C23.1967 35.7911 24.2725 35.4137 25.3827 35.0577C26.0351 37.3009 26.8934 39.6355 27.9576 42.0274C26.905 44.4077 26.0579 46.7308 25.417 48.9627C24.2841 48.6077 23.2083 48.2187 22.2125 47.7954V47.7964ZM28.3698 64.1501C26.8131 63.2574 26.1379 59.8585 26.6647 55.4865C26.7903 54.4111 26.9962 53.2781 27.248 52.122C29.4912 52.6716 31.9402 53.095 34.5152 53.3697C36.0599 55.4865 37.6622 57.4094 39.2761 59.0917C35.5454 62.5593 32.043 64.4591 29.6627 64.4591C29.1478 64.4482 28.7132 64.3451 28.3698 64.1504V64.1501ZM55.5154 55.4297C56.0531 59.8013 55.3895 63.2002 53.8444 64.1045C53.5013 64.3087 53.0551 64.4019 52.5283 64.4019C50.1596 64.4019 46.646 62.5137 42.9153 59.0689C44.6197 57.2758 46.1989 55.3677 47.6418 53.3581C50.2283 53.0835 52.6787 52.6601 54.9202 52.0989C55.1836 53.256 55.3895 54.3651 55.5154 55.4294V55.4297ZM59.9214 47.7964C58.9371 48.2198 57.8613 48.5975 56.7512 48.9535C56.0991 46.7104 55.2408 44.376 54.1765 41.9838C55.2295 39.6035 56.0763 37.2804 56.7171 35.0489C57.8501 35.4035 58.9255 35.7925 59.9329 36.2162C63.9829 37.9441 66.6035 40.21 66.6035 42.0066C66.5919 43.8036 63.9713 46.0811 59.92 47.7977L59.9214 47.7964Z" fill="#61DAFB"/>
<path d="M41.061 47.1323C42.0954 47.1324 43.1067 46.8257 43.9668 46.2511C44.827 45.6764 45.4974 44.8596 45.8933 43.9039C46.2892 42.9482 46.3928 41.8965 46.1911 40.882C45.9893 39.8674 45.4912 38.9354 44.7597 38.2039C44.0283 37.4724 43.0964 36.9742 42.0818 36.7724C41.0672 36.5706 40.0156 36.6741 39.0598 37.07C38.1041 37.4658 37.2873 38.1362 36.7125 38.9963C36.1378 39.8564 35.8311 40.8677 35.8311 41.9021C35.831 42.5889 35.9663 43.2691 36.2291 43.9036C36.4919 44.5382 36.8771 45.1147 37.3627 45.6004C37.8484 46.0861 38.4249 46.4714 39.0595 46.7342C39.694 46.9971 40.3741 47.1323 41.061 47.1323Z" fill="#61DAFB"/>
</svg>
