<svg width="260" height="260" viewBox="0 0 260 260" fill="none" xmlns="http://www.w3.org/2000/svg">
<g filter="url(#filter0_d_380_4107)">
<rect x="40" y="36" width="180" height="180" fill="white"/>
<rect x="40.5" y="36.5" width="179" height="179" stroke="#D9D9D9"/>
</g>
<path d="M154.78 155.84L136.9 125.78L154.78 95.71L163.39 125.78L154.78 155.84ZM115 152.91L92.53 130.63H128.28L146.16 160.7L115 152.91ZM115 98.55L146.08 90.76L128.19 120.82H92.44L115 98.55ZM160.64 76L120 86.54L114 96.9L101.81 96.81L72 125.78L101.79 154.78L114 154.65L120 165L160.64 175.64L171.55 136.13L165.41 125.87L171.55 115.6L160.64 76Z" fill="#110B09"/>
<defs>
<filter id="filter0_d_380_4107" x="0" y="0" width="260" height="260" filterUnits="userSpaceOnUse" color-interpolation-filters="sRGB">
<feFlood flood-opacity="0" result="BackgroundImageFix"/>
<feColorMatrix in="SourceAlpha" type="matrix" values="0 0 0 0 0 0 0 0 0 0 0 0 0 0 0 0 0 0 127 0" result="hardAlpha"/>
<feOffset dy="4"/>
<feGaussianBlur stdDeviation="20"/>
<feComposite in2="hardAlpha" operator="out"/>
<feColorMatrix type="matrix" values="0 0 0 0 0.0367917 0 0 0 0 0.0348958 0 0 0 0 0.0484375 0 0 0 0.1 0"/>
<feBlend mode="normal" in2="BackgroundImageFix" result="effect1_dropShadow_380_4107"/>
<feBlend mode="normal" in="SourceGraphic" in2="effect1_dropShadow_380_4107" result="shape"/>
</filter>
</defs>
</svg>
