<svg width="80" height="80" viewBox="0 0 80 80" fill="none" xmlns="http://www.w3.org/2000/svg">
<path d="M16 44.3976C16.0042 45.7251 16.2704 47.0388 16.7833 48.2633C17.2962 49.4878 18.0456 50.599 18.9888 51.5332C19.932 52.4674 21.0503 53.2063 22.2797 53.7075C23.509 54.2087 24.825 54.4623 26.1526 54.4538C27.6512 54.4515 29.1313 54.1226 30.4899 53.49C31.446 54.4966 32.5972 55.2978 33.8732 55.8447C35.1493 56.3915 36.5234 56.6726 37.9116 56.6707C39.5136 56.685 41.0958 56.3163 42.5264 55.5954C43.9571 54.8745 45.1949 53.8222 46.1366 52.5261C47.3682 54.1987 49.0949 55.4413 51.072 56.0778C53.0492 56.7144 55.1766 56.7127 57.1527 56.0729C59.1288 55.4332 60.8535 54.1878 62.0824 52.5133C63.3114 50.8388 63.9823 48.82 64 46.743C63.9967 45.2966 63.6722 43.8689 63.0499 42.5632C62.4276 41.2575 61.5231 40.1063 60.4016 39.1928C60.5309 38.4501 60.5954 37.6976 60.5944 36.9438C60.5944 29.233 54.2651 23 46.4899 23C44.4901 22.9982 42.5123 23.4178 40.6855 24.2316C38.8587 25.0454 37.2238 26.235 35.8875 27.7229C35.2826 27.6188 34.6701 27.565 34.0562 27.5623C31.9323 27.5561 29.86 28.2162 28.131 29.4496C26.4019 30.683 25.1032 32.4276 24.4177 34.4378C22.0684 34.8452 19.9374 36.0665 18.3983 37.8875C16.8592 39.7086 16.0102 42.0133 16 44.3976ZM34.8594 38.7751L39.004 38.8715V28.3333H45.1084V39.0322L49.253 39.1286L41.7671 51.3374L34.8594 38.7751Z" fill="#2892FF"/>
</svg>
