<svg width="80" height="80" viewBox="0 0 80 80" fill="none" xmlns="http://www.w3.org/2000/svg">
<path d="M28.1982 20.6178C28.6129 21.6802 28.8341 22.8083 28.8514 23.9486C28.8495 24.9815 28.6652 26.0059 28.3071 26.9747L28.6989 27.3665H67.2323V25.8644C67.2323 24.4478 66.6711 23.0889 65.6714 22.0852C64.6718 21.0815 63.3152 20.5147 61.8986 20.5089H29.2214C28.8771 20.5008 28.5332 20.5374 28.1982 20.6178ZM31.8556 23.3826H36.2315C36.3816 23.3826 36.5255 23.4422 36.6317 23.5484C36.7378 23.6545 36.7975 23.7985 36.7975 23.9486C36.7976 24.1008 36.7387 24.2471 36.6331 24.3567C36.5275 24.4664 36.3836 24.5308 36.2315 24.5364H31.8556C31.6997 24.5364 31.5502 24.4745 31.44 24.3643C31.3298 24.254 31.2678 24.1045 31.2678 23.9486C31.2735 23.7965 31.3379 23.6526 31.4475 23.547C31.5571 23.4414 31.7034 23.3825 31.8556 23.3826Z" fill="#2892FF"/>
<path d="M61.8989 19.3572H29.2218C28.7003 19.3566 28.1809 19.4225 27.6761 19.5532C27.2857 18.8535 26.7942 18.2153 26.2175 17.6592C24.9784 16.4097 23.3961 15.5564 21.6713 15.2075C19.9465 14.8587 18.157 15.03 16.5297 15.6998C16.4458 15.7371 16.3723 15.7943 16.3154 15.8663C16.2585 15.9384 16.22 16.0232 16.2032 16.1135C16.1781 16.2062 16.1791 16.3039 16.206 16.3961C16.2328 16.4883 16.2846 16.5713 16.3556 16.636L21.8416 22.1438C21.9088 22.2088 21.9622 22.2866 21.9987 22.3726C22.0352 22.4586 22.054 22.5511 22.054 22.6445C22.054 22.738 22.0352 22.8305 21.9987 22.9165C21.9622 23.0025 21.9088 23.0803 21.8416 23.1453L19.0986 25.8883C19.0323 25.9525 18.9539 26.0029 18.8679 26.0365C18.7819 26.0702 18.6902 26.0864 18.5979 26.0843C18.5056 26.0864 18.4138 26.0702 18.3279 26.0365C18.2419 26.0029 18.1635 25.9525 18.0972 25.8883L12.5893 20.4022C12.5264 20.3345 12.4479 20.2832 12.3606 20.2529C12.2733 20.2225 12.1799 20.214 12.0886 20.2281C11.9942 20.2489 11.9058 20.2912 11.8303 20.3515C11.7548 20.4119 11.6942 20.4889 11.6532 20.5764C11.2173 21.6478 10.9954 22.7941 11.0001 23.9508C10.9972 25.1235 11.2266 26.2851 11.6749 27.3687C12.1233 28.4523 12.7818 29.4364 13.6125 30.2641C14.4403 31.0948 15.4243 31.7533 16.5079 32.2017C17.5915 32.6501 18.7532 32.8795 19.9259 32.8766C20.8807 32.8788 21.8294 32.7244 22.7343 32.4194V58.522C22.7342 60.2446 23.417 61.8969 24.6331 63.1171C25.8491 64.3372 27.4992 65.0255 29.2218 65.0312H61.8989C63.6215 65.0255 65.2716 64.3372 66.4877 63.1171C67.7037 61.8969 68.3865 60.2446 68.3865 58.522V25.8666C68.3865 24.1439 67.7037 22.4916 66.4877 21.2714C65.2716 20.0513 63.6215 19.363 61.8989 19.3572ZM61.8989 63.8774H29.2218C27.8014 63.8774 26.4392 63.3132 25.4349 62.3089C24.4305 61.3045 23.8663 59.9423 23.8663 58.522V33.2902L28.9823 38.3845C29.3325 38.7382 29.7496 39.0186 30.2094 39.2092C30.6692 39.3999 31.1623 39.4969 31.6601 39.4947C32.1578 39.4969 32.6509 39.3999 33.1107 39.2092C33.5705 39.0186 33.9876 38.7382 34.3378 38.3845C34.6906 38.0336 34.9703 37.6163 35.1609 37.1567C35.3514 36.6971 35.449 36.2043 35.4481 35.7067C35.4507 35.2057 35.354 34.7091 35.1634 34.2457C34.9728 33.7823 34.6922 33.3614 34.3378 33.0072L29.8531 28.5225H67.2327V58.522C67.2327 59.9386 66.6714 61.2974 65.6718 62.3012C64.6721 63.3049 63.3155 63.8717 61.8989 63.8774ZM17.2917 26.6938C17.4623 26.8668 17.6657 27.004 17.89 27.0974C18.1143 27.1909 18.3549 27.2387 18.5979 27.2381C18.8409 27.2387 19.0815 27.1909 19.3058 27.0974C19.5301 27.004 19.7335 26.8668 19.9041 26.6938L22.6472 23.9508C22.8216 23.7786 22.9601 23.5736 23.0546 23.3475C23.1491 23.1214 23.1978 22.8787 23.1978 22.6337C23.1978 22.3886 23.1491 22.146 23.0546 21.9199C22.9601 21.6938 22.8216 21.4887 22.6472 21.3166L17.8141 16.4836C19.1419 16.1026 20.5476 16.0854 21.8843 16.4339C23.2209 16.7825 24.4393 17.4838 25.412 18.4647C26.1391 19.1808 26.7159 20.035 27.1084 20.9771C27.501 21.9192 27.7014 22.9302 27.6979 23.9508C27.7043 24.975 27.5053 25.9901 27.1127 26.9362C26.7201 27.8822 26.1418 28.7399 25.412 29.4587C24.6929 30.1819 23.8382 30.7561 22.8968 31.1483C21.9553 31.5406 20.9458 31.7432 19.9259 31.7445C17.8614 31.7334 15.8837 30.9126 14.418 29.4587C12.964 27.993 12.1432 26.0153 12.1321 23.9508C12.1465 23.237 12.2489 22.5278 12.4369 21.8391L17.2917 26.6938ZM67.2327 25.8666V27.3687H28.6993L28.3074 26.9768C28.6656 26.008 28.8498 24.9836 28.8517 23.9508C28.8345 22.8104 28.6133 21.6823 28.1986 20.6199C28.5335 20.5395 28.8774 20.503 29.2218 20.5111H61.8989C63.3155 20.5168 64.6721 21.0836 65.6718 22.0873C66.6714 23.091 67.2327 24.45 67.2327 25.8666ZM27.8285 28.1089L33.5323 33.8345C33.7812 34.0785 33.9788 34.3698 34.1134 34.6914C34.248 35.0129 34.3169 35.3581 34.316 35.7067C34.3129 36.4099 34.0311 37.0832 33.5323 37.5789C33.0319 38.0683 32.3599 38.3423 31.6601 38.3423C30.9602 38.3423 30.2881 38.0683 29.7878 37.5789L24.0622 31.8534C24.8602 31.441 25.5877 30.9046 26.2175 30.2641C26.8645 29.635 27.4082 28.9076 27.8285 28.1089Z" fill="#081480"/>
<path d="M67.2326 28.5234H29.853L34.3377 33.0081C34.6921 33.3623 34.9727 33.7833 35.1633 34.2466C35.3539 34.71 35.4506 35.2066 35.448 35.7076C35.449 36.2052 35.3514 36.698 35.1608 37.1576C34.9702 37.6172 34.6905 38.0345 34.3377 38.3854C33.9876 38.7391 33.5704 39.0195 33.1106 39.2101C32.6509 39.4008 32.1577 39.4978 31.66 39.4957C31.1623 39.4978 30.6691 39.4008 30.2093 39.2101C29.7495 39.0195 29.3324 38.7391 28.9822 38.3854L23.8662 33.2911V58.5229C23.8662 59.9432 24.4305 61.3054 25.4348 62.3098C26.4392 63.3141 27.8013 63.8784 29.2217 63.8784H61.8989C63.3154 63.8726 64.6721 63.3058 65.6717 62.3021C66.6713 61.2984 67.2326 59.9395 67.2326 58.5229V28.5234Z" fill="white"/>
<path d="M24.0625 31.8539L29.7881 37.5794C30.2884 38.0688 30.9605 38.3428 31.6603 38.3428C32.3602 38.3428 33.0322 38.0688 33.5326 37.5794C34.0314 37.0837 34.3132 36.4104 34.3163 35.7072C34.3172 35.3586 34.2483 35.0134 34.1137 34.6919C33.9791 34.3703 33.7815 34.079 33.5326 33.835L27.8287 28.1094C27.4085 28.9081 26.8648 29.6354 26.2178 30.2646C25.5879 30.9051 24.8605 31.4415 24.0625 31.8539Z" fill="#66C3CD"/>
<path d="M14.4177 29.4616C15.8834 30.9155 17.8611 31.7363 19.9256 31.7474C20.9455 31.7461 21.9551 31.5435 22.8965 31.1512C23.8379 30.759 24.6926 30.1848 25.4117 29.4616C26.1415 28.7428 26.7198 27.8851 27.1124 26.9391C27.505 25.993 27.704 24.9779 27.6976 23.9537C27.7011 22.9331 27.5007 21.9221 27.1081 20.98C26.7156 20.0379 26.1388 19.1837 25.4117 18.4676C24.439 17.4867 23.2206 16.7854 21.884 16.4368C20.5474 16.0883 19.1416 16.1055 17.8139 16.4865L22.6469 21.3195C22.8213 21.4916 22.9598 21.6967 23.0543 21.9228C23.1489 22.1489 23.1975 22.3915 23.1975 22.6366C23.1975 22.8816 23.1489 23.1243 23.0543 23.3504C22.9598 23.5765 22.8213 23.7815 22.6469 23.9537L19.9038 26.6967C19.7332 26.8697 19.5298 27.0069 19.3055 27.1003C19.0812 27.1938 18.8406 27.2416 18.5976 27.241C18.3547 27.2416 18.114 27.1938 17.8897 27.1003C17.6654 27.0069 17.4621 26.8697 17.2914 26.6967L12.4366 21.842C12.2486 22.5307 12.1463 23.2399 12.1318 23.9537C12.1429 26.0182 12.9637 27.9959 14.4177 29.4616Z" fill="#66C3CD"/>
<path d="M31.8554 24.5366H36.2312C36.3833 24.531 36.5273 24.4666 36.6328 24.3569C36.7384 24.2473 36.7973 24.101 36.7972 23.9488C36.7972 23.7987 36.7376 23.6547 36.6314 23.5486C36.5253 23.4424 36.3813 23.3828 36.2312 23.3828H31.8554C31.7032 23.3827 31.5569 23.4416 31.4473 23.5472C31.3376 23.6528 31.2732 23.7967 31.2676 23.9488C31.2676 24.1047 31.3295 24.2542 31.4397 24.3645C31.55 24.4747 31.6995 24.5366 31.8554 24.5366Z" fill="#081480"/>
<path d="M56.1798 42.55C56.1762 42.8687 56.2359 43.1849 56.3553 43.4804C56.4748 43.7758 56.6517 44.0446 56.8757 44.2713C57.0998 44.4979 57.3666 44.6778 57.6607 44.8006C57.9548 44.9234 58.2704 44.9866 58.5891 44.9866C58.909 44.9866 59.2259 44.9235 59.5215 44.8011C59.8171 44.6786 60.0857 44.4992 60.312 44.2729C60.5382 44.0466 60.7177 43.778 60.8402 43.4824C60.9626 43.1868 61.0256 42.87 61.0256 42.55C61.0257 42.2313 60.9624 41.9158 60.8397 41.6217C60.7169 41.3276 60.5369 41.0608 60.3103 40.8367C60.0837 40.6126 59.8149 40.4357 59.5194 40.3163C59.224 40.1968 58.9077 40.1372 58.5891 40.1408C58.2717 40.1371 57.9567 40.1969 57.6628 40.3167C57.3688 40.4365 57.1018 40.6138 56.8773 40.8382C56.6529 41.0627 56.4755 41.3298 56.3558 41.6237C56.236 41.9177 56.1762 42.2326 56.1798 42.55Z" fill="#FCDF77"/>
<path d="M45.1193 49.4161C45.438 49.4197 45.7542 49.3601 46.0497 49.2406C46.3452 49.1212 46.614 48.9442 46.8406 48.7202C47.0672 48.4961 47.2471 48.2293 47.3699 47.9352C47.4927 47.6411 47.5559 47.3256 47.5559 47.0069C47.5559 46.6869 47.4929 46.3701 47.3704 46.0745C47.248 45.7788 47.0685 45.5102 46.8422 45.284C46.616 45.0577 46.3474 44.8782 46.0518 44.7558C45.7561 44.6333 45.4393 44.5703 45.1193 44.5703C44.8006 44.5703 44.4851 44.6335 44.191 44.7563C43.8969 44.8791 43.6301 45.059 43.406 45.2856C43.1819 45.5122 43.0051 45.781 42.8856 46.0765C42.7662 46.372 42.7065 46.6882 42.7101 47.0069C42.7065 47.3243 42.7663 47.6392 42.886 47.9331C43.0058 48.2271 43.1831 48.4942 43.4076 48.7186C43.632 48.9431 43.8991 49.1204 44.193 49.2401C44.487 49.3599 44.8019 49.4197 45.1193 49.4161Z" fill="#FCDF77"/>
<path d="M33.7569 59.5803C34.3984 59.5731 35.0111 59.3132 35.4621 58.857C35.9132 58.4009 36.1661 57.7852 36.1661 57.1437C36.1661 56.5048 35.9123 55.892 35.4604 55.4402C35.0086 54.9884 34.3958 54.7345 33.7569 54.7345C33.4382 54.7309 33.122 54.7906 32.8265 54.91C32.531 55.0295 32.2622 55.2063 32.0356 55.4304C31.809 55.6545 31.6291 55.9213 31.5063 56.2154C31.3835 56.5095 31.3203 56.825 31.3203 57.1437C31.3203 57.79 31.577 58.4097 32.034 58.8666C32.4909 59.3236 33.1107 59.5803 33.7569 59.5803Z" fill="#FCDF77"/>
<path d="M33.7577 60.9999C34.7815 60.9999 35.7633 60.5932 36.4873 59.8693C37.2112 59.1454 37.6179 58.1635 37.6179 57.1398C37.6199 56.3313 37.3606 55.5439 36.8787 54.8948L42.4363 49.7753C42.7894 50.1254 43.2082 50.4024 43.6686 50.5903C44.129 50.7782 44.622 50.8734 45.1192 50.8704C46.143 50.8704 47.1249 50.4637 47.8488 49.7397C48.5727 49.0158 48.9794 48.034 48.9794 47.0102C48.987 46.6005 48.9221 46.1927 48.7878 45.8056L55.0024 43.9713C55.2843 44.692 55.7778 45.3105 56.418 45.7455C57.0581 46.1804 57.8149 46.4113 58.5888 46.4079C59.6126 46.4079 60.5945 46.0012 61.3184 45.2772C62.0423 44.5533 62.449 43.5715 62.449 42.5477C62.449 41.5239 62.0423 40.542 61.3184 39.8181C60.5945 39.0942 59.6126 38.6875 58.5888 38.6875C57.565 38.6875 56.5832 39.0942 55.8593 39.8181C55.1353 40.542 54.7286 41.5239 54.7286 42.5477L48.076 44.5188C47.714 44.0875 47.2613 43.7412 46.7503 43.5046C46.2392 43.268 45.6824 43.1469 45.1192 43.15C44.0955 43.15 43.1136 43.5567 42.3897 44.2806C41.6658 45.0045 41.259 45.9864 41.259 47.0102C41.2565 47.5566 41.3685 48.0975 41.5876 48.598L35.8384 53.8819C35.2165 53.4866 34.4945 53.2776 33.7577 53.2795C32.7314 53.2795 31.7467 53.6853 31.0184 54.4085C30.2901 55.1316 29.8773 56.1135 29.8701 57.1398C29.8773 58.166 30.2901 59.1478 31.0184 59.871C31.7467 60.5941 32.7314 61 33.7577 60.9999ZM61.0254 42.5477C61.0254 42.8677 60.9624 43.1845 60.8399 43.4801C60.7175 43.7757 60.538 44.0443 60.3117 44.2706C60.0855 44.4968 59.8169 44.6763 59.5213 44.7988C59.2256 44.9212 58.9088 44.9843 58.5888 44.9843C58.2701 44.9843 57.9546 44.9211 57.6605 44.7983C57.3664 44.6755 57.0996 44.4956 56.8755 44.2689C56.6514 44.0423 56.4746 43.7735 56.3551 43.478C56.2357 43.1826 56.176 42.8664 56.1796 42.5477C56.1759 42.2303 56.2358 41.9153 56.3555 41.6214C56.4753 41.3274 56.6526 41.0604 56.8771 40.8359C57.1015 40.6115 57.3686 40.4342 57.6625 40.3144C57.9565 40.1946 58.2714 40.1348 58.5888 40.1385C58.9075 40.1349 59.2237 40.1945 59.5192 40.314C59.8147 40.4334 60.0835 40.6103 60.3101 40.8344C60.5367 41.0584 60.7166 41.3253 60.8394 41.6194C60.9622 41.9135 61.0254 42.229 61.0254 42.5477ZM33.7577 54.7305C34.3967 54.7305 35.0094 54.9844 35.4613 55.4362C35.9131 55.888 36.1669 56.5008 36.1669 57.1398C36.1669 57.7813 35.914 58.3969 35.4629 58.853C35.0119 59.3092 34.3992 59.5691 33.7577 59.5763C33.1115 59.5763 32.4917 59.3196 32.0348 58.8627C31.5778 58.4057 31.3211 57.786 31.3211 57.1398C31.3211 56.8211 31.3843 56.5055 31.5071 56.2114C31.6299 55.9173 31.8098 55.6505 32.0364 55.4264C32.263 55.2024 32.5318 55.0255 32.8273 54.906C33.1228 54.7866 33.439 54.7269 33.7577 54.7305ZM45.1192 44.5736C45.7655 44.5736 46.3852 44.8303 46.8422 45.2872C47.2991 45.7442 47.5558 46.364 47.5558 47.0102C47.5558 47.3289 47.4926 47.6444 47.3698 47.9385C47.2471 48.2326 47.0671 48.4994 46.8405 48.7235C46.6139 48.9475 46.3451 49.1245 46.0496 49.2439C45.7541 49.3634 45.4379 49.423 45.1192 49.4194C44.8018 49.423 44.4869 49.3632 44.193 49.2434C43.899 49.1237 43.632 48.9463 43.4075 48.7219C43.1831 48.4974 43.0057 48.2304 42.886 47.9364C42.7662 47.6425 42.7064 47.3276 42.71 47.0102C42.7064 46.6915 42.7661 46.3752 42.8855 46.0798C43.005 45.7843 43.1819 45.5155 43.4059 45.2889C43.63 45.0623 43.8968 44.8824 44.1909 44.7596C44.485 44.6368 44.8006 44.5736 45.1192 44.5736Z" fill="#081480"/>
<path d="M55.3857 59.6874C55.7044 59.6874 56.0199 59.6242 56.314 59.5014C56.6081 59.3787 56.8749 59.1988 57.0989 58.9721C57.323 58.7455 57.4999 58.4767 57.6194 58.1812C57.7388 57.8858 57.7985 57.5695 57.7948 57.2508C57.7948 56.6119 57.541 55.9991 57.0892 55.5473C56.6374 55.0955 56.0246 54.8417 55.3857 54.8417C54.7442 54.8416 54.1285 55.0946 53.6723 55.5456C53.2162 55.9966 52.9563 56.6094 52.9491 57.2508C52.9491 57.8971 53.2058 58.5168 53.6627 58.9738C54.1197 59.4307 54.7394 59.6874 55.3857 59.6874Z" fill="#FCDF77"/>
<path d="M45.1192 35.4864C45.4379 35.4864 45.7534 35.4232 46.0475 35.3004C46.3416 35.1776 46.6084 34.9977 46.8325 34.7711C47.0566 34.5445 47.2335 34.2757 47.3529 33.9802C47.4724 33.6847 47.532 33.3685 47.5284 33.0498C47.5284 32.4108 47.2746 31.7981 46.8228 31.3462C46.3709 30.8944 45.7582 30.6406 45.1192 30.6406C44.4777 30.6406 43.862 30.8935 43.4059 31.3446C42.9497 31.7956 42.6898 32.4083 42.6826 33.0498C42.6826 33.696 42.9393 34.3158 43.3963 34.7727C43.8532 35.2297 44.473 35.4864 45.1192 35.4864Z" fill="#FCDF77"/>
<path d="M58.5887 45.4521L56.1795 54.952M53.6061 55.6091L46.7892 49.4218M45.1193 43.8369C45.1193 43.8369 45.1192 39.5064 45.1192 35.4864M45.1192 35.4864C45.4379 35.4864 45.7534 35.4232 46.0475 35.3004C46.3416 35.1776 46.6084 34.9977 46.8325 34.7711C47.0566 34.5445 47.2335 34.2757 47.3529 33.9802C47.4724 33.6847 47.532 33.3685 47.5284 33.0498C47.5284 32.4108 47.2746 31.7981 46.8228 31.3462C46.3709 30.8944 45.7582 30.6406 45.1192 30.6406C44.4777 30.6406 43.862 30.8935 43.4059 31.3446C42.9497 31.7956 42.6898 32.4083 42.6826 33.0498C42.6826 33.696 42.9393 34.3158 43.3963 34.7727C43.8532 35.2297 44.473 35.4864 45.1192 35.4864ZM55.3857 59.6874C55.7044 59.6874 56.0199 59.6242 56.314 59.5014C56.6081 59.3786 56.8749 59.1988 57.0989 58.9721C57.323 58.7455 57.4999 58.4767 57.6194 58.1812C57.7388 57.8858 57.7985 57.5695 57.7948 57.2508C57.7948 56.6119 57.541 55.9991 57.0892 55.5473C56.6374 55.0955 56.0246 54.8417 55.3857 54.8417C54.7442 54.8416 54.1285 55.0946 53.6723 55.5456C53.2162 55.9966 52.9563 56.6094 52.9491 57.2508C52.9491 57.8971 53.2058 58.5168 53.6627 58.9738C54.1197 59.4307 54.7394 59.6874 55.3857 59.6874Z" stroke="#00007E" stroke-width="1.5" stroke-miterlimit="10"/>
</svg>
