<svg width="260" height="260" viewBox="0 0 260 260" fill="none" xmlns="http://www.w3.org/2000/svg">
<g filter="url(#filter0_d_380_4093)">
<rect x="40" y="36" width="180" height="180" fill="white"/>
<rect x="40.5" y="36.5" width="179" height="179" stroke="#D9D9D9"/>
</g>
<path d="M126.01 77.3637C128.489 75.9445 131.719 75.9381 134.196 77.3637C146.66 84.4063 159.128 91.4379 171.589 98.4847C173.933 99.805 175.501 102.413 175.477 105.114V147.485C175.494 150.298 173.772 152.968 171.299 154.259C158.876 161.262 146.46 168.275 134.039 175.279C131.509 176.726 128.214 176.614 125.762 175.048C122.038 172.889 118.307 170.741 114.583 168.584C113.822 168.131 112.964 167.769 112.426 167.031C112.901 166.391 113.751 166.311 114.441 166.032C115.996 165.537 117.423 164.744 118.852 163.974C119.213 163.727 119.654 163.821 120 164.043C123.185 165.869 126.341 167.748 129.537 169.556C130.218 169.95 130.908 169.427 131.491 169.102C143.682 162.213 155.887 155.349 168.075 148.457C168.527 148.24 168.777 147.76 168.74 147.266C168.748 133.288 168.742 119.309 168.744 105.331C168.796 104.77 168.471 104.254 167.963 104.024C155.584 97.0526 143.211 90.0702 130.833 83.0967C130.619 82.9493 130.365 82.8702 130.105 82.8698C129.844 82.8694 129.59 82.9478 129.375 83.0946C116.998 90.0702 104.627 97.059 92.2494 104.03C91.7437 104.26 91.4043 104.768 91.4645 105.331C91.4666 119.309 91.4645 133.288 91.4645 147.268C91.443 147.509 91.496 147.751 91.6164 147.962C91.7367 148.172 91.9186 148.34 92.1376 148.444C95.4406 150.317 98.7478 152.177 102.053 154.044C103.915 155.046 106.201 155.641 108.252 154.873C110.063 154.224 111.332 152.377 111.297 150.455C111.314 136.559 111.289 122.661 111.31 108.768C111.265 108.151 111.85 107.641 112.45 107.699C114.037 107.688 115.626 107.678 117.213 107.703C117.875 107.688 118.331 108.353 118.249 108.974C118.243 122.958 118.266 136.942 118.239 150.925C118.243 154.652 116.712 158.707 113.265 160.531C109.018 162.731 103.769 162.264 99.5734 160.155C95.9413 158.342 92.4752 156.203 88.9077 154.26C86.4285 152.977 84.7143 150.296 84.7318 147.485V105.114C84.7058 102.358 86.3359 99.7017 88.7527 98.4007C101.173 91.3912 113.592 84.3764 126.01 77.3637Z" fill="#8CC84B"/>
<path d="M136.846 106.714C142.263 106.366 148.062 106.508 152.937 109.176C156.711 111.221 158.803 115.513 158.87 119.706C158.764 120.272 158.173 120.584 157.633 120.545C156.061 120.543 154.489 120.567 152.918 120.534C152.251 120.56 151.863 119.945 151.78 119.356C151.328 117.35 150.234 115.363 148.346 114.395C145.447 112.944 142.086 113.017 138.925 113.047C136.618 113.17 134.136 113.369 132.181 114.726C130.681 115.754 130.225 117.829 130.76 119.5C131.265 120.7 132.65 121.087 133.784 121.444C140.312 123.151 147.23 122.982 153.634 125.229C156.285 126.145 158.878 127.925 159.786 130.701C160.973 134.422 160.452 138.869 157.806 141.855C155.659 144.313 152.533 145.651 149.415 146.377C145.266 147.302 140.962 147.326 136.749 146.915C132.788 146.464 128.666 145.423 125.608 142.724C122.993 140.453 121.716 136.916 121.843 133.501C121.873 132.925 122.447 132.523 122.999 132.57C124.582 132.557 126.165 132.553 127.748 132.572C128.38 132.527 128.848 133.073 128.881 133.669C129.173 135.581 129.891 137.587 131.558 138.72C134.775 140.795 138.811 140.653 142.494 140.711C145.546 140.576 148.972 140.535 151.462 138.518C152.776 137.368 153.165 135.443 152.81 133.787C152.425 132.389 150.963 131.738 149.707 131.312C143.262 129.273 136.267 130.013 129.885 127.708C127.294 126.792 124.788 125.061 123.793 122.399C122.404 118.632 123.04 113.972 125.965 111.086C128.816 108.215 132.932 107.11 136.846 106.714V106.714Z" fill="#8CC84B"/>
<defs>
<filter id="filter0_d_380_4093" x="0" y="0" width="260" height="260" filterUnits="userSpaceOnUse" color-interpolation-filters="sRGB">
<feFlood flood-opacity="0" result="BackgroundImageFix"/>
<feColorMatrix in="SourceAlpha" type="matrix" values="0 0 0 0 0 0 0 0 0 0 0 0 0 0 0 0 0 0 127 0" result="hardAlpha"/>
<feOffset dy="4"/>
<feGaussianBlur stdDeviation="20"/>
<feComposite in2="hardAlpha" operator="out"/>
<feColorMatrix type="matrix" values="0 0 0 0 0.0367917 0 0 0 0 0.0348958 0 0 0 0 0.0484375 0 0 0 0.1 0"/>
<feBlend mode="normal" in2="BackgroundImageFix" result="effect1_dropShadow_380_4093"/>
<feBlend mode="normal" in="SourceGraphic" in2="effect1_dropShadow_380_4093" result="shape"/>
</filter>
</defs>
</svg>
