<svg width="80" height="80" viewBox="0 0 80 80" fill="none" xmlns="http://www.w3.org/2000/svg">
<rect width="80" height="80" fill="white"/>
<path d="M53.7256 42.5234H26.8291V52.0349H53.7256V42.5234Z" fill="#2892FF"/>
<path d="M53.728 53.1714H26.8285C26.5277 53.1714 26.2392 53.0519 26.0265 52.8391C25.8138 52.6264 25.6943 52.3378 25.6943 52.0369V42.5251C25.6943 42.2242 25.8138 41.9357 26.0265 41.7229C26.2392 41.5102 26.5277 41.3906 26.8285 41.3906H53.728C54.0288 41.3906 54.3173 41.5102 54.53 41.7229C54.7427 41.9357 54.8621 42.2242 54.8621 42.5251V52.0369C54.8621 52.3378 54.7427 52.6264 54.53 52.8391C54.3173 53.0519 54.0288 53.1714 53.728 53.1714ZM27.9627 50.9024H52.5938V43.6597H27.9627V50.9024Z" fill="#00007E"/>
<path d="M41.6367 48.4175H30.8969C30.5961 48.4175 30.3076 48.2979 30.0949 48.0852C29.8822 47.8724 29.7627 47.5838 29.7627 47.283C29.7627 46.9821 29.8822 46.6935 30.0949 46.4807C30.3076 46.268 30.5961 46.1484 30.8969 46.1484H41.6367C41.9375 46.1484 42.226 46.268 42.4387 46.4807C42.6514 46.6935 42.7709 46.9821 42.7709 47.283C42.7709 47.5838 42.6514 47.8724 42.4387 48.0852C42.226 48.2979 41.9375 48.4175 41.6367 48.4175Z" fill="#00007E"/>
<path d="M48.4265 50.3275C47.8241 50.3275 47.2353 50.1488 46.7344 49.814C46.2336 49.4793 45.8432 49.0035 45.6127 48.4468C45.3822 47.8901 45.3219 47.2775 45.4394 46.6866C45.5569 46.0956 45.847 45.5528 46.2729 45.1267C46.6988 44.7006 47.2415 44.4105 47.8323 44.2929C48.4231 44.1754 49.0355 44.2357 49.592 44.4663C50.1485 44.6969 50.6242 45.0874 50.9588 45.5884C51.2935 46.0894 51.4721 46.6784 51.4721 47.2809C51.4721 48.0889 51.1512 48.8638 50.5801 49.4352C50.0089 50.0065 49.2342 50.3275 48.4265 50.3275Z" fill="#00007E"/>
<path d="M53.7256 28.8516H26.8291V38.363H53.7256V28.8516Z" fill="#2892FF"/>
<path d="M53.728 39.4996H26.8285C26.5277 39.4996 26.2392 39.38 26.0265 39.1673C25.8138 38.9545 25.6943 38.6659 25.6943 38.365V28.8533C25.6943 28.5524 25.8138 28.2638 26.0265 28.051C26.2392 27.8383 26.5277 27.7188 26.8285 27.7188H53.728C54.0288 27.7187 54.3173 27.8383 54.53 28.051C54.7427 28.2638 54.8621 28.5524 54.8621 28.8533V38.365C54.8621 38.514 54.8328 38.6616 54.7758 38.7992C54.7188 38.9368 54.6353 39.0619 54.53 39.1673C54.4246 39.2726 54.2996 39.3562 54.162 39.4132C54.0244 39.4702 53.8769 39.4996 53.728 39.4996ZM27.9627 37.2305H52.5938V29.9878H27.9627V37.2305Z" fill="#00007E"/>
<path d="M41.6367 34.7456H30.8969C30.5961 34.7456 30.3076 34.6261 30.0949 34.4133C29.8822 34.2005 29.7627 33.912 29.7627 33.6111C29.7627 33.3102 29.8822 33.0216 30.0949 32.8089C30.3076 32.5961 30.5961 32.4766 30.8969 32.4766H41.6367C41.9375 32.4766 42.226 32.5961 42.4387 32.8089C42.6514 33.0216 42.7709 33.3102 42.7709 33.6111C42.7709 33.912 42.6514 34.2005 42.4387 34.4133C42.226 34.6261 41.9375 34.7456 41.6367 34.7456Z" fill="#00007E"/>
<path d="M48.4265 36.6556C47.8241 36.6556 47.2353 36.4769 46.7344 36.1422C46.2336 35.8074 45.8432 35.3316 45.6127 34.7749C45.3822 34.2182 45.3219 33.6057 45.4394 33.0147C45.5569 32.4237 45.847 31.8809 46.2729 31.4548C46.6988 31.0287 47.2415 30.7386 47.8323 30.621C48.4231 30.5035 49.0355 30.5638 49.592 30.7944C50.1485 31.025 50.6242 31.4155 50.9588 31.9165C51.2935 32.4175 51.4721 33.0065 51.4721 33.6091C51.4713 34.4168 51.1502 35.1912 50.5792 35.7624C50.0082 36.3336 49.234 36.6548 48.4265 36.6556Z" fill="#00007E"/>
<path d="M43.9654 18.6879C43.9654 17.7098 43.577 16.7718 42.8856 16.0802C42.1942 15.3885 41.2564 15 40.2786 15C39.3008 15 38.363 15.3885 37.6716 16.0802C36.9802 16.7718 36.5918 17.7098 36.5918 18.6879C36.5918 20.3247 37.6655 21.7163 39.1444 22.1974V24.6903C39.1444 24.9912 39.2639 25.2797 39.4766 25.4925C39.6893 25.7053 39.9778 25.8248 40.2786 25.8248C40.5794 25.8248 40.8679 25.7053 41.0806 25.4925C41.2933 25.2797 41.4128 24.9912 41.4128 24.6903V22.1974C42.8917 21.7163 43.9654 20.3247 43.9654 18.6879Z" fill="#00007E"/>
<path d="M41.4128 57.8016V55.3298C41.4128 55.0289 41.2933 54.7404 41.0806 54.5276C40.8679 54.3148 40.5794 54.1953 40.2786 54.1953C39.9778 54.1953 39.6893 54.3148 39.4766 54.5276C39.2639 54.7404 39.1444 55.0289 39.1444 55.3298V57.8016C38.3087 58.0718 37.5969 58.6317 37.1372 59.3803C36.6775 60.1289 36.5 61.0171 36.6368 61.8849C36.7735 62.7528 37.2155 63.5433 37.8832 64.1141C38.5509 64.6849 39.4003 64.9986 40.2786 64.9986C41.1569 64.9986 42.0064 64.6849 42.674 64.1141C43.3417 63.5433 43.7837 62.7528 43.9204 61.8849C44.0572 61.0171 43.8798 60.1289 43.42 59.3803C42.9603 58.6317 42.2485 58.0718 41.4128 57.8016Z" fill="#00007E"/>
<path d="M23.8135 39.3114H19.1922C18.924 38.4736 18.3651 37.7594 17.6164 37.2978C16.8677 36.8363 15.9787 36.658 15.11 36.795C14.2413 36.932 13.4502 37.3754 12.8798 38.045C12.3095 38.7146 11.9974 39.5662 12 40.4459C12 42.479 13.6544 44.1308 15.6868 44.1308C16.4655 44.1305 17.224 43.8835 17.8538 43.4253C18.4835 42.9672 18.952 42.3213 19.1922 41.5804H23.8135C24.1143 41.5804 24.4028 41.4609 24.6155 41.2481C24.8282 41.0354 24.9477 40.7468 24.9477 40.4459C24.9477 40.145 24.8282 39.8565 24.6155 39.6437C24.4028 39.4309 24.1143 39.3114 23.8135 39.3114Z" fill="#00007E"/>
<path d="M64.8702 36.7578C64.0913 36.7588 63.3327 37.0064 62.703 37.4651C62.0734 37.9238 61.605 38.57 61.3649 39.3112H56.7435C56.4427 39.3112 56.1543 39.4308 55.9416 39.6435C55.7289 39.8563 55.6094 40.1449 55.6094 40.4457C55.6094 40.7466 55.7289 41.0352 55.9416 41.248C56.1543 41.4607 56.4427 41.5803 56.7435 41.5803H61.3649C61.6051 42.3212 62.0736 42.967 62.7033 43.4252C63.333 43.8833 64.0916 44.1303 64.8702 44.1306C66.9027 44.1306 68.5571 42.4788 68.5571 40.4457C68.5555 39.4681 68.1665 38.531 67.4754 37.8397C66.7844 37.1485 65.8476 36.7594 64.8702 36.7578Z" fill="#00007E"/>
</svg>
