<svg width="80" height="80" viewBox="0 0 80 80" fill="none" xmlns="http://www.w3.org/2000/svg">
<rect width="80" height="80" fill="white"/>
<path d="M63.485 30.7C63.4847 29.8592 63.3049 29.1163 62.9413 28.4789C62.5841 27.8518 62.0492 27.3263 61.3317 26.9108C55.4092 23.4958 49.481 20.0913 43.5604 16.6729C41.9643 15.7514 40.4167 15.7852 38.8324 16.7199C36.475 18.11 24.6727 24.8718 21.1558 26.9089C19.7074 27.7475 19.0026 29.0307 19.0023 30.6984C19 37.566 19.0023 44.4337 19 51.3014C19 52.1236 19.1725 52.8523 19.5201 53.4801C19.8775 54.1261 20.4198 54.666 21.1539 55.0909C24.671 57.1279 36.4749 63.8892 38.8317 65.2798C40.4167 66.2151 41.9643 66.2485 43.5609 65.3268C49.4817 61.9082 55.4103 58.5037 61.3336 55.0888C62.0676 54.6641 62.61 54.1238 62.9674 53.4784C63.3145 52.8503 63.4873 52.1219 63.4873 51.2994C63.4873 51.2994 63.4873 37.5678 63.485 30.7Z" fill="#A179DC"/>
<path d="M41.3121 40.9297L19.5205 53.4768C19.8779 54.1228 20.4202 54.6627 21.1543 55.0876C24.6714 57.1247 36.4753 63.886 38.8321 65.2766C40.4171 66.2118 41.9647 66.2452 43.5614 65.3236C49.4821 61.905 55.4107 58.5005 61.334 55.0855C62.0681 54.6608 62.6104 54.1205 62.9678 53.4751L41.3121 40.9297Z" fill="#280068"/>
<path d="M63.4849 30.6976C63.4845 29.8569 63.3047 29.114 62.9411 28.4766L41.3115 40.9308L62.9672 53.4761C63.3143 52.848 63.4868 52.1196 63.4871 51.2971C63.4871 51.2971 63.4871 37.5655 63.4849 30.6976Z" fill="#390091"/>
<path d="M54.1418 36.2422V38.5875H56.4872V36.2422H57.6598V38.5875H60.0052V39.7602H57.6598V42.1053H60.0052V43.278H57.6598V45.6233H56.4872V43.278H54.1418V45.6233H52.9692V43.278H50.624V42.1053H52.9692V39.7602H50.624V38.5875H52.9692V36.2422H54.1418ZM56.4872 39.76H54.1418V42.1053H56.4872V39.76Z" fill="white"/>
<path d="M41.3594 24.4611C47.4766 24.4611 52.8174 27.7833 55.6781 32.7214L55.6503 32.6739L48.4528 36.818C47.0349 34.4172 44.4354 32.7968 41.4532 32.7634L41.3592 32.7629C36.8118 32.7629 33.1252 36.4495 33.1252 40.9969C33.1237 42.4302 33.4981 43.8388 34.2111 45.0822C35.6305 47.56 38.2987 49.2312 41.3594 49.2312C44.4391 49.2312 47.1224 47.5387 48.5344 45.0345L48.5001 45.0945L55.6867 49.2578C52.8573 54.1542 47.5896 57.4661 41.5435 57.5321L41.3594 57.5331C35.2228 57.5331 29.8669 54.1904 27.0133 49.2261C25.6203 46.8026 24.8232 43.9931 24.8232 40.9969C24.8232 31.8645 32.2265 24.4609 41.3592 24.4609L41.3594 24.4611Z" fill="white"/>
</svg>
