<svg width="80" height="80" viewBox="0 0 80 80" fill="none" xmlns="http://www.w3.org/2000/svg">
<rect width="80" height="80" fill="white"/>
<path d="M15.2335 52.4091H19.3684V34.808H15.2335V52.4091ZM17.2917 32.5001C18.5868 32.5001 19.5997 31.5034 19.5997 30.2582C19.5997 28.9961 18.5868 28 17.2917 28C16.0129 28 15 28.9961 15 30.2582C15 31.504 16.0129 32.5001 17.2917 32.5001ZM33.1329 28.0498C26.1456 28.0498 21.7582 32.8164 21.7582 40.4369C21.7582 48.0574 26.1434 52.8077 33.134 52.8077C40.1089 52.8077 44.4919 48.0585 44.4919 40.4369C44.4919 32.8153 40.1089 28.0498 33.134 28.0498H33.1329ZM33.1329 31.7027C37.4006 31.7027 40.1235 35.0902 40.1235 40.4369C40.1235 45.7673 37.4006 49.1548 33.1329 49.1548C28.849 49.1548 26.1456 45.7673 26.1456 40.4369C26.144 35.0902 28.8506 31.7027 33.134 31.7027H33.1329ZM46.2361 45.6676C46.4191 50.0848 50.039 52.8077 55.5514 52.8077C61.3471 52.8077 65 49.9516 65 45.4017C65 41.8317 62.9417 39.8227 58.0755 38.7101L55.319 38.0791C52.38 37.382 51.1678 36.4541 51.1678 34.8579C51.1678 32.8651 52.9948 31.537 55.7014 31.537C58.4411 31.537 60.3174 32.8819 60.5167 35.1238H64.6013C64.5017 30.906 61.0145 28.0498 55.7345 28.0498C50.5205 28.0498 46.8172 30.9206 46.8172 35.1731C46.8172 38.5937 48.9097 40.7196 53.3263 41.7325L56.4316 42.4621C59.4535 43.176 60.6825 44.1721 60.6825 45.8989C60.6825 47.8917 58.673 49.3195 55.7843 49.3195C52.8594 49.3195 50.6532 47.8749 50.3878 45.6666H46.2361V45.6676Z" fill="black"/>
</svg>
