<svg width="86" height="76" viewBox="0 0 86 76" fill="none" xmlns="http://www.w3.org/2000/svg">
<path d="M43.0539 75.5L39.5141 72.6959C21.6679 58.9708 10.975 50.6324 4.78044 39.6376C-1.4141 28.6427 -0.381679 21.2636 1.2407 16.2458C2.2262 13.2557 3.8238 10.5039 5.93155 8.16615C8.03929 5.82837 10.6109 3.95592 13.4823 2.66825C23.7328 -2.12816 36.4906 1.34002 43.0539 10.0474C49.6172 1.34002 62.375 -2.12816 72.6255 2.66825C75.4969 3.95592 78.0685 5.82837 80.1762 8.16615C82.284 10.5039 83.8816 13.2557 84.8671 16.2458C86.4895 21.2636 87.1532 29.3068 81.3273 39.6376C75.5015 49.9683 64.4398 58.9708 46.5936 72.7697L43.0539 75.5ZM23.2903 5.69369C19.5316 5.70879 15.8696 6.88706 12.8066 9.0669C9.74351 11.2467 7.42941 14.3214 6.1816 17.8692C4.33798 23.5511 5.37039 30.2661 9.27886 37.1287C14.9572 47.1642 25.3552 55.2813 42.6114 68.6374L43.0539 68.9326L43.4226 68.6374C60.7526 55.2813 71.1506 47.1642 76.8289 37.1287C80.7374 30.2661 81.7698 23.5511 79.9262 17.8692C79.1828 15.554 77.9571 13.423 76.33 11.6167C74.7029 9.81049 72.7113 8.37017 70.4869 7.39088C61.4163 3.18479 49.4697 7.31709 45.4137 16.0982L43.0539 21.116L40.6941 16.0982C37.7443 9.6784 30.5173 5.69369 23.2903 5.69369Z" fill="white"/>
<path d="M54.295 27.2578C50.1791 25.3833 44.8798 27.1058 42.9762 31.108C41.0726 27.1058 35.7734 25.3833 31.6574 27.2578C27.5415 29.1322 25.2263 34.2996 28.6734 40.2776C31.1429 44.5331 35.4647 47.7247 42.9762 53.5C50.5392 47.7247 54.8609 44.5331 57.279 40.2776C60.7261 34.2996 58.6167 29.2335 54.295 27.2578Z" stroke="white" stroke-width="3"/>
<path d="M42 41.5L22.75 56.5" stroke="white" stroke-width="3" stroke-linecap="round"/>
<path d="M67 21.2773L56.5 29.6523" stroke="white" stroke-width="3"/>
<path d="M56.5586 19.6602L67.7029 20.8345L66.5285 31.9788" stroke="white" stroke-width="3" stroke-linecap="round"/>
</svg>
