<svg width="85" height="85" viewBox="0 0 85 85" fill="none" xmlns="http://www.w3.org/2000/svg">
<rect x="42.5" y="1.41421" width="58.1041" height="58.1041" rx="9" transform="rotate(45 42.5 1.41421)" fill="#66C3CD" stroke="white" stroke-width="2"/>
<path d="M39.9091 50.7167C38.3945 52.8287 36.2718 53.8848 33.5411 53.8848C30.8105 53.8848 28.6878 52.8287 27.1731 50.7167C25.6585 48.6047 24.9011 45.7887 24.9011 42.2687C24.9011 38.7487 25.6585 35.9327 27.1731 33.8207C28.6878 31.7087 30.8105 30.6527 33.5411 30.6527C36.2718 30.6527 38.3945 31.7087 39.9091 33.8207C41.4238 35.9327 42.1811 38.7487 42.1811 42.2687C42.1811 45.7887 41.4238 48.6047 39.9091 50.7167ZM29.3491 48.7007C30.3305 50.2154 31.7278 50.9727 33.5411 50.9727C35.3545 50.9727 36.7518 50.2154 37.7331 48.7007C38.7358 47.1861 39.2371 45.0421 39.2371 42.2687C39.2371 39.4954 38.7358 37.3514 37.7331 35.8368C36.7518 34.3007 35.3545 33.5327 33.5411 33.5327C31.7278 33.5327 30.3305 34.2901 29.3491 35.8047C28.3678 37.3194 27.8771 39.4741 27.8771 42.2687C27.8771 45.0421 28.3678 47.1861 29.3491 48.7007ZM60.8654 46.4287V49.2127H58.1454V53.4688H55.1694V49.2127H43.7454V46.4287L51.7774 31.0687H54.9774L46.9454 46.4287H55.1694V40.0927H58.1454V46.4287H60.8654Z" fill="#00007E"/>
</svg>
