<svg width="55" height="80" viewBox="0 0 55 80" fill="none" xmlns="http://www.w3.org/2000/svg">
<path d="M54.1197 59.2348V63.7693C54.1197 64.063 53.9362 64.2833 53.7526 64.4852C48.8876 69.7541 42.9762 73.2605 36.0735 75.1147C35.6862 75.2198 35.2739 75.1787 34.915 74.9992C34.5561 74.8198 34.2758 74.5146 34.1275 74.1417C34.0031 73.7746 34.0164 73.3747 34.165 73.0166C34.3136 72.6586 34.5874 72.3668 34.9353 72.1957C35.2307 72.0388 35.5455 71.9215 35.8716 71.8469C43.1047 69.699 49.0528 65.6969 53.5506 59.5836C53.6608 59.4367 53.7893 59.3266 53.8994 59.1797L54.1197 59.2348Z" fill="white"/>
<path d="M54.1258 20.96C53.3547 20.3726 53.0426 19.6566 52.5837 19.0875C48.1777 13.7636 42.6518 10.1837 36.0428 8.21936L35.2534 7.9807C34.2988 7.61354 33.8582 6.82413 34.1152 5.96129C34.3722 5.09844 35.2717 4.65785 36.2631 4.93322C38.4225 5.52848 40.5288 6.30219 42.56 7.24637C46.7413 9.22392 50.5004 11.9918 53.6301 15.3975C53.8504 15.6178 54.1074 15.8381 54.1074 16.1685C54.1258 17.7106 54.1258 19.2527 54.1258 20.96Z" fill="white"/>
<path d="M26.9885 0C29.8707 0 32.294 2.46002 32.2757 5.34227C32.2709 6.04781 32.1268 6.74545 31.8519 7.3952C31.5769 8.04495 31.1763 8.63403 30.6732 9.12864C30.17 9.62326 29.5742 10.0137 28.9198 10.2775C28.2655 10.5414 27.5655 10.6735 26.86 10.6662C24.0144 10.6295 21.5911 8.18782 21.6095 5.36063C21.6143 3.93722 22.1832 2.57376 23.1914 1.56897C24.1997 0.564185 25.565 -8.2902e-06 26.9885 0ZM28.9528 5.2872C28.9528 4.09391 28.145 3.3045 26.9518 3.3045C26.6843 3.29958 26.4187 3.34832 26.1704 3.44783C25.9222 3.54734 25.6964 3.69561 25.5064 3.88387C25.3164 4.07213 25.1661 4.29656 25.0644 4.5439C24.9626 4.79125 24.9115 5.05647 24.914 5.32392C24.9039 5.59834 24.95 5.87193 25.0493 6.12796C25.1486 6.38399 25.2991 6.61707 25.4915 6.81296C25.684 7.00885 25.9144 7.16343 26.1686 7.26725C26.4228 7.37107 26.6956 7.42194 26.9701 7.41677C28.1634 7.39841 28.9712 6.55392 28.9528 5.2872Z" fill="white"/>
<path d="M32.2756 74.6729C32.2939 77.5735 29.9073 79.9601 26.97 79.9968C24.0327 80.0335 21.6094 77.5918 21.6094 74.6361C21.6094 71.6804 24.051 69.3489 26.9516 69.3673C28.359 69.3721 29.7076 69.932 30.7044 70.9255C31.7013 71.9189 32.2659 73.2655 32.2756 74.6729ZM28.9527 74.7096C28.9711 73.4796 28.1082 72.5616 26.97 72.5616C25.8318 72.5616 24.9139 73.4796 24.9139 74.6912C24.9114 74.9571 24.962 75.2208 25.0626 75.4669C25.1632 75.713 25.3119 75.9366 25.4999 76.1246C25.6879 76.3126 25.9115 76.4613 26.1576 76.5619C26.4037 76.6625 26.6674 76.7131 26.9333 76.7106C28.0899 76.7473 28.9527 75.8845 28.9527 74.7096Z" fill="white"/>
<path d="M0.113704 17.8785C-0.326896 16.0978 0.572663 14.9595 1.78431 13.8213C6.26223 9.56964 11.7346 6.5084 17.701 4.91754C18.1152 4.79165 18.5617 4.8278 18.9502 5.01866C19.3388 5.20952 19.6403 5.54085 19.7938 5.9456C20.0508 6.67994 19.6653 7.4877 18.8392 7.89158C18.6745 7.9747 18.5024 8.0423 18.3252 8.09353C14.066 9.23174 10.2291 11.2328 6.7227 13.8397C4.5532 15.489 2.61445 17.4216 0.958188 19.5858C0.774604 19.8245 0.627738 20.2467 0.315646 20.155C0.00355471 20.0632 0.132062 19.6226 0.113704 19.3472C0.0953452 19.0718 0.113704 18.3558 0.113704 17.8785Z" fill="white"/>
<path d="M0.35205 59.6797C1.47191 61.0198 2.53669 62.3967 3.78506 63.6084C7.72798 67.439 12.5502 70.244 17.8292 71.7778C18.1563 71.8604 18.4757 71.9709 18.7838 72.1083C19.665 72.5122 20.0689 73.3566 19.7752 74.1093C19.4814 74.862 18.6002 75.3393 17.664 75.0823C14.5551 74.2673 11.5719 73.0321 8.79688 71.4107C5.82283 69.685 3.08744 67.6472 0.737576 65.1321C0.525693 64.9365 0.358579 64.6975 0.247677 64.4313C0.136776 64.1652 0.0847062 63.8782 0.0950341 63.59C0.131751 62.3049 0.113391 61.0382 0.113391 59.7531L0.35205 59.6797Z" fill="white"/>
<path d="M49.1994 33.5623C46.978 26.5495 42.3884 21.5376 35.5775 18.6737C32.3898 17.3559 28.9395 16.7965 25.4988 17.0398C20.7859 17.3023 16.2677 19.0071 12.5561 21.9232C10.0395 23.867 7.95244 26.3107 6.4264 29.1005C4.90037 31.8904 3.96836 34.9659 3.68906 38.1336C3.68906 38.1519 3.6707 38.1886 3.6707 38.207C3.6707 38.2254 3.65234 38.2804 3.65234 38.3171V42.2642C3.81757 43.6594 4.00115 45.1097 4.42339 46.4866C7.21386 55.4822 13.2721 61.0998 22.4513 63.1743C23.0387 63.3028 23.6078 63.3763 24.177 63.4497L24.948 63.5415H28.8216C30.4555 63.3396 31.9242 63.1376 33.3928 62.6786C42.2599 59.7964 47.7674 53.7565 49.7501 44.7058C50.5574 41.0082 50.3674 37.1624 49.1994 33.5623ZM12.5928 40.8506C12.6648 41.9859 13.125 43.0619 13.8963 43.8981L14.0799 44.1184C14.2635 44.3203 14.447 44.5406 14.6673 44.7426C15.3466 45.33 15.5853 46.046 15.4384 46.9823C15.1814 48.5611 15.622 49.993 16.7602 51.3699C17.4211 52.1593 17.7332 52.9304 17.7699 53.7749C17.7847 54.1228 17.8401 54.4679 17.9351 54.8029V54.858C18.1055 55.5972 18.4735 56.2761 18.9999 56.8223C19.3056 57.1549 19.6848 57.4114 20.1072 57.5714C20.5296 57.7315 20.9835 57.7907 21.4328 57.7444C21.8821 57.698 22.3144 57.5474 22.6952 57.3044C23.076 57.0615 23.3948 56.7329 23.6262 56.345C24.232 55.4271 24.3422 54.4358 24.4523 53.4811C24.4523 53.4261 24.4707 53.371 24.4707 53.3159V53.2425C24.5074 52.6734 24.6726 52.4714 25.1683 52.3429C26.7288 51.9574 27.4815 50.7825 27.2244 49.1302C27.2244 49.0751 27.2061 49.0201 27.2061 48.965C27.1773 48.7543 27.1344 48.5457 27.0776 48.3408C26.9858 48.0654 26.9674 47.735 27.408 47.3311L28.0689 46.7436C28.7575 46.0747 29.4872 45.4493 30.2536 44.8711C31.3367 44.0633 31.9425 42.9618 31.9792 41.7502C32.016 40.5385 31.4101 39.1249 30.2719 38.1519C29.5009 37.491 28.3076 36.6282 26.6186 36.72C25.7558 36.7567 25.0765 37.1422 24.4707 37.5461L24.2871 37.6562L24.1953 37.4543L23.8465 36.6282C23.1489 34.774 21.7537 33.7092 19.7159 33.4706C18.2289 33.287 17.0172 33.0299 15.9708 32.3691L15.6036 32.0937C15.8636 32.0074 16.1401 31.9823 16.4114 32.0202C18.1187 32.2956 19.4956 31.9101 20.5971 30.9004C20.9459 30.5699 21.4232 30.5332 21.974 30.4965H22.1208C24.3055 30.3129 25.5355 28.8075 25.462 26.3292C25.4437 25.3562 25.1316 24.4382 24.8379 23.6856L24.5808 23.043C24.2687 22.2352 23.9383 21.3908 23.6446 20.5646L24.4156 20.4545L24.691 20.4178C24.8507 20.8173 24.9796 21.2285 25.0765 21.6478C25.1776 22.1098 25.3445 22.555 25.5722 22.9696C25.8595 23.5119 26.2841 23.9694 26.8037 24.2962C27.3232 24.6229 27.9194 24.8077 28.5327 24.8318C29.1459 24.856 29.7548 24.7187 30.2984 24.4338C30.842 24.1489 31.3013 23.7263 31.6304 23.2082C32.0617 22.568 32.367 21.8515 32.53 21.097L33.76 21.5009C33.1909 22.07 32.6218 22.6391 32.0894 23.2633C30.9145 24.6218 30.8777 25.8335 31.9425 27.2287C32.1695 27.5252 32.4148 27.8072 32.6769 28.0732C33.7416 29.0829 35.0451 29.3399 36.3485 28.7892L37.0278 28.4771C37.5785 28.2201 37.7805 28.1283 37.9824 28.1283C38.1844 28.1283 38.625 28.2201 39.3226 28.422L39.653 28.5138C40.7729 28.8259 41.801 28.5872 42.572 27.8529C43.8503 29.4472 44.8723 31.231 45.6011 33.1401C44.2207 33.262 42.8318 33.0348 41.5623 32.4792C39.6714 31.7081 37.9641 31.855 36.4954 32.9198C35.7156 33.4684 35.0744 34.1913 34.6228 35.031C34.0757 35.9922 33.7027 37.0425 33.5213 38.1336C33.246 39.7858 33.8151 41.126 35.1736 42.0255C36.5321 42.9251 37.5602 43.5309 39.0105 44.0449L39.5612 44.2836L39.653 44.3203C40.2956 44.5957 40.4424 44.8527 40.4057 45.5503C40.3554 46.089 40.2383 46.6194 40.0569 47.1291C40.0007 47.3286 39.9332 47.5247 39.855 47.7166C39.5979 48.4326 39.3409 49.1669 39.2859 49.993C39.1757 51.7187 39.8733 53.0956 41.3604 54.1237C38.1844 57.4282 34.4393 59.4109 30.2352 60.0167C22.0107 61.1916 15.3466 58.3828 10.4266 51.682C8.44387 48.9833 7.28729 45.789 6.95684 42.1724C6.7086 39.5511 6.9768 36.9066 7.74625 34.3885C9.03133 36.1325 10.6652 37.4359 12.3542 38.7027C12.4466 38.7644 12.5209 38.8497 12.5693 38.9498C12.6177 39.0498 12.6385 39.161 12.6296 39.2718C12.6296 39.4554 12.6112 39.6206 12.6112 39.8225C12.5866 40.1646 12.5805 40.5078 12.5928 40.8506ZM22.1575 26.935C22.1535 27.0095 22.1412 27.0834 22.1208 27.1553L21.9189 27.192L21.4232 27.2471L20.5053 27.3756C19.7893 27.5041 19.1284 27.8345 18.4124 28.4404C18.0269 28.7525 17.7148 28.8443 17.366 28.7892H17.3109C15.9722 28.5897 14.6051 28.8348 13.419 29.4868C12.2991 30.111 11.7667 31.0105 11.8218 32.1304C11.8359 32.7822 12.1064 33.4022 12.5745 33.8561C13.9754 35.2177 15.7538 36.1261 17.6781 36.463L18.7796 36.6465L19.8444 36.8301C20.2483 36.9036 20.5053 37.1422 20.6889 37.5828L20.8357 37.9133C20.9838 38.3147 21.1555 38.707 21.3498 39.0882C21.9005 40.1713 22.7266 40.8139 23.8098 40.9975C24.4275 41.0981 25.0612 40.9882 25.6089 40.6854L26.1413 40.3549C26.7104 39.951 26.9674 39.9327 27.2244 40.0612C28.0322 40.41 28.4728 40.8322 28.6747 41.4013C28.7247 41.5223 28.73 41.6571 28.6896 41.7815C28.6492 41.906 28.5659 42.012 28.4544 42.0806L26.5085 43.7329L25.8659 44.302C25.4678 44.6301 25.0992 44.9926 24.7644 45.3851C23.8832 46.4132 23.5711 47.5514 23.8465 48.763C23.8465 48.8181 23.8649 48.8548 23.8649 48.9099C23.8649 48.965 23.8832 49.0201 23.9016 49.0751C23.9227 49.1531 23.935 49.2331 23.9383 49.3138L23.718 49.3872C22.6349 49.7177 21.8822 50.4704 21.4783 51.6269C21.32 52.159 21.2215 52.707 21.1845 53.2608C21.1478 53.4628 21.1295 53.6647 21.1111 53.8666C21.0964 53.9014 21.0901 53.9391 21.0928 53.9768C21.0593 53.813 21.0348 53.6476 21.0193 53.4811C20.9092 52.4163 20.7072 51.2781 20.0096 50.3051L19.7893 49.993L19.055 48.965C18.8941 48.7557 18.7771 48.5162 18.7108 48.2607C18.6446 48.0052 18.6305 47.739 18.6695 47.478C18.9448 45.5687 18.4308 43.9348 17.109 42.5763C15.7872 41.2178 15.8423 41.2545 15.879 40.0795C15.879 39.8776 15.8973 39.6389 15.8973 39.3636C15.9157 37.9133 15.3833 36.8301 14.2451 36.0407C13.0999 35.2346 12.0361 34.3184 11.0691 33.3053C10.2981 32.5159 9.91253 31.8734 9.74731 31.1574V31.1207C9.70794 30.9423 9.63302 30.7737 9.52701 30.625C9.43522 30.5149 9.41686 30.4965 9.67388 30.0743C12.2624 25.8518 15.8973 22.9145 20.4686 21.3357C20.7256 22.1802 21.056 23.0063 21.3681 23.8141C21.5701 24.3281 21.7904 24.8788 21.974 25.4112C22.1513 25.8983 22.2141 26.4197 22.1575 26.935ZM28.9501 21.3173C28.8583 21.4642 28.7482 21.5376 28.6564 21.5193C28.5646 21.5009 28.4728 21.4275 28.3994 21.2806C28.2893 21.0134 28.2033 20.737 28.1424 20.4545C28.141 20.4034 28.1285 20.3533 28.1056 20.3076H28.1607L28.4544 20.3443L29.3173 20.4361C29.2527 20.7508 29.128 21.05 28.9501 21.3173ZM39.6163 25.1175L39.4511 25.0624C38.9039 24.8738 38.3242 24.7978 37.7469 24.8388C37.1696 24.8798 36.6065 25.0371 36.0915 25.3011L35.6325 25.5214L35.2287 25.705C35.0818 25.7784 35.0267 25.7784 34.8615 25.6132H34.8431L34.6228 25.3562C34.6863 25.2624 34.7602 25.1762 34.8431 25.0992L35.963 23.9242C36.2751 23.6121 36.6055 23.3 36.9176 22.9696C38.0639 23.6372 39.1402 24.4183 40.1303 25.3011L39.6163 25.1175ZM42.6087 49.9013C42.7553 49.335 42.9331 48.7773 43.1411 48.2306L43.2513 47.9002C43.6176 46.8587 43.7431 45.7477 43.6184 44.6508C43.545 43.9505 43.2847 43.2829 42.8649 42.7177C42.445 42.1526 41.881 41.7106 41.2318 41.4381L40.1671 40.9791C39.3477 40.6718 38.5606 40.2844 37.8172 39.8225L37.5418 39.6573L37.3215 39.5288C37.1097 39.3975 36.9127 39.2436 36.7341 39.0698C36.7318 38.8281 36.7627 38.5872 36.8258 38.3539C36.9905 37.5087 37.3557 36.7154 37.8906 36.0407C38.3129 35.5267 38.7535 35.288 39.2675 35.288C39.4604 35.2931 39.6518 35.324 39.8366 35.3798L41.2502 35.8388L42.0396 36.0958C43.1121 36.4366 44.2453 36.543 45.3625 36.4079H45.8765L46.519 36.3712C46.7944 37.6807 46.9237 39.0168 46.9046 40.3549C46.9127 44.3424 45.7161 48.2394 43.4716 51.5351C43.4532 51.5535 43.4348 51.5719 43.4348 51.5902L43.3798 51.5535C42.7005 51.2047 42.4251 50.5989 42.6087 49.9013Z" fill="white"/>
</svg>
