<svg width="80" height="80" viewBox="0 0 80 80" fill="none" xmlns="http://www.w3.org/2000/svg">
<path d="M39.9048 79.9799H2.85305C2.40013 80.0057 1.94583 79.9928 1.49513 79.9411C0.641582 79.7859 0.079016 79.2816 0.0596172 78.3698C0.0402184 76.236 0.0402184 74.1021 0.079016 71.9682C0.0984148 70.9595 0.757975 70.4551 1.9413 70.4551H11.8347C13.1344 70.4551 13.1732 70.3969 12.9016 69.136C11.4661 62.5921 10.0177 56.0612 8.5563 49.5432C8.24592 48.1271 8.4981 46.9244 9.58444 45.935C10.174 45.3704 10.9602 45.0573 11.7765 45.0621H42.0387C43.7264 45.0621 44.8709 46.0126 45.3365 47.6809C45.6468 48.7672 45.8602 49.8924 46.093 50.9981C46.2288 51.6577 46.4228 51.9487 47.063 51.3473C48.6731 49.7954 50.5741 48.709 52.611 47.8555C53.29 47.5839 53.3482 47.3705 52.805 46.905C49.9922 44.4607 48.9058 41.2793 48.9834 37.6323C49.0222 35.4791 48.8864 33.3064 49.1192 31.1531C49.643 26.09 53.8331 21.9387 58.8962 21.3761C64.9875 20.6778 70.9235 25.1589 71.2533 32.2589C71.4019 34.7148 71.376 37.1782 71.1757 39.6304C70.8847 42.4432 69.7596 44.8487 67.6257 46.7304C66.9661 47.3123 66.9855 47.5451 67.8197 47.9137C74.5899 51.0175 78.586 56.2552 79.75 63.6267C79.9246 64.6937 79.847 65.7606 79.8664 66.8275V77.5939C79.8664 79.4756 79.3426 79.9799 77.4221 79.9993L39.9048 79.9799ZM31.8155 70.4357H45.8602C47.0242 70.4357 47.0436 70.4163 46.7914 69.2912C45.3365 62.7538 43.8621 56.2358 42.446 49.6984C42.2326 48.6702 41.8447 48.3405 40.7777 48.3405C31.5827 48.3793 22.3683 48.3599 13.1538 48.3599H12.2809C12.0675 48.3793 11.8541 48.4763 11.8347 48.6702C11.8346 49.4172 11.9864 50.1564 12.2809 50.8429C12.5137 51.4249 13.115 51.2309 13.5806 51.2309H28.5177C28.8738 51.2151 29.2306 51.228 29.5846 51.2697C29.9626 51.3368 30.3053 51.5338 30.5537 51.8265C30.802 52.1193 30.9404 52.4895 30.945 52.8734C30.9496 53.2573 30.8201 53.6308 30.5789 53.9294C30.3376 54.228 29.9997 54.4331 29.6234 54.5093C29.2759 54.5516 28.9255 54.5646 28.5759 54.5481H14.3177C13.115 54.5481 13.0762 54.5675 13.3284 55.7314C14.3177 60.2513 15.3653 64.7519 16.3158 69.2718C16.5098 70.1641 16.8784 70.4163 17.7513 70.4163C22.4265 70.4163 27.121 70.4357 31.8155 70.4357ZM63.4744 70.4357C67.4705 70.4357 71.4861 70.4163 75.4822 70.4551C76.3552 70.4551 76.7043 70.2029 76.6849 69.2912C76.6267 67.6811 76.6849 66.0516 76.5104 64.4415C76.1636 60.4696 74.3271 56.7758 71.3697 54.1019C67.8779 50.8623 63.6877 49.4074 58.935 49.7372C54.6091 50.0282 51.0009 51.871 47.9941 54.9555C47.3927 55.5568 47.2181 56.1776 47.4315 57.0505C48.3821 61.1631 49.2938 65.3144 50.1862 69.4464C50.3608 70.2611 50.7875 70.4551 51.5441 70.4357C55.5208 70.4163 59.4976 70.4357 63.4744 70.4357ZM39.9048 76.6433H76.0836C76.3164 76.6433 76.5686 76.5851 76.6074 76.3136C76.7043 75.5764 76.8401 74.8004 76.5492 74.1215C76.2582 73.4425 75.5598 73.7917 75.0554 73.7917C51.6605 73.7658 28.259 73.7658 4.85113 73.7917H3.88118C3.6872 73.8111 3.45441 73.8305 3.37682 74.0245C3.14092 74.7674 3.12743 75.5631 3.33802 76.3136C3.49321 76.9149 4.17217 76.6627 4.61834 76.6627L39.9048 76.6433ZM57.2667 35.9834H53.29C52.611 35.964 52.2618 36.1774 52.3006 36.9146C52.3394 37.6517 52.2812 38.2725 52.32 38.9514C52.4752 42.7342 55.5014 45.935 59.129 46.226C63.5519 46.5558 66.9855 44.1503 67.7615 40.1542C68.1495 38.1949 67.9167 36.2162 67.9361 34.2569C67.9555 33.5392 67.5287 33.7914 67.1601 33.9853C66.1632 34.5808 65.1026 35.0623 63.9981 35.4209C61.7867 36.158 59.517 35.9446 57.2667 35.9834ZM57.0339 32.6468H60.1184C62.5432 32.6468 64.6771 31.8127 66.5976 30.3966C67.2377 29.9116 67.4123 29.4654 66.9855 28.6895C66.1725 27.2032 64.8987 26.0212 63.3558 25.3214C61.8129 24.6217 60.0844 24.4421 58.4307 24.8097C55.1329 25.5275 52.5722 28.4761 52.3394 31.7739C52.2812 32.414 52.5334 32.6468 53.1542 32.6468C54.4345 32.6274 55.7342 32.6468 57.0339 32.6468Z" fill="white"/>
<path d="M19.3794 40.0582C9.73818 40.0582 1.08631 32.221 0.0969671 22.0173C-0.989367 10.9211 7.17754 1.02773 18.2931 0.077193C21.6103 -0.19439 24.8693 0.232384 27.9537 1.6485C29.1758 2.19166 29.6414 3.00641 29.2534 3.95696C28.8654 4.9075 27.9537 5.23728 26.6733 4.71351C20.0777 2.05587 12.8226 3.37499 8.12808 8.30229C3.43356 13.2296 2.07565 19.1074 4.26771 25.509C6.45978 31.9107 11.0573 35.577 17.6917 36.5276C28.264 38.0407 37.3039 29.641 36.7025 18.9716C36.6279 17.0895 36.1933 15.2391 35.4222 13.5206C35.2282 13.0744 34.9954 12.6282 35.0342 12.1433C35.0406 11.78 35.171 11.4299 35.404 11.1511C35.6369 10.8723 35.9582 10.6816 36.3146 10.6108C37.2069 10.378 37.8083 10.8823 38.1768 11.6389C39.0476 13.4485 39.6176 15.388 39.8645 17.3809C40.4023 21.4655 39.6731 25.6167 37.7753 29.2733C35.8776 32.93 32.9029 35.9159 29.2534 37.8273C26.3824 39.3404 23.298 40.097 19.3794 40.0582Z" fill="white"/>
<path d="M18.3308 14.1257V9.27597C18.3243 8.98445 18.3373 8.69282 18.3696 8.40302C18.486 7.1615 19.1649 6.44374 20.1349 6.52133C21.1048 6.59893 21.648 7.37488 21.648 8.53881C21.6674 11.759 21.6674 14.9986 21.648 18.2188C21.6286 18.9948 21.8032 19.5573 22.4433 20.0617C23.2489 20.7604 24.0132 21.5053 24.7324 22.2926C25.5083 23.0879 25.5471 24.1161 24.8876 24.795C24.228 25.474 23.2775 25.4352 22.4045 24.601L19.1067 21.4778C18.8468 21.2324 18.6429 20.9338 18.5089 20.6024C18.375 20.2709 18.3143 19.9144 18.3308 19.5573V14.1257Z" fill="white"/>
<path d="M32.4928 21.7692C31.2707 21.7692 30.4753 21.2066 30.3589 20.2561C30.2425 19.3056 30.8051 18.646 31.6975 18.4132C32.9584 18.0834 34.1805 18.5296 34.5491 19.4219C35.0535 20.6635 34.0835 21.7692 32.4928 21.7692Z" fill="white"/>
<path d="M7.50767 21.6653C6.57653 21.6653 5.72298 21.5101 5.4126 20.482C5.10222 19.4539 5.49019 19.0271 6.20795 18.5809C6.9257 18.1347 8.6134 18.2317 9.21476 18.8525C9.81613 19.4733 9.87432 20.1522 9.46695 20.8894C9.05957 21.6265 8.24482 21.6459 7.50767 21.6653Z" fill="white"/>
<path d="M21.6877 32.47C21.6724 32.8225 21.6269 33.1729 21.5519 33.5176C21.1833 34.7591 19.7284 35.1277 18.8555 34.2353C17.9825 33.343 18.1377 31.5001 18.9331 30.7436C19.1073 30.5743 19.3188 30.4483 19.5506 30.3756C19.7824 30.303 20.028 30.2858 20.2677 30.3255C20.5074 30.3651 20.7344 30.4604 20.9305 30.6038C21.1266 30.7472 21.2863 30.9346 21.3967 31.1509C21.6489 31.5583 21.6489 32.0045 21.6877 32.47Z" fill="white"/>
<path d="M34.6262 7.05892C34.6215 7.48298 34.4535 7.88891 34.1573 8.19237C33.8611 8.49583 33.4593 8.67348 33.0355 8.68842C32.5976 8.6739 32.1817 8.49347 31.8719 8.18369C31.5621 7.87392 31.3817 7.45797 31.3672 7.02013C31.3918 6.58258 31.5819 6.17076 31.8989 5.86817C32.2159 5.56558 32.6361 5.39486 33.0743 5.39062C33.4963 5.42014 33.8913 5.60885 34.1794 5.91857C34.4675 6.2283 34.6272 6.63591 34.6262 7.05892Z" fill="white"/>
<path d="M37.2253 52.8258C37.2641 53.6988 36.5658 54.5136 35.7316 54.5523C35.2906 54.5577 34.865 54.3901 34.5459 54.0856C34.2269 53.781 34.0397 53.3637 34.0245 52.9228C34.0168 52.7139 34.0502 52.5055 34.1231 52.3095C34.1959 52.1135 34.3066 51.9338 34.449 51.7807C34.5913 51.6276 34.7624 51.504 34.9526 51.417C35.1427 51.3301 35.3481 51.2814 35.557 51.2739C35.9828 51.2633 36.3957 51.4198 36.7075 51.7098C37.0193 51.9999 37.2052 52.4005 37.2253 52.8258Z" fill="white"/>
</svg>
