<svg width="101" height="101" viewBox="0 0 101 101" fill="none" xmlns="http://www.w3.org/2000/svg">
<path d="M50.3807 59.4098C55.2498 59.4098 59.1969 55.4626 59.1969 50.5936C59.1969 45.7245 55.2498 41.7773 50.3807 41.7773C45.5116 41.7773 41.5645 45.7245 41.5645 50.5936C41.5645 55.4626 45.5116 59.4098 50.3807 59.4098Z" fill="#61DAFB"/>
<path d="M50.3808 68.6563C76.5076 68.6563 97.6875 60.5694 97.6875 50.5938C97.6875 40.6181 76.5076 32.5312 50.3808 32.5312C24.2541 32.5312 3.07422 40.6181 3.07422 50.5938C3.07422 60.5694 24.2541 68.6563 50.3808 68.6563Z" stroke="#61DAFB" stroke-width="5"/>
<path d="M34.7382 59.625C47.8016 82.2514 65.395 96.5503 74.0341 91.5625C82.6733 86.5746 79.0868 64.1889 66.0234 41.5625C52.9601 18.9361 35.3667 4.63718 26.7275 9.62501C18.0883 14.6128 21.6749 36.9986 34.7382 59.625Z" stroke="#61DAFB" stroke-width="5"/>
<path d="M34.7382 41.5625C21.6749 64.1889 18.0884 86.5746 26.7275 91.5625C35.3667 96.5503 52.9601 82.2514 66.0234 59.625C79.0868 36.9986 82.6733 14.6128 74.0342 9.62499C65.395 4.63716 47.8016 18.936 34.7382 41.5625Z" stroke="#61DAFB" stroke-width="5"/>
</svg>
