<svg width="75" height="101" viewBox="0 0 75 101" fill="none" xmlns="http://www.w3.org/2000/svg">
<path d="M24.1532 77.9289C24.1532 77.9289 20.3319 80.1511 26.8728 80.903C34.7971 81.8069 38.8468 81.6775 47.5795 80.0245C47.5795 80.0245 49.8755 81.4641 53.0815 82.7111C33.5057 91.101 8.77706 82.225 24.1532 77.9289ZM21.761 66.9805C21.761 66.9805 17.475 70.1532 24.0208 70.8301C32.4857 71.7033 39.1705 71.7749 50.738 69.5475C50.738 69.5475 52.338 71.1694 54.8538 72.0566C31.1851 78.9776 4.82258 72.6023 21.761 66.9805Z" fill="#5382A1"/>
<path d="M41.9272 48.4099C46.7508 53.9632 40.6599 58.9606 40.6599 58.9606C40.6599 58.9606 52.9075 52.638 47.2827 44.7203C42.0294 37.3372 38.0005 33.6682 59.8103 21.0195C59.8103 21.0195 25.5763 29.5695 41.9272 48.4096" fill="#E76F00"/>
<path d="M67.8179 86.0283C67.8179 86.0283 70.6458 88.3582 64.7034 90.1609C53.404 93.584 17.6736 94.6177 7.7477 90.2972C4.17976 88.7453 10.8709 86.5912 12.9756 86.1389C15.1705 85.6629 16.4251 85.7518 16.4251 85.7518C12.457 82.9563 -9.22284 91.2405 5.41289 93.6127C45.3262 100.086 78.1708 90.6982 67.8179 86.0283ZM25.9905 55.638C25.9905 55.638 7.81603 59.955 19.5547 61.5222C24.5109 62.1858 34.3913 62.0359 43.5948 61.2645C51.1163 60.6305 58.6689 59.2812 58.6689 59.2812C58.6689 59.2812 56.0167 60.4171 54.098 61.7272C35.6418 66.5813 -0.0121386 64.3232 10.2522 59.3579C18.9327 55.162 25.9907 55.638 25.9907 55.638H25.9905ZM58.5939 73.862C77.3558 64.1127 68.681 54.7439 62.6262 56.0063C61.1421 56.3149 60.4805 56.5824 60.4805 56.5824C60.4805 56.5824 61.0315 55.7196 62.0837 55.3461C74.0617 51.1348 83.2739 67.7664 58.2169 74.3533C58.2169 74.3536 58.5073 74.0942 58.5939 73.862Z" fill="#5382A1"/>
<path d="M47.2829 0.59404C47.2829 0.59404 57.6735 10.9884 37.428 26.971C21.1934 39.7922 33.726 47.1024 37.4213 55.4546C27.9448 46.9046 20.9902 39.3779 25.6561 32.3729C32.5039 22.0894 51.4751 17.1039 47.2829 0.59375" fill="#E76F00"/>
<path d="M27.834 100.28C45.8429 101.433 73.4973 99.6404 74.1522 91.1191C74.1522 91.1191 72.8933 94.3498 59.2689 96.915C43.8981 99.8075 24.9404 99.4699 13.6963 97.616C13.6966 97.616 15.9981 99.5211 27.8343 100.28" fill="#5382A1"/>
</svg>
