<svg width="82" height="80" viewBox="0 0 82 80" fill="none" xmlns="http://www.w3.org/2000/svg">
<path d="M18.4161 70.2968C17.1993 70.2164 16.0429 69.7377 15.1251 68.9347C14.2074 68.1317 13.5794 67.049 13.3382 65.8536C13.2359 65.1515 13.2819 64.4356 13.4732 63.7523C13.6645 63.069 13.9969 62.4334 14.449 61.8865L22.7007 52.6827L24.1288 43.7963C24.1601 43.5879 24.2321 43.3877 24.3407 43.2071C24.4493 43.0266 24.5925 42.8692 24.7619 42.7439C24.9314 42.6187 25.1238 42.528 25.3283 42.4771C25.5328 42.4263 25.7453 42.4162 25.9537 42.4474C26.1621 42.4787 26.3623 42.5507 26.5429 42.6593C26.7234 42.7679 26.8808 42.9111 27.0061 43.0805C27.1313 43.25 27.222 43.4425 27.2729 43.6469C27.3237 43.8514 27.3338 44.0639 27.3026 44.2723L25.8744 53.1587C25.778 53.8032 25.5032 54.4079 25.081 54.9043L16.8293 64.1081C16.6657 64.3032 16.5514 64.5348 16.4962 64.7834C16.441 65.032 16.4464 65.2902 16.5119 65.5362C16.5295 65.7968 16.6111 66.049 16.7495 66.2704C16.8879 66.4919 17.0789 66.6758 17.3054 66.8057C17.7115 67.1258 18.2166 67.2941 18.7335 67.2818L20.003 66.4884L28.7307 55.6977C29.5133 54.8688 30.0134 53.8133 30.1589 52.6827L30.9524 46.4939C31.0296 46.1012 31.2523 45.7521 31.5761 45.5167C31.8998 45.2813 32.3004 45.1769 32.6979 45.2244C33.1039 45.2995 33.4703 45.516 33.7317 45.8356C33.9932 46.1552 34.133 46.5571 34.1261 46.97L33.3327 53.1587C33.0429 54.8418 32.3333 56.4245 31.2697 57.7606L22.542 68.3926C22.1491 68.9239 21.6499 69.3676 21.0762 69.6954C20.5025 70.0233 19.8668 70.2281 19.2096 70.2968H18.4161Z" fill="white"/>
<path d="M44.7617 66.0171C43.5726 66.0081 42.422 65.5947 41.4991 64.8448C40.5762 64.0949 39.936 63.0533 39.6838 61.8912L37.3035 50.3072H37.1448L25.0847 45.5466C23.3158 44.8683 21.8799 43.529 21.0804 41.8115C20.2809 40.094 20.1803 38.133 20.8001 36.3428L26.8302 18.7286C27.143 17.7944 27.6417 16.9332 28.2962 16.1969C28.9508 15.4605 29.7476 14.8643 30.6387 14.4441C31.5286 14.0257 32.4954 13.7957 33.4784 13.7684C34.4615 13.7411 35.4395 13.9171 36.3514 14.2854C37.3025 14.6246 38.1687 15.166 38.8904 15.8723L39.2077 16.1897L44.2857 23.3305H52.696C53.4049 23.2017 54.1335 23.2301 54.8302 23.4138C55.527 23.5975 56.1748 23.932 56.728 24.3937C57.2812 24.8554 57.7262 25.4329 58.0316 26.0856C58.3369 26.7382 58.4952 27.4499 58.4952 28.1705C58.4952 28.891 58.3369 29.6027 58.0316 30.2554C57.7262 30.908 57.2812 31.4855 56.728 31.9472C56.1748 32.4089 55.527 32.7434 54.8302 32.9271C54.1335 33.1109 53.4049 33.1393 52.696 33.0104H40.1598C39.9272 33.0197 39.695 32.9824 39.4769 32.9006C39.2589 32.8189 39.0595 32.6943 38.8904 32.5343L37.7795 31.2648L35.7166 37.4536L43.3335 40.4686C44.1327 40.8403 44.8351 41.3917 45.3857 42.08C45.9363 42.7682 46.3201 43.5745 46.5073 44.4358L49.8397 59.987C49.9754 60.6992 49.9618 61.4317 49.7996 62.1384C49.6375 62.845 49.3304 63.5102 48.8978 64.092C48.4652 64.6737 47.9165 65.1593 47.2865 65.518C46.6565 65.8767 46.4541 65.8739 45.7331 65.949C45.012 66.024 44.7617 66.0171 44.7617 66.0171ZM33.8124 16.8244C33.2122 16.7621 32.6067 16.8722 32.0668 17.1418C31.5544 17.3671 31.0932 17.6943 30.7113 18.1035C30.3294 18.5127 30.0347 18.9954 29.8452 19.5221L23.8152 37.1362C23.4941 38.1903 23.576 39.326 24.0452 40.323C24.5144 41.32 25.3373 42.1071 26.3541 42.5315L38.2556 47.1334C38.7897 47.3674 39.2658 47.7162 39.6497 48.155C40.0337 48.5938 40.3163 49.1119 40.4772 49.6724L42.6988 61.2565C42.8397 61.7305 43.1347 62.144 43.5371 62.4314C43.9395 62.7189 44.4263 62.8638 44.9204 62.8433C45.2051 62.8376 45.4841 62.7623 45.7331 62.624C45.982 62.4857 46.1933 62.2886 46.3486 62.0499C46.5333 61.8327 46.6709 61.5795 46.7529 61.3064C46.8348 61.0332 46.8593 60.7461 46.8246 60.4631L43.4922 44.9118C43.4216 44.5422 43.2511 44.199 42.9994 43.9193C42.7477 43.6396 42.4242 43.4341 42.0641 43.325L33.019 39.6752C32.6445 39.502 32.3521 39.1897 32.204 38.8046C32.0559 38.4195 32.0636 37.9918 32.2255 37.6123L35.3992 28.4085L32.5429 25.0761C32.2522 24.7795 32.0893 24.3806 32.0893 23.9653C32.0893 23.5499 32.2522 23.1511 32.5429 22.8545C32.8737 22.618 33.2767 22.5045 33.6823 22.5335C34.0879 22.5624 34.4707 22.7321 34.7645 23.0132L38.4143 26.9803L40.7946 29.678H52.696C53.1327 29.6798 53.5543 29.5178 53.8774 29.224C54.2006 28.9303 54.4019 28.526 54.4416 28.0911C54.4416 27.6282 54.2577 27.1842 53.9303 26.8568C53.603 26.5295 53.1589 26.3456 52.696 26.3456H43.4922C43.0031 26.3055 42.5483 26.0781 42.2227 25.7108L36.8274 18.0939L35.2405 16.9831L33.8124 16.8244Z" fill="white"/>
<path d="M35.8706 14.5974C34.4138 14.6288 32.981 14.2234 31.7566 13.4335C30.5322 12.6437 29.5722 11.5054 29.0001 10.1653C28.4281 8.82524 28.2702 7.3446 28.5468 5.914C28.8233 4.4834 29.5217 3.16831 30.552 2.13799C31.5824 1.10768 32.8974 0.409284 34.328 0.132709C35.7586 -0.143867 37.2393 0.0140309 38.5794 0.58608C39.9195 1.15813 41.0577 2.11815 41.8476 3.34258C42.6375 4.56701 43.0428 5.9998 43.0115 7.45655C43.0115 9.35043 42.2592 11.1667 40.92 12.5059C39.5808 13.8451 37.7645 14.5974 35.8706 14.5974ZM35.8706 3.33072C35.2722 3.21165 34.6549 3.22676 34.0631 3.37496C33.4713 3.52316 32.9197 3.80077 32.4481 4.18779C31.9765 4.57481 31.5965 5.0616 31.3357 5.61311C31.0748 6.16462 30.9396 6.76712 30.9396 7.37721C30.9396 7.9873 31.0748 8.5898 31.3357 9.14131C31.5965 9.69282 31.9765 10.1796 32.4481 10.5666C32.9197 10.9536 33.4713 11.2313 34.0631 11.3795C34.6549 11.5277 35.2722 11.5428 35.8706 11.4237C36.8067 11.2374 37.6493 10.7323 38.2548 9.99448C38.8603 9.25664 39.1912 8.33169 39.1912 7.37721C39.1912 6.42273 38.8603 5.49778 38.2548 4.75994C37.6493 4.0221 36.8067 3.51701 35.8706 3.33072Z" fill="white"/>
<path d="M79.99 79.9917H9.85076C9.63622 80.0172 9.41871 79.9938 9.21457 79.923C9.01043 79.8523 8.825 79.7362 8.67224 79.5834C8.51947 79.4306 8.40334 79.2452 8.33262 79.0411C8.26189 78.8369 8.23838 78.6194 8.2639 78.4049V68.725C8.23838 68.5105 8.26189 68.293 8.33262 68.0888C8.40334 67.8847 8.51947 67.6992 8.67224 67.5465C8.825 67.3937 9.01043 67.2776 9.21457 67.2069C9.41871 67.1361 9.63622 67.1126 9.85076 67.1382H32.0668V64.4405C32.0668 64.0196 32.234 63.616 32.5316 63.3184C32.8292 63.0208 33.2328 62.8536 33.6537 62.8536H52.696V59.5212C52.696 59.1004 52.8632 58.6968 53.1608 58.3992C53.4584 58.1016 53.862 57.9344 54.2828 57.9344H68.7233V47.1437C68.6977 46.9292 68.7213 46.7117 68.792 46.5075C68.8627 46.3034 68.9788 46.1179 69.1316 45.9652C69.2843 45.8124 69.4698 45.6963 69.6739 45.6256C69.8781 45.5548 70.0956 45.5314 70.3101 45.5569H79.99C80.2045 45.5314 80.422 45.5548 80.6262 45.6256C80.8303 45.6963 81.0157 45.8124 81.1685 45.9652C81.3213 46.1179 81.4374 46.3034 81.5081 46.5075C81.5788 46.7117 81.6024 46.9292 81.5768 47.1437V78.4049C81.6024 78.6194 81.5788 78.8369 81.5081 79.0411C81.4374 79.2452 81.3213 79.4306 81.1685 79.5834C81.0157 79.7362 80.8303 79.8523 80.6262 79.923C80.422 79.9938 80.2045 80.0172 79.99 79.9917ZM11.4376 76.818H78.4031V48.7306H71.7383V59.5212C71.7607 59.7217 71.7404 59.9246 71.6788 60.1166C71.6171 60.3086 71.5154 60.4854 71.3805 60.6353C71.2456 60.7853 71.0804 60.9049 70.8959 60.9864C70.7115 61.0679 70.5118 61.1093 70.3101 61.1081H55.8697V64.4405C55.8697 64.8614 55.7025 65.265 55.4049 65.5626C55.1073 65.8602 54.7037 66.0274 54.2828 66.0274H35.2405V68.725C35.2048 69.1339 35.0261 69.5171 34.7359 69.8073C34.4457 70.0975 34.0625 70.2761 33.6537 70.3119H11.4376V76.818Z" fill="white"/>
<path d="M24.4481 32.2109C24.1996 32.2249 23.9516 32.1737 23.729 32.0624C23.5063 31.951 23.3165 31.7834 23.1786 31.5761L19.2115 26.9743C18.8181 26.4928 18.5434 25.9256 18.4095 25.3184C18.2756 24.7112 18.2863 24.0811 18.4407 23.4788C18.5951 22.8765 18.889 22.319 19.2985 21.8511C19.708 21.3833 20.2218 21.0183 20.7983 20.7855L27.6219 18.4052C27.8087 18.3312 28.009 18.2974 28.2097 18.306C28.4105 18.3147 28.6072 18.3656 28.7869 18.4555C28.9666 18.5453 29.1253 18.6721 29.2527 18.8275C29.3801 18.9829 29.4732 19.1635 29.5261 19.3573C29.6017 19.5551 29.6371 19.766 29.63 19.9776C29.6229 20.1892 29.5736 20.3972 29.4849 20.5895C29.3961 20.7817 29.2698 20.9542 29.1134 21.0969C28.9569 21.2396 28.7736 21.3495 28.574 21.4202L21.9092 23.8005C21.5918 23.8005 21.5918 24.1179 21.4331 24.2766C21.4296 24.4984 21.4843 24.7172 21.5918 24.9113L25.5589 29.6719C25.8295 29.9889 25.9645 30.3995 25.9348 30.8152C25.9051 31.2309 25.7131 31.6182 25.4003 31.8935L24.4481 32.2109Z" fill="white"/>
<path d="M15.087 48.2384H5.40717C4.99832 48.2027 4.61513 48.024 4.32492 47.7338C4.03472 47.4436 3.85606 47.0604 3.82031 46.6515C3.82031 46.2307 3.98747 45.8271 4.28507 45.5295C4.58266 45.2319 4.98631 45.0647 5.40717 45.0647H15.087C15.3016 45.0392 15.5191 45.0627 15.7232 45.1334C15.9274 45.2041 16.1128 45.3202 16.2655 45.473C16.4183 45.6258 16.5344 45.8112 16.6052 46.0153C16.6759 46.2195 16.6994 46.437 16.6739 46.6515C16.6739 47.0724 16.5067 47.476 16.2091 47.7736C15.9115 48.0712 15.5079 48.2384 15.087 48.2384Z" fill="white"/>
<path d="M15.0816 40.1425H3.97358C3.55272 40.1425 3.14907 39.9753 2.85147 39.6777C2.55388 39.3801 2.38672 38.9765 2.38672 38.5556C2.42247 38.1468 2.60112 37.7636 2.89133 37.4734C3.18153 37.1832 3.56473 37.0045 3.97358 36.9688H15.0816C15.5025 36.9688 15.9061 37.1359 16.2037 37.4335C16.5012 37.7311 16.6685 38.1347 16.6685 38.5556C16.694 38.7701 16.6705 38.9877 16.5997 39.1918C16.529 39.396 16.4129 39.5814 16.2601 39.7342C16.1074 39.8869 15.9219 40.0031 15.7178 40.0738C15.5136 40.1445 15.2961 40.168 15.0816 40.1425Z" fill="white"/>
<path d="M15.0852 32.215H1.59686C1.176 32.215 0.77235 32.0478 0.474756 31.7502C0.177162 31.4526 0.0100011 31.049 0.0100011 30.6281C-0.0155164 30.4136 0.00794615 30.196 0.0786707 29.9919C0.149395 29.7878 0.265522 29.6023 0.41829 29.4496C0.571058 29.2968 0.756482 29.1807 0.960625 29.1099C1.16477 29.0392 1.38233 29.0157 1.59686 29.0412H15.0852C15.2997 29.0157 15.5172 29.0392 15.7214 29.1099C15.9255 29.1807 16.1109 29.2968 16.2637 29.4496C16.4165 29.6023 16.5326 29.7878 16.6033 29.9919C16.674 30.196 16.6975 30.4136 16.672 30.6281C16.672 31.049 16.5048 31.4526 16.2072 31.7502C15.9096 32.0478 15.506 32.215 15.0852 32.215Z" fill="white"/>
<path d="M74.7509 48.7157C74.3421 48.6799 73.9589 48.5013 73.6687 48.2111C73.3785 47.9208 73.1998 47.5377 73.1641 47.1288V10.9484C73.1641 10.5276 73.3313 10.1239 73.6289 9.82634C73.9265 9.52875 74.3301 9.36156 74.7509 9.36156C74.9655 9.33604 75.183 9.35953 75.3872 9.43026C75.5913 9.50098 75.7767 9.6171 75.9295 9.76987C76.0823 9.92263 76.1984 10.1081 76.2691 10.3122C76.3398 10.5164 76.3633 10.7339 76.3378 10.9484V47.1288C76.3378 47.5497 76.1706 47.9533 75.873 48.2509C75.5754 48.5485 75.1718 48.7157 74.7509 48.7157Z" fill="white"/>
<path d="M74.75 28.1024H73.9566L62.0551 20.6441C61.8286 20.5142 61.6378 20.3303 61.4994 20.1088C61.3609 19.8874 61.2793 19.6352 61.2617 19.3747C61.2674 19.0899 61.3427 18.8109 61.481 18.562C61.6193 18.3131 61.8164 18.1018 62.0551 17.9465L73.9566 10.6469C74.1915 10.49 74.4676 10.4062 74.75 10.4062C75.0325 10.4062 75.3086 10.49 75.5435 10.6469C75.7802 10.7644 75.9798 10.9452 76.1198 11.1694C76.2599 11.3935 76.3351 11.6521 76.3369 11.9164V26.6742C76.3312 26.9589 76.2559 27.2379 76.1176 27.4868C75.9793 27.7358 75.7822 27.9471 75.5435 28.1024H74.75ZM65.8637 19.216L73.1632 23.6592V14.6141L65.8637 19.216Z" fill="white"/>
</svg>
