<svg width="101" height="101" viewBox="0 0 101 101" fill="none" xmlns="http://www.w3.org/2000/svg">
<path d="M49.7442 0.855469C24.358 0.855469 25.943 11.8645 25.943 11.8645L25.9712 23.2701H50.1969V26.6944H16.3492C16.3492 26.6944 0.104492 24.852 0.104492 50.4666C0.104492 76.0819 14.2832 75.1735 14.2832 75.1735H22.7451V63.287C22.7451 63.287 22.2889 49.1082 36.6975 49.1082H60.725C60.725 49.1082 74.2244 49.3263 74.2244 36.0615V14.1289C74.2244 14.1289 76.2747 0.855469 49.7442 0.855469ZM36.3862 8.52554C36.9587 8.52502 37.5256 8.6374 38.0546 8.85623C38.5836 9.07507 39.0642 9.39607 39.469 9.80087C39.8738 10.2057 40.1948 10.6863 40.4137 11.2153C40.6325 11.7443 40.7449 12.3112 40.7444 12.8837C40.7449 13.4562 40.6325 14.0231 40.4137 14.5521C40.1948 15.0811 39.8738 15.5618 39.469 15.9666C39.0642 16.3713 38.5836 16.6923 38.0546 16.9112C37.5256 17.13 36.9587 17.2424 36.3862 17.2419C35.8137 17.2424 35.2468 17.13 34.7178 16.9112C34.1888 16.6923 33.7082 16.3713 33.3034 15.9666C32.8986 15.5618 32.5776 15.0811 32.3587 14.5521C32.1399 14.0231 32.0275 13.4562 32.028 12.8837C32.0275 12.3112 32.1399 11.7443 32.3587 11.2153C32.5776 10.6863 32.8986 10.2057 33.3034 9.80087C33.7082 9.39607 34.1888 9.07507 34.7178 8.85623C35.2468 8.6374 35.8137 8.52502 36.3862 8.52554Z" fill="url(#paint0_linear_380_4154)"/>
<path d="M50.4655 100.336C75.8518 100.336 74.2667 89.3268 74.2667 89.3268L74.2385 77.9215H50.0125V74.4972H83.8602C83.8602 74.4972 100.105 76.3396 100.105 50.7242C100.105 25.1092 85.9261 26.0177 85.9261 26.0177H77.4643V37.9038C77.4643 37.9038 77.9205 52.0825 63.5119 52.0825H39.4843C39.4843 52.0825 25.985 51.8644 25.985 65.1297V87.0627C25.985 87.0627 23.9351 100.336 50.4651 100.336H50.4655ZM63.8236 92.6665C63.2511 92.667 62.6841 92.5546 62.1552 92.3358C61.6262 92.1169 61.1455 91.7959 60.7407 91.3911C60.3359 90.9863 60.0149 90.5057 59.7961 89.9767C59.5772 89.4477 59.4649 88.8808 59.4654 88.3083C59.4648 87.7358 59.5772 87.1688 59.796 86.6398C60.0148 86.1107 60.3358 85.63 60.7406 85.2252C61.1454 84.8204 61.626 84.4993 62.1551 84.2805C62.6841 84.0616 63.2511 83.9492 63.8236 83.9497C64.396 83.9492 64.963 84.0616 65.492 84.2804C66.021 84.4993 66.5016 84.8203 66.9064 85.2251C67.3112 85.6299 67.6322 86.1105 67.851 86.6395C68.0699 87.1685 68.1823 87.7354 68.1817 88.3079C68.1823 88.8804 68.0699 89.4473 67.851 89.9763C67.6322 90.5053 67.3112 90.986 66.9064 91.3907C66.5016 91.7955 66.021 92.1165 65.492 92.3354C64.963 92.5542 64.396 92.6666 63.8236 92.6661V92.6665Z" fill="url(#paint1_linear_380_4154)"/>
<defs>
<linearGradient id="paint0_linear_380_4154" x1="9.71445" y1="9.80309" x2="59.2714" y2="58.8656" gradientUnits="userSpaceOnUse">
<stop stop-color="#387EB8"/>
<stop offset="1" stop-color="#366994"/>
</linearGradient>
<linearGradient id="paint1_linear_380_4154" x1="40.1329" y1="41.3084" x2="93.3514" y2="91.6175" gradientUnits="userSpaceOnUse">
<stop stop-color="#FFE052"/>
<stop offset="1" stop-color="#FFC331"/>
</linearGradient>
</defs>
</svg>
