<svg width="89" height="100" viewBox="0 0 89 100" fill="none" xmlns="http://www.w3.org/2000/svg">
<path d="M88.149 29.1965C88.1483 27.5316 87.7923 26.0604 87.0722 24.7981C86.3649 23.5561 85.3056 22.5155 83.8848 21.6927C72.1564 14.93 60.4166 8.18806 48.692 1.41851C45.5312 -0.40633 42.4664 -0.339459 39.329 1.51158C34.6607 4.26435 11.2884 17.6549 4.32378 21.6889C1.45554 23.3497 0.059858 25.8908 0.0591686 29.1934C0.0546875 42.7935 0.0591686 56.3936 0.0546875 69.9937C0.0546875 71.6221 0.396284 73.065 1.08465 74.3083C1.79231 75.5875 2.8664 76.6567 4.31999 77.4981C11.285 81.5322 34.6604 94.9217 39.3276 97.6755C42.4664 99.5275 45.5312 99.5937 48.6931 97.7685C60.418 90.9986 72.1584 84.2567 83.8885 77.494C85.3421 76.6529 86.4162 75.583 87.1239 74.3049C87.8112 73.0612 88.1535 71.6186 88.1535 69.9899C88.1535 69.9899 88.1535 42.7969 88.149 29.1965Z" fill="#A179DC"/>
<path d="M44.2392 49.4609L1.08496 74.3082C1.79263 75.5874 2.86671 76.6567 4.3203 77.4981C11.2853 81.5321 34.6607 94.9216 39.3279 97.6754C42.4667 99.5275 45.5315 99.5936 48.6934 97.7685C60.4183 90.9986 72.1588 84.2566 83.8889 77.4939C85.3425 76.6529 86.4165 75.5829 87.1242 74.3048L44.2392 49.4609Z" fill="#280068"/>
<path d="M88.1495 29.1972C88.1488 27.5323 87.7927 26.0611 87.0726 24.7988L44.2393 49.4621L87.1243 74.3057C87.8117 73.062 88.1532 71.6194 88.1539 69.9907C88.1539 69.9907 88.1539 42.7977 88.1495 29.1972Z" fill="#390091"/>
<path d="M69.647 40.1719V44.8163H74.2915V40.1719H76.6138V44.8163H81.2583V47.1386H76.6138V51.7827H81.2583V54.1049H76.6138V58.7494H74.2915V54.1049H69.647V58.7494H67.3248V54.1049H62.6807V51.7827H67.3248V47.1386H62.6807V44.8163H67.3248V40.1719H69.647ZM74.2915 47.1382H69.647V51.7827H74.2915V47.1382Z" fill="white"/>
<path d="M44.3337 16.848C56.4478 16.848 67.0242 23.4269 72.6893 33.2061L72.6341 33.112L58.3808 41.3186C55.5729 36.5641 50.4252 33.3553 44.5194 33.2891L44.3333 33.2881C35.328 33.2881 28.0273 40.5888 28.0273 49.5941C28.0244 52.4325 28.7659 55.222 30.1779 57.6842C32.9886 62.591 38.2725 65.9005 44.3337 65.9005C50.4324 65.9005 55.7463 62.549 58.5425 57.5898L58.4746 57.7087L72.7062 65.9532C67.1031 75.6496 56.6715 82.2082 44.6983 82.3388L44.3337 82.3409C32.1813 82.3409 21.5749 75.7213 15.9239 65.8905C13.1653 61.0912 11.5869 55.5274 11.5869 49.5941C11.5869 31.5091 26.2476 16.8477 44.3333 16.8477L44.3337 16.848Z" fill="white"/>
</svg>
