<svg width="101" height="101" viewBox="0 0 101 101" fill="none" xmlns="http://www.w3.org/2000/svg">
<path d="M100.829 0.59375H0.829102V100.594H100.829V0.59375Z" fill="#F7DF1E"/>
<path d="M68.0036 78.7187C70.0179 82.0076 72.6385 84.425 77.2735 84.425C81.1671 84.425 83.6544 82.479 83.6544 79.7901C83.6544 76.5679 81.0989 75.4266 76.8132 73.552L74.4639 72.5441C67.683 69.6552 63.1782 66.0361 63.1782 58.3854C63.1782 51.3377 68.5481 45.9727 76.9401 45.9727C82.9147 45.9727 87.21 48.052 90.3052 53.4965L82.9877 58.1949C81.3766 55.306 79.6385 54.1679 76.9401 54.1679C74.1878 54.1679 72.4433 55.9139 72.4433 58.1949C72.4433 61.0139 74.1893 62.1552 78.2211 63.9012L80.5703 64.9076C88.5544 68.3314 93.0624 71.8219 93.0624 79.6695C93.0624 88.1298 86.4163 92.7647 77.4909 92.7647C68.7639 92.7647 63.1258 88.606 60.3671 83.1552L68.0036 78.7187ZM34.8084 79.533C36.2846 82.152 37.6274 84.3663 40.856 84.3663C43.9433 84.3663 45.8909 83.1584 45.8909 78.4615V46.5092H55.2878V78.5885C55.2878 88.3187 49.583 92.7473 41.256 92.7473C33.7322 92.7473 29.3751 88.8536 27.1592 84.1639L34.8084 79.533Z" fill="black"/>
</svg>
