<svg width="85" height="85" viewBox="0 0 85 85" fill="none" xmlns="http://www.w3.org/2000/svg">
<rect x="42.5" y="1.41421" width="58.1041" height="58.1041" rx="9" transform="rotate(45 42.5 1.41421)" fill="#66C3CD" stroke="white" stroke-width="2"/>
<path d="M43.7998 50.7167C42.2851 52.8287 40.1624 53.8848 37.4318 53.8848C34.7011 53.8848 32.5784 52.8287 31.0638 50.7167C29.5491 48.6047 28.7918 45.7887 28.7918 42.2687C28.7918 38.7487 29.5491 35.9327 31.0638 33.8207C32.5784 31.7087 34.7011 30.6527 37.4318 30.6527C40.1624 30.6527 42.2851 31.7087 43.7998 33.8207C45.3144 35.9327 46.0718 38.7487 46.0718 42.2687C46.0718 45.7887 45.3144 48.6047 43.7998 50.7167ZM33.2398 48.7007C34.2211 50.2154 35.6184 50.9727 37.4318 50.9727C39.2451 50.9727 40.6424 50.2154 41.6238 48.7007C42.6264 47.1861 43.1278 45.0421 43.1278 42.2687C43.1278 39.4954 42.6264 37.3514 41.6238 35.8368C40.6424 34.3007 39.2451 33.5327 37.4318 33.5327C35.6184 33.5327 34.2211 34.2901 33.2398 35.8047C32.2584 37.3194 31.7678 39.4741 31.7678 42.2687C31.7678 45.0421 32.2584 47.1861 33.2398 48.7007ZM52.579 31.0687H55.139V53.4688H52.195V34.2687L47.427 35.6767L46.691 33.1167L52.579 31.0687Z" fill="#00007E"/>
</svg>
