<svg width="101" height="39" viewBox="0 0 101 39" fill="none" xmlns="http://www.w3.org/2000/svg">
<path d="M8.09944 12.1171C7.90469 12.1171 7.856 12.0197 7.95338 11.8737L8.97583 10.5591C9.07321 10.413 9.31665 10.3156 9.51141 10.3156H26.8932C27.0879 10.3156 27.1366 10.4617 27.0392 10.6078L26.2115 11.8737C26.1142 12.0197 25.8707 12.1658 25.7247 12.1658L8.09944 12.1171ZM0.747488 16.5965C0.552734 16.5965 0.504046 16.4991 0.601423 16.353L1.62388 15.0384C1.72126 14.8924 1.9647 14.795 2.15945 14.795H24.3614C24.5561 14.795 24.6535 14.941 24.6048 15.0871L24.2153 16.2556C24.1666 16.4504 23.9719 16.5478 23.7771 16.5478L0.747488 16.5965ZM12.5301 21.0758C12.3353 21.0758 12.2866 20.9297 12.384 20.7837L13.0657 19.5664C13.163 19.4204 13.3578 19.2743 13.5525 19.2743H23.2902C23.485 19.2743 23.5824 19.4204 23.5824 19.6151L23.485 20.7837C23.485 20.9784 23.2902 21.1245 23.1442 21.1245L12.5301 21.0758ZM63.0687 11.2407C60.0013 12.0197 57.9077 12.604 54.889 13.383C54.1587 13.5778 54.11 13.6265 53.4771 12.8961C52.7467 12.0684 52.2112 11.5329 51.1887 11.046C48.1213 9.53663 45.1513 9.97482 42.3761 11.7763C39.0653 13.9186 37.3612 17.0833 37.4099 21.0271C37.4586 24.9222 40.1364 28.1356 43.9828 28.6712C47.2936 29.1094 50.0689 27.9409 52.2598 25.4577C52.698 24.9222 53.0876 24.3379 53.5744 23.6563H44.1776C43.1551 23.6563 42.9117 23.0233 43.2525 22.1956C43.8854 20.6863 45.054 18.1545 45.7356 16.8886C45.8817 16.5964 46.2225 16.1096 46.9528 16.1096H64.6754C64.578 17.4242 64.578 18.7387 64.3833 20.0533C63.8477 23.5589 62.5331 26.7723 60.3908 29.5963C56.8853 34.2217 52.3085 37.0943 46.5146 37.8733C41.7431 38.5062 37.3125 37.5812 33.4174 34.6599C29.8145 31.9333 27.7696 28.3304 27.234 23.851C26.601 18.544 28.1591 13.7725 31.3725 9.58532C34.8294 5.05729 39.4061 2.18468 45.0053 1.16222C49.582 0.334516 53.9639 0.870089 57.9077 3.54795C60.4882 5.25205 62.3384 7.58909 63.5556 10.413C63.8477 10.8512 63.6529 11.0947 63.0687 11.2407Z" fill="#00ACD7"/>
<path d="M79.1843 38.1657C74.7536 38.0684 70.7125 36.8025 67.3043 33.8812C64.4317 31.3981 62.6302 28.2333 62.046 24.4843C61.1696 18.9825 62.6789 14.1137 65.9897 9.78039C69.544 5.10631 73.8286 2.67189 79.6225 1.64943C84.5887 0.773037 89.2628 1.25992 93.4987 4.13254C97.3451 6.76171 99.7308 10.316 100.364 14.9901C101.191 21.563 99.2926 26.9187 94.7646 31.4954C91.5511 34.7576 87.6074 36.8025 83.0794 37.7276C81.7648 37.971 80.4502 38.0197 79.1843 38.1657ZM90.7721 18.4956C90.7234 17.8627 90.7234 17.3758 90.6261 16.8889C89.7497 12.0687 85.319 9.3422 80.6936 10.4133C76.1656 11.4358 73.2443 14.3084 72.1732 18.8851C71.2968 22.6828 73.1469 26.5292 76.6525 28.0872C79.3304 29.2558 82.0082 29.1097 84.5887 27.7951C88.4351 25.7989 90.5287 22.6828 90.7721 18.4956Z" fill="#00ACD7"/>
</svg>
