<svg width="100" height="100" viewBox="0 0 100 100" fill="none" xmlns="http://www.w3.org/2000/svg">
<path fill-rule="evenodd" clip-rule="evenodd" d="M71.1377 12.2109H5.80133C4.26274 12.2109 2.78716 12.8221 1.69921 13.9101C0.611267 14.998 0 16.4736 0 18.0122V80.6047C0.037382 80.9015 0.182448 81.1742 0.407565 81.3712C0.632683 81.5682 0.922271 81.6757 1.22139 81.6733H98.9267C99.2102 81.6733 99.482 81.5608 99.6824 81.3604C99.8828 81.1599 99.9953 80.8881 99.9953 80.6047V18.0122C100.016 17.2577 99.8848 16.5067 99.6101 15.8037C99.3354 15.1006 98.9226 14.4598 98.396 13.919C97.8694 13.3782 97.2398 12.9484 96.5443 12.655C95.8489 12.3617 95.1016 12.2107 94.3468 12.2109H87.6927L86.1661 14.5009H94.3468C94.801 14.5004 95.2505 14.5921 95.6683 14.7704C96.086 14.9486 96.4633 15.2097 96.7773 15.538C97.0912 15.8662 97.3354 16.2547 97.495 16.68C97.6545 17.1052 97.726 17.5585 97.7054 18.0122V79.3834H2.28997V18.0122C2.28997 17.0809 2.65999 16.1878 3.31848 15.5293C3.97697 14.8709 4.87008 14.5009 5.80133 14.5009H68.5615L71.1377 12.2109Z" fill="#00007E"/>
<path d="M69.9192 99.9968H30.2264C30.0102 99.9987 29.7973 99.9432 29.6096 99.8359C29.4218 99.7286 29.2659 99.5734 29.1578 99.3861C29.0668 99.2147 29.0325 99.019 29.06 98.8269C29.0874 98.6348 29.1751 98.4565 29.3105 98.3174L35.2644 89.1576C35.3725 88.9703 35.5284 88.815 35.7161 88.7078C35.9039 88.6005 36.1167 88.545 36.333 88.5469H63.8126C64.0289 88.545 64.2417 88.6005 64.4295 88.7078C64.6172 88.815 64.7731 88.9703 64.8812 89.1576L70.8351 98.3174C70.9705 98.4565 71.0582 98.6348 71.0856 98.8269C71.113 99.019 71.0788 99.2147 70.9878 99.3861C70.8797 99.5734 70.7238 99.7286 70.536 99.8359C70.3483 99.9432 70.1354 99.9987 69.9192 99.9968ZM32.3637 97.7068H67.7819L63.2019 90.8369H36.9437L32.3637 97.7068Z" fill="#00007E"/>
<path d="M80.6075 99.9931H19.5417C19.2426 99.9954 18.953 99.8879 18.7279 99.6909C18.5028 99.4939 18.3577 99.2212 18.3203 98.9244C18.3535 98.6119 18.4929 98.3201 18.7152 98.0979C18.9375 97.8756 19.2291 97.7363 19.5417 97.7031H80.6075C80.9043 97.7405 81.1771 97.8855 81.374 98.1106C81.571 98.3357 81.6785 98.6253 81.6761 98.9244C81.6761 99.2078 81.5636 99.4796 81.3632 99.6801C81.1628 99.8805 80.891 99.9931 80.6075 99.9931Z" fill="#00007E"/>
<path d="M50.0729 86.4114C50.7474 86.4114 51.2942 85.8646 51.2942 85.1901C51.2942 84.5156 50.7474 83.9688 50.0729 83.9688C49.3984 83.9688 48.8516 84.5156 48.8516 85.1901C48.8516 85.8646 49.3984 86.4114 50.0729 86.4114Z" fill="#00007E"/>
<path d="M94.3468 90.8327H5.80133C4.28883 90.8332 2.83599 90.243 1.75233 89.1878C0.668664 88.1327 0.0398025 86.696 0 85.1841V80.6041C0.0331691 80.2916 0.172637 79.9998 0.394893 79.7776C0.617149 79.5553 0.908829 79.416 1.22139 79.3828H98.9267C99.2235 79.4202 99.4963 79.5652 99.6932 79.7903C99.8902 80.0154 99.9977 80.305 99.9953 80.6041V85.1841C99.9953 85.9259 99.8493 86.6604 99.5654 87.3457C99.2815 88.031 98.8655 88.6537 98.341 89.1782C97.8165 89.7028 97.1937 90.1188 96.5084 90.4027C95.8231 90.6866 95.0886 90.8327 94.3468 90.8327ZM2.28997 81.6728V85.1841C2.32933 86.0886 2.71657 86.943 3.37085 87.5688C4.02512 88.1946 4.89594 88.5436 5.80133 88.5427H94.3468C95.2376 88.5427 96.0919 88.1888 96.7218 87.559C97.3516 86.9291 97.7054 86.0748 97.7054 85.1841V81.6728H2.28997Z" fill="#00007E"/>
<path d="M39.3857 54.1946C39.1534 54.1824 38.9293 54.1041 38.74 53.9688C38.5507 53.8336 38.4041 53.6471 38.3171 53.4313C38.2369 53.1834 38.2381 52.9163 38.3205 52.6691C38.4029 52.4219 38.5621 52.2075 38.775 52.0573C46.3084 47.4748 52.7238 41.2681 57.5528 33.8902C57.6162 33.7436 57.7238 33.6206 57.8607 33.5385C57.9976 33.4563 58.157 33.4192 58.3162 33.4323C58.6215 33.4323 59.0794 33.4323 59.2321 33.7376L62.7435 37.2489C62.8961 37.4015 62.8961 37.5542 63.0487 37.8595C63.812 42.5921 61.522 47.0194 56.4841 50.0727C51.4461 53.126 39.8437 54.1946 39.3857 54.1946ZM58.6214 36.3329C54.535 42.2323 49.4761 47.3946 43.6604 51.5993C47.7182 51.1886 51.6582 49.9962 55.2629 48.088C58.1635 46.2561 61.5221 43.2028 60.7588 38.4702L58.6214 36.3329Z" fill="#00007E"/>
<path d="M39.3894 54.2056H38.7787C38.6123 54.1113 38.4705 53.9794 38.3644 53.8203C38.2583 53.6612 38.1909 53.4794 38.168 53.2896C38.3113 49.735 38.8229 46.2048 39.6946 42.7557C42.2899 33.1378 47.7859 28.4052 54.6558 29.6266L55.2665 29.9319L57.4039 32.0692L59.2358 33.9012C59.3435 33.9757 59.4342 34.0725 59.5013 34.185C59.5685 34.2975 59.6106 34.4231 59.6251 34.5534C59.6395 34.6836 59.626 34.8154 59.5852 34.94C59.5443 35.0645 59.4772 35.1788 59.3884 35.2752C54.4168 42.9511 47.7926 49.4188 40.0001 54.2056H39.3894ZM52.5185 31.6112C46.1066 31.6112 43.2059 38.6338 41.9846 43.2137C41.3225 45.7171 40.8631 48.2698 40.6108 50.8469C47.0681 46.5809 52.6193 41.0815 56.9458 34.6645L55.7244 33.5958L53.8925 31.7639L52.5185 31.6112Z" fill="#00007E"/>
<path d="M67.9362 34.2015C67.7939 34.2136 67.6509 34.1923 67.5183 34.1393C67.3858 34.0863 67.2675 34.003 67.1728 33.8961L58.471 25.3469C58.3236 25.0916 58.2461 24.8021 58.2461 24.5073C58.2461 24.2125 58.3236 23.9229 58.471 23.6676C66.1043 14.6604 80.4547 -0.300728 91.2939 0.00460138C91.5661 0.0369521 91.8196 0.15995 92.0134 0.35379C92.2073 0.54763 92.3301 0.801034 92.3625 1.07325C92.8205 12.0651 77.7067 26.4156 68.6995 34.0488L67.9362 34.2015ZM60.9136 24.4309L68.089 31.6062C81.6761 20.0037 89.6145 9.46981 90.0725 2.29457C82.8973 2.90523 72.3635 10.8438 60.9136 24.4309Z" fill="#00007E"/>
<path d="M61.8281 39.0916C61.5228 39.0916 61.2175 39.0917 61.0648 38.7863L53.5844 31.4584C53.411 31.2418 53.3164 30.9726 53.3164 30.6951C53.3164 30.4176 53.411 30.1484 53.5844 29.9318C53.5844 29.9318 55.4163 27.3365 58.4696 23.6725L59.2329 23.3672C59.6909 23.3672 59.9962 23.3672 60.1489 23.6725L68.8509 32.3744C69.0378 32.5859 69.1456 32.8556 69.1561 33.1377C69.1272 33.4907 68.963 33.8188 68.698 34.0537L62.5915 38.939L61.8281 39.0916ZM56.027 30.5424L61.9809 36.4964C63.4845 35.4252 64.9127 34.252 66.2554 32.9851L59.3855 26.1152L56.027 30.5424Z" fill="#00007E"/>
<path d="M85.1882 72.5154H33.2822C31.8237 72.6933 30.344 72.5595 28.941 72.1229C27.538 71.6863 26.2437 70.9569 25.1436 69.9828C24.0435 69.0087 23.1628 67.8122 22.5595 66.4724C21.9563 65.1326 21.6445 63.6799 21.6445 62.2106C21.6445 60.7412 21.9563 59.2886 22.5595 57.9488C23.1628 56.609 24.0435 55.4125 25.1436 54.4384C26.2437 53.4643 27.538 52.7348 28.941 52.2983C30.344 51.8617 31.8237 51.7279 33.2822 51.9057H39.3888C39.6856 51.9431 39.9583 52.0881 40.1553 52.3132C40.3523 52.5383 40.4597 52.8279 40.4574 53.127C40.4574 53.2674 40.4298 53.4063 40.3761 53.536C40.3224 53.6657 40.2437 53.7835 40.1445 53.8827C40.0453 53.9819 39.9273 54.0606 39.7977 54.1143C39.668 54.168 39.5291 54.1957 39.3888 54.1957H33.2822C31.1363 54.1957 29.0782 55.0482 27.5608 56.5655C26.0434 58.0829 25.1909 60.141 25.1909 62.2869C25.1907 63.3424 25.4012 64.3873 25.8096 65.3605C26.2181 66.3338 26.8164 67.2158 27.5698 67.955C28.3232 68.6942 29.2166 69.2757 30.1974 69.6656C31.1783 70.0554 32.2269 70.2458 33.2822 70.2255H85.1882C86.4838 70.2255 87.7264 69.7108 88.6425 68.7946C89.5587 67.8784 90.0734 66.6359 90.0734 65.3402C90.0938 64.6859 89.9827 64.0342 89.7463 63.4238C89.51 62.8133 89.1534 62.2566 88.6977 61.7867C88.242 61.3167 87.6966 60.9432 87.0937 60.6882C86.4908 60.4332 85.8428 60.3019 85.1882 60.3023H72.975C71.0577 60.3027 69.2166 59.5516 67.8466 58.2102C66.4767 56.8688 65.687 55.0439 65.647 53.127C65.6861 51.1958 66.4707 49.3545 67.8366 47.9886C69.2024 46.6227 71.0438 45.8382 72.975 45.7991H85.1882C86.14 45.754 87.0594 45.4398 87.8399 44.8931C88.6203 44.3465 89.2298 43.5896 89.5974 42.7105C89.965 41.8314 90.0758 40.8661 89.9168 39.9266C89.7579 38.987 89.3359 38.1118 88.6995 37.4026C87.7756 36.4514 86.5139 35.9029 85.1882 35.8759H77.555C77.2715 35.8759 76.9997 35.7634 76.7993 35.5629C76.5989 35.3625 76.4864 35.0907 76.4864 34.8073C76.484 34.5082 76.5915 34.2186 76.7885 33.9935C76.9854 33.7683 77.2582 33.6233 77.555 33.586H85.1882C86.1514 33.5836 87.1056 33.7711 87.9962 34.1379C88.8869 34.5046 89.6966 35.0434 90.3788 35.7233C91.3562 36.7552 92.0123 38.0491 92.2674 39.4474C92.5224 40.8457 92.3654 42.288 91.8153 43.5985C91.2652 44.9091 90.3458 46.0314 89.1692 46.8287C87.9925 47.626 86.6093 48.0639 85.1882 48.0891H72.975C71.6389 48.0891 70.3574 48.6199 69.4126 49.5647C68.4678 50.5095 67.937 51.7909 67.937 53.127C67.9367 53.7816 68.068 54.4296 68.323 55.0325C68.578 55.6354 68.9516 56.1809 69.4215 56.6366C69.8915 57.0922 70.4481 57.4489 71.0585 57.6852C71.669 57.9215 72.3207 58.0328 72.975 58.0123H85.1882C87.1051 58.0522 88.9299 58.8419 90.2713 60.2118C91.6127 61.5818 92.3638 63.4229 92.3633 65.3402C92.3633 67.2432 91.6074 69.0682 90.2618 70.4138C88.9162 71.7595 87.0912 72.5154 85.1882 72.5154Z" fill="#00007E"/>
<path d="M14.9601 29.7702H8.85351C8.1504 29.7712 7.4737 29.5028 6.96253 29.02C6.45136 28.5373 6.14453 27.8769 6.10547 27.1749V21.0683C6.10547 20.7074 6.17665 20.3501 6.31475 20.0167C6.45285 19.6833 6.65518 19.3803 6.91035 19.1252C7.16552 18.87 7.46849 18.6676 7.80189 18.5295C8.13529 18.3914 8.49264 18.3203 8.85351 18.3203H14.9601C15.3141 18.3197 15.6646 18.3915 15.9899 18.5314C16.3152 18.6713 16.6083 18.8762 16.8514 19.1336C17.0945 19.391 17.2824 19.6955 17.4034 20.0282C17.5245 20.3609 17.5761 20.7148 17.5553 21.0683V27.1749C17.5553 27.8632 17.2819 28.5233 16.7952 29.01C16.3084 29.4967 15.6484 29.7702 14.9601 29.7702ZM8.85351 20.6103C8.73204 20.6103 8.61551 20.6585 8.52962 20.7444C8.44373 20.8303 8.39544 20.9468 8.39544 21.0683V27.1749L8.85351 27.4802H14.9601L15.2653 27.1749V21.0683C15.2653 20.763 15.1128 20.6103 14.9601 20.6103H8.85351Z" fill="#00007E"/>
<path d="M14.9601 45.0358H8.85351C8.1504 45.0369 7.4737 44.7684 6.96253 44.2856C6.45136 43.8029 6.14453 43.1425 6.10547 42.4405V36.3339C6.10547 35.6051 6.39501 34.9061 6.91035 34.3908C7.42569 33.8755 8.1247 33.5859 8.85351 33.5859H14.9601C15.3141 33.5853 15.6646 33.6572 15.9899 33.797C16.3152 33.9369 16.6083 34.1419 16.8514 34.3993C17.0945 34.6567 17.2824 34.9611 17.4034 35.2938C17.5245 35.6265 17.5761 35.9805 17.5553 36.3339V42.4405C17.5553 43.1288 17.2819 43.7889 16.7952 44.2757C16.3084 44.7624 15.6484 45.0358 14.9601 45.0358ZM8.85351 35.8759C8.73204 35.8759 8.61551 35.9242 8.52962 36.0101C8.44373 36.096 8.39544 36.2124 8.39544 36.3339V42.4405L8.85351 42.7458H14.9601L15.2653 42.4405V36.3339C15.2653 36.0286 15.1128 35.8759 14.9601 35.8759H8.85351Z" fill="#00007E"/>
<path d="M14.9601 60.3014H8.85351C8.1504 60.3025 7.4737 60.034 6.96253 59.5513C6.45136 59.0685 6.14453 58.4081 6.10547 57.7061V51.5995C6.10547 50.8707 6.39501 50.1718 6.91035 49.6564C7.42569 49.1411 8.1247 48.8516 8.85351 48.8516H14.9601C15.3141 48.851 15.6646 48.9228 15.9899 49.0627C16.3152 49.2025 16.6083 49.4075 16.8514 49.6649C17.0945 49.9223 17.2824 50.2267 17.4034 50.5594C17.5245 50.8921 17.5761 51.2461 17.5553 51.5995V57.7061C17.5553 58.3944 17.2819 59.0546 16.7952 59.5413C16.3084 60.028 15.6484 60.3014 14.9601 60.3014ZM8.85351 51.1415C8.73204 51.1415 8.61551 51.1898 8.52962 51.2757C8.44373 51.3616 8.39544 51.4781 8.39544 51.5995V57.7061L8.85351 58.0114H14.9601L15.2653 57.7061V51.5995C15.2653 51.2942 15.1128 51.1415 14.9601 51.1415H8.85351Z" fill="#00007E"/>
<path d="M14.9601 75.567H8.85351C8.1504 75.5681 7.4737 75.2997 6.96253 74.8169C6.45136 74.3341 6.14453 73.6738 6.10547 72.9717V66.8652C6.10547 66.5043 6.17665 66.147 6.31475 65.8136C6.45285 65.4802 6.65518 65.1772 6.91035 64.922C7.16552 64.6669 7.46849 64.4645 7.80189 64.3264C8.13529 64.1883 8.49264 64.1172 8.85351 64.1172H14.9601C15.3141 64.1166 15.6646 64.1884 15.9899 64.3283C16.3152 64.4682 16.6083 64.6731 16.8514 64.9305C17.0945 65.1879 17.2824 65.4923 17.4034 65.825C17.5245 66.1578 17.5761 66.5117 17.5553 66.8652V72.9717C17.5553 73.6601 17.2819 74.3202 16.7952 74.8069C16.3084 75.2936 15.6484 75.567 14.9601 75.567ZM8.85351 66.4072C8.73204 66.4072 8.61551 66.4554 8.52962 66.5413C8.44373 66.6272 8.39544 66.7437 8.39544 66.8652V72.9717L8.85351 73.2771H14.9601L15.2653 72.9717V66.8652C15.2653 66.5598 15.1128 66.4072 14.9601 66.4072H8.85351Z" fill="#00007E"/>
<path d="M59.8464 8.39655C59.5473 8.3989 59.2577 8.2914 59.0326 8.09442C58.8074 7.89744 58.6624 7.62469 58.625 7.32791V1.22132C58.6582 0.908759 58.7975 0.617009 59.0197 0.394753C59.242 0.172497 59.5338 0.0331691 59.8464 0C60.1432 0.037382 60.4159 0.182378 60.6129 0.407495C60.8099 0.632613 60.9173 0.922201 60.915 1.22132V7.32791C60.915 7.61133 60.8025 7.88315 60.6021 8.08356C60.4017 8.28398 60.1298 8.39655 59.8464 8.39655Z" fill="#00007E"/>
<path d="M62.8983 5.34466H56.7917C56.4926 5.347 56.203 5.2395 55.9779 5.04252C55.7528 4.84555 55.6077 4.57279 55.5703 4.27601C55.6035 3.96345 55.7428 3.6717 55.965 3.44944C56.1873 3.22718 56.4791 3.08786 56.7917 3.05469H62.8983C63.1951 3.09207 63.4678 3.23707 63.6648 3.46218C63.8618 3.6873 63.9692 3.97689 63.9669 4.27601C63.9669 4.55943 63.8544 4.83126 63.654 5.03167C63.4536 5.23208 63.1817 5.34466 62.8983 5.34466Z" fill="#00007E"/>
<path d="M50.5338 5.49732C51.2083 5.49732 51.7551 4.95052 51.7551 4.276C51.7551 3.60149 51.2083 3.05469 50.5338 3.05469C49.8593 3.05469 49.3125 3.60149 49.3125 4.276C49.3125 4.95052 49.8593 5.49732 50.5338 5.49732Z" fill="#00007E"/>
<path d="M45.9518 5.49732C46.6263 5.49732 47.1731 4.95052 47.1731 4.276C47.1731 3.60149 46.6263 3.05469 45.9518 3.05469C45.2773 3.05469 44.7305 3.60149 44.7305 4.276C44.7305 4.95052 45.2773 5.49732 45.9518 5.49732Z" fill="#00007E"/>
<path d="M39.8463 5.49732C40.5208 5.49732 41.0676 4.95052 41.0676 4.276C41.0676 3.60149 40.5208 3.05469 39.8463 3.05469C39.1718 3.05469 38.625 3.60149 38.625 4.276C38.625 4.95052 39.1718 5.49732 39.8463 5.49732Z" fill="#00007E"/>
<path d="M30.6862 5.49732C31.3607 5.49732 31.9075 4.95052 31.9075 4.276C31.9075 3.60149 31.3607 3.05469 30.6862 3.05469C30.0116 3.05469 29.4648 3.60149 29.4648 4.276C29.4648 4.95052 30.0116 5.49732 30.6862 5.49732Z" fill="#00007E"/>
<path d="M26.4098 42.4463H24.1198C23.8073 42.4131 23.5156 42.2738 23.2933 42.0515C23.0711 41.8292 22.9316 41.5375 22.8984 41.2249C22.9358 40.9282 23.0809 40.6554 23.306 40.4584C23.5311 40.2614 23.8207 40.1539 24.1198 40.1563H26.4098C26.6932 40.1563 26.9651 40.2689 27.1655 40.4693C27.3659 40.6697 27.4784 40.9415 27.4784 41.2249C27.4807 41.5241 27.3733 41.8136 27.1763 42.0388C26.9793 42.2639 26.7066 42.4089 26.4098 42.4463Z" fill="#00007E"/>
<path d="M34.0426 42.4463H31.7526C31.4401 42.4131 31.1484 42.2738 30.9261 42.0515C30.7039 41.8292 30.5644 41.5375 30.5312 41.2249C30.5686 40.9282 30.7137 40.6554 30.9388 40.4584C31.1639 40.2614 31.4535 40.1539 31.7526 40.1563H34.0426C34.1829 40.1563 34.3218 40.1839 34.4515 40.2376C34.5811 40.2913 34.6991 40.3701 34.7983 40.4693C34.8975 40.5685 34.9762 40.6863 35.0299 40.816C35.0836 40.9457 35.1112 41.0846 35.1112 41.2249C35.1135 41.5241 35.0061 41.8136 34.8091 42.0388C34.6121 42.2639 34.3394 42.4089 34.0426 42.4463Z" fill="#00007E"/>
<path d="M29.0061 47.3221C28.7227 47.3221 28.451 47.2095 28.2506 47.0091C28.0502 46.8087 27.9375 46.5369 27.9375 46.2535V43.9635C27.9352 43.6644 28.0426 43.3748 28.2396 43.1497C28.4366 42.9246 28.7093 42.7796 29.0061 42.7422C29.33 42.7422 29.6407 42.8709 29.8697 43.0999C30.0987 43.3289 30.2275 43.6396 30.2275 43.9635V46.2535C30.2291 46.4076 30.1973 46.5603 30.1343 46.701C30.0713 46.8418 29.9786 46.9672 29.8626 47.0687C29.7466 47.1702 29.61 47.2454 29.4621 47.2892C29.3143 47.3329 29.1587 47.3442 29.0061 47.3221Z" fill="#00007E"/>
<path d="M29.0061 39.6893C28.7227 39.6893 28.451 39.5767 28.2506 39.3763C28.0502 39.1759 27.9375 38.9041 27.9375 38.6207V36.3307C27.9352 36.0316 28.0426 35.742 28.2396 35.5169C28.4366 35.2918 28.7093 35.1468 29.0061 35.1094C29.33 35.1094 29.6407 35.238 29.8697 35.4671C30.0987 35.6961 30.2275 36.0068 30.2275 36.3307V38.6207C30.2291 38.7748 30.1973 38.9275 30.1343 39.0682C30.0713 39.2089 29.9786 39.3343 29.8626 39.4359C29.7466 39.5374 29.61 39.6126 29.4621 39.6564C29.3143 39.7001 29.1587 39.7113 29.0061 39.6893Z" fill="#00007E"/>
<path d="M35.5695 25.6572H33.2796C32.9828 25.6198 32.71 25.4748 32.5131 25.2497C32.3161 25.0246 32.2086 24.735 32.211 24.4359C32.211 24.1524 32.3235 23.8806 32.5239 23.6802C32.7243 23.4798 32.9961 23.3672 33.2796 23.3672H35.5695C35.8686 23.3649 36.1582 23.4724 36.3833 23.6694C36.6085 23.8663 36.7535 24.1391 36.7909 24.4359C36.7577 24.7484 36.6183 25.0402 36.396 25.2624C36.1738 25.4847 35.8821 25.624 35.5695 25.6572Z" fill="#00007E"/>
<path d="M43.2023 25.6572H40.9124C40.6156 25.6198 40.3429 25.4748 40.1459 25.2497C39.9489 25.0246 39.8414 24.735 39.8438 24.4359C39.8438 24.2955 39.8713 24.1566 39.925 24.0269C39.9787 23.8973 40.0574 23.7795 40.1567 23.6802C40.2559 23.581 40.3738 23.5023 40.5035 23.4486C40.6332 23.3949 40.772 23.3672 40.9124 23.3672H43.2023C43.5015 23.3649 43.791 23.4724 44.0162 23.6694C44.2413 23.8663 44.3863 24.1391 44.4237 24.4359C44.3906 24.7484 44.2511 25.0402 44.0288 25.2624C43.8066 25.4847 43.5149 25.624 43.2023 25.6572Z" fill="#00007E"/>
<path d="M38.3191 30.5331C38.1665 30.5551 38.0109 30.5438 37.8631 30.5001C37.7153 30.4564 37.5786 30.3811 37.4626 30.2796C37.3466 30.1781 37.2539 30.0527 37.1909 29.912C37.1279 29.7713 37.0961 29.6186 37.0977 29.4644V27.1744C37.0977 26.8505 37.2265 26.5399 37.4555 26.3108C37.6846 26.0818 37.9952 25.9531 38.3191 25.9531C38.6159 25.9905 38.8886 26.1355 39.0856 26.3606C39.2826 26.5857 39.39 26.8753 39.3877 27.1744V29.4644C39.3877 29.7478 39.275 30.0197 39.0746 30.2201C38.8742 30.4205 38.6025 30.5331 38.3191 30.5331Z" fill="#00007E"/>
<path d="M38.3191 22.9003C38.1665 22.9223 38.0109 22.911 37.8631 22.8673C37.7153 22.8235 37.5786 22.7483 37.4626 22.6468C37.3466 22.5453 37.2539 22.4199 37.1909 22.2792C37.1279 22.1384 37.0961 21.9858 37.0977 21.8316V19.5416C37.0977 19.2177 37.2265 18.9071 37.4555 18.678C37.6846 18.449 37.9952 18.3203 38.3191 18.3203C38.6159 18.3577 38.8886 18.5027 39.0856 18.7278C39.2826 18.9529 39.39 19.2425 39.3877 19.5416V21.8316C39.3877 22.115 39.275 22.3869 39.0746 22.5873C38.8742 22.7877 38.6025 22.9003 38.3191 22.9003Z" fill="#00007E"/>
</svg>
