<svg width="100" height="100" viewBox="0 0 100 100" fill="none" xmlns="http://www.w3.org/2000/svg">
<path d="M74.5507 30.6459C75.2935 31.5977 75.9845 32.5887 76.621 33.6147C76.7579 33.8439 76.9527 34.0332 77.1858 34.1634C77.4189 34.2937 77.6821 34.3604 77.9491 34.3568C78.2389 34.3553 78.5226 34.2742 78.7694 34.1225C79.1214 33.9046 79.3725 33.5561 79.4677 33.1533C79.5629 32.7505 79.4944 32.3264 79.2772 31.974C78.5784 30.8441 77.8154 29.755 76.9921 28.7123C76.8724 28.5325 76.7167 28.3794 76.5348 28.2628C76.3529 28.1462 76.1488 28.0685 75.9354 28.0348C75.722 28.0011 75.504 28.0119 75.295 28.0667C75.086 28.1216 74.8907 28.2191 74.7213 28.3533C74.5519 28.4874 74.4122 28.6552 74.311 28.8461C74.2098 29.0369 74.1492 29.2467 74.1332 29.4622C74.1172 29.6776 74.146 29.894 74.2179 30.0978C74.2897 30.3015 74.403 30.4882 74.5507 30.6459Z" fill="#00007E"/>
<path d="M82.4219 38.5195C82.3526 38.3259 82.2459 38.1478 82.1078 37.9954C81.9697 37.843 81.803 37.7192 81.6171 37.6313C81.4312 37.5433 81.2298 37.4928 81.0244 37.4827C80.819 37.4726 80.6136 37.503 80.4199 37.5723C80.2263 37.6415 80.0482 37.7482 79.8958 37.8863C79.7433 38.0244 79.6196 38.1912 79.5317 38.3771C79.4437 38.563 79.3932 38.7644 79.3831 38.9698C79.373 39.1752 79.4034 39.3806 79.4727 39.5742C80.6496 42.9188 81.2505 46.4388 81.25 49.9844C81.2627 55.1558 79.973 60.2472 77.5 64.7891C76.5242 63.3273 75.0541 62.2663 73.3594 61.8008H73.3398L67.5195 60.2969C67.1565 60.2018 66.8216 60.021 66.543 59.7695V56.6055H66.5625C68.5853 54.1548 69.6843 51.0722 69.668 47.8945V45.5117C71.6602 39.0273 70.2539 33.4023 69.5312 31.7617L69.4922 31.6641C69.4922 31.6445 69.4727 31.625 69.4727 31.6055L69.4336 31.5273L69.3945 31.4688L69.3555 31.4102L69.2969 31.3516L69.2578 31.3125L69.1797 31.2344L69.1406 31.1953L69.0625 31.1367H69.0234L68.9453 31.0781H68.8867L68.8086 31.0391H68.75L68.6719 31H67.8906C66.3867 31.2148 64.5508 30.7852 62.5977 30.3164L61.1914 29.9844C61.1134 29.717 61.0154 29.4559 60.8984 29.2031L60.8594 29.1055V29.0469C60.8392 29.0251 60.8256 28.998 60.8203 28.9687L60.7813 28.9102L60.7422 28.8516L60.6836 28.793L60.6445 28.7539L60.5859 28.6953L60.5469 28.6562L60.4688 28.5977L60.4297 28.5586L60.3516 28.5L60.293 28.4609L60.2344 28.4219L60.1562 28.3828H60.0977L60 28.3438H59.3164C57.8125 28.5586 55.9766 28.1289 54.0234 27.6602C50.5859 26.8398 46.6992 25.9023 43.3008 28.3633C40.0195 28.6367 37.6758 31.4102 37.6758 35.1406C37.6758 37.8555 38.9258 42.6992 39.2188 43.7734V45.082C39.2103 48.2748 40.2766 51.3776 42.2461 53.8906V57.0352C41.9443 57.2941 41.5917 57.487 41.2109 57.6016L35.3906 59.1055H35.3516C31.6406 60.1406 29.707 63.7734 29.707 66.8203V73.7344C26.2723 70.8031 23.514 67.1619 21.6224 63.0617C19.7308 58.9615 18.7508 54.4999 18.75 49.9844C18.75 32.7578 32.7734 18.7344 50 18.7344C57.4146 18.7326 64.5876 21.3706 70.2344 26.1758C70.3908 26.3092 70.572 26.4104 70.7676 26.4738C70.9632 26.5371 71.1694 26.5613 71.3743 26.545C71.5792 26.5287 71.779 26.4721 71.9621 26.3786C72.1451 26.2851 72.308 26.1565 72.4414 26C72.5748 25.8435 72.676 25.6623 72.7394 25.4668C72.8027 25.2712 72.8269 25.065 72.8106 24.8601C72.7943 24.6551 72.7378 24.4554 72.6442 24.2723C72.5507 24.0892 72.4221 23.9263 72.2656 23.793C66.0482 18.5125 58.1572 15.6122 50 15.6094C31.0547 15.6094 15.625 31.0391 15.625 49.9844C15.6236 55.3866 16.8985 60.7127 19.3456 65.5289C21.7927 70.3451 25.3429 74.5151 29.707 77.6992C30.7026 78.441 31.7394 79.1257 32.8125 79.75C33.7695 80.2969 34.7461 80.8047 35.7422 81.2539C40.2168 83.3006 45.0796 84.3599 50 84.3599C54.9204 84.3599 59.7832 83.3006 64.2578 81.2539C65.2734 80.7852 66.25 80.2773 67.207 79.7305C69.6748 78.2792 71.9627 76.542 74.0234 74.5547C75.8839 72.7256 77.5347 70.6948 78.9453 68.5C82.501 62.98 84.3865 56.5504 84.375 49.9844C84.3761 46.0799 83.7157 42.2034 82.4219 38.5195ZM61.8945 33.207C63.5742 33.6172 65.293 34.0273 66.9727 34.0469C67.3828 35.5508 67.7734 38.2266 67.3437 41.3906C65.513 40.7326 63.6403 40.1975 61.7383 39.7891C62.0965 37.613 62.149 35.3976 61.8945 33.207ZM61.0352 45.1797V42.8359C62.8871 43.2239 64.7083 43.7461 66.4844 44.3984V45.2578V47.8555C66.5055 50.4482 65.5583 52.9555 63.8281 54.8867H63.8086C62.4219 56.3906 60.6055 57.3086 58.6523 57.3086H58.2422C58.116 57.2465 58.0031 57.1602 57.9102 57.0547V53.9102H57.9297C59.9568 51.4543 61.0561 48.364 61.0352 45.1797ZM42.1484 35.9609H41.7578L41.6602 36H41.6211L41.5234 36.0391L41.4648 36.0781L41.3867 36.1172L41.3086 36.1758H41.2695L41.1719 36.2539H41.1523L41.0742 36.332H41.0547L40.9961 36.4102C40.9766 36.4297 40.9766 36.4492 40.957 36.4492L40.918 36.5078L40.8789 36.5859C40.8777 36.601 40.8707 36.615 40.8594 36.625L40.8203 36.6836C40.7121 36.038 40.6533 35.385 40.6445 34.7305C40.7031 33.0508 41.5039 31.0781 43.75 31.0781H44.2578L44.3359 31.0391H44.3945L44.4727 31L44.5508 30.9609L44.6094 30.9219L44.6875 30.8633H44.7266C47.0312 28.9883 50 29.6914 53.1641 30.4531C54.8633 30.8633 56.6016 31.2734 58.3008 31.293C58.7109 32.7969 59.1016 35.4727 58.6719 38.6367C56.1328 37.7187 50.1562 35.9023 42.2852 35.9023H42.1484V35.9609ZM57.8516 41.7031V42.5625V45.1602C57.8727 47.7529 56.9255 50.2602 55.1953 52.1914H55.1758C53.7891 53.6953 51.9727 54.6133 50.0195 54.6133C45.8789 54.6133 42.2461 50.0625 42.2461 44.8672V44.3398C42.2461 42.7773 42.9102 40.5117 43.3984 39.0859C50.4688 39.2422 55.8203 40.9414 57.8516 41.7031ZM48.457 81.1953C42.8732 80.9316 37.4658 79.1562 32.8125 76.0586V66.8398C32.8125 64.9648 33.9648 62.7578 36.1719 62.1328L41.4648 60.7656L48.457 64.9648V81.1953ZM49.9805 62.2109L44.5703 58.9687C45.0105 58.4278 45.2518 57.7521 45.2539 57.0547V56.4102C46.6869 57.2736 48.327 57.7325 50 57.7383C51.651 57.7381 53.2734 57.3072 54.707 56.4883V57.0547C54.7039 57.7682 54.9529 58.46 55.4102 59.0078L49.9805 62.2109ZM67.207 76.0586C62.5456 79.1395 57.143 80.9134 51.5625 81.1953V64.9648L58.6523 60.7852L63.8477 62.1328C66.0547 62.7383 67.207 64.9648 67.207 66.8398V76.0586ZM72.6953 71.4492C71.9531 72.2109 71.1914 72.9531 70.3711 73.6562V66.8203C70.3643 65.9086 70.2059 65.0043 69.9023 64.1445L72.4805 64.8281C74.0625 65.2773 75.1172 66.5469 75.5664 67.9141C74.691 69.1565 73.7318 70.3376 72.6953 71.4492Z" fill="#00007E"/>
<path d="M99.9811 1.26953C99.9811 1.25 99.9616 1.21094 99.9616 1.19141C99.9616 1.17188 99.9421 1.15234 99.9421 1.11328C99.9421 1.07422 99.9225 1.07422 99.9225 1.03516C99.9225 0.996094 99.903 0.996094 99.903 0.957031C99.903 0.917969 99.8835 0.917969 99.8639 0.898438C99.8444 0.878906 99.8444 0.859375 99.8249 0.820312L99.7858 0.761719L99.7467 0.703125L99.6882 0.625L99.6491 0.566406L99.4342 0.351562L99.3757 0.3125L99.2975 0.253906L99.2389 0.214844L99.1803 0.175781L99.1022 0.136719L99.0436 0.0976562H82.8132C82.3988 0.0976562 82.0013 0.262276 81.7083 0.555302C81.4153 0.848328 81.2507 1.24576 81.2507 1.66016C81.2507 2.07456 81.4153 2.47199 81.7083 2.76501C82.0013 3.05804 82.3988 3.22266 82.8132 3.22266H94.6686L84.278 13.5156L83.1647 12.4219C82.5842 11.8402 81.8946 11.3787 81.1355 11.0638C80.3764 10.749 79.5627 10.5869 78.7409 10.5869C77.9191 10.5869 77.1053 10.749 76.3462 11.0638C75.5871 11.3787 74.8976 11.8402 74.3171 12.4219L72.4616 14.2773C68.4391 11.7428 64.0136 9.91318 59.3757 8.86719V6.25C59.3705 4.59398 58.7104 3.00726 57.5394 1.83627C56.3684 0.665285 54.7817 0.00515095 53.1257 0L46.8757 0C45.2196 0.00515095 43.6329 0.665285 42.4619 1.83627C41.2909 3.00726 40.6308 4.59398 40.6257 6.25V8.86719C35.9889 9.91682 31.564 11.7462 27.5397 14.2773L25.6842 12.4219C25.1037 11.8402 24.4142 11.3787 23.6551 11.0638C22.896 10.749 22.0822 10.5869 21.2604 10.5869C20.4386 10.5869 19.6249 10.749 18.8658 11.0638C18.1067 11.3787 17.4171 11.8402 16.8366 12.4219L15.7233 13.5156L5.33269 3.125H17.1882C17.6026 3.125 18 2.96038 18.293 2.66735C18.586 2.37433 18.7507 1.9769 18.7507 1.5625C18.7507 1.1481 18.586 0.750671 18.293 0.457646C18 0.16462 17.6026 0 17.1882 0L0.938155 0L0.879561 0.136719C0.879561 0.15625 0.840499 0.175781 0.820967 0.175781L0.762374 0.214844L0.70378 0.253906L0.625655 0.3125L0.567061 0.351562C0.485965 0.413022 0.413677 0.48531 0.352217 0.566406L0.313155 0.625L0.254561 0.703125C0.254561 0.722656 0.23503 0.742188 0.215499 0.761719C0.195968 0.78125 0.195967 0.800781 0.176436 0.820312V0.898438L0.137374 0.957031C0.137374 0.976562 0.117843 0.996094 0.117843 1.03516C0.117843 1.07422 0.0983112 1.07422 0.0983112 1.11328C0.0983112 1.15234 0.07878 1.15234 0.07878 1.19141C0.07878 1.23047 0.0592487 1.25 0.0592487 1.26953C0.0621714 1.29706 0.0552521 1.32474 0.0397175 1.34766V1.40625C0.0169647 1.45541 0.00371105 1.50842 0.000654995 1.5625V17.1875C0.000654995 17.6019 0.165275 17.9993 0.458301 18.2924C0.751326 18.5854 1.14875 18.75 1.56315 18.75C1.97756 18.75 2.37498 18.5854 2.66801 18.2924C2.96104 17.9993 3.12565 17.6019 3.12565 17.1875V5.33203L13.5358 15.7227L12.4225 16.8359C11.8408 17.4165 11.3794 18.106 11.0645 18.8651C10.7496 19.6242 10.5875 20.438 10.5875 21.2598C10.5875 22.0816 10.7496 22.8953 11.0645 23.6544C11.3794 24.4135 11.8408 25.1031 12.4225 25.6836L14.278 27.5391C11.7435 31.5616 9.91384 35.9871 8.86784 40.625H6.25065C4.59464 40.6301 3.00792 41.2903 1.83693 42.4613C0.66594 43.6323 0.00580595 45.219 0.000654995 46.875V53.125C0.00580595 54.781 0.66594 56.3677 1.83693 57.5387C3.00792 58.7097 4.59464 59.3699 6.25065 59.375H8.86784C9.91747 64.0118 11.7469 68.4367 14.278 72.4609L12.4225 74.3164C11.8408 74.8969 11.3794 75.5865 11.0645 76.3456C10.7496 77.1047 10.5875 77.9184 10.5875 78.7402C10.5875 79.562 10.7496 80.3758 11.0645 81.1349C11.3794 81.894 11.8408 82.5835 12.4225 83.1641L13.5358 84.2773L3.12565 94.668V82.8125C3.12565 82.3981 2.96104 82.0007 2.66801 81.7076C2.37498 81.4146 1.97756 81.25 1.56315 81.25C1.14875 81.25 0.751326 81.4146 0.458301 81.7076C0.165275 82.0007 0.000654995 82.3981 0.000654995 82.8125V98.6523C-0.00226763 98.6799 0.0046516 98.7076 0.0201862 98.7305C0.0201862 98.75 0.0397175 98.7891 0.0397175 98.8086C0.0397175 98.8281 0.0592487 98.8477 0.0592487 98.8867V98.9648C0.0592487 98.9844 0.07878 99.0039 0.07878 99.043L0.117843 99.1016C0.137374 99.1211 0.137374 99.1406 0.156905 99.1797L0.195967 99.2383L0.23503 99.2969L0.293624 99.375L0.332686 99.4336L0.54753 99.6484L0.606124 99.6875L0.684249 99.7461L0.742842 99.7852L0.801436 99.8242L0.879561 99.8633L0.938155 99.9023H17.2077C17.6221 99.9023 18.0195 99.7377 18.3125 99.4447C18.6056 99.1517 18.7702 98.7542 18.7702 98.3398C18.7702 97.9254 18.6056 97.528 18.3125 97.235C18.0195 96.942 17.6221 96.7773 17.2077 96.7773H5.33269L15.7233 86.3867L16.8366 87.4805C17.4171 88.0622 18.1067 88.5236 18.8658 88.8385C19.6249 89.1534 20.4386 89.3155 21.2604 89.3155C22.0822 89.3155 22.896 89.1534 23.6551 88.8385C24.4142 88.5236 25.1037 88.0622 25.6842 87.4805L27.5397 85.625C31.5622 88.1595 35.9877 89.9892 40.6257 91.0352V93.75C40.6308 95.406 41.2909 96.9927 42.4619 98.1637C43.6329 99.3347 45.2196 99.9949 46.8757 100H53.1257C54.7817 99.9949 56.3684 99.3347 57.5394 98.1637C58.7104 96.9927 59.3705 95.406 59.3757 93.75V91.1328C64.0124 90.0832 68.4373 88.2538 72.4616 85.7227L74.3171 87.5781C74.8976 88.1598 75.5871 88.6213 76.3462 88.9362C77.1053 89.251 77.9191 89.4131 78.7409 89.4131C79.5627 89.4131 80.3764 89.251 81.1355 88.9362C81.8946 88.6213 82.5842 88.1598 83.1647 87.5781L84.278 86.4844L94.6686 96.875H82.8132C82.3988 96.875 82.0013 97.0396 81.7083 97.3326C81.4153 97.6257 81.2507 98.0231 81.2507 98.4375C81.2507 98.8519 81.4153 99.2493 81.7083 99.5424C82.0013 99.8354 82.3988 100 82.8132 100H99.0632L99.1413 99.9609L99.2194 99.9219L99.278 99.8828L99.3366 99.8438L99.4147 99.7852L99.4733 99.7461C99.5544 99.6846 99.6267 99.6124 99.6882 99.5312L99.7272 99.4727C99.7077 99.4531 99.7272 99.4336 99.7467 99.3945L99.7858 99.3359L99.8249 99.2773L99.8639 99.1992L99.903 99.1406C99.903 99.1211 99.9225 99.1016 99.9225 99.0625C99.9225 99.0234 99.9421 99.0234 99.9421 98.9844C99.9421 98.9453 99.9616 98.9453 99.9616 98.9062C99.9616 98.8672 99.9811 98.8477 99.9811 98.8281C99.9782 98.8006 99.9851 98.7729 100.001 98.75V82.8125C100.001 82.3981 99.836 82.0007 99.543 81.7076C99.25 81.4146 98.8526 81.25 98.4382 81.25C98.0238 81.25 97.6263 81.4146 97.3333 81.7076C97.0403 82.0007 96.8757 82.3981 96.8757 82.8125V94.668L86.4655 84.2773L87.5788 83.1641C88.1605 82.5835 88.622 81.894 88.9368 81.1349C89.2517 80.3758 89.4138 79.562 89.4138 78.7402C89.4138 77.9184 89.2517 77.1047 88.9368 76.3456C88.622 75.5865 88.1605 74.8969 87.5788 74.3164L85.7233 72.4609C88.2578 68.4384 90.0875 64.0129 91.1335 59.375H93.7507C95.4067 59.3699 96.9934 58.7097 98.1644 57.5387C99.3354 56.3677 99.9955 54.781 100.001 53.125V46.875C100.001 45.2174 99.3422 43.6277 98.1701 42.4556C96.998 41.2835 95.4083 40.625 93.7507 40.625H91.1335C90.0838 35.9882 88.2544 31.5633 85.7233 27.5391L87.5788 25.6836C88.1605 25.1031 88.622 24.4135 88.9368 23.6544C89.2517 22.8953 89.4138 22.0816 89.4138 21.2598C89.4138 20.438 89.2517 19.6242 88.9368 18.8651C88.622 18.106 88.1605 17.4165 87.5788 16.8359L86.485 15.7422L96.8757 5.33203V17.1875C96.8757 17.6019 97.0403 17.9993 97.3333 18.2924C97.6263 18.5854 98.0238 18.75 98.4382 18.75C98.8526 18.75 99.25 18.5854 99.543 18.2924C99.836 17.9993 100.001 17.6019 100.001 17.1875V1.34766C100.004 1.32013 99.9967 1.29245 99.9811 1.26953ZM85.3132 19.082C85.8928 19.6704 86.2178 20.4631 86.2178 21.2891C86.2178 22.115 85.8928 22.9078 85.3132 23.4961L82.5788 26.2305C82.3231 26.4859 82.1639 26.8222 82.1283 27.1819C82.0926 27.5416 82.1828 27.9025 82.3835 28.2031C85.2943 32.5168 87.307 37.3724 88.3014 42.4805C88.3699 42.839 88.5616 43.1622 88.8435 43.3941C89.1253 43.626 89.4794 43.7519 89.8444 43.75H93.7311C94.5599 43.75 95.3548 44.0792 95.9408 44.6653C96.5269 45.2513 96.8561 46.0462 96.8561 46.875V53.125H96.8757C96.8757 53.9538 96.5464 54.7487 95.9604 55.3347C95.3743 55.9208 94.5795 56.25 93.7507 56.25H89.8639C89.5 56.2518 89.1477 56.3791 88.8667 56.6103C88.5856 56.8416 88.3929 57.1627 88.321 57.5195C87.3353 62.6302 85.322 67.4875 82.403 71.7969C82.2024 72.0975 82.1122 72.4585 82.1478 72.8181C82.1834 73.1778 82.3426 73.5141 82.5983 73.7695L85.3327 76.5039C85.9124 77.0922 86.2373 77.885 86.2373 78.7109C86.2373 79.5369 85.9124 80.3296 85.3327 80.918L84.2194 82.0117L82.0319 84.2188L80.9186 85.332C80.3303 85.9117 79.5375 86.2367 78.7116 86.2367C77.8857 86.2367 77.0929 85.9117 76.5046 85.332L73.7702 82.5977C73.5147 82.342 73.1785 82.1827 72.8188 82.1471C72.4591 82.1115 72.0982 82.2017 71.7975 82.4023C67.4838 85.3132 62.6283 87.3259 57.5202 88.3203C57.1617 88.3887 56.8384 88.5805 56.6066 88.8624C56.3747 89.1442 56.2487 89.4983 56.2507 89.8633V93.75C56.2507 94.5788 55.9214 95.3737 55.3354 95.9597C54.7493 96.5458 53.9545 96.875 53.1257 96.875H46.8757C46.0469 96.875 45.252 96.5458 44.6659 95.9597C44.0799 95.3737 43.7507 94.5788 43.7507 93.75V89.8633C43.7488 89.4993 43.6216 89.1471 43.3903 88.866C43.159 88.5849 42.8379 88.3922 42.4811 88.3203C37.3704 87.3347 32.5131 85.3213 28.2038 82.4023C27.9023 82.1977 27.5394 82.1035 27.1764 82.1355C26.8134 82.1675 26.4726 82.3239 26.2116 82.5781L23.4772 85.3125C22.8889 85.8922 22.0961 86.2171 21.2702 86.2171C20.4443 86.2171 19.6515 85.8922 19.0632 85.3125L17.9694 84.2188L15.7819 82.0312L14.6491 80.8984C14.0694 80.3101 13.7444 79.5173 13.7444 78.6914C13.7444 77.8655 14.0694 77.0727 14.6491 76.4844L17.3835 73.75C17.6392 73.4945 17.7984 73.1583 17.834 72.7986C17.8696 72.4389 17.7794 72.078 17.5788 71.7773C14.6679 67.4636 12.6553 62.6081 11.6608 57.5C11.5924 57.1415 11.4006 56.8183 11.1188 56.5864C10.8369 56.3545 10.4828 56.2286 10.1178 56.2305H6.23112C5.40232 56.2305 4.60747 55.9012 4.02142 55.3152C3.43536 54.7291 3.10612 53.9343 3.10612 53.1055V46.8555C3.10612 46.0267 3.43536 45.2318 4.02142 44.6458C4.60747 44.0597 5.40232 43.7305 6.23112 43.7305H10.1178C10.4818 43.7287 10.834 43.6014 11.1151 43.3701C11.3962 43.1389 11.5889 42.8177 11.6608 42.4609C12.6465 37.3502 14.6598 32.4929 17.5788 28.1836C17.7794 27.8829 17.8696 27.522 17.834 27.1623C17.7984 26.8026 17.6392 26.4664 17.3835 26.2109L14.6491 23.4766C14.0694 22.8882 13.7444 22.0955 13.7444 21.2695C13.7444 20.4436 14.0694 19.6508 14.6491 19.0625L15.7624 17.9492L17.9694 15.7422L19.0632 14.6484C19.6515 14.0687 20.4443 13.7438 21.2702 13.7438C22.0961 13.7438 22.8889 14.0687 23.4772 14.6484L26.2116 17.3828C26.4671 17.6385 26.8033 17.7977 27.163 17.8333C27.5227 17.869 27.8836 17.7788 28.1842 17.5781C32.498 14.6673 37.3535 12.6546 42.4616 11.6602C42.8201 11.5917 43.1433 11.4 43.3752 11.1181C43.6071 10.8363 43.733 10.4822 43.7311 10.1172V6.25C43.7311 5.4212 44.0604 4.62634 44.6464 4.04029C45.2325 3.45424 46.0273 3.125 46.8561 3.125H53.1061C53.9349 3.125 54.7298 3.45424 55.3158 4.04029C55.9019 4.62634 56.2311 5.4212 56.2311 6.25V10.1367C56.2329 10.5007 56.3602 10.8529 56.5915 11.134C56.8227 11.4151 57.1438 11.6078 57.5007 11.6797C62.6114 12.6653 67.4687 14.6787 71.778 17.5977C72.0787 17.7983 72.4396 17.8885 72.7993 17.8529C73.159 17.8173 73.4952 17.658 73.7507 17.4023L76.485 14.668C77.0734 14.0883 77.8661 13.7633 78.6921 13.7633C79.518 13.7633 80.3108 14.0883 80.8991 14.668L82.0124 15.7813L84.2194 17.9883L85.3132 19.082Z" fill="#00007E"/>
<path d="M42.4023 74H38.9648C38.2689 74 37.6012 73.7249 37.1073 73.2346C36.6134 72.7444 36.3333 72.0787 36.3281 71.3828V69.5273C36.3332 68.8296 36.6127 68.1619 37.1061 67.6685C37.5994 67.1752 38.2671 66.8957 38.9648 66.8906H42.4023C43.0983 66.8958 43.7639 67.1758 44.2542 67.6698C44.7444 68.1637 45.0196 68.8314 45.0195 69.5273V71.3828C45.0195 72.0769 44.7438 72.7426 44.253 73.2334C43.7622 73.7243 43.0965 74 42.4023 74ZM38.9648 69.2344C38.8871 69.2344 38.8126 69.2652 38.7577 69.3202C38.7027 69.3751 38.6719 69.4496 38.6719 69.5273V71.3828C38.6768 71.4571 38.7099 71.5267 38.7643 71.5775C38.8187 71.6282 38.8904 71.6564 38.9648 71.6562H42.4023C42.4749 71.6562 42.5444 71.6274 42.5957 71.5762C42.647 71.5249 42.6758 71.4553 42.6758 71.3828V69.5273C42.6759 69.4529 42.6478 69.3812 42.597 69.3268C42.5462 69.2724 42.4766 69.2393 42.4023 69.2344H38.9648Z" fill="#00007E"/>
<path d="M35.1758 51.4453H34.8633V38.6914C34.8633 38.3029 34.709 37.9303 34.4342 37.6556C34.1595 37.3809 33.7869 37.2266 33.3984 37.2266C33.0099 37.2266 32.6373 37.3809 32.3626 37.6556C32.0879 37.9303 31.9336 38.3029 31.9336 38.6914V51.4453H30.5273V42.0508C30.5273 41.6623 30.373 41.2897 30.0983 41.015C29.8236 40.7403 29.451 40.5859 29.0625 40.5859C28.674 40.5859 28.3014 40.7403 28.0267 41.015C27.752 41.2897 27.5977 41.6623 27.5977 42.0508V51.4453H26.3086V45.6055C26.3086 45.4131 26.2707 45.2226 26.1971 45.0449C26.1235 44.8672 26.0156 44.7057 25.8796 44.5697C25.7435 44.4336 25.582 44.3257 25.4043 44.2521C25.2266 44.1785 25.0361 44.1406 24.8438 44.1406C24.6514 44.1406 24.4609 44.1785 24.2832 44.2521C24.1055 44.3257 23.944 44.4336 23.8079 44.5697C23.6719 44.7057 23.564 44.8672 23.4904 45.0449C23.4168 45.2226 23.3789 45.4131 23.3789 45.6055V51.4453H22.9883C22.5998 51.4453 22.2272 51.5996 21.9525 51.8744C21.6778 52.1491 21.5234 52.5217 21.5234 52.9102C21.5234 53.2987 21.6778 53.6712 21.9525 53.946C22.2272 54.2207 22.5998 54.375 22.9883 54.375H35.1758C35.5643 54.375 35.9369 54.2207 36.2116 53.946C36.4863 53.6712 36.6406 53.2987 36.6406 52.9102C36.6406 52.5217 36.4863 52.1491 36.2116 51.8744C35.9369 51.5996 35.5643 51.4453 35.1758 51.4453Z" fill="#00007E"/>
</svg>
