<svg width="85" height="85" viewBox="0 0 85 85" fill="none" xmlns="http://www.w3.org/2000/svg">
<rect x="42.5" y="1.41421" width="58.1041" height="58.1041" rx="9" transform="rotate(45 42.5 1.41421)" fill="#66C3CD" stroke="white" stroke-width="2"/>
<path d="M41.0029 50.7167C39.4882 52.8287 37.3656 53.8848 34.6349 53.8848C31.9042 53.8848 29.7816 52.8287 28.2669 50.7167C26.7522 48.6047 25.9949 45.7887 25.9949 42.2687C25.9949 38.7487 26.7522 35.9327 28.2669 33.8207C29.7816 31.7087 31.9042 30.6527 34.6349 30.6527C37.3656 30.6527 39.4882 31.7087 41.0029 33.8207C42.5176 35.9327 43.2749 38.7487 43.2749 42.2687C43.2749 45.7887 42.5176 48.6047 41.0029 50.7167ZM30.4429 48.7007C31.4242 50.2154 32.8216 50.9727 34.6349 50.9727C36.4482 50.9727 37.8456 50.2154 38.8269 48.7007C39.8296 47.1861 40.3309 45.0421 40.3309 42.2687C40.3309 39.4954 39.8296 37.3514 38.8269 35.8368C37.8456 34.3007 36.4482 33.5327 34.6349 33.5327C32.8216 33.5327 31.4242 34.2901 30.4429 35.8047C29.4616 37.3194 28.9709 39.4741 28.9709 42.2687C28.9709 45.0421 29.4616 47.1861 30.4429 48.7007ZM53.4331 40.2527C55.1398 40.5727 56.5371 41.3087 57.6251 42.4607C58.7131 43.6127 59.2571 45.0741 59.2571 46.8447C59.2571 49.0207 58.5105 50.7381 57.0171 51.9967C55.5238 53.2554 53.7105 53.8848 51.5771 53.8848C49.8705 53.8848 48.3558 53.5007 47.0331 52.7327C45.7105 51.9434 44.7718 50.8127 44.2171 49.3407L46.7131 47.8687C47.3745 49.9381 48.9958 50.9727 51.5771 50.9727C52.9638 50.9727 54.0945 50.6101 54.9691 49.8847C55.8438 49.1594 56.2811 48.1461 56.2811 46.8447C56.2811 45.5434 55.8438 44.5301 54.9691 43.8047C54.0945 43.0581 52.9638 42.6847 51.5771 42.6847H50.8091L49.6251 40.8607L54.8091 33.8527H44.8571V31.0687H58.2971V33.6927L53.4331 40.2527Z" fill="#00007E"/>
</svg>
