<svg width="85" height="85" viewBox="0 0 85 85" fill="none" xmlns="http://www.w3.org/2000/svg">
<rect x="42.5" y="1.41421" width="58.1041" height="58.1041" rx="9" transform="rotate(45 42.5 1.41421)" fill="#66C3CD" stroke="white" stroke-width="2"/>
<path d="M40.956 50.7167C39.4413 52.8287 37.3187 53.8848 34.588 53.8848C31.8573 53.8848 29.7347 52.8287 28.22 50.7167C26.7053 48.6047 25.948 45.7887 25.948 42.2687C25.948 38.7487 26.7053 35.9327 28.22 33.8207C29.7347 31.7087 31.8573 30.6527 34.588 30.6527C37.3187 30.6527 39.4413 31.7087 40.956 33.8207C42.4707 35.9327 43.228 38.7487 43.228 42.2687C43.228 45.7887 42.4707 48.6047 40.956 50.7167ZM30.396 48.7007C31.3773 50.2154 32.7747 50.9727 34.588 50.9727C36.4013 50.9727 37.7987 50.2154 38.78 48.7007C39.7827 47.1861 40.284 45.0421 40.284 42.2687C40.284 39.4954 39.7827 37.3514 38.78 35.8368C37.7987 34.3007 36.4013 33.5327 34.588 33.5327C32.7747 33.5327 31.3773 34.2901 30.396 35.8047C29.4147 37.3194 28.924 39.4741 28.924 42.2687C28.924 45.0421 29.4147 47.1861 30.396 48.7007ZM44.77 53.4688V51.0367L52.674 42.9727C54.786 40.8607 55.842 39.0474 55.842 37.5327C55.842 36.2741 55.458 35.2927 54.69 34.5887C53.922 33.8847 52.9833 33.5327 51.874 33.5327C49.762 33.5327 48.226 34.5354 47.266 36.5407L44.77 35.0687C45.474 33.6181 46.4447 32.5194 47.682 31.7727C48.9407 31.0261 50.3273 30.6527 51.842 30.6527C53.7193 30.6527 55.3513 31.2714 56.738 32.5087C58.1247 33.7461 58.818 35.4101 58.818 37.5007C58.818 39.7621 57.4847 42.2261 54.818 44.8927L49.09 50.5887H59.234V53.4688H44.77Z" fill="#00007E"/>
</svg>
