<svg width="100" height="100" viewBox="0 0 100 100" fill="none" xmlns="http://www.w3.org/2000/svg">
<path d="M66.3441 99.7261H30.4219V98.7553L36.8944 75.0724C37.1101 74.4251 37.4337 74.1016 37.8652 74.1016H59.8716C60.3031 74.1016 60.6267 74.4251 60.8424 75.0724L67.3149 98.4316V99.0789C67.2451 99.2774 67.1128 99.4479 66.9377 99.5646C66.7626 99.6814 66.5542 99.738 66.3441 99.7261ZM33 98H65L58.9008 76.0433H38.836L33 98Z" fill="#00007E"/>
<path d="M76.6051 100H20.2946C19.6473 100 19 99.7143 19 99.1429C19 98.8398 19.1365 98.5491 19.3792 98.3347C19.622 98.1204 19.9513 98 20.2946 98H76.6051C76.9484 98 77.2777 98.1204 77.5204 98.3347C77.7632 98.5491 77.8997 98.8398 77.8997 99.1429C77.8997 99.7143 77.2523 100 76.6051 100Z" fill="#00007E"/>
<path d="M16.1812 61.4763H0.970833C0.713342 61.4763 0.466509 61.374 0.284435 61.1919C0.102361 61.0098 0 60.7629 0 60.5054C0 59.8582 0.323585 59.2109 0.970833 59.2109H16.1812C16.5245 59.2109 16.8538 59.3473 17.0965 59.5901C17.3393 59.8329 17.4758 60.1621 17.4758 60.5054C17.4758 61.1527 16.8285 61.4763 16.1812 61.4763Z" fill="#00007E"/>
<path d="M98.7043 61.4763H25.8888C25.6313 61.4763 25.3843 61.374 25.2022 61.1919C25.0201 61.0098 24.918 60.7629 24.918 60.5054C24.918 59.8582 25.2416 59.2109 25.8888 59.2109H98.7043C99.0476 59.2109 99.3768 59.3473 99.6196 59.5901C99.8624 59.8329 99.9988 60.1621 99.9988 60.5054C99.9988 61.1527 99.3515 61.4763 98.7043 61.4763Z" fill="#00007E"/>
<path d="M93.5275 76.0517H6.47249C4.75588 76.0517 3.10967 75.3698 1.89584 74.156C0.682015 72.9422 0 71.2958 0 69.5792V6.47249C0 4.75588 0.682015 3.10957 1.89584 1.89574C3.10967 0.681916 4.75588 0 6.47249 0H93.5275C95.2441 0 96.8903 0.681916 98.1042 1.89574C99.318 3.10957 100 4.75588 100 6.47249V69.5792C100 71.2958 99.318 72.9422 98.1042 74.156C96.8903 75.3698 95.2441 76.0517 93.5275 76.0517ZM6.47249 2.26531C5.35669 2.26531 4.28656 2.70858 3.49757 3.49757C2.70858 4.28656 2.26541 5.35669 2.26541 6.47249V69.5792C2.26541 70.695 2.70858 71.7651 3.49757 72.5541C4.28656 73.343 5.35669 73.7863 6.47249 73.7863H93.5275C94.6433 73.7863 95.7132 73.343 96.5022 72.5541C97.2912 71.7651 97.7346 70.695 97.7346 69.5792V6.47249C97.7346 5.35669 97.2912 4.28656 96.5022 3.49757C95.7132 2.70858 94.6433 2.26531 93.5275 2.26531H6.47249Z" fill="#00007E"/>
<path d="M21.3591 90.9294H0.970834C0.713342 90.9294 0.466509 90.8271 0.284435 90.645C0.102361 90.463 0 90.216 0 89.9585C0 89.3113 0.323585 88.6641 0.970834 88.6641H21.3591C21.7024 88.6641 22.0317 88.8004 22.2745 89.0432C22.5172 89.286 22.6537 89.6152 22.6537 89.9585C22.6537 90.6058 22.0064 90.9294 21.3591 90.9294Z" fill="#00007E"/>
<path d="M10.0323 84.1326H0.970834C0.713342 84.1326 0.466509 84.0302 0.284435 83.8482C0.102361 83.6661 0 83.4192 0 83.1617C0 82.5144 0.323585 81.8672 0.970834 81.8672H10.0323C10.3756 81.8672 10.7048 82.0036 10.9476 82.2463C11.1904 82.4891 11.3269 82.8183 11.3269 83.1617C11.3269 83.8089 10.6795 84.1326 10.0323 84.1326Z" fill="#00007E"/>
<path d="M98.3591 90.9294H77.9708C77.7133 90.9294 77.4665 90.8271 77.2844 90.645C77.1024 90.463 77 90.216 77 89.9585C77 89.3113 77.3236 88.6641 77.9708 88.6641H98.3591C98.7024 88.6641 99.0317 88.8004 99.2745 89.0432C99.5172 89.286 99.6537 89.6152 99.6537 89.9585C99.6537 90.6058 99.0064 90.9294 98.3591 90.9294Z" fill="#00007E"/>
<path d="M98.3604 84.1326H89.299C89.0415 84.1326 88.7946 84.0302 88.6126 83.8482C88.4305 83.6661 88.3281 83.4192 88.3281 83.1617C88.3281 82.5144 88.6517 81.8672 89.299 81.8672H98.3604C98.7037 81.8672 99.033 82.0036 99.2757 82.2463C99.5185 82.4891 99.655 82.8183 99.655 83.1617C99.655 83.8089 99.0076 84.1326 98.3604 84.1326Z" fill="#00007E"/>
<path d="M98.3819 18.445H0.970833C0.713342 18.445 0.466509 18.3427 0.284435 18.1607C0.102361 17.9786 0 17.7317 0 17.4742C0 16.8269 0.323585 16.1797 0.970833 16.1797H98.3819C98.7252 16.1797 99.0544 16.3161 99.2972 16.5588C99.54 16.8016 99.6763 17.1308 99.6763 17.4742C99.6763 18.1214 99.0291 18.445 98.3819 18.445Z" fill="#00007E"/>
<path d="M89.3188 11.6403H57.6036C57.3462 11.6403 57.0993 11.538 56.9172 11.356C56.7352 11.1739 56.6328 10.927 56.6328 10.6695C56.6328 10.0222 56.9564 9.375 57.6036 9.375H89.3188C89.6621 9.375 89.9914 9.51138 90.2341 9.75415C90.4769 9.99691 90.6134 10.3262 90.6134 10.6695C90.6134 11.3167 89.966 11.6403 89.3188 11.6403Z" fill="#00007E"/>
<path d="M48.8707 65.0547C49.1682 65.0547 49.4628 65.1133 49.7376 65.2271C50.0125 65.341 50.2622 65.5079 50.4726 65.7183C50.683 65.9286 50.8498 66.1783 50.9637 66.4532C51.0775 66.728 51.1361 67.0226 51.1361 67.3201C51.1361 67.6176 51.0775 67.9122 50.9637 68.187C50.8498 68.4619 50.683 68.7116 50.4726 68.9219C50.2622 69.1323 50.0125 69.2992 49.7376 69.4131C49.4628 69.5269 49.1682 69.5855 48.8707 69.5855C48.5732 69.5855 48.2786 69.5269 48.0037 69.4131C47.7289 69.2992 47.4793 69.1323 47.269 68.9219C47.0586 68.7116 46.8918 68.4619 46.7779 68.187C46.6641 67.9122 46.6055 67.6176 46.6055 67.3201C46.6055 67.0226 46.6641 66.728 46.7779 66.4532C46.8918 66.1783 47.0586 65.9286 47.269 65.7183C47.4793 65.5079 47.7289 65.341 48.0037 65.2271C48.2786 65.1133 48.5732 65.0547 48.8707 65.0547Z" fill="#00007E"/>
<path d="M12.2964 8.42188H7.76562V12.9526H12.2964V8.42188Z" fill="#00007E"/>
<path d="M19.0932 8.42188H14.5625V12.9526H19.0932V8.42188Z" fill="#00007E"/>
<path d="M25.8901 8.42188H21.3594V12.9526H25.8901V8.42188Z" fill="#00007E"/>
<path d="M58.2509 48.8763L61.1636 45.8274C61.5 45.5 61.8109 44.6692 61.1636 44.022L58.2509 41.1094L56.6328 42.4039L59.2218 44.9929L56.6328 47.2582L58.2509 48.8763Z" fill="#00007E"/>
<path d="M68.6085 51.1413L66.0195 53.4068L67.6377 55.0249C68.7169 53.8256 69.9302 52.6766 71.0078 51.599C71.1292 51.4776 71.1974 51.313 71.1974 51.1413C71.1974 50.9697 71.1292 50.8051 71.0078 50.6837C69.9302 49.6061 68.7169 48.4571 67.6377 47.2578L66.0195 48.8759L68.6085 51.1413Z" fill="#00007E"/>
<path d="M38.8359 32.3594H42.7195V34.301H38.8359V32.3594Z" fill="#00007E"/>
<path d="M44.9844 32.3594H66.667V34.301H44.9844V32.3594Z" fill="#00007E"/>
<path d="M38.8359 37.5469H42.7195V39.8123H38.8359V37.5469Z" fill="#00007E"/>
<path d="M44.9844 37.5469H62.7837V39.8123H44.9844V37.5469Z" fill="#00007E"/>
<path d="M40.7773 45.9688H44.9846V47.9105H40.7773V45.9688Z" fill="#00007E"/>
<path d="M46.9258 45.9688H55.3399V47.9105H46.9258V45.9688Z" fill="#00007E"/>
<path d="M40.7773 51.1172H44.9846V53.059H40.7773V51.1172Z" fill="#00007E"/>
<path d="M46.9258 51.1172H64.7251V53.059H46.9258V51.1172Z" fill="#00007E"/>
<path d="M32.3633 30.4141H34.6287V55.3331H32.3633V30.4141Z" fill="#00007E"/>
<path d="M36.5742 43.6875H38.8396V55.3379H36.5742V43.6875Z" fill="#00007E"/>
<path d="M73.1427 36.5631H88.6768C88.9708 36.5724 89.2591 36.4813 89.4944 36.3048C89.7297 36.1284 89.8978 35.8771 89.9712 35.5923V22.9708C89.9712 22.3236 89.3241 22 88.6768 22H73.1427C72.8852 22 72.6384 22.1023 72.4563 22.2843C72.2742 22.4664 72.1719 22.7133 72.1719 22.9708V35.5923C72.1719 35.8498 72.2742 36.0967 72.4563 36.2788C72.6384 36.4608 72.8852 36.5631 73.1427 36.5631ZM74.1137 23.9418H87.7058V34.2977H74.1137V23.9418Z" fill="#00007E"/>
<path d="M88.6729 42H77.346C76.6988 42 76.375 42.6472 76.375 43.2945V54.6213C76.375 54.8788 76.4774 55.1258 76.6594 55.3078C76.8415 55.4899 77.0885 55.5922 77.346 55.5922H88.6729C89.3201 55.5922 89.9673 55.2686 89.9673 54.6213V43.2945C89.9673 42.9512 89.831 42.6219 89.5882 42.3791C89.3454 42.1364 89.0162 42 88.6729 42ZM87.7019 53.6505H78.3169V44.2653H87.7019V53.6505Z" fill="#00007E"/>
<path d="M12.2964 34.6185L13.9145 33.324L11.3255 30.7351L13.9145 28.4697L12.2964 26.8516L9.38387 30.0878C8.73663 30.4114 8.73663 31.0587 9.38387 31.7059L12.2964 34.6185Z" fill="#00007E"/>
<path d="M22.333 34.6185L25.2455 31.7059C25.4293 31.4763 25.5295 31.191 25.5295 30.8969C25.5295 30.6027 25.4293 30.3174 25.2455 30.0878L22.333 26.8516L20.7148 28.4697L22.9801 30.7351L20.7148 33.324L22.333 34.6185Z" fill="#00007E"/>
<path d="M15.207 33.0156H19.4141V34.9574H15.207V33.0156Z" fill="#00007E"/>
<path d="M15.207 52.4375H19.4141V54.3793H15.207V52.4375Z" fill="#00007E"/>
<path d="M8.73438 52.4375H12.9415V54.3793H8.73438V52.4375Z" fill="#00007E"/>
<path d="M21.6797 52.4375H25.8868V54.3793H21.6797V52.4375Z" fill="#00007E"/>
<path d="M15.207 45.9688H19.4141V47.9105H15.207V45.9688Z" fill="#00007E"/>
<path d="M8.73438 45.9688H12.9415V47.9105H8.73438V45.9688Z" fill="#00007E"/>
<path d="M21.6797 45.9688H25.8868V47.9105H21.6797V45.9688Z" fill="#00007E"/>
<path d="M15.207 39.4922H19.4141V41.434H15.207V39.4922Z" fill="#00007E"/>
<path d="M8.73438 39.4922H12.9415V41.434H8.73438V39.4922Z" fill="#00007E"/>
<path d="M21.6797 39.4922H25.8868V41.434H21.6797V39.4922Z" fill="#00007E"/>
</svg>
