<svg width="100" height="100" viewBox="0 0 100 100" fill="none" xmlns="http://www.w3.org/2000/svg">
<path d="M67.4063 100.003H34.7408C34.5754 99.9985 34.4131 99.9563 34.2664 99.8796C34.1197 99.8028 33.9925 99.6936 33.8945 99.5602C33.7965 99.4268 33.7303 99.2727 33.7009 99.1098C33.6715 98.9469 33.6797 98.7794 33.7249 98.6202L39.8488 78.2166C39.9154 77.9994 40.0502 77.8094 40.2331 77.6748C40.4161 77.5401 40.6375 77.4679 40.8647 77.4688H61.2824C61.5096 77.4679 61.731 77.5401 61.914 77.6748C62.0969 77.8094 62.2317 77.9994 62.2983 78.2166L68.394 98.5355C68.439 98.6624 68.4629 98.7959 68.4646 98.9306C68.4646 99.2126 68.3535 99.4832 68.1555 99.6839C67.9574 99.8846 67.6882 99.9993 67.4063 100.003ZM36.1801 97.8723H65.967L60.4922 79.5853H41.6549L36.1801 97.8723Z" fill="#00007E"/>
<path d="M77.6084 99.9979H24.5394C24.278 99.9677 24.0368 99.8425 23.8617 99.6461C23.6866 99.4496 23.5898 99.1957 23.5898 98.9325C23.5898 98.6694 23.6866 98.4154 23.8617 98.219C24.0368 98.0225 24.278 97.8973 24.5394 97.8672H77.6084C77.8698 97.8973 78.111 98.0225 78.2861 98.219C78.4612 98.4154 78.558 98.6694 78.558 98.9325C78.558 99.1957 78.4612 99.4496 78.2861 99.6461C78.111 99.8425 77.8698 99.9677 77.6084 99.9979Z" fill="#00007E"/>
<path d="M15.3957 65.3025H1.10192C0.840503 65.2724 0.599292 65.1472 0.424196 64.9508C0.2491 64.7543 0.152344 64.5004 0.152344 64.2372C0.152344 63.9741 0.2491 63.7201 0.424196 63.5237C0.599292 63.3272 0.840503 63.202 1.10192 63.1719H15.3957C15.6571 63.202 15.8983 63.3272 16.0734 63.5237C16.2485 63.7201 16.3453 63.9741 16.3453 64.2372C16.3453 64.5004 16.2485 64.7543 16.0734 64.9508C15.8983 65.1472 15.6571 65.2724 15.3957 65.3025Z" fill="#00007E"/>
<path d="M98.8729 65.3025H24.4691C24.2077 65.2724 23.9665 65.1472 23.7914 64.9508C23.6163 64.7543 23.5195 64.5004 23.5195 64.2372C23.5195 63.9741 23.6163 63.7201 23.7914 63.5237C23.9665 63.3272 24.2077 63.202 24.4691 63.1719H98.8729C99.1344 63.202 99.3756 63.3272 99.5507 63.5237C99.7258 63.7201 99.8225 63.9741 99.8225 64.2372C99.8225 64.5004 99.7258 64.7543 99.5507 64.9508C99.3756 65.1472 99.1344 65.2724 98.8729 65.3025Z" fill="#00007E"/>
<path d="M89.9686 63.8189C89.8284 63.8207 89.6893 63.7948 89.5592 63.7424C89.4292 63.6901 89.3109 63.6124 89.2111 63.514C89.1113 63.4155 89.0321 63.2982 88.9781 63.1689C88.924 63.0396 88.8962 62.9008 88.8962 62.7606V19.1455H74.3202C74.17 19.1628 74.0178 19.1482 73.8737 19.1026C73.7296 19.0569 73.5967 18.9813 73.4838 18.8807C73.371 18.7801 73.2806 18.6568 73.2188 18.5188C73.157 18.3809 73.125 18.2314 73.125 18.0802C73.125 17.929 73.157 17.7795 73.2188 17.6416C73.2806 17.5036 73.371 17.3803 73.4838 17.2797C73.5967 17.1791 73.7296 17.1035 73.8737 17.0578C74.0178 17.0122 74.17 16.9976 74.3202 17.0149H89.9686C90.2505 17.0186 90.5197 17.1332 90.7177 17.3339C90.9158 17.5346 91.0269 17.8053 91.0268 18.0873V62.7606C91.0268 63.0413 90.9153 63.3105 90.7169 63.5089C90.5184 63.7074 90.2492 63.8189 89.9686 63.8189Z" fill="#00007E"/>
<path d="M9.5802 63.8189C9.44004 63.8207 9.30091 63.7948 9.17088 63.7424C9.04085 63.6901 8.92252 63.6124 8.82275 63.514C8.72298 63.4155 8.64376 63.2982 8.5897 63.1689C8.53563 63.0396 8.5078 62.9008 8.50781 62.7606V18.0873C8.50781 17.8028 8.6208 17.5301 8.82191 17.329C9.02302 17.1279 9.29578 17.0149 9.5802 17.0149H25.4402C25.5904 16.9976 25.7426 17.0122 25.8867 17.0578C26.0309 17.1035 26.1637 17.1791 26.2766 17.2797C26.3895 17.3803 26.4798 17.5036 26.5416 17.6416C26.6034 17.7795 26.6354 17.929 26.6354 18.0802C26.6354 18.2314 26.6034 18.3809 26.5416 18.5188C26.4798 18.6568 26.3895 18.7801 26.2766 18.8807C26.1637 18.9813 26.0309 19.0569 25.8867 19.1026C25.7426 19.1482 25.5904 19.1628 25.4402 19.1455H10.6385V62.7606C10.6385 63.0413 10.527 63.3105 10.3285 63.5089C10.13 63.7074 9.86087 63.8189 9.5802 63.8189Z" fill="#00007E"/>
<path d="M20.206 93.6072H1.05828C0.777603 93.6072 0.508427 93.4957 0.309962 93.2973C0.111497 93.0988 4.02395e-09 92.8296 4.02395e-09 92.549C-2.44072e-05 92.267 0.11102 91.9963 0.30909 91.7956C0.507159 91.5949 0.776314 91.4803 1.05828 91.4766H20.206C20.4904 91.4766 20.7632 91.5895 20.9643 91.7907C21.1654 91.9918 21.2784 92.2645 21.2784 92.549C21.2784 92.6891 21.2506 92.8279 21.1965 92.9572C21.1424 93.0865 21.0632 93.2038 20.9635 93.3023C20.8637 93.4008 20.7454 93.4784 20.6153 93.5308C20.4853 93.5831 20.3462 93.6091 20.206 93.6072Z" fill="#00007E"/>
<path d="M9.5816 87.2322H1.05895C0.797535 87.2021 0.556323 87.0769 0.381227 86.8805C0.206131 86.684 0.109375 86.43 0.109375 86.1669C0.109375 85.9038 0.206131 85.6498 0.381227 85.4533C0.556323 85.2569 0.797535 85.1317 1.05895 85.1016H9.5816C9.84302 85.1317 10.0842 85.2569 10.2593 85.4533C10.4344 85.6498 10.5312 85.9038 10.5312 86.1669C10.5312 86.43 10.4344 86.684 10.2593 86.8805C10.0842 87.0769 9.84302 87.2021 9.5816 87.2322Z" fill="#00007E"/>
<path d="M93.8344 79.5815H6.13864C4.52311 79.5778 2.97482 78.9344 1.83247 77.792C0.690112 76.6497 0.0466955 75.1014 0.0429688 73.4859V14.1801C0.0429644 12.5621 0.684734 11.0102 1.82749 9.86481C2.97025 8.71941 4.52067 8.07405 6.13864 8.07031H25.4416C25.726 8.07031 25.9988 8.1833 26.1999 8.38441C26.401 8.58552 26.514 8.85828 26.514 9.1427V55.3117H73.2474C73.2897 42.0621 73.3603 10.9912 73.2615 9.29791C73.2358 9.10684 73.2602 8.91237 73.3321 8.7335C73.4129 8.5378 73.5498 8.37039 73.7255 8.25238C73.9013 8.13436 74.1081 8.07101 74.3198 8.07031H93.8344C95.4524 8.07405 97.0028 8.71941 98.1456 9.86481C99.2883 11.0102 99.9301 12.5621 99.9301 14.1801V73.4859C99.9264 75.1014 99.2829 76.6497 98.1406 77.792C96.9982 78.9344 95.4499 79.5778 93.8344 79.5815ZM6.13864 10.201C5.61676 10.201 5.10001 10.304 4.61803 10.5041C4.13605 10.7043 3.69832 10.9976 3.32995 11.3673C2.96158 11.737 2.66982 12.1757 2.47139 12.6584C2.27296 13.1411 2.17177 13.6582 2.17363 14.1801V73.4859C2.17362 74.5387 2.59091 75.5487 3.33409 76.2945C4.07727 77.0404 5.08576 77.4612 6.13864 77.465H93.8344C94.8873 77.4612 95.8958 77.0404 96.639 76.2945C97.3821 75.5487 97.7994 74.5387 97.7994 73.4859V14.1801C97.8013 13.6582 97.7001 13.1411 97.5017 12.6584C97.3032 12.1757 97.0115 11.737 96.6431 11.3673C96.2747 10.9976 95.837 10.7043 95.355 10.5041C94.873 10.304 94.3563 10.201 93.8344 10.201H75.4063C75.4204 10.4832 75.4204 10.8077 75.4204 11.2028C75.4204 12.4445 75.4345 14.2506 75.4345 16.5788C75.4486 20.5015 75.4486 25.9622 75.4345 32.8199C75.4204 44.475 75.3781 56.2712 75.3781 56.3841C75.3744 56.6637 75.2618 56.9307 75.0641 57.1284C74.8664 57.3261 74.5993 57.4387 74.3198 57.4424H25.4416C25.162 57.4387 24.895 57.3261 24.6973 57.1284C24.4996 56.9307 24.387 56.6637 24.3833 56.3841V10.201H6.13864Z" fill="#00007E"/>
<path d="M74.3193 57.4432H25.4411C25.1616 57.4396 24.8945 57.3269 24.6968 57.1292C24.4991 56.9315 24.3865 56.6645 24.3828 56.3849V1.05828C24.3865 0.77874 24.4991 0.511682 24.6968 0.314003C24.8945 0.116324 25.1616 0.00365453 25.4411 0L74.3193 0C74.5989 0.00365453 74.8659 0.116324 75.0636 0.314003C75.2613 0.511682 75.3739 0.77874 75.3776 1.05828V56.3849C75.3739 56.6645 75.2613 56.9315 75.0636 57.1292C74.8659 57.3269 74.5989 57.4396 74.3193 57.4432ZM26.5135 55.3125H73.2469V2.13066H26.5135V55.3125Z" fill="#00007E"/>
<path d="M49.9912 68.3203C50.4321 68.3203 50.8631 68.4511 51.2298 68.696C51.5964 68.941 51.8821 69.2892 52.0509 69.6966C52.2196 70.104 52.2638 70.5522 52.1778 70.9847C52.0917 71.4172 51.8794 71.8144 51.5676 72.1262C51.2558 72.438 50.8586 72.6503 50.4261 72.7363C49.9936 72.8224 49.5454 72.7782 49.138 72.6095C48.7306 72.4407 48.3824 72.155 48.1374 71.7884C47.8925 71.4217 47.7617 70.9907 47.7617 70.5497C47.7617 69.9585 47.9966 69.3914 48.4147 68.9733C48.8328 68.5552 49.3999 68.3203 49.9912 68.3203Z" fill="#00007E"/>
<path d="M62.3095 22.6716C62.307 22.605 62.2975 22.5388 62.2813 22.4741C62.2777 22.4333 62.263 22.3943 62.239 22.3612C62.2241 22.2971 62.2004 22.2353 62.1684 22.1778L62.0979 22.0931L61.985 21.9379L61.8721 21.8532L61.7592 21.7545L50.7673 14.6429C50.5741 14.5166 50.3489 14.4481 50.1182 14.4453C49.8937 14.4473 49.6741 14.5107 49.4832 14.6287L38.4771 21.5146C38.4378 21.5343 38.4038 21.5634 38.3784 21.5993C38.3303 21.624 38.2872 21.6575 38.2514 21.698L38.1385 21.825L38.0962 21.8815C38.0821 21.8956 38.0821 21.9097 38.0679 21.9379L37.9833 22.1213L37.941 22.2201C37.9218 22.3224 37.917 22.4269 37.9268 22.5305V34.9053C37.9258 35.1089 37.9771 35.3093 38.076 35.4872C38.1748 35.6651 38.3179 35.8146 38.4913 35.9213L49.4832 42.793C49.5255 42.8212 49.5397 42.8212 49.5397 42.8353L49.709 42.8918L49.7654 42.92H49.8078C50.0108 42.9765 50.2255 42.9765 50.4286 42.92L50.5274 42.8918L50.7108 42.8071L61.7451 36.1752C61.9195 36.0651 62.0637 35.9133 62.1647 35.7334C62.2657 35.5536 62.3203 35.3514 62.3236 35.1452V22.7845C62.3223 22.7512 62.3175 22.7181 62.3095 22.6858V22.6716ZM48.9188 39.6041L40.3397 34.2421V24.7176L48.9188 30.0796V39.6041ZM50.1323 27.9912L41.398 22.5305L50.1041 17.0839L58.8384 22.7422L50.1323 27.9912ZM59.9108 34.4679L51.3317 39.6464V30.0796L59.9108 24.9152V34.4679Z" fill="#00007E"/>
<path d="M31.4613 17.1759L30.3203 19.6797L35.8171 22.1847L36.9581 19.6809L31.4613 17.1759Z" fill="#00007E"/>
<path d="M35.8119 35.2456L30.3164 37.75L31.4563 40.2512L36.9517 37.7468L35.8119 35.2456Z" fill="#00007E"/>
<path d="M68.8045 17.7161L63.3047 20.2109L64.4402 22.7141L69.94 20.2193L68.8045 17.7161Z" fill="#00007E"/>
<path d="M64.4101 35.2364L63.2734 37.7422L68.7733 40.237L69.9099 37.7313L64.4101 35.2364Z" fill="#00007E"/>
<path d="M51.5015 7.42188H48.75V11.5463H51.5015V7.42188Z" fill="#00007E"/>
<path d="M51.5015 45.8984H48.75V50.0229H51.5015V45.8984Z" fill="#00007E"/>
<path d="M79.6405 92.0987H98.7882C99.0497 92.0685 99.2909 91.9433 99.466 91.7469C99.6411 91.5504 99.7378 91.2965 99.7378 91.0333C99.7378 90.7702 99.6411 90.5162 99.466 90.3198C99.2909 90.1233 99.0497 89.9981 98.7882 89.968H79.6405C79.4903 89.9507 79.3382 89.9653 79.194 90.011C79.0499 90.0566 78.917 90.1322 78.8042 90.2328C78.6913 90.3334 78.601 90.4567 78.5391 90.5947C78.4773 90.7327 78.4453 90.8821 78.4453 91.0333C78.4453 91.1845 78.4773 91.334 78.5391 91.472C78.601 91.6099 78.6913 91.7333 78.8042 91.8339C78.917 91.9345 79.0499 92.0101 79.194 92.0557C79.3382 92.1013 79.4903 92.116 79.6405 92.0987Z" fill="#00007E"/>
<path d="M90.2621 85.7088H98.7847C99.0461 85.6787 99.2874 85.5534 99.4624 85.357C99.6375 85.1606 99.7343 84.9066 99.7343 84.6435C99.7343 84.3803 99.6375 84.1263 99.4624 83.9299C99.2874 83.7335 99.0461 83.6083 98.7847 83.5781H90.2621C90.0007 83.6083 89.7595 83.7335 89.5844 83.9299C89.4093 84.1263 89.3125 84.3803 89.3125 84.6435C89.3125 84.9066 89.4093 85.1606 89.5844 85.357C89.7595 85.5534 90.0007 85.6787 90.2621 85.7088Z" fill="#00007E"/>
</svg>
