<svg width="100" height="50" viewBox="0 0 100 50" fill="none" xmlns="http://www.w3.org/2000/svg">
<g clip-path="url(#clip0_380_4100)">
<path d="M0.464962 48.8192H8.7351V13.6164H0.464962V48.8192ZM4.58161 9.0003C7.17186 9.0003 9.19768 7.00698 9.19768 4.5164C9.19768 1.99224 7.17186 0 4.58161 0C2.02387 0 -0.00195312 1.99224 -0.00195312 4.5164C-0.00195312 7.00806 2.02387 9.0003 4.58161 9.0003ZM36.2647 0.0996661C22.2897 0.0996661 13.5148 9.63297 13.5148 24.8743C13.5148 40.1157 22.2854 49.6165 36.2668 49.6165C50.2169 49.6165 58.9832 40.1179 58.9832 24.8743C58.9832 9.6308 50.2169 0.0996661 36.2668 0.0996661H36.2647ZM36.2647 7.40564C44.8002 7.40564 50.2461 14.1808 50.2461 24.8743C50.2461 35.5354 44.8002 42.3105 36.2647 42.3105C27.6966 42.3105 22.2897 35.5354 22.2897 24.8743C22.2865 14.1808 27.6999 7.40564 36.2668 7.40564H36.2647ZM62.4715 35.336C62.8377 44.1706 70.0776 49.6165 81.1026 49.6165C92.6942 49.6165 100 43.9041 100 34.8041C100 27.6639 95.8836 23.6458 86.1509 21.4207L80.6379 20.1586C74.7597 18.7644 72.3352 16.9086 72.3352 13.716C72.3352 9.73047 75.9893 7.07414 81.4027 7.07414C86.8822 7.07414 90.6348 9.76405 91.0335 14.248H99.2029C99.0036 5.81206 92.0291 0.0996661 81.4688 0.0996661C71.0406 0.0996661 63.6339 5.84131 63.6339 14.3465C63.6339 21.1878 67.8188 25.4398 76.6523 27.4657L82.863 28.9249C88.9069 30.3527 91.365 32.345 91.365 35.7986C91.365 39.7842 87.3458 42.6399 81.5684 42.6399C75.7185 42.6399 71.3061 39.7506 70.7752 35.3339H62.4715V35.336Z" fill="black"/>
</g>
<defs>
<clipPath id="clip0_380_4100">
<rect width="100" height="49.6165" fill="white"/>
</clipPath>
</defs>
</svg>
