<svg width="600" height="352" viewBox="0 0 600 352" fill="none" xmlns="http://www.w3.org/2000/svg">
<g clip-path="url(#clip0_1313_2878)">
<path d="M120.647 324.006C120.278 310.437 117.97 296.868 112.432 284.499C106.893 272.129 97.9394 261.145 86.2163 254.314C77.9086 249.514 66.4625 247.299 59.1702 253.576C56.7756 255.755 54.9395 258.477 53.8163 261.514C50.5868 269.394 50.4877 278.21 53.5394 286.16C56.124 292.806 60.7394 298.345 65.724 303.422C79.0163 316.899 96.6471 327.606 115.57 327.514" fill="#66C3CD"/>
<path d="M118.246 351.149C109.889 341.991 98.5894 336.047 86.3079 334.349C81.9694 333.795 72.4617 332.319 69.8771 336.934C67.2925 341.549 73.2925 348.38 76.2463 350.872C79.2002 353.365 83.631 356.595 87.8771 358.257C92.9593 360.182 98.4781 360.649 103.811 359.605C109.145 358.561 114.08 356.048 118.062 352.349" fill="#66C3CD"/>
<path d="M425.817 326.41C419.078 307.118 416.402 285.702 422.494 266.133C428.586 246.564 444.278 229.302 464.309 225.149C467.065 224.473 469.939 224.441 472.709 225.056C475.413 225.913 477.857 227.437 479.817 229.487C489.417 238.995 492.094 253.949 489.232 267.149C486.371 280.349 478.617 291.887 469.94 302.225C461.263 312.564 448.34 324.379 433.663 325.949" fill="#66C3CD"/>
<path d="M435.23 348.748C438 344.317 442.615 341.456 447.138 338.964C456.369 333.979 466.154 329.733 476.492 328.256C482.123 327.517 488.954 328.164 491.815 333.056C494.677 337.948 492.554 342.379 489.969 346.348C487.779 349.542 484.965 352.26 481.697 354.338C478.429 356.416 474.775 357.812 470.954 358.441C466.154 359.271 461.169 358.717 456.277 358.071C449.538 357.148 442.707 355.856 436.8 352.44" fill="#66C3CD"/>
<path d="M459.784 248.782C443.996 268.252 429.356 288.625 415.938 309.797C412.153 315.797 408.461 321.797 404.861 327.89C404.818 327.969 404.792 328.055 404.783 328.144C404.774 328.233 404.782 328.323 404.808 328.409C404.834 328.494 404.876 328.574 404.933 328.644C404.989 328.713 405.059 328.77 405.138 328.813C405.216 328.855 405.303 328.882 405.392 328.891C405.481 328.9 405.571 328.891 405.657 328.866C405.742 328.84 405.822 328.798 405.891 328.741C405.961 328.684 406.018 328.615 406.061 328.536C418.64 307.059 432.48 286.346 447.507 266.505C451.845 260.874 456.184 255.244 460.707 249.705C461.261 249.059 460.338 248.136 459.784 248.782Z" fill="white"/>
<path d="M475.754 343.956C457.504 347.662 438.894 349.303 420.277 348.848C420.106 348.848 419.941 348.916 419.82 349.037C419.699 349.158 419.631 349.323 419.631 349.494C419.631 349.665 419.699 349.83 419.82 349.951C419.941 350.072 420.106 350.14 420.277 350.14C439.021 350.607 457.758 348.934 476.123 345.156C476.954 345.063 476.585 343.771 475.754 343.956Z" fill="white"/>
<path d="M70.0621 275.272C92.7254 288.966 113.594 305.431 132.185 324.287C137.354 329.548 142.339 334.995 147.047 340.625C147.601 341.272 148.524 340.348 147.97 339.702C130.793 319.579 111.163 301.686 89.539 286.441C83.4467 282.102 77.1697 278.041 70.7082 274.164C70.6354 274.108 70.5516 274.069 70.4624 274.048C70.3732 274.027 70.2805 274.026 70.1907 274.044C70.1008 274.061 70.0158 274.098 69.9412 274.151C69.8666 274.204 69.8041 274.273 69.7579 274.352C69.7118 274.431 69.683 274.519 69.6734 274.61C69.6639 274.701 69.6738 274.793 69.7026 274.88C69.7314 274.967 69.7783 275.047 69.8402 275.115C69.9022 275.182 69.9778 275.236 70.0621 275.272Z" fill="white"/>
<path d="M83.4459 345.518C97.8034 350.3 112.676 353.368 127.754 354.657C132.092 355.026 136.338 355.303 140.677 355.303C140.848 355.303 141.012 355.235 141.134 355.114C141.255 354.993 141.323 354.828 141.323 354.657C141.323 354.486 141.255 354.321 141.134 354.2C141.012 354.079 140.848 354.011 140.677 354.011C125.657 353.746 110.722 351.701 96.1844 347.918C92.0305 346.811 87.8767 345.611 83.8151 344.226C82.9843 343.949 82.7074 345.242 83.4459 345.518Z" fill="white"/>
<path d="M23.9064 300.326C29.8331 298.615 33.2508 292.424 31.5402 286.497C29.8295 280.571 23.6383 277.153 17.7116 278.864C11.785 280.574 8.36722 286.765 10.0779 292.692C11.7885 298.619 17.9798 302.037 23.9064 300.326Z" fill="#FFB701"/>
<path d="M10.8923 263.204C10.8923 262.127 10.5729 261.074 9.97447 260.178C9.37604 259.283 8.52546 258.585 7.53031 258.172C6.53515 257.76 5.44012 257.652 4.38367 257.862C3.32722 258.073 2.35681 258.591 1.59515 259.353C0.833489 260.115 0.314789 261.085 0.104648 262.141C-0.105493 263.198 0.00236169 264.293 0.414568 265.288C0.826775 266.283 1.52482 267.134 2.42044 267.732C3.31605 268.331 4.36901 268.65 5.44616 268.65C6.1648 268.663 6.87861 268.53 7.54501 268.261C8.21142 267.992 8.81678 267.591 9.32502 267.083C9.83325 266.575 10.2339 265.969 10.5032 265.303C10.7725 264.636 10.9048 263.923 10.8923 263.204Z" fill="#FFB701"/>
<path d="M511.892 301.446C511.892 300.369 511.573 299.316 510.974 298.42C510.376 297.525 509.525 296.827 508.53 296.415C507.535 296.002 506.44 295.895 505.384 296.105C504.327 296.315 503.357 296.833 502.595 297.595C501.834 298.357 501.315 299.327 501.105 300.384C500.895 301.44 501.002 302.535 501.415 303.53C501.827 304.525 502.525 305.376 503.42 305.974C504.316 306.573 505.369 306.892 506.446 306.892C507.165 306.905 507.879 306.772 508.545 306.503C509.211 306.234 509.817 305.833 510.325 305.325C510.833 304.817 511.234 304.211 511.503 303.545C511.773 302.879 511.905 302.165 511.892 301.446Z" fill="#FFB701"/>
<path d="M428.076 156.63C428.094 155.527 427.783 154.444 427.181 153.519C426.58 152.594 425.716 151.87 424.7 151.439C423.684 151.009 422.563 150.891 421.48 151.102C420.398 151.313 419.402 151.842 418.622 152.622C417.842 153.402 417.313 154.398 417.102 155.48C416.891 156.563 417.009 157.684 417.439 158.7C417.87 159.716 418.594 160.58 419.519 161.181C420.444 161.783 421.527 162.094 422.63 162.076C424.074 162.076 425.46 161.502 426.481 160.481C427.502 159.46 428.076 158.074 428.076 156.63Z" fill="#FFB701"/>
<g style="mix-blend-mode:multiply">
<g style="mix-blend-mode:multiply">
<path d="M136.524 32.7108L131.817 25.8801C131.152 24.9898 130.189 24.369 129.104 24.1316C128.019 23.8942 126.884 24.0562 125.909 24.5878C119.732 28.1531 114.156 32.6701 109.386 37.9724C108.665 38.8109 108.277 39.8844 108.294 40.9899C108.311 42.0954 108.732 43.1564 109.478 43.9724L115.109 50.157C115.776 50.827 116.194 51.7044 116.295 52.6442C116.395 53.5841 116.172 54.5301 115.663 55.3262C113.988 58.1809 112.567 61.177 111.417 64.2801C111.099 65.0875 110.556 65.7866 109.852 66.2939C109.149 66.8013 108.314 67.0955 107.447 67.1416L97.9397 67.4185C96.9057 67.4682 95.9201 67.8711 95.1473 68.5599C94.3745 69.2486 93.8614 70.1816 93.6936 71.2031C92.5094 78.4528 92.5718 85.8514 93.8782 93.0801C94.0743 94.1307 94.6362 95.0779 95.4642 95.7538C96.2921 96.4297 97.3326 96.7905 98.4013 96.7724L107.17 96.4031C108.085 96.3952 108.979 96.6644 109.737 97.1752C110.495 97.686 111.081 98.4145 111.417 99.2647C112.063 100.834 112.709 102.311 113.447 103.88C114.186 105.449 114.924 106.649 115.755 108.034C116.194 108.791 116.394 109.664 116.328 110.537C116.263 111.41 115.934 112.243 115.386 112.926L109.755 120.219C109.116 121.051 108.793 122.083 108.844 123.131C108.895 124.179 109.316 125.175 110.032 125.942C114.987 131.335 120.786 135.886 127.201 139.419C128.129 139.922 129.206 140.078 130.238 139.858C131.27 139.638 132.19 139.056 132.832 138.219L138.37 131.019C138.91 130.294 139.666 129.76 140.529 129.494C141.392 129.229 142.317 129.245 143.17 129.542C146.539 130.585 150.002 131.296 153.509 131.665C154.464 131.787 155.355 132.212 156.052 132.876C156.75 133.54 157.217 134.409 157.386 135.357L158.586 143.48C158.747 144.582 159.325 145.58 160.201 146.268C161.078 146.955 162.185 147.279 163.294 147.172C170.547 146.69 177.664 144.973 184.34 142.095C185.279 141.71 186.057 141.014 186.544 140.123C187.032 139.233 187.198 138.202 187.017 137.203L185.355 127.419C185.178 126.603 185.25 125.753 185.563 124.979C185.876 124.205 186.415 123.543 187.109 123.08C189.744 121.272 192.187 119.2 194.401 116.895C195.081 116.22 195.96 115.783 196.909 115.65C197.858 115.517 198.824 115.695 199.663 116.157L206.955 120.219C207.927 120.735 209.054 120.879 210.124 120.624C211.195 120.369 212.135 119.733 212.771 118.834C216.845 112.842 219.93 106.235 221.909 99.2647C222.176 98.2559 222.093 97.1866 221.674 96.231C221.255 95.2755 220.524 94.4902 219.601 94.0031L211.109 89.8493C210.328 89.4901 209.678 88.8978 209.249 88.1539C208.819 87.4099 208.63 86.551 208.709 85.6954C208.97 82.4358 208.908 79.1583 208.524 75.9108C208.413 74.9915 208.605 74.061 209.072 73.2611C209.539 72.4612 210.254 71.8357 211.109 71.4801L219.047 67.8801C220.031 67.4338 220.819 66.6433 221.261 65.6573C221.703 64.6713 221.769 63.5578 221.447 62.5262C220.413 59.125 219.085 55.8203 217.478 52.6493C215.922 49.3784 214.068 46.2575 211.94 43.3262C211.321 42.4334 210.389 41.8052 209.33 41.566C208.27 41.3267 207.159 41.4937 206.217 42.0339L198.647 46.0955C197.841 46.5935 196.889 46.8009 195.949 46.6834C195.009 46.5659 194.137 46.1304 193.478 45.4493C190.943 43.0104 188.158 40.8447 185.17 38.9878C184.356 38.4974 183.725 37.753 183.375 36.8691C183.025 35.9852 182.974 35.0107 183.232 34.0955L185.447 25.8801C185.73 24.8147 185.614 23.6828 185.121 22.697C184.628 21.7112 183.792 20.9392 182.77 20.5262C176.071 17.9131 168.997 16.3862 161.817 16.0031C160.732 15.9627 159.67 16.3133 158.822 16.9912C157.975 17.669 157.4 18.6288 157.201 19.6955L155.724 28.1878C155.562 29.0981 155.118 29.9347 154.456 30.5803C153.794 31.2258 152.946 31.6481 152.032 31.7878C148.478 32.2566 144.983 33.0918 141.601 34.2801C140.699 34.6025 139.717 34.6239 138.801 34.341C137.886 34.0581 137.087 33.4861 136.524 32.7108ZM170.032 49.9724C208.432 69.5416 190.709 121.603 148.34 113.757L147.047 113.295C108.74 93.7262 126.463 41.6647 168.74 49.5108L170.032 49.9724Z" fill="#E1E8F0"/>
</g>
<g style="mix-blend-mode:multiply">
<path d="M35.2632 93.9166L31.3863 88.4705C30.8655 87.7497 30.0964 87.2471 29.2272 87.0597C28.358 86.8722 27.4501 87.013 26.6786 87.4551C21.6781 90.2909 17.1857 93.941 13.3863 98.2551C12.8142 98.9239 12.4999 99.775 12.4999 100.655C12.4999 101.535 12.8142 102.386 13.3863 103.055L18.0016 108.04C18.514 108.591 18.8355 109.292 18.9186 110.04C19.0017 110.788 18.842 111.543 18.4632 112.194C17.0552 114.502 15.8802 116.945 14.9555 119.486C14.7045 120.12 14.274 120.668 13.7165 121.061C13.1591 121.455 12.4989 121.677 11.817 121.701L4.06319 121.978C3.24525 122.032 2.47008 122.363 1.86583 122.917C1.26159 123.471 0.864467 124.214 0.740112 125.024C-0.198573 130.866 -0.167387 136.823 0.832419 142.655C0.985376 143.494 1.43121 144.252 2.0905 144.792C2.74979 145.333 3.57972 145.623 4.43242 145.609L11.5401 145.332C12.2844 145.28 13.0258 145.467 13.6566 145.866C14.2874 146.264 14.7747 146.853 15.0478 147.547C15.4751 148.847 15.9997 150.112 16.617 151.332C17.1709 152.44 17.817 153.64 18.4632 154.655C18.8245 155.267 18.9914 155.974 18.942 156.683C18.8925 157.392 18.629 158.069 18.1863 158.624L13.6632 164.532C13.1802 165.214 12.9363 166.036 12.9697 166.871C13.0031 167.706 13.3119 168.506 13.8478 169.147C17.8232 173.5 22.5042 177.151 27.694 179.947C28.4505 180.355 29.3253 180.485 30.1678 180.317C31.0102 180.148 31.7676 179.691 32.3093 179.024L36.6478 173.209C37.09 172.632 37.7005 172.206 38.3951 171.991C39.0896 171.776 39.8338 171.782 40.5247 172.009C43.2316 172.858 46.0135 173.445 48.8324 173.763C49.6153 173.819 50.3548 174.144 50.9264 174.682C51.498 175.22 51.8669 175.939 51.9709 176.717L52.9863 183.27C53.1236 184.169 53.6046 184.98 54.3279 185.531C55.0511 186.082 55.9601 186.33 56.8632 186.224C62.6836 185.839 68.3959 184.465 73.7555 182.163C74.5146 181.843 75.145 181.279 75.5464 180.559C75.9478 179.84 76.0972 179.007 75.9709 178.194L74.5863 170.347C74.4472 169.691 74.5043 169.009 74.7506 168.385C74.9968 167.761 75.4212 167.224 75.9709 166.84C78.1027 165.381 80.082 163.711 81.8786 161.855C82.4258 161.307 83.1392 160.955 83.9073 160.855C84.6754 160.755 85.4551 160.912 86.1247 161.301L91.9401 164.532C92.7268 164.945 93.6359 165.06 94.5005 164.856C95.3652 164.653 96.1276 164.144 96.6478 163.424C99.9553 158.568 102.449 153.206 104.032 147.547C104.249 146.748 104.184 145.899 103.848 145.142C103.512 144.386 102.925 143.768 102.186 143.394L95.3555 140.07C94.7114 139.781 94.1763 139.294 93.8278 138.68C93.4792 138.066 93.3353 137.356 93.417 136.655C93.5863 134.039 93.5245 131.414 93.2324 128.809C93.1533 128.061 93.3169 127.306 93.6992 126.658C94.0816 126.01 94.6622 125.502 95.3555 125.209L101.725 122.347C102.533 121.999 103.181 121.36 103.54 120.556C103.9 119.753 103.943 118.843 103.663 118.009C102.794 115.296 101.745 112.644 100.525 110.07C99.2162 107.434 97.7039 104.903 96.0016 102.501C95.4972 101.787 94.7443 101.287 93.8906 101.1C93.0369 100.912 92.1438 101.05 91.3863 101.486L85.2939 104.809C84.6342 105.176 83.8736 105.32 83.1252 105.22C82.3769 105.121 81.6807 104.782 81.1401 104.255C79.1058 102.246 76.8444 100.48 74.4016 98.9935C73.7689 98.5912 73.2776 98.0014 72.9963 97.3063C72.7149 96.6113 72.6577 95.8458 72.8324 95.1166L74.6786 88.4705C74.9162 87.6137 74.8196 86.6987 74.4083 85.9104C73.9971 85.1222 73.3018 84.5195 72.4632 84.2243C67.0741 82.072 61.3665 80.8245 55.5709 80.532C54.7071 80.5146 53.8645 80.8006 53.1899 81.3403C52.5152 81.8801 52.0512 82.6393 51.8786 83.4858L50.6786 90.3166C50.5545 91.055 50.2033 91.7364 49.6739 92.2658C49.1445 92.7952 48.4631 93.1464 47.7247 93.2705C44.8572 93.6292 42.0394 94.3104 39.3247 95.3012C38.59 95.5526 37.7926 95.553 37.0575 95.3024C36.3225 95.0519 35.6914 94.5644 35.2632 93.9166ZM62.217 107.947C93.1401 123.64 78.8324 165.64 44.7709 159.27L43.6632 158.901C12.8324 143.209 27.1401 101.209 61.2016 107.578C61.5683 107.603 61.9204 107.731 62.217 107.947Z" fill="#E1E8F0"/>
</g>
</g>
<path d="M113.17 353.184L441.323 352.538L404.585 134.046C403.889 129.97 401.775 126.271 398.616 123.603C395.458 120.934 391.458 119.467 387.323 119.461L94.5235 120.015C91.9895 120.034 89.4899 120.602 87.1966 121.68C84.9033 122.758 82.8708 124.321 81.2391 126.259C79.6074 128.198 78.4152 130.467 77.7445 132.911C77.0739 135.355 76.9407 137.915 77.3542 140.415L113.17 353.184Z" fill="#E1E8F0"/>
<path d="M77.6312 142.538L77.3542 140.415C76.9407 137.915 77.0739 135.355 77.7445 132.911C78.4152 130.467 79.6074 128.198 81.2391 126.259C82.8708 124.321 84.9033 122.758 87.1966 121.68C89.4899 120.602 91.9895 120.034 94.5235 120.015L387.324 119.461C391.458 119.467 395.458 120.934 398.616 123.603C401.775 126.271 403.889 129.97 404.585 134.046L406.062 142.999C406.893 141.615 77.6312 142.538 77.6312 142.538Z" fill="#2892FF"/>
<path d="M104.677 129.808C102.554 128.054 99.785 128.054 98.4927 129.808C97.2004 131.561 98.0312 134.238 100.154 135.9C102.277 137.561 105.047 137.654 106.339 135.9C107.631 134.146 106.8 131.469 104.677 129.808Z" fill="white"/>
<path d="M118.892 129.808C116.769 128.054 114 128.054 112.708 129.808C111.415 131.561 112.246 134.238 114.369 135.9C116.492 137.561 119.261 137.654 120.554 135.9C121.846 134.146 121.015 131.469 118.892 129.808Z" fill="#FFB701"/>
<path d="M133.201 129.808C131.078 128.054 128.308 128.054 127.016 129.808C125.724 131.561 126.555 134.238 128.678 135.9C130.801 137.561 133.57 137.654 134.862 135.9C136.155 134.146 135.324 131.469 133.201 129.808Z" fill="#150DCE"/>
<path d="M376.642 300.466C378.22 298.663 377.602 295.541 375.263 293.493C372.923 291.444 369.747 291.245 368.168 293.048C366.59 294.851 367.207 297.973 369.547 300.021C371.887 302.07 375.063 302.269 376.642 300.466Z" fill="#2892FF"/>
<g style="mix-blend-mode:multiply">
<path d="M378 280.003C379.477 285.357 385.016 289.696 390.369 289.696C395.723 289.696 398.954 285.357 397.569 280.003C396.185 274.65 390.554 270.219 385.2 270.219C379.846 270.219 376.616 274.65 378 280.003Z" fill="#2892FF"/>
</g>
<path d="M381.324 285.911L375.601 284.065C375.047 283.88 374.863 283.142 375.324 282.957L386.032 279.357C386.136 279.344 386.242 279.354 386.343 279.385C386.443 279.416 386.536 279.468 386.615 279.538C386.693 279.608 386.756 279.694 386.799 279.79C386.842 279.886 386.863 279.991 386.863 280.096L386.032 291.727C386.032 292.28 385.293 292.28 385.016 291.727L381.786 286.188C381.667 286.047 381.504 285.95 381.324 285.911Z" fill="#00007E"/>
<path d="M137.076 193.228C132.922 189.997 127.568 189.997 125.168 193.228C122.768 196.459 124.245 201.812 128.399 205.135C132.553 208.459 137.814 208.366 140.214 205.135C142.614 201.905 141.23 196.551 137.076 193.228Z" fill="#66C3CD"/>
<path d="M151.293 199.516H329.816" stroke="#00007E" stroke-width="1.13" stroke-miterlimit="10"/>
<path d="M155.521 276.652C158.174 273.622 157.091 268.334 153.101 264.842C149.112 261.35 143.728 260.975 141.075 264.005C138.422 267.036 139.505 272.323 143.495 275.816C147.484 279.308 152.868 279.682 155.521 276.652Z" fill="#66C3CD"/>
<path d="M166.984 270.586H345.507" stroke="#00007E" stroke-width="1.13" stroke-miterlimit="10"/>
<path d="M338.758 113.513C345.275 113.513 350.558 108.23 350.558 101.713C350.558 95.1968 345.275 89.9141 338.758 89.9141C332.242 89.9141 326.959 95.1968 326.959 101.713C326.959 108.23 332.242 113.513 338.758 113.513Z" fill="#150DCE" stroke="#150DCE" stroke-width="2.43" stroke-miterlimit="10"/>
<path d="M316.427 141.301L346.267 91.6657C347.924 87.57 343.146 75.1856 340.026 71.9675C331.347 63.2886 318.962 58.9004 306.773 58.0228C299.947 57.5352 286.977 64.9464 283.174 73.4303C279.371 81.9141 276.348 92.1533 264.548 96.7365C239.487 106.586 244.558 134.085 244.558 134.085" fill="#2D2F3D"/>
<path d="M301.312 94.3025C301.29 94.4426 301.239 94.5763 301.161 94.6944C301.082 94.8126 300.979 94.9122 300.859 94.9865C300.738 95.0607 300.603 95.1078 300.462 95.1244C300.321 95.141 300.179 95.1267 300.044 95.0826C297.704 94.4 292.34 92.3522 289.805 98.3982C287.269 104.444 292.243 109.612 295.753 110.88C296.826 111.173 299.166 112.05 299.654 113.026C301.117 116.049 296.923 139.55 292.828 147.449C292.535 162.661 315.256 183.529 315.256 183.529C315.256 183.529 321.302 175.046 326.081 156.615C326.081 156.615 327.543 123.46 327.738 123.362C331.444 121.314 346.169 122.387 345.876 96.4478C345.584 72.3615 328.811 69.3385 324.423 68.9484C320.035 68.5584 308.43 65.9254 301.312 94.3025Z" fill="#FFB4A5"/>
<path d="M336.517 69.9257C336.517 69.9257 322.669 101.911 300.631 95.0847C300.631 95.0847 295.365 53.9331 336.517 69.9257Z" fill="#2D2F3D"/>
<path d="M292.047 100.926C292.047 100.926 297.898 94.0995 299.751 105.996L292.047 100.926Z" fill="#FF8164"/>
<path d="M321.986 100.156C322.724 100.338 323.419 100.665 324.031 101.118C324.642 101.57 325.157 102.139 325.547 102.792C325.937 103.445 326.194 104.169 326.302 104.921C326.411 105.674 326.369 106.441 326.179 107.177C325.767 108.662 324.795 109.929 323.467 110.711C322.139 111.494 320.559 111.73 319.061 111.37C318.322 111.188 317.627 110.862 317.016 110.409C316.405 109.957 315.889 109.388 315.499 108.735C315.109 108.082 314.853 107.358 314.744 106.605C314.636 105.853 314.678 105.086 314.867 104.349C315.28 102.864 316.252 101.597 317.58 100.815C318.908 100.033 320.487 99.7968 321.986 100.156Z" fill="#FF9E87"/>
<path d="M344.608 108.727C343.555 108.209 342.686 107.383 342.117 106.358C341.547 105.333 341.304 104.158 341.421 102.991C341.538 101.824 342.008 100.721 342.769 99.8289C343.531 98.9369 344.546 98.2988 345.68 98C345.68 98 346.265 104.826 344.608 108.727Z" fill="#FF9E87"/>
<path d="M340.707 104.547L331.053 106.4C331.053 106.4 334.368 110.593 337.099 109.618C339.829 108.643 340.707 104.547 340.707 104.547Z" fill="white"/>
<path d="M335.929 96.5469L335.637 103.08L338.952 102.593C339.09 102.557 339.218 102.487 339.323 102.391C339.428 102.294 339.508 102.174 339.557 102.039C339.605 101.904 339.619 101.76 339.599 101.619C339.578 101.477 339.524 101.343 339.44 101.228L335.929 96.5469Z" fill="#FF8164"/>
<path d="M325.688 91.2787C324.615 92.0588 326.078 88.5482 327.54 88.0606C328.187 87.804 328.909 87.8138 329.549 88.0879C330.188 88.362 330.693 88.8781 330.953 89.5234C329.041 89.4338 327.164 90.0596 325.688 91.2787Z" fill="#2D2F3D"/>
<path d="M343.437 89.7251C344.51 90.4077 342.657 87.0922 341.195 86.7996C340.522 86.6206 339.806 86.7149 339.203 87.0621C338.6 87.4093 338.159 87.981 337.977 88.6524C339.866 88.3532 341.801 88.7333 343.437 89.7251Z" fill="#2D2F3D"/>
<path d="M329.298 97.1413C329.493 98.214 329.98 99.0916 330.565 98.9941C331.151 98.8966 331.443 98.0189 331.346 96.8488C331.248 95.6786 330.663 94.8984 330.078 94.8984C329.493 94.8984 329.2 95.9711 329.298 97.1413Z" fill="#2D2F3D"/>
<path d="M338.268 95.5709C338.366 96.6435 338.951 97.4237 339.438 97.4237C339.926 97.4237 340.316 96.4485 340.121 95.3758C339.926 94.3032 339.536 93.4255 338.951 93.523C338.366 93.6206 338.171 94.4982 338.268 95.5709Z" fill="#2D2F3D"/>
<path d="M328.713 122.866C325.191 123.459 321.578 123.192 318.182 122.086C313.013 120.233 323.252 133.592 328.713 122.866Z" fill="#FF8164"/>
<path d="M312.233 64.0624C314.478 62.4536 316.941 61.1731 319.547 60.2593C317.079 59.5576 314.572 59.004 312.038 58.6016L310.673 59.0891C298.581 63.8674 290.195 80.5426 293.218 93.2196C294.68 93.2196 297.996 93.8047 299.361 93.6097C299.556 82.883 303.457 70.4985 312.233 64.0624Z" fill="#150DCE"/>
<path d="M305.689 109.065C308.204 103.053 305.369 96.1412 299.358 93.6264C293.346 91.1116 286.433 93.9465 283.919 99.9584C281.404 105.97 284.239 112.882 290.251 115.397C296.262 117.912 303.175 115.077 305.689 109.065Z" fill="#150DCE" stroke="#150DCE" stroke-width="2.43" stroke-miterlimit="10"/>
<path d="M301.117 105.883L307.846 113.099C309.107 114.483 310.7 115.522 312.475 116.119C314.249 116.716 316.146 116.852 317.987 116.512L336.418 113.099" stroke="#150DCE" stroke-width="1.13" stroke-miterlimit="10"/>
<path d="M336.477 110.869L333.228 111.532C332.278 111.726 331.665 112.653 331.859 113.603L331.949 114.043C332.142 114.993 333.07 115.606 334.02 115.412L337.269 114.749C338.219 114.555 338.832 113.627 338.638 112.677L338.548 112.238C338.355 111.288 337.427 110.675 336.477 110.869Z" fill="#150DCE"/>
<path d="M294.682 112.235C298.991 112.235 302.483 108.743 302.483 104.434C302.483 100.126 298.991 96.6328 294.682 96.6328C290.374 96.6328 286.881 100.126 286.881 104.434C286.881 108.743 290.374 112.235 294.682 112.235Z" stroke="#000400" stroke-width="1.13" stroke-miterlimit="10"/>
<path d="M296.438 372.023C298.193 364.904 299.461 359.346 300.338 355.738C301.216 352.13 309.31 351.837 308.627 356.908C307.945 361.979 307.847 365.782 307.554 372.023H366.259C362.456 320.729 354.069 274.8 337.882 247.983C316.233 245.057 289.807 248.958 267.866 249.543C256.944 268.851 251.19 282.991 244.949 307.565C242.902 315.464 237.831 339.843 231.492 372.023H296.438Z" fill="#2D2F3D"/>
<g style="mix-blend-mode:multiply" opacity="0.21">
<path d="M337.587 257.738L239.486 329.314C239.486 329.314 247.093 287.09 262.89 257.445L337.587 257.738Z" fill="black"/>
</g>
<path d="M440.174 207.318C440.174 207.318 421.061 224.968 390.246 247.494H390.051C388.1 247.787 380.787 251.59 379.226 251.493C379.226 251.493 360.113 258.904 346.851 215.119C344.901 211.121 317.206 163.826 316.719 163.241C316.231 162.656 320.034 153.392 320.327 153.197C337.782 138.179 356.7 198.444 373.863 218.922C374.223 219.321 374.696 219.6 375.219 219.722C375.742 219.844 376.29 219.803 376.789 219.605L381.762 217.265L399.802 208.488L431.397 187.912C431.397 187.912 433.835 176.991 434.713 175.723C435.591 174.455 442.807 175.04 442.807 175.04C442.807 175.04 462.7 158.17 462.7 162.266C462.7 164.704 451.973 176.893 451.973 176.893C451.973 176.893 457.434 183.622 457.824 188.01C458.214 192.398 440.174 207.318 440.174 207.318Z" fill="#FF9E87"/>
<g style="mix-blend-mode:multiply">
<path d="M434.518 176.203L441.051 176.008H445.829C446.45 176.034 447.069 176.1 447.682 176.203C448.043 176.418 448.345 176.72 448.56 177.08C448.671 177.395 448.736 177.723 448.755 178.056C448.733 178.392 448.643 178.72 448.493 179.022C448.342 179.323 448.133 179.591 447.877 179.811C446.98 180.578 445.909 181.114 444.757 181.371C442.709 181.956 440.564 182.444 438.516 182.834C440.466 181.956 442.514 181.274 444.464 180.494C445.454 180.3 446.368 179.826 447.097 179.128C447.384 178.829 447.586 178.459 447.682 178.056C447.694 177.891 447.653 177.726 447.566 177.586C447.478 177.446 447.348 177.337 447.195 177.276L445.829 177.08H444.172L440.954 176.885L434.518 176.203Z" fill="#D18478"/>
<path d="M451.097 176.789C450.414 177.569 449.829 178.154 449.244 178.934L447.586 181.08C446.562 182.571 445.65 184.135 444.856 185.761L444.661 185.078C445.026 185.213 445.416 185.266 445.804 185.232C446.192 185.198 446.567 185.079 446.904 184.883C447.693 184.5 448.444 184.043 449.146 183.518L451.584 181.957L454.022 180.495L451.877 182.347L449.732 184.2C448.999 184.862 448.179 185.42 447.294 185.858L445.831 186.346C445.223 186.358 444.621 186.224 444.076 185.956L443.686 185.761L443.881 185.273C444.715 183.608 445.729 182.038 446.904 180.592C447.504 179.864 448.156 179.18 448.854 178.544L451.097 176.789Z" fill="#D18478"/>
<path d="M447.389 185.56C447.233 186.098 447.167 186.658 447.194 187.218C447.22 187.424 447.295 187.62 447.414 187.79C447.533 187.96 447.692 188.099 447.877 188.193C448.169 188.388 448.56 188.193 449.047 187.9L450.412 187.12L453.24 185.462L456.068 183.805C454.66 185.538 452.94 186.993 450.997 188.095L449.437 188.876L448.56 189.168C448.19 189.244 447.806 189.174 447.487 188.973C447.191 188.798 446.957 188.534 446.817 188.22C446.677 187.905 446.638 187.555 446.707 187.218C446.773 186.612 447.009 186.037 447.389 185.56Z" fill="#D18478"/>
<path d="M456.752 187.906C456.658 188.239 456.497 188.549 456.279 188.817C456.061 189.086 455.79 189.307 455.484 189.466C454.871 189.865 454.166 190.1 453.436 190.149C452.708 190.246 451.967 190.145 451.291 189.857C450.645 189.569 450.101 189.093 449.73 188.491C450.309 188.777 450.939 188.943 451.583 188.979C452.159 189.108 452.752 189.141 453.339 189.076C453.941 189.041 454.533 188.909 455.094 188.686C455.696 188.549 456.262 188.283 456.752 187.906Z" fill="#D18478"/>
</g>
<path d="M318.182 152.901C321.037 150.509 324.579 149.088 328.295 148.843C332.012 148.597 335.71 149.541 338.855 151.536C350.459 158.362 372.108 205.364 378.836 214.726L406.433 197.758C406.433 197.758 421.353 221.259 427.009 225.745C427.009 225.745 384.687 263.776 368.89 256.56C353.092 249.344 318.182 152.901 318.182 152.901Z" fill="#66C3CD"/>
<g style="mix-blend-mode:multiply" opacity="0.93">
<path d="M352.41 198.247C346.851 180.987 336.905 165.872 324.618 152.707C323.89 151.948 323.384 151.003 323.155 149.977C321.334 150.642 319.648 151.633 318.182 152.902C318.182 152.902 341.098 215.897 358.163 243.884C358.553 228.477 357.188 213.069 352.41 198.247Z" fill="black" fill-opacity="0.1"/>
</g>
<path d="M326.568 146.854C325.886 148.414 350.167 194.636 349.485 209.654C348.802 224.671 346.072 252.073 346.852 254.414C346.852 254.414 327.446 261.727 262.891 251.488C263.378 238.421 267.084 156.313 267.084 156.313C267.084 156.313 288.245 143.343 293.706 142.953C293.706 142.953 297.606 148.121 303.262 149.584C307.215 150.618 311.271 151.207 315.354 151.339C322.278 151.535 323.643 150.559 326.568 146.854Z" fill="#66C3CD"/>
<g style="mix-blend-mode:multiply">
<path d="M310.186 246.801C265.329 225.25 276.25 178.15 269.327 155.039L267.084 156.307C267.084 156.307 263.378 238.415 262.891 251.482C308.138 258.601 331.249 257.138 341.001 255.675C336.32 253.335 314.964 249.142 310.186 246.801Z" fill="black" fill-opacity="0.1"/>
</g>
<path d="M279.859 154.671C267.377 144.432 237.928 182.463 237.928 182.463L213.159 211.62L172.202 175.832C171.577 171.606 170.632 167.433 169.374 163.35C168.106 160.327 168.594 155.549 168.887 153.111C168.921 152.935 168.906 152.752 168.844 152.584C168.781 152.416 168.673 152.268 168.532 152.157C168.391 152.046 168.222 151.976 168.043 151.955C167.865 151.934 167.684 151.963 167.521 152.038C166.72 152.369 166.029 152.92 165.529 153.628C165.028 154.336 164.738 155.171 164.693 156.036C164.401 158.669 163.133 162.472 163.036 164.52C163.03 164.633 162.998 164.742 162.94 164.839C162.882 164.935 162.801 165.016 162.705 165.074C162.608 165.132 162.499 165.165 162.387 165.171C162.274 165.176 162.162 165.154 162.06 165.105C160.013 164.228 159.038 163.058 156.21 160.717C153.87 158.548 151.777 156.128 149.969 153.501C147.336 149.503 143.63 143.944 142.46 145.895C141.29 147.845 146.263 155.646 147.141 156.817C148.673 159.226 149.979 161.772 151.041 164.423C151.236 165.203 145.093 159.352 142.46 155.744C139.827 152.136 137.291 148.333 135.926 148.43C134.561 148.528 136.511 152.331 136.511 152.331C136.511 152.331 133.781 150.088 133.098 151.063C132.416 152.038 135.439 157.597 137.487 161.497C133.683 158.767 133.683 160.815 133.683 160.815C133.683 160.815 139.534 170.079 142.265 171.834C144.995 173.589 147.433 177.002 147.921 177.782C148.408 178.563 155.917 186.169 163.231 189.777C169.472 198.066 218.62 263.694 224.763 258.135C270.4 216.594 297.705 169.104 279.859 154.671Z" fill="#FF9E87"/>
<g style="mix-blend-mode:multiply">
<path d="M137.389 161.109L139.534 163.255L141.777 165.01L144.312 166.57C145.155 167.142 145.938 167.795 146.653 168.521H145.58L148.213 166.473L151.138 164.717C150.532 165.679 149.812 166.563 148.993 167.35C148.29 168.233 147.506 169.049 146.653 169.788L146.165 170.276L145.58 169.788L143.24 168.033L140.802 166.18C140.019 165.494 139.33 164.707 138.754 163.84C138.203 162.981 137.745 162.066 137.389 161.109Z" fill="#D18478"/>
<path d="M163.429 166.188C163.624 167.163 163.721 167.943 163.819 168.82C163.932 169.661 163.997 170.508 164.014 171.356L164.404 176.427C163.661 175.821 163.117 175.005 162.844 174.086C162.192 172.375 162.056 170.51 162.453 168.723C162.632 167.828 162.961 166.971 163.429 166.188Z" fill="#D18478"/>
<path d="M136.707 152.82L139.34 156.233L142.168 159.354L145.093 162.572C146.101 163.652 146.954 164.866 147.629 166.18L144.118 163.547C142.977 162.615 141.902 161.605 140.9 160.524C139.885 159.464 139.001 158.285 138.267 157.013C137.463 155.738 136.932 154.311 136.707 152.82Z" fill="#D18478"/>
</g>
<path d="M279.859 154.664C267.377 144.425 237.927 182.456 237.927 182.456L213.158 211.613L190.924 192.208C186.926 198.351 177.37 210.053 173.664 216.392C190.632 238.04 220.569 261.932 224.762 258.128C270.4 216.587 297.704 169.097 279.859 154.664Z" fill="#66C3CD"/>
<path opacity="0.51" d="M493 145.037L523.729 118.06H556.943C580.472 118.06 599.64 101.225 599.64 80.5362V72.4228C599.64 51.7338 580.472 35 556.943 35H535.595C512.066 35 493 51.7338 493 72.4228V145.037Z" fill="#E1E8F0"/>
<path d="M570.789 58.625H523.225V93.7152H570.789V58.625Z" fill="#FFB701"/>
<path d="M523.225 58.0233L543.711 78.5095C544.586 79.3827 545.771 79.8732 547.007 79.8732C548.243 79.8732 549.428 79.3827 550.303 78.5095L570.891 57.9219L523.225 58.0233Z" fill="#FFE25E"/>
<path opacity="0.73" d="M566.933 86.4123H554.763C554.683 86.4123 554.604 86.3966 554.53 86.366C554.456 86.3354 554.389 86.2906 554.333 86.2341C554.276 86.1776 554.231 86.1105 554.201 86.0367C554.17 85.9628 554.154 85.8837 554.154 85.8038C554.154 85.7239 554.17 85.6448 554.201 85.5709C554.231 85.4971 554.276 85.43 554.333 85.3735C554.389 85.317 554.456 85.2722 554.53 85.2416C554.604 85.211 554.683 85.1953 554.763 85.1953H566.933C567.237 85.1953 567.44 85.3981 567.44 85.8038C567.442 85.9491 567.392 86.0903 567.299 86.2019C567.206 86.3135 567.076 86.3881 566.933 86.4123Z" fill="white"/>
<path d="M539.452 82.9724H527.383C526.978 82.9724 526.775 82.7696 526.775 82.4653C526.755 82.3815 526.758 82.294 526.781 82.2113C526.805 82.1285 526.849 82.0531 526.91 81.9923C526.971 81.9314 527.046 81.887 527.129 81.8633C527.212 81.8396 527.299 81.8374 527.383 81.8568H539.452C539.613 81.8568 539.768 81.921 539.882 82.0351C539.996 82.1492 540.06 82.304 540.06 82.4653C540.036 82.6086 539.962 82.7384 539.85 82.8314C539.738 82.9244 539.597 82.9745 539.452 82.9724Z" fill="white"/>
<path d="M539.452 86.1131H527.383C526.978 86.1131 526.775 85.9102 526.775 85.606C526.755 85.5221 526.758 85.4347 526.781 85.3519C526.805 85.2691 526.849 85.1938 526.91 85.1329C526.971 85.072 527.046 85.0276 527.129 85.004C527.212 84.9803 527.299 84.978 527.383 84.9975H539.452C539.613 84.9975 539.768 85.0616 539.882 85.1757C539.996 85.2898 540.06 85.4446 540.06 85.606C540.036 85.7492 539.962 85.8791 539.85 85.9721C539.738 86.0651 539.597 86.1151 539.452 86.1131Z" fill="white"/>
<path d="M164.835 97.5322C164.835 91.8878 162.663 86.4746 158.797 82.4834C154.93 78.4922 149.686 76.25 144.218 76.25C138.751 76.25 133.507 78.4922 129.64 82.4834C125.774 86.4746 123.602 91.8878 123.602 97.5322C123.602 109.381 143.215 127.787 143.215 127.787C143.215 127.787 164.835 109.381 164.835 97.5322Z" fill="#FFB701"/>
<path opacity="0.55" d="M130.288 81.8755C129.407 84.1834 128.953 86.6419 128.951 89.1229C128.951 98.0959 135.303 107.989 144.219 109.83C153.134 111.671 162.161 105.573 164.724 97.0606C164.639 92.9829 163.414 89.0176 161.197 85.6415C158.98 82.2655 155.865 79.6225 152.227 78.0306C148.59 76.4386 144.584 75.9654 140.692 76.6679C136.8 77.3704 133.187 79.2187 130.288 81.9905V81.8755Z" fill="#FFE25E"/>
<path d="M140.762 122.383L136.75 121.117C140.316 125.144 143.214 127.789 143.214 127.789C143.214 127.789 145.331 125.949 148.229 123.073C145.721 123.191 143.209 122.959 140.762 122.383Z" fill="#FFE25E"/>
<path d="M138.205 118.131C138.205 118.131 140.879 95.8138 137.87 97.1943C134.861 98.5748 133.19 102.026 136.533 102.716C139.876 103.406 153.138 102.716 153.138 102.716C153.138 102.716 154.364 98.8049 152.135 97.8846C149.906 96.9642 148.792 109.619 148.234 118.822" stroke="white" stroke-width="0.49" stroke-miterlimit="10"/>
<path d="M151.465 122.957H134.86C134.239 122.957 133.644 122.702 133.205 122.249C132.766 121.796 132.52 121.182 132.52 120.541C132.547 119.909 132.802 119.311 133.235 118.864C133.668 118.417 134.248 118.153 134.86 118.125H151.465C152.086 118.125 152.681 118.38 153.12 118.833C153.559 119.286 153.805 119.9 153.805 120.541C153.805 121.182 153.559 121.796 153.12 122.249C152.681 122.702 152.086 122.957 151.465 122.957Z" fill="#E1E8F0"/>
<path d="M143.553 134C140.982 134 138.515 132.945 136.697 131.068C134.879 129.191 133.857 126.646 133.857 123.991V122.266H153.137V123.991C153.152 125.3 152.915 126.599 152.44 127.813C151.965 129.026 151.261 130.13 150.37 131.061C149.478 131.992 148.417 132.731 147.247 133.236C146.076 133.74 144.821 134 143.553 134Z" fill="#E1E8F0"/>
<g style="mix-blend-mode:multiply">
<path d="M147.564 133.079C149.242 132.281 150.662 130.998 151.65 129.385C152.639 127.773 153.155 125.899 153.136 123.991V122.266H135.193L147.564 133.079Z" fill="#E1E8F0"/>
</g>
<path d="M107 97.6406H116.361" stroke="#FFB701" stroke-width="1.26" stroke-miterlimit="10" stroke-linecap="round"/>
<path d="M172.527 97.6406H182" stroke="#FFB701" stroke-width="1.26" stroke-miterlimit="10" stroke-linecap="round"/>
<path d="M117.92 70.3906L124.606 77.1779" stroke="#FFB701" stroke-width="1.26" stroke-miterlimit="10" stroke-linecap="round"/>
<path d="M144.445 59V68.6633" stroke="#FFB701" stroke-width="1.26" stroke-miterlimit="10" stroke-linecap="round"/>
<path d="M170.97 70.3906L164.395 77.1779" stroke="#FFB701" stroke-width="1.26" stroke-miterlimit="10" stroke-linecap="round"/>
<path d="M400.539 73.8156L409.032 65.3233H441.155C442.714 65.3234 444.258 65.0147 445.698 64.4152C447.137 63.8156 448.444 62.9371 449.542 61.8301C450.641 60.7231 451.509 59.4097 452.097 57.9655C452.686 56.5214 452.982 54.975 452.97 53.4156V50.9233C452.982 49.364 452.686 47.8176 452.097 46.3734C451.509 44.9292 450.641 43.6158 449.542 42.5088C448.444 41.4019 447.137 40.5233 445.698 39.9238C444.258 39.3242 442.714 39.0156 441.155 39.0156H412.355C410.795 39.0156 409.251 39.3242 407.812 39.9238C406.372 40.5233 405.066 41.4019 403.967 42.5088C402.869 43.6158 402.001 44.9292 401.412 46.3734C400.824 47.8176 400.527 49.364 400.539 50.9233V73.8156Z" fill="#8BC0D4"/>
<path d="M435.895 51.8523C435.895 52.6357 436.206 53.387 436.76 53.941C437.314 54.4949 438.065 54.8061 438.848 54.8061C439.632 54.8061 440.383 54.4949 440.937 53.941C441.491 53.387 441.802 52.6357 441.802 51.8523C441.802 51.0689 441.491 50.3176 440.937 49.7636C440.383 49.2097 439.632 48.8984 438.848 48.8984C438.065 48.8984 437.314 49.2097 436.76 49.7636C436.206 50.3176 435.895 51.0689 435.895 51.8523Z" fill="white"/>
<path d="M425.094 51.8523C425.094 52.4365 425.267 53.0076 425.592 53.4934C425.916 53.9791 426.377 54.3577 426.917 54.5813C427.457 54.8049 428.051 54.8634 428.624 54.7494C429.197 54.6354 429.723 54.3541 430.136 53.941C430.549 53.5279 430.831 53.0015 430.945 52.4286C431.059 51.8556 431 51.2616 430.777 50.7219C430.553 50.1822 430.174 49.7208 429.689 49.3963C429.203 49.0717 428.632 48.8984 428.048 48.8984C427.264 48.8984 426.513 49.2097 425.959 49.7636C425.405 50.3176 425.094 51.0689 425.094 51.8523Z" fill="white"/>
<path d="M414.293 51.8523C414.293 52.6357 414.604 53.387 415.158 53.941C415.712 54.4949 416.463 54.8061 417.247 54.8061C418.03 54.8061 418.782 54.4949 419.335 53.941C419.889 53.387 420.201 52.6357 420.201 51.8523C420.201 51.0689 419.889 50.3176 419.335 49.7636C418.782 49.2097 418.03 48.8984 417.247 48.8984C416.463 48.8984 415.712 49.2097 415.158 49.7636C414.604 50.3176 414.293 51.0689 414.293 51.8523Z" fill="white"/>
<path d="M393.431 38.7077L384.938 30.2154H352.815C349.682 30.2154 346.676 28.9706 344.461 26.7547C342.245 24.5389 341 21.5336 341 18.4V15.8154C341 12.6818 342.245 9.67646 344.461 7.46064C346.676 5.24483 349.682 4 352.815 4H381.615C384.749 4 387.754 5.24483 389.97 7.46064C392.186 9.67646 393.431 12.6818 393.431 15.8154V38.7077Z" fill="#FFB701"/>
<path d="M357.986 16.7429C357.986 17.5263 357.675 18.2776 357.121 18.8316C356.567 19.3856 355.815 19.6968 355.032 19.6968C354.249 19.6968 353.497 19.3856 352.943 18.8316C352.389 18.2776 352.078 17.5263 352.078 16.7429C352.101 15.9668 352.42 15.2289 352.969 14.6799C353.518 14.1309 354.256 13.8122 355.032 13.7891C355.815 13.7891 356.567 14.1003 357.121 14.6542C357.675 15.2082 357.986 15.9595 357.986 16.7429Z" fill="white"/>
<path d="M368.876 16.7429C368.876 17.5263 368.565 18.2776 368.011 18.8316C367.457 19.3856 366.706 19.6968 365.923 19.6968C365.139 19.6968 364.388 19.3856 363.834 18.8316C363.28 18.2776 362.969 17.5263 362.969 16.7429C362.969 15.9595 363.28 15.2082 363.834 14.6542C364.388 14.1003 365.139 13.7891 365.923 13.7891C366.699 13.8122 367.437 14.1309 367.986 14.6799C368.535 15.2289 368.853 15.9668 368.876 16.7429Z" fill="white"/>
<path d="M379.677 16.7429C379.677 17.5263 379.366 18.2776 378.812 18.8316C378.258 19.3856 377.507 19.6968 376.723 19.6968C375.94 19.6968 375.189 19.3856 374.635 18.8316C374.081 18.2776 373.77 17.5263 373.77 16.7429C373.77 15.9595 374.081 15.2082 374.635 14.6542C375.189 14.1003 375.94 13.7891 376.723 13.7891C377.507 13.7891 378.258 14.1003 378.812 14.6542C379.366 15.2082 379.677 15.9595 379.677 16.7429Z" fill="white"/>
<path d="M393.092 16.1846C396.457 16.1846 399.185 13.457 399.185 10.0923C399.185 6.72762 396.457 4 393.092 4C389.728 4 387 6.72762 387 10.0923C387 13.457 389.728 16.1846 393.092 16.1846Z" fill="#66C3CD"/>
</g>
<defs>
<clipPath id="clip0_1313_2878">
<rect width="600" height="352" fill="white"/>
</clipPath>
</defs>
</svg>
