<svg width="600" height="449" viewBox="0 0 600 449" fill="none" xmlns="http://www.w3.org/2000/svg">
<mask id="mask0_1911_4586" style="mask-type:alpha" maskUnits="userSpaceOnUse" x="0" y="0" width="600" height="447">
<rect width="600" height="447" fill="#D9D9D9"/>
</mask>
<g mask="url(#mask0_1911_4586)">
<path d="M521.814 241H78.6719C55.2246 241 36.2168 260.008 36.2168 283.455V404.9C36.2168 428.348 55.2246 447.356 78.6719 447.356H521.814C545.261 447.356 564.269 428.348 564.269 404.9V283.455C564.269 260.008 545.261 241 521.814 241Z" fill="#2892FF"/>
<path d="M73.5298 269.89C66.0145 263.693 45.9736 253.409 36.2168 258.683C42.4137 266.198 65.2234 277.405 75.112 271.077C74.4528 270.154 73.9254 270.549 73.5298 269.89Z" fill="#150DCE"/>
<path d="M67.8592 248.649C65.7497 240.87 57.3114 224.257 48.3457 223.07C48.7412 231.113 58.7617 249.704 68.3866 250.231C68.3866 249.308 67.8592 249.308 67.8592 248.649Z" fill="#150DCE"/>
<path d="M68.5196 248.128C68.6515 240.085 72.8706 222.022 81.3089 218.594C82.8911 226.505 77.6171 246.941 68.3878 249.842C68.1241 248.919 68.7833 248.787 68.5196 248.128Z" fill="#150DCE"/>
<path d="M66.2802 230.6C69.7083 223.216 73.9274 205.153 67.7306 198.297C62.8522 204.757 58.5012 225.458 65.621 232.05C66.2802 231.391 65.7528 230.995 66.2802 230.6Z" fill="#150DCE"/>
<path d="M75.7708 268.177C77.0893 258.552 85.0002 237.456 95.6799 234.688C96.2073 244.576 86.846 268.177 75.2434 270.155C75.1116 268.968 75.9026 268.968 75.7708 268.177Z" fill="#150DCE"/>
<path d="M82.3638 291.109C74.8485 284.912 54.8075 274.628 45.0508 279.902C51.2476 287.417 74.0574 298.624 83.946 292.295C83.2868 291.372 82.7594 291.768 82.3638 291.109Z" fill="#150DCE"/>
<path d="M82.763 289.653C84.0815 280.029 91.9924 258.933 102.672 256.164C103.199 266.053 93.8382 289.653 82.2356 291.631C82.1037 290.445 82.8948 290.445 82.763 289.653Z" fill="#150DCE"/>
<path d="M92.3872 310.632C84.7401 304.435 64.831 294.151 55.0742 299.293C61.1392 306.94 84.0808 318.147 93.9694 311.818C93.3102 310.895 92.7828 311.291 92.3872 310.632Z" fill="#150DCE"/>
<path d="M94.4951 308.903C95.9454 299.147 103.724 278.051 114.536 275.414C115.063 285.171 105.702 308.903 94.0996 310.881C93.9677 309.695 94.627 309.563 94.4951 308.903Z" fill="#150DCE"/>
<path d="M105.571 331.327C98.0555 325.13 78.0146 314.846 68.2578 319.988C74.4547 327.635 97.2644 338.842 107.153 332.514C106.494 331.591 105.966 331.986 105.571 331.327Z" fill="#150DCE"/>
<path d="M107.81 329.614C109.128 319.858 117.039 298.762 127.719 296.125C128.246 305.882 118.885 329.614 107.282 331.592C107.151 330.406 107.942 330.274 107.81 329.614Z" fill="#150DCE"/>
<path d="M126.399 359.671C118.884 353.474 98.8427 343.19 89.0859 348.332C95.2828 355.979 118.224 367.186 128.113 360.857C127.322 359.934 126.795 360.33 126.399 359.671Z" fill="#150DCE"/>
<path d="M128.64 357.974C129.958 348.349 137.869 327.253 148.549 324.484C149.208 334.241 139.715 357.974 128.244 359.952C128.112 358.765 128.771 358.765 128.64 357.974Z" fill="#150DCE"/>
<path d="M141.958 376.804C134.442 370.607 114.401 360.323 104.645 365.597C110.841 373.112 133.783 384.319 143.672 377.991C142.881 377.068 142.353 377.463 141.958 376.804Z" fill="#150DCE"/>
<path d="M144.202 375.091C145.521 365.466 153.432 344.37 164.111 341.602C164.77 351.49 155.409 375.091 143.807 377.069C143.675 375.882 144.334 375.882 144.202 375.091Z" fill="#150DCE"/>
<path d="M165.954 398.173L165.426 397.91C142.089 377.341 122.18 355.586 106.358 333.04C94.1734 316.052 84.1216 297.631 76.4289 278.191C71.4792 266.002 67.8545 253.316 65.6173 240.351C64.7725 235.651 64.3314 230.887 64.2988 226.111C64.2988 225.902 64.3822 225.7 64.5305 225.552C64.6789 225.404 64.8801 225.32 65.0899 225.32C65.2997 225.32 65.5009 225.404 65.6493 225.552C65.7977 225.7 65.881 225.902 65.881 226.111C65.9211 230.843 66.3621 235.562 67.1995 240.219C69.3854 253.095 72.9664 265.695 77.8792 277.796C85.5878 297.078 95.5925 315.361 107.677 332.249C124.69 356.005 144.426 377.688 166.481 396.855C166.572 396.905 166.649 396.976 166.707 397.062C166.765 397.148 166.801 397.246 166.814 397.349C166.827 397.452 166.816 397.556 166.781 397.653C166.746 397.751 166.688 397.838 166.613 397.91L165.954 398.173Z" fill="#150DCE"/>
<path d="M39.5845 351.244C30.5911 348.068 8.70418 345.337 1.50069 353.464C9.72406 358.296 34.4676 360.946 41.4382 351.804C40.522 351.177 40.1697 351.718 39.5845 351.244Z" fill="#150DCE"/>
<path d="M27.2384 333.608C22.686 327.161 9.3463 314.714 0.701172 316.633C3.76554 323.898 19.2247 337.633 28.2548 334.886C27.9449 334.037 27.4598 334.214 27.2384 333.608Z" fill="#150DCE"/>
<path d="M27.6707 332.905C25.0914 325.463 22.9071 307.431 29.5176 301.445C33.6292 308.19 35.6402 328.758 28.1249 334.525C27.5725 333.765 28.1346 333.422 27.6707 332.905Z" fill="#150DCE"/>
<path d="M19.7264 317.537C20.4003 309.595 18.216 291.563 10.2139 287.338C7.89607 294.918 10.8446 315.419 19.607 319.093C19.992 318.265 19.3741 318.078 19.7264 317.537Z" fill="#150DCE"/>
<path d="M41.0718 348.911C39.0527 339.615 39.2458 317.555 48.1394 311.422C51.9448 320.341 51.2589 345.192 41.2508 350.907C40.731 349.86 41.4587 349.594 41.0718 348.911Z" fill="#150DCE"/>
<path d="M54.8364 367.791C45.843 364.615 23.9561 361.884 16.7526 370.011C24.976 374.843 49.7196 377.493 56.6902 368.351C55.7739 367.724 55.4216 368.265 54.8364 367.791Z" fill="#150DCE"/>
<path d="M54.7144 366.325C52.6953 357.029 52.8884 334.969 61.782 328.836C65.5874 337.755 64.9014 362.606 54.8933 368.321C54.3736 367.274 55.1013 367.008 54.7144 366.325Z" fill="#150DCE"/>
<path d="M70.6118 382.386C61.4971 379.254 39.7315 376.48 32.4838 384.486C40.6301 389.483 65.495 392.088 72.4656 382.947C71.5493 382.319 71.197 382.86 70.6118 382.386Z" fill="#150DCE"/>
<path d="M71.9686 380.095C70.0265 370.633 70.0984 348.618 79.1575 342.562C82.9186 351.359 82.2769 376.332 72.2688 382.047C71.7491 380.999 72.3112 380.657 71.9686 380.095Z" fill="#150DCE"/>
<path d="M89.686 396.996C80.6926 393.819 58.8057 391.089 51.558 399.095C59.8256 404.048 84.5692 406.698 91.5398 397.556C90.6235 396.928 90.2712 397.469 89.686 396.996Z" fill="#150DCE"/>
<path d="M91.1694 394.669C89.1061 385.252 89.2992 363.191 98.2371 357.18C101.998 365.977 101.357 390.95 91.3484 396.665C90.8287 395.618 91.5121 395.231 91.1694 394.669Z" fill="#150DCE"/>
<path d="M118.362 416.074C109.368 412.897 87.4815 410.167 80.2338 418.173C88.5014 423.126 113.366 425.731 120.337 416.59C119.299 416.007 118.947 416.547 118.362 416.074Z" fill="#150DCE"/>
<path d="M119.853 413.759C117.834 404.463 118.027 382.403 126.921 376.27C130.803 385.023 130.04 410.04 120.154 415.711C119.634 414.664 120.24 414.442 119.853 413.759Z" fill="#150DCE"/>
<path d="M138.424 426.603C129.431 423.427 107.544 420.697 100.341 428.824C108.564 433.656 133.429 436.261 140.399 427.119C139.362 426.536 139.01 427.077 138.424 426.603Z" fill="#150DCE"/>
<path d="M139.914 424.274C137.895 414.979 138.088 392.918 146.982 386.786C150.908 395.66 150.222 420.511 140.214 426.226C139.694 425.179 140.301 424.958 139.914 424.274Z" fill="#150DCE"/>
<path d="M167.673 438.21L167.1 438.144C138.728 427.061 113.11 413.736 90.987 398.311C74.075 386.776 58.644 373.207 45.0409 357.91C36.3952 348.36 28.8014 337.908 22.3905 326.734C20.0353 322.695 18.0299 318.461 16.3965 314.079C16.326 313.886 16.3351 313.673 16.4218 313.487C16.5084 313.301 16.6655 313.156 16.8585 313.086C17.0515 313.015 17.2646 313.025 17.4508 313.111C17.6371 313.198 17.7813 313.355 17.8518 313.548C19.4773 317.886 21.4677 322.079 23.8015 326.082C30.1356 337.191 37.6601 347.578 46.2421 357.059C59.807 372.207 75.1484 385.664 91.9342 397.14C115.56 413.278 140.993 426.595 167.716 436.82C167.816 436.836 167.911 436.875 167.993 436.935C168.075 436.994 168.141 437.072 168.188 437.162C168.234 437.253 168.259 437.352 168.259 437.454C168.26 437.555 168.236 437.655 168.191 437.746L167.673 438.21Z" fill="#150DCE"/>
<path d="M151.059 205.273C143.675 195.252 122.316 176.134 108.604 179.562C113.746 190.901 138.533 211.997 152.773 207.25C152.113 205.8 151.322 206.196 151.059 205.273Z" fill="#150DCE"/>
<path d="M150.794 177.325C150.662 166.909 145.52 143.835 134.708 139.484C132.731 149.637 139.191 175.743 150.926 179.434C151.189 178.248 150.53 177.984 150.794 177.325Z" fill="#150DCE"/>
<path d="M151.718 176.802C154.487 166.913 165.298 145.818 176.901 144.367C176.242 154.651 163.452 178.252 151.059 178.911C151.059 177.593 151.85 177.593 151.718 176.802Z" fill="#150DCE"/>
<path d="M154.488 154.253C161.08 146.342 172.024 125.378 166.486 115.094C158.443 121.554 146.577 145.551 153.301 156.099C154.224 155.307 153.829 154.78 154.488 154.253Z" fill="#150DCE"/>
<path d="M154.353 203.829C159.099 192.359 175.448 168.758 189.556 168.758C187.183 181.02 168.065 207.389 153.166 206.071C153.43 204.621 154.221 204.752 154.353 203.829Z" fill="#150DCE"/>
<path d="M155.277 234.291C147.894 224.138 126.403 205.152 112.822 208.58C117.964 219.919 142.752 240.883 156.991 236.268C156.332 234.818 155.541 235.214 155.277 234.291Z" fill="#150DCE"/>
<path d="M156.206 232.564C160.953 221.093 177.302 197.492 191.41 197.492C189.036 209.754 169.918 236.124 155.02 234.805C155.283 233.355 156.074 233.487 156.206 232.564Z" fill="#150DCE"/>
<path d="M161.477 261.447C154.093 251.295 132.602 232.309 119.021 235.737C124.164 247.076 148.951 268.039 163.191 263.425C162.531 261.974 161.74 262.37 161.477 261.447Z" fill="#150DCE"/>
<path d="M164.769 260.001C169.515 248.399 185.864 224.93 199.972 224.93C197.599 237.192 178.481 263.429 163.582 262.243C163.846 260.792 164.637 260.924 164.769 260.001Z" fill="#150DCE"/>
<path d="M171.231 291.113C163.979 281.093 142.488 262.107 128.775 265.403C134.049 276.742 158.705 297.838 172.945 293.091C172.417 291.773 171.626 292.036 171.231 291.113Z" fill="#150DCE"/>
<path d="M174.528 289.658C179.275 278.187 195.624 254.586 209.732 254.586C207.359 266.848 188.241 293.217 173.342 292.031C173.605 290.449 174.528 290.58 174.528 289.658Z" fill="#150DCE"/>
<path d="M188.107 332.775C180.724 322.623 159.233 303.637 145.652 307.065C150.794 318.404 175.582 339.368 189.821 334.753C189.162 333.302 188.371 333.698 188.107 332.775Z" fill="#150DCE"/>
<path d="M191.403 331.329C196.15 319.727 212.499 296.258 226.475 296.258C224.234 308.52 205.116 334.757 190.217 333.571C190.48 332.121 191.272 332.252 191.403 331.329Z" fill="#150DCE"/>
<path d="M201.955 358.884C194.572 348.732 173.08 329.746 159.5 333.174C164.642 344.513 189.43 365.477 203.669 360.862C203.01 359.412 202.219 359.807 201.955 358.884Z" fill="#150DCE"/>
<path d="M205.247 357.447C209.994 345.844 226.343 322.375 240.319 322.375C237.946 334.637 218.959 360.875 204.061 359.688C204.324 358.238 205.115 358.37 205.247 357.447Z" fill="#150DCE"/>
<path d="M225.161 392.627C224.987 392.633 224.815 392.6 224.655 392.532C224.496 392.463 224.353 392.361 224.238 392.232C201.823 359.401 184.156 326.176 171.762 293.477C162.102 268.653 155.461 242.756 151.985 216.346C149.802 199.737 149.36 182.945 150.666 166.244C151.721 154.641 153.435 148.444 153.567 148.181C153.602 148.059 153.66 147.946 153.738 147.847C153.817 147.749 153.914 147.666 154.024 147.605C154.134 147.544 154.255 147.505 154.38 147.491C154.506 147.476 154.632 147.487 154.754 147.521C154.875 147.556 154.988 147.614 155.087 147.692C155.185 147.771 155.268 147.868 155.329 147.978C155.39 148.088 155.429 148.209 155.444 148.335C155.458 148.46 155.448 148.587 155.413 148.708C155.281 148.972 148.689 174.023 153.963 216.346C157.49 242.562 164.084 268.272 173.608 292.95C186.002 325.516 203.537 358.478 225.952 391.177C226.068 391.393 226.105 391.643 226.057 391.883C226.009 392.124 225.878 392.34 225.688 392.495L225.161 392.627Z" fill="#150DCE"/>
<path d="M562.689 317.603C570.204 311.406 590.245 300.99 600.002 306.264C593.805 313.911 570.863 325.118 560.975 318.789C561.766 317.735 562.293 318.262 562.689 317.603Z" fill="#150DCE"/>
<path d="M568.358 296.374C570.335 288.464 578.905 271.983 587.871 270.664C587.475 278.839 577.455 297.429 567.83 297.957C567.83 296.902 568.358 296.902 568.358 296.374Z" fill="#150DCE"/>
<path d="M567.698 295.853C567.566 287.679 563.347 269.616 554.908 266.188C553.326 274.23 558.468 294.667 567.83 297.436C568.093 296.513 567.434 296.381 567.698 295.853Z" fill="#150DCE"/>
<path d="M569.939 278.187C566.511 270.803 562.292 252.74 568.489 246.016C573.235 252.476 577.718 273.044 570.598 279.769C569.939 278.978 570.466 278.582 569.939 278.187Z" fill="#150DCE"/>
<path d="M560.444 315.896C559.126 306.139 551.215 285.043 540.535 282.406C540.008 292.163 549.369 315.896 560.971 317.873C560.971 316.687 560.312 316.555 560.444 315.896Z" fill="#150DCE"/>
<path d="M553.854 338.829C561.369 332.632 581.41 322.216 591.167 327.49C584.97 335.138 562.16 346.345 552.271 340.016C552.931 338.961 553.458 339.489 553.854 338.829Z" fill="#150DCE"/>
<path d="M553.458 337.388C552.139 327.631 544.228 306.535 533.549 303.898C533.021 313.655 542.382 337.388 553.985 339.366C553.985 338.179 553.326 338.047 553.458 337.388Z" fill="#150DCE"/>
<path d="M543.832 358.218C551.479 352.021 571.388 341.736 581.145 346.879C575.08 354.526 552.139 365.733 542.25 359.404C542.909 358.481 543.437 358.877 543.832 358.218Z" fill="#150DCE"/>
<path d="M541.724 356.497C540.274 346.872 532.363 325.777 521.683 323.008C521.156 332.765 530.517 356.497 542.12 358.475C542.252 357.288 541.592 357.288 541.724 356.497Z" fill="#150DCE"/>
<path d="M530.651 378.913C538.166 372.716 558.207 362.432 567.964 367.574C561.767 375.221 538.957 386.428 529.068 380.099C529.728 379.177 530.255 379.572 530.651 378.913Z" fill="#150DCE"/>
<path d="M528.407 377.193C527.088 367.568 519.178 346.472 508.498 343.703C507.97 353.46 517.332 377.193 528.934 379.17C529.066 377.984 528.275 377.984 528.407 377.193Z" fill="#150DCE"/>
<path d="M509.819 407.257C517.335 401.06 537.376 390.776 547.133 396.05C540.936 403.565 517.994 414.772 508.105 408.444C508.897 407.521 509.424 407.916 509.819 407.257Z" fill="#150DCE"/>
<path d="M507.574 405.553C506.256 395.928 498.345 374.832 487.665 372.195C487.006 381.952 496.499 405.553 507.97 407.531C508.102 406.344 507.442 406.344 507.574 405.553Z" fill="#150DCE"/>
<path d="M494.261 424.525C501.776 418.328 521.817 407.912 531.442 413.186C525.377 420.833 502.435 432.04 492.547 425.711C493.206 424.657 493.865 425.184 494.261 424.525Z" fill="#150DCE"/>
<path d="M492.014 422.818C490.564 413.061 482.785 391.965 472.105 389.328C471.446 399.085 480.807 422.818 492.41 424.795C492.542 423.609 491.882 423.477 492.014 422.818Z" fill="#150DCE"/>
<path d="M470.262 445.76H470.658C492.913 426.483 512.787 404.617 529.857 380.627C541.964 363.637 552.011 345.27 559.787 325.91C564.678 313.655 568.301 300.931 570.599 287.938C571.443 283.238 571.884 278.474 571.917 273.698C571.886 273.512 571.789 273.343 571.643 273.222C571.498 273.102 571.315 273.037 571.126 273.039C570.916 273.039 570.715 273.122 570.567 273.271C570.418 273.419 570.335 273.62 570.335 273.83C570.292 278.518 569.851 283.193 569.016 287.806C566.83 300.682 563.249 313.282 558.337 325.383C550.633 344.667 540.628 362.951 528.539 379.836C512.849 402.25 493.072 423.873 469.735 444.442C469.644 444.492 469.567 444.563 469.509 444.649C469.451 444.735 469.414 444.833 469.402 444.936C469.389 445.039 469.4 445.143 469.435 445.24C469.47 445.338 469.528 445.425 469.603 445.497L470.262 445.76Z" fill="#150DCE"/>
<path d="M512.849 239.426C520.232 229.405 541.592 210.419 555.304 213.715C550.162 225.054 525.374 246.15 511.135 241.404C511.662 240.085 512.585 240.349 512.849 239.426Z" fill="#150DCE"/>
<path d="M513.109 211.473C513.241 201.189 518.383 177.984 529.195 173.633C531.173 183.785 524.712 209.891 512.978 213.583C512.714 212.396 513.373 212.264 513.109 211.473Z" fill="#150DCE"/>
<path d="M512.055 211.082C509.418 201.062 498.607 179.966 487.004 178.516C487.663 188.8 500.452 212.401 512.846 213.06C512.846 211.741 512.055 211.873 512.055 211.082Z" fill="#150DCE"/>
<path d="M509.421 188.533C502.828 180.622 491.885 159.526 497.291 149.242C505.334 155.703 517.332 179.831 510.607 190.247C509.685 189.456 510.08 188.929 509.421 188.533Z" fill="#150DCE"/>
<path d="M509.553 237.97C504.807 226.499 488.457 202.898 474.35 202.898C476.723 215.16 495.841 241.53 510.74 240.343C510.476 238.761 509.685 238.893 509.553 237.97Z" fill="#150DCE"/>
<path d="M508.628 268.437C516.012 258.416 537.503 239.298 551.083 242.726C545.941 254.065 521.154 275.161 506.914 270.415C507.573 268.964 508.364 269.36 508.628 268.437Z" fill="#150DCE"/>
<path d="M507.703 266.712C502.957 255.241 486.608 231.641 472.5 231.641C474.873 243.903 493.991 270.272 508.89 269.086C508.626 267.503 507.835 267.635 507.703 266.712Z" fill="#150DCE"/>
<path d="M502.435 295.593C509.818 285.573 531.178 266.455 544.89 269.883C539.748 281.222 514.96 302.317 500.721 297.571C501.248 296.12 502.171 296.516 502.435 295.593Z" fill="#150DCE"/>
<path d="M499.139 294.134C494.392 282.663 478.043 259.062 463.936 259.062C466.309 271.324 485.427 297.694 500.326 296.507C500.062 294.925 499.271 295.057 499.139 294.134Z" fill="#150DCE"/>
<path d="M492.675 325.262C499.927 315.241 521.418 296.255 535.13 299.551C529.856 310.89 505.201 331.986 490.961 327.239C491.488 325.921 492.279 326.185 492.675 325.262Z" fill="#150DCE"/>
<path d="M489.377 323.8C484.631 312.329 468.282 288.728 454.174 288.86C456.547 301.122 475.533 327.36 490.564 326.173C490.3 324.723 489.377 324.854 489.377 323.8Z" fill="#150DCE"/>
<path d="M475.802 366.921C483.185 356.901 504.545 337.783 518.257 341.211C513.115 352.55 488.327 373.645 474.088 368.899C474.747 367.449 475.538 367.844 475.802 366.921Z" fill="#150DCE"/>
<path d="M472.506 365.478C467.76 354.007 451.41 330.406 437.303 330.406C439.676 342.668 458.794 369.038 473.693 367.851C473.429 366.269 472.638 366.401 472.506 365.478Z" fill="#150DCE"/>
<path d="M461.954 393.023C469.338 383.002 490.829 363.884 504.409 367.312C499.267 378.651 474.48 399.747 460.24 395C460.899 393.55 461.691 393.946 461.954 393.023Z" fill="#150DCE"/>
<path d="M458.658 391.579C453.911 380.109 437.562 356.508 423.586 356.508C425.827 368.77 444.945 395.139 459.844 393.953C459.58 392.371 458.789 392.502 458.658 391.579Z" fill="#150DCE"/>
<path d="M438.749 426.918C438.905 426.938 439.064 426.912 439.205 426.841C439.346 426.771 439.463 426.66 439.54 426.523C462.086 393.692 479.754 360.467 492.148 327.768C501.777 302.934 508.416 277.041 511.925 250.637C514.109 233.984 514.551 217.148 513.243 200.403C512.189 188.932 510.475 182.735 510.343 182.471C510.313 182.347 510.257 182.231 510.18 182.13C510.103 182.028 510.005 181.944 509.894 181.882C509.782 181.82 509.659 181.782 509.532 181.77C509.405 181.758 509.277 181.772 509.156 181.812C509.032 181.842 508.916 181.898 508.814 181.975C508.713 182.052 508.628 182.15 508.566 182.261C508.504 182.373 508.466 182.496 508.454 182.623C508.442 182.75 508.457 182.878 508.497 182.999C508.497 183.263 515.221 208.314 509.947 250.505C506.419 276.721 499.826 302.431 490.302 327.109C477.908 359.675 460.24 392.769 437.958 425.336C437.842 425.552 437.804 425.802 437.853 426.043C437.901 426.283 438.031 426.5 438.222 426.654L438.749 426.918Z" fill="#150DCE"/>
<path d="M303.871 255.103L220.147 129.32C216.455 133.408 211.841 146.856 211.841 152.394C211.841 162.546 217.906 162.282 225.289 169.007C229.64 173.094 245.33 191.816 232.673 190.762C223.707 189.97 216.719 175.995 211.973 169.798C207.49 175.203 208.281 186.542 208.808 193.53C209.731 205.397 209.599 209.22 219.356 214.231C224.498 216.868 249.022 225.042 245.067 234.271C241.111 243.501 220.938 228.866 217.51 223.592C204.194 235.458 221.334 252.994 230.695 260.641C240.056 268.288 253.109 273.43 265.503 270.662C277.897 267.893 288.708 254.972 303.871 255.103Z" fill="#150DCE"/>
<path d="M302.421 255.509L218.697 129.725C223.839 127.879 237.947 128.934 243.089 131.044C252.45 134.867 249.945 140.405 253.373 149.766C255.351 155.436 266.558 177.059 270.514 164.929C273.282 156.359 263.13 144.624 259.175 137.9C265.767 135.79 276.051 140.801 282.38 144.097C292.928 149.503 296.488 150.821 297.279 161.764C297.806 167.566 295.828 193.276 305.849 193.276C315.869 193.276 310.2 168.884 306.64 163.61C322.725 155.963 332.35 178.509 335.778 190.112C339.206 201.714 338.943 215.69 331.559 226.106C324.176 236.522 308.09 241.401 302.421 255.509Z" fill="#00007E"/>
<path d="M320.486 343.442C320.132 343.417 319.795 343.273 319.532 343.034C319.269 342.795 319.094 342.474 319.036 342.123C319.036 341.464 314.817 270.661 293.457 234.799C293.266 234.466 293.214 234.072 293.313 233.701C293.411 233.33 293.653 233.014 293.985 232.821C294.304 232.669 294.668 232.638 295.007 232.735C295.347 232.833 295.64 233.051 295.831 233.348C317.454 269.87 321.805 341.2 321.805 341.991C321.806 342.354 321.672 342.704 321.428 342.973C321.183 343.241 320.848 343.409 320.486 343.442Z" fill="#3D6FC1"/>
<path d="M337.492 349.769C337.206 349.762 336.928 349.671 336.693 349.507C336.458 349.343 336.278 349.113 336.174 348.846C336.174 348.582 330.109 325.377 330.24 290.965C330.333 270.843 332.497 250.784 336.701 231.106C341.94 206.901 350.457 183.524 362.016 161.622C362.084 161.466 362.186 161.327 362.313 161.214C362.44 161.101 362.59 161.017 362.752 160.967C362.915 160.917 363.086 160.902 363.255 160.924C363.424 160.946 363.586 161.004 363.73 161.094C363.885 161.163 364.024 161.264 364.137 161.391C364.25 161.518 364.335 161.668 364.385 161.831C364.435 161.993 364.449 162.165 364.427 162.333C364.405 162.502 364.347 162.664 364.257 162.808C352.844 184.516 344.417 207.667 339.206 231.633C335.068 251.143 332.904 271.021 332.746 290.965C332.614 325.113 338.679 347.923 338.679 348.187C338.76 348.519 338.709 348.869 338.537 349.164C338.365 349.459 338.085 349.676 337.756 349.769H337.492Z" fill="#150DCE"/>
<path d="M357.797 172.18L410.273 81.4686C406.581 80.4138 396.824 81.6005 393.396 83.3145C387.068 86.4788 389.045 90.1706 387.2 96.763C386.013 100.85 379.157 116.277 375.861 108.102C373.619 102.301 380.212 93.5987 382.585 88.7203C377.838 87.6655 370.982 91.6209 366.763 94.126C359.775 98.3452 357.27 99.4 357.138 107.047C357.138 111.003 359.643 128.802 352.655 129.198C345.667 129.593 348.568 112.453 350.809 108.629C339.339 104.147 333.669 120.1 331.823 128.275C329.977 136.449 330.769 146.206 336.306 153.062C341.844 159.918 353.183 162.687 357.797 172.18Z" fill="#150DCE"/>
<path d="M357.002 171.382L373.615 142.771L409.609 80.5391C412.378 83.3079 416.07 92.4054 416.334 96.229C416.729 103.217 412.51 103.349 407.764 108.359C404.863 111.26 394.842 124.972 403.676 123.653C409.741 122.73 413.96 112.842 416.993 108.227C420.289 111.787 420.289 119.698 420.289 124.576C420.025 132.883 420.421 135.52 413.829 139.343C410.4 141.453 393.788 148.177 396.82 154.374C399.853 160.571 413.301 149.628 415.543 145.804C425.167 153.451 414.092 166.372 408.027 172.042C401.962 177.711 392.997 181.93 384.295 180.48C375.593 179.03 367.55 170.591 357.002 171.382Z" fill="#00007E"/>
<path d="M367.151 328.804L468.147 181.397C461.95 179.156 445.205 180.079 439.14 182.584C428.065 186.935 430.966 193.528 426.878 204.471C424.241 211.195 410.661 236.51 406.178 222.139C403.146 211.986 415.407 198.274 420.154 190.363C412.243 187.726 399.981 193.659 392.598 197.351C380.072 203.548 375.853 204.998 374.666 217.919C374.007 224.776 375.853 255.232 363.987 255.101C352.12 254.969 359.24 226.226 363.591 220.029C344.737 210.8 333.002 237.301 328.651 250.881C324.3 264.462 324.564 281.207 333.134 293.468C341.704 305.73 360.559 312.059 367.151 328.804Z" fill="#150DCE"/>
<path d="M365.971 327.352L467.098 179.945C471.317 184.824 476.459 200.777 476.459 207.37C476.328 219.368 469.208 218.972 460.374 226.751C455.1 231.498 436.246 253.385 451.276 252.462C461.956 251.671 470.394 235.322 476.064 227.938C481.206 234.399 480.151 247.847 479.36 256.154C478.042 270.129 478.305 274.612 466.571 280.414C460.506 283.446 431.367 292.676 435.85 303.751C440.333 314.826 464.461 297.686 468.68 291.489C484.107 305.729 463.67 326.165 452.463 335.131C441.256 344.096 425.698 349.898 411.195 346.338C396.691 342.778 383.902 327.352 365.971 327.352Z" fill="#00007E"/>
<path d="M135.633 393.561C141.698 395.143 148.159 395.275 154.488 395.275C167.804 395.143 181.912 388.55 186.527 375.234C186.806 374.551 187.027 373.845 187.186 373.124C188.267 368.86 188.755 364.468 188.636 360.071V358.225C188.504 354.929 188.372 351.501 188.372 348.073V343.986C188.636 335.152 188.241 324.868 181.385 318.012L179.143 316.034C172.287 310.628 162.398 308.914 153.828 308.914H143.544L141.435 309.178L136.952 309.969C128.909 311.815 121.262 315.638 116.779 322.231C114.786 325.168 113.604 328.579 113.351 332.119C113.021 336.332 113.021 340.564 113.351 344.777C113.483 346.755 113.483 348.732 113.615 350.578C113.746 357.83 113.746 365.081 113.746 372.201C113.718 372.689 113.762 373.177 113.878 373.652C114.493 378.239 116.739 382.452 120.207 385.518L123.108 387.759C126.876 390.472 131.127 392.441 135.633 393.561Z" fill="#E79E8F"/>
<path d="M114.14 340.285C114.14 345.163 116.118 352.81 110.317 354.524C110.217 355.409 110.328 356.305 110.639 357.14C110.95 357.974 111.454 358.723 112.109 359.327C112.763 359.93 113.551 360.371 114.408 360.613C115.265 360.856 116.167 360.893 117.041 360.721C118.491 353.997 117.832 345.559 117.568 338.439C116.777 338.307 115.854 338.175 114.14 340.285Z" fill="#E79E8F"/>
<path d="M127.059 363.352H113.479V371.658C114.826 372.347 116.316 372.708 117.83 372.713C120.277 372.713 122.625 371.74 124.356 370.01C126.087 368.279 127.059 365.931 127.059 363.483V363.352Z" fill="white"/>
<path d="M170.306 307.061C153.298 303.105 136.553 300.732 120.731 310.489C111.766 316.158 106.887 324.86 107.81 335.54C119.017 336.199 127.983 332.244 137.872 327.629C135.345 331.682 131.799 335.001 127.587 337.254C136.685 340.023 148.156 336.595 157.385 335.672C162.791 335.144 167.537 335.144 172.68 333.562C175.58 332.639 180.722 331.585 182.832 329.211C189.292 321.96 183.096 312.467 170.306 307.061Z" fill="#F2B251"/>
<path d="M249.151 435.885C234.912 429.16 218.167 432.457 203.136 428.501C181.25 422.7 180.722 403.318 181.381 383.805H142.354C142.445 388.338 142.269 392.872 141.827 397.385C140.245 413.602 137.476 431.402 118.753 434.434C109.392 436.017 74.7162 431.534 74.848 448.41C77.485 448.278 80.3857 448.41 83.0226 448.41H218.035L257.326 448.015C257.16 445.45 256.316 442.975 254.88 440.844C253.443 438.712 251.467 437.001 249.151 435.885Z" fill="#E79E8F"/>
<path d="M249.151 435.874C234.912 429.149 218.167 432.446 203.136 428.49C191.138 425.326 185.601 418.074 183.095 408.977H140.245C138.003 421.238 132.993 432.05 118.753 434.423C109.392 436.005 74.7162 431.523 74.848 448.399C77.485 448.267 80.3857 448.399 83.0226 448.399H218.035L257.326 448.004C257.16 445.439 256.316 442.964 254.88 440.833C253.443 438.701 251.467 436.99 249.151 435.874Z" fill="#3F3F3E"/>
<path d="M167.933 403.178C179.802 403.178 189.424 393.556 189.424 381.687C189.424 369.817 179.802 360.195 167.933 360.195C156.063 360.195 146.441 369.817 146.441 381.687C146.441 393.556 156.063 403.178 167.933 403.178Z" stroke="#FFF7A9" stroke-width="0.37" stroke-miterlimit="10"/>
<path d="M319.693 448.673C319.104 446.716 318.122 444.9 316.807 443.336C315.492 441.772 313.872 440.492 312.046 439.575C297.674 432.587 280.798 435.092 265.371 431.796C235.31 425.072 235.442 355.324 236.365 335.547L204.062 386.045C204.106 390.624 203.886 395.203 203.403 399.757C201.689 416.238 198.788 434.301 179.802 437.202C170.704 438.652 138.665 434.433 135.369 448.673H319.693Z" fill="#7A414A"/>
<path d="M320.747 448.659C320.292 446.374 319.366 444.208 318.026 442.301C316.687 440.394 314.964 438.787 312.968 437.584C298.333 429.41 281.061 432.442 265.503 428.487C261.283 427.432 257.723 427.959 254.559 424.531C247.703 430.728 239.66 435.87 230.563 436.266C221.465 436.661 205.512 436.661 194.7 428.75C191.272 434.42 186.13 433.497 178.351 434.947C170.572 436.398 136.028 431.651 133.127 448.659H320.747Z" fill="#FAF2E8"/>
<path d="M238.077 355.452C238.129 364.683 234.512 373.558 228.021 380.122C221.531 386.687 212.698 390.405 203.466 390.457C194.235 390.51 185.36 386.893 178.796 380.402C172.231 373.911 168.513 365.079 168.461 355.847V284.253C168.375 282.89 168.419 281.521 168.593 280.166L168.988 277.925V277.661C168.988 277.397 169.12 277.266 169.12 277.134C170.928 268.78 175.746 261.383 182.656 256.353C189.566 251.323 198.086 249.012 206.591 249.859C215.096 250.706 222.992 254.653 228.774 260.947C234.556 267.242 237.82 275.444 237.945 283.99L238.208 322.226V355.452H238.077Z" fill="#7A414A"/>
<path d="M168.461 338.706L168.856 355.319C170.774 355.921 172.781 356.188 174.79 356.11C179.534 356.041 184.061 354.107 187.392 350.727C190.723 347.347 192.59 342.792 192.589 338.047L168.461 338.706Z" fill="white"/>
<path d="M237.942 322.226L237.546 325.522C235.437 327.236 231.086 326.577 228.449 326.313C219.088 325.258 212.759 321.435 206.826 314.315C197.86 303.371 193.114 290.055 199.574 276.343C192.059 278.98 175.973 283.199 168.854 277.134C170.661 268.78 175.479 261.383 182.39 256.353C189.3 251.323 197.819 249.012 206.324 249.859C214.829 250.706 222.725 254.653 228.508 260.947C234.29 267.242 237.554 275.444 237.678 283.99L237.942 322.226Z" fill="#282023"/>
<path d="M232.671 342.267C230.153 342.267 227.738 341.267 225.958 339.487C224.178 337.706 223.178 335.292 223.178 332.774V313.261C223.195 312.014 223.458 310.783 223.951 309.638C224.444 308.492 225.157 307.456 226.051 306.586C226.945 305.717 228.001 305.032 229.16 304.571C230.318 304.11 231.556 303.882 232.803 303.899C235.297 303.934 237.678 304.949 239.43 306.726C241.182 308.503 242.164 310.897 242.164 313.392V332.906C242.164 334.146 241.918 335.375 241.439 336.519C240.96 337.664 240.259 338.701 239.376 339.572C238.492 340.443 237.445 341.13 236.294 341.593C235.143 342.055 233.911 342.285 232.671 342.267Z" fill="#7A414A"/>
<path d="M174.526 445.895C174.497 446.165 174.377 446.417 174.185 446.609C173.993 446.801 173.741 446.922 173.471 446.95C173.191 446.95 172.923 446.839 172.725 446.641C172.527 446.443 172.416 446.175 172.416 445.895C172.416 445.236 172.812 444.709 173.471 444.841C173.751 444.841 174.019 444.952 174.217 445.15C174.414 445.347 174.526 445.616 174.526 445.895Z" fill="#282023"/>
<path d="M146.704 446.819C146.676 447.089 146.555 447.341 146.363 447.533C146.171 447.725 145.919 447.846 145.65 447.874C145.356 447.876 145.073 447.769 144.854 447.575C144.635 447.38 144.495 447.111 144.463 446.819C144.463 446.664 144.494 446.509 144.553 446.365C144.613 446.221 144.7 446.091 144.81 445.98C144.921 445.87 145.051 445.783 145.195 445.723C145.339 445.664 145.494 445.633 145.65 445.633C145.941 445.665 146.21 445.805 146.405 446.024C146.599 446.243 146.706 446.526 146.704 446.819Z" fill="#282023"/>
<path d="M157.125 442.864C157.125 443.144 157.014 443.412 156.816 443.61C156.618 443.808 156.35 443.919 156.07 443.919C155.8 443.89 155.549 443.77 155.357 443.578C155.165 443.386 155.044 443.134 155.016 442.864C155.016 442.205 155.543 441.678 156.07 441.809C156.214 441.787 156.361 441.799 156.499 441.844C156.638 441.889 156.763 441.966 156.866 442.069C156.969 442.171 157.046 442.297 157.091 442.435C157.136 442.574 157.148 442.721 157.125 442.864Z" fill="#282023"/>
<path d="M188.372 440.89C188.34 441.181 188.2 441.45 187.981 441.645C187.762 441.84 187.479 441.946 187.186 441.945C186.916 441.916 186.664 441.796 186.472 441.604C186.28 441.412 186.16 441.16 186.131 440.89C186.129 440.597 186.236 440.313 186.431 440.094C186.625 439.875 186.894 439.736 187.186 439.703C187.845 439.835 188.372 440.231 188.372 440.89Z" fill="#282023"/>
<path d="M199.843 447.086C199.845 447.379 199.738 447.663 199.543 447.882C199.349 448.101 199.08 448.24 198.788 448.273C198.473 448.273 198.172 448.148 197.949 447.925C197.727 447.703 197.602 447.401 197.602 447.086C197.634 446.795 197.773 446.526 197.993 446.331C198.212 446.136 198.495 446.029 198.788 446.031C199.058 446.06 199.31 446.18 199.502 446.372C199.694 446.564 199.814 446.816 199.843 447.086Z" fill="#282023"/>
<path d="M218.166 442.202C218.166 442.482 218.055 442.75 217.857 442.948C217.659 443.146 217.391 443.257 217.111 443.257C216.832 443.257 216.563 443.146 216.366 442.948C216.168 442.75 216.057 442.482 216.057 442.202C216.055 441.909 216.162 441.626 216.356 441.407C216.551 441.187 216.82 441.048 217.111 441.016C217.262 441.014 217.411 441.045 217.548 441.107C217.685 441.168 217.808 441.257 217.908 441.37C218.008 441.482 218.083 441.614 218.127 441.758C218.172 441.902 218.185 442.053 218.166 442.202Z" fill="#282023"/>
<path d="M280.662 439.038C280.662 439.318 280.551 439.586 280.353 439.784C280.156 439.982 279.887 440.093 279.608 440.093C279.338 440.064 279.086 439.944 278.894 439.752C278.702 439.56 278.581 439.308 278.553 439.038C278.551 438.745 278.658 438.462 278.852 438.243C279.047 438.023 279.316 437.884 279.608 437.852C279.758 437.85 279.907 437.881 280.044 437.942C280.182 438.004 280.304 438.093 280.404 438.206C280.504 438.318 280.579 438.45 280.623 438.594C280.668 438.738 280.681 438.889 280.662 439.038Z" fill="#282023"/>
<path d="M266.293 446.422C266.293 446.702 266.182 446.97 265.984 447.168C265.786 447.366 265.518 447.477 265.238 447.477C264.959 447.477 264.69 447.366 264.493 447.168C264.295 446.97 264.184 446.702 264.184 446.422C264.184 446.142 264.295 445.874 264.493 445.676C264.69 445.478 264.959 445.367 265.238 445.367C265.518 445.367 265.786 445.478 265.984 445.676C266.182 445.874 266.293 446.142 266.293 446.422Z" fill="#282023"/>
<path d="M251.919 437.727C251.919 438.007 251.808 438.275 251.61 438.473C251.412 438.671 251.144 438.782 250.864 438.782C250.571 438.784 250.288 438.677 250.069 438.482C249.85 438.287 249.71 438.018 249.678 437.727C249.677 437.577 249.708 437.428 249.769 437.29C249.83 437.153 249.919 437.03 250.032 436.93C250.144 436.831 250.277 436.756 250.42 436.711C250.564 436.667 250.715 436.654 250.864 436.672C251.144 436.672 251.412 436.783 251.61 436.981C251.808 437.179 251.919 437.447 251.919 437.727Z" fill="#282023"/>
<path d="M365.179 436.143C350.939 429.286 334.063 432.715 319.164 428.759C297.145 422.826 296.618 403.444 297.409 384.062H258.382C258.382 388.677 258.25 393.028 257.854 397.511C256.14 413.728 253.371 431.528 234.781 434.692C225.42 436.143 190.744 431.792 190.875 448.668C193.512 448.536 196.281 448.668 199.05 448.668H333.931L373.221 448.273C373.069 445.721 372.244 443.256 370.832 441.126C369.419 438.996 367.469 437.276 365.179 436.143Z" fill="#99521D"/>
<path d="M365.179 436.151C350.939 429.295 334.063 432.723 319.164 428.767C311.121 426.658 306.111 422.702 302.814 417.692C291.08 415.451 279.346 412.155 268.798 406.749C264.743 404.77 261.01 402.192 257.722 399.102C256.008 414.923 252.844 429.558 234.781 432.459C225.42 434.041 190.744 431.8 190.875 448.676C193.512 448.545 196.281 448.676 199.05 448.676H333.931L373.221 448.281C373.069 445.73 372.244 443.264 370.832 441.134C369.419 439.004 367.469 437.285 365.179 436.151Z" fill="#00007E"/>
<path d="M251.655 393.809C257.857 395.072 264.185 395.603 270.51 395.392C283.826 395.26 297.934 388.799 302.417 375.482L303.208 373.241C304.246 368.971 304.69 364.579 304.527 360.188V358.474C304.527 355.046 304.263 351.618 304.263 348.322V344.103C304.527 335.269 304.131 325.116 297.275 318.128L295.165 316.283C288.177 310.877 278.421 309.031 269.85 309.163H259.566L257.325 309.426C255.854 309.562 254.398 309.827 252.974 310.218C244.931 311.932 237.284 315.887 232.669 322.348C230.719 325.306 229.541 328.706 229.241 332.236C228.954 336.496 228.998 340.772 229.373 345.026C229.373 347.003 229.505 348.849 229.505 350.827C229.769 357.947 229.637 365.198 229.769 372.45V373.9C230.413 378.471 232.712 382.646 236.229 385.635C237.092 386.453 238.018 387.202 238.998 387.876C242.763 390.706 247.072 392.726 251.655 393.809Z" fill="#B15F22"/>
<path d="M234.647 320.37C243.035 326.762 252.635 331.383 262.863 333.95C273.775 336.607 285.082 337.233 296.221 335.796C298.858 335.532 301.495 335.137 304.131 334.609C303.472 328.676 301.758 322.743 297.275 318.128L295.166 316.283C288.178 310.877 278.421 309.031 269.851 309.163H259.567L257.325 309.426C255.855 309.562 254.399 309.827 252.974 310.218C245.855 311.8 239.13 314.964 234.516 320.106L234.647 320.37Z" fill="#100A0C"/>
<path d="M230.163 340.542C230.163 345.42 232.009 352.936 226.339 354.781C226.216 355.659 226.305 356.554 226.599 357.391C226.893 358.227 227.384 358.98 228.03 359.588C228.676 360.195 229.458 360.638 230.311 360.88C231.164 361.122 232.063 361.156 232.932 360.978C234.382 354.122 233.854 345.684 233.459 338.564C232.8 338.564 231.877 338.432 230.163 340.542Z" fill="#B15F22"/>
<path d="M243.35 364.016H229.77V372.19C231.074 373 232.586 373.412 234.121 373.377C235.344 373.377 236.555 373.134 237.683 372.662C238.812 372.19 239.835 371.498 240.694 370.627C241.553 369.756 242.23 368.723 242.686 367.588C243.142 366.453 243.367 365.239 243.35 364.016Z" fill="white"/>
<path d="M252.975 310.486L268.796 406.735C268.796 406.735 280.267 413.591 302.813 417.678C302.813 417.678 357.53 362.302 297.276 318.133C297.276 318.133 284.618 304.421 252.975 310.486Z" fill="#00007E"/>
<path d="M256.666 406.594C256.666 406.594 276.048 420.57 310.328 425.052" stroke="#FFF7A9" stroke-width="0.37" stroke-miterlimit="10"/>
<path d="M259.568 309.43L277.895 410.953" stroke="#FFF7A9" stroke-width="0.37" stroke-miterlimit="10"/>
<path d="M382.318 339.894C382.318 344.773 384.164 352.42 378.494 354.134C378.395 355.019 378.505 355.915 378.817 356.749C379.128 357.583 379.632 358.333 380.286 358.936C380.941 359.54 381.729 359.98 382.586 360.223C383.443 360.465 384.345 360.502 385.219 360.331C386.537 353.606 386.01 345.168 385.614 338.048C384.955 337.916 384.032 337.785 382.318 339.894Z" fill="#7A414A"/>
<path d="M381.527 344.766H386.406" stroke="#FFF7A9" stroke-width="0.37" stroke-miterlimit="10"/>
<path d="M473.294 120.766L476.722 127.226L483.314 130.786L476.722 134.214L473.294 140.675L469.734 134.214L463.273 130.786L469.734 127.226L473.294 120.766Z" fill="#FFFEF1"/>
<path d="M441.781 77.5234L443.627 80.9515L447.187 82.9292L443.627 84.7751L441.781 88.335L439.803 84.7751L436.375 82.9292L439.803 80.9515L441.781 77.5234Z" fill="#FFFEF1"/>
<path d="M560.969 150.812L564.133 156.614L569.934 159.778L564.133 162.943L560.969 168.876L557.804 162.943L551.871 159.778L557.804 156.614L560.969 150.812Z" fill="#FFFEF1"/>
<path d="M233.859 72.8984L239.66 83.4463L250.208 89.2476L239.66 95.0489L233.859 105.597L228.189 95.0489L217.51 89.2476L228.189 83.4463L233.859 72.8984Z" fill="#FFFEF1"/>
<path d="M469.349 0L475.151 10.5479L485.698 16.3492L475.151 22.1505L469.349 32.6984L463.68 22.1505L453 16.3492L463.68 10.5479L469.349 0Z" fill="#FFFEF1"/>
<path d="M296.746 110.219L298.196 112.988L301.097 114.57L298.196 116.152L296.746 118.921L295.163 116.152L292.395 114.57L295.163 112.988L296.746 110.219Z" fill="#FFFEF1"/>
<path d="M108.6 147.656L110.71 151.612L114.665 153.721L110.71 155.831L108.6 159.786L106.491 155.831L102.535 153.721L106.491 151.612L108.6 147.656Z" fill="#FFFEF1"/>
<path d="M388.065 24L390.175 27.9554L394.13 30.065L390.175 32.1746L388.065 36.13L385.955 32.1746L382 30.065L385.955 27.9554L388.065 24Z" fill="#FFFEF1"/>
<path d="M58.3648 159.258L60.3425 162.686L63.7705 164.664L60.3425 166.641L58.3648 170.069L56.387 166.641L52.959 164.664L56.387 162.686L58.3648 159.258Z" fill="#FFFEF1"/>
<path d="M70.8919 371.133L71.9467 373.111L73.9244 374.165L71.9467 375.22L70.8919 377.198L69.8371 375.22L67.8594 374.165L69.8371 373.111L70.8919 371.133Z" fill="#FFFEF1"/>
<path d="M544.886 75.8047L549.633 84.5067L558.335 89.2532L549.633 93.9997L544.886 102.702L540.139 93.9997L531.438 89.2532L540.139 84.5067L544.886 75.8047Z" fill="#FFFEF1"/>
<path d="M320.053 37L324.668 45.4383L333.238 50.053L324.668 54.6677L320.053 63.1059L315.438 54.6677L307 50.053L315.438 45.4383L320.053 37Z" fill="#FFFEF1"/>
<path d="M438.351 436.806C424.243 429.95 407.366 433.246 392.336 429.29C370.449 423.489 369.921 404.107 370.712 384.594H331.685C331.732 389.13 331.512 393.664 331.026 398.174C329.444 414.391 326.675 432.191 307.953 435.223C298.591 436.806 263.915 432.323 264.047 449.331H407.234L446.525 448.936C446.373 446.367 445.535 443.887 444.097 441.753C442.659 439.619 440.674 437.911 438.351 436.806Z" fill="#E0774F"/>
<path d="M438.351 436.808C424.243 429.952 407.366 433.248 392.336 429.293C377.305 425.337 372.295 414.657 370.844 402H330.631C328.917 417.163 325.225 432.457 307.953 435.226C298.591 436.808 263.915 432.325 264.047 449.333H407.234L446.525 448.938C446.373 446.369 445.535 443.889 444.097 441.755C442.659 439.621 440.674 437.913 438.351 436.808Z" fill="#F7EDE4"/>
<path d="M329.447 410.036L343.028 417.024L350.411 410.036L359.113 417.024L373.748 413.991L370.979 402.125H330.634L329.447 410.036Z" fill="white"/>
<path d="M351.07 423.359L329.447 449.333H374.408L351.07 423.359Z" fill="#150DCE"/>
<path d="M364.917 354.405C365.021 363.497 361.51 372.258 355.156 378.761C348.801 385.264 340.123 388.976 331.032 389.081C321.94 389.186 313.179 385.675 306.676 379.32C300.173 372.965 296.46 364.288 296.356 355.196L296.092 324.607L295.564 284.657C295.564 283.339 295.564 282.02 295.696 280.702L296.092 278.328V277.669C297.741 269.361 302.407 261.958 309.191 256.886C315.975 251.815 324.397 249.435 332.832 250.204C341.267 250.974 349.119 254.84 354.873 261.055C360.627 267.271 363.876 275.397 363.994 283.866L364.389 321.575L364.785 352.691L364.917 354.405Z" fill="#E0774F"/>
<path d="M364.915 354.393C365.02 363.484 361.508 372.245 355.154 378.748C348.799 385.252 340.121 388.964 331.03 389.069C321.938 389.174 313.177 385.663 306.674 379.308C300.171 372.953 296.458 364.275 296.354 355.184L296.09 324.595C304.528 320.903 317.977 323.804 323.251 331.715C328.524 339.626 328.524 358.348 343.687 353.206C349.357 351.36 357.531 348.855 363.464 351.756C363.994 351.984 364.483 352.296 364.915 352.679V354.393Z" fill="#3F3F3E"/>
<path d="M296.223 338.175L296.75 354.656C298.636 355.195 300.59 355.461 302.551 355.447C307.217 355.278 311.638 353.323 314.902 349.985C318.166 346.648 320.023 342.183 320.087 337.516L296.223 338.175Z" fill="white"/>
<path d="M367.946 322.491C372.165 317.217 374.538 308.515 376.648 300.999C376.601 299.062 376.689 297.123 376.912 295.198C377.835 286.76 383.9 276.739 380.34 267.246C372.165 244.964 341.181 256.303 323.645 243.645C310.592 234.021 309.405 215.166 292.397 211.606C275.389 208.046 265.632 218.331 262.204 233.098C254.82 265.796 288.837 273.707 312.306 276.212C320.612 277.135 330.765 266.455 337.225 273.839C339.862 277.003 336.434 283.859 338.939 287.023C341.444 290.188 344.477 288.474 347.378 290.056C355.684 294.539 360.035 298.494 362.145 309.042C363.068 313.525 362.013 322.754 367.946 322.491Z" fill="#3F3F3E"/>
<path d="M365 321.607L364.734 324.907C362.602 326.491 358.34 325.963 355.676 325.699C346.218 324.643 339.958 320.947 334.097 313.949C325.039 303.256 320.243 290.185 326.637 276.587C319.178 279.227 303.193 283.584 296 277.643C297.666 269.324 302.38 261.911 309.234 256.833C316.088 251.755 324.596 249.371 333.118 250.142C341.64 250.913 349.572 254.783 355.385 261.007C361.199 267.231 364.481 275.368 364.6 283.848L365 321.607Z" fill="#3F3F3E"/>
<path d="M349.488 342.66C347.015 342.661 344.64 341.697 342.867 339.973C341.094 338.25 340.064 335.902 339.995 333.43V314.181C339.978 312.951 340.203 311.73 340.657 310.588C341.111 309.446 341.786 308.404 342.643 307.522C343.5 306.641 344.523 305.937 345.652 305.45C346.781 304.964 347.995 304.705 349.224 304.688C351.719 304.687 354.114 305.669 355.891 307.421C357.667 309.173 358.683 311.554 358.718 314.049V333.167C358.735 334.396 358.51 335.617 358.056 336.759C357.601 337.902 356.926 338.943 356.069 339.825C355.212 340.706 354.19 341.411 353.061 341.897C351.931 342.383 350.718 342.643 349.488 342.66Z" fill="#E0774F"/>
<path d="M343.029 417.035L351.072 423.364L359.115 417.035L350.413 410.047L343.029 417.035Z" fill="#150DCE"/>
<path d="M367.948 270.28C355.29 271.994 344.479 277.4 348.302 292.035C351.203 302.978 360.696 310.757 362.674 322.228C364.652 333.699 355.422 341.083 349.621 350.708C343.82 360.332 341.974 372.99 344.874 383.538C347.775 394.086 356.609 402.524 367.289 405.952C380.078 409.907 391.549 404.37 404.338 404.502C417.127 404.633 426.488 413.599 438.223 415.841C449.957 418.082 464.329 418.346 472.503 409.775C476.327 405.688 478.305 400.81 483.974 398.832C489.644 396.854 493.995 398.437 498.741 399.623C508.63 402.392 517.332 403.183 527.484 400.81C546.338 396.327 563.083 374.308 548.844 356.245C543.174 348.862 531.835 343.324 529.594 333.699C527.352 324.074 535.527 312.999 536.45 302.978C538.428 278.718 512.981 266.193 491.885 266.852C479.36 267.116 470.658 271.071 460.769 261.183C450.88 251.294 443.497 245.493 431.235 241.933C418.973 238.373 410.271 240.482 401.569 247.339C396.427 251.426 394.317 258.282 389.835 262.897C385.352 267.511 376.122 269.093 367.948 270.28Z" fill="#100A0C"/>
<path d="M388.38 346.89C388.38 355.856 384.952 363.107 380.733 363.107C376.514 363.107 373.086 355.856 373.086 346.89C373.086 337.925 376.514 330.805 380.733 330.805C384.952 330.805 388.38 338.056 388.38 346.89Z" stroke="#FFF7A9" stroke-width="0.37" stroke-miterlimit="10"/>
<path d="M517.331 436.791C503.091 430.067 486.215 433.363 471.316 429.408C449.429 423.606 448.902 404.093 449.561 384.711H410.534C410.624 389.2 410.448 393.691 410.007 398.159C408.424 414.509 405.656 432.308 386.933 435.341C377.572 436.923 342.896 432.44 343.028 449.317C345.665 449.185 348.565 449.317 351.202 449.317H486.215L525.374 448.921C525.248 446.363 524.435 443.886 523.019 441.751C521.604 439.616 519.639 437.903 517.331 436.791Z" fill="#794049"/>
<path d="M517.331 436.801C503.091 430.077 486.215 433.373 471.316 429.418C456.417 425.462 451.143 414.782 449.825 402.125H409.611C407.765 417.156 404.073 432.45 386.933 435.351C377.572 436.933 342.896 432.45 343.028 449.327C345.665 449.195 348.565 449.327 351.202 449.327H486.215L525.374 448.931C525.248 446.373 524.435 443.896 523.019 441.761C521.604 439.626 519.639 437.913 517.331 436.801Z" fill="#F2B251"/>
<path d="M403.81 394.481C410.002 395.809 416.338 396.341 422.665 396.063C435.981 396.063 450.089 389.471 454.704 376.154C454.968 375.495 455.099 374.704 455.363 374.045C456.465 369.741 456.91 365.296 456.682 360.86C456.71 360.835 456.732 360.805 456.747 360.771C456.763 360.737 456.771 360.7 456.771 360.662C456.771 360.625 456.763 360.588 456.747 360.554C456.732 360.52 456.71 360.489 456.682 360.464V359.146C456.55 355.718 456.418 352.29 456.418 348.994C456.286 347.59 456.286 346.178 456.418 344.774C456.55 335.941 456.154 325.788 449.298 318.8C448.658 318.117 447.951 317.498 447.188 316.954C440.332 311.549 430.444 309.703 421.874 309.835H411.589L409.348 310.098C407.877 310.234 406.421 310.499 404.997 310.889C396.954 312.735 389.307 316.559 384.692 323.151C382.816 326.145 381.644 329.527 381.264 333.04C380.978 337.256 381.022 341.488 381.396 345.697C381.528 347.675 381.528 349.521 381.528 351.499C381.792 358.75 381.792 365.87 381.792 373.122C381.77 373.609 381.814 374.097 381.924 374.572C382.51 379.132 384.765 383.312 388.252 386.307C389.175 387.23 390.098 387.889 391.021 388.68C394.875 391.411 399.216 393.38 403.81 394.481Z" fill="#7A414A"/>
<path d="M395.502 364.672H381.922V372.846C383.235 373.636 384.741 374.046 386.273 374.033C388.721 374.033 391.068 373.061 392.799 371.33C394.53 369.599 395.502 367.252 395.502 364.804V364.672Z" fill="white"/>
<path d="M392.075 299.809C383.637 308.511 389.174 326.047 399.986 329.607C408.688 332.508 420.422 334.617 421.477 345.297C422.532 355.977 417.917 364.942 422.4 375.358C426.883 385.774 439.672 389.07 451.802 388.411C465.91 387.62 471.975 381.819 477.645 368.898C479.295 365 480.034 360.776 479.806 356.549C479.577 352.322 478.387 348.203 476.326 344.506C472.371 337.518 472.107 333.562 475.271 326.047C478.436 318.532 483.973 310.753 478.963 301.391C473.953 292.03 463.932 285.833 455.23 283.592C446.528 281.35 438.749 284.515 430.443 289.525C422.137 294.535 417.786 295.59 409.875 294.535C401.964 293.48 396.162 290.448 392.075 299.809Z" fill="#100A0C"/>
<path d="M401.699 345.553C401.699 354.519 398.271 361.771 394.051 361.771C389.832 361.771 386.404 354.519 386.404 345.553C386.404 336.588 389.832 329.336 394.051 329.336C398.271 329.336 401.699 336.588 401.699 345.553Z" stroke="#FFF7A9" stroke-width="0.37" stroke-miterlimit="10"/>
<path d="M401.697 345.695H436.637" stroke="#FFF7A9" stroke-width="0.37" stroke-miterlimit="10"/>
</g>
<rect width="2" height="600" transform="matrix(4.37114e-08 -1 -1 -4.37114e-08 600 448.93)" fill="#00007E"/>
</svg>
