<svg width="77" height="59" viewBox="0 0 77 59" fill="none" xmlns="http://www.w3.org/2000/svg">
<path d="M34.1164 58.1406L0.0164032 58.1406L0.0164006 28.7406C-0.111484 24.5561 0.780858 20.4033 2.61641 16.6406C4.33274 13.5215 6.68316 10.7964 9.5164 8.64063C12.322 6.42651 15.461 4.67137 18.8164 3.44063C22.2164 2.14063 25.6164 1.04063 28.9164 0.0406269L34.0164 9.14063C31.7856 9.95654 29.6137 10.9255 27.5164 12.0406C25.871 12.9271 24.3565 14.0377 23.0164 15.3406C21.9223 16.4921 21.072 17.8526 20.5164 19.3406C19.9609 21.0515 19.6906 22.842 19.7164 24.6406L34.1164 24.6406L34.1164 58.1406ZM76.3164 58.1406L42.3164 58.1406L42.3164 28.7406C42.1885 24.5561 43.0808 20.4033 44.9164 16.6406C46.5962 13.5261 48.9132 10.8003 51.7164 8.64063C54.522 6.42651 57.661 4.67137 61.0164 3.44063C64.4164 2.14063 67.8164 1.04062 71.1164 0.0406232L76.2164 9.14063C73.9933 9.97561 71.8227 10.944 69.7164 12.0406C68.1005 12.9261 66.6189 14.0373 65.3164 15.3406C64.1877 16.4649 63.3324 17.8334 62.8164 19.3406C62.2609 21.0515 61.9906 22.842 62.0164 24.6406L76.3164 24.6406L76.3164 58.1406Z" fill="white"/>
</svg>
