<svg width="135" height="34" viewBox="0 0 135 34" fill="none" xmlns="http://www.w3.org/2000/svg">
<path d="M67.6133 23.6692H77.0219L67.6133 33.0807L58.2047 23.6692H67.6133Z" fill="#F2C94C"/>
<rect x="0.181641" y="0.945312" width="134.709" height="22.8038" rx="11.4019" fill="url(#paint0_linear_1104_2545)"/>
<path d="M9.24962 16.9453C9.04162 16.9453 8.87762 16.8693 8.75762 16.7173C8.64562 16.5573 8.60562 16.3653 8.63762 16.1413L9.84962 9.06131C9.87362 8.90131 9.94162 8.77731 10.0536 8.68931C10.1656 8.59331 10.2976 8.54531 10.4496 8.54531C10.6656 8.54531 10.8336 8.62531 10.9536 8.78531C11.0736 8.93731 11.1136 9.12531 11.0736 9.34931L9.86162 16.4293C9.83762 16.5813 9.76962 16.7053 9.65762 16.8013C9.54562 16.8973 9.40962 16.9453 9.24962 16.9453ZM8.84162 11.6773C8.65762 11.6773 8.50162 11.6173 8.37362 11.4973C8.25362 11.3693 8.19362 11.2133 8.19362 11.0293C8.19362 10.8533 8.25362 10.7093 8.37362 10.5973C8.50162 10.4853 8.65762 10.4293 8.84162 10.4293H14.5536C14.7376 10.4293 14.8896 10.4933 15.0096 10.6213C15.1376 10.7413 15.2016 10.8933 15.2016 11.0773C15.2016 11.2533 15.1376 11.3973 15.0096 11.5093C14.8896 11.6213 14.7376 11.6773 14.5536 11.6773H8.84162ZM12.5016 16.9453C12.2856 16.9453 12.1176 16.8693 11.9976 16.7173C11.8776 16.5573 11.8376 16.3653 11.8776 16.1413L13.0896 9.06131C13.1136 8.90131 13.1816 8.77731 13.2936 8.68931C13.4056 8.59331 13.5416 8.54531 13.7016 8.54531C13.9096 8.54531 14.0736 8.62531 14.1936 8.78531C14.3136 8.93731 14.3536 9.12531 14.3136 9.34931L13.1016 16.4293C13.0776 16.5813 13.0096 16.7053 12.8976 16.8013C12.7936 16.8973 12.6616 16.9453 12.5016 16.9453ZM8.39762 15.0133C8.21362 15.0133 8.05762 14.9533 7.92962 14.8333C7.80962 14.7053 7.74962 14.5493 7.74962 14.3653C7.74962 14.1893 7.80962 14.0453 7.92962 13.9333C8.05762 13.8213 8.21362 13.7653 8.39762 13.7653H14.1216C14.3056 13.7653 14.4576 13.8293 14.5776 13.9573C14.7056 14.0773 14.7696 14.2293 14.7696 14.4133C14.7696 14.5893 14.7056 14.7333 14.5776 14.8453C14.4576 14.9573 14.3056 15.0133 14.1216 15.0133H8.39762ZM19.3579 17.0653C18.7979 17.0653 18.2939 16.9973 17.8459 16.8613C17.3979 16.7173 16.9699 16.4693 16.5619 16.1173C16.4579 16.0293 16.3779 15.9293 16.3219 15.8173C16.2659 15.7053 16.2379 15.5933 16.2379 15.4813C16.2379 15.2973 16.3019 15.1373 16.4299 15.0013C16.5659 14.8573 16.7339 14.7853 16.9339 14.7853C17.0859 14.7853 17.2219 14.8333 17.3419 14.9293C17.6459 15.1773 17.9459 15.3653 18.2419 15.4933C18.5459 15.6213 18.9179 15.6853 19.3579 15.6853C19.6539 15.6853 19.9259 15.6413 20.1739 15.5533C20.4219 15.4573 20.6219 15.3333 20.7739 15.1813C20.9259 15.0213 21.0019 14.8413 21.0019 14.6413C21.0019 14.4013 20.9299 14.1973 20.7859 14.0293C20.6419 13.8613 20.4219 13.7213 20.1259 13.6093C19.8299 13.4893 19.4539 13.3973 18.9979 13.3333C18.5659 13.2693 18.1859 13.1733 17.8579 13.0453C17.5299 12.9093 17.2539 12.7413 17.0299 12.5413C16.8139 12.3333 16.6499 12.0933 16.5379 11.8213C16.4259 11.5413 16.3699 11.2293 16.3699 10.8853C16.3699 10.3653 16.5019 9.92131 16.7659 9.55331C17.0379 9.18531 17.4019 8.90531 17.8579 8.71331C18.3139 8.52131 18.8179 8.42531 19.3699 8.42531C19.8899 8.42531 20.3699 8.50531 20.8099 8.66531C21.2579 8.81731 21.6219 9.01331 21.9019 9.25331C22.1339 9.43731 22.2499 9.64931 22.2499 9.88931C22.2499 10.0653 22.1819 10.2253 22.0459 10.3693C21.9099 10.5133 21.7499 10.5853 21.5659 10.5853C21.4459 10.5853 21.3379 10.5493 21.2419 10.4773C21.1139 10.3653 20.9419 10.2613 20.7259 10.1653C20.5099 10.0613 20.2819 9.97731 20.0419 9.91331C19.8019 9.84131 19.5779 9.80531 19.3699 9.80531C19.0259 9.80531 18.7339 9.84931 18.4939 9.93731C18.2619 10.0253 18.0859 10.1453 17.9659 10.2973C17.8459 10.4493 17.7859 10.6253 17.7859 10.8253C17.7859 11.0653 17.8539 11.2653 17.9899 11.4253C18.1339 11.5773 18.3379 11.7013 18.6019 11.7973C18.8659 11.8853 19.1819 11.9653 19.5499 12.0373C20.0299 12.1253 20.4499 12.2293 20.8099 12.3493C21.1779 12.4693 21.4819 12.6253 21.7219 12.8173C21.9619 13.0013 22.1419 13.2373 22.2619 13.5253C22.3819 13.8053 22.4419 14.1493 22.4419 14.5573C22.4419 15.0773 22.2979 15.5253 22.0099 15.9013C21.7219 16.2773 21.3419 16.5653 20.8699 16.7653C20.4059 16.9653 19.9019 17.0653 19.3579 17.0653ZM23.8901 10.6453H26.7341C26.9261 10.6453 27.0861 10.7093 27.2141 10.8373C27.3421 10.9653 27.4061 11.1253 27.4061 11.3173C27.4061 11.5013 27.3421 11.6573 27.2141 11.7853C27.0861 11.9053 26.9261 11.9653 26.7341 11.9653H23.8901C23.6981 11.9653 23.5381 11.9013 23.4101 11.7733C23.2821 11.6453 23.2181 11.4853 23.2181 11.2933C23.2181 11.1093 23.2821 10.9573 23.4101 10.8373C23.5381 10.7093 23.6981 10.6453 23.8901 10.6453ZM25.1741 9.14531C25.3821 9.14531 25.5501 9.21731 25.6781 9.36131C25.8141 9.49731 25.8821 9.66931 25.8821 9.87731V15.2173C25.8821 15.3293 25.9021 15.4213 25.9421 15.4933C25.9901 15.5653 26.0501 15.6173 26.1221 15.6493C26.2021 15.6813 26.2861 15.6973 26.3741 15.6973C26.4701 15.6973 26.5581 15.6813 26.6381 15.6493C26.7181 15.6093 26.8101 15.5893 26.9141 15.5893C27.0261 15.5893 27.1261 15.6413 27.2141 15.7453C27.3101 15.8493 27.3581 15.9933 27.3581 16.1773C27.3581 16.4013 27.2341 16.5853 26.9861 16.7293C26.7461 16.8733 26.4861 16.9453 26.2061 16.9453C26.0381 16.9453 25.8501 16.9333 25.6421 16.9093C25.4421 16.8773 25.2501 16.8093 25.0661 16.7053C24.8901 16.5933 24.7421 16.4253 24.6221 16.2013C24.5021 15.9773 24.4421 15.6693 24.4421 15.2773V9.87731C24.4421 9.66931 24.5101 9.49731 24.6461 9.36131C24.7901 9.21731 24.9661 9.14531 25.1741 9.14531ZM34.1042 10.4053C34.3122 10.4053 34.4842 10.4733 34.6202 10.6093C34.7562 10.7453 34.8242 10.9213 34.8242 11.1373V16.2133C34.8242 16.4213 34.7562 16.5973 34.6202 16.7413C34.4842 16.8773 34.3122 16.9453 34.1042 16.9453C33.8962 16.9453 33.7242 16.8773 33.5882 16.7413C33.4522 16.5973 33.3842 16.4213 33.3842 16.2133V15.6253L33.6482 15.7333C33.6482 15.8373 33.5922 15.9653 33.4802 16.1173C33.3682 16.2613 33.2162 16.4053 33.0242 16.5493C32.8322 16.6933 32.6042 16.8173 32.3402 16.9213C32.0842 17.0173 31.8042 17.0653 31.5002 17.0653C30.9482 17.0653 30.4482 16.9253 30.0002 16.6453C29.5522 16.3573 29.1962 15.9653 28.9322 15.4693C28.6762 14.9653 28.5482 14.3893 28.5482 13.7413C28.5482 13.0853 28.6762 12.5093 28.9322 12.0133C29.1962 11.5093 29.5482 11.1173 29.9882 10.8373C30.4282 10.5493 30.9162 10.4053 31.4522 10.4053C31.7962 10.4053 32.1122 10.4573 32.4002 10.5613C32.6882 10.6653 32.9362 10.7973 33.1442 10.9573C33.3602 11.1173 33.5242 11.2813 33.6362 11.4493C33.7562 11.6093 33.8162 11.7453 33.8162 11.8573L33.3842 12.0133V11.1373C33.3842 10.9293 33.4522 10.7573 33.5882 10.6213C33.7242 10.4773 33.8962 10.4053 34.1042 10.4053ZM31.6802 15.7453C32.0322 15.7453 32.3402 15.6573 32.6042 15.4813C32.8682 15.3053 33.0722 15.0653 33.2162 14.7613C33.3682 14.4573 33.4442 14.1173 33.4442 13.7413C33.4442 13.3573 33.3682 13.0133 33.2162 12.7093C33.0722 12.4053 32.8682 12.1653 32.6042 11.9893C32.3402 11.8133 32.0322 11.7253 31.6802 11.7253C31.3362 11.7253 31.0322 11.8133 30.7682 11.9893C30.5042 12.1653 30.2962 12.4053 30.1442 12.7093C30.0002 13.0133 29.9282 13.3573 29.9282 13.7413C29.9282 14.1173 30.0002 14.4573 30.1442 14.7613C30.2962 15.0653 30.5042 15.3053 30.7682 15.4813C31.0322 15.6573 31.3362 15.7453 31.6802 15.7453ZM39.9354 10.4053C40.5274 10.4053 40.9754 10.5293 41.2794 10.7773C41.5914 11.0253 41.8034 11.3573 41.9154 11.7733C42.0354 12.1813 42.0954 12.6373 42.0954 13.1413V16.2133C42.0954 16.4213 42.0274 16.5973 41.8914 16.7413C41.7554 16.8773 41.5834 16.9453 41.3754 16.9453C41.1674 16.9453 40.9954 16.8773 40.8594 16.7413C40.7234 16.5973 40.6554 16.4213 40.6554 16.2133V13.1413C40.6554 12.8773 40.6194 12.6413 40.5474 12.4333C40.4834 12.2173 40.3634 12.0453 40.1874 11.9173C40.0114 11.7893 39.7594 11.7253 39.4314 11.7253C39.1114 11.7253 38.8394 11.7893 38.6154 11.9173C38.3994 12.0453 38.2314 12.2173 38.1114 12.4333C37.9994 12.6413 37.9434 12.8773 37.9434 13.1413V16.2133C37.9434 16.4213 37.8754 16.5973 37.7394 16.7413C37.6034 16.8773 37.4314 16.9453 37.2234 16.9453C37.0154 16.9453 36.8434 16.8773 36.7074 16.7413C36.5714 16.5973 36.5034 16.4213 36.5034 16.2133V11.2573C36.5034 11.0493 36.5714 10.8773 36.7074 10.7413C36.8434 10.5973 37.0154 10.5253 37.2234 10.5253C37.4314 10.5253 37.6034 10.5973 37.7394 10.7413C37.8754 10.8773 37.9434 11.0493 37.9434 11.2573V11.7733L37.7634 11.7373C37.8354 11.6013 37.9394 11.4573 38.0754 11.3053C38.2114 11.1453 38.3714 10.9973 38.5554 10.8613C38.7394 10.7253 38.9474 10.6173 39.1794 10.5373C39.4114 10.4493 39.6634 10.4053 39.9354 10.4053ZM49.0278 8.06531C49.2358 8.06531 49.4078 8.13331 49.5438 8.26931C49.6798 8.40531 49.7478 8.58131 49.7478 8.79731V16.2133C49.7478 16.4213 49.6798 16.5973 49.5438 16.7413C49.4078 16.8773 49.2358 16.9453 49.0278 16.9453C48.8198 16.9453 48.6478 16.8773 48.5118 16.7413C48.3758 16.5973 48.3078 16.4213 48.3078 16.2133V15.6253L48.5718 15.7333C48.5718 15.8373 48.5158 15.9653 48.4038 16.1173C48.2918 16.2613 48.1398 16.4053 47.9478 16.5493C47.7558 16.6933 47.5278 16.8173 47.2638 16.9213C47.0078 17.0173 46.7278 17.0653 46.4238 17.0653C45.8718 17.0653 45.3718 16.9253 44.9238 16.6453C44.4758 16.3573 44.1198 15.9653 43.8558 15.4693C43.5998 14.9653 43.4718 14.3893 43.4718 13.7413C43.4718 13.0853 43.5998 12.5093 43.8558 12.0133C44.1198 11.5093 44.4718 11.1173 44.9118 10.8373C45.3518 10.5493 45.8398 10.4053 46.3758 10.4053C46.7198 10.4053 47.0358 10.4573 47.3238 10.5613C47.6118 10.6653 47.8598 10.7973 48.0678 10.9573C48.2838 11.1173 48.4478 11.2813 48.5598 11.4493C48.6798 11.6093 48.7398 11.7453 48.7398 11.8573L48.3078 12.0133V8.79731C48.3078 8.58931 48.3758 8.41731 48.5118 8.28131C48.6478 8.13731 48.8198 8.06531 49.0278 8.06531ZM46.6038 15.7453C46.9558 15.7453 47.2638 15.6573 47.5278 15.4813C47.7918 15.3053 47.9958 15.0653 48.1398 14.7613C48.2918 14.4573 48.3678 14.1173 48.3678 13.7413C48.3678 13.3573 48.2918 13.0133 48.1398 12.7093C47.9958 12.4053 47.7918 12.1653 47.5278 11.9893C47.2638 11.8133 46.9558 11.7253 46.6038 11.7253C46.2598 11.7253 45.9558 11.8133 45.6918 11.9893C45.4278 12.1653 45.2198 12.4053 45.0678 12.7093C44.9238 13.0133 44.8518 13.3573 44.8518 13.7413C44.8518 14.1173 44.9238 14.4573 45.0678 14.7613C45.2198 15.0653 45.4278 15.3053 45.6918 15.4813C45.9558 15.6573 46.2598 15.7453 46.6038 15.7453ZM62.3023 10.5253C62.4863 10.5253 62.6463 10.5973 62.7823 10.7413C62.9183 10.8773 62.9863 11.0533 62.9863 11.2693C62.9863 11.3253 62.9823 11.3773 62.9743 11.4253C62.9663 11.4653 62.9543 11.5053 62.9383 11.5453L61.1023 16.4893C61.0463 16.6493 60.9463 16.7733 60.8023 16.8613C60.6583 16.9413 60.5063 16.9693 60.3463 16.9453C60.0743 16.9293 59.8703 16.7773 59.7343 16.4893L58.5463 13.0693L58.8583 13.0813L57.7423 16.4893C57.6063 16.7773 57.4023 16.9293 57.1303 16.9453C56.9783 16.9693 56.8263 16.9413 56.6743 16.8613C56.5303 16.7733 56.4303 16.6493 56.3743 16.4893L54.5383 11.5453C54.5063 11.4573 54.4903 11.3653 54.4903 11.2693C54.4903 11.0773 54.5543 10.9053 54.6823 10.7533C54.8103 10.6013 54.9863 10.5253 55.2103 10.5253C55.3623 10.5253 55.4983 10.5613 55.6183 10.6333C55.7383 10.7053 55.8223 10.8213 55.8703 10.9813L57.3223 14.9173L57.0223 14.8933L58.1143 11.9293C58.2423 11.6333 58.4623 11.4853 58.7743 11.4853C58.9503 11.4853 59.0823 11.5253 59.1703 11.6053C59.2663 11.6773 59.3423 11.7853 59.3983 11.9293L60.4903 14.8933L60.1303 14.9413L61.6063 10.9813C61.7023 10.6773 61.9343 10.5253 62.3023 10.5253ZM65.5972 16.2133C65.5972 16.4213 65.5292 16.5973 65.3932 16.7413C65.2572 16.8773 65.0852 16.9453 64.8772 16.9453C64.6692 16.9453 64.4972 16.8773 64.3612 16.7413C64.2252 16.5973 64.1572 16.4213 64.1572 16.2133V11.2573C64.1572 11.0493 64.2252 10.8773 64.3612 10.7413C64.4972 10.5973 64.6692 10.5253 64.8772 10.5253C65.0852 10.5253 65.2572 10.5973 65.3932 10.7413C65.5292 10.8773 65.5972 11.0493 65.5972 11.2573V16.2133ZM64.8652 9.74531C64.5932 9.74531 64.4012 9.70131 64.2892 9.61331C64.1772 9.52531 64.1212 9.36931 64.1212 9.14531V8.91731C64.1212 8.68531 64.1812 8.52931 64.3012 8.44931C64.4292 8.36131 64.6212 8.31731 64.8772 8.31731C65.1572 8.31731 65.3532 8.36131 65.4652 8.44931C65.5772 8.53731 65.6332 8.69331 65.6332 8.91731V9.14531C65.6332 9.37731 65.5732 9.53731 65.4532 9.62531C65.3332 9.70531 65.1372 9.74531 64.8652 9.74531ZM67.2692 10.6453H70.1132C70.3052 10.6453 70.4652 10.7093 70.5932 10.8373C70.7212 10.9653 70.7852 11.1253 70.7852 11.3173C70.7852 11.5013 70.7212 11.6573 70.5932 11.7853C70.4652 11.9053 70.3052 11.9653 70.1132 11.9653H67.2692C67.0772 11.9653 66.9172 11.9013 66.7892 11.7733C66.6612 11.6453 66.5972 11.4853 66.5972 11.2933C66.5972 11.1093 66.6612 10.9573 66.7892 10.8373C66.9172 10.7093 67.0772 10.6453 67.2692 10.6453ZM68.5532 9.14531C68.7612 9.14531 68.9292 9.21731 69.0572 9.36131C69.1932 9.49731 69.2612 9.66931 69.2612 9.87731V15.2173C69.2612 15.3293 69.2812 15.4213 69.3212 15.4933C69.3692 15.5653 69.4292 15.6173 69.5012 15.6493C69.5812 15.6813 69.6652 15.6973 69.7532 15.6973C69.8492 15.6973 69.9372 15.6813 70.0172 15.6493C70.0972 15.6093 70.1892 15.5893 70.2932 15.5893C70.4052 15.5893 70.5052 15.6413 70.5932 15.7453C70.6892 15.8493 70.7372 15.9933 70.7372 16.1773C70.7372 16.4013 70.6132 16.5853 70.3652 16.7293C70.1252 16.8733 69.8652 16.9453 69.5852 16.9453C69.4172 16.9453 69.2292 16.9333 69.0212 16.9093C68.8212 16.8773 68.6292 16.8093 68.4452 16.7053C68.2692 16.5933 68.1212 16.4253 68.0012 16.2013C67.8812 15.9773 67.8212 15.6693 67.8212 15.2773V9.87731C67.8212 9.66931 67.8892 9.49731 68.0252 9.36131C68.1692 9.21731 68.3452 9.14531 68.5532 9.14531ZM75.5993 10.4053C76.1753 10.4053 76.6113 10.5293 76.9073 10.7773C77.2113 11.0253 77.4193 11.3573 77.5313 11.7733C77.6433 12.1813 77.6993 12.6373 77.6993 13.1413V16.2133C77.6993 16.4213 77.6313 16.5973 77.4953 16.7413C77.3593 16.8773 77.1873 16.9453 76.9793 16.9453C76.7713 16.9453 76.5993 16.8773 76.4633 16.7413C76.3273 16.5973 76.2593 16.4213 76.2593 16.2133V13.1413C76.2593 12.8773 76.2273 12.6413 76.1633 12.4333C76.0993 12.2173 75.9833 12.0453 75.8153 11.9173C75.6473 11.7893 75.4073 11.7253 75.0953 11.7253C74.7913 11.7253 74.5313 11.7893 74.3153 11.9173C74.0993 12.0453 73.9353 12.2173 73.8233 12.4333C73.7193 12.6413 73.6673 12.8773 73.6673 13.1413V16.2133C73.6673 16.4213 73.5993 16.5973 73.4633 16.7413C73.3273 16.8773 73.1553 16.9453 72.9473 16.9453C72.7393 16.9453 72.5673 16.8773 72.4313 16.7413C72.2953 16.5973 72.2273 16.4213 72.2273 16.2133V8.79731C72.2273 8.58931 72.2953 8.41731 72.4313 8.28131C72.5673 8.13731 72.7393 8.06531 72.9473 8.06531C73.1553 8.06531 73.3273 8.13731 73.4633 8.28131C73.5993 8.41731 73.6673 8.58931 73.6673 8.79731V11.7733L73.4873 11.7373C73.5593 11.6013 73.6593 11.4573 73.7873 11.3053C73.9153 11.1453 74.0713 10.9973 74.2553 10.8613C74.4393 10.7253 74.6433 10.6173 74.8673 10.5373C75.0913 10.4493 75.3353 10.4053 75.5993 10.4053ZM88.9458 8.53331C89.1538 8.53331 89.3218 8.60531 89.4498 8.74931C89.5778 8.88531 89.6418 9.05731 89.6418 9.26531V13.6093C89.6418 14.2733 89.4978 14.8613 89.2098 15.3733C88.9298 15.8853 88.5418 16.2853 88.0458 16.5733C87.5498 16.8613 86.9738 17.0053 86.3178 17.0053C85.6618 17.0053 85.0818 16.8613 84.5778 16.5733C84.0818 16.2853 83.6898 15.8853 83.4018 15.3733C83.1218 14.8613 82.9818 14.2733 82.9818 13.6093V9.26531C82.9818 9.05731 83.0538 8.88531 83.1978 8.74931C83.3418 8.60531 83.5258 8.53331 83.7498 8.53331C83.9338 8.53331 84.0978 8.60531 84.2418 8.74931C84.3938 8.88531 84.4698 9.05731 84.4698 9.26531V13.6093C84.4698 14.0093 84.5538 14.3573 84.7218 14.6533C84.8978 14.9413 85.1258 15.1653 85.4058 15.3253C85.6938 15.4853 85.9978 15.5653 86.3178 15.5653C86.6618 15.5653 86.9818 15.4853 87.2778 15.3253C87.5738 15.1653 87.8138 14.9413 87.9978 14.6533C88.1818 14.3573 88.2738 14.0093 88.2738 13.6093V9.26531C88.2738 9.05731 88.3338 8.88531 88.4538 8.74931C88.5738 8.60531 88.7378 8.53331 88.9458 8.53331ZM92.2828 16.9453C92.0748 16.9453 91.9028 16.8773 91.7668 16.7413C91.6308 16.5973 91.5628 16.4213 91.5628 16.2133V8.79731C91.5628 8.58931 91.6308 8.41731 91.7668 8.28131C91.9028 8.13731 92.0748 8.06531 92.2828 8.06531C92.4908 8.06531 92.6628 8.13731 92.7988 8.28131C92.9348 8.41731 93.0028 8.58931 93.0028 8.79731V16.2133C93.0028 16.4213 92.9348 16.5973 92.7988 16.7413C92.6628 16.8773 92.4908 16.9453 92.2828 16.9453ZM96.0988 10.5253C96.2828 10.5253 96.4428 10.6013 96.5788 10.7533C96.7148 10.9053 96.7828 11.0533 96.7828 11.1973C96.7828 11.3893 96.6868 11.5693 96.4948 11.7373L92.8828 15.0613L92.8228 13.4053L95.5708 10.7533C95.7228 10.6013 95.8988 10.5253 96.0988 10.5253ZM96.2788 16.9333C96.0708 16.9333 95.8948 16.8533 95.7508 16.6933L93.5308 14.3413L94.6228 13.3333L96.7828 15.6853C96.9348 15.8453 97.0108 16.0253 97.0108 16.2253C97.0108 16.4333 96.9268 16.6053 96.7588 16.7413C96.5988 16.8693 96.4388 16.9333 96.2788 16.9333ZM99.1148 16.9453C98.9068 16.9453 98.7348 16.8773 98.5988 16.7413C98.4628 16.5973 98.3948 16.4213 98.3948 16.2133V11.2573C98.3948 11.0493 98.4628 10.8773 98.5988 10.7413C98.7348 10.5973 98.9068 10.5253 99.1148 10.5253C99.3228 10.5253 99.4948 10.5973 99.6308 10.7413C99.7668 10.8773 99.8348 11.0493 99.8348 11.2573V12.3853L99.7508 11.5813C99.8388 11.3893 99.9508 11.2213 100.087 11.0773C100.231 10.9253 100.391 10.8013 100.567 10.7053C100.743 10.6013 100.931 10.5253 101.131 10.4773C101.331 10.4293 101.531 10.4053 101.731 10.4053C101.971 10.4053 102.171 10.4733 102.331 10.6093C102.499 10.7453 102.583 10.9053 102.583 11.0893C102.583 11.3533 102.515 11.5453 102.379 11.6653C102.243 11.7773 102.095 11.8333 101.935 11.8333C101.783 11.8333 101.643 11.8053 101.515 11.7493C101.395 11.6933 101.255 11.6653 101.095 11.6653C100.951 11.6653 100.803 11.7013 100.651 11.7733C100.507 11.8373 100.371 11.9413 100.243 12.0853C100.123 12.2293 100.023 12.4093 99.9428 12.6253C99.8708 12.8333 99.8348 13.0813 99.8348 13.3693V16.2133C99.8348 16.4213 99.7668 16.5973 99.6308 16.7413C99.4948 16.8773 99.3228 16.9453 99.1148 16.9453ZM108.833 10.4053C109.041 10.4053 109.213 10.4733 109.349 10.6093C109.485 10.7453 109.553 10.9213 109.553 11.1373V16.2133C109.553 16.4213 109.485 16.5973 109.349 16.7413C109.213 16.8773 109.041 16.9453 108.833 16.9453C108.625 16.9453 108.453 16.8773 108.317 16.7413C108.181 16.5973 108.113 16.4213 108.113 16.2133V15.6253L108.377 15.7333C108.377 15.8373 108.321 15.9653 108.209 16.1173C108.097 16.2613 107.945 16.4053 107.753 16.5493C107.561 16.6933 107.333 16.8173 107.069 16.9213C106.813 17.0173 106.533 17.0653 106.229 17.0653C105.677 17.0653 105.177 16.9253 104.729 16.6453C104.281 16.3573 103.925 15.9653 103.661 15.4693C103.405 14.9653 103.277 14.3893 103.277 13.7413C103.277 13.0853 103.405 12.5093 103.661 12.0133C103.925 11.5093 104.277 11.1173 104.717 10.8373C105.157 10.5493 105.645 10.4053 106.181 10.4053C106.525 10.4053 106.841 10.4573 107.129 10.5613C107.417 10.6653 107.665 10.7973 107.873 10.9573C108.089 11.1173 108.253 11.2813 108.365 11.4493C108.485 11.6093 108.545 11.7453 108.545 11.8573L108.113 12.0133V11.1373C108.113 10.9293 108.181 10.7573 108.317 10.6213C108.453 10.4773 108.625 10.4053 108.833 10.4053ZM106.409 15.7453C106.761 15.7453 107.069 15.6573 107.333 15.4813C107.597 15.3053 107.801 15.0653 107.945 14.7613C108.097 14.4573 108.173 14.1173 108.173 13.7413C108.173 13.3573 108.097 13.0133 107.945 12.7093C107.801 12.4053 107.597 12.1653 107.333 11.9893C107.069 11.8133 106.761 11.7253 106.409 11.7253C106.065 11.7253 105.761 11.8133 105.497 11.9893C105.233 12.1653 105.025 12.4053 104.873 12.7093C104.729 13.0133 104.657 13.3573 104.657 13.7413C104.657 14.1173 104.729 14.4573 104.873 14.7613C105.025 15.0653 105.233 15.3053 105.497 15.4813C105.761 15.6573 106.065 15.7453 106.409 15.7453ZM112.588 16.2133C112.588 16.4213 112.52 16.5973 112.384 16.7413C112.248 16.8773 112.076 16.9453 111.868 16.9453C111.66 16.9453 111.488 16.8773 111.352 16.7413C111.216 16.5973 111.148 16.4213 111.148 16.2133V11.2573C111.148 11.0493 111.216 10.8773 111.352 10.7413C111.488 10.5973 111.66 10.5253 111.868 10.5253C112.076 10.5253 112.248 10.5973 112.384 10.7413C112.52 10.8773 112.588 11.0493 112.588 11.2573V16.2133ZM111.856 9.74531C111.584 9.74531 111.392 9.70131 111.28 9.61331C111.168 9.52531 111.112 9.36931 111.112 9.14531V8.91731C111.112 8.68531 111.172 8.52931 111.292 8.44931C111.42 8.36131 111.612 8.31731 111.868 8.31731C112.148 8.31731 112.344 8.36131 112.456 8.44931C112.568 8.53731 112.624 8.69331 112.624 8.91731V9.14531C112.624 9.37731 112.564 9.53731 112.444 9.62531C112.324 9.70531 112.128 9.74531 111.856 9.74531ZM117.62 10.4053C118.212 10.4053 118.66 10.5293 118.964 10.7773C119.276 11.0253 119.488 11.3573 119.6 11.7733C119.72 12.1813 119.78 12.6373 119.78 13.1413V16.2133C119.78 16.4213 119.712 16.5973 119.576 16.7413C119.44 16.8773 119.268 16.9453 119.06 16.9453C118.852 16.9453 118.68 16.8773 118.544 16.7413C118.408 16.5973 118.34 16.4213 118.34 16.2133V13.1413C118.34 12.8773 118.304 12.6413 118.232 12.4333C118.168 12.2173 118.048 12.0453 117.872 11.9173C117.696 11.7893 117.444 11.7253 117.116 11.7253C116.796 11.7253 116.524 11.7893 116.3 11.9173C116.084 12.0453 115.916 12.2173 115.796 12.4333C115.684 12.6413 115.628 12.8773 115.628 13.1413V16.2133C115.628 16.4213 115.56 16.5973 115.424 16.7413C115.288 16.8773 115.116 16.9453 114.908 16.9453C114.7 16.9453 114.528 16.8773 114.392 16.7413C114.256 16.5973 114.188 16.4213 114.188 16.2133V11.2573C114.188 11.0493 114.256 10.8773 114.392 10.7413C114.528 10.5973 114.7 10.5253 114.908 10.5253C115.116 10.5253 115.288 10.5973 115.424 10.7413C115.56 10.8773 115.628 11.0493 115.628 11.2573V11.7733L115.448 11.7373C115.52 11.6013 115.624 11.4573 115.76 11.3053C115.896 11.1453 116.056 10.9973 116.24 10.8613C116.424 10.7253 116.632 10.6173 116.864 10.5373C117.096 10.4493 117.348 10.4053 117.62 10.4053ZM124.481 17.0653C123.801 17.0653 123.209 16.9253 122.705 16.6453C122.209 16.3573 121.825 15.9693 121.553 15.4813C121.289 14.9933 121.157 14.4413 121.157 13.8253C121.157 13.1053 121.301 12.4933 121.589 11.9893C121.885 11.4773 122.269 11.0853 122.741 10.8133C123.213 10.5413 123.713 10.4053 124.241 10.4053C124.649 10.4053 125.033 10.4893 125.393 10.6573C125.761 10.8253 126.085 11.0573 126.365 11.3533C126.645 11.6413 126.865 11.9773 127.025 12.3613C127.193 12.7453 127.277 13.1533 127.277 13.5853C127.269 13.7773 127.193 13.9333 127.049 14.0533C126.905 14.1733 126.737 14.2333 126.545 14.2333H121.961L121.601 13.0333H126.005L125.741 13.2733V12.9493C125.725 12.7173 125.641 12.5093 125.489 12.3253C125.345 12.1413 125.161 11.9973 124.937 11.8933C124.721 11.7813 124.489 11.7253 124.241 11.7253C124.001 11.7253 123.777 11.7573 123.569 11.8213C123.361 11.8853 123.181 11.9933 123.029 12.1453C122.877 12.2973 122.757 12.5013 122.669 12.7573C122.581 13.0133 122.537 13.3373 122.537 13.7293C122.537 14.1613 122.625 14.5293 122.801 14.8333C122.985 15.1293 123.217 15.3573 123.497 15.5173C123.785 15.6693 124.089 15.7453 124.409 15.7453C124.705 15.7453 124.941 15.7213 125.117 15.6733C125.293 15.6253 125.433 15.5693 125.537 15.5053C125.649 15.4333 125.749 15.3733 125.837 15.3253C125.981 15.2533 126.117 15.2173 126.245 15.2173C126.421 15.2173 126.565 15.2773 126.677 15.3973C126.797 15.5173 126.857 15.6573 126.857 15.8173C126.857 16.0333 126.745 16.2293 126.521 16.4053C126.313 16.5813 126.021 16.7373 125.645 16.8733C125.269 17.0013 124.881 17.0653 124.481 17.0653Z" fill="white"/>
<defs>
<linearGradient id="paint0_linear_1104_2545" x1="67.5363" y1="0.945312" x2="67.6219" y2="23.9211" gradientUnits="userSpaceOnUse">
<stop stop-color="#2F80ED"/>
<stop offset="0.588542" stop-color="#2F80ED"/>
<stop offset="0.765625" stop-color="#F2C94C"/>
<stop offset="1" stop-color="#F2C94C"/>
</linearGradient>
</defs>
</svg>
