<svg width="84" height="73" viewBox="0 0 84 73" fill="none" xmlns="http://www.w3.org/2000/svg">
<path d="M22.8601 38.5804H22.6053L17.5095 37.5612L16.7451 37.0516C16.7451 36.5421 16.7451 36.2873 16.9999 36.0325C18.9549 33.3501 21.2698 30.9496 23.8793 28.8984C29.2298 24.8217 34.5805 20.9999 41.9694 21.7642C42.479 21.7642 42.7337 22.2738 42.7337 22.7834C42.7337 23.0537 42.6263 23.3129 42.4352 23.504C42.2441 23.6952 41.9849 23.8025 41.7146 23.8025C35.3448 23.293 30.249 26.6052 25.1532 30.6819C22.9884 32.1266 21.0916 33.9371 19.5478 36.0325L23.1149 36.5421C23.6245 36.7969 24.134 37.3064 23.8793 37.816C23.6245 38.3256 23.3697 38.5804 22.8601 38.5804Z" fill="#00007E"/>
<path d="M40.1862 51.3212C39.9314 51.3212 39.6767 51.3212 39.6767 51.0664L27.9563 39.346C27.4468 39.0912 27.4467 38.5817 27.7015 38.0721C32.4561 30.6939 38.3962 24.1513 45.282 18.708C49.8057 15.1509 55.1496 12.7856 60.8243 11.8287C61.6905 11.6997 62.5749 11.7755 63.4066 12.05C64.2383 12.3245 64.9941 12.7901 65.6134 13.4094C66.2326 14.0286 66.6982 14.7844 66.9727 15.6161C67.2472 16.4478 67.323 17.3322 67.194 18.1985C66.1867 23.8578 63.8266 29.1899 60.3147 33.7407C54.8715 40.6265 48.3288 46.5666 40.9506 51.3212H40.1862ZM29.7399 38.5817L40.441 49.0281C47.4729 44.6169 53.681 39.0124 58.7859 32.4667C62.1024 28.2121 64.3717 23.2372 65.4105 17.9437C65.496 17.355 65.4429 16.7545 65.2555 16.19C65.068 15.6255 64.7514 15.1125 64.3308 14.6919C63.9102 14.2713 63.3972 13.9547 62.8327 13.7673C62.2682 13.5798 61.6677 13.5267 61.0791 13.6122C55.7672 14.5935 50.7791 16.8687 46.556 20.2368C39.9191 25.3193 34.2272 31.5287 29.7399 38.5817Z" fill="#00007E"/>
<path d="M42.9878 61.767H42.4783C42.2235 61.5122 41.9687 61.2574 41.9687 61.0026L40.6947 55.9068C40.4399 55.3973 40.9495 54.8877 41.4591 54.6329C41.7247 54.611 41.9905 54.673 42.219 54.8101C42.4475 54.9473 42.6273 55.1526 42.733 55.3973L43.4974 58.9643C45.239 57.3921 46.8575 55.6885 48.3384 53.8685C52.1603 48.7727 55.7273 43.6769 55.2178 37.0524C55.2178 36.7821 55.3251 36.5228 55.5163 36.3317C55.7074 36.1406 55.9666 36.0332 56.2369 36.0332C56.5072 36.0332 56.7665 36.1406 56.9576 36.3317C57.1487 36.5228 57.2561 36.7821 57.2561 37.0524C57.7657 44.1865 54.1986 49.5371 49.8672 55.1425C48.006 57.5126 45.8675 59.6511 43.4974 61.5122L42.9878 61.767Z" fill="#00007E"/>
<path d="M64.1355 26.3514H63.8807C61.0369 25.9817 58.3952 24.6817 56.3674 22.6539C54.3396 20.6261 53.0396 17.9844 52.6699 15.1406H54.4534C54.8608 17.5349 56.0179 19.7379 57.758 21.4322C59.4981 23.1265 61.7312 24.2245 64.1355 24.5679C64.3945 24.6838 64.622 24.8599 64.7992 25.0815C64.9765 25.3031 65.0983 25.5637 65.1546 25.8418C64.8998 26.0966 64.6451 26.3514 64.1355 26.3514Z" fill="#00007E"/>
<path d="M45.0269 48.2644C44.8918 48.2644 44.7622 48.2107 44.6666 48.1151C44.571 48.0196 44.5173 47.89 44.5173 47.7548L31.0134 34.5057C30.9016 34.3121 30.8428 34.0924 30.8428 33.8687C30.8428 33.6451 30.9016 33.4254 31.0134 33.2318C31.1091 33.1233 31.2267 33.0365 31.3585 32.977C31.4903 32.9175 31.6332 32.8867 31.7778 32.8867C31.9224 32.8867 32.0653 32.9175 32.1971 32.977C32.3289 33.0365 32.4465 33.1233 32.5422 33.2318L45.7913 46.4809C45.8964 46.5506 45.9826 46.6452 46.0422 46.7564C46.1019 46.8675 46.1331 46.9917 46.1331 47.1178C46.1331 47.244 46.1019 47.3681 46.0422 47.4793C45.9826 47.5904 45.8964 47.6851 45.7913 47.7548L45.0269 48.2644Z" fill="#00007E"/>
<path d="M27.6999 55.907C26.4889 55.9746 25.2765 55.8014 24.1329 55.3974C24.066 55.3974 23.9997 55.3842 23.9379 55.3586C23.876 55.333 23.8198 55.2955 23.7725 55.2481C23.7252 55.2008 23.6877 55.1447 23.6621 55.0828C23.6365 55.021 23.6233 54.9547 23.6233 54.8878C23.1507 53.7059 22.9294 52.4386 22.9732 51.1666C23.0171 49.8945 23.3252 48.6454 23.8781 47.4989C25.177 45.6002 27.0533 44.1707 29.2287 43.4223C29.4943 43.4004 29.7601 43.4624 29.9886 43.5995C30.2171 43.7366 30.3969 43.942 30.5026 44.1866C30.5026 44.951 30.2478 45.4606 29.7382 45.4606C28.0598 45.9641 26.6149 47.0477 25.6616 48.5181C25.2377 49.2933 24.9946 50.1543 24.9505 51.0368C24.9064 51.9192 25.0624 52.8002 25.4068 53.6139C27.0753 54.1853 28.8995 54.0941 30.5026 53.3591C31.9729 52.4057 33.0566 50.9609 33.5601 49.2824C33.5601 48.7729 34.0697 48.5181 34.5792 48.5181C35.0888 48.5181 35.5984 49.2824 35.3436 49.792C34.7977 51.9973 33.4308 53.911 31.5218 55.1426C30.3253 55.6932 29.0162 55.955 27.6999 55.907Z" fill="#00007E"/>
<path d="M51.3959 30.9353C50.9582 30.9778 50.517 30.9062 50.1152 30.7276C49.7134 30.549 49.3646 30.2695 49.1028 29.9162C48.511 29.2994 48.1807 28.4778 48.1807 27.623C48.1807 26.7683 48.511 25.9467 49.1028 25.3299C49.3614 24.9619 49.7048 24.6616 50.1039 24.4543C50.503 24.2469 50.9461 24.1387 51.3959 24.1387C51.8457 24.1387 52.2888 24.2469 52.6879 24.4543C53.0871 24.6616 53.4304 24.9619 53.689 25.3299C54.2807 25.9467 54.6111 26.7683 54.6111 27.623C54.6111 28.4778 54.2807 29.2994 53.689 29.9162C53.4272 30.2695 53.0785 30.549 52.6766 30.7276C52.2748 30.9062 51.8336 30.9778 51.3959 30.9353ZM51.3959 26.3491H50.3767C50.146 26.5555 49.9833 26.8271 49.9103 27.128C49.8373 27.4289 49.8573 27.7448 49.9678 28.034C50.0783 28.3233 50.274 28.5721 50.529 28.7477C50.784 28.9233 51.0863 29.0173 51.3959 29.0173C51.7055 29.0173 52.0078 28.9233 52.2628 28.7477C52.5179 28.5721 52.7135 28.3233 52.824 28.034C52.9345 27.7448 52.9545 27.4289 52.8815 27.128C52.8085 26.8271 52.6458 26.5555 52.4151 26.3491H51.3959Z" fill="#00007E"/>
<path d="M44.262 38.071C43.4047 37.999 42.5968 37.64 41.9689 37.0518C41.5283 36.5801 41.2351 35.9899 41.1254 35.3538C41.0156 34.7177 41.0942 34.0634 41.3513 33.4713C41.6085 32.8792 42.033 32.3752 42.5727 32.0212C43.1125 31.6671 43.7439 31.4785 44.3894 31.4785C45.0349 31.4785 45.6664 31.6671 46.2061 32.0212C46.7459 32.3752 47.1704 32.8792 47.4275 33.4713C47.6847 34.0634 47.7632 34.7177 47.6535 35.3538C47.5438 35.9899 47.2506 36.5801 46.8099 37.0518C46.0845 37.6436 45.1954 37.9993 44.262 38.071ZM44.262 33.23L43.4976 33.7395C43.3169 33.9167 43.1931 34.1436 43.1418 34.3914C43.0906 34.6392 43.1144 34.8967 43.21 35.131C43.3057 35.3652 43.469 35.5657 43.679 35.7068C43.8891 35.8479 44.1364 35.9233 44.3894 35.9233C44.6425 35.9233 44.8898 35.8479 45.0998 35.7068C45.3099 35.5657 45.4732 35.3652 45.5688 35.131C45.6645 34.8967 45.6882 34.6392 45.637 34.3914C45.5858 34.1436 45.4619 33.9167 45.2812 33.7395L44.262 33.23Z" fill="#00007E"/>
</svg>
