<svg width="84" height="73" viewBox="0 0 84 73" fill="none" xmlns="http://www.w3.org/2000/svg">
<path d="M61.1733 14.9175C61.1733 45.5335 64.575 38.4732 41.9821 59.0764C20.2877 39.3718 22.7267 46.2395 22.7267 14.9175C29.8298 16.2012 36.2483 14.9175 41.9821 11.0664C46.7959 15.11 53.3427 16.0728 61.1733 14.9175ZM56.9371 31.6055C57.0655 31.5413 57.0655 31.4129 57.0655 31.2845C57.0358 31.1936 56.9734 31.1169 56.8903 31.0695C56.8073 31.022 56.7096 31.0072 56.6162 31.0278L55.1399 31.3487L54.4339 30.0651C54.4073 30.0034 54.362 29.9517 54.3044 29.9171C54.2468 29.8826 54.1799 29.867 54.113 29.8725C53.9204 29.8083 53.792 29.9367 53.792 30.1292L53.5995 31.6697L52.1232 31.9906C52.0673 31.9973 52.0141 32.0186 51.9691 32.0524C51.924 32.0862 51.8886 32.1313 51.8665 32.1831C51.8458 32.2248 51.8345 32.2704 51.8332 32.3169C51.8319 32.3633 51.8407 32.4095 51.859 32.4523C51.8773 32.495 51.9047 32.5332 51.9392 32.5643C51.9738 32.5955 52.0146 32.6187 52.0591 32.6324L53.4711 33.2101L53.2786 34.7505C53.2735 34.8103 53.2824 34.8705 53.3047 34.9262C53.327 34.9819 53.362 35.0316 53.4069 35.0714C53.475 35.1225 53.5606 35.1444 53.6449 35.1324C53.7291 35.1204 53.8052 35.0753 53.8562 35.0072L54.8832 33.9161L56.2311 34.4938C56.2896 34.5276 56.356 34.5454 56.4236 34.5454C56.4912 34.5454 56.5576 34.5276 56.6162 34.4938C56.6767 34.4378 56.7207 34.3664 56.7433 34.2871C56.766 34.2079 56.7664 34.1239 56.7445 34.0445L55.9743 32.6966L56.9371 31.6055ZM53.7279 23.5824C53.7525 23.5408 53.7649 23.493 53.7636 23.4447C53.7624 23.3963 53.7474 23.3493 53.7206 23.3091C53.6938 23.2689 53.6561 23.237 53.612 23.2172C53.5678 23.1975 53.519 23.1905 53.4711 23.1973L51.9949 22.748V21.2718C51.9774 21.1757 51.9328 21.0866 51.8665 21.015C51.7882 20.96 51.6923 20.9362 51.5974 20.948C51.5025 20.9599 51.4154 21.0067 51.353 21.0792L50.5828 22.3629L49.1066 21.9778C49.054 21.9495 48.9931 21.9404 48.9346 21.9521C48.876 21.9638 48.8233 21.9956 48.7857 22.042C48.7519 22.0673 48.7235 22.0989 48.7021 22.1352C48.6806 22.1714 48.6665 22.2116 48.6605 22.2533C48.6545 22.2951 48.6569 22.3375 48.6673 22.3783C48.6778 22.4192 48.6962 22.4575 48.7215 22.4912L49.6842 23.7108L48.8498 24.9303C48.816 24.9888 48.7982 25.0552 48.7982 25.1228C48.7982 25.1904 48.816 25.2568 48.8498 25.3154C48.8909 25.3945 48.9581 25.4569 49.04 25.4921C49.1219 25.5272 49.2135 25.5328 49.2991 25.5079L50.7112 24.9303L51.6098 26.1498H51.9307C52.0158 26.1498 52.0974 26.116 52.1576 26.0558C52.2178 25.9956 52.2516 25.914 52.2516 25.8288V24.3526L53.6637 23.8391L53.7279 23.5824ZM53.4711 42.2601C53.4964 42.2264 53.5148 42.188 53.5253 42.1472C53.5357 42.1063 53.538 42.0639 53.5321 42.0222C53.5261 41.9804 53.512 41.9403 53.4905 41.904C53.4691 41.8678 53.4407 41.8361 53.4069 41.8108L52.1232 40.9764L52.5083 39.5001C52.5725 39.436 52.5084 39.3076 52.4442 39.1792C52.3842 39.1204 52.3035 39.0875 52.2195 39.0875C52.1355 39.0875 52.0549 39.1204 51.9949 39.1792L50.7754 40.142L49.5559 39.3076C49.4275 39.2434 49.2991 39.1792 49.2349 39.2434C49.1905 39.2572 49.1496 39.2804 49.1151 39.3115C49.0805 39.3426 49.0532 39.3809 49.0349 39.4236C49.0165 39.4663 49.0077 39.5125 49.009 39.559C49.0103 39.6055 49.0217 39.6511 49.0424 39.6927L49.5559 41.1048L48.4005 42.0675C48.356 42.0927 48.32 42.1305 48.2971 42.1763C48.2743 42.222 48.2656 42.2736 48.2722 42.3243C48.2722 42.5168 48.4005 42.7094 48.5931 42.6452H50.1335L50.647 44.0573C50.6985 44.1713 50.7897 44.2625 50.9037 44.314C50.996 44.3227 51.0886 44.3028 51.1691 44.2568C51.2495 44.2109 51.3137 44.1412 51.353 44.0573L51.7381 42.581H53.2144C53.3427 42.4527 53.4069 42.3885 53.4711 42.2601ZM46.4108 37.1253V30.4501H44.4211V28.7814C44.3109 28.0001 43.9223 27.285 43.3267 26.7676C42.7311 26.2501 41.9687 25.9652 41.1798 25.9652C40.3908 25.9652 39.6284 26.2501 39.0329 26.7676C38.4373 27.285 38.0487 28.0001 37.9385 28.7814V30.4501H36.0129V37.1895C36.0129 37.4619 36.1211 37.7231 36.3137 37.9157C36.5063 38.1083 36.7675 38.2165 37.0399 38.2165H45.2555C45.5511 38.2169 45.8356 38.1041 46.0506 37.9011C46.2655 37.6981 46.3944 37.4205 46.4108 37.1253ZM44.6137 44.6349C44.6383 44.5933 44.6507 44.5456 44.6494 44.4972C44.6481 44.4489 44.6332 44.4019 44.6064 44.3616C44.5796 44.3214 44.5419 44.2895 44.4978 44.2698C44.4536 44.25 44.4048 44.2431 44.3569 44.2498L42.8165 44.1214L42.4956 42.6452C42.4956 42.5168 42.4314 42.3884 42.303 42.3884C42.2244 42.3576 42.1378 42.3535 42.0567 42.3767C41.9755 42.3999 41.9042 42.4491 41.8537 42.5168L41.2761 43.9289L39.7356 43.7363L39.4789 43.8647C39.4157 43.9353 39.3808 44.0267 39.3808 44.1214C39.3808 44.2162 39.4157 44.3076 39.4789 44.3782L40.6342 45.4051L39.9924 46.753C39.9559 46.7986 39.936 46.8552 39.936 46.9135C39.936 46.9718 39.9559 47.0284 39.9924 47.074C40.1207 47.2665 40.3133 47.3307 40.4417 47.2023L41.7895 46.4321L42.8807 47.459C42.9383 47.4924 43.0036 47.5102 43.0701 47.5108C43.1367 47.5113 43.2023 47.4946 43.2604 47.4623C43.3186 47.43 43.3675 47.3831 43.4021 47.3263C43.4368 47.2695 43.4562 47.2046 43.4583 47.1381L43.1374 45.6619L44.4853 44.8917C44.5251 44.8618 44.5575 44.823 44.5798 44.7784C44.6021 44.7339 44.6137 44.6847 44.6137 44.6349ZM44.5495 21.0792C44.6083 21.0192 44.6412 20.9385 44.6412 20.8545C44.6412 20.7705 44.6083 20.6899 44.5495 20.6299L43.3941 19.6029L44.036 18.2551V17.9342C44.0178 17.8853 43.988 17.8416 43.9492 17.8069C43.9103 17.7721 43.8636 17.7474 43.8131 17.7348C43.7625 17.7221 43.7096 17.722 43.659 17.7344C43.6084 17.7467 43.5615 17.7712 43.5225 17.8058L42.2388 18.5118L41.1477 17.5491L40.8268 17.4207C40.736 17.4572 40.6576 17.5189 40.6008 17.5985C40.5439 17.6781 40.511 17.7723 40.5058 17.87L40.8268 19.3462L39.5431 20.0522C39.4451 20.1349 39.3773 20.2478 39.3505 20.3732C39.3492 20.4651 39.3809 20.5545 39.4397 20.6251C39.4986 20.6957 39.5808 20.743 39.6714 20.7583L41.2119 20.8866L41.4686 22.3629L41.6612 22.6196C41.7028 22.6403 41.7484 22.6517 41.7949 22.653C41.8414 22.6543 41.8876 22.6455 41.9303 22.6271C41.973 22.6088 42.0113 22.5815 42.0424 22.5469C42.0735 22.5124 42.0967 22.4715 42.1105 22.4271L42.7523 21.015L44.2927 21.2076C44.3434 21.2142 44.395 21.2055 44.4407 21.1826C44.4865 21.1597 44.5243 21.1238 44.5495 21.0792ZM35.3069 42.9661C35.3701 42.8955 35.405 42.8041 35.405 42.7094C35.405 42.6146 35.3701 42.5233 35.3069 42.4527L34.4083 41.2973L35.1785 40.0137C35.2249 39.976 35.2567 39.9233 35.2684 39.8647C35.2801 39.8062 35.271 39.7453 35.2427 39.6927C35.229 39.6483 35.2057 39.6074 35.1746 39.5729C35.1435 39.5383 35.1053 39.5109 35.0626 39.4926C35.0198 39.4743 34.9736 39.4655 34.9272 39.4668C34.8807 39.4681 34.8351 39.4795 34.7934 39.5001L33.3814 40.0778L32.4186 38.8583L32.1619 38.73C32.0712 38.7453 31.989 38.7925 31.9302 38.8631C31.8713 38.9337 31.8396 39.0231 31.8409 39.1151V40.5913L30.4289 41.169C30.3778 41.169 30.3288 41.1892 30.2927 41.2253C30.2566 41.2614 30.2363 41.3104 30.2363 41.3615C30.2115 41.4471 30.2171 41.5387 30.2522 41.6206C30.2873 41.7025 30.3497 41.7698 30.4289 41.8108L31.9051 42.1959V43.6721C31.8996 43.7391 31.9152 43.806 31.9498 43.8636C31.9843 43.9212 32.036 43.9664 32.0977 43.9931C32.226 44.0572 32.4828 44.0573 32.547 43.8647L33.3814 42.581L34.8576 42.9661C34.8798 43.0063 34.9123 43.0397 34.9519 43.063C34.9914 43.0863 35.0364 43.0986 35.0822 43.0986C35.1281 43.0986 35.1731 43.0863 35.2126 43.063C35.2521 43.0397 35.2847 43.0063 35.3069 42.9661ZM35.1143 23.9675C35.1785 23.8392 35.2427 23.775 35.2427 23.6466C35.2427 23.5445 35.2021 23.4465 35.1299 23.3743C35.0577 23.302 34.9597 23.2615 34.8576 23.2615L33.1888 23.3898L32.6111 21.8494C32.5597 21.7354 32.4684 21.6441 32.3544 21.5927C32.261 21.572 32.1633 21.5869 32.0802 21.6343C31.9972 21.6818 31.9347 21.7584 31.9051 21.8494L31.4558 23.454H29.8512C29.7843 23.4485 29.7173 23.4641 29.6598 23.4987C29.6022 23.5332 29.5569 23.585 29.5303 23.6466C29.4957 23.6856 29.4712 23.7325 29.4588 23.7831C29.4465 23.8337 29.4466 23.8866 29.4593 23.9371C29.4719 23.9877 29.4966 24.0344 29.5314 24.0733C29.5661 24.1121 29.6098 24.1419 29.6587 24.1601L31.0065 25.0586L30.6214 26.5991C30.5883 26.6614 30.5766 26.7329 30.5882 26.8025C30.5998 26.8721 30.6341 26.936 30.6856 26.9842C30.7479 27.0567 30.835 27.1035 30.93 27.1154C31.0249 27.1272 31.1208 27.1034 31.1991 27.0484L32.4828 26.0214L33.8307 26.8558C33.8948 26.92 34.0874 26.9842 34.1516 26.92C34.2016 26.9143 34.2496 26.8968 34.2917 26.8691C34.3338 26.8414 34.3687 26.8041 34.3937 26.7604C34.4187 26.7166 34.4331 26.6676 34.4356 26.6173C34.4381 26.567 34.4288 26.5167 34.4083 26.4707L33.8307 24.9303L35.1143 23.9675ZM32.0977 32.825C32.1201 32.7874 32.1345 32.7456 32.1402 32.7022C32.1458 32.6588 32.1425 32.6147 32.1305 32.5726C32.1185 32.5305 32.098 32.4913 32.0703 32.4575C32.0425 32.4236 32.0082 32.3958 31.9693 32.3757L30.5572 31.7338L30.7498 30.2576C30.7454 30.139 30.7 30.0256 30.6214 29.9367C30.5508 29.8735 30.4594 29.8386 30.3647 29.8386C30.27 29.8386 30.1786 29.8735 30.1079 29.9367L29.081 31.092L27.7331 30.4501H27.4122C27.3445 30.5006 27.2953 30.5719 27.2721 30.6531C27.2489 30.7343 27.253 30.8208 27.2838 30.8994L28.054 32.1831L27.0271 33.3384C26.9807 33.3761 26.9489 33.4288 26.9372 33.4874C26.9255 33.5459 26.9346 33.6068 26.9629 33.6594C26.9978 33.7331 27.052 33.7959 27.1199 33.8411C27.1877 33.8864 27.2666 33.9123 27.348 33.9161L28.8243 33.5952L29.5945 34.8789C29.6587 35.0073 29.7228 35.0714 29.8512 35.0714C29.9431 35.0727 30.0325 35.0411 30.1031 34.9822C30.1738 34.9233 30.221 34.8412 30.2363 34.7505L30.4289 33.2743L31.8409 32.9534C31.9693 33.0175 32.0977 32.9533 32.0977 32.825Z" stroke="#00007E" stroke-width="1.3" stroke-linecap="round" stroke-linejoin="round"/>
<path d="M46.4106 30.4492V37.1244C46.3942 37.4196 46.2652 37.6972 46.0503 37.9002C45.8354 38.1031 45.5509 38.216 45.2553 38.2155H37.0397C36.7673 38.2155 36.5061 38.1073 36.3135 37.9147C36.1209 37.7222 36.0127 37.461 36.0127 37.1886V30.4492H46.4106Z" stroke="#00007E" stroke-width="1.3" stroke-linecap="round" stroke-linejoin="round"/>
<path d="M44.4211 28.781V30.4498H37.9385V28.781C38.0487 27.9998 38.4373 27.2847 39.0329 26.7672C39.6284 26.2498 40.3908 25.9648 41.1798 25.9648C41.9687 25.9648 42.7312 26.2498 43.3267 26.7672C43.9223 27.2847 44.3109 27.9998 44.4211 28.781Z" stroke="#00007E" stroke-width="1.3" stroke-linecap="round" stroke-linejoin="round"/>
<path d="M57.0654 31.2823C57.0654 31.4106 57.0654 31.539 56.9371 31.6032L55.9743 32.6943L56.7445 34.0422C56.7664 34.1217 56.766 34.2056 56.7433 34.2849C56.7207 34.3641 56.6767 34.4356 56.6161 34.4915C56.5576 34.5253 56.4912 34.5431 56.4236 34.5431C56.356 34.5431 56.2896 34.5253 56.231 34.4915L54.8832 33.9139L53.8562 35.005C53.8051 35.0731 53.7291 35.1181 53.6449 35.1301C53.5606 35.1422 53.475 35.1202 53.4069 35.0692C53.362 35.0294 53.327 34.9796 53.3047 34.9239C53.2824 34.8682 53.2735 34.8081 53.2785 34.7483L53.4711 33.2078L52.059 32.6302C52.0146 32.6164 51.9737 32.5932 51.9392 32.5621C51.9046 32.531 51.8773 32.4927 51.8589 32.45C51.8406 32.4073 51.8318 32.3611 51.8331 32.3146C51.8344 32.2682 51.8458 32.2225 51.8665 32.1809C51.8886 32.1291 51.924 32.084 51.9691 32.0502C52.0141 32.0164 52.0673 31.9951 52.1232 31.9883L53.5995 31.6674L53.792 30.127C53.792 29.9344 53.9204 29.806 54.1129 29.8702C54.1799 29.8647 54.2468 29.8803 54.3044 29.9149C54.3619 29.9494 54.4072 30.0012 54.4339 30.0628L55.1399 31.3465L56.6161 31.0256C56.7095 31.0049 56.8073 31.0197 56.8903 31.0672C56.9734 31.1147 57.0358 31.1913 57.0654 31.2823ZM55.2683 32.4376L55.7176 31.9241L55.0757 32.0525C55.0431 32.0743 55.006 32.0884 54.9672 32.0936C54.9284 32.0988 54.8889 32.0951 54.8517 32.0827C54.8145 32.0704 54.7807 32.0496 54.7527 32.0221C54.7248 31.9946 54.7036 31.9611 54.6906 31.9241L54.3697 31.2823L54.2413 31.9883C54.2428 32.0634 54.218 32.1366 54.1711 32.1953C54.1241 32.2539 54.0582 32.2943 53.9846 32.3093L53.2785 32.4376L53.9204 32.6943C53.9629 32.702 54.0035 32.7181 54.0397 32.7418C54.0758 32.7655 54.1068 32.7962 54.1308 32.8322C54.1548 32.8682 54.1712 32.9086 54.1792 32.9511C54.1871 32.9936 54.1865 33.0372 54.1771 33.0794L54.0488 33.7855L54.5622 33.272C54.6018 33.2095 54.6617 33.1626 54.7319 33.1392C54.8021 33.1158 54.8782 33.1174 54.9473 33.1436L55.5892 33.4646L55.2041 32.8227C55.1709 32.7604 55.1593 32.6889 55.1709 32.6193C55.1825 32.5497 55.2167 32.4858 55.2683 32.4376Z" fill="#00007E"/>
<path d="M55.7183 31.925L55.269 32.4385C55.2175 32.4867 55.1832 32.5506 55.1716 32.6202C55.16 32.6898 55.1717 32.7613 55.2048 32.8236L55.5899 33.4655L54.9481 33.1446C54.8789 33.1183 54.8028 33.1167 54.7327 33.1401C54.6625 33.1635 54.6026 33.2104 54.563 33.2729L54.0495 33.7864L54.1779 33.0804C54.1872 33.0382 54.1879 32.9945 54.1799 32.952C54.172 32.9095 54.1555 32.8691 54.1315 32.8331C54.1076 32.7972 54.0766 32.7664 54.0404 32.7428C54.0042 32.7191 53.9637 32.7029 53.9211 32.6953L53.2793 32.4385L53.9853 32.3102C54.0589 32.2952 54.1249 32.2548 54.1718 32.1962C54.2187 32.1375 54.2436 32.0643 54.2421 31.9893L54.3704 31.2832L54.6914 31.925C54.7043 31.962 54.7256 31.9955 54.7535 32.023C54.7814 32.0505 54.8153 32.0713 54.8524 32.0837C54.8896 32.0961 54.9291 32.0998 54.968 32.0945C55.0068 32.0893 55.0439 32.0752 55.0765 32.0534L55.7183 31.925Z" fill="#00007E" stroke="#00007E" stroke-width="1.3" stroke-linecap="round" stroke-linejoin="round"/>
<path d="M53.4715 23.1959C53.5194 23.1891 53.5682 23.1961 53.6124 23.2158C53.6565 23.2356 53.6942 23.2675 53.721 23.3077C53.7478 23.3479 53.7627 23.3949 53.764 23.4433C53.7653 23.4916 53.7529 23.5394 53.7282 23.581L53.5357 23.8377L52.1236 24.3512V25.8917C52.1236 25.9768 52.0898 26.0584 52.0296 26.1186C51.9694 26.1787 51.8878 26.2126 51.8027 26.2126H51.4818L50.5832 24.9931L49.1711 25.5707C49.0855 25.5956 48.994 25.59 48.912 25.5549C48.8301 25.5198 48.7629 25.4573 48.7218 25.3781C48.688 25.3196 48.6703 25.2532 48.6703 25.1856C48.6703 25.118 48.688 25.0516 48.7218 24.9931L49.5562 23.7735L48.5935 22.5541C48.5682 22.5203 48.5498 22.482 48.5393 22.4411C48.5289 22.4003 48.5266 22.3578 48.5325 22.3161C48.5385 22.2744 48.5526 22.2343 48.5741 22.198C48.5955 22.1617 48.6239 22.13 48.6577 22.1048C48.6953 22.0584 48.748 22.0266 48.8066 22.0149C48.8652 22.0032 48.926 22.0123 48.9786 22.0406L50.4548 22.4257L51.225 21.142C51.2874 21.0694 51.3745 21.0226 51.4694 21.0108C51.5643 20.9989 51.6602 21.0228 51.7385 21.0778C51.8048 21.1494 51.8494 21.2385 51.8669 21.3345V22.8108L53.4715 23.1959ZM51.6102 23.8377L52.252 23.581L51.6102 23.3884C51.5449 23.3592 51.4876 23.3149 51.4429 23.259C51.3983 23.2032 51.3676 23.1376 51.3534 23.0675V22.3615L50.9683 22.9391C50.9553 22.9761 50.9341 23.0096 50.9062 23.0371C50.8782 23.0646 50.8444 23.0854 50.8072 23.0978C50.7701 23.1102 50.7305 23.1139 50.6917 23.1086C50.6529 23.1034 50.6158 23.0893 50.5832 23.0675L49.9414 22.9391L50.3907 23.4526C50.4548 23.581 50.519 23.7094 50.3907 23.8377L50.0055 24.4796L50.6474 24.2228C50.7194 24.1846 50.8017 24.1702 50.8825 24.1817C50.9632 24.1932 51.0382 24.2301 51.0967 24.287L51.4818 24.8647V24.1587C51.4176 24.0303 51.4818 23.8377 51.6102 23.8377Z" fill="#00007E"/>
<path d="M53.4074 41.8107C53.4411 41.8359 53.4695 41.8676 53.491 41.9039C53.5125 41.9402 53.5266 41.9803 53.5326 42.022C53.5385 42.0637 53.5362 42.1062 53.5258 42.147C53.5153 42.1878 53.4969 42.2262 53.4716 42.26C53.4074 42.3883 53.3432 42.4525 53.2149 42.4525H51.7386L51.3535 43.9287C51.3142 44.0126 51.25 44.0823 51.1695 44.1283C51.0891 44.1743 50.9964 44.1942 50.9042 44.1855C50.7902 44.134 50.6989 44.0427 50.6475 43.9287L50.134 42.5167H48.5936C48.401 42.5809 48.2727 42.3883 48.2727 42.1958C48.2661 42.145 48.2747 42.0935 48.2976 42.0478C48.3205 42.002 48.3565 41.9642 48.401 41.939L49.5563 40.9763L49.0429 39.5642C49.0222 39.5226 49.0108 39.4769 49.0095 39.4305C49.0082 39.384 49.017 39.3378 49.0353 39.2951C49.0537 39.2523 49.081 39.2141 49.1156 39.183C49.1501 39.1519 49.191 39.1286 49.2354 39.1149C49.2996 39.0507 49.428 39.1149 49.5563 39.1791L50.7759 40.0135L51.9954 39.0507C52.0554 38.9919 52.136 38.959 52.22 38.959C52.304 38.959 52.3847 38.9919 52.4447 39.0507C52.5088 39.1791 52.573 39.3075 52.5088 39.3717L52.1237 40.8479L53.4074 41.8107ZM51.4177 41.8107H52.1237L51.5461 41.4255C51.4836 41.386 51.4367 41.326 51.4133 41.2559C51.3899 41.1857 51.3914 41.1096 51.4177 41.0404L51.5461 40.3344L51.0326 40.7837C50.9844 40.8352 50.9205 40.8695 50.8509 40.8811C50.7813 40.8927 50.7098 40.881 50.6475 40.8479L50.0056 40.4628L50.2624 41.1046C50.2955 41.1669 50.3072 41.2384 50.2956 41.308C50.284 41.3777 50.2498 41.4415 50.1982 41.4897L49.6205 41.939H50.3266C50.4549 41.939 50.6475 42.0032 50.6475 42.1958L50.9042 42.8376L51.0968 42.1316C51.1611 41.9891 51.2752 41.875 51.4177 41.8107Z" fill="#00007E"/>
<path d="M52.2518 23.5808L51.6099 23.8376C51.4816 23.8376 51.4174 24.0301 51.4174 24.1585V24.8645L51.0323 24.2869C50.9738 24.23 50.8988 24.1931 50.8181 24.1815C50.7373 24.17 50.655 24.1844 50.583 24.2227L49.9411 24.4794L50.3262 23.8376C50.4546 23.7092 50.3904 23.5808 50.3262 23.4524L49.877 22.939L50.5188 23.0673C50.5514 23.0891 50.5885 23.1032 50.6273 23.1084C50.6661 23.1137 50.7056 23.11 50.7428 23.0976C50.78 23.0852 50.8138 23.0644 50.8418 23.0369C50.8697 23.0095 50.8909 22.9759 50.9039 22.939L51.289 22.3613V23.0673C51.3032 23.1374 51.3339 23.2031 51.3785 23.2589C51.4232 23.3147 51.4805 23.3591 51.5457 23.3883L52.2518 23.5808Z" fill="#00007E" stroke="#00007E" stroke-width="1.3" stroke-linecap="round" stroke-linejoin="round"/>
<path d="M52.1233 41.81H51.4173C51.2851 41.8581 51.1723 41.9482 51.0964 42.0667L50.9038 42.7727L50.6471 42.1309C50.6471 41.9383 50.4545 41.8741 50.3262 41.8741H49.6201L50.1978 41.4248C50.2493 41.3766 50.2836 41.3128 50.2952 41.2432C50.3068 41.1736 50.2951 41.1021 50.262 41.0398L50.0052 40.3979L50.6471 40.783C50.7094 40.8161 50.7809 40.8278 50.8505 40.8162C50.9201 40.8046 50.984 40.7704 51.0322 40.7188L51.5457 40.2695L51.4173 40.9756C51.391 41.0447 51.3895 41.1208 51.4128 41.191C51.4362 41.2612 51.4832 41.3211 51.5457 41.3607L52.1233 41.81Z" fill="#00007E" stroke="#00007E" stroke-width="1.3" stroke-linecap="round" stroke-linejoin="round"/>
<path d="M44.3569 44.2492C44.4048 44.2425 44.4537 44.2494 44.4978 44.2692C44.5419 44.289 44.5796 44.3208 44.6064 44.361C44.6333 44.4013 44.6482 44.4483 44.6495 44.4967C44.6507 44.545 44.6383 44.5927 44.6137 44.6343C44.6137 44.6842 44.6021 44.7333 44.5798 44.7779C44.5575 44.8224 44.5252 44.8612 44.4853 44.8911L43.1374 45.6613L43.4584 47.1375C43.4562 47.2041 43.4368 47.2689 43.4022 47.3257C43.3675 47.3825 43.3187 47.4294 43.2605 47.4617C43.2023 47.494 43.1367 47.5107 43.0702 47.5102C43.0036 47.5096 42.9383 47.4918 42.8807 47.4585L41.7896 46.4315L40.4417 47.2017C40.3133 47.3301 40.1208 47.2659 39.9924 47.0734C39.9559 47.0278 39.9361 46.9712 39.9361 46.9129C39.9361 46.8546 39.9559 46.798 39.9924 46.7525L40.6342 45.4046L39.4789 44.3776C39.4158 44.307 39.3809 44.2156 39.3809 44.1209C39.3809 44.0261 39.4158 43.9348 39.4789 43.8641L39.7357 43.7358L41.2761 43.9283L41.8538 42.5162C41.9042 42.4486 41.9755 42.3994 42.0567 42.3762C42.1379 42.353 42.2244 42.3571 42.303 42.3879C42.4314 42.3879 42.4956 42.5163 42.4956 42.6446L42.8165 44.1209L44.3569 44.2492ZM42.624 45.1478L43.2016 44.8269H42.4956C42.4255 44.8127 42.3599 44.782 42.3041 44.7374C42.2482 44.6927 42.2039 44.6354 42.1747 44.5702L42.0463 43.8641L41.7896 44.506C41.7518 44.5728 41.695 44.6268 41.6264 44.6611C41.5578 44.6954 41.4805 44.7084 41.4045 44.6985H40.6984L41.2119 45.1478C41.3403 45.2762 41.4045 45.4046 41.3403 45.5329L41.0193 46.1748L41.6612 45.8539H42.0463L42.5598 46.3673L42.4314 45.6613C42.4184 45.5665 42.4293 45.4699 42.4629 45.3803C42.4965 45.2906 42.5518 45.2108 42.624 45.1478Z" fill="#00007E"/>
<path d="M44.5496 20.6291C44.6084 20.6891 44.6413 20.7698 44.6413 20.8538C44.6413 20.9378 44.6084 21.0185 44.5496 21.0784C44.5244 21.123 44.4866 21.159 44.4408 21.1818C44.3951 21.2047 44.3436 21.2134 44.2928 21.2068L42.7524 21.0142L42.1106 22.4263C42.0968 22.4707 42.0736 22.5116 42.0425 22.5461C42.0114 22.5807 41.9731 22.6081 41.9304 22.6264C41.8877 22.6447 41.8415 22.6535 41.795 22.6522C41.7485 22.6509 41.7029 22.6395 41.6613 22.6189L41.4687 22.3621L41.212 20.8859L39.6715 20.7575C39.5809 20.7422 39.4987 20.695 39.4398 20.6243C39.381 20.5537 39.3493 20.4643 39.3506 20.3724C39.3774 20.247 39.4452 20.1341 39.5432 20.0515L40.8269 19.3455L40.5059 17.8692C40.5111 17.7715 40.544 17.6773 40.6009 17.5977C40.6577 17.5181 40.7361 17.4565 40.8269 17.4199L41.1478 17.5483L42.2389 18.5111L43.5226 17.805C43.5616 17.7705 43.6085 17.746 43.6591 17.7336C43.7097 17.7212 43.7626 17.7213 43.8132 17.734C43.8637 17.7466 43.9104 17.7714 43.9493 17.8061C43.9881 17.8409 44.0179 17.8846 44.0361 17.9334V18.2543L43.3943 19.6022L44.5496 20.6291ZM42.5598 20.3082L43.2659 20.4366L42.7524 19.9231C42.624 19.8589 42.624 19.6664 42.6882 19.538L42.945 18.8962L42.3673 19.2812C42.2953 19.3195 42.2129 19.3339 42.1322 19.3224C42.0514 19.3108 41.9764 19.274 41.918 19.2171L41.4045 18.7678L41.5971 19.4096C41.607 19.4857 41.594 19.563 41.5597 19.6316C41.5254 19.7002 41.4713 19.757 41.4045 19.7948L40.8269 20.1798H41.4687C41.5438 20.1783 41.617 20.2032 41.6757 20.2501C41.7343 20.297 41.7746 20.363 41.7896 20.4366L41.918 21.1426L42.2389 20.5008C42.2754 20.4475 42.323 20.4027 42.3784 20.3695C42.4338 20.3363 42.4957 20.3154 42.5598 20.3082Z" fill="#00007E"/>
<path d="M43.2662 20.4366L42.5601 20.3083C42.4901 20.3224 42.4244 20.3531 42.3686 20.3978C42.3128 20.4424 42.2684 20.4997 42.2392 20.565L41.9183 21.2068L41.7899 20.5008C41.7749 20.4272 41.7346 20.3613 41.6759 20.3143C41.6173 20.2674 41.5441 20.2425 41.469 20.2441H40.8271L41.4048 19.859C41.4716 19.8213 41.5256 19.7645 41.5599 19.6958C41.5942 19.6272 41.6073 19.5499 41.5974 19.4739L41.4048 18.832L41.9183 19.2813C41.9767 19.3382 42.0517 19.3751 42.1325 19.3866C42.2132 19.3982 42.2955 19.3838 42.3676 19.3455L42.9452 18.9604L42.6885 19.6022C42.6243 19.7306 42.6243 19.9232 42.7527 19.9873L43.2662 20.4366Z" fill="#00007E" stroke="#00007E" stroke-width="1.3" stroke-linecap="round" stroke-linejoin="round"/>
<path d="M43.2014 44.8275L42.6238 45.1484C42.5124 45.2472 42.4434 45.3851 42.4312 45.5335L42.5596 46.2395L42.0461 45.726H41.661L41.0192 46.047L41.3401 45.4051C41.4043 45.2767 41.3401 45.1484 41.2117 45.02L40.6982 44.5707H41.4043C41.4803 44.5806 41.5576 44.5676 41.6263 44.5333C41.6949 44.499 41.7517 44.445 41.7894 44.3782L42.0461 43.7363L42.1745 44.4423C42.2037 44.5076 42.2481 44.5649 42.3039 44.6096C42.3597 44.6542 42.4254 44.6849 42.4954 44.6991L43.2014 44.8275Z" fill="#00007E" stroke="#00007E" stroke-width="1.3" stroke-linecap="round" stroke-linejoin="round"/>
<path d="M35.3071 42.4512C35.3703 42.5218 35.4052 42.6132 35.4052 42.7079C35.4052 42.8027 35.3703 42.8941 35.3071 42.9647C35.2616 43.0011 35.205 43.021 35.1466 43.021C35.0883 43.021 35.0317 43.0011 34.9862 42.9647L33.5099 42.5796L32.6755 43.8633C32.6113 44.0558 32.3546 44.0558 32.2262 43.9916C32.1646 43.965 32.1129 43.9197 32.0783 43.8621C32.0438 43.8046 32.0282 43.7376 32.0337 43.6707V42.1945L30.5574 41.8094C30.4783 41.7683 30.4159 41.7011 30.3807 41.6192C30.3456 41.5372 30.34 41.4457 30.3649 41.3601C30.3649 41.309 30.3852 41.26 30.4213 41.2239C30.4574 41.1878 30.5064 41.1675 30.5574 41.1675L31.9695 40.5898V39.1136C31.9682 39.0217 31.9999 38.9323 32.0587 38.8617C32.1176 38.791 32.1998 38.7438 32.2904 38.7285L32.5472 38.8569L33.5099 40.0764L34.922 39.4987C34.9636 39.478 35.0093 39.4667 35.0557 39.4654C35.1022 39.4641 35.1484 39.4729 35.1911 39.4912C35.2339 39.5095 35.2721 39.5369 35.3032 39.5714C35.3343 39.606 35.3575 39.6469 35.3713 39.6913C35.3996 39.7439 35.4087 39.8047 35.397 39.8633C35.3852 39.9219 35.3535 39.9745 35.3071 40.0122L34.5369 41.2959L35.3071 42.4512ZM34.1518 42.0661L33.7025 41.4884C33.5741 41.4243 33.5741 41.2317 33.6383 41.1033L34.0234 40.5257L33.3816 40.7824C33.2532 40.8466 33.1248 40.7824 32.9965 40.6541L32.5472 40.1405V40.7824C32.5565 40.8246 32.5572 40.8683 32.5492 40.9108C32.5413 40.9533 32.5248 40.9937 32.5008 41.0296C32.4768 41.0656 32.4458 41.0963 32.4097 41.12C32.3735 41.1437 32.333 41.1599 32.2904 41.1675L31.6486 41.4242L32.3546 41.6168C32.4282 41.6318 32.4942 41.6721 32.5411 41.7308C32.588 41.7894 32.6129 41.8627 32.6114 41.9377V42.6438L32.9965 42.0019C33.0606 41.9377 33.2532 41.8093 33.3816 41.8735L34.1518 42.0661Z" fill="#00007E"/>
<path d="M35.2432 23.6453C35.2432 23.7737 35.1791 23.8379 35.1149 23.9662L33.8312 24.9932L34.4088 26.5336C34.4293 26.5796 34.4387 26.6298 34.4361 26.6802C34.4336 26.7305 34.4193 26.7795 34.3943 26.8233C34.3693 26.867 34.3343 26.9042 34.2922 26.932C34.2502 26.9597 34.2022 26.9771 34.1521 26.9829C34.0879 27.0471 33.8954 26.9829 33.8312 26.9187L32.4833 26.0843L31.1996 27.1112C31.1213 27.1662 31.0254 27.1901 30.9305 27.1783C30.8356 27.1664 30.7485 27.1196 30.6861 27.0471C30.6346 26.9989 30.6003 26.935 30.5887 26.8654C30.5771 26.7958 30.5888 26.7243 30.622 26.6619L31.0071 25.1215L29.6592 24.2229C29.6103 24.2048 29.5667 24.175 29.5319 24.1361C29.4972 24.0973 29.4724 24.0506 29.4598 24C29.4471 23.9495 29.447 23.8966 29.4594 23.846C29.4718 23.7953 29.4963 23.7485 29.5308 23.7095C29.5574 23.6478 29.6027 23.5961 29.6603 23.5616C29.7179 23.527 29.7848 23.5114 29.8517 23.5169H31.4563L31.9056 21.9123C31.9353 21.8214 31.9977 21.7447 32.0807 21.6972C32.1638 21.6498 32.2615 21.6349 32.3549 21.6556C32.4689 21.707 32.5602 21.7983 32.6117 21.9123L33.1893 23.4527L34.8581 23.3244C34.9501 23.3231 35.0394 23.3547 35.1101 23.4136C35.1807 23.4724 35.2279 23.5546 35.2432 23.6453ZM33.1251 24.5439L33.7028 24.0946H32.9968C32.9201 24.1159 32.8383 24.108 32.7671 24.0725C32.696 24.0369 32.6406 23.9761 32.6117 23.902L32.2907 23.196L32.0982 23.902C32.0832 23.9756 32.0429 24.0416 31.9842 24.0885C31.9256 24.1354 31.8523 24.1603 31.7773 24.1588H31.0071L31.6489 24.5439C31.7119 24.6001 31.7618 24.6695 31.795 24.7471C31.8283 24.8248 31.8442 24.9088 31.8415 24.9932L31.5847 25.6992L32.2266 25.2499C32.3549 25.1215 32.4833 25.1215 32.6759 25.2499L33.2535 25.635L32.9968 24.9932C32.9749 24.9137 32.9753 24.8298 32.998 24.7505C33.0206 24.6713 33.0646 24.5998 33.1251 24.5439Z" fill="#00007E"/>
<path d="M33.7026 41.4885L34.1519 42.0662L33.4459 41.8736C33.3175 41.8094 33.1249 41.9378 33.0608 42.002L32.6757 42.6438V41.9378C32.6772 41.8627 32.6523 41.7895 32.6054 41.7309C32.5585 41.6722 32.4925 41.6319 32.4189 41.6169L31.7129 41.4243L32.3547 41.1676C32.3973 41.16 32.4379 41.1438 32.474 41.1201C32.5102 41.0964 32.5412 41.0657 32.5651 41.0297C32.5891 40.9937 32.6056 40.9533 32.6135 40.9108C32.6215 40.8684 32.6208 40.8247 32.6115 40.7825V40.1406L33.0608 40.6541C33.1891 40.7825 33.3175 40.8467 33.4459 40.7825L34.0877 40.5258L33.7026 41.1034C33.5742 41.2318 33.5742 41.4243 33.7026 41.4885Z" fill="#00007E" stroke="#00007E" stroke-width="1.3" stroke-linecap="round" stroke-linejoin="round"/>
<path d="M33.7026 24.0942L33.1249 24.5435C33.0644 24.5994 33.0204 24.6709 32.9977 24.7501C32.9751 24.8293 32.9747 24.9133 32.9966 24.9928L33.2533 25.6988L32.6756 25.3137C32.4831 25.1853 32.3547 25.1853 32.2263 25.3137L31.5845 25.763L31.8412 25.0569C31.8439 24.9725 31.8281 24.8885 31.7948 24.8109C31.7616 24.7333 31.7117 24.6639 31.6487 24.6077L31.0068 24.2225H31.777C31.8521 24.224 31.9254 24.1992 31.984 24.1523C32.0426 24.1054 32.083 24.0394 32.098 23.9658L32.2905 23.2598L32.6114 23.9658C32.6404 24.0399 32.6958 24.1007 32.7669 24.1362C32.8381 24.1718 32.9199 24.1797 32.9966 24.1584L33.7026 24.0942Z" fill="#00007E" stroke="#00007E" stroke-width="1.3" stroke-linecap="round" stroke-linejoin="round"/>
<path d="M31.9697 32.3752C32.0085 32.3953 32.0429 32.4232 32.0706 32.457C32.0984 32.4909 32.1189 32.5301 32.1309 32.5722C32.1429 32.6143 32.1462 32.6583 32.1405 32.7017C32.1349 32.7451 32.1204 32.7869 32.098 32.8245C32.098 32.9529 31.9697 33.0171 31.8413 33.0171L30.4292 33.338L30.2367 34.8142C30.2214 34.9049 30.1741 34.9871 30.1035 35.046C30.0329 35.1048 29.9435 35.1364 29.8516 35.1352C29.7232 35.1352 29.659 35.071 29.5948 34.9426L28.8246 33.6589L27.3484 33.9798C27.2669 33.976 27.1881 33.9501 27.1202 33.9049C27.0524 33.8596 26.9981 33.7968 26.9633 33.7231C26.935 33.6705 26.9259 33.6097 26.9376 33.5511C26.9493 33.4925 26.9811 33.4398 27.0275 33.4022L28.0544 32.2469L27.2842 30.9632C27.2534 30.8846 27.2493 30.798 27.2725 30.7168C27.2956 30.6357 27.3449 30.5643 27.4126 30.5139H27.7335L29.0814 31.1557L30.1083 30.0004C30.1789 29.9372 30.2703 29.9023 30.3651 29.9023C30.4598 29.9023 30.5512 29.9372 30.6218 30.0004C30.7004 30.0893 30.7457 30.2027 30.7502 30.3213L30.5576 31.7976L31.9697 32.3752ZM29.9799 32.6962L30.686 32.5678L30.0441 32.2469C29.9825 32.2202 29.9308 32.175 29.8962 32.1174C29.8617 32.0598 29.8461 31.9928 29.8516 31.9259V31.2199L29.4023 31.7334C29.3381 31.8618 29.1456 31.8617 29.0172 31.7976L28.3753 31.5408L28.6963 32.1185C28.7263 32.1896 28.7417 32.266 28.7417 32.3432C28.7417 32.4203 28.7263 32.4967 28.6963 32.5678L28.1828 33.0812L28.8888 32.9529C28.958 32.9266 29.0341 32.9251 29.1042 32.9484C29.1744 32.9718 29.2344 33.0187 29.2739 33.0812L29.5948 33.7231V33.0171C29.7232 32.8887 29.8516 32.6962 29.9799 32.6962Z" fill="#00007E"/>
<path d="M30.6854 32.5666L29.9793 32.695C29.851 32.695 29.7226 32.8875 29.7226 33.0159V33.7219L29.4017 33.0801C29.3621 33.0176 29.3022 32.9707 29.232 32.9473C29.1618 32.9239 29.0857 32.9255 29.0166 32.9517L28.3105 33.0801L28.824 32.5666C28.854 32.4955 28.8695 32.4191 28.8695 32.342C28.8695 32.2648 28.854 32.1884 28.824 32.1173L28.5031 31.5397L29.1449 31.7964C29.2733 31.8606 29.4659 31.8606 29.5301 31.7322L29.9793 31.2188V31.9248C29.9738 31.9917 29.9895 32.0586 30.024 32.1162C30.0585 32.1738 30.1103 32.2191 30.1719 32.2457L30.6854 32.5666Z" fill="#00007E" stroke="#00007E" stroke-width="1.3" stroke-linecap="round" stroke-linejoin="round"/>
<path d="M61.1733 14.9175C53.3427 16.0728 46.7959 15.11 41.9821 11.0664C36.2483 14.9175 29.8298 16.2012 22.7267 14.9175C22.7267 46.2395 20.2877 39.3718 41.9821 59.0764C64.575 38.4732 61.1733 45.5335 61.1733 14.9175Z" stroke="#00007E" stroke-width="2" stroke-linecap="round" stroke-linejoin="round"/>
<path d="M44.4209 30.4492H46.4106V37.1244C46.3942 37.4196 46.2652 37.6972 46.0503 37.9002C45.8354 38.1031 45.5509 38.216 45.2553 38.2155H37.0397C36.7673 38.2155 36.5061 38.1073 36.3135 37.9147C36.1209 37.7222 36.0127 37.461 36.0127 37.1886V30.4492H37.9382" stroke="#00007E" stroke-width="2" stroke-linecap="round" stroke-linejoin="round"/>
<path d="M37.9385 30.4498V28.781C38.0487 27.9998 38.4373 27.2847 39.0329 26.7672C39.6284 26.2498 40.3908 25.9648 41.1798 25.9648C41.9687 25.9648 42.7312 26.2498 43.3267 26.7672C43.9223 27.2847 44.3109 27.9998 44.4211 28.781V30.4498H37.9385Z" stroke="#00007E" stroke-width="2" stroke-linecap="round" stroke-linejoin="round"/>
<path d="M30.4932 59.332H50.3904" stroke="#00007E" stroke-width="2" stroke-linecap="round" stroke-linejoin="round"/>
<path d="M53.0596 59.332H54.5358" stroke="#00007E" stroke-width="2" stroke-linecap="round" stroke-linejoin="round"/>
<path d="M48.2081 62.4668H37.4893" stroke="#00007E" stroke-width="2" stroke-linecap="round" stroke-linejoin="round"/>
<path d="M34.82 62.4668H34.0498" stroke="#00007E" stroke-width="2" stroke-linecap="round" stroke-linejoin="round"/>
</svg>
