<?xml version="1.0" encoding="utf-8"?>
<!-- Generator: Adobe Illustrator 25.1.0, SVG Export Plug-In . SVG Version: 6.00 Build 0)  -->
<svg version="1.1" id="Слой_1" xmlns="http://www.w3.org/2000/svg" xmlns:xlink="http://www.w3.org/1999/xlink" x="0px" y="0px"
	 viewBox="0 0 1080 1080" style="enable-background:new 0 0 1080 1080;" xml:space="preserve">
<style type="text/css">
	.st0{clip-path:url(#SVGID_2_);fill:#000026;}
	.st1{opacity:0.1;clip-path:url(#SVGID_2_);fill:url(#SVGID_3_);}
	.st2{clip-path:url(#SVGID_2_);fill:none;}
	.st3{clip-path:url(#SVGID_2_);fill:#00C5FF;}
	.st4{clip-path:url(#SVGID_2_);fill:#FF7CA6;}
	.st5{clip-path:url(#SVGID_2_);fill:#9B5AFF;}
	.st6{clip-path:url(#SVGID_2_);fill:#FFA834;}
</style>
<g>
	<defs>
		<circle id="SVGID_1_" cx="540.34" cy="540.01" r="461.66"/>
	</defs>
	<clipPath id="SVGID_2_">
		<use xlink:href="#SVGID_1_"  style="overflow:visible;"/>
	</clipPath>
	<circle class="st0" cx="540.34" cy="540.01" r="464.01"/>
	<linearGradient id="SVGID_3_" gradientUnits="userSpaceOnUse" x1="209.3639" y1="849.9458" x2="897.9355" y2="205.142">
		<stop  offset="0" style="stop-color:#1DBCFF;stop-opacity:0"/>
		<stop  offset="0.5585" style="stop-color:#0DB7FF;stop-opacity:0.5686"/>
		<stop  offset="1" style="stop-color:#00B4FF"/>
	</linearGradient>
	<circle class="st1" cx="540.34" cy="540.01" r="464.01"/>
	<path class="st2" d="M667.56,986.36c6.96-1.98,13.85-4.12,20.68-6.42c-8.37,2.14-16.83,4.16-25.38,6.21
		C664.41,986.47,665.98,986.49,667.56,986.36z"/>
	<path class="st3" d="M494.22,158.37c0,28,22.7,50.77,50.71,50.77c28,0,50.71-22.67,50.71-50.67c0-28.96-6.71-56.53-18.6-81.03
		c-12.1-0.95-24.34-1.43-36.69-1.43c-30.7,0-60.7,2.99-89.74,8.68C476.57,99.01,494.22,126.69,494.22,158.37z"/>
	<path class="st4" d="M407.46,818.75h2.72c102.25,0,185.44-82.95,185.44-185.2c0-28-22.7-50.59-50.71-50.59
		c-28,0-50.71,22.52-50.71,50.53c0,46.33-37.7,83.85-84.03,83.85h-2.72c-46.33,0-82.21-37.22-82.21-83.55V158.5
		c0-11.84,2.5-23.09,6.95-33.3c-39.72,19.97-76.18,45.47-108.36,75.5v433.08C223.84,736.03,305.21,818.75,407.46,818.75z"/>
	<path class="st5" d="M682.38,251.76h-2.72c-102.25,0-185.44,83.46-185.44,185.71c0,28,22.7,50.84,50.71,50.84
		c28,0,50.71-22.91,50.71-50.91c0-46.33,37.7-84.24,84.03-84.24h2.72c46.33,0,85.39,38.24,85.39,84.58v475.28
		c0,12.86-2.92,25.05-8.11,35.96c40.48-21.76,77.36-49.34,109.52-81.64V437.75C869.19,335.5,784.64,251.76,682.38,251.76z"/>
	<path class="st6" d="M595.63,912.91c0-28-22.7-50.64-50.71-50.64c-28,0-50.71,22.73-50.71,50.74c0,32.94,8.67,63.66,23.79,90.47
		c7.4,0.35,14.84,0.54,22.33,0.54c37.53,0,74.02-4.46,108.97-12.88C617.93,978.97,595.63,948.55,595.63,912.91z"/>
</g>
</svg>
