<svg width="600" height="372" viewBox="0 0 600 372" fill="none" xmlns="http://www.w3.org/2000/svg">
<path d="M593.411 332.489C593.328 332.782 593.294 333.086 593.31 333.389C592.086 346.671 589.818 359.838 586.525 372.772L586.221 373.872C422.887 372.672 699.634 373.872 295.197 372.173H294.387L102.396 371.373H86.701L7.41393 371.073C7.41393 371.073 -2.1047 356.279 0.730608 332.489C0.831869 332.19 0.831819 331.89 0.93308 331.49C2.55326 319.195 7.61635 304.501 18.9576 288.208C45.5892 250.025 20.5778 204.444 55.209 147.869C55.8166 146.736 56.4242 145.736 57.0318 144.87C59.2595 141.471 61.5883 138.173 63.9173 135.174L65.639 132.975C70.7873 126.694 76.591 120.964 82.9544 115.882L84.9796 114.283C89.1541 111.141 93.5536 108.301 98.1436 105.787C110.772 98.8554 124.754 94.6638 139.154 93.4919H139.256C142.698 93.292 146.04 93.192 149.483 93.192H149.584L158.9 93.7919C163.67 94.2372 168.384 95.1411 172.976 96.4906C186.646 100.589 198.493 106.386 215.302 105.287C222.391 104.887 230.39 103.188 239.808 99.5893C257.225 93.0921 343 57.5016 440.203 68.0029C459.443 75.3997 471.391 84.7957 479.391 94.7914C484.112 100.871 488.026 107.522 491.036 114.583C493.365 119.981 495.289 125.278 497.314 130.276C497.618 131.176 498.023 132.175 498.428 133.075C500.103 137.387 502.242 141.508 504.808 145.37L505.415 146.269L507.744 149.268C511.288 153.266 514.934 155.665 519.794 158.464C563.539 184.353 600.094 251.624 593.411 332.489Z" fill="white"/>
<g style="mix-blend-mode:multiply" opacity="0.5">
<path d="M239.099 193.301H192.199V330.201H239.099V193.301Z" fill="#D9C8B8"/>
</g>
<g style="mix-blend-mode:multiply" opacity="0.5">
<path d="M306.002 193.301H239.102V330.201H306.002V193.301Z" fill="#D9C8B8"/>
</g>
<g style="mix-blend-mode:multiply" opacity="0.5">
<path d="M305.999 241.901V239.201H275.899V193.301H273.099V239.201H241.499V193.301H238.699V239.201H192.199V241.901H238.699V286.101H192.199V288.801H238.699V330.201H241.499V288.801H273.099V330.201H275.899V288.801H305.999V286.101H275.899V241.901H305.999ZM273.099 286.101H241.499V241.901H273.099V286.101Z" fill="#D9C8B8"/>
</g>
<g style="mix-blend-mode:multiply" opacity="0.5">
<path d="M208.199 193.301H192.199V330.201H208.199V193.301Z" fill="#D9C8B8"/>
</g>
<g style="mix-blend-mode:multiply" opacity="0.5">
<path d="M229.8 193.301H217V197.001H229.8V193.301Z" fill="#D9C8B8"/>
</g>
<g style="mix-blend-mode:multiply" opacity="0.5">
<path d="M264.999 193.301H252.199V197.001H264.999V193.301Z" fill="#D9C8B8"/>
</g>
<g style="mix-blend-mode:multiply" opacity="0.5">
<path d="M299.198 193.301H286.398V197.001H299.198V193.301Z" fill="#D9C8B8"/>
</g>
<g style="mix-blend-mode:multiply" opacity="0.5">
<path d="M229.8 241.902H217V245.602H229.8V241.902Z" fill="#D9C8B8"/>
</g>
<g style="mix-blend-mode:multiply" opacity="0.5">
<path d="M264.999 241.902H252.199V245.602H264.999V241.902Z" fill="#D9C8B8"/>
</g>
<g style="mix-blend-mode:multiply" opacity="0.5">
<path d="M299.198 241.902H286.398V245.602H299.198V241.902Z" fill="#D9C8B8"/>
</g>
<g style="mix-blend-mode:multiply" opacity="0.5">
<path d="M229.8 288.699H217V292.399H229.8V288.699Z" fill="#D9C8B8"/>
</g>
<g style="mix-blend-mode:multiply" opacity="0.5">
<path d="M264.999 288.699H252.199V292.399H264.999V288.699Z" fill="#D9C8B8"/>
</g>
<path d="M299.198 288.699H286.398V292.399H299.198V288.699Z" fill="#EFEFB4"/>
<g style="mix-blend-mode:multiply" opacity="0.5">
<path d="M384.099 193.301H337.199V330.201H384.099V193.301Z" fill="#D9C8B8"/>
</g>
<g style="mix-blend-mode:multiply" opacity="0.5">
<path d="M393.002 193.301H384.102V330.201H393.002V193.301Z" fill="#D9C8B8"/>
</g>
<g style="mix-blend-mode:multiply" opacity="0.5">
<path d="M410.097 193.301H397.297V197.001H410.097V193.301Z" fill="#D9C8B8"/>
</g>
<g style="mix-blend-mode:multiply" opacity="0.5">
<path d="M450.902 193.301H410.602V330.201H450.902V193.301Z" fill="#D9C8B8"/>
</g>
<g style="mix-blend-mode:multiply" opacity="0.5">
<path d="M420.802 193.301H418.102V239.101H410.602V241.901H418.102V286.001H410.602V288.701H418.102V330.201H420.802V288.701H451.002V286.001H420.802V241.901H451.002V239.101H420.802V193.301Z" fill="#D9C8B8"/>
<path d="M386.399 193.301H383.699V239.101H337.199V241.901H383.699V286.001H337.199V288.701H383.699V330.201H386.399V288.701H392.999V286.001H386.399V241.901H392.999V239.101H386.399V193.301Z" fill="#D9C8B8"/>
</g>
<g style="mix-blend-mode:multiply" opacity="0.5">
<path d="M353.199 193.301H337.199V330.201H353.199V193.301Z" fill="#D9C8B8"/>
</g>
<g style="mix-blend-mode:multiply" opacity="0.5">
<path d="M374.8 193.301H362V197.001H374.8V193.301Z" fill="#D9C8B8"/>
</g>
<g style="mix-blend-mode:multiply" opacity="0.5">
<path d="M410.097 193.301H397.297V197.001H410.097V193.301Z" fill="#D9C8B8"/>
</g>
<g style="mix-blend-mode:multiply" opacity="0.5">
<path d="M444.198 193.301H431.398V197.001H444.198V193.301Z" fill="#D9C8B8"/>
</g>
<g style="mix-blend-mode:multiply" opacity="0.5">
<path d="M374.8 241.902H362V245.602H374.8V241.902Z" fill="#D9C8B8"/>
</g>
<g style="mix-blend-mode:multiply" opacity="0.5">
<path d="M444.198 241.902H431.398V245.602H444.198V241.902Z" fill="#D9C8B8"/>
</g>
<g style="mix-blend-mode:multiply" opacity="0.5">
<path d="M374.8 288.699H362V292.399H374.8V288.699Z" fill="#D9C8B8"/>
</g>
<path d="M444.198 288.699H431.398V292.399H444.198V288.699Z" fill="#EFEFB4"/>
<g style="mix-blend-mode:multiply" opacity="0.5">
<path d="M107.7 193.301H58.5V330.201H107.7V193.301Z" fill="#D9C8B8"/>
</g>
<g style="mix-blend-mode:multiply" opacity="0.5">
<path d="M192.199 193.301H172.199V330.201H192.199V193.301Z" fill="#D9C8B8"/>
</g>
<g style="mix-blend-mode:multiply" opacity="0.5">
<path d="M172.201 193.301H125.301V330.201H172.201V193.301Z" fill="#D9C8B8"/>
</g>
<g style="mix-blend-mode:multiply" opacity="0.5">
<path d="M162.1 193.301H159.4V239.201H127.7V193.301H125V239.201H58.5V241.901H125V286.101H58.5V288.801H125V330.201H127.7V288.801H159.4V330.201H162.1V288.801H192.2V286.101H162.1V241.901H192.2V239.201H162.1V193.301ZM159.4 286.101H127.7V241.901H159.4V286.101Z" fill="#D9C8B8"/>
</g>
<g style="mix-blend-mode:multiply" opacity="0.5">
<path d="M94.5 193.301H58.5V330.201H94.5V193.301Z" fill="#D9C8B8"/>
</g>
<g style="mix-blend-mode:multiply" opacity="0.5">
<path d="M116.101 193.301H103.301V197.001H116.101V193.301Z" fill="#D9C8B8"/>
</g>
<g style="mix-blend-mode:multiply" opacity="0.5">
<path d="M151.3 193.301H138.5V197.001H151.3V193.301Z" fill="#D9C8B8"/>
</g>
<g style="mix-blend-mode:multiply" opacity="0.5">
<path d="M185.402 193.301H172.602V197.001H185.402V193.301Z" fill="#D9C8B8"/>
</g>
<g style="mix-blend-mode:multiply" opacity="0.5">
<path d="M116.101 241.902H103.301V245.602H116.101V241.902Z" fill="#D9C8B8"/>
</g>
<g style="mix-blend-mode:multiply" opacity="0.5">
<path d="M151.3 241.902H138.5V245.602H151.3V241.902Z" fill="#D9C8B8"/>
</g>
<g style="mix-blend-mode:multiply" opacity="0.5">
<path d="M185.402 241.902H172.602V245.602H185.402V241.902Z" fill="#D9C8B8"/>
</g>
<g style="mix-blend-mode:multiply" opacity="0.5">
<path d="M116.101 288.699H103.301V292.399H116.101V288.699Z" fill="#D9C8B8"/>
</g>
<g style="mix-blend-mode:multiply" opacity="0.5">
<path d="M151.3 288.699H138.5V292.399H151.3V288.699Z" fill="#D9C8B8"/>
</g>
<path d="M185.402 288.699H172.602V292.399H185.402V288.699Z" fill="#EFEFB4"/>
<g opacity="0.3">
<path d="M93.3992 329.498V369.298H108.899V329.498H93.3992ZM506.799 144.098H489.299L499.899 130.998C499.499 130.098 499.099 129.098 498.799 128.198L486.499 143.398L471.199 124.198L486.599 104.998L492.599 112.498C489.626 105.434 485.762 98.7799 481.099 92.6976L257.399 91.9976C237.199 101.998 222.299 103.398 220.299 103.198C203.699 104.298 191.999 98.4976 178.499 94.3976C173.965 93.0474 169.309 92.1432 164.599 91.6976L155.399 91.0977H155.299L145.199 91.3976H145.099C130.878 92.57 117.07 96.7634 104.599 103.698H112.299L98.4993 120.798L91.5991 112.198L89.5991 113.798L96.7991 122.998L81.3992 142.098L72.4993 130.898L70.7991 133.098L78.5991 142.798H63.9993C63.3993 143.664 62.7992 144.664 62.1992 145.798H74.8992L93.6992 182.898V192.698H109.199V180.298L126.899 145.998L326.599 146.598L345.399 183.698V193.498H360.999V181.098L378.699 146.798L508.999 147.198L506.799 144.098ZM483.299 104.798L469.499 121.898L455.799 104.698L483.299 104.798ZM449.199 104.698L435.399 121.798L421.699 104.598L449.199 104.698ZM415.099 104.598L401.299 121.698L387.599 104.498L415.099 104.598ZM380.999 104.498L367.199 121.598L353.499 104.398L380.999 104.498ZM346.899 104.398L333.099 121.498L319.399 104.298L346.899 104.398ZM311.399 104.198L299.999 121.398L288.599 104.198H311.399ZM282.899 104.198L269.099 121.298L255.299 104.098L282.899 104.198ZM248.699 103.998L234.899 121.198L221.199 103.998H248.699ZM214.599 103.898L200.799 121.098L187.099 103.798L214.599 103.898ZM180.499 103.798L166.699 120.998L152.999 103.698L180.499 103.798ZM146.399 103.698L132.599 120.898L118.899 103.598L146.399 103.698ZM115.599 103.698L130.899 122.998L115.499 142.098L100.199 122.898L115.599 103.698ZM93.6992 172.998L79.8992 145.698H93.7991L93.6992 172.998ZM84.1992 142.698L98.4993 124.998L112.699 142.798L84.1992 142.698ZM109.299 170.498V145.798H121.899L109.299 170.498ZM118.299 142.798L132.599 125.098L146.799 142.898L118.299 142.798ZM134.299 122.998L149.699 103.898L164.999 123.098L149.599 142.198L134.299 122.998ZM152.399 142.998L166.699 125.198L180.899 142.998H152.399ZM168.399 123.098L183.799 103.998L199.099 123.198L183.699 142.298L168.399 123.098ZM186.499 143.098L200.799 125.298L214.999 143.198L186.499 143.098ZM202.499 123.198L217.899 104.098L233.199 123.298L217.799 142.398L202.499 123.198ZM220.599 143.198L234.899 125.398L249.099 143.298L220.599 143.198ZM236.599 123.298L251.999 104.198L267.299 123.398L251.899 142.498L236.599 123.298ZM254.699 143.298L268.999 125.498L283.199 143.398L254.699 143.298ZM270.699 123.398L285.999 104.398L298.499 123.498L285.899 142.498L270.699 123.398ZM288.099 143.398L299.899 125.598L311.699 143.498L288.099 143.398ZM314.499 143.498L301.299 123.498L314.099 104.298H315.999L331.399 123.598L315.399 143.498H314.499ZM345.599 173.898L331.699 146.498H345.599V173.898ZM318.799 143.498L333.099 125.698L347.299 143.598L318.799 143.498ZM334.799 123.598L350.199 104.498L365.499 123.698L350.099 142.798L334.799 123.598ZM361.099 171.298V146.598H373.699L361.099 171.298ZM352.899 143.598L367.199 125.798L381.399 143.698L352.899 143.598ZM368.899 123.698L384.299 104.598L399.599 123.798L384.199 142.898L368.899 123.698ZM386.999 143.698L401.299 125.898L415.499 143.798L386.999 143.698ZM402.999 123.798L418.399 104.698L433.699 123.898L418.299 143.098L402.999 123.798ZM421.099 143.798L435.399 126.098L449.599 143.898L421.099 143.798ZM437.099 123.898L452.499 104.798L467.799 123.998L452.399 143.198L437.099 123.898ZM455.199 143.898L469.499 126.198L483.699 143.998L455.199 143.898ZM345.199 330.298V370.098H360.699V330.098H345.199V330.298Z" fill="#66C3CD"/>
</g>
<g style="mix-blend-mode:multiply" opacity="0.5">
<path d="M410.1 197.001H397.3V193.301H393V330.201H410.6V193.301H410.1V197.001Z" fill="#D9C8B8"/>
</g>
<g style="mix-blend-mode:multiply" opacity="0.5">
<path d="M125.299 193.301H107.699V330.201H125.299V193.301Z" fill="#D9C8B8"/>
</g>
<path d="M441.802 240.199H394.102V271.179H441.802V240.199Z" fill="#FFC75A"/>
<path d="M405.902 240.199H394.102V271.179H405.902V240.199Z" fill="#00007E"/>
<path d="M427.101 240.199H422.301V249.309H427.101V240.199Z" fill="#FFFFFD"/>
<path d="M370.001 240.199H322.301V271.179H370.001V240.199Z" fill="#FFC75A"/>
<path d="M334.101 240.199H322.301V271.179H334.101V240.199Z" fill="#00007E"/>
<path d="M355.3 240.199H350.5V249.309H355.3V240.199Z" fill="#FFFFFD"/>
<path d="M298.2 240.199H250.5V271.179H298.2V240.199Z" fill="#FFC75A"/>
<path d="M262.3 240.199H250.5V271.179H262.3V240.199Z" fill="#00007E"/>
<path d="M283.402 240.199H278.602V249.309H283.402V240.199Z" fill="#FFFFFD"/>
<path d="M513.598 240.199H465.898V271.179H513.598V240.199Z" fill="#FFC75A"/>
<path d="M477.698 240.199H465.898V271.179H477.698V240.199Z" fill="#00007E"/>
<path d="M498.898 240.199H494.098V249.309H498.898V240.199Z" fill="#FFFFFD"/>
<path d="M549.502 271.698H168.502C167.194 271.698 165.898 271.957 164.69 272.461C163.483 272.964 162.387 273.703 161.466 274.633C160.545 275.562 159.819 276.666 159.327 277.878C158.835 279.091 158.589 280.389 158.602 281.698C158.602 284.342 159.638 286.881 161.489 288.77C163.34 290.658 165.858 291.745 168.502 291.798H549.502C552.181 291.798 554.75 290.733 556.644 288.839C558.538 286.945 559.602 284.376 559.602 281.698C559.602 279.019 558.538 276.45 556.644 274.556C554.75 272.662 552.181 271.598 549.502 271.598V271.698Z" fill="#3F3334"/>
<path d="M174.2 275.098C172.875 275.098 171.579 275.491 170.478 276.227C169.376 276.963 168.517 278.009 168.01 279.234C167.503 280.458 167.37 281.805 167.629 283.105C167.887 284.404 168.525 285.598 169.462 286.535C170.399 287.472 171.593 288.11 172.893 288.369C174.193 288.627 175.54 288.495 176.764 287.988C177.988 287.48 179.035 286.622 179.771 285.52C180.507 284.418 180.9 283.123 180.9 281.798C180.9 280.021 180.194 278.316 178.938 277.06C177.681 275.803 175.977 275.098 174.2 275.098ZM174.2 286.798C173.211 286.798 172.244 286.504 171.422 285.955C170.6 285.406 169.959 284.625 169.581 283.711C169.202 282.797 169.103 281.792 169.296 280.822C169.489 279.852 169.965 278.961 170.664 278.262C171.364 277.563 172.255 277.087 173.224 276.894C174.194 276.701 175.2 276.8 176.113 277.178C177.027 277.557 177.808 278.198 178.357 279.02C178.907 279.842 179.2 280.809 179.2 281.798C179.214 282.458 179.094 283.114 178.847 283.727C178.601 284.34 178.233 284.896 177.766 285.364C177.299 285.831 176.742 286.198 176.129 286.445C175.517 286.691 174.86 286.811 174.2 286.798Z" fill="#35282A"/>
<path d="M202.7 275.098C200.923 275.098 199.219 275.803 197.962 277.06C196.706 278.316 196 280.021 196 281.798C196 283.575 196.706 285.279 197.962 286.535C199.219 287.792 200.923 288.498 202.7 288.498C204.477 288.498 206.181 287.792 207.438 286.535C208.694 285.279 209.4 283.575 209.4 281.798C209.4 280.021 208.694 278.316 207.438 277.06C206.181 275.803 204.477 275.098 202.7 275.098ZM202.7 286.798C201.707 286.817 200.731 286.541 199.895 286.004C199.06 285.467 198.404 284.693 198.01 283.781C197.616 282.87 197.503 281.861 197.684 280.885C197.866 279.908 198.334 279.008 199.029 278.299C199.724 277.59 200.615 277.103 201.587 276.902C202.56 276.701 203.57 276.794 204.49 277.169C205.409 277.545 206.196 278.185 206.75 279.01C207.304 279.834 207.6 280.804 207.6 281.798C207.6 283.107 207.087 284.363 206.171 285.298C205.255 286.233 204.009 286.771 202.7 286.798Z" fill="#35282A"/>
<path d="M231.098 275.098C229.773 275.098 228.478 275.491 227.376 276.227C226.274 276.963 225.416 278.009 224.909 279.234C224.401 280.458 224.269 281.805 224.527 283.105C224.786 284.404 225.424 285.598 226.361 286.535C227.298 287.472 228.492 288.11 229.791 288.369C231.091 288.627 232.438 288.495 233.662 287.988C234.887 287.48 235.933 286.622 236.669 285.52C237.405 284.418 237.798 283.123 237.798 281.798C237.798 280.021 237.092 278.316 235.836 277.06C234.58 275.803 232.875 275.098 231.098 275.098ZM231.098 286.798C229.907 286.628 228.816 286.034 228.027 285.124C227.238 284.215 226.804 283.052 226.804 281.848C226.804 280.644 227.238 279.48 228.027 278.571C228.816 277.662 229.907 277.067 231.098 276.898C231.807 276.797 232.53 276.849 233.217 277.052C233.904 277.254 234.54 277.602 235.081 278.071C235.622 278.54 236.055 279.12 236.353 279.772C236.65 280.424 236.804 281.131 236.804 281.848C236.804 282.564 236.65 283.272 236.353 283.923C236.055 284.575 235.622 285.155 235.081 285.624C234.54 286.094 233.904 286.441 233.217 286.644C232.53 286.846 231.807 286.899 231.098 286.798Z" fill="#35282A"/>
<path d="M259.598 275.098C258.273 275.098 256.978 275.491 255.876 276.227C254.774 276.963 253.916 278.009 253.409 279.234C252.901 280.458 252.769 281.805 253.027 283.105C253.286 284.404 253.924 285.598 254.861 286.535C255.798 287.472 256.992 288.11 258.291 288.369C259.591 288.627 260.938 288.495 262.162 287.988C263.387 287.48 264.433 286.622 265.169 285.52C265.905 284.418 266.298 283.123 266.298 281.798C266.298 280.021 265.592 278.316 264.336 277.06C263.08 275.803 261.375 275.098 259.598 275.098ZM259.598 286.798C258.606 286.817 257.629 286.541 256.794 286.004C255.959 285.467 255.302 284.693 254.909 283.781C254.515 282.87 254.401 281.861 254.583 280.885C254.764 279.908 255.232 279.008 255.928 278.299C256.623 277.59 257.513 277.103 258.486 276.902C259.458 276.701 260.469 276.794 261.388 277.169C262.307 277.545 263.095 278.185 263.648 279.01C264.202 279.834 264.498 280.804 264.499 281.798C264.499 283.107 263.986 284.363 263.07 285.298C262.153 286.233 260.907 286.771 259.598 286.798Z" fill="#35282A"/>
<path d="M287.997 275.098C286.672 275.098 285.376 275.491 284.275 276.227C283.173 276.963 282.314 278.009 281.807 279.234C281.3 280.458 281.167 281.805 281.426 283.105C281.684 284.404 282.322 285.598 283.259 286.535C284.196 287.472 285.39 288.11 286.69 288.369C287.989 288.627 289.337 288.495 290.561 287.988C291.785 287.48 292.832 286.622 293.568 285.52C294.304 284.418 294.697 283.123 294.697 281.798C294.697 280.021 293.991 278.316 292.734 277.06C291.478 275.803 289.774 275.098 287.997 275.098ZM287.997 286.798C287.288 286.899 286.565 286.846 285.878 286.644C285.191 286.441 284.556 286.094 284.015 285.624C283.474 285.155 283.04 284.575 282.743 283.923C282.445 283.272 282.292 282.564 282.292 281.848C282.292 281.131 282.445 280.424 282.743 279.772C283.04 279.12 283.474 278.54 284.015 278.071C284.556 277.602 285.191 277.254 285.878 277.052C286.565 276.849 287.288 276.797 287.997 276.898C289.189 277.067 290.279 277.662 291.068 278.571C291.857 279.48 292.292 280.644 292.292 281.848C292.292 283.052 291.857 284.215 291.068 285.124C290.279 286.034 289.189 286.628 287.997 286.798Z" fill="#35282A"/>
<path d="M316.401 275.098C315.08 275.118 313.795 275.528 312.706 276.276C311.618 277.024 310.774 278.077 310.283 279.303C309.791 280.529 309.672 281.873 309.942 283.166C310.212 284.459 310.858 285.643 311.798 286.57C312.739 287.497 313.933 288.125 315.23 288.376C316.527 288.627 317.869 288.488 319.087 287.978C320.306 287.468 321.346 286.61 322.078 285.51C322.81 284.41 323.201 283.119 323.201 281.798C323.201 280.91 323.024 280.031 322.681 279.211C322.338 278.392 321.836 277.649 321.203 277.025C320.57 276.402 319.82 275.91 318.995 275.579C318.171 275.249 317.289 275.085 316.401 275.098ZM316.401 286.798C315.412 286.798 314.445 286.505 313.623 285.956C312.801 285.406 312.16 284.625 311.781 283.712C311.403 282.798 311.304 281.793 311.497 280.823C311.69 279.853 312.166 278.962 312.865 278.263C313.564 277.564 314.455 277.087 315.425 276.894C316.395 276.701 317.4 276.801 318.314 277.179C319.228 277.557 320.009 278.198 320.558 279.021C321.107 279.843 321.401 280.809 321.401 281.798C321.414 282.459 321.294 283.115 321.048 283.728C320.801 284.341 320.434 284.897 319.967 285.364C319.5 285.831 318.943 286.199 318.33 286.445C317.717 286.692 317.061 286.812 316.401 286.798Z" fill="#35282A"/>
<path d="M344.899 275.098C343.574 275.098 342.279 275.491 341.177 276.227C340.075 276.963 339.216 278.009 338.709 279.234C338.202 280.458 338.069 281.805 338.328 283.105C338.586 284.404 339.225 285.598 340.162 286.535C341.099 287.472 342.292 288.11 343.592 288.369C344.892 288.627 346.239 288.495 347.463 287.988C348.687 287.48 349.734 286.622 350.47 285.52C351.206 284.418 351.599 283.123 351.599 281.798C351.599 280.021 350.893 278.316 349.637 277.06C348.38 275.803 346.676 275.098 344.899 275.098ZM344.899 286.798C344.19 286.899 343.468 286.846 342.781 286.644C342.094 286.441 341.458 286.094 340.917 285.624C340.376 285.155 339.942 284.575 339.645 283.923C339.348 283.272 339.194 282.564 339.194 281.848C339.194 281.131 339.348 280.424 339.645 279.772C339.942 279.12 340.376 278.54 340.917 278.071C341.458 277.602 342.094 277.254 342.781 277.052C343.468 276.849 344.19 276.797 344.899 276.898C346.091 277.067 347.182 277.662 347.971 278.571C348.759 279.48 349.194 280.644 349.194 281.848C349.194 283.052 348.759 284.215 347.971 285.124C347.182 286.034 346.091 286.628 344.899 286.798Z" fill="#35282A"/>
<path d="M373.302 275.098C371.525 275.098 369.82 275.803 368.564 277.06C367.307 278.316 366.602 280.021 366.602 281.798C366.602 283.575 367.307 285.279 368.564 286.535C369.82 287.792 371.525 288.498 373.302 288.498C375.078 288.498 376.783 287.792 378.039 286.535C379.296 285.279 380.002 283.575 380.002 281.798C380.002 280.021 379.296 278.316 378.039 277.06C376.783 275.803 375.078 275.098 373.302 275.098ZM373.302 286.798C372.313 286.798 371.346 286.504 370.524 285.955C369.701 285.406 369.061 284.625 368.682 283.711C368.304 282.797 368.205 281.792 368.398 280.822C368.591 279.852 369.067 278.961 369.766 278.262C370.465 277.563 371.356 277.087 372.326 276.894C373.296 276.701 374.301 276.8 375.215 277.178C376.129 277.557 376.91 278.198 377.459 279.02C378.008 279.842 378.302 280.809 378.302 281.798C378.315 282.458 378.195 283.114 377.949 283.727C377.702 284.34 377.334 284.896 376.867 285.364C376.4 285.831 375.844 286.198 375.231 286.445C374.618 286.691 373.962 286.811 373.302 286.798Z" fill="#35282A"/>
<path d="M401.801 275.098C400.476 275.098 399.181 275.491 398.079 276.227C396.977 276.963 396.119 278.009 395.611 279.234C395.104 280.458 394.972 281.805 395.23 283.105C395.489 284.404 396.127 285.598 397.064 286.535C398.001 287.472 399.195 288.11 400.494 288.369C401.794 288.627 403.141 288.495 404.365 287.988C405.59 287.48 406.636 286.622 407.372 285.52C408.109 284.418 408.502 283.123 408.502 281.798C408.502 280.021 407.796 278.316 406.539 277.06C405.283 275.803 403.578 275.098 401.801 275.098ZM401.801 286.798C400.808 286.817 399.832 286.541 398.997 286.004C398.162 285.467 397.505 284.693 397.111 283.781C396.718 282.87 396.604 281.861 396.786 280.885C396.967 279.908 397.435 279.008 398.13 278.299C398.826 277.59 399.716 277.103 400.689 276.902C401.661 276.701 402.672 276.794 403.591 277.169C404.511 277.545 405.297 278.185 405.851 279.01C406.405 279.834 406.701 280.804 406.702 281.798C406.702 283.107 406.189 284.363 405.273 285.298C404.356 286.233 403.11 286.771 401.801 286.798Z" fill="#35282A"/>
<path d="M430.2 275.098C428.875 275.098 427.579 275.491 426.478 276.227C425.376 276.963 424.517 278.009 424.01 279.234C423.503 280.458 423.37 281.805 423.629 283.105C423.887 284.404 424.525 285.598 425.462 286.535C426.399 287.472 427.593 288.11 428.893 288.369C430.193 288.627 431.54 288.495 432.764 287.988C433.988 287.48 435.035 286.622 435.771 285.52C436.507 284.418 436.9 283.123 436.9 281.798C436.9 280.021 436.194 278.316 434.938 277.06C433.681 275.803 431.977 275.098 430.2 275.098ZM430.2 286.798C429.211 286.798 428.244 286.504 427.422 285.955C426.6 285.406 425.959 284.625 425.581 283.711C425.202 282.797 425.103 281.792 425.296 280.822C425.489 279.852 425.965 278.961 426.664 278.262C427.364 277.563 428.255 277.087 429.224 276.894C430.194 276.701 431.2 276.8 432.113 277.178C433.027 277.557 433.808 278.198 434.357 279.02C434.907 279.842 435.2 280.809 435.2 281.798C435.214 282.458 435.094 283.114 434.847 283.727C434.601 284.34 434.233 284.896 433.766 285.364C433.299 285.831 432.742 286.198 432.129 286.445C431.517 286.691 430.86 286.811 430.2 286.798Z" fill="#35282A"/>
<path d="M458.7 275.098C456.923 275.098 455.219 275.803 453.962 277.06C452.706 278.316 452 280.021 452 281.798C452 283.575 452.706 285.279 453.962 286.535C455.219 287.792 456.923 288.498 458.7 288.498C460.477 288.498 462.181 287.792 463.438 286.535C464.694 285.279 465.4 283.575 465.4 281.798C465.4 280.021 464.694 278.316 463.438 277.06C462.181 275.803 460.477 275.098 458.7 275.098ZM458.7 286.798C457.707 286.817 456.731 286.541 455.895 286.004C455.06 285.467 454.404 284.693 454.01 283.781C453.616 282.87 453.503 281.861 453.684 280.885C453.866 279.908 454.334 279.008 455.029 278.299C455.724 277.59 456.615 277.103 457.587 276.902C458.56 276.701 459.57 276.794 460.49 277.169C461.409 277.545 462.196 278.185 462.75 279.01C463.304 279.834 463.6 280.804 463.6 281.798C463.6 283.107 463.087 284.363 462.171 285.298C461.255 286.233 460.009 286.771 458.7 286.798Z" fill="#35282A"/>
<path d="M487.098 275.098C485.773 275.098 484.478 275.491 483.376 276.227C482.274 276.963 481.416 278.009 480.909 279.234C480.401 280.458 480.269 281.805 480.527 283.105C480.786 284.404 481.424 285.598 482.361 286.535C483.298 287.472 484.492 288.11 485.791 288.369C487.091 288.627 488.438 288.495 489.662 287.988C490.887 287.48 491.933 286.622 492.669 285.52C493.405 284.418 493.798 283.123 493.798 281.798C493.798 280.021 493.092 278.316 491.836 277.06C490.58 275.803 488.875 275.098 487.098 275.098ZM487.098 286.798C485.907 286.628 484.816 286.034 484.027 285.124C483.238 284.215 482.804 283.052 482.804 281.848C482.804 280.644 483.238 279.48 484.027 278.571C484.816 277.662 485.907 277.067 487.098 276.898C487.807 276.797 488.53 276.849 489.217 277.052C489.904 277.254 490.54 277.602 491.081 278.071C491.622 278.54 492.055 279.12 492.353 279.772C492.65 280.424 492.804 281.131 492.804 281.848C492.804 282.564 492.65 283.272 492.353 283.923C492.055 284.575 491.622 285.155 491.081 285.624C490.54 286.094 489.904 286.441 489.217 286.644C488.53 286.846 487.807 286.899 487.098 286.798Z" fill="#35282A"/>
<path d="M515.598 275.098C514.273 275.098 512.978 275.491 511.876 276.227C510.774 276.963 509.916 278.009 509.409 279.234C508.901 280.458 508.769 281.805 509.027 283.105C509.286 284.404 509.924 285.598 510.861 286.535C511.798 287.472 512.992 288.11 514.291 288.369C515.591 288.627 516.938 288.495 518.162 287.988C519.387 287.48 520.433 286.622 521.169 285.52C521.905 284.418 522.298 283.123 522.298 281.798C522.298 280.021 521.592 278.316 520.336 277.06C519.08 275.803 517.375 275.098 515.598 275.098ZM515.598 286.798C514.606 286.817 513.629 286.541 512.794 286.004C511.959 285.467 511.302 284.693 510.909 283.781C510.515 282.87 510.401 281.861 510.583 280.885C510.764 279.908 511.232 279.008 511.928 278.299C512.623 277.59 513.513 277.103 514.486 276.902C515.458 276.701 516.469 276.794 517.388 277.169C518.307 277.545 519.095 278.185 519.648 279.01C520.202 279.834 520.498 280.804 520.499 281.798C520.499 283.107 519.986 284.363 519.07 285.298C518.153 286.233 516.907 286.771 515.598 286.798Z" fill="#35282A"/>
<path d="M543.997 275.098C542.672 275.098 541.376 275.491 540.275 276.227C539.173 276.963 538.314 278.009 537.807 279.234C537.3 280.458 537.167 281.805 537.426 283.105C537.684 284.404 538.322 285.598 539.259 286.535C540.196 287.472 541.39 288.11 542.69 288.369C543.989 288.627 545.337 288.495 546.561 287.988C547.785 287.48 548.832 286.622 549.568 285.52C550.304 284.418 550.697 283.123 550.697 281.798C550.697 280.021 549.991 278.316 548.734 277.06C547.478 275.803 545.774 275.098 543.997 275.098ZM543.997 286.798C543.288 286.899 542.565 286.846 541.878 286.644C541.191 286.441 540.556 286.094 540.015 285.624C539.474 285.155 539.04 284.575 538.743 283.923C538.445 283.272 538.292 282.564 538.292 281.848C538.292 281.131 538.445 280.424 538.743 279.772C539.04 279.12 539.474 278.54 540.015 278.071C540.556 277.602 541.191 277.254 541.878 277.052C542.565 276.849 543.288 276.797 543.997 276.898C545.189 277.067 546.279 277.662 547.068 278.571C547.857 279.48 548.292 280.644 548.292 281.848C548.292 283.052 547.857 284.215 547.068 285.124C546.279 286.034 545.189 286.628 543.997 286.798Z" fill="#35282A"/>
<path d="M549.5 270.298H167.1C164.336 270.664 161.8 272.023 159.963 274.12C158.126 276.217 157.113 278.91 157.113 281.698C157.113 284.486 158.126 287.178 159.963 289.275C161.8 291.372 164.336 292.731 167.1 293.098H549.5C552.55 293.098 555.475 291.886 557.632 289.729C559.788 287.573 561 284.648 561 281.598C561 278.548 559.788 275.622 557.632 273.466C555.475 271.309 552.55 270.098 549.5 270.098V270.298ZM549.5 290.498H168.5C166.227 290.445 164.066 289.506 162.477 287.88C160.888 286.254 159.999 284.071 160 281.798C160 279.534 160.892 277.362 162.483 275.752C164.075 274.142 166.237 273.224 168.5 273.198H549.5C550.714 273.067 551.942 273.193 553.104 273.568C554.266 273.943 555.336 274.559 556.245 275.375C557.153 276.191 557.88 277.189 558.377 278.304C558.874 279.419 559.131 280.627 559.131 281.848C559.131 283.069 558.874 284.276 558.377 285.391C557.88 286.506 557.153 287.504 556.245 288.32C555.336 289.136 554.266 289.752 553.104 290.127C551.942 290.502 550.714 290.628 549.5 290.498Z" fill="#35282A"/>
<path d="M177.802 268.199H170.602V270.239H177.802V268.199Z" fill="#3F3334"/>
<path d="M206.2 268.199H199V270.239H206.2V268.199Z" fill="#3F3334"/>
<path d="M234.7 268.199H227.5V270.239H234.7V268.199Z" fill="#3F3334"/>
<path d="M263.098 268.199H255.898V270.239H263.098V268.199Z" fill="#3F3334"/>
<path d="M291.598 268.199H284.398V270.239H291.598V268.199Z" fill="#3F3334"/>
<path d="M319.997 268.199H312.797V270.239H319.997V268.199Z" fill="#3F3334"/>
<path d="M348.497 268.199H341.297V270.239H348.497V268.199Z" fill="#3F3334"/>
<path d="M376.899 268.199H369.699V270.239H376.899V268.199Z" fill="#3F3334"/>
<path d="M405.302 268.199H398.102V270.239H405.302V268.199Z" fill="#3F3334"/>
<path d="M433.802 268.199H426.602V270.239H433.802V268.199Z" fill="#3F3334"/>
<path d="M462.2 268.199H455V270.239H462.2V268.199Z" fill="#3F3334"/>
<path d="M490.7 268.199H483.5V270.239H490.7V268.199Z" fill="#3F3334"/>
<path d="M519.098 268.199H511.898V270.239H519.098V268.199Z" fill="#3F3334"/>
<path d="M547.598 268.199H540.398V270.239H547.598V268.199Z" fill="#3F3334"/>
<path d="M206.2 293.199H199V295.239H206.2V293.199Z" fill="#3F3334"/>
<path d="M234.7 293.199H227.5V295.239H234.7V293.199Z" fill="#3F3334"/>
<path d="M263.098 293.199H255.898V295.239H263.098V293.199Z" fill="#3F3334"/>
<path d="M291.598 293.199H284.398V295.239H291.598V293.199Z" fill="#3F3334"/>
<path d="M319.997 293.199H312.797V295.239H319.997V293.199Z" fill="#3F3334"/>
<path d="M348.497 293.199H341.297V295.239H348.497V293.199Z" fill="#3F3334"/>
<path d="M376.899 293.199H369.699V295.239H376.899V293.199Z" fill="#3F3334"/>
<path d="M405.302 293.199H398.102V295.239H405.302V293.199Z" fill="#3F3334"/>
<path d="M433.802 293.199H426.602V295.239H433.802V293.199Z" fill="#3F3334"/>
<path d="M462.2 293.199H455V295.239H462.2V293.199Z" fill="#3F3334"/>
<path d="M490.7 293.199H483.5V295.239H490.7V293.199Z" fill="#3F3334"/>
<path d="M519.098 293.199H511.898V295.239H519.098V293.199Z" fill="#3F3334"/>
<path d="M547.598 293.199H540.398V295.239H547.598V293.199Z" fill="#3F3334"/>
<path d="M562.398 278.199H560.398V285.339H562.398V278.199Z" fill="#3F3334"/>
<path d="M157.699 278.199H155.699V285.339H157.699V278.199Z" fill="#3F3334"/>
<path d="M278.3 293.301H271V335.961H278.3V293.301Z" fill="#3F3334"/>
<path d="M447.402 293.301H440.102V335.961H447.402V293.301Z" fill="#3F3334"/>
<path d="M534.097 293.301H526.797V335.961H534.097V293.301Z" fill="#3F3334"/>
<path d="M593.7 330.402C593.618 330.695 593.584 330.999 593.6 331.302C592.391 344.59 590.151 357.763 586.9 370.702L360.6 370.202H298.4L109 371.004H93.5H15C15 371.004 5.59982 354.302 8.39982 330.502L593.7 330.402Z" fill="#2892FF"/>
<path d="M121.4 296.499L119 295.799L118.1 295.499L107 292.299L106.7 292.199H106.6L106.2 292.999L100.1 306.799L94 320.599L93.6 321.399L72 369.899L134.1 369.999H150.8H161.3L170.7 349.799L170.8 349.699L177 336.299L186.5 316.099L186.7 315.599L122.4 296.799L121.4 296.499Z" fill="#FE9F73"/>
<path d="M148.703 144.398C148.703 144.398 164.503 167.898 182.003 156.398C182.003 156.398 172.203 140.198 148.703 144.398Z" fill="#3F9896"/>
<path d="M147.698 271.298L119.398 278.998L118.798 278.198L111.098 281.298L109.398 281.698L100.298 317.398C99.3291 321.324 99.7096 325.461 101.379 329.143C103.048 332.826 105.908 335.84 109.498 337.698C115.798 340.898 134.698 347.398 142.598 349.898C146.483 351.148 150.679 351.026 154.483 349.551C158.288 348.077 161.471 345.34 163.498 341.798C163.498 341.798 192.498 308.798 195.498 306.698C200.798 302.798 208.998 284.298 208.998 284.298C208.998 284.298 188.498 265.798 182.898 263.098C177.298 260.398 153.698 269.498 147.698 271.298Z" fill="#FE9F73"/>
<path d="M226.102 189C226.102 189 226.802 209.8 229.802 209C232.802 208.2 242.602 202.4 239.702 194.2C236.802 186 226.102 189 226.102 189Z" fill="#FC8759"/>
<path d="M226.102 207.301C226.102 207.301 226.802 228.101 229.802 227.301C232.802 226.501 242.602 220.701 239.702 212.501C236.802 204.301 226.102 207.301 226.102 207.301Z" fill="#FC8759"/>
<path d="M222.898 223.5C222.898 223.5 223.598 244.3 226.598 243.5C229.598 242.7 239.399 236.9 236.499 228.7C233.599 220.5 222.898 223.5 222.898 223.5Z" fill="#FC8759"/>
<path d="M227.197 134.301H154.097C153.08 134.327 152.113 134.749 151.404 135.478C150.694 136.206 150.297 137.184 150.297 138.201V291.401C150.297 292.276 150.645 293.115 151.263 293.734C151.882 294.353 152.722 294.701 153.597 294.701H227.697C228.572 294.701 229.412 294.353 230.031 293.734C230.649 293.115 230.997 292.276 230.997 291.401V138.201C230.997 137.184 230.6 136.206 229.89 135.478C229.18 134.749 228.214 134.327 227.197 134.301Z" fill="white"/>
<path d="M193.698 202.301L192.098 205.001L201.998 211.001L202.198 218.801L193.198 224.501L205.398 220.901L205.198 209.101L193.698 202.301Z" fill="#3F2B3B"/>
<path d="M185.999 202.398L174.699 209.598L174.899 221.398L187.199 224.498L178.099 219.198L177.999 211.298L187.699 205.098L185.999 202.398Z" fill="#3F2B3B"/>
<path d="M182.598 182.302L195.998 182.102L196.398 157.102L182.998 157.302L182.598 182.302Z" fill="#3F3334"/>
<path d="M194.319 182.994L183.82 183.141L184.094 202.739L194.593 202.592L194.319 182.994Z" fill="#3F3334"/>
<path d="M206.297 158.299L206.097 145.499C206.071 144.482 205.649 143.516 204.92 142.806C204.191 142.096 203.214 141.699 202.197 141.699L182.697 141.999C180.359 142.011 178.107 142.884 176.373 144.453C174.638 146.021 173.543 148.174 173.297 150.499L173.497 163.799C173.497 165.011 173.738 166.211 174.208 167.328C174.678 168.446 175.366 169.458 176.233 170.306C177.099 171.153 178.126 171.819 179.253 172.265C180.38 172.71 181.585 172.926 182.797 172.899H192.697C196.349 172.82 199.822 171.308 202.367 168.688C204.912 166.068 206.324 162.552 206.297 158.899C206.297 158.699 206.297 158.599 206.197 158.499L206.297 158.299Z" fill="#FFC75A"/>
<path d="M197.008 181.955L180.609 182.184L180.664 186.083L197.062 185.854L197.008 181.955Z" fill="#21111D"/>
<path d="M195.9 195.67L182.602 195.855L182.653 199.535L195.952 199.349L195.9 195.67Z" fill="#21111D"/>
<path d="M198.861 185.83L178.863 186.109L178.918 190.009L198.916 189.73L198.861 185.83Z" fill="#3F2B3B"/>
<path d="M181.598 197.8V205.1H184.198C184.584 206.309 185.349 207.36 186.381 208.099C187.412 208.838 188.654 209.226 189.922 209.203C191.191 209.181 192.418 208.75 193.422 207.975C194.427 207.2 195.155 206.121 195.498 204.9H198.098V197.5L181.598 197.8Z" fill="#FFC75A"/>
<path d="M189.399 166.201C194.756 166.201 199.099 161.858 199.099 156.501C199.099 151.144 194.756 146.801 189.399 146.801C184.042 146.801 179.699 151.144 179.699 156.501C179.699 161.858 184.042 166.201 189.399 166.201Z" fill="#21111D"/>
<g opacity="0.3">
<path d="M189.099 152.4C188.029 152.502 187.041 153.02 186.349 153.843C185.657 154.666 185.316 155.728 185.399 156.8C185.436 157.322 185.578 157.831 185.817 158.297C186.055 158.763 186.384 159.176 186.786 159.512C187.187 159.848 187.651 160.1 188.152 160.253C188.653 160.405 189.179 160.455 189.699 160.4C190.225 160.362 190.738 160.221 191.209 159.984C191.68 159.747 192.099 159.419 192.443 159.02C192.787 158.62 193.049 158.157 193.213 157.656C193.377 157.155 193.44 156.626 193.399 156.1C193.297 155.048 192.794 154.076 191.992 153.387C191.191 152.697 190.155 152.344 189.099 152.4Z" fill="#D9C8B8"/>
</g>
<path d="M189.798 200.2C189.408 200.225 189.027 200.328 188.677 200.504C188.328 200.68 188.018 200.925 187.766 201.224C187.513 201.523 187.324 201.87 187.21 202.244C187.095 202.618 187.057 203.011 187.098 203.4C187.124 203.794 187.227 204.18 187.401 204.534C187.576 204.888 187.819 205.205 188.117 205.465C188.414 205.725 188.76 205.924 189.134 206.05C189.508 206.176 189.904 206.227 190.298 206.2C191.103 206.124 191.846 205.736 192.369 205.119C192.893 204.503 193.154 203.707 193.098 202.9C193.061 202.505 192.945 202.122 192.759 201.772C192.572 201.422 192.318 201.113 192.011 200.862C191.704 200.611 191.351 200.423 190.971 200.309C190.591 200.196 190.192 200.159 189.798 200.2Z" fill="#21111D"/>
<g opacity="0.3">
<path d="M190.001 201.899C189.835 201.898 189.67 201.933 189.518 201.999C189.365 202.065 189.228 202.163 189.115 202.285C189.002 202.407 188.916 202.552 188.862 202.709C188.808 202.866 188.787 203.033 188.801 203.199C188.849 203.535 189.018 203.841 189.276 204.062C189.533 204.283 189.862 204.403 190.201 204.399C190.528 204.349 190.824 204.177 191.028 203.917C191.233 203.657 191.33 203.329 191.301 202.999C191.288 202.841 191.245 202.688 191.173 202.547C191.1 202.406 191.001 202.281 190.88 202.178C190.759 202.076 190.619 201.999 190.469 201.951C190.318 201.903 190.159 201.885 190.001 201.899Z" fill="#D9C8B8"/>
</g>
<g opacity="0.3">
<path d="M188.699 148.401C188.567 148.414 188.439 148.452 188.323 148.515C188.206 148.577 188.103 148.661 188.019 148.764C187.935 148.866 187.873 148.984 187.835 149.111C187.797 149.237 187.785 149.37 187.798 149.501C187.811 149.633 187.85 149.761 187.912 149.877C187.974 149.994 188.058 150.097 188.161 150.181C188.263 150.265 188.381 150.327 188.508 150.365C188.634 150.403 188.767 150.415 188.899 150.401C189.146 150.338 189.367 150.197 189.529 149.999C189.691 149.801 189.785 149.557 189.798 149.301C189.802 149.164 189.774 149.028 189.717 148.904C189.66 148.779 189.575 148.669 189.469 148.582C189.363 148.496 189.238 148.434 189.105 148.403C188.971 148.371 188.832 148.371 188.699 148.401Z" fill="#D9C8B8"/>
</g>
<g opacity="0.3">
<path d="M189.898 162.8C189.766 162.812 189.638 162.851 189.522 162.913C189.405 162.975 189.302 163.06 189.218 163.162C189.134 163.265 189.072 163.382 189.034 163.509C188.996 163.636 188.984 163.768 188.998 163.9C189.061 164.148 189.202 164.368 189.4 164.53C189.598 164.692 189.842 164.787 190.098 164.8C190.229 164.787 190.357 164.749 190.474 164.687C190.59 164.625 190.693 164.54 190.777 164.438C190.861 164.335 190.923 164.217 190.961 164.091C190.999 163.964 191.011 163.831 190.998 163.7C191.001 163.563 190.973 163.427 190.916 163.302C190.859 163.177 190.774 163.068 190.668 162.981C190.562 162.894 190.437 162.833 190.304 162.801C190.17 162.77 190.031 162.769 189.898 162.8Z" fill="#D9C8B8"/>
</g>
<g opacity="0.3">
<path d="M196.601 154.898C196.38 154.978 196.191 155.127 196.06 155.323C195.93 155.518 195.865 155.75 195.876 155.985C195.887 156.22 195.974 156.445 196.122 156.628C196.271 156.81 196.474 156.94 196.701 156.998C196.923 156.919 197.112 156.77 197.243 156.574C197.373 156.379 197.438 156.146 197.427 155.911C197.415 155.677 197.329 155.452 197.181 155.269C197.032 155.087 196.829 154.957 196.601 154.898Z" fill="#D9C8B8"/>
</g>
<g opacity="0.3">
<path d="M182.101 156.198C181.969 156.211 181.841 156.249 181.725 156.312C181.608 156.374 181.505 156.458 181.421 156.561C181.338 156.663 181.275 156.781 181.237 156.907C181.199 157.034 181.187 157.167 181.201 157.298C181.213 157.43 181.252 157.558 181.314 157.674C181.376 157.791 181.461 157.894 181.563 157.978C181.665 158.061 181.783 158.124 181.91 158.162C182.036 158.2 182.169 158.212 182.301 158.198C182.557 158.151 182.787 158.015 182.952 157.813C183.117 157.612 183.205 157.359 183.201 157.098C183.204 156.961 183.176 156.825 183.119 156.701C183.062 156.576 182.977 156.466 182.871 156.379C182.765 156.292 182.64 156.231 182.507 156.2C182.373 156.168 182.234 156.168 182.101 156.198Z" fill="#D9C8B8"/>
</g>
<g opacity="0.3">
<path d="M193.299 150.4C193.15 150.609 193.078 150.863 193.097 151.118C193.115 151.374 193.222 151.615 193.399 151.8C193.615 151.977 193.89 152.065 194.169 152.046C194.447 152.028 194.708 151.904 194.899 151.7C195.071 151.488 195.152 151.216 195.124 150.944C195.096 150.672 194.961 150.423 194.749 150.25C194.537 150.078 194.265 149.997 193.993 150.025C193.721 150.053 193.471 150.188 193.299 150.4Z" fill="#D9C8B8"/>
</g>
<g opacity="0.3">
<path d="M183.999 161.399C183.822 161.615 183.734 161.89 183.752 162.169C183.771 162.447 183.895 162.708 184.099 162.899C184.311 163.071 184.583 163.152 184.855 163.124C185.127 163.096 185.376 162.961 185.549 162.749C185.721 162.537 185.802 162.265 185.774 161.993C185.746 161.721 185.611 161.471 185.399 161.299C185.19 161.15 184.936 161.078 184.681 161.097C184.425 161.115 184.184 161.222 183.999 161.399Z" fill="#D9C8B8"/>
</g>
<g opacity="0.3">
<path d="M183.099 151.298C182.928 151.498 182.843 151.757 182.862 152.019C182.881 152.281 183.002 152.525 183.199 152.698C183.407 152.847 183.661 152.919 183.917 152.901C184.172 152.882 184.414 152.776 184.599 152.598C184.776 152.382 184.864 152.107 184.845 151.829C184.827 151.55 184.703 151.289 184.499 151.098C184.394 151.02 184.274 150.962 184.147 150.93C184.02 150.897 183.887 150.89 183.757 150.909C183.627 150.927 183.502 150.971 183.389 151.038C183.276 151.105 183.178 151.193 183.099 151.298Z" fill="#D9C8B8"/>
</g>
<g opacity="0.3">
<path d="M194.2 160.599C194.03 160.799 193.945 161.057 193.963 161.319C193.982 161.581 194.103 161.825 194.3 161.999C194.509 162.148 194.763 162.22 195.018 162.201C195.274 162.183 195.515 162.076 195.7 161.899C195.871 161.699 195.956 161.44 195.937 161.178C195.918 160.916 195.797 160.672 195.6 160.499C195.509 160.4 195.396 160.323 195.271 160.274C195.146 160.224 195.011 160.204 194.876 160.213C194.742 160.223 194.611 160.262 194.494 160.329C194.377 160.396 194.277 160.488 194.2 160.599Z" fill="#D9C8B8"/>
</g>
<path d="M202.2 141.5L182.7 141.7C180.407 141.74 178.201 142.582 176.465 144.08C174.729 145.578 173.574 147.638 173.2 149.9H173L173.2 163.8H173.7L173.5 151.2V150.6C173.722 148.336 174.776 146.235 176.456 144.703C178.137 143.17 180.325 142.314 182.6 142.3L202.1 142C203.029 142.008 203.922 142.365 204.6 143C204.949 143.337 205.226 143.741 205.415 144.188C205.604 144.635 205.701 145.115 205.7 145.6L205.9 157.9V158.8C205.926 160.573 205.603 162.334 204.949 163.982C204.295 165.63 203.323 167.133 202.088 168.405C200.853 169.677 199.379 170.694 197.751 171.396C196.123 172.099 194.373 172.474 192.6 172.5V173C194.438 172.974 196.254 172.586 197.942 171.858C199.631 171.13 201.16 170.077 202.441 168.759C203.723 167.44 204.732 165.882 205.411 164.173C206.09 162.464 206.426 160.639 206.4 158.8L206.2 145.6C206.213 145.066 206.12 144.535 205.925 144.039C205.73 143.542 205.437 143.089 205.064 142.707C204.691 142.325 204.246 142.021 203.754 141.814C203.262 141.607 202.734 141.5 202.2 141.5Z" fill="black"/>
<path d="M196.039 172.171L195.539 172.184L195.766 180.841L196.266 180.827L196.039 172.171Z" fill="black"/>
<path d="M181.098 180.7V181.2L197.298 181V184.6H197.798V180.5L181.098 180.7Z" fill="black"/>
<path d="M179.398 184.698V185.098L199.098 184.798L199.198 188.298L182.198 188.498V188.998L199.698 188.698L199.598 184.398L179.398 184.698Z" fill="black"/>
<path d="M183.098 194.399V194.799L196.198 194.699V197.499H196.698L196.598 194.199L183.098 194.399Z" fill="black"/>
<path d="M183.865 190.616L183.465 190.629L183.668 196.756L184.068 196.742L183.865 190.616Z" fill="black"/>
<path d="M194.525 189.937L194.125 189.949L194.304 195.987L194.704 195.975L194.525 189.937Z" fill="black"/>
<path d="M187 191.698L187.2 192.198L190.8 190.298L190.6 189.898L187 191.698Z" fill="black"/>
<path d="M188.5 192.4L188.7 192.8L192.3 191L192.1 190.5L188.5 192.4Z" fill="black"/>
<path d="M190.098 209.001H189.998C185.398 209.001 184.598 205.201 184.598 205.001V204.801H182.098V197.801H181.598V205.401H184.198C184.574 206.657 185.359 207.752 186.427 208.513C187.496 209.273 188.787 209.656 190.098 209.601H190.198C191.547 209.668 192.874 209.236 193.925 208.388C194.976 207.539 195.678 206.334 195.898 205.001H195.398C195.2 206.222 194.539 207.32 193.551 208.065C192.564 208.81 191.326 209.146 190.098 209.001Z" fill="black"/>
<path d="M186.699 197.399V197.899L197.799 197.699V201.599H198.299V197.199L186.699 197.399Z" fill="black"/>
<path d="M215.2 240.199H166.9C163.744 240.199 160.717 241.453 158.485 243.685C156.254 245.916 155 248.943 155 252.099C155 255.255 156.254 258.282 158.485 260.514C160.717 262.745 163.744 263.999 166.9 263.999H215.2C218.356 263.999 221.383 262.745 223.615 260.514C225.846 258.282 227.1 255.255 227.1 252.099C227.1 248.943 225.846 245.916 223.615 243.685C221.383 241.453 218.356 240.199 215.2 240.199Z" fill="#150DCE"/>
<path d="M173.5 251C172 250.4 171.3 249.8 171.3 248.8C171.312 248.541 171.377 248.288 171.491 248.055C171.604 247.822 171.765 247.615 171.961 247.447C172.158 247.278 172.387 247.151 172.635 247.075C172.882 246.998 173.142 246.972 173.4 247C174.173 247.008 174.93 247.214 175.6 247.6L176 246.4C175.237 245.976 174.372 245.769 173.5 245.8C171.2 245.8 169.8 247.1 169.8 248.9C169.8 250.7 170.9 251.5 172.8 252.2C174.7 252.9 175 253.4 175 254.5C175 255.6 174.1 256.4 172.6 256.4C171.654 256.407 170.723 256.166 169.9 255.7L169.5 256.9C170.412 257.425 171.447 257.701 172.5 257.7C175.2 257.7 176.5 256.1 176.5 254.4C176.5 252.7 175.5 251.7 173.5 251Z" fill="#E8E8E8"/>
<path d="M177.199 247.2H180.699V257.5H182.199V247.2H185.699V246H177.199V247.2Z" fill="#E8E8E8"/>
<path d="M188.798 246L184.898 257.5H186.398L187.598 253.9H191.698L192.898 257.5H194.499L190.598 246H188.798ZM187.898 252.7L188.999 249.4C189.29 248.73 189.492 248.023 189.598 247.3H189.698C189.805 248.023 190.007 248.73 190.298 249.4L191.398 252.7H187.898Z" fill="#E8E8E8"/>
<path d="M201.099 252.001C201.75 251.821 202.321 251.427 202.72 250.883C203.119 250.339 203.323 249.675 203.299 249.001C203.312 248.606 203.238 248.214 203.082 247.851C202.927 247.488 202.694 247.164 202.399 246.901C201.945 246.521 201.418 246.236 200.851 246.064C200.284 245.892 199.688 245.837 199.099 245.901C198.124 245.885 197.151 245.986 196.199 246.201V257.501H197.699V252.501H199.099C200.499 252.601 201.099 253.201 201.399 254.801C201.551 255.731 201.82 256.638 202.199 257.501H203.699C203.331 256.455 203.03 255.386 202.799 254.301C202.749 253.8 202.564 253.322 202.265 252.917C201.966 252.513 201.563 252.196 201.099 252.001ZM199.199 251.401H197.699V247.201H199.199C200.699 247.201 201.799 247.801 201.799 249.301C201.799 250.801 200.799 251.401 199.199 251.401Z" fill="#E8E8E8"/>
<path d="M204.199 247.2H207.699V257.5H209.199V247.2H212.699V246H204.199V247.2Z" fill="#E8E8E8"/>
<path d="M227.597 134.301H153.597C152.713 134.327 151.873 134.696 151.257 135.331C150.641 135.966 150.296 136.816 150.297 137.701V145.801H230.997V137.701C230.997 136.799 230.639 135.934 230.001 135.297C229.364 134.659 228.499 134.301 227.597 134.301Z" fill="#00007E"/>
<path d="M226.097 131H155.097C152.896 131 150.785 131.874 149.228 133.431C147.671 134.988 146.797 137.099 146.797 139.3V291.7C146.797 293.901 147.671 296.013 149.228 297.569C150.785 299.126 152.896 300 155.097 300H226.097C227.187 300 228.266 299.785 229.273 299.368C230.28 298.951 231.195 298.34 231.966 297.569C232.737 296.798 233.348 295.883 233.765 294.876C234.182 293.869 234.397 292.79 234.397 291.7V139.3C234.397 138.21 234.182 137.131 233.765 136.124C233.348 135.117 232.737 134.202 231.966 133.431C231.195 132.66 230.28 132.049 229.273 131.632C228.266 131.215 227.187 131 226.097 131ZM230.997 290.2C230.997 291.394 230.523 292.538 229.679 293.382C228.835 294.226 227.691 294.7 226.497 294.7H154.697C153.521 294.674 152.402 294.188 151.579 293.347C150.757 292.506 150.297 291.376 150.297 290.2V139.4C150.284 138.735 150.403 138.074 150.648 137.456C150.894 136.838 151.26 136.275 151.726 135.8C152.191 135.325 152.747 134.947 153.36 134.69C153.973 134.432 154.632 134.3 155.297 134.3H225.997C226.662 134.3 227.321 134.432 227.934 134.69C228.547 134.947 229.103 135.325 229.568 135.8C230.034 136.275 230.4 136.838 230.646 137.456C230.891 138.074 231.01 138.735 230.997 139.4V290.2Z" fill="#0D060E"/>
<path d="M155.6 139C155.308 139 155.028 139.116 154.822 139.322C154.616 139.529 154.5 139.808 154.5 140.1C154.5 140.392 154.616 140.672 154.822 140.878C155.028 141.084 155.308 141.2 155.6 141.2C155.892 141.2 156.171 141.084 156.378 140.878C156.584 140.672 156.7 140.392 156.7 140.1C156.7 139.808 156.584 139.529 156.378 139.322C156.171 139.116 155.892 139 155.6 139Z" fill="white"/>
<path d="M159.098 139.001C158.946 138.987 158.792 139.005 158.647 139.054C158.502 139.103 158.368 139.182 158.255 139.285C158.142 139.389 158.052 139.515 157.991 139.655C157.929 139.796 157.898 139.947 157.898 140.101C157.898 140.419 158.025 140.724 158.25 140.949C158.475 141.174 158.78 141.301 159.098 141.301C159.252 141.301 159.404 141.27 159.544 141.209C159.684 141.147 159.81 141.057 159.914 140.944C160.017 140.831 160.096 140.698 160.145 140.552C160.194 140.407 160.212 140.253 160.198 140.101C160.198 139.809 160.083 139.529 159.876 139.323C159.67 139.117 159.39 139.001 159.098 139.001Z" fill="white"/>
<path d="M162.499 139C162.207 139 161.927 139.116 161.721 139.322C161.514 139.529 161.398 139.808 161.398 140.1C161.398 140.392 161.514 140.672 161.721 140.878C161.927 141.084 162.207 141.2 162.499 141.2C162.79 141.2 163.07 141.084 163.276 140.878C163.483 140.672 163.598 140.392 163.598 140.1C163.598 139.808 163.483 139.529 163.276 139.322C163.07 139.116 162.79 139 162.499 139Z" fill="white"/>
<path d="M216.398 139.3H215.898V140.7H216.398V141.6H225.098V138.5H216.398V139.3ZM216.698 138.8H224.798V141.4H216.698V138.8Z" fill="white"/>
<path d="M224.298 139.102H223.398V140.892H224.298V139.102Z" fill="white"/>
<path d="M222.9 139.102H222V140.892H222.9V139.102Z" fill="white"/>
<path d="M221.4 139.102H220.5V140.892H221.4V139.102Z" fill="white"/>
<path d="M154.898 194.402C148.498 192.302 149.798 202.502 142.998 208.002C136.198 213.502 127.798 217.302 125.298 224.102C122.798 230.902 114.698 242.302 111.098 248.302C107.498 254.302 106.598 292.202 106.598 292.202L146.798 287.602V234.702C146.798 234.702 152.298 227.902 159.098 219.002C165.898 210.102 161.198 196.602 154.898 194.402Z" fill="#FE9F73"/>
<path d="M141.597 208.902C141.097 209.202 129.197 216.802 126.197 221.402C124.697 223.702 122.997 226.902 121.197 230.302C119.397 233.702 117.397 237.702 115.397 240.802L113.797 243.102C110.697 247.802 108.897 250.602 107.897 263.302C106.697 277.702 106.297 293.802 106.297 294.002C106.297 294.202 106.397 294.302 106.597 294.402C106.703 294.402 106.805 294.359 106.88 294.284C106.955 294.209 106.997 294.108 106.997 294.002C106.997 293.802 107.497 277.802 108.597 263.302C109.597 250.802 111.497 248.102 114.497 243.602L115.997 241.302C117.997 238.002 119.997 234.302 121.897 230.602C123.797 226.902 125.297 224.102 126.797 221.902C129.797 217.302 141.897 209.602 141.997 209.502C142.097 209.402 142.197 209.202 142.097 209.002C141.997 208.802 141.797 208.802 141.597 208.902Z" fill="#010103"/>
<path d="M158.401 196.5C157.353 195.257 156.013 194.295 154.501 193.7C154.449 193.687 154.394 193.684 154.34 193.692C154.287 193.7 154.235 193.718 154.189 193.746C154.143 193.774 154.102 193.811 154.07 193.854C154.038 193.898 154.014 193.947 154.001 194C153.988 194.052 153.985 194.107 153.993 194.16C154.001 194.214 154.02 194.265 154.048 194.312C154.076 194.358 154.112 194.399 154.156 194.431C154.199 194.463 154.249 194.487 154.301 194.5C155.717 195.019 156.963 195.919 157.901 197.1C159.601 199 161.701 202.5 162.101 208.8C162.101 208.9 162.501 216.4 151.701 228L146.501 234.4C146.464 234.435 146.436 234.478 146.42 234.527C146.405 234.576 146.402 234.628 146.412 234.678C146.422 234.728 146.445 234.774 146.478 234.813C146.511 234.852 146.553 234.882 146.601 234.9H147.101L152.301 228.5C163.401 216.6 162.801 209.1 162.801 208.8C162.401 202.2 160.201 198.5 158.401 196.5Z" fill="#010103"/>
<path d="M155.499 197.001C154.231 196.097 152.853 195.358 151.399 194.801C151.115 195.018 150.877 195.29 150.699 195.601C152.262 196.169 153.741 196.942 155.099 197.901C155.507 198.17 155.833 198.545 156.045 198.985C156.256 199.425 156.344 199.914 156.299 200.401V200.201C156.556 199.657 156.618 199.041 156.472 198.458C156.326 197.874 155.982 197.359 155.499 197.001Z" fill="#FCB6A9"/>
<path d="M117.299 285.201C117.302 285.11 117.274 285.021 117.219 284.948C117.165 284.875 117.087 284.823 116.999 284.801C116.893 284.801 116.791 284.843 116.716 284.918C116.641 284.993 116.599 285.095 116.599 285.201C116.599 285.501 116.199 292.401 118.399 296.101L118.699 296.301H118.899C118.925 296.307 118.952 296.309 118.979 296.305C119.006 296.301 119.032 296.292 119.055 296.278C119.078 296.264 119.098 296.245 119.114 296.224C119.13 296.202 119.142 296.177 119.149 296.151C119.155 296.124 119.157 296.097 119.153 296.07C119.149 296.044 119.14 296.018 119.126 295.995C119.112 295.972 119.093 295.951 119.072 295.935C119.05 295.919 119.025 295.907 118.999 295.901C116.899 292.201 117.299 285.301 117.299 285.201Z" fill="#010103"/>
<path d="M119.301 287.998C119.301 287.798 119.101 287.598 118.901 287.698C118.86 287.71 118.822 287.729 118.79 287.756C118.757 287.783 118.73 287.816 118.711 287.854C118.693 287.892 118.682 287.933 118.68 287.975C118.678 288.017 118.685 288.059 118.701 288.099C118.701 288.399 119.801 295.198 122.801 298.398H123.301C123.358 298.327 123.389 298.239 123.389 298.148C123.389 298.058 123.358 297.969 123.301 297.898C120.501 294.898 119.401 287.998 119.301 287.998Z" fill="#010103"/>
<path d="M137.7 224.4C135.305 222.868 132.667 221.752 129.9 221.1C129.7 221 129.5 221.1 129.5 221.4C129.5 221.7 129.5 221.8 129.7 221.8C132.385 222.464 134.949 223.543 137.3 225H137.5C137.7 225 137.8 224.9 137.8 224.8C137.8 224.7 137.9 224.5 137.7 224.4Z" fill="#010103"/>
<path d="M135.397 226.998C133.002 225.466 130.364 224.351 127.597 223.698C127.397 223.598 127.197 223.798 127.097 223.998C126.997 224.198 127.197 224.398 127.397 224.398C130.082 225.062 132.646 226.142 134.997 227.599H135.197L135.497 227.398C135.697 227.298 135.597 227.098 135.397 226.998Z" fill="#010103"/>
<path d="M335.899 352.498L331.299 346.198L330.399 344.998L321.699 333.198C313.999 322.598 306.199 311.998 304.399 309.298C300.299 303.698 286.099 272.098 276.099 274.798C266.099 277.498 264.399 280.098 264.399 280.098C264.399 280.098 255.499 281.098 250.499 287.198C250.499 287.198 238.499 288.898 238.399 300.698L238.099 300.398L233.499 295.498L230.799 292.598L230.499 292.298L217.499 278.498C217.499 278.498 205.499 265.798 197.399 259.098C194.399 256.598 191.999 254.998 190.799 255.098C189.51 255.128 188.256 255.519 187.177 256.226C186.099 256.933 185.241 257.928 184.699 259.098C184.053 260.684 183.914 262.43 184.299 264.098C184.764 265.895 185.618 267.567 186.799 268.998L205.099 292.698L206.599 294.698L210.699 299.998C223.899 317.198 237.699 335.198 237.999 335.398C238.299 335.598 220.499 325.798 211.999 324.398C203.499 322.998 195.699 330.798 198.999 336.298L199.899 336.898C199.999 336.898 199.999 336.898 199.999 336.998L200.699 337.398C202.899 338.898 206.799 341.498 210.399 344.098L210.999 344.498C214.599 346.898 217.699 349.198 218.799 350.098C219.899 350.998 221.499 352.298 224.499 354.398L225.199 354.898L227.299 356.398L227.999 356.898C234.681 361.683 241.625 366.09 248.799 370.098H326.899L333.899 362.498L334.299 361.998L335.299 360.898C336.499 358.898 336.399 355.798 335.999 353.198C335.999 352.998 335.899 352.798 335.899 352.498Z" fill="#FE9F73"/>
<path d="M227.6 349.302C227.5 349.263 227.392 349.252 227.286 349.27C227.181 349.287 227.082 349.333 227 349.401C225.989 350.973 225.151 352.65 224.5 354.401L225.2 354.901C225.809 353.132 226.65 351.45 227.7 349.901V349.702C227.715 349.561 227.679 349.419 227.6 349.302Z" fill="black"/>
<path d="M230.097 351.9C230.062 351.862 230.018 351.835 229.97 351.819C229.921 351.803 229.869 351.8 229.819 351.811C229.769 351.821 229.722 351.843 229.684 351.876C229.645 351.909 229.615 351.952 229.597 352C228.675 353.38 227.904 354.855 227.297 356.4L227.997 356.9C228.547 355.348 229.286 353.871 230.197 352.5V352.3C230.21 352.23 230.207 352.158 230.19 352.089C230.173 352.02 230.141 351.955 230.097 351.9Z" fill="black"/>
<path d="M200.698 335.201L199.898 336.9C199.925 336.9 199.95 336.911 199.969 336.93C199.988 336.949 199.999 336.974 199.999 337L200.698 337.4L201.598 335.5C201.831 335.098 202.167 334.765 202.571 334.537C202.976 334.308 203.434 334.192 203.898 334.201H203.698C203.158 334.014 202.571 334.011 202.029 334.192C201.487 334.373 201.019 334.727 200.698 335.201Z" fill="#FDC9BC"/>
<g opacity="0.5">
<path d="M155.502 197.099C154.166 196.249 152.761 195.513 151.302 194.898C149.002 196.798 148.302 202.398 144.602 206.498C146.121 207.282 147.793 207.725 149.502 207.798C151.902 207.798 152.802 206.898 152.802 206.898L156.202 200.599C156.531 200.03 156.641 199.361 156.512 198.716C156.384 198.072 156.024 197.497 155.502 197.099Z" fill="white"/>
<path d="M209.7 337L204.1 334.3H203.9C203.638 334.163 203.352 334.081 203.058 334.058C202.764 334.034 202.468 334.07 202.188 334.164C201.908 334.257 201.65 334.406 201.428 334.601C201.207 334.796 201.027 335.034 200.9 335.3L200 337.1L200.7 337.5L210.4 344.3C210.801 343.006 210.97 341.652 210.9 340.3C210.7 337.7 209.7 337 209.7 337Z" fill="white"/>
<path d="M196.599 262.698L192.199 257.298H192.099C191.968 257.149 191.806 257.03 191.625 256.948C191.444 256.867 191.247 256.824 191.049 256.824C190.85 256.824 190.654 256.867 190.473 256.948C190.292 257.03 190.13 257.149 189.999 257.298L185.999 260.898C185.674 261.155 185.461 261.527 185.405 261.938C185.349 262.348 185.455 262.764 185.699 263.098H185.799L190.699 268.398H190.799C191.086 268.631 191.449 268.749 191.818 268.731C192.187 268.712 192.536 268.558 192.799 268.298L196.399 264.898C196.641 264.629 196.79 264.291 196.826 263.931C196.862 263.571 196.783 263.21 196.599 262.898V262.698Z" fill="white"/>
</g>
<path d="M192.099 257.099C191.968 256.95 191.806 256.831 191.625 256.749C191.444 256.667 191.247 256.625 191.049 256.625C190.85 256.625 190.654 256.667 190.473 256.749C190.292 256.831 190.13 256.95 189.999 257.099L185.999 260.699C185.674 260.956 185.461 261.328 185.405 261.738C185.349 262.149 185.455 262.565 185.699 262.899H185.799L186.199 263.399C185.955 263.065 185.849 262.649 185.905 262.238C185.961 261.828 186.174 261.456 186.499 261.199L190.499 257.599C190.792 257.337 191.177 257.201 191.569 257.219C191.962 257.238 192.332 257.41 192.599 257.699L192.199 257.199L192.099 257.099Z" fill="#FDC9BC"/>
<path d="M186.997 268.799C184.597 265.699 183.797 262.299 184.897 259.499C185.997 256.699 187.997 255.699 190.897 255.399V254.699C189.496 254.746 188.138 255.195 186.985 255.993C185.833 256.791 184.934 257.904 184.397 259.199C183.197 262.199 183.997 265.999 186.597 269.199C189.197 272.399 229.897 325.399 236.797 334.299C232.397 331.999 219.397 325.199 212.197 323.999C209.724 323.638 207.2 323.97 204.904 324.959C202.609 325.947 200.633 327.554 199.197 329.599C197.797 331.999 197.597 334.399 198.797 336.499H198.897L199.797 337.099H199.997L200.597 337.499L210.997 344.599C215.197 347.499 217.797 349.399 218.697 350.199L219.097 349.599C218.197 348.799 215.597 346.899 211.297 343.999L200.997 336.899L200.297 336.499C200.297 336.473 200.286 336.447 200.268 336.428C200.249 336.41 200.224 336.399 200.197 336.399L199.397 335.799C198.297 333.999 198.497 331.899 199.797 329.799C201.097 327.699 206.697 323.699 212.097 324.499C220.497 325.899 237.697 335.499 237.897 335.599L239.397 336.399L238.297 334.999C237.697 334.599 190.797 273.499 186.997 268.799Z" fill="black"/>
<path d="M238.398 300.5L244.398 306.5L238.798 297.5L238.398 300.5Z" fill="#F07162"/>
<path d="M250.5 287.099L250.6 287.499L259.7 297.099L251.9 285.699L250.5 287.099Z" fill="#F07162"/>
<path d="M264.398 280.402L273.198 289.402L265.798 279.102L264.398 280.402Z" fill="#F07162"/>
<path d="M335.696 351.7C327.496 340.5 307.796 313.6 304.596 309.1C303.796 307.9 302.396 305.5 300.696 302.3C294.496 291.2 284.196 272.5 276.196 274.4H275.996C267.196 276.8 264.696 279.2 264.296 279.8C263.896 280.4 255.096 281.2 250.296 286.8C248.169 287.236 246.137 288.049 244.296 289.2C242.37 290.358 240.784 292.003 239.695 293.969C238.607 295.935 238.055 298.153 238.096 300.4V300.7H238.696C238.741 299.762 238.841 298.827 238.996 297.9C239.332 296.241 240.002 294.668 240.965 293.275C241.927 291.883 243.163 290.701 244.596 289.8C246.413 288.694 248.41 287.916 250.496 287.5H250.696C251.137 287.009 251.605 286.541 252.096 286.1C256.996 281.5 264.296 280.6 264.496 280.6H264.596V280.4C264.97 279.996 265.409 279.658 265.896 279.4C267.296 278.4 270.296 276.8 276.096 275.2H276.196C279.396 274.4 283.596 277.4 288.496 284C292.732 290.011 296.573 296.291 299.996 302.8C301.696 305.9 303.096 308.4 303.996 309.7C307.196 314.2 328.296 343 335.896 353.4C335.896 353.1 335.796 352.9 335.796 352.6C335.796 352.3 335.796 352 335.696 351.7Z" fill="black"/>
<path d="M91.3984 320.499L172.998 350.599L179.298 337.199L98.5984 306.199L91.3984 320.499Z" fill="white"/>
<path d="M170.798 349.701L160.398 345.801L99.7984 322.801L93.9984 320.601L91.7984 319.701L89.3984 318.801L66.8984 369.901H71.9984L134.098 370.001H150.798H161.298H167.598L175.798 351.601L172.998 350.601L170.798 349.701Z" fill="#150DCE"/>
<path d="M169.523 346.164C170.959 346.162 172.121 344.996 172.119 343.56C172.116 342.124 170.95 340.962 169.514 340.964C168.078 340.967 166.916 342.133 166.919 343.569C166.921 345.005 168.087 346.167 169.523 346.164Z" fill="#D9C8B8"/>
<path d="M326.095 329.602L321.895 332.902L321.695 333.102L321.395 333.302L275.695 370.102H298.795H300.495L330.895 346.402L331.195 346.202L331.495 345.902L337.495 341.202L336.395 340.102L326.095 329.602Z" fill="white"/>
<path d="M336.397 340.099L330.597 344.699L330.297 344.999L330.097 345.199L298.797 370.099H300.497H326.897H364.997L337.597 339.199L336.397 340.099Z" fill="#150DCE"/>
<path d="M600 369.902H0V371.902H600V369.902Z" fill="black"/>
<path d="M387.003 169.733L405.18 183.012L404.092 198.25L386.023 207.72L409.969 202.822L411.602 179.964L390.595 164.617L387.003 169.733Z" fill="#3F2B3B"/>
<path d="M378.621 169.079L375.791 163.637L352.933 175.718L351.301 198.685L374.376 206.848L357.723 194.875L358.811 179.637L378.621 169.079Z" fill="#3F2B3B"/>
<path d="M549.179 68.1814L533.614 63.7188L466.457 277.489L487.899 283.693L491.491 284.782L513.042 290.986L568.444 73.8413L552.771 69.2698L549.179 68.1814Z" fill="#150DCE"/>
<path d="M495.191 232.102H493.884C483.885 232.949 474.572 237.529 467.795 244.931C461.019 252.332 457.277 262.013 457.313 272.047C457.313 273.571 457.422 275.095 457.53 276.619L457.857 278.905L467.871 349.98H521.204L531.109 278.905C531.324 278.162 531.434 277.392 531.436 276.619C531.652 275.105 531.762 273.577 531.762 272.047C531.798 262.013 528.056 252.332 521.28 244.931C514.503 237.529 505.19 232.949 495.191 232.102Z" fill="#FFC75A"/>
<path d="M376.77 27.9088L558.104 80.3718L564.091 59.256L382.865 6.79297L376.77 27.9088Z" fill="#150DCE"/>
<path d="M375.246 93.11L401.042 94.9603L407.246 6.14332L381.559 4.29297L375.246 93.11Z" fill="#3F3334"/>
<path d="M373.18 161.679L393.425 163.203L397.887 99.6376L377.642 98.2227L373.18 161.679Z" fill="#3F3334"/>
<path d="M511.738 71.3377L522.949 74.6031L531.33 45.3239L520.01 42.0586L511.738 71.3377Z" fill="#3F2B3B"/>
<path d="M570.949 47.6078L534.813 37.1587C533.877 36.8781 532.894 36.7884 531.922 36.8952C530.951 37.0019 530.011 37.3028 529.158 37.78C528.305 38.2572 527.557 38.901 526.958 39.673C526.359 40.4451 525.921 41.3297 525.67 42.2744L518.813 66.2201C518.704 66.5466 518.704 66.7644 518.595 67.0909C516.667 73.9026 517.491 81.1994 520.891 87.409C524.291 93.6186 529.994 98.244 536.772 100.288L555.058 105.513C557.309 106.159 559.666 106.353 561.993 106.083C564.319 105.814 566.57 105.087 568.614 103.943C570.658 102.8 572.455 101.263 573.902 99.4214C575.349 97.5798 576.417 95.47 577.045 93.2136L584.12 68.2882H584.011C584.699 63.8449 583.755 59.3028 581.354 55.5012C578.953 51.6997 575.257 48.8958 570.949 47.6078Z" fill="#FFC75A"/>
<path d="M421.941 3.19956L384.498 0.478446C379.987 0.162941 375.518 1.52015 371.944 4.29086C368.37 7.06156 365.942 11.0516 365.124 15.499H365.015L363.165 41.2951C362.805 46.0436 364.345 50.7407 367.448 54.3535C370.55 57.9663 374.961 60.199 379.709 60.5605L398.539 61.8666C402.037 62.1179 405.55 61.674 408.876 60.5603C412.201 59.4466 415.273 57.6853 417.915 55.3781C420.556 53.0708 422.714 50.2633 424.264 47.1176C425.815 43.9718 426.726 40.5502 426.947 37.0501C426.947 36.7236 427.056 36.5059 427.056 36.1794L428.798 11.254C428.949 9.27841 428.312 7.32335 427.028 5.8147C425.744 4.30606 423.915 3.36611 421.941 3.19956Z" fill="#FFC75A"/>
<path d="M371.984 97.7871L403.549 100.073L404.093 92.4537L372.529 90.168L371.984 97.7871Z" fill="#21111D"/>
<path d="M371 155.145L396.47 156.996L397.014 149.921L371.544 148.07L371 155.145Z" fill="#21111D"/>
<path d="M368.062 105.189L406.485 107.911L407.029 100.291L368.607 97.5703L368.062 105.189Z" fill="#3F2B3B"/>
<path d="M367.082 168.207L372.089 168.534C372.539 170.98 373.788 173.206 375.642 174.864C377.496 176.521 379.848 177.516 382.328 177.69C384.809 177.865 387.277 177.21 389.345 175.828C391.412 174.446 392.961 172.416 393.749 170.058L398.647 170.493L399.735 156.126L368.17 153.84L367.082 168.207Z" fill="#FFC75A"/>
<path d="M494.431 299.146C509.279 299.146 521.316 287.012 521.316 272.044C521.316 257.075 509.279 244.941 494.431 244.941C479.583 244.941 467.547 257.075 467.547 272.044C467.547 287.012 479.583 299.146 494.431 299.146Z" fill="#21111D"/>
<g opacity="0.3">
<path d="M494.43 282.5C500.141 282.5 504.77 277.821 504.77 272.051C504.77 266.28 500.141 261.602 494.43 261.602C488.719 261.602 484.09 266.28 484.09 272.051C484.09 277.821 488.719 282.5 494.43 282.5Z" fill="#D9C8B8"/>
</g>
<g opacity="0.3">
<path d="M494.539 249.301C494.128 249.219 493.705 249.229 493.299 249.331C492.893 249.432 492.515 249.623 492.191 249.888C491.868 250.154 491.607 250.488 491.428 250.866C491.249 251.244 491.156 251.658 491.156 252.076C491.156 252.494 491.249 252.908 491.428 253.286C491.607 253.664 491.868 253.998 492.191 254.264C492.515 254.529 492.893 254.719 493.299 254.821C493.705 254.923 494.128 254.933 494.539 254.852C495.181 254.724 495.759 254.377 496.174 253.871C496.589 253.365 496.816 252.731 496.816 252.076C496.816 251.421 496.589 250.787 496.174 250.281C495.759 249.775 495.181 249.428 494.539 249.301Z" fill="#D9C8B8"/>
</g>
<g opacity="0.3">
<path d="M494.541 289.68C493.79 289.68 493.071 289.978 492.54 290.509C492.009 291.039 491.711 291.759 491.711 292.51C491.711 293.26 492.009 293.98 492.54 294.511C493.071 295.041 493.79 295.34 494.541 295.34C495.292 295.34 496.011 295.041 496.542 294.511C497.073 293.98 497.371 293.26 497.371 292.51C497.371 291.759 497.073 291.039 496.542 290.509C496.011 289.978 495.292 289.68 494.541 289.68Z" fill="#D9C8B8"/>
</g>
<g opacity="0.3">
<path d="M514.568 269.43C513.818 269.43 513.098 269.728 512.567 270.259C512.036 270.789 511.738 271.509 511.738 272.26C511.738 273.01 512.036 273.73 512.567 274.261C513.098 274.791 513.818 275.09 514.568 275.09C514.935 275.09 515.298 275.016 515.635 274.873C515.973 274.729 516.278 274.519 516.532 274.254C516.786 273.99 516.984 273.677 517.114 273.334C517.244 272.992 517.304 272.626 517.289 272.26C517.29 271.528 517.007 270.824 516.499 270.296C515.992 269.768 515.3 269.458 514.568 269.43Z" fill="#D9C8B8"/>
</g>
<g opacity="0.3">
<path d="M474.404 275.09C475.967 275.09 477.234 273.823 477.234 272.26C477.234 270.697 475.967 269.43 474.404 269.43C472.841 269.43 471.574 270.697 471.574 272.26C471.574 273.823 472.841 275.09 474.404 275.09Z" fill="#D9C8B8"/>
</g>
<g opacity="0.3">
<path d="M506.731 256.048C506.36 256.432 506.111 256.917 506.014 257.442C505.917 257.967 505.977 258.509 506.186 259C506.394 259.492 506.743 259.911 507.188 260.205C507.634 260.5 508.156 260.657 508.69 260.657C509.224 260.657 509.746 260.5 510.191 260.205C510.637 259.911 510.985 259.492 511.194 259C511.403 258.509 511.463 257.967 511.366 257.442C511.269 256.917 511.02 256.432 510.649 256.048C510.395 255.784 510.091 255.575 509.754 255.432C509.418 255.288 509.056 255.215 508.69 255.215C508.324 255.215 507.962 255.288 507.625 255.432C507.289 255.575 506.984 255.784 506.731 256.048Z" fill="#D9C8B8"/>
</g>
<g opacity="0.3">
<path d="M478.431 284.563C477.918 285.108 477.633 285.829 477.633 286.577C477.633 287.325 477.918 288.045 478.431 288.59C478.685 288.854 478.989 289.063 479.326 289.206C479.662 289.349 480.025 289.423 480.39 289.423C480.756 289.423 481.118 289.349 481.455 289.206C481.791 289.063 482.096 288.854 482.35 288.59C482.862 288.045 483.148 287.325 483.148 286.577C483.148 285.829 482.862 285.108 482.35 284.563C482.096 284.3 481.791 284.09 481.455 283.947C481.118 283.804 480.756 283.73 480.39 283.73C480.025 283.73 479.662 283.804 479.326 283.947C478.989 284.09 478.685 284.3 478.431 284.563Z" fill="#D9C8B8"/>
</g>
<g opacity="0.3">
<path d="M478.43 256.048C478.059 256.432 477.81 256.917 477.713 257.442C477.616 257.967 477.676 258.509 477.885 259C478.094 259.492 478.442 259.911 478.888 260.205C479.333 260.5 479.855 260.657 480.389 260.657C480.923 260.657 481.445 260.5 481.89 260.205C482.336 259.911 482.685 259.492 482.893 259C483.102 258.509 483.162 257.967 483.065 257.442C482.968 256.917 482.719 256.432 482.348 256.048C482.095 255.784 481.79 255.575 481.454 255.432C481.117 255.288 480.755 255.215 480.389 255.215C480.023 255.215 479.661 255.288 479.325 255.432C478.988 255.575 478.684 255.784 478.43 256.048Z" fill="#D9C8B8"/>
</g>
<g opacity="0.3">
<path d="M506.728 284.563C506.215 285.108 505.93 285.829 505.93 286.577C505.93 287.325 506.215 288.045 506.728 288.59C506.982 288.854 507.286 289.063 507.623 289.206C507.959 289.349 508.321 289.423 508.687 289.423C509.053 289.423 509.415 289.349 509.752 289.206C510.088 289.063 510.393 288.854 510.646 288.59C511.159 288.045 511.445 287.325 511.445 286.577C511.445 285.829 511.159 285.108 510.646 284.563C510.393 284.3 510.088 284.09 509.752 283.947C509.415 283.804 509.053 283.73 508.687 283.73C508.321 283.73 507.959 283.804 507.623 283.947C507.286 284.09 506.982 284.3 506.728 284.563Z" fill="#D9C8B8"/>
</g>
<path d="M551.682 90.3857C562.022 90.3857 570.403 81.9064 570.403 71.4467C570.403 60.9871 562.022 52.5078 551.682 52.5078C541.343 52.5078 532.961 60.9871 532.961 71.4467C532.961 81.9064 541.343 90.3857 551.682 90.3857Z" fill="#21111D"/>
<g opacity="0.3">
<path d="M551.681 79.0642C555.949 79.0642 559.409 75.5556 559.409 71.2274C559.409 66.8993 555.949 63.3906 551.681 63.3906C547.413 63.3906 543.953 66.8993 543.953 71.2274C543.953 75.5556 547.413 79.0642 551.681 79.0642Z" fill="#D9C8B8"/>
</g>
<path d="M394.948 48.9169C405.287 48.9169 413.669 40.4377 413.669 29.978C413.669 19.5183 405.287 11.0391 394.948 11.0391C384.608 11.0391 376.227 19.5183 376.227 29.978C376.227 40.4377 384.608 48.9169 394.948 48.9169Z" fill="#21111D"/>
<g opacity="0.3">
<path d="M394.947 37.4861C399.215 37.4861 402.675 33.9774 402.675 29.6493C402.675 25.3212 399.215 21.8125 394.947 21.8125C390.679 21.8125 387.219 25.3212 387.219 29.6493C387.219 33.9774 390.679 37.4861 394.947 37.4861Z" fill="#D9C8B8"/>
</g>
<g opacity="0.3">
<path d="M551.791 55.6641C551.404 55.6641 551.025 55.779 550.703 55.9942C550.381 56.2095 550.13 56.5155 549.981 56.8735C549.833 57.2315 549.794 57.6254 549.87 58.0054C549.945 58.3855 550.132 58.7346 550.406 59.0086C550.68 59.2826 551.029 59.4692 551.409 59.5448C551.789 59.6204 552.183 59.5816 552.541 59.4333C552.899 59.285 553.205 59.0339 553.42 58.7117C553.636 58.3895 553.75 58.0107 553.75 57.6232C553.75 57.1036 553.544 56.6053 553.177 56.2378C552.809 55.8704 552.311 55.6641 551.791 55.6641Z" fill="#D9C8B8"/>
</g>
<g opacity="0.3">
<path d="M551.791 83.8555C551.404 83.8555 551.025 83.9704 550.703 84.1856C550.381 84.4009 550.13 84.7068 549.981 85.0648C549.833 85.4228 549.794 85.8168 549.87 86.1968C549.945 86.5769 550.132 86.926 550.406 87.2C550.68 87.474 551.029 87.6605 551.409 87.7361C551.789 87.8117 552.183 87.7729 552.541 87.6246C552.899 87.4763 553.205 87.2252 553.42 86.903C553.636 86.5808 553.75 86.2021 553.75 85.8146C553.75 85.295 553.544 84.7966 553.177 84.4292C552.809 84.0618 552.311 83.8555 551.791 83.8555Z" fill="#D9C8B8"/>
</g>
<g opacity="0.3">
<path d="M565.725 73.6215C566.807 73.6215 567.684 72.7444 567.684 71.6623C567.684 70.5803 566.807 69.7031 565.725 69.7031C564.643 69.7031 563.766 70.5803 563.766 71.6623C563.766 72.7444 564.643 73.6215 565.725 73.6215Z" fill="#D9C8B8"/>
</g>
<g opacity="0.3">
<path d="M537.858 69.7031C537.6 69.7031 537.345 69.7537 537.108 69.8522C536.87 69.9507 536.654 70.0949 536.472 70.2768C536.29 70.4588 536.146 70.6748 536.048 70.9125C535.949 71.1502 535.898 71.405 535.898 71.6622C535.898 71.9195 535.949 72.1743 536.048 72.412C536.146 72.6497 536.29 72.8657 536.472 73.0476C536.654 73.2296 536.87 73.3738 537.108 73.4723C537.345 73.5707 537.6 73.6215 537.858 73.6215C538.377 73.6215 538.876 73.4151 539.243 73.0476C539.61 72.6802 539.817 72.1819 539.817 71.6622C539.817 71.1426 539.61 70.6443 539.243 70.2768C538.876 69.9094 538.377 69.7031 537.858 69.7031Z" fill="#D9C8B8"/>
</g>
<g opacity="0.3">
<path d="M560.282 60.3424C560.001 60.6136 559.808 60.9625 559.726 61.3444C559.645 61.7263 559.68 62.1238 559.826 62.4858C559.972 62.8479 560.223 63.158 560.547 63.3763C560.871 63.5947 561.252 63.7113 561.643 63.7113C562.033 63.7113 562.415 63.5947 562.739 63.3763C563.062 63.158 563.313 62.8479 563.46 62.4858C563.606 62.1238 563.64 61.7263 563.559 61.3444C563.478 60.9625 563.284 60.6136 563.003 60.3424C562.638 59.99 562.15 59.793 561.643 59.793C561.135 59.793 560.647 59.99 560.282 60.3424Z" fill="#D9C8B8"/>
</g>
<g opacity="0.3">
<path d="M540.579 80.2642C540.298 80.5354 540.105 80.8843 540.023 81.2662C539.942 81.6481 539.977 82.0456 540.123 82.4077C540.269 82.7697 540.521 83.0798 540.844 83.2981C541.168 83.5165 541.549 83.6332 541.94 83.6332C542.33 83.6332 542.712 83.5165 543.035 83.2981C543.359 83.0798 543.61 82.7697 543.756 82.4077C543.903 82.0456 543.937 81.6481 543.856 81.2662C543.775 80.8843 543.581 80.5354 543.3 80.2642C542.935 79.9118 542.447 79.7148 541.94 79.7148C541.432 79.7148 540.945 79.9118 540.579 80.2642Z" fill="#D9C8B8"/>
</g>
<g opacity="0.3">
<path d="M540.579 60.3424C540.298 60.6136 540.105 60.9625 540.023 61.3444C539.942 61.7263 539.977 62.1238 540.123 62.4858C540.269 62.8479 540.521 63.158 540.844 63.3763C541.168 63.5947 541.549 63.7113 541.94 63.7113C542.33 63.7113 542.712 63.5947 543.035 63.3763C543.359 63.158 543.61 62.8479 543.756 62.4858C543.903 62.1238 543.937 61.7263 543.856 61.3444C543.775 60.9625 543.581 60.6136 543.3 60.3424C542.935 59.99 542.447 59.793 541.94 59.793C541.432 59.793 540.945 59.99 540.579 60.3424Z" fill="#D9C8B8"/>
</g>
<g opacity="0.3">
<path d="M560.282 80.2642C560.001 80.5354 559.808 80.8843 559.726 81.2662C559.645 81.6481 559.68 82.0456 559.826 82.4077C559.972 82.7697 560.223 83.0798 560.547 83.2981C560.871 83.5165 561.252 83.6332 561.643 83.6332C562.033 83.6332 562.415 83.5165 562.739 83.2981C563.062 83.0798 563.313 82.7697 563.46 82.4077C563.606 82.0456 563.64 81.6481 563.559 81.2662C563.478 80.8843 563.284 80.5354 563.003 80.2642C562.638 79.9118 562.15 79.7148 561.643 79.7148C561.135 79.7148 560.647 79.9118 560.282 80.2642Z" fill="#D9C8B8"/>
</g>
<path d="M383.409 171.583C386.655 171.583 389.286 168.952 389.286 165.706C389.286 162.46 386.655 159.828 383.409 159.828C380.163 159.828 377.531 162.46 377.531 165.706C377.531 168.952 380.163 171.583 383.409 171.583Z" fill="#21111D"/>
<g opacity="0.3">
<path d="M383.41 167.992C384.733 167.992 385.805 166.92 385.805 165.598C385.805 164.275 384.733 163.203 383.41 163.203C382.088 163.203 381.016 164.275 381.016 165.598C381.016 166.92 382.088 167.992 383.41 167.992Z" fill="#D9C8B8"/>
</g>
<g opacity="0.3">
<path d="M394.947 13.9727C394.56 13.9727 394.181 14.0876 393.859 14.3029C393.537 14.5182 393.286 14.8241 393.137 15.1821C392.989 15.5401 392.95 15.9341 393.026 16.3141C393.102 16.6941 393.288 17.0432 393.562 17.3172C393.836 17.5912 394.185 17.7778 394.565 17.8534C394.945 17.929 395.339 17.8902 395.697 17.742C396.055 17.5937 396.361 17.3425 396.576 17.0204C396.792 16.6982 396.907 16.3194 396.907 15.9319C396.907 15.4123 396.7 14.9139 396.333 14.5465C395.965 14.1791 395.467 13.9727 394.947 13.9727Z" fill="#D9C8B8"/>
</g>
<g opacity="0.3">
<path d="M394.948 42.1719C394.69 42.1719 394.436 42.2226 394.198 42.321C393.96 42.4195 393.744 42.5638 393.562 42.7457C393.38 42.9277 393.236 43.1436 393.137 43.3813C393.039 43.619 392.988 43.8738 392.988 44.1311C392.988 44.6507 393.195 45.149 393.562 45.5165C393.93 45.8839 394.428 46.0902 394.948 46.0902C395.467 46.0902 395.965 45.8839 396.333 45.5165C396.7 45.149 396.907 44.6507 396.907 44.1311C396.907 43.6114 396.7 43.1131 396.333 42.7457C395.965 42.3783 395.467 42.1719 394.948 42.1719Z" fill="#D9C8B8"/>
</g>
<g opacity="0.3">
<path d="M408.99 28.0195C408.471 28.0195 407.972 28.226 407.605 28.5934C407.238 28.9608 407.031 29.4591 407.031 29.9787C407.031 30.4983 407.238 30.9967 407.605 31.3641C407.972 31.7315 408.471 31.9379 408.99 31.9379C409.51 31.9379 410.008 31.7315 410.376 31.3641C410.743 30.9967 410.949 30.4983 410.949 29.9787C410.949 29.4591 410.743 28.9608 410.376 28.5934C410.008 28.226 409.51 28.0195 408.99 28.0195Z" fill="#D9C8B8"/>
</g>
<g opacity="0.3">
<path d="M381.014 28.0195C380.626 28.0195 380.248 28.1344 379.925 28.3497C379.603 28.565 379.352 28.871 379.204 29.229C379.056 29.5869 379.017 29.9809 379.092 30.361C379.168 30.741 379.355 31.0901 379.629 31.3641C379.903 31.6381 380.252 31.8247 380.632 31.9003C381.012 31.9759 381.406 31.9371 381.764 31.7888C382.122 31.6405 382.427 31.3894 382.643 31.0672C382.858 30.745 382.973 30.3662 382.973 29.9787C382.973 29.4591 382.767 28.9608 382.399 28.5934C382.032 28.226 381.533 28.0195 381.014 28.0195Z" fill="#D9C8B8"/>
</g>
<g opacity="0.3">
<path d="M403.44 18.6576C403.088 19.0228 402.891 19.5105 402.891 20.0181C402.891 20.5257 403.088 21.0134 403.44 21.3787C403.824 21.7383 404.33 21.9385 404.855 21.9385C405.381 21.9385 405.887 21.7383 406.27 21.3787C406.622 21.0134 406.819 20.5257 406.819 20.0181C406.819 19.5105 406.622 19.0228 406.27 18.6576C405.887 18.2979 405.381 18.0977 404.855 18.0977C404.33 18.0977 403.824 18.2979 403.44 18.6576Z" fill="#D9C8B8"/>
</g>
<g opacity="0.3">
<path d="M383.735 38.5807C383.454 38.8519 383.261 39.2008 383.18 39.5827C383.098 39.9646 383.133 40.3621 383.279 40.7241C383.425 41.0862 383.677 41.3962 384 41.6146C384.324 41.833 384.705 41.9496 385.096 41.9496C385.486 41.9496 385.868 41.833 386.191 41.6146C386.515 41.3962 386.766 41.0862 386.913 40.7241C387.059 40.3621 387.094 39.9646 387.012 39.5827C386.931 39.2008 386.737 38.8519 386.456 38.5807C386.091 38.2282 385.603 38.0312 385.096 38.0313C384.588 38.0312 384.1 38.2282 383.735 38.5807Z" fill="#D9C8B8"/>
</g>
<g opacity="0.3">
<path d="M383.735 18.6549C383.454 18.9261 383.261 19.275 383.18 19.6569C383.098 20.0388 383.133 20.4362 383.279 20.7983C383.425 21.1603 383.677 21.4705 384 21.6888C384.324 21.9072 384.705 22.0238 385.096 22.0238C385.486 22.0238 385.868 21.9072 386.191 21.6888C386.515 21.4705 386.766 21.1603 386.913 20.7983C387.059 20.4362 387.094 20.0388 387.012 19.6569C386.931 19.275 386.737 18.9261 386.456 18.6549C386.091 18.3025 385.603 18.1055 385.096 18.1055C384.588 18.1055 384.1 18.3025 383.735 18.6549Z" fill="#D9C8B8"/>
</g>
<g opacity="0.3">
<path d="M403.44 38.5755C403.088 38.9407 402.891 39.4284 402.891 39.936C402.891 40.4436 403.088 40.9313 403.44 41.2966C403.824 41.6562 404.33 41.8564 404.855 41.8564C405.381 41.8564 405.887 41.6562 406.27 41.2966C406.622 40.9313 406.819 40.4436 406.819 39.936C406.819 39.4284 406.622 38.9407 406.27 38.5755C405.887 38.2158 405.381 38.0156 404.855 38.0156C404.33 38.0156 403.824 38.2158 403.44 38.5755Z" fill="#D9C8B8"/>
</g>
<path d="M568.336 103.555C566.357 104.685 564.17 105.403 561.907 105.665C559.643 105.927 557.35 105.727 555.166 105.079L536.88 99.8543C530.203 97.8604 524.583 93.3123 521.241 87.1981C517.898 81.0839 517.104 73.8977 519.029 67.201C519.051 66.9695 519.126 66.7462 519.247 66.548L519.574 65.4595H519.465L526.104 42.3845C526.328 41.4898 526.733 40.6504 527.295 39.9184C527.856 39.1864 528.561 38.5772 529.367 38.1284C530.173 37.6796 531.062 37.4007 531.98 37.309C532.898 37.2174 533.824 37.3148 534.703 37.5953L570.84 48.0444L571.057 47.1736L534.921 36.7246C533.93 36.4272 532.89 36.3318 531.861 36.444C530.833 36.5562 529.838 36.8736 528.934 37.3776C528.031 37.8907 527.238 38.5784 526.603 39.4006C525.968 40.2228 525.502 41.163 525.234 42.1668L518.159 66.8744C517.158 70.3049 516.843 73.8989 517.232 77.4511C517.62 81.0034 518.704 84.4443 520.422 87.5776C522.141 90.7108 524.459 93.4749 527.245 95.7121C530.032 97.9492 533.232 99.6156 536.662 100.616L554.839 105.841C556.494 106.36 558.221 106.617 559.955 106.603C563.94 106.6 567.813 105.289 570.979 102.87C574.145 100.451 576.429 97.0586 577.479 93.2148L576.608 92.9971C575.349 97.4686 572.377 101.263 568.336 103.555Z" fill="black"/>
<path d="M495.192 231.664H493.886C483.793 232.443 474.375 237.035 467.546 244.508C460.678 252.034 456.873 261.856 456.879 272.045C456.879 273.569 456.988 275.093 457.097 276.617L457.423 278.903L467.437 350.304H521.533L531.655 278.903L531.982 276.508C532.09 274.984 532.199 273.46 532.199 271.936C532.219 261.725 528.368 251.886 521.424 244.399C514.617 236.974 505.237 232.42 495.192 231.664ZM531.002 276.508C531.001 277.281 530.891 278.051 530.675 278.794L520.771 349.543H468.308L458.294 278.794L457.967 276.508C457.859 274.984 457.75 273.569 457.75 272.045C457.739 262.133 461.444 252.576 468.134 245.262C474.823 237.947 484.012 233.406 493.886 232.535H495.083C504.968 233.405 514.169 237.942 520.876 245.254C527.584 252.566 531.312 262.123 531.329 272.045C531.332 273.539 531.223 275.031 531.002 276.508Z" fill="black"/>
<path d="M523.492 248.104L524.363 248.322L560.608 106.28L559.737 106.062L523.492 248.104Z" fill="black"/>
<path d="M500.309 168.209L501.179 168.535L525.016 92.7797L524.146 92.4531L500.309 168.209Z" fill="black"/>
<path d="M510.867 219.043L511.085 219.588L523.275 213.275L522.949 212.73L510.867 219.043Z" fill="black"/>
<path d="M509.344 224.7L509.561 225.244L521.643 218.931L521.425 218.387L509.344 224.7Z" fill="black"/>
<path d="M488.988 334.63L489.424 335.501L504.988 326.031L504.553 325.27L488.988 334.63Z" fill="black"/>
<path d="M496.715 336.153L497.259 336.915L512.824 327.445L512.388 326.684L496.715 336.153Z" fill="black"/>
<path d="M511.301 71.2262L512.172 71.4439L520.335 42.709L525.015 44.0151L525.233 43.1444L519.682 41.5117L511.301 71.2262Z" fill="black"/>
<path d="M428.035 20.3981L518.485 46.5207L518.703 45.65L428.253 19.5273L428.035 20.3981Z" fill="black"/>
<path d="M421.942 2.76521L384.499 0.0441001C380.063 -0.259985 375.662 1.01579 372.076 3.64545C368.49 6.27511 365.951 10.089 364.907 14.4116L364.581 14.085L362.73 41.1873H363.601L365.343 16.5885L365.561 15.6088C366.33 11.2661 368.679 7.36176 372.156 4.64853C375.633 1.9353 379.991 0.605253 384.391 0.914842L421.942 3.63595C422.845 3.689 423.728 3.92925 424.534 4.34147C425.339 4.75369 426.051 5.32889 426.622 6.03054C427.244 6.72082 427.719 7.5302 428.018 8.40958C428.318 9.28897 428.435 10.22 428.364 11.1462L426.622 35.2008V37.0512C426.397 40.4864 425.492 43.8426 423.96 46.9255C422.428 50.0084 420.299 52.7565 417.697 55.0105C415.117 57.3065 412.1 59.0585 408.827 60.1619C405.554 61.2653 402.093 61.6975 398.649 61.4323V62.3031H400.608C407.104 62.3397 413.383 59.9751 418.241 55.6636C420.949 53.3139 423.162 50.4482 424.751 47.2339C426.339 44.0195 427.271 40.5209 427.493 36.9424L429.343 11.2551C429.433 10.2167 429.313 9.17098 428.993 8.17913C428.674 7.18727 428.159 6.26925 427.48 5.47868C426.801 4.68811 425.971 4.04088 425.039 3.57497C424.107 3.10905 423.091 2.83377 422.051 2.76521H421.942Z" fill="black"/>
<path d="M400.719 92.2337L401.589 92.3425L403.766 61.6484H402.896L400.719 92.2337Z" fill="black"/>
<path d="M372.523 90.714L403.653 92.8909L403.109 100.075H404.088L404.633 92.0201L372.523 89.7344V90.714Z" fill="black"/>
<path d="M368.5 98.0036L406.487 100.725L406.051 107.364L373.289 105.078V105.949L406.922 108.344L407.466 99.8539L368.609 97.1328L368.5 98.0036Z" fill="black"/>
<path d="M371.547 148.507L396.581 150.358L396.146 155.8L397.016 155.909L397.561 149.487L371.547 147.637V148.507Z" fill="black"/>
<path d="M373.723 148.18L374.593 148.289L377.641 105.73H376.77L373.723 148.18Z" fill="black"/>
<path d="M393.859 149.703H394.839L397.778 107.254H396.907L393.859 149.703Z" fill="black"/>
<path d="M379.492 143.177L379.819 143.938L386.894 141L386.567 140.129L379.492 143.177Z" fill="black"/>
<path d="M382.211 144.591L382.646 145.462L389.721 142.523L389.395 141.652L382.211 144.591Z" fill="black"/>
<path d="M391.247 173.868C389.07 176.48 386.131 177.568 382.322 177.133C373.506 176.262 372.526 168.752 372.526 168.534V168.099L367.628 167.773L368.608 153.949H367.628L366.648 168.752L371.655 169.079C371.982 170.711 373.832 177.351 382.322 178.222H383.737C386.115 178.252 388.435 177.486 390.328 176.046C392.222 174.607 393.58 172.576 394.186 170.276L393.315 170.058C392.873 171.447 392.171 172.74 391.247 173.868Z" fill="black"/>
<path d="M377.859 155.038L399.193 156.562L398.649 164.181H399.519L400.172 155.691L377.968 154.059L377.859 155.038Z" fill="black"/>
<path d="M531.657 344.973H457.207V353.876H531.657V344.973Z" fill="#3F3334"/>
<path d="M560.172 352.375H428.797V369.91H560.172V352.375Z" fill="#21111D"/>
<path d="M531.657 344.535H457.207V345.449H531.657V344.535Z" fill="black"/>
<path d="M428.797 352.808H559.737V369.896H560.607V351.828H428.797V352.808Z" fill="black"/>
</svg>
