<svg width="120" height="120" viewBox="0 0 120 120" fill="none" xmlns="http://www.w3.org/2000/svg">
<g clip-path="url(#clip0_1559_2890)">
<path d="M93.9004 94.4992H84.2004V83.6992H77.4004" stroke="#00007E" stroke-width="2" stroke-linecap="round" stroke-linejoin="round"/>
<path d="M92.6004 36.1992H82.9004V47.0992H70.4004" stroke="#00007E" stroke-width="2" stroke-linecap="round" stroke-linejoin="round"/>
<path d="M75.5 74.1992H94.6" stroke="#00007E" stroke-width="2" stroke-linecap="round" stroke-linejoin="round"/>
<path d="M67.9004 56.5H95.6004" stroke="#00007E" stroke-width="2" stroke-linecap="round" stroke-linejoin="round"/>
<path d="M77.6988 89.0006V74.7006C77.699 72.2513 76.7329 69.9009 75.0104 68.1596C73.2879 66.4184 70.948 65.4269 68.4988 65.4006H50.6988C49.3988 65.4006 45.3988 65.3006 43.4988 69.4006L43.2988 69.8006L38.7988 81.1006L41.3988 94.5006" fill="#66C3CD"/>
<path d="M77.6988 89.0006V74.7006C77.699 72.2513 76.7329 69.9009 75.0104 68.1596C73.2879 66.4184 70.948 65.4269 68.4988 65.4006H50.6988C49.3988 65.4006 45.3988 65.3006 43.4988 69.4006L43.2988 69.8006L38.7988 81.1006L41.3988 94.5006" stroke="#00007E" stroke-width="2" stroke-linecap="round" stroke-linejoin="round"/>
<path d="M70.1994 77.9992V87.2992C70.1737 87.8652 69.9306 88.3994 69.5207 88.7906C69.1109 89.1818 68.566 89.3998 67.9994 89.3992H58.3994C56.5994 89.3992 54.9994 92.0992 54.9994 93.8992C54.944 94.8382 55.2583 95.7615 55.8751 96.4717C56.4918 97.1819 57.362 97.6225 58.2994 97.6992H74.0994C74.5705 97.7049 75.0373 97.6097 75.4686 97.42C75.8998 97.2303 76.2854 96.9504 76.5994 96.5992C76.9661 96.2547 77.2541 95.8351 77.4439 95.3692C77.6338 94.9033 77.7209 94.4019 77.6994 93.8992V77.6992" fill="#66C3CD"/>
<path d="M70.1994 77.9992V87.2992C70.1737 87.8652 69.9306 88.3994 69.5207 88.7906C69.1109 89.1818 68.566 89.3998 67.9994 89.3992H58.3994C56.5994 89.3992 54.9994 92.0992 54.9994 93.8992C54.944 94.8382 55.2583 95.7615 55.8751 96.4717C56.4918 97.1819 57.362 97.6225 58.2994 97.6992H74.0994C74.5705 97.7049 75.0373 97.6097 75.4686 97.42C75.8998 97.2303 76.2854 96.9504 76.5994 96.5992C76.9661 96.2547 77.2541 95.8351 77.4439 95.3692C77.6338 94.9033 77.7209 94.4019 77.6994 93.8992V77.6992" stroke="#00007E" stroke-width="2" stroke-linecap="round" stroke-linejoin="round"/>
<path d="M38.7995 77.4004C37.5995 82.9004 36.6995 87.9004 36.5995 88.3004C36.4523 89.1477 36.6417 90.019 37.1273 90.7288C37.6129 91.4385 38.3564 91.9307 39.1995 92.1004L44.5995 93.4004C45.4418 93.6046 46.3295 93.4981 47.0995 93.1004L47.2995 92.9004C47.9178 92.5521 48.4074 92.0138 48.6956 91.3653C48.9839 90.7169 49.0554 89.9927 48.8995 89.3004C48.7874 88.726 48.5246 88.1918 48.138 87.7525C47.7514 87.3132 47.2549 86.9846 46.6995 86.8004L40.0995 84.6004" fill="#66C3CD"/>
<path d="M38.7995 77.4004C37.5995 82.9004 36.6995 87.9004 36.5995 88.3004C36.4523 89.1477 36.6417 90.019 37.1273 90.7288C37.6129 91.4385 38.3564 91.9307 39.1995 92.1004L44.5995 93.4004C45.4418 93.6046 46.3295 93.4981 47.0995 93.1004L47.2995 92.9004C47.9178 92.5521 48.4074 92.0138 48.6956 91.3653C48.9839 90.7169 49.0554 89.9927 48.8995 89.3004C48.7874 88.726 48.5246 88.1918 48.138 87.7525C47.7514 87.3132 47.2549 86.9846 46.6995 86.8004L40.0995 84.6004" stroke="#00007E" stroke-width="2" stroke-linecap="round" stroke-linejoin="round"/>
<path d="M44.6 93.4004C45.4423 93.6046 46.3299 93.4981 47.1 93.1004L47.3 92.9004C47.8475 92.5678 48.2899 92.0874 48.5762 91.5144C48.8625 90.9414 48.9812 90.2992 48.9185 89.6617C48.8558 89.0242 48.6143 88.4174 48.2218 87.9112C47.8293 87.405 47.3018 87.0199 46.7 86.8004L40.1 84.6004L38.5 74.4004H56L58.8 97.7004H41.4L41 92.6004L44.6 93.4004Z" fill="white" stroke="#00007E" stroke-width="2" stroke-linecap="round" stroke-linejoin="round"/>
<path d="M67.7004 34.6C68.0963 33.9714 68.3045 33.2429 68.3004 32.5H55.5004C54.568 32.5 53.6447 32.6836 52.7833 33.0405C51.9219 33.3973 51.1392 33.9202 50.4799 34.5795C49.8206 35.2388 49.2977 36.0215 48.9408 36.8829C48.584 37.7444 48.4004 38.6676 48.4004 39.6V48.7L68.5004 47.1L71.1004 48.6V39.6C71.1573 38.5097 70.8558 37.4307 70.2418 36.5278C69.6279 35.625 68.7353 34.9479 67.7004 34.6Z" fill="#00007E" stroke="#00007E" stroke-width="2" stroke-linecap="round" stroke-linejoin="round"/>
<path d="M68.3996 46.6007V45.6007C68.3997 44.6598 68.2128 43.7283 67.8498 42.8604C67.4867 41.9924 66.9548 41.2052 66.2848 40.5446C65.6149 39.8839 64.8204 39.3631 63.9474 39.0122C63.0744 38.6613 62.1404 38.4875 61.1996 38.5007H58.2996C57.3588 38.4875 56.4248 38.6613 55.5518 39.0122C54.6789 39.3631 53.8843 39.8839 53.2144 40.5446C52.5445 41.2052 52.0125 41.9924 51.6495 42.8604C51.2864 43.7283 51.0995 44.6598 51.0996 45.6007V46.6007C50.1623 46.6268 49.2721 47.0175 48.6184 47.6898C47.9648 48.3622 47.5992 49.263 47.5996 50.2007C47.6234 51.1309 47.9969 52.018 48.6455 52.6852C49.2942 53.3524 50.1704 53.7507 51.0996 53.8007V54.1007C51.0995 55.1335 51.3045 56.156 51.7028 57.1089C52.101 58.0618 52.6845 58.9262 53.4194 59.6518C54.1543 60.3774 55.0261 60.9499 55.984 61.3359C56.9419 61.722 57.9669 61.9139 58.9996 61.9007H60.5996C61.6239 61.9007 62.6382 61.6989 63.5845 61.307C64.5309 60.915 65.3907 60.3404 66.115 59.6161C66.8393 58.8918 67.4139 58.032 67.8059 57.0856C68.1979 56.1393 68.3996 55.125 68.3996 54.1007V53.8007C69.3544 53.8007 70.2701 53.4214 70.9452 52.7463C71.6203 52.0712 71.9996 51.1555 71.9996 50.2007C71.9996 49.2459 71.6203 48.3303 70.9452 47.6551C70.2701 46.98 69.3544 46.6007 68.3996 46.6007Z" fill="white" stroke="#00007E" stroke-width="2" stroke-linecap="round" stroke-linejoin="round"/>
<path d="M117.9 65.1C118.056 65.1088 118.213 65.0766 118.353 65.0064C118.493 64.9363 118.613 64.8306 118.7 64.7C118.91 64.4485 119.017 64.1271 119 63.8L117.6 46.8C117.609 46.6434 117.576 46.4871 117.506 46.3468C117.436 46.2065 117.33 46.0869 117.2 46C116.937 45.8113 116.623 45.7067 116.3 45.7L107.2 46.4C106.03 46.478 104.865 46.1933 103.863 45.5849C102.86 44.9765 102.07 44.0738 101.6 43C100.668 40.6378 99.5308 38.3623 98.1998 36.2C97.5805 35.2101 97.2861 34.0513 97.3578 32.8859C97.4295 31.7204 97.8638 30.6065 98.5998 29.7L104.5 22.7C104.605 22.5821 104.687 22.4444 104.739 22.2949C104.791 22.1455 104.813 21.9872 104.804 21.8292C104.794 21.6712 104.754 21.5166 104.685 21.3743C104.615 21.2319 104.518 21.1047 104.4 21L91.4998 9.9C91.0998 9.7 90.6998 9.6 90.5998 9.7C90.428 9.68334 90.2548 9.71143 90.0971 9.78152C89.9394 9.85161 89.8025 9.96133 89.6998 10.1L83.7998 17C83.0468 17.9195 82.0114 18.5648 80.8543 18.836C79.6972 19.1072 78.4829 18.9891 77.3998 18.5C75.0829 17.4941 72.6708 16.7235 70.1998 16.2C69.0462 15.9288 68.0084 15.2986 67.2357 14.4001C66.463 13.5016 65.9953 12.3812 65.8998 11.2L65.0998 2.1C65.1086 1.94336 65.0764 1.78712 65.0062 1.64679C64.936 1.50646 64.8304 1.38691 64.6998 1.3C64.437 1.11132 64.1232 1.00672 63.7998 1L46.7998 2.4C46.6431 2.39116 46.4869 2.42342 46.3466 2.49359C46.2063 2.56375 46.0867 2.66938 45.9998 2.8C45.8111 3.06277 45.7065 3.37657 45.6998 3.7L46.3998 12.8C46.4778 13.9698 46.1931 15.1351 45.5847 16.1373C44.9763 17.1394 44.0736 17.9295 42.9998 18.4C40.6376 19.3313 38.3621 20.469 36.1998 21.8C35.2099 22.4193 34.0511 22.7137 32.8857 22.642C31.7202 22.5703 30.6063 22.136 29.6998 21.4L22.6998 15.5C22.5819 15.3944 22.4442 15.3132 22.2947 15.2611C22.1453 15.209 21.987 15.1869 21.829 15.1962C21.671 15.2055 21.5163 15.2459 21.374 15.3153C21.2317 15.3846 21.1045 15.4813 20.9998 15.6L9.89979 28.5C9.69979 28.9 9.59979 29.3 9.69979 29.4C9.68313 29.5718 9.71121 29.7449 9.78131 29.9027C9.8514 30.0604 9.96112 30.1973 10.0998 30.3L16.9998 36.2C17.9192 36.953 18.5646 37.9884 18.8358 39.1455C19.107 40.3026 18.9889 41.5168 18.4998 42.6C17.4939 44.9169 16.7233 47.329 16.1998 49.8C15.9285 50.9536 15.2983 51.9914 14.3999 52.7641C13.5014 53.5367 12.381 54.0045 11.1998 54.1L2.09979 54.9C1.94314 54.8912 1.78691 54.9234 1.64658 54.9936C1.50625 55.0637 1.3867 55.1694 1.29979 55.3C1.08999 55.5515 0.982847 55.8729 0.999789 56.2L2.39979 73.2C2.41239 73.3578 2.45608 73.5115 2.52834 73.6524C2.6006 73.7932 2.70002 73.9183 2.82085 74.0206C2.94169 74.1228 3.08156 74.2001 3.2324 74.2481C3.38325 74.2961 3.54209 74.3137 3.69979 74.3L12.7998 73.6C13.9696 73.522 15.1349 73.8067 16.1371 74.4151C17.1392 75.0235 17.9293 75.9262 18.3998 77C19.3311 79.3622 20.4688 81.6377 21.7998 83.8C22.4191 84.7899 22.7135 85.9486 22.6418 87.1141C22.5701 88.2796 22.1358 89.3935 21.3998 90.3L15.4998 97.3C15.3709 97.4072 15.2746 97.5482 15.2216 97.7073C15.1686 97.8663 15.161 98.0369 15.1998 98.2C15.225 98.5082 15.3683 98.7948 15.5998 99L28.4998 110.1C28.8998 110.3 29.2998 110.4 29.3998 110.3C29.5716 110.317 29.7447 110.289 29.9024 110.218C30.0602 110.148 30.197 110.039 30.2998 109.9L36.1998 103C36.7112 102.38 37.3523 101.88 38.0779 101.534C38.8036 101.189 39.5961 101.006 40.3998 101C41.1585 101.024 41.9054 101.193 42.5998 101.5C44.9167 102.506 47.3288 103.276 49.7998 103.8C50.9534 104.071 51.9912 104.701 52.7638 105.6C53.5365 106.498 54.0043 107.619 54.0998 108.8L54.8998 117.9C54.9124 118.058 54.9561 118.212 55.0283 118.352C55.1006 118.493 55.2 118.618 55.3209 118.721C55.4417 118.823 55.5816 118.9 55.7324 118.948C55.8833 118.996 56.0421 119.014 56.1998 119L73.1998 117.6C73.3564 117.609 73.5127 117.577 73.653 117.506C73.7933 117.436 73.9129 117.331 73.9998 117.2C74.1885 116.937 74.2931 116.623 74.2998 116.3L73.5998 107.2C73.5218 106.03 73.8064 104.865 74.4149 103.863C75.0233 102.861 75.926 102.07 76.9998 101.6C79.362 100.669 81.6374 99.531 83.7998 98.2C84.7897 97.5807 85.9484 97.2863 87.1139 97.358C88.2794 97.4297 89.3933 97.864 90.2998 98.6L97.2998 104.5C97.4177 104.606 97.5554 104.687 97.7048 104.739C97.8543 104.791 98.0126 104.813 98.1706 104.804C98.3286 104.795 98.4832 104.754 98.6255 104.685C98.7678 104.615 98.895 104.519 98.9998 104.4L110.1 91.5C110.3 91.1 110.4 90.7 110.3 90.6C110.316 90.4282 110.288 90.2551 110.218 90.0973C110.148 89.9396 110.038 89.8027 109.9 89.7L103 83.8C102.08 83.047 101.435 82.0116 101.164 80.8545C100.893 79.6974 101.011 78.4832 101.5 77.4C102.506 75.0831 103.276 72.671 103.8 70.2C104.071 69.0464 104.701 68.0086 105.6 67.2359C106.498 66.4633 107.619 65.9955 108.8 65.9L117.9 65.1ZM56.9998 22.6C64.3986 21.9943 71.8107 23.5982 78.2972 27.2085C84.7837 30.8189 90.0527 36.2733 93.4368 42.8807C96.8208 49.4881 98.1676 56.9512 97.3065 64.3247C96.4454 71.6981 93.4152 78.6501 88.5998 84.3C85.4192 88.0774 81.5166 91.1818 77.1207 93.4313C72.7247 95.6807 67.924 97.03 62.9998 97.4H59.9998C50.2663 97.472 40.8862 93.7565 33.8422 87.0388C26.7982 80.3211 22.6421 71.1278 22.2526 61.4018C21.863 51.6759 25.2705 42.1796 31.7547 34.9201C38.2389 27.6605 47.2918 23.2067 56.9998 22.5V22.6Z" fill="#2892FF" stroke="#00007E" stroke-width="2.26" stroke-miterlimit="10"/>
</g>
<defs>
<clipPath id="clip0_1559_2890">
<rect width="120" height="120" fill="white"/>
</clipPath>
</defs>
</svg>
