<svg width="205" height="60" viewBox="0 0 205 60" fill="none" xmlns="http://www.w3.org/2000/svg">
<path d="M29.4379 17.855C29.2161 17.3546 28.8948 16.9046 28.4936 16.5323C28.1129 16.1774 27.6695 15.8965 27.1859 15.7041L27.0847 15.6667V14.3364C27.0927 13.597 26.9462 12.8641 26.6545 12.1847C26.3628 11.5052 25.9325 10.8941 25.391 10.3906C24.8904 9.92439 24.307 9.55583 23.671 9.30393C23.0333 9.05493 22.3546 8.92782 21.67 8.92921C20.964 8.93014 20.2652 9.07067 19.6138 9.34269C18.9623 9.61472 18.3711 10.0129 17.8741 10.5143L15.8356 12.5565C15.5528 11.7237 15.0673 10.9743 14.423 10.3756C13.9225 9.91012 13.3391 9.54276 12.703 9.2927C12.0666 9.04373 11.3891 8.91662 10.7057 8.91798C9.99976 8.91891 9.30095 9.05944 8.6495 9.33146C7.99805 9.60349 7.40683 10.0016 6.90984 10.503L2.57809 14.8385C1.75973 15.6548 1.11143 16.6253 0.670762 17.6939C0.225357 18.7623 -0.00265774 19.9088 2.33723e-05 21.0664V36.6996C-0.00158421 37.2777 0.118427 37.8497 0.35226 38.3784C0.576298 38.8786 0.897228 39.3294 1.29654 39.7049C1.67657 40.0597 2.12029 40.3394 2.6043 40.5293L2.7467 40.5817V41.8408C2.74097 42.5782 2.88858 43.3087 3.18015 43.986C3.47172 44.6633 3.90089 45.2727 4.44043 45.7753C4.94026 46.2416 5.52387 46.6091 6.1604 46.8583C6.79761 47.1089 7.47666 47.2361 8.16139 47.233C8.86721 47.2325 9.56589 47.0918 10.2169 46.8191C10.8679 46.5463 11.4582 46.147 11.9535 45.6442L14.0182 43.5832C14.3026 44.4081 14.7851 45.1506 15.4234 45.7453C15.9231 46.2128 16.5067 46.5815 17.1434 46.832C17.7811 47.081 18.4598 47.2081 19.1444 47.2068C19.8517 47.2064 20.5518 47.0654 21.2041 46.792C21.8564 46.5186 22.4479 46.1182 22.9441 45.6142L27.2271 41.3162C28.0398 40.5005 28.6841 39.5328 29.1232 38.4683C29.5658 37.3992 29.7925 36.253 29.7902 35.0958V19.5338C29.791 18.9558 29.671 18.3839 29.4379 17.855Z" fill="white"/>
<path d="M2.58224 21.0479V36.6213C2.5772 36.9321 2.66521 37.2373 2.83496 37.4978C3.00471 37.7582 3.24845 37.9619 3.53486 38.0827C3.82127 38.2036 4.13729 38.2361 4.44229 38.1759C4.74729 38.1158 5.02736 37.9659 5.24651 37.7454L13.5278 29.4491V14.3517C13.5284 13.7905 13.3624 13.2417 13.0506 12.7751C12.7389 12.3084 12.2956 11.9448 11.777 11.7304C11.2583 11.5161 10.6877 11.4606 10.1375 11.571C9.58722 11.6815 9.08219 11.9528 8.68642 12.3507L4.40712 16.645C3.23977 17.8131 2.58348 19.3965 2.58224 21.0479Z" fill="url(#paint0_linear_313_8067)"/>
<path d="M16.207 26.7051L16.2482 41.8475C16.2501 42.4076 16.4178 42.9545 16.7301 43.4195C17.0424 43.8844 17.4853 44.2465 18.0031 44.4601C18.5208 44.6737 19.0902 44.7293 19.6395 44.6198C20.1888 44.5102 20.6934 44.2406 21.0896 43.8447L25.4214 39.5092C26.5854 38.3451 27.2414 36.7675 27.2462 35.1213V19.473C27.2497 19.1637 27.1612 18.8604 26.9918 18.6016C26.8224 18.3428 26.5798 18.1403 26.295 18.0197C26.0101 17.8992 25.6958 17.8661 25.3921 17.9247C25.0884 17.9833 24.809 18.131 24.5895 18.3488L16.207 26.7051Z" fill="url(#paint1_linear_313_8067)"/>
<path d="M19.6647 12.3274L5.80014 26.192C5.642 26.3499 5.51657 26.5374 5.43105 26.7438C5.34553 26.9502 5.30158 27.1715 5.30176 27.3949V41.8066C5.30113 42.3673 5.46693 42.9157 5.77816 43.3821C6.0894 43.8486 6.53208 44.2121 7.05011 44.4268C7.56815 44.6415 8.13824 44.6976 8.68818 44.588C9.23813 44.4785 9.7432 44.2081 10.1394 43.8113L24.004 29.9467C24.1621 29.7889 24.2876 29.6014 24.3731 29.395C24.4586 29.1886 24.5025 28.9673 24.5024 28.7439V14.3322C24.503 13.7714 24.3372 13.2231 24.026 12.7566C23.7147 12.2902 23.2721 11.9266 22.754 11.7119C22.236 11.4972 21.6659 11.4411 21.1159 11.5507C20.566 11.6603 20.0609 11.9306 19.6647 12.3274Z" fill="url(#paint2_linear_313_8067)"/>
<path d="M24.5063 18.4512L19.56 23.3712C19.2399 23.6882 18.8076 23.866 18.3572 23.8659H14.3739C14.262 23.8664 14.1512 23.8447 14.0478 23.8021C13.9444 23.7596 13.8504 23.6969 13.7713 23.6178C13.6922 23.5387 13.6296 23.4448 13.587 23.3413C13.5444 23.2379 13.5228 23.1271 13.5233 23.0152V18.4662L5.78159 26.2079C5.62344 26.3657 5.49799 26.5532 5.41247 26.7596C5.32695 26.966 5.28303 27.1873 5.2832 27.4107V37.6855L10.2782 32.6942C10.5974 32.3755 11.03 32.1963 11.481 32.1959H15.3744C15.5993 32.1959 15.8151 32.285 15.9745 32.4437C16.134 32.6024 16.224 32.8178 16.225 33.0427V37.7155L24.0191 29.9475C24.3326 29.6288 24.5076 29.1992 24.5063 28.7522V18.4512Z" fill="#150DCE"/>
<path d="M51.7486 18.582H55.4508V37.5053H51.7486V29.6662H44.7189V37.5053H40.9717V18.582H44.7189V26.0989H51.7486V18.582Z" fill="#150DCE"/>
<path d="M67.6257 23.9883H71.3729L66.4529 37.5044C65.7509 39.4529 64.8191 40.8631 63.6575 41.735C62.3999 42.6369 60.8591 43.0546 59.3182 42.9116V39.6703C60.1134 39.7308 60.9057 39.5208 61.5665 39.0745C62.1897 38.5499 62.6457 37.8543 62.878 37.0735L57.3359 23.9883H61.1169L64.6317 33.0715L67.6257 23.9883Z" fill="#150DCE"/>
<path d="M80.8711 23.6097C81.7508 23.6009 82.6222 23.781 83.4264 24.1379C84.2305 24.4947 84.9488 25.0199 85.5326 25.6781C86.8186 27.0481 87.5133 28.8696 87.4661 30.7481C87.5131 32.6254 86.8184 34.4456 85.5326 35.8143C84.9488 36.4724 84.2305 36.9977 83.4264 37.3545C82.6222 37.7114 81.7508 37.8915 80.8711 37.8827C78.9775 37.8827 77.5173 37.2257 76.4906 35.9117V42.9114H73.002V23.9881H76.4794V25.5844C77.5136 24.2704 78.9775 23.6122 80.8711 23.6097ZM77.5436 33.491C77.8931 33.8442 78.3119 34.1213 78.7736 34.3051C79.2353 34.4888 79.7299 34.5753 80.2265 34.559C80.7241 34.5736 81.2194 34.4864 81.6821 34.3028C82.1447 34.1192 82.565 33.8429 82.917 33.491C83.2726 33.1307 83.5507 32.7016 83.7344 32.2299C83.918 31.7582 84.0033 31.2539 83.985 30.7481C84.0034 30.2417 83.9181 29.7368 83.7345 29.2645C83.5509 28.7922 83.2727 28.3624 82.917 28.0014C82.565 27.6495 82.1447 27.3732 81.6821 27.1896C81.2194 27.0059 80.7241 26.9188 80.2265 26.9334C79.7305 26.9176 79.2366 27.0043 78.7756 27.1881C78.3146 27.3718 77.8964 27.6487 77.5473 28.0014C77.1956 28.3645 76.921 28.795 76.74 29.2671C76.5591 29.7391 76.4755 30.2429 76.4943 30.7481C76.4755 31.2524 76.5587 31.7553 76.739 32.2266C76.9193 32.698 77.193 33.128 77.5436 33.491Z" fill="#150DCE"/>
<path d="M92.8743 32.1795C93.3439 33.8732 94.6142 34.7201 96.6852 34.7201C98.0192 34.7201 99.0309 34.2704 99.7129 33.3711L102.527 34.9899C101.193 36.9209 99.2283 37.8852 96.6327 37.8827C94.3994 37.8827 92.6057 37.207 91.2517 35.8555C90.5827 35.1877 90.0574 34.3901 89.7081 33.5118C89.3588 32.6334 89.193 31.6929 89.2208 30.748C89.1939 29.8076 89.3573 28.8714 89.7011 27.9957C90.045 27.12 90.5622 26.3228 91.2218 25.6519C91.8904 24.9749 92.6922 24.4438 93.5764 24.0923C94.4607 23.7408 95.4082 23.5765 96.3592 23.6097C97.2757 23.5835 98.1874 23.7532 99.0332 24.1073C99.879 24.4614 100.64 24.9918 101.264 25.6631C102.555 27.0364 103.25 28.8643 103.198 30.748C103.195 31.2282 103.15 31.7072 103.063 32.1795H92.8743ZM92.8218 29.4777H99.7129C99.5778 28.6614 99.1387 27.9264 98.4838 27.4205C97.8679 26.9731 97.1241 26.7366 96.3629 26.746C95.5286 26.7143 94.7082 26.9666 94.0359 27.4618C93.407 27.9703 92.9772 28.684 92.8218 29.4777Z" fill="#150DCE"/>
<path d="M115.773 18.582H119.261V37.5053H115.773V35.9128C114.746 37.2268 113.286 37.8838 111.392 37.8838C110.512 37.8931 109.641 37.7132 108.837 37.3563C108.032 36.9994 107.314 36.4739 106.731 35.8154C105.445 34.4467 104.75 32.6265 104.797 30.7492C104.75 28.8707 105.445 27.0492 106.731 25.6792C107.314 25.0206 108.032 24.4951 108.837 24.1383C109.641 23.7814 110.512 23.6015 111.392 23.6108C113.286 23.6108 114.746 24.269 115.773 25.5855V18.582ZM109.35 33.4921C109.702 33.844 110.122 34.1203 110.585 34.3039C111.048 34.4875 111.543 34.5747 112.04 34.5601C112.537 34.5758 113.03 34.4892 113.491 34.3054C113.952 34.1217 114.371 33.8448 114.72 33.4921C115.071 33.1294 115.345 32.6995 115.526 32.2281C115.707 31.7568 115.791 31.2537 115.773 30.7492C115.792 30.244 115.708 29.7402 115.527 29.2682C115.346 28.7961 115.071 28.3656 114.72 28.0025C114.371 27.6498 113.952 27.3729 113.491 27.1892C113.03 27.0054 112.537 26.9187 112.04 26.9345C111.543 26.9199 111.048 27.007 110.585 27.1907C110.122 27.3743 109.702 27.6506 109.35 28.0025C108.994 28.3634 108.716 28.7933 108.533 29.2656C108.349 29.7379 108.264 30.2427 108.282 30.7492C108.264 31.255 108.349 31.7593 108.533 32.231C108.716 32.7027 108.994 33.1318 109.35 33.4921Z" fill="#150DCE"/>
<path d="M125.943 26.3122C126.229 25.4924 126.799 24.8024 127.55 24.3674C128.311 23.9323 129.174 23.7085 130.05 23.7191V27.6274C129.052 27.4856 128.037 27.7164 127.198 28.2757C126.359 28.834 125.943 29.7746 125.943 31.0598V37.52H122.454V23.9889H125.943V26.3122Z" fill="#150DCE"/>
<path d="M133.812 22.381C133.532 22.3831 133.255 22.3281 132.997 22.2192C132.739 22.1103 132.507 21.9498 132.313 21.7477C132.111 21.5542 131.95 21.3214 131.842 21.0637C131.733 20.8059 131.678 20.5286 131.68 20.2488C131.68 19.9694 131.736 19.6929 131.845 19.4355C131.954 19.1781 132.113 18.9451 132.313 18.75C132.505 18.5446 132.737 18.381 132.995 18.2695C133.253 18.1579 133.531 18.1008 133.812 18.1017C134.097 18.0983 134.38 18.1542 134.642 18.2658C134.905 18.3774 135.141 18.5422 135.337 18.75C135.538 18.9449 135.697 19.1778 135.807 19.4352C135.916 19.6926 135.973 19.9692 135.974 20.2488C135.975 20.5289 135.92 20.8063 135.81 21.064C135.701 21.3217 135.54 21.5544 135.337 21.7477C135.14 21.9522 134.903 22.1139 134.64 22.2228C134.378 22.3318 134.096 22.3856 133.812 22.381ZM132.081 37.5196V23.9885H135.569V37.5046L132.081 37.5196Z" fill="#150DCE"/>
<path d="M147.647 23.9883H151.484L146.347 37.5044H142.375L137.237 23.9883H141.078L144.349 33.4499L147.647 23.9883Z" fill="#150DCE"/>
<path d="M155.568 32.1795C156.038 33.8732 157.308 34.7201 159.379 34.7201C160.713 34.7201 161.722 34.2704 162.407 33.3711L165.217 34.9899C163.883 36.921 161.918 37.8852 159.323 37.8827C157.089 37.8827 155.297 37.207 153.946 35.8555C153.277 35.1878 152.752 34.3902 152.403 33.5117C152.054 32.6333 151.889 31.6927 151.918 30.7481C151.891 29.8077 152.055 28.8715 152.399 27.9958C152.743 27.12 153.26 26.3228 153.919 25.6519C154.587 24.9748 155.388 24.4437 156.272 24.0922C157.155 23.7406 158.102 23.5764 159.053 23.6097C159.97 23.5835 160.882 23.7531 161.729 24.1072C162.575 24.4613 163.336 24.9917 163.962 25.6631C165.252 27.0365 165.947 28.8643 165.895 30.7481C165.892 31.2283 165.847 31.7073 165.76 32.1795H155.568ZM155.512 29.4778H162.407C162.272 28.6614 161.832 27.9264 161.178 27.4206C160.561 26.9724 159.815 26.7358 159.053 26.7461C158.22 26.714 157.4 26.9664 156.73 27.4618C156.098 27.9689 155.667 28.6831 155.512 29.4778Z" fill="#150DCE"/>
<path d="M175.844 23.6095C176.525 23.5894 177.203 23.7124 177.834 23.9706C178.464 24.2288 179.034 24.6164 179.505 25.1084C180.467 26.1077 180.949 27.4816 180.951 29.2303V37.5303H177.463V29.6612C177.488 29.2852 177.437 28.9078 177.312 28.5522C177.187 28.1966 176.991 27.8702 176.736 27.5928C176.475 27.3493 176.169 27.1606 175.834 27.0377C175.499 26.9147 175.143 26.8601 174.787 26.8771C174.389 26.8584 173.99 26.9231 173.618 27.0669C173.246 27.2108 172.908 27.4307 172.625 27.7127C172.086 28.2748 171.816 29.1104 171.816 30.2271V37.5266H168.327V23.988H171.816V25.4869C172.663 24.2353 174.005 23.6095 175.844 23.6095Z" fill="#150DCE"/>
<defs>
<linearGradient id="paint0_linear_313_8067" x1="8.05491" y1="38.2054" x2="8.05491" y2="11.516" gradientUnits="userSpaceOnUse">
<stop stop-color="white"/>
<stop offset="0.69" stop-color="#2892FF"/>
</linearGradient>
<linearGradient id="paint1_linear_313_8067" x1="21.7265" y1="44.6747" x2="21.7265" y2="17.8966" gradientUnits="userSpaceOnUse">
<stop offset="0.31" stop-color="#2892FF"/>
<stop offset="1" stop-color="white"/>
</linearGradient>
<linearGradient id="paint2_linear_313_8067" x1="14.9029" y1="44.6413" x2="14.9029" y2="11.4961" gradientUnits="userSpaceOnUse">
<stop stop-color="white"/>
<stop offset="0.06" stop-color="#E6F5F7"/>
<stop offset="0.22" stop-color="#AFE0E5"/>
<stop offset="0.35" stop-color="#87D0D8"/>
<stop offset="0.45" stop-color="#6FC7D0"/>
<stop offset="0.52" stop-color="#66C3CD"/>
<stop offset="0.58" stop-color="#6FC7D0"/>
<stop offset="0.67" stop-color="#87D0D8"/>
<stop offset="0.8" stop-color="#AFE0E5"/>
<stop offset="0.94" stop-color="#E6F5F7"/>
<stop offset="1" stop-color="white"/>
</linearGradient>
</defs>
</svg>
