<svg width="222" height="33" viewBox="0 0 222 33" fill="none" xmlns="http://www.w3.org/2000/svg">
<g clip-path="url(#clip0_38_565)">
<path d="M59.4 7.30005C61.5 7.30005 63.1 7.90005 64.3 9.20005C65.5 10.5 66.1 12.2 66.1 14.3V24.8H63.8V14.3C63.8 12.8 63.4 11.6 62.6 10.7C61.8 9.90005 60.6 9.40005 59.2 9.40005C57.6 9.40005 56.2 9.90005 55.2 11C54.2 12 53.7 13.6 53.7 15.8V24.8H51.4V0.800049H53.7V10.3C55 8.30005 56.9 7.30005 59.4 7.30005Z" fill="white"/>
<path d="M82.6 7.69995H85L77.7 26.4C77 28.1 76.1 29.4 74.9 30.4C73.7 31.4 72.3 31.8 70.8 31.7V29.6C72.9 29.8 74.4 28.6 75.5 26L75.9 24.9L68.2 7.69995H70.6L77 22L82.6 7.69995Z" fill="white"/>
<path d="M96.9 7.30005C99.3 7.30005 101.4 8.20005 103.2 9.90005C104.9 11.6 105.8 13.8 105.8 16.3C105.8 18.8 104.9 20.9 103.2 22.7C101.5 24.4 99.4 25.3 96.9 25.3C93.9 25.3 91.5 24 90 21.5V31.7001H87.7V7.70005H90V11C91.6 8.50005 93.9 7.30005 96.9 7.30005ZM91.9 21.1C93.2 22.4 94.8 23.1 96.7 23.1C98.6 23.1 100.2 22.4 101.5 21.1C102.8 19.8 103.5 18.2 103.5 16.3C103.5 14.4 102.8 12.8 101.5 11.5C100.2 10.2 98.6 9.50005 96.7 9.50005C94.8 9.50005 93.2 10.2 91.9 11.5C90.6 12.8 89.9 14.4 89.9 16.3C90 18.1 90.6 19.8 91.9 21.1Z" fill="white"/>
<path d="M117.5 7.30005C120 7.30005 122.1 8.20005 123.7 10C125.3 11.8 126 13.9 126 16.4C126 16.7 126 17 125.9 17.5H110.8C111 19.2 111.8 20.6 113 21.6C114.2 22.6 115.8 23.1 117.6 23.1C118.9 23.1 120 22.8 121 22.3C121.9 21.8 122.7 21.1 123.1 20.2L125.1 21.4C124.3 22.6 123.3 23.6 122 24.3C120.7 25 119.2 25.4 117.5 25.4C114.8 25.4 112.6 24.6 110.9 22.9C109.2 21.2 108.4 19.1 108.4 16.5C108.4 13.9 109.2 11.8 110.9 10.1C112.7 8.10005 114.8 7.30005 117.5 7.30005ZM117.5 9.50005C115.7 9.50005 114.2 10 113 11.1C111.8 12.2 111.1 13.5 110.9 15.2H123.7C123.5 13.4 122.8 12 121.6 11C120.4 10 119 9.50005 117.5 9.50005Z" fill="white"/>
<path d="M145.3 0.800049H147.6V24.8H145.3V21.4C143.7 23.9 141.4 25.2001 138.4 25.2001C136 25.2001 133.9 24.3001 132.1 22.6C130.4 20.9 129.5 18.7001 129.5 16.2C129.5 13.7 130.4 11.6 132.1 9.80005C133.8 8.10005 135.9 7.20005 138.4 7.20005C141.4 7.20005 143.8 8.50005 145.3 11V0.800049ZM133.7 21.1C135 22.4 136.6 23.1 138.5 23.1C140.4 23.1 142 22.4 143.3 21.1C144.6 19.8001 145.3 18.2 145.3 16.3C145.3 14.4 144.6 12.8 143.3 11.5C142 10.2 140.4 9.50005 138.5 9.50005C136.6 9.50005 135 10.2 133.7 11.5C132.4 12.8 131.7 14.4 131.7 16.3C131.8 18.1 132.4 19.8001 133.7 21.1Z" fill="white"/>
<path d="M154.6 10.4999C155.7 8.3999 157.5 7.3999 160 7.3999V9.5999C158.4 9.5999 157.2 10.0999 156.1 10.9999C155.1 11.8999 154.6 13.3999 154.6 15.2999V24.7999H152.3V7.6999H154.6V10.4999Z" fill="white"/>
<path d="M165.4 3.59995C165.1 3.89995 164.7 4.09995 164.2 4.09995C163.7 4.09995 163.4 3.89995 163 3.59995C162.7 3.29995 162.5 2.89995 162.5 2.39995C162.5 1.89995 162.7 1.59995 163 1.19995C163.3 0.899951 163.7 0.699951 164.2 0.699951C164.7 0.699951 165 0.899951 165.4 1.19995C165.7 1.49995 165.9 1.89995 165.9 2.39995C165.9 2.79995 165.8 3.19995 165.4 3.59995ZM163.1 24.7999V7.69995H165.4V24.9H163.1V24.7999Z" fill="white"/>
<path d="M182.5 7.69995H184.9L177.9 24.9H175.2L168.2 7.69995H170.6L176.6 22.5L182.5 7.69995Z" fill="white"/>
<path d="M194.9 7.30005C197.4 7.30005 199.5 8.20005 201.1 10C202.7 11.8 203.4 13.9 203.4 16.4C203.4 16.7 203.4 17 203.3 17.5H188.2C188.4 19.2 189.2 20.6 190.4 21.6C191.6 22.6 193.2 23.1 195 23.1C196.3 23.1 197.4 22.8 198.4 22.3C199.3 21.8 200.1 21.1 200.5 20.2L202.5 21.4C201.7 22.6 200.7 23.6 199.4 24.3C198.1 25 196.6 25.4 194.9 25.4C192.2 25.4 190 24.6 188.3 22.9C186.6 21.2 185.8 19.1 185.8 16.5C185.8 13.9 186.6 11.8 188.3 10.1C190.2 8.10005 192.3 7.30005 194.9 7.30005ZM194.9 9.50005C193.1 9.50005 191.6 10 190.4 11.1C189.2 12.2 188.5 13.5 188.3 15.2H201.1C200.9 13.4 200.2 12 199 11C197.8 10 196.5 9.50005 194.9 9.50005Z" fill="white"/>
<path d="M215.1 7.30005C217.2 7.30005 218.8 7.90005 220 9.20005C221.2 10.5 221.8 12.2 221.8 14.3V24.8H219.5V14.3C219.5 12.8 219.1 11.6 218.3 10.7C217.5 9.90005 216.3 9.40005 214.9 9.40005C213.3 9.40005 211.9 9.90005 210.9 11C209.9 12 209.4 13.6 209.4 15.8V24.8H207V7.70005H209.3V10.4C210.6 8.30005 212.5 7.30005 215.1 7.30005Z" fill="white"/>
<path d="M16 32.2C24.8366 32.2 32 25.0365 32 16.2C32 7.36339 24.8366 0.199951 16 0.199951C7.16344 0.199951 0 7.36339 0 16.2C0 25.0365 7.16344 32.2 16 32.2Z" fill="#000026"/>
<path opacity="0.1" d="M16 32.2C24.8366 32.2 32 25.0365 32 16.2C32 7.36339 24.8366 0.199951 16 0.199951C7.16344 0.199951 0 7.36339 0 16.2C0 25.0365 7.16344 32.2 16 32.2Z" fill="url(#paint0_linear_38_565)"/>
<path d="M16 0C14.7 0 13.4 0.2 12.2 0.5C13.5 0.8 14.4 1.9 14.4 3.3C14.4 4.3 15.2 5 16.1 5C17.1 5 17.8 4.2 17.8 3.3C17.9 2.1 17.6 1 17 0C16.8 0 16.6 0 16.5 0H16Z" fill="#00C5FF"/>
<path d="M11.5 25.7001C15.1 25.7001 17.9 22.9001 17.9 19.4001C17.9 18.4001 17.1 17.7001 16.2 17.7001C15.2 17.7001 14.5 18.5001 14.5 19.4001C14.5 21.0001 13.2 22.3001 11.6 22.3001H11.5C9.90002 22.3001 8.70002 21.0001 8.70002 19.5001V3.3001C8.70002 2.6001 8.90002 2.0001 9.30002 1.6001C7.80002 2.3001 6.40002 3.2001 5.30002 4.3001V19.5001C5.20002 22.9001 8.00002 25.7001 11.5 25.7001Z" fill="#FF7CA6"/>
<path d="M20.8 6.3999C17.2 6.3999 14.4 9.1999 14.4 12.6999C14.4 13.6999 15.2 14.3999 16.1 14.3999C17.1 14.3999 17.8 13.5999 17.8 12.6999C17.8 11.0999 19.1 9.7999 20.7 9.7999H20.8C22.4 9.7999 23.7 11.0999 23.7 12.6999V28.8999C23.7 29.5999 23.5 30.1999 23 30.6999C24.5 29.9999 25.8 29.0999 27.1 27.9999V12.6999C27.2 9.2999 24.3 6.3999 20.8 6.3999Z" fill="#9B5AFF"/>
<path d="M16.5 32.0999C17.8 32.0999 19 32 20.2 31.7C18.9 31.4 17.9 30.3 17.9 28.9C17.9 27.9 17.1 27.2 16.2 27.2C15.2 27.2 14.5 28 14.5 28.9C14.5 30.1 14.8 31.1999 15.4 32.0999C15.6 32.0999 15.8 32.0999 16.1 32.0999H16.5Z" fill="#FFA834"/>
</g>
<defs>
<linearGradient id="paint0_linear_38_565" x1="4.6869" y1="27.5381" x2="27.3173" y2="4.90765" gradientUnits="userSpaceOnUse">
<stop stop-color="#1DBCFF" stop-opacity="0"/>
<stop offset="1" stop-color="#00B4FF"/>
</linearGradient>
<clipPath id="clip0_38_565">
<rect width="221.8" height="32.2" fill="white"/>
</clipPath>
</defs>
</svg>
