<svg width="13" height="14" viewBox="0 0 13 14" fill="none" xmlns="http://www.w3.org/2000/svg">
<path fill-rule="evenodd" clip-rule="evenodd" d="M2.16665 2.53944C1.75976 2.53944 1.42542 2.87377 1.42542 3.28066V9.78066C1.42542 10.1876 1.75976 10.5219 2.16665 10.5219H10.8333C11.2402 10.5219 11.5745 10.1876 11.5745 9.78066V3.28066C11.5745 2.87377 11.2402 2.53944 10.8333 2.53944H2.16665ZM0.741211 3.28066C0.741211 2.49589 1.38188 1.85522 2.16665 1.85522H10.8333C11.6181 1.85522 12.2588 2.49589 12.2588 3.28066V9.78066C12.2588 10.5654 11.6181 11.2061 10.8333 11.2061H2.16665C1.38188 11.2061 0.741211 10.5654 0.741211 9.78066V3.28066Z" fill="white"/>
<path fill-rule="evenodd" clip-rule="evenodd" d="M0.803082 3.08467C0.911432 2.92989 1.12474 2.89224 1.27953 3.00059L6.50001 6.65493L11.7205 3.00059C11.8753 2.89224 12.0886 2.92989 12.1969 3.08467C12.3053 3.23946 12.2676 3.45277 12.1129 3.56112L6.6962 7.35279C6.5784 7.43524 6.42162 7.43524 6.30383 7.35279L0.887161 3.56112C0.732376 3.45277 0.694732 3.23946 0.803082 3.08467Z" fill="white"/>
</svg>
