<svg width="24" height="25" viewBox="0 0 24 25" fill="none" xmlns="http://www.w3.org/2000/svg">
<g clip-path="url(#clip0_46_181)">
<path d="M21 10.8855C21 17.8855 12 23.8855 12 23.8855C12 23.8855 3 17.8855 3 10.8855C3 8.49855 3.94821 6.20936 5.63604 4.52154C7.32387 2.83371 9.61305 1.8855 12 1.8855C14.3869 1.8855 16.6761 2.83371 18.364 4.52154C20.0518 6.20936 21 8.49855 21 10.8855Z" stroke="#7419FF" stroke-width="2" stroke-linecap="round" stroke-linejoin="round"/>
<path d="M12 13.8855C13.6569 13.8855 15 12.5424 15 10.8855C15 9.22864 13.6569 7.8855 12 7.8855C10.3431 7.8855 9 9.22864 9 10.8855C9 12.5424 10.3431 13.8855 12 13.8855Z" stroke="#7419FF" stroke-width="2" stroke-linecap="round" stroke-linejoin="round"/>
</g>
<defs>
<clipPath id="clip0_46_181">
<rect width="24" height="24" fill="white" transform="translate(0 0.885498)"/>
</clipPath>
</defs>
</svg>
