<svg width="100" height="64" viewBox="0 0 100 64" fill="none" xmlns="http://www.w3.org/2000/svg">
<path opacity="0.1" d="M77.4955 63.7363C74.4102 63.7363 71.4459 63.1571 68.6025 61.9988C65.8197 60.7796 63.3696 59.0726 61.2523 56.878C59.1954 54.6833 57.5318 52.062 56.2613 49.0138C55.0514 45.9047 54.4465 42.4604 54.4465 38.6807C54.4465 33.7427 55.1119 29.2925 56.4428 25.3299C57.7737 21.3064 59.5886 17.7096 61.8875 14.5395C64.2468 11.3085 67.0296 8.50426 70.2359 6.12673C73.4422 3.74919 76.9208 1.70695 80.6715 0L86.7514 5.76095C82.6981 8.13849 79.5523 10.7294 77.314 13.5337C75.1361 16.3379 73.6237 19.6604 72.7768 23.501C73.6237 23.2572 74.5312 23.0438 75.4991 22.8609C76.467 22.678 77.6467 22.5866 79.0381 22.5866C82.1839 22.5866 85.0272 23.0438 87.5681 23.9583C90.1694 24.8727 92.3775 26.2139 94.1924 27.9818C96.0678 29.6887 97.4894 31.8224 98.4574 34.3828C99.4858 36.9433 100 39.8695 100 43.1614C100 46.0267 99.4858 48.709 98.4574 51.2085C97.4894 53.7079 96.0375 55.9026 94.1016 57.7924C92.2263 59.6213 89.8669 61.0844 87.0236 62.1817C84.2408 63.2181 81.0647 63.7363 77.4955 63.7363ZM23.049 63.7363C19.9637 63.7363 16.9994 63.1571 14.1561 61.9988C11.3733 60.7796 8.92317 59.0726 6.80581 56.878C4.74894 54.6833 3.0853 52.062 1.81488 49.0138C0.604961 45.9047 0 42.4604 0 38.6807C0 33.7427 0.665457 29.2925 1.99637 25.3299C3.32728 21.3064 5.14217 17.7096 7.44102 14.5395C9.80036 11.3085 12.5832 8.50426 15.7895 6.12673C18.9958 3.74919 22.4743 1.70695 26.225 0L32.3049 5.76095C28.2517 8.13849 25.1059 10.7294 22.8675 13.5337C20.6897 16.3379 19.1773 19.6604 18.3303 23.501C19.1773 23.2572 20.0847 23.0438 21.0526 22.8609C22.0206 22.678 23.2002 22.5866 24.5917 22.5866C27.7374 22.5866 30.5808 23.0438 33.1216 23.9583C35.7229 24.8727 37.931 26.2139 39.7459 27.9818C41.6213 29.6887 43.043 31.8224 44.0109 34.3828C45.0393 36.9433 45.5535 39.8695 45.5535 43.1614C45.5535 46.0267 45.0393 48.709 44.0109 51.2085C43.043 53.7079 41.591 55.9026 39.6552 57.7924C37.7798 59.6213 35.4204 61.0844 32.5771 62.1817C29.7943 63.2181 26.6183 63.7363 23.049 63.7363Z" fill="#9B5AFF"/>
</svg>
