<svg width="104" height="103" viewBox="0 0 104 103" fill="none" xmlns="http://www.w3.org/2000/svg">
<g clip-path="url(#clip0_1007_3390)">
<path d="M61.1293 69.9491C61.1376 68.651 61.4995 67.3798 62.1762 66.2724C62.8528 65.1649 63.8185 64.2632 64.9693 63.6642C65.7516 63.2549 66.3614 62.5785 66.688 61.7577C67.0146 60.9369 67.0363 60.0262 66.7493 59.1907C66.2717 57.8187 65.7003 56.4812 65.0393 55.1876C64.6174 54.3994 63.9398 53.7786 63.1182 53.4275C62.2965 53.0764 61.3798 53.0159 60.5193 53.2561C59.2486 53.6158 57.9062 53.6379 56.6243 53.3203C55.3425 53.0026 54.1655 52.3562 53.2093 51.4447C52.2744 50.5536 51.604 49.421 51.2722 48.1723C50.9404 46.9236 50.9602 45.6074 51.3293 44.3692C51.566 43.5227 51.4949 42.6196 51.1287 41.8205C50.7625 41.0215 50.1248 40.3785 49.3293 40.0058C47.9937 39.3731 46.6212 38.8217 45.2193 38.3545C44.3664 38.0814 43.4465 38.1026 42.6071 38.4146C41.7676 38.7267 41.0571 39.3117 40.5893 40.0759C39.9262 41.213 38.9753 42.155 37.8323 42.8069C36.6893 43.4588 35.3948 43.7975 34.0793 43.7888C32.7653 43.7967 31.4724 43.4576 30.3311 42.8057C29.1899 42.1539 28.2407 41.2123 27.5793 40.0759C27.1115 39.3117 26.4009 38.7267 25.5615 38.4146C24.722 38.1026 23.8022 38.0814 22.9493 38.3545C21.5462 38.838 20.1736 39.4062 18.8393 40.0559C18.0437 40.4285 17.4061 41.0716 17.0399 41.8706C16.6736 42.6696 16.6025 43.5727 16.8393 44.4192C17.2084 45.6574 17.2281 46.9737 16.8964 48.2224C16.5646 49.4711 15.8941 50.6036 14.9593 51.4947C14.0031 52.4062 12.8261 53.0526 11.5442 53.3703C10.2624 53.6879 8.91996 53.6658 7.64926 53.3061C6.78867 53.066 5.87201 53.1264 5.05035 53.4775C4.2287 53.8287 3.5511 54.4495 3.12927 55.2376C2.46823 56.5312 1.89689 57.8687 1.41928 59.2407C1.13223 60.0762 1.15397 60.987 1.48056 61.8077C1.80715 62.6285 2.41694 63.305 3.19928 63.7142C4.35003 64.3132 5.31572 65.215 5.99237 66.3224C6.66901 67.4299 7.03097 68.701 7.03927 69.9991C7.03135 71.2959 6.66943 72.5659 5.99264 73.6719C5.31586 74.7778 4.34995 75.6776 3.19928 76.274C2.41694 76.6833 1.80715 77.3596 1.48056 78.1804C1.15397 79.0012 1.13223 79.912 1.41928 80.7474C1.89491 82.1202 2.46631 83.4579 3.12927 84.7505C3.5511 85.5387 4.2287 86.1596 5.05035 86.5107C5.87201 86.8618 6.78867 86.9222 7.64926 86.6821C8.92065 86.3217 10.2641 86.3001 11.5464 86.6196C12.8286 86.9391 14.0051 87.5885 14.9593 88.5034C15.8923 89.3937 16.5617 90.5246 16.8934 91.7713C17.2251 93.018 17.2064 94.3322 16.8393 95.5689C16.6025 96.4154 16.6736 97.3186 17.0399 98.1176C17.4061 98.9166 18.0437 99.5597 18.8393 99.9323C20.1729 100.569 21.5457 101.121 22.9493 101.584C23.8022 101.857 24.722 101.836 25.5615 101.524C26.4009 101.211 27.1115 100.626 27.5793 99.8623C28.2407 98.7259 29.1899 97.7843 30.3311 97.1324C31.4724 96.4805 32.7653 96.1414 34.0793 96.1494C35.3948 96.1407 36.6893 96.4793 37.8323 97.1312C38.9753 97.7831 39.9262 98.7251 40.5893 99.8623C41.0571 100.626 41.7676 101.211 42.6071 101.524C43.4465 101.836 44.3664 101.857 45.2193 101.584C46.6228 101.121 47.9956 100.569 49.3293 99.9323C50.1248 99.5597 50.7625 98.9166 51.1287 98.1176C51.4949 97.3186 51.566 96.4154 51.3293 95.5689C50.9621 94.3322 50.9434 93.018 51.2751 91.7713C51.6069 90.5246 52.2762 89.3937 53.2093 88.5034C54.1634 87.5885 55.3399 86.9391 56.6222 86.6196C57.9044 86.3001 59.2479 86.3217 60.5193 86.6821C61.3798 86.9222 62.2965 86.8618 63.1182 86.5107C63.9398 86.1596 64.6174 85.5387 65.0393 84.7505C65.7022 83.4579 66.2736 82.1202 66.7493 80.7474C67.0363 79.912 67.0146 79.0012 66.688 78.1804C66.3614 77.3596 65.7516 76.6833 64.9693 76.274C63.8111 75.6736 62.8402 74.766 62.1629 73.6505C61.4856 72.5349 61.1281 71.2544 61.1293 69.9491Z" fill="#66C3CD" stroke="#0F0996" stroke-width="2.43" stroke-linecap="round" stroke-linejoin="round"/>
<path d="M98.7691 23.4447C98.776 22.5535 99.0254 21.681 99.4906 20.921C99.9557 20.1611 100.619 19.5423 101.409 19.1313C101.951 18.85 102.374 18.3825 102.6 17.8146C102.826 17.2466 102.84 16.6162 102.639 16.0389C102.303 15.1043 101.909 14.1918 101.459 13.3068C101.17 12.7657 100.706 12.339 100.142 12.0971C99.579 11.8552 98.9501 11.8124 98.3591 11.9757C97.4894 12.2163 96.5724 12.2285 95.6966 12.0112C94.8208 11.7938 94.0157 11.3542 93.3591 10.7348C92.7176 10.1236 92.2575 9.34671 92.0298 8.49006C91.8021 7.6334 91.8157 6.73037 92.0691 5.88098C92.233 5.29923 92.1853 4.67815 91.9344 4.12834C91.6835 3.57852 91.2458 3.13566 90.6991 2.87865C89.7798 2.44422 88.8346 2.06655 87.8691 1.74777C87.2839 1.55313 86.6499 1.56409 86.0717 1.7788C85.4935 1.9935 85.0058 2.39917 84.6891 2.92874C84.2358 3.70847 83.5845 4.3543 82.8012 4.80073C82.0179 5.24717 81.1305 5.47831 80.2291 5.47069C79.3263 5.47906 78.4372 5.24832 77.6522 4.80189C76.8672 4.35547 76.2141 3.70926 75.7591 2.92874C75.4424 2.39917 74.9547 1.9935 74.3766 1.7788C73.7984 1.56409 73.1644 1.55313 72.5791 1.74777C71.6136 2.06655 70.6685 2.44422 69.7491 2.87865C69.2025 3.13566 68.7648 3.57852 68.5139 4.12834C68.263 4.67815 68.2152 5.29923 68.3791 5.88098C68.6325 6.73037 68.6462 7.6334 68.4185 8.49006C68.1908 9.34671 67.7307 10.1236 67.0891 10.7348C66.4331 11.355 65.628 11.7952 64.752 12.0126C63.876 12.23 62.9588 12.2173 62.0891 11.9757C61.4981 11.8143 60.8699 11.8579 60.307 12.0997C59.744 12.3414 59.2795 12.7669 58.9891 13.3068C58.5389 14.1918 58.1448 15.1043 57.8091 16.0389C57.6138 16.6136 57.6304 17.2394 57.856 17.8029C58.0816 18.3664 58.5013 18.8305 59.0391 19.1113C59.8293 19.5223 60.4926 20.141 60.9577 20.901C61.4229 21.661 61.6723 22.5334 61.6791 23.4246C61.6723 24.3158 61.4229 25.1883 60.9577 25.9482C60.4926 26.7082 59.8293 27.3269 59.0391 27.738C58.5013 28.0187 58.0816 28.4828 57.856 29.0464C57.6304 29.6099 57.6138 30.2356 57.8091 30.8104C58.1448 31.7449 58.5389 32.6574 58.9891 33.5425C59.2796 34.0818 59.7447 34.5062 60.308 34.7463C60.8712 34.9863 61.4993 35.0276 62.0891 34.8635C62.9595 34.6212 63.8778 34.6091 64.7542 34.8284C65.6306 35.0476 66.4351 35.4908 67.0891 36.1145C67.7307 36.7256 68.1908 37.5025 68.4185 38.3592C68.6462 39.2158 68.6325 40.1188 68.3791 40.9682C68.2173 41.55 68.266 42.1703 68.5167 42.7196C68.7673 43.2689 69.2038 43.7119 69.7491 43.9705C70.6685 44.405 71.6136 44.7826 72.5791 45.1014C73.1644 45.296 73.7984 45.2851 74.3766 45.0704C74.9547 44.8557 75.4424 44.4501 75.7591 43.9205C76.2136 43.1388 76.8663 42.4911 77.6513 42.043C78.4362 41.5949 79.3255 41.3622 80.2291 41.3685C81.1313 41.3629 82.0189 41.596 82.8021 42.0442C83.5853 42.4923 84.2363 43.1396 84.6891 43.9205C85.0058 44.4501 85.4935 44.8557 86.0717 45.0704C86.6499 45.2851 87.2839 45.296 87.8691 45.1014C88.8346 44.7826 89.7798 44.405 90.6991 43.9705C91.2444 43.7119 91.6809 43.2689 91.9316 42.7196C92.1823 42.1703 92.231 41.55 92.0691 40.9682C91.8157 40.1188 91.8021 39.2158 92.0298 38.3592C92.2575 37.5025 92.7176 36.7256 93.3591 36.1145C94.0137 35.4916 94.8182 35.0491 95.6945 34.8298C96.5707 34.6106 97.4887 34.6222 98.3591 34.8635C98.949 35.0276 99.577 34.9863 100.14 34.7463C100.704 34.5062 101.169 34.0818 101.459 33.5425C101.909 32.6574 102.303 31.7449 102.639 30.8104C102.834 30.2356 102.818 29.6099 102.592 29.0464C102.367 28.4828 101.947 28.0187 101.409 27.738C100.622 27.3285 99.9606 26.7129 99.4957 25.9568C99.0307 25.2007 98.7796 24.3324 98.7691 23.4447Z" fill="#70ADFF" stroke="#0F0996" stroke-width="2.43" stroke-linecap="round" stroke-linejoin="round"/>
<path d="M84.128 32.9203C89.3529 30.7544 91.8341 24.7597 89.6698 19.5307C87.5056 14.3018 81.5155 11.8186 76.2906 13.9845C71.0657 16.1504 68.5845 22.1452 70.7488 27.3742C72.913 32.6031 78.9031 35.0862 84.128 32.9203Z" fill="white" stroke="#0F0996" stroke-width="2.43" stroke-linecap="round" stroke-linejoin="round"/>
<path d="M34.0909 86.9024C43.4576 86.9024 51.0509 79.3122 51.0509 69.9492C51.0509 60.5863 43.4576 52.9961 34.0909 52.9961C24.7241 52.9961 17.1309 60.5863 17.1309 69.9492C17.1309 79.3122 24.7241 86.9024 34.0909 86.9024Z" fill="white" stroke="#0F0996" stroke-width="2.43" stroke-linecap="round" stroke-linejoin="round"/>
<path d="M36.8605 7.94427C36.5135 8.41992 36.2995 8.97961 36.2405 9.56558C32.571 10.0991 29.159 11.7642 26.4795 14.3293C23.7999 16.8943 21.9861 20.2317 21.2905 23.8767C21.2507 24.0845 21.2306 24.2956 21.2305 24.5072C21.2279 25.2589 21.4839 25.9886 21.9556 26.5736C22.4272 27.1586 23.0858 27.5633 23.8205 27.7196C23.9656 27.7494 24.1126 27.7695 24.2605 27.7797C25.0462 27.8204 25.8202 27.5754 26.4395 27.0898C27.0589 26.6042 27.4819 25.9109 27.6305 25.1377C28.0296 23.051 29.006 21.1183 30.4486 19.5595C31.8912 18.0008 33.742 16.8787 35.7905 16.3208C35.8095 16.3825 35.8329 16.4427 35.8605 16.501C36.0878 17.0632 36.4695 17.5495 36.9615 17.9037C37.4534 18.2579 38.0356 18.4655 38.6405 18.5025C39.1441 18.5318 39.6475 18.4427 40.1105 18.2423L44.9205 16.1307C45.4416 15.8997 45.8931 15.536 46.23 15.076C46.5669 14.6159 46.7774 14.0755 46.8405 13.5086C46.9087 12.9427 46.8294 12.3689 46.6104 11.8428C46.3914 11.3167 46.04 10.8562 45.5905 10.5063L41.4405 7.28378C41.1007 7.02378 40.7127 6.83411 40.2989 6.72585C39.8851 6.6176 39.4539 6.59294 39.0305 6.65329C38.5999 6.70883 38.1852 6.85206 37.812 7.07409C37.4388 7.29612 37.115 7.59223 36.8605 7.94427Z" fill="white" stroke="#0F0996" stroke-width="2.43" stroke-linecap="round" stroke-linejoin="round"/>
<path d="M91.1196 57.0718C91.2955 59.1903 90.8744 61.3158 89.9039 63.2069C88.9335 65.098 87.4527 66.6789 85.6296 67.7701L85.5196 67.61C85.1482 67.1331 84.6502 66.7703 84.0826 66.5633C83.515 66.3562 82.9006 66.3131 82.3096 66.439C81.8116 66.5516 81.3462 66.7777 80.9496 67.0996L76.8996 70.4221C76.4667 70.7818 76.1336 71.2469 75.9322 71.7727C75.7308 72.2985 75.6679 72.8673 75.7496 73.4245C75.7496 73.5546 75.7996 73.6747 75.8296 73.7948C75.9642 74.2829 76.2092 74.7336 76.5456 75.1119C76.8819 75.4902 77.3008 75.786 77.7696 75.9764L82.6596 77.978C83.0521 78.1437 83.4737 78.229 83.8996 78.229C84.3256 78.229 84.7472 78.1437 85.1396 77.978C85.5337 77.8052 85.8889 77.555 86.1844 77.2421C86.4799 76.9292 86.7095 76.56 86.8596 76.1566C87.0656 75.6039 87.1208 75.0063 87.0196 74.4252C90.4091 72.9213 93.2458 70.3973 95.1349 67.2044C97.0241 64.0116 97.8716 60.3088 97.5596 56.6114C97.4881 55.7527 97.082 54.9566 96.4291 54.3949C95.7762 53.8332 94.9287 53.5509 94.0696 53.6091C93.9284 53.6191 93.788 53.6392 93.6496 53.6691C92.8899 53.8377 92.2162 54.2743 91.7516 54.8991C91.2871 55.5238 91.0627 56.2951 91.1196 57.0718Z" fill="white" stroke="#0F0996" stroke-width="2.43" stroke-linecap="round" stroke-linejoin="round"/>
</g>
<defs>
<clipPath id="clip0_1007_3390">
<rect width="104" height="102.51" fill="white" transform="translate(0 0.417969)"/>
</clipPath>
</defs>
</svg>
