<svg width="101" height="81" viewBox="0 0 101 81" fill="none" xmlns="http://www.w3.org/2000/svg">
<path d="M49.6683 53.2188C46.2703 53.2228 43.0126 54.5809 40.6099 56.9951C38.2072 59.4093 36.8556 62.6825 36.8516 66.0967C36.8556 69.5106 38.2073 72.7835 40.6101 75.1972C43.0129 77.6109 46.2706 78.9683 49.6683 78.9715C53.0657 78.9683 56.323 77.6108 58.7254 75.197C61.1277 72.7832 62.4788 69.5103 62.482 66.0967C62.4832 65.1453 62.3806 64.1966 62.176 63.2677L61.7138 63.5229C61.602 63.5836 61.4767 63.6153 61.3496 63.6152C61.2318 63.6146 61.1157 63.5873 61.0099 63.5352L58.3627 62.213L56.6306 63.1601C57.0212 64.0893 57.222 65.088 57.2212 66.0967C57.2188 68.1079 56.4226 70.0359 55.0072 71.458C53.5919 72.8802 51.6729 73.6802 49.6713 73.6826C47.6697 73.6802 45.7508 72.8802 44.3354 71.458C42.9201 70.0359 42.1239 68.1079 42.1215 66.0967C42.1239 64.0855 42.9201 62.1574 44.3354 60.7353C45.7508 59.3132 47.6697 58.5132 49.6713 58.5108C50.8987 58.5114 52.1074 58.8128 53.1926 59.3888C54.2778 59.9648 55.2069 60.7981 55.8992 61.8163L57.6313 60.8723L57.9649 57.9111C57.979 57.7886 58.0222 57.6713 58.0909 57.569C58.1596 57.4668 58.2518 57.3827 58.3596 57.3238L58.8126 57.0778C57.6205 55.8557 56.1977 54.885 54.6275 54.2223C53.0573 53.5597 51.3713 53.2185 49.6683 53.2188Z" fill="white"/>
<path d="M49.3059 65.4233L54.5543 62.5544C53.9955 61.7746 53.26 61.1398 52.4085 60.7024C51.557 60.265 50.6141 60.0376 49.6578 60.0391C48.0596 60.0415 46.5275 60.6805 45.3974 61.816C44.2673 62.9515 43.6313 64.4909 43.6289 66.0967C43.6313 67.7023 44.2674 69.2414 45.3976 70.3764C46.5278 71.5114 48.0598 72.1497 49.6578 72.1513C51.2554 72.1497 52.7872 71.5113 53.9169 70.3762C55.0467 69.2411 55.682 67.702 55.6836 66.0967C55.6843 65.3433 55.5442 64.5965 55.2705 63.8951L50.0219 66.7671C49.9105 66.8293 49.7852 66.8621 49.6578 66.8624C49.5206 66.8626 49.386 66.8255 49.268 66.7551C49.15 66.6848 49.0531 66.5837 48.9876 66.4627C48.9405 66.3734 48.9114 66.2757 48.902 66.1752C48.8925 66.0747 48.9029 65.9733 48.9324 65.8767C48.962 65.7802 49.0102 65.6905 49.0743 65.6127C49.1383 65.5349 49.217 65.4706 49.3059 65.4233Z" fill="#66C3CD"/>
<path d="M64.984 57.3137L64.9564 55.4688L59.4325 58.4853L59.1602 60.9083L61.333 61.9969L66.8569 58.9773L65.3267 57.9472C65.2218 57.8784 65.1357 57.7845 65.0758 57.6739C65.016 57.5633 64.9844 57.4396 64.984 57.3137Z" fill="#66C3CD"/>
<path d="M80.1538 72.7211H95.275C97.3876 69.8933 98.5195 66.4478 98.4975 62.912C98.4975 58.3949 96.7225 54.1576 93.6315 51.2887C92.1081 49.8817 90.179 48.9976 88.1229 48.7641C87.9746 48.7459 87.835 48.6843 87.7213 48.587C87.6076 48.4897 87.5248 48.3609 87.4833 48.2168L87.3089 47.6018C87.1865 47.1733 86.9803 46.7737 86.7023 46.4262C86.4243 46.0788 86.0801 45.7906 85.6899 45.5785C85.1363 45.2705 84.5068 45.1275 83.8752 45.1664L84.7198 48.0753C84.7485 48.1733 84.7573 48.276 84.7458 48.3774C84.7342 48.4788 84.7025 48.5768 84.6525 48.6657C84.6027 48.7541 84.5358 48.8316 84.456 48.8939C84.3762 48.9562 84.2849 49.002 84.1873 49.0286C83.2798 49.2678 82.408 49.6277 81.5952 50.0986L79.8447 51.1195C79.6129 51.2552 79.4438 51.4774 79.3744 51.7378C79.3051 51.9982 79.3409 52.2755 79.4743 52.5094L79.9824 53.3919C80.0327 53.4786 80.0654 53.5745 80.0786 53.674C80.0919 53.7734 80.0854 53.8746 80.0595 53.9715C80.0336 54.0684 79.9888 54.1592 79.9278 54.2387C79.8668 54.3181 79.7906 54.3846 79.7039 54.4343L75.4837 56.8943C75.2513 57.0294 75.0816 57.2514 75.0117 57.5119C74.9417 57.7723 74.9772 58.05 75.1104 58.2842L76.5793 60.8364C76.7204 61.0846 76.9245 61.2907 77.1707 61.4338C77.4169 61.577 77.6965 61.652 77.9809 61.6513H80.4781C80.6099 61.6494 80.74 61.6213 80.8608 61.5685C80.9817 61.5157 81.0908 61.4393 81.182 61.3438C81.2744 61.2509 81.3476 61.1406 81.3974 61.0192C81.4473 60.8979 81.4729 60.7678 81.4728 60.6365C81.4731 60.4732 81.5251 60.3142 81.6214 60.1826C81.7177 60.051 81.8533 59.9537 82.0083 59.9047L87.7894 58.0935C87.9079 58.0554 88.034 58.0475 88.1564 58.0706C88.2787 58.0937 88.3935 58.147 88.4902 58.2258C88.5873 58.3039 88.664 58.4047 88.7136 58.5194C88.7632 58.634 88.7842 58.7591 88.7748 58.8838C88.6659 60.4633 88.0964 61.9755 87.1375 63.2318C86.496 64.0359 85.7064 64.7083 84.8116 65.2121C83.4529 66.0085 80.3956 68.2747 80.1538 72.7211Z" fill="#70ADFF"/>
<path d="M96.6906 74.2578H78.659C77.9199 74.2586 77.2112 74.554 76.6886 75.0792C76.1659 75.6044 75.8719 76.3164 75.8711 77.0591V78.4736C75.8711 78.5292 75.882 78.5842 75.9033 78.6355C75.9246 78.6868 75.9557 78.7334 75.995 78.7726C76.0342 78.8117 76.0808 78.8427 76.132 78.8637C76.1832 78.8847 76.2381 78.8953 76.2934 78.8948H99.0563C99.1116 78.8953 99.1665 78.8847 99.2177 78.8637C99.2689 78.8427 99.3155 78.8117 99.3547 78.7726C99.394 78.7334 99.4251 78.6868 99.4464 78.6355C99.4677 78.5842 99.4786 78.5292 99.4786 78.4736V77.0591C99.4778 76.3164 99.1838 75.6044 98.6611 75.0792C98.1385 74.554 97.4298 74.2586 96.6906 74.2578Z" fill="#70ADFF"/>
<path d="M97.127 72.7376C99.0294 69.8131 100.035 66.3915 100.019 62.8977C100.019 57.9563 98.0665 53.31 94.6634 50.152C93.0348 48.6437 90.9992 47.652 88.812 47.3015L88.7753 47.1755C88.5786 46.4962 88.2394 45.8671 87.7807 45.3305V23.4614C87.7799 22.8655 87.5439 22.2942 87.1245 21.8728C86.7052 21.4515 86.1366 21.2144 85.5435 21.2136H68.2251C68.2036 20.6662 68.1577 20.1158 68.0812 19.5623L69.9908 18.7966C70.5083 18.5878 70.9229 18.1823 71.1447 17.6682C71.3664 17.1541 71.3774 16.5729 71.1752 16.0507L69.645 12.1578C69.5428 11.8929 69.3881 11.6517 69.1903 11.4487C68.9925 11.2457 68.7557 11.0853 68.4943 10.977C68.2342 10.8652 67.9541 10.8075 67.6711 10.8075C67.3881 10.8075 67.1081 10.8652 66.8479 10.977L65.1708 11.6996C64.0983 10.2922 62.8795 9.00369 61.5351 7.85593L62.2849 6.12165C62.396 5.86627 62.4557 5.5913 62.4604 5.31263C62.4651 5.03396 62.4148 4.75711 62.3125 4.49808C62.2117 4.23822 62.0605 4.00109 61.8677 3.80049C61.6749 3.59988 61.4442 3.43982 61.1893 3.3296L56.8283 1.42312C56.5741 1.31147 56.3005 1.25154 56.0231 1.24679C55.7458 1.24204 55.4703 1.29256 55.2125 1.39543C54.9542 1.49672 54.7186 1.64869 54.5195 1.84245C54.3203 2.03621 54.1616 2.26789 54.0526 2.52396L53.3211 4.21211C51.5506 3.89772 49.7401 3.88525 47.9655 4.17521L47.2739 2.3579C47.1759 2.09506 47.0263 1.85476 46.8339 1.65135C46.6414 1.44795 46.4101 1.28561 46.1538 1.17405C45.8983 1.05955 45.6225 0.99784 45.3428 0.992558C45.0631 0.987276 44.7852 1.03852 44.5257 1.14328L40.6574 2.68076C40.1416 2.88912 39.7278 3.29266 39.5051 3.8045C39.2825 4.31635 39.2687 4.89558 39.4669 5.41749L40.2229 7.37931C38.7168 8.44284 37.3936 9.74635 36.3056 11.2384L34.2612 10.3467C33.7477 10.1241 33.1674 10.1149 32.6472 10.3212C32.127 10.5275 31.7093 10.9325 31.4856 11.4475L29.885 15.1374C29.6626 15.6533 29.6531 16.2368 29.8585 16.7597C30.0639 17.2826 30.4675 17.7022 30.9806 17.9264L33.0524 18.8335C32.9151 19.614 32.8322 20.4031 32.8045 21.1951H15.7461C15.1531 21.1959 14.5845 21.433 14.1651 21.8544C13.7458 22.2757 13.5099 22.847 13.5091 23.4429V47.1201H3.52617C2.85436 47.1209 2.21034 47.3894 1.73531 47.8667C1.26027 48.344 0.992997 48.9912 0.992188 49.6662V77.7529C0.992997 78.4279 1.26027 79.075 1.73531 79.5523C2.21034 80.0296 2.85436 80.2981 3.52617 80.2989H25.1078C25.7796 80.2981 26.4237 80.0296 26.8987 79.5523C27.3737 79.075 27.6409 78.4279 27.6417 77.7529V49.6662C27.6409 48.9912 27.3737 48.344 26.8987 47.8667C26.4237 47.3894 25.7796 47.1209 25.1078 47.1201H15.03V23.4429C15.03 23.2521 15.1055 23.0691 15.2398 22.9341C15.3741 22.7992 15.5562 22.7234 15.7461 22.7234H32.8198C32.8474 23.243 32.8963 23.7627 32.9728 24.2916L30.9989 25.0788C30.4804 25.2863 30.0648 25.6917 29.8429 26.2062C29.6209 26.7208 29.6108 27.3027 29.8146 27.8247L31.3448 31.7238C31.4466 31.987 31.6001 32.227 31.7962 32.4293C31.9923 32.6317 32.2271 32.7922 32.4863 32.9015C32.7447 33.0118 33.0226 33.0686 33.3034 33.0686C33.5842 33.0686 33.862 33.0118 34.1205 32.9015L35.9567 32.1266C36.9389 33.5967 38.1608 34.8899 39.571 35.9519L38.7692 37.7968C38.6581 38.0522 38.5984 38.3272 38.5937 38.6058C38.589 38.8845 38.6392 39.1614 38.7416 39.4204C38.8428 39.68 38.9942 39.9169 39.1869 40.1175C39.3797 40.318 39.6101 40.4782 39.8648 40.5889L44.2258 42.4954C44.4799 42.607 44.7536 42.6669 45.031 42.6717C45.3083 42.6764 45.5838 42.6259 45.8416 42.523C46.0995 42.4212 46.3348 42.269 46.5339 42.0753C46.7329 41.8816 46.8919 41.6502 47.0015 41.3945L47.8247 39.5004C48.3021 39.5495 48.8653 39.6018 49.4712 39.6357V51.6618C45.7029 51.7151 42.1065 53.2555 39.4588 55.9503C36.8112 58.6452 35.3246 62.2782 35.3202 66.0649C35.3242 69.8845 36.8361 73.5464 39.5241 76.2472C42.212 78.948 45.8565 80.4671 49.6579 80.4711C53.459 80.4662 57.103 78.9469 59.7908 76.2463C62.4786 73.5456 63.9908 69.8842 63.9956 66.0649C63.9952 64.8556 63.8441 63.6511 63.5458 62.4795L68.678 59.6752C68.7936 59.6129 68.891 59.5214 68.9607 59.4098C69.0305 59.2982 69.0701 59.1703 69.0758 59.0387C69.0814 58.9073 69.0534 58.7767 68.9945 58.6594C68.9356 58.542 68.8477 58.4418 68.7392 58.3683L66.4867 56.8585L66.4501 54.1402C66.4484 54.0087 66.4128 53.8797 66.3468 53.766C66.2808 53.6524 66.1868 53.5577 66.0736 53.4914C65.9593 53.4265 65.8301 53.3924 65.6987 53.3924C65.5673 53.3924 65.4382 53.4265 65.3238 53.4914L60.1855 56.2989C57.7907 53.6908 54.5207 52.0644 51.0045 51.7325V39.691C51.6773 39.6918 52.3496 39.6538 53.0181 39.5772L53.7373 41.496C53.8358 41.7606 53.9863 42.0026 54.1798 42.2075C54.3733 42.4125 54.6058 42.5763 54.8635 42.6891C55.1311 42.8096 55.4211 42.8715 55.7143 42.8705C55.9816 42.8708 56.2466 42.8197 56.4947 42.7198L60.3416 41.1824C60.8588 40.9742 61.2734 40.5692 61.4951 40.0556C61.7169 39.542 61.728 38.9613 61.5259 38.4395L60.7425 36.4223C62.2371 35.3804 63.553 34.1009 64.6383 32.634L66.805 33.5811C67.0592 33.6921 67.3327 33.7517 67.6098 33.7565C67.8869 33.7613 68.1622 33.7111 68.42 33.6088C68.6778 33.5066 68.9131 33.3543 69.1122 33.1606C69.3114 32.967 69.4706 32.7358 69.5808 32.4802L71.1813 28.7903C71.2925 28.5355 71.3522 28.261 71.3569 27.9828C71.3616 27.7046 71.3114 27.4282 71.2089 27.1698C71.1086 26.9096 70.9575 26.6723 70.7646 26.4716C70.5718 26.271 70.3409 26.1111 70.0857 26.0013L67.9435 25.0788C68.085 24.3068 68.174 23.526 68.2098 22.7418H85.5313C85.7212 22.7418 85.9034 22.8176 86.0377 22.9526C86.172 23.0875 86.2474 23.2705 86.2474 23.4614V44.162C85.1441 43.603 83.8703 43.4875 82.6852 43.8391C82.5893 43.867 82.4997 43.9137 82.4218 43.9765C82.3438 44.0392 82.2789 44.1168 82.2309 44.2048C82.1828 44.2928 82.1525 44.3894 82.1417 44.4892C82.1309 44.589 82.1399 44.6899 82.168 44.7862L83.0402 47.7843C82.269 48.0427 81.5256 48.3785 80.8214 48.7867L79.0709 49.8076C78.4918 50.148 78.0702 50.7047 77.8982 51.3563C77.7262 52.0079 77.8177 52.7014 78.1528 53.2854L78.2783 53.5037L74.7161 55.5701C74.1355 55.9099 73.7128 56.4672 73.5406 57.1198C73.3685 57.7723 73.4611 58.4669 73.798 59.051L75.2639 61.6032C75.5387 62.079 75.9328 62.4741 76.4069 62.7493C76.881 63.0244 77.4186 63.17 77.9661 63.1714H80.4665C80.797 63.1726 81.1243 63.1076 81.4296 62.9804C81.7348 62.8532 82.0118 62.6662 82.2445 62.4303C82.5772 62.1001 82.8105 61.6823 82.9177 61.2249L87.0584 59.9273C86.847 60.7904 86.4593 61.5998 85.92 62.3043C85.3989 62.9517 84.759 63.4924 84.0348 63.8971C82.4618 64.8196 78.872 67.4794 78.6303 72.713C77.4919 72.7203 76.4026 73.1796 75.6 73.9907C74.7974 74.8017 74.3466 75.8988 74.3458 77.0425V78.457C74.3466 78.9746 74.5516 79.4708 74.9158 79.8368C75.2801 80.2028 75.7739 80.4088 76.289 80.4096H99.052C99.5671 80.4088 100.061 80.2028 100.425 79.8368C100.789 79.4708 100.994 78.9746 100.995 78.457V77.0425C100.994 75.9715 100.598 74.9388 99.8838 74.1438C99.1694 73.3488 98.1873 72.8478 97.127 72.7376ZM26.1269 49.6754V77.7621C26.1261 78.0315 26.0189 78.2896 25.8291 78.4798C25.6392 78.67 25.382 78.7768 25.1139 78.7768H3.53229C3.26416 78.7768 3.007 78.67 2.81712 78.4798C2.62723 78.2896 2.52011 78.0315 2.5193 77.7621V49.6754C2.52011 49.406 2.62723 49.1479 2.81712 48.9577C3.007 48.7675 3.26416 48.6607 3.53229 48.6607H25.1139C25.2472 48.6603 25.3792 48.6863 25.5025 48.7373C25.6257 48.7882 25.7377 48.8631 25.8321 48.9577C25.9265 49.0522 26.0014 49.1646 26.0525 49.2883C26.1036 49.412 26.1299 49.5446 26.1299 49.6785L26.1269 49.6754ZM66.3521 25.3678C66.3132 25.541 66.3356 25.7223 66.4155 25.8806C66.4954 26.0389 66.6277 26.1642 66.7897 26.235L69.489 27.4158C69.5592 27.4466 69.6225 27.4914 69.6751 27.5474C69.7277 27.6034 69.7684 27.6695 69.795 27.7417C69.8245 27.8134 69.8397 27.8902 69.8397 27.9677C69.8397 28.0453 69.8245 28.1221 69.795 28.1937L68.1944 31.8837C68.1319 32.0273 68.0154 32.1402 67.8704 32.1978C67.7253 32.2554 67.5635 32.253 67.4202 32.1912L64.6934 30.9981C64.5333 30.9304 64.3549 30.9198 64.188 30.9679C64.021 31.016 63.8754 31.1199 63.7753 31.2625C62.611 32.9581 61.1222 34.4038 59.3959 35.5152C59.246 35.6091 59.1334 35.7527 59.0776 35.9211C59.0217 36.0895 59.0261 36.2722 59.0899 36.4377L60.0968 39.0237C60.1531 39.1694 60.15 39.3315 60.0881 39.4748C60.0262 39.6182 59.9105 39.7312 59.7662 39.7894L55.9193 41.3269C55.8471 41.3572 55.7697 41.3729 55.6914 41.3729C55.6131 41.3729 55.5356 41.3572 55.4634 41.3269C55.3929 41.2948 55.3296 41.2488 55.2771 41.1918C55.2245 41.1348 55.1838 41.0678 55.1573 40.9948L54.2209 38.501C54.1667 38.3557 54.0697 38.2305 53.9428 38.142C53.816 38.0535 53.6653 38.0061 53.5109 38.0059C53.4682 38.0014 53.4251 38.0014 53.3824 38.0059C51.3381 38.3534 48.7918 38.1228 47.4544 37.9506C47.2906 37.9296 47.1245 37.9626 46.981 38.0447C46.8375 38.1267 46.7244 38.2534 46.6587 38.4057L45.6121 40.8226C45.5808 40.8928 45.5361 40.9561 45.4805 41.0088C45.4248 41.0616 45.3592 41.1028 45.2877 41.1301C45.2164 41.1598 45.14 41.1751 45.0628 41.1751C44.9856 41.1751 44.9091 41.1598 44.8378 41.1301L40.4768 39.2236C40.3339 39.1608 40.2216 39.0438 40.1642 38.898C40.1069 38.7523 40.1092 38.5896 40.1708 38.4456L41.2175 36.0257C41.2851 35.8645 41.2955 35.6849 41.247 35.517C41.1985 35.3491 41.0941 35.2029 40.9512 35.1032C39.316 33.9627 37.9307 32.4975 36.8809 30.7982C36.7834 30.6524 36.6389 30.5447 36.4718 30.4932C36.3046 30.4417 36.1249 30.4495 35.9628 30.5153L33.5421 31.5301C33.4699 31.5604 33.3923 31.576 33.3141 31.576C33.2358 31.576 33.1583 31.5604 33.0861 31.5301C33.0159 31.4984 32.9526 31.453 32.9001 31.3965C32.8475 31.34 32.8067 31.2736 32.7801 31.201L31.2499 27.302C31.1936 27.1563 31.1967 26.9943 31.2586 26.8509C31.3204 26.7076 31.4361 26.5945 31.5804 26.5363L34.1174 25.5216C34.2805 25.4574 34.4164 25.3383 34.5018 25.1846C34.5872 25.031 34.6169 24.8522 34.5857 24.679C34.217 22.658 34.2492 20.5837 34.6805 18.5752C34.7176 18.4027 34.694 18.2225 34.6136 18.0655C34.5332 17.9085 34.4012 17.7843 34.2399 17.7143L31.6049 16.5611C31.462 16.4983 31.3496 16.3813 31.2923 16.2356C31.2349 16.0898 31.2373 15.9272 31.2988 15.7832L32.8994 12.0932C32.9619 11.9496 33.0784 11.8367 33.2234 11.7791C33.3685 11.7215 33.5304 11.7239 33.6737 11.7857L36.2811 12.9265C36.4438 12.997 36.6258 13.0085 36.796 12.9592C36.9663 12.9098 37.1142 12.8027 37.2145 12.6559C38.3742 10.9452 39.8595 9.48213 41.5847 8.35099C41.7346 8.25705 41.8471 8.11353 41.903 7.94513C41.9589 7.77674 41.9546 7.59402 41.8907 7.4285L40.9175 4.9009C40.8615 4.7553 40.8651 4.59332 40.9277 4.45041C40.9902 4.30749 41.1065 4.19529 41.2511 4.13831L45.1194 2.60083C45.1911 2.57039 45.2681 2.5547 45.3459 2.5547C45.4237 2.5547 45.5007 2.57039 45.5724 2.60083C45.7121 2.66768 45.8214 2.78525 45.8784 2.92985L46.7965 5.32832C46.8598 5.49464 46.9787 5.63369 47.1327 5.72174C47.2868 5.80979 47.4665 5.84138 47.6412 5.81109C49.6247 5.41424 51.6682 5.42992 53.6455 5.8572C53.8177 5.89466 53.9975 5.87101 54.1543 5.79028C54.311 5.70955 54.4352 5.57672 54.5055 5.41441L55.4817 3.16048C55.513 3.09029 55.5578 3.02699 55.6135 2.97422C55.6691 2.92146 55.7346 2.88026 55.8061 2.85298C55.8775 2.82329 55.9538 2.80799 56.031 2.80799C56.1082 2.80799 56.1847 2.82329 56.256 2.85298L60.617 4.75944C60.6869 4.79072 60.75 4.83564 60.8025 4.89159C60.8551 4.94754 60.896 5.01341 60.923 5.08539C60.9526 5.15704 60.9678 5.23385 60.9678 5.31141C60.9678 5.38897 60.9526 5.46576 60.923 5.53742L59.9468 7.79137C59.8817 7.94277 59.8667 8.1112 59.9042 8.27177C59.9417 8.43235 60.0296 8.57655 60.1549 8.68309C61.2138 9.57483 63.1571 11.3368 64.2925 13.0926C64.3895 13.2441 64.5369 13.356 64.7084 13.4084C64.88 13.4608 65.0645 13.4502 65.229 13.3786L67.4814 12.4099C67.5539 12.3788 67.632 12.3628 67.7109 12.3628C67.7898 12.3628 67.8678 12.3788 67.9404 12.4099C68.0106 12.4424 68.0739 12.4884 68.1264 12.5454C68.1789 12.6023 68.2197 12.6692 68.2464 12.742L69.7766 16.6349C69.8329 16.7806 69.8298 16.9427 69.7679 17.086C69.7061 17.2294 69.5905 17.3424 69.4461 17.4006L66.9734 18.3907C66.8115 18.4558 66.6768 18.5746 66.5916 18.7273C66.5064 18.8801 66.4759 19.0576 66.5051 19.2302C66.8578 21.2662 66.8058 23.3522 66.3521 25.3678ZM61.3423 61.9906L59.1695 60.9021L59.4418 58.479L64.9658 55.4625L64.9933 57.3074C64.9961 57.4296 65.0281 57.5493 65.0867 57.6564C65.1453 57.7634 65.2287 57.8547 65.3299 57.9224L66.8601 58.9526L61.3423 61.9906ZM58.3676 57.3259C58.2597 57.3848 58.1676 57.4689 58.0989 57.5711C58.0302 57.6733 57.987 57.7907 57.9729 57.9132L57.6393 60.8744L55.9072 61.8184C55.2149 60.8001 54.2858 59.9669 53.2006 59.3909C52.1154 58.8148 50.9067 58.5135 49.6793 58.5128C47.6777 58.5153 45.7588 59.3153 44.3434 60.7374C42.9281 62.1595 42.1319 64.0876 42.1295 66.0988C42.1319 68.1099 42.9281 70.038 44.3434 71.4601C45.7588 72.8822 47.6777 73.6823 49.6793 73.6847C51.6809 73.6823 53.5999 72.8822 55.0152 71.4601C56.4306 70.038 57.2267 68.1099 57.2292 66.0988C57.23 65.09 57.0292 64.0914 56.6386 63.1622L58.3707 62.2151L61.0179 63.5373C61.1237 63.5894 61.2398 63.6167 61.3576 63.6173C61.4847 63.6174 61.6099 63.5857 61.7218 63.525L62.1839 63.2698C62.3885 64.1987 62.4911 65.1474 62.4899 66.0988C62.4867 69.5124 61.1357 72.7853 58.7334 75.1991C56.331 77.6129 53.0737 78.9704 49.6763 78.9736C46.2786 78.9704 43.0209 77.613 40.6181 75.1993C38.2153 72.7855 36.8635 69.5127 36.8595 66.0988C36.8635 62.6846 38.2152 59.4114 40.6179 56.9972C43.0206 54.583 46.2783 53.2249 49.6763 53.2208C51.3788 53.221 53.0642 53.5624 54.6339 54.225C56.2035 54.8876 57.6257 55.8582 58.8175 57.0799L58.3676 57.3259ZM49.0091 66.4647C49.0747 66.5858 49.1716 66.6868 49.2895 66.7572C49.4075 66.8275 49.5421 66.8646 49.6793 66.8644C49.8068 66.8642 49.9321 66.8314 50.0435 66.7691L55.292 63.8971C55.5658 64.5985 55.7059 65.3453 55.7051 66.0988C55.7035 67.704 55.0681 69.2431 53.9384 70.3782C52.8087 71.5133 51.277 72.1517 49.6793 72.1534C48.0814 72.1517 46.5493 71.5134 45.4191 70.3784C44.2889 69.2434 43.6529 67.7043 43.6504 66.0988C43.6529 64.4929 44.2889 62.9535 45.419 61.818C46.5491 60.6825 48.0811 60.0435 49.6793 60.0411C50.6356 60.0396 51.5785 60.267 52.43 60.7044C53.2815 61.1418 54.0171 61.7767 54.5759 62.5564L49.3274 65.4253C49.2382 65.4718 49.1589 65.5354 49.0941 65.6126C49.0294 65.6898 48.9804 65.7791 48.95 65.8753C48.9196 65.9716 48.9084 66.0729 48.9169 66.1735C48.9255 66.2741 48.9537 66.372 48.9999 66.4616L49.0091 66.4647ZM99.4896 78.457C99.4896 78.5126 99.4786 78.5676 99.4574 78.619C99.4361 78.6703 99.405 78.7168 99.3657 78.756C99.3264 78.7952 99.2798 78.8261 99.2286 78.8471C99.1774 78.8681 99.1225 78.8787 99.0672 78.8783H76.3044C76.249 78.8787 76.1942 78.8681 76.143 78.8471C76.0918 78.8261 76.0451 78.7952 76.0059 78.756C75.9666 78.7168 75.9355 78.6703 75.9142 78.619C75.8929 78.5676 75.882 78.5126 75.882 78.457V77.0425C75.8828 76.2999 76.1769 75.5878 76.6995 75.0626C77.2222 74.5375 77.9308 74.2421 78.67 74.2413H96.7016C97.4407 74.2421 98.1494 74.5375 98.6721 75.0626C99.1948 75.5878 99.4888 76.2999 99.4896 77.0425V78.457ZM87.1349 63.2391C88.0939 61.9828 88.6634 60.4705 88.7722 58.8911C88.7816 58.7664 88.7606 58.6413 88.711 58.5266C88.6614 58.412 88.5848 58.3112 88.4876 58.233C88.3909 58.1543 88.2762 58.1009 88.1539 58.0778C88.0315 58.0547 87.9054 58.0626 87.7868 58.1008L82.0058 59.9119C81.8507 59.9609 81.7153 60.0583 81.619 60.1899C81.5227 60.3215 81.4705 60.4805 81.4702 60.6438C81.4704 60.7751 81.4448 60.9051 81.3949 61.0265C81.345 61.1478 81.2718 61.2581 81.1795 61.351C81.0883 61.4466 80.9791 61.523 80.8583 61.5757C80.7374 61.6285 80.6073 61.6567 80.4756 61.6585H77.9814C77.7005 61.6575 77.4247 61.5826 77.1814 61.4412C76.9382 61.2999 76.7361 61.097 76.5951 60.8529L75.1261 58.3007C74.993 58.0664 74.9575 57.7888 75.0275 57.5283C75.0974 57.2679 75.2671 57.0459 75.4995 56.9108L79.7197 54.4508C79.8064 54.4011 79.8826 54.3346 79.9436 54.2551C80.0046 54.1757 80.0494 54.0849 80.0753 53.988C80.1012 53.891 80.1077 53.7899 80.0945 53.6904C80.0812 53.591 80.0485 53.4951 79.9982 53.4084L79.4902 52.5259C79.3568 52.292 79.3208 52.0146 79.3902 51.7543C79.4596 51.4939 79.6286 51.2716 79.8605 51.136L81.611 50.1151C82.4239 49.6442 83.2956 49.2843 84.2031 49.045C84.3007 49.0184 84.392 48.9727 84.4718 48.9104C84.5517 48.8481 84.6185 48.7705 84.6683 48.6822C84.7183 48.5933 84.75 48.4953 84.7616 48.3939C84.7731 48.2924 84.7643 48.1897 84.7356 48.0918L83.891 45.1829C84.5226 45.144 85.1521 45.2869 85.7057 45.5949C86.0959 45.8071 86.4401 46.0953 86.7181 46.4427C86.9961 46.7901 87.2023 47.1898 87.3247 47.6182L87.4991 48.2332C87.5406 48.3774 87.6233 48.5062 87.737 48.6035C87.8508 48.7008 87.9904 48.7624 88.1387 48.7806C90.1948 49.0141 92.1239 49.8981 93.6473 51.3051C96.7383 54.1741 98.5133 58.4114 98.5133 62.9285C98.5353 66.4642 97.4034 69.9098 95.2908 72.7376H80.1543C80.3961 68.2974 83.4533 66.0311 84.7999 65.2439C85.6965 64.7338 86.4863 64.054 87.1257 63.2421L87.1349 63.2391Z" fill="#091796"/>
<path d="M3.53448 48.6641C3.26635 48.6641 3.00918 48.7709 2.8193 48.9611C2.62942 49.1513 2.52229 49.4094 2.52148 49.6788V77.7655C2.52229 78.0349 2.62942 78.293 2.8193 78.4832C3.00918 78.6734 3.26635 78.7802 3.53448 78.7802H25.1161C25.3842 78.7802 25.6414 78.6734 25.8312 78.4832C26.0211 78.293 26.1283 78.0349 26.1291 77.7655V49.6788C26.1283 49.4094 26.0211 49.1513 25.8312 48.9611C25.6414 48.7709 25.3842 48.6641 25.1161 48.6641H3.53448ZM22.5576 57.3969C22.8139 57.6519 23.0171 57.9556 23.1553 58.2903C23.2935 58.625 23.364 58.9841 23.3625 59.3465C23.364 59.7089 23.2935 60.0679 23.1553 60.4026C23.0171 60.7374 22.8139 61.0411 22.5576 61.296L13.8417 70.0566C13.5664 70.3315 13.236 70.5445 12.8724 70.6813C12.5089 70.8181 12.1205 70.8755 11.7332 70.8499H11.5556C10.8314 70.8493 10.1365 70.562 9.62148 70.0504L6.09296 66.5019C5.83691 66.2468 5.63386 65.943 5.49569 65.6083C5.35751 65.2737 5.28693 64.9147 5.28805 64.5524C5.28659 64.19 5.35704 63.831 5.49524 63.4962C5.63343 63.1615 5.83664 62.8578 6.09296 62.6029C6.3471 62.3459 6.64941 62.142 6.98245 62.0032C7.3155 61.8644 7.67262 61.7934 8.03318 61.7941C8.76086 61.7956 9.45843 62.0863 9.97347 62.6029L11.7332 64.371L18.6771 57.3908C19.1938 56.8771 19.8917 56.5895 20.6186 56.5906C21.3455 56.5918 22.0425 56.8816 22.5576 57.3969Z" fill="#70ADFF"/>
<path d="M11.1941 65.9986L8.89577 63.6924C8.78298 63.5777 8.64857 63.4868 8.50038 63.4251C8.35219 63.3633 8.19317 63.3318 8.03273 63.3326C7.87193 63.3325 7.71272 63.3642 7.56412 63.4259C7.41551 63.4876 7.28047 63.5782 7.16671 63.6924C6.93794 63.9225 6.80915 64.2343 6.80859 64.5595C6.80915 64.8847 6.93794 65.1965 7.16671 65.4266L10.6983 68.9751C10.8248 69.1 10.9768 69.1957 11.1438 69.2557C11.3108 69.3157 11.4888 69.3385 11.6654 69.3226H11.797C11.9736 69.3385 12.1516 69.3157 12.3186 69.2557C12.4855 69.1957 12.6375 69.1 12.764 68.9751L21.483 60.2146C21.7117 59.9845 21.8405 59.6727 21.8411 59.3474C21.8405 59.0222 21.7117 58.7104 21.483 58.4803C21.2535 58.2503 20.9426 58.1211 20.6184 58.1211C20.2943 58.1211 19.9834 58.2503 19.7539 58.4803L12.2683 65.9986C12.1978 66.0695 12.114 66.1258 12.0219 66.1642C11.9297 66.2026 11.8309 66.2224 11.7312 66.2224C11.6314 66.2224 11.5326 66.2026 11.4404 66.1642C11.3483 66.1258 11.2646 66.0695 11.1941 65.9986Z" fill="white"/>
<path d="M9.9745 62.6107C9.45946 62.0942 8.76189 61.8034 8.03421 61.802C7.67365 61.8012 7.31653 61.8723 6.98348 62.0111C6.65044 62.1499 6.34813 62.3537 6.094 62.6107C5.83767 62.8656 5.63447 63.1693 5.49627 63.5041C5.35808 63.8388 5.28762 64.1978 5.28908 64.5602C5.28796 64.9226 5.35854 65.2815 5.49672 65.6162C5.63489 65.9509 5.83794 66.2546 6.094 66.5098L9.62251 70.0583C10.1375 70.5699 10.8324 70.8571 11.5567 70.8577H11.7342C12.1216 70.8834 12.5099 70.8259 12.8735 70.6891C13.237 70.5523 13.5674 70.3394 13.8427 70.0644L22.5586 61.3038C22.8149 61.0489 23.0181 60.7452 23.1563 60.4105C23.2945 60.0757 23.365 59.7167 23.3635 59.3543C23.365 58.9919 23.2945 58.6329 23.1563 58.2982C23.0181 57.9634 22.8149 57.6597 22.5586 57.4048C22.0427 56.8903 21.3453 56.6016 20.6184 56.6016C19.8915 56.6016 19.194 56.8903 18.6781 57.4048L11.7342 64.385L9.9745 62.6107ZM21.4844 58.481C21.7132 58.7111 21.842 59.0229 21.8425 59.3482C21.842 59.6734 21.7132 59.9852 21.4844 60.2153L12.7655 68.9759C12.639 69.1007 12.487 69.1964 12.32 69.2564C12.1531 69.3164 11.9751 69.3393 11.7985 69.3233H11.6669C11.4903 69.3393 11.3123 69.3164 11.1453 69.2564C10.9783 69.1964 10.8263 69.1007 10.6998 68.9759L7.16818 65.4274C6.93942 65.1973 6.81062 64.8855 6.81007 64.5602C6.81062 64.235 6.93942 63.9232 7.16818 63.6931C7.28195 63.5789 7.41699 63.4884 7.56559 63.4266C7.7142 63.3649 7.87341 63.3332 8.03421 63.3333C8.19465 63.3326 8.35366 63.364 8.50185 63.4258C8.65005 63.4876 8.78445 63.5784 8.89725 63.6931L11.1956 65.9993C11.2661 66.0702 11.3498 66.1265 11.4419 66.1649C11.5341 66.2033 11.6329 66.2231 11.7326 66.2231C11.8324 66.2231 11.9312 66.2033 12.0233 66.1649C12.1155 66.1265 12.1993 66.0702 12.2698 65.9993L19.7554 58.481C19.9849 58.251 20.2958 58.1218 20.6199 58.1218C20.944 58.1218 21.2549 58.251 21.4844 58.481Z" fill="#091796"/>
<path d="M66.9628 18.3673L69.4356 17.3772C69.5799 17.319 69.6955 17.2059 69.7574 17.0626C69.8192 16.9192 69.8223 16.7571 69.766 16.6115L68.2359 12.7186C68.2091 12.6457 68.1683 12.5789 68.1158 12.5219C68.0633 12.4649 68.0001 12.4189 67.9298 12.3865C67.8573 12.3554 67.7792 12.3393 67.7003 12.3393C67.6214 12.3393 67.5433 12.3554 67.4708 12.3865L65.2184 13.3551C65.0539 13.4268 64.8694 13.4374 64.6978 13.385C64.5263 13.3326 64.3789 13.2207 64.2819 13.0691C63.1465 11.3133 61.2032 9.55138 60.1443 8.65964C60.019 8.5531 59.9311 8.4089 59.8936 8.24832C59.8562 8.08775 59.8711 7.91932 59.9362 7.76792L60.9125 5.51397C60.942 5.44231 60.9572 5.36552 60.9572 5.28796C60.9572 5.2104 60.942 5.13361 60.9125 5.06196C60.8855 4.98998 60.8445 4.92411 60.7919 4.86816C60.7394 4.8122 60.6764 4.76729 60.6064 4.73601L56.2454 2.82953C56.1741 2.79984 56.0977 2.78456 56.0205 2.78456C55.9433 2.78456 55.8669 2.79984 55.7956 2.82953C55.724 2.85681 55.6585 2.89802 55.6029 2.95079C55.5472 3.00356 55.5024 3.06684 55.4711 3.13703L54.4949 5.39098C54.4246 5.55329 54.3005 5.6861 54.1438 5.76683C53.987 5.84756 53.8071 5.87121 53.6349 5.83375C51.6576 5.40647 49.6142 5.39079 47.6306 5.78764C47.4559 5.81793 47.2762 5.78634 47.1221 5.69829C46.9681 5.61024 46.8493 5.47119 46.7859 5.30487L45.8678 2.9064C45.8109 2.7618 45.7015 2.64423 45.5618 2.57738C45.4901 2.54694 45.4131 2.53125 45.3353 2.53125C45.2575 2.53125 45.1805 2.54694 45.1088 2.57738L41.2405 4.11486C41.0959 4.17184 40.9796 4.28406 40.9171 4.42698C40.8546 4.56989 40.851 4.73185 40.907 4.87745L41.8802 7.40507C41.944 7.57059 41.9483 7.75329 41.8924 7.92168C41.8365 8.09008 41.724 8.23362 41.5741 8.32756C39.8489 9.4587 38.3636 10.9218 37.2039 12.6325C37.1036 12.7792 36.9557 12.8864 36.7855 12.9358C36.6152 12.9851 36.4332 12.9736 36.2705 12.9031L33.6631 11.7623C33.5198 11.7004 33.3579 11.6981 33.2129 11.7557C33.0678 11.8133 32.9513 11.9262 32.8888 12.0698L31.2883 15.7597C31.2267 15.9037 31.2243 16.0664 31.2817 16.2121C31.339 16.3579 31.4514 16.4749 31.5943 16.5377L34.2293 17.6908C34.3906 17.7609 34.5226 17.885 34.603 18.042C34.6834 18.199 34.7071 18.3792 34.67 18.5518C34.2386 20.5603 34.2064 22.6346 34.5751 24.6556C34.6063 24.8288 34.5766 25.0075 34.4912 25.1612C34.4058 25.3149 34.2699 25.434 34.1068 25.4981L31.5699 26.5129C31.4255 26.5711 31.3099 26.6841 31.248 26.8275C31.1861 26.9708 31.183 27.1329 31.2393 27.2785L32.7695 31.1776C32.7962 31.2501 32.8369 31.3166 32.8895 31.3731C32.942 31.4296 33.0053 31.475 33.0755 31.5066C33.1477 31.537 33.2252 31.5526 33.3035 31.5526C33.3818 31.5526 33.4593 31.537 33.5315 31.5066L35.9522 30.4919C36.1143 30.426 36.2941 30.4182 36.4613 30.4697C36.6284 30.5212 36.7728 30.6289 36.8703 30.7748C37.9201 32.4741 39.3054 33.9392 40.9406 35.0797C41.0835 35.1795 41.188 35.3256 41.2365 35.4935C41.285 35.6615 41.2745 35.8411 41.2069 36.0022L40.1602 38.4222C40.0986 38.5662 40.0963 38.7288 40.1536 38.8746C40.211 39.0203 40.3233 39.1374 40.4662 39.2002L44.8272 41.1066C44.8986 41.1363 44.975 41.1516 45.0522 41.1516C45.1294 41.1516 45.2058 41.1363 45.2771 41.1066C45.3487 41.0794 45.4142 41.0382 45.4699 40.9854C45.5255 40.9326 45.5702 40.8693 45.6015 40.7991L46.6482 38.3822C46.7139 38.23 46.8269 38.1033 46.9704 38.0212C47.1139 37.9391 47.2801 37.9061 47.4439 37.9271C48.7782 38.0993 51.3275 38.3299 53.3718 37.9825C53.4145 37.9779 53.4576 37.9779 53.5003 37.9825C53.6547 37.9826 53.8054 38.0301 53.9323 38.1186C54.0592 38.207 54.1562 38.3323 54.2103 38.4775L55.1467 40.9713C55.1732 41.0444 55.214 41.1114 55.2665 41.1684C55.3191 41.2254 55.3823 41.2713 55.4528 41.3034C55.525 41.3338 55.6025 41.3494 55.6808 41.3494C55.7591 41.3494 55.8365 41.3338 55.9088 41.3034L59.7556 39.766C59.9 39.7077 60.0156 39.5947 60.0775 39.4514C60.1394 39.308 60.1425 39.1459 60.0862 39.0003L59.0793 36.4143C59.0155 36.2487 59.0111 36.066 59.067 35.8976C59.1229 35.7292 59.2355 35.5857 59.3853 35.4918C61.1038 34.382 62.5861 32.9408 63.7463 31.2514C63.8465 31.1088 63.9921 31.0048 64.1591 30.9567C64.326 30.9086 64.5043 30.9193 64.6645 30.9869L67.3912 32.18C67.5345 32.2419 67.6964 32.2443 67.8414 32.1867C67.9865 32.129 68.103 32.0161 68.1655 31.8725L69.766 28.1826C69.7956 28.1109 69.8108 28.0341 69.8108 27.9566C69.8108 27.879 69.7956 27.8022 69.766 27.7306C69.7395 27.6583 69.6987 27.5922 69.6461 27.5362C69.5935 27.4802 69.5302 27.4354 69.46 27.4046L66.7608 26.2238C66.6064 26.1489 66.4817 26.0235 66.4073 25.8683C66.3328 25.7131 66.3129 25.5371 66.3507 25.369C66.803 23.3487 66.8519 21.2584 66.4945 19.2191C66.4622 19.0446 66.4912 18.8642 66.5766 18.7088C66.6621 18.5535 66.7986 18.4327 66.9628 18.3673ZM60.3402 26.2577C59.7839 27.5524 58.9776 28.7234 57.968 29.703C56.9584 30.6826 55.7654 31.4514 54.4582 31.9648C53.2121 32.4606 51.8843 32.7161 50.544 32.7181C49.0787 32.7161 47.6295 32.4105 46.287 31.8203C44.9985 31.2613 43.833 30.4512 42.858 29.4367C41.8831 28.4223 41.118 27.2236 40.607 25.9102C40.089 24.6002 39.835 23.2 39.8597 21.7906C39.8844 20.3813 40.1873 18.9909 40.7509 17.7C41.3072 16.4053 42.1135 15.2343 43.1231 14.2547C44.1328 13.275 45.3257 12.5063 46.6329 11.9929C47.9366 11.4724 49.3302 11.2172 50.7328 11.242C52.1355 11.2668 53.5193 11.5711 54.804 12.1374C56.0926 12.6964 57.2581 13.5065 58.233 14.521C59.208 15.5354 59.9731 16.734 60.484 18.0475C61.0006 19.3581 61.2531 20.7586 61.2268 22.168C61.2005 23.5774 60.8961 24.9675 60.331 26.2577H60.3402Z" fill="#66C3CD"/>
<path d="M59.0588 18.6019C58.6209 17.4758 57.9651 16.448 57.1293 15.5782C56.2936 14.7084 55.2945 14.0137 54.1898 13.5344C53.0385 13.0281 51.7955 12.7664 50.5388 12.7656C49.3862 12.7656 48.244 12.9847 47.1724 13.4114C46.0542 13.8513 45.0336 14.5093 44.1696 15.3473C43.3056 16.1854 42.6151 17.187 42.1381 18.2944C41.655 19.4016 41.3954 20.5942 41.3744 21.8029C41.3534 23.0117 41.5714 24.2126 42.0157 25.3361C42.4536 26.4622 43.1094 27.4899 43.9452 28.3597C44.7809 29.2296 45.78 29.9243 46.8847 30.4036C47.9867 30.889 49.1735 31.1498 50.3765 31.1709C51.5795 31.192 52.7748 30.973 53.893 30.5266C55.0137 30.0866 56.0366 29.4277 56.9023 28.5879C57.768 27.7482 58.4593 26.7443 58.9364 25.6343C59.4182 24.5284 59.6771 23.3375 59.6981 22.1304C59.7191 20.9234 59.5018 19.7241 59.0588 18.6019Z" fill="white"/>
<path d="M54.7956 12.1471C53.5109 11.5808 52.127 11.2765 50.7244 11.2516C49.3217 11.2268 47.9282 11.4821 46.6244 12.0026C45.3172 12.516 44.1243 13.2847 43.1147 14.2643C42.105 15.244 41.2988 16.415 40.7425 17.7097C40.1789 19.0005 39.8759 20.3909 39.8513 21.8003C39.8266 23.2097 40.0806 24.6099 40.5986 25.9199C41.1099 27.2328 41.8752 28.4308 42.8501 29.4447C43.8251 30.4586 44.9903 31.2683 46.2786 31.8269C47.621 32.4171 49.0702 32.7227 50.5356 32.7248C51.8758 32.7228 53.2037 32.4672 54.4498 31.9714C55.757 31.458 56.9499 30.6893 57.9595 29.7096C58.9692 28.73 59.7755 27.559 60.3318 26.2643C60.8954 24.9734 61.1983 23.583 61.223 22.1737C61.2477 20.7643 60.9936 19.3641 60.4756 18.0541C59.9643 16.7412 59.1991 15.5432 58.2241 14.5293C57.2492 13.5154 56.0839 12.7057 54.7956 12.1471ZM53.8928 30.5508C52.7746 30.9972 51.5794 31.2162 50.3764 31.1951C49.1734 31.174 47.9865 30.9132 46.8845 30.4278C45.7798 29.9484 44.7807 29.2537 43.945 28.3839C43.1092 27.5141 42.4534 26.4864 42.0155 25.3602C41.5712 24.2367 41.3532 23.0358 41.3743 21.8271C41.3953 20.6183 41.6548 19.4258 42.1379 18.3186C42.615 17.2086 43.3064 16.2047 44.1721 15.365C45.0378 14.5252 46.0607 13.8663 47.1814 13.4263C48.253 12.9996 49.3952 12.7806 50.5478 12.7806C51.8045 12.7813 53.0475 13.043 54.1988 13.5493C55.3007 14.0282 56.2973 14.7215 57.1314 15.5891C57.9655 16.4567 58.6204 17.4815 59.0586 18.6045C59.5029 19.728 59.7209 20.9289 59.6999 22.1377C59.6789 23.3464 59.4193 24.539 58.9362 25.6462C58.4595 26.7567 57.7683 27.7612 56.9025 28.6015C56.0368 29.4418 55.0138 30.1012 53.8928 30.5415V30.5508Z" fill="#091796"/>
</svg>
