<svg width="82" height="82" viewBox="0 0 82 82" fill="none" xmlns="http://www.w3.org/2000/svg">
<g clip-path="url(#clip0_1623_3125)">
<path d="M50.2992 77.9008V64.3008H31.1992V77.9008" fill="#70ADFF"/>
<path d="M50.2992 77.9008V64.3008H31.1992V77.9008" stroke="#0F0996" stroke-width="1.5" stroke-linecap="round" stroke-linejoin="round"/>
<path d="M45.4008 68.8016H3.20078C2.88561 68.8016 2.57352 68.7395 2.28234 68.6189C1.99116 68.4983 1.72659 68.3215 1.50372 68.0986C1.28086 67.8758 1.10408 67.6112 0.98347 67.32C0.862859 67.0288 0.800781 66.7167 0.800781 66.4016L0.800781 57.6016H80.8008V66.4016C80.8008 66.7167 80.7387 67.0288 80.6181 67.32C80.4975 67.6112 80.3207 67.8758 80.0978 68.0986C79.875 68.3215 79.6104 68.4983 79.3192 68.6189C79.028 68.7395 78.716 68.8016 78.4008 68.8016H45.4008Z" fill="#70ADFF" stroke="#0F0996" stroke-width="1.5" stroke-linecap="round" stroke-linejoin="round"/>
<path d="M80.8008 61.4008H0.800781V18.1008C0.800781 17.6674 0.886138 17.2383 1.05198 16.8379C1.21782 16.4376 1.4609 16.0738 1.76733 15.7673C2.07376 15.4609 2.43755 15.2178 2.83793 15.052C3.2383 14.8861 3.66742 14.8008 4.10078 14.8008H77.4008C77.8341 14.8008 78.2633 14.8861 78.6636 15.052C79.064 15.2178 79.4278 15.4609 79.7342 15.7673C80.0407 16.0738 80.2837 16.4376 80.4496 16.8379C80.6154 17.2383 80.7008 17.6674 80.7008 18.1008L80.8008 61.4008Z" fill="white" stroke="#0F0996" stroke-width="1.5" stroke-linecap="round" stroke-linejoin="round"/>
<path d="M68.8004 11.6992H11.9004V61.1992H68.8004V11.6992Z" fill="white" stroke="#0F0996" stroke-width="1.5" stroke-linecap="round" stroke-linejoin="round"/>
<path d="M66.999 0.799821H13.899C13.6457 0.78531 13.3922 0.824516 13.1551 0.914867C12.918 1.00522 12.7027 1.14467 12.5233 1.32408C12.3439 1.50349 12.2044 1.71881 12.1141 1.9559C12.0237 2.19299 11.9845 2.44651 11.999 2.69982V11.6998H68.899V2.69982C68.899 2.19591 68.6989 1.71264 68.3425 1.35632C67.9862 0.999999 67.5029 0.799821 66.999 0.799821Z" fill="#70ADFF" stroke="#0F0996" stroke-width="1.5" stroke-linecap="round" stroke-linejoin="round"/>
<path d="M19.1008 29L62.3008 29V16.46L19.1008 16.46V29Z" fill="#66C3CD" stroke="#0F0996" stroke-width="1.5" stroke-linecap="round" stroke-linejoin="round"/>
<path d="M37.1992 33.6992H61.8992" stroke="#0F0996" stroke-width="1.5" stroke-linecap="round" stroke-linejoin="round"/>
<path d="M37.1992 38.6992H61.8992" stroke="#0F0996" stroke-width="1.5" stroke-linecap="round" stroke-linejoin="round"/>
<path d="M37.1992 43.6992H61.8992" stroke="#0F0996" stroke-width="1.5" stroke-linecap="round" stroke-linejoin="round"/>
<path d="M19.0992 43.3984H29.1992V33.4784H19.0992V43.3984Z" fill="#66C3CD" stroke="#0F0996" stroke-width="1.55" stroke-linecap="round" stroke-linejoin="round"/>
<path d="M43.7996 55.5H19.0996" stroke="#0F0996" stroke-width="1.5" stroke-linecap="round" stroke-linejoin="round"/>
<path d="M43.7996 50.5H19.0996" stroke="#0F0996" stroke-width="1.5" stroke-linecap="round" stroke-linejoin="round"/>
<path d="M62.0004 49.8008H51.9004V60.4108H62.0004V49.8008Z" fill="#66C3CD" stroke="#0F0996" stroke-width="1.5" stroke-linecap="round" stroke-linejoin="round"/>
<path d="M55.8008 77.8008H25.8008C24.9724 77.8008 24.3008 78.4724 24.3008 79.3008C24.3008 80.1292 24.9724 80.8008 25.8008 80.8008H55.8008C56.6292 80.8008 57.3008 80.1292 57.3008 79.3008C57.3008 78.4724 56.6292 77.8008 55.8008 77.8008Z" fill="#70ADFF" stroke="#0F0996" stroke-width="1.5" stroke-linecap="round" stroke-linejoin="round"/>
</g>
<defs>
<clipPath id="clip0_1623_3125">
<rect width="81.5" height="81.5" fill="white"/>
</clipPath>
</defs>
</svg>
