<svg width="91" height="88" viewBox="0 0 91 88" fill="none" xmlns="http://www.w3.org/2000/svg">
<g clip-path="url(#clip0_1007_3636)">
<path d="M56.0391 86.4867V71.5586H35.0195V86.4782" fill="#70ADFF"/>
<path d="M56.0391 86.4867V71.5586H35.0195V86.4782" stroke="#0F0996" stroke-width="1.99" stroke-linecap="round" stroke-linejoin="round"/>
<path d="M50.5318 76.4403H4.18034C3.50625 76.4403 2.85975 76.1725 2.38309 75.6958C1.90644 75.2192 1.63867 74.5727 1.63867 73.8986V64.2148H89.5041V73.8986C89.5041 74.5727 89.2363 75.2192 88.7596 75.6958C88.283 76.1725 87.6365 76.4403 86.9624 76.4403H50.6165H50.5318Z" fill="#70ADFF" stroke="#0F0996" stroke-width="1.99" stroke-linecap="round" stroke-linejoin="round"/>
<path d="M89.463 68.2959H1.59766V20.809C1.59765 19.851 1.97759 18.9322 2.6542 18.254C3.33081 17.5758 4.24884 17.1936 5.20683 17.1914H85.7607C86.7187 17.1936 87.6367 17.5758 88.3133 18.254C88.9899 18.9322 89.3699 19.851 89.3699 20.809L89.463 68.2959Z" fill="white" stroke="#0F0996" stroke-width="1.99" stroke-linecap="round" stroke-linejoin="round"/>
<path d="M27.5898 86.4883H63.4612" stroke="#0F0996" stroke-width="1.99" stroke-linecap="round" stroke-linejoin="round"/>
<path d="M76.3655 13.7383H13.8828V68.113H76.3655V13.7383Z" fill="white" stroke="#0F0996" stroke-width="1.99" stroke-linecap="round" stroke-linejoin="round"/>
<path d="M74.3067 1.76562H15.95C15.4017 1.76562 14.8759 1.98342 14.4882 2.3711C14.1006 2.75878 13.8828 3.28459 13.8828 3.83285V13.7453H76.357V3.83285C76.3581 3.56249 76.3059 3.29455 76.2035 3.04434C76.1011 2.79414 75.9503 2.56655 75.7599 2.37459C75.5695 2.18263 75.3432 2.03005 75.0939 1.92557C74.8445 1.82108 74.577 1.76674 74.3067 1.76562Z" fill="#66C3CD" stroke="#0F0996" stroke-width="1.99" stroke-linecap="round" stroke-linejoin="round"/>
<path d="M30.1992 51.8379L49.5327 32.5042C49.1362 31.2807 49.0847 29.9715 49.3836 28.7205C49.6825 27.4695 50.3204 26.3251 51.2272 25.413C52.2827 24.3604 53.6474 23.6732 55.1216 23.4522C56.5958 23.2311 58.102 23.4878 59.4199 24.1845L55.5227 28.0733C55.1337 28.4525 54.9061 28.9672 54.8871 29.5101C54.8682 30.053 55.0594 30.5823 55.421 30.9877C55.6086 31.1875 55.8344 31.3477 56.0851 31.4588C56.3357 31.5698 56.6061 31.6295 56.8802 31.6342C57.1543 31.639 57.4265 31.5887 57.6808 31.4864C57.9352 31.3841 58.1664 31.2318 58.3608 31.0385L62.3174 27.082C63.0141 28.3998 63.2708 29.9061 63.0497 31.3802C62.8287 32.8544 62.1415 34.2192 61.0889 35.2747C60.1767 36.1815 59.0324 36.8194 57.7814 37.1183C56.5304 37.4172 55.2212 37.3656 53.9976 36.9691L34.6641 56.3027C34.3705 56.5968 34.0218 56.8301 33.638 56.9893C33.2542 57.1485 32.8429 57.2304 32.4274 57.2304C32.0119 57.2304 31.6004 57.1485 31.2166 56.9893C30.8328 56.8301 30.4842 56.5968 30.1907 56.3027C29.6005 55.7091 29.2699 54.9056 29.2715 54.0685C29.2731 53.2315 29.6067 52.4292 30.1992 51.8379Z" fill="#70ADFF" stroke="#0F0996" stroke-width="0.8" stroke-linecap="round" stroke-linejoin="round"/>
<path d="M56.2 56.9543L59.7414 53.4129C59.8398 53.3152 59.9178 53.1991 59.9711 53.0711C60.0244 52.9432 60.0518 52.8059 60.0518 52.6673C60.0518 52.5287 60.0244 52.3915 59.9711 52.2635C59.9178 52.1356 59.8398 52.0194 59.7414 51.9218L35.0279 27.2168L28.8093 25.0225C28.67 24.9751 28.5202 24.9676 28.3769 25.001C28.2336 25.0344 28.1024 25.1072 27.9984 25.2112C27.8943 25.3153 27.8215 25.4464 27.7881 25.5897C27.7548 25.7331 27.7621 25.8829 27.8095 26.0222L30.0039 32.2408L54.7088 56.9543C54.8065 57.0526 54.9227 57.1307 55.0506 57.184C55.1786 57.2373 55.3158 57.2647 55.4544 57.2647C55.593 57.2647 55.7303 57.2373 55.8583 57.184C55.9862 57.1307 56.1023 57.0526 56.2 56.9543Z" fill="#66C3CD" stroke="#0F0996" stroke-width="0.8" stroke-linecap="round" stroke-linejoin="round"/>
<path d="M30.0039 32.2408C31.2663 30.9869 32.5456 32.3001 33.8334 31.0462C35.1211 29.7923 33.774 28.5046 35.0279 27.2168L28.8093 25.0225C28.67 24.9751 28.5202 24.9676 28.3769 25.001C28.2336 25.0344 28.1024 25.1072 27.9984 25.2112C27.8943 25.3153 27.8215 25.4464 27.7881 25.5897C27.7548 25.7331 27.7621 25.8829 27.8095 26.0222L30.0039 32.2408Z" fill="#66C3CD" stroke="#0F0996" stroke-width="0.8" stroke-linecap="round" stroke-linejoin="round"/>
<path d="M51.668 53.9114L56.7005 48.8789L59.742 51.9204C59.8404 52.0181 59.9184 52.1343 59.9717 52.2622C60.025 52.3902 60.0524 52.5274 60.0524 52.666C60.0524 52.8046 60.025 52.9418 59.9717 53.0698C59.9184 53.1978 59.8404 53.3139 59.742 53.4116L56.2006 56.9529C56.1029 57.0513 55.9868 57.1294 55.8589 57.1827C55.7309 57.2359 55.5936 57.2634 55.455 57.2634C55.3164 57.2634 55.1792 57.2359 55.0513 57.1827C54.9233 57.1294 54.8071 57.0513 54.7095 56.9529L51.668 53.9114Z" fill="white" stroke="#0F0996" stroke-width="0.8" stroke-linecap="round" stroke-linejoin="round"/>
<path d="M58.6237 50.8008L56.1074 53.3086" stroke="#0F0996" stroke-width="0.8" stroke-linecap="round" stroke-linejoin="round"/>
<path d="M31.6905 26.0378C31.6894 26.4145 31.614 26.7872 31.4686 27.1346C31.3232 27.4821 31.1108 27.7975 30.8433 28.0627C30.5801 28.3328 30.2651 28.547 29.9172 28.6926C29.5693 28.8382 29.1956 28.9121 28.8184 28.9099L27.8017 26.0378C27.7543 25.8985 27.7469 25.7487 27.7803 25.6054C27.8137 25.462 27.8865 25.3309 27.9906 25.2269C28.0946 25.1228 28.2258 25.05 28.3691 25.0166C28.5124 24.9832 28.6622 24.9907 28.8015 25.0381L31.6905 26.0378Z" fill="#66C3CD" stroke="#0F0996" stroke-width="0.8" stroke-linecap="round" stroke-linejoin="round"/>
</g>
<defs>
<clipPath id="clip0_1007_3636">
<rect width="89.5599" height="86.4082" fill="white" transform="translate(0.75 0.917969)"/>
</clipPath>
</defs>
</svg>
