<svg width="89" height="101" viewBox="0 0 89 101" fill="none" xmlns="http://www.w3.org/2000/svg">
<path d="M86.8236 88.7891C86.8236 75.3091 76.4836 63.8591 63.5736 62.7891C63.3028 64.8022 62.3117 66.6489 60.7838 67.9874C59.256 69.3259 57.2948 70.0654 55.2636 70.0691C53.2312 70.0657 51.2688 69.3266 49.7393 67.9883C48.2098 66.6499 47.2167 64.803 46.9436 62.7891C46.3336 62.8391 45.7236 62.9091 45.1236 63.0091C43.0452 64.8938 40.6829 66.4394 38.1236 67.5891L38.2536 72.5891C38.26 72.9589 38.1925 73.3263 38.0552 73.6697C37.9178 74.0131 37.7133 74.3257 37.4536 74.5891C37.0557 74.9962 36.5428 75.2719 35.9836 75.3791L36.1736 91.4491C36.197 93.3321 35.5839 95.1679 34.4336 96.6591H75.0036V84.1391C75.0036 83.8739 75.109 83.6195 75.2965 83.4319C75.484 83.2444 75.7384 83.1391 76.0036 83.1391C76.2688 83.1391 76.5232 83.2444 76.7108 83.4319C76.8983 83.6195 77.0036 83.8739 77.0036 84.1391V96.6591H86.8636L86.8236 88.7891Z" fill="#70ADFF"/>
<path d="M63.6536 60.91V53.53C66.3501 52.2625 68.6391 50.2673 70.2627 47.7691C71.8864 45.2708 72.7803 42.3689 72.8436 39.39C74.7277 39.13 76.4548 38.199 77.7076 36.768C78.9605 35.3369 79.655 33.502 79.6636 31.6C79.6594 29.8788 79.0902 28.2065 78.0436 26.84V14.62C78.0384 10.7511 76.5018 7.04153 73.7698 4.30203C71.0378 1.56254 67.3325 0.0158527 63.4636 0H38.9936C38.7284 0 38.474 0.105371 38.2865 0.292908C38.0989 0.480444 37.9936 0.734784 37.9936 1C37.991 2.19003 38.222 3.369 38.6736 4.47C34.9236 6.12 32.5536 9.99 32.5536 14.62V16.7C28.1 15.7598 23.481 15.9608 19.1259 17.2843C14.7708 18.6078 10.821 21.0108 7.64359 24.27C5.16497 26.805 3.21354 29.8061 1.90216 33.1C0.590784 36.3939 -0.0545055 39.9152 0.00360293 43.46C0.0382111 47.0095 0.777337 50.5168 2.1781 53.7784C3.57887 57.04 5.61339 59.9909 8.16361 62.46C10.6378 64.8747 13.5543 66.7897 16.7536 68.1L16.9136 73.02C16.9136 73.3925 16.9878 73.7612 17.1321 74.1046C17.2763 74.4481 17.4876 74.7593 17.7536 75.02C18.1627 75.4172 18.6819 75.682 19.2436 75.78L19.4636 91.79C19.4977 93.9882 20.3942 96.0849 21.96 97.6282C23.5257 99.1715 25.6351 100.038 27.8336 100.04H27.9436C29.2068 100.023 30.4497 99.72 31.579 99.1536C32.7083 98.5872 33.6945 97.7723 34.4636 96.77C35.6139 95.2789 36.227 93.4431 36.2036 91.56L36.0136 75.49C36.5727 75.3828 37.0857 75.1072 37.4836 74.7C37.7433 74.4366 37.9478 74.1241 38.0852 73.7806C38.2225 73.4372 38.29 73.0698 38.2836 72.7L38.1536 67.7C40.7129 66.5503 43.0752 65.0047 45.1536 63.12C45.7536 63.02 46.3636 62.95 46.9736 62.9C47.2467 64.9139 48.2398 66.7609 49.7693 68.0992C51.2988 69.4375 53.2612 70.1767 55.2936 70.18C57.3248 70.1764 59.2859 69.4368 60.8138 68.0984C62.3417 66.7599 63.3328 64.9131 63.6036 62.9C76.5136 63.9 86.8536 75.38 86.8536 88.9V96.83C86.8536 97.0952 86.959 97.3496 87.1465 97.5371C87.3341 97.7246 87.5884 97.83 87.8536 97.83C88.1188 97.83 88.3732 97.7246 88.5607 97.5371C88.7482 97.3496 88.8536 97.0952 88.8536 96.83V88.79C88.7536 74.3 77.5736 61.98 63.6536 60.91ZM48.7936 61.73V58.99C49.7486 57.6908 50.5853 56.3086 51.2936 54.86C52.1077 54.9844 52.93 55.0479 53.7536 55.05H56.8636C58.5132 55.0503 60.1528 54.7939 61.7236 54.29V61.73C61.721 63.4425 61.0395 65.0841 59.8286 66.295C58.6177 67.5059 56.9761 68.1874 55.2636 68.19C53.5494 68.19 51.9052 67.5097 50.6922 66.2985C49.4791 65.0873 48.7963 63.4442 48.7936 61.73ZM36.3636 72.73C36.3685 72.8452 36.3486 72.9601 36.3055 73.067C36.2624 73.1739 36.197 73.2704 36.1136 73.35C36.0342 73.435 35.9382 73.5029 35.8316 73.5493C35.7249 73.5958 35.6099 73.6198 35.4936 73.62L19.7636 73.79C19.6485 73.7942 19.5338 73.7741 19.427 73.731C19.3201 73.688 19.2236 73.6229 19.1436 73.54C19.0573 73.4595 18.9887 73.3619 18.9423 73.2534C18.8958 73.145 18.8724 73.028 18.8736 72.91L18.7436 68.74C21.4162 69.5982 24.2065 70.0335 27.0136 70.03H27.3936C30.4196 69.9942 33.418 69.45 36.2636 68.42L36.3636 72.73ZM34.2836 91.59C34.305 93.2973 33.6485 94.9434 32.4582 96.1674C31.2679 97.3915 29.6408 98.0937 27.9336 98.12C27.0872 98.1325 26.2466 97.9772 25.4605 97.6631C24.6744 97.3491 23.9584 96.8824 23.3536 96.29C22.7433 95.7028 22.2565 94.9996 21.9216 94.2217C21.5868 93.4438 21.4106 92.6069 21.4036 91.76L21.2136 75.76L34.0936 75.58L34.2836 91.59ZM27.3636 68.15C24.0715 68.203 20.8015 67.6028 17.7428 66.3841C14.684 65.1654 11.8973 63.3525 9.54358 61.05C7.17927 58.759 5.29215 56.0224 3.99115 52.9982C2.69015 49.974 2.00104 46.722 1.96359 43.43C1.91061 40.1379 2.51081 36.8679 3.72949 33.8092C4.94818 30.7505 6.76117 27.9637 9.0636 25.61C13.6964 20.8602 20.0219 18.1389 26.6562 18.0414C33.2905 17.944 39.6933 20.4783 44.4636 25.09C46.8279 27.381 48.715 30.1176 50.016 33.1418C51.317 36.166 52.0062 39.418 52.0436 42.71C52.0966 46.0022 51.4964 49.2721 50.2777 52.3308C49.059 55.3896 47.246 58.1763 44.9436 60.53C42.6573 62.8896 39.9272 64.7739 36.9102 66.0748C33.8932 67.3756 30.6488 68.0673 27.3636 68.11V68.15ZM76.1136 14.66V25.08C75.1332 24.4284 74.0193 24.0046 72.8536 23.84V22.9C72.8483 19.0003 71.2968 15.2618 68.5393 12.5043C65.7818 9.74679 62.0433 8.19529 58.1436 8.19H47.1436C45.4034 8.18684 43.7231 7.55441 42.4126 6.40939C41.1022 5.26438 40.2501 3.68407 40.0136 1.96002H63.4636C66.8163 1.9732 70.0277 3.31155 72.3974 5.6832C74.7672 8.05484 76.1031 11.2673 76.1136 14.62V14.66ZM70.9236 38.54V39.11C70.921 42.8372 69.4384 46.4109 66.802 49.0455C64.1655 51.6801 60.5908 53.16 56.8636 53.16H53.7536C53.1987 53.1619 52.6443 53.1285 52.0936 53.06C54.0633 48.1034 54.5208 42.6746 53.4085 37.4583C52.2962 32.242 49.6638 27.4719 45.8436 23.75C44.1437 22.0902 42.2302 20.6643 40.1536 19.51C40.891 16.8078 42.4945 14.4221 44.718 12.7187C46.9416 11.0154 49.6626 10.0884 52.4636 10.08H58.1336C61.5222 10.0827 64.7714 11.43 67.1675 13.8261C69.5637 16.2223 70.911 19.4714 70.9136 22.86V24.7C70.9133 24.9568 71.0117 25.2039 71.1886 25.39C71.3654 25.5762 71.6072 25.6872 71.8636 25.7C73.4202 25.7363 74.9017 26.3762 75.9952 27.4846C77.0887 28.593 77.7085 30.0831 77.7236 31.64C77.7085 33.1969 77.0887 34.687 75.9952 35.7954C74.9017 36.9038 73.4202 37.5438 71.8636 37.58C71.6222 37.5938 71.3939 37.6946 71.221 37.8637C71.0482 38.0329 70.9426 38.2589 70.9236 38.5V38.54ZM39.6436 6.17001C41.0106 8.15509 43.1056 9.52062 45.4736 9.97C42.0739 11.8148 39.5349 14.9212 38.4036 18.62C37.1486 18.0398 35.8515 17.5551 34.5236 17.17V14.62C34.5236 10.61 36.4636 7.44 39.6436 6.13V6.17001Z" fill="#091796"/>
<path d="M76.9648 84.2109C76.9648 83.9457 76.8595 83.6914 76.6719 83.5038C76.4844 83.3163 76.2301 83.2109 75.9648 83.2109C75.6996 83.2109 75.4453 83.3163 75.2578 83.5038C75.0702 83.6914 74.9648 83.9457 74.9648 84.2109V96.7309C74.9648 96.9961 75.0702 97.2505 75.2578 97.438C75.4453 97.6256 75.6996 97.7309 75.9648 97.7309C76.2301 97.7309 76.4844 97.6256 76.6719 97.438C76.8595 97.2505 76.9648 96.9961 76.9648 96.7309V84.2109Z" fill="#091796"/>
<path d="M61.7249 61.7291V54.2891C60.1541 54.793 58.5145 55.0494 56.8649 55.0491H53.7549C52.9313 55.047 52.1091 54.9835 51.2949 54.8591C50.5866 56.3076 49.7499 57.6898 48.7949 58.9891V61.7291C48.7976 63.4433 49.4804 65.0864 50.6935 66.2976C51.9066 67.5088 53.5507 68.1891 55.2649 68.1891C56.9774 68.1864 58.619 67.5049 59.8299 66.294C61.0408 65.0831 61.7223 63.4416 61.7249 61.7291Z" fill="white"/>
<path d="M47.1525 8.15967H58.1525C62.0522 8.16496 65.7907 9.71645 68.5482 12.474C71.3057 15.2315 72.8573 18.9699 72.8625 22.8697V23.8097C74.0282 23.9743 75.1421 24.398 76.1225 25.0497V14.6297C76.1225 11.2683 74.79 8.04411 72.4169 5.66354C70.0439 3.28298 66.8238 1.94027 63.4625 1.92969H40.0625C40.2981 3.64695 41.1444 5.22186 42.4465 6.366C43.7486 7.51014 45.4192 8.1469 47.1525 8.15967Z" fill="#66C3CD"/>
<path d="M34.5234 17.1289C35.8514 17.514 37.1484 17.9987 38.4034 18.5789C39.5348 14.8801 42.0738 11.7737 45.4734 9.92892C43.1055 9.47955 41.0104 8.11399 39.6434 6.12891C36.4634 7.43891 34.5234 10.6089 34.5234 14.5789V17.1289Z" fill="#66C3CD"/>
<path d="M77.7346 31.5991C77.7194 30.0421 77.0996 28.5521 76.0061 27.4437C74.9126 26.3353 73.4311 25.6953 71.8745 25.6591C71.6181 25.6462 71.3764 25.5352 71.1995 25.3491C71.0227 25.1629 70.9242 24.9158 70.9246 24.6591V22.8191C70.9219 19.4304 69.5746 16.1813 67.1785 13.7852C64.7823 11.389 61.5332 10.0417 58.1445 10.0391H52.4645C49.667 10.0429 46.9478 10.9631 44.7228 12.6588C42.4979 14.3546 40.8898 16.7327 40.1445 19.4291C42.2211 20.5834 44.1347 22.0092 45.8345 23.6691C49.6548 27.391 52.2871 32.161 53.3994 37.3773C54.5117 42.5936 54.0542 48.0225 52.0845 52.9791C52.6352 53.0476 53.1897 53.081 53.7446 53.0791H56.8546C60.5818 53.0791 64.1564 51.5991 66.7929 48.9645C69.4294 46.3299 70.9119 42.7563 70.9146 39.0291V38.4591C70.9142 38.2023 71.0127 37.9552 71.1895 37.7691C71.3664 37.5829 71.6081 37.4719 71.8646 37.4591C73.4093 37.426 74.8817 36.7983 75.9752 35.7067C77.0686 34.6151 77.6989 33.1437 77.7346 31.5991Z" fill="white"/>
<path d="M21.2148 75.7013L21.4048 91.7013C21.4119 92.5481 21.588 93.3851 21.9229 94.163C22.2577 94.9409 22.7446 95.6441 23.3549 96.2313C23.9596 96.8236 24.6757 97.2903 25.4618 97.6044C26.2479 97.9185 27.0884 98.0738 27.9348 98.0612C29.642 98.0349 31.2691 97.3328 32.4595 96.1087C33.6498 94.8846 34.3062 93.2385 34.2849 91.5312L34.0948 75.5312L21.2148 75.7013Z" fill="#66C3CD"/>
<path d="M27.3941 70.0319H27.0141C24.2071 70.0353 21.4168 69.6001 18.7441 68.7419L18.8741 72.9119C18.873 73.0299 18.8963 73.1468 18.9428 73.2553C18.9893 73.3637 19.0579 73.4614 19.1441 73.5419C19.2241 73.6247 19.3207 73.6898 19.4275 73.7329C19.5343 73.776 19.649 73.7961 19.7641 73.7919L35.4942 73.5819C35.6105 73.5817 35.7255 73.5576 35.8321 73.5112C35.9388 73.4647 36.0348 73.3969 36.1142 73.3119C36.1976 73.2323 36.2629 73.1358 36.3061 73.0289C36.3492 72.9219 36.369 72.807 36.3642 72.6919L36.2641 68.4219C33.4186 69.4518 30.4201 69.9961 27.3941 70.0319Z" fill="#66C3CD"/>
<path d="M44.9832 60.5307C47.2856 58.177 49.0986 55.3902 50.3173 52.3315C51.536 49.2728 52.1361 46.0028 52.0832 42.7107C52.0405 39.4159 51.3451 36.1622 50.0372 33.1378C48.7293 30.1134 46.8347 27.3783 44.4632 25.0907C39.6964 20.4615 33.2879 17.9123 26.6439 18.0023C19.9999 18.0923 13.6628 20.8141 9.02315 25.5707C6.72072 27.9243 4.90773 30.7111 3.68905 33.7698C2.47036 36.8285 1.87016 40.0985 1.92315 43.3907C1.9606 46.6827 2.64973 49.9346 3.95074 52.9588C5.25174 55.9831 7.13886 58.7197 9.50316 61.0107C11.8568 63.3131 14.6436 65.1261 17.7023 66.3448C20.761 67.5635 24.031 68.1637 27.3231 68.1107C30.6219 68.0785 33.8815 67.3919 36.9129 66.0908C39.9444 64.7896 42.6875 62.8997 44.9832 60.5307ZM6.92315 43.3507C6.86173 43.1554 6.86173 42.9459 6.92315 42.7507C8.30964 38.5148 11.0007 34.8261 14.6111 32.2126C18.2215 29.5991 22.5661 28.1948 27.0232 28.2007C31.4852 28.1975 35.8335 29.6077 39.4445 32.2288C43.0555 34.8499 45.7435 38.5473 47.1231 42.7907C47.1845 42.986 47.1845 43.1954 47.1231 43.3907C45.7366 47.6266 43.0457 51.3153 39.4353 53.9288C35.8249 56.5422 31.4802 57.9465 27.0232 57.9407C22.5612 57.9438 18.2128 56.5337 14.6018 53.9126C10.9908 51.2915 8.30273 47.594 6.92315 43.3507Z" fill="white"/>
<path d="M27.0235 55.9689C31.0201 55.9743 34.9188 54.7325 38.1759 52.4165C41.433 50.1004 43.8863 46.8257 45.1935 43.0489C43.8863 39.2722 41.433 35.9974 38.1759 33.6814C34.9188 31.3654 31.0201 30.1235 27.0235 30.1289C23.0269 30.1235 19.1282 31.3654 15.8711 33.6814C12.6139 35.9974 10.1607 39.2722 8.85352 43.0489C10.1607 46.8257 12.6139 50.1004 15.8711 52.4165C19.1282 54.7325 23.0269 55.9743 27.0235 55.9689ZM27.0235 33.2489C27.7297 33.2502 28.4338 33.3273 29.1235 33.4789H29.2535C30.0964 33.1881 31.0039 33.1389 31.8734 33.3368C32.7428 33.5348 33.5395 33.9719 34.1735 34.5989C34.6386 35.0674 35.0006 35.6278 35.2365 36.2442C35.4724 36.8607 35.577 37.5197 35.5435 38.1789C36.3795 39.6516 36.8204 41.3155 36.8235 43.0089C36.8182 45.6064 35.784 48.096 33.9473 49.9327C32.1106 51.7694 29.621 52.8036 27.0235 52.8089C24.426 52.8036 21.9364 51.7694 20.0997 49.9327C18.263 48.096 17.2288 45.6064 17.2235 43.0089C17.2393 40.4184 18.2782 37.939 20.1137 36.1109C21.9493 34.2828 24.4329 33.2541 27.0235 33.2489Z" fill="white"/>
<path d="M47.123 43.3492C47.1844 43.1539 47.1844 42.9445 47.123 42.7492C45.7365 38.5133 43.0455 34.8246 39.4351 32.2111C35.8247 29.5976 31.4801 28.1934 27.023 28.1992C22.561 28.1961 18.2127 29.6062 14.6017 32.2273C10.9907 34.8485 8.3026 38.5459 6.92301 42.7892C6.8616 42.9845 6.8616 43.194 6.92301 43.3892C8.30951 47.6251 11.0006 51.3138 14.6109 53.9273C18.2213 56.5408 22.566 57.9451 27.023 57.9392C31.485 57.9424 35.8334 56.5323 39.4443 53.9112C43.0553 51.29 45.7434 47.5926 47.123 43.3492ZM27.023 30.1292C31.0196 30.1238 34.9183 31.3657 38.1754 33.6817C41.4326 35.9977 43.8858 39.2725 45.193 43.0492C43.8858 46.826 41.4326 50.1007 38.1754 52.4168C34.9183 54.7328 31.0196 55.9747 27.023 55.9692C23.0264 55.9747 19.1277 54.7328 15.8706 52.4168C12.6134 50.1007 10.1603 46.826 8.85304 43.0492C10.1603 39.2725 12.6134 35.9977 15.8706 33.6817C19.1277 31.3657 23.0264 30.1238 27.023 30.1292Z" fill="#091796"/>
<path d="M19.1543 43.0497C19.1569 45.1361 19.9869 47.1364 21.4623 48.6117C22.9376 50.087 24.9379 50.917 27.0243 50.9197C29.1107 50.917 31.111 50.087 32.5863 48.6117C34.0616 47.1364 34.8916 45.1361 34.8943 43.0497C34.8965 42.3119 34.7921 41.5776 34.5843 40.8697C34.4591 41.0422 34.3221 41.206 34.1743 41.3597C33.2812 42.2476 32.0737 42.7471 30.8143 42.7497C30.1904 42.75 29.5725 42.6274 28.996 42.3889C28.4195 42.1504 27.8956 41.8007 27.4543 41.3597C26.6524 40.5542 26.1652 39.4883 26.0808 38.3548C25.9965 37.2213 26.3205 36.0951 26.9943 35.1797C24.9131 35.1903 22.9205 36.0237 21.4517 37.4982C19.9828 38.9727 19.1569 40.9684 19.1543 43.0497Z" fill="#70ADFF"/>
<path d="M27.0226 52.8491C29.6201 52.8438 32.1098 51.8096 33.9465 49.9729C35.7832 48.1362 36.8173 45.6466 36.8226 43.0491C36.8196 41.3557 36.3787 39.6918 35.5427 38.2191C35.5762 37.5599 35.4716 36.9009 35.2357 36.2845C34.9997 35.668 34.6377 35.1076 34.1727 34.6391C33.5387 34.0121 32.7419 33.575 31.8725 33.377C31.0031 33.1791 30.0956 33.2283 29.2527 33.5191H29.1227C28.4329 33.3675 27.7289 33.2904 27.0226 33.2891C24.4251 33.2944 21.9356 34.3286 20.0988 36.1653C18.2621 38.002 17.2279 40.4916 17.2227 43.0891C17.2385 45.6797 18.2773 48.159 20.1129 49.9871C21.9485 51.8152 24.432 52.8439 27.0226 52.8491ZM32.8027 39.9991C32.5406 40.2628 32.2289 40.472 31.8857 40.6148C31.5424 40.7576 31.1744 40.8311 30.8026 40.8311C30.4309 40.8311 30.0628 40.7576 29.7196 40.6148C29.3763 40.472 29.0647 40.2628 28.8026 39.9991C28.275 39.4672 27.979 38.7483 27.979 37.9991C27.979 37.2499 28.275 36.531 28.8026 35.9991C29.0654 35.7372 29.3774 35.5299 29.7206 35.3891C30.0639 35.2484 30.4316 35.177 30.8026 35.1791C31.1737 35.1765 31.5416 35.2476 31.8849 35.3883C32.2283 35.5291 32.5403 35.7367 32.8027 35.9991C33.3303 36.531 33.6263 37.2499 33.6263 37.9991C33.6263 38.7483 33.3303 39.4672 32.8027 39.9991ZM27.4626 41.3591C27.904 41.8001 28.4278 42.1499 29.0044 42.3884C29.5809 42.6269 30.1987 42.7494 30.8226 42.7491C32.082 42.7465 33.2895 42.247 34.1826 41.3591C34.3304 41.2054 34.4674 41.0417 34.5927 40.8691C34.8004 41.5771 34.9048 42.3113 34.9026 43.0491C34.9 45.1356 34.07 47.1358 32.5947 48.6111C31.1193 50.0865 29.1191 50.9165 27.0327 50.9191C24.9462 50.9165 22.946 50.0865 21.4706 48.6111C19.9953 47.1358 19.1653 45.1356 19.1627 43.0491C19.1653 40.9679 19.9912 38.9722 21.46 37.4977C22.9289 36.0232 24.9214 35.1897 27.0027 35.1791C26.3289 36.0945 26.0048 37.2208 26.0892 38.3543C26.1736 39.4877 26.6608 40.5536 27.4626 41.3591Z" fill="#091796"/>
<path d="M30.8139 35.1798C30.4429 35.1776 30.0752 35.249 29.7319 35.3898C29.3886 35.5305 29.0766 35.7378 28.8139 35.9997C28.2863 36.5317 27.9902 37.2505 27.9902 37.9997C27.9902 38.749 28.2863 39.4678 28.8139 39.9997C29.076 40.2634 29.3876 40.4726 29.7308 40.6154C30.0741 40.7582 30.4422 40.8317 30.8139 40.8317C31.1857 40.8317 31.5537 40.7582 31.8969 40.6154C32.2402 40.4726 32.5518 40.2634 32.8139 39.9997C33.3415 39.4678 33.6375 38.749 33.6375 37.9997C33.6375 37.2505 33.3415 36.5317 32.8139 35.9997C32.5515 35.7373 32.2396 35.5297 31.8962 35.389C31.5529 35.2482 31.185 35.1771 30.8139 35.1798Z" fill="white"/>
</svg>
