<svg width="991" height="625" viewBox="0 0 991 625" fill="none" xmlns="http://www.w3.org/2000/svg">
<path d="M463.146 685.044C493.755 685.46 523.977 691.948 552.06 704.131C612.232 730.218 730.346 767.391 870.217 738.394C1073.59 696.232 1126.28 491.68 1069.23 333.221C1012.18 174.761 870.216 16.5 624 97.5C512.223 139.005 485.372 243.557 448.235 304.744C424.641 343.59 391.599 375.631 352.417 398.695C304.498 426.902 249.103 478.315 266.92 560.492C289.966 666.827 399.47 684.21 463.146 685.044Z" fill="#BBE1EA"/>
<path d="M233.685 442.261C239.029 441.296 245.005 445.452 251.093 453.508C253.866 442.222 258.251 435.211 264.067 434.12C281.724 430.906 306.082 483.046 318.467 550.611C330.852 618.176 326.585 675.575 308.928 678.788C303.594 679.79 297.618 675.633 291.556 667.531C288.757 678.863 284.372 685.874 278.547 686.929C272.722 687.984 267.236 683.774 261.139 675.682C258.376 687.004 253.991 694.015 248.165 695.07C242.34 696.125 236.818 691.924 230.757 683.823C227.958 695.155 223.609 702.155 217.748 703.22C209.96 704.646 200.823 695.228 192.008 678.449C185.851 680.357 179.581 681.881 173.234 683.013C140.674 688.975 106.102 659.84 93.3994 612.435C80.6972 565.03 103.764 514.926 135.616 505.886C142.536 503.88 149.581 502.33 156.704 501.247C158.212 476.528 163.726 460.228 172.886 458.552C178.266 457.577 184.243 461.733 190.294 469.799C193.103 458.503 197.452 451.502 203.304 450.401C209.155 449.3 214.624 453.593 220.676 461.658C223.484 450.362 227.87 443.352 233.685 442.261Z" fill="#6FC7D0"/>
<path d="M561.879 608.477C561.879 608.477 560.721 614.743 560.108 620.965C560.055 621.541 560.119 622.123 560.297 622.674C560.475 623.224 560.762 623.734 561.142 624.171C561.522 624.608 561.986 624.963 562.507 625.216C563.027 625.469 563.594 625.614 564.172 625.642C572.437 626.074 590.148 626.914 596.528 626.687C596.75 626.678 596.967 626.615 597.16 626.505C597.353 626.394 597.517 626.239 597.637 626.052C597.757 625.865 597.831 625.651 597.851 625.43C597.872 625.209 597.838 624.985 597.754 624.779C597.477 624.028 596.914 623.416 596.188 623.077L567.033 609.362L561.879 608.477Z" fill="url(#paint0_linear_1623_3531)"/>
<path d="M561.016 604.777L561.833 612.293C561.833 612.293 566.942 614.723 570.461 612.089L568.418 603.688L561.016 604.777Z" fill="url(#paint1_linear_1623_3531)"/>
<path d="M563.036 462.314C562.627 464.266 560.016 560.245 569.87 603.341C569.947 603.681 569.902 604.037 569.745 604.347C569.587 604.658 569.327 604.904 569.007 605.044C566.322 606.039 563.491 606.584 560.629 606.656C560.075 606.664 559.533 606.491 559.086 606.163C558.639 605.835 558.312 605.37 558.154 604.839C555.316 594.826 541.737 544.691 540.352 496.895C538.808 443.513 540.375 495.078 540.375 495.078L541.896 462.109L563.036 462.314Z" fill="url(#paint2_linear_1623_3531)"/>
<path d="M528.182 611.43C528.182 611.43 526.388 614.586 524.594 622.987C524.515 623.345 524.513 623.716 524.587 624.075C524.661 624.435 524.811 624.774 525.025 625.072C525.239 625.37 525.514 625.619 525.831 625.804C526.148 625.988 526.5 626.104 526.865 626.143C529.589 626.438 533.813 626.824 537.173 626.847C537.54 626.849 537.904 626.774 538.24 626.626C538.576 626.478 538.877 626.261 539.123 625.989C539.369 625.716 539.556 625.395 539.67 625.047C539.783 624.698 539.823 624.328 539.784 623.963C539.444 620.875 538.331 615.812 534.766 611.838L528.182 611.43Z" fill="url(#paint3_linear_1623_3531)"/>
<path d="M526.729 601.757L528.704 613.133C528.704 613.133 530.747 614.677 534.835 613.61L533.949 601.371L526.729 601.757Z" fill="url(#paint4_linear_1623_3531)"/>
<path d="M522.393 464.854C513.515 515.42 523.006 590.055 526.321 604.677C526.418 605.113 526.643 605.509 526.966 605.817C527.29 606.124 527.698 606.328 528.137 606.403C529.681 606.675 532.202 606.902 534.699 606.221C535.119 606.1 535.491 605.851 535.763 605.51C536.036 605.168 536.196 604.75 536.221 604.314C536.788 592.53 536.652 520.12 544.758 491.579C545.162 490.135 546.052 488.876 547.279 488.014L562.56 477.365L563.899 459.949L522.393 464.854Z" fill="url(#paint5_linear_1623_3531)"/>
<path d="M576.774 367.063C551.638 366.427 523.824 373.171 523.824 373.171C515.899 416.835 521.598 467.356 521.598 467.356C541.035 472.646 563.06 464.631 563.06 464.631C566.488 446.375 582.064 395.06 582.064 395.06C594.371 393.652 604.521 390.201 612.899 385.591C606.61 378.166 603.703 368.766 602.454 363.203C593.531 365.882 584.539 367.267 576.774 367.063Z" fill="#66C3CD"/>
<path d="M651.407 330.732C648.978 327.735 645.822 329.12 645.822 329.12C641.984 344.719 622.457 357.208 602.453 363.202C603.702 368.765 606.608 378.165 612.898 385.59C646.162 367.312 651.407 330.732 651.407 330.732Z" fill="url(#paint6_linear_1623_3531)"/>
<path d="M650.795 331.505C651.045 332.322 648.048 333.548 646.322 330.165C646.277 328.553 645.369 321.65 646.345 320.333C651.522 313.408 661.558 304.734 661.558 304.734C663.216 306.415 661.808 308.027 661.808 308.027L656.949 312.999C657.925 314.839 659.151 316.383 659.696 318.585C660.103 320.272 659.852 322.05 658.992 323.558C658.025 325.282 656.972 326.957 655.836 328.576C653.747 331.505 650.795 331.505 650.795 331.505Z" fill="url(#paint7_linear_1623_3531)"/>
<path d="M654.813 316.242L650.386 319.921L648.955 323.599L652.838 328.004C652.838 328.004 654.223 320.647 655.222 319.058C656.221 317.468 655.721 316.696 654.813 316.242Z" fill="url(#paint8_linear_1623_3531)"/>
<path d="M533.223 397.626L523.822 373.172C523.822 373.172 500.163 388.907 496.121 409.115C500.549 409.479 508.609 410.705 516.488 414.769C518.305 405.233 533.223 397.626 533.223 397.626Z" fill="#66C3CD"/>
<path d="M553.545 420.716C553.545 420.716 527.024 435.384 518.237 422.555C516.42 419.899 516.012 417.265 516.489 414.767C508.61 410.703 500.549 409.477 496.121 409.113C494.895 415.198 495.44 421.692 498.959 428.277C514.286 456.955 556.973 427.255 556.973 427.255L553.545 420.716Z" fill="url(#paint9_linear_1623_3531)"/>
<path d="M551.502 346.422L543.282 369.468C543.212 369.654 543.211 369.859 543.277 370.046C543.344 370.233 543.474 370.39 543.646 370.49C545.825 371.716 553.636 375.281 563.173 369.355C563.661 369.048 564.078 368.639 564.395 368.158C564.712 367.676 564.922 367.132 565.012 366.562L567.782 346.558L551.502 346.422Z" fill="url(#paint10_linear_1623_3531)"/>
<path d="M569.122 325.145C569.122 325.145 577.751 341.765 576.547 348.441C575.344 355.116 564.468 354.526 555.022 349.009L548.551 331.094L569.122 325.145Z" fill="url(#paint11_linear_1623_3531)"/>
<path d="M555.521 340.248C555.613 340.211 555.697 340.153 555.765 340.08C555.833 340.006 555.884 339.919 555.914 339.823C555.944 339.728 555.953 339.627 555.94 339.528C555.927 339.428 555.892 339.333 555.838 339.249C555.135 338.182 553.84 335.957 553.432 334.049C553.432 334.049 551.865 333.005 557.473 331.733C563.082 330.462 571.46 328.441 573.254 323.695C575.048 318.95 570.62 307.324 563.377 316.566C563.313 316.65 563.231 316.719 563.137 316.766C563.042 316.814 562.938 316.838 562.832 316.838C562.726 316.838 562.622 316.814 562.527 316.766C562.433 316.719 562.35 316.65 562.287 316.566C561.129 315.022 558.064 311.82 553.75 313.705C549.435 315.589 549.231 318.405 549.276 319.903C549.282 320.005 549.264 320.106 549.225 320.199C549.185 320.292 549.124 320.375 549.048 320.441C548.971 320.507 548.88 320.554 548.781 320.579C548.683 320.604 548.581 320.606 548.482 320.585C546.438 320.176 541.579 319.79 539.24 324.763C537.333 328.872 538.536 331.211 539.626 332.369C539.711 332.451 539.772 332.553 539.804 332.666C539.835 332.779 539.836 332.899 539.806 333.012C539.776 333.126 539.716 333.229 539.633 333.312C539.549 333.394 539.445 333.453 539.331 333.482C537.992 333.89 536.266 335.003 536.402 338.136C536.606 342.451 541.443 342.133 542.805 341.951C542.916 341.932 543.031 341.94 543.138 341.976C543.245 342.012 543.341 342.073 543.418 342.155C544.576 343.472 549.844 349.081 555.589 349.785C555.702 349.798 555.817 349.782 555.922 349.739C556.028 349.697 556.121 349.628 556.194 349.54C556.266 349.452 556.315 349.347 556.336 349.235C556.357 349.123 556.35 349.008 556.315 348.899L553.908 341.633C553.854 341.473 553.861 341.298 553.928 341.143C553.995 340.988 554.118 340.863 554.272 340.793L555.521 340.248Z" fill="url(#paint12_linear_1623_3531)"/>
<path d="M556.519 341.294C556.519 341.294 550.298 336.934 549.799 340.544C549.299 344.154 555.384 345.835 558.427 344.518L556.519 341.294Z" fill="url(#paint13_linear_1623_3531)"/>
<path d="M548.118 443.877L562.559 393.447C562.636 393.164 562.796 392.91 563.018 392.72C563.241 392.529 563.517 392.411 563.808 392.38C566.419 392.085 574.003 391.222 582.768 390.472C593.303 389.587 605.564 388.86 612.876 389.473C613.117 389.492 613.35 389.57 613.554 389.7C613.758 389.831 613.927 390.009 614.046 390.22C614.165 390.431 614.23 390.668 614.236 390.91C614.242 391.152 614.188 391.391 614.079 391.608C609.924 400.032 592.804 434.272 584.221 445.489C584.082 445.671 583.904 445.819 583.699 445.921C583.494 446.024 583.269 446.078 583.04 446.079L549.526 445.762C549.298 445.76 549.074 445.706 548.87 445.603C548.667 445.5 548.49 445.352 548.354 445.169C548.218 444.986 548.125 444.775 548.085 444.551C548.044 444.326 548.055 444.096 548.118 443.877Z" fill="url(#paint14_linear_1623_3531)"/>
<path d="M551.615 431.682C551.615 431.682 549.594 423.417 550.411 420.488C551.229 417.559 552.796 413.767 558.041 414.607C563.286 415.447 569.462 417.65 569.462 417.65C569.462 417.65 569.144 421.487 565.17 420.261L567.623 422.168C567.623 422.168 567.282 425.233 563.922 423.599L566.215 426.119C566.215 426.119 564.762 428.639 562.287 427.027C559.812 425.415 558.631 432.681 551.615 431.682Z" fill="url(#paint15_linear_1623_3531)"/>
<path d="M581.791 405.524C581.787 406.365 582.032 407.188 582.496 407.889C582.959 408.59 583.621 409.138 584.396 409.463C585.172 409.788 586.026 409.875 586.851 409.714C587.677 409.553 588.435 409.15 589.031 408.557C589.627 407.964 590.034 407.208 590.2 406.384C590.365 405.559 590.283 404.704 589.962 403.927C589.641 403.15 589.097 402.486 588.398 402.018C587.7 401.55 586.878 401.301 586.037 401.301C584.915 401.301 583.838 401.745 583.043 402.536C582.247 403.328 581.797 404.402 581.791 405.524Z" fill="#9DD3E1"/>
<path d="M564.194 408.345L563.127 408.004L566.056 398.036C566.288 397.247 566.729 396.534 567.332 395.975C567.936 395.415 568.68 395.029 569.485 394.858C578.794 392.905 603.339 392.519 604.384 392.496V393.631C604.134 393.631 578.908 394.04 569.689 395.947C569.085 396.082 568.528 396.376 568.076 396.799C567.625 397.223 567.296 397.76 567.123 398.354L564.194 408.345Z" fill="url(#paint16_linear_1623_3531)"/>
<path d="M492.99 624.034C483.794 624.034 479.707 623.239 477.891 622.535C478.074 623.302 478.509 623.985 479.126 624.475C479.744 624.965 480.508 625.233 481.297 625.237H513.834C514.078 625.24 514.319 625.185 514.538 625.078C514.757 624.971 514.948 624.814 515.096 624.62C515.244 624.426 515.344 624.2 515.389 623.96C515.434 623.72 515.423 623.474 515.356 623.239C511.654 623.534 503.775 624.034 492.99 624.034Z" fill="#7D97F4"/>
<path d="M515.355 623.236C515.306 623.029 515.213 622.835 515.082 622.668C512.607 619.512 507.635 614.539 500.868 614.63C490.946 614.789 487.472 615.856 479.774 614.698L477.958 620.738C477.777 621.319 477.754 621.938 477.89 622.532C479.706 623.236 483.793 624.03 492.989 624.03C503.775 624.03 511.654 623.531 515.355 623.236Z" fill="url(#paint17_linear_1623_3531)"/>
<path d="M482.001 608.207L479.775 615.791C479.775 615.791 484.725 618.061 489.062 616.245L489.925 609.66L482.001 608.207Z" fill="url(#paint18_linear_1623_3531)"/>
<path d="M549.437 615.763C542.262 621.507 538.606 623.46 536.744 624.028C537.362 624.516 538.128 624.78 538.917 624.776C539.705 624.772 540.468 624.5 541.081 624.005L566.444 603.615C566.633 603.464 566.784 603.271 566.886 603.051C566.988 602.831 567.037 602.591 567.031 602.349C567.024 602.107 566.961 601.87 566.848 601.656C566.734 601.442 566.572 601.258 566.375 601.117C563.673 603.66 557.838 608.996 549.437 615.763Z" fill="#7D97F4"/>
<path d="M566.376 601.115C566.209 600.997 566.026 600.905 565.831 600.842C561.926 599.957 554.933 599.207 549.733 603.521C542.081 609.856 540.06 612.854 533.316 616.782L535.655 622.594C535.886 623.159 536.262 623.653 536.745 624.025C538.607 623.457 542.263 621.505 549.438 615.76C557.839 608.994 563.674 603.658 566.376 601.115Z" fill="url(#paint19_linear_1623_3531)"/>
<path d="M434.248 518.195C434.248 518.195 489.31 522.691 500.595 528.004C511.88 533.318 490.813 610.586 490.813 610.586C490.813 610.586 487.142 612.136 480.307 610.002C480.307 610.002 488.493 552.209 483.27 540.288L423.645 530.525L434.248 518.195Z" fill="url(#paint20_linear_1623_3531)"/>
<path d="M527.844 606.317C528.366 606.794 533.316 616.785 533.316 616.785C533.316 616.785 538.833 615.581 539.969 612.107L534.996 603.07L527.844 606.317Z" fill="url(#paint21_linear_1623_3531)"/>
<path d="M401.076 517.742C399.89 520.96 399.312 524.371 399.374 527.801C399.464 535.725 405.845 542.174 413.769 542.56L478.867 545.534C479.533 545.569 480.171 545.815 480.689 546.235C481.207 546.655 481.579 547.229 481.751 547.873C483.272 553.799 490.742 571.964 527.299 608.203C527.769 608.673 528.384 608.969 529.044 609.044C529.704 609.118 530.37 608.966 530.932 608.612L536.132 605.319C536.394 605.155 536.583 604.895 536.659 604.595C536.736 604.295 536.693 603.977 536.54 603.707L498.644 538.995C496.656 535.703 493.449 533.329 489.721 532.388L434.25 518.196L401.076 517.742Z" fill="url(#paint22_linear_1623_3531)"/>
<path d="M465.22 416.629C465.22 416.629 458.25 428.958 451.143 434.93L465.833 443.127C465.833 443.127 469.148 430.094 476.71 426.256L465.22 416.629Z" fill="url(#paint23_linear_1623_3531)"/>
<path d="M399.896 518.195C399.896 518.195 417.471 522.487 434.251 518.195C434.251 518.195 457.706 486.657 466.788 478.051C466.788 478.051 481.275 500.916 513.517 504.163L515.311 500.144C515.311 500.144 489.653 488.314 481.752 470.127C473.85 451.939 470.671 444.196 463.496 439.451C459 436.499 456.321 434.478 454.936 433.388C454.569 433.09 454.119 432.913 453.648 432.88C453.176 432.848 452.706 432.962 452.302 433.207C444.695 437.861 408.797 462.452 399.896 518.195Z" fill="#00007E"/>
<path d="M511.586 498.033L515.196 497.079L526.231 494.513C527.554 494.214 528.942 494.451 530.091 495.172L539.56 501.121L513.402 501.075L511.586 498.033Z" fill="url(#paint24_linear_1623_3531)"/>
<path d="M476.301 398.148C476.301 398.148 483.067 409.411 484.248 415.632C485.428 421.854 487.313 425.759 480.229 427.984C473.144 430.209 466.56 427.394 462.427 421.581C462.427 421.581 455.979 412.635 456.614 408.548C457.25 404.461 476.301 398.148 476.301 398.148Z" fill="url(#paint25_linear_1623_3531)"/>
<path d="M464.312 416.767L465.22 416.631C465.22 416.631 460.429 409.388 463.563 407.594C466.696 405.8 479.502 401.373 481.727 396.332C483.953 391.291 480.66 386.001 476.8 384.843C476.68 384.813 476.553 384.829 476.444 384.888C476.335 384.947 476.251 385.044 476.21 385.161L475.983 385.774C475.949 385.868 475.887 385.95 475.805 386.009C475.723 386.068 475.626 386.101 475.525 386.103C475.424 386.106 475.325 386.078 475.241 386.023C475.157 385.968 475.091 385.889 475.052 385.796C475.019 385.707 474.96 385.629 474.882 385.574C474.805 385.518 474.712 385.487 474.617 385.485C474.521 385.482 474.428 385.509 474.347 385.56C474.267 385.612 474.204 385.686 474.166 385.774C473.485 387.295 471.419 389.861 465.266 391.859C456.546 394.697 451.097 399.102 451.778 405.301C451.788 405.391 451.774 405.482 451.736 405.564C451.699 405.647 451.64 405.717 451.565 405.769C451.49 405.82 451.403 405.85 451.313 405.856C451.222 405.861 451.132 405.842 451.052 405.8C450.348 405.482 449.258 405.437 448.009 406.799C445.829 409.206 447.532 414.429 453.504 418.13C453.571 418.169 453.628 418.223 453.67 418.288C453.713 418.353 453.739 418.427 453.748 418.504C453.757 418.581 453.748 418.66 453.721 418.732C453.694 418.805 453.651 418.871 453.595 418.924C452.686 419.674 451.438 421.377 455.479 422.898C459.521 424.419 461.86 423.942 462.7 423.602C462.805 423.553 462.891 423.471 462.945 423.368C462.998 423.266 463.016 423.148 462.995 423.034L461.928 417.607C461.908 417.472 461.942 417.335 462.023 417.224C462.104 417.114 462.224 417.039 462.359 417.017L464.312 416.767Z" fill="url(#paint26_linear_1623_3531)"/>
<path d="M464.699 417.881C464.699 417.881 461.702 410.501 458.569 413.09C455.435 415.678 461.452 421.423 464.245 421.332L464.699 417.881Z" fill="url(#paint27_linear_1623_3531)"/>
<path d="M501.482 506.251H501.596L557.475 506.183C558.138 506.183 558.773 505.92 559.241 505.451C559.71 504.983 559.973 504.348 559.973 503.685C559.973 503.023 559.71 502.387 559.241 501.919C558.773 501.451 558.138 501.188 557.475 501.188L501.596 501.256C500.933 501.256 500.298 501.519 499.83 501.987C499.361 502.456 499.098 503.091 499.098 503.753C499.086 504.4 499.33 505.025 499.776 505.493C500.223 505.961 500.836 506.233 501.482 506.251Z" fill="#00007E"/>
<path d="M579.137 451.529L579.069 451.642L555.568 502.345C555.397 502.645 555.291 502.978 555.255 503.321C555.22 503.665 555.256 504.012 555.362 504.341C555.467 504.67 555.64 504.974 555.869 505.233C556.098 505.491 556.378 505.7 556.692 505.845C557.005 505.99 557.346 506.068 557.691 506.075C558.037 506.082 558.38 506.017 558.699 505.884C559.018 505.751 559.306 505.554 559.545 505.304C559.783 505.055 559.968 504.758 560.086 504.434L583.61 453.754C583.882 453.148 583.906 452.459 583.677 451.835C583.448 451.211 582.984 450.702 582.384 450.416C581.803 450.152 581.143 450.119 580.539 450.326C579.935 450.533 579.433 450.963 579.137 451.529Z" fill="#00007E"/>
<path d="M679.19 514.859C679.19 514.859 670.406 516.227 660.53 522.836C659.765 523.341 659.156 524.05 658.774 524.884C658.392 525.719 658.251 526.643 658.368 527.553C659.551 536.943 664.398 567.299 680.442 596.949C681.283 598.519 681.533 600.338 681.147 602.077L678.371 615.068L673.205 619.922H686.517L695.37 595.901L691.592 594.693C690.157 594.25 688.9 593.363 688 592.159C687.101 590.955 686.606 589.496 686.586 587.993L686.131 562.217C686.517 550.754 679.099 542.823 679.099 542.823L700.353 541.797L679.19 514.859Z" fill="url(#paint28_linear_1623_3531)"/>
<path d="M667.743 622.467C666.512 624.073 680.806 626.214 688.011 622.676C688.011 622.676 698.019 604.894 698.019 595.747C698.019 595.747 697.221 593.885 691.362 594.304C691.362 594.304 687.988 615.345 684.454 617.695C680.92 620.046 674.537 617.951 674.537 617.951C674.537 617.951 669.521 620.07 667.743 622.467Z" fill="url(#paint29_linear_1623_3531)"/>
<path d="M697.41 542.919C697.297 542.714 674.591 540.194 674.591 540.194C674.591 540.194 675.317 547.097 673.001 556.61C670.685 566.124 637.33 607.313 637.33 607.313L640.827 618.394C630.019 622.163 619.37 622.753 608.902 620.301L630.587 607.313C630.587 607.313 650.863 538.173 663.283 525.844L686.057 517.965L697.41 542.919Z" fill="url(#paint30_linear_1623_3531)"/>
<path d="M748.364 502.715C748.364 502.715 761.443 522.174 762.51 531.052C763.577 539.93 758.922 543.54 745.208 544.131C731.493 544.721 694.801 544.721 694.801 544.721L663.512 517.973C663.512 517.973 686.309 509.844 692.257 507.551C698.206 505.258 748.364 502.715 748.364 502.715Z" fill="url(#paint31_linear_1623_3531)"/>
<path d="M639.511 614.652C639.511 614.652 643.945 620.529 641.402 624.593C641.402 624.593 610.901 627.663 602.795 625.256C602.795 625.256 604.475 621.419 613.603 617.036L612.922 617.559C612.737 617.701 612.602 617.898 612.538 618.122C612.473 618.346 612.483 618.585 612.564 618.803C612.645 619.022 612.794 619.209 612.99 619.336C613.185 619.463 613.416 619.525 613.648 619.511C619.643 619.171 632.086 618.081 639.511 614.652Z" fill="url(#paint32_linear_1623_3531)"/>
<path d="M691.667 379.235C718.415 374.694 731.016 396.515 730.085 401.101C730.06 401.242 730.071 401.388 730.118 401.523C730.165 401.659 730.245 401.781 730.352 401.876C730.459 401.972 730.589 402.038 730.729 402.07C730.869 402.101 731.015 402.096 731.153 402.055C734.218 401.237 741.007 400.193 745.208 405.461C748.909 410.115 746.139 414.52 743.891 416.927C743.765 417.051 743.682 417.211 743.652 417.385C743.623 417.559 743.649 417.738 743.727 417.896C743.805 418.055 743.93 418.184 744.086 418.267C744.242 418.35 744.42 418.382 744.595 418.358C750.226 417.631 762.51 417.472 764.508 428.961C766.392 439.679 758.922 442.699 754.494 443.561C754.326 443.588 754.171 443.666 754.049 443.785C753.927 443.903 753.846 444.057 753.816 444.225C753.786 444.392 753.809 444.565 753.882 444.719C753.954 444.872 754.073 445 754.222 445.083C756.424 446.49 758.99 449.374 757.946 455.096C756.334 464.042 738.782 463.316 736.738 463.202C736.604 463.188 736.473 463.15 736.352 463.089L708.242 447.058C708.138 446.993 708.047 446.907 707.977 446.805C707.907 446.704 707.858 446.589 707.834 446.468L702.157 413.703C702.137 413.569 702.146 413.432 702.186 413.303C702.225 413.173 702.293 413.054 702.384 412.954L684.06 387.091C677.407 386.115 691.349 379.303 691.667 379.235Z" fill="url(#paint33_linear_1623_3531)"/>
<path d="M712.966 500.122C712.966 500.122 697.73 485.613 690.214 476.008C688.219 473.441 686.866 470.436 686.265 467.241C685.665 464.046 685.836 460.754 686.763 457.639C690.192 446.104 696.277 434.161 696.822 432.299C697.685 429.438 714.782 429.551 714.782 429.551C714.782 429.551 748.41 451.395 761.602 488.36L746.775 492.969C746.775 492.969 737.988 478.233 729.314 468.878C729.314 468.878 744.323 488.701 744.868 496.829L712.966 500.122Z" fill="#66C3CD"/>
<path d="M694.754 416.361C694.936 416.951 699.409 431.733 699.749 432.051C700.09 432.368 709.536 432.868 713.963 429.825L702.951 408.277L694.754 416.361Z" fill="url(#paint34_linear_1623_3531)"/>
<path d="M676.885 397.356C676.885 397.356 674.728 405.826 680.7 417.224C686.672 428.622 693.415 428.6 697.094 424.967C700.772 421.334 705.336 415.112 704.269 404.1C703.202 393.088 679.996 386.594 676.885 397.356Z" fill="url(#paint35_linear_1623_3531)"/>
<path d="M696.003 404.708C696.003 404.708 686.103 389.585 676.839 401.483L676.657 405.82C676.657 405.82 665.804 404.526 667.711 394.558C669.618 384.59 678.996 378.369 691.098 382.683C703.201 386.997 710.126 391.425 710.898 400.098C711.67 408.772 704.79 406.865 704.79 406.865C704.79 406.865 702.542 400.757 699.341 400.121C696.139 399.485 696.957 404.254 696.957 404.254L696.003 404.708Z" fill="url(#paint36_linear_1623_3531)"/>
<path d="M698.548 404.51C698.548 404.51 693.417 396.767 698.662 395.609C703.907 394.451 703.112 403.148 702.544 406.372L698.548 404.51Z" fill="url(#paint37_linear_1623_3531)"/>
<path d="M681.902 501.215L693.119 490.407L708.605 496.946C708.605 496.946 724.022 499.353 732.832 496.946L741.665 494.562L761.6 488.363L764.734 497.219C765.12 498.308 765.141 499.494 764.793 500.596C764.444 501.698 763.746 502.657 762.804 503.327C761.078 504.553 759.057 505.915 757.763 506.46C755.129 507.618 693.028 505.665 693.028 505.665L681.902 501.215Z" fill="url(#paint38_linear_1623_3531)"/>
<path d="M724.295 506.299H724.136L659.174 506.231C658.405 506.225 657.669 505.917 657.125 505.373C656.582 504.829 656.274 504.094 656.268 503.325C656.265 502.94 656.338 502.559 656.485 502.204C656.631 501.848 656.847 501.525 657.12 501.255C657.393 500.984 657.717 500.77 658.074 500.627C658.431 500.483 658.812 500.412 659.197 500.418L724.136 500.486C724.907 500.486 725.646 500.793 726.191 501.338C726.736 501.883 727.042 502.622 727.042 503.393C727.038 504.135 726.752 504.848 726.242 505.388C725.732 505.927 725.036 506.253 724.295 506.299Z" fill="url(#paint39_linear_1623_3531)"/>
<path d="M600.797 447.309H654.883C656.84 447.311 658.756 447.869 660.408 448.918C662.06 449.968 663.38 451.465 664.215 453.235L689.214 506.253H621.982C620.728 506.254 619.503 505.878 618.467 505.173C617.43 504.469 616.629 503.468 616.169 502.303L596.778 453.212C596.519 452.557 596.423 451.849 596.501 451.148C596.578 450.448 596.826 449.777 597.223 449.195C597.619 448.613 598.152 448.136 598.775 447.807C599.398 447.478 600.092 447.307 600.797 447.309Z" fill="url(#paint40_linear_1623_3531)"/>
<path d="M638.898 474.508C640.079 478.141 639.216 481.683 636.968 482.409C634.72 483.136 631.95 480.752 630.792 477.119C629.634 473.486 630.474 469.944 632.722 469.217C634.97 468.491 637.717 470.852 638.898 474.508Z" fill="#9DD3E1"/>
<path d="M798.34 614.191C798.801 616.927 799.119 619.686 799.293 622.456C799.356 623.377 799.057 624.287 798.459 624.991C797.861 625.695 797.011 626.138 796.092 626.225C789.439 626.883 774.294 628.064 764.644 626.679C764.341 626.636 764.056 626.509 763.822 626.312C763.587 626.115 763.413 625.857 763.318 625.566C763.224 625.275 763.213 624.963 763.286 624.666C763.36 624.369 763.516 624.099 763.736 623.886C767.732 620.162 777.359 612.942 793.185 611.375L798.34 614.191Z" fill="url(#paint41_linear_1623_3531)"/>
<path d="M801.654 605.651L798.293 613.893C798.071 614.443 797.676 614.906 797.169 615.213C796.661 615.52 796.068 615.654 795.478 615.596C794.549 615.502 793.629 615.327 792.73 615.074C791.816 614.796 791.049 614.166 790.597 613.323C790.146 612.481 790.048 611.493 790.323 610.578L792.866 602.086L801.654 605.651Z" fill="url(#paint42_linear_1623_3531)"/>
<path d="M859.124 608.484C859.124 608.484 852.38 614.115 849.769 621.336C849.605 621.8 849.555 622.296 849.623 622.783C849.692 623.27 849.876 623.733 850.161 624.134C850.446 624.535 850.823 624.861 851.261 625.086C851.698 625.31 852.184 625.426 852.675 625.423H866.526C867.002 625.423 867.473 625.319 867.905 625.119C868.337 624.919 868.721 624.627 869.03 624.265C869.338 623.902 869.565 623.477 869.693 623.018C869.821 622.56 869.849 622.079 869.773 621.608C868.888 616.613 866.344 608.507 859.124 608.484Z" fill="url(#paint43_linear_1623_3531)"/>
<path d="M867.457 601.147C867.457 601.147 866.095 607.164 865.05 611.137C865.007 611.309 864.928 611.469 864.819 611.608C864.71 611.746 864.572 611.86 864.415 611.942C864.259 612.023 864.087 612.071 863.91 612.081C863.734 612.091 863.558 612.063 863.393 612C861.304 611.251 859.578 610.933 858.352 611.092C858.214 611.108 858.075 611.095 857.943 611.053C857.811 611.011 857.69 610.942 857.587 610.849C857.484 610.757 857.402 610.644 857.346 610.517C857.29 610.391 857.261 610.254 857.262 610.116L857.148 600.125L867.457 601.147Z" fill="url(#paint44_linear_1623_3531)"/>
<path d="M831.648 477.998L790.709 602.904C790.709 602.904 798.565 608.058 802.312 607.831L850.948 507.448C850.948 507.448 859.173 562.63 855.063 607.043H868.306C868.306 607.043 891.91 501.295 874.744 462.422L831.648 477.998Z" fill="url(#paint45_linear_1623_3531)"/>
<path d="M850.676 506.383C850.699 506.383 850.721 506.383 850.721 506.36C850.773 506.358 850.824 506.345 850.871 506.321C850.917 506.297 850.958 506.264 850.99 506.223C851.023 506.182 851.046 506.134 851.058 506.084C851.07 506.033 851.072 505.98 851.062 505.929L849.472 493.304C849.467 493.254 849.451 493.204 849.426 493.16C849.402 493.115 849.368 493.076 849.328 493.044C849.288 493.012 849.242 492.989 849.193 492.975C849.143 492.961 849.092 492.958 849.041 492.964C848.936 492.981 848.843 493.038 848.779 493.122C848.715 493.207 848.687 493.313 848.7 493.418L850.29 506.02C850.296 506.118 850.339 506.211 850.411 506.278C850.482 506.346 850.577 506.383 850.676 506.383Z" fill="#150DCE"/>
<path d="M823.974 368.082C823.974 368.082 857.148 371.034 852.47 394.671C852.47 394.671 870.794 429.184 879.377 469.828C879.439 470.143 879.437 470.467 879.372 470.781C879.307 471.096 879.18 471.394 878.998 471.658C878.816 471.923 878.583 472.148 878.313 472.321C878.043 472.494 877.74 472.611 877.424 472.666L822.18 482.134C821.444 482.249 820.691 482.088 820.067 481.681C819.442 481.275 818.99 480.652 818.797 479.932L805.605 428.934L800.473 452.639L784.125 448.393L797.885 378.686C797.885 378.686 799.792 368.513 823.974 368.082Z" fill="#150DCE"/>
<path d="M805.333 426.639H805.424C805.476 426.625 805.525 426.602 805.568 426.57C805.611 426.537 805.648 426.497 805.675 426.45C805.703 426.404 805.721 426.352 805.728 426.299C805.735 426.246 805.732 426.191 805.719 426.139L801.132 405C801.108 404.891 801.042 404.797 800.948 404.737C800.854 404.678 800.741 404.658 800.633 404.682C800.524 404.706 800.43 404.772 800.37 404.866C800.311 404.959 800.291 405.073 800.315 405.181L804.924 426.321C804.945 426.413 804.997 426.495 805.072 426.553C805.146 426.611 805.238 426.641 805.333 426.639Z" fill="#00007E"/>
<path d="M808.668 489.559C810.405 488.597 812.445 488.337 814.368 488.832L818.205 489.786C818.398 489.832 818.599 489.837 818.794 489.8C818.99 489.763 819.175 489.685 819.338 489.571C819.501 489.458 819.638 489.311 819.74 489.14C819.842 488.97 819.907 488.78 819.931 488.582L823.904 453.184C828.877 455.545 836.052 455.25 838.413 455.091L829.263 496.825H797.225L808.668 489.559Z" fill="url(#paint46_linear_1623_3531)"/>
<path d="M723.545 412.768L724.521 409.543C724.793 408.631 725.267 407.792 725.908 407.089C726.549 406.385 727.34 405.835 728.222 405.479L745.751 398.44C745.751 398.44 746.001 396.192 742.05 394.671C738.099 393.15 739.008 388.699 739.008 388.699C739.008 388.699 744.434 391.174 752.359 395.102C756.877 397.327 759.443 401.278 760.783 404.276L800.473 452.639L795.795 455.841C794.351 456.836 792.713 457.514 790.988 457.83C789.263 458.146 787.49 458.093 785.787 457.675C784.084 457.256 782.489 456.482 781.106 455.403C779.724 454.324 778.586 452.964 777.767 451.413L756.264 410.202C745.479 413.449 734.557 414.062 723.545 412.768Z" fill="url(#paint47_linear_1623_3531)"/>
<path d="M813.232 345.509L823.427 374.073C823.427 374.073 814.39 381.135 807.805 378.75L802.674 362.379C802.674 362.379 806.602 342.375 813.232 345.509Z" fill="url(#paint48_linear_1623_3531)"/>
<path d="M782.785 335.272C782.785 335.703 792.617 363.087 792.617 363.087L808.125 357.138L802.676 329.8C802.676 329.8 782.785 327.892 782.785 335.272Z" fill="url(#paint49_linear_1623_3531)"/>
<path d="M799.951 336.474L803.947 350.62C803.993 350.806 804.016 350.996 804.015 351.188C804.038 352.346 803.743 356.319 799.701 355.774C796.023 355.275 792.662 354.889 790.528 355.888C790.059 356.102 789.689 356.486 789.491 356.961C789.293 357.437 789.282 357.97 789.461 358.454C790.346 360.929 792.481 366.514 795.046 371.055C795.3 371.5 795.711 371.835 796.197 371.994C796.684 372.153 797.212 372.126 797.68 371.918C800.609 370.579 806.672 367.604 810.986 364.085C811.275 363.852 811.495 363.546 811.623 363.198C811.751 362.85 811.782 362.473 811.713 362.109C811.031 358.476 809.011 347.464 808.92 344.308C808.829 341.152 812.167 339.085 813.62 338.223C813.863 338.094 814.074 337.914 814.239 337.694C814.404 337.474 814.518 337.22 814.574 336.951C815.05 335.044 815.436 330.73 809.919 329.776C809.646 329.73 809.385 329.629 809.152 329.479C808.92 329.33 808.72 329.134 808.565 328.905C808.41 328.676 808.303 328.417 808.251 328.145C808.199 327.874 808.202 327.594 808.261 327.324C808.715 325.03 808.579 321.67 804.242 320.444C799.906 319.218 797.067 321.829 795.659 323.872C795.377 324.266 794.967 324.549 794.499 324.673C794.031 324.797 793.534 324.755 793.094 324.554C792.571 324.326 791.958 324.304 791.277 324.871C791.058 325.052 790.803 325.184 790.529 325.259C790.256 325.334 789.969 325.351 789.689 325.308C789.408 325.265 789.14 325.164 788.901 325.01C788.662 324.857 788.458 324.655 788.303 324.417C787.031 322.533 784.693 320.648 780.742 321.92C773.726 324.19 774.066 332.274 776.632 336.679C779.198 341.084 786.668 338.177 790.21 335.271C792.889 333.046 796.976 334.363 798.77 335.135C799.056 335.254 799.31 335.436 799.515 335.669C799.719 335.901 799.868 336.176 799.951 336.474Z" fill="url(#paint50_linear_1623_3531)"/>
<path d="M810.327 349.482C810.327 349.482 806.172 341.626 808.92 339.151C811.667 336.676 816.322 337.107 816.186 343.238C816.027 350.867 810.327 349.482 810.327 349.482Z" fill="url(#paint51_linear_1623_3531)"/>
<path d="M835.212 455.614C836.562 455.621 837.911 455.56 839.254 455.432L839.549 455.387L851.629 399.076C851.642 399.023 851.644 398.969 851.635 398.916C851.626 398.862 851.606 398.812 851.576 398.767C851.546 398.722 851.507 398.684 851.461 398.655C851.416 398.626 851.364 398.607 851.311 398.599C851.26 398.585 851.207 398.583 851.155 398.59C851.103 398.598 851.054 398.616 851.009 398.644C850.964 398.671 850.926 398.708 850.896 398.751C850.866 398.794 850.845 398.843 850.834 398.894L838.868 454.637C837.074 454.796 827.47 455.432 822.406 451.845L832.874 402.913L830.694 398.803C830.641 398.706 830.552 398.632 830.447 398.599C830.341 398.565 830.226 398.573 830.126 398.622C830.078 398.648 830.035 398.683 830.001 398.726C829.966 398.769 829.941 398.819 829.926 398.872C829.911 398.925 829.907 398.98 829.914 399.035C829.921 399.089 829.939 399.142 829.967 399.189L832.011 403.027L821.498 452.185L821.702 452.344C825.358 455.091 831.262 455.614 835.212 455.614Z" fill="#00007E"/>
<path d="M473.076 627.314C472.793 627.32 472.513 627.258 472.259 627.133C471.192 626.633 470.692 625.271 471.146 624.113L515.287 512.127C515.741 510.946 516.99 510.424 518.057 510.923C519.124 511.423 519.624 512.762 519.17 513.943L475.029 625.929C474.879 626.329 474.613 626.674 474.265 626.921C473.917 627.168 473.503 627.305 473.076 627.314Z" fill="#150DCE"/>
<path d="M522.803 627.314C522.379 627.304 521.969 627.166 521.625 626.919C521.28 626.672 521.018 626.327 520.873 625.929L476.732 513.943C476.278 512.762 476.778 511.423 477.845 510.923C478.912 510.424 480.138 510.946 480.615 512.127L524.733 624.113C525.21 625.271 524.71 626.633 523.643 627.133C523.381 627.259 523.093 627.322 522.803 627.314Z" fill="#150DCE"/>
<path d="M772.637 627.314C772.354 627.32 772.074 627.258 771.819 627.133C770.752 626.633 770.253 625.271 770.707 624.113L814.847 512.127C815.301 510.946 816.55 510.424 817.617 510.923C818.685 511.423 819.184 512.762 818.707 513.943L774.59 625.929C774.437 626.327 774.171 626.671 773.823 626.917C773.476 627.164 773.063 627.302 772.637 627.314Z" fill="#150DCE"/>
<path d="M822.363 627.314C821.94 627.304 821.529 627.166 821.185 626.919C820.841 626.672 820.579 626.327 820.433 625.929L776.293 513.943C775.839 512.762 776.338 511.423 777.405 510.923C778.473 510.424 779.699 510.946 780.153 512.127L824.293 624.113C824.77 625.271 824.271 626.633 823.203 627.133C822.941 627.257 822.654 627.319 822.363 627.314Z" fill="#150DCE"/>
<path d="M839.438 508.655C839.642 507.928 839.37 507.156 838.643 506.589C837.798 505.959 836.767 505.631 835.714 505.658H452.664C451.165 505.658 449.78 506.18 448.985 506.997C448.19 507.815 448.077 508.882 448.713 509.768L452.845 515.739C453.799 517.102 455.865 517.964 458.136 517.964H833.08C835.192 517.964 837.008 516.988 837.417 515.603L839.438 508.655Z" fill="#150DCE"/>
<path d="M393.25 551C391.774 553.383 385.913 607.527 385.002 627.522C384.99 627.84 385.037 628.159 385.139 628.457C385.242 628.756 385.398 629.029 385.598 629.26C385.799 629.491 386.039 629.676 386.306 629.803C386.573 629.93 386.86 629.997 387.151 630C387.666 629.997 388.164 629.795 388.557 629.428C388.95 629.062 389.213 628.556 389.299 627.998L400 552.716L393.25 551Z" fill="white"/>
<path d="M442.2 551C443.775 553.383 450.026 607.527 450.998 627.522C451.011 627.84 450.961 628.159 450.851 628.457C450.742 628.756 450.575 629.029 450.362 629.26C450.148 629.491 449.891 629.676 449.607 629.803C449.322 629.93 449.016 629.997 448.706 630C448.156 629.997 447.625 629.795 447.206 629.428C446.787 629.062 446.507 628.556 446.414 627.998L435 552.716L442.2 551Z" fill="white"/>
<path d="M384 545.457V546.025C383.955 550.066 387.452 553.381 391.811 553.472L443.536 554.335C447.85 554.426 451.437 551.315 451.642 547.319V546.819C451.869 542.664 448.327 539.145 443.853 539.077L392.084 538.146C387.679 538.077 384.046 541.347 384 545.457Z" fill="white"/>
<path d="M725.478 559.559H719.574V623.349H725.478V559.559Z" fill="white"/>
<path d="M748.362 625.564H696.684C696.684 625.06 696.783 624.561 696.976 624.095C697.169 623.63 697.451 623.207 697.808 622.85C698.164 622.494 698.587 622.211 699.052 622.019C699.518 621.826 700.017 621.727 700.521 621.727H744.525C745.029 621.727 745.528 621.826 745.994 622.019C746.459 622.211 746.882 622.494 747.239 622.85C747.595 623.207 747.878 623.63 748.07 624.095C748.263 624.561 748.362 625.06 748.362 625.564Z" fill="white"/>
<path d="M749.703 542.922H697.411C693.912 542.922 691.076 545.758 691.076 549.257V555.008C691.076 558.507 693.912 561.343 697.411 561.343H749.703C753.202 561.343 756.038 558.507 756.038 555.008V549.257C756.038 545.758 753.202 542.922 749.703 542.922Z" fill="white"/>
<path d="M766.232 504.21H830.173V497.625H766.232C767.617 497.625 767.617 504.21 766.232 504.21Z" fill="white"/>
<path d="M829.401 504.208C829.602 504.208 829.795 504.13 829.939 503.99C830.083 503.85 830.167 503.66 830.173 503.459V498.373C830.167 498.172 830.083 497.981 829.939 497.842C829.795 497.702 829.602 497.623 829.401 497.624H765.052C764.853 497.624 764.663 497.545 764.522 497.404C764.382 497.264 764.303 497.073 764.303 496.874C764.303 496.676 764.382 496.485 764.522 496.344C764.663 496.204 764.853 496.125 765.052 496.125H833.829C834.563 496.125 835.268 496.417 835.787 496.936C836.307 497.456 836.599 498.16 836.599 498.895V503.096C836.599 503.788 836.324 504.452 835.834 504.942C835.344 505.432 834.68 505.707 833.987 505.707H765.052C764.853 505.707 764.663 505.628 764.522 505.487C764.382 505.347 764.303 505.156 764.303 504.958C764.303 504.759 764.382 504.568 764.522 504.428C764.663 504.287 764.853 504.208 765.052 504.208H829.401Z" fill="#00007E"/>
<path d="M768.162 330.496C768.162 330.496 662.001 330.494 672.136 269.596C682.001 228 751.874 238.923 766.108 270.069C780.341 301.215 717.505 310.577 768.162 330.496Z" fill="white"/>
<path d="M741.574 272.981C741.574 273.153 741.506 273.318 741.384 273.44C741.262 273.562 741.097 273.63 740.925 273.63H712.415C712.243 273.63 712.078 273.562 711.956 273.44C711.834 273.318 711.766 273.153 711.766 272.981C711.766 272.809 711.834 272.644 711.956 272.522C712.078 272.4 712.243 272.332 712.415 272.332H740.925C741.097 272.332 741.262 272.4 741.384 272.522C741.506 272.644 741.574 272.809 741.574 272.981Z" fill="#00007E"/>
<path d="M703.949 273.63H695.484C695.311 273.63 695.146 273.562 695.025 273.44C694.903 273.318 694.835 273.153 694.835 272.981C694.835 272.809 694.903 272.644 695.025 272.522C695.146 272.4 695.311 272.332 695.484 272.332H703.949C704.121 272.332 704.286 272.4 704.408 272.522C704.529 272.644 704.598 272.809 704.598 272.981C704.598 273.153 704.529 273.318 704.408 273.44C704.286 273.562 704.121 273.63 703.949 273.63Z" fill="#00007E"/>
<path d="M742.539 278.751C742.535 278.926 742.464 279.092 742.341 279.216C742.217 279.339 742.05 279.411 741.876 279.414H731.175C731.002 279.41 730.837 279.339 730.716 279.215C730.594 279.091 730.526 278.924 730.526 278.751C730.526 278.579 730.595 278.413 730.716 278.292C730.838 278.17 731.003 278.102 731.175 278.102H741.876C742.049 278.102 742.216 278.169 742.34 278.291C742.464 278.412 742.535 278.577 742.539 278.751Z" fill="#00007E"/>
<path d="M716.121 278.751C716.121 278.924 716.053 279.091 715.932 279.215C715.811 279.339 715.646 279.41 715.472 279.414H696.451C696.276 279.411 696.109 279.339 695.986 279.216C695.862 279.092 695.791 278.926 695.787 278.751C695.791 278.577 695.863 278.412 695.987 278.291C696.111 278.169 696.277 278.102 696.451 278.102H715.472C715.644 278.102 715.809 278.17 715.931 278.292C716.053 278.413 716.121 278.579 716.121 278.751Z" fill="#00007E"/>
<path d="M742.843 285.184H714.391C714.217 285.184 714.051 285.116 713.927 284.995C713.803 284.873 713.731 284.708 713.727 284.535C713.731 284.36 713.802 284.193 713.926 284.07C714.049 283.946 714.216 283.875 714.391 283.871H742.843C743.017 283.875 743.182 283.946 743.303 284.07C743.424 284.195 743.492 284.361 743.492 284.535C743.492 284.707 743.424 284.872 743.302 284.994C743.18 285.115 743.015 285.184 742.843 285.184Z" fill="#00007E"/>
<path d="M707.251 285.184H697.401C697.229 285.184 697.064 285.115 696.942 284.994C696.821 284.872 696.752 284.707 696.752 284.535C696.752 284.361 696.82 284.195 696.941 284.07C697.063 283.946 697.228 283.875 697.401 283.871H707.251C707.425 283.875 707.592 283.946 707.716 284.07C707.839 284.193 707.91 284.36 707.914 284.535C707.91 284.708 707.839 284.873 707.715 284.995C707.591 285.116 707.424 285.184 707.251 285.184Z" fill="#00007E"/>
<defs>
<linearGradient id="paint0_linear_1623_3531" x1="596.31" y1="598.906" x2="488.12" y2="714.545" gradientUnits="userSpaceOnUse">
<stop stop-color="#09005D"/>
<stop offset="1" stop-color="#1A0F91"/>
</linearGradient>
<linearGradient id="paint1_linear_1623_3531" x1="561.448" y1="607.261" x2="570.968" y2="607.345" gradientUnits="userSpaceOnUse">
<stop stop-color="#FEBBBA"/>
<stop offset="1" stop-color="#FF928E"/>
</linearGradient>
<linearGradient id="paint2_linear_1623_3531" x1="605.906" y1="465.975" x2="513.625" y2="588.791" gradientUnits="userSpaceOnUse">
<stop stop-color="#09005D"/>
<stop offset="1" stop-color="#1A0F91"/>
</linearGradient>
<linearGradient id="paint3_linear_1623_3531" x1="572.459" y1="576.589" x2="464.265" y2="692.234" gradientUnits="userSpaceOnUse">
<stop stop-color="#09005D"/>
<stop offset="1" stop-color="#1A0F91"/>
</linearGradient>
<linearGradient id="paint4_linear_1623_3531" x1="527.141" y1="606.471" x2="535.361" y2="606.543" gradientUnits="userSpaceOnUse">
<stop stop-color="#FEBBBA"/>
<stop offset="1" stop-color="#FF928E"/>
</linearGradient>
<linearGradient id="paint5_linear_1623_3531" x1="589.757" y1="453.837" x2="497.478" y2="576.651" gradientUnits="userSpaceOnUse">
<stop stop-color="#09005D"/>
<stop offset="1" stop-color="#1A0F91"/>
</linearGradient>
<linearGradient id="paint6_linear_1623_3531" x1="602.799" y1="355.738" x2="651.435" y2="356.163" gradientUnits="userSpaceOnUse">
<stop stop-color="#FEBBBA"/>
<stop offset="1" stop-color="#FF928E"/>
</linearGradient>
<linearGradient id="paint7_linear_1623_3531" x1="649.154" y1="347.379" x2="654.721" y2="310.431" gradientUnits="userSpaceOnUse">
<stop stop-color="#FEBBBA"/>
<stop offset="1" stop-color="#FF928E"/>
</linearGradient>
<linearGradient id="paint8_linear_1623_3531" x1="651.491" y1="323.275" x2="665.29" y2="302.457" gradientUnits="userSpaceOnUse">
<stop stop-color="#FEBBBA"/>
<stop offset="1" stop-color="#FF928E"/>
</linearGradient>
<linearGradient id="paint9_linear_1623_3531" x1="495.77" y1="423.696" x2="557.319" y2="424.234" gradientUnits="userSpaceOnUse">
<stop stop-color="#FEBBBA"/>
<stop offset="1" stop-color="#FF928E"/>
</linearGradient>
<linearGradient id="paint10_linear_1623_3531" x1="543.608" y1="358.309" x2="567.943" y2="358.522" gradientUnits="userSpaceOnUse">
<stop stop-color="#FEBBBA"/>
<stop offset="1" stop-color="#FF928E"/>
</linearGradient>
<linearGradient id="paint11_linear_1623_3531" x1="574.809" y1="342.903" x2="548.192" y2="326.408" gradientUnits="userSpaceOnUse">
<stop stop-color="#FEBBBA"/>
<stop offset="1" stop-color="#FF928E"/>
</linearGradient>
<linearGradient id="paint12_linear_1623_3531" x1="534.162" y1="309.124" x2="568.503" y2="336.646" gradientUnits="userSpaceOnUse">
<stop stop-color="#09005D"/>
<stop offset="1" stop-color="#1A0F91"/>
</linearGradient>
<linearGradient id="paint13_linear_1623_3531" x1="567.743" y1="348.937" x2="543.794" y2="334.099" gradientUnits="userSpaceOnUse">
<stop stop-color="#FEBBBA"/>
<stop offset="1" stop-color="#FF928E"/>
</linearGradient>
<linearGradient id="paint14_linear_1623_3531" x1="573.479" y1="385.704" x2="607.442" y2="527.222" gradientUnits="userSpaceOnUse">
<stop stop-color="#09005D"/>
<stop offset="1" stop-color="#1A0F91"/>
</linearGradient>
<linearGradient id="paint15_linear_1623_3531" x1="550.207" y1="423.142" x2="569.448" y2="423.142" gradientUnits="userSpaceOnUse">
<stop stop-color="#FEBBBA"/>
<stop offset="1" stop-color="#FF928E"/>
</linearGradient>
<linearGradient id="paint16_linear_1623_3531" x1="563.116" y1="400.414" x2="604.406" y2="400.414" gradientUnits="userSpaceOnUse">
<stop stop-color="#DAE3FE"/>
<stop offset="1" stop-color="#E9EFFD"/>
</linearGradient>
<linearGradient id="paint17_linear_1623_3531" x1="505.353" y1="597.07" x2="503.927" y2="625.482" gradientUnits="userSpaceOnUse">
<stop stop-color="#150DCE"/>
<stop offset="1" stop-color="#4042E2"/>
</linearGradient>
<linearGradient id="paint18_linear_1623_3531" x1="479.771" y1="612.576" x2="489.923" y2="612.576" gradientUnits="userSpaceOnUse">
<stop stop-color="#FEBBBA"/>
<stop offset="1" stop-color="#FF928E"/>
</linearGradient>
<linearGradient id="paint19_linear_1623_3531" x1="557.571" y1="555.589" x2="547.321" y2="626.407" gradientUnits="userSpaceOnUse">
<stop stop-color="#150DCE"/>
<stop offset="1" stop-color="#4042E2"/>
</linearGradient>
<linearGradient id="paint20_linear_1623_3531" x1="595.44" y1="464.879" x2="481.565" y2="549.146" gradientUnits="userSpaceOnUse">
<stop stop-color="#09005D"/>
<stop offset="1" stop-color="#1A0F91"/>
</linearGradient>
<linearGradient id="paint21_linear_1623_3531" x1="527.848" y1="609.928" x2="539.966" y2="609.928" gradientUnits="userSpaceOnUse">
<stop stop-color="#FEBBBA"/>
<stop offset="1" stop-color="#FF928E"/>
</linearGradient>
<linearGradient id="paint22_linear_1623_3531" x1="482.543" y1="551.926" x2="626.792" y2="452.469" gradientUnits="userSpaceOnUse">
<stop stop-color="#09005D"/>
<stop offset="1" stop-color="#1A0F91"/>
</linearGradient>
<linearGradient id="paint23_linear_1623_3531" x1="460.536" y1="439.165" x2="466.51" y2="424.099" gradientUnits="userSpaceOnUse">
<stop stop-color="#FEBBBA"/>
<stop offset="1" stop-color="#FF928E"/>
</linearGradient>
<linearGradient id="paint24_linear_1623_3531" x1="511.577" y1="497.758" x2="539.569" y2="497.758" gradientUnits="userSpaceOnUse">
<stop stop-color="#FEBBBA"/>
<stop offset="1" stop-color="#FF928E"/>
</linearGradient>
<linearGradient id="paint25_linear_1623_3531" x1="478.763" y1="408.6" x2="452.019" y2="435.273" gradientUnits="userSpaceOnUse">
<stop stop-color="#FEBBBA"/>
<stop offset="1" stop-color="#FF928E"/>
</linearGradient>
<linearGradient id="paint26_linear_1623_3531" x1="455.503" y1="393.389" x2="486.998" y2="424.516" gradientUnits="userSpaceOnUse">
<stop stop-color="#09005D"/>
<stop offset="1" stop-color="#1A0F91"/>
</linearGradient>
<linearGradient id="paint27_linear_1623_3531" x1="474.44" y1="404.267" x2="447.696" y2="430.937" gradientUnits="userSpaceOnUse">
<stop stop-color="#FEBBBA"/>
<stop offset="1" stop-color="#FF928E"/>
</linearGradient>
<linearGradient id="paint28_linear_1623_3531" x1="658.323" y1="567.391" x2="700.355" y2="567.391" gradientUnits="userSpaceOnUse">
<stop stop-color="#FEBBBA"/>
<stop offset="1" stop-color="#FF928E"/>
</linearGradient>
<linearGradient id="paint29_linear_1623_3531" x1="689.935" y1="537.556" x2="672.212" y2="625.956" gradientUnits="userSpaceOnUse">
<stop stop-color="#150DCE"/>
<stop offset="1" stop-color="#4042E2"/>
</linearGradient>
<linearGradient id="paint30_linear_1623_3531" x1="608.907" y1="569.875" x2="697.41" y2="569.875" gradientUnits="userSpaceOnUse">
<stop stop-color="#FEBBBA"/>
<stop offset="1" stop-color="#FF928E"/>
</linearGradient>
<linearGradient id="paint31_linear_1623_3531" x1="663.516" y1="523.713" x2="762.667" y2="523.713" gradientUnits="userSpaceOnUse">
<stop stop-color="#09005D"/>
<stop offset="1" stop-color="#1A0F91"/>
</linearGradient>
<linearGradient id="paint32_linear_1623_3531" x1="631.697" y1="593.128" x2="629.656" y2="627.924" gradientUnits="userSpaceOnUse">
<stop stop-color="#150DCE"/>
<stop offset="1" stop-color="#4042E2"/>
</linearGradient>
<linearGradient id="paint33_linear_1623_3531" x1="733.357" y1="358.107" x2="718.757" y2="434.806" gradientUnits="userSpaceOnUse">
<stop stop-color="#09005D"/>
<stop offset="1" stop-color="#1A0F91"/>
</linearGradient>
<linearGradient id="paint34_linear_1623_3531" x1="709.195" y1="454.069" x2="703.221" y2="415.734" gradientUnits="userSpaceOnUse">
<stop stop-color="#FEBBBA"/>
<stop offset="1" stop-color="#FF928E"/>
</linearGradient>
<linearGradient id="paint35_linear_1623_3531" x1="676.305" y1="413.942" x2="721.103" y2="398.855" gradientUnits="userSpaceOnUse">
<stop stop-color="#FEBBBA"/>
<stop offset="1" stop-color="#FF928E"/>
</linearGradient>
<linearGradient id="paint36_linear_1623_3531" x1="666.769" y1="373.951" x2="719.036" y2="431.954" gradientUnits="userSpaceOnUse">
<stop stop-color="#09005D"/>
<stop offset="1" stop-color="#1A0F91"/>
</linearGradient>
<linearGradient id="paint37_linear_1623_3531" x1="674.974" y1="409.99" x2="719.773" y2="394.902" gradientUnits="userSpaceOnUse">
<stop stop-color="#FEBBBA"/>
<stop offset="1" stop-color="#FF928E"/>
</linearGradient>
<linearGradient id="paint38_linear_1623_3531" x1="733.729" y1="497.596" x2="816.867" y2="497.596" gradientUnits="userSpaceOnUse">
<stop stop-color="#FEBBBA"/>
<stop offset="1" stop-color="#FF928E"/>
</linearGradient>
<linearGradient id="paint39_linear_1623_3531" x1="734.96" y1="489.319" x2="683.388" y2="506.201" gradientUnits="userSpaceOnUse">
<stop stop-color="#09005D"/>
<stop offset="1" stop-color="#1A0F91"/>
</linearGradient>
<linearGradient id="paint40_linear_1623_3531" x1="664.474" y1="455.224" x2="627.338" y2="494.471" gradientUnits="userSpaceOnUse">
<stop stop-color="#09005D"/>
<stop offset="1" stop-color="#1A0F91"/>
</linearGradient>
<linearGradient id="paint41_linear_1623_3531" x1="780.708" y1="682.736" x2="780.159" y2="740.861" gradientUnits="userSpaceOnUse">
<stop stop-color="#09005D"/>
<stop offset="1" stop-color="#1A0F91"/>
</linearGradient>
<linearGradient id="paint42_linear_1623_3531" x1="794.717" y1="617.823" x2="797.735" y2="594.246" gradientUnits="userSpaceOnUse">
<stop stop-color="#FEBBBA"/>
<stop offset="1" stop-color="#FF928E"/>
</linearGradient>
<linearGradient id="paint43_linear_1623_3531" x1="859.237" y1="671.21" x2="858.69" y2="729.333" gradientUnits="userSpaceOnUse">
<stop stop-color="#09005D"/>
<stop offset="1" stop-color="#1A0F91"/>
</linearGradient>
<linearGradient id="paint44_linear_1623_3531" x1="860.636" y1="613.635" x2="863.574" y2="590.659" gradientUnits="userSpaceOnUse">
<stop stop-color="#FEBBBA"/>
<stop offset="1" stop-color="#FF928E"/>
</linearGradient>
<linearGradient id="paint45_linear_1623_3531" x1="881.172" y1="538.598" x2="790.714" y2="538.598" gradientUnits="userSpaceOnUse">
<stop stop-color="#09005D"/>
<stop offset="1" stop-color="#00007E"/>
</linearGradient>
<linearGradient id="paint46_linear_1623_3531" x1="865.683" y1="433.252" x2="798.498" y2="504.994" gradientUnits="userSpaceOnUse">
<stop stop-color="#FEBBBA"/>
<stop offset="1" stop-color="#FF928E"/>
</linearGradient>
<linearGradient id="paint47_linear_1623_3531" x1="800.464" y1="423.369" x2="723.545" y2="423.369" gradientUnits="userSpaceOnUse">
<stop stop-color="#FEBBBA"/>
<stop offset="1" stop-color="#FF928E"/>
</linearGradient>
<linearGradient id="paint48_linear_1623_3531" x1="828.155" y1="380.222" x2="801.384" y2="352.757" gradientUnits="userSpaceOnUse">
<stop stop-color="#FEBBBA"/>
<stop offset="1" stop-color="#FF928E"/>
</linearGradient>
<linearGradient id="paint49_linear_1623_3531" x1="789.334" y1="335.456" x2="822.709" y2="379.61" gradientUnits="userSpaceOnUse">
<stop stop-color="#FEBBBA"/>
<stop offset="1" stop-color="#FF928E"/>
</linearGradient>
<linearGradient id="paint50_linear_1623_3531" x1="814.823" y1="346.106" x2="774.956" y2="346.106" gradientUnits="userSpaceOnUse">
<stop stop-color="#09005D"/>
<stop offset="1" stop-color="#1A0F91"/>
</linearGradient>
<linearGradient id="paint51_linear_1623_3531" x1="838.215" y1="370.419" x2="811.447" y2="342.954" gradientUnits="userSpaceOnUse">
<stop stop-color="#FEBBBA"/>
<stop offset="1" stop-color="#FF928E"/>
</linearGradient>
</defs>
</svg>
