<svg width="102" height="100" viewBox="0 0 102 100" fill="none" xmlns="http://www.w3.org/2000/svg">
<path d="M62.9749 98.323V81.3398H39.0645V98.3131" fill="#70ADFF"/>
<path d="M62.9749 98.323V81.3398H39.0645V98.3131" stroke="#0F0996" stroke-width="1.92" stroke-linecap="round" stroke-linejoin="round"/>
<path d="M56.7077 86.8875H3.93878C3.55248 86.8889 3.16992 86.8138 2.81277 86.6665C2.45562 86.5193 2.13074 86.3029 1.85758 86.0297C1.58443 85.7566 1.36834 85.4321 1.22112 85.0749C1.0739 84.7178 0.998696 84.335 1.00002 83.9487V72.9531H100.96V83.9487C100.96 84.3398 100.882 84.7269 100.731 85.0874C100.579 85.4479 100.357 85.7746 100.078 86.0483C99.7987 86.322 99.4678 86.5372 99.1043 86.6813C98.7408 86.8254 98.3521 86.8955 97.9612 86.8875H56.6179H56.7077Z" fill="#70ADFF" stroke="#0F0996" stroke-width="1.92" stroke-linecap="round" stroke-linejoin="round"/>
<path d="M100.999 77.6328H1.03906V23.6044C1.03906 22.5148 1.47173 21.4699 2.24219 20.6994C3.01266 19.9289 4.05768 19.4961 5.14728 19.4961H96.7805C97.3209 19.4948 97.8565 19.6001 98.3561 19.8059C98.8557 20.0118 99.3094 20.3142 99.6919 20.6959C100.075 21.0775 100.378 21.5308 100.585 22.0299C100.792 22.529 100.899 23.0641 100.899 23.6044L100.999 77.6328Z" fill="white" stroke="#0F0996" stroke-width="1.92" stroke-linecap="round" stroke-linejoin="round"/>
<path d="M30.6191 98.3242H71.4228" stroke="#0F0996" stroke-width="1.92" stroke-linecap="round" stroke-linejoin="round"/>
<path d="M86.105 15.5664H15.0234V77.4216H86.105V15.5664Z" fill="white" stroke="#0F0996" stroke-width="1.92" stroke-linecap="round" stroke-linejoin="round"/>
<path d="M83.7459 1.94141H17.3628C16.7415 1.9414 16.1455 2.18754 15.7053 2.62592C15.265 3.06429 15.0163 3.65922 15.0137 4.2805V15.6059H86.0951V4.33046C86.1004 4.01863 86.0438 3.70887 85.9282 3.41924C85.8125 3.12961 85.6402 2.8659 85.4215 2.64352C85.2029 2.42113 84.9419 2.24452 84.6543 2.12398C84.3666 2.00344 84.0578 1.94136 83.7459 1.94141Z" fill="#66C3CD" stroke="#0F0996" stroke-width="1.92" stroke-linecap="round" stroke-linejoin="round"/>
<path d="M57.209 65.8439V70.4321H43.8042V65.8439C43.7989 63.7504 43.2417 61.6954 42.1887 59.886C41.1357 58.0766 39.6242 56.5769 37.8066 55.5381L50.4817 33.5469L63.1466 55.5381C61.329 56.5769 59.8175 58.0766 58.7646 59.886C57.7116 61.6954 57.1543 63.7504 57.149 65.8439" fill="white"/>
<path d="M57.209 65.8439V70.4321H43.8042V65.8439C43.7989 63.7504 43.2417 61.6954 42.1887 59.886C41.1357 58.0766 39.6242 56.5769 37.8066 55.5381L50.4817 33.5469L63.1466 55.5381C61.329 56.5769 59.8175 58.0766 58.7646 59.886C57.7116 61.6954 57.1543 63.7504 57.149 65.8439" stroke="#0F0996" stroke-width="1.92" stroke-linecap="round" stroke-linejoin="round"/>
<path d="M50.5117 53.3307V33.5586" stroke="#0F0996" stroke-width="1.92" stroke-linecap="round" stroke-linejoin="round"/>
<path d="M32.2383 24.6016H68.7637" stroke="#0F0996" stroke-width="1.92" stroke-linecap="round" stroke-linejoin="round"/>
<path d="M28.7676 46.3229C28.7676 43.4695 29.33 40.6442 30.4222 38.0082C31.5144 35.3722 33.1151 32.9772 35.1332 30.96C37.1513 28.9429 39.5471 27.3431 42.1836 26.2521C44.8201 25.1611 47.6458 24.6003 50.4991 24.6016C56.26 24.6016 61.7847 26.89 65.8582 30.9636C69.9317 35.0371 72.2204 40.562 72.2204 46.3229" stroke="#0F0996" stroke-width="1.92" stroke-linecap="round" stroke-linejoin="round"/>
<path d="M54.1077 20.9922H46.8906V28.2093H54.1077V20.9922Z" fill="#66C3CD" stroke="#0F0996" stroke-width="1.92" stroke-linecap="round" stroke-linejoin="round"/>
<path d="M32.0576 43.0469H25.4902V49.6142H32.0576V43.0469Z" fill="#66C3CD" stroke="#0F0996" stroke-width="1.92" stroke-linecap="round" stroke-linejoin="round"/>
<path d="M75.5107 43.0469H68.9434V49.6142H75.5107V43.0469Z" fill="#66C3CD" stroke="#0F0996" stroke-width="1.92" stroke-linecap="round" stroke-linejoin="round"/>
</svg>
