<svg width="101" height="87" viewBox="0 0 101 87" fill="none" xmlns="http://www.w3.org/2000/svg">
<path d="M99.0584 78.6819V8.14846C99.0584 6.25257 98.3052 4.43433 96.9646 3.09374C95.624 1.75314 93.8058 1 91.9099 1H8.14826C6.25237 1 4.43415 1.75314 3.09356 3.09374C1.75296 4.43433 1 6.25257 1 8.14846V78.5642C1 80.4601 1.75296 82.2784 3.09356 83.6189C4.43415 84.9595 6.25237 85.7127 8.14826 85.7127H92.0177C93.8833 85.7127 95.6726 84.9723 96.9927 83.654C98.3127 82.3358 99.0558 80.5475 99.0584 78.6819Z" fill="white" stroke="#0F0996" stroke-width="1.98" stroke-linecap="round" stroke-linejoin="round"/>
<path d="M1 15.9049H99.0584V8.14846C99.0584 6.25257 98.3052 4.43433 96.9646 3.09374C95.624 1.75314 93.8058 1 91.9099 1H8.14826C6.25237 1 4.43415 1.75314 3.09356 3.09374C1.75296 4.43433 1 6.25257 1 8.14846V15.9049Z" fill="#70ADFF" stroke="#0F0996" stroke-width="1.98" stroke-linecap="round" stroke-linejoin="round"/>
<path d="M8.16797 8.46094H14.581" stroke="#0F0996" stroke-width="1.98" stroke-linecap="round" stroke-linejoin="round"/>
<path d="M82.8197 51.4219H56.2263C55.4735 51.4219 54.8633 52.0321 54.8633 52.7849V69.4058C54.8633 70.1586 55.4735 70.7688 56.2263 70.7688H82.8197C83.5725 70.7688 84.1828 70.1586 84.1828 69.4058V52.7849C84.1828 52.0321 83.5725 51.4219 82.8197 51.4219Z" fill="#66C3CD" stroke="#0F0996" stroke-width="1.98" stroke-linecap="round" stroke-linejoin="round"/>
<path d="M82.8197 32.0742H56.2263C55.4735 32.0742 54.8633 32.6845 54.8633 33.4372V50.0581C54.8633 50.8109 55.4735 51.4211 56.2263 51.4211H82.8197C83.5725 51.4211 84.1828 50.8109 84.1828 50.0581V33.4372C84.1828 32.6845 83.5725 32.0742 82.8197 32.0742Z" fill="#66C3CD" stroke="#0F0996" stroke-width="1.98" stroke-linecap="round" stroke-linejoin="round"/>
<path d="M60.5993 26.8984H63.4234C63.7764 26.9086 64.1116 27.0553 64.3586 27.3077C64.6055 27.5602 64.7448 27.8985 64.7472 28.2516V32.0759H59.2363V28.2516C59.2389 27.8919 59.3837 27.5477 59.639 27.2942C59.8943 27.0407 60.2395 26.8984 60.5993 26.8984Z" fill="white" stroke="#0F0996" stroke-width="1.98" stroke-linecap="round" stroke-linejoin="round"/>
<path d="M75.6228 26.8984H78.4763C78.8378 26.8984 79.1845 27.042 79.4401 27.2977C79.6957 27.5533 79.8393 27.9 79.8393 28.2614V32.0857H74.2598V28.2614C74.2598 28.0825 74.295 27.9052 74.3635 27.7398C74.432 27.5745 74.5324 27.4242 74.659 27.2977C74.7856 27.1711 74.9358 27.0707 75.1012 27.0022C75.2665 26.9337 75.4438 26.8984 75.6228 26.8984Z" fill="white" stroke="#0F0996" stroke-width="1.98" stroke-linecap="round" stroke-linejoin="round"/>
<path d="M43.8315 51.4219H17.238C16.4852 51.4219 15.875 52.0321 15.875 52.7849V69.4058C15.875 70.1586 16.4852 70.7688 17.238 70.7688H43.8315C44.5842 70.7688 45.1945 70.1586 45.1945 69.4058V52.7849C45.1945 52.0321 44.5842 51.4219 43.8315 51.4219Z" fill="#66C3CD" stroke="#0F0996" stroke-width="1.98" stroke-linecap="round" stroke-linejoin="round"/>
<path d="M21.6013 46.2422H24.4253C24.7868 46.2422 25.1335 46.3858 25.3891 46.6414C25.6447 46.897 25.7883 47.2437 25.7883 47.6052V51.4295H20.248V47.6052C20.248 47.2454 20.3903 46.9002 20.6438 46.6449C20.8973 46.3895 21.2415 46.2448 21.6013 46.2422Z" fill="white" stroke="#0F0996" stroke-width="1.98" stroke-linecap="round" stroke-linejoin="round"/>
<path d="M36.6345 46.2422H39.4586C39.6376 46.2422 39.8148 46.2774 39.9802 46.3459C40.1455 46.4144 40.2958 46.5148 40.4224 46.6414C40.5489 46.768 40.6493 46.9182 40.7178 47.0836C40.7863 47.249 40.8216 47.4262 40.8216 47.6052V51.4295H35.2715V47.6052C35.2715 47.2437 35.4151 46.897 35.6707 46.6414C35.9263 46.3858 36.273 46.2422 36.6345 46.2422Z" fill="white" stroke="#0F0996" stroke-width="1.98" stroke-linecap="round" stroke-linejoin="round"/>
</svg>
