<svg width="251" height="250" viewBox="0 0 251 250" fill="none" xmlns="http://www.w3.org/2000/svg">
<mask id="mask0_1708_12407" style="mask-type:alpha" maskUnits="userSpaceOnUse" x="0" y="0" width="251" height="250">
<rect x="0.5" width="250" height="250" fill="#C4C4C4"/>
</mask>
<g mask="url(#mask0_1708_12407)">
<path d="M208.817 0.0370349H175.52C200.658 18.9343 216.918 49.011 216.918 82.8785C216.918 140.08 170.547 186.45 113.346 186.45C56.1453 186.45 9.77441 140.08 9.77441 82.8785C9.77441 49.011 26.0336 18.9343 51.1731 0.0370349H-4.5V125L-4.07523 137.122C-3.9921 137.229 -3.90826 137.336 -3.82442 137.44C7.70297 151.805 19.44 166.539 25.859 184.203C33.9505 206.469 32.8208 231.118 31.0728 255.037H197.067C197.951 230.24 212.306 206.509 232.078 191.059C235.461 188.416 239.247 185.61 240.229 181.431C241.868 174.462 235.074 168.716 231.819 162.338C228.055 154.964 229.065 146.16 230.238 137.965C232.06 125.234 234.069 112.461 238.069 100.239C240.984 91.3354 245.014 82.6892 250.5 75.1321C250.5 75.1321 254 57.5 254 50C254 42.5 255 11.9987 252.5 0.0371808C243.5 -1.5052 226.5 0.0366841 208.817 0.0370349Z" fill="#66C3CD"/>
<path d="M9.77344 82.8805C9.77344 140.082 56.1443 186.452 113.345 186.452C170.546 186.452 216.917 140.082 216.917 82.8805C216.917 49.013 200.657 18.9363 175.519 0.0390625H51.1722C26.0327 18.9363 9.77344 49.013 9.77344 82.8805Z" fill="#150DCE"/>
<path d="M128.863 46.7373C134.504 47.5041 140.21 47.6789 145.888 47.2587C148.698 47.0479 151.496 46.6918 154.269 46.1918C155.695 45.9351 157.105 45.5661 158.539 45.3415C159.973 45.1169 161.263 45.2051 162.481 45.9191C164.412 47.0581 165.574 49.1678 166.623 51.0769C167.945 53.4994 169.267 55.9299 170.453 58.4246C171.639 60.9193 172.68 63.43 173.441 66.061C174.243 68.8445 174.667 71.7002 174.819 74.5879C174.972 77.4757 174.892 80.4195 174.835 83.3394C174.779 86.2592 174.787 89.179 174.86 92.0989C175.004 98.0348 175.316 103.971 175.164 109.915C174.908 120.086 173.137 130.738 167.128 139.201C161.928 146.517 153.604 151.201 144.759 152.348C140.424 152.91 135.969 152.629 131.771 151.394C127.012 149.998 122.678 147.431 118.792 144.399C114.906 141.367 111.413 137.862 108.024 134.3C106.205 132.391 104.162 130.498 102.84 128.188C101.518 125.877 101.093 122.982 100.709 120.302C99.0824 108.808 99.9156 97.0962 98.0889 85.6175C97.1915 79.9543 95.3328 74.2831 95.8936 68.4916C96.174 65.6359 97.0794 62.8765 98.2011 60.2455C99.1625 57.9994 100.204 55.7374 101.502 53.6678C102.8 51.5983 104.362 49.8255 106.525 48.8148C108.456 47.9084 110.628 47.7881 112.727 47.9405C116.781 48.2293 121.003 49.6811 125.057 48.7025C126.531 48.3496 127.717 47.5554 128.951 46.7292C129.079 46.641 128.959 46.4324 128.831 46.5207C128.31 46.8656 127.805 47.2426 127.26 47.5635C126.354 48.0921 125.357 48.4458 124.32 48.6063C122.189 48.9672 119.994 48.6785 117.878 48.3736C113.832 47.7801 109.298 46.8014 105.564 49.0555C103.673 50.1945 102.263 51.9593 101.125 53.8202C99.8035 55.986 98.7218 58.3444 97.7524 60.6947C96.7108 63.2214 95.9016 65.8605 95.6452 68.5878C95.3728 71.4916 95.7254 74.4114 96.2461 77.2671C96.7669 80.1227 97.4399 82.9944 97.8886 85.8822C98.3373 88.7699 98.6417 91.8823 98.842 94.8983C99.2346 100.794 99.2987 106.706 99.6993 112.602C99.8916 115.538 100.18 118.474 100.629 121.385C101.037 124.016 101.55 126.68 103.024 128.942C104.498 131.204 106.381 132.928 108.16 134.789C109.939 136.65 111.717 138.463 113.576 140.22C117.213 143.637 121.155 146.805 125.594 149.124C129.656 151.249 134.071 152.549 138.653 152.814C147.33 153.311 156.216 150.287 162.721 144.495C170.157 137.87 173.578 128.003 174.803 118.353C175.533 112.57 175.508 106.722 175.356 100.906C175.196 94.8743 174.964 88.8582 175.084 82.818C175.212 77.0264 175.252 71.2349 173.562 65.6359C171.975 60.3497 169.315 55.4646 166.663 50.6517C165.646 48.8068 164.468 46.8094 162.601 45.7105C160.31 44.3629 157.714 45.2854 155.302 45.7506C149.467 46.8894 143.523 47.379 137.58 47.2105C134.685 47.1318 131.796 46.8961 128.927 46.5046C128.775 46.4886 128.711 46.7212 128.863 46.7373Z" fill="#1B1B29"/>
<path d="M228.123 188.273C234.244 191.417 238.186 197.57 241.342 203.69C253.08 226.479 257.735 252.862 254.498 278.298C253.44 274.929 248.665 286.873 127.076 290.956C104.874 291.694 63.3325 282.092 41.1393 283.103C42.4212 279.574 -16.9154 279.63 -7.86987 263.771L2.64984 222.613C7.74545 217.343 11.2547 209.097 14.8601 200.955C18.4655 192.813 24.883 185.457 33.3998 182.874C35.1864 182.329 37.0773 181.984 38.6796 181.021C41.3637 179.401 42.8779 176.273 45.61 174.741C49.8964 172.334 55.4887 174.676 60.0876 172.952C62.2508 172.142 64.1096 170.457 66.4091 170.24C67.9153 170.096 69.4055 170.618 70.9198 170.69C74.7335 170.866 78.1145 168.227 81.8882 167.69C83.4185 167.473 84.9728 167.609 86.5191 167.569C93.0729 167.417 98.9715 171.094 102.721 165.719C102.721 165.719 105.222 163.905 111.888 163.423C118.554 162.942 151.512 152.112 177.535 166.326C191.035 173.698 201.651 175.31 209.703 178.278C216.85 180.909 222.506 185.385 228.123 188.273Z" fill="#1B1B29"/>
<path d="M111.124 163.433C110.651 165.795 104.248 162.669 101.957 168.78C100.49 172.534 105.202 177.707 105.202 177.707C105.202 177.707 106.46 179.961 108.752 181.229C117.172 185.889 127.379 186.868 137.202 187.518C143.668 187.943 160.805 189.972 166.79 187.71C176.124 184.181 186.267 175.477 177.534 166.333C173.448 163.028 172.343 163.533 170.556 161.937C168.489 160.084 168.352 155.207 168 152.504C167.711 150.242 167.877 149.528 167.584 147.266C165.685 149.191 164.387 151.525 162.872 153.715C159.868 158.055 155.846 161.905 150.863 164.271C145.879 166.638 139.878 167.424 134.55 165.795C132.235 165.089 130.112 163.958 127.996 162.843C122.717 160.036 117.693 157.204 112.413 154.397C112.413 154.397 111.596 161.07 111.124 163.433Z" fill="#F59F90"/>
<path d="M115.708 165.722C113.263 160.833 112.652 156.046 112.652 154.264C119.527 158.848 127.93 156.556 138.625 159.611C149.319 162.667 167.237 145.388 168 151.499C168.764 157.61 168.416 159.611 169.18 161.139C169.944 162.667 167.653 170.306 162.305 177.181C156.958 184.056 140.152 180.236 136.333 178.708C132.514 177.181 118.763 171.833 115.708 165.722Z" fill="#A63344"/>
<path d="M128.896 46.6267C138.23 47.8969 147.714 47.5305 156.922 45.5438C158.236 45.263 159.582 44.9421 160.896 45.1908C163.628 45.7122 165.302 48.4074 166.632 50.846C169.829 56.6936 173.074 62.6536 174.324 69.1992C175.357 74.6538 174.973 80.2608 174.917 85.8117C174.829 95.3092 175.75 104.831 175.077 114.312C174.404 123.794 171.984 133.475 166.015 140.871C157.747 151.107 142.853 155.382 130.426 151.091C120.684 147.73 113.201 139.981 106.134 132.481C104.804 131.069 103.466 129.633 102.561 127.917C101.655 126.2 101.207 124.138 100.878 122.157C98.8031 109.636 99.9809 96.729 97.7375 84.2395C96.7841 78.9132 95.2057 73.5629 95.8066 68.1885C96.2393 64.3221 97.7856 60.6803 99.4761 57.1749C101.167 53.6695 103.154 50.1882 106.607 48.6481C113.265 45.6801 122.014 51.5358 127.927 47.2764L128.896 46.6267Z" fill="#F59F90"/>
<path d="M127.72 103.751C128.144 102.785 122.866 97.4947 117.234 97.8592C111.602 98.2236 108.287 101.779 108.379 102.715C108.563 104.585 110.878 107.159 118.189 106.583C122.355 105.948 127.351 104.591 127.72 103.751Z" fill="url(#paint0_linear_1708_12407)"/>
<path d="M122.239 101.878C122.153 99.4071 120.095 97.4714 117.642 97.555C115.19 97.6387 113.272 99.71 113.359 102.181C113.445 104.653 115.504 106.588 117.956 106.505C120.408 106.421 122.326 104.35 122.239 101.878Z" fill="url(#paint1_linear_1708_12407)"/>
<path d="M120.188 105.928C122.113 104.651 122.643 102.042 121.373 100.101C120.103 98.1593 117.513 97.621 115.588 98.8983C113.664 100.176 113.133 102.785 114.404 104.726C115.674 106.667 118.264 107.206 120.188 105.928Z" fill="url(#paint2_linear_1708_12407)"/>
<path style="mix-blend-mode:multiply" d="M120.659 102.071C120.551 102.541 120.297 102.957 119.929 103.265C119.561 103.574 119.096 103.762 118.593 103.805C118.089 103.849 117.57 103.746 117.101 103.509C116.631 103.272 116.233 102.913 115.956 102.476C115.679 102.039 115.536 101.544 115.545 101.055C115.554 100.565 115.714 100.102 116.005 99.7242C116.297 99.3466 116.707 99.0713 117.183 98.9332C117.659 98.795 118.18 98.8003 118.68 98.9482C119.35 99.1465 119.935 99.5868 120.306 100.172C120.677 100.758 120.804 101.441 120.659 102.071Z" fill="url(#paint3_linear_1708_12407)"/>
<path d="M119.3 99.7595C119.594 99.9818 118.549 100.683 117.657 100.602C116.859 100.531 116.368 99.9381 116.41 99.7587C116.451 99.5793 118.136 98.8903 119.3 99.7595Z" fill="white"/>
<path d="M119.966 99.7532C120.233 99.4 120.634 99.4665 120.7 99.7369C120.766 100.007 120.458 100.572 120.264 100.556C120.07 100.541 119.818 99.9506 119.966 99.7532Z" fill="white"/>
<path d="M128.857 104.176C128.857 104.176 130.488 96.1337 116.666 96.7944C110.294 97.1 108.787 101.882 108.787 101.882C108.787 101.882 110.888 98.4022 117.235 97.8487C121.214 97.5013 125.768 100.637 127.067 102.705C128.112 103.687 128.857 104.176 128.857 104.176Z" fill="#A63344"/>
<path d="M108.379 102.711L108.644 105.055C108.644 105.055 110.319 107.878 117.016 107.299C118.957 107.131 126.294 105.095 127.834 104.671C128.014 104.621 128.413 103.875 128.413 103.875C128.413 103.875 111.786 110.481 108.379 102.711Z" fill="#DD6B7C"/>
<path d="M127.067 102.708C127.067 102.708 123.364 97.5896 117.111 98.143C110.859 98.6963 108.644 105.056 108.644 105.056L105.609 102.061C105.609 102.061 106.501 101.333 107.626 100.221C109.128 98.7391 110.508 97.873 115.162 97.2263C120.192 96.5287 125.065 99.0633 127.067 102.708Z" fill="#672F0F"/>
<path d="M127.069 102.712C127.069 102.712 126.755 104.611 125.666 105.088C125.666 105.088 128.548 105.302 128.859 104.184C129.014 103.626 127.069 102.712 127.069 102.712Z" fill="#DD6B7C"/>
<g style="mix-blend-mode:multiply" opacity="0.6">
<path d="M127.071 102.713C127.071 102.713 118.508 97.1712 109.081 103.917L108.379 102.717C108.379 102.717 109.595 99.097 116.06 97.9785C122.524 96.86 126.418 101.678 127.071 102.713Z" fill="#D177B8"/>
</g>
<path d="M147.466 102.631C146.95 101.712 151.688 95.9329 157.329 95.7481C162.97 95.5632 166.615 98.78 166.614 99.7198C166.613 101.599 164.559 104.386 157.227 104.524C153.019 104.296 147.914 103.432 147.466 102.631Z" fill="url(#paint4_linear_1708_12407)"/>
<path d="M152.738 100.241C152.584 97.7733 154.444 95.6467 156.893 95.4915C159.342 95.3364 161.452 97.2114 161.606 99.6795C161.76 102.148 159.9 104.274 157.451 104.429C155.002 104.585 152.892 102.71 152.738 100.241Z" fill="url(#paint5_linear_1708_12407)"/>
<path d="M155.174 104.067C153.134 102.983 152.353 100.438 153.428 98.3821C154.504 96.3265 157.029 95.5389 159.069 96.623C161.108 97.7071 161.89 100.252 160.814 102.308C159.739 104.364 157.213 105.151 155.174 104.067Z" fill="url(#paint6_linear_1708_12407)"/>
<path style="mix-blend-mode:multiply" d="M154.329 100.28C154.482 100.737 154.776 101.126 155.172 101.398C155.568 101.669 156.049 101.811 156.554 101.805C157.06 101.799 157.566 101.646 158.01 101.365C158.454 101.084 158.816 100.688 159.049 100.226C159.282 99.764 159.377 99.2578 159.32 98.7712C159.264 98.2845 159.059 97.8393 158.732 97.4918C158.406 97.1443 157.971 96.9102 157.484 96.819C156.997 96.7278 156.479 96.7836 155.995 96.9795C155.348 97.242 154.808 97.7371 154.496 98.356C154.183 98.9749 154.123 99.6668 154.329 100.28Z" fill="url(#paint7_linear_1708_12407)"/>
<path d="M155.46 97.8508C155.189 98.1006 156.296 98.6967 157.176 98.5297C157.964 98.3812 158.395 97.7436 158.336 97.5691C158.277 97.3946 156.533 96.8726 155.46 97.8508Z" fill="white"/>
<path d="M154.796 97.9123C154.497 97.5868 154.103 97.692 154.064 97.9675C154.025 98.2431 154.386 98.775 154.578 98.7406C154.77 98.7062 154.963 98.0944 154.796 97.9123Z" fill="white"/>
<path d="M146.378 103.174C146.378 103.174 143.973 95.3288 157.793 94.6426C164.165 94.3273 166.129 98.9397 166.129 98.9397C166.129 98.9397 163.7 95.6811 157.329 95.7472C153.335 95.7884 149.108 99.3522 148.016 101.536C147.072 102.615 146.378 103.174 146.378 103.174Z" fill="#A63344"/>
<path d="M166.615 99.7188L166.579 102.078C166.579 102.078 165.187 105.05 158.465 105.124C156.517 105.146 149.017 103.833 147.443 103.561C147.259 103.529 146.789 102.825 146.789 102.825C146.789 102.825 163.979 107.783 166.615 99.7188Z" fill="#DD6B7C"/>
<path d="M148.015 101.531C148.015 101.531 151.204 96.0767 157.48 96.0195C163.757 95.9624 166.579 102.076 166.579 102.076L168.002 98.375C168.002 98.375 168.35 98.1628 167.122 97.166C165.484 95.8367 164.026 95.1089 159.331 94.9177C154.258 94.7124 149.653 97.7088 148.015 101.531Z" fill="#672F0F"/>
<path d="M148.014 101.534C148.014 101.534 148.512 103.394 149.641 103.762C149.641 103.762 146.794 104.256 146.377 103.174C146.168 102.633 148.014 101.534 148.014 101.534Z" fill="#DD6B7C"/>
<g style="mix-blend-mode:multiply" opacity="0.6">
<path d="M148.012 101.543C148.012 101.543 155.995 95.1947 166.033 100.992L166.616 99.7294C166.616 99.7294 165.053 96.2449 158.511 95.7601C151.968 95.2754 148.561 100.45 148.012 101.543Z" fill="#D177B8"/>
</g>
<path d="M174.883 90.2688C174.819 91.3517 174.982 91.7363 176.055 91.624C177.129 91.5117 179.146 91.2073 180.091 90.6859C181.037 90.1645 181.886 89.8597 182.863 89.8517C183.841 89.8437 184.85 90.2688 185.379 91.087C186.084 92.1779 185.78 93.6218 185.403 94.8651C183.527 100.992 177.583 109.208 176.055 115.305C175.911 114.591 174.46 111.702 173.763 111.485C173.595 111.437 174.915 109.769 174.787 109.641C174.659 109.512 174.659 109.36 174.643 109.208C174.491 107.258 174.811 105.293 174.707 103.344C174.539 100.368 173.377 97.44 173.802 94.4961C174.002 93.1004 174.555 91.7688 174.803 90.3811" fill="#F59F90"/>
<path d="M96.6109 93.153C96.5868 93.8669 96.7036 94.5845 96.0146 94.785C95.7983 94.8492 95.5659 94.8171 95.3496 94.777C93.8113 94.4642 92.6015 93.3412 91.2395 92.5631C90.7748 92.2984 90.1418 92.0898 89.7412 92.4508C89.5089 92.6593 89.4528 93.0043 89.4047 93.3171C89.1243 95.4027 88.924 97.6327 89.8694 99.5177C90.3502 100.48 91.0953 101.274 91.7923 102.101C92.5477 102.986 93.2158 103.942 93.7873 104.956C94.2039 105.71 94.5324 106.504 94.925 107.275C95.3176 108.045 95.7983 108.847 96.263 109.609L98.0977 112.641C98.3301 113.026 100.022 113.207 100.43 113.014L99.5799 103.761C99.612 102.959 99.652 102.157 99.652 101.347C99.6521 99.9192 99.5314 98.4943 99.2915 97.0872C99.2434 96.7984 99.1713 96.4856 98.931 96.3332C98.8188 96.261 99.0147 96.2888 98.9025 96.2086C98.7904 96.1284 98.3301 95.7075 98.29 95.4508C98.1269 94.4976 97.3345 93.7936 96.6109 93.153Z" fill="#F59F90"/>
<path d="M110.13 132.907C104.802 124.749 99.8829 117.081 98.9214 107.383C98.1763 107.648 98.3526 109.236 98.4327 110.022C99.1538 117.37 99.8909 123.153 102.222 130.156C103.985 135.442 106.188 140.568 108.384 145.685C110.795 151.284 113.255 156.964 117.149 161.64C118.342 163.068 119.656 164.384 121.002 165.667C123.566 168.114 126.298 170.207 128.333 171.314C131.338 172.951 138.477 173.616 141.906 173.697C145.335 173.777 149.164 173.448 152.329 172.012C154.989 170.809 159.075 167.576 161.583 164.095C164.091 160.614 166.526 156.811 168.009 152.785C171.328 143.782 173.72 134.463 175.147 124.974C175.524 122.511 175.828 120.041 176.269 117.602C176.75 114.971 176.365 112.476 176.357 109.693C175.195 110.102 174.907 111.578 174.763 112.805C174.063 118.8 172.57 124.675 170.324 130.276L169.427 131.76C168.93 132.795 168.169 133.725 167.183 134.311C166.198 134.897 164.972 135.129 163.866 134.832L162.833 134.335C160.029 132.386 159.484 130.934 156.071 129.586C154.605 129.009 151.48 129.209 149.998 128.664C148.908 128.255 147.802 127.854 146.641 127.765C144.237 127.581 142.178 129.033 140.015 130.252C139.815 130.372 138.805 130.397 138.573 130.388L138.068 130.356C137.927 130.355 137.788 130.325 137.659 130.268C136.658 129.851 134.951 129.081 134.054 128.72C133.485 128.487 132.908 128.263 132.299 128.183C130.609 127.958 129.022 128.905 127.532 129.739C124.965 131.16 122.262 132.321 119.464 133.204C118.342 133.557 117.173 133.886 116.243 134.6C115.674 135.041 115.218 135.619 114.593 135.971C113.968 136.324 113.087 136.389 112.622 135.843L110.13 132.907Z" fill="#BA6929"/>
<path d="M131.186 127.075C131.627 127.372 131.98 127.5 132.468 127.652C132.708 127.723 132.956 127.758 133.205 127.757C134.197 127.789 135.187 127.676 136.146 127.42C135.465 126.858 134.559 126.658 133.822 126.168C133.638 126.048 133.462 125.912 133.27 125.799C132.957 125.639 132.805 125.527 132.452 125.463C132.187 125.425 131.918 125.42 131.651 125.446C131.486 125.467 131.328 125.53 131.195 125.631C131.062 125.731 130.957 125.864 130.892 126.018C130.826 126.171 130.802 126.339 130.821 126.505C130.84 126.671 130.903 126.828 131.002 126.963L131.186 127.075Z" fill="black"/>
<path d="M143.765 127.247C144.861 127.015 145.972 126.86 147.09 126.781C147.418 126.757 147.795 126.725 148.003 126.469C148.212 126.212 148.188 125.811 147.987 125.538C147.787 125.265 147.474 125.113 147.146 125.025C146.233 124.784 145.239 125.025 144.398 125.474C144.013 125.682 143.637 125.939 143.372 126.284C143.212 126.485 143.084 126.725 142.868 126.862C142.772 126.908 142.683 126.968 142.603 127.038C142.531 127.118 142.515 127.263 142.603 127.319C142.642 127.342 142.686 127.353 142.731 127.351C143.06 127.367 143.316 127.407 143.629 127.295L143.765 127.247Z" fill="black"/>
<path d="M127.076 120.588C127.04 122.354 127.515 124.093 128.446 125.594C128.695 125.979 128.975 126.356 129.36 126.597C129.744 126.837 130.249 126.933 130.658 126.733C131.21 126.468 131.475 125.738 132.068 125.578C132.661 125.417 133.253 125.963 133.75 126.388C135.16 127.599 137.091 128.056 138.958 128.089C139.879 128.097 140.833 128.008 141.674 127.623C142.515 127.238 143.116 126.645 143.821 126.131C144.526 125.618 145.367 125.177 146.241 125.249C147.114 125.321 147.907 125.891 148.773 125.802C149.478 125.73 150.079 125.225 150.423 124.615C150.768 124.006 150.904 123.3 150.992 122.602C151.123 121.484 151.141 120.355 151.048 119.233C151.042 119.169 151.016 119.108 150.972 119.061C150.928 119.014 150.87 118.982 150.806 118.972C150.742 118.962 150.677 118.974 150.621 119.005C150.565 119.036 150.52 119.085 150.495 119.145C150.111 120.059 149.71 120.965 149.285 121.856C148.981 122.49 148.564 123.187 147.875 123.284C147.186 123.38 147.314 122.634 146.85 122.217C146.665 122.048 146.345 121.647 145.6 122.241C145.439 122.374 145.292 122.521 145.159 122.682C144.478 123.556 143.421 124.086 142.339 124.334C141.257 124.583 140.048 124.575 138.894 124.559C137.74 124.543 136.442 124.511 135.32 124.062C134.431 123.693 133.662 123.075 132.765 122.738C131.867 122.401 130.698 122.425 130.105 123.179C129.864 123.484 129.656 123.933 129.223 123.837C129.125 123.815 129.034 123.768 128.959 123.701C128.47 123.295 128.145 122.725 128.046 122.096C127.998 121.752 128.014 121.399 127.901 121.07C127.789 120.741 127.493 120.428 127.148 120.46L127.076 120.588Z" fill="#A63344"/>
<path d="M123.52 139.452C123.031 139.564 122.847 140.23 123.055 140.687C123.264 141.144 123.704 141.441 124.137 141.706C129.345 144.842 135.282 147.192 141.355 147.024C147.3 146.855 149.511 144.754 151.762 142.797C152.619 142.051 154.214 140.984 154.951 140.478C155.52 140.085 156.497 138.778 155.864 138.312C151.087 138.586 146.33 139.146 141.619 139.989C140.233 140.238 138.839 140.518 137.437 140.47C136.307 140.43 135.193 140.19 134.08 140.045C132.966 139.901 132.021 139.853 130.987 139.804L123.584 139.411" fill="#E95076"/>
<path d="M123.239 139.501C125.193 140.006 126.219 140.688 127.901 140.736L139.094 141.041C140.064 141.065 141.033 141.089 141.987 140.985C143.06 140.872 144.102 140.6 145.151 140.399C146.914 140.054 148.701 139.918 150.463 139.637C152.338 139.348 154.185 138.9 155.983 138.297C155.983 138.297 156.112 138.041 155.847 137.985C154.774 137.752 151.288 137.543 150.207 137.367C148.492 137.094 146.722 136.813 145.023 137.19C143.028 137.632 141.161 138.955 139.134 138.707C138.509 138.626 137.428 138.057 136.811 137.896C132.452 136.781 128.342 139.902 123.92 139.084C123.671 139.035 123.311 138.931 123.062 138.995C122.814 139.06 122.846 139.284 123.07 139.404L123.239 139.501Z" fill="#A63344"/>
<path d="M109.185 95.5203C111.645 95.1273 114.161 95.2957 116.652 95.4642L128.854 96.2663C129.535 96.3145 130.305 96.3305 130.817 95.8733C131.627 95.1433 131.226 93.7877 130.561 92.9374C128.302 90.0336 124.143 89.4802 120.482 89.7449C116.82 90.0096 113.079 90.8599 109.538 89.8973C108.865 89.7128 108.192 89.4721 107.495 89.5122C106.798 89.5523 106.317 89.801 105.796 90.1058C103.224 91.6059 101.51 94.4776 101.397 97.4535C101.381 97.999 101.558 98.8733 102.095 98.7691C105.083 98.1915 106.717 95.9054 109.185 95.5203Z" fill="#BA6929"/>
<path d="M145.88 88.2857C148.187 86.6493 150.439 85.8231 153.035 85.9273C155.631 86.0316 158.25 86.5691 160.814 86.1038C162.321 85.8231 163.787 85.1974 165.317 85.2535C167.296 85.3177 169.083 86.545 170.308 88.1012C171.534 89.6573 172.287 91.5183 173.017 93.3553C170.317 92.3766 167.568 91.39 164.7 91.2296C162.513 91.1012 156.039 91.5183 153.892 91.9515C150.206 92.7055 150.855 93.636 147.298 94.8473C146.569 95.0959 143.645 95.6414 143.372 94.6708C142.811 92.6333 143.476 91.2376 144.502 89.8579L145.88 88.2857Z" fill="#BA6929"/>
<path d="M161.983 49.3792C167.159 54.4007 169.667 61.5077 171.998 68.342C172.695 70.3715 173.392 72.4089 173.857 74.5106C174.386 76.917 174.602 79.3796 174.722 81.8342C174.936 86.1018 174.861 90.379 174.498 94.6365C175.044 92.8845 176.055 91.6253 176.055 91.6253C176.055 91.6253 178.354 71.746 177.158 62.9275C176.469 57.8659 175.019 52.5076 171.069 49.2829C167.528 46.3952 162.713 45.8016 158.178 45.3203L161.983 49.3792Z" fill="#E18A45"/>
<path d="M99.6652 97.7348C101.836 89.3684 98.4326 82.76 98.5849 74.1208C98.697 67.479 100.484 61.3266 104.121 55.7757C105.996 52.912 110.178 49.6713 113.399 48.5242C110.851 46.8718 104.954 47.8023 102.519 49.6071C97.4712 53.3532 94.0901 59.265 93.4011 65.5138C92.2314 76.2385 96.85 82.3625 96.6097 93.1514" fill="#E18A45"/>
<path d="M146.184 50.449C150.054 49.4543 153.843 48.0185 157.825 47.6174C161.807 47.2163 166.15 48.0265 168.938 50.8982C167.317 42.1362 163.539 33.9173 157.945 26.9861C156.006 24.6037 153.611 22.2454 150.558 21.8844C146.48 21.4031 142.642 24.6759 138.564 24.1866C136.746 23.97 135.039 23.0154 133.204 23.0716C132.003 23.1037 130.865 23.577 129.751 24.0422L117.557 29.1519C116.539 29.577 115.506 30.0182 114.697 30.7642C113.687 31.6867 113.11 33.0183 112.053 33.8926C110.426 35.2322 107.935 35.2563 106.476 36.7803C106.012 37.2616 105.627 37.9034 104.978 38.0477C104.578 38.136 104.169 38.0076 103.768 38.0638C103.368 38.1199 102.959 38.4167 102.623 38.6975C98.3844 42.2671 96.0128 52.2779 97.1826 57.7004C100.58 52.2618 108.479 49.8393 112.838 50.2805C112.838 50.2805 134.727 53.4089 146.184 50.449Z" fill="#E18A45"/>
</g>
<defs>
<linearGradient id="paint0_linear_1708_12407" x1="120.08" y1="106.717" x2="117.444" y2="97.1881" gradientUnits="userSpaceOnUse">
<stop stop-color="#EEE2FF"/>
<stop offset="1" stop-color="#BDC9FB"/>
</linearGradient>
<linearGradient id="paint1_linear_1708_12407" x1="120.215" y1="106.093" x2="116.513" y2="97.9926" gradientUnits="userSpaceOnUse">
<stop stop-color="#471F4B"/>
<stop offset="1" stop-color="#310A39"/>
</linearGradient>
<linearGradient id="paint2_linear_1708_12407" x1="119.337" y1="106.509" x2="115.861" y2="98.8248" gradientUnits="userSpaceOnUse">
<stop stop-color="#586655"/>
<stop offset="1" stop-color="#310A39"/>
</linearGradient>
<linearGradient id="paint3_linear_1708_12407" x1="117.583" y1="103.7" x2="118.963" y2="99.032" gradientUnits="userSpaceOnUse">
<stop stop-color="#A79ABD"/>
<stop offset="0.99" stop-color="#724A60"/>
</linearGradient>
<linearGradient id="paint4_linear_1708_12407" x1="155.358" y1="104.841" x2="157.054" y2="95.1006" gradientUnits="userSpaceOnUse">
<stop stop-color="#EEE2FF"/>
<stop offset="1" stop-color="#BDC9FB"/>
</linearGradient>
<linearGradient id="paint5_linear_1708_12407" x1="155.163" y1="104.239" x2="158.06" y2="95.8172" gradientUnits="userSpaceOnUse">
<stop stop-color="#471F4B"/>
<stop offset="1" stop-color="#310A39"/>
</linearGradient>
<linearGradient id="paint6_linear_1708_12407" x1="156.078" y1="104.562" x2="158.79" y2="96.5764" gradientUnits="userSpaceOnUse">
<stop stop-color="#586655"/>
<stop offset="1" stop-color="#310A39"/>
</linearGradient>
<linearGradient id="paint7_linear_1708_12407" x1="157.549" y1="101.602" x2="155.721" y2="97.0904" gradientUnits="userSpaceOnUse">
<stop stop-color="#A79ABD"/>
<stop offset="0.99" stop-color="#724A60"/>
</linearGradient>
</defs>
</svg>
