<svg width="251" height="250" viewBox="0 0 251 250" fill="none" xmlns="http://www.w3.org/2000/svg">
<mask id="mask0_1708_11896" style="mask-type:alpha" maskUnits="userSpaceOnUse" x="0" y="0" width="251" height="250">
<rect x="0.5" width="250" height="250" fill="#C4C4C4"/>
</mask>
<g mask="url(#mask0_1708_11896)">
<path d="M-4 60.5574C-3.5593 60.1927 -3.11505 59.8337 -2.66724 59.4804C11.3711 48.3772 27.5578 40.3032 44.8722 35.7677C56.362 32.7666 64.998 43.5 64.998 68.2052C86.498 60.5574 72.498 10 128.498 -0.5H135.361L148.498 -7.5L226.888 -0.5C222.119 6.45631 217.835 25.2351 217.848 33.6691C217.848 55.5419 234.617 73.494 256 75.376V113.246C254.356 115.013 248.022 128.899 244.564 133.52C240.547 138.887 231.497 146.769 226.888 151.636C196.996 183.198 197.44 217.615 215.152 247.326C218.682 253.246 223.063 258.87 224.664 265.573C225.013 267.039 225.226 268.534 225.299 270.039H148.913C167.209 249.929 178.557 223.387 179.165 194.204C204.931 179.131 222.236 151.169 222.236 119.168C222.236 71.1875 183.342 32.2922 135.361 32.2922C103.355 32.2922 75.3933 49.6018 60.3212 75.3667C40.498 119.168 9.5 145 -4.00214 96.4011L-4 60.5574Z" fill="#66C3CD"/>
<path d="M135.364 32.2891C183.343 32.2891 222.236 71.1844 222.236 119.168C222.236 151.173 204.927 179.135 179.163 194.208C166.303 201.73 151.336 206.043 135.361 206.043C87.3818 206.043 48.4865 167.15 48.4865 119.168C48.4865 103.194 52.799 88.2268 60.3219 75.3671C75.3969 49.5972 103.359 32.2891 135.364 32.2891Z" fill="#150DCE"/>
<path d="M209 25.9957C208.983 15.6688 212.12 5.57996 217.995 -2.9375H256V77.0625C229.657 74.7582 209 52.7772 209 25.9957Z" fill="#00007E"/>
<path d="M18.0007 221.835C18.0007 221.835 27.9865 202.246 35.6352 194.321C38.8221 191.007 42.1153 189.116 46.0034 186.673C49.4878 184.484 58.1351 181.297 62.5118 178.471C69.162 174.222 68.6308 173.712 75.2597 169.442C77.1081 168.273 86.1591 163.344 88.2412 162.643C89.6789 162.224 91.1505 161.933 92.6392 161.772L114.693 158.606C122.214 157.544 129.799 156.46 137.384 156.949C144.969 157.438 152.639 159.626 158.524 164.428C159.884 165.532 161.137 166.786 162.561 167.785C165.196 169.633 168.276 170.632 171.315 171.673C183.85 176.028 195.918 181.595 207.986 187.161C211.3 188.691 214.678 190.263 217.27 192.855C219.289 194.874 220.712 197.402 222.072 199.909C225.443 206.198 228.538 212.629 231.357 219.201C234.001 232.496 234.501 253.996 234.501 253.996C219.501 260.496 171.649 254.06 156.501 253.996C133.278 253.911 117.319 256.203 94.5007 251.996C89.0404 250.998 74.0007 258.996 67.5007 253.996C62.9752 254.442 22.5007 260.496 16.0007 255.996C8.63518 253.496 18.0007 221.835 18.0007 221.835Z" fill="#206D41"/>
<path d="M96.8876 159.594C93.5094 160.189 92.7021 161.463 89.3239 162.08C88.3891 162.25 87.4117 162.42 86.5831 162.887C83.9061 164.374 83.6086 168.092 83.9911 171.152C84.416 174.572 85.3083 177.993 87.1143 180.925C89.6001 184.941 93.6157 187.766 97.78 189.955C106.172 194.374 115.478 196.669 124.805 198.368C132.794 199.813 141.25 200.812 148.856 197.965C150.981 197.179 152.978 196.116 154.975 195.054C156.972 193.992 159.437 192.653 161.158 190.805C163.665 188.128 164.727 184.325 164.77 180.67C164.812 177.016 163.856 173.361 162.836 169.856C162.515 168.609 162.066 167.399 161.498 166.244C160.727 164.808 159.636 163.569 158.31 162.622C156.984 161.675 155.457 161.046 153.849 160.784C150.853 160.316 147.815 161.187 144.926 162.165C137.702 164.65 130.712 167.986 123.212 169.516C120.535 170.047 117.794 170.366 115.096 169.919C109.062 168.942 102.327 163.886 97.9712 159.594H96.8876Z" fill="black"/>
<path d="M97.377 133.243C99.6504 142.889 98.5668 152.96 97.462 162.797C97.2283 164.773 96.9096 166.919 95.4011 168.215C94.2963 169.15 92.7666 169.405 91.4068 169.936C86.5839 171.848 84.098 178.201 86.3502 182.896C86.9063 183.961 87.5914 184.952 88.3898 185.849C94.9337 193.349 105.472 195.644 115.266 197.45C122.894 198.852 130.606 200.212 138.361 199.681C141.4 199.468 144.438 198.958 147.455 198.449C152.979 197.535 159.14 196.239 162.327 191.628C163.496 189.95 164.154 187.974 164.771 186.041C165.705 183.151 166.619 180.219 166.746 177.202C166.81 175.842 166.704 174.419 166.003 173.272C165.302 172.124 163.878 171.232 162.773 170.233C158.652 166.473 158.715 160.078 159.098 154.49L160.691 131.438C159.544 137.96 158.163 142.337 155.125 148.35C152.766 153.088 147.221 159.355 143.014 162.542C137.426 166.791 129.629 167.493 122.979 165.262C116.329 163.031 108.68 156.572 104.643 150.814C100.606 145.056 100.075 140.085 97.9294 133.413L97.377 133.243Z" fill="#F2B09F"/>
<path d="M104.5 163.997C101.3 159.597 99.1667 146.497 98.5 140.497C100.167 139.997 103.3 139.497 102.5 141.496C101.5 143.996 119 158.997 133.5 161.497C148 163.997 159.5 136.997 160 138.997C160.5 140.997 154 170.496 147.5 174.497C140.445 178.839 133.5 180.496 123 176.996C112.5 173.496 108.5 169.497 104.5 163.997Z" fill="#DD6B7C"/>
<path d="M87.4554 84.9714C87.158 81.8057 87.1792 81.2746 87.9016 75.4106C88.624 69.5466 91.1948 63.6613 95.9752 60.1769C99.4171 57.6699 103.688 56.6288 107.852 55.6727C115.564 53.888 123.383 52.2095 131.308 51.9121C139.233 51.6146 147.349 52.7619 154.424 56.3526C157.271 57.8186 159.969 59.6883 162.073 62.1316C164.176 64.5749 165.791 67.7406 166.917 70.9063C169.913 79.3412 170.338 88.4983 169.381 97.4006C168.425 106.303 166.088 114.95 163.709 123.576C161.669 130.991 159.566 138.427 156.166 145.311C152.767 152.195 147.965 158.569 141.506 162.712C137.852 165.049 133.56 166.664 129.247 166.303C125.933 166.005 122.852 164.603 119.835 163.201C115.501 161.203 111.06 159.143 107.724 155.743C105.472 153.427 103.815 150.602 102.349 147.733C94.7642 132.84 91.7685 116.097 88.8577 99.6314C88.0928 95.2122 87.9016 91.7278 87.6042 87.3723L87.4554 84.9714Z" fill="#F2B09F"/>
<path d="M119.512 105.383C119.885 104.569 114.341 100.265 109.703 100.445C105.065 100.625 102.253 103.584 102.306 104.385C102.411 105.985 104.251 108.237 110.274 107.915C113.713 107.47 119.189 106.092 119.512 105.383Z" fill="url(#paint0_linear_1708_11896)"/>
<path d="M114.83 104.095C115.032 101.932 113.493 100.014 111.392 99.8108C109.292 99.6073 107.425 101.195 107.223 103.358C107.021 105.52 108.56 107.438 110.661 107.642C112.761 107.845 114.628 106.257 114.83 104.095Z" fill="url(#paint1_linear_1708_11896)"/>
<path d="M112.673 107.261C114.44 106.374 115.176 104.182 114.318 102.366C113.46 100.549 111.332 99.796 109.566 100.683C107.799 101.57 107.063 103.762 107.921 105.578C108.779 107.394 110.907 108.148 112.673 107.261Z" fill="url(#paint2_linear_1708_11896)"/>
<path style="mix-blend-mode:multiply" d="M110.992 106.156C112.315 106.202 113.425 105.139 113.473 103.782C113.52 102.424 112.486 101.286 111.164 101.24C109.842 101.194 108.731 102.257 108.684 103.614C108.636 104.972 109.67 106.11 110.992 106.156Z" fill="url(#paint3_linear_1708_11896)"/>
<path d="M110.221 103.031C110.464 103.183 109.575 103.614 108.828 103.539C108.158 103.472 107.757 103.074 107.795 102.958C107.833 102.842 109.259 102.435 110.221 103.031Z" fill="white"/>
<path d="M112.372 103.629C112.641 103.431 113.038 103.482 113.099 103.642C113.161 103.802 112.848 104.122 112.656 104.107C112.464 104.092 112.223 103.74 112.372 103.629Z" fill="white"/>
<path d="M119.249 104.735C119.249 104.735 117.398 99.5897 109.261 99.5291C104.017 99.6418 102.661 103.689 102.661 103.689C102.661 103.689 104.473 100.767 109.703 100.442C114.6 100.138 119.249 104.735 119.249 104.735Z" fill="#DD4C6A"/>
<path d="M102.307 104.388L102.104 105.768C102.104 105.768 103.775 108.845 109.293 108.505C110.892 108.407 116.973 106.84 118.249 106.514C118.398 106.475 118.745 105.847 118.745 105.847C118.745 105.847 104.917 111.101 102.307 104.388Z" fill="#DD6B7C"/>
<path d="M119.25 104.741C119.25 104.741 114.748 100.363 109.596 100.69C104.444 101.017 102.271 105.881 102.271 105.881L99.6092 105.467C99.6092 105.467 100.698 103.651 101.65 102.728C103.632 100.807 104.176 100.306 108.016 99.8619C113.459 99.4361 116.551 101.887 119.25 104.741Z" fill="#4E1B3D"/>
<path d="M119.054 104.562C119.054 104.562 117.885 106.243 116.978 106.625C116.978 106.625 119.414 106.66 119.697 105.713C119.838 105.24 119.054 104.562 119.054 104.562Z" fill="#DD6B7C"/>
<g style="mix-blend-mode:multiply" opacity="0.6">
<path d="M119.054 104.563C119.054 104.563 110.54 99.1677 102.626 104.708L102.305 104.393C102.305 104.393 103.394 101.331 108.734 100.527C114.075 99.7221 118.324 103.809 119.054 104.563Z" fill="#D177B8"/>
</g>
<path d="M138.082 104.67C137.718 103.865 143.143 99.6115 147.683 99.7912C152.223 99.9708 154.976 102.897 154.925 103.688C154.823 105.271 153.023 107.496 147.127 107.176C143.76 106.734 138.399 105.371 138.082 104.67Z" fill="url(#paint4_linear_1708_11896)"/>
<path d="M142.668 103.402C142.469 101.264 143.975 99.3681 146.031 99.1676C148.087 98.9672 149.915 100.538 150.113 102.676C150.312 104.814 148.806 106.709 146.75 106.91C144.694 107.11 142.866 105.54 142.668 103.402Z" fill="url(#paint5_linear_1708_11896)"/>
<path d="M144.78 106.53C143.051 105.653 142.329 103.486 143.169 101.69C144.008 99.8949 146.091 99.1508 147.82 100.028C149.549 100.906 150.271 103.073 149.431 104.868C148.592 106.663 146.509 107.408 144.78 106.53Z" fill="url(#paint6_linear_1708_11896)"/>
<path style="mix-blend-mode:multiply" d="M146.425 105.442C145.131 105.487 144.044 104.436 143.997 103.094C143.95 101.752 144.961 100.627 146.256 100.582C147.55 100.537 148.638 101.588 148.684 102.93C148.731 104.272 147.72 105.397 146.425 105.442Z" fill="url(#paint7_linear_1708_11896)"/>
<path d="M145.755 102.347C145.994 102.498 145.125 102.921 144.393 102.845C143.737 102.777 143.343 102.381 143.38 102.267C143.417 102.152 144.812 101.755 145.755 102.347Z" fill="white"/>
<path d="M147.862 102.94C148.125 102.745 148.513 102.797 148.574 102.955C148.634 103.113 148.329 103.429 148.141 103.413C147.953 103.398 147.716 103.049 147.862 102.94Z" fill="white"/>
<path d="M138.341 104.035C138.341 104.035 140.15 98.9485 148.115 98.8914C153.249 99.0046 154.577 103.006 154.577 103.006C154.577 103.006 152.803 100.117 147.683 99.7941C142.889 99.4912 138.341 104.035 138.341 104.035Z" fill="#DD4C6A"/>
<path d="M154.924 103.692L155.788 105.158C155.788 105.158 153.489 108.098 148.088 107.76C146.522 107.663 140.57 106.111 139.321 105.788C139.174 105.75 138.835 105.129 138.835 105.129C138.835 105.129 151.39 109.284 154.924 103.692Z" fill="#DD6B7C"/>
<path d="M138.34 104.033C138.34 104.033 142.745 99.7069 147.789 100.032C152.832 100.357 154.961 105.166 154.961 105.166L157.566 104.759C157.566 104.759 156.5 102.962 155.568 102.05C153.627 100.15 153.094 99.6542 149.335 99.2141C144.007 98.7913 140.982 101.213 138.34 104.033Z" fill="#4E1B3D"/>
<path d="M138.53 103.866C138.53 103.866 140.368 105.466 141.256 105.843C141.256 105.843 138.179 105.94 137.902 105.004C137.763 104.536 138.53 103.866 138.53 103.866Z" fill="#DD6B7C"/>
<g style="mix-blend-mode:multiply" opacity="0.6">
<path d="M138.531 103.858C138.531 103.858 146.863 98.5277 154.611 104.007L154.926 103.697C154.926 103.697 153.859 100.669 148.631 99.8717C143.403 99.0745 139.245 103.113 138.531 103.858Z" fill="#D177B8"/>
</g>
<path d="M140.572 95.9095C140.466 95.5483 140.572 94.9321 140.848 94.2098C141.124 93.4874 141.868 93.02 142.633 92.85C143.398 92.68 144.184 92.765 144.949 92.8075C147.224 92.9145 149.505 92.7649 151.747 92.3613C152.49 92.2087 153.243 92.1093 153.999 92.0639C156.804 92.0001 159.502 94.146 160.055 96.8868C160.203 97.6092 160.225 98.3528 160.48 99.0539C158.461 97.9066 156.4 96.8018 154.169 96.1432C151.939 95.4845 149.538 95.2721 147.307 95.9095C146.223 96.2282 145.203 96.7381 144.077 96.9718C142.951 97.2055 141.698 97.0355 140.912 96.2282L140.572 95.9095Z" fill="black"/>
<path d="M110.571 96.9775L111.718 97.2325C112.356 97.3812 113.057 97.5087 113.694 97.36C114.331 97.2113 114.969 96.6164 114.926 95.9577C114.884 95.2991 113.822 94.6192 112.95 94.3642C110.911 93.7906 108.807 93.2169 106.704 93.5356C105.812 93.6631 104.919 93.9606 104.027 93.8968C103.135 93.8331 102.264 93.3869 101.35 93.2807C99.459 93.0682 97.6318 94.3642 96.6545 96.0215C95.6772 97.6787 95.3797 99.6333 95.1035 101.524C96.6757 99.9095 98.5029 98.5285 100.606 97.6999C102.37 97.02 104.261 96.7438 106.152 96.4676C107.49 96.2764 108.999 96.1064 110.125 96.8713L110.571 96.9775Z" fill="black"/>
<path d="M133.092 126.142C132.357 126.381 131.747 126.901 131.393 127.587C131.96 127.432 132.547 127.36 133.135 127.375C133.56 127.396 134.07 127.417 134.367 127.099C134.433 127.006 134.476 126.9 134.493 126.788C134.51 126.677 134.5 126.562 134.465 126.455C134.43 126.348 134.37 126.25 134.291 126.17C134.211 126.09 134.113 126.029 134.006 125.994C133.708 125.93 133.645 125.994 133.22 126.121L133.092 126.142Z" fill="#4E1B3D"/>
<path d="M122.299 127.06C123.319 127.251 124.318 127.4 125.338 127.528C125.061 127.039 124.785 126.55 124.297 126.253C123.98 126.077 123.615 126.007 123.256 126.053C122.897 126.099 122.562 126.258 122.299 126.508C122.151 126.656 122.066 126.911 122.214 127.039L122.299 127.06Z" fill="#4E1B3D"/>
<path d="M121.577 127.34C122.151 126.363 123.723 125.683 124.53 126.469C124.87 126.787 124.87 127 125.338 127.531C125.805 128.062 127.186 128.933 127.908 128.976C129.736 129.146 130.713 128.126 131.393 127.595C131.702 127.073 132.182 126.675 132.753 126.469C133.369 126.278 134.155 126.214 134.58 126.703C135.005 127.191 134.835 127.234 135.09 127.382C135.345 127.531 135.918 127.361 136.088 126.979C136.258 126.596 136.237 126.193 136.194 125.789C136.139 124.955 135.997 124.129 135.77 123.324C135.663 122.984 135.345 122.559 135.026 122.751C134.886 122.86 134.794 123.021 134.771 123.197C134.516 124.089 133.879 125.045 132.944 125.024C132.009 125.003 131.499 124.217 130.692 124.132C129.141 125.385 126.676 125.3 125.231 123.94C124.53 123.94 124.105 124.217 123.532 124.344C122.958 124.472 122.746 124.684 122.342 124.833C121.938 124.982 121.407 124.96 121.173 124.599C120.94 124.238 121.152 123.452 120.748 123.112L120.387 125.194C120.302 125.746 120.217 126.32 120.387 126.83C120.557 127.34 121.046 127.829 121.598 127.744" fill="#DD6B7C"/>
<path d="M112.93 141.273C113.588 141.125 114.842 142.697 115.246 143.228C115.649 143.759 115.947 144.375 116.35 144.906C116.754 145.438 117.476 145.969 118.114 146.394C119.24 147.18 120.387 147.945 121.683 148.306C122.459 148.472 123.248 148.565 124.042 148.582C127.101 148.773 130.16 148.943 133.199 148.646C134.091 148.561 135.005 148.433 135.812 148.051C138.638 146.755 139.7 142.633 142.483 141.295C137.724 141.38 133.369 140.742 128.758 140.678C127.59 140.657 126.4 140.7 125.21 140.678C122.406 140.636 119.58 140.806 116.775 141.04C115.713 141.125 115.607 141.55 112.93 141.273Z" fill="#FF5663"/>
<path d="M167.489 104.161C168.594 102.738 169.72 101.336 170.846 99.9546C171.399 99.2747 172.121 98.5311 172.992 98.616C173.863 98.701 174.331 99.4446 174.458 100.21C174.586 100.974 174.373 101.76 174.182 102.504L172.333 109.282C172.065 110.106 171.922 110.965 171.908 111.831C171.972 113.149 172.61 114.381 172.673 115.677C172.78 117.377 171.951 118.97 171.122 120.457L167.68 126.704C167.256 127.469 166.831 128.255 166.151 128.786C165.471 129.317 164.451 129.593 163.686 129.147C162.263 128.34 162.751 126.215 163.325 124.685C164.727 120.958 165.558 117.039 165.79 113.064C165.981 110.004 165.641 109.112 165.875 106.626L167.489 104.161Z" fill="#F2B09F"/>
<path d="M86.9242 100.034C86.4887 99.8552 86.0062 99.8264 85.5526 99.9518C85.0989 100.077 84.6998 100.35 84.4178 100.727C84.1357 101.103 83.9868 101.563 83.9944 102.034C84.002 102.504 84.1656 102.959 84.4596 103.327C84.6721 103.603 84.9483 103.815 85.182 104.092C85.7132 104.75 85.8406 105.643 85.9469 106.492C86.2443 108.808 86.5418 111.124 86.648 113.461C86.7117 115.373 86.6692 117.307 87.0304 119.198C87.7528 123.043 90.1324 126.315 92.4483 129.481C93.1069 130.373 94.2117 131.372 95.1678 130.798C96.1239 130.225 95.8902 129.481 95.8902 128.716C95.7627 121.344 93.1919 114.29 92.342 106.96C91.9383 103.56 86.9242 100.034 86.9242 100.034Z" fill="#F2B09F"/>
<path d="M112.93 141.27C114.396 141.504 115.649 141.313 117.073 141.249C119.155 141.164 122.661 141.058 124.721 141.164C126.23 141.228 126.315 141.483 127.845 141.504C128.971 141.525 130.16 141.185 131.287 141.185L142.483 141.292C140.975 140.824 139.658 139.889 138.425 138.912C137.193 137.935 135.94 136.936 134.495 136.277C133.05 135.619 131.372 135.364 129.906 136.001C129.268 136.277 128.586 136.316 128.501 136.996C127.757 136.231 127.059 135.916 126.06 135.576C125.061 135.236 124.02 135.343 123.022 135.576C119.049 136.532 116.032 139.804 112.93 141.27Z" fill="#DC3B63"/>
<path d="M175.225 76.112C173.886 73.8141 173.505 71.0823 174.162 68.5058C173.591 68.8921 172.918 69.0992 172.229 69.1007C172.115 68.5845 172.122 68.0488 172.252 67.5361C172.381 67.0234 172.627 66.5479 172.973 66.1474C172.473 65.8425 171.9 65.6808 171.315 65.68C171.507 65.0426 171.868 64.384 173.27 64.5114C172.909 64.2777 171.103 63.4066 170.699 63.4066C171.379 63.0454 170.912 62.0044 170.38 61.4307L167.321 58.095C167 55.9572 166.177 53.9258 164.92 52.1673L163.348 51.8698C163.348 51.3387 164.219 50.2551 164.219 49.724C162.477 51.105 161.351 49.0016 160.926 47.8543C160.501 46.707 159.46 45.326 158.313 45.7934C157.378 43.9237 155.572 42.6914 153.787 41.6291C150.977 39.9781 148.035 38.5638 144.991 37.4011C143.334 36.7637 141.252 35.4889 141.804 33.7892C141.822 33.9412 141.871 34.0879 141.948 34.22C142.025 34.3521 142.129 34.4668 142.253 34.5567C142.377 34.6465 142.518 34.7097 142.667 34.7422C142.817 34.7747 142.971 34.7757 143.121 34.7453C142.803 32.8968 140.083 32.0257 138.745 33.3643L139.318 34.4903L138.128 35.3402C137.682 33.1093 134.474 32.0682 132.796 33.5767L132.732 31.7283C131.712 32.4719 130.055 32.0045 129.566 30.8359C129.214 31.1281 128.932 31.4954 128.741 31.9109C128.55 32.3264 128.454 32.7795 128.461 33.2368C127.718 32.0895 126.613 31.0696 125.274 30.8784C123.936 30.6872 122.364 31.6433 122.321 33.0031C122.837 32.6329 123.478 32.4803 124.106 32.5781C123.426 34.4691 120.069 34.2779 119.602 32.3232C119.457 32.275 119.303 32.2581 119.151 32.2735C118.999 32.2889 118.852 32.3363 118.72 32.4125C118.587 32.4887 118.472 32.5921 118.383 32.7159C118.293 32.8396 118.231 32.981 118.199 33.1305C118.157 34.4903 116.797 35.6801 115.437 35.5314C114.8 35.4676 114.141 35.1277 113.504 35.3189C112.867 35.5101 112.654 36.615 113.313 36.6999C112.142 36.8157 111.051 37.3426 110.232 38.1872C109.255 37.1886 107.852 36.5087 106.45 36.7212C105.048 36.9336 103.837 38.2297 103.964 39.6319L106.11 38.2297C105.702 39.6688 104.837 40.9364 103.646 41.8416C102.307 41.2679 100.522 42.0328 100.055 43.435H101.925C100.642 44.5903 99.0444 45.3373 97.3354 45.5809C97.1715 45.3799 97.082 45.1285 97.082 44.8692C97.082 44.6098 97.1715 44.3584 97.3354 44.1574C96.7618 43.7112 95.8694 44.3274 95.6782 45.0498C95.487 45.7721 95.657 46.537 95.5295 47.2594C95.1046 49.6815 91.6414 50.5951 91.1527 52.9959C91.0253 53.7395 91.174 54.5256 90.8128 55.1843C90.4516 55.8429 89.2193 55.9279 89.1556 55.2055C88.2722 56.418 87.7161 57.8375 87.5409 59.3273C86.5726 60.1595 85.868 61.2558 85.5133 62.4823C85.1586 63.7087 85.1692 65.0119 85.5437 66.2324C85.2167 66.252 84.8932 66.1564 84.6293 65.9624C84.3654 65.7683 84.1778 65.488 84.0989 65.1701C83.2491 65.5738 83.1641 66.9335 83.9077 67.4647C84.6514 67.9958 85.055 67.8259 85.1188 68.612C85.1335 68.8207 85.1053 69.0302 85.0359 69.2275C84.9664 69.4248 84.8573 69.6058 84.7151 69.7593C83.7157 70.866 83.0203 72.213 82.6967 73.6686C82.5905 74.0723 82.548 74.5397 82.8029 74.8797C83.0579 75.2196 83.6103 75.1559 83.759 74.8372C82.5042 79.2601 82.5929 83.9563 84.014 88.3286C84.4389 89.6459 84.9063 91.2819 83.929 92.238C83.6706 92.1522 83.4369 92.0049 83.2482 91.8087C83.0594 91.6126 82.9212 91.3734 82.8454 91.1119C82.3567 91.8343 83.1641 92.7691 83.9715 93.1303C84.7788 93.4915 85.7774 93.7677 86.0749 94.6176C86.3723 95.4674 86.0749 95.8074 86.2236 96.381C86.3723 96.9547 87.3496 97.2946 87.5196 96.7209C87.1913 100.611 88.2777 104.488 90.5791 107.642C91.9208 123.39 96.6537 138.661 104.453 152.408C107.959 158.569 112.272 164.582 118.454 168.003C126.889 172.719 138.235 171.508 145.501 165.134C148.688 162.351 151.068 158.76 153.107 155.042C157.951 146.289 161.16 136.728 163.688 127.061C164.941 122.302 166.386 117.394 167.109 112.507C167.342 110.999 167.172 109.511 167.746 108.088C168.575 105.899 170.147 103.86 171.337 101.841C171.719 101.225 172.101 100.545 172.016 99.8017C171.931 99.0581 171.698 98.8881 171.507 98.4419C171.232 97.6728 171.206 96.8372 171.43 96.0522C171.655 95.2673 172.12 94.5724 172.76 94.0652C173.143 93.7677 173.61 93.5552 173.865 93.1516C174.12 92.7479 174.184 92.1742 174.205 91.6643C174.269 89.3909 174.354 87.1176 174.439 84.8655C174.502 82.9745 174.566 81.0411 175.373 79.3627C175.607 78.874 175.883 78.4066 175.905 77.8754C175.926 77.3442 175.543 76.6644 175.225 76.112ZM166.747 109.384C166.7 109.58 166.664 109.778 166.641 109.979C166.54 110.603 166.354 111.211 166.089 111.785C162.689 118.923 161.606 126.912 159.481 134.518C157.356 142.124 153.851 149.901 147.222 154.192C145.926 155.021 144.545 155.722 143.334 156.678C141.167 158.378 139.594 160.842 137.172 162.16C135.791 162.903 134.198 163.201 132.626 163.35C130.893 163.502 129.148 163.409 127.442 163.073C123.702 162.33 120.409 160.226 117.201 158.165L111.358 154.384C109.743 153.343 108.107 152.301 106.705 150.984C101.054 145.673 100.076 137.217 97.6329 129.844C96.9105 127.634 96.0182 125.489 95.2108 123.3C93.7661 119.476 92.5763 115.545 92.1513 111.508C92.0026 110.064 91.8539 108.406 90.8128 107.472C91.2644 106.103 91.381 104.646 91.1527 103.222L89.8355 97.4008C90.968 94.062 91.3383 90.512 90.919 87.0114C90.6003 84.1856 89.7717 81.4236 89.7505 78.5978C89.6867 73.5624 92.2788 68.7182 95.9544 65.2763C99.6301 61.8344 104.283 59.5823 109.063 57.9676C119.875 54.3292 131.457 53.6181 142.633 55.9067C144.483 56.2751 146.307 56.7649 148.093 57.3727C151.448 58.5426 154.581 60.2741 157.356 62.493C158.931 63.7137 160.332 65.1433 161.521 66.7423C163.454 69.4406 164.538 72.6276 165.345 75.857C165.876 77.9392 166.301 80.085 166.237 82.2522C166.174 84.4193 165.579 86.6714 165.43 88.9235C164.941 95.7861 168.553 102.797 166.747 109.384Z" fill="black"/>
<path d="M120.196 147.922C120.124 148.113 120.081 148.314 120.069 148.517C120.048 149.325 120.643 150.068 121.322 150.515C122.002 150.961 122.81 151.237 123.511 151.641C124.212 152.044 124.764 152.533 125.402 152.915C126.512 153.594 127.778 153.974 129.077 154.02C130.373 154.063 131.478 153.319 132.711 152.809C133.943 152.299 135.196 152.172 136.089 151.301C136.981 150.43 137.958 148.879 137.385 147.625C133.922 149.155 129.97 148.9 126.188 148.602C124.233 148.454 122.257 148.305 120.388 147.752L120.196 147.922Z" fill="black"/>
<path d="M124.551 129.948C124.709 130.385 124.962 130.782 125.293 131.109C125.624 131.437 126.024 131.686 126.463 131.838C127.185 132.051 127.95 132.008 128.694 131.966C129.438 131.923 130.16 131.838 130.84 131.562C131.52 131.286 132.115 130.755 132.306 130.054C132.328 129.887 132.403 129.73 132.518 129.608C132.605 129.564 132.701 129.544 132.797 129.547C132.894 129.551 132.988 129.579 133.071 129.629C133.899 129.969 134.494 130.691 135.195 131.222C135.896 131.753 137.065 132.285 137.979 132.816C140.146 134.027 141.888 135.854 143.991 137.129C145.096 137.809 146.328 138.361 147.221 139.317C148.113 140.273 148.517 141.846 147.731 142.887C146.945 143.928 145.436 143.949 144.14 143.885C143.754 143.889 143.372 143.816 143.014 143.673C142.837 143.594 142.686 143.466 142.581 143.304C142.475 143.142 142.419 142.953 142.419 142.759C142.462 142.462 142.695 142.164 142.589 141.867C142.508 141.683 142.365 141.533 142.185 141.442L138.021 138.85C136.64 138 135.238 137.129 133.687 136.619C132.136 136.109 131.201 136.343 129.692 136.938C129.204 137.129 127.95 136.98 127.462 136.853C127.186 136.733 126.929 136.576 126.697 136.385C125.464 135.557 123.828 135.854 122.426 136.321C119.275 137.372 116.395 139.106 113.991 141.399C114.565 141.718 115.224 142.249 115.075 142.887C115.02 143.064 114.934 143.229 114.82 143.375C113.864 144.608 112.122 145.33 110.677 144.735C109.232 144.14 108.531 142.377 108.807 140.847C109.083 139.317 110.146 138.021 111.421 137.129C112.695 136.236 114.119 135.62 115.521 134.962C118.505 133.555 121.32 131.816 123.913 129.778" fill="black"/>
<path d="M75.2598 169.452C75.281 173.106 75.8122 173.213 77.4906 176.442C80.8263 182.859 86.0317 188.191 91.9382 192.377C97.8447 196.562 104.41 199.707 111.102 202.469C112.866 203.191 114.672 203.914 116.52 204.487C121.407 205.975 126.549 206.378 131.648 206.633C137.724 206.931 143.843 206.973 149.813 205.805C155.784 204.636 161.584 202.108 165.897 197.837C166.98 196.754 167.958 195.585 168.935 194.395C170.953 191.909 172.929 189.296 174.013 186.258C175.096 183.22 175.16 179.693 173.439 176.973C172.483 175.401 171.017 174.233 169.955 172.745C168.149 170.238 162.519 166.053 159.14 161.718C158.97 164.098 159.693 166.308 161.01 168.305C165.387 174.955 164.856 184.898 158.801 190.104C155.741 192.738 151.768 193.97 147.901 195.118C142.844 196.647 137.618 198.198 132.37 197.667C129.183 197.327 126.124 196.265 123.022 195.543C119.92 194.82 116.414 194.438 113.163 193.694C104.302 191.611 96.3463 186.732 90.4722 179.778C86.924 175.571 84.1408 170.047 85.4793 164.714C85.6068 164.204 85.8192 163.631 86.3079 163.418C86.7965 163.206 87.1577 163.354 87.5827 163.461C91.3858 164.247 95.6138 162.696 97.9721 159.594C95.0826 159.934 92.6181 161.123 89.7285 161.463C84.3532 162.101 75.2598 169.452 75.2598 169.452Z" fill="#00331E"/>
</g>
<defs>
<linearGradient id="paint0_linear_1708_11896" x1="111.824" y1="108.072" x2="109.73" y2="99.9173" gradientUnits="userSpaceOnUse">
<stop stop-color="#EEE2FF"/>
<stop offset="1" stop-color="#BDC9FB"/>
</linearGradient>
<linearGradient id="paint1_linear_1708_11896" x1="112.633" y1="107.538" x2="110.283" y2="100.095" gradientUnits="userSpaceOnUse">
<stop stop-color="#471F4B"/>
<stop offset="1" stop-color="#310A39"/>
</linearGradient>
<linearGradient id="paint2_linear_1708_11896" x1="111.89" y1="107.666" x2="109.713" y2="100.678" gradientUnits="userSpaceOnUse">
<stop stop-color="#8B4C6B"/>
<stop offset="1" stop-color="#310A39"/>
</linearGradient>
<linearGradient id="paint3_linear_1708_11896" x1="111.471" y1="105.919" x2="110.027" y2="101.218" gradientUnits="userSpaceOnUse">
<stop stop-color="#A79ABD"/>
<stop offset="0.99" stop-color="#724A60"/>
</linearGradient>
<linearGradient id="paint4_linear_1708_11896" x1="145.609" y1="107.33" x2="147.7" y2="99.2805" gradientUnits="userSpaceOnUse">
<stop stop-color="#EEE2FF"/>
<stop offset="1" stop-color="#BDC9FB"/>
</linearGradient>
<linearGradient id="paint5_linear_1708_11896" x1="144.819" y1="106.806" x2="147.163" y2="99.464" gradientUnits="userSpaceOnUse">
<stop stop-color="#471F4B"/>
<stop offset="1" stop-color="#310A39"/>
</linearGradient>
<linearGradient id="paint6_linear_1708_11896" x1="145.547" y1="106.931" x2="147.718" y2="100.037" gradientUnits="userSpaceOnUse">
<stop stop-color="#8B4C6B"/>
<stop offset="1" stop-color="#310A39"/>
</linearGradient>
<linearGradient id="paint7_linear_1708_11896" x1="145.957" y1="105.207" x2="147.397" y2="100.57" gradientUnits="userSpaceOnUse">
<stop stop-color="#A79ABD"/>
<stop offset="0.99" stop-color="#724A60"/>
</linearGradient>
</defs>
</svg>
