<svg width="259" height="258" viewBox="0 0 259 258" fill="none" xmlns="http://www.w3.org/2000/svg">
<mask id="mask0_1708_12593" style="mask-type:alpha" maskUnits="userSpaceOnUse" x="4" y="0" width="251" height="250">
<rect x="4.5" width="250" height="250" fill="#C4C4C4"/>
</mask>
<g mask="url(#mask0_1708_12593)">
<path d="M274 -20.6543L183 -20.6541C159.5 -20.658 142.018 -20.6555 117.695 -20.6555C123.925 -6.5976 127.388 8.96324 127.388 25.3261C127.388 88.0672 76.5263 138.929 13.7852 138.929C2.56928 138.939 -8.58627 137.287 -19.3184 134.028L-19.3184 277.163H85.3058C78.6967 262.664 75.0127 246.549 75.0127 229.574C75.0127 166.144 126.433 114.723 189.863 114.723C225.55 114.723 257.435 131 278.5 156.534L274 80.0002C274 58.5002 274 -20.6543 274 -20.6543Z" fill="#150DCE"/>
<path d="M117.695 -20.6562H-19.3184V134.028C-8.58627 137.286 2.56928 138.938 13.7852 138.928C76.5263 138.928 127.388 88.0664 127.388 25.3253C127.388 8.96245 123.925 -6.59838 117.695 -20.6562Z" fill="#66C3CD"/>
<path d="M159.7 156.096C159.539 155.422 159.41 154.684 159.266 153.945C159.33 154.437 159.41 154.919 159.507 155.39C159.556 155.629 159.62 155.865 159.7 156.096Z" fill="#B5A3B0"/>
<path d="M160.824 158.421C160.338 157.704 159.959 156.92 159.699 156.094C159.86 156.832 160.085 157.49 160.455 157.971C160.567 158.13 160.691 158.28 160.824 158.421Z" fill="#655968"/>
<path d="M159.266 153.94C159.089 152.608 158.912 151.276 157.98 150.377C157.417 149.815 156.678 149.542 155.891 149.414C158.237 149.928 158.864 151.918 159.266 153.94Z" fill="#655968"/>
<path d="M120.356 239.081C120.131 233.994 119.697 228.875 120.291 223.819C120.886 218.764 121.738 213.95 125.306 210.307L125.756 209.809L133.325 201.609C134.193 200.662 135.077 199.715 135.688 198.576C136.443 197.147 136.716 195.526 137.247 193.986C139.433 187.583 145.556 183.458 149.397 177.874C155.022 169.753 155.392 159.242 155.584 149.372C154.906 149.303 154.224 149.281 153.543 149.308L112.738 150.608C108.671 150.736 102.457 151.361 99.002 153.512C96.8001 154.908 96.0713 155.984 95.2838 158.471C92.3427 167.843 74.6479 175.547 63.8638 178.323C59.412 179.462 57.9656 177.248 53.7227 178.836C55.2012 180.698 59.2674 194.949 59.2031 201.753C59.1388 208.863 57.9816 215.908 57.5316 222.985C56.7763 235.005 58.0781 247.041 59.412 259.013C60.8102 259.206 62.1763 259.43 63.5263 259.703C82.1051 263.378 100.941 263.346 119.841 262.624C120.535 254.796 120.707 246.931 120.356 239.081Z" fill="#843B7D"/>
<path d="M57.5316 222.984C57.9816 215.907 59.1387 208.862 59.203 201.753C59.2673 194.948 55.2012 180.698 53.7226 178.836L53.6101 178.868C43.4368 182.816 36.2849 192.044 31.0295 201.592C21.7314 218.546 16.7788 237.533 16.6133 256.862L18.4454 257.376C28.0723 259.237 34.3242 258.306 44.1279 258.114C49.2382 258.016 54.3484 258.316 59.412 259.012C58.078 247.041 56.7762 235.004 57.5316 222.984Z" fill="#843B7D"/>
<path d="M233.5 214.176C228.373 201.241 219.421 189.302 207.158 182.898C204.972 190.361 205.455 198.337 205.133 206.12C204.957 210.16 204.571 214.188 203.976 218.188C203.638 220.387 203.237 222.585 202.835 224.784C200.703 236.531 198.56 248.273 196.406 260.01L241.728 258.742C240.684 243.609 239.092 228.283 233.5 214.176Z" fill="#843B7D"/>
<path d="M196.405 260.01C198.548 248.262 200.691 236.52 202.834 224.784C203.235 222.585 203.637 220.387 203.975 218.188C204.569 214.188 204.956 210.16 205.132 206.12C205.453 198.337 204.971 190.361 207.157 182.898C206.048 182.321 204.923 181.775 203.766 181.293C197.401 178.646 190.491 177.522 184.158 174.858C177.826 172.194 172.169 168.038 166.624 163.929C164.487 162.341 162.253 160.607 160.822 158.425C160.689 158.284 160.565 158.134 160.453 157.976C160.083 157.494 159.858 156.836 159.697 156.098C159.618 155.867 159.554 155.631 159.505 155.392C159.408 154.921 159.328 154.44 159.263 153.947C158.862 151.925 158.235 149.935 155.888 149.422C155.792 149.406 155.021 169.755 149.396 177.875C145.554 183.46 139.431 187.584 137.245 193.988C136.715 195.528 136.442 197.149 135.686 198.577C135.076 199.717 134.192 200.664 133.324 201.61L125.754 209.811L125.304 210.309C121.736 213.951 120.884 218.766 120.29 223.821C119.695 228.876 120.129 233.996 120.354 239.083C120.705 246.933 120.533 254.798 119.84 262.625C130.913 262.192 141.987 261.534 153.06 261.213L196.405 260.01Z" fill="#843B7D"/>
<path d="M95.4434 140.111C102.033 153.575 95.501 156.417 105.295 183.714C106.372 186.715 106.372 186.121 108.188 188.721C109.265 190.245 114.135 192.556 114.986 194.225C115.597 195.397 116.819 201.19 116.819 201.19C120.21 205.716 124.195 210.081 126.172 215.376C128.171 211.533 131.248 208.354 135.028 206.229C136.699 205.298 138.531 204.56 139.913 203.244C141.296 201.928 142.083 200.243 142.871 198.574L152.369 178.466C153.189 176.733 154.008 174.983 154.458 173.122C154.908 171.26 154.973 169.575 155.069 167.794L156.515 138.875C152.626 143.77 148.56 148.809 142.983 151.601C140.492 152.837 137.792 153.591 135.14 154.426C131.476 155.581 127.812 156.945 123.97 157.138C118.378 157.411 112.881 155.132 108.349 151.842C103.817 148.552 95.4434 140.111 95.4434 140.111Z" fill="#B8775E"/>
<path d="M164.312 107.047C165.132 105.731 166.032 104.463 166.964 103.212C167.607 102.377 168.314 101.526 169.246 101.045C170.178 100.564 171.464 100.564 172.219 101.302C172.605 101.671 172.814 102.184 172.991 102.682C173.638 104.59 173.857 106.617 173.634 108.62C172.926 115.055 167.8 120.319 166.916 126.738C166.803 127.589 166.755 128.487 166.369 129.274C165.984 130.06 165.18 130.702 164.312 130.558C162.882 130.285 162.271 130.574 162.85 126.883C163.798 120.897 163.926 114.782 164.167 108.716L164.312 107.047Z" fill="#B8775E"/>
<path d="M111.227 165.115C113.558 166.511 116.129 167.554 118.186 169.335C119.472 170.459 120.517 171.871 121.963 172.818C124.615 174.535 128.183 174.326 131.076 173.043C133.968 171.759 136.331 169.544 138.581 167.313C146.215 159.739 154.363 152.918 156.517 142.391C149.285 151.025 137.954 155.021 126.801 156.609C121.256 157.412 115.486 157.155 110.231 155.245C104.975 153.335 100.25 149.612 97.7109 144.621C98.5788 154.411 107.257 162.724 111.227 165.115Z" fill="#41302A"/>
<path d="M84.0496 100.821C83.1978 100.516 82.2656 100.468 81.7031 101.174C81.1406 101.88 81.0442 102.811 80.9477 103.709C80.8031 105.234 80.6424 106.759 80.4977 108.283C80.3907 109.086 80.3638 109.898 80.4174 110.706C80.5138 111.701 80.8352 112.648 81.1727 113.579L83.921 121.314C84.4353 122.807 84.9656 124.315 85.0942 125.872C85.1906 127.092 85.046 128.359 85.496 129.499C86.1389 131.088 87.9871 132.067 89.6586 131.714C88.7746 122.662 87.8746 112.6 86.4924 103.597C86.4924 103.597 85.3674 101.27 84.0496 100.821Z" fill="#B8775E"/>
<path d="M88.4846 127.564C90.8632 136.631 95.3311 144.014 101.856 150.754C109.378 158.505 120.628 163.127 131.026 160.238C135.549 159.037 139.803 156.989 143.562 154.204C148.464 150.609 153.414 146.854 156.885 141.863C162.928 133.245 163.828 122.156 164.551 111.66L165.966 90.8621C166.432 83.9614 166.85 76.7718 164.085 70.4488C162.976 67.8811 161.369 65.5542 159.778 63.2753C157.785 60.4348 155.744 57.5622 153.044 55.3957C147.853 51.2071 140.894 50.1158 134.273 49.3295C125.16 48.2543 115.79 47.4679 106.903 49.7788C98.015 52.0898 89.5935 58.0436 86.6846 66.7417C85.5274 70.16 85.2863 73.819 85.1256 77.4137C84.4226 93.7554 85.5058 110.125 88.356 126.232L88.4846 127.564Z" fill="#B8775E"/>
<path d="M95.0819 97.2515C95.0819 97.2515 97.3781 99.5067 102.408 99.5476C107.437 99.5885 114.215 97.8774 115.211 96.7748C115.211 96.7748 114.798 95.7928 113.886 94.7373C112.305 92.9009 109.202 90.5493 103.985 90.6591C96.7497 90.8138 95.3546 95.7893 95.1211 96.9926C95.0925 97.1584 95.0819 97.2515 95.0819 97.2515Z" fill="url(#paint0_linear_1708_12593)"/>
<path d="M109.415 94.4548C109.309 91.716 106.769 89.5586 103.743 89.6363C100.717 89.7139 98.3505 91.9972 98.4572 94.7361C98.5639 97.475 101.103 99.6324 104.129 99.5547C107.155 99.477 109.522 97.1937 109.415 94.4548Z" fill="url(#paint1_linear_1708_12593)"/>
<path d="M108.979 94.466C108.881 91.9453 106.544 89.9597 103.759 90.0312C100.974 90.1027 98.7963 92.2041 98.8945 94.7248C98.9927 97.2456 101.33 99.2311 104.115 99.1596C106.899 99.0882 109.077 96.9868 108.979 94.466Z" fill="url(#paint2_linear_1708_12593)"/>
<path style="mix-blend-mode:multiply" d="M106.922 93.8882C107.361 95.3846 106.379 96.9111 104.729 97.2988C103.078 97.6864 101.384 96.7871 100.945 95.2933C100.506 93.7995 101.488 92.2703 103.138 91.8833C104.789 91.4963 106.48 92.3926 106.922 93.8882Z" fill="url(#paint3_linear_1708_12593)"/>
<path d="M107.462 95.396C107.096 95.5747 106.443 92.2157 107.008 92.087C107.572 91.9582 108.269 94.9948 107.462 95.396Z" fill="white"/>
<path d="M108.21 97.0649C108.054 97.2226 106.739 97.0922 106.887 96.8981C107.034 96.704 107.119 96.313 107.597 96.3732C108.076 96.4335 108.418 96.8523 108.21 97.0649Z" fill="white"/>
<g style="mix-blend-mode:multiply" opacity="0.6">
<path d="M93.5875 97.9352C95.1562 97.7587 99.1531 93.7915 103.342 92.8569C108.523 91.7016 113.604 94.4446 113.887 94.7391C112.306 92.9027 109.204 90.5524 103.987 90.6622C96.7514 90.8169 95.4616 95.6227 93.5875 97.9352Z" fill="#CF77B6"/>
</g>
<path d="M115.622 96.1415C115.622 96.1415 114.374 88.8852 104.853 89.2933C100.349 89.4864 96.078 92.3158 94.3055 94.6701C92.3145 96.6953 93.5883 97.9301 93.5883 97.9301C93.5883 97.9301 101.814 86.1875 113.888 94.7359C114.427 95.1834 115.044 95.673 115.622 96.1415Z" fill="#41302A"/>
<path d="M115.731 97.1854C115.592 97.2318 115.86 97.2009 114.161 97.3498C109.168 97.7875 97.9988 98.505 95.1017 97.2293C94.3134 101.684 102.703 100.3 107.054 100.21C113.313 99.1836 115.731 97.1854 115.731 97.1854Z" fill="#955540"/>
<path d="M113.889 94.7344C113.889 94.7344 114.969 95.4718 115.623 96.14C115.898 96.4203 116.132 96.7425 116.124 96.9062C116.098 97.46 114.163 97.3511 114.163 97.3511C114.163 97.3511 114.66 97.044 114.576 96.2496C114.493 95.4552 113.889 94.7344 113.889 94.7344Z" fill="#47201E"/>
<path d="M153.526 97.228C153.526 97.228 151.229 99.4833 146.2 99.5242C141.17 99.5651 134.392 97.854 133.397 96.7514C133.397 96.7514 133.809 95.7694 134.721 94.7139C136.303 92.8775 139.405 90.5259 144.622 90.6357C151.858 90.7904 153.253 95.7658 153.486 96.9692C153.515 97.135 153.526 97.228 153.526 97.228Z" fill="url(#paint4_linear_1708_12593)"/>
<path d="M138.194 94.4314C138.301 91.6925 140.84 89.5352 143.866 89.6128C146.892 89.6905 149.259 91.9738 149.152 94.7127C149.045 97.4516 146.506 99.6089 143.48 99.5312C140.454 99.4536 138.087 97.1703 138.194 94.4314Z" fill="url(#paint5_linear_1708_12593)"/>
<path d="M138.63 94.4426C138.728 91.9218 141.066 89.9363 143.85 90.0078C146.635 90.0792 148.813 92.1807 148.715 94.7014C148.617 97.2222 146.28 99.2077 143.495 99.1362C140.71 99.0647 138.532 96.9633 138.63 94.4426Z" fill="url(#paint6_linear_1708_12593)"/>
<path style="mix-blend-mode:multiply" d="M140.688 93.8647C140.248 95.3612 141.23 96.8877 142.881 97.2754C144.531 97.663 146.225 96.7636 146.664 95.2698C147.103 93.776 146.122 92.2469 144.471 91.8599C142.821 91.4729 141.129 92.3692 140.688 93.8647Z" fill="url(#paint7_linear_1708_12593)"/>
<path d="M140.147 95.3725C140.513 95.5512 141.166 92.1923 140.602 92.0635C140.037 91.9347 139.341 94.9713 140.147 95.3725Z" fill="white"/>
<path d="M139.399 97.0414C139.555 97.1991 140.87 97.0687 140.723 96.8746C140.575 96.6805 140.491 96.2896 140.012 96.3498C139.534 96.41 139.191 96.8288 139.399 97.0414Z" fill="white"/>
<g style="mix-blend-mode:multiply" opacity="0.6">
<path d="M155.022 97.9117C153.453 97.7352 149.456 93.7681 145.268 92.8335C140.087 91.6781 136.016 94.3695 135.733 94.6641C137.315 92.8277 139.406 90.529 144.622 90.6388C151.858 90.7935 153.148 95.5993 155.022 97.9117Z" fill="#CF77B6"/>
</g>
<path d="M132.986 96.1177C132.986 96.1177 134.211 89.2546 143.732 89.6627C148.235 89.8557 149.731 91.6641 154.303 94.6463C156.294 96.6715 155.02 97.9062 155.02 97.9062C155.02 97.9062 146.232 87.6637 135.732 94.6463C135.193 95.0939 133.564 95.6491 132.986 96.1177Z" fill="#41302A"/>
<path d="M132.878 97.1592C133.018 97.2056 132.749 97.1747 134.448 97.3236C139.442 97.7614 150.611 98.4789 153.508 97.2031C151.233 101.156 148.733 101.656 141.556 100.184C135.233 98.8876 132.878 97.1592 132.878 97.1592Z" fill="#955540"/>
<path d="M135.732 94.6562C135.732 94.6562 133.641 95.4454 132.987 96.1136C132.712 96.394 131.725 96.9926 131.732 97.1562C131.759 97.71 134.447 97.3247 134.447 97.3247C134.447 97.3247 133.95 97.0176 134.033 96.2233C134.117 95.4289 135.732 94.6562 135.732 94.6562Z" fill="#47201E"/>
<path d="M86.2669 103.087C86.2669 103.087 86.4437 88.4026 86.7972 81.1328C87.0383 75.8851 87.3758 70.3645 90.1562 65.9031C93.9491 59.8049 101.487 57.0606 108.639 56.3385C115.79 55.6163 123.055 56.4508 130.174 55.4398C132.778 55.0707 135.366 54.4608 138.001 54.4127C141.103 54.3645 144.157 55.1188 147.146 55.9694C149.3 56.5792 151.453 57.2692 153.398 58.4087C157.737 60.9924 160.437 65.5822 162.944 69.9794C163.877 71.5842 164.793 73.2051 165.259 75.0024C165.725 76.7998 165.677 78.2923 165.661 79.9613C165.65 88.9911 165.307 98.0101 164.632 107.018C168.28 102.557 168.618 96.3304 168.778 90.5531C168.987 83.1068 169.212 75.5962 167.895 68.2622C167.637 66.85 167.027 65.1489 165.596 64.9884C166.657 63.5922 166.818 61.7467 166.946 59.9974L167.187 56.4187C167.22 55.9854 167.252 55.5361 167.075 55.1348C166.545 53.9473 164.825 54.1399 163.587 54.5411C164.761 53.5461 164.712 51.4438 163.475 50.529C163.256 50.8015 162.942 50.9812 162.596 51.0318C162.251 51.0824 161.898 51.0003 161.611 50.8018C161.751 50.3435 161.715 49.8495 161.51 49.4162C161.305 48.9829 160.945 48.6416 160.502 48.4588C159.602 48.1379 158.477 48.6354 158.139 49.534C158.025 47.962 157.627 46.4235 156.966 44.9924C157.721 44.5591 157.882 43.3876 157.271 42.7617C156.66 42.1359 155.487 42.2803 155.037 43.0185C154.475 41.4297 152.096 40.852 150.891 42.0396C150.216 41.1088 149.637 39.5842 150.618 39.0065C151.598 38.4287 153.028 38.5892 152.675 37.7387C152.05 37.4444 151.368 37.2892 150.677 37.2836C149.986 37.2781 149.303 37.4224 148.673 37.7066C148.625 36.856 148.368 35.7647 147.516 35.6845C146.166 35.5722 145.443 38.3004 144.269 37.6103C144.076 36.7758 144.848 36.0697 145.234 35.3154C145.619 34.5611 145.009 33.2131 144.285 33.6785C143.835 34.6373 143.244 35.5242 142.534 36.3104C141.883 35.5163 141.411 34.5911 141.151 33.5982C142.148 33.9834 142.967 32.3465 142.26 31.5601C141.553 30.7738 140.187 30.9824 139.416 31.7206C138.644 32.4588 138.323 33.518 138.017 34.529L134.433 31.3676L135.558 29.2973C134.787 28.9764 133.871 28.864 133.148 29.2652C132.425 29.6665 132.103 30.7738 132.666 31.3836C129.166 30.9183 125.714 30.1504 122.348 29.0887L123.119 30.6935L121.464 31.9774C121.396 31.4926 121.225 31.028 120.962 30.6154C120.698 30.2027 120.349 29.8517 119.937 29.5862C119.278 31.4959 117.108 32.7637 115.115 32.4107C115.469 31.6243 114.248 30.7577 113.621 31.3515C110.605 34.0651 107.19 36.3005 103.496 37.9794C102.949 36.4388 100.828 35.6845 99.4135 36.5511C100.297 38.0917 99.5902 40.3064 97.9831 41.0446C97.7221 40.2409 97.5866 39.4019 97.5813 38.5571C96.0224 38.7818 95.267 41.0446 96.3599 42.1519C95.8971 42.1201 95.449 41.9764 95.0542 41.7331C94.6594 41.4899 94.3298 41.1545 94.0938 40.7557C93.7884 41.6063 94.3188 42.505 94.6081 43.3555C94.8973 44.2061 94.6563 45.4739 93.7563 45.5381C93.1845 45.285 92.5458 45.2249 91.9368 45.3668C91.3279 45.5087 90.7817 45.8449 90.3812 46.3244C90.6263 46.6253 90.7928 46.9822 90.8657 47.3631C90.9387 47.744 90.9158 48.1371 90.7991 48.507L88.7419 49.3896C89.433 50.5611 89.658 52.0376 89.0955 53.2572C88.533 54.4769 87.0544 55.2793 85.7687 54.8781L87.7133 55.199C87.8401 55.3745 87.9029 55.5881 87.8912 55.8042C87.8795 56.0202 87.7941 56.2258 87.6491 56.3866L85.4794 56.2422C85.9572 56.3983 86.3782 56.6917 86.6898 57.0856C87.0014 57.4796 87.1897 57.9565 87.2312 58.4568C86.0258 57.9593 84.4669 58.7778 84.1937 60.0456C84.0972 59.4357 85.1901 59.2913 85.5276 59.8209C85.8651 60.3505 85.5597 61.0406 85.4151 61.6504C78.8418 90.4568 86.2669 103.087 86.2669 103.087Z" fill="#282627"/>
<path d="M150.859 181.612C150.859 181.612 152.08 179.349 153.27 179.301C156.002 179.188 158.445 181.259 159.457 183.794C160.47 186.33 160.357 189.154 160.229 191.882C163.111 186.865 164.369 181.08 163.829 175.321C163.588 172.849 163.009 170.41 162.447 167.987C161.322 163.172 160.614 158.197 159.473 153.367C159.264 152.484 159.104 151.778 158.541 151.072C157.979 150.366 156.741 149.066 155.889 149.419C155.247 155.886 155.07 163.429 152.691 169.64C149.171 178.851 145.33 190.775 143.562 197.114L150.859 181.612Z" fill="#4E1B49"/>
<path d="M93.6274 193.439C94.7846 190.727 95.0739 187.662 96.5846 185.143C98.0953 182.623 101.695 180.89 104.01 182.703C105.986 184.26 105.858 187.405 107.529 189.299C108.301 190.166 109.378 190.679 110.358 191.305C112.071 192.406 113.531 193.856 114.645 195.559C115.758 197.263 116.499 199.182 116.819 201.191C115.951 199.233 116.754 196.954 116.465 194.836C116.047 191.722 113.379 189.492 111.049 187.373C106.919 183.634 105.247 180.168 102.885 175.112C101.002 169.881 100.002 165.008 99.4936 158.583C99.4936 156.866 100.49 154.057 98.915 153.367C95.3632 157.54 93.2096 164.152 91.8435 169.881C89.9792 177.696 91.9399 185.849 93.9328 193.632" fill="#4E1B49"/>
<path d="M105.553 130.899C107.096 130.595 108.687 131.044 110.262 131.253C112.11 131.509 113.99 131.429 115.871 131.349C118.121 131.236 120.387 131.156 122.637 131.397C124.099 131.541 125.562 131.846 127.025 131.718C127.78 131.638 128.519 131.461 129.258 131.333C130.706 131.074 132.182 131.014 133.646 131.156C135.141 131.285 136.635 131.622 138.098 131.381C139.11 131.22 140.059 130.787 141.039 130.53C142.019 130.274 143.128 130.161 144.028 130.643C144.269 130.755 144.559 130.932 144.8 130.787C144.895 130.704 144.953 130.586 144.962 130.46C144.971 130.334 144.93 130.209 144.848 130.113C144.666 129.933 144.438 129.805 144.189 129.744L142.518 129.198L132.216 125.989C131.123 125.652 130.014 125.299 128.857 125.283C127.7 125.267 126.494 125.588 125.707 126.422C125.53 126.599 125.353 126.823 125.096 126.871C124.931 126.892 124.763 126.864 124.614 126.791C123.457 126.374 122.492 125.459 121.271 125.267C120.371 125.122 119.471 125.395 118.603 125.668L111.596 127.834C109.394 128.524 107.112 129.247 105.408 130.803" fill="#4E1B49"/>
<path d="M144.318 131.045C143.418 131.43 142.374 131.35 141.699 132.072C141.024 132.794 140.606 133.677 140.027 134.479C138.516 136.565 136.122 137.897 133.631 138.587C131.139 139.278 128.52 139.39 125.932 139.454C121.079 139.582 115.936 139.518 111.725 137.079C110.825 136.549 109.973 135.907 109.379 135.041C108.784 134.174 108.495 133.051 107.82 132.216C107.145 131.382 105.57 131.783 105.537 130.884C105.505 130.242 108.029 130.258 108.029 130.258C110.761 130.467 115.679 130.242 118.427 130.355C121.175 130.467 121.85 130.949 124.663 130.981C126.013 130.997 127.298 130.724 128.648 130.644C129.998 130.563 131.541 130.644 132.972 130.628C134.402 130.612 135.768 130.788 137.15 130.66C138.532 130.531 139.625 130.194 140.879 130.05C142.132 129.905 143.466 130.002 144.511 130.692C144.511 130.692 144.399 130.997 144.318 131.045Z" fill="#683063"/>
<path d="M116.931 133.339C118.876 134.093 120.997 134.302 123.087 134.478C124.822 134.639 126.574 134.783 128.31 134.575C130.046 134.366 131.765 133.804 133.099 132.665C133.517 132.296 133.919 131.686 133.597 131.237C133.276 130.787 132.971 130.883 132.601 130.851C130.64 130.707 128.663 130.562 126.703 130.675C125.851 130.723 124.999 130.819 124.147 130.819C122.347 130.819 120.579 130.418 118.795 130.354C118.239 130.314 117.681 130.391 117.156 130.579C116.642 130.787 116.192 131.22 116.111 131.766C116.031 132.312 116.111 132.809 116.401 132.938L116.931 133.339Z" fill="#843B7D"/>
<path d="M128.247 117.66C128.874 117.258 129.677 117.21 130.449 117.194C130.836 117.164 131.226 117.191 131.606 117.274C132.024 117.387 132.409 117.611 132.811 117.756C133.213 117.9 133.679 117.981 134.049 117.756C134.418 117.531 134.643 116.649 134.322 116.135C134 115.621 133.39 115.333 132.795 115.188C132.288 115.057 131.756 115.063 131.252 115.204C130.989 115.291 130.74 115.416 130.513 115.573C129.609 116.139 128.81 116.855 128.15 117.692" fill="#47201E"/>
<path d="M114.506 116.135C114.201 116.456 114.12 116.761 114.313 117.114C114.506 117.467 114.94 117.628 115.358 117.644C115.758 117.625 116.153 117.549 116.531 117.419C117.063 117.261 117.616 117.191 118.17 117.21C118.414 117.232 118.655 117.27 118.894 117.323C119.537 117.435 120.694 117.547 121.337 117.66C121.321 116.6 120.067 115.573 119.054 115.22C118.299 114.947 117.463 115.044 116.66 115.188C115.856 115.333 115.149 115.525 114.603 116.055L114.506 116.135Z" fill="#47201E"/>
<path d="M111.742 108.191C111.42 109.507 111.099 110.839 111.051 112.203C111.002 113.567 111.259 114.963 112.015 116.103C112.481 116.793 113.204 117.402 114.04 117.354C114.876 117.306 115.647 116.536 116.435 116.103C117.849 115.316 119.777 115.669 120.806 116.905C121.192 117.354 121.449 117.884 121.835 118.333C123.04 119.746 125.611 119.441 126.383 119.055C127.154 118.67 128.006 117.884 128.424 117.354C129.806 115.621 132.185 114.739 133.856 116.215C134.145 116.472 134.419 116.777 134.788 116.889C135.158 117.001 136.074 116.696 136.476 116.167C137.263 115.14 137.36 113.76 137.376 112.46C137.392 111.721 137.392 110.967 137.199 110.245C136.717 108.416 135.013 107.084 133.197 106.538C133.099 106.498 132.99 106.498 132.892 106.538C132.779 106.602 135.624 108.945 136.09 109.828C136.556 110.71 136.251 113.23 133.985 113.503C133.133 113.615 132.217 112.909 131.397 112.636C130.578 112.363 129.742 111.978 128.906 112.155C128.07 112.331 127.379 113.086 126.64 113.615C125.644 114.321 124.245 114.61 123.152 114.032C122.333 113.615 121.802 112.781 121.015 112.331C120.227 111.882 119.552 111.866 118.797 111.946C117.431 112.107 116.193 112.829 115.068 113.631C114.731 113.856 114.41 114.097 114.008 114.177C113.204 114.337 112.401 113.727 112.079 112.973C111.758 112.219 111.806 111.368 111.87 110.55C111.934 109.731 112.015 108.897 111.758 108.111" fill="#955540"/>
<path d="M65.102 258.295C62.8477 252.446 61.6348 246.25 61.518 239.984C61.4216 233.87 62.4984 227.884 64.1698 222.026C65.8413 216.169 67.9948 210.664 69.9395 204.999C70.9199 202.158 71.852 199.302 72.6235 196.397C73.3967 193.438 74.0031 190.437 74.4396 187.41C75.2753 181.842 75.0014 177.444 79.5015 173.512C80.0023 173.08 80.8229 172.502 81.3914 172.165C81.4468 172.13 81.4864 172.076 81.5015 172.013C81.5165 171.949 81.5058 171.883 81.4717 171.828C81.4376 171.772 81.3829 171.733 81.3196 171.718C81.2563 171.703 81.1897 171.713 81.1342 171.747C76.1681 174.732 75.3074 178.953 74.4235 184.313C73.9253 187.426 73.5235 190.54 72.8163 193.605C72.1092 196.67 71.2574 199.527 70.3092 202.415C68.3966 208.209 66.1627 213.906 64.3627 219.731C62.5626 225.557 61.2126 231.575 61.0519 237.705C60.8858 243.988 61.8269 250.251 63.8323 256.209C64.0895 256.947 64.3627 257.685 64.652 258.423C64.7484 258.696 65.2145 258.584 65.102 258.295Z" fill="#FBE79C"/>
<path d="M95.5735 257.838C96.0878 252.853 96.5807 247.862 97.0521 242.865C97.5236 237.869 97.9843 232.873 98.4343 227.876C98.8736 222.901 99.2914 217.926 99.6879 212.952C100.09 208.089 100.588 203.21 99.9129 198.348C99.3021 193.886 97.9039 189.232 99.045 184.739C99.1775 184.203 99.3494 183.677 99.5593 183.166C99.6718 182.877 99.2057 182.749 99.0932 183.038C97.3896 187.307 98.3861 191.961 99.1093 196.31C99.5345 198.672 99.7603 201.067 99.7843 203.467C99.7843 205.939 99.5754 208.41 99.3825 210.881C98.9861 215.899 98.5682 220.922 98.1289 225.951C97.695 230.942 97.2289 235.949 96.7628 240.94C96.2967 245.93 95.7825 250.97 95.2682 255.993C95.2039 256.603 95.1396 257.228 95.0914 257.838C95.0592 258.143 95.5414 258.143 95.5735 257.838Z" fill="#FBE79C"/>
<path d="M121.64 261.741C122.111 258.585 122.502 255.413 122.813 252.224C123.124 249.036 123.37 245.859 123.552 242.692C123.734 239.503 123.847 236.299 123.89 233.079C123.922 230.158 123.809 227.205 123.938 224.268C124.051 221.572 124.436 218.812 125.69 216.373C125.84 216.075 126.007 215.786 126.188 215.506C126.205 215.479 126.216 215.448 126.221 215.417C126.226 215.385 126.225 215.352 126.218 215.321C126.21 215.29 126.197 215.26 126.178 215.234C126.159 215.208 126.135 215.186 126.108 215.169C126.08 215.152 126.05 215.141 126.018 215.136C125.986 215.131 125.954 215.132 125.922 215.139C125.891 215.147 125.861 215.16 125.835 215.179C125.809 215.198 125.787 215.222 125.77 215.249C124.34 217.576 123.761 220.256 123.536 222.936C123.311 225.616 123.44 228.73 123.424 231.618C123.392 234.828 123.311 238.022 123.15 241.231C122.99 244.441 122.765 247.618 122.459 250.812C122.154 254.006 121.784 257.231 121.35 260.425C121.286 260.826 121.238 261.211 121.174 261.612C121.109 262.014 121.608 262.046 121.64 261.741Z" fill="#FBE79C"/>
<path d="M148.496 259.265C148.1 248.994 148.046 238.713 148.335 228.421C148.625 218.129 149.278 207.868 150.296 197.64C150.859 191.879 151.534 186.118 152.321 180.389C152.353 180.084 151.887 179.955 151.855 180.26C150.462 190.467 149.412 200.711 148.705 210.992C147.998 221.274 147.65 231.55 147.66 241.821C147.676 247.63 147.789 253.456 148.014 259.265C148.03 259.57 148.512 259.57 148.496 259.265Z" fill="#FBE79C"/>
<path d="M179.789 172.928C179.789 177.534 179.805 182.14 179.982 186.746C180.159 191.351 180.4 195.925 181.203 200.435C181.734 203.452 182.377 206.453 182.827 209.502C183.26 212.524 183.534 215.567 183.646 218.617C183.919 224.764 183.968 230.942 184.096 237.105L184.498 255.56L184.562 257.855C184.562 257.919 184.588 257.98 184.633 258.025C184.678 258.07 184.739 258.096 184.803 258.096C184.867 258.096 184.929 258.07 184.974 258.025C185.019 257.98 185.044 257.919 185.044 257.855L184.627 239.384C184.498 233.253 184.402 227.107 184.209 220.96C184.112 217.895 183.968 214.814 183.614 211.749C183.261 208.683 182.714 205.875 182.152 202.938C181.702 200.547 181.3 198.156 181.043 195.733C180.786 193.309 180.641 190.982 180.544 188.591C180.319 183.873 180.271 179.139 180.271 174.405V172.928C180.271 172.864 180.246 172.803 180.201 172.758C180.155 172.713 180.094 172.688 180.03 172.688C179.966 172.688 179.905 172.713 179.86 172.758C179.814 172.803 179.789 172.864 179.789 172.928Z" fill="#FBE79C"/>
<path d="M208.17 259.911C207.14 256.368 206.451 252.736 206.112 249.062C206.064 248.613 206.032 248.164 206 247.714L205.952 247.072C205.924 246.851 205.946 246.626 206.016 246.414C206.161 246.109 206.482 245.933 206.691 245.66C206.9 245.355 206.981 244.981 206.916 244.617C206.848 244.227 206.757 243.841 206.643 243.462C206.545 243.065 206.469 242.663 206.418 242.258C206.119 239.823 206.586 237.356 207.752 235.197C208.138 234.491 208.636 233.801 208.555 232.934C208.523 232.388 208.346 231.827 208.202 231.297C207.591 229.034 206.916 226.804 206.257 224.557C205.598 222.31 204.939 220.127 204.345 217.881L204.2 217.319C204.12 217.03 203.654 217.159 203.734 217.447C204.264 219.566 204.907 221.668 205.518 223.754C206.209 226.081 206.9 228.424 207.543 230.767C207.671 231.185 207.784 231.602 207.896 232.035C208.002 232.396 208.067 232.767 208.089 233.143C208.061 233.561 207.922 233.966 207.688 234.314C207.285 235.009 206.935 235.733 206.643 236.481C206.355 237.233 206.145 238.013 206.016 238.808C205.755 240.397 205.81 242.022 206.177 243.59C206.273 243.991 206.434 244.392 206.45 244.793C206.466 245.195 206.273 245.435 206 245.692C205.727 245.949 205.518 246.222 205.486 246.591C205.454 246.96 205.502 247.457 205.534 247.891C205.793 251.551 206.401 255.178 207.35 258.723C207.462 259.173 207.575 259.606 207.704 260.039C207.832 260.473 208.266 260.2 208.17 259.911Z" fill="#FBE79C"/>
<path d="M237.308 257.775C236.199 257.406 235.878 256.154 235.942 255.095C236.039 253.715 236.891 252.608 237.662 251.533C238.433 250.457 239.221 249.157 239.333 247.697C239.446 246.237 239.044 244.776 238.658 243.38C238.273 241.984 237.855 240.459 237.983 238.951C238.048 238.1 238.289 237.282 238.321 236.431C238.355 235.679 238.159 234.935 237.758 234.297C237.373 233.671 236.874 233.109 236.505 232.451C236.14 231.793 235.859 231.093 235.669 230.365C235.267 228.873 235.187 227.332 235.091 225.807C235.029 224.265 234.879 222.727 234.641 221.202C234.392 219.644 234.037 218.105 233.58 216.596C232.664 213.547 231.378 210.626 229.932 207.785C228.485 204.945 226.782 202.12 225.046 199.376C224.21 198.044 223.374 196.696 222.506 195.38C221.639 194.064 220.803 192.925 219.646 191.994C219.003 191.464 218.296 190.983 217.605 190.501C216.792 189.904 215.926 189.382 215.017 188.945C212.751 187.87 210.212 187.533 207.817 188.431C207.099 188.707 206.414 189.062 205.776 189.49C205.519 189.651 205.76 190.068 206.017 189.908C207.271 189.073 208.685 188.495 210.196 188.399C211.427 188.329 212.66 188.52 213.812 188.961C215.58 189.603 217.058 190.71 218.585 191.785C221.028 193.519 222.49 196.231 224.065 198.702C225.785 201.43 227.473 204.175 228.983 207.015C230.501 209.8 231.775 212.71 232.792 215.713C233.789 218.719 234.384 221.843 234.56 225.005C234.737 227.942 234.817 231.007 236.617 233.494C237.051 234.104 237.55 234.698 237.742 235.436C237.935 236.174 237.774 237.153 237.63 238.004C237.373 239.513 237.533 240.925 237.903 242.417C238.273 243.91 238.771 245.29 238.851 246.782C238.912 247.514 238.825 248.251 238.594 248.949C238.334 249.638 237.977 250.286 237.533 250.875C236.794 251.95 235.878 253.009 235.589 254.309C235.348 255.304 235.396 256.507 236.007 257.374C236.291 257.784 236.704 258.089 237.18 258.241C237.469 258.337 237.598 257.872 237.308 257.775Z" fill="#FBE79C"/>
<path d="M31.0287 260.307C30.3536 255.124 29.6947 249.94 29.3572 244.725C29.0197 239.509 28.9393 234.39 29.4697 229.254C30.0001 224.119 31.1733 219.08 33.134 214.297C35.0948 209.515 37.618 205.214 40.4145 201.009C41.8073 198.902 43.2484 196.826 44.7377 194.783C45.4288 193.82 46.1038 192.841 46.827 191.894C47.5503 190.947 48.2413 190.129 49.1413 189.487C49.5996 189.163 50.1033 188.909 50.636 188.733C50.6874 188.719 50.7329 188.689 50.7653 188.647C50.7978 188.605 50.8154 188.553 50.8154 188.5C50.8154 188.447 50.7978 188.395 50.7653 188.353C50.7329 188.311 50.6874 188.281 50.636 188.267C49.5914 188.01 48.4342 187.738 47.5342 187.192C45.9752 186.229 47.1806 183.806 47.936 182.715C49.1253 180.997 51.1342 179.906 53.0307 179.152C54.0593 178.751 55.12 178.494 56.2129 178.574C57.0375 178.644 57.8458 178.845 58.6075 179.168C61.6611 180.404 64.4897 183.132 68.0255 182.715C69.9862 182.474 71.6416 181.334 73.5059 180.757C74.4993 180.455 75.5457 180.367 76.5756 180.5C77.5238 180.596 78.4881 180.757 79.4363 180.612C79.9723 180.558 80.4861 180.37 80.931 180.067C81.4131 179.746 81.7988 179.28 82.3453 179.088C83.2935 178.751 84.3382 179.232 85.2542 179.489C86.1703 179.746 87.0703 179.826 87.906 179.344C88.4043 179.056 88.8221 178.638 89.3364 178.382C89.8507 178.125 90.4936 178.061 90.8311 178.526C91.1686 178.991 91.4418 178.526 91.2489 178.269C90.7346 177.579 89.8025 177.611 89.0953 177.964C88.6614 178.189 88.2918 178.51 87.89 178.783C87.4376 179.106 86.8856 179.259 86.331 179.216C85.3828 179.136 84.5149 178.702 83.5828 178.558C82.6506 178.414 81.9113 178.67 81.172 179.264C80.7878 179.625 80.326 179.894 79.822 180.051C79.2494 180.192 78.6562 180.23 78.0702 180.163C76.9934 180.099 75.9166 179.874 74.8238 179.986C72.7345 180.211 70.9666 181.479 68.9737 182.024C65.1326 183.1 62.0468 180.034 58.7361 178.702C57.9336 178.364 57.0814 178.158 56.2129 178.093C55.1076 178.037 54.0039 178.229 52.9825 178.654C51.0378 179.409 49.0128 180.5 47.727 182.185C46.7467 183.469 45.477 186.02 46.9878 187.385C47.5181 187.85 48.3056 188.075 48.9646 188.299C49.6235 188.524 49.9771 188.604 50.5074 188.733V188.267C48.4181 188.957 47.052 190.755 45.8145 192.456C44.3038 194.542 42.8091 196.644 41.3627 198.763C38.4698 202.967 35.7376 207.316 33.6162 211.954C31.4691 216.675 30.0132 221.68 29.2929 226.815C28.5536 231.982 28.4733 237.23 28.7304 242.446C28.9876 247.661 29.6144 253.07 30.2894 258.349C30.3697 259.007 30.4662 259.649 30.5465 260.307C30.5787 260.612 31.0769 260.612 31.0287 260.307Z" fill="#FBE79C"/>
<path d="M38.4224 190.998C39.2742 190.34 40.6242 190.596 41.5724 190.853C42.5207 191.11 43.7099 191.64 44.7064 192.201C47.2939 193.662 49.9779 194.945 52.8065 195.86C54.2073 196.316 55.6422 196.659 57.0976 196.887C58.5601 197.112 60.119 197 61.228 198.123C61.678 198.588 62.0476 199.118 62.5298 199.535C62.9488 199.906 63.4341 200.195 63.9602 200.386C65.0852 200.803 66.2905 200.723 67.4477 200.546C68.6049 200.37 70.0031 199.969 71.3049 199.712C72.6979 199.418 74.1365 199.412 75.5317 199.696C78.3603 200.289 80.9478 201.702 83.8729 201.894C89.6586 202.296 95.0266 199.23 100.796 199.471C106.566 199.712 111.195 203.21 116.691 203.965C117.34 204.061 117.996 204.109 118.652 204.109C118.716 204.109 118.777 204.084 118.822 204.038C118.867 203.993 118.893 203.932 118.893 203.868C118.893 203.804 118.867 203.743 118.822 203.698C118.777 203.653 118.716 203.628 118.652 203.628C112.979 203.579 108.141 200.065 102.645 199.182C96.7944 198.251 91.3944 201.172 85.6408 201.429C84.1511 201.51 82.6582 201.347 81.2211 200.947C79.8228 200.562 78.4728 200.017 77.0746 199.599C75.6764 199.182 74.2781 198.893 72.8478 199.006C71.4174 199.118 70.2924 199.439 69.0388 199.728C67.7852 200.017 66.4673 200.322 65.1655 200.177C64.5571 200.122 63.9691 199.93 63.4459 199.615C62.8834 199.278 62.4494 198.781 62.0316 198.283C61.6137 197.786 61.1637 197.321 60.5851 197.048C60.0065 196.775 59.2673 196.663 58.5762 196.598C57.0601 196.442 55.56 196.158 54.0922 195.748C51.1511 194.929 48.3707 193.662 45.7028 192.201C43.7742 191.142 41.5885 189.826 39.2742 190.163C38.8413 190.223 38.4315 190.395 38.0849 190.661C37.8438 190.853 38.1813 191.19 38.4224 190.998Z" fill="#FBE79C"/>
<path d="M140.477 203.083L154.668 202.938L168.86 202.794L183.067 202.649L197.049 202.505C201.131 202.489 205.39 202.601 209.183 204.286C209.649 204.478 210.1 204.704 210.533 204.96C210.806 205.105 211.047 204.687 210.774 204.543C207.19 202.537 203.028 202.104 198.994 202.039C194.381 201.959 189.769 202.104 185.156 202.152L170.885 202.296L156.565 202.441L142.293 202.585H140.477C140.172 202.601 140.172 203.083 140.477 203.066V203.083Z" fill="#FBE79C"/>
<path d="M25.4674 213.867C28.2962 212.737 31.4425 212.685 34.3068 213.723C35.914 214.316 37.2158 215.263 38.5336 216.338C39.6664 217.273 40.9275 218.04 42.2783 218.617C47.8552 220.992 53.2231 223.881 57.1445 228.647C57.2731 228.808 57.5624 228.679 57.5624 228.471C57.5624 228.262 57.5463 227.588 57.5303 227.139C57.4981 226.368 57.5303 225.293 58.3338 224.844C59.1374 224.395 60.2142 224.475 61.0339 224.475C64.1678 224.491 67.3339 224.988 70.4358 225.245C76.768 225.759 83.1002 226.192 89.4324 226.545C101.947 227.273 114.488 227.695 127.056 227.813C139.608 227.941 152.16 227.652 164.712 227.925C170.835 228.07 176.942 228.326 183.049 228.856C186.28 229.145 189.494 229.482 192.708 229.931C195.344 230.284 198.06 230.75 200.632 229.899C203.203 229.049 205.935 227.299 208.443 225.887C210.95 224.475 213.489 222.966 216.077 221.618C221.461 218.81 227.246 216.563 233.418 216.708C233.723 216.724 233.723 216.242 233.418 216.226C222.553 215.969 213.377 222.758 204.232 227.668C203.026 228.31 201.805 229 200.503 229.434C198.864 229.979 197.128 229.979 195.425 229.803C192.371 229.482 189.35 229 186.296 228.679C179.932 228.038 173.551 227.684 167.171 227.508C154.346 227.155 141.52 227.444 128.695 227.347C115.87 227.251 102.916 226.834 90.0431 226.112C82.8109 225.694 75.5894 225.186 68.3786 224.587L63.0267 224.122C61.5642 223.993 59.6678 223.737 58.2696 224.362C56.8713 224.988 57.0642 227.107 57.0803 228.471L57.482 228.31C55.5213 225.919 53.0945 223.929 50.507 222.228C47.9194 220.527 44.8176 219.275 41.8605 217.911C40.2854 217.173 39.0479 216.066 37.6818 215.039C36.5232 214.154 35.2175 213.48 33.8247 213.049C31.038 212.2 28.0452 212.325 25.3388 213.402C25.0496 213.514 25.1781 213.979 25.4674 213.867Z" fill="#FBE79C"/>
<path d="M18.2528 240.222C22.1791 240.11 26.1073 240.368 29.9851 240.992C33.7619 241.618 37.4744 242.533 41.1709 243.512C44.8674 244.491 48.2424 245.406 51.7781 246.32C53.3532 246.722 54.9282 247.235 56.2139 248.262C57.1555 248.998 57.8551 249.999 58.2229 251.135C58.3148 251.452 58.3899 251.773 58.4479 252.098C58.4961 252.483 58.4639 252.868 58.5282 253.253C58.5925 253.638 58.7693 253.959 58.8979 254.28C58.9197 254.341 58.9623 254.392 59.0182 254.424C59.0741 254.457 59.1396 254.468 59.2032 254.457C61.4372 254.072 63.639 254.794 65.7444 255.468C67.8497 256.142 70.0837 256.848 72.398 256.736C74.7123 256.623 77.3641 255.901 79.8552 255.564C82.3377 255.241 84.8451 255.149 87.3446 255.291C90.1594 255.457 92.9494 255.914 95.6697 256.655C95.959 256.736 96.0875 256.27 95.7982 256.19C90.9669 254.867 85.9321 254.448 80.9481 254.954C78.3927 255.227 75.9016 255.901 73.3623 256.174C72.11 256.321 70.8428 256.283 69.6015 256.062C68.4842 255.83 67.3835 255.525 66.3069 255.147C63.9604 254.393 61.5658 253.574 59.0747 253.991L59.3639 254.152C59.2514 253.847 59.0425 253.51 58.9943 253.189C58.9461 252.868 58.9782 252.579 58.9461 252.29C58.912 251.96 58.8529 251.633 58.7693 251.311C58.4958 250.247 57.9471 249.273 57.1782 248.487C55.9246 247.203 54.221 246.481 52.5174 246.015C49.3835 245.165 46.2174 244.346 43.0673 243.512C39.2102 242.485 35.369 241.474 31.4476 240.768C27.0969 239.969 22.6748 239.625 18.2528 239.741C18.1889 239.741 18.1275 239.766 18.0823 239.811C18.0371 239.856 18.0117 239.917 18.0117 239.981C18.0117 240.045 18.0371 240.106 18.0823 240.152C18.1275 240.197 18.1889 240.222 18.2528 240.222Z" fill="#FBE79C"/>
<path d="M45.0602 258.081C42.3305 245.405 42.1448 232.314 44.5138 219.566C44.7604 218.083 45.0877 216.616 45.4942 215.169C45.8973 213.895 46.4137 212.66 47.0371 211.478C48.3416 209.107 50.0121 206.957 51.9871 205.106C52.646 204.481 53.305 203.935 53.8353 203.181C54.388 202.413 54.8874 201.609 55.33 200.773C56.0532 199.49 56.7122 198.174 57.355 196.842C57.8372 195.847 58.3836 194.884 58.8657 193.889C59.5247 192.541 60.1354 191.177 60.6979 189.781C61.8585 186.935 62.8197 184.013 63.5747 181.034C63.7676 180.28 63.9444 179.526 64.1212 178.771C64.1854 178.467 63.7194 178.338 63.6551 178.643C62.3228 184.734 60.1483 190.611 57.1943 196.103C56.5836 197.227 56.0693 198.398 55.4746 199.522C55.0086 200.388 54.5264 201.255 54.0121 202.073C53.4978 202.892 53.1603 203.389 52.5978 203.903C50.6049 205.7 48.7889 207.658 47.3746 209.953C45.959 212.253 44.9632 214.785 44.4335 217.431C41.8199 230.089 41.7107 243.135 44.112 255.835C44.2567 256.621 44.4335 257.407 44.5942 258.21C44.6585 258.515 45.1245 258.386 45.0602 258.081Z" fill="#597294"/>
<path d="M90.9769 169.669C87.634 173.873 87.5858 179.522 88.2929 184.594C88.7108 187.723 89.3858 190.804 89.6269 193.95C89.8253 196.938 89.7176 199.938 89.3054 202.904C88.5179 208.923 86.7822 214.78 85.3679 220.686C83.9355 226.673 82.9736 232.763 82.4911 238.9C81.9768 245.095 81.8321 251.322 81.7196 257.532C81.7196 258.335 81.7036 259.121 81.6875 259.907C81.6875 259.971 81.7129 260.033 81.7581 260.078C81.8033 260.123 81.8646 260.148 81.9286 260.148C81.9925 260.148 82.0538 260.123 82.099 260.078C82.1443 260.033 82.1696 259.971 82.1696 259.907C82.2661 253.713 82.3625 247.518 82.7804 241.34C83.1982 235.161 83.9536 229.063 85.3036 223.045C86.6536 217.027 88.3572 211.442 89.3858 205.536C89.9043 202.687 90.1838 199.799 90.2215 196.902C90.2215 193.869 89.7876 190.9 89.2894 187.932C88.4054 182.571 87.4733 176.602 90.2376 171.611C90.5627 171.05 90.9279 170.514 91.3305 170.006C91.5233 169.765 91.1858 169.428 90.9769 169.669Z" fill="#597294"/>
<path d="M117.077 259.255L117.126 236.482L117.174 213.822V207.435C117.174 205.317 117.158 203.199 117.254 201.08C117.27 200.775 116.788 200.775 116.772 201.08C116.676 202.958 116.692 204.852 116.692 206.729V223.804L116.643 246.464L116.611 259.255C116.611 259.319 116.637 259.38 116.682 259.425C116.727 259.47 116.788 259.495 116.852 259.495C116.916 259.495 116.978 259.47 117.023 259.425C117.068 259.38 117.093 259.319 117.093 259.255H117.077Z" fill="#597294"/>
<path d="M169.824 256.51C169.481 249.32 169.224 242.131 169.052 234.941C168.881 227.752 168.779 220.557 168.747 213.356C168.715 206.167 168.758 198.972 168.876 191.772C168.94 188.177 169.085 184.598 169.068 181.003C169.068 179.559 169.068 178.083 168.843 176.654C168.686 175.775 168.471 174.906 168.201 174.054C166.899 169.786 165.051 165.693 163.315 161.601C163.17 161.248 163.009 160.911 162.881 160.558C162.752 160.205 162.286 160.398 162.415 160.686C164.038 164.65 165.822 168.534 167.22 172.594C167.558 173.573 167.879 174.568 168.12 175.563C168.358 176.569 168.492 177.596 168.522 178.628C168.699 182.175 168.506 185.738 168.442 189.284C168.313 196.495 168.249 203.69 168.249 210.869C168.249 218.048 168.34 225.211 168.522 232.357C168.683 239.515 168.913 246.672 169.213 253.83C169.261 254.728 169.293 255.611 169.342 256.51C169.358 256.815 169.84 256.815 169.824 256.51Z" fill="#597294"/>
<path d="M194.511 258.451C195.892 253.149 196.807 247.736 197.243 242.274C197.669 236.825 197.636 231.349 197.146 225.905C196.68 220.513 195.957 215.121 195.764 209.713C195.665 207.035 195.751 204.354 196.021 201.689C196.337 199.004 196.924 196.359 197.773 193.793C198.544 191.37 199.155 188.962 198.962 186.395C198.786 184.228 198.014 182.238 197.082 180.296C196.825 179.735 196.536 179.189 196.262 178.627C196.118 178.355 195.7 178.595 195.844 178.884C196.857 180.874 197.886 182.912 198.303 185.127C198.769 187.614 198.4 190.07 197.677 192.461C197.291 193.713 196.873 194.948 196.536 196.216C196.201 197.511 195.938 198.824 195.748 200.148C195.373 202.719 195.207 205.317 195.25 207.915C195.298 213.275 195.973 218.619 196.487 223.947C197.002 229.275 197.227 234.732 196.921 240.14C196.603 245.591 195.807 251.004 194.543 256.316C194.382 256.99 194.221 257.648 194.044 258.322C193.964 258.611 194.43 258.74 194.511 258.451Z" fill="#597294"/>
<path d="M221.559 258.239C223.106 254.422 223.658 250.275 223.166 246.187C222.684 242.207 221.093 238.484 220.466 234.536C220.161 232.642 220.113 230.684 220.643 228.823C220.916 227.876 221.43 227.042 221.736 226.111C222.041 225.18 221.864 224.297 221.414 223.447C220.964 222.596 220.37 221.714 219.888 220.831C219.405 219.948 218.923 219.017 218.489 218.087C217.62 216.246 216.879 214.348 216.271 212.406C215.966 211.443 215.677 210.464 215.468 209.485C215.323 208.779 215.307 208.041 215.13 207.334C214.938 206.675 214.523 206.103 213.957 205.714C213.642 205.494 213.278 205.356 212.896 205.312C212.559 205.264 212.221 205.28 211.884 205.232C211.464 205.145 211.088 204.912 210.823 204.574C210.614 204.349 210.277 204.686 210.486 204.911C210.749 205.241 211.1 205.492 211.498 205.633C211.824 205.715 212.159 205.758 212.495 205.762C212.859 205.757 213.219 205.845 213.539 206.018C213.884 206.208 214.172 206.485 214.375 206.821C214.729 207.366 214.777 208.024 214.857 208.65C214.987 209.546 215.18 210.43 215.436 211.298C216.535 215.164 218.134 218.87 220.193 222.323C220.675 223.142 221.35 223.992 221.414 224.955C221.479 225.918 220.868 226.865 220.514 227.748C219.807 229.481 219.646 231.358 219.807 233.204C220.145 237.12 221.704 240.795 222.443 244.63C223.203 248.657 222.921 252.811 221.623 256.698C221.463 257.18 221.286 257.645 221.093 258.111C220.9 258.576 221.446 258.528 221.559 258.239Z" fill="#597294"/>
<path d="M21.7234 225.216C27.2841 225.441 32.6521 227.03 37.795 229.1C40.4307 230.159 43.0182 231.347 45.5897 232.55C47.8076 233.577 50.0576 234.572 52.0665 236.001C53.2739 236.829 54.3333 237.855 55.2005 239.034C56.0844 240.285 56.7434 241.682 57.5952 242.965C57.6257 243.02 57.6764 243.061 57.7364 243.079C57.7964 243.097 57.861 243.091 57.9166 243.062C61.6452 241.008 65.9685 241.008 70.0989 241.296C74.6793 241.617 79.2436 242.051 83.808 242.388C93.0652 243.062 102.333 243.613 111.612 244.041C120.89 244.469 130.282 244.758 139.785 244.907C149.091 245.068 158.412 245.004 167.718 245.068C178.164 245.132 188.627 245.421 199.009 246.705C199.315 246.737 199.315 246.255 199.009 246.223C180.302 243.928 161.402 244.731 142.598 244.474C123.794 244.217 104.91 243.399 86.1062 242.067C80.9151 241.698 75.74 241.248 70.565 240.847C66.1935 240.526 61.6131 240.462 57.6755 242.645L57.997 242.725C56.5505 240.526 55.5219 238.215 53.4648 236.466C51.4076 234.717 49.3183 233.754 47.0844 232.711C41.9254 230.287 36.7182 227.864 31.2378 226.307C28.1384 225.415 24.9453 224.888 21.7234 224.735C21.4019 224.719 21.418 225.2 21.7234 225.216Z" fill="#597294"/>
<path d="M199.251 246.526C199.91 244.006 200.826 241.455 202.497 239.417C203.686 237.94 205.229 236.865 206.853 235.902C209.762 234.185 212.879 232.949 216.062 231.842C219.244 230.734 222.78 229.483 226.251 228.712C229.571 227.962 232.977 227.665 236.376 227.83L237.678 227.926C237.983 227.958 237.983 227.477 237.678 227.445C234.23 227.144 230.757 227.328 227.36 227.99C223.808 228.68 220.401 229.836 216.978 231.007C213.554 232.179 210.372 233.334 207.319 235.084C205.615 236.046 203.912 237.122 202.578 238.598C200.874 240.46 199.845 242.803 199.122 245.194C198.994 245.579 198.881 245.98 198.785 246.397C198.704 246.686 199.17 246.815 199.251 246.526Z" fill="#597294"/>
<path d="M32.7001 199.504C35.3655 199.438 38.0037 200.051 40.3662 201.285C42.7287 202.537 44.368 204.382 46.1681 206.276C47.4699 207.656 49.1895 209.309 51.2467 209.181C52.4681 209.117 53.6574 207.913 54.8628 208.587C56.0682 209.261 56.4057 210.208 57.145 211.01C58.7039 212.679 61.0504 213.032 63.22 213.193C66.3379 213.433 69.4558 213.61 72.5737 213.819L91.7793 215.102L110.969 216.386C117.381 216.82 123.746 217.285 130.174 216.868C136.603 216.451 142.742 216.097 149.075 216.274C155.407 216.451 161.53 216.884 167.766 217.189C174.002 217.494 180.318 217.606 186.586 217.141C189.15 216.928 191.699 216.563 194.22 216.049C196.309 215.648 198.43 215.343 200.52 215.937C201.725 216.274 202.818 216.884 203.847 217.59C204.104 217.766 204.345 217.349 204.088 217.173C202.304 215.937 200.343 215.151 198.157 215.119C195.971 215.086 193.979 215.632 191.921 216.017C185.943 217.125 179.675 217.06 173.6 216.916C160.967 216.611 148.351 215.167 135.719 216.001C132.521 216.21 129.339 216.499 126.124 216.579C122.91 216.659 119.647 216.483 116.401 216.274L97.0347 214.974L77.8452 213.69L68.1701 213.048L63.4932 212.727C62.1593 212.631 60.8093 212.519 59.5557 212.037C58.3021 211.556 57.4825 210.705 56.6628 209.678C56.1003 208.988 55.4735 208.202 54.5735 207.945C53.4003 207.624 52.4842 208.571 51.3431 208.699C50.202 208.828 48.9806 208.154 48.0645 207.415C46.1841 205.891 44.8341 203.837 42.9055 202.344C40.9509 200.839 38.6734 199.806 36.2519 199.327C35.0836 199.09 33.8918 198.987 32.7001 199.022C32.6361 199.022 32.5748 199.048 32.5296 199.093C32.4844 199.138 32.459 199.199 32.459 199.263C32.459 199.327 32.4844 199.388 32.5296 199.433C32.5748 199.478 32.6361 199.504 32.7001 199.504Z" fill="#597294"/>
<path d="M225.753 200.872L225.881 200.166C225.914 200.006 225.785 199.797 225.592 199.877C223.567 200.663 221.542 201.418 219.533 202.236C217.524 203.055 215.981 203.809 214.438 205.029C212.896 206.248 211.674 207.949 210.646 209.666C210.421 210.036 210.196 210.421 209.954 210.79C209.715 211.104 209.457 211.404 209.183 211.689C208.614 212.268 208.013 212.814 207.383 213.325C206.001 214.465 204.538 215.62 203.751 217.273C203.622 217.546 204.04 217.787 204.169 217.514C204.86 216.07 206.097 215.011 207.303 214.016C208.508 213.021 209.778 211.993 210.629 210.645C211.674 208.944 212.671 207.243 214.165 205.895C215.66 204.547 217.331 203.697 219.083 202.942C221.269 202.012 223.503 201.193 225.721 200.343L225.415 200.038L225.303 200.744C225.239 201.033 225.705 201.177 225.753 200.872Z" fill="#597294"/>
<path d="M38.373 191.031C41.6837 189.538 45.3159 188.8 48.932 188.639C52.6013 188.472 56.2707 188.967 59.7643 190.1C60.6181 190.384 61.4551 190.716 62.2714 191.095C63.1715 191.512 64.0554 191.977 64.9875 192.298C65.8417 192.603 66.7522 192.718 67.6554 192.635C68.4426 192.539 69.2114 192.328 69.9376 192.01C71.4323 191.384 72.7983 190.485 74.293 189.859C75.0223 189.537 75.7979 189.331 76.5912 189.249C77.5877 189.169 78.5681 189.378 79.5323 189.666C80.4966 189.955 81.5092 190.373 82.5217 190.678C83.5358 190.98 84.566 191.227 85.6074 191.416C87.6842 191.8 89.7963 191.962 91.9075 191.897C92.4378 191.881 92.9521 191.849 93.4664 191.801C93.9807 191.753 93.7718 191.287 93.4664 191.319C89.1592 191.673 84.9163 191.047 80.8502 189.618C79.902 189.281 78.9377 188.944 77.9413 188.8C77.0701 188.689 76.1858 188.749 75.3377 188.976C73.7626 189.41 72.3483 190.292 70.8858 191.031C69.4233 191.769 67.8322 192.411 66.1608 192.106C65.1483 191.929 64.2322 191.496 63.3161 191.063C62.4 190.629 61.6447 190.276 60.7929 189.955C57.3696 188.672 53.6731 188.11 50.0088 188.142C46.3445 188.174 42.6802 188.784 39.2891 190.132L38.1319 190.613C37.8587 190.742 38.0998 191.159 38.373 191.031Z" fill="#597294"/>
<path d="M146.231 191.561C150.635 191.144 155.07 191.497 159.458 191.93C163.845 192.363 168.137 192.829 172.508 192.957C176.905 193.064 181.304 192.93 185.687 192.556C187.824 192.363 189.946 192.139 192.083 191.85C193.144 191.705 194.205 191.529 195.265 191.368C196.326 191.208 197.339 191.096 198.383 191.208C199.83 191.368 201.292 192.042 202.578 192.7C203.242 193.01 203.863 193.404 204.426 193.872C204.78 194.177 205.214 194.594 205.166 195.124C205.149 195.348 205.439 195.412 205.583 195.284C206.403 194.61 207.255 193.615 208.348 193.374C208.942 193.262 209.569 193.422 210.116 193.663C210.662 193.904 210.951 194.257 211.273 194.674C211.538 195.051 211.857 195.386 212.221 195.669C212.676 195.948 213.198 196.098 213.732 196.103C214.985 196.215 216.223 195.862 217.428 195.557C218.634 195.252 220.289 194.819 221.703 195.284C222.009 195.38 222.137 194.915 221.832 194.819C219.228 193.984 216.737 195.669 214.133 195.637C213.507 195.637 212.832 195.557 212.333 195.156C211.835 194.755 211.707 194.401 211.385 194.032C211.013 193.616 210.545 193.295 210.022 193.096C209.499 192.898 208.936 192.828 208.38 192.893C207.126 193.069 206.162 194.177 205.246 194.947L205.648 195.124C205.744 194.064 204.539 193.294 203.767 192.813C202.649 192.145 201.464 191.596 200.232 191.176C199.549 190.925 198.835 190.768 198.11 190.71C197.065 190.63 196.021 190.775 194.992 190.935C192.774 191.272 190.573 191.577 188.339 191.818C183.866 192.304 179.369 192.535 174.871 192.508C170.354 192.476 165.87 192.123 161.386 191.657C156.356 191.128 151.294 190.598 146.231 191.079C145.926 191.112 145.926 191.593 146.231 191.561Z" fill="#597294"/>
<path d="M50.1221 257.47L50.0257 242.128C49.9935 237.105 49.9614 232.05 50.4596 227.027C50.7168 224.491 51.0864 221.987 51.4721 219.468C51.8578 216.948 52.1793 214.589 52.6132 212.166C53.3364 207.945 54.3168 203.789 55.1043 199.568C55.8918 195.347 56.374 191.031 56.3418 186.714C56.3418 186.12 56.3258 185.526 56.3097 184.916C56.2936 184.611 55.8115 184.611 55.8275 184.916C55.9656 189.361 55.6424 193.809 54.8632 198.188C54.14 202.344 53.1596 206.469 52.4043 210.625C51.9543 213 51.6168 215.392 51.2471 217.799C50.8775 220.206 50.4918 222.71 50.1864 225.181C49.5757 230.204 49.5114 235.227 49.5275 240.266L49.6239 255.592V257.47C49.6239 257.534 49.6493 257.595 49.6945 257.64C49.7397 257.685 49.801 257.711 49.865 257.711C49.9289 257.711 49.9902 257.685 50.0354 257.64C50.0806 257.595 50.106 257.534 50.106 257.47H50.1221Z" fill="#C85D69"/>
<path d="M75.1466 260.612C75.4037 254.369 75.8538 248.126 76.4484 241.9C77.0431 235.673 77.7823 229.414 78.6181 223.172C79.4538 216.929 80.3859 210.702 81.3663 204.475C82.3467 198.249 83.3592 192.118 84.3717 185.94C84.8753 182.827 85.3842 179.708 85.8985 176.584C86.3646 173.775 86.7985 170.919 87.7949 168.223C88.0552 167.532 87.8736 168.259 88.2128 167.603C88.3575 167.33 87.9396 167.089 87.7949 167.362C86.4931 169.866 86.3324 171.224 85.8503 173.984C85.3039 177.049 84.8378 180.146 84.3235 183.212C83.311 189.454 82.2824 195.697 81.286 201.956C80.2895 208.215 79.3413 214.441 78.4734 220.7C77.6056 226.959 76.8502 233.153 76.2073 239.396C75.5645 245.639 75.0662 251.978 74.7609 258.285L74.6645 260.612C74.6484 260.933 75.1305 260.933 75.1466 260.612Z" fill="#C85D69"/>
<path d="M110.423 258.93C109.796 254.469 109.603 249.959 109.635 245.466C109.667 240.972 109.924 236.511 110.246 232.033C110.567 227.556 110.937 223.046 111.178 218.537C111.419 214.027 111.548 209.646 111.387 205.201C111.235 200.777 110.702 196.374 109.796 192.041C109.683 191.512 109.555 190.966 109.426 190.437C109.298 189.907 108.896 190.26 108.96 190.565C109.995 194.916 110.625 199.354 110.84 203.821C111.065 208.25 110.985 212.711 110.776 217.141C110.567 221.57 110.181 226.144 109.86 230.637C109.539 235.131 109.249 239.592 109.169 244.069C109.089 248.547 109.217 253.04 109.748 257.486C109.812 257.999 109.876 258.529 109.956 259.058C110.037 259.588 110.455 259.235 110.423 258.93Z" fill="#C85D69"/>
<path d="M164.087 257.555C163.653 251.2 163.203 244.844 162.85 238.489C162.496 232.134 162.239 225.779 162.159 219.408C162.078 213.037 162.175 206.698 162.528 200.343C162.882 193.988 163.669 187.986 164.168 181.807C164.666 175.629 164.778 169.739 163.525 163.833C163.364 163.095 163.187 162.373 162.994 161.651C162.898 161.346 162.432 161.474 162.528 161.779C164.135 167.637 164.232 173.767 163.83 179.801C163.428 185.835 162.593 192.03 162.191 198.16C161.789 204.291 161.612 210.871 161.644 217.226C161.676 223.581 161.918 229.888 162.255 236.211C162.593 242.534 163.01 248.857 163.444 255.179C163.509 255.982 163.557 256.768 163.605 257.555C163.637 257.86 164.119 257.86 164.087 257.555Z" fill="#C85D69"/>
<path d="M189.832 257.164C189.639 251.708 190.78 246.348 191.713 240.988C192.163 238.34 192.58 235.692 192.741 233.012C192.91 230.343 192.797 227.665 192.404 225.02C191.6 219.547 189.897 214.219 189.527 208.683C189.334 205.81 189.43 202.938 189.382 200.065C189.354 197.304 189.058 194.552 188.498 191.848C187.373 186.681 185.38 181.577 185.477 176.217C185.493 175.575 185.525 175.917 185.605 175.276C185.638 174.971 185.155 174.971 185.123 175.276C184.513 180.571 186.232 184.707 187.502 189.762C188.193 192.458 188.691 195.17 188.82 197.947C188.948 200.723 188.868 203.644 188.932 206.484C189.017 209.249 189.328 212.003 189.864 214.717C190.379 217.413 191.022 220.077 191.536 222.757C192.05 225.437 192.388 228.245 192.339 231.022C192.291 233.798 191.954 236.494 191.52 239.19C190.668 244.502 189.447 249.782 189.334 255.174C189.318 255.832 189.318 256.506 189.35 257.164C189.35 257.228 189.375 257.289 189.421 257.334C189.466 257.38 189.527 257.405 189.591 257.405C189.655 257.405 189.716 257.38 189.762 257.334C189.807 257.289 189.832 257.228 189.832 257.164Z" fill="#C85D69"/>
<path d="M205.503 198.732C205.699 198.363 205.969 198.038 206.295 197.776C206.621 197.514 206.996 197.321 207.399 197.207C208.235 196.967 209.119 197.031 209.954 197.224C211.77 197.625 213.506 198.572 214.953 199.727C215.499 200.16 216.062 200.642 216.463 201.236C216.771 201.711 217.03 202.216 217.235 202.744C217.556 203.45 217.846 204.172 218.135 204.878C218.697 206.291 219.26 207.703 220.015 209.019C220.771 210.335 221.429 211.218 222.185 212.277C223.68 214.331 225.303 216.369 226.251 218.744C226.72 219.839 226.955 221.02 226.942 222.21C226.91 223.655 226.283 224.971 226.155 226.415C226.085 227.114 226.225 227.818 226.556 228.437C226.878 228.999 227.328 229.48 227.73 229.978C228.16 230.455 228.484 231.018 228.678 231.631C228.84 232.204 228.9 232.802 228.855 233.396C228.678 235.916 227.312 238.178 227.167 240.698C227.103 242.078 227.537 243.314 228.051 244.566C228.565 245.817 229.144 247.31 228.903 248.85C228.752 249.669 228.554 250.478 228.308 251.274L227.617 253.729L226.235 258.72L225.576 261.127C225.558 261.159 225.547 261.194 225.545 261.231C225.542 261.267 225.548 261.304 225.562 261.338C225.575 261.371 225.597 261.402 225.624 261.426C225.651 261.451 225.684 261.468 225.719 261.479C225.754 261.489 225.791 261.49 225.827 261.484C225.863 261.478 225.897 261.463 225.927 261.442C225.956 261.42 225.981 261.392 225.998 261.36C226.015 261.328 226.025 261.292 226.026 261.256L228.871 251.033C229.289 249.524 229.658 248.032 229.256 246.475C228.855 244.919 228.131 243.811 227.794 242.399C227.167 239.751 228.614 237.199 229.144 234.664C229.385 233.524 229.465 232.305 229.031 231.181C228.787 230.602 228.45 230.066 228.035 229.593C227.617 229.079 227.135 228.566 226.846 227.94C226.171 226.447 227.103 224.778 227.328 223.286C227.513 222.079 227.431 220.846 227.087 219.675C226.38 217.22 224.821 215.085 223.342 213.047C222.555 211.956 221.751 210.864 221.012 209.725C220.216 208.452 219.538 207.109 218.987 205.713C218.392 204.253 217.846 202.776 217.106 201.38C216.801 200.77 216.303 200.257 215.804 199.807C214.371 198.534 212.692 197.567 210.87 196.967C209.247 196.453 207.303 196.277 205.92 197.448C205.59 197.745 205.308 198.092 205.085 198.475C204.94 198.748 205.358 198.989 205.503 198.732Z" fill="#C85D69"/>
<path d="M129.805 210.596C129.323 213.71 128.857 216.839 128.728 219.984C128.6 223.13 128.937 226.243 129.178 229.389C129.676 235.656 129.773 241.949 129.468 248.229C129.307 251.792 129.001 255.322 128.584 258.869C128.551 259.174 129.034 259.174 129.066 258.869C129.807 252.622 130.156 246.335 130.11 240.045C130.1 236.899 129.982 233.759 129.757 230.624C129.532 227.479 129.13 224.349 129.162 221.204C129.21 217.689 129.741 214.207 130.271 210.725C130.319 210.42 129.853 210.291 129.805 210.596Z" fill="#C85D69"/>
<path d="M18.284 234.716C21.0644 234.78 23.8448 234.94 26.6091 235.197C29.3734 235.454 32.1217 235.823 34.8539 236.272C37.586 236.722 40.3021 237.3 42.9861 237.958C45.3119 238.495 47.5948 239.203 49.8165 240.076C51.9862 240.943 54.0755 242.082 55.8594 243.606L56.5344 244.2C56.7594 244.409 57.097 244.072 56.872 243.863C55.1362 242.226 53.0791 240.991 50.9094 240.012C48.7397 239.033 46.4093 238.327 44.079 237.733C41.4271 237.059 38.7271 236.481 36.0271 236C33.3271 235.518 30.5145 235.117 27.7341 234.828C24.9538 234.539 22.1412 234.347 19.3287 234.266L18.284 234.234C18.2201 234.234 18.1588 234.26 18.1136 234.305C18.0684 234.35 18.043 234.411 18.043 234.475C18.043 234.539 18.0684 234.6 18.1136 234.645C18.1588 234.69 18.2201 234.716 18.284 234.716Z" fill="#C85D69"/>
<path d="M28.3621 207.674L37.0729 210.514C39.8051 211.397 42.5694 212.215 45.2373 213.258C47.9052 214.302 50.0588 215.521 51.9713 217.367C53.8183 219.156 55.2503 221.327 56.1665 223.728C57.0828 226.129 57.4612 228.702 57.2749 231.265C57.2588 231.393 57.3874 231.489 57.516 231.505C76.2233 231.922 94.9467 232.292 113.654 232.773C132.361 233.254 150.796 233.993 169.342 235.196C179.757 235.881 190.166 236.716 200.569 237.7C200.875 237.732 200.875 237.25 200.569 237.218C182.055 235.453 163.508 234.217 144.929 233.383C126.351 232.548 107.643 232.147 88.9842 231.73L57.516 231.024L57.7571 231.265C58.0874 226.487 56.5099 221.773 53.3695 218.153C49.7052 213.9 44.3051 212.36 39.1461 210.675L28.4907 207.208C28.1853 207.112 28.0567 207.577 28.3621 207.674Z" fill="#C85D69"/>
<path d="M203.14 222.841C203.172 222.843 203.203 222.851 203.231 222.865C203.26 222.879 203.285 222.898 203.306 222.922C203.327 222.946 203.343 222.974 203.353 223.004C203.363 223.034 203.367 223.066 203.365 223.097C203.333 223.145 203.365 223.145 203.365 223.097L203.413 223.033H203.429L203.461 222.985L203.911 222.487C204.377 221.99 204.876 221.509 205.358 221.027C206.37 220.048 207.383 219.085 208.428 218.154L208.636 217.978L208.717 217.898H208.749C209.185 217.637 209.636 217.401 210.099 217.192C211.385 216.534 212.703 215.908 214.02 215.33C216.684 214.174 219.416 213.183 222.201 212.361C224.972 211.542 227.79 210.888 230.638 210.403L231.731 210.227C232.037 210.179 231.908 209.713 231.603 209.761C225.657 210.661 219.851 212.316 214.326 214.688C212.944 215.266 211.578 215.908 210.244 216.582L209.231 217.095C208.993 217.202 208.762 217.326 208.54 217.464C208.41 217.552 208.286 217.648 208.17 217.753C207.11 218.684 206.081 219.679 205.069 220.658C204.554 221.155 204.04 221.669 203.558 222.183C203.397 222.343 203.236 222.52 203.092 222.696C202.983 222.805 202.91 222.945 202.883 223.097C202.883 223.165 202.91 223.231 202.958 223.279C203.006 223.327 203.072 223.354 203.14 223.354C203.445 223.386 203.445 222.905 203.14 222.873V222.841Z" fill="#C85D69"/>
<path d="M54.6059 201.425C55.5058 201.261 56.4319 201.316 57.3059 201.585C58.0068 201.832 58.6633 202.19 59.2506 202.645C60.5042 203.543 61.6453 204.554 63.1399 205.036C64.134 205.361 65.1871 205.465 66.2257 205.341C67.4953 205.18 68.7007 204.747 69.9382 204.458C71.2354 204.18 72.5763 204.175 73.8758 204.442C75.1936 204.715 76.4472 205.164 77.7169 205.565C80.2815 206.375 82.9506 206.808 85.6402 206.849C88.3884 206.897 91.1206 206.609 93.8367 206.255C96.5528 205.902 98.9153 205.485 101.455 205.196C103.627 204.953 105.81 204.83 107.996 204.827C112.271 204.859 116.835 205.341 120.644 207.411C121.073 207.657 121.491 207.914 121.898 208.181C122.155 208.358 122.396 207.941 122.139 207.764C118.603 205.357 114.135 204.603 109.924 204.394C105.28 204.185 100.715 204.779 96.1349 205.437C90.6867 206.239 85.0134 206.994 79.5812 205.614C77.0097 204.956 74.5347 203.736 71.8347 203.752C69.1346 203.768 66.965 205.212 64.3935 204.827C62.6899 204.586 61.3721 203.656 60.0381 202.629C58.7042 201.602 57.5149 200.911 55.9077 200.863C55.4289 200.847 54.9497 200.88 54.4773 200.96C54.172 201.008 54.3005 201.457 54.6059 201.425Z" fill="#C85D69"/>
<path d="M135.157 206.433C136.99 205.502 139.143 205.759 141.088 206.16C142.133 206.369 143.145 206.625 144.174 206.85C145.202 207.075 146.279 207.251 147.324 207.396C152.193 208.022 157.127 208.006 162.013 207.797C166.899 207.588 171.817 207.203 176.719 207.091C181.62 206.978 186.667 207.075 191.649 207.123L199.106 207.187C200.038 207.187 200.955 207.171 201.887 207.219C202.819 207.267 203.43 207.348 204.105 207.717C204.408 207.88 204.655 208.132 204.812 208.439C204.94 208.712 205.358 208.471 205.23 208.198C204.555 206.818 202.61 206.754 201.308 206.722C198.962 206.674 196.631 206.674 194.301 206.658C189.206 206.609 184.112 206.513 179.017 206.561C173.922 206.609 168.972 206.978 163.942 207.235C158.911 207.492 153.929 207.604 148.963 207.091C147.758 206.978 146.536 206.818 145.347 206.609C144.158 206.401 143.29 206.144 142.261 205.919C140.3 205.47 138.195 205.037 136.202 205.534C135.753 205.642 135.321 205.81 134.916 206.032C134.627 206.16 134.884 206.577 135.157 206.433Z" fill="#C85D69"/>
<path d="M198.463 250.54C200.793 249.288 203.027 247.844 205.277 246.432C207.527 245.019 209.938 243.559 212.397 242.388C213.624 241.811 214.879 241.297 216.158 240.847C217.556 240.349 218.97 239.884 220.384 239.483C226.134 237.825 232.055 236.834 238.031 236.53L239.108 236.482C239.413 236.466 239.429 235.984 239.108 236C233.11 236.224 227.158 237.128 221.365 238.696C218.538 239.45 215.767 240.399 213.072 241.537C210.613 242.612 208.283 244.024 205.984 245.437C203.686 246.849 201.388 248.357 199.009 249.689L198.222 250.139C197.949 250.283 198.19 250.7 198.463 250.54Z" fill="#C85D69"/>
<path d="M163.796 184.562C164.182 185.085 164.679 185.517 165.251 185.827C165.823 186.138 166.457 186.319 167.107 186.359C167.762 186.414 168.421 186.321 169.035 186.086C169.71 185.813 170.224 185.332 170.835 184.947C171.141 184.754 171.494 184.578 171.864 184.658C172.156 184.733 172.413 184.909 172.587 185.155C173.005 185.701 173.246 186.343 173.744 186.824C174.741 187.803 176.187 188.156 177.553 188.108C179.225 188.06 180.8 187.354 182.31 186.712C183.938 185.972 185.657 185.449 187.421 185.155C189.192 184.899 190.991 184.915 192.757 185.204C194.137 185.471 195.483 185.885 196.775 186.439C198.189 187.001 199.571 187.627 200.953 188.221C202.336 188.814 203.589 189.344 204.955 189.713C205.246 189.8 205.541 189.869 205.839 189.922C206.145 189.986 206.273 189.521 205.968 189.456C204.65 189.2 203.38 188.718 202.159 188.205C200.937 187.691 199.362 187.001 197.964 186.407C196.566 185.813 195.409 185.332 194.075 184.995C192.437 184.587 190.747 184.424 189.06 184.514C187.288 184.602 185.538 184.953 183.869 185.557C182.23 186.15 180.687 187.001 179 187.418C177.65 187.755 176.139 187.755 174.885 187.065C174.3 186.743 173.817 186.265 173.487 185.685C173.166 185.139 172.828 184.514 172.201 184.257C171.575 184 170.787 184.369 170.208 184.786C169.63 185.204 169.132 185.589 168.441 185.765C167.822 185.922 167.175 185.935 166.55 185.801C165.926 185.667 165.341 185.392 164.84 184.995C164.598 184.799 164.382 184.572 164.198 184.321C164.021 184.08 163.603 184.321 163.796 184.562Z" fill="#C85D69"/>
<path d="M16.9186 256.759C18.0757 254.705 19.2168 252.635 20.1007 250.452C21.0053 248.234 21.527 245.879 21.6436 243.487C21.7722 241.032 21.5793 238.577 21.5954 236.121C21.614 233.922 21.7535 231.726 22.0133 229.542C22.5251 225.177 23.4781 220.876 24.8579 216.703C26.2538 212.489 28.0233 208.407 30.1455 204.506C32.2718 200.618 34.7121 196.91 37.442 193.417C38.7759 191.732 40.1259 190.031 41.7331 188.587C43.3403 187.142 45.1403 185.955 47.2457 185.746C47.7491 185.709 48.255 185.719 48.7564 185.778C49.0091 185.787 49.2621 185.771 49.5118 185.73C49.8171 185.698 50.1064 185.794 50.4118 185.778C50.7411 185.742 51.0618 185.65 51.36 185.506C51.9868 185.233 52.5332 184.783 53.1118 184.43C53.3567 184.259 53.6367 184.144 53.9314 184.093C54.269 184.045 54.5261 184.222 54.7993 184.398C55.7154 185.024 56.6958 185.65 57.7886 185.907C58.2822 186.023 58.7948 186.035 59.2932 185.941C59.7916 185.847 60.2646 185.65 60.6815 185.361C61.5494 184.799 62.3047 184.238 63.3815 184.27C64.4583 184.302 65.1012 184.607 65.9048 184.944C67.4959 185.618 69.1834 186.549 70.9834 186.196C72.7834 185.843 74.0852 184.462 75.7727 183.917C76.1432 183.784 76.5372 183.729 76.9299 183.756C77.4603 183.804 77.8621 184.077 78.3121 184.302C78.6927 184.516 79.1382 184.584 79.5656 184.494C80.0157 184.366 80.3692 184.061 80.7389 183.804C81.7835 183.082 82.9085 183.483 84.0496 183.708C85.2011 183.946 86.3903 183.935 87.5372 183.676C88.7425 183.435 89.8997 183.002 91.0568 182.569C91.3461 182.456 91.2176 181.991 90.9283 182.103C89.755 182.537 88.5818 182.986 87.3443 183.227C86.1029 183.463 84.8246 183.425 83.5996 183.114C82.5389 182.874 81.4782 182.713 80.546 183.355C80.1603 183.612 79.7906 183.981 79.3406 184.045C78.8906 184.109 78.2799 183.692 77.7817 183.483C76.1585 182.793 74.5513 183.917 73.2013 184.703C72.4299 185.169 71.6102 185.634 70.7102 185.762C69.8102 185.891 68.878 185.65 68.0423 185.329C66.4191 184.719 64.7476 183.628 62.9637 183.788C61.9512 183.885 61.2119 184.446 60.3922 184.976C59.5726 185.506 58.2708 185.65 57.1297 185.185C56.5956 184.944 56.0799 184.666 55.5868 184.35C55.2172 184.109 54.8636 183.788 54.4457 183.66C54.0279 183.532 53.3207 183.74 52.8386 184.029C52.3564 184.318 51.7136 184.848 51.0707 185.12C50.4278 185.393 49.8493 185.217 49.2064 185.281C48.8521 185.289 48.4977 185.273 48.1457 185.233C47.6555 185.214 47.1647 185.251 46.6832 185.345C45.7136 185.523 44.7832 185.871 43.9349 186.372C42.1027 187.399 40.5759 188.908 39.2259 190.496C33.4655 197.196 28.8796 204.819 25.6615 213.044C24.0531 217.164 22.8527 221.432 22.0775 225.786C21.29 230.216 21.049 234.645 21.1615 239.122C21.2257 241.674 21.3061 244.258 20.7597 246.761C20.2132 249.265 19.2811 251.319 18.1882 253.437C17.6418 254.48 17.0793 255.491 16.5007 256.502C16.356 256.775 16.7739 257.032 16.9186 256.759Z" fill="#C85D69"/>
<path d="M132.424 83.2489C131.943 83.4918 131.537 83.8603 131.248 84.3151C130.96 84.77 130.8 85.2943 130.785 85.8326C130.792 86.3728 130.946 86.9008 131.233 87.3592C131.519 87.8176 131.926 88.1888 132.408 88.4324C133.116 88.7855 133.967 88.8176 134.755 88.7373C138.933 88.2559 142.405 85.287 146.567 85.8166C147.66 85.9449 155.262 87.8386 158.075 88.4003C158.313 88.4707 158.567 88.4594 158.798 88.3682C159.409 88.0473 158.975 87.1325 158.493 86.635L153.446 81.4836C152.803 80.8256 152.144 80.1516 151.293 79.7664C149.718 79.0763 145.764 79.285 144.125 79.8146C143.289 80.0713 135.783 81.9811 133.132 82.8797L132.424 83.2489Z" fill="#282627"/>
<path d="M101.794 87.8094C105.41 87.4402 109.026 87.9698 112.61 88.4994C113.623 88.6599 114.908 88.6759 115.39 87.7773C115.599 87.376 115.583 86.8786 115.471 86.4292C115.037 84.4874 113.317 83.027 111.453 82.353C109.589 81.679 107.531 81.6469 105.539 81.6308L100.476 81.5666C99.0777 81.5506 97.6152 81.5506 96.3616 82.1765C95.4616 82.6418 94.7545 83.3961 94.0634 84.1343C93.0027 85.2737 91.9419 86.4132 91.2348 87.7773C90.5276 89.1413 89.7562 91.8535 90.7526 92.2386C92.408 92.8806 98.1938 88.1624 101.794 87.8094Z" fill="#282627"/>
<circle cx="129.5" cy="218.008" r="3" fill="#D1D3FC"/>
<circle cx="129.5" cy="246.008" r="3" fill="#D1D3FC"/>
</g>
<defs>
<linearGradient id="paint0_linear_1708_12593" x1="107.637" y1="102.455" x2="105.176" y2="93.0045" gradientUnits="userSpaceOnUse">
<stop stop-color="#ECE0FF"/>
<stop offset="1" stop-color="#BBC7F9"/>
</linearGradient>
<linearGradient id="paint1_linear_1708_12593" x1="98.6846" y1="96.0658" x2="109.253" y2="93.4343" gradientUnits="userSpaceOnUse">
<stop stop-color="#604300"/>
<stop offset="1" stop-color="#471400"/>
</linearGradient>
<linearGradient id="paint2_linear_1708_12593" x1="104.726" y1="97.7895" x2="102.808" y2="90.9121" gradientUnits="userSpaceOnUse">
<stop stop-color="#925600"/>
<stop offset="1" stop-color="#2E0010"/>
</linearGradient>
<linearGradient id="paint3_linear_1708_12593" x1="104.354" y1="96.8647" x2="103.19" y2="92.6401" gradientUnits="userSpaceOnUse">
<stop stop-color="#604300"/>
<stop offset="1" stop-color="#471400"/>
</linearGradient>
<linearGradient id="paint4_linear_1708_12593" x1="140.971" y1="102.432" x2="143.431" y2="92.981" gradientUnits="userSpaceOnUse">
<stop stop-color="#ECE0FF"/>
<stop offset="1" stop-color="#BBC7F9"/>
</linearGradient>
<linearGradient id="paint5_linear_1708_12593" x1="148.925" y1="96.0423" x2="138.357" y2="93.4109" gradientUnits="userSpaceOnUse">
<stop stop-color="#604300"/>
<stop offset="1" stop-color="#471400"/>
</linearGradient>
<linearGradient id="paint6_linear_1708_12593" x1="142.884" y1="97.766" x2="144.802" y2="90.8887" gradientUnits="userSpaceOnUse">
<stop stop-color="#925600"/>
<stop offset="1" stop-color="#2E0010"/>
</linearGradient>
<linearGradient id="paint7_linear_1708_12593" x1="143.255" y1="96.8412" x2="144.42" y2="92.6167" gradientUnits="userSpaceOnUse">
<stop stop-color="#604300"/>
<stop offset="1" stop-color="#471400"/>
</linearGradient>
</defs>
</svg>
