<svg width="250" height="250" viewBox="0 0 250 250" fill="none" xmlns="http://www.w3.org/2000/svg">
<mask id="mask0_1708_12273" style="mask-type:alpha" maskUnits="userSpaceOnUse" x="0" y="0" width="250" height="250">
<rect width="250" height="250" fill="#C4C4C4"/>
</mask>
<g mask="url(#mask0_1708_12273)">
<path d="M231.001 84C232.696 39.4934 203.732 3.7493 184.193 -20.0009H147.212C157.778 -2.83588 188.501 14.868 188.501 36.5C188.501 98.7629 133.263 111 71.0012 111C45.8843 111 2.82568 143.531 -15.9147 129.644V167.863C8.66023 190.812 41.6565 204.859 77.9326 204.859C153.889 204.857 228.102 160.109 231.001 84Z" fill="#150DCE"/>
<path d="M100 18.1382C100 4.1575 96.0679 -8.90731 89.2487 -20H-16V76.716C-3.90874 85.6913 11.0582 91 27.2636 91C67.4349 91 100 58.3795 100 18.1382Z" fill="#66C3CD"/>
<path d="M199.259 199.947C175.474 220.131 142.905 225.448 112.246 231.233C86.3711 236.119 59.0794 242.788 39 259H263V57C239.093 103.931 263 145.856 199.259 199.947Z" fill="#66C3CD"/>
<path d="M-12.167 295.474C-7.44233 273.168 -2.63864 250.625 7.09515 230.005C16.8289 209.385 27.6846 195.087 48.4005 185.47C54.2313 182.759 70.0487 178.219 76.1798 176.296C76.1798 176.296 80.8412 170.447 83.7013 169.611C89.1371 168.051 102.679 167.862 108.336 167.625L146.465 166.064C150.811 165.891 151.206 163.195 155.504 163.92C159.296 164.551 169.314 170.132 172.933 171.456C186.696 176.453 198.453 176.69 212.2 181.687C220.527 184.714 226.832 190.893 232.726 197.483C235.618 200.73 237.609 208.896 239.426 212.853C251.767 239.842 255.275 266.767 268.833 293.173C269.702 294.86 270.603 297.004 269.465 298.533C268.533 299.794 266.716 299.904 265.135 299.888L209.703 299.589L96.39 298.958L62.6694 298.769C37.1129 298.611 11.5565 298.443 -14 298.265" fill="#4188AE"/>
<path d="M94.0519 144.087C96.991 150.471 98.6185 157.392 99.3612 164.36C99.5034 165.668 99.5666 167.087 98.8081 168.143C98.3341 168.805 97.6072 169.231 96.8962 169.625C91.2755 172.765 85.447 175.52 79.4512 177.87C81.537 180.565 81.932 184.191 83.4806 187.234C84.6815 189.598 86.5303 191.537 88.5213 193.287C93.5799 197.689 99.5623 200.905 106.029 202.699C110.58 203.944 115.305 204.48 119.998 204.811C124.691 205.142 129.621 205.284 134.251 204.181C142.152 202.273 148.71 196.96 154.967 191.79C157.543 189.677 160.134 187.533 162.062 184.822C164.337 181.622 165.57 177.822 166.581 174.023C166.787 173.219 166.992 172.336 166.629 171.58C166.123 170.571 164.859 170.256 163.753 169.988C159.676 168.963 155.504 166.188 154.983 162.027C154.746 160.198 155.251 158.369 155.741 156.604C158.522 146.598 160.956 136.509 163.042 126.336C160.814 133.257 155.773 138.884 150.716 144.134C147.825 147.145 144.807 150.156 141.125 152.126C136.084 154.838 130.127 155.406 124.423 155.011C120.362 154.712 116.269 153.939 112.635 152.111C110.28 150.928 108.163 149.336 105.887 147.996C102.174 145.821 98.1761 144.323 93.8938 143.724L94.0519 144.087Z" fill="#B97C5A"/>
<path d="M73.0051 177.599C72.6575 183.353 72.9735 185.576 75.7704 190.684C78.5673 195.791 82.8179 200.032 87.5584 203.453C101.179 213.321 119.32 216.679 135.595 212.36C151.871 208.04 165.934 196.138 172.855 180.831C173.898 178.514 174.799 175.975 174.278 173.5C173.519 169.953 172.808 171.829 169.711 169.938C167.104 168.345 164.196 167.195 161.336 166.107C154.241 163.395 154.842 162.024 155.363 163.916C157.054 170.08 164.244 168.456 165.018 172.113C166.077 177.063 162.995 181.95 159.487 185.623C151.871 193.616 141.631 198.865 130.871 201.451C128.342 202.066 125.767 202.538 123.159 202.507C120.552 202.475 117.913 201.924 115.338 201.309C101.954 198.077 88.0324 191.976 81.5064 179.885C80.416 177.851 79.547 175.424 80.4318 173.311C81.617 170.411 85.2829 169.591 88.3959 169.181L97.308 167.999C91.0031 167.825 84.0188 167.904 79.3415 172.129C77.3979 173.879 75.8336 176.354 73.2895 176.969L73.0051 177.599Z" fill="#A5C5D7"/>
<path d="M160.26 135.367C158.461 146.693 154.206 157.491 147.792 167.006C145.596 170.285 143.147 173.391 140.697 176.481L135.246 183.37C132.765 186.523 130.094 189.802 126.381 191.331C124.09 192.277 121.562 192.466 119.097 192.45C110.51 192.336 102.15 189.68 95.0781 184.82C93.0713 183.449 91.1593 181.856 89.8004 179.839C89.3105 179.113 88.8839 178.325 88.7733 177.458C88.4414 175.046 90.5272 172.981 92.6131 171.72C94.6989 170.459 97.5906 170.27 98.8073 168.141C100.577 165.036 98.4281 159.597 97.9224 155.262C96.9697 151.691 96.9924 152.083 95.9179 148.536C95.6177 147.558 94.067 144.159 93.8142 143.277C93.8142 143.277 113.519 159.424 129.273 158.431C145.027 157.437 155.646 142.067 155.646 142.067L160.26 135.367Z" fill="#603325"/>
<path d="M94.3838 144.539L104.465 157.214C105.635 158.712 106.851 160.225 108.416 161.313C111.323 163.331 115.52 164.266 119.06 164.314C122.126 164.366 123.894 164.545 126.949 164.314C129.73 164.109 133.366 162.873 136.037 162.038C139.023 161.092 141.773 159.5 144.506 157.923C146.671 156.678 148.868 155.401 150.764 153.746C156.089 149.095 158.443 142.017 160.577 135.286C161.446 132.527 162.315 129.768 162.805 126.931C163.295 124.093 163.389 121.555 163.5 118.843C163.879 109.779 164.116 100.683 163.247 91.6498C162.308 81.9585 160.109 72.4304 156.705 63.3054C155.583 60.3102 154.303 57.2992 152.249 54.8399C149.263 51.1983 144.807 48.9756 140.224 47.8878C135.642 46.8001 130.87 46.737 126.161 46.7843C115.321 46.8947 103.517 47.9666 95.6321 55.3759C92.456 58.3554 90.1647 62.1861 88.6952 66.2691C86.1353 73.3789 86.0405 81.0877 85.9615 88.6546C85.7877 107.146 85.7561 126.363 93.6253 143.105L94.3838 144.539Z" fill="#B97C5A"/>
<path d="M98.4113 100.667C98.4113 100.667 100.192 102.674 104.308 102.946C107.616 103.165 112.028 102.382 114.029 101.649C114.517 101.47 114.74 101.391 114.909 101.218C114.909 101.218 114.614 100.372 113.914 99.44C112.7 97.8192 110.263 95.6928 105.988 95.5386C100.058 95.3265 98.6984 99.449 98.4547 100.451C98.424 100.589 98.4113 100.667 98.4113 100.667Z" fill="url(#paint0_linear_1708_12273)"/>
<path d="M110.266 99.0039C110.298 96.6931 108.313 94.7569 105.833 94.6792C103.352 94.6014 101.315 96.4116 101.283 98.7223C101.251 101.033 103.235 102.969 105.716 103.047C108.196 103.125 110.233 101.315 110.266 99.0039Z" fill="url(#paint1_linear_1708_12273)"/>
<path d="M109.908 98.9865C109.938 96.8599 108.112 95.0778 105.829 95.0063C103.546 94.9348 101.672 96.6008 101.642 98.7274C101.612 100.854 103.438 102.636 105.721 102.708C108.004 102.779 109.878 101.113 109.908 98.9865Z" fill="url(#paint2_linear_1708_12273)"/>
<path style="mix-blend-mode:multiply" d="M108.249 98.4019C108.544 99.6824 107.673 100.921 106.305 101.169C104.937 101.418 103.59 100.58 103.295 99.302C103.001 98.0238 103.872 96.7829 105.24 96.5352C106.608 96.2875 107.953 97.122 108.249 98.4019Z" fill="url(#paint3_linear_1708_12273)"/>
<path d="M101.618 99.756C101.633 99.9996 99.5698 99.2453 99.6295 98.9172C99.6892 98.589 101.58 99.2171 101.618 99.756Z" fill="white"/>
<path d="M103.88 98.7508C103.746 98.8762 102.675 98.7042 102.804 98.5478C102.934 98.3914 103.02 98.0663 103.409 98.1396C103.798 98.2129 104.06 98.5817 103.88 98.7508Z" fill="white"/>
<g style="mix-blend-mode:multiply" opacity="0.6">
<path d="M95.9286 100.622C96.254 100.603 98.5096 100.62 98.5096 100.62C100.187 99.6729 102.768 97.7988 105.364 97.3584C109.656 96.6309 113.695 99.1804 113.914 99.4417C112.7 97.8209 110.263 95.6957 105.988 95.5414C100.058 95.3294 97.5638 98.764 95.9286 100.622Z" fill="#CF77B6"/>
</g>
<path d="M115.271 100.708C115.271 100.708 111.766 95.136 106.755 94.4333C103.092 93.9198 99.0822 96.7481 96.9794 98.5792C94.8767 100.41 95.9271 100.683 95.9271 100.683C95.9271 100.683 104.403 91.6751 113.913 99.4422C114.334 99.8445 114.818 100.286 115.271 100.708Z" fill="#9E5D4D"/>
<path d="M111.18 103.836C113.087 103.318 114.024 101.659 114.024 101.659C109.918 101.791 100.743 101.867 98.4277 100.656C99.9476 104.614 104.949 104.98 107.018 104.671C109.077 104.362 111.18 103.836 111.18 103.836Z" fill="#71433B"/>
<path d="M113.912 99.4453C113.912 99.4453 114.764 100.117 115.27 100.711C115.483 100.96 115.661 101.242 115.647 101.379C115.602 101.844 114.022 101.661 114.022 101.661C114.022 101.661 114.442 101.426 114.409 100.753C114.376 100.081 113.912 99.4453 113.912 99.4453Z" fill="#71433B"/>
<path d="M147.487 99.6123C147.487 99.6123 145.706 101.619 141.591 101.892C138.282 102.111 133.871 101.327 131.87 100.594C131.382 100.415 131.158 100.336 130.989 100.163C130.989 100.163 131.284 99.317 131.984 98.3853C133.199 96.7646 135.636 94.6381 139.911 94.4839C145.841 94.2719 147.2 98.3943 147.444 99.3963C147.474 99.5345 147.487 99.6123 147.487 99.6123Z" fill="url(#paint4_linear_1708_12273)"/>
<path d="M135.633 97.9492C135.601 95.6385 137.585 93.7022 140.066 93.6245C142.546 93.5467 144.583 95.3569 144.615 97.6676C144.648 99.9784 142.663 101.915 140.183 101.992C137.702 102.07 135.665 100.26 135.633 97.9492Z" fill="url(#paint5_linear_1708_12273)"/>
<path d="M135.992 97.9318C135.962 95.8052 137.789 94.0232 140.072 93.9516C142.354 93.8801 144.229 95.5461 144.259 97.6728C144.288 99.7994 142.462 101.581 140.179 101.653C137.897 101.725 136.022 100.059 135.992 97.9318Z" fill="url(#paint6_linear_1708_12273)"/>
<path style="mix-blend-mode:multiply" d="M137.651 97.3472C137.357 98.6277 138.227 99.8663 139.595 100.115C140.963 100.363 142.311 99.5256 142.605 98.2473C142.899 96.9691 142.029 95.7282 140.661 95.4805C139.293 95.2328 137.948 96.0673 137.651 97.3472Z" fill="url(#paint7_linear_1708_12273)"/>
<path d="M135.647 98.7814C135.955 98.9146 136.343 96.056 135.875 95.9743C135.407 95.8926 134.97 98.4819 135.647 98.7814Z" fill="white"/>
<path d="M137.261 97.9229C137.413 97.8195 137.483 96.7373 137.301 96.8287C137.12 96.9202 136.784 96.9319 136.769 97.3276C136.754 97.7233 137.056 98.0607 137.261 97.9229Z" fill="white"/>
<g style="mix-blend-mode:multiply" opacity="0.6">
<path d="M149.97 99.5673C149.644 99.5486 147.389 99.5657 147.389 99.5657C145.712 98.6182 143.13 96.7441 140.534 96.3037C136.243 95.5762 132.203 98.1257 131.985 98.387C133.199 96.7663 135.635 94.641 139.91 94.4867C145.84 94.2747 148.335 97.7093 149.97 99.5673Z" fill="#CF77B6"/>
</g>
<path d="M130.627 99.6528C130.627 99.6528 134.132 94.0813 139.144 93.3786C142.806 92.8651 146.816 95.6934 148.919 97.5245C151.022 99.3556 149.971 99.6279 149.971 99.6279C149.971 99.6279 141.495 90.6204 131.986 98.3875C131.564 98.7898 131.08 99.2311 130.627 99.6528Z" fill="#9E5D4D"/>
<path d="M134.718 102.782C132.811 102.264 131.874 100.604 131.874 100.604C135.981 100.737 145.155 100.813 147.471 99.6016C145.951 103.56 140.95 103.926 138.881 103.616C136.822 103.308 134.718 102.782 134.718 102.782Z" fill="#71433B"/>
<path d="M131.986 98.3906C131.986 98.3906 131.134 99.0625 130.628 99.656C130.415 99.9049 130.238 100.187 130.251 100.325C130.297 100.79 131.876 100.606 131.876 100.606C131.876 100.606 131.456 100.371 131.49 99.6987C131.523 99.0261 131.986 98.3906 131.986 98.3906Z" fill="#71433B"/>
<path d="M127.125 90.4405C129.306 92.08 132.308 92.1273 135.026 91.8909C137.744 91.6544 140.399 90.9292 143.101 90.5982C145.803 90.2671 148.71 90.409 151.049 91.7963C151.586 92.1116 152.392 92.4111 152.676 91.8593C152.961 91.3076 152.582 91.0869 152.329 90.7874C150.275 88.2808 148.078 85.6797 145.028 84.5919C142.627 83.7407 139.988 83.9456 137.444 84.2924C135.247 84.5919 133.051 84.9861 130.87 85.459C129.717 85.7112 128.5 86.0265 127.584 86.799C126.667 87.5714 126.161 88.9429 126.73 89.9991L127.125 90.4405Z" fill="#292120"/>
<path d="M103.342 92.0619C106.582 92.2511 108.351 92.4402 111.591 92.6452C112.76 92.7082 115.478 92.1092 116.505 91.5417C118.385 90.517 118.291 88.3415 116.726 86.8754C115.162 85.4093 113.661 85.362 111.828 85.3305C108.889 85.2832 106.202 85.9611 103.263 85.9138C102.489 85.898 101.098 85.9926 100.372 86.2133C99.3444 86.4971 97.8433 87.4114 97.0216 88.0735C95.7733 89.0824 95.5362 89.0194 94.2879 90.0283C93.4978 90.6746 92.6129 91.589 92.929 92.5664C96.141 91.7616 99.4797 91.5902 102.758 92.0619H103.342Z" fill="#292120"/>
<path d="M106.963 133.81C108.796 133.967 109.6 134.874 111.417 134.638C114.499 134.244 117.612 134.023 120.709 133.818L124.359 133.566C127.709 133.329 131.075 133.093 134.377 133.629C135.989 133.881 138.485 132.931 140.096 132.758C139.37 133.956 137.348 136.246 136.226 137.066C134.772 138.122 133.255 139.099 131.596 139.746C128.862 140.786 125.876 140.896 122.953 140.991L117.548 141.164C115.131 141.243 112.508 141.243 110.627 139.746C109.284 138.689 108.51 136.971 107.009 136.12C106.487 135.82 105.175 134.314 104.859 133.81H106.963Z" fill="#843B7D"/>
<path d="M109.584 130.952C113.266 128.934 117.596 128.603 121.783 128.303C123.205 128.209 124.628 128.114 126.05 128.272C126.949 128.385 127.841 128.554 128.72 128.776L131.201 129.344C131.817 129.501 132.465 129.643 133.034 129.943C133.603 130.242 133.853 130.436 134.311 130.657C135.038 131.019 135.672 131.33 136.415 131.709C137.6 132.324 138.88 132.193 140.096 132.761C137.85 133.245 135.192 133.918 132.908 133.663C130.379 133.364 127.82 133.474 125.275 133.6C121.309 133.789 117.343 133.994 113.424 134.578C110.738 134.972 107.514 134.396 104.859 133.812C104.859 133.812 108.036 131.803 109.584 130.952Z" fill="#4E1B49"/>
<path d="M164.874 94.3526C165.001 95.7241 166.976 96.0236 168.193 95.4088C169.409 94.794 170.421 93.6589 171.78 93.4382C173.549 93.1387 175.24 94.5733 175.825 96.2758C176.409 97.9784 176.141 99.8386 175.809 101.588C174.734 107.043 172.999 112.347 170.642 117.384C170.247 118.204 169.852 119.008 169.662 119.891C169.346 121.215 169.536 122.587 169.457 123.942C169.378 125.298 168.983 126.764 167.861 127.537C166.739 128.309 164.653 127.962 163.879 126.67C163.436 125.929 163.357 125.046 163.278 124.195C162.857 118.688 162.42 113.186 161.967 107.689C161.967 107.689 162.962 98.136 164.874 94.3526Z" fill="#B97C5A"/>
<path d="M86.8309 95.2466C86.0597 95.794 85.1418 96.0985 84.1956 96.121C83.2493 96.1435 82.318 95.8829 81.5216 95.3727C80.9053 94.9628 80.2574 94.3638 79.5305 94.5057C79.0723 94.6002 78.7247 94.9628 78.456 95.3412C77.2393 97.0122 76.9549 99.2192 77.2077 101.269C77.4605 103.318 78.2506 105.257 79.0091 107.18L82.5328 116.008C83.0385 117.269 83.5441 118.562 83.7654 119.902C83.9866 121.242 83.8602 122.992 84.0814 124.505C84.3026 126.019 85.0295 127.611 86.4358 128.273C86.8467 128.462 87.3681 128.557 87.7632 128.305C88.1582 128.052 88.2846 127.359 88.3004 126.791L88.7271 111.279C88.8693 106.14 86.8309 95.2466 86.8309 95.2466Z" fill="#B97C5A"/>
<path d="M88.1587 97.4375C88.9329 93.2285 88.1744 90.2332 87.89 85.9611C87.8268 85.0152 87.7478 84.022 88.1112 83.1392C88.4747 82.2564 89.3912 81.484 89.9916 80.6169C91.398 78.6464 91.24 75.9822 90.8923 73.586C90.7027 72.3091 90.4815 70.9691 90.9555 69.771C91.2874 68.8724 91.9668 68.163 92.5041 67.3748C95.143 63.5756 94.7005 57.9635 98.1295 54.8579C99.5832 53.5494 101.495 52.9189 103.376 52.3986C116.819 48.6549 131.033 48.6549 144.476 52.3986C145.676 52.7455 146.877 53.108 147.873 53.849C148.868 54.5899 149.832 56.0875 150.496 57.4275C152.552 61.5931 153.862 66.0853 154.367 70.7011C154.762 74.2481 154.857 78.2523 157.464 80.68C158.002 81.1844 158.634 81.5943 158.981 82.2407C159.329 82.887 159.345 83.4388 159.408 84.0536C160.151 91.8097 161.004 97.1696 163.311 104.61C163.39 100.606 164.844 98.9509 165.602 95.0098L166.076 92.5979C167.42 85.6931 168.747 78.5991 167.499 71.6785C167.293 70.5592 167.009 69.4084 167.151 68.2734C167.293 67.1384 167.704 66.3659 167.925 65.4043C168.905 60.9114 165.207 56.8284 164.164 52.3514C163.738 50.4912 163.754 48.5206 162.884 46.818C162.015 45.1155 159.772 43.9016 158.207 44.9736L156.738 40.0709C156.248 38.4629 155.711 36.7761 154.462 35.6411C153.214 34.506 151.017 34.2696 149.975 35.5938C150.67 33.7336 148.789 31.9995 147.13 30.896C145.945 30.1078 144.507 29.288 143.148 29.761C142.69 29.9186 142.279 30.2181 141.821 30.3758C140.746 30.7541 139.593 30.3127 138.487 30.0447C137.381 29.7767 135.974 29.8555 135.39 30.8329C135.168 29.7294 134.916 28.5944 134.236 27.6958C133.557 26.7973 132.324 26.214 131.281 26.6554C130.238 27.0968 129.543 28.4525 128.39 28.3737C127.584 28.3264 127.046 27.5382 126.383 27.0495C124.85 25.8829 122.638 26.3401 120.884 27.1441C119.13 27.9481 117.423 29.0673 115.48 29.1304C114.136 29.1777 112.462 28.8151 111.671 29.9028C111.434 30.2181 111.308 30.628 110.976 30.8329C110.644 31.0379 110.012 30.896 109.522 30.8172C108.848 30.7134 108.158 30.8291 107.555 31.1471C106.951 31.4651 106.467 31.9685 106.172 32.5828C105.777 30.4704 102.87 29.6033 100.99 30.6753C99.1092 31.7473 98.3033 34.0646 98.3033 36.2086C95.7863 36.9206 93.631 38.553 92.2671 40.7803C88.3641 43.2553 85.9622 47.89 86.1676 52.4932L85.6778 49.7502C84.8877 49.3561 84.1766 50.4439 83.9396 51.2951C82.8967 55.0786 82.0276 59.0828 82.8493 62.9293C83.1021 64.1589 83.5446 65.357 83.671 66.6024C83.8764 68.3207 83.4972 70.0548 83.2443 71.7731C81.9012 80.6327 85.5672 93.4334 87.1631 102.246L88.1587 97.4375Z" fill="#111111"/>
<path d="M125.94 118.484C125.5 118.612 125.099 118.844 124.77 119.162C123.696 120.155 122.558 121.275 122.432 122.725L124.628 121.59C125.323 121.212 126.082 120.833 126.872 120.912C127.251 120.944 127.63 121.07 128.01 121.117C128.389 121.164 128.815 121.101 129.068 120.818C129.185 120.666 129.255 120.484 129.269 120.293C129.283 120.103 129.241 119.912 129.147 119.746C128.957 119.408 128.671 119.134 128.326 118.957C127.711 118.626 127.017 118.467 126.319 118.5L125.94 118.484Z" fill="#36130D"/>
<path d="M112.508 121.804C112.192 121.63 112.24 121.457 112.097 121.11C112.013 120.945 111.964 120.765 111.953 120.581C111.943 120.396 111.97 120.211 112.034 120.038C112.18 119.73 112.424 119.481 112.73 119.329C113.307 118.995 113.989 118.889 114.641 119.029C115.637 119.234 116.443 119.975 117.091 120.763C117.739 121.551 118.023 122.024 118.213 122.781C117.529 122.396 116.81 122.079 116.064 121.835C115.316 121.592 114.513 121.575 113.757 121.788C113.393 121.898 112.793 121.961 112.508 121.804Z" fill="#36130D"/>
<path d="M112.745 120.33C112.687 120.914 112.863 121.498 113.235 121.954C113.409 122.158 113.63 122.379 113.567 122.647C113.536 122.737 113.484 122.818 113.415 122.884C113.346 122.95 113.263 122.998 113.172 123.025C112.54 123.309 111.75 123.183 111.181 122.805C110.603 122.392 110.18 121.798 109.98 121.118C109.411 119.415 110.106 116.672 111.528 115.6C111.813 116.199 110.881 117.224 113.061 117.35C114.041 117.413 114.515 116.436 114.894 116.404C115.233 117.008 115.785 117.463 116.443 117.681C117.782 118.061 119.191 118.129 120.56 117.88C121.93 117.632 123.224 117.073 124.344 116.247C124.581 116.814 125.355 117.177 125.939 117.335C127.125 117.634 129.368 117.918 130.822 116.546C131.265 116.136 131.201 115.443 131.154 114.844C131.754 115.853 132.007 117.035 132.165 118.202C132.292 119.1 132.355 120.078 131.944 120.882C131.533 121.686 130.459 122.253 129.653 121.812C129.384 121.67 128.91 121.528 128.926 121.213C128.958 119.116 126.935 119.132 125.876 119.337C123.79 119.746 123.506 121.465 122.937 122.379C122.368 123.293 122.495 124.492 121.799 125.232C121.638 125.433 121.417 125.577 121.167 125.642C120.614 125.753 119.255 125.863 118.908 125.422C118.339 124.697 118.687 123.357 118.118 122.631C117.549 121.906 116.775 120.882 115.842 120.314C114.91 119.746 113.693 119.557 112.761 120.109L112.745 120.33Z" fill="#71433B"/>
</g>
<defs>
<linearGradient id="paint0_linear_1708_12273" x1="108.461" y1="105.641" x2="106.792" y2="97.5832" gradientUnits="userSpaceOnUse">
<stop stop-color="#ECE0FF"/>
<stop offset="1" stop-color="#BBC7F9"/>
</linearGradient>
<linearGradient id="paint1_linear_1708_12273" x1="101.411" y1="99.8524" x2="110.19" y2="98.2056" gradientUnits="userSpaceOnUse">
<stop stop-color="#604300"/>
<stop offset="1" stop-color="#471400"/>
</linearGradient>
<linearGradient id="paint2_linear_1708_12273" x1="106.281" y1="101.583" x2="104.957" y2="95.7152" gradientUnits="userSpaceOnUse">
<stop stop-color="#34211A"/>
<stop offset="1" stop-color="#2E0010"/>
</linearGradient>
<linearGradient id="paint3_linear_1708_12273" x1="106.017" y1="100.786" x2="105.215" y2="97.182" gradientUnits="userSpaceOnUse">
<stop stop-color="#604300"/>
<stop offset="1" stop-color="#471400"/>
</linearGradient>
<linearGradient id="paint4_linear_1708_12273" x1="137.437" y1="104.587" x2="139.106" y2="96.5285" gradientUnits="userSpaceOnUse">
<stop stop-color="#ECE0FF"/>
<stop offset="1" stop-color="#BBC7F9"/>
</linearGradient>
<linearGradient id="paint5_linear_1708_12273" x1="144.487" y1="98.7977" x2="135.708" y2="97.1509" gradientUnits="userSpaceOnUse">
<stop stop-color="#604300"/>
<stop offset="1" stop-color="#471400"/>
</linearGradient>
<linearGradient id="paint6_linear_1708_12273" x1="139.619" y1="100.528" x2="140.944" y2="94.6605" gradientUnits="userSpaceOnUse">
<stop stop-color="#331818"/>
<stop offset="1" stop-color="#2E0010"/>
</linearGradient>
<linearGradient id="paint7_linear_1708_12273" x1="139.883" y1="99.7315" x2="140.685" y2="96.1274" gradientUnits="userSpaceOnUse">
<stop stop-color="#604300"/>
<stop offset="1" stop-color="#471400"/>
</linearGradient>
</defs>
</svg>
