<svg width="250" height="250" viewBox="0 0 250 250" fill="none" xmlns="http://www.w3.org/2000/svg">
<mask id="mask0_1708_12164" style="mask-type:alpha" maskUnits="userSpaceOnUse" x="0" y="0" width="250" height="250">
<rect width="250" height="250" fill="#C4C4C4"/>
</mask>
<g mask="url(#mask0_1708_12164)">
<path d="M56.7732 69.0814C56.7732 41.0648 66.4986 15.3205 82.7575 -4.96094H28.7309C33.9429 2.64485 36.7247 11.6529 36.709 20.8731C36.709 44.7853 18.3772 64.4113 -5 66.4693V254.919H-4.99644V101.911C0.234904 106.897 4.17052 132.191 10.3186 135.999C25.2583 145.259 39.2157 157.516 45.7349 173.837C52.7278 191.345 50.3586 211.323 56.1093 229.278C58.9515 238.152 63.7369 246.405 67.5065 254.922H254.884V156.781C233.847 175.899 205.903 187.547 175.24 187.547C109.812 187.547 56.7732 134.508 56.7732 69.0814Z" fill="#150DCE"/>
<path d="M36.7129 20.8731C36.7276 11.6525 33.9445 2.64444 28.7313 -4.96094L-4.99609 -4.96094V66.4693C18.3811 64.4113 36.7129 44.7853 36.7129 20.8731Z" fill="#150DCE"/>
<path d="M258 -4.96127C258 -16.4554 164 -4.96343 107.765 -4.96343H82.7578C66.4989 15.318 56.7734 41.0622 56.7734 69.0788C56.7734 134.506 109.813 187.545 175.24 187.545C205.904 187.545 233.847 175.895 254.884 156.779V110.014C254.884 91.4999 258 6.53282 258 -4.96127Z" fill="#66C3CD"/>
<path d="M118.351 70.0328C107.553 84.2555 100.705 101.081 98.503 118.805C97.1258 129.98 97.7073 141.645 102.16 151.978C106.614 162.311 114.588 173.229 125.5 176C129.31 176.964 134.067 177.347 138 177.5C141.626 177.638 145.269 175.507 148.773 174.573C157.802 172.154 163.617 163.658 168.621 155.774C173.182 148.595 177.788 141.323 180.328 133.225C181.338 130.026 181.996 126.719 182.547 123.413C184.017 114.619 184.627 105.703 184.368 96.7916C184.215 91.2041 183.634 85.3563 180.496 80.7179C176.686 75.0539 169.892 72.329 163.495 69.9103L156.149 67.1395C150.686 65.0729 145.116 62.991 139.286 62.6695C131.961 62.3006 124.77 64.7241 119.162 69.4511" fill="#FBA777"/>
<path d="M110.21 102.059C113.654 98.9669 118.612 98.0025 123.218 98.477C127.824 98.9516 132.185 100.712 136.455 102.503C137.496 102.932 138.582 103.376 139.684 103.253C140.786 103.131 141.918 102.228 141.842 101.11C141.765 99.9925 140.189 99.0894 138.888 98.722C135.705 97.8341 132.522 96.9462 129.309 96.1961C126.095 95.446 122.315 94.7571 118.933 95.645C115.551 96.5329 112.613 98.9975 109.904 101.355" fill="#551400"/>
<path d="M156.701 102.746C156.701 102.746 155.094 103.359 153.87 104.369C153.518 104.645 153.151 104.981 153.12 105.425C153.09 105.869 153.656 106.466 154.192 106.742C157.466 108.365 161.338 108.058 164.919 108.763C170.612 109.865 175.708 113.676 178.37 118.82C178.921 116.447 178.08 113.921 176.626 111.962C175.172 110.002 173.167 108.533 171.132 107.186C166.847 104.369 162.394 102.41 157.267 102.7L156.701 102.746Z" fill="#551400"/>
<path d="M117.066 140.332C123.202 139.276 129.461 140.822 135.491 142.338L140.479 143.608C142.377 144.083 144.305 144.573 146.065 145.399C147.123 145.926 148.15 146.514 149.141 147.16L153.732 150.022C153.166 150.834 152.186 151.201 151.253 151.492C148.1 152.426 144.764 152.671 141.474 152.793C137.878 152.916 134.205 152.885 130.823 151.691C127.166 150.39 124.105 147.833 121.152 145.338C119.514 143.96 117.846 142.552 116.668 140.761L117.066 140.332Z" fill="#FCE4E4"/>
<path d="M117.128 140.56C119.588 140.167 122.09 140.111 124.566 140.391C127.06 140.636 129.539 141.142 131.972 141.708C134.405 142.274 136.9 142.933 139.364 143.545C141.827 144.157 144.153 144.678 146.342 145.795C147.428 146.364 148.485 146.988 149.509 147.663L152.8 149.714L153.611 150.219L153.534 149.913C152.83 150.893 151.468 151.214 150.351 151.49C148.973 151.84 147.572 152.091 146.158 152.24C144.75 152.393 143.327 152.485 141.904 152.546C140.481 152.607 139.134 152.638 137.741 152.592C135.002 152.516 132.232 152.118 129.707 151C127.182 149.883 125.208 148.382 123.204 146.744C122.194 145.918 121.184 145.076 120.189 144.219C119.188 143.375 118.266 142.443 117.434 141.432C117.235 141.187 117.052 140.912 116.868 140.652L116.838 140.927L117.235 140.499C117.434 140.284 117.113 139.963 116.914 140.177L116.516 140.606C116.479 140.64 116.455 140.686 116.446 140.736C116.438 140.786 116.447 140.837 116.47 140.881C117.97 143.116 120.143 144.8 122.178 146.499C124.214 148.199 126.356 149.867 128.759 151.046C129.979 151.661 131.269 152.129 132.6 152.439C133.973 152.751 135.371 152.94 136.777 153.005C138.216 153.097 139.654 153.082 141.077 153.036C142.501 152.99 143.985 152.914 145.439 152.776C146.895 152.644 148.342 152.419 149.77 152.102C150.443 151.949 151.116 151.781 151.774 151.566C152.335 151.388 152.862 151.119 153.335 150.77C153.556 150.588 153.752 150.377 153.917 150.143C153.946 150.089 153.955 150.027 153.941 149.967C153.927 149.908 153.891 149.856 153.84 149.821L150.519 147.739C149.448 147.081 148.392 146.392 147.306 145.78C145.133 144.571 142.761 143.943 140.358 143.331C137.956 142.718 135.385 142.06 132.89 141.463C130.396 140.866 127.947 140.33 125.438 140.024C122.928 139.718 120.434 139.641 117.939 139.978C117.633 140.009 117.312 140.055 117.006 140.116C116.7 140.177 116.838 140.606 117.128 140.56Z" fill="white"/>
<path d="M115.322 139.534C115.934 140.514 117.066 141.049 118.183 141.264C119.3 141.478 120.463 141.401 121.611 141.386C125.333 141.328 129.038 141.903 132.568 143.085C133.349 143.346 134.114 143.636 134.894 143.866C138.873 145.045 143.326 144.754 146.953 146.759C148.238 147.479 149.371 148.443 150.656 149.132C151.942 149.821 153.533 150.204 154.88 149.637L150.733 146.193C147.626 143.606 144.183 140.881 140.143 140.789C138.169 140.743 135.904 141.248 134.466 139.917C134.037 139.503 133.731 138.983 133.257 138.615C132.476 138.003 131.375 138.003 130.38 138.034L120.463 138.324C118.642 138.37 116.76 138.447 115.107 139.212L115.322 139.534Z" fill="#DC3B63"/>
<path d="M117.954 141.415C118.673 143.069 120.356 144.064 121.948 144.906C127.503 147.86 133.364 150.478 139.608 151.167C142.859 151.515 146.145 151.339 149.34 150.646C151.039 150.263 152.722 149.743 154.467 149.59C153.824 150.922 152.416 151.657 151.1 152.315C149.784 152.973 148.468 153.616 147.091 154.106C144.321 155.101 136.792 156.708 134.359 155.744C133.976 155.591 132.262 154.917 131.88 154.733C130.915 154.274 128.543 154.244 127.656 153.647C122.116 149.911 121.948 149.33 120.112 147.217C119.469 146.498 116.056 141.109 115.107 139.211L117.954 141.415Z" fill="#FF5663"/>
<path d="M132.324 129.767C133.556 129.586 134.81 129.627 136.028 129.889C136.578 130.012 137.221 130.318 137.252 130.884C137.282 131.451 136.976 131.558 136.655 131.711C136.316 131.83 135.958 131.887 135.599 131.879C135.374 131.909 135.145 131.894 134.926 131.834C134.644 131.732 134.389 131.57 134.176 131.359L132.431 129.859L132.324 129.767Z" fill="black"/>
<path d="M128.988 126.626C128.513 127.652 128.238 128.953 128.957 129.841C129.676 130.729 130.855 130.729 131.895 130.484C132.936 130.239 133.9 129.779 134.956 129.749C136.012 129.718 137.221 130.346 137.312 131.402C137.343 131.693 137.282 131.999 137.312 132.305C137.42 133.331 138.629 133.698 139.654 133.821C141.567 134.035 141.597 133.147 142.546 132.749C143.495 132.351 144.658 132.137 145.515 132.703C146.372 133.27 146.525 133.913 147.168 134.387C148.147 135.107 149.647 134.816 150.504 133.959C151.361 133.101 151.713 131.8 151.697 130.575C151.697 129.963 151.605 129.29 151.208 128.815C150.81 128.34 149.249 130.591 148.422 130.943C147.856 131.172 147.259 130.667 146.999 130.116C146.739 129.565 146.663 128.922 146.28 128.463C145.561 127.606 144.199 127.774 143.158 128.172C142.118 128.57 141.001 129.106 139.945 128.754C138.322 128.218 137.588 125.784 135.874 125.845C134.895 125.861 134.191 126.733 133.426 127.33C132.66 127.927 131.314 128.172 130.855 127.3C130.671 126.932 130.732 126.473 130.824 126.075C131.041 125.093 131.402 124.149 131.895 123.273C131.895 123.273 130.426 123.595 128.988 126.626Z" fill="#E07B63"/>
<path d="M142.056 133.33C142.13 133.567 142.454 133.085 142.668 133.162C142.882 133.249 143.079 133.373 143.25 133.529C143.655 133.825 144.128 134.015 144.625 134.081C145.122 134.148 145.627 134.09 146.096 133.912C146.2 133.878 146.29 133.814 146.356 133.728C146.377 133.674 146.386 133.616 146.383 133.558C146.381 133.5 146.366 133.444 146.341 133.391C146.081 132.657 145.239 132.259 144.459 132.274C143.678 132.289 143.165 132.401 142.461 132.738C142.461 132.738 141.956 133.008 142.056 133.33Z" fill="black"/>
<path d="M99.7895 117.763C101.136 108.272 105.589 99.5463 109.981 91.0196L114.848 81.5591C117.633 76.14 120.739 70.3994 126.157 67.598C130.395 65.4089 135.4 65.4089 140.189 65.4548C136.976 64.0312 134.438 62.4462 131.5 60.5021C130.521 59.8438 129.301 59.2553 128 58C126.699 56.7447 125.728 55.6042 126.157 53.8438C123.111 56.0634 118.061 57.9844 115.016 60.1888C110.685 63.3576 106.247 66.6183 103.279 71.0883C99.5293 76.7676 98.5499 83.7635 97.6929 90.4991C97.4022 92.9331 97.0961 95.3825 96.8054 97.8165C96.5146 100.25 96.2239 102.761 96.637 105.21C96.9278 106.955 97.5858 108.639 97.9837 110.385C98.6111 113.14 98.5958 116.003 98.5652 118.85L99.8507 118.069" fill="#551400"/>
<path d="M98.5654 136.19C97.1269 137.231 94.9998 136.726 93.6837 135.532C92.3677 134.338 91.6791 132.638 91.0363 130.97C89.5672 127.158 88.1288 123.239 87.8686 119.152C87.6151 114.945 88.6165 110.757 90.7456 107.12C91.6179 105.619 93.1175 104.043 94.8315 104.425C96.5454 104.808 97.234 106.89 97.5707 108.65C98.4583 113.457 99.1622 118.31 99.6825 123.178C100.142 127.556 100.738 132.378 98.5654 136.19Z" fill="#FBA777"/>
<path d="M171.576 152.117C171.513 153.091 171.681 154.066 172.065 154.964C172.157 155.209 172.295 155.469 172.54 155.546C172.76 155.587 172.987 155.549 173.182 155.439C175.264 154.52 176.702 152.316 176.748 150.05C178.829 148.902 180.13 146.759 181.324 144.723C183.435 141.125 185.547 137.528 187.2 133.701C187.827 132.247 188.409 130.67 188.21 129.093C188.011 127.516 186.802 125.94 185.211 125.863C183.619 125.786 182.548 126.935 181.63 128.052C177.819 132.706 175.845 138.538 173.932 144.248L171.453 151.703" fill="#FBA777"/>
<path d="M176.029 77.8857C180.62 81.4526 182.12 88.2035 182.579 94.0206C183.731 108.415 181.747 122.887 176.764 136.44C178.692 132.705 180.896 128.694 184.737 126.979C185.242 126.75 185.808 126.535 186.068 126.045C186.328 125.556 186.236 125.403 186.267 125.081C186.474 122.179 187.119 119.325 188.18 116.616C188.777 115.085 189.481 113.585 190.001 112.008C191.164 108.502 191.363 104.767 191.577 101.078C191.761 97.6946 191.929 94.2196 190.812 91.0355C189.557 87.4534 186.818 84.6367 184.171 81.9424C182.105 79.8605 179.794 76.5998 176.947 77.2581C176.672 77.3193 176.029 77.8857 176.029 77.8857Z" fill="#551400"/>
<path d="M137.893 64.781L146.845 68.1641L156.195 71.7003C161.23 73.5985 166.295 75.5121 171.544 76.7673C174.298 77.4256 177.16 77.9308 179.593 79.385C181.261 80.3954 182.654 81.8037 183.863 83.304C189.448 90.2386 191.652 99.7756 189.678 108.455C189.066 111.15 188.071 113.798 188.117 116.569C194.254 111.624 197.85 103.679 197.528 95.8108C197.664 97.9943 197.561 100.186 197.222 102.347C202.257 94.7698 202.854 84.4521 198.707 76.3387C198.294 75.5121 197.804 74.6854 197.59 73.7669C197.268 72.4351 197.498 71.0574 197.437 69.6949C197.284 65.9138 194.896 62.6684 192.616 59.668C191.361 58.03 190.091 56.3767 188.576 54.9837C186.073 52.7172 182.99 51.1909 179.67 50.5749C180.258 49.5449 180.428 48.3282 180.144 47.1765C179.762 45.5997 178.599 44.3445 177.42 43.2423C174.911 40.8695 172.08 38.7569 168.82 37.6548C165.56 36.5526 161.796 36.5679 158.797 38.2824C158.383 38.512 157.97 38.7876 157.511 38.8488C157.052 38.91 156.317 38.6498 155.751 38.4202C150.472 36.2464 144.274 37.5782 139.377 40.5174C134.48 43.4566 130.654 47.8347 126.905 52.1517C126.018 53.162 125.069 54.3867 125.329 55.7185C125.482 56.5298 126.063 57.1728 126.645 57.7545C128.328 59.3925 129.461 61.2448 137.893 64.781Z" fill="#551400"/>
<path d="M-1.56244 262.598C2.37199 255.063 5.56492 247.162 7.97133 239.008C10.4198 230.727 12.0572 222.185 15.4086 214.24C18.7599 206.295 24.1466 198.778 31.9511 195.089C36.4196 192.977 41.3931 192.242 46.2594 191.415C47.6979 191.185 49.167 190.971 50.6055 190.665C51.5237 190.466 50.7432 188.537 56.0074 187.496C59.2823 186.853 78.9466 182.276 82.2215 181.664C85.8636 180.975 85.3586 183.394 89.0007 182.812C97.5092 181.465 104.197 181.511 112.812 181.388C135.277 181.067 150.442 183.225 166.663 198.488C169.112 200.784 164.276 197.707 168.286 196.099C169.143 195.763 173.687 198.457 178.845 201.702C180.696 202.881 180.344 205.483 182.211 206.693C183.665 207.627 187.368 207.183 188.654 208.009C191.623 209.907 194.01 211.392 195.005 211.775C198.203 213.076 194.943 215.464 197.989 217.929C207.936 225.966 219.673 232.671 229.85 240.402C240.791 248.729 243.454 267.711 245.719 281.275L237.134 361.008C231.08 359.749 224.85 359.588 218.74 360.533C215.128 361.1 211.578 362.034 207.951 362.508C203.498 363.09 198.983 362.922 194.484 362.86C131.88 361.988 68.0662 378.903 7.45103 363.212C5.41573 362.677 -1.33289 362.922 -2.29698 360.855C-3.26107 358.789 -3.9344 356.385 -3.9038 355.038C-3.44348 330.457 0.211023 331.919 -3.9038 307.681C-5.26576 299.644 -6.87258 291.623 -7.5 283.479L-1.56244 262.598Z" fill="#E9F2F8"/>
<path d="M85.8639 204.745C87.0881 211.205 92.0769 215.889 97.4788 219.624C102.881 223.36 112.583 225.059 119.133 225.595C132.4 226.697 143.434 223.115 146.999 220.849C149.31 219.379 156.319 213.18 156.946 212.2C157.574 211.22 159.946 207.837 160.512 206.796C163.312 201.607 161.69 198.147 160.298 194.58C159.349 192.192 157.941 190.217 157.926 187.63C157.895 177.603 159.343 173.338 163 164C160.238 166.551 153.244 168.349 149.5 170.5C145.424 172.841 144.552 175.449 140.5 176C137.975 176.337 130.5 176 126 174.5C116.804 171.435 115 169.5 112.5 165C111.389 163 111.668 159.888 110 157.5C104.981 150.366 102.683 143.113 99.5 135C98.643 150.206 97.3309 165.198 95.2905 180.313C95.1834 181.17 95.061 182.043 94.6937 182.839C94.0663 184.186 91.5413 183.788 90.516 184.859C86.7361 188.84 85.4354 194.442 85.114 199.77C85.0278 201.462 85.2829 203.153 85.8639 204.745Z" fill="#FBA777"/>
<path d="M97.9995 136.5C97.418 148.41 99.1464 155.04 103.691 163.903C105.604 167.623 106.859 174.114 109.522 177.359C111.419 179.671 114.067 183.682 115.107 185.947C117.785 191.78 123.019 198.515 128.513 199.066C141.138 200.368 145.805 186.85 150.58 184.08C158.491 179.503 159.5 172.5 163.358 163.49C158.5 167.691 157 167.5 149.5 171.5C147 174 142.368 177.046 139.5 177.359C134.02 177.957 125.346 175.909 120 174C116.125 172.256 113.5 169 112 163.903C110.5 158.807 105.471 156.37 103 152C100.695 147.926 97.9995 136.5 97.9995 136.5Z" fill="#E07B63"/>
<path d="M53.3608 187.371C63.6597 185.182 70.6838 183.191 80.2329 181.064C82.513 180.558 85.2982 181.416 86.4918 183.436C83.4159 183.253 81.2123 186.253 79.6207 188.901L48.4944 241.041C43.2455 249.813 37.966 258.676 34.7983 268.382C32.0593 276.737 30.9425 285.539 31.5081 294.314C28.6771 287.532 28.4322 279.986 28.2333 272.638C28.0956 267.295 27.9425 261.922 28.4934 256.61C28.9066 252.676 29.7024 248.803 30.5899 244.945C35.2574 224.738 42.0978 206.598 51.8764 188.32L53.3608 187.371Z" fill="#292A33"/>
<path d="M150.075 109.268C149.631 107.92 148.193 107.079 146.923 106.665C145.593 106.211 144.148 106.216 142.822 106.681C142.566 106.755 142.323 106.868 142.102 107.017C141.91 107.208 141.781 107.454 141.735 107.721C141.643 108.012 142.087 108.119 142.179 107.844C142.206 107.654 142.291 107.477 142.424 107.339C142.577 107.25 142.742 107.183 142.913 107.14C143.481 106.924 144.081 106.805 144.689 106.788C145.947 106.758 147.185 107.11 148.239 107.798C148.836 108.181 149.402 108.701 149.631 109.39C149.739 109.666 150.182 109.543 150.075 109.268Z" fill="black"/>
<path d="M138.384 101.124C139.823 100.894 141.292 101.047 142.715 101.308C144.138 101.568 145.561 101.874 146.969 102.18C149.831 102.777 152.677 103.39 155.524 104.063C157.131 104.461 158.722 104.859 160.314 105.303C160.372 105.319 160.435 105.312 160.488 105.281C160.541 105.251 160.58 105.201 160.597 105.142C160.613 105.084 160.605 105.021 160.575 104.968C160.545 104.914 160.495 104.875 160.436 104.859C157.59 104.079 154.713 103.39 151.836 102.747L147.505 101.813C146.051 101.507 144.597 101.185 143.128 100.91C141.659 100.634 139.884 100.42 138.262 100.68C137.971 100.726 138.094 101.17 138.384 101.124Z" fill="black"/>
<path d="M149.279 110.524C149.907 115.423 149.846 119.893 151.865 124.424C154.498 130.348 156.961 135.308 162.96 137.788C164.123 138.263 167.872 138.569 169.127 138.477C171.285 138.324 173.045 136.778 174.636 135.323C177.529 132.644 180.65 129.552 180.834 125.603L182.732 125.358V123.414L181.125 123.23C182.242 117.658 179.426 111.519 174.468 108.718C172.723 107.723 170.765 107.141 168.806 106.666C165.129 105.759 161.372 105.216 157.589 105.044C156.288 104.982 154.957 104.982 153.748 105.457C151.942 106.177 150.718 107.86 149.616 109.468L149.279 110.524Z" fill="#16161A"/>
<path d="M188.119 129.507C187.706 128.251 187.216 126.935 186.176 126.124C185.135 125.312 183.88 124.899 182.732 125.358L182.855 123.414L185.135 124.669C185.586 124.902 186.017 125.173 186.42 125.481C186.987 125.931 187.445 126.504 187.76 127.156C188.076 127.808 188.24 128.522 188.242 129.247C188.243 129.267 188.24 129.287 188.232 129.306C188.224 129.325 188.212 129.341 188.196 129.354C188.15 129.369 188.15 129.277 188.18 129.292" fill="#16161A"/>
<path d="M141.888 108.118C141.582 109.251 141.383 110.338 140.893 111.409C137.649 118.665 130.349 123.319 122.866 125.983C119.974 127.008 116.837 127.804 113.868 127.039C110.333 126.121 107.64 123.028 106.461 119.569C105.283 116.109 105.466 112.328 106.17 108.746L106.691 105.531C107.838 102.852 109.078 100.081 111.328 98.2595C115.49 94.907 121.565 95.8714 126.738 97.2186C128.758 97.739 130.778 98.2901 132.782 98.8872C136.516 99.9894 140.771 101.734 141.75 105.5C141.884 106.026 141.951 106.566 141.949 107.108L141.888 108.118Z" fill="#16161A"/>
<path d="M97.2332 106.146C99.1613 106.59 101.105 107.019 103.079 107.049C104.21 107.042 105.339 106.965 106.461 106.82L106.201 108.81C105.874 108.675 105.528 108.592 105.175 108.565C103.446 108.335 99.345 107.662 97.6004 107.417C97.6004 107.417 97.7076 106.835 96.8047 106.039L97.2332 106.146Z" fill="#16161A"/>
<path d="M167.581 194.922C167.581 194.922 176.84 198.045 179.074 200.601C181.308 203.158 180.788 204.535 183.91 205.867C186.159 206.832 187.307 206.663 189.556 207.612C192.617 208.898 197.269 211.715 197.238 213.72C197.177 217.027 195.203 220.18 194.469 223.426C189.048 247.13 187.677 271.58 190.413 295.742C190.964 300.549 191.668 305.417 190.964 310.193C190.26 314.969 188.194 319.577 188.516 324.399L180.267 321.368C179.074 320.924 177.88 320.48 176.87 319.715C174.957 318.245 174.054 315.842 173.32 313.545C169.907 302.891 166.678 296.094 164.873 285.042C163.572 276.974 161.231 269.381 160.374 261.268C159.914 257.043 159.119 249.281 158.782 245.056C157.42 228.523 163.189 212.067 166.939 195.917L167.581 194.922Z" fill="#292A33"/>
<path d="M82.911 184.597C80.2483 187.061 79.575 190.919 79.0547 194.501C78.213 200.165 77.3866 205.998 78.7945 211.539C81.2124 221.153 89.9045 228.011 99.0557 231.792C117.741 239.538 140.358 236.89 156.748 225.026C158.232 223.954 159.747 222.714 160.36 221C160.972 219.285 164.537 217.525 164.874 215.657C165.211 213.79 164.43 212.458 165.364 210.789C167.567 206.886 166.986 201.972 167.766 197.548C167.858 197.027 167.919 196.415 167.552 196.017C167.185 195.619 166.817 195.649 166.419 195.588C162.533 194.93 159.763 192.71 157.911 189.235C160.145 193.292 161.461 197.425 161.079 202.048C160.574 208.11 155.998 213.055 151.055 216.576C136.074 227.23 116.516 228.945 100.02 220.847C97.0357 219.377 93.7915 217.173 91.5266 214.754C85.1759 207.942 83.768 199.017 87.1959 190.368C87.7468 188.99 88.6496 187.704 89.5525 186.541C90.4554 185.378 91.3583 184.092 92.3224 184.03C94.6178 183.893 95.0769 181.596 95.4136 179.836C91.5113 183.02 88.3283 182.239 83.7374 184.26L82.911 184.597Z" fill="white"/>
</g>
</svg>
