<svg width="251" height="250" viewBox="0 0 251 250" fill="none" xmlns="http://www.w3.org/2000/svg">
<mask id="mask0_1717_3814" style="mask-type:alpha" maskUnits="userSpaceOnUse" x="0" y="0" width="251" height="250">
<rect x="0.5" width="250" height="250" fill="#C4C4C4"/>
</mask>
<g mask="url(#mask0_1717_3814)">
<path d="M171.949 26.6842C183.243 30.3527 195.138 31.7666 206.628 34.7677C223.942 39.3032 240.129 47.3772 254.167 58.4804C254.613 58.8337 255.058 59.1927 255.5 59.5574V-1H142.5L145.35 9.03906C151.59 17.7587 161.659 23.3412 171.949 26.6842Z" fill="#150DCE"/>
<path d="M255.5 59.5574C255.059 59.1927 254.615 58.8337 254.167 58.4804C240.129 47.3772 223.942 39.3032 206.628 34.7677C195.138 31.7666 188.294 24.6671 177 21C166.71 17.657 151.59 17.7587 145.35 9.03906L142 -4.5L139.5 -11.5H6.93644C11.7055 -4.54369 -12.5 -5.37277 -12.5 16.5C-12.5 38.3728 -4.5 46 -4.5 74.376V112.246C-2.85595 114.013 3.47808 127.899 6.93644 132.52C10.9533 137.887 20.0027 145.769 24.6122 150.636C54.5036 182.198 54.0598 216.615 36.3478 246.326C32.8182 252.246 28.4367 257.87 26.8361 264.573C26.4868 266.039 26.2743 267.534 26.2014 269.039H102.587C84.2911 248.929 72.943 222.387 72.3353 193.204C46.569 178.131 29.2644 150.169 29.2644 118.168C29.2644 70.1875 68.1575 31.2922 116.139 31.2922C148.145 31.2922 176.107 48.6018 191.179 74.3667C215.087 74.8654 237.224 82.5706 255.502 95.4011L255.5 59.5574Z" fill="#66C3CD"/>
<path d="M116.136 31.2891C68.1568 31.2891 29.2637 70.1844 29.2637 118.168C29.2637 150.173 46.5733 178.135 72.3375 193.208C85.1971 200.73 100.164 205.043 116.139 205.043C164.118 205.043 203.013 166.15 203.013 118.168C203.013 102.194 198.701 87.2268 191.178 74.3671C176.103 48.5972 148.141 31.2891 116.136 31.2891Z" fill="#150DCE"/>
<path d="M219.16 244.587C225.799 234.198 226.497 220.281 220.935 209.279C218.715 204.889 215.607 200.996 213.368 196.615C208.114 186.342 208.031 174.056 210.652 162.819C214.142 147.838 222.63 133.647 235.575 125.335C241.526 121.513 248.458 119.115 255.5 118.393V95.3937C237.222 82.5633 215.084 74.8573 191.177 74.3594C198.7 87.219 203.012 102.186 203.012 118.16C203.012 166.14 164.119 205.035 116.137 205.035C100.162 205.035 85.1956 200.722 72.3359 193.2C72.9436 222.383 84.2917 248.926 102.587 269.035H197.683C203.409 260.192 213.336 253.7 219.16 244.587Z" fill="#66C3CD"/>
<path d="M116.65 148.164C115.337 152.422 116.725 156.97 117.714 161.318C118.703 165.666 119.157 170.658 116.406 174.163C115.502 175.316 114.313 176.204 113.27 177.233C111.852 178.62 110.698 180.253 109.604 181.91C103.068 191.829 98.4742 202.877 93.9202 213.844C88.4873 226.938 83.0045 240.202 80.9922 254.234C88.2077 251.534 93.2161 245.064 97.835 238.904L103.193 231.745C108.816 224.232 114.443 216.719 119.761 208.987C128.754 195.898 136.849 182.215 144.648 168.382C145.412 167.034 146.176 165.661 146.606 164.173C147.095 162.456 147.12 160.649 147.185 158.867C147.295 155.862 147.536 152.865 147.909 149.876C138.946 157.11 124.635 156.526 116.291 148.588" fill="#FFBE85"/>
<path d="M110.832 202.539C110.887 202.32 110.742 202.1 110.538 202.025C110.333 201.95 110.053 202.05 109.888 202.215C109.723 202.38 109.618 202.664 109.528 202.914L109.224 203.787C109.124 204.072 109.029 204.357 108.924 204.641C108.835 204.912 108.724 205.176 108.594 205.43C108.364 205.849 108.05 206.204 107.755 206.573C107.46 206.942 107.115 207.417 106.975 207.926C106.96 207.981 107.01 208.041 107.065 208.021C108.067 207.658 108.968 207.063 109.693 206.283C110.051 205.903 110.357 205.477 110.603 205.016C110.739 204.778 110.842 204.523 110.907 204.257C110.961 204.002 110.984 203.743 110.977 203.483C110.972 203.15 110.923 202.82 110.832 202.5C110.802 202.405 110.658 202.445 110.688 202.539C110.758 202.79 110.801 203.048 110.817 203.308C110.837 203.553 110.828 203.799 110.792 204.042C110.751 204.302 110.67 204.555 110.553 204.791C110.086 205.705 109.402 206.49 108.559 207.077C108.084 207.408 107.569 207.676 107.025 207.876L107.12 207.966C107.355 207.102 108.08 206.498 108.559 205.774C108.849 205.34 109.014 204.851 109.184 204.362C109.354 203.872 109.543 203.293 109.743 202.764C109.833 202.519 109.968 202.25 110.233 202.165C110.289 202.145 110.349 202.139 110.408 202.146C110.467 202.154 110.524 202.176 110.573 202.21C110.658 202.28 110.717 202.39 110.688 202.5C110.685 202.509 110.684 202.519 110.685 202.529C110.687 202.539 110.69 202.548 110.695 202.557C110.699 202.565 110.706 202.573 110.714 202.579C110.722 202.585 110.73 202.589 110.74 202.592C110.749 202.594 110.759 202.595 110.769 202.594C110.779 202.593 110.788 202.59 110.797 202.585C110.806 202.58 110.813 202.573 110.819 202.566C110.825 202.558 110.83 202.549 110.832 202.539Z" fill="black" stroke="black" stroke-width="0.5"/>
<path d="M107.838 211.335C108.108 210.657 108.318 209.923 108.188 209.204C108.058 208.485 107.498 207.801 106.769 207.746C106.319 207.711 105.884 207.911 105.525 208.18C104.501 208.949 103.981 210.327 104.241 211.58C103.521 211.42 102.752 211.266 102.062 211.53C101.033 211.924 100.544 213.148 100.574 214.251C100.589 214.97 100.808 215.733 101.378 216.163C101.947 216.592 102.917 216.517 103.232 215.873C103.346 215.644 103.366 215.374 103.506 215.159C103.646 214.945 104.001 214.83 104.151 215.039C104.231 215.149 104.216 215.304 104.196 215.444L103.746 218.339C103.721 218.504 103.012 218.689 102.792 218.808C102.572 218.928 102.582 219.947 102.792 220.076C103.202 220.116 103.356 220.296 103.311 220.7C103.266 221.105 103.097 221.519 103.197 221.914C103.336 222.468 103.991 222.787 104.556 222.672C105.12 222.557 105.56 222.108 105.81 221.594C106.059 221.08 106.149 220.501 106.234 219.937C106.899 219.652 106.904 219.747 107.034 219.427C107.163 219.108 107.139 218.759 107.099 218.419C106.847 218.357 106.584 218.361 106.334 218.429C106.279 217.815 106.224 217.186 106.359 216.587C106.494 215.988 106.844 215.394 107.403 215.134C107.413 215.539 107.433 215.958 107.633 216.307C107.833 216.657 108.363 216.787 108.642 216.782C108.922 216.777 109.562 216.652 109.796 216.462C111.35 215.219 111.415 213.507 111.345 213.083C111.235 212.419 110.851 211.176 109.831 211.176C109.162 211.176 108.822 211.256 107.918 211.295" fill="#FFE6A7"/>
<path d="M116.291 148.588L116.486 148.773C116.536 148.568 116.591 148.364 116.651 148.164L116.291 148.588Z" fill="#F6D2B9"/>
<path d="M112.738 155.194C114.171 160.606 119.769 166.816 116.538 171.388C110.276 180.244 104.564 186.494 102.027 195.37C104.549 195.565 108.139 193.997 109.802 192.095C111.465 190.193 112.643 187.912 114.206 185.92C117.477 181.757 122.59 178.607 123.684 173.425C124.428 169.886 123.055 166.252 123.13 162.637C123.145 161.669 123.329 160.596 124.088 159.997C124.673 159.542 125.456 159.378 126.196 159.392C141.191 159.702 150.179 154.735 154.224 145.415C147.128 147.821 138.105 148.001 130.63 147.467C127.324 147.227 124.043 146.703 120.768 146.174L110.551 144.531C110.551 144.531 112.039 152.563 112.738 155.194Z" fill="#D28643"/>
<path d="M103.017 198.173C100.375 196.376 101.953 193.366 101.219 193.625C96.7901 195.203 96.4306 197.329 94.7228 201.707C92.3426 207.824 89.9591 213.936 87.5723 220.043C89.5497 220.911 91.567 221.695 93.6093 222.389C98.408 209.38 103.017 198.173 103.017 198.173Z" fill="#D28643"/>
<path d="M150.449 151.188C142.664 155.336 136.862 163.024 134.999 171.64C134.425 174.286 134.21 176.996 133.551 179.622C132.133 185.273 128.768 190.21 125.437 194.997C118.406 205.111 111.272 215.155 104.035 225.129C106.402 225.575 108.786 225.905 111.186 226.118C123.425 208.945 134.62 191.034 145.221 172.803C149.071 166.179 152.971 158.421 150.449 151.188Z" fill="#D28643"/>
<path d="M99.3086 43.4866C87.8137 59.5259 81.6069 79.7686 84.4481 99.2924C86.4755 113.22 92.912 126.174 100.852 137.796C102.864 140.736 105.001 143.641 107.762 145.893C109.75 147.51 112.012 148.753 114.274 149.951C121 153.501 128.36 156.82 135.91 155.937C143.046 155.103 149.243 150.595 154.226 145.424C163.065 136.243 169.207 124.262 170.39 111.578C170.839 106.775 170.585 101.923 171.189 97.1358C171.878 91.6895 173.671 86.2382 172.772 80.8219C171.414 72.64 164.408 66.7594 160.178 59.6258C156.763 53.855 155.02 46.981 150.346 42.1687C148.194 39.9572 145.533 38.3148 142.831 36.8272C139.311 34.8903 135.636 33.1631 131.726 32.2545C120.366 29.6088 109.41 34.8104 100.267 42.0489L99.3086 43.4866Z" fill="#FFBE85"/>
<path d="M87.303 86.5809C89.1766 84.05 89.7911 82.0682 91.4998 76.7517C92.9137 72.3687 92.7938 67.6362 93.798 63.1434C96.6309 50.4787 108.836 40.9639 121.772 39.8756C126.103 39.5162 130.45 39.9705 134.772 40.4247C137.629 46.0757 145.658 47.154 149.225 52.3906C151.359 55.5206 151.489 59.5392 152.333 63.2333C154.376 72.174 160.702 79.4274 166.812 86.2714C168.256 81.8285 167.806 76.9264 166.297 72.5084C164.788 68.0905 162.265 64.0769 159.567 60.263C158.678 59.005 157.764 57.757 157.039 56.3942C155.985 54.4174 155.361 52.2359 154.386 50.2191C150.155 41.498 140.167 37.2249 130.705 35.0883C125.169 33.8403 119.403 33.0665 113.833 34.1448C105.624 35.7272 98.6044 41.2185 93.4333 47.778C88.9055 53.5397 85.5869 60.1545 83.6758 67.2269C83.0313 69.6131 82.5517 72.0841 82.8165 74.5352C83.3611 79.6271 87.0432 84.649 85.2246 89.4314L87.303 86.5809Z" fill="#D28643"/>
<path d="M115.274 126.976C120.287 125.857 125.69 127.175 130.573 125.578C131.507 125.273 132.411 124.889 133.335 124.549C137.35 123.067 141.629 122.453 145.868 121.844C145.519 122.76 145.006 123.606 144.355 124.34C143.586 125.213 142.638 125.912 141.694 126.596C139.187 128.423 136.641 130.245 133.809 131.513C130.978 132.781 127.807 133.48 124.746 132.961C123.378 132.726 122.065 132.257 120.761 131.768C118.539 130.934 116.322 130.041 114.33 128.753C114.085 128.593 113.821 128.393 113.776 128.104C113.731 127.814 113.94 127.535 114.205 127.4C114.47 127.265 114.994 127.035 115.274 126.976Z" fill="#FEFFFD"/>
<path d="M120.89 127.513C123.981 127.891 127.114 127.749 130.158 127.094C131.072 126.894 131.981 126.65 132.82 126.245C133.658 125.841 134.492 125.217 135.376 124.793C136.26 124.368 137.064 124.164 137.938 123.939C140.719 123.233 143.54 122.698 146.387 122.337C146.546 122.317 146.721 122.287 146.836 122.172C146.951 122.057 146.966 121.797 146.906 121.603C146.661 120.794 145.887 120.579 144.889 120.335C144.065 120.13 143.426 119.965 142.612 119.731C141.798 119.496 141.014 119.192 140.06 118.892C137.818 118.193 135.426 118.433 133.249 119.306C131.072 120.18 128.9 121.338 126.553 121.313C125.11 121.298 123.697 120.834 122.253 120.854C120.426 120.874 118.349 121.348 117.225 122.786C116.102 124.224 115.263 125.531 113.38 126.675C113.091 126.844 112.931 127.204 112.901 127.538C112.871 127.873 113.135 128.252 113.465 128.197C113.465 128.197 118.418 127.209 120.89 127.513Z" fill="#D6675B"/>
<path d="M118.319 130.111C123.996 132.327 130.368 132.886 135.671 129.881C136.789 129.247 137.833 128.488 138.866 127.725C140.261 126.706 141.653 125.686 143.041 124.664C143.555 124.29 144.065 123.916 144.489 123.441C145.043 122.822 146.117 121.879 146.906 121.609C147.55 122.987 146.456 124.744 145.857 126.137C143.83 130.85 140.17 134.938 135.486 137.02C130.802 139.101 125.085 139.022 120.69 136.376C118.668 135.153 116.975 133.46 115.377 131.718C114.219 130.455 112.701 129.247 112.901 127.545C112.901 127.545 116.636 129.457 118.319 130.111Z" fill="#FF7876"/>
<path d="M122.553 115.561C122.533 115.321 122.379 115.116 122.224 114.932C121.375 113.946 120.22 113.275 118.943 113.025C117.94 112.83 116.766 112.965 116.117 113.753C116.027 113.863 115.947 113.983 115.927 114.123C115.877 114.412 116.092 114.692 116.357 114.812C116.621 114.932 116.996 114.932 117.215 114.947C118.554 115.021 120.886 115.341 122.553 115.561Z" fill="#804626"/>
<path d="M133.788 111.469C133.973 111.304 134.158 111.09 134.143 110.845C134.128 110.6 133.778 110.336 133.468 110.256C132.24 109.932 130.907 110.431 129.968 111.284C129.029 112.138 128.43 113.301 127.961 114.479C127.921 114.589 127.891 114.739 127.996 114.794C128.021 114.806 128.049 114.812 128.077 114.813C128.106 114.814 128.134 114.809 128.16 114.799C128.41 114.724 128.63 114.569 128.845 114.419C129.693 113.805 130.592 113.331 131.491 112.797C132.06 112.458 133.234 111.953 133.788 111.469Z" fill="#804626"/>
<path d="M129.063 113.383C129.717 111.896 130.606 110.972 132.169 110.528C132.533 110.423 133.402 110.478 133.717 110.693C133.886 110.812 134.001 111.112 134.141 111.267C134.141 111.267 135.749 111.821 136.528 111.202C137.307 110.583 137.906 109.479 137.706 108.451C137.482 107.318 136.468 106.539 135.524 105.87C134.73 105.306 133.841 104.712 132.868 104.807C133.692 105.641 134.555 106.559 134.745 107.717C134.785 107.987 134.785 108.281 134.63 108.501C134.476 108.721 134.186 108.835 133.921 108.915C132.124 109.464 128.548 107.493 127.62 109.08C126.995 110.403 125.602 112.24 124.164 112.495C122.726 112.749 121.528 112.485 120.289 111.706C119.87 111.441 119.425 110.513 118.951 110.373C118.477 110.233 118.407 110.378 118.132 110.792C118.032 110.937 117.982 111.107 117.892 111.257C117.578 111.791 116.884 111.931 116.27 112.015C115.655 112.1 114.901 112.16 114.487 111.681C114.162 111.317 114.167 110.772 114.187 110.283L114.317 107.597C113.179 109.03 112.44 110.857 112.654 112.674C112.869 114.491 112.979 115.09 114.297 115.709C114.547 115.824 116.205 115.909 116.374 115.525C116.544 115.14 116.005 114.536 116.304 113.982C116.604 113.428 118.167 113.164 118.771 113.343C120.534 113.872 121.413 114.067 121.942 115.056C122.112 115.365 121.977 115.17 122.202 115.445C122.566 115.884 123.115 116.134 123.67 116.244C125.672 116.638 127.655 116.588 129.063 113.383Z" fill="#D28643"/>
<path d="M127.906 75.5601C127.358 76.4009 127.103 77.3998 127.182 78.4006C127.227 78.8898 127.387 79.4289 127.821 79.6586C128.341 79.9331 128.97 79.6386 129.474 79.3341C132.116 77.7666 134.617 75.9046 137.489 74.7913C142.757 72.7546 148.704 73.4685 154.157 74.9561C154.606 75.0759 155.145 75.1807 155.48 74.8612C156.014 74.347 155.415 73.4685 154.796 73.0641C153.597 72.2853 152.219 71.8311 150.866 71.3818C148.819 70.7029 146.741 70.019 144.589 69.9191C143.271 69.8592 141.953 70.019 140.644 70.1787C136.23 70.7228 131.427 71.4517 128.401 74.7115L127.906 75.5601Z" fill="#562F1D"/>
<path d="M89.2368 85.9134C93.3463 83.9116 98.165 83.3974 102.604 84.4956C104.716 85.0148 106.749 85.8884 108.906 86.1031C109.62 86.178 110.364 86.173 111.028 85.9084C111.692 85.6438 112.281 85.0847 112.401 84.3808C112.626 83.1029 111.393 82.0945 110.304 81.3906C108.776 80.4072 107.218 79.4088 105.47 78.9096C103.093 78.2307 100.547 78.5302 98.1251 79.0494C95.8281 79.5486 93.5361 80.2474 91.5487 81.5004C89.5613 82.7534 87.8736 84.6105 87.1895 86.8619C87.8436 86.5723 88.4877 86.2329 89.1419 85.9483L89.2368 85.9134Z" fill="#562F1D"/>
<path d="M104.037 225.137C100.501 224.472 97.0169 223.558 93.6106 222.401C91.5683 221.707 89.5509 220.923 87.5735 220.055C84.1414 228.847 80.7126 237.638 77.2871 246.428C76.5581 248.295 75.819 250.221 75.859 252.223C75.8989 254.225 76.9226 256.352 78.7901 257.081C80.7675 257.849 82.9746 256.881 84.7872 255.778C91.9578 251.405 97.3706 244.71 102.449 238.016C105.422 234.099 108.335 230.135 111.187 226.125C108.791 225.909 106.407 225.579 104.037 225.137Z" fill="#00007E"/>
<path d="M105.083 169.617C104.261 178.657 103.111 197.23 105.083 199.202C107.549 201.667 110.507 203.64 115.438 201.174C120.369 198.709 125.299 194.764 131.216 189.833C135.95 185.889 143.708 174.712 146.995 169.617" stroke="black"/>
<path d="M237.92 200.592C237.316 198.9 236.672 197.203 235.708 195.69C234.345 193.539 232.398 191.826 230.38 190.269C221.512 183.425 210.976 179.087 200.35 175.533C182.903 169.702 164.672 165.773 146.336 164.984C145.897 166.167 145.272 167.281 144.648 168.384C136.849 182.217 128.754 195.9 119.761 208.989C114.443 216.722 108.815 224.235 103.193 231.748L97.8349 238.906C93.216 245.066 88.2076 251.536 80.9921 254.237C83.0045 240.204 88.4872 226.94 93.9201 213.846C98.4741 202.879 103.068 191.831 109.604 181.912C110.698 180.255 111.851 178.623 113.27 177.235C114.313 176.206 115.502 175.318 116.405 174.165C118.128 171.973 118.593 169.203 118.463 166.367C96.3868 169.682 75.01 178.548 58.4118 193.399C54.2773 197.098 50.4323 201.172 47.4663 205.859C37.754 221.175 37.1049 243.259 26.1094 256.932L24.4965 263.557C23.4579 266.537 24.2269 264.44 25.1756 267.451C34.6531 270.496 44.8896 268.788 54.8365 268.499C69.657 268.07 84.3577 270.86 99.0983 272.448C138.631 276.691 178.524 272.223 218.037 267.755C225.986 266.856 233.991 265.948 241.626 263.557C242.884 263.162 244.232 262.648 244.911 261.52C245.346 260.791 245.436 259.918 245.505 259.079C247.183 239.34 244.577 219.248 237.92 200.592Z" fill="#D5D5D5"/>
<path d="M137.737 201.882C133.193 208.301 128.549 214.656 123.92 221.011C119.291 227.366 114.688 233.611 109.959 239.826C105.23 246.041 100.406 252.191 95.4329 258.216C94.8137 258.965 94.1895 259.719 93.5603 260.468C93.3157 260.762 93.7351 261.187 93.9848 260.892C98.9882 254.907 103.837 248.792 108.586 242.606C113.334 236.421 118.028 230.086 122.652 223.757C127.276 217.427 131.935 211.042 136.509 204.637C141.029 198.307 145.427 191.896 149.701 185.403C153.829 179.13 157.844 172.781 161.746 166.358L161.096 166.273C157.761 171.765 154.34 177.201 150.835 182.582C146.59 189.099 142.225 195.532 137.737 201.882Z" fill="black"/>
<path d="M153.246 199.39L137.876 218.893C132.77 225.37 127.665 231.846 122.562 238.322L107.192 257.826C106.563 258.625 105.934 259.419 105.309 260.217C105.07 260.517 105.494 260.941 105.729 260.642L121.163 241.058L136.598 221.474L152.028 201.896C156.767 195.885 161.58 189.93 166.059 183.72C169.51 178.932 172.751 173.965 175.467 168.719L174.858 168.594C172.551 173.017 169.874 177.25 167.018 181.338C162.679 187.543 157.93 193.449 153.246 199.39Z" fill="black"/>
<path d="M163.228 204.258C158.644 210.043 154.051 215.819 149.536 221.66C145.022 227.5 140.588 233.426 136.354 239.486C132.119 245.547 128.14 251.692 124.454 258.057C123.995 258.855 123.539 259.656 123.086 260.458C122.902 260.797 123.416 261.097 123.606 260.762C127.221 254.323 131.176 248.083 135.35 241.992C139.525 235.902 143.924 229.952 148.418 224.086C152.912 218.22 157.566 212.36 162.185 206.534C166.804 200.708 171.348 194.957 175.817 189.082C180.111 183.436 184.296 177.715 188.28 171.844L187.671 171.68C184.216 176.757 180.616 181.734 176.92 186.636C172.446 192.581 167.847 198.427 163.228 204.258Z" fill="black"/>
<path d="M170.156 203.11C166.48 209.006 163.434 215.261 160.304 221.456L150.671 240.53C149.063 243.705 147.457 246.883 145.853 250.065C144.34 253.055 142.792 256.04 141.588 259.175C141.285 259.964 141.006 260.763 140.749 261.572C140.635 261.941 141.214 262.101 141.329 261.731C142.342 258.486 143.82 255.421 145.348 252.391C146.936 249.23 148.532 246.071 150.137 242.916L159.769 223.842C162.9 217.642 165.921 211.367 169.472 205.391C172.717 199.92 176.482 194.788 180.167 189.617C183.853 184.445 187.398 179.318 190.304 173.737C190.504 173.358 190.704 172.968 190.893 172.584L190.309 172.414C187.648 177.711 184.352 182.653 180.941 187.49C177.296 192.662 173.506 197.739 170.156 203.11Z" fill="black"/>
<path d="M190.961 183.25C186.866 188.317 184.634 194.557 182.437 200.602C179.977 207.371 177.364 214.079 174.598 220.725C171.811 227.439 168.9 234.099 165.924 240.733C162.948 247.367 159.952 253.862 156.926 260.412L155.782 262.883C155.623 263.232 156.137 263.537 156.302 263.187C159.303 256.693 162.304 250.198 165.25 243.673C168.196 237.149 171.062 230.669 173.829 224.105C176.595 217.54 179.271 210.876 181.763 204.172C184.055 198.006 186.037 191.592 189.668 186.04C192.594 181.578 196.853 177.629 202.061 176.111L201.123 175.797C197.113 177.17 193.623 179.955 190.961 183.25Z" fill="black"/>
<path d="M206.117 182.85C204.64 183.732 203.288 184.808 202.097 186.05C200.916 187.285 199.875 188.646 198.991 190.108C198.112 191.568 197.361 193.101 196.749 194.691C196.674 194.89 196.599 195.085 196.529 195.285C196.459 195.485 196.589 195.619 196.739 195.654C196.816 195.672 196.896 195.66 196.964 195.621C197.033 195.582 197.084 195.519 197.108 195.445C197.403 194.636 197.698 193.912 198.052 193.148C198.407 192.384 198.786 191.651 199.206 190.927C199.621 190.205 200.073 189.506 200.559 188.83C200.679 188.66 200.804 188.491 200.933 188.326C201.063 188.161 201.163 188.026 201.293 187.867C201.553 187.544 201.822 187.229 202.102 186.923C203.235 185.675 204.484 184.592 205.887 183.693C206.607 183.237 207.358 182.83 208.134 182.475L208.414 182.356L208.668 182.251C208.863 182.166 209.063 182.091 209.267 182.016C209.667 181.871 210.071 181.741 210.486 181.627C210.9 181.512 211.3 181.422 211.714 181.342L212.328 181.237L212.483 181.212H212.513L212.593 181.202L212.913 181.167C213.533 181.102 214.157 181.078 214.78 181.098L213.487 180.523C212.62 180.577 211.76 180.705 210.915 180.908C209.227 181.31 207.609 181.964 206.117 182.85Z" fill="black"/>
<path d="M195.024 200.718L195.463 199.23C195.573 198.856 194.994 198.701 194.884 199.071L191.274 211.236C190.082 215.27 188.885 219.305 187.683 223.342L184.073 235.507L180.463 247.668L176.853 259.833L176.408 261.326C176.298 261.695 176.878 261.855 176.988 261.486L180.598 249.32C181.796 245.287 182.993 241.251 184.188 237.215L187.798 225.049L191.409 212.883C192.614 208.83 193.819 204.775 195.024 200.718Z" fill="black"/>
<path d="M212.164 189.218C207.9 192.363 205.358 197.146 203.795 202.103C202.072 207.564 201.368 213.285 200.38 218.906C199.181 225.695 197.813 232.449 196.275 239.169C194.737 245.888 193.028 252.566 191.147 259.202C190.912 260.025 190.677 260.844 190.438 261.668C190.328 262.037 190.907 262.197 191.017 261.827C192.911 255.298 194.64 248.727 196.205 242.114C197.77 235.501 199.166 228.852 200.395 222.166C200.969 219.056 201.483 215.931 202.012 212.811C202.462 210.18 202.946 207.549 203.605 204.958C204.879 199.976 206.861 194.979 210.611 191.325C214.271 187.756 219.419 185.889 224.508 186.218L223.474 185.594C219.449 185.564 215.41 186.822 212.164 189.218Z" fill="black"/>
<path d="M221.357 195.204C219.669 197.545 218.406 200.206 217.253 202.842C216.085 205.514 215.063 208.247 214.192 211.029C212.424 216.63 211.191 222.381 210.167 228.161C209.123 234.027 208.289 239.923 207.331 245.803C206.372 251.684 205.288 257.475 203.75 263.195C203.561 263.894 203.366 264.588 203.166 265.282C203.056 265.656 203.636 265.811 203.74 265.442C205.343 259.931 206.487 254.295 207.455 248.639C208.424 242.983 209.243 237.257 210.187 231.571C211.116 225.96 212.179 220.364 213.682 214.878C215.185 209.391 217.118 204 219.774 198.963C221.073 196.497 222.635 194.066 224.858 192.324C225.931 191.485 227.16 190.816 228.463 190.427C229.005 190.26 229.562 190.143 230.126 190.077L229.466 189.578C228.89 189.676 228.324 189.824 227.774 190.022C225.107 190.986 222.99 192.933 221.357 195.204Z" fill="black"/>
<path d="M229.047 204.418C227.22 206.27 225.512 208.252 223.804 210.214C221.977 212.31 220.189 214.452 218.536 216.693C215.46 220.857 212.983 225.394 211.266 230.282C209.599 235.036 208.632 240.006 208.395 245.038C208.149 250.049 208.649 255.069 209.878 259.934C210.032 260.548 210.202 261.152 210.382 261.756C210.492 262.126 211.071 261.971 210.961 261.596C209.564 256.852 208.883 251.925 208.939 246.98C208.989 242.031 209.752 237.115 211.206 232.383C212.687 227.565 214.89 222.999 217.737 218.84C219.29 216.573 221.003 214.417 222.781 212.32C224.558 210.224 226.251 208.292 228.049 206.34C230.62 203.539 233.706 200.474 237.456 199.336L237.247 198.797C234.096 199.79 231.349 202.082 229.047 204.418Z" fill="black"/>
<path d="M78.296 210.614C78.1262 210.564 77.9914 210.674 77.9264 210.823C76.6282 213.955 75.2899 217.067 73.9117 220.158C72.5335 223.25 71.1204 226.327 69.6723 229.389C68.2242 232.444 66.7362 235.484 65.2082 238.509C63.6802 241.534 62.1206 244.538 60.5294 247.52C58.9315 250.502 57.2969 253.465 55.6258 256.411C55.4211 256.77 55.2164 257.134 55.0066 257.494C54.7969 257.853 55.3362 258.133 55.5259 257.798C57.2137 254.843 58.8632 251.869 60.4744 248.878C62.0856 245.886 63.6619 242.874 65.2032 239.842C66.7345 236.827 68.2309 233.792 69.6923 230.737C71.1537 227.681 72.5818 224.596 73.9767 221.481C75.3648 218.38 76.7147 215.263 78.0263 212.131L78.5057 210.983C78.5656 210.833 78.4358 210.654 78.296 210.614Z" fill="black"/>
<path d="M68.4325 218.685C70.385 215.201 72.1427 211.607 73.6357 207.908C73.8204 207.453 74.0002 206.999 74.175 206.54C74.3098 206.18 73.7306 206.026 73.5957 206.38C72.1726 210.089 70.4748 213.688 68.5773 217.178C66.6798 220.667 64.5726 224.077 62.3456 227.382C60.1185 230.686 57.7566 233.921 55.3398 237.096C52.923 240.271 50.4013 243.431 47.8896 246.566C45.1332 250.01 42.3735 253.452 39.6105 256.889L38.5769 258.177C38.3372 258.477 38.7616 258.901 39.0013 258.602L47.4502 248.068C49.9669 244.933 52.4736 241.793 54.9303 238.609C57.3871 235.424 59.7839 232.184 62.0609 228.864C64.3379 225.544 66.4751 222.18 68.4325 218.685Z" fill="black"/>
<path d="M47.7708 212.465C47.0667 215.62 46.5624 218.815 46.093 222.01C45.5987 225.415 45.1393 228.829 44.5301 232.219C44.1156 234.5 43.6363 236.771 43.0221 239.013L42.9721 239.148C42.338 240.8 41.8586 242.502 41.3243 244.18C40.79 245.857 40.2307 247.384 39.5916 248.952C38.2995 252.113 36.7549 255.164 34.9727 258.077C34.758 258.432 34.5382 258.781 34.3135 259.131C34.0888 259.48 34.6281 259.76 34.8329 259.435C36.6653 256.56 38.2665 253.543 39.6215 250.415C40.2957 248.852 40.9148 247.265 41.4641 245.657C41.6905 244.998 41.9052 244.334 42.1083 243.665C42.1588 243.629 42.1971 243.579 42.2181 243.521C42.7324 242.123 43.1769 240.7 43.5763 239.267C44.0459 238.08 44.5879 236.923 45.1992 235.803C46.0381 234.255 46.9369 232.738 47.7558 231.18C49.3837 228.075 50.8018 224.87 52.1051 221.621C53.4084 218.371 54.5868 215.081 55.7553 211.786L56.1997 210.533C56.3295 210.169 55.7503 210.014 55.6205 210.374C54.452 213.668 53.2836 216.968 52.0152 220.228C50.7469 223.488 49.3637 226.698 47.7858 229.818C46.7122 231.939 45.4539 233.976 44.3603 236.092C44.5451 235.279 44.7098 234.465 44.8696 233.651C45.5188 230.287 45.9932 226.892 46.4775 223.503C46.9419 220.283 47.4213 217.058 48.0804 213.868C48.7146 210.813 49.5135 207.783 50.6021 204.862C51.6008 202.172 52.8641 199.571 54.457 197.18C53.7829 197.869 53.1238 198.567 52.4846 199.286C51.7383 200.647 51.073 202.051 50.4922 203.49C49.3188 206.39 48.4549 209.41 47.7708 212.465Z" fill="black"/>
<path d="M45.1244 200.54C42.7325 208.567 44.8947 218.077 51.3262 223.444C57.7578 228.81 68.3538 228.9 74.1662 222.864C70.9953 223.284 67.9194 221.177 66.2366 218.462C64.5538 215.746 63.9596 212.511 63.4103 209.361C73.1625 212.566 84.3328 211.148 92.9714 205.602L88.0678 205.532C92.7267 202.637 95.9225 197.51 96.4668 192.054C94.9038 194.27 91.1138 194.345 89.471 192.184C94.821 189.284 99.6426 185.502 103.732 180.996C103.623 184.982 102.528 188.878 100.546 192.338C103.9 187.827 107.79 183.74 112.131 180.168C115.142 177.692 118.618 175.056 119.172 171.197C119.352 169.954 119.192 168.686 119.037 167.433C118.481 162.977 117.925 158.516 117.369 154.049C117.269 153.281 117.17 152.497 116.82 151.808C116.381 150.944 115.602 150.315 114.853 149.706C110.73 146.325 107.014 142.505 103.732 138.346C101.005 134.89 99.5636 131.479 97.4523 127.612C94.983 123.089 91.9602 118.045 90.3805 113.13C85.9223 99.2575 85.1091 84.1852 88.5173 69.9689L88.9267 68.5312C90.8891 60.2944 95.2684 52.6017 101.59 46.9607C107.912 41.3197 116.176 37.8253 124.64 37.5507C128.54 37.4209 139.78 41.8039 143.2 43.671C153.916 49.5216 149.422 52.2223 154.55 59.5306C157.466 63.679 159.344 65.9753 161.231 69.6993C163.963 75.0758 162.145 82.7135 166.959 86.3527C167.748 84.1612 169.9 82.5338 172.222 82.3741C174.619 88.8687 173.735 96.4865 169.92 102.262C169.166 103.395 168.302 104.484 167.893 105.782C167.383 107.409 167.648 109.156 167.808 110.854C168.373 117.007 167.407 123.205 164.997 128.895C158.44 144.35 142.007 154.369 136.993 170.388C139.825 168.724 142.249 166.449 144.089 163.729C143.62 166.555 141.957 169.16 139.59 170.773C138.437 171.561 137.093 172.156 136.274 173.284C135.455 174.412 135.301 175.835 135.261 177.207C135.181 179.998 135.69 183.128 137.927 184.8C140.164 186.473 144.319 185.115 144.109 182.334C142.611 182.784 142.137 179.833 143.635 179.374C145.133 178.915 146.601 180.492 146.736 182.05C146.87 183.607 146.136 185.095 145.597 186.568C145.058 188.04 144.723 189.772 145.557 191.1C147.904 194.824 154.146 190.107 158.021 192.199C159.244 192.857 160.023 194.125 161.182 194.894C162.884 196.022 165.341 195.833 166.854 194.46C168.367 193.087 168.777 190.656 167.813 188.859C176.591 188.829 185.235 184.221 190.143 176.943C195.142 169.54 196.16 160.225 196.66 151.309C197.624 134.111 197.074 116.32 190.218 100.52C187.801 94.954 184.641 89.7423 182.204 84.1862C177.265 72.9342 175.373 60.4991 170.1 49.4018C164.827 38.3045 154.6 28.0959 142.311 28.3954C140.684 28.4353 139.041 28.66 137.428 28.4153C136.344 28.2506 135.071 28.2856 134.267 27.5417C128.819 22.4948 125.753 17.3131 113.484 19.2151C106.259 20.3383 91.4983 30.5669 85.8907 35.2594C78.9249 41.0901 74.8103 49.6214 71.7493 58.1728C65.3577 76.0093 62.6763 94.954 57.3233 113.13C52.1751 130.622 44.5901 147.285 38.3433 164.413C35.532 172.121 33.0153 180.807 36.3509 188.3C38.3234 192.748 43.127 196.437 47.8358 195.219L45.1244 200.54Z" fill="#0A0900"/>
<path d="M127.585 83.4343C130.212 79.915 133.897 77.1594 138.086 75.8265C142.276 74.4936 146.94 74.6234 150.969 76.3706C152.323 76.9547 153.611 77.7285 154.61 78.8067C155.394 79.6604 155.978 80.6737 156.552 81.6771C157.126 82.6805 157.775 83.8237 158.065 85.0168C158.23 85.6857 158.285 86.3746 158.315 87.0635C158.444 89.7393 158.21 92.4699 157.226 94.9609C155.943 98.1957 153.376 100.896 150.215 102.354C147.055 103.812 143.579 103.592 140.099 103.512C138.331 103.472 136.224 102.314 134.456 101.326C132.599 100.287 131.275 98.3305 129.977 96.6432C129.333 95.8145 128.858 94.8661 128.409 93.9126C127.006 90.9274 125.788 87.5028 126.896 84.3928L127.585 83.4343Z" fill="#D1711D"/>
<path d="M89.3256 87.9404C93.2005 85.9036 97.3949 85.1898 101.759 85.5642C106.123 85.9386 110.483 88.4296 112.19 92.4632C112.959 94.2952 113.159 96.317 113.179 98.2988C113.199 100.72 112.944 103.206 111.876 105.378C110.353 108.468 108.74 111.193 105.554 112.496C103.187 113.465 100.146 113.919 97.5897 113.804C95.0331 113.689 91.5576 112.361 89.6152 110.694C89.0459 110.205 88.5366 109.656 88.0473 109.087C85.5006 106.146 83.4034 102.577 83.2686 98.6932C83.2136 97.0858 83.4933 95.4833 83.9776 93.9558C84.5369 92.1736 85.6954 90.3216 87.1584 89.3681L89.3256 87.9404Z" fill="#D1711D"/>
<path d="M128.051 96.2721C130.702 93.6812 134.442 92.563 138.068 91.7893C142.971 90.7409 148.264 90.1968 152.853 92.2136C153.712 92.593 154.566 93.0872 155.105 93.8609C155.834 94.9093 155.864 96.2721 155.869 97.55C155.869 98.3637 155.859 99.2174 155.44 99.9113C155.17 100.366 154.746 100.705 154.321 101.015C147.6 105.927 137.638 105.812 131.042 100.745C129.793 99.7865 128.615 98.5934 128.236 97.0708L128.051 96.2721Z" fill="white"/>
<path d="M164.933 84.7955L168.668 80.8169C169.422 80.0132 170.196 79.1945 171.179 78.7003C172.163 78.206 173.406 78.0862 174.325 78.6853C175.354 79.3592 175.693 80.6821 175.873 81.8902C176.962 89.2384 174.959 96.6565 172.977 103.815C172.682 104.893 172.303 106.076 171.334 106.626C170.166 107.29 168.603 106.676 167.794 105.607C166.985 104.539 166.745 103.151 166.595 101.818C166.426 100.321 166.327 98.8181 166.301 97.3105C166.271 95.5084 166.346 93.7063 166.141 91.9191C165.861 89.4581 165.067 87.0918 164.273 84.7456" fill="#FFBE85"/>
<path d="M170.929 100.578C172.273 99.8593 173.556 100.104 174.24 101.552C174.38 101.846 174.225 103.094 173.995 103.513C173.616 104.217 172.363 104.776 171.309 104.332C170.255 103.888 169.646 102.535 170.116 101.492C170.116 101.492 170.4 100.858 170.929 100.578Z" fill="#744535"/>
<path d="M172.288 101.313C172.068 101.438 171.918 101.647 171.774 101.852C171.629 102.057 171.554 102.172 171.559 102.356C171.564 102.541 171.709 102.726 171.878 102.82C172.048 102.915 172.248 102.95 172.438 102.98C172.627 103.01 172.827 103.035 173.017 102.995C173.199 102.952 173.363 102.85 173.481 102.705C173.599 102.559 173.666 102.379 173.671 102.192C173.671 101.817 173.247 101.508 173.017 101.388C172.787 101.268 172.508 101.188 172.288 101.313Z" fill="#FFE4DD"/>
<path d="M86.5659 100.215C86.7259 100.132 86.9092 100.108 87.0854 100.144C87.2616 100.18 87.4201 100.276 87.5346 100.414C88.5732 101.667 90.0962 102.521 91.7191 102.726C92.9325 102.875 94.1609 102.686 95.3693 102.496C101.042 101.592 106.754 100.684 112.142 98.692C112.991 98.3775 114.274 98.2278 114.444 99.1912C114.462 99.3122 114.461 99.4353 114.439 99.5557C113.76 103.944 111.698 108.187 108.362 111.127C105.027 114.067 100.528 115.555 96.2032 114.836C93.9172 114.452 91.771 113.478 89.9764 112.011C89.3173 111.472 88.7031 110.853 88.2936 110.104C87.8841 109.355 87.7344 108.586 87.5646 107.792C87.0752 105.446 86.6558 103.088 86.3062 100.719C86.291 100.618 86.3079 100.515 86.3545 100.425C86.4011 100.334 86.4751 100.261 86.5659 100.215Z" fill="white"/>
<path d="M111.877 105.366C110.354 108.456 108.741 111.182 105.555 112.485C103.188 113.453 100.147 113.908 97.5904 113.793C95.0338 113.678 91.5584 112.35 89.6159 110.683C89.0467 110.194 88.5374 109.645 88.048 109.075C85.5014 106.135 83.4041 102.566 83.2693 98.6821C83.2144 97.0746 83.494 95.4722 83.9784 93.9446C84.5376 92.1625 85.6961 90.3105 87.1592 89.357L89.3263 87.9293C93.2012 85.8925 97.3957 85.1787 101.76 85.5531C106.124 85.9275 110.483 88.4185 112.191 92.452C112.96 94.2841 113.16 96.3059 113.18 98.2877C113.2 100.709 112.945 103.195 111.877 105.366ZM157.227 94.953C155.944 98.1879 153.377 100.889 150.216 102.346C147.055 103.804 143.58 103.584 140.099 103.504C138.332 103.464 136.225 102.306 134.457 101.318C132.599 100.28 131.276 98.3226 129.978 96.6353C129.334 95.8067 128.859 94.8582 128.41 93.9047C127.007 90.9195 125.788 87.495 126.897 84.3849L127.586 83.4265C130.212 79.9071 133.898 77.1515 138.087 75.8186C142.277 74.4858 146.94 74.6156 150.97 76.3628C152.323 76.9468 153.612 77.7206 154.61 78.7989C155.394 79.6525 155.979 80.6659 156.553 81.6693C157.127 82.6727 157.776 83.8158 158.066 85.0089C158.231 85.6779 158.286 86.3668 158.315 87.0557C158.445 89.7314 158.211 92.462 157.227 94.953ZM163.449 74.1363C162.994 73.7469 162.535 73.3576 161.991 73.1229C161.446 72.8883 160.982 72.8534 160.468 72.7885C158.59 72.5538 154.381 72.8035 152.508 72.5638C147.824 71.9798 144.678 71.3308 140.744 71.5055C136.03 71.7152 131.376 74.0265 128.385 77.6707C127.162 79.1583 126.253 80.8805 125.029 82.3682C123.806 83.8558 122.368 86.3967 117.609 86.5215C115.672 86.5714 113.265 86.5714 111.762 86.202C108.556 85.4233 107.837 82.3781 102.913 81.9588C94.914 81.2699 84.7623 84.4049 80.5828 91.0343L80.3182 91.3338C79.8388 92.0327 78.6604 92.7116 77.6567 92.5319C77.6367 93.3606 77.6317 94.1843 77.6417 95.0129L77.8265 96.0812C78.93 96.1212 79.6341 97.2494 80.1334 98.2378L83.1545 104.203C84.5127 106.889 85.9058 109.62 88.033 111.741C92.642 116.349 100.352 117.183 106.154 114.212C111.957 111.242 115.712 104.932 116.226 98.4375C116.371 96.5804 116.531 92.8963 116.501 91.0343C116.496 90.7897 118.158 90.1357 119.991 89.991C121.824 89.8462 123.816 90.2206 123.816 90.2206C125.184 94.379 127.077 96.4007 129.329 99.4259C130.672 101.233 132.06 103.08 133.963 104.268C135.76 105.396 137.897 105.856 140.005 106.065C143.485 106.41 147.045 106.12 150.376 105.057C151.914 104.573 153.407 103.914 154.72 102.985C157.866 100.764 159.774 97.1146 160.622 93.3606C161.471 89.6066 161.366 85.7078 161.192 81.864C161.157 81.0802 161.152 80.1966 161.686 79.6225C162.475 78.7739 163.903 79.1184 164.882 79.7374C165.861 80.3564 166.789 81.22 167.943 81.2649L168.158 81.3498C168.642 80.9354 169.356 80.0469 169.84 79.6325L163.449 74.1363Z" fill="black"/>
<path d="M94.4253 95.6563C94.4253 95.6563 96.4991 97.1713 100.611 96.6915C104.723 96.2118 110.109 94.1958 110.825 93.2396C110.825 93.2396 110.401 92.5203 109.564 91.7947C108.111 90.5317 105.37 89.024 101.118 89.6396C95.2216 90.4954 94.5195 94.4949 94.4346 95.4516C94.4258 95.583 94.4253 95.6563 94.4253 95.6563Z" fill="url(#paint0_linear_1717_3814)"/>
<path d="M106.89 92.3332C106.609 90.5267 104.673 89.317 102.566 89.6313C100.459 89.9456 98.9788 91.6648 99.2594 93.4713C99.5401 95.2777 101.476 96.4874 103.583 96.1731C105.69 95.8589 107.17 94.1397 106.89 92.3332Z" fill="url(#paint1_linear_1717_3814)"/>
<path d="M106.585 92.3719C106.327 90.7093 104.546 89.596 102.607 89.8852C100.668 90.1744 99.3053 91.7567 99.5636 93.4193C99.8219 95.0819 101.603 96.1952 103.542 95.906C105.481 95.6168 106.844 94.0345 106.585 92.3719Z" fill="url(#paint2_linear_1717_3814)"/>
<path style="mix-blend-mode:multiply" d="M105.107 92.172C105.526 93.1259 104.955 94.2231 103.832 94.6235C102.709 95.0238 101.458 94.5746 101.039 93.6225C100.62 92.6703 101.191 91.5713 102.314 91.1715C103.437 90.7716 104.686 91.2189 105.107 92.172Z" fill="url(#paint3_linear_1717_3814)"/>
<path d="M101.316 93.1202C101.56 92.9739 99.9537 91.3513 99.658 91.6313C99.3623 91.9113 100.773 93.4398 101.316 93.1202Z" fill="white"/>
<g style="mix-blend-mode:multiply" opacity="0.6">
<path d="M93.2654 96.3349C94.5313 96.0385 97.4472 92.5562 100.786 91.4056C104.917 89.983 109.309 91.5929 109.565 91.7925C108.112 90.5296 105.372 89.0227 101.121 89.6384C95.224 90.4942 94.593 94.3514 93.2654 96.3349Z" fill="#CF77B6"/>
</g>
<path d="M111.105 92.705C111.105 92.705 109.324 89.6754 101.706 88.4906C97.6151 87.8544 94.8045 91.7264 93.5636 93.7321C92.1154 95.5047 93.2645 96.3325 93.2645 96.3325C93.2645 96.3325 98.9513 86.3916 109.565 91.7915C110.044 92.0838 110.592 92.4005 111.105 92.705Z" fill="#41302A"/>
<path d="M111.286 93.5057C111.176 93.5559 111.393 93.5047 110.018 93.7929C105.978 94.6401 101.544 96.9378 94.4397 95.6377C91.2902 97.8213 100.748 97.2167 104.359 96.1919C109.381 94.7592 111.286 93.5057 111.286 93.5057Z" fill="#955540"/>
<path d="M109.564 91.7969C109.564 91.7969 110.512 92.2588 111.105 92.7103C111.354 92.8997 111.574 93.1257 111.582 93.2534C111.609 93.6854 110.018 93.7978 110.018 93.7978C110.018 93.7978 110.397 93.5092 110.259 92.9017C110.122 92.2943 109.564 91.7969 109.564 91.7969Z" fill="#47201E"/>
<path d="M151.217 84.4919C151.217 84.4919 149.689 86.6947 145.499 87.5907C141.309 88.4866 135.359 88.2776 134.338 87.5642C134.338 87.5642 134.514 86.7059 135.094 85.7029C136.098 83.9588 138.283 81.5404 142.655 80.7332C148.719 79.6154 150.738 83.3661 151.14 84.2911C151.192 84.4191 151.217 84.4919 151.217 84.4919Z" fill="url(#paint4_linear_1717_3814)"/>
<path d="M137.891 85.3216C137.564 83.428 139.059 81.5762 141.229 81.1856C143.399 80.7951 145.423 82.0135 145.749 83.9072C146.075 85.8008 144.581 87.6526 142.411 88.0431C140.241 88.4337 138.217 87.2153 137.891 85.3216Z" fill="url(#paint5_linear_1717_3814)"/>
<path d="M138.203 85.2632C137.902 83.5204 139.278 81.8162 141.275 81.4567C143.272 81.0973 145.134 82.2187 145.435 83.9615C145.735 85.7044 144.36 87.4086 142.363 87.768C140.365 88.1275 138.503 87.006 138.203 85.2632Z" fill="url(#paint6_linear_1717_3814)"/>
<path style="mix-blend-mode:multiply" d="M139.588 84.5781C139.494 85.6686 140.419 86.5713 141.653 86.595C142.888 86.6188 143.964 85.7536 144.058 84.6649C144.151 83.5762 143.226 82.6717 141.992 82.6484C140.758 82.6252 139.683 83.4878 139.588 84.5781Z" fill="url(#paint7_linear_1717_3814)"/>
<path d="M141.741 85.7788C141.871 85.5102 139.561 84.9919 139.462 85.4077C139.364 85.8235 141.45 86.3704 141.741 85.7788Z" fill="white"/>
<g style="mix-blend-mode:multiply" opacity="0.6">
<path d="M152.581 84.7774C151.242 84.9051 147.225 82.4095 143.569 82.3789C139.047 82.3415 135.278 85.4134 135.093 85.6981C136.097 83.954 138.282 81.5368 142.654 80.7296C148.718 79.6118 150.62 83.2445 152.581 84.7774Z" fill="#CF77B6"/>
</g>
<path d="M133.974 87.9859C134.099 87.9991 133.869 88.0204 135.313 87.8483C139.555 87.3424 149.825 87.771 150.727 83.4266C154.54 84.5499 150.794 88.1378 141.658 88.3475C136.258 88.5984 133.974 87.9859 133.974 87.9859Z" fill="#955540"/>
<path d="M135.094 85.7109C135.094 85.7109 134.319 86.4877 133.888 87.1359C133.707 87.4078 133.567 87.7065 133.601 87.8364C133.718 88.2759 135.315 87.8565 135.315 87.8565C135.315 87.8565 134.847 87.6955 134.78 87.0441C134.713 86.3928 135.094 85.7109 135.094 85.7109Z" fill="#47201E"/>
<path d="M133.888 87.1261C133.888 87.1261 137.108 82.026 141.699 79.7859C148.108 76.6581 149.54 80.7039 151.424 82.2877C156.742 83.2207 155.514 84.9508 152.263 84.6689C149.918 84.4656 142.449 75.8842 134.86 86.7838C134.487 87.2352 134.29 86.6511 133.888 87.1261Z" fill="#41302A"/>
</g>
<defs>
<linearGradient id="paint0_linear_1717_3814" x1="105.138" y1="98.414" x2="102.415" y2="91.292" gradientUnits="userSpaceOnUse">
<stop stop-color="#ECE0FF"/>
<stop offset="1" stop-color="#BBC7F9"/>
</linearGradient>
<linearGradient id="paint1_linear_1717_3814" x1="99.5183" y1="94.333" x2="106.656" y2="91.5603" gradientUnits="userSpaceOnUse">
<stop stop-color="#604300"/>
<stop offset="1" stop-color="#471400"/>
</linearGradient>
<linearGradient id="paint2_linear_1717_3814" x1="103.866" y1="94.9446" x2="102.09" y2="90.5193" gradientUnits="userSpaceOnUse">
<stop stop-color="#925600"/>
<stop offset="1" stop-color="#2E0010"/>
</linearGradient>
<linearGradient id="paint3_linear_1717_3814" x1="103.538" y1="94.3682" x2="102.456" y2="91.6492" gradientUnits="userSpaceOnUse">
<stop stop-color="#604300"/>
<stop offset="1" stop-color="#471400"/>
</linearGradient>
<linearGradient id="paint4_linear_1717_3814" x1="141.635" y1="90.8198" x2="141.973" y2="82.8145" gradientUnits="userSpaceOnUse">
<stop stop-color="#ECE0FF"/>
<stop offset="1" stop-color="#BBC7F9"/>
</linearGradient>
<linearGradient id="paint5_linear_1717_3814" x1="145.782" y1="84.8523" x2="137.86" y2="84.5157" gradientUnits="userSpaceOnUse">
<stop stop-color="#604300"/>
<stop offset="1" stop-color="#471400"/>
</linearGradient>
<linearGradient id="paint6_linear_1717_3814" x1="141.725" y1="86.9182" x2="142.021" y2="81.9175" gradientUnits="userSpaceOnUse">
<stop stop-color="#925600"/>
<stop offset="1" stop-color="#2E0010"/>
</linearGradient>
<linearGradient id="paint7_linear_1717_3814" x1="141.856" y1="86.2425" x2="142.029" y2="83.1728" gradientUnits="userSpaceOnUse">
<stop stop-color="#604300"/>
<stop offset="1" stop-color="#471400"/>
</linearGradient>
</defs>
</svg>
