<svg width="251" height="250" viewBox="0 0 251 250" fill="none" xmlns="http://www.w3.org/2000/svg">
<mask id="mask0_1708_12593" style="mask-type:alpha" maskUnits="userSpaceOnUse" x="0" y="0" width="251" height="250">
<rect x="0.5" width="250" height="250" fill="#C4C4C4"/>
</mask>
<g mask="url(#mask0_1708_12593)">
<path d="M234.405 87.5124C248.733 87.5124 262.319 84.34 274.5 78.6586V-20.6562H140.346C139.739 -16.2827 139.435 -11.8723 139.436 -7.45675C139.436 44.9936 181.955 87.5124 234.405 87.5124Z" fill="#150DCE"/>
<path d="M234.406 87.5124C181.956 87.5124 139.436 44.9936 139.436 -7.45675C139.435 -11.8723 139.739 -16.2827 140.347 -20.6562L113.695 -20.6562C119.925 -6.59838 123.388 8.96245 123.388 25.3253C123.388 88.0664 72.5263 138.928 9.78523 138.928C-1.43072 138.938 -12.5863 137.286 -23.3184 134.028L-23.3184 277.163H81.3058C74.6967 262.663 71.0127 246.548 71.0127 229.573C71.0127 166.143 122.433 114.722 185.863 114.722C221.55 114.722 253.435 130.999 274.5 156.533V78.6586C262.319 84.34 248.733 87.5124 234.406 87.5124Z" fill="#150DCE"/>
<path d="M113.695 -20.6562H-23.3184V134.028C-12.5863 137.286 -1.43072 138.938 9.78522 138.928C72.5263 138.928 123.388 88.0664 123.388 25.3253C123.388 8.96245 119.925 -6.59838 113.695 -20.6562Z" fill="#66C3CD"/>
<path d="M155.7 156.088C155.539 155.414 155.41 154.676 155.266 153.938C155.33 154.43 155.41 154.911 155.507 155.382C155.556 155.621 155.62 155.857 155.7 156.088Z" fill="#B5A3B0"/>
<path d="M156.824 158.413C156.338 157.696 155.959 156.912 155.699 156.086C155.86 156.824 156.085 157.482 156.455 157.964C156.567 158.122 156.691 158.272 156.824 158.413Z" fill="#655968"/>
<path d="M155.266 153.932C155.089 152.6 154.912 151.268 153.98 150.369C153.417 149.807 152.678 149.535 151.891 149.406C154.237 149.92 154.864 151.91 155.266 153.932Z" fill="#655968"/>
<path d="M116.356 239.066C116.131 233.978 115.697 228.859 116.291 223.804C116.886 218.749 117.738 213.934 121.306 210.291L121.756 209.794L129.325 201.593C130.193 200.646 131.077 199.699 131.688 198.56C132.443 197.132 132.716 195.511 133.247 193.97C135.433 187.567 141.556 183.443 145.397 177.858C151.022 169.738 151.392 159.226 151.584 149.356C150.906 149.287 150.224 149.266 149.543 149.292L108.738 150.592C104.671 150.721 98.4573 151.346 95.002 153.496C92.8001 154.892 92.0713 155.968 91.2838 158.456C88.3427 167.828 70.6479 175.531 59.8638 178.307C55.412 179.447 53.9656 177.232 49.7227 178.821C51.2012 180.682 55.2674 194.933 55.2031 201.738C55.1388 208.847 53.9816 215.892 53.5316 222.969C52.7763 234.989 54.0781 247.025 55.412 258.997C56.8102 259.19 58.1763 259.415 59.5263 259.687C78.1051 263.362 96.941 263.33 115.841 262.608C116.535 254.781 116.707 246.916 116.356 239.066Z" fill="#843B7D"/>
<path d="M53.5316 222.969C53.9816 215.892 55.1387 208.846 55.203 201.737C55.2673 194.933 51.2012 180.682 49.7226 178.82L49.6101 178.852C39.4368 182.8 32.2849 192.028 27.0295 201.577C17.7314 218.53 12.7788 237.518 12.6133 256.846L14.4454 257.36C24.0723 259.222 30.3242 258.291 40.1279 258.098C45.2382 258 50.3484 258.301 55.412 258.997C54.078 247.025 52.7762 234.989 53.5316 222.969Z" fill="#843B7D"/>
<path d="M229.5 214.161C224.373 201.226 215.421 189.286 203.158 182.883C200.972 190.345 201.455 198.321 201.133 206.104C200.957 210.144 200.571 214.173 199.976 218.173C199.638 220.371 199.237 222.57 198.835 224.768C196.703 236.516 194.56 248.258 192.406 259.994L237.728 258.726C236.684 243.593 235.092 228.267 229.5 214.161Z" fill="#843B7D"/>
<path d="M192.405 259.994C194.548 248.247 196.691 236.505 198.834 224.768C199.235 222.57 199.637 220.371 199.975 218.173C200.569 214.173 200.956 210.144 201.132 206.104C201.453 198.321 200.971 190.345 203.157 182.883C202.048 182.305 200.923 181.759 199.766 181.278C193.401 178.63 186.491 177.507 180.158 174.843C173.826 172.179 168.169 168.022 162.624 163.914C160.487 162.325 158.253 160.592 156.822 158.409C156.689 158.268 156.565 158.118 156.453 157.96C156.083 157.478 155.858 156.82 155.697 156.082C155.618 155.851 155.554 155.615 155.505 155.376C155.408 154.905 155.328 154.424 155.263 153.932C154.862 151.91 154.235 149.92 151.888 149.406C151.792 149.39 151.021 169.739 145.396 177.86C141.554 183.444 135.431 187.569 133.245 193.972C132.715 195.513 132.442 197.133 131.686 198.562C131.076 199.701 130.192 200.648 129.324 201.595L121.754 209.795L121.304 210.293C117.736 213.936 116.884 218.75 116.29 223.805C115.695 228.861 116.129 233.98 116.354 239.067C116.705 246.917 116.533 254.782 115.84 262.61C126.913 262.177 137.987 261.519 149.06 261.198L192.405 259.994Z" fill="#843B7D"/>
<path d="M91.4434 140.103C98.0327 153.567 91.501 156.409 101.295 183.706C102.372 186.707 102.372 186.113 104.188 188.713C105.265 190.237 110.135 192.548 110.986 194.217C111.597 195.389 112.819 201.182 112.819 201.182C116.21 205.708 120.195 210.073 122.172 215.369C124.171 211.525 127.248 208.346 131.028 206.221C132.699 205.29 134.531 204.552 135.913 203.236C137.296 201.92 138.083 200.235 138.871 198.566L148.369 178.458C149.189 176.725 150.008 174.975 150.458 173.114C150.908 171.252 150.973 169.567 151.069 167.786L152.515 138.867C148.626 143.762 144.56 148.801 138.983 151.593C136.492 152.829 133.792 153.583 131.14 154.418C127.476 155.573 123.812 156.937 119.97 157.13C114.378 157.403 108.881 155.124 104.349 151.834C99.8167 148.544 91.4434 140.103 91.4434 140.103Z" fill="#B8775E"/>
<path d="M160.312 107.039C161.132 105.723 162.032 104.455 162.964 103.204C163.607 102.369 164.314 101.519 165.246 101.037C166.178 100.556 167.464 100.556 168.219 101.294C168.605 101.663 168.814 102.177 168.991 102.674C169.638 104.583 169.857 106.61 169.634 108.612C168.926 115.047 163.8 120.311 162.916 126.73C162.803 127.581 162.755 128.48 162.369 129.266C161.984 130.052 161.18 130.694 160.312 130.55C158.882 130.277 158.271 130.566 158.85 126.875C159.798 120.889 159.926 114.774 160.167 108.708L160.312 107.039Z" fill="#B8775E"/>
<path d="M107.227 165.107C109.558 166.503 112.129 167.546 114.186 169.328C115.472 170.451 116.517 171.863 117.963 172.81C120.615 174.527 124.183 174.319 127.076 173.035C129.968 171.751 132.331 169.536 134.581 167.306C142.215 159.731 150.363 152.91 152.517 142.383C145.285 151.017 133.954 155.013 122.801 156.601C117.256 157.404 111.486 157.147 106.231 155.237C100.975 153.328 96.2503 149.604 93.7109 144.614C94.5788 154.403 103.257 162.716 107.227 165.107Z" fill="#41302A"/>
<path d="M80.0496 100.813C79.1978 100.508 78.2656 100.46 77.7031 101.166C77.1406 101.872 77.0442 102.803 76.9477 103.702C76.8031 105.226 76.6424 106.751 76.4977 108.275C76.3907 109.079 76.3638 109.89 76.4174 110.699C76.5138 111.694 76.8352 112.64 77.1727 113.571L79.921 121.306C80.4353 122.799 80.9656 124.308 81.0942 125.864C81.1906 127.084 81.046 128.352 81.496 129.491C82.1389 131.08 83.9871 132.059 85.6586 131.706C84.7746 122.655 83.8746 112.592 82.4924 103.589C82.4924 103.589 81.3674 101.262 80.0496 100.813Z" fill="#B8775E"/>
<path d="M84.4846 127.556C86.8632 136.624 91.3311 144.006 97.8562 150.746C105.378 158.497 116.628 163.119 127.026 160.23C131.549 159.029 135.803 156.982 139.562 154.196C144.464 150.601 149.414 146.846 152.885 141.855C158.928 133.237 159.828 122.148 160.551 111.653L161.966 90.8543C162.432 83.9536 162.85 76.764 160.085 70.441C158.976 67.8733 157.369 65.5463 155.778 63.2675C153.785 60.427 151.744 57.5544 149.044 55.3879C143.853 51.1993 136.894 50.108 130.273 49.3217C121.16 48.2464 111.79 47.4601 102.903 49.771C94.0151 52.082 85.5935 58.0358 82.6846 66.7339C81.5274 70.1522 81.2863 73.8111 81.1256 77.4059C80.4226 93.7476 81.5058 110.117 84.356 126.224L84.4846 127.556Z" fill="#B8775E"/>
<path d="M91.0819 97.2437C91.0819 97.2437 93.3781 99.4989 98.4077 99.5398C103.437 99.5807 110.215 97.8696 111.211 96.767C111.211 96.767 110.798 95.785 109.886 94.7295C108.305 92.8931 105.202 90.5415 99.9854 90.6513C92.7497 90.806 91.3546 95.7814 91.1211 96.9848C91.0925 97.1506 91.0819 97.2437 91.0819 97.2437Z" fill="url(#paint0_linear_1708_12593)"/>
<path d="M105.415 94.447C105.309 91.7081 102.769 89.5508 99.7431 89.6285C96.7171 89.7061 94.3505 91.9894 94.4572 94.7283C94.5639 97.4672 97.1035 99.6245 100.129 99.5469C103.155 99.4692 105.522 97.1859 105.415 94.447Z" fill="url(#paint1_linear_1708_12593)"/>
<path d="M104.979 94.4582C104.881 91.9374 102.544 89.9519 99.759 90.0234C96.9742 90.0949 94.7963 92.1963 94.8945 94.717C94.9927 97.2378 97.3298 99.2233 100.115 99.1518C102.899 99.0804 105.077 96.9789 104.979 94.4582Z" fill="url(#paint2_linear_1708_12593)"/>
<path style="mix-blend-mode:multiply" d="M102.922 93.8804C103.361 95.3768 102.379 96.9033 100.729 97.291C99.0783 97.6786 97.3842 96.7792 96.9451 95.2855C96.5059 93.7917 97.4877 92.2625 99.1383 91.8755C100.789 91.4885 102.48 92.3848 102.922 93.8804Z" fill="url(#paint3_linear_1708_12593)"/>
<path d="M103.462 95.3882C103.096 95.5669 102.443 92.2079 103.008 92.0791C103.572 91.9504 104.269 94.987 103.462 95.3882Z" fill="white"/>
<path d="M104.21 97.0571C104.054 97.2148 102.739 97.0844 102.887 96.8903C103.034 96.6961 103.119 96.3052 103.597 96.3654C104.076 96.4256 104.418 96.8444 104.21 97.0571Z" fill="white"/>
<g style="mix-blend-mode:multiply" opacity="0.6">
<path d="M89.5875 97.9274C91.1562 97.7508 95.1531 93.7837 99.3419 92.8491C104.523 91.6938 109.604 94.4368 109.887 94.7313C108.306 92.8949 105.204 90.5446 99.9872 90.6544C92.7514 90.8091 91.4616 95.6149 89.5875 97.9274Z" fill="#CF77B6"/>
</g>
<path d="M111.622 96.1337C111.622 96.1337 110.374 88.8774 100.853 89.2855C96.3493 89.4785 92.078 92.308 90.3055 94.6623C88.3145 96.6875 89.5883 97.9223 89.5883 97.9223C89.5883 97.9223 97.8145 86.1797 109.888 94.7281C110.427 95.1756 111.044 95.6651 111.622 96.1337Z" fill="#41302A"/>
<path d="M111.731 97.1776C111.592 97.2239 111.86 97.193 110.161 97.342C105.168 97.7797 93.9988 98.4972 91.1017 97.2215C90.3134 101.676 98.7026 100.292 103.054 100.203C109.313 99.1758 111.731 97.1776 111.731 97.1776Z" fill="#955540"/>
<path d="M109.889 94.7266C109.889 94.7266 110.969 95.464 111.623 96.1322C111.898 96.4125 112.132 96.7347 112.124 96.8984C112.098 97.4522 110.163 97.3433 110.163 97.3433C110.163 97.3433 110.66 97.0362 110.576 96.2418C110.493 95.4474 109.889 94.7266 109.889 94.7266Z" fill="#47201E"/>
<path d="M149.526 97.2202C149.526 97.2202 147.229 99.4755 142.2 99.5164C137.17 99.5573 130.392 97.8461 129.397 96.7435C129.397 96.7435 129.809 95.7616 130.721 94.7061C132.303 92.8697 135.405 90.5181 140.622 90.6279C147.858 90.7826 149.253 95.758 149.486 96.9614C149.515 97.1272 149.526 97.2202 149.526 97.2202Z" fill="url(#paint4_linear_1708_12593)"/>
<path d="M134.194 94.4236C134.301 91.6847 136.84 89.5274 139.866 89.605C142.892 89.6827 145.259 91.966 145.152 94.7049C145.045 97.4438 142.506 99.6011 139.48 99.5234C136.454 99.4458 134.087 97.1625 134.194 94.4236Z" fill="url(#paint5_linear_1708_12593)"/>
<path d="M134.63 94.4348C134.728 91.914 137.066 89.9285 139.85 90C142.635 90.0714 144.813 92.1728 144.715 94.6936C144.617 97.2143 142.28 99.1999 139.495 99.1284C136.71 99.0569 134.532 96.9555 134.63 94.4348Z" fill="url(#paint6_linear_1708_12593)"/>
<path style="mix-blend-mode:multiply" d="M136.688 93.8569C136.248 95.3533 137.23 96.8799 138.881 97.2675C140.531 97.6552 142.225 96.7558 142.664 95.262C143.103 93.7682 142.122 92.239 140.471 91.8521C138.821 91.4651 137.129 92.3614 136.688 93.8569Z" fill="url(#paint7_linear_1708_12593)"/>
<path d="M136.147 95.3647C136.513 95.5434 137.166 92.1845 136.602 92.0557C136.037 91.9269 135.341 94.9635 136.147 95.3647Z" fill="white"/>
<path d="M135.399 97.0336C135.555 97.1913 136.87 97.0609 136.723 96.8668C136.575 96.6727 136.491 96.2818 136.012 96.342C135.534 96.4022 135.191 96.821 135.399 97.0336Z" fill="white"/>
<g style="mix-blend-mode:multiply" opacity="0.6">
<path d="M151.022 97.9039C149.453 97.7274 145.456 93.7603 141.268 92.8257C136.087 91.6703 132.016 94.3617 131.733 94.6562C133.315 92.8199 135.406 90.5212 140.622 90.631C147.858 90.7857 149.148 95.5915 151.022 97.9039Z" fill="#CF77B6"/>
</g>
<path d="M128.986 96.1099C128.986 96.1099 130.211 89.2468 139.732 89.6549C144.235 89.8479 145.731 91.6562 150.303 94.6385C152.294 96.6637 151.02 97.8984 151.02 97.8984C151.02 97.8984 142.232 87.6558 131.732 94.6385C131.193 95.0861 129.564 95.6413 128.986 96.1099Z" fill="#41302A"/>
<path d="M128.878 97.1514C129.018 97.1978 128.749 97.1669 130.448 97.3158C135.442 97.7535 146.611 98.4711 149.508 97.1953C147.233 101.148 144.733 101.648 137.556 100.176C131.233 98.8798 128.878 97.1514 128.878 97.1514Z" fill="#955540"/>
<path d="M131.732 94.6484C131.732 94.6484 129.641 95.4376 128.987 96.1058C128.712 96.3862 127.725 96.9848 127.732 97.1484C127.759 97.7022 130.447 97.3169 130.447 97.3169C130.447 97.3169 129.95 97.0098 130.033 96.2154C130.117 95.4211 131.732 94.6484 131.732 94.6484Z" fill="#47201E"/>
<path d="M82.2669 103.079C82.2669 103.079 82.4437 88.3948 82.7972 81.125C83.0383 75.8773 83.3758 70.3567 86.1562 65.8953C89.9491 59.797 97.4867 57.0528 104.639 56.3306C111.79 55.6085 119.055 56.443 126.174 55.4319C128.778 55.0628 131.366 54.453 134.001 54.4049C137.103 54.3567 140.157 55.111 143.146 55.9615C145.3 56.5714 147.453 57.2614 149.398 58.4009C153.737 60.9846 156.437 65.5744 158.944 69.9716C159.877 71.5764 160.793 73.1972 161.259 74.9946C161.725 76.792 161.677 78.2845 161.661 79.9535C161.65 88.9833 161.307 98.0023 160.632 107.011C164.28 102.549 164.618 96.3226 164.778 90.5453C164.987 83.0989 165.212 75.5884 163.895 68.2544C163.637 66.8422 163.027 65.1411 161.596 64.9806C162.657 63.5844 162.818 61.7389 162.946 59.9896L163.187 56.4109C163.22 55.9776 163.252 55.5282 163.075 55.127C162.545 53.9395 160.825 54.1321 159.587 54.5333C160.761 53.5383 160.712 51.436 159.475 50.5212C159.256 50.7937 158.942 50.9734 158.596 51.024C158.251 51.0746 157.898 50.9925 157.611 50.794C157.751 50.3357 157.715 49.8417 157.51 49.4084C157.305 48.9751 156.945 48.6338 156.502 48.451C155.602 48.13 154.477 48.6275 154.139 49.5262C154.025 47.9542 153.627 46.4156 152.966 44.9846C153.721 44.5513 153.882 43.3798 153.271 42.7539C152.66 42.128 151.487 42.2725 151.037 43.0107C150.475 41.4219 148.096 40.8442 146.891 42.0318C146.216 41.101 145.637 39.5764 146.618 38.9987C147.598 38.4209 149.028 38.5814 148.675 37.7309C148.05 37.4366 147.368 37.2813 146.677 37.2758C145.986 37.2703 145.303 37.4146 144.673 37.6988C144.625 36.8482 144.368 35.7569 143.516 35.6767C142.166 35.5644 141.443 38.2925 140.269 37.6025C140.076 36.768 140.848 36.0618 141.234 35.3076C141.619 34.5533 141.009 33.2053 140.285 33.6707C139.835 34.6295 139.244 35.5164 138.534 36.3026C137.883 35.5085 137.411 34.5833 137.151 33.5904C138.148 33.9756 138.967 32.3387 138.26 31.5523C137.553 30.766 136.187 30.9746 135.416 31.7128C134.644 32.451 134.323 33.5102 134.017 34.5212L130.433 31.3597L131.558 29.2895C130.787 28.9686 129.871 28.8562 129.148 29.2574C128.425 29.6586 128.103 30.766 128.666 31.3758C125.166 30.9104 121.714 30.1426 118.348 29.0809L119.119 30.6857L117.464 31.9696C117.396 31.4848 117.225 31.0202 116.962 30.6076C116.698 30.1949 116.349 29.8439 115.937 29.5784C115.278 31.4881 113.108 32.7559 111.115 32.4029C111.469 31.6165 110.248 30.7499 109.621 31.3437C106.605 34.0573 103.19 36.2927 99.4956 37.9716C98.9492 36.431 96.8278 35.6767 95.4135 36.5433C96.2974 38.0839 95.5902 40.2986 93.9831 41.0368C93.7221 40.2331 93.5866 39.3941 93.5813 38.5493C92.0224 38.774 91.267 41.0368 92.3599 42.1441C91.8971 42.1123 91.449 41.9685 91.0542 41.7253C90.6594 41.4821 90.3298 41.1466 90.0938 40.7479C89.7884 41.5985 90.3188 42.4972 90.6081 43.3477C90.8973 44.1983 90.6563 45.4661 89.7563 45.5302C89.1845 45.2772 88.5458 45.2171 87.9368 45.359C87.3279 45.5009 86.7817 45.8371 86.3812 46.3166C86.6263 46.6175 86.7928 46.9743 86.8657 47.3553C86.9387 47.7362 86.9158 48.1292 86.7991 48.4992L84.7419 49.3818C85.433 50.5533 85.658 52.0297 85.0955 53.2494C84.533 54.4691 83.0544 55.2715 81.7687 54.8703L83.7133 55.1912C83.8401 55.3667 83.9029 55.5803 83.8912 55.7963C83.8795 56.0124 83.7941 56.218 83.6491 56.3788L81.4794 56.2344C81.9572 56.3905 82.3782 56.6839 82.6898 57.0778C83.0014 57.4718 83.1897 57.9487 83.2312 58.449C82.0258 57.9515 80.4669 58.77 80.1937 60.0378C80.0972 59.4279 81.1901 59.2835 81.5276 59.8131C81.8651 60.3427 81.5597 61.0328 81.4151 61.6426C74.8418 90.449 82.2669 103.079 82.2669 103.079Z" fill="#282627"/>
<path d="M146.859 181.604C146.859 181.604 148.08 179.341 149.27 179.293C152.002 179.18 154.445 181.251 155.457 183.786C156.47 186.322 156.357 189.146 156.229 191.875C159.111 186.857 160.369 181.072 159.829 175.313C159.588 172.841 159.009 170.402 158.447 167.979C157.322 163.164 156.614 158.19 155.473 153.359C155.264 152.476 155.104 151.77 154.541 151.064C153.979 150.358 152.741 149.058 151.889 149.411C151.247 155.879 151.07 163.421 148.691 169.632C145.171 178.843 141.33 190.767 139.562 197.106L146.859 181.604Z" fill="#4E1B49"/>
<path d="M89.6274 193.432C90.7846 190.719 91.0739 187.654 92.5846 185.135C94.0953 182.615 97.6954 180.882 100.01 182.695C101.986 184.252 101.858 187.397 103.529 189.291C104.301 190.158 105.378 190.671 106.358 191.297C108.071 192.398 109.531 193.848 110.645 195.552C111.758 197.255 112.499 199.174 112.819 201.183C111.951 199.225 112.754 196.946 112.465 194.828C112.047 191.714 109.379 189.484 107.049 187.365C102.919 183.626 101.247 180.16 98.8847 175.105C97.002 169.873 96.002 165 95.4936 158.575C95.4936 156.858 96.49 154.049 94.915 153.359C91.3632 157.532 89.2096 164.144 87.8435 169.873C85.9792 177.688 87.9399 185.841 89.9328 193.624" fill="#4E1B49"/>
<path d="M101.553 130.892C103.096 130.587 104.687 131.036 106.262 131.245C108.11 131.501 109.99 131.421 111.871 131.341C114.121 131.229 116.387 131.148 118.637 131.389C120.099 131.534 121.562 131.838 123.025 131.71C123.78 131.63 124.519 131.453 125.258 131.325C126.706 131.066 128.182 131.006 129.646 131.148C131.141 131.277 132.635 131.614 134.098 131.373C135.11 131.213 136.059 130.779 137.039 130.523C138.019 130.266 139.128 130.153 140.028 130.635C140.269 130.747 140.559 130.924 140.8 130.779C140.895 130.696 140.953 130.578 140.962 130.452C140.971 130.326 140.93 130.201 140.848 130.105C140.666 129.925 140.438 129.797 140.189 129.736L138.518 129.191L128.216 125.981C127.123 125.644 126.014 125.291 124.857 125.275C123.7 125.259 122.494 125.58 121.707 126.414C121.53 126.591 121.353 126.815 121.096 126.864C120.931 126.884 120.763 126.857 120.614 126.783C119.457 126.366 118.492 125.451 117.271 125.259C116.371 125.114 115.471 125.387 114.603 125.66L107.596 127.826C105.394 128.517 103.112 129.239 101.408 130.795" fill="#4E1B49"/>
<path d="M140.318 131.037C139.418 131.422 138.374 131.342 137.699 132.064C137.024 132.786 136.606 133.669 136.027 134.471C134.516 136.558 132.122 137.89 129.631 138.58C127.139 139.27 124.52 139.382 121.932 139.446C117.079 139.575 111.936 139.51 107.725 137.071C106.825 136.542 105.973 135.9 105.379 135.033C104.784 134.166 104.495 133.043 103.82 132.209C103.145 131.374 101.57 131.775 101.537 130.877C101.505 130.235 104.029 130.251 104.029 130.251C106.761 130.459 111.679 130.235 114.427 130.347C117.175 130.459 117.85 130.941 120.663 130.973C122.013 130.989 123.298 130.716 124.648 130.636C125.998 130.556 127.541 130.636 128.972 130.62C130.402 130.604 131.768 130.78 133.15 130.652C134.532 130.523 135.625 130.186 136.879 130.042C138.132 129.898 139.466 129.994 140.511 130.684C140.511 130.684 140.399 130.989 140.318 131.037Z" fill="#683063"/>
<path d="M112.931 133.331C114.876 134.085 116.997 134.294 119.087 134.47C120.822 134.631 122.574 134.775 124.31 134.567C126.046 134.358 127.765 133.796 129.099 132.657C129.517 132.288 129.919 131.678 129.597 131.229C129.276 130.779 128.971 130.876 128.601 130.844C126.64 130.699 124.663 130.555 122.703 130.667C121.851 130.715 120.999 130.811 120.147 130.811C118.347 130.811 116.579 130.41 114.795 130.346C114.239 130.307 113.681 130.383 113.156 130.571C112.642 130.779 112.192 131.213 112.111 131.758C112.031 132.304 112.111 132.801 112.401 132.93L112.931 133.331Z" fill="#843B7D"/>
<path d="M124.247 117.652C124.874 117.251 125.677 117.202 126.449 117.186C126.836 117.157 127.226 117.184 127.606 117.267C128.024 117.379 128.409 117.604 128.811 117.748C129.213 117.892 129.679 117.973 130.049 117.748C130.418 117.523 130.643 116.641 130.322 116.127C130 115.614 129.39 115.325 128.795 115.18C128.288 115.049 127.756 115.055 127.252 115.196C126.989 115.283 126.74 115.408 126.513 115.565C125.609 116.131 124.81 116.848 124.15 117.684" fill="#47201E"/>
<path d="M110.506 116.127C110.201 116.448 110.12 116.753 110.313 117.106C110.506 117.459 110.94 117.62 111.358 117.636C111.758 117.617 112.153 117.541 112.531 117.411C113.063 117.253 113.616 117.183 114.17 117.202C114.414 117.224 114.655 117.262 114.894 117.315C115.537 117.427 116.694 117.539 117.337 117.652C117.321 116.593 116.067 115.566 115.054 115.212C114.299 114.94 113.463 115.036 112.66 115.18C111.856 115.325 111.149 115.517 110.603 116.047L110.506 116.127Z" fill="#47201E"/>
<path d="M107.742 108.183C107.42 109.499 107.099 110.831 107.051 112.195C107.002 113.559 107.259 114.955 108.015 116.095C108.481 116.785 109.204 117.395 110.04 117.347C110.876 117.298 111.647 116.528 112.435 116.095C113.849 115.308 115.777 115.661 116.806 116.897C117.192 117.347 117.449 117.876 117.835 118.325C119.04 119.738 121.611 119.433 122.383 119.048C123.154 118.662 124.006 117.876 124.424 117.347C125.806 115.613 128.185 114.731 129.856 116.207C130.145 116.464 130.419 116.769 130.788 116.881C131.158 116.993 132.074 116.689 132.476 116.159C133.263 115.132 133.36 113.752 133.376 112.452C133.392 111.714 133.392 110.959 133.199 110.237C132.717 108.408 131.013 107.076 129.197 106.53C129.099 106.49 128.99 106.49 128.892 106.53C128.779 106.594 131.624 108.937 132.09 109.82C132.556 110.703 132.251 113.222 129.985 113.495C129.133 113.607 128.217 112.901 127.397 112.628C126.578 112.356 125.742 111.97 124.906 112.147C124.07 112.323 123.379 113.078 122.64 113.607C121.644 114.313 120.245 114.602 119.152 114.025C118.333 113.607 117.802 112.773 117.015 112.323C116.227 111.874 115.552 111.858 114.797 111.938C113.431 112.099 112.193 112.821 111.068 113.623C110.731 113.848 110.41 114.089 110.008 114.169C109.204 114.329 108.401 113.72 108.079 112.965C107.758 112.211 107.806 111.361 107.87 110.542C107.934 109.724 108.015 108.889 107.758 108.103" fill="#955540"/>
<path d="M61.102 258.287C58.8477 252.439 57.6348 246.242 57.518 239.976C57.4216 233.862 58.4984 227.876 60.1698 222.018C61.8413 216.161 63.9948 210.656 65.9395 204.991C66.9199 202.151 67.852 199.294 68.6235 196.389C69.3967 193.43 70.0031 190.43 70.4396 187.402C71.2753 181.834 71.0014 177.436 75.5015 173.504C76.0023 173.073 76.8229 172.494 77.3914 172.157C77.4468 172.123 77.4864 172.068 77.5015 172.005C77.5165 171.942 77.5058 171.875 77.4717 171.82C77.4376 171.764 77.3829 171.725 77.3196 171.71C77.2563 171.695 77.1897 171.705 77.1342 171.739C72.1681 174.724 71.3074 178.945 70.4235 184.305C69.9253 187.418 69.5235 190.532 68.8163 193.597C68.1092 196.662 67.2574 199.519 66.3092 202.407C64.3966 208.201 62.1627 213.898 60.3627 219.723C58.5626 225.549 57.2126 231.567 57.0519 237.697C56.8858 243.98 57.8269 250.243 59.8323 256.201C60.0895 256.939 60.3627 257.677 60.652 258.415C60.7484 258.688 61.2145 258.576 61.102 258.287Z" fill="#FBE79C"/>
<path d="M91.5735 257.83C92.0878 252.845 92.5807 247.854 93.0521 242.857C93.5236 237.861 93.9843 232.865 94.4343 227.869C94.8736 222.894 95.2914 217.919 95.6879 212.944C96.0896 208.081 96.5879 203.203 95.9129 198.34C95.3021 193.879 93.9039 189.225 95.045 184.731C95.1775 184.195 95.3494 183.669 95.5593 183.158C95.6718 182.87 95.2057 182.741 95.0932 183.03C93.3896 187.299 94.3861 191.953 95.1093 196.302C95.5345 198.665 95.7603 201.059 95.7843 203.459C95.7843 205.931 95.5754 208.402 95.3825 210.874C94.9861 215.891 94.5682 220.914 94.1289 225.943C93.695 230.934 93.2289 235.941 92.7628 240.932C92.2967 245.923 91.7825 250.962 91.2682 255.985C91.2039 256.595 91.1396 257.221 91.0914 257.83C91.0592 258.135 91.5414 258.135 91.5735 257.83Z" fill="#FBE79C"/>
<path d="M117.64 261.733C118.111 258.577 118.502 255.405 118.813 252.216C119.124 249.028 119.37 245.851 119.552 242.684C119.734 239.496 119.847 236.291 119.89 233.071C119.922 230.15 119.809 227.197 119.938 224.261C120.051 221.565 120.436 218.804 121.69 216.365C121.84 216.067 122.007 215.778 122.188 215.498C122.205 215.471 122.216 215.441 122.221 215.409C122.226 215.377 122.225 215.345 122.218 215.313C122.21 215.282 122.197 215.252 122.178 215.226C122.159 215.2 122.135 215.178 122.108 215.161C122.08 215.144 122.05 215.133 122.018 215.128C121.986 215.123 121.954 215.124 121.922 215.132C121.891 215.139 121.861 215.153 121.835 215.172C121.809 215.19 121.787 215.214 121.77 215.242C120.34 217.569 119.761 220.249 119.536 222.929C119.311 225.609 119.44 228.722 119.424 231.611C119.392 234.82 119.311 238.014 119.15 241.224C118.99 244.433 118.765 247.611 118.459 250.804C118.154 253.998 117.784 257.224 117.35 260.417C117.286 260.818 117.238 261.203 117.174 261.605C117.109 262.006 117.608 262.038 117.64 261.733Z" fill="#FBE79C"/>
<path d="M144.496 259.257C144.1 248.987 144.046 238.705 144.335 228.413C144.625 218.121 145.278 207.861 146.296 197.633C146.859 191.871 147.534 186.11 148.321 180.381C148.353 180.076 147.887 179.948 147.855 180.252C146.462 190.459 145.412 200.703 144.705 210.985C143.998 221.266 143.65 231.542 143.66 241.813C143.676 247.623 143.789 253.448 144.014 259.257C144.03 259.562 144.512 259.562 144.496 259.257Z" fill="#FBE79C"/>
<path d="M175.789 172.92C175.789 177.526 175.805 182.132 175.982 186.738C176.159 191.344 176.4 195.917 177.203 200.427C177.734 203.444 178.377 206.445 178.827 209.494C179.26 212.516 179.534 215.559 179.646 218.609C179.919 224.756 179.968 230.934 180.096 237.097L180.498 255.552L180.562 257.847C180.562 257.911 180.588 257.972 180.633 258.017C180.678 258.063 180.739 258.088 180.803 258.088C180.867 258.088 180.929 258.063 180.974 258.017C181.019 257.972 181.044 257.911 181.044 257.847L180.627 239.376C180.498 233.245 180.402 227.099 180.209 220.952C180.112 217.887 179.968 214.806 179.614 211.741C179.261 208.676 178.714 205.867 178.152 202.93C177.702 200.539 177.3 198.148 177.043 195.725C176.786 193.302 176.641 190.975 176.544 188.583C176.319 183.865 176.271 179.131 176.271 174.397V172.92C176.271 172.857 176.246 172.795 176.201 172.75C176.155 172.705 176.094 172.68 176.03 172.68C175.966 172.68 175.905 172.705 175.86 172.75C175.814 172.795 175.789 172.857 175.789 172.92Z" fill="#FBE79C"/>
<path d="M204.17 259.903C203.14 256.36 202.451 252.728 202.112 249.054C202.064 248.605 202.032 248.156 202 247.706L201.952 247.065C201.924 246.843 201.946 246.618 202.016 246.407C202.161 246.102 202.482 245.925 202.691 245.652C202.9 245.347 202.981 244.973 202.916 244.609C202.848 244.219 202.757 243.833 202.643 243.454C202.545 243.057 202.469 242.655 202.418 242.25C202.119 239.815 202.586 237.348 203.752 235.189C204.138 234.483 204.636 233.793 204.555 232.926C204.523 232.38 204.346 231.819 204.202 231.289C203.591 229.026 202.916 226.796 202.257 224.549C201.598 222.302 200.939 220.12 200.345 217.873L200.2 217.311C200.12 217.022 199.654 217.151 199.734 217.44C200.264 219.558 200.907 221.66 201.518 223.747C202.209 226.074 202.9 228.417 203.543 230.76C203.671 231.177 203.784 231.594 203.896 232.027C204.002 232.388 204.067 232.76 204.089 233.135C204.061 233.554 203.922 233.958 203.688 234.306C203.285 235.001 202.935 235.725 202.643 236.473C202.355 237.225 202.145 238.005 202.016 238.8C201.755 240.389 201.81 242.014 202.177 243.582C202.273 243.983 202.434 244.384 202.45 244.786C202.466 245.187 202.273 245.428 202 245.684C201.727 245.941 201.518 246.214 201.486 246.583C201.454 246.952 201.502 247.45 201.534 247.883C201.793 251.543 202.401 255.171 203.35 258.715C203.462 259.165 203.575 259.598 203.704 260.031C203.832 260.465 204.266 260.192 204.17 259.903Z" fill="#FBE79C"/>
<path d="M233.308 257.767C232.199 257.398 231.878 256.147 231.942 255.087C232.039 253.707 232.891 252.6 233.662 251.525C234.433 250.45 235.221 249.15 235.333 247.689C235.446 246.229 235.044 244.768 234.658 243.372C234.273 241.976 233.855 240.452 233.983 238.943C234.048 238.092 234.289 237.274 234.321 236.423C234.355 235.671 234.159 234.927 233.758 234.289C233.373 233.663 232.874 233.101 232.505 232.444C232.14 231.786 231.859 231.085 231.669 230.357C231.267 228.865 231.187 227.324 231.091 225.8C231.029 224.257 230.879 222.719 230.641 221.194C230.392 219.636 230.037 218.097 229.58 216.588C228.664 213.539 227.378 210.618 225.932 207.778C224.485 204.937 222.782 202.113 221.046 199.368C220.21 198.036 219.374 196.688 218.506 195.372C217.639 194.056 216.803 192.917 215.646 191.986C215.003 191.457 214.296 190.975 213.605 190.494C212.792 189.896 211.926 189.375 211.017 188.937C208.751 187.862 206.212 187.525 203.817 188.423C203.099 188.699 202.414 189.054 201.776 189.483C201.519 189.643 201.76 190.06 202.017 189.9C203.271 189.065 204.685 188.488 206.196 188.391C207.427 188.321 208.66 188.512 209.812 188.953C211.58 189.595 213.058 190.702 214.585 191.778C217.028 193.511 218.49 196.223 220.065 198.694C221.785 201.422 223.473 204.167 224.983 207.007C226.501 209.792 227.775 212.702 228.792 215.705C229.789 218.711 230.384 221.836 230.56 224.997C230.737 227.934 230.817 230.999 232.617 233.487C233.051 234.096 233.55 234.69 233.742 235.428C233.935 236.167 233.774 237.146 233.63 237.996C233.373 239.505 233.533 240.917 233.903 242.409C234.273 243.902 234.771 245.282 234.851 246.775C234.912 247.507 234.825 248.243 234.594 248.941C234.334 249.63 233.977 250.278 233.533 250.867C232.794 251.942 231.878 253.001 231.589 254.301C231.348 255.296 231.396 256.5 232.007 257.366C232.291 257.776 232.704 258.081 233.18 258.233C233.469 258.329 233.598 257.864 233.308 257.767Z" fill="#FBE79C"/>
<path d="M27.0287 260.299C26.3536 255.116 25.6947 249.932 25.3572 244.717C25.0197 239.501 24.9393 234.382 25.4697 229.246C26.0001 224.111 27.1733 219.072 29.134 214.289C31.0948 209.507 33.618 205.206 36.4145 201.002C37.8073 198.894 39.2484 196.818 40.7377 194.775C41.4288 193.812 42.1038 192.833 42.827 191.886C43.5503 190.939 44.2413 190.121 45.1413 189.479C45.5996 189.155 46.1033 188.901 46.636 188.725C46.6874 188.711 46.7329 188.681 46.7653 188.639C46.7978 188.597 46.8154 188.545 46.8154 188.492C46.8154 188.439 46.7978 188.387 46.7653 188.345C46.7329 188.303 46.6874 188.273 46.636 188.259C45.5914 188.003 44.4342 187.73 43.5342 187.184C41.9752 186.221 43.1806 183.798 43.936 182.707C45.1253 180.99 47.1342 179.898 49.0307 179.144C50.0593 178.743 51.12 178.486 52.2129 178.566C53.0375 178.636 53.8458 178.837 54.6075 179.16C57.6611 180.396 60.4897 183.124 64.0255 182.707C65.9862 182.466 67.6416 181.327 69.5059 180.749C70.4993 180.447 71.5457 180.36 72.5756 180.492C73.5238 180.588 74.4881 180.749 75.4363 180.604C75.9723 180.55 76.4861 180.362 76.931 180.059C77.4131 179.738 77.7988 179.272 78.3453 179.08C79.2935 178.743 80.3382 179.224 81.2542 179.481C82.1703 179.738 83.0703 179.818 83.906 179.337C84.4043 179.048 84.8221 178.63 85.3364 178.374C85.8507 178.117 86.4936 178.053 86.8311 178.518C87.1686 178.984 87.4418 178.518 87.2489 178.261C86.7346 177.571 85.8025 177.603 85.0954 177.956C84.6614 178.181 84.2918 178.502 83.89 178.775C83.4376 179.098 82.8856 179.252 82.331 179.208C81.3828 179.128 80.5149 178.695 79.5828 178.55C78.6506 178.406 77.9113 178.663 77.172 179.256C76.7878 179.618 76.326 179.886 75.822 180.043C75.2494 180.184 74.6562 180.222 74.0702 180.155C72.9934 180.091 71.9166 179.866 70.8238 179.979C68.7345 180.203 66.9666 181.471 64.9737 182.017C61.1326 183.092 58.0468 180.027 54.7361 178.695C53.9336 178.356 53.0814 178.15 52.2129 178.085C51.1076 178.029 50.0039 178.221 48.9825 178.647C47.0378 179.401 45.0128 180.492 43.727 182.177C42.7467 183.461 41.477 186.013 42.9878 187.377C43.5181 187.842 44.3056 188.067 44.9646 188.291C45.6235 188.516 45.9771 188.596 46.5074 188.725V188.259C44.4181 188.949 43.052 190.747 41.8145 192.448C40.3038 194.534 38.8091 196.636 37.3627 198.755C34.4698 202.959 31.7376 207.309 29.6162 211.946C27.4691 216.667 26.0132 221.672 25.2929 226.807C24.5536 231.974 24.4733 237.222 24.7304 242.438C24.9876 247.654 25.6144 253.062 26.2894 258.342C26.3697 259 26.4662 259.642 26.5465 260.299C26.5787 260.604 27.0769 260.604 27.0287 260.299Z" fill="#FBE79C"/>
<path d="M34.4224 190.99C35.2742 190.332 36.6242 190.589 37.5724 190.845C38.5207 191.102 39.7099 191.632 40.7064 192.193C43.2939 193.654 45.9779 194.938 48.8065 195.852C50.2073 196.308 51.6422 196.651 53.0976 196.879C54.5601 197.104 56.119 196.992 57.228 198.115C57.678 198.581 58.0476 199.11 58.5298 199.527C58.9488 199.898 59.4341 200.187 59.9602 200.378C61.0852 200.795 62.2905 200.715 63.4477 200.538C64.6049 200.362 66.0031 199.961 67.3049 199.704C68.6979 199.41 70.1365 199.404 71.5317 199.688C74.3603 200.282 76.9478 201.694 79.8729 201.887C85.6586 202.288 91.0266 199.223 96.7963 199.463C102.566 199.704 107.195 203.202 112.691 203.957C113.34 204.053 113.996 204.102 114.652 204.101C114.716 204.101 114.777 204.076 114.822 204.031C114.867 203.985 114.893 203.924 114.893 203.86C114.893 203.797 114.867 203.735 114.822 203.69C114.777 203.645 114.716 203.62 114.652 203.62C108.979 203.572 104.141 200.057 98.6445 199.174C92.7944 198.244 87.3944 201.164 81.6407 201.421C80.1511 201.502 78.6582 201.339 77.2211 200.94C75.8228 200.555 74.4728 200.009 73.0746 199.592C71.6764 199.174 70.2781 198.886 68.8478 198.998C67.4174 199.11 66.2924 199.431 65.0388 199.72C63.7852 200.009 62.4673 200.314 61.1655 200.169C60.5571 200.115 59.9691 199.922 59.4459 199.608C58.8834 199.271 58.4494 198.773 58.0316 198.276C57.6137 197.778 57.1637 197.313 56.5851 197.04C56.0065 196.767 55.2673 196.655 54.5762 196.591C53.0601 196.434 51.56 196.15 50.0922 195.74C47.1511 194.922 44.3707 193.654 41.7028 192.193C39.7742 191.134 37.5885 189.818 35.2742 190.155C34.8413 190.216 34.4315 190.387 34.0849 190.653C33.8438 190.845 34.1813 191.182 34.4224 190.99Z" fill="#FBE79C"/>
<path d="M136.477 203.075L150.668 202.93L164.86 202.786L179.067 202.641L193.049 202.497C197.131 202.481 201.39 202.593 205.183 204.278C205.649 204.471 206.1 204.696 206.533 204.952C206.806 205.097 207.047 204.68 206.774 204.535C203.19 202.529 199.028 202.096 194.994 202.032C190.381 201.951 185.769 202.096 181.156 202.144L166.885 202.288L152.565 202.433L138.293 202.577H136.477C136.172 202.593 136.172 203.075 136.477 203.059V203.075Z" fill="#FBE79C"/>
<path d="M21.4674 213.859C24.2962 212.729 27.4425 212.678 30.3068 213.715C31.914 214.309 33.2158 215.255 34.5336 216.331C35.6664 217.265 36.9275 218.032 38.2783 218.609C43.8552 220.985 49.2231 223.873 53.1445 228.64C53.2731 228.8 53.5624 228.672 53.5624 228.463C53.5624 228.254 53.5463 227.58 53.5303 227.131C53.4981 226.361 53.5303 225.285 54.3338 224.836C55.1374 224.387 56.2142 224.467 57.0339 224.467C60.1678 224.483 63.3339 224.981 66.4358 225.237C72.768 225.751 79.1002 226.184 85.4324 226.537C97.9468 227.265 110.488 227.687 123.056 227.805C135.608 227.933 148.16 227.645 160.712 227.917C166.835 228.062 172.942 228.319 179.049 228.848C182.28 229.137 185.494 229.474 188.708 229.923C191.344 230.276 194.06 230.742 196.632 229.891C199.203 229.041 201.935 227.291 204.443 225.879C206.95 224.467 209.489 222.958 212.077 221.61C217.461 218.802 223.246 216.555 229.418 216.7C229.723 216.716 229.723 216.234 229.418 216.218C218.553 215.961 209.377 222.75 200.232 227.661C199.026 228.303 197.805 228.993 196.503 229.426C194.864 229.972 193.128 229.972 191.425 229.795C188.371 229.474 185.35 228.993 182.296 228.672C175.932 228.03 169.551 227.677 163.171 227.5C150.346 227.147 137.52 227.436 124.695 227.34C111.87 227.243 98.9165 226.826 86.0431 226.104C78.8109 225.687 71.5894 225.178 64.3786 224.579L59.0267 224.114C57.5642 223.986 55.6678 223.729 54.2696 224.355C52.8713 224.981 53.0642 227.099 53.0803 228.463L53.482 228.303C51.5213 225.911 49.0945 223.921 46.507 222.22C43.9194 220.519 40.8176 219.267 37.8605 217.903C36.2854 217.165 35.0479 216.058 33.6818 215.031C32.5232 214.146 31.2175 213.473 29.8247 213.041C27.038 212.193 24.0452 212.317 21.3388 213.394C21.0496 213.506 21.1781 213.972 21.4674 213.859Z" fill="#FBE79C"/>
<path d="M14.2528 240.214C18.1791 240.102 22.1073 240.36 25.9851 240.985C29.7619 241.61 33.4744 242.525 37.1709 243.504C40.8674 244.483 44.2424 245.398 47.7781 246.312C49.3532 246.714 50.9282 247.227 52.2139 248.254C53.1555 248.99 53.8551 249.991 54.2229 251.127C54.3148 251.444 54.3899 251.765 54.4479 252.09C54.4961 252.475 54.4639 252.86 54.5282 253.245C54.5925 253.63 54.7693 253.951 54.8979 254.272C54.9197 254.333 54.9623 254.384 55.0182 254.416C55.0741 254.449 55.1396 254.46 55.2032 254.449C57.4372 254.064 59.639 254.786 61.7444 255.46C63.8497 256.134 66.0837 256.84 68.398 256.728C70.7123 256.615 73.3641 255.893 75.8552 255.556C78.3377 255.233 80.8451 255.141 83.3446 255.283C86.1594 255.449 88.9494 255.906 91.6697 256.648C91.959 256.728 92.0875 256.262 91.7982 256.182C86.9669 254.859 81.9321 254.44 76.9481 254.946C74.3927 255.219 71.9016 255.893 69.3623 256.166C68.11 256.313 66.8428 256.276 65.6015 256.054C64.4842 255.822 63.3835 255.517 62.3069 255.139C59.9604 254.385 57.5657 253.566 55.0747 253.984L55.3639 254.144C55.2514 253.839 55.0425 253.502 54.9943 253.181C54.9461 252.86 54.9782 252.571 54.9461 252.282C54.912 251.952 54.8529 251.625 54.7693 251.303C54.4958 250.239 53.9471 249.265 53.1782 248.479C51.9246 247.195 50.221 246.473 48.5174 246.008C45.3835 245.157 42.2174 244.339 39.0673 243.504C35.2102 242.477 31.369 241.466 27.4476 240.76C23.0969 239.961 18.6748 239.617 14.2528 239.733C14.1889 239.733 14.1275 239.758 14.0823 239.803C14.0371 239.848 14.0117 239.91 14.0117 239.973C14.0117 240.037 14.0371 240.099 14.0823 240.144C14.1275 240.189 14.1889 240.214 14.2528 240.214Z" fill="#FBE79C"/>
<path d="M41.0602 258.074C38.3305 245.397 38.1448 232.306 40.5138 219.558C40.7604 218.076 41.0877 216.608 41.4942 215.161C41.8973 213.887 42.4137 212.652 43.0371 211.47C44.3416 209.1 46.0121 206.95 47.9871 205.099C48.646 204.473 49.305 203.927 49.8353 203.173C50.388 202.405 50.8874 201.601 51.33 200.766C52.0532 199.482 52.7122 198.166 53.355 196.834C53.8372 195.839 54.3836 194.876 54.8657 193.881C55.5247 192.533 56.1354 191.169 56.6979 189.773C57.8585 186.927 58.8197 184.005 59.5747 181.026C59.7676 180.272 59.9444 179.518 60.1212 178.764C60.1854 178.459 59.7194 178.33 59.6551 178.635C58.3228 184.726 56.1483 190.603 53.1943 196.096C52.5836 197.219 52.0693 198.391 51.4746 199.514C51.0086 200.381 50.5264 201.247 50.0121 202.066C49.4978 202.884 49.1603 203.382 48.5978 203.895C46.6049 205.692 44.7889 207.65 43.3746 209.945C41.959 212.245 40.9632 214.777 40.4335 217.424C37.8199 230.081 37.7107 243.127 40.112 255.827C40.2567 256.613 40.4335 257.4 40.5942 258.202C40.6585 258.507 41.1245 258.378 41.0602 258.074Z" fill="#597294"/>
<path d="M86.9769 169.661C83.634 173.866 83.5858 179.514 84.2929 184.586C84.7108 187.715 85.3858 190.796 85.6269 193.942C85.8253 196.93 85.7176 199.93 85.3054 202.897C84.5179 208.915 82.7822 214.772 81.3679 220.678C79.9355 226.665 78.9736 232.756 78.4911 238.893C77.9768 245.087 77.8321 251.314 77.7196 257.525C77.7196 258.327 77.7036 259.113 77.6875 259.9C77.6875 259.963 77.7129 260.025 77.7581 260.07C77.8033 260.115 77.8646 260.14 77.9286 260.14C77.9925 260.14 78.0538 260.115 78.099 260.07C78.1443 260.025 78.1696 259.963 78.1696 259.9C78.2661 253.705 78.3625 247.51 78.7804 241.332C79.1982 235.153 79.9536 229.055 81.3036 223.037C82.6536 217.019 84.3572 211.434 85.3858 205.529C85.9043 202.679 86.1838 199.791 86.2215 196.895C86.2215 193.862 85.7876 190.893 85.2894 187.924C84.4054 182.564 83.4733 176.594 86.2376 171.603C86.5627 171.042 86.9279 170.506 87.3305 169.998C87.5233 169.757 87.1858 169.42 86.9769 169.661Z" fill="#597294"/>
<path d="M113.077 259.247L113.126 236.475L113.174 213.815V207.427C113.174 205.309 113.158 203.191 113.254 201.072C113.27 200.768 112.788 200.768 112.772 201.072C112.676 202.95 112.692 204.844 112.692 206.721V223.797L112.643 246.457L112.611 259.247C112.611 259.311 112.637 259.372 112.682 259.417C112.727 259.462 112.788 259.488 112.852 259.488C112.916 259.488 112.978 259.462 113.023 259.417C113.068 259.372 113.093 259.311 113.093 259.247H113.077Z" fill="#597294"/>
<path d="M165.824 256.502C165.481 249.312 165.224 242.123 165.052 234.933C164.881 227.744 164.779 220.549 164.747 213.349C164.715 206.159 164.758 198.964 164.876 191.764C164.94 188.169 165.085 184.59 165.068 180.995C165.068 179.551 165.068 178.075 164.843 176.646C164.686 175.767 164.471 174.898 164.201 174.047C162.899 169.778 161.051 165.686 159.315 161.593C159.17 161.24 159.009 160.903 158.881 160.55C158.752 160.197 158.286 160.39 158.415 160.679C160.038 164.642 161.822 168.526 163.22 172.586C163.558 173.565 163.879 174.56 164.12 175.555C164.358 176.561 164.492 177.588 164.522 178.62C164.699 182.167 164.506 185.73 164.442 189.276C164.313 196.487 164.249 203.682 164.249 210.861C164.249 218.04 164.34 225.203 164.522 232.35C164.683 239.507 164.913 246.664 165.213 253.822C165.261 254.721 165.293 255.603 165.342 256.502C165.358 256.807 165.84 256.807 165.824 256.502Z" fill="#597294"/>
<path d="M190.511 258.443C191.892 253.141 192.807 247.728 193.243 242.266C193.669 236.817 193.636 231.341 193.146 225.897C192.68 220.505 191.957 215.113 191.764 209.705C191.665 207.027 191.751 204.346 192.021 201.681C192.337 198.997 192.924 196.351 193.773 193.785C194.544 191.362 195.155 188.955 194.962 186.387C194.786 184.22 194.014 182.23 193.082 180.289C192.825 179.727 192.536 179.181 192.262 178.62C192.118 178.347 191.7 178.587 191.844 178.876C192.857 180.866 193.886 182.904 194.303 185.119C194.769 187.606 194.4 190.062 193.677 192.453C193.291 193.705 192.873 194.94 192.536 196.208C192.201 197.503 191.938 198.816 191.748 200.14C191.373 202.712 191.207 205.309 191.25 207.907C191.298 213.267 191.973 218.612 192.487 223.939C193.002 229.267 193.227 234.724 192.921 240.132C192.603 245.583 191.807 250.996 190.543 256.309C190.382 256.983 190.221 257.641 190.044 258.315C189.964 258.603 190.43 258.732 190.511 258.443Z" fill="#597294"/>
<path d="M217.559 258.231C219.106 254.414 219.658 250.268 219.166 246.179C218.684 242.199 217.093 238.476 216.466 234.528C216.161 232.634 216.113 230.677 216.643 228.815C216.916 227.868 217.43 227.034 217.736 226.103C218.041 225.172 217.864 224.289 217.414 223.439C216.964 222.588 216.37 221.706 215.888 220.823C215.405 219.94 214.923 219.01 214.489 218.079C213.62 216.238 212.879 214.34 212.271 212.398C211.966 211.435 211.677 210.456 211.468 209.477C211.323 208.771 211.307 208.033 211.13 207.327C210.938 206.668 210.523 206.095 209.957 205.706C209.642 205.486 209.278 205.348 208.896 205.304C208.559 205.256 208.221 205.272 207.884 205.224C207.464 205.137 207.088 204.904 206.823 204.566C206.614 204.342 206.277 204.679 206.486 204.903C206.749 205.234 207.1 205.484 207.498 205.625C207.824 205.708 208.159 205.751 208.495 205.754C208.859 205.749 209.219 205.837 209.539 206.011C209.884 206.2 210.172 206.477 210.375 206.813C210.729 207.359 210.777 208.017 210.857 208.643C210.987 209.538 211.18 210.423 211.436 211.29C212.535 215.156 214.134 218.862 216.193 222.316C216.675 223.134 217.35 223.985 217.414 224.947C217.479 225.91 216.868 226.857 216.514 227.74C215.807 229.473 215.646 231.351 215.807 233.196C216.145 237.112 217.704 240.787 218.443 244.622C219.203 248.649 218.921 252.803 217.623 256.691C217.463 257.172 217.286 257.637 217.093 258.103C216.9 258.568 217.446 258.52 217.559 258.231Z" fill="#597294"/>
<path d="M17.7234 225.208C23.2841 225.433 28.6521 227.022 33.795 229.092C36.4307 230.151 39.0182 231.339 41.5897 232.542C43.8076 233.569 46.0576 234.564 48.0665 235.993C49.2739 236.821 50.3333 237.847 51.2005 239.026C52.0844 240.278 52.7434 241.674 53.5952 242.958C53.6257 243.012 53.6764 243.053 53.7364 243.071C53.7964 243.089 53.861 243.083 53.9166 243.054C57.6452 241 61.9685 241 66.0989 241.289C70.6793 241.61 75.2436 242.043 79.808 242.38C89.0652 243.054 98.3332 243.605 107.612 244.033C116.89 244.461 126.282 244.75 135.785 244.899C145.091 245.06 154.412 244.996 163.718 245.06C174.164 245.124 184.627 245.413 195.009 246.697C195.315 246.729 195.315 246.248 195.009 246.215C176.302 243.921 157.402 244.723 138.598 244.466C119.794 244.209 100.91 243.391 82.1062 242.059C76.9151 241.69 71.74 241.24 66.565 240.839C62.1935 240.518 57.6131 240.454 53.6755 242.637L53.997 242.717C52.5505 240.518 51.5219 238.207 49.4648 236.458C47.4076 234.709 45.3183 233.746 43.0844 232.703C37.9254 230.28 32.7182 227.856 27.2378 226.3C24.1384 225.408 20.9453 224.88 17.7234 224.727C17.4019 224.711 17.418 225.192 17.7234 225.208Z" fill="#597294"/>
<path d="M195.251 246.518C195.91 243.998 196.826 241.447 198.497 239.409C199.686 237.932 201.229 236.857 202.853 235.894C205.762 234.177 208.879 232.941 212.062 231.834C215.244 230.727 218.78 229.475 222.251 228.705C225.571 227.954 228.977 227.658 232.376 227.822L233.678 227.918C233.983 227.95 233.983 227.469 233.678 227.437C230.23 227.136 226.757 227.32 223.36 227.982C219.808 228.673 216.401 229.828 212.978 230.999C209.554 232.171 206.372 233.326 203.319 235.076C201.615 236.039 199.912 237.114 198.578 238.59C196.874 240.452 195.845 242.795 195.122 245.186C194.994 245.571 194.881 245.972 194.785 246.39C194.704 246.679 195.17 246.807 195.251 246.518Z" fill="#597294"/>
<path d="M28.7001 199.496C31.3655 199.43 34.0037 200.043 36.3662 201.277C38.7287 202.529 40.368 204.374 42.1681 206.268C43.4699 207.648 45.1895 209.301 47.2467 209.173C48.4681 209.109 49.6574 207.905 50.8628 208.579C52.0682 209.253 52.4057 210.2 53.145 211.002C54.7039 212.671 57.0504 213.024 59.22 213.185C62.3379 213.426 65.4558 213.602 68.5737 213.811L87.7793 215.095L106.969 216.379C113.381 216.812 119.746 217.277 126.174 216.86C132.603 216.443 138.742 216.09 145.075 216.266C151.407 216.443 157.53 216.876 163.766 217.181C170.002 217.486 176.318 217.598 182.586 217.133C185.15 216.92 187.699 216.555 190.22 216.041C192.309 215.64 194.43 215.335 196.52 215.929C197.725 216.266 198.818 216.876 199.847 217.582C200.104 217.759 200.345 217.341 200.088 217.165C198.304 215.929 196.343 215.143 194.157 215.111C191.971 215.079 189.979 215.624 187.921 216.009C181.943 217.117 175.675 217.053 169.6 216.908C156.967 216.603 144.351 215.159 131.719 215.993C128.521 216.202 125.339 216.491 122.124 216.571C118.91 216.651 115.647 216.475 112.401 216.266L93.0347 214.966L73.8452 213.682L64.1701 213.041L59.4932 212.72C58.1593 212.623 56.8093 212.511 55.5557 212.029C54.3021 211.548 53.4825 210.697 52.6628 209.67C52.1003 208.98 51.4735 208.194 50.5735 207.937C49.4003 207.616 48.4842 208.563 47.3431 208.691C46.202 208.82 44.9806 208.146 44.0645 207.408C42.1841 205.883 40.8341 203.829 38.9055 202.336C36.9509 200.831 34.6734 199.798 32.2519 199.319C31.0836 199.082 29.8918 198.98 28.7001 199.014C28.6361 199.014 28.5748 199.04 28.5296 199.085C28.4844 199.13 28.459 199.191 28.459 199.255C28.459 199.319 28.4844 199.38 28.5296 199.425C28.5748 199.471 28.6361 199.496 28.7001 199.496Z" fill="#597294"/>
<path d="M221.753 200.864L221.881 200.158C221.914 199.998 221.785 199.789 221.592 199.869C219.567 200.656 217.542 201.41 215.533 202.228C213.524 203.047 211.981 203.801 210.438 205.021C208.896 206.24 207.674 207.942 206.646 209.659C206.421 210.028 206.196 210.413 205.954 210.782C205.715 211.096 205.457 211.396 205.183 211.681C204.614 212.26 204.013 212.806 203.383 213.318C202.001 214.457 200.538 215.613 199.751 217.265C199.622 217.538 200.04 217.779 200.169 217.506C200.86 216.062 202.097 215.003 203.303 214.008C204.508 213.013 205.778 211.986 206.629 210.638C207.674 208.937 208.671 207.235 210.165 205.887C211.66 204.539 213.331 203.689 215.083 202.935C217.269 202.004 219.503 201.185 221.721 200.335L221.415 200.03L221.303 200.736C221.239 201.025 221.705 201.169 221.753 200.864Z" fill="#597294"/>
<path d="M34.373 191.023C37.6837 189.53 41.3159 188.792 44.932 188.632C48.6013 188.465 52.2707 188.959 55.7643 190.092C56.6181 190.376 57.4551 190.708 58.2714 191.087C59.1715 191.504 60.0554 191.97 60.9875 192.291C61.8417 192.595 62.7522 192.71 63.6554 192.628C64.4426 192.531 65.2114 192.32 65.9376 192.002C67.4323 191.376 68.7983 190.477 70.293 189.851C71.0223 189.529 71.7979 189.323 72.5912 189.241C73.5877 189.161 74.568 189.37 75.5323 189.659C76.4966 189.948 77.5092 190.365 78.5217 190.67C79.5358 190.972 80.566 191.219 81.6074 191.408C83.6842 191.793 85.7963 191.954 87.9075 191.889C88.4378 191.873 88.9521 191.841 89.4664 191.793C89.9807 191.745 89.7718 191.28 89.4664 191.312C85.1592 191.665 80.9163 191.039 76.8502 189.611C75.902 189.274 74.9377 188.937 73.9413 188.792C73.0701 188.682 72.1858 188.742 71.3377 188.969C69.7626 189.402 68.3483 190.285 66.8858 191.023C65.4233 191.761 63.8322 192.403 62.1608 192.098C61.1483 191.921 60.2322 191.488 59.3161 191.055C58.4 190.622 57.6447 190.269 56.7929 189.948C53.3696 188.664 49.6731 188.102 46.0088 188.134C42.3445 188.166 38.6802 188.776 35.2891 190.124L34.1319 190.606C33.8587 190.734 34.0998 191.151 34.373 191.023Z" fill="#597294"/>
<path d="M142.231 191.553C146.635 191.136 151.07 191.489 155.458 191.922C159.845 192.356 164.137 192.821 168.508 192.949C172.905 193.056 177.304 192.922 181.687 192.548C183.824 192.356 185.946 192.131 188.083 191.842C189.144 191.698 190.205 191.521 191.265 191.361C192.326 191.2 193.339 191.088 194.383 191.2C195.83 191.361 197.292 192.035 198.578 192.693C199.242 193.002 199.863 193.396 200.426 193.864C200.78 194.169 201.214 194.586 201.166 195.116C201.149 195.34 201.439 195.405 201.583 195.276C202.403 194.602 203.255 193.607 204.348 193.367C204.942 193.254 205.569 193.415 206.116 193.655C206.662 193.896 206.951 194.249 207.273 194.666C207.538 195.043 207.857 195.379 208.221 195.661C208.676 195.94 209.198 196.09 209.732 196.095C210.985 196.207 212.223 195.854 213.428 195.549C214.634 195.244 216.289 194.811 217.703 195.276C218.009 195.373 218.137 194.907 217.832 194.811C215.228 193.976 212.737 195.661 210.133 195.629C209.507 195.629 208.832 195.549 208.333 195.148C207.835 194.747 207.707 194.394 207.385 194.025C207.013 193.608 206.545 193.287 206.022 193.088C205.499 192.89 204.936 192.82 204.38 192.885C203.126 193.062 202.162 194.169 201.246 194.939L201.648 195.116C201.744 194.057 200.539 193.286 199.767 192.805C198.649 192.137 197.464 191.589 196.232 191.168C195.549 190.917 194.835 190.76 194.11 190.703C193.065 190.622 192.021 190.767 190.992 190.927C188.774 191.264 186.573 191.569 184.339 191.81C179.866 192.297 175.369 192.527 170.871 192.5C166.354 192.468 161.87 192.115 157.386 191.649C152.356 191.12 147.294 190.59 142.231 191.072C141.926 191.104 141.926 191.585 142.231 191.553Z" fill="#597294"/>
<path d="M46.1221 257.462L46.0257 242.12C45.9935 237.097 45.9614 232.042 46.4596 227.019C46.7168 224.483 47.0864 221.98 47.4721 219.46C47.8578 216.94 48.1793 214.581 48.6132 212.158C49.3364 207.937 50.3168 203.781 51.1043 199.56C51.8918 195.34 52.374 191.023 52.3418 186.706C52.3418 186.112 52.3258 185.518 52.3097 184.908C52.2936 184.603 51.8115 184.603 51.8275 184.908C51.9656 189.354 51.6424 193.801 50.8632 198.18C50.14 202.337 49.1596 206.461 48.4043 210.618C47.9543 212.993 47.6168 215.384 47.2471 217.791C46.8775 220.198 46.4918 222.702 46.1864 225.173C45.5757 230.196 45.5114 235.219 45.5275 240.258L45.6239 255.584V257.462C45.6239 257.526 45.6493 257.587 45.6945 257.632C45.7397 257.677 45.801 257.703 45.865 257.703C45.9289 257.703 45.9902 257.677 46.0354 257.632C46.0806 257.587 46.106 257.526 46.106 257.462H46.1221Z" fill="#C85D69"/>
<path d="M71.1466 260.604C71.4037 254.361 71.8538 248.119 72.4484 241.892C73.0431 235.665 73.7823 229.406 74.6181 223.164C75.4538 216.921 76.3859 210.694 77.3663 204.468C78.3467 198.241 79.3592 192.111 80.3717 185.932C80.8753 182.819 81.3842 179.7 81.8985 176.576C82.3646 173.768 82.7985 170.911 83.7949 168.215C84.0552 167.524 83.8736 168.251 84.2128 167.595C84.3575 167.322 83.9396 167.082 83.7949 167.354C82.4931 169.858 82.3324 171.216 81.8503 173.976C81.3039 177.041 80.8378 180.139 80.3235 183.204C79.311 189.447 78.2824 195.689 77.286 201.948C76.2895 208.207 75.3413 214.434 74.4734 220.692C73.6056 226.951 72.8502 233.146 72.2073 239.388C71.5645 245.631 71.0662 251.97 70.7609 258.277L70.6645 260.604C70.6484 260.925 71.1305 260.925 71.1466 260.604Z" fill="#C85D69"/>
<path d="M106.423 258.922C105.796 254.461 105.603 249.951 105.635 245.458C105.667 240.964 105.924 236.503 106.246 232.026C106.567 227.548 106.937 223.039 107.178 218.529C107.419 214.02 107.548 209.638 107.387 205.193C107.235 200.769 106.702 196.367 105.796 192.034C105.683 191.504 105.555 190.958 105.426 190.429C105.298 189.899 104.896 190.252 104.96 190.557C105.995 194.908 106.625 199.346 106.84 203.813C107.065 208.242 106.985 212.704 106.776 217.133C106.567 221.562 106.181 226.136 105.86 230.629C105.539 235.123 105.249 239.584 105.169 244.062C105.089 248.539 105.217 253.033 105.748 257.478C105.812 257.991 105.876 258.521 105.956 259.051C106.037 259.58 106.455 259.227 106.423 258.922Z" fill="#C85D69"/>
<path d="M160.087 257.547C159.653 251.192 159.203 244.837 158.85 238.482C158.496 232.127 158.239 225.771 158.159 219.4C158.078 213.029 158.175 206.69 158.528 200.335C158.882 193.98 159.669 187.978 160.168 181.8C160.666 175.621 160.778 169.731 159.525 163.826C159.364 163.087 159.187 162.365 158.994 161.643C158.898 161.338 158.432 161.467 158.528 161.771C160.135 167.629 160.232 173.759 159.83 179.794C159.428 185.828 158.593 192.022 158.191 198.153C157.789 204.283 157.612 210.863 157.644 217.218C157.676 223.573 157.918 229.88 158.255 236.203C158.593 242.526 159.01 248.849 159.444 255.172C159.509 255.974 159.557 256.76 159.605 257.547C159.637 257.852 160.119 257.852 160.087 257.547Z" fill="#C85D69"/>
<path d="M185.832 257.156C185.639 251.7 186.78 246.34 187.713 240.98C188.163 238.332 188.58 235.684 188.741 233.004C188.91 230.336 188.797 227.657 188.404 225.012C187.6 219.54 185.897 214.212 185.527 208.675C185.334 205.802 185.43 202.93 185.382 200.057C185.354 197.296 185.058 194.544 184.498 191.84C183.373 186.673 181.38 181.57 181.477 176.21C181.493 175.568 181.525 175.91 181.605 175.268C181.638 174.963 181.155 174.963 181.123 175.268C180.513 180.564 182.232 184.699 183.502 189.754C184.193 192.45 184.691 195.162 184.82 197.939C184.948 200.715 184.868 203.636 184.932 206.476C185.017 209.241 185.328 211.995 185.864 214.709C186.379 217.405 187.022 220.069 187.536 222.749C188.05 225.429 188.388 228.238 188.339 231.014C188.291 233.79 187.954 236.486 187.52 239.182C186.668 244.494 185.447 249.774 185.334 255.166C185.318 255.824 185.318 256.498 185.35 257.156C185.35 257.22 185.375 257.281 185.421 257.327C185.466 257.372 185.527 257.397 185.591 257.397C185.655 257.397 185.716 257.372 185.762 257.327C185.807 257.281 185.832 257.22 185.832 257.156Z" fill="#C85D69"/>
<path d="M201.503 198.724C201.699 198.356 201.969 198.03 202.295 197.768C202.621 197.506 202.996 197.313 203.399 197.2C204.235 196.959 205.119 197.023 205.954 197.216C207.77 197.617 209.506 198.564 210.953 199.719C211.499 200.153 212.062 200.634 212.463 201.228C212.771 201.703 213.03 202.209 213.235 202.736C213.556 203.442 213.846 204.165 214.135 204.871C214.697 206.283 215.26 207.695 216.015 209.011C216.771 210.327 217.429 211.21 218.185 212.269C219.68 214.323 221.303 216.361 222.251 218.736C222.72 219.831 222.955 221.012 222.942 222.203C222.91 223.647 222.283 224.963 222.155 226.407C222.085 227.106 222.225 227.81 222.556 228.429C222.878 228.991 223.328 229.472 223.73 229.97C224.16 230.447 224.484 231.011 224.678 231.623C224.84 232.196 224.9 232.794 224.855 233.388C224.678 235.908 223.312 238.171 223.167 240.69C223.103 242.07 223.537 243.306 224.051 244.558C224.565 245.81 225.144 247.302 224.903 248.843C224.752 249.661 224.554 250.47 224.308 251.266L223.617 253.721L222.235 258.712L221.576 261.119C221.558 261.151 221.547 261.187 221.545 261.223C221.542 261.259 221.548 261.296 221.562 261.33C221.575 261.364 221.597 261.394 221.624 261.418C221.651 261.443 221.684 261.461 221.719 261.471C221.754 261.481 221.791 261.483 221.827 261.476C221.863 261.47 221.897 261.455 221.927 261.434C221.956 261.413 221.981 261.385 221.998 261.352C222.015 261.32 222.025 261.284 222.026 261.248L224.871 251.025C225.289 249.517 225.658 248.024 225.256 246.467C224.855 244.911 224.131 243.803 223.794 242.391C223.167 239.743 224.614 237.192 225.144 234.656C225.385 233.517 225.465 232.297 225.031 231.174C224.787 230.594 224.45 230.058 224.035 229.585C223.617 229.071 223.135 228.558 222.846 227.932C222.171 226.439 223.103 224.77 223.328 223.278C223.513 222.071 223.431 220.838 223.087 219.667C222.38 217.212 220.821 215.077 219.342 213.039C218.555 211.948 217.751 210.857 217.012 209.717C216.216 208.444 215.538 207.101 214.987 205.705C214.392 204.245 213.846 202.768 213.106 201.372C212.801 200.762 212.303 200.249 211.804 199.799C210.371 198.526 208.692 197.559 206.87 196.959C205.247 196.445 203.303 196.269 201.92 197.44C201.59 197.737 201.308 198.084 201.085 198.467C200.94 198.74 201.358 198.981 201.503 198.724Z" fill="#C85D69"/>
<path d="M125.805 210.588C125.323 213.702 124.857 216.831 124.728 219.977C124.6 223.122 124.937 226.235 125.178 229.381C125.676 235.648 125.773 241.941 125.468 248.221C125.307 251.784 125.001 255.315 124.584 258.861C124.551 259.166 125.034 259.166 125.066 258.861C125.807 252.614 126.156 246.327 126.11 240.037C126.1 236.891 125.982 233.751 125.757 230.616C125.532 227.471 125.13 224.342 125.162 221.196C125.21 217.682 125.741 214.199 126.271 210.717C126.319 210.412 125.853 210.283 125.805 210.588Z" fill="#C85D69"/>
<path d="M14.284 234.708C17.0644 234.772 19.8448 234.933 22.6091 235.189C25.3734 235.446 28.1217 235.815 30.8539 236.265C33.586 236.714 36.3021 237.292 38.9861 237.95C41.3119 238.488 43.5948 239.196 45.8165 240.068C47.9862 240.935 50.0755 242.074 51.8594 243.599L52.5344 244.192C52.7595 244.401 53.097 244.064 52.872 243.855C51.1362 242.219 49.0791 240.983 46.9094 240.004C44.7397 239.025 42.4093 238.319 40.079 237.725C37.4271 237.051 34.7271 236.473 32.0271 235.992C29.3271 235.51 26.5145 235.109 23.7341 234.82C20.9538 234.531 18.1412 234.339 15.3287 234.259L14.284 234.227C14.2201 234.227 14.1588 234.252 14.1136 234.297C14.0684 234.342 14.043 234.403 14.043 234.467C14.043 234.531 14.0684 234.592 14.1136 234.638C14.1588 234.683 14.2201 234.708 14.284 234.708Z" fill="#C85D69"/>
<path d="M24.3621 207.666L33.0729 210.506C35.8051 211.389 38.5694 212.208 41.2373 213.251C43.9052 214.294 46.0588 215.513 47.9713 217.359C49.8183 219.148 51.2503 221.32 52.1665 223.721C53.0828 226.122 53.4612 228.694 53.2749 231.257C53.2588 231.385 53.3874 231.481 53.516 231.497C72.2233 231.915 90.9467 232.284 109.654 232.765C128.361 233.247 146.796 233.985 165.342 235.189C175.757 235.873 186.166 236.708 196.569 237.692C196.875 237.724 196.875 237.243 196.569 237.211C178.055 235.445 159.508 234.21 140.929 233.375C122.351 232.541 103.643 232.139 84.9842 231.722L53.516 231.016L53.7571 231.257C54.0874 226.479 52.5099 221.765 49.3695 218.145C45.7052 213.893 40.3051 212.352 35.1461 210.667L24.4907 207.201C24.1853 207.104 24.0567 207.57 24.3621 207.666Z" fill="#C85D69"/>
<path d="M199.14 222.833C199.172 222.835 199.203 222.843 199.231 222.857C199.26 222.871 199.285 222.891 199.306 222.914C199.327 222.938 199.343 222.966 199.353 222.996C199.363 223.026 199.367 223.058 199.365 223.089C199.333 223.138 199.365 223.138 199.365 223.089L199.413 223.025H199.429L199.461 222.977L199.911 222.48C200.377 221.982 200.876 221.501 201.358 221.019C202.37 220.04 203.383 219.077 204.428 218.147L204.636 217.97L204.717 217.89H204.749C205.185 217.629 205.636 217.393 206.099 217.184C207.385 216.526 208.703 215.9 210.02 215.322C212.684 214.167 215.416 213.175 218.201 212.353C220.972 211.534 223.79 210.88 226.638 210.395L227.731 210.219C228.037 210.171 227.908 209.705 227.603 209.753C221.657 210.653 215.851 212.308 210.326 214.68C208.944 215.258 207.578 215.9 206.244 216.574L205.231 217.087C204.993 217.195 204.762 217.318 204.54 217.457C204.41 217.544 204.286 217.64 204.17 217.745C203.11 218.676 202.081 219.671 201.069 220.65C200.554 221.148 200.04 221.661 199.558 222.175C199.397 222.335 199.236 222.512 199.092 222.688C198.983 222.798 198.91 222.938 198.883 223.089C198.883 223.158 198.91 223.223 198.958 223.271C199.006 223.319 199.072 223.346 199.14 223.346C199.445 223.378 199.445 222.897 199.14 222.865V222.833Z" fill="#C85D69"/>
<path d="M50.6059 201.417C51.5058 201.253 52.4319 201.308 53.3059 201.578C54.0068 201.825 54.6633 202.182 55.2506 202.637C56.5042 203.536 57.6453 204.547 59.1399 205.028C60.134 205.353 61.1871 205.457 62.2257 205.333C63.4953 205.172 64.7007 204.739 65.9382 204.45C67.2354 204.172 68.5763 204.167 69.8758 204.434C71.1936 204.707 72.4472 205.156 73.7169 205.558C76.2815 206.368 78.9506 206.8 81.6402 206.841C84.3884 206.89 87.1206 206.601 89.8367 206.248C92.5528 205.895 94.9153 205.477 97.4546 205.189C99.6265 204.945 101.81 204.822 103.996 204.819C108.271 204.851 112.835 205.333 116.644 207.403C117.073 207.649 117.491 207.906 117.898 208.173C118.155 208.35 118.396 207.933 118.139 207.756C114.603 205.349 110.135 204.595 105.924 204.386C101.28 204.177 96.7153 204.771 92.1349 205.429C86.6867 206.232 81.0134 206.986 75.5812 205.606C73.0097 204.948 70.5347 203.728 67.8347 203.744C65.1346 203.76 62.965 205.205 60.3935 204.819C58.6899 204.579 57.3721 203.648 56.0381 202.621C54.7042 201.594 53.5149 200.904 51.9077 200.856C51.4289 200.84 50.9497 200.872 50.4773 200.952C50.172 201 50.3005 201.449 50.6059 201.417Z" fill="#C85D69"/>
<path d="M131.157 206.433C132.99 205.502 135.143 205.759 137.088 206.16C138.133 206.369 139.145 206.625 140.174 206.85C141.202 207.075 142.279 207.251 143.324 207.396C148.193 208.022 153.127 208.006 158.013 207.797C162.899 207.588 167.817 207.203 172.719 207.091C177.62 206.978 182.667 207.075 187.649 207.123L195.106 207.187C196.038 207.187 196.955 207.171 197.887 207.219C198.819 207.267 199.43 207.348 200.105 207.717C200.408 207.88 200.655 208.132 200.812 208.439C200.94 208.712 201.358 208.471 201.23 208.198C200.555 206.818 198.61 206.754 197.308 206.722C194.962 206.674 192.631 206.674 190.301 206.658C185.206 206.609 180.112 206.513 175.017 206.561C169.922 206.609 164.972 206.978 159.942 207.235C154.911 207.492 149.929 207.604 144.963 207.091C143.758 206.978 142.536 206.818 141.347 206.609C140.158 206.401 139.29 206.144 138.261 205.919C136.3 205.47 134.195 205.037 132.202 205.534C131.753 205.642 131.321 205.81 130.916 206.032C130.627 206.16 130.884 206.577 131.157 206.433Z" fill="#C85D69"/>
<path d="M194.463 250.532C196.793 249.28 199.027 247.836 201.277 246.424C203.527 245.012 205.938 243.551 208.397 242.38C209.624 241.803 210.879 241.289 212.158 240.839C213.556 240.342 214.97 239.876 216.384 239.475C222.134 237.817 228.055 236.827 234.031 236.522L235.108 236.474C235.413 236.458 235.429 235.977 235.108 235.993C229.11 236.216 223.158 237.12 217.365 238.689C214.538 239.442 211.767 240.391 209.072 241.529C206.613 242.604 204.283 244.017 201.984 245.429C199.686 246.841 197.388 248.35 195.009 249.682L194.222 250.131C193.949 250.275 194.19 250.693 194.463 250.532Z" fill="#C85D69"/>
<path d="M159.796 184.554C160.182 185.077 160.679 185.509 161.251 185.82C161.823 186.13 162.457 186.312 163.107 186.351C163.762 186.406 164.421 186.313 165.035 186.078C165.71 185.806 166.224 185.324 166.835 184.939C167.141 184.746 167.494 184.57 167.864 184.65C168.156 184.725 168.413 184.901 168.587 185.148C169.005 185.693 169.246 186.335 169.744 186.817C170.741 187.796 172.187 188.149 173.553 188.1C175.225 188.052 176.8 187.346 178.31 186.704C179.938 185.964 181.657 185.441 183.421 185.148C185.192 184.891 186.991 184.907 188.757 185.196C190.137 185.463 191.483 185.878 192.775 186.431C194.189 186.993 195.571 187.619 196.953 188.213C198.336 188.807 199.589 189.336 200.955 189.705C201.246 189.792 201.541 189.861 201.839 189.914C202.145 189.978 202.273 189.513 201.968 189.449C200.65 189.192 199.38 188.71 198.159 188.197C196.937 187.683 195.362 186.993 193.964 186.399C192.566 185.806 191.409 185.324 190.075 184.987C188.437 184.579 186.747 184.416 185.06 184.506C183.288 184.594 181.538 184.945 179.869 185.549C178.23 186.143 176.687 186.993 175 187.41C173.65 187.747 172.139 187.747 170.885 187.057C170.3 186.735 169.817 186.257 169.487 185.677C169.166 185.132 168.828 184.506 168.201 184.249C167.575 183.992 166.787 184.361 166.208 184.779C165.63 185.196 165.132 185.581 164.441 185.757C163.822 185.915 163.175 185.927 162.55 185.793C161.926 185.66 161.341 185.384 160.84 184.987C160.598 184.791 160.382 184.564 160.198 184.313C160.021 184.072 159.603 184.313 159.796 184.554Z" fill="#C85D69"/>
<path d="M12.9186 256.751C14.0757 254.697 15.2168 252.627 16.1007 250.445C17.0053 248.227 17.527 245.872 17.6436 243.48C17.7722 241.024 17.5793 238.569 17.5954 236.114C17.614 233.914 17.7535 231.718 18.0133 229.534C18.5251 225.169 19.4781 220.868 20.8579 216.695C22.2538 212.481 24.0233 208.399 26.1455 204.499C28.2718 200.61 30.7121 196.902 33.442 193.409C34.7759 191.724 36.1259 190.023 37.7331 188.579C39.3403 187.135 41.1403 185.947 43.2457 185.738C43.7491 185.701 44.255 185.712 44.7564 185.771C45.0091 185.779 45.2621 185.763 45.5118 185.722C45.8171 185.69 46.1064 185.787 46.4118 185.771C46.7411 185.734 47.0618 185.642 47.36 185.498C47.9868 185.225 48.5332 184.776 49.1118 184.422C49.3567 184.251 49.6367 184.136 49.9314 184.085C50.2689 184.037 50.5261 184.214 50.7993 184.39C51.7154 185.016 52.6958 185.642 53.7886 185.899C54.2822 186.016 54.7948 186.027 55.2932 185.933C55.7916 185.839 56.2646 185.642 56.6815 185.353C57.5494 184.792 58.3047 184.23 59.3815 184.262C60.4583 184.294 61.1012 184.599 61.9048 184.936C63.4959 185.61 65.1834 186.541 66.9834 186.188C68.7834 185.835 70.0852 184.455 71.7727 183.909C72.1432 183.776 72.5372 183.721 72.9299 183.748C73.4603 183.797 73.8621 184.069 74.3121 184.294C74.6927 184.508 75.1382 184.576 75.5656 184.487C76.0157 184.358 76.3692 184.053 76.7389 183.797C77.7835 183.074 78.9085 183.476 80.0496 183.7C81.2011 183.939 82.3903 183.928 83.5372 183.668C84.7425 183.427 85.8997 182.994 87.0568 182.561C87.3461 182.449 87.2176 181.983 86.9283 182.095C85.755 182.529 84.5818 182.978 83.3443 183.219C82.1028 183.455 80.8246 183.417 79.5996 183.107C78.5389 182.866 77.4782 182.705 76.546 183.347C76.1603 183.604 75.7906 183.973 75.3406 184.037C74.8906 184.101 74.2799 183.684 73.7817 183.476C72.1585 182.786 70.5513 183.909 69.2013 184.695C68.4299 185.161 67.6102 185.626 66.7102 185.754C65.8102 185.883 64.878 185.642 64.0423 185.321C62.4191 184.711 60.7476 183.62 58.9637 183.781C57.9512 183.877 57.2119 184.439 56.3922 184.968C55.5726 185.498 54.2708 185.642 53.1297 185.177C52.5956 184.937 52.0799 184.658 51.5868 184.342C51.2172 184.102 50.8636 183.781 50.4457 183.652C50.0279 183.524 49.3207 183.732 48.8386 184.021C48.3564 184.31 47.7136 184.84 47.0707 185.113C46.4278 185.385 45.8493 185.209 45.2064 185.273C44.8521 185.281 44.4977 185.265 44.1457 185.225C43.6555 185.206 43.1647 185.243 42.6832 185.337C41.7136 185.515 40.7832 185.863 39.9349 186.364C38.1027 187.391 36.5759 188.9 35.2259 190.489C29.4655 197.188 24.8796 204.812 21.6615 213.036C20.0531 217.157 18.8527 221.424 18.0775 225.779C17.29 230.208 17.049 234.637 17.1615 239.115C17.2257 241.666 17.3061 244.25 16.7597 246.753C16.2132 249.257 15.2811 251.311 14.1882 253.429C13.6418 254.473 13.0793 255.484 12.5007 256.495C12.356 256.767 12.7739 257.024 12.9186 256.751Z" fill="#C85D69"/>
<path d="M128.424 83.241C127.943 83.484 127.537 83.8525 127.248 84.3073C126.96 84.7622 126.8 85.2865 126.785 85.8248C126.792 86.3649 126.946 86.893 127.233 87.3513C127.519 87.8097 127.926 88.181 128.408 88.4246C129.116 88.7777 129.967 88.8097 130.755 88.7295C134.933 88.2481 138.405 85.2792 142.567 85.8087C143.66 85.9371 151.262 87.8308 154.075 88.3925C154.313 88.4629 154.567 88.4516 154.798 88.3604C155.409 88.0394 154.975 87.1247 154.493 86.6272L149.446 81.4758C148.803 80.8178 148.144 80.1438 147.293 79.7586C145.718 79.0685 141.764 79.2772 140.125 79.8067C139.289 80.0635 131.783 81.9732 129.132 82.8719L128.424 83.241Z" fill="#282627"/>
<path d="M97.7938 87.8015C101.41 87.4324 105.026 87.962 108.61 88.4916C109.623 88.6521 110.908 88.6681 111.39 87.7694C111.599 87.3682 111.583 86.8707 111.471 86.4214C111.037 84.4796 109.317 83.0192 107.453 82.3452C105.589 81.6711 103.531 81.6391 101.539 81.623L96.476 81.5588C95.0777 81.5428 93.6152 81.5428 92.3616 82.1686C91.4616 82.634 90.7545 83.3883 90.0634 84.1265C89.0027 85.2659 87.9419 86.4053 87.2348 87.7694C86.5276 89.1335 85.7562 91.8457 86.7526 92.2308C88.408 92.8728 94.1938 88.1546 97.7938 87.8015Z" fill="#282627"/>
<circle cx="125.5" cy="218" r="3" fill="#D1D3FC"/>
<circle cx="125.5" cy="246" r="3" fill="#D1D3FC"/>
</g>
<defs>
<linearGradient id="paint0_linear_1708_12593" x1="103.637" y1="102.447" x2="101.176" y2="92.9966" gradientUnits="userSpaceOnUse">
<stop stop-color="#ECE0FF"/>
<stop offset="1" stop-color="#BBC7F9"/>
</linearGradient>
<linearGradient id="paint1_linear_1708_12593" x1="94.6846" y1="96.058" x2="105.253" y2="93.4265" gradientUnits="userSpaceOnUse">
<stop stop-color="#604300"/>
<stop offset="1" stop-color="#471400"/>
</linearGradient>
<linearGradient id="paint2_linear_1708_12593" x1="100.726" y1="97.7817" x2="98.8075" y2="90.9043" gradientUnits="userSpaceOnUse">
<stop stop-color="#925600"/>
<stop offset="1" stop-color="#2E0010"/>
</linearGradient>
<linearGradient id="paint3_linear_1708_12593" x1="100.354" y1="96.8569" x2="99.1895" y2="92.6323" gradientUnits="userSpaceOnUse">
<stop stop-color="#604300"/>
<stop offset="1" stop-color="#471400"/>
</linearGradient>
<linearGradient id="paint4_linear_1708_12593" x1="136.971" y1="102.424" x2="139.431" y2="92.9732" gradientUnits="userSpaceOnUse">
<stop stop-color="#ECE0FF"/>
<stop offset="1" stop-color="#BBC7F9"/>
</linearGradient>
<linearGradient id="paint5_linear_1708_12593" x1="144.925" y1="96.0345" x2="134.357" y2="93.4031" gradientUnits="userSpaceOnUse">
<stop stop-color="#604300"/>
<stop offset="1" stop-color="#471400"/>
</linearGradient>
<linearGradient id="paint6_linear_1708_12593" x1="138.884" y1="97.7582" x2="140.802" y2="90.8809" gradientUnits="userSpaceOnUse">
<stop stop-color="#925600"/>
<stop offset="1" stop-color="#2E0010"/>
</linearGradient>
<linearGradient id="paint7_linear_1708_12593" x1="139.255" y1="96.8334" x2="140.42" y2="92.6089" gradientUnits="userSpaceOnUse">
<stop stop-color="#604300"/>
<stop offset="1" stop-color="#471400"/>
</linearGradient>
</defs>
</svg>
