<svg width="251" height="250" viewBox="0 0 251 250" fill="none" xmlns="http://www.w3.org/2000/svg">
<path d="M117.845 -4.96094C106.875 3.89616 91.9714 7.54043 77.8388 10.2117C61.0934 13.3744 43.3051 16.28 30.3144 27.3076C8.32192 45.9805 8.5577 79.7741 -4.5 105.419V-4.96094V255.039H255.5V-4.96094H117.845ZM-4.5 240.08V146.886C13.0618 155.047 25.2383 172.843 25.2383 193.483C25.2383 214.124 13.0618 231.92 -4.5 240.08ZM255.424 115.584V255.039H68.9411C50.7325 232.906 39.799 204.562 39.799 173.663C39.799 102.878 97.1821 45.494 167.968 45.494C201.774 45.494 232.523 58.5824 255.424 79.9707V115.584Z" fill="#66C3CD"/>
<path d="M-4.5 146.883V240.077C13.0618 231.916 25.2383 214.12 25.2383 193.48C25.2383 172.839 13.0618 155.044 -4.5 146.883Z" fill="#150DCE"/>
<path d="M30.3144 27.3076C43.3051 16.2786 61.0934 13.373 77.8388 10.2117C91.9714 7.54186 106.878 3.89758 117.845 -4.96094H-4.5V105.419C8.5577 79.7741 8.32192 45.9805 30.3144 27.3076Z" fill="#150DCE"/>
<path d="M39.7988 173.664C39.7988 204.562 50.7324 232.907 68.9409 255.039H103.404C93.5576 239.043 87.8753 220.206 87.8753 200.048C87.8753 142.025 134.911 94.9891 192.933 94.9891C216.34 94.9891 237.957 102.644 255.421 115.585V79.9689C232.52 58.5834 201.771 45.4922 167.965 45.4922C97.1819 45.4943 39.7988 102.878 39.7988 173.664Z" fill="#150DCE"/>
<path d="M87.8779 200.044C87.8779 220.203 93.5573 239.041 103.407 255.036H255.424V115.581C237.96 102.639 216.342 94.9844 192.936 94.9844C134.914 94.9844 87.8779 142.02 87.8779 200.044Z" fill="#00007E"/>
<path d="M255.5 228.356C253.389 218.161 248.207 208.315 242.541 199.683C240.055 195.895 237.165 192.3 233.515 189.615C230.583 187.459 227.239 185.944 223.922 184.446L182.147 165.569C169.977 160.07 157.625 154.515 144.437 152.413C122.755 148.957 100.758 155.094 79.9964 162.237L79.6004 162.547L30.0002 192.892C22.5208 197.47 14.9338 202.13 8.97227 208.564C3.11052 214.889 -2.42499 229.621 -4.5 237.703V255.04H255.5V228.356Z" fill="#206D41"/>
<g opacity="0.2">
<path d="M163.511 157.837C160.034 156.124 155.113 154.884 151.1 153.805L147.271 154.232C149.588 154.368 151.859 154.835 154.144 155.382C157.088 156.088 159.814 157.351 161.772 159.529C163.942 161.942 164.831 163.145 164.878 164.955C164.926 166.764 164.291 168.52 163.558 170.175C160.917 176.124 156.925 181.375 151.9 185.513C146.711 189.777 141.436 193.384 135.009 195.334C126.717 197.851 117.03 198.079 108.405 197.244C105.292 196.943 102.177 196.415 99.2571 195.296C94.1355 193.335 89.8793 189.673 85.7364 186.079C84.6992 185.18 83.6578 184.276 82.7624 183.235C80.483 180.584 79.1922 178.613 78.0297 175.314C77.7384 174.487 77.5225 172.234 77.4833 171.357C77.4264 170.097 77.3615 169.006 77.4784 167.749C77.5539 166.938 78.0269 165.947 78.4044 165.225C78.8147 164.441 79.6588 163.99 80.4751 163.646C82.439 162.816 84.5226 162.313 86.6012 161.834C89.2686 161.22 91.9441 160.643 94.6277 160.102L82.1356 161.494C76.7219 163.386 71.7156 168.119 70.2005 173.649C69.7019 175.473 69.4953 177.402 69.8251 179.265C70.2333 181.562 71.43 183.645 72.7905 185.54C80.1567 195.798 92.3981 201.472 104.635 204.594C117.439 207.859 131.551 208.67 143.398 202.817C150.043 199.535 155.579 194.34 160.28 188.61C165.17 182.653 169.344 175.833 170.658 168.238C171.094 165.723 170.169 161.117 163.511 157.837Z" fill="black"/>
</g>
<path d="M97.0829 117.86C96.7046 117.867 95.8897 118.296 95.7729 118.656C95.7186 118.838 95.7262 119.032 95.7947 119.209C95.8632 119.386 95.9886 119.535 96.1512 119.633C96.2409 120.137 95.7145 120.588 95.2031 120.591C94.6916 120.593 94.2322 120.277 93.8632 119.923C93.3524 119.432 92.9678 118.386 92.9678 117.87C92.9678 116.594 94.6895 116.374 95.7708 116.171C97.856 115.779 99.9977 115.798 102.076 116.227C102.853 116.388 103.636 116.607 104.426 116.545C105.12 116.49 106.129 116.431 106.759 116.135C107.821 115.636 108.351 115.316 109.167 114.475C109.472 114.16 109.901 113.335 110.217 113.031C110.676 112.588 111.809 111.388 112.377 111.097C113.779 110.385 114.707 110.508 116.28 110.461C116.734 110.448 117.252 110.795 117.661 110.993C118.07 111.191 118.403 111.61 118.374 112.062C118.349 112.426 118.106 112.738 117.837 112.984C117.54 113.257 117.185 113.487 116.786 113.554C116.387 113.621 115.941 113.487 115.705 113.16C115.527 112.912 115.479 112.576 115.261 112.362C114.879 111.986 114.239 112.188 113.765 112.437C112.367 113.171 111.037 114.209 110.434 115.668C110.041 116.624 109.97 117.73 109.343 118.552C108.817 119.243 107.962 119.625 107.1 119.739C106.239 119.853 105.366 119.727 104.513 119.562C104.019 119.477 103.534 119.348 103.064 119.175C102.367 118.901 101.907 118.605 101.212 118.315C99.9059 117.77 98.182 117.841 97.0829 117.86Z" fill="#FB2D33"/>
<path d="M161.773 159.534C159.815 157.356 157.089 156.094 154.145 155.388C151.2 154.682 148.28 154.106 145.255 154.207C125.503 154.851 105.859 157.407 86.6001 161.837C84.5222 162.316 82.4386 162.819 80.474 163.649C79.6577 163.994 78.8136 164.442 78.4033 165.228C78.0265 165.95 77.5535 166.938 77.4773 167.753C77.3604 169.008 77.4253 170.103 77.4822 171.36C77.5214 172.237 77.7373 174.49 78.0286 175.317C79.1911 178.616 80.4804 180.589 82.7613 183.239C83.6567 184.279 84.6981 185.183 85.7353 186.082C89.8782 189.676 94.1343 193.338 99.256 195.3C102.177 196.419 105.291 196.947 108.404 197.247C117.029 198.082 126.716 197.854 135.008 195.337C141.434 193.387 146.71 189.781 151.899 185.516C156.924 181.379 160.915 176.128 163.557 170.18C164.29 168.525 164.925 166.77 164.877 164.96C164.829 163.151 163.943 161.948 161.773 159.534Z" fill="#FBB577"/>
<path d="M82.0862 159.994C82.6859 162.95 81.8133 167.091 82.4124 170.047C82.6261 171.092 82.8398 172.144 83.2223 173.138C83.6447 174.23 84.2659 175.234 84.9547 176.18C90.3684 183.619 99.5204 187.163 108.159 190.332C113.302 192.219 118.728 194.137 124.136 193.268C126.095 192.953 127.974 192.28 129.835 191.602C135.747 189.448 141.841 187.065 146.197 182.519C149.249 179.318 151.242 175.256 151.906 170.884C152.369 167.784 152.147 164.627 151.887 161.504C151.578 157.8 151.218 154.096 150.597 150.429C149.374 143.226 148.175 136 149.139 128.758C145.378 133.53 139.141 136.929 134.042 140.238C131.027 142.194 127.993 144.161 124.686 145.569C118.342 148.271 111.305 148.791 104.413 148.989C95.8149 149.239 88.9886 149.007 80.3887 148.815C80.3915 148.818 81.2912 156.071 82.0862 159.994Z" fill="#FBB577"/>
<g style="mix-blend-mode:multiply" opacity="0.6">
<path d="M82.2614 148.798C87.7207 151.571 93.4229 154.037 99.4691 155.005C108.761 156.491 118.424 154.292 126.724 149.858C135.024 145.424 140.427 141.673 143.646 135.606C144.508 133.984 149.701 124.443 149.957 122.875C149.957 133.836 143.688 146.618 137.655 154.943C133.028 161.325 135.227 163.838 127.427 164.986C124.116 165.472 118.361 166.078 115.194 167.162C112.947 167.931 107.541 171.142 105.23 170.594C103.902 170.278 100.694 168.973 98.588 168.158C92.5966 165.84 90.5351 160.487 85.7825 156.165C84.3079 154.824 82.4587 153.664 81.4643 151.847C80.3958 149.891 75.9381 145.156 76.3355 144.023C76.332 144.02 79.4449 147.369 82.2614 148.798Z" fill="#D177B8"/>
</g>
<path d="M114.712 111.842C114.368 111.856 114.028 111.912 113.698 112.01C112.252 112.438 111.106 113.708 110.75 115.175C110.935 115.206 111.122 115.147 111.298 115.085C112.585 114.636 113.801 114.005 114.908 113.211C115.122 113.059 115.346 112.874 115.387 112.616C115.421 112.393 115.306 112.17 115.141 112.017C114.967 111.874 114.771 111.76 114.561 111.68" fill="black"/>
<path d="M96.3442 117.286C96.6773 117.129 97.0275 117.012 97.3877 116.936C98.8616 116.611 100.479 117.164 101.501 118.274C101.354 118.391 101.162 118.43 100.978 118.461C99.6348 118.692 98.2656 118.73 96.9119 118.572C96.6519 118.542 96.3656 118.49 96.2046 118.287C96.0664 118.11 96.0621 117.86 96.1291 117.646C96.1738 117.512 96.2472 117.389 96.3442 117.286Z" fill="black"/>
<path d="M96.1625 134.802C99.7804 135.693 103.485 136.185 107.21 136.269C108.392 136.296 109.578 136.281 110.752 136.139C114.239 135.716 117.903 134.592 120.333 132.057C122.831 129.452 125.502 127.3 127.623 124.502C127.75 124.336 127.882 124.134 127.823 123.932C127.731 123.613 127.284 123.609 126.959 123.674C120.619 124.944 114.476 127.037 108.356 129.125C104.901 130.304 101.429 131.49 98.2019 133.198C97.4532 133.595 96.706 134.025 96.1055 134.623" fill="#781ED1"/>
<path d="M94.8358 136.042C98.2898 133.671 102.064 131.804 106.044 130.497C107.554 129.998 109.09 129.589 110.61 129.128C114.508 127.947 118.303 126.455 122.156 125.13C123.699 124.599 125.278 124.089 126.908 124.05C127.734 124.03 128.587 124.127 129.364 123.849C128.794 123.119 127.718 123.106 126.794 123.16C121.824 123.45 116.856 123.781 111.89 124.151C111.321 124.194 110.729 124.243 110.233 124.525C109.956 124.683 109.72 124.906 109.439 125.057C108.975 125.308 108.428 125.342 107.918 125.478C107.002 125.722 106.217 126.298 105.456 126.861L99.1796 131.507C98.5143 131.999 97.8461 132.494 97.262 133.08C96.9429 133.4 96.6501 133.746 96.3588 134.09L94.7881 135.943" fill="#4A147F"/>
<path d="M55.566 110.112C51.1716 100.603 48.6521 90.0603 51.4281 79.9581C52.3641 76.5546 53.783 73.3042 55.3039 70.1194C60.5751 59.089 68.2683 48.783 79.3585 43.6407C85.3064 40.8826 93.724 40.1296 100.172 41.3157C105.746 42.3407 108.808 44.0467 114.276 45.5412C117.878 46.5263 120.125 48.5095 123.525 50.0524C130.098 53.0356 134.651 60.6803 136.727 64.1679C138.673 67.4375 141.626 72.5541 142.457 76.0417C143.05 78.5348 143.286 78.6987 146.857 78.2556C150.153 79.3163 150.901 86.4474 151.673 89.8245C152.689 94.2745 153.756 99.3035 153.647 103.867C153.585 106.478 154.281 108.109 152.693 110.183C152.09 110.966 151.324 111.625 150.759 112.44C148.608 115.539 149.934 119.717 150.083 123.486C150.449 132.718 143.59 141.508 135.786 146.453C121.099 155.759 111.032 159.997 94.1593 155.801C91.5001 155.139 83.2906 152.357 80.7632 150.439C79.8094 149.714 77.8277 147.139 77.2016 146.118C76.3119 144.667 74.7269 142.325 73.4554 141.194C72.2053 140.081 72.8585 140.624 71.5457 139.589C70.3447 138.638 68.7626 139.475 67.3942 138.786C64.5342 137.348 64.6995 136.633 63.824 135.345C62.6216 133.575 60.8493 131.04 59.2573 126.94C58.5293 125.067 52.8349 115.807 52.5315 113.821C51.9766 110.196 55.566 110.112 55.566 110.112Z" fill="#FBB577"/>
<path d="M94.5289 136.89C99.3243 134.758 104.915 137.318 110.113 136.605C112.664 136.255 115.034 135.125 117.335 133.97C118.677 133.296 120.048 132.581 121.023 131.44C121.769 130.567 122.425 129.708 123.151 128.744C123.694 128.024 124.14 127.419 124.824 126.829C126.016 125.801 127.275 124.265 128.764 123.75C125.61 123.286 122.291 124.503 119.29 125.572L104.982 130.658C100.908 132.106 96.663 133.665 93.7354 136.847L94.5289 136.89Z" fill="#FF5663"/>
<path d="M93.9692 136.872C97.679 134.854 100.283 132.547 105.376 131.387C107.473 130.908 109.473 130.072 111.492 129.331C117.278 127.209 122.818 123.723 128.98 123.749C127.761 123.306 126.439 123.25 125.143 123.242C116.666 123.176 116.105 122.943 112.009 123.406C111.415 123.477 110.531 124.995 109.905 125.178C108.637 125.548 107.164 125.028 106.169 125.897C105.691 126.315 99.4548 130.986 95.9288 134.374C95.5064 134.779 93.712 136.393 93.9791 136.914" fill="#DC3B63"/>
<path d="M126.845 87.276C126.845 87.276 125.287 90.1324 120.396 91.3192C115.505 92.5059 110.272 92.5301 107.091 91.364C107.091 91.364 107.228 90.401 107.797 89.0967C107.797 89.0967 107.797 89.0967 107.797 89.0924C108.785 86.8322 111.074 83.5498 116.186 82.4763C123.281 80.9904 126.136 85.8243 126.728 87.016C126.807 87.182 126.845 87.276 126.845 87.276Z" fill="url(#paint0_linear_1409_8136)"/>
<path d="M122.461 86.2735C122.472 82.965 119.416 80.2727 115.635 80.2602C111.854 80.2476 108.78 82.9196 108.769 86.2281C108.758 89.5366 111.814 92.2289 115.595 92.2415C119.376 92.254 122.45 89.5821 122.461 86.2735Z" fill="url(#paint1_linear_1409_8136)"/>
<path d="M121.915 86.2706C121.925 83.2256 119.113 80.7478 115.633 80.7363C112.153 80.7247 109.324 83.1838 109.314 86.2288C109.304 89.2738 112.117 91.7515 115.596 91.7631C119.076 91.7746 121.905 89.3155 121.915 86.2706Z" fill="url(#paint2_linear_1409_8136)"/>
<path style="mix-blend-mode:multiply" d="M119.477 86.2635C119.484 84.3972 117.76 82.8785 115.627 82.8715C113.494 82.8644 111.761 84.3716 111.754 86.2379C111.748 88.1042 113.472 89.6229 115.605 89.63C117.737 89.6371 119.471 88.1298 119.477 86.2635Z" fill="url(#paint3_linear_1409_8136)"/>
<g style="mix-blend-mode:multiply" opacity="0.6">
<path d="M126.728 87.0179C124.96 85.8169 121.838 84.618 117.476 84.6038C112.083 84.586 107.986 88.7253 107.8 89.0915C108.788 86.8313 111.077 83.5488 116.188 82.4754C123.283 80.9923 126.142 85.8254 126.728 87.0179Z" fill="#D077B7"/>
</g>
<path d="M108.458 87.8126C108.458 87.8126 108.863 82.1275 114.693 80.0233C121.98 77.3926 125.898 85.687 125.898 85.687C125.898 85.687 117.124 77.0094 108.458 87.8126Z" fill="#DC4C6A"/>
<path d="M110.139 92.0588C110.729 92.1222 120.396 90.7767 125.975 88.3683C126.126 88.3034 123.894 91.1713 119.629 92.0681C113.783 93.2962 110.139 92.0588 110.139 92.0588Z" fill="#DC6B7C"/>
<path d="M107.797 89.1016C107.797 89.1016 106.053 91.1388 106.245 91.7066C106.438 92.2743 108.746 91.8312 108.746 91.8312C108.746 91.8312 107.478 91.2471 107.49 90.8859C107.503 90.5248 107.797 89.1016 107.797 89.1016Z" fill="#E08A97"/>
<path d="M126.529 86.6411C126.529 86.6411 125.959 84.0333 125.312 83.2576C124.664 82.4818 120.618 80.872 116.017 81.4767C111.417 82.0815 109.054 86.1133 107.953 88.7532C107.953 88.7532 111.821 82.8031 117.889 82.9256C123.958 83.0481 126.529 86.6411 126.529 86.6411Z" fill="#4E1B3D"/>
<path d="M120.532 86.0798C120.319 86.2643 123.679 87.1198 123.857 86.8114C124.035 86.5029 121.005 85.6702 120.532 86.0798Z" fill="white"/>
<path d="M118.075 85.5357C117.867 85.5926 117.824 86.129 118.075 86.0777C118.327 86.0264 118.796 86.0065 118.797 85.8106C118.798 85.6147 118.356 85.4587 118.075 85.5357Z" fill="white"/>
<path d="M71.1802 107.83C71.1802 107.83 74.4926 109.2 79.0985 107.189C83.7044 105.178 87.702 102.02 89.257 99.1398C89.257 99.1398 88.4357 98.4425 87.031 97.7309H87.026C84.592 96.4978 80.4085 95.2242 75.7171 97.4602C69.2121 100.564 70.6374 106.222 71.0762 107.544C71.1389 107.731 71.1802 107.83 71.1802 107.83Z" fill="url(#paint4_linear_1409_8136)"/>
<path d="M78.9612 106.57C82.747 106.57 85.8159 103.705 85.8159 100.172C85.8159 96.638 82.747 93.7734 78.9612 93.7734C75.1754 93.7734 72.1064 96.638 72.1064 100.172C72.1064 103.705 75.1754 106.57 78.9612 106.57Z" fill="url(#paint5_linear_1409_8136)"/>
<path d="M78.9614 106.057C82.4459 106.057 85.2705 103.421 85.2705 100.169C85.2705 96.9174 82.4459 94.2812 78.9614 94.2812C75.477 94.2812 72.6523 96.9174 72.6523 100.169C72.6523 103.421 75.477 106.057 78.9614 106.057Z" fill="url(#paint6_linear_1409_8136)"/>
<path style="mix-blend-mode:multiply" d="M78.9612 103.78C81.0967 103.78 82.8278 102.164 82.8278 100.171C82.8278 98.1782 81.0967 96.5625 78.9612 96.5625C76.8258 96.5625 75.0947 98.1782 75.0947 100.171C75.0947 102.164 76.8258 103.78 78.9612 103.78Z" fill="url(#paint7_linear_1409_8136)"/>
<g style="mix-blend-mode:multiply" opacity="0.6">
<path d="M71.0777 107.552C71.5293 105.504 73.0117 102.637 76.3204 99.9747C80.4121 96.6837 86.6107 97.5527 87.0275 97.7387C84.5934 96.5056 80.4099 95.232 75.7185 97.468C69.2114 100.572 70.6368 106.226 71.0777 107.552Z" fill="#D077B7"/>
</g>
<path d="M85.5699 97.0984C85.5699 97.0984 81.0295 92.7325 75.0274 94.5675C67.5237 96.8605 70.7171 105.965 70.7171 105.965C70.7171 105.965 70.9358 93.6002 85.5699 97.0984Z" fill="#DC4C6A"/>
<path d="M87.4521 101.562C87.0504 101.973 78.6905 106.75 72.6535 108.187C72.4897 108.226 76.3227 109.197 80.237 107.332C85.6008 104.781 87.4521 101.562 87.4521 101.562Z" fill="#DC6B7C"/>
<path d="M87.0342 97.7422C87.0342 97.7422 89.8792 98.3348 90.1549 98.9118C90.4306 99.4888 88.3449 100.532 88.3449 100.532C88.3449 100.532 88.8748 99.2879 88.5963 99.003C88.3178 98.7181 87.0342 97.7422 87.0342 97.7422Z" fill="#E08A97"/>
<path d="M70.9496 107.127C70.9496 107.127 69.4437 104.664 69.3583 103.643C69.2728 102.623 71.154 98.8572 75.1039 96.5529C79.0538 94.2485 83.8549 96.0834 86.6579 97.5558C86.6579 97.5558 79.2846 95.0798 74.7577 98.8651C70.2309 102.65 70.9496 107.127 70.9496 107.127Z" fill="#4E1B3D"/>
<path d="M75.0946 103.032C75.3931 103.052 73.4734 105.787 73.1087 105.645C72.744 105.502 74.43 102.988 75.0946 103.032Z" fill="white"/>
<path d="M76.5544 101.089C76.7559 101.008 77.1883 101.418 76.959 101.527C76.7296 101.637 76.3578 101.908 76.211 101.75C76.0643 101.591 76.2844 101.197 76.5544 101.089Z" fill="white"/>
<path d="M108.282 78.6205C106.579 79.1759 105.016 80.0941 103.702 81.3116C103.118 81.8537 102.545 82.6052 102.757 83.3738C103.033 84.3775 104.368 84.5791 105.402 84.4502C109.555 83.9323 113.181 81.3601 117.263 80.439C121.181 79.555 125.262 80.2403 129.219 80.927L123.828 77.1103C123.417 76.819 123.001 76.5255 122.533 76.3417C121.911 76.0981 121.228 76.0604 120.56 76.0454C116.226 75.9485 112.714 76.9714 108.66 78.5079L108.282 78.6205Z" fill="black"/>
<path d="M87.6494 87.0466C88.4422 87.1263 89.3518 87.3814 89.6439 88.1215C90.0285 89.0888 89.0847 90.0547 88.1822 90.5754C84.5571 92.6661 80.1129 92.8 76.3005 94.5267C72.642 96.1836 69.7991 99.1903 67.0566 102.124C67.7215 100.025 68.388 97.9267 69.0561 95.8282C69.2086 95.3488 75.1943 88.9186 82.0006 87.7988C82.0034 87.7988 85.8735 86.8663 87.6494 87.0466Z" fill="black"/>
<path d="M97.7908 119.587C97.7908 119.587 95.3175 120.221 95.5384 118.496C95.7592 116.771 98.9996 116.518 101.129 118.058L99.0494 118.372C99.0494 118.372 99.095 119.197 97.7908 119.587Z" fill="black"/>
<path d="M113.933 114.314C113.933 114.314 116.322 113.412 115.149 112.126C113.977 110.84 111.18 112.497 110.323 114.981L112.205 114.043C112.205 114.043 112.639 114.746 113.933 114.314Z" fill="black"/>
<g style="mix-blend-mode:multiply" opacity="0.6">
<path d="M97.9948 120.852C96.0131 121.181 94.342 119.879 93.7921 117.948C93.73 117.765 93.7086 117.571 93.7294 117.378C93.8227 116.803 94.4774 116.524 95.0444 116.388C96.7276 115.982 98.4726 115.899 100.187 116.144C101.85 116.383 103.518 116.927 105.173 116.653C106.963 116.354 108.45 115.139 109.761 113.88C111.072 112.621 112.332 111.245 113.976 110.476C114.846 110.068 115.884 109.853 116.76 110.249C117.635 110.646 118.168 111.836 117.62 112.625C117.25 113.159 116.545 113.351 115.955 113.555C115.756 113.627 115.538 113.625 115.34 113.55C114.59 113.255 115.644 112.426 114.979 112.135C114.901 112.102 114.817 112.083 114.732 112.08C113.935 112.044 113.346 112.269 112.68 112.65C111.392 113.389 111.088 114.964 110.379 116.269C109.971 117.019 109.803 117.472 109.411 118.23C109.178 118.681 108.902 119.525 108.362 119.956C107.822 120.388 107.161 120.512 106.483 120.628C105.776 120.748 104.711 120.855 104.216 120.699C103.387 120.439 102.863 119.649 102.253 119.029C101.224 117.984 99.8794 117.306 98.4272 117.1C97.9705 117.031 97.5051 117.046 97.0539 117.145C96.9225 117.176 96.8034 117.246 96.7115 117.345C96.6196 117.444 96.559 117.568 96.5374 117.701C96.5158 117.835 96.5341 117.972 96.5899 118.095C96.6458 118.218 96.7369 118.321 96.8515 118.393C97.3602 118.714 97.8154 119.112 98.2007 119.574C98.5191 119.955 98.6951 120.68 98.2199 120.824L97.9948 120.852Z" fill="#D177B8"/>
</g>
<g opacity="0.4">
<path d="M149.855 111.515C149.758 103.686 147.849 94.639 144.187 87.7188C145.031 96.8273 144.567 107.243 143.71 116.354C143.56 117.952 143.376 119.586 142.667 121.026C141.959 122.465 140.613 123.695 139.013 123.822C138.551 123.859 138.063 123.797 137.678 123.537C137.086 123.139 136.871 122.389 136.569 121.742C134.864 118.09 128.192 117.8 124.17 117.524C120.181 117.249 113.431 117.025 111.771 118.299C109.25 120.232 107.362 120.9 101.917 120.9C100.367 120.9 99.5132 123.104 98.3236 124.624C96.8448 126.514 94.2939 127.144 92.3336 128.528C88.3581 131.336 86.9683 138.196 90.0164 141.991C82.5184 139.17 75.1558 135.534 70.1296 129.297C66.5217 124.819 66.3464 118.643 61.499 115.549C64.5506 119.935 63.8134 125.955 66.0472 130.809C67.0716 133.034 68.3445 134.951 69.7563 136.953C70.4409 137.924 71.1981 138.929 71.9646 139.923C72.7218 140.519 72.3677 140.23 73.4562 141.199C74.7277 142.329 76.3126 144.672 77.2023 146.123C77.8277 147.143 79.8101 149.719 80.764 150.444C83.2913 152.362 91.5009 155.145 94.16 155.806C111.033 160.002 121.1 155.764 135.787 146.457C142.427 142.25 148.382 135.258 149.786 127.581C149.953 126.065 150.045 124.542 150.059 123.017C149.873 120.053 149.088 116.877 149.917 114.197C149.887 113.266 149.866 112.368 149.855 111.515ZM130.142 139.625C123.492 140.898 124.05 140.226 117.638 142.404C112.79 144.05 105.837 150.951 101.364 148.465C100.81 148.157 95.4992 144.89 95.1473 144.363C94.7534 143.773 94.6608 143.04 94.5774 142.335C94.3937 140.757 94.2101 139.179 94.0268 137.602C93.9762 137.165 93.9257 136.717 94.0339 136.291C94.2434 135.467 95.0789 135.013 95.6602 134.393C100.646 129.072 104.613 124.124 104.613 124.124C104.613 124.124 109.271 124.312 111.465 121.764C116.836 122.761 121.971 122.606 127.684 123.196C128.88 123.319 129.799 124.24 130.705 125.031C131.5 125.726 131.987 126.7 132.453 127.648C133.211 129.186 134.448 130.568 134.726 132.264C135.241 135.375 131.371 139.39 130.142 139.625Z" fill="black"/>
</g>
<g opacity="0.4">
<path d="M143.637 80.0991C143.627 79.5086 143.478 78.7963 143.28 78.074C142.886 77.7178 142.7 77.0852 142.452 76.0417C141.621 72.5513 138.669 67.4375 136.723 64.1679C134.646 60.6775 130.094 53.0356 123.52 50.0524C120.12 48.5095 117.873 46.5263 114.272 45.5412C108.805 44.0453 105.743 42.3407 100.168 41.3157C93.7201 40.1296 85.3025 40.8826 79.3545 43.6407C68.2657 48.783 60.5683 59.089 55.2999 70.1194C53.7791 73.3042 52.3601 76.5546 51.4241 79.9581C48.6461 90.0596 51.1677 100.601 55.5621 110.112C55.1123 110.138 54.6698 110.237 54.2521 110.406C55.1033 111.383 56.029 112.293 57.0209 113.128C57.6392 113.653 61.495 115.544 61.495 115.544C59.8439 111.762 58.2896 107.866 56.6883 103.874C55.1924 100.142 53.0354 100.719 52.2049 85.1916C52.0553 82.3985 53.7549 80.5799 55.1112 78.1338C57.1541 74.4489 55.6924 70.3288 63.2025 64.1657C67.1253 60.9467 72.6558 60.8983 77.5965 59.7393C81.4538 58.8347 85.0973 57.2063 88.7138 55.5872C92.5925 53.8505 96.4782 52.111 100.179 50.0246C102.307 48.8257 104.504 47.7622 106.878 47.1881C112.82 45.7535 123.17 54.2743 126.225 56.1179C128.448 57.4599 130.748 58.8731 132.168 61.0479C133.218 62.6556 133.703 64.5568 134.172 66.4195C134.831 69.0438 135.491 71.668 136.151 74.2922C136.721 76.561 137.325 78.8995 138.742 80.7616C140.553 83.1422 143.674 84.7691 144.186 87.7168C143.784 83.5311 143.655 81.236 143.637 80.0991Z" fill="black"/>
</g>
<path d="M143.549 78.2991C142.104 74.9511 141.564 72.9715 139.988 69.6799C139.394 68.4369 137.637 65.5548 136.943 64.3659C135.838 62.4775 134.611 61.0685 133.464 59.2051C131.203 55.5337 129.766 51.4079 127.555 47.706C125.133 43.6457 121.556 39.8212 119.483 35.5558C118.443 32.8055 116.143 31.7427 115.093 28.8763C114.939 28.4567 114.767 28.015 114.412 27.7444C113.927 27.3761 113.253 27.4338 112.649 27.5086C104.921 28.4638 97.0999 29.4418 89.8441 32.2669C85.9612 33.7778 82.2934 35.8001 78.3934 37.2739C71.7025 39.8034 64.4204 40.6874 57.976 43.7917C52.6905 46.3376 48.0311 50.3451 42.3232 51.7021C43.2699 54.1176 43.3447 58.8325 43.3347 60.691C43.3303 61.364 43.3933 62.0358 43.5228 62.6962C43.9231 64.7142 44.6198 66.6909 44.8413 68.7339C45.1654 71.7257 45.726 74.6313 46.328 77.4293C46.8686 79.9481 47.8502 82.1371 48.4087 84.6523C49.1006 87.7661 49.792 90.8802 50.483 93.9945L51.5344 98.7286C51.9162 100.449 52.298 102.17 52.7674 103.869C53.4797 106.438 54.3929 108.967 55.73 111.273C55.9366 110.598 55.408 109.949 55.0141 109.364C53.5374 107.169 53.7063 104.281 52.8479 101.78C52.4589 100.666 52.1712 99.5181 51.9881 98.3518C51.6576 96.1714 51.0621 94.2524 50.8178 92.2108C50.468 89.2767 49.7906 86.2693 49.0462 83.4093C48.6366 81.8343 48.4051 80.0029 47.9948 78.4273C47.3772 76.0552 47.0367 74.5807 46.6663 72.0063C46.2247 68.9433 46.2788 65.7906 45.481 62.8137C45.3183 62.2143 45.2228 61.5986 45.1961 60.9781C45.1704 60.3505 45.1469 59.584 45.1597 59.126C45.174 58.5782 45.2495 57.9272 45.7353 57.6736C46.4911 57.2789 47.2091 58.2114 47.7206 58.8945C48.9522 60.5393 51.0849 61.3221 53.1392 61.3527C55.1936 61.3834 57.1995 60.7537 59.1228 60.0307C63.0064 58.5711 67.3972 56.952 70.8869 54.7089C72.9463 53.3846 74.3773 51.5255 75.1381 49.199C75.678 47.5478 75.4693 45.7527 75.7144 44.0332C75.9594 42.3136 76.921 40.4502 78.6264 40.1197C79.7369 39.906 82.1602 40.6183 83.0927 41.2594C84.6042 42.2987 85.3899 43.2254 86.9122 44.2512C87.9094 44.9236 89.2928 45.8674 90.4738 46.1189C92.7533 46.6061 94.0063 46.0127 96.2886 45.5298C101.419 44.443 106.481 43.06 111.451 41.3876C111.95 41.2195 112.472 41.0314 112.81 40.629C113.147 40.2265 113.243 39.6538 113.319 39.121L114.291 32.279L116.525 34.067C116.606 34.1318 118.171 35.5629 118.014 35.5999L118.04 35.5942C118.382 36.6627 118.744 37.7398 119.382 38.6608C119.8 39.2627 120.324 39.782 120.781 40.3533C121.378 41.0984 121.859 41.929 122.337 42.756L128.036 52.6125C128.849 54.0193 129.666 55.4319 130.671 56.7098C131.933 58.3154 133.743 60.2066 134.839 61.929C138.998 68.4632 141.749 73.2864 143.921 79.9296C143.999 79.3704 143.773 78.8176 143.549 78.2991Z" fill="black"/>
<defs>
<linearGradient id="paint0_linear_1409_8136" x1="117.279" y1="91.842" x2="117.279" y2="81.7946" gradientUnits="userSpaceOnUse">
<stop stop-color="#EDE1FF"/>
<stop offset="1" stop-color="#BCC8FA"/>
</linearGradient>
<linearGradient id="paint1_linear_1409_8136" x1="122.462" y1="86.2692" x2="108.77" y2="86.2238" gradientUnits="userSpaceOnUse">
<stop stop-color="#72791A"/>
<stop offset="1" stop-color="#594A0B"/>
</linearGradient>
<linearGradient id="paint2_linear_1409_8136" x1="115.602" y1="90.171" x2="115.631" y2="81.6338" gradientUnits="userSpaceOnUse">
<stop stop-color="#A58C18"/>
<stop offset="1" stop-color="#402F40"/>
</linearGradient>
<linearGradient id="paint3_linear_1409_8136" x1="115.609" y1="88.6498" x2="115.626" y2="83.4171" gradientUnits="userSpaceOnUse">
<stop stop-color="#72791A"/>
<stop offset="1" stop-color="#594A0B"/>
</linearGradient>
<linearGradient id="paint4_linear_1409_8136" x1="83.9332" y1="107.771" x2="76.6087" y2="99.207" gradientUnits="userSpaceOnUse">
<stop stop-color="#EDE1FF"/>
<stop offset="1" stop-color="#BCC8FA"/>
</linearGradient>
<linearGradient id="paint5_linear_1409_8136" x1="74.1271" y1="104.74" x2="84.2567" y2="96.0767" gradientUnits="userSpaceOnUse">
<stop stop-color="#72791A"/>
<stop offset="1" stop-color="#594A0B"/>
</linearGradient>
<linearGradient id="paint6_linear_1409_8136" x1="82.002" y1="103.691" x2="75.8916" y2="96.5466" gradientUnits="userSpaceOnUse">
<stop stop-color="#A58C18"/>
<stop offset="1" stop-color="#402F40"/>
</linearGradient>
<linearGradient id="paint7_linear_1409_8136" x1="80.9142" y1="102.421" x2="77.1693" y2="98.0426" gradientUnits="userSpaceOnUse">
<stop stop-color="#72791A"/>
<stop offset="1" stop-color="#594A0B"/>
</linearGradient>
</defs>
</svg>
