<svg width="83" height="83" viewBox="0 0 83 83" fill="none" xmlns="http://www.w3.org/2000/svg">
<rect width="83" height="83" fill="white"/>
<path d="M66 17H16V67H66V17Z" fill="#F7DF1E"/>
<path d="M49.5873 56.0605C50.5944 57.705 51.9047 58.9137 54.2222 58.9137C56.169 58.9137 57.4127 57.9407 57.4127 56.5962C57.4127 54.9851 56.1349 54.4145 53.992 53.4772L52.8174 52.9732C49.4269 51.5288 47.1746 49.7192 47.1746 45.8938C47.1746 42.37 49.8595 39.6875 54.0555 39.6875C57.0428 39.6875 59.1904 40.7272 60.7381 43.4494L57.0793 45.7986C56.2738 44.3542 55.4047 43.7851 54.0555 43.7851C52.6793 43.7851 51.8071 44.6581 51.8071 45.7986C51.8071 47.2081 52.6801 47.7788 54.696 48.6518L55.8706 49.155C59.8627 50.8669 62.1166 52.6121 62.1166 56.5359C62.1166 60.7661 58.7936 63.0835 54.3309 63.0835C49.9674 63.0835 47.1484 61.0042 45.769 58.2788L49.5873 56.0605ZM32.9896 56.4677C33.7277 57.7772 34.3992 58.8843 36.0135 58.8843C37.5571 58.8843 38.5309 58.2804 38.5309 55.9319V39.9558H43.2293V55.9954C43.2293 60.8605 40.3769 63.0748 36.2135 63.0748C32.4515 63.0748 30.273 61.128 29.165 58.7831L32.9896 56.4677Z" fill="black"/>
</svg>
