<svg width="80" height="80" viewBox="0 0 80 80" fill="none" xmlns="http://www.w3.org/2000/svg">
<path d="M21.9437 25.1797H46.9222C47.4652 25.1797 47.9859 25.369 48.3698 25.7059C48.7537 26.0428 48.9694 26.4998 48.9694 26.9762V59.9689H19.8965V26.9762C19.8965 26.4998 20.1122 26.0428 20.4961 25.7059C20.88 25.369 21.4007 25.1797 21.9437 25.1797Z" fill="white" stroke="#00007E" stroke-width="3" stroke-linecap="round" stroke-linejoin="round"/>
<path d="M19.8965 59.2109H48.9694V63.2032C48.9694 63.6797 48.7537 64.1367 48.3698 64.4736C47.9859 64.8105 47.4652 64.9998 46.9222 64.9998H21.9437C21.4007 64.9998 20.88 64.8105 20.4961 64.4736C20.1122 64.1367 19.8965 63.6797 19.8965 63.2032V59.2109Z" fill="#2892FF" stroke="#00007E" stroke-width="3" stroke-linecap="round" stroke-linejoin="round"/>
<path d="M56.1385 31.2013C56.1385 29.8228 56.9377 28.624 58.1065 27.9947C58.5044 27.7854 58.8145 27.441 58.9811 27.0235C59.1478 26.606 59.16 26.1427 59.0155 25.717C58.7698 25.0215 58.4761 24.3439 58.1364 23.6891C57.9214 23.2866 57.5757 22.9693 57.1563 22.7895C56.7368 22.6097 56.2686 22.5782 55.8288 22.7002C55.18 22.8855 54.494 22.8981 53.8387 22.7369C53.1834 22.5758 52.5816 22.2463 52.0927 21.7811C51.6164 21.3265 51.2748 20.7493 51.1056 20.113C50.9364 19.4767 50.9461 18.806 51.1337 18.1749C51.2586 17.7431 51.2244 17.2808 51.0374 16.872C50.8505 16.4633 50.5231 16.1351 50.1148 15.9472C49.4347 15.6189 48.734 15.3352 48.017 15.0981C47.1179 14.8084 46.1089 15.178 45.6494 15.9771C45.31 16.5552 44.8254 17.0345 44.2437 17.3675C43.6619 17.7006 43.0032 17.8758 42.3328 17.8758C41.6625 17.8758 41.0038 17.7006 40.4221 17.3675C39.8403 17.0345 39.3557 16.5552 39.0163 15.9771C38.5568 15.178 37.5478 14.8084 36.6488 15.0981C35.9311 15.3335 35.2303 15.6171 34.5509 15.9472C34.1426 16.1351 33.8153 16.4633 33.6283 16.872C33.4413 17.2808 33.4071 17.7431 33.532 18.1749C33.7173 18.807 33.7248 19.4779 33.5539 20.1141C33.383 20.7502 33.0401 21.327 32.563 21.7811C32.0762 22.2463 31.4761 22.5759 30.8224 22.7371C30.1687 22.8984 29.4841 22.8856 28.8369 22.7002C27.9278 22.4504 26.9389 22.87 26.5293 23.6891C26.1896 24.3439 25.8959 25.0215 25.6502 25.717C25.5036 26.1426 25.5148 26.6067 25.6816 27.0247C25.8485 27.4427 26.1599 27.787 26.5592 27.9947C27.728 28.624 28.5272 29.8228 28.5272 31.2013C28.5272 32.5799 27.728 33.7787 26.5592 34.408C26.1599 34.6157 25.8485 34.9599 25.6816 35.378C25.5148 35.796 25.5036 36.26 25.6502 36.6856C25.8959 37.3811 26.1896 38.0587 26.5293 38.7135C26.9389 39.5327 27.9278 39.9522 28.8369 39.7025C29.485 39.5183 30.1701 39.5072 30.8238 39.6702C31.4776 39.8332 32.0772 40.1646 32.563 40.6315C33.0411 41.085 33.3846 41.6618 33.5556 42.2981C33.7266 42.9345 33.7184 43.6058 33.532 44.2378C33.4093 44.6696 33.4444 45.1311 33.6312 45.5393C33.8179 45.9476 34.144 46.2759 34.5509 46.4655C35.2323 46.788 35.9329 47.0682 36.6488 47.3046C37.0845 47.4493 37.5566 47.441 37.9871 47.2812C38.4175 47.1214 38.7806 46.8195 39.0163 46.4255C39.3577 45.8499 39.843 45.3731 40.4245 45.0419C41.006 44.7107 41.6636 44.5365 42.3328 44.5365C43.0021 44.5365 43.6598 44.7107 44.2413 45.0419C44.8228 45.3731 45.308 45.8499 45.6494 46.4255C45.8852 46.8195 46.2482 47.1214 46.6787 47.2812C47.1091 47.441 47.5812 47.4493 48.017 47.3046C48.7322 47.0665 49.4327 46.7863 50.1148 46.4655C50.5218 46.2759 50.8479 45.9476 51.0346 45.5393C51.2213 45.1311 51.2564 44.6696 51.1337 44.2378C50.9461 43.6067 50.9364 42.936 51.1056 42.2997C51.2748 41.6634 51.6164 41.0861 52.0927 40.6315C52.5811 40.1655 53.1825 39.8347 53.8376 39.6718C54.4928 39.5089 55.179 39.5195 55.8288 39.7025C56.2686 39.8244 56.7368 39.7929 57.1563 39.6131C57.5757 39.4334 57.9214 39.1161 58.1364 38.7135C58.4761 38.0587 58.7698 37.3811 59.0155 36.6856C59.16 36.2599 59.1478 35.7966 58.9811 35.3791C58.8145 34.9616 58.5044 34.6173 58.1065 34.408C56.9377 33.7787 56.1385 32.5899 56.1385 31.2013Z" fill="#66C3CD" stroke="#00007E" stroke-width="3" stroke-linecap="round" stroke-linejoin="round"/>
<path d="M43.1223 27.4141V33.268C43.1236 33.7209 43.0354 34.1697 42.8626 34.5884C42.6899 35.0072 42.4361 35.3876 42.1158 35.7079C41.7955 36.0282 41.4151 36.282 40.9963 36.4547C40.5776 36.6275 40.1289 36.7157 39.6759 36.7144C38.7619 36.7144 37.8852 36.3513 37.2389 35.705C36.5926 35.0586 36.2295 34.182 36.2295 33.268V27.4141" stroke="#00007E" stroke-width="3" stroke-linecap="round" stroke-linejoin="round"/>
<path d="M47.7471 27.4141V36.7144" stroke="#00007E" stroke-width="3" stroke-linecap="round" stroke-linejoin="round"/>
</svg>
