<svg width="260" height="260" viewBox="0 0 260 260" fill="none" xmlns="http://www.w3.org/2000/svg">
<g filter="url(#filter0_d_380_4102)">
<rect x="40" y="36" width="180" height="180" fill="white"/>
<g clip-path="url(#clip0_380_4102)">
<path d="M174.688 116.28C174.688 110.289 167.185 104.611 155.681 101.09C158.336 89.3656 157.157 80.0382 151.957 77.0509C150.759 76.3503 149.359 76.0186 147.828 76.0186V80.1303C148.676 80.1303 149.359 80.2948 149.93 80.6094C152.437 82.0474 153.525 87.5225 152.676 94.5644C152.474 96.2974 152.142 98.1224 151.736 99.9847C148.123 99.0999 144.178 98.4173 140.03 97.9749C137.542 94.5644 134.961 91.4675 132.361 88.7577C138.371 83.1718 144.012 80.1117 147.847 80.1117V76C142.777 76 136.14 79.6133 129.43 85.8811C122.716 79.6501 116.083 76.074 111.012 76.074V80.1857C114.828 80.1857 120.487 83.2272 126.497 88.7763C123.751 91.6647 121.207 94.7381 118.883 97.9749C114.716 98.4173 110.772 99.0993 107.159 100.003C106.734 98.1602 106.421 96.3719 106.2 94.6571C105.334 87.6152 106.403 82.1401 108.892 80.6835C109.444 80.3518 110.164 80.2043 111.012 80.2043V76.0926C109.463 76.0926 108.062 76.4249 106.845 77.1255C101.664 80.1111 100.504 89.4205 103.176 101.109C91.7104 104.648 84.2441 110.308 84.2441 116.28C84.2441 122.272 91.7471 127.95 103.25 131.471C100.596 143.196 101.776 152.522 106.975 155.51C108.173 156.21 109.574 156.542 111.122 156.542C116.192 156.542 122.829 152.929 129.539 146.661C136.249 152.892 142.886 156.469 147.955 156.469C149.503 156.469 150.905 156.14 152.122 155.436C157.301 152.45 158.463 143.14 155.79 131.453C167.22 127.931 174.685 122.253 174.685 116.28H174.688ZM150.684 103.985C150.001 106.363 149.154 108.814 148.195 111.266C147.439 109.791 146.646 108.317 145.783 106.841C144.934 105.367 144.028 103.929 143.128 102.528C145.745 102.915 148.271 103.395 150.686 103.985H150.684ZM142.241 123.617C140.803 126.106 139.329 128.466 137.8 130.66C135.053 130.899 132.27 131.028 129.467 131.028C126.684 131.028 123.9 130.899 121.172 130.678C119.642 128.485 118.154 126.15 116.71 123.673C115.31 121.261 114.038 118.806 112.876 116.336C114.019 113.866 115.31 111.395 116.692 108.98C118.13 106.492 119.605 104.132 121.133 101.938C123.88 101.698 126.663 101.569 129.466 101.569C132.25 101.569 135.034 101.698 137.762 101.919C139.291 104.112 140.779 106.447 142.223 108.925C143.624 111.337 144.896 113.792 146.057 116.262C144.895 118.732 143.623 121.203 142.24 123.617H142.241ZM148.196 121.221C149.164 123.623 150.012 126.069 150.74 128.558C148.325 129.148 145.781 129.646 143.145 130.033C144.048 128.613 144.954 127.157 145.8 125.663C146.647 124.189 147.44 122.696 148.196 121.223V121.221ZM129.501 140.891C127.693 139.014 125.983 137.045 124.377 134.993C126.036 135.066 127.732 135.122 129.446 135.122C131.179 135.122 132.894 135.085 134.571 134.993C132.989 137.049 131.296 139.018 129.501 140.891ZM115.786 130.033C113.168 129.646 110.643 129.166 108.228 128.576C108.91 126.198 109.758 123.746 110.717 121.295C111.473 122.769 112.265 124.244 113.129 125.719C113.992 127.193 114.883 128.634 115.786 130.033ZM129.409 91.6698C131.218 93.5468 132.929 95.5159 134.534 97.5692C132.875 97.4952 131.179 97.4398 129.465 97.4398C127.732 97.4398 126.018 97.4766 124.34 97.5692C125.922 95.5129 127.615 93.5435 129.409 91.6698ZM115.767 102.528C114.865 103.947 113.958 105.404 113.113 106.897C112.265 108.372 111.473 109.847 110.717 111.321C109.749 108.918 108.901 106.473 108.173 103.985C110.588 103.415 113.132 102.915 115.767 102.528ZM99.084 125.608C92.5601 122.824 88.3388 119.174 88.3388 116.279C88.3388 113.385 92.5601 109.717 99.084 106.952C100.669 106.27 102.402 105.662 104.191 105.088C105.242 108.701 106.624 112.462 108.338 116.315C106.643 120.149 105.278 123.892 104.246 127.487C102.421 126.915 100.688 126.288 99.084 125.606V125.608ZM109.002 151.951C106.495 150.513 105.407 145.038 106.256 137.996C106.458 136.263 106.79 134.438 107.195 132.576C110.809 133.461 114.754 134.143 118.902 134.586C121.39 137.996 123.971 141.093 126.571 143.803C120.561 149.389 114.919 152.449 111.085 152.449C110.256 152.431 109.556 152.265 109.002 151.952V151.951ZM152.73 137.904C153.596 144.946 152.527 150.421 150.038 151.878C149.485 152.207 148.767 152.357 147.918 152.357C144.102 152.357 138.442 149.315 132.433 143.766C135.178 140.878 137.722 137.804 140.047 134.567C144.213 134.125 148.16 133.443 151.771 132.539C152.195 134.403 152.527 136.189 152.73 137.904V137.904ZM159.827 125.608C158.241 126.29 156.509 126.899 154.72 127.472C153.67 123.859 152.287 120.098 150.573 116.245C152.269 112.411 153.633 108.669 154.665 105.074C156.49 105.645 158.223 106.272 159.846 106.954C166.369 109.738 170.591 113.388 170.591 116.282C170.572 119.176 166.351 122.845 159.825 125.61L159.827 125.608Z" fill="#61DAFB"/>
<path d="M129.446 124.706C131.112 124.706 132.741 124.212 134.127 123.286C135.512 122.36 136.592 121.045 137.23 119.505C137.868 117.966 138.035 116.272 137.71 114.637C137.385 113.003 136.582 111.502 135.404 110.323C134.226 109.145 132.725 108.343 131.09 108.017C129.456 107.692 127.762 107.859 126.222 108.497C124.683 109.134 123.367 110.214 122.441 111.6C121.516 112.985 121.021 114.614 121.021 116.281C121.021 117.387 121.239 118.482 121.663 119.505C122.086 120.527 122.706 121.456 123.489 122.238C124.271 123.02 125.2 123.641 126.222 124.064C127.244 124.488 128.34 124.706 129.446 124.706ZM88.3507 171.048H85.5696V175.836H84V163.994H87.9198C89.2531 163.994 90.2777 164.298 90.9937 164.906C91.7096 165.513 92.0702 166.397 92.0753 167.558C92.0753 168.295 91.8743 168.938 91.4723 169.485C91.0702 170.033 90.5173 170.442 89.8133 170.713L92.5945 175.738V175.836H90.9191L88.3507 171.048ZM85.5696 169.772H87.9686C88.7438 169.772 89.359 169.571 89.8144 169.169C90.2698 168.767 90.5003 168.23 90.5057 167.558C90.5057 166.827 90.2865 166.266 89.8479 165.875C89.4141 165.485 88.7852 165.287 87.9614 165.281H85.5696V169.772ZM97.6853 176.001C96.4923 176.001 95.5218 175.61 94.7736 174.83C94.0251 174.043 93.6511 172.994 93.6514 171.683V171.409C93.6514 170.536 93.8159 169.758 94.1448 169.075C94.4738 168.392 94.9399 167.855 95.5434 167.465C96.1219 167.081 96.801 166.878 97.495 166.879C98.6393 166.879 99.5284 167.256 100.162 168.01C100.796 168.763 101.113 169.841 101.114 171.244V171.87H95.1569C95.1788 172.738 95.431 173.44 95.9134 173.977C96.4013 174.508 97.0193 174.773 97.7675 174.774C98.2989 174.774 98.7486 174.665 99.1167 174.448C99.4917 174.226 99.8204 173.933 100.085 173.586L101.006 174.301C100.269 175.434 99.1631 176.001 97.6891 176.001H97.6853ZM97.4978 168.113C97.21 168.107 96.9244 168.164 96.6605 168.279C96.3967 168.394 96.1607 168.565 95.9688 168.779C95.5572 169.218 95.3025 169.836 95.2046 170.633H99.6123V170.518C99.5688 169.754 99.3628 169.163 98.9944 168.745C98.626 168.328 98.1271 168.117 97.4978 168.113ZM108.298 175.836C108.211 175.662 108.141 175.353 108.087 174.909C107.387 175.637 106.552 176.001 105.582 176.001C104.715 176.001 104.002 175.757 103.444 175.269C102.891 174.775 102.615 174.152 102.614 173.398C102.614 172.482 102.962 171.772 103.656 171.268C104.355 170.756 105.336 170.5 106.599 170.5H108.063V169.809C108.063 169.284 107.906 168.867 107.592 168.557C107.277 168.243 106.813 168.085 106.201 168.086C105.664 168.086 105.214 168.221 104.851 168.492C104.488 168.763 104.306 169.092 104.306 169.479H102.792C102.792 169.04 102.947 168.617 103.256 168.21C103.565 167.802 103.988 167.477 104.525 167.234C105.081 166.992 105.682 166.87 106.289 166.876C107.303 166.876 108.097 167.132 108.672 167.644C109.247 168.148 109.545 168.844 109.566 169.733V173.783C109.566 174.591 109.669 175.233 109.876 175.71V175.836H108.298ZM105.802 174.69C106.274 174.69 106.737 174.563 107.143 174.324C107.566 174.079 107.872 173.762 108.062 173.372V171.567H106.883C105.04 171.567 104.118 172.106 104.118 173.185C104.118 173.657 104.275 174.025 104.59 174.291C104.904 174.557 105.308 174.69 105.802 174.69ZM115.454 174.771C115.965 174.779 116.464 174.607 116.86 174.283C117.262 173.957 117.485 173.551 117.527 173.063H118.952C118.919 173.583 118.739 174.082 118.432 174.502C118.101 174.967 117.659 175.342 117.147 175.592C116.624 175.861 116.044 176.001 115.455 175.999C114.257 175.999 113.303 175.6 112.593 174.803C111.889 173.999 111.536 172.904 111.536 171.518V171.266C111.536 170.41 111.693 169.648 112.008 168.981C112.322 168.314 112.772 167.796 113.357 167.428C113.948 167.059 114.645 166.874 115.447 166.875C116.434 166.875 117.253 167.17 117.903 167.761C118.554 168.352 118.903 169.12 118.952 170.064H117.527C117.484 169.494 117.267 169.028 116.877 168.665C116.487 168.302 116.009 168.118 115.445 168.112C114.681 168.112 114.088 168.389 113.665 168.942C113.247 169.49 113.039 170.284 113.038 171.324V171.609C113.038 172.623 113.247 173.403 113.665 173.95C114.083 174.497 114.679 174.771 115.454 174.772V174.771ZM122.683 164.907V167.038H124.328V168.2H122.683V173.657C122.683 174.009 122.756 174.274 122.902 174.453C123.049 174.633 123.298 174.719 123.651 174.714C123.891 174.705 124.13 174.672 124.363 174.616V175.836C123.987 175.942 123.599 175.998 123.208 176.001C122.537 176.001 122.03 175.797 121.688 175.39C121.346 174.984 121.175 174.406 121.176 173.659V168.202H119.574V167.039H121.181V164.909L122.683 164.907ZM139.556 175.836H137.987L132.026 166.713V175.836H130.457V163.994H132.026L138.002 173.159V163.998H139.555L139.556 175.836ZM147.525 175.836C147.439 175.662 147.368 175.353 147.314 174.909C146.615 175.637 145.78 176.001 144.809 176.001C143.942 176.001 143.229 175.757 142.671 175.269C142.119 174.775 141.842 174.152 141.842 173.398C141.842 172.482 142.189 171.772 142.883 171.268C143.583 170.756 144.564 170.5 145.827 170.5H147.291V169.809C147.291 169.284 147.133 168.867 146.819 168.557C146.504 168.243 146.041 168.085 145.428 168.086C144.892 168.086 144.442 168.221 144.079 168.492C143.715 168.763 143.534 169.092 143.534 169.479H142.021C142.021 169.04 142.176 168.617 142.485 168.21C142.794 167.802 143.217 167.477 143.753 167.234C144.31 166.992 144.911 166.87 145.518 166.876C146.531 166.876 147.326 167.132 147.9 167.644C148.475 168.148 148.773 168.844 148.795 169.733V173.783C148.795 174.591 148.898 175.233 149.104 175.71V175.836H147.525ZM145.029 174.691C145.5 174.691 145.964 174.565 146.37 174.325C146.793 174.081 147.099 173.764 147.289 173.374V171.569H146.11C144.267 171.569 143.345 172.108 143.345 173.186C143.345 173.658 143.502 174.027 143.816 174.293C144.131 174.559 144.535 174.691 145.029 174.691ZM153.193 164.909V167.039H154.837V168.202H153.193V173.659C153.193 174.01 153.266 174.276 153.412 174.455C153.558 174.634 153.808 174.721 154.16 174.715C154.401 174.707 154.641 174.674 154.876 174.618V175.836C154.5 175.942 154.111 175.998 153.721 176.001C153.049 176.001 152.542 175.797 152.2 175.39C151.858 174.984 151.688 174.406 151.688 173.659V168.202H150.086V167.039H151.688V164.909H153.193ZM158.236 175.838H156.732V167.039H158.236V175.838ZM156.608 164.707C156.602 164.481 156.68 164.261 156.827 164.089C156.979 163.922 157.201 163.838 157.494 163.838C157.787 163.838 158.009 163.922 158.161 164.089C158.313 164.258 158.395 164.48 158.389 164.707C158.396 164.933 158.314 165.152 158.161 165.317C158.009 165.48 157.787 165.562 157.494 165.561C157.201 165.561 156.979 165.48 156.827 165.317C156.679 165.149 156.601 164.931 156.608 164.707ZM163.553 173.797L165.732 167.039H167.267L164.114 175.836H162.967L159.78 167.038H161.315L163.553 173.797ZM172.254 176.001C171.061 176.001 170.091 175.61 169.343 174.83C168.594 174.043 168.22 172.994 168.221 171.683V171.409C168.221 170.536 168.385 169.758 168.714 169.075C169.043 168.392 169.509 167.855 170.112 167.465C170.691 167.081 171.37 166.878 172.064 166.879C173.208 166.879 174.097 167.256 174.731 168.01C175.366 168.763 175.683 169.841 175.683 171.244V171.87H169.725C169.747 172.738 169.999 173.44 170.481 173.977C170.969 174.508 171.587 174.773 172.335 174.774C172.866 174.774 173.316 174.665 173.685 174.448C174.06 174.226 174.388 173.933 174.653 173.586L175.572 174.302C174.834 175.435 173.728 176.002 172.254 176.002V176.001ZM172.066 168.113C171.779 168.107 171.493 168.164 171.229 168.279C170.966 168.394 170.73 168.565 170.538 168.779C170.126 169.218 169.871 169.836 169.774 170.633H174.181V170.518C174.137 169.754 173.931 169.163 173.563 168.745C173.195 168.328 172.696 168.116 172.066 168.112V168.113Z" fill="#61DAFB"/>
</g>
<rect x="40.5" y="36.5" width="179" height="179" stroke="#D9D9D9"/>
</g>
<defs>
<filter id="filter0_d_380_4102" x="0" y="0" width="260" height="260" filterUnits="userSpaceOnUse" color-interpolation-filters="sRGB">
<feFlood flood-opacity="0" result="BackgroundImageFix"/>
<feColorMatrix in="SourceAlpha" type="matrix" values="0 0 0 0 0 0 0 0 0 0 0 0 0 0 0 0 0 0 127 0" result="hardAlpha"/>
<feOffset dy="4"/>
<feGaussianBlur stdDeviation="20"/>
<feComposite in2="hardAlpha" operator="out"/>
<feColorMatrix type="matrix" values="0 0 0 0 0.0367917 0 0 0 0 0.0348958 0 0 0 0 0.0484375 0 0 0 0.1 0"/>
<feBlend mode="normal" in2="BackgroundImageFix" result="effect1_dropShadow_380_4102"/>
<feBlend mode="normal" in="SourceGraphic" in2="effect1_dropShadow_380_4102" result="shape"/>
</filter>
<clipPath id="clip0_380_4102">
<rect width="91.6851" height="100" fill="white" transform="translate(84 76)"/>
</clipPath>
</defs>
</svg>
