<svg width="80" height="80" viewBox="0 0 80 80" fill="none" xmlns="http://www.w3.org/2000/svg">
<path d="M43.3622 56.3918C44.4231 56.4673 45.475 56.1533 46.3209 55.5086C47.1668 54.864 47.7485 53.933 47.9571 52.8901C48.1657 51.8473 47.9867 50.7642 47.4539 49.8438C46.921 48.9234 46.0707 48.229 45.0625 47.8906C43.38 49.2043 41.484 50.2185 39.4574 50.8887C39.3831 51.1605 39.3357 51.4389 39.3157 51.7199C39.2336 52.8759 39.6136 54.0172 40.3723 54.8931C41.131 55.7691 42.2064 56.3081 43.3622 56.3918Z" fill="white"/>
<path d="M48.3836 44.5547C47.6399 45.5155 46.804 46.4013 45.888 47.1995C46.9881 47.7042 47.8826 48.5697 48.4234 49.6524C48.9642 50.7352 49.1187 51.9703 48.8614 53.1529C48.6041 54.3355 47.9504 55.3948 47.0087 56.155C46.0669 56.9152 44.8937 57.3308 43.6834 57.3329C43.553 57.3329 43.4245 57.3329 43.2942 57.3178C41.8924 57.2147 40.5885 56.5605 39.668 55.4983C38.7474 54.4361 38.2852 53.0525 38.3824 51.6503C38.3937 51.4954 38.4126 51.3424 38.4372 51.1913C37.2592 51.5055 36.0532 51.7029 34.8365 51.7807C34.8277 52.1977 34.8466 52.6149 34.8932 53.0294C34.9038 53.1127 34.8919 53.1973 34.8587 53.2744C34.8255 53.3515 34.7721 53.4183 34.7042 53.4677L32.4883 55.013C32.8632 56.449 33.5174 57.7971 34.4133 58.9802L36.9996 58.1962C37.0806 58.1719 37.1666 58.1698 37.2486 58.19C37.3307 58.2103 37.4059 58.2522 37.4662 58.3115C38.2423 59.0805 39.1545 59.6986 40.1563 60.1345C40.2341 60.1677 40.3014 60.2215 40.351 60.29C40.4006 60.3586 40.4306 60.4393 40.4378 60.5236L40.6683 63.2176C42.0991 63.6119 43.5936 63.7198 45.0662 63.5349L45.6821 60.9015C45.7008 60.819 45.7417 60.7433 45.8003 60.6824C45.8589 60.6215 45.933 60.5777 46.0146 60.5558C47.0688 60.2689 48.0604 59.7884 48.939 59.1389C49.0066 59.0879 49.0869 59.0564 49.1711 59.0478C49.2553 59.0391 49.3403 59.0536 49.4169 59.0898L51.8728 60.2365C52.9288 59.1941 53.7691 57.9539 54.3457 56.5867L52.3753 54.7391C52.3133 54.6816 52.268 54.6084 52.2444 54.5272C52.2208 54.446 52.2197 54.3599 52.2412 54.2781C52.3819 53.7506 52.4729 53.2111 52.5132 52.6667C52.5521 52.122 52.5395 51.5749 52.4754 51.0326C52.465 50.9493 52.477 50.8648 52.5102 50.7877C52.5434 50.7106 52.5966 50.6439 52.6644 50.5943L54.8784 49.049C54.5035 47.613 53.8494 46.2649 52.9534 45.0818L50.3672 45.8658C50.2862 45.8905 50.2001 45.8928 50.1179 45.8725C50.0358 45.8523 49.9607 45.8101 49.9006 45.7505C49.44 45.2978 48.9313 44.8968 48.3836 44.5547Z" fill="#66C3CD"/>
<path d="M65.7616 32.5226C65.7451 32.4306 65.7015 32.3456 65.6366 32.2784C65.5717 32.2111 65.4883 32.1646 65.397 32.1448L63.4228 31.7178C63.1933 31.0126 62.8569 30.3468 62.4254 29.7437L63.2509 27.8999C63.29 27.8141 63.3021 27.7185 63.2855 27.6257C63.269 27.5329 63.2247 27.4474 63.1584 27.3804C62.1801 26.3676 60.9871 25.5871 59.6672 25.0964C59.5792 25.0625 59.483 25.0561 59.3912 25.0781C59.2995 25.1 59.2166 25.1492 59.1534 25.2192L57.7951 26.7173C57.0697 26.5669 56.3261 26.5255 55.5886 26.5945L54.4041 24.9547C54.3503 24.8764 54.2739 24.8163 54.1852 24.7826C54.0964 24.7488 53.9994 24.743 53.9072 24.7658C53.2264 24.938 52.5664 25.1838 51.9387 25.4988C51.5693 25.6858 51.2127 25.8972 50.8714 26.1316C49.5914 23.0067 47.4862 20.2885 44.7809 18.2675C42.0756 16.2465 38.8718 14.9988 35.5122 14.6578C32.1526 14.3167 28.7635 14.8952 25.7073 16.3314C22.651 17.7675 20.0425 20.0074 18.1608 22.8113C16.279 25.6153 15.1947 28.878 15.0239 32.2505C14.853 35.6231 15.602 38.9786 17.1907 41.9584C18.7794 44.9382 21.1481 47.4302 24.0435 49.1679C26.939 50.9056 30.2523 51.8237 33.6291 51.824H33.8955C33.8891 52.1701 33.9005 52.5162 33.9295 52.8611L31.6757 54.4329C31.5982 54.4869 31.5387 54.563 31.505 54.6513C31.4713 54.7396 31.465 54.8359 31.4868 54.9279C31.9047 56.7151 32.716 58.3867 33.8615 59.8208C33.9201 59.8945 33.9995 59.949 34.0894 59.9773C34.1793 60.0056 34.2756 60.0063 34.3659 59.9794L36.9994 59.1803C37.7439 59.8754 38.593 60.4491 39.5157 60.8806L39.7499 63.6236C39.7581 63.7176 39.7945 63.8069 39.8541 63.88C39.9137 63.9531 39.9939 64.0066 40.0843 64.0336C40.9604 64.2965 41.8624 64.4637 42.7745 64.5323C43.0597 64.553 43.3412 64.5625 43.6378 64.5625C44.2644 64.5621 44.8901 64.5161 45.51 64.4246C45.6033 64.4105 45.6902 64.3687 45.7596 64.3048C45.8289 64.2408 45.8775 64.1575 45.8991 64.0657L46.5244 61.385C47.4996 61.0908 48.4221 60.6445 49.258 60.0626L51.7498 61.23C51.8354 61.2698 51.9309 61.2832 52.0242 61.2684C52.1174 61.2536 52.204 61.2113 52.2731 61.1469C53.6118 59.8911 54.6534 58.3525 55.3222 56.6432C55.3574 56.5557 55.3652 56.4595 55.3446 56.3675C55.324 56.2754 55.276 56.1917 55.2069 56.1275L53.2007 54.2383C53.3179 53.7414 53.3963 53.2361 53.4349 52.727C53.4704 52.2192 53.4653 51.7094 53.4198 51.2025L55.6754 49.6288C55.7528 49.5747 55.8122 49.4986 55.8459 49.4103C55.8795 49.3221 55.886 49.2258 55.8644 49.1339C55.4485 47.3459 54.6371 45.6739 53.4897 44.241C53.4311 44.1672 53.3517 44.1127 53.2618 44.0844C53.1719 44.0561 53.0756 44.0554 52.9853 44.0823L50.3518 44.8814C49.9159 44.4744 49.4435 44.1083 48.9407 43.7876C49.4313 43.0811 49.8731 42.342 50.2631 41.5754C50.5061 41.7719 50.758 41.9551 51.0187 42.1251C51.6077 42.5062 52.236 42.8229 52.8927 43.0697C52.981 43.1031 53.0773 43.109 53.169 43.0868C53.2606 43.0645 53.3434 43.0151 53.4066 42.945L54.7649 41.4488C55.4903 41.5985 56.234 41.6393 56.9714 41.5697L58.1559 43.2095C58.1996 43.2685 58.2566 43.3163 58.3222 43.3492C58.3879 43.382 58.4603 43.3989 58.5337 43.3984C58.5727 43.399 58.6115 43.3939 58.649 43.3833C60.0162 43.0395 61.2891 42.394 62.3743 41.4942C62.447 41.4344 62.5001 41.3542 62.5267 41.2639C62.5533 41.1737 62.5522 41.0775 62.5236 40.9879L61.9058 39.0609C62.3988 38.5085 62.807 37.8858 63.1168 37.2133L65.1268 37.0074C65.2204 36.9973 65.3088 36.9595 65.3807 36.8989C65.4527 36.8384 65.5051 36.7578 65.5311 36.6674C65.9187 35.313 65.9981 33.889 65.7635 32.4999L65.7616 32.5226ZM64.9398 34.5667C64.9095 35.0929 64.8311 35.6152 64.7056 36.1271L62.7465 36.3292C62.662 36.3375 62.5813 36.3686 62.5131 36.4192C62.4449 36.4698 62.3917 36.5379 62.3593 36.6164C62.048 37.3677 61.5996 38.0544 61.0369 38.6416C60.9784 38.7027 60.9376 38.7785 60.9187 38.861C60.8997 38.9435 60.9033 39.0295 60.9292 39.1101L61.5318 40.986C60.6938 41.6316 59.7414 42.113 58.7245 42.4047L57.5722 40.8084C57.5282 40.7497 57.4711 40.7021 57.4056 40.6693C57.34 40.6365 57.2676 40.6195 57.1943 40.6195C57.1742 40.6176 57.154 40.6176 57.1339 40.6195C56.3265 40.7246 55.5066 40.6792 54.7158 40.4854C54.6335 40.4652 54.5472 40.4675 54.4661 40.4921C54.385 40.5167 54.312 40.5626 54.2548 40.6252L52.9324 42.0836C52.4449 41.8825 51.9775 41.6358 51.5363 41.3468C51.2385 41.1524 50.9538 40.9385 50.6843 40.7064C51.3608 39.1775 51.8266 37.564 52.0691 35.9099C52.5281 36.7919 53.2669 37.4967 54.1697 37.9136C55.0724 38.3306 56.088 38.4361 57.0572 38.2136C58.0264 37.9911 58.8943 37.4532 59.5248 36.6843C60.1553 35.9154 60.5128 34.959 60.5411 33.965C60.5695 32.9711 60.2672 31.9958 59.6815 31.1922C59.0959 30.3886 58.26 29.8021 57.3051 29.5247C56.3502 29.2473 55.3303 29.2947 54.4052 29.6595C53.4802 30.0243 52.7023 30.6858 52.1938 31.5403C52.0591 30.0077 51.7336 28.4979 51.2247 27.046C51.5876 26.7816 51.971 26.5466 52.3713 26.3432C52.8426 26.1061 53.3346 25.9126 53.8411 25.7651L54.9935 27.3633C55.0435 27.4315 55.1109 27.485 55.1887 27.5183C55.2664 27.5515 55.3517 27.5632 55.4355 27.5523C56.2429 27.4462 57.063 27.4917 57.8536 27.6864C57.9361 27.7066 58.0225 27.7041 58.1037 27.6791C58.1848 27.6542 58.2577 27.6077 58.3146 27.5447L59.637 26.0863C60.1241 26.2882 60.5915 26.5348 61.0331 26.8231C61.4741 27.1127 61.8877 27.4422 62.2686 27.8073L61.4638 29.6039C61.4284 29.6806 61.4148 29.7656 61.4245 29.8496C61.4341 29.9335 61.4667 30.0132 61.5186 30.0799C61.766 30.4027 61.9835 30.7474 62.1685 31.1095C62.3514 31.4727 62.5 31.8522 62.6124 32.243C62.6357 32.3243 62.6807 32.3977 62.7426 32.4553C62.8045 32.5129 62.881 32.5525 62.9638 32.5698L64.8869 32.9873C64.9534 33.511 64.9711 34.0397 64.9398 34.5667ZM50.3594 45.8637L52.9456 45.0798C53.8416 46.2629 54.4957 47.611 54.8707 49.047L52.6566 50.5923C52.5889 50.6418 52.5357 50.7086 52.5025 50.7857C52.4692 50.8627 52.4572 50.9473 52.4677 51.0306C52.5317 51.5729 52.5444 52.12 52.5055 52.6647C52.4652 53.2091 52.3741 53.7486 52.2334 54.2761C52.2119 54.3579 52.213 54.444 52.2367 54.5252C52.2603 54.6063 52.3055 54.6796 52.3675 54.7371L54.338 56.5846C53.7614 57.9519 52.9211 59.1921 51.8651 60.2345L49.4092 59.0878C49.3326 59.0516 49.2476 59.0371 49.1633 59.0458C49.0791 59.0544 48.9988 59.0859 48.9312 59.1369C48.0527 59.7864 47.061 60.2668 46.0068 60.5537C45.9252 60.5757 45.8511 60.6195 45.7925 60.6804C45.7339 60.7413 45.6931 60.817 45.6743 60.8994L45.0585 63.5329C43.5859 63.7178 42.0913 63.6099 40.6605 63.2155L40.4301 60.5216C40.4228 60.4373 40.3928 60.3566 40.3433 60.288C40.2937 60.2195 40.2264 60.1657 40.1486 60.1325C39.1467 59.6966 38.2345 59.0784 37.4584 58.3094C37.3981 58.2502 37.323 58.2083 37.2409 58.188C37.1588 58.1678 37.0728 58.1699 36.9918 58.1942L34.4056 58.9782C33.5096 57.795 32.8555 56.447 32.4805 55.011L34.6965 53.4657C34.7644 53.4162 34.8177 53.3495 34.8509 53.2724C34.8842 53.1953 34.8961 53.1107 34.8854 53.0274C34.8389 52.6129 34.82 52.1957 34.8288 51.7787C36.0454 51.7009 37.2515 51.5035 38.4294 51.1892C38.4049 51.3404 38.386 51.4934 38.3747 51.6483C38.2775 53.0505 38.7397 54.4341 39.6602 55.4963C40.5808 56.5585 41.8847 57.2127 43.2865 57.3157C43.4168 57.3157 43.5452 57.3308 43.6756 57.3308C44.8859 57.3288 46.0592 56.9132 47.0009 56.153C47.9427 55.3927 48.5964 54.3335 48.8537 53.1509C49.111 51.9682 48.9564 50.7332 48.4156 49.6504C47.8748 48.5677 46.9803 47.7022 45.8803 47.1975C46.7963 46.3993 47.6321 45.5135 48.3758 44.5527C48.9217 44.8957 49.4284 45.2973 49.8871 45.7504C49.948 45.8107 50.0242 45.8531 50.1074 45.8731C50.1907 45.893 50.2778 45.8898 50.3594 45.8637ZM39.4591 50.8851C41.4857 50.2149 43.3817 49.2007 45.0641 47.887C45.8386 48.147 46.5246 48.619 47.0442 49.2494C47.5638 49.8798 47.8962 50.6432 48.0037 51.453C48.1112 52.2629 47.9894 53.0866 47.6521 53.8307C47.3149 54.5747 46.7757 55.2093 46.0959 55.6623C45.416 56.1153 44.6228 56.3685 43.8063 56.3933C42.9897 56.418 42.1826 56.2133 41.4766 55.8023C40.7706 55.3913 40.194 54.7905 39.8123 54.0683C39.4306 53.346 39.2592 52.5312 39.3174 51.7163C39.3376 51.4366 39.3851 51.1594 39.4591 50.8889V50.8851ZM33.6291 50.8851C30.13 50.8851 26.7095 49.8475 23.8001 47.9035C20.8907 45.9595 18.6231 43.1964 17.284 39.9636C15.945 36.7309 15.5946 33.1736 16.2772 29.7417C16.9599 26.3099 18.6449 23.1575 21.1191 20.6832C23.5934 18.209 26.7457 16.524 30.1776 15.8414C33.6095 15.1587 37.1668 15.5091 40.3995 16.8481C43.6323 18.1872 46.3954 20.4548 48.3394 23.3642C50.2834 26.2736 51.321 29.6942 51.321 33.1933C51.3155 37.8829 49.4502 42.3789 46.1343 45.6952C42.8184 49.0115 38.3226 50.8772 33.6329 50.8832L33.6291 50.8851ZM54.4362 30.6712C55.0618 30.3551 55.767 30.2316 56.4627 30.3163C57.1585 30.401 57.8135 30.6901 58.345 31.147C58.8765 31.6039 59.2605 32.2082 59.4486 32.8834C59.6367 33.5586 59.6204 34.2744 59.4017 34.9403C59.183 35.6062 58.7717 36.1923 58.2199 36.6244C57.6681 37.0566 57.0006 37.3155 56.3017 37.3683C55.6028 37.4211 54.9039 37.2656 54.2934 36.9212C53.6829 36.5769 53.1883 36.0592 52.872 35.4338C52.6596 35.0187 52.5315 34.5656 52.4952 34.1008C52.4589 33.6359 52.5152 33.1684 52.6606 32.7254C52.8061 32.2824 53.0378 31.8726 53.3426 31.5197C53.6474 31.1668 54.0191 30.8778 54.4362 30.6693V30.6712Z" fill="#091796"/>
<path d="M62.9562 32.5703C62.8734 32.553 62.797 32.5134 62.735 32.4558C62.6731 32.3982 62.6281 32.3248 62.6048 32.2435C62.4924 31.8527 62.3438 31.4732 62.1609 31.11C61.9759 30.7478 61.7584 30.4032 61.511 30.0804C61.4591 30.0137 61.4265 29.934 61.4169 29.8501C61.4072 29.7661 61.4208 29.6811 61.4562 29.6044L62.261 27.8078C61.8801 27.4427 61.4665 27.1132 61.0255 26.8235C60.5839 26.5353 60.1166 26.2886 59.6294 26.0868L58.307 27.5452C58.2501 27.6082 58.1772 27.6547 58.0961 27.6796C58.0149 27.7046 57.9285 27.7071 57.8461 27.6869C57.0554 27.4922 56.2353 27.4467 55.428 27.5527C55.3441 27.5637 55.2589 27.552 55.1811 27.5188C55.1033 27.4855 55.0359 27.432 54.9859 27.3638L53.8335 25.7656C53.327 25.9131 52.835 26.1066 52.3638 26.3437C51.9635 26.5471 51.58 26.7821 51.2171 27.0465C51.726 28.4984 52.0515 30.0081 52.1862 31.5407C52.6945 30.689 53.4709 30.03 54.3939 29.667C55.3169 29.304 56.3343 29.2574 57.2866 29.5347C58.2389 29.8119 59.0724 30.3972 59.6563 31.199C60.2402 32.0007 60.5416 32.9735 60.5133 33.9649C60.485 34.9564 60.1286 35.9104 59.4999 36.6775C58.8712 37.4446 58.0058 37.9815 57.0392 38.204C56.0727 38.4265 55.0597 38.322 54.1589 37.9069C53.258 37.4918 52.5204 36.7896 52.0615 35.9103C51.819 37.5645 51.3532 39.178 50.6768 40.7069C50.9463 40.939 51.2309 41.1529 51.5288 41.3473C51.9699 41.6363 52.4374 41.883 52.9249 42.0841L54.2473 40.6256C54.3045 40.5631 54.3774 40.5172 54.4586 40.4926C54.5397 40.468 54.6259 40.4656 54.7082 40.4858C55.499 40.6797 56.3189 40.7251 57.1263 40.62C57.1464 40.6181 57.1666 40.6181 57.1867 40.62C57.2601 40.62 57.3324 40.637 57.398 40.6698C57.4636 40.7026 57.5206 40.7502 57.5646 40.8089L58.717 42.4052C59.7338 42.1135 60.6862 41.6321 61.5242 40.9865L60.9216 39.1105C60.8957 39.03 60.8921 38.9439 60.9111 38.8615C60.93 38.779 60.9709 38.7032 61.0293 38.642C61.592 38.0549 62.0404 37.3682 62.3517 36.6169C62.3841 36.5384 62.4373 36.4702 62.5055 36.4197C62.5738 36.3691 62.6545 36.338 62.739 36.3297L64.698 36.1276C64.8235 35.6157 64.9019 35.0933 64.9322 34.5671C64.9609 34.0406 64.9407 33.5125 64.8718 32.9897L62.9562 32.5703Z" fill="#66C3CD"/>
<path d="M57.6337 36.9957C58.2591 36.6794 58.7768 36.1847 59.1211 35.5742C59.4654 34.9638 59.621 34.2649 59.5682 33.566C59.5154 32.8671 59.2565 32.1996 58.8243 31.6478C58.3921 31.096 57.806 30.6847 57.1401 30.466C56.4742 30.2473 55.7584 30.231 55.0832 30.419C54.408 30.6071 53.8038 30.9912 53.3468 31.5227C52.8899 32.0541 52.6009 32.7092 52.5162 33.4049C52.4315 34.1007 52.555 34.8059 52.8712 35.4315C53.2959 36.2699 54.036 36.9054 54.9289 37.1987C55.8218 37.492 56.7945 37.419 57.6337 36.9957Z" fill="white"/>
<path d="M51.3212 33.1919C51.3212 29.6927 50.2836 26.2722 48.3396 23.3628C46.3956 20.4534 43.6325 18.1858 40.3997 16.8467C37.167 15.5077 33.6097 15.1573 30.1778 15.84C26.746 16.5226 23.5936 18.2076 21.1193 20.6818C18.6451 23.1561 16.9601 26.3085 16.2774 29.7403C15.5948 33.1722 15.9452 36.7295 17.2842 39.9622C18.6233 43.195 20.8909 45.9581 23.8003 47.9021C26.7097 49.8461 30.1302 50.8837 33.6294 50.8837C38.32 50.8787 42.8171 49.0131 46.1339 45.6963C49.4506 42.3796 51.3162 37.8825 51.3212 33.1919ZM38.2615 45.9719H29.1936C28.7873 45.9728 28.3853 45.8893 28.0129 45.7267C27.6406 45.5641 27.3061 45.326 27.0306 45.0273C26.753 44.729 26.5394 44.3769 26.4029 43.9929C26.2665 43.6089 26.2101 43.201 26.2372 42.7944C26.3126 41.2686 26.5167 39.7519 26.8473 38.2604H22.1245C21.7852 38.2614 21.4494 38.1921 21.1382 38.0568C20.827 37.9216 20.5473 37.7233 20.3166 37.4745C20.0842 37.2253 19.9055 36.9311 19.7914 36.6101C19.6774 36.289 19.6304 35.948 19.6535 35.6081C19.8027 33.4015 20.105 30.94 21.2196 29.4306C21.5974 28.9092 22.2642 28.1441 23.0785 27.7303C22.4996 27.0616 22.1822 26.2061 22.1849 25.3217C22.1849 23.3286 23.7586 21.7058 25.6931 21.7058C27.6275 21.7058 29.2012 23.3286 29.2012 25.3217C29.204 26.1816 28.9037 27.015 28.353 27.6755C28.8208 27.9063 29.2446 28.217 29.6055 28.5937C29.8671 27.7441 30.3916 26.9995 31.1034 26.467C31.8151 25.9345 32.6776 25.6416 33.5664 25.6305C34.4553 25.6194 35.3247 25.8906 36.0496 26.4051C36.7745 26.9196 37.3175 27.6508 37.6003 28.4936C37.9087 28.1949 38.2571 27.9406 38.6356 27.7379C38.0562 27.0694 37.7381 26.2139 37.7401 25.3292C37.7401 23.3362 39.3138 21.7134 41.2483 21.7134C43.1828 21.7134 44.7564 23.3362 44.7564 25.3292C44.7592 26.1892 44.4589 27.0226 43.9082 27.6831C44.8282 28.1119 45.565 29.0055 45.9862 29.5855C47.0328 31.076 47.3181 33.479 47.4579 35.6307C47.4794 35.9697 47.4313 36.3095 47.3167 36.6291C47.202 36.9488 47.0231 37.2417 46.791 37.4897C46.5603 37.7379 46.2808 37.9356 45.97 38.0706C45.6592 38.2055 45.3239 38.2746 44.985 38.2736H40.623C40.9492 39.7656 41.1501 41.2822 41.2237 42.8076C41.2492 43.213 41.1917 43.6193 41.0546 44.0016C40.9175 44.384 40.7038 44.7343 40.4265 45.0311C40.1513 45.3296 39.8171 45.5677 39.4451 45.7303C39.073 45.8929 38.6713 45.9764 38.2653 45.9757L38.2615 45.9719Z" fill="white"/>
<path d="M37.8727 30.0077C37.8732 31.1017 37.4695 32.1573 36.7393 32.9718C37.92 33.4649 38.874 34.6059 39.403 35.3597C39.8131 35.9657 40.1314 36.6291 40.3475 37.3282H44.9816C45.1918 37.3296 45.4001 37.2872 45.593 37.2036C45.7859 37.12 45.9592 36.997 46.1019 36.8427C46.247 36.6889 46.3588 36.5069 46.4303 36.3079C46.5018 36.109 46.5315 35.8974 46.5175 35.6865C46.3928 33.7804 46.1397 31.4246 45.214 30.1192C44.532 29.1482 43.7612 28.5229 43.1019 28.3906C42.557 28.7428 41.9228 28.9322 41.2739 28.9365C40.6251 28.9409 39.9885 28.76 39.4389 28.4152C38.9401 28.5625 38.3809 28.9819 37.8463 29.6035C37.8652 29.7376 37.8727 29.8717 37.8727 30.0077Z" fill="#70ADFF"/>
<path d="M41.2568 27.9926C42.6737 27.9926 43.826 26.7911 43.826 25.3157C43.826 23.8402 42.6737 22.6406 41.2568 22.6406C39.84 22.6406 38.6895 23.8402 38.6895 25.3157C38.6895 26.7911 39.8418 27.9926 41.2568 27.9926Z" fill="white"/>
<path d="M22.1342 37.3263H27.1178C27.3515 36.5617 27.7054 35.8392 28.1662 35.1859C28.6574 34.5209 29.517 33.5291 30.5673 33.0304C29.8061 32.2081 29.3843 31.1282 29.3866 30.0077C29.3866 29.9227 29.3866 29.8396 29.3866 29.7565C28.7764 29.0008 28.119 28.5059 27.5466 28.3906C27.0013 28.7428 26.3668 28.9321 25.7177 28.9365C25.0686 28.9408 24.4316 28.76 23.8816 28.4152C23.2847 28.5909 22.6008 29.1538 21.9774 29.9964C21.0007 31.3188 20.7249 33.7293 20.5926 35.6808C20.5779 35.8914 20.6066 36.1028 20.6769 36.3018C20.7473 36.5008 20.8579 36.6833 21.0017 36.8378C21.1456 36.9923 21.3197 37.1155 21.5132 37.1999C21.7067 37.2842 21.9155 37.3279 22.1266 37.3282L22.1342 37.3263Z" fill="#70ADFF"/>
<path d="M25.6972 27.9926C27.114 27.9926 28.2664 26.7911 28.2664 25.3157C28.2664 23.8402 27.114 22.6406 25.6972 22.6406C24.2803 22.6406 23.1279 23.8402 23.1279 25.3157C23.1279 26.7911 24.2841 27.9926 25.6972 27.9926Z" fill="white"/>
<path d="M40.281 42.8709C40.126 40.4887 39.8011 37.5435 38.6431 35.8981C38.2067 35.2784 37.1148 33.8975 35.9057 33.6953C35.2375 34.1381 34.4547 34.3764 33.6531 34.3811C32.8515 34.3858 32.0659 34.1567 31.3925 33.7218C30.3119 34.0051 29.3277 35.1934 28.9216 35.745C27.6917 37.4113 27.3441 40.4245 27.1798 42.8633C27.1603 43.1405 27.1981 43.4187 27.2908 43.6806C27.3835 43.9425 27.5291 44.1825 27.7185 44.3858C27.9079 44.589 28.1371 44.7511 28.3918 44.862C28.6466 44.9728 28.9214 45.0301 29.1993 45.0302H38.2671C38.5444 45.0303 38.8187 44.9734 39.073 44.8631C39.3273 44.7528 39.5563 44.5914 39.7456 44.389C39.935 44.1865 40.0808 43.9472 40.1738 43.6861C40.2669 43.425 40.3053 43.1475 40.2866 42.8709H40.281Z" fill="#66C3CD"/>
<path d="M40.4216 45.0362C40.6988 44.7394 40.9126 44.3891 41.0496 44.0067C41.1867 43.6244 41.2443 43.218 41.2188 42.8127C41.1452 41.2873 40.9443 39.7707 40.618 38.2787H44.9877C45.3265 38.2797 45.6618 38.2106 45.9726 38.0756C46.2834 37.9407 46.563 37.7429 46.7936 37.4947C47.0257 37.2467 47.2046 36.9539 47.3193 36.6342C47.434 36.3145 47.482 35.9748 47.4605 35.6358C47.3207 33.4803 47.0355 31.0773 45.9889 29.5906C45.5733 29.0011 44.8365 28.117 43.9108 27.6882C44.4615 27.0277 44.7618 26.1942 44.759 25.3343C44.759 23.3413 43.1854 21.7185 41.2509 21.7185C39.3164 21.7185 37.7428 23.3413 37.7428 25.3343C37.7408 26.2189 38.0588 27.0745 38.6382 27.743C38.2598 27.9456 37.9114 28.2 37.603 28.4986C37.3201 27.6559 36.7772 26.9247 36.0523 26.4102C35.3274 25.8957 34.4579 25.6245 33.5691 25.6356C32.6802 25.6467 31.8178 25.9396 31.106 26.4721C30.3942 27.0046 29.8697 27.7492 29.6081 28.5988C29.2472 28.2221 28.8234 27.9114 28.3556 27.6806C28.9063 27.0201 29.2066 26.1867 29.2038 25.3268C29.2038 23.3337 27.6302 21.7109 25.6957 21.7109C23.7612 21.7109 22.1875 23.3337 22.1875 25.3268C22.1848 26.2112 22.5022 27.0667 23.0811 27.7354C22.2669 28.1586 21.6076 28.9237 21.2222 29.4357C20.1076 30.947 19.8053 33.4028 19.6561 35.6131C19.633 35.9531 19.68 36.2941 19.794 36.6152C19.9081 36.9362 20.0868 37.2304 20.3192 37.4796C20.5499 37.7284 20.8297 37.9267 21.1408 38.0619C21.452 38.1972 21.7878 38.2665 22.1271 38.2655H26.85C26.5193 39.757 26.3152 41.2737 26.2398 42.7995C26.2127 43.2061 26.2691 43.614 26.4055 43.998C26.542 44.382 26.7556 44.734 27.0332 45.0324C27.3087 45.3311 27.6432 45.5692 28.0156 45.7318C28.3879 45.8944 28.79 45.9779 29.1963 45.977H38.2642C38.6693 45.9777 39.0701 45.8945 39.4414 45.7326C39.8127 45.5707 40.1465 45.3335 40.4216 45.0362ZM38.2604 45.0362H29.1925C28.9147 45.0361 28.6398 44.9789 28.3851 44.868C28.1303 44.7571 27.9011 44.595 27.7117 44.3918C27.5223 44.1885 27.3767 43.9485 27.284 43.6866C27.1914 43.4247 27.1536 43.1465 27.173 42.8694C27.3374 40.4305 27.685 37.4173 28.9148 35.751C29.321 35.1994 30.3052 34.0112 31.3858 33.7278C32.0592 34.1627 32.8447 34.3918 33.6463 34.3871C34.4479 34.3824 35.2307 34.1441 35.899 33.7013C37.108 33.9035 38.1999 35.2844 38.6363 35.9041C39.7944 37.5495 40.1193 40.4947 40.2742 42.8769C40.2928 43.1535 40.2545 43.431 40.1614 43.6921C40.0683 43.9533 39.9226 44.1925 39.7332 44.395C39.5439 44.5974 39.3149 44.7588 39.0606 44.8691C38.8062 44.9795 38.5319 45.0363 38.2547 45.0362H38.2604ZM20.5988 35.6849C20.731 33.7334 21.0068 31.3248 21.9835 30.0005C22.607 29.1579 23.2908 28.595 23.8878 28.4193C24.4378 28.7641 25.0747 28.9449 25.7238 28.9406C26.373 28.9362 27.0074 28.7469 27.5527 28.3947C28.1195 28.51 28.7826 28.9974 29.3928 29.7606C29.3928 29.8437 29.3928 29.9268 29.3928 30.0118C29.3904 31.1323 29.8123 32.2122 30.5735 33.0345C29.5231 33.5332 28.6636 34.525 28.1724 35.19C27.7115 35.8433 27.3576 36.5658 27.1239 37.3304H22.1403C21.9292 37.3301 21.7204 37.2864 21.5269 37.2021C21.3334 37.1177 21.1593 36.9945 21.0154 36.84C20.8716 36.6855 20.761 36.503 20.6907 36.304C20.6203 36.105 20.5916 35.8936 20.6063 35.683L20.5988 35.6849ZM23.1321 25.3249C23.1321 23.8494 24.2845 22.6498 25.7014 22.6498C27.1182 22.6498 28.2706 23.8494 28.2706 25.3249C28.2706 26.8003 27.1182 28.0018 25.7014 28.0018C24.2845 28.0018 23.1321 26.7965 23.1321 25.3211V25.3249ZM33.6282 26.5755C35.4493 26.5755 36.9323 28.117 36.9323 30.0118C36.9323 31.9066 35.4493 33.4482 33.6282 33.4482C31.8071 33.4482 30.3241 31.9066 30.3241 30.0118C30.3241 28.117 31.8071 26.5717 33.632 26.5717L33.6282 26.5755ZM38.6892 25.3249C38.6892 23.8494 39.8416 22.6498 41.2566 22.6498C42.6716 22.6498 43.8258 23.8494 43.8258 25.3249C43.8258 26.8003 42.6735 28.0018 41.2566 28.0018C39.8397 28.0018 38.6892 26.7965 38.6892 25.3211V25.3249ZM39.4449 28.4193C39.9945 28.7641 40.6311 28.945 41.28 28.9407C41.9288 28.9363 42.563 28.7469 43.1079 28.3947C43.7672 28.527 44.538 29.1504 45.22 30.1233C46.1381 31.4287 46.3988 33.7845 46.5235 35.6906C46.5375 35.9015 46.5079 36.1131 46.4363 36.312C46.3648 36.511 46.253 36.693 46.1079 36.8468C45.9652 37.0012 45.7919 37.1241 45.599 37.2077C45.4061 37.2913 45.1979 37.3337 44.9877 37.3323H40.3536C40.1374 36.6331 39.8191 35.9698 39.409 35.3638C38.88 34.6081 37.926 33.4746 36.7453 32.9759C37.4756 32.1614 37.8792 31.1058 37.8788 30.0118C37.8788 29.8758 37.8788 29.7417 37.8599 29.6075C38.3869 28.9804 38.9462 28.5629 39.4449 28.4155V28.4193Z" fill="#091796"/>
<path d="M30.3252 30.0067C30.3252 31.8958 31.8082 33.443 33.6293 33.443C35.4504 33.443 36.9334 31.9015 36.9334 30.0067C36.9334 28.1119 35.4504 26.5703 33.6293 26.5703C31.8082 26.5703 30.3252 28.1062 30.3252 30.0067Z" fill="white"/>
</svg>
