<svg width="80" height="80" viewBox="0 0 80 80" fill="none" xmlns="http://www.w3.org/2000/svg">
<path d="M37.6905 62.3907L18.3662 62.3641L18.403 37.9273C18.403 37.2235 18.7126 36.5484 19.2637 36.0507C19.8147 35.553 20.5622 35.2734 21.3415 35.2734L57.8764 35.32C58.6564 35.3218 59.4038 35.6028 59.9546 36.1016C60.5055 36.6003 60.8149 37.276 60.8149 37.9805L60.778 62.424L47.5221 62.404" fill="#2892FF"/>
<path d="M37.6905 62.3907L18.3662 62.3641L18.403 37.9273C18.403 37.2235 18.7126 36.5484 19.2637 36.0507C19.8147 35.553 20.5622 35.2734 21.3415 35.2734L57.8764 35.32C58.6564 35.3218 59.4038 35.6028 59.9546 36.1016C60.5055 36.6003 60.8149 37.276 60.8149 37.9805L60.778 62.424L47.5221 62.404" stroke="#00007E" stroke-width="3" stroke-linecap="round" stroke-linejoin="round"/>
<path d="M47.5066 60.9595L62.5301 60.9994C63.2444 60.9994 63.8262 61.8242 63.8262 62.8285V63.1744C63.8262 64.1787 63.2444 65.0035 62.5301 65.0035L16.2961 64.9037C15.5818 64.9037 15 64.0789 15 63.0746V62.7287C15.0074 61.7244 15.5891 60.8996 16.3035 60.9063L37.6898 60.9395L47.5066 60.9595Z" fill="white" stroke="#00007E" stroke-width="3" stroke-linecap="round" stroke-linejoin="round"/>
<path d="M59.5306 15.046L30.0997 15C29.383 14.9985 28.6731 15.1773 28.0106 15.5263C27.348 15.8753 26.7457 16.3876 26.2381 17.0339C25.7305 17.6802 25.3275 18.448 25.0521 19.2933C24.7768 20.1385 24.6345 21.0448 24.6333 21.9604L24.6152 42.7841C24.6141 43.6996 24.7541 44.6065 25.0272 45.453C25.3004 46.2994 25.7014 47.0689 26.2073 47.7173C26.7133 48.3658 27.3142 48.8806 27.9759 49.2324C28.6376 49.5842 29.347 49.766 30.0637 49.7675H30.1718V55.2208C30.1725 55.4228 30.2157 55.6209 30.2969 55.7944C30.378 55.9678 30.4942 56.1102 30.6332 56.2066C30.7722 56.303 30.9289 56.35 31.087 56.3425C31.245 56.335 31.3986 56.2734 31.5317 56.1642L39.2136 49.779L59.5035 49.8135C60.9526 49.8135 62.3426 49.0797 63.369 47.7729C64.3953 46.4661 64.9743 44.6928 64.979 42.8416L64.997 22.0294C64.9982 21.1119 64.8577 20.2032 64.5834 19.3552C64.3091 18.5073 63.9064 17.7368 63.3986 17.088C62.8907 16.4393 62.2876 15.9249 61.6239 15.5745C60.9601 15.2241 60.2488 15.0445 59.5306 15.046Z" fill="white" stroke="#00007E" stroke-width="3" stroke-linecap="round" stroke-linejoin="round"/>
<path d="M55.9699 32.3106C55.9734 31.8 56.1162 31.3001 56.383 30.8644C56.6498 30.4286 57.0304 30.0736 57.4842 29.8372C57.793 29.677 58.0339 29.4115 58.1629 29.089C58.2919 28.7666 58.3006 28.4086 58.1872 28.0804C57.9972 27.5439 57.77 27.0213 57.5073 26.5162C57.1906 25.8844 56.4257 25.5608 55.7304 25.7534C55.2286 25.8971 54.6979 25.9073 54.191 25.7829C53.684 25.6585 53.2186 25.404 52.8409 25.0445C52.4711 24.6949 52.2059 24.2497 52.0749 23.7585C51.9439 23.2674 51.9524 22.7496 52.0992 22.2629C52.1936 21.9289 52.1653 21.5723 52.0194 21.2573C51.8735 20.9422 51.6196 20.6895 51.3035 20.5446C50.7781 20.2901 50.2361 20.0712 49.6811 19.8897C49.3451 19.78 48.9817 19.7874 48.6505 19.9106C48.3192 20.0338 48.0397 20.2655 47.8578 20.5677C47.5942 21.0135 47.2186 21.3829 46.7681 21.6396C46.3176 21.8963 45.8078 22.0313 45.2889 22.0313C44.7701 22.0313 44.2602 21.8963 43.8097 21.6396C43.3592 21.3829 42.9836 21.0135 42.7201 20.5677C42.3647 19.9513 41.5844 19.6662 40.8891 19.8897C40.3346 20.0726 39.7926 20.2914 39.2666 20.5446C38.9529 20.6921 38.7017 20.9455 38.5575 21.26C38.4132 21.5745 38.3853 21.9298 38.4786 22.2629C38.6237 22.7497 38.6312 23.267 38.5003 23.7578C38.3695 24.2486 38.1053 24.6939 37.7369 25.0445C37.3588 25.4033 36.8934 25.6574 36.3866 25.7818C35.8798 25.9061 35.3493 25.8963 34.8475 25.7534C34.5073 25.6593 34.1452 25.6836 33.8208 25.8223C33.4964 25.961 33.2291 26.2057 33.0628 26.5162C32.8033 27.0228 32.5762 27.5452 32.3829 28.0804C32.2718 28.4096 32.2824 28.7676 32.4127 29.0898C32.5431 29.412 32.7846 29.677 33.0937 29.8372C33.5474 30.0736 33.9281 30.4286 34.1948 30.8644C34.4616 31.3001 34.6044 31.8 34.6079 32.3106C34.6079 33.3816 33.9976 34.2985 33.0937 34.784C32.7857 34.9453 32.5451 35.2105 32.415 35.5322C32.2848 35.854 32.2734 36.2114 32.3829 36.5408C32.5762 37.0759 32.8033 37.5984 33.0628 38.1049C33.2291 38.4154 33.4964 38.6602 33.8208 38.7988C34.1452 38.9375 34.5073 38.9618 34.8475 38.8678C35.3499 38.7258 35.8809 38.7173 36.3877 38.843C36.8945 38.9686 37.3596 39.2242 37.7369 39.5843C38.1053 39.935 38.3695 40.3802 38.5003 40.871C38.6312 41.3618 38.6237 41.8791 38.4786 42.3659C38.2777 43.0363 38.6177 43.7683 39.2666 44.0842C39.7942 44.3317 40.3359 44.5478 40.8891 44.7315C41.2261 44.8431 41.5912 44.8367 41.9241 44.7134C42.257 44.5901 42.5378 44.3573 42.7201 44.0534C42.9851 43.6095 43.3612 43.242 43.8115 42.9867C44.2619 42.7315 44.771 42.5973 45.2889 42.5973C45.8069 42.5973 46.316 42.7315 46.7663 42.9867C47.2166 43.242 47.5927 43.6095 47.8578 44.0534C48.0387 44.3567 48.3181 44.5893 48.6497 44.7126C48.9813 44.8359 49.3452 44.8426 49.6811 44.7315C50.2347 44.5491 50.7765 44.333 51.3035 44.0842C51.9602 43.7683 52.3001 43.0363 52.0992 42.3659C51.9524 41.8793 51.9439 41.3615 52.0749 40.8703C52.2059 40.3792 52.4711 39.9339 52.8409 39.5843C53.2182 39.2242 53.6833 38.9686 54.1901 38.843C54.697 38.7173 55.2279 38.7258 55.7304 38.8678C56.4257 39.0604 57.1906 38.7368 57.5073 38.1049C57.77 37.5999 57.9972 37.0772 58.1872 36.5408C58.3006 36.2125 58.2919 35.8546 58.1629 35.5321C58.0339 35.2097 57.793 34.9442 57.4842 34.784C56.5802 34.2985 55.9699 33.3816 55.9699 32.3106Z" fill="#66C3CD" stroke="#00007E" stroke-width="3" stroke-linecap="round" stroke-linejoin="round"/>
<path d="M42.883 29.4297V33.0608C42.883 33.6277 42.6807 34.1715 42.3206 34.5724C41.9605 34.9733 41.4721 35.1985 40.9628 35.1985C40.7102 35.1993 40.4599 35.1446 40.2263 35.0376C39.9927 34.9305 39.7804 34.7732 39.6015 34.5746C39.4226 34.376 39.2807 34.14 39.1838 33.8803C39.087 33.6205 39.0371 33.342 39.0371 33.0608V29.4297" stroke="#00007E" stroke-width="3" stroke-linecap="round" stroke-linejoin="round"/>
<path d="M50.7582 35.1947L46.3408 29.2344" stroke="#00007E" stroke-width="3" stroke-linecap="round" stroke-linejoin="round"/>
<path d="M46.3408 35.1947L50.7582 29.2344" stroke="#00007E" stroke-width="3" stroke-linecap="round" stroke-linejoin="round"/>
</svg>
