<svg width="80" height="80" viewBox="0 0 80 80" fill="none" xmlns="http://www.w3.org/2000/svg">
<rect width="80" height="80" fill="white"/>
<path d="M37.6392 15.5334C38.879 14.8238 40.4938 14.8206 41.7325 15.5334C47.9643 19.0547 54.1981 22.5705 60.4288 26.0939C61.6007 26.754 62.3846 28.0583 62.3727 29.4086V50.5941C62.3814 52.0003 61.5201 53.3357 60.2837 53.9809C54.0723 57.4828 47.8642 60.9889 41.654 64.4908C40.3886 65.2143 38.7414 65.1586 37.5155 64.3758C35.6533 63.2963 33.788 62.2221 31.9257 61.1437C31.5451 60.9168 31.1161 60.7363 30.8474 60.3673C31.085 60.0471 31.5097 60.0072 31.8548 59.8674C32.6321 59.6202 33.346 59.2235 34.0601 58.8385C34.2407 58.7149 34.4611 58.7623 34.6342 58.8729C36.2266 59.7859 37.8049 60.7254 39.4026 61.6297C39.7434 61.8264 40.0885 61.5652 40.3799 61.4028C46.4751 57.9579 52.5778 54.526 58.6719 51.08C58.8977 50.9714 59.0225 50.7317 59.0042 50.4844C59.0085 43.4958 59.0053 36.5059 59.0063 29.5173C59.0321 29.2366 58.8697 28.9786 58.616 28.8637C52.4262 25.3779 46.2396 21.8867 40.0509 18.3999C39.9437 18.3262 39.8167 18.2867 39.6866 18.2865C39.5565 18.2863 39.4293 18.3255 39.3219 18.3989C33.1332 21.8867 26.9477 25.3811 20.759 28.8667C20.5061 28.9818 20.3364 29.2355 20.3665 29.5173C20.3676 36.5059 20.3665 43.4958 20.3665 50.4854C20.3558 50.6061 20.3823 50.7272 20.4425 50.8324C20.5026 50.9375 20.5936 51.0217 20.7031 51.0736C22.3546 52.0101 24.0082 52.9401 25.6607 53.8734C26.5917 54.3745 27.7348 54.6722 28.7605 54.2883C29.6657 53.9636 30.3002 53.04 30.2829 52.0789C30.2914 45.131 30.2786 38.1821 30.2893 31.2353C30.2667 30.9269 30.5593 30.6721 30.8592 30.7011C31.6527 30.6958 32.4472 30.6904 33.2408 30.7033C33.572 30.6958 33.7999 31.0279 33.759 31.3386C33.7558 38.3305 33.7675 45.3225 33.7536 52.3143C33.7558 54.1777 32.9902 56.2053 31.2666 57.117C29.1432 58.217 26.5187 57.9837 24.421 56.929C22.6049 56.0226 20.8719 54.9529 19.0881 53.9818C17.8485 53.3402 16.9914 51.9995 17.0002 50.5942V29.4086C16.9872 28.0303 17.8022 26.7024 19.0106 26.0519C25.2209 22.5472 31.4301 19.0398 37.6392 15.5334Z" fill="#8CC84B"/>
<path d="M43.0566 30.2097C45.7651 30.0353 48.6647 30.1064 51.1021 31.4407C52.9891 32.4632 54.0353 34.6092 54.0686 36.7057C54.0159 36.9885 53.7203 37.1445 53.4504 37.1251C52.6645 37.124 51.8785 37.1358 51.0926 37.1198C50.7593 37.1326 50.5655 36.8252 50.5237 36.5305C50.2979 35.5274 49.7508 34.5339 48.8067 34.0501C47.3573 33.3244 45.6768 33.3609 44.0964 33.3761C42.9426 33.4373 41.7019 33.5372 40.7245 34.2157C39.9741 34.7296 39.7461 35.7671 40.0139 36.6026C40.2665 37.2026 40.959 37.3961 41.5256 37.5746C44.7898 38.4283 48.2487 38.3433 51.4506 39.4668C52.7762 39.9248 54.0729 40.8152 54.5267 42.2031C55.1202 44.0633 54.86 46.2868 53.5366 47.7802C52.4633 49.0091 50.9001 49.6779 49.3411 50.0412C47.267 50.5037 45.1146 50.5154 43.0083 50.3101C41.0277 50.0843 38.9667 49.564 37.4377 48.2145C36.1303 47.0792 35.4917 45.3104 35.5551 43.6032C35.5702 43.3149 35.8573 43.1138 36.1335 43.1375C36.9248 43.1311 37.7162 43.129 38.5076 43.1386C38.8237 43.116 39.058 43.3891 39.0742 43.6871C39.2203 44.6428 39.5794 45.6459 40.4128 46.2125C42.0212 47.2502 44.0394 47.1791 45.881 47.2082C47.4068 47.1405 49.1195 47.12 50.3647 46.1116C51.0216 45.5364 51.2162 44.5741 51.0387 43.7462C50.8464 43.0472 50.1152 42.7215 49.4873 42.5085C46.265 41.4892 42.7674 41.8591 39.5762 40.7064C38.2807 40.2486 37.028 39.3829 36.5302 38.052C35.8357 36.1683 36.1539 33.8384 37.6161 32.3954C39.0418 30.9601 41.0999 30.4073 43.0566 30.2095V30.2097Z" fill="#8CC84B"/>
</svg>
