<svg width="80" height="80" viewBox="0 0 80 80" fill="none" xmlns="http://www.w3.org/2000/svg">
<path fill-rule="evenodd" clip-rule="evenodd" d="M46.8263 31.1157L48.4279 31.1432L52.7791 26.7914L52.9902 24.9475C49.4166 21.7572 44.7925 19.9958 40.002 20C30.9865 20 23.3772 26.1347 21.125 34.444C21.5999 34.1126 22.6155 34.361 22.6155 34.361L31.3105 32.9315C31.3105 32.9315 31.7573 32.1918 31.9838 32.2284C33.0006 31.1114 34.2395 30.2191 35.6212 29.6088C37.003 28.9984 38.4969 28.6835 40.0074 28.6841C42.5856 28.6896 44.9605 29.6002 46.8263 31.1072V31.1157Z" fill="#EA4335"/>
<path fill-rule="evenodd" clip-rule="evenodd" d="M58.8871 34.4504C57.8763 30.7242 55.7944 27.4332 52.9844 24.9375L46.8229 31.099C49.2917 33.0912 50.875 36.1393 50.875 39.5518V40.6394C53.873 40.6394 56.3083 43.0802 56.3083 46.0721C56.3083 49.0641 53.8676 51.5055 50.875 51.5055H40.0095L38.9219 52.5992V59.1196L40.0095 60.2012H50.875C58.6735 60.1902 64.9924 53.8718 65.004 46.0734C64.9985 41.265 62.5822 37.0109 58.8871 34.4517V34.4504Z" fill="#4285F4"/>
<path fill-rule="evenodd" clip-rule="evenodd" d="M29.1301 60.2201H39.9895V51.5171H29.1301C28.3586 51.5176 27.5961 51.3519 26.8944 51.0312L25.3264 51.5116L20.9746 55.8634L20.5938 57.3319C23.0458 59.203 26.0451 60.2157 29.1295 60.214V60.2201H29.1301Z" fill="#34A853"/>
<path fill-rule="evenodd" clip-rule="evenodd" d="M29.129 31.9531C21.3306 31.972 15.011 38.2904 15 46.0889C15 50.6775 17.1979 54.7571 20.5981 57.3413L26.8982 51.0413C25.9446 50.6113 25.1352 49.9154 24.5672 49.037C23.9992 48.1585 23.6966 47.1349 23.6957 46.0889C23.6957 43.0914 26.1365 40.6561 29.129 40.6561C31.3318 40.6561 33.2257 41.9843 34.082 43.8593L40.3821 37.5598C37.7985 34.1589 33.7177 31.9611 29.1296 31.9611L29.129 31.9531Z" fill="#FBBC05"/>
</svg>
