<svg width="80" height="80" viewBox="0 0 80 80" fill="none" xmlns="http://www.w3.org/2000/svg">
<rect width="80" height="80" fill="white"/>
<path d="M35.1156 24.5137L38.2613 25.2587V27.411L35.1156 28.0733C34.9313 29.0175 34.5659 29.917 34.0395 30.7223L35.7779 33.4541L34.2878 34.9441L31.556 33.2057C30.7406 33.7124 29.8448 34.0764 28.907 34.2819L28.162 37.4276H26.0097L25.2647 34.2819C24.3462 34.0976 23.4737 33.7317 22.6985 33.2057L19.9667 34.9441L18.4766 33.4541L20.215 30.7223C19.7227 29.8996 19.3597 29.0062 19.1388 28.0733L15.9932 27.3282V25.1759L19.3044 24.5137C19.4887 23.5952 19.8546 22.7227 20.3806 21.9475L18.6422 19.2157L20.1322 17.7256L22.864 19.464C23.6574 18.9723 24.5235 18.6091 25.4302 18.3879L26.1753 15.2422H28.3276L29.0726 18.3879C30.0104 18.5934 30.9062 18.9573 31.7216 19.464L34.4534 17.7256L35.1156 18.3879L35.9435 19.2157L34.205 21.9475C34.6428 22.7491 34.9502 23.6154 35.1156 24.5137ZM30.3143 26.2521C30.2927 25.4103 29.9431 24.6102 29.34 24.0226C28.7368 23.4349 27.9279 23.1061 27.0858 23.1064C26.2516 23.1064 25.4514 23.4378 24.8615 24.0278C24.2716 24.6177 23.9402 25.4178 23.9402 26.2521C23.9399 27.0942 24.2686 27.9031 24.8563 28.5062C25.444 29.1093 26.244 29.459 27.0858 29.4806C27.9355 29.4596 28.7445 29.1127 29.3455 28.5117C29.9465 27.9108 30.2933 27.1017 30.3143 26.2521Z" fill="#66C3CD"/>
<path d="M47.6154 58.869C48.1722 58.8686 48.7074 59.084 49.1088 59.4699C49.5101 59.8558 49.7463 60.3822 49.7677 60.9386C49.721 61.4956 49.4876 62.0206 49.1055 62.4286C48.914 62.6275 48.6815 62.7823 48.4242 62.8823C48.1669 62.9824 47.8909 63.0253 47.6154 63.0081H24.7678C24.2189 63.0081 23.6925 62.7901 23.3044 62.4019C22.9163 62.0138 22.6982 61.4874 22.6982 60.9386C22.7155 60.3903 22.92 59.8644 23.2777 59.4485C23.4724 59.254 23.7054 59.102 23.9619 59.0023C24.2184 58.9025 24.4928 58.8572 24.7678 58.869H47.6154Z" fill="#66C3CD"/>
<path d="M45.5465 58.8702H26.8379V37.4299H28.2452L28.9902 34.2842C29.9389 34.1152 30.8414 33.7485 31.6392 33.208L34.371 34.9464L35.861 33.4564L34.1226 30.7246C34.615 29.902 34.978 29.0085 35.1988 28.0756L38.3445 27.3305V25.1782L35.116 24.516C34.9317 23.5975 34.5658 22.725 34.0398 21.9498L35.7783 19.218L34.9504 18.3902C36.647 17.6526 38.4815 17.2857 40.3312 17.314H41.4074C43.1933 17.303 44.9636 17.6467 46.6157 18.3251C48.2678 19.0034 49.7688 20.003 51.0317 21.2659C52.2945 22.5287 53.2941 24.0297 53.9725 25.6818C54.6509 27.3339 54.9945 29.1042 54.9835 30.8901L57.0531 39.1683H51.8378V48.5226H45.5465V58.8702Z" fill="#2892FF"/>
<path d="M27.1692 30.4711C26.6186 30.4712 26.0735 30.3615 25.5659 30.1483C25.0582 29.9351 24.5982 29.6228 24.2128 29.2297C23.8273 28.8365 23.5242 28.3704 23.3211 27.8586C23.118 27.3469 23.0191 26.7997 23.0301 26.2493C23.0301 25.1515 23.4662 24.0987 24.2424 23.3225C25.0187 22.5463 26.0714 22.1102 27.1692 22.1102C27.7197 22.0992 28.2668 22.1981 28.7786 22.4012C29.2904 22.6043 29.7565 22.9074 30.1496 23.2928C30.5428 23.6783 30.8551 24.1383 31.0682 24.6459C31.2814 25.1536 31.3911 25.6987 31.391 26.2493C31.391 26.8037 31.2818 27.3527 31.0697 27.8649C30.8575 28.3771 30.5465 28.8425 30.1545 29.2346C29.7624 29.6266 29.297 29.9376 28.7848 30.1497C28.2726 30.3619 27.7236 30.4711 27.1692 30.4711ZM27.1692 24.1797C26.6203 24.1797 26.0939 24.3978 25.7058 24.7859C25.3177 25.174 25.0997 25.7004 25.0997 26.2493C25.0997 26.7981 25.3177 27.3245 25.7058 27.7126C26.0939 28.1008 26.6203 28.3188 27.1692 28.3188C27.7181 28.3188 28.2445 28.1008 28.6326 27.7126C29.0207 27.3245 29.2387 26.7981 29.2387 26.2493C29.2387 25.7004 29.0207 25.174 28.6326 24.7859C28.2445 24.3978 27.7181 24.1797 27.1692 24.1797Z" fill="#00007E"/>
<path d="M45.5471 59.8615L44.9676 59.696L30.4809 50.4245C30.2546 50.2584 30.0963 50.0157 30.0354 49.7417C29.9745 49.4676 30.0152 49.1808 30.1498 48.9344C30.3014 48.7144 30.5294 48.5586 30.7896 48.4974C31.0497 48.4362 31.3233 48.4739 31.5571 48.6033L46.0438 58.0404C46.2639 58.1919 46.4197 58.42 46.4809 58.6801C46.5421 58.9402 46.5043 59.2138 46.3749 59.4476C46.2809 59.5786 46.1564 59.6848 46.0122 59.7569C45.8679 59.829 45.7083 59.8649 45.5471 59.8615Z" fill="#00007E"/>
<path d="M40.4138 52.6588L39.8344 52.4932L26.2582 43.0561C26.1477 42.9816 26.0533 42.8855 25.9806 42.7737C25.908 42.6618 25.8586 42.5365 25.8354 42.4052C25.8123 42.2739 25.8157 42.1392 25.8457 42.0093C25.8757 41.8793 25.9315 41.7568 26.0099 41.6489C26.0845 41.5383 26.1805 41.4439 26.2924 41.3712C26.4042 41.2986 26.5295 41.2492 26.6608 41.2261C26.7922 41.2029 26.9268 41.2064 27.0567 41.2364C27.1867 41.2663 27.3093 41.3222 27.4172 41.4005L40.9933 50.8376C41.1039 50.9122 41.1983 51.0082 41.2709 51.1201C41.3436 51.2319 41.3929 51.3572 41.4161 51.4885C41.4393 51.6199 41.4358 51.7545 41.4058 51.8844C41.3758 52.0144 41.32 52.137 41.2417 52.2449C41.1476 52.3759 41.0231 52.482 40.8789 52.5541C40.7347 52.6262 40.5751 52.6622 40.4138 52.6588Z" fill="#00007E"/>
<path d="M47.6154 63.9956H24.7678C24.3547 63.9956 23.9456 63.9142 23.564 63.7561C23.1823 63.598 22.8355 63.3663 22.5434 63.0742C22.2513 62.7821 22.0196 62.4353 21.8615 62.0537C21.7035 61.672 21.6221 61.263 21.6221 60.8499C21.6336 60.0168 21.9588 59.2187 22.5327 58.6148C23.132 58.0337 23.933 57.7074 24.7678 57.7042H26.8373C27.1227 57.7042 27.3964 57.8176 27.5982 58.0194C27.8001 58.2212 27.9135 58.4949 27.9135 58.7804C27.9135 59.0658 27.8001 59.3395 27.5982 59.5413C27.3964 59.7431 27.1227 59.8565 26.8373 59.8565H24.7678C24.6272 59.8559 24.4882 59.885 24.3597 59.9421C24.2313 59.9992 24.1164 60.0829 24.0227 60.1877C23.8317 60.3916 23.715 60.6541 23.6916 60.9327C23.6916 61.2181 23.805 61.4918 24.0068 61.6936C24.2086 61.8955 24.4824 62.0088 24.7678 62.0088H47.6154C47.756 62.0095 47.895 61.9803 48.0235 61.9232C48.1519 61.8662 48.2667 61.7825 48.3604 61.6777C48.5643 61.4824 48.6832 61.2148 48.6916 60.9327C48.6916 60.6473 48.5782 60.3735 48.3764 60.1717C48.1745 59.9699 47.9008 59.8565 47.6154 59.8565H45.5459C45.2605 59.8565 44.9867 59.7431 44.7849 59.5413C44.5831 59.3395 44.4697 59.0658 44.4697 58.7804C44.4697 58.639 44.4976 58.4991 44.5516 58.3685C44.6057 58.238 44.685 58.1193 44.7849 58.0194C44.8848 57.9195 45.0035 57.8402 45.134 57.7861C45.2646 57.732 45.4046 57.7042 45.5459 57.7042H47.6154C48.0354 57.6932 48.4534 57.7664 48.8447 57.9195C49.2359 58.0726 49.5925 58.3026 49.8934 58.5958C50.1944 58.889 50.4335 59.2395 50.5968 59.6267C50.76 60.0138 50.844 60.4297 50.8439 60.8499C50.8323 61.683 50.5072 62.4811 49.9333 63.085C49.2955 63.6577 48.4725 63.9811 47.6154 63.9956Z" fill="#00007E"/>
<path d="M51.8378 40.1601H48.6093C48.3239 40.1601 48.0502 40.0467 47.8484 39.8449C47.6466 39.6431 47.5332 39.3694 47.5332 39.084C47.5332 38.7986 47.6466 38.5248 47.8484 38.323C48.0502 38.1212 48.3239 38.0078 48.6093 38.0078H51.8378C52.1232 38.0078 52.397 38.1212 52.5988 38.323C52.8006 38.5248 52.914 38.7986 52.914 39.084C52.914 39.3694 52.8006 39.6431 52.5988 39.8449C52.397 40.0467 52.1232 40.1601 51.8378 40.1601Z" fill="#00007E"/>
<path d="M45.5461 49.5163H43.4766C43.1838 49.4954 42.9098 49.3641 42.7101 49.149C42.5103 48.9339 42.3996 48.651 42.4004 48.3574C42.4004 48.2161 42.4282 48.0761 42.4823 47.9456C42.5364 47.815 42.6157 47.6964 42.7156 47.5965C42.8155 47.4965 42.9342 47.4172 43.0647 47.3632C43.1953 47.3091 43.3352 47.2812 43.4766 47.2812H45.5461C45.6874 47.2812 45.8273 47.3091 45.9579 47.3632C46.0885 47.4172 46.2071 47.4965 46.307 47.5965C46.407 47.6964 46.4862 47.815 46.5403 47.9456C46.5944 48.0761 46.6222 48.2161 46.6222 48.3574C46.623 48.651 46.5123 48.9339 46.3126 49.149C46.1128 49.3641 45.8389 49.4954 45.5461 49.5163Z" fill="#00007E"/>
<path d="M55.9767 60.9398C55.5636 60.9398 55.1546 60.8585 54.7729 60.7004C54.3913 60.5423 54.0445 60.3106 53.7524 60.0185C53.4603 59.7264 53.2286 59.3796 53.0705 58.9979C52.9124 58.6163 52.8311 58.2072 52.8311 57.7941C52.8311 57.381 52.9124 56.972 53.0705 56.5903C53.2286 56.2087 53.4603 55.8619 53.7524 55.5698C54.0445 55.2777 54.3913 55.046 54.7729 54.8879C55.1546 54.7298 55.5636 54.6484 55.9767 54.6484C56.811 54.6484 57.6111 54.9799 58.2011 55.5698C58.791 56.1597 59.1224 56.9598 59.1224 57.7941C59.1224 58.6284 58.791 59.4285 58.2011 60.0185C57.6111 60.6084 56.811 60.9398 55.9767 60.9398ZM55.9767 56.8008C55.6913 56.8008 55.4176 56.9141 55.2158 57.116C55.014 57.3178 54.9006 57.5915 54.9006 57.8769C54.9006 58.1623 55.014 58.4361 55.2158 58.6379C55.4176 58.8397 55.6913 58.9531 55.9767 58.9531C56.2621 58.9531 56.5359 58.8397 56.7377 58.6379C56.9395 58.4361 57.0529 58.1623 57.0529 57.8769C57.0529 57.5915 56.9395 57.3178 56.7377 57.116C56.5359 56.9141 56.2621 56.8008 55.9767 56.8008Z" fill="#00007E"/>
<path d="M19.0568 51.5824C18.7127 51.5826 18.3721 51.5136 18.0552 51.3795C17.7384 51.2454 17.4517 51.0489 17.2123 50.8018C16.9729 50.5546 16.7856 50.2619 16.6616 49.9409C16.5377 49.6199 16.4795 49.2773 16.4906 48.9334C16.4906 48.2528 16.761 47.6001 17.2422 47.1188C17.7235 46.6376 18.3762 46.3672 19.0568 46.3672C19.7374 46.3672 20.3901 46.6376 20.8714 47.1188C21.3527 47.6001 21.623 48.2528 21.623 48.9334C21.6341 49.2773 21.5759 49.6199 21.452 49.9409C21.328 50.2619 21.1407 50.5546 20.9013 50.8018C20.6619 51.0489 20.3752 51.2454 20.0584 51.3795C19.7415 51.5136 19.4009 51.5826 19.0568 51.5824ZM19.0568 48.4367C18.9251 48.4367 18.7987 48.489 18.7056 48.5822C18.6124 48.6753 18.5601 48.8017 18.5601 48.9334C18.5587 49.0738 18.6082 49.2099 18.6996 49.3165C18.791 49.423 18.9179 49.4928 19.0568 49.5129C19.1957 49.4928 19.3227 49.423 19.414 49.3165C19.5054 49.2099 19.5549 49.0738 19.5535 48.9334C19.5535 48.8017 19.5012 48.6753 19.408 48.5822C19.3149 48.489 19.1885 48.4367 19.0568 48.4367Z" fill="#00007E"/>
<path d="M45.5465 59.862H26.8379C26.6966 59.862 26.5566 59.8342 26.4261 59.7801C26.2955 59.726 26.1769 59.6468 26.0769 59.5469C25.977 59.4469 25.8977 59.3283 25.8436 59.1977C25.7896 59.0672 25.7617 58.9272 25.7617 58.7859V37.4283C25.7617 37.287 25.7896 37.1471 25.8436 37.0165C25.8977 36.8859 25.977 36.7673 26.0769 36.6674C26.1769 36.5674 26.2955 36.4882 26.4261 36.4341C26.5566 36.38 26.6966 36.3522 26.8379 36.3522C26.9792 36.3522 27.1192 36.38 27.2497 36.4341C27.3803 36.4882 27.4989 36.5674 27.5988 36.6674C27.6988 36.7673 27.7781 36.8859 27.8321 37.0165C27.8862 37.1471 27.914 37.287 27.914 37.4283V57.7925H44.5531V48.4382C44.5531 48.1528 44.6665 47.8791 44.8683 47.6773C45.0701 47.4755 45.3438 47.3621 45.6292 47.3621H50.9272V39.084C50.9272 38.7985 51.0406 38.5248 51.2424 38.323C51.4442 38.1212 51.718 38.0078 52.0034 38.0078H55.8113L54.0729 31.0542V30.8058C54.0839 29.1612 53.7681 27.5308 53.1438 26.0093C52.5195 24.4878 51.5992 23.1054 50.4363 21.9425C49.2734 20.7796 47.891 19.8592 46.3695 19.2349C44.8479 18.6107 43.2175 18.2948 41.5729 18.3058H40.4968C38.7912 18.2992 37.1018 18.637 35.5299 19.2992C35.4076 19.3668 35.2713 19.4053 35.1316 19.4118C34.992 19.4182 34.8527 19.3924 34.7246 19.3364C34.5966 19.2804 34.4831 19.1956 34.3931 19.0887C34.303 18.9817 34.2388 18.8555 34.2054 18.7198C34.1378 18.5974 34.0993 18.4611 34.0929 18.3215C34.0864 18.1818 34.1122 18.0425 34.1683 17.9145C34.2243 17.7864 34.309 17.673 34.416 17.5829C34.5229 17.4929 34.6492 17.4287 34.7849 17.3952C36.6111 16.5983 38.5873 16.203 40.5796 16.2363H41.6557C45.5255 16.2302 49.2424 17.7467 52.0034 20.4582C53.3485 21.7896 54.4147 23.3758 55.1396 25.1241C55.8645 26.8724 56.2336 28.7477 56.2252 30.6403L58.2948 38.8356C58.3312 38.9906 58.3353 39.1515 58.3068 39.3081C58.2783 39.4648 58.2179 39.6139 58.1292 39.7462C58.0352 39.8772 57.9107 39.9833 57.7665 40.0554C57.6222 40.1276 57.4626 40.1635 57.3014 40.1601H53.1623V48.4382C53.1631 48.7318 53.0524 49.0147 52.8527 49.2298C52.6529 49.4449 52.379 49.5762 52.0862 49.5972H46.7882V58.9515C46.6837 59.2019 46.5129 59.4191 46.294 59.5796C46.0752 59.7401 45.8167 59.8377 45.5465 59.862Z" fill="#00007E"/>
<path d="M28.2451 38.4206H26.0928C25.8557 38.4239 25.6252 38.3423 25.443 38.1904C25.2608 38.0386 25.1389 37.8266 25.0994 37.5928L24.5199 35.0265L22.8643 34.3643L20.6292 35.7716C20.4183 35.8839 20.1779 35.9283 19.9408 35.8986C19.7036 35.869 19.4815 35.7668 19.3047 35.606L17.8147 34.1159C17.6539 33.9392 17.5517 33.717 17.5221 33.4799C17.4924 33.2428 17.5368 33.0023 17.6491 32.7914L19.0564 30.5563C18.7723 30.003 18.5502 29.42 18.3941 28.8179L15.8279 28.2385C15.5941 28.199 15.3821 28.0771 15.2302 27.8949C15.0784 27.7127 14.9968 27.4822 15.0001 27.2451V25.0928C14.9968 24.8556 15.0784 24.6251 15.2302 24.443C15.3821 24.2608 15.5941 24.1389 15.8279 24.0994L18.3941 23.5199C18.5644 22.9492 18.7861 22.395 19.0564 21.8643L17.6491 19.6292C17.5368 19.4183 17.4924 19.1778 17.5221 18.9407C17.5517 18.7036 17.6539 18.4815 17.8147 18.3047L19.3047 16.8147C19.4815 16.6539 19.7036 16.5517 19.9408 16.522C20.1779 16.4924 20.4183 16.5368 20.6292 16.6491L22.8643 18.0564L24.5199 17.3941L25.0994 14.8279C25.1389 14.5941 25.2608 14.3821 25.443 14.2302C25.6252 14.0784 25.8557 13.9968 26.0928 14.0001H28.2451C28.4822 13.9968 28.7127 14.0784 28.8949 14.2302C29.0771 14.3821 29.199 14.5941 29.2385 14.8279L29.9007 17.3941L31.5564 18.0564L33.7915 16.6491C34.0024 16.5368 34.2428 16.4924 34.4799 16.522C34.717 16.5517 34.9392 16.6539 35.116 16.8147L36.606 18.3047C36.7668 18.4815 36.869 18.7036 36.8986 18.9407C36.9283 19.1778 36.8839 19.4183 36.7716 19.6292L35.3643 21.8643C35.6346 22.395 35.8563 22.9492 36.0266 23.5199L38.5928 24.0994C38.8266 24.1389 39.0386 24.2608 39.1904 24.443C39.3423 24.6251 39.4239 24.8556 39.4206 25.0928V27.2451C39.4239 27.4822 39.3423 27.7127 39.1904 27.8949C39.0386 28.0771 38.8266 28.199 38.5928 28.2385L36.0266 28.8179C35.8705 29.42 35.6484 30.003 35.3643 30.5563L36.7716 32.7914C36.8839 33.0023 36.9283 33.2428 36.8986 33.4799C36.869 33.717 36.7668 33.9392 36.606 34.1159L35.116 35.606C34.9392 35.7668 34.717 35.869 34.4799 35.8986C34.2428 35.9283 34.0024 35.8839 33.7915 35.7716L31.5564 34.3643L29.9007 35.0265L29.2385 37.6755C29.1822 37.8941 29.0531 38.087 28.8726 38.2224C28.692 38.3578 28.4707 38.4277 28.2451 38.4206ZM26.9206 36.351H27.4173L27.914 34.0332C27.9558 33.8516 28.0479 33.6855 28.1796 33.5537C28.3113 33.422 28.4775 33.33 28.659 33.2881C29.4791 33.1231 30.2638 32.8149 30.9769 32.3775C31.133 32.2632 31.3215 32.2016 31.515 32.2016C31.7085 32.2016 31.8969 32.2632 32.053 32.3775L34.1226 33.702L34.4537 33.3709L33.212 31.2186C33.0976 31.0625 33.036 30.874 33.036 30.6805C33.036 30.487 33.0976 30.2985 33.212 30.1424C33.6354 29.4225 33.9427 28.6402 34.1226 27.8246C34.1644 27.643 34.2564 27.4769 34.3882 27.3451C34.5199 27.2134 34.686 27.1214 34.8676 27.0795L37.1855 26.5828V26.0862L34.8676 25.5895C34.686 25.5477 34.5199 25.4556 34.3882 25.3239C34.2564 25.1921 34.1644 25.026 34.1226 24.8444C33.9567 24.0505 33.6482 23.2932 33.212 22.6093C33.0976 22.4532 33.036 22.2648 33.036 22.0713C33.036 21.8778 33.0976 21.6893 33.212 21.5332L34.5365 19.4637L34.2054 19.1325L32.1358 20.457C31.9797 20.5714 31.7913 20.633 31.5978 20.633C31.4043 20.633 31.2158 20.5714 31.0597 20.457C30.3535 20.006 29.5662 19.6967 28.7418 19.5464C28.5602 19.5046 28.3941 19.4126 28.2624 19.2808C28.1306 19.1491 28.0386 18.983 27.9968 18.8014L27.4173 16.2352H26.9206L26.4239 18.5531C26.3821 18.7346 26.2901 18.9008 26.1583 19.0325C26.0266 19.1642 25.8605 19.2563 25.6789 19.2981C24.8849 19.4639 24.1276 19.7725 23.4438 20.2087C23.2877 20.323 23.0992 20.3847 22.9057 20.3847C22.7122 20.3847 22.5238 20.323 22.3677 20.2087L20.2981 18.8842L19.967 19.2153L21.2915 21.2849C21.4058 21.441 21.4675 21.6294 21.4675 21.8229C21.4675 22.0164 21.4058 22.2049 21.2915 22.361C20.8553 23.0448 20.5467 23.8021 20.3809 24.5961C20.3391 24.7777 20.247 24.9438 20.1153 25.0755C19.9836 25.2073 19.8174 25.2993 19.6359 25.3411L17.318 25.8378V26.3345L19.6359 26.8312C19.8174 26.873 19.9836 26.9651 20.1153 27.0968C20.247 27.2285 20.3391 27.3947 20.3809 27.5762C20.5607 28.3919 20.868 29.1741 21.2915 29.8941C21.4058 30.0502 21.4675 30.2387 21.4675 30.4322C21.4675 30.6257 21.4058 30.8141 21.2915 30.9703L19.967 33.0398L20.2981 33.3709L22.3677 32.0464C22.5238 31.9321 22.7122 31.8704 22.9057 31.8704C23.0992 31.8704 23.2877 31.9321 23.4438 32.0464C24.1276 32.4826 24.8849 32.7912 25.6789 32.957C25.8605 32.9988 26.0266 33.0909 26.1583 33.2226C26.2901 33.3543 26.3821 33.5205 26.4239 33.702L26.9206 36.351Z" fill="#00007E"/>
</svg>
