<svg width="80" height="80" viewBox="0 0 80 80" fill="none" xmlns="http://www.w3.org/2000/svg">
<rect width="80" height="80" fill="white"/>
<path d="M52.6022 50.7242C53.2993 48.6213 53.6613 46.4218 53.6748 44.2064C53.6719 39.4641 51.9742 34.8789 48.888 31.2782C45.8017 27.6776 41.5301 25.2986 36.844 24.5705V20.4453H31.2337V24.488C26.4284 25.0909 22.0083 27.4268 18.8031 31.0574C15.5979 34.6879 13.8279 39.3635 13.8254 44.2064C13.8145 46.8245 14.3208 49.4189 15.3152 51.8408C16.3095 54.2627 17.7724 56.4644 19.6199 58.3195C21.4673 60.1746 23.6629 61.6466 26.0807 62.651C28.4984 63.6554 31.0907 64.1724 33.7088 64.1724C36.8446 64.176 39.9367 63.4379 42.7328 62.0184C45.5288 60.5988 47.9495 58.5381 49.7971 56.0045C50.2265 56.2385 50.711 56.3525 51.1996 56.3345C51.9874 56.3345 52.7428 56.0216 53.2999 55.4646C53.8569 54.9076 54.1698 54.1521 54.1698 53.3644C54.165 52.8251 54.0174 52.2966 53.7421 51.8329C53.4667 51.3691 53.0734 50.9866 52.6022 50.7242Z" fill="#66C3CD"/>
<path d="M38.4934 16.1599C38.7712 16.1488 39.0483 16.194 39.3081 16.2926C39.568 16.3913 39.8052 16.5415 40.0055 16.7341C40.2059 16.9267 40.3653 17.1579 40.474 17.4137C40.5828 17.6695 40.6388 17.9446 40.6385 18.2225C40.6214 18.769 40.4175 19.2931 40.061 19.7076C39.8545 19.9079 39.6083 20.0627 39.3383 20.1622C39.0683 20.2616 38.7806 20.3035 38.4934 20.2851H29.088C28.541 20.2851 28.0163 20.0678 27.6295 19.681C27.2427 19.2942 27.0254 18.7696 27.0254 18.2225C27.0426 17.6761 27.2464 17.152 27.6029 16.7375C27.7938 16.5393 28.0255 16.385 28.2819 16.2853C28.5383 16.1856 28.8134 16.1428 29.088 16.1599H38.4934Z" fill="#66C3CD"/>
<path d="M33.7916 60.2953C31.6721 60.287 29.5752 59.8599 27.6213 59.0387C25.6674 58.2175 23.8951 57.0184 22.406 55.5101C20.8828 54.0323 19.6738 52.2621 18.8515 50.3057C18.0293 48.3492 17.6106 46.2468 17.6208 44.1246C17.601 42.0009 18.0153 39.8957 18.8382 37.9379C19.661 35.98 20.8751 34.2109 22.406 32.739C23.8779 31.2081 25.647 29.994 27.6048 29.1712C29.5627 28.3483 31.6679 27.9341 33.7916 27.9538C35.9131 27.9484 38.0141 28.3691 39.9699 29.1911C41.9257 30.0131 43.6964 31.2196 45.1771 32.739C46.5308 34.0811 47.6468 35.6434 48.4772 37.3592C48.5867 37.6218 48.5873 37.9171 48.479 38.1801C48.3707 38.4432 48.1623 38.6524 47.8997 38.7618C47.6473 38.8766 47.3602 38.8892 47.0987 38.7969C46.8372 38.7046 46.6216 38.5146 46.4972 38.2668C45.8138 36.7609 44.8635 35.3913 43.692 34.2241C42.4112 32.8908 40.8737 31.8306 39.1722 31.1075C37.4707 30.3844 35.6404 30.0132 33.7916 30.0164C31.95 30.0118 30.126 30.3743 28.4261 31.0826C26.7263 31.7908 25.1846 32.8308 23.8911 34.1416C22.554 35.4194 21.4912 36.9564 20.7678 38.6586C20.0444 40.3608 19.6754 42.1925 19.6834 44.0421C19.6802 45.8909 20.0513 47.7212 20.7745 49.4227C21.4976 51.1242 22.5578 52.6617 23.8911 53.9425C25.1886 55.2422 26.7329 56.2693 28.4331 56.9636C30.1333 57.6579 31.9552 58.0052 33.7916 57.9852C34.6775 57.9883 35.5617 57.9054 36.4317 57.7377L38.9068 56.9952C39.0349 56.9282 39.1761 56.89 39.3205 56.8834C39.4649 56.8768 39.6091 56.9019 39.7427 56.9569C39.8764 57.012 39.9964 57.0956 40.0943 57.202C40.1922 57.3084 40.2656 57.4349 40.3094 57.5727C40.4188 57.8353 40.4194 58.1306 40.3111 58.3936C40.2028 58.6566 39.9944 58.8659 39.7318 58.9753C38.7772 59.3646 37.7804 59.6415 36.7617 59.8003C35.8192 60.1784 34.8058 60.3473 33.7916 60.2953Z" fill="#00007E"/>
<path d="M33.791 46.7715C33.1127 46.7715 32.4622 46.502 31.9825 46.0224C31.5029 45.5427 31.2334 44.8922 31.2334 44.2139C31.2334 43.5355 31.5029 42.885 31.9825 42.4054C32.4622 41.9257 33.1127 41.6562 33.791 41.6563C34.4693 41.6562 35.1199 41.9257 35.5995 42.4054C36.0792 42.885 36.3486 43.5355 36.3486 44.2139C36.3486 44.8922 36.0792 45.5427 35.5995 46.0224C35.1199 46.502 34.4693 46.7715 33.791 46.7715ZM33.791 43.7188C33.6597 43.7188 33.5338 43.771 33.441 43.8638C33.3481 43.9567 33.296 44.0826 33.296 44.2139C33.296 44.3452 33.3481 44.4711 33.441 44.5639C33.5338 44.6567 33.6597 44.7089 33.791 44.7089C33.9223 44.7089 34.0482 44.6567 34.1411 44.5639C34.2339 44.4711 34.286 44.3452 34.286 44.2139C34.286 44.0826 34.2339 43.9567 34.1411 43.8638C34.0482 43.771 33.9223 43.7188 33.791 43.7188Z" fill="#00007E"/>
<path d="M38.4937 21.2729H36.4311C36.1467 21.2729 35.8739 21.1599 35.6727 20.9588C35.4716 20.7576 35.3586 20.4848 35.3586 20.2004C35.3586 19.9159 35.4716 19.6431 35.6727 19.442C35.8739 19.2408 36.1467 19.1278 36.4311 19.1278H38.4937C38.6338 19.1285 38.7724 19.0994 38.9004 19.0425C39.0284 18.9856 39.1429 18.9022 39.2362 18.7978C39.3558 18.7124 39.4548 18.6015 39.5262 18.473C39.5975 18.3446 39.6394 18.2019 39.6488 18.0553C39.6279 17.7635 39.497 17.4904 39.2826 17.2914C39.0682 17.0923 38.7863 16.982 38.4937 16.9827H29.0883C28.9482 16.9821 28.8096 17.0112 28.6816 17.068C28.5536 17.1249 28.4391 17.2083 28.3457 17.3127C28.1426 17.5074 28.0241 17.7741 28.0157 18.0553C28.0157 18.3397 28.1287 18.6125 28.3299 18.8137C28.531 19.0148 28.8038 19.1278 29.0883 19.1278H31.2334C31.3742 19.1278 31.5137 19.1556 31.6438 19.2095C31.7739 19.2634 31.8922 19.3424 31.9918 19.442C32.0914 19.5416 32.1704 19.6598 32.2243 19.7899C32.2782 19.9201 32.3059 20.0595 32.3059 20.2004C32.3059 20.3412 32.2782 20.4807 32.2243 20.6108C32.1704 20.741 32.0914 20.8592 31.9918 20.9588C31.8922 21.0584 31.7739 21.1374 31.6438 21.1913C31.5137 21.2452 31.3742 21.2729 31.2334 21.2729H29.0883C28.2568 21.2729 27.4593 20.9426 26.8714 20.3547C26.2834 19.7667 25.9531 18.9693 25.9531 18.1378C25.9646 17.3075 26.2887 16.5121 26.8607 15.9102C27.1449 15.6077 27.4911 15.37 27.8755 15.2134C28.2599 15.0568 28.6735 14.9849 29.0883 15.0026H38.4937C38.9123 14.9916 39.3289 15.0646 39.7188 15.2172C40.1088 15.3698 40.4642 15.599 40.7641 15.8912C41.064 16.1834 41.3024 16.5328 41.4651 16.9186C41.6278 17.3045 41.7115 17.719 41.7114 18.1378C41.6999 18.968 41.3758 19.7635 40.8038 20.3654C40.1766 20.9497 39.3509 21.274 38.4937 21.2729Z" fill="#00007E"/>
<path d="M22.8177 28.6174C22.6269 28.6188 22.4397 28.5651 22.2787 28.4626C22.1177 28.3602 21.9897 28.2133 21.9102 28.0398L20.7552 25.9772C20.6864 25.8544 20.6446 25.7184 20.6325 25.5781C20.6205 25.4379 20.6385 25.2967 20.6853 25.164C20.7322 25.0312 20.8068 24.91 20.9042 24.8084C21.0016 24.7068 21.1195 24.6271 21.2502 24.5747C21.3792 24.5048 21.5212 24.4622 21.6674 24.4494C21.8135 24.4366 21.9608 24.454 22.1 24.5004C22.2392 24.5468 22.3674 24.6212 22.4766 24.7192C22.5859 24.8171 22.6739 24.9364 22.7352 25.0697L23.8078 27.1323C23.8766 27.2551 23.9184 27.3912 23.9304 27.5314C23.9424 27.6716 23.9244 27.8128 23.8776 27.9456C23.8307 28.0783 23.7561 28.1995 23.6587 28.3011C23.5613 28.4027 23.4434 28.4824 23.3128 28.5349L22.8177 28.6174Z" fill="#00007E"/>
<path d="M33.7916 32.8243C33.6435 32.8247 33.4969 32.7945 33.3611 32.7355C33.2253 32.6765 33.1032 32.5901 33.0024 32.4816C32.9017 32.3731 32.8245 32.2449 32.7757 32.1051C32.7269 31.9653 32.7076 31.8169 32.719 31.6692V29.1116C32.719 28.8272 32.832 28.5543 33.0331 28.3532C33.2343 28.1521 33.5071 28.0391 33.7916 28.0391C34.076 28.0391 34.3488 28.1521 34.55 28.3532C34.7511 28.5543 34.8641 28.8272 34.8641 29.1116V31.6692C34.8755 31.8169 34.8562 31.9653 34.8074 32.1051C34.7586 32.2449 34.6814 32.3731 34.5807 32.4816C34.4799 32.5901 34.3578 32.6765 34.222 32.7355C34.0862 32.7945 33.9396 32.8247 33.7916 32.8243Z" fill="#00007E"/>
<path d="M33.7913 60.293C33.5068 60.293 33.234 60.18 33.0329 59.9789C32.8317 59.7778 32.7188 59.5049 32.7188 59.2205V56.5804C32.7188 56.2959 32.8317 56.0231 33.0329 55.822C33.234 55.6208 33.5068 55.5078 33.7913 55.5078C34.0758 55.5078 34.3486 55.6208 34.5497 55.822C34.7509 56.0231 34.8638 56.2959 34.8638 56.5804V59.2205C34.8638 59.5049 34.7509 59.7778 34.5497 59.9789C34.3486 60.18 34.0758 60.293 33.7913 60.293Z" fill="#00007E"/>
<path d="M42.7013 36.3741C42.5612 36.3747 42.4226 36.3456 42.2946 36.2888C42.1666 36.2319 42.0521 36.1485 41.9588 36.0441C41.7671 35.8443 41.6602 35.5783 41.6602 35.3015C41.6602 35.0248 41.7671 34.7587 41.9588 34.559L43.7738 32.7439C43.9736 32.5523 44.2396 32.4453 44.5164 32.4453C44.7931 32.4453 45.0592 32.5523 45.2589 32.7439C45.4505 32.9436 45.5575 33.2097 45.5575 33.4864C45.5575 33.7632 45.4505 34.0293 45.2589 34.229L43.4438 36.0441C43.3504 36.1485 43.236 36.2319 43.108 36.2888C42.98 36.3456 42.8414 36.3747 42.7013 36.3741Z" fill="#00007E"/>
<path d="M23.2306 55.8428C23.0905 55.8435 22.9519 55.8144 22.8239 55.7575C22.6959 55.7006 22.5814 55.6172 22.488 55.5128C22.2964 55.3131 22.1895 55.047 22.1895 54.7703C22.1895 54.4935 22.2964 54.2275 22.488 54.0277L24.3031 52.2127C24.5029 52.021 24.7689 51.9141 25.0457 51.9141C25.3224 51.9141 25.5885 52.021 25.7882 52.2127C25.9798 52.4124 26.0868 52.6784 26.0868 52.9552C26.0868 53.232 25.9798 53.498 25.7882 53.6977L23.9731 55.5128C23.8797 55.6172 23.7653 55.7006 23.6373 55.7575C23.5093 55.8144 23.3707 55.8435 23.2306 55.8428Z" fill="#00007E"/>
<path d="M21.2513 45.2811H18.6936C18.4092 45.2811 18.1364 45.1681 17.9352 44.9669C17.7341 44.7658 17.6211 44.493 17.6211 44.2085C17.6211 43.9241 17.7341 43.6513 17.9352 43.4501C18.1364 43.249 18.4092 43.136 18.6936 43.136H21.2513C21.3989 43.1246 21.5473 43.1439 21.6871 43.1927C21.8269 43.2415 21.9551 43.3187 22.0636 43.4194C22.1721 43.5202 22.2586 43.6423 22.3175 43.7781C22.3765 43.9139 22.4068 44.0605 22.4063 44.2085C22.4068 44.3566 22.3765 44.5032 22.3175 44.639C22.2586 44.7748 22.1721 44.8969 22.0636 44.9977C21.9551 45.0984 21.8269 45.1756 21.6871 45.2244C21.5473 45.2732 21.3989 45.2925 21.2513 45.2811Z" fill="#00007E"/>
<path d="M24.9632 36.3697C24.8231 36.3704 24.6845 36.3413 24.5565 36.2844C24.4285 36.2275 24.314 36.1441 24.2206 36.0397L22.488 34.3071C22.2964 34.1074 22.1895 33.8413 22.1895 33.5646C22.1895 33.2878 22.2964 33.0217 22.488 32.822C22.6878 32.6304 22.9538 32.5234 23.2306 32.5234C23.5074 32.5234 23.7734 32.6304 23.9731 32.822L25.7882 34.6371C25.9798 34.8368 26.0868 35.1029 26.0868 35.3797C26.0868 35.6564 25.9798 35.9225 25.7882 36.1222C25.546 36.2892 25.2573 36.3758 24.9632 36.3697Z" fill="#00007E"/>
<path d="M33.7913 43.7195C33.5068 43.7195 33.234 43.6065 33.0329 43.4053C32.8317 43.2042 32.7188 42.9314 32.7188 42.6469V35.7991C32.7188 35.5147 32.8317 35.2418 33.0329 35.0407C33.234 34.8396 33.5068 34.7266 33.7913 34.7266C34.0758 34.7266 34.3486 34.8396 34.5497 35.0407C34.7509 35.2418 34.8638 35.5147 34.8638 35.7991V42.6469C34.8638 42.9314 34.7509 43.2042 34.5497 43.4053C34.3486 43.6065 34.0758 43.7195 33.7913 43.7195Z" fill="#00007E"/>
<path d="M60.275 52.1345V54.0321L57.3873 54.6921C57.2309 55.5255 56.8929 56.3142 56.3973 57.0022L57.9649 59.4773L56.6448 60.8799L54.1697 59.2298C53.4672 59.7177 52.6856 60.0806 51.8596 60.3024L51.1171 63.19H49.2195L48.5594 60.3024C47.709 60.1525 46.9126 59.7827 46.2493 59.2298L43.7742 60.8799L42.3716 59.4773L44.0217 57.0022C43.5933 56.2782 43.2605 55.5017 43.0317 54.6921L40.0615 54.0321V52.1345L43.0317 51.4745C43.1735 50.6115 43.5123 49.7928 44.0217 49.0819L42.3716 46.6067L43.7742 45.2867L46.2493 46.8542C46.9808 46.4406 47.7554 46.1086 48.5594 45.8642L49.2195 42.9766H51.1171L51.8596 45.8642C52.693 46.0206 53.4817 46.3586 54.1697 46.8542L56.6448 45.2867L57.9649 46.6067L56.3973 49.0819C56.8257 49.835 57.1583 50.6388 57.3873 51.4745L60.275 52.1345ZM53.3447 53.1245C53.3447 52.702 53.2614 52.2836 53.0997 51.8932C52.938 51.5028 52.701 51.1481 52.4022 50.8493C52.1034 50.5505 51.7487 50.3135 51.3583 50.1518C50.968 49.9901 50.5495 49.9069 50.127 49.9069C49.7152 49.9176 49.3096 50.0093 48.9333 50.1768C48.557 50.3443 48.2174 50.5844 47.934 50.8832C47.6505 51.182 47.4286 51.5338 47.2811 51.9183C47.1337 52.3029 47.0634 52.7128 47.0744 53.1245C47.0744 53.956 47.4047 54.7535 47.9926 55.3414C48.5806 55.9294 49.378 56.2597 50.2095 56.2597C51.041 56.2597 51.8384 55.9294 52.4264 55.3414C53.0144 54.7535 53.3447 53.956 53.3447 53.1245Z" fill="#2892FF"/>
<path d="M50.6218 57.411C50.0731 57.422 49.5278 57.3234 49.0178 57.121C48.5077 56.9186 48.0432 56.6165 47.6513 56.2323C47.2595 55.8482 46.9482 55.3897 46.7358 54.8838C46.5233 54.3778 46.414 53.8346 46.4141 53.2858C46.4141 52.1699 46.8574 51.0996 47.6465 50.3105C48.4356 49.5214 49.5058 49.0781 50.6218 49.0781C51.1705 49.078 51.7138 49.1874 52.2197 49.3998C52.7256 49.6123 53.1841 49.9235 53.5683 50.3154C53.9524 50.7072 54.2546 51.1718 54.4569 51.6818C54.6593 52.1919 54.7579 52.7372 54.747 53.2858C54.7258 54.3733 54.2844 55.4103 53.5153 56.1794C52.7463 56.9485 51.7092 57.3899 50.6218 57.411ZM50.6218 51.2232C50.0747 51.2232 49.5501 51.4405 49.1633 51.8273C48.7765 52.2142 48.5592 52.7388 48.5592 53.2858C48.5592 53.8329 48.7765 54.3575 49.1633 54.7443C49.5501 55.1311 50.0747 55.3484 50.6218 55.3484C51.1688 55.3484 51.6934 55.1311 52.0802 54.7443C52.4671 54.3575 52.6844 53.8329 52.6844 53.2858C52.6844 52.7388 52.4671 52.2142 52.0802 51.8273C51.6934 51.4405 51.1688 51.2232 50.6218 51.2232Z" fill="#00007E"/>
<path d="M51.53 64.3421H49.6325C49.3961 64.3454 49.1664 64.264 48.9848 64.1127C48.8032 63.9614 48.6818 63.7501 48.6424 63.517L48.0649 61.2894L46.6623 60.7119L44.6822 61.9495C44.472 62.0614 44.2324 62.1056 43.9961 62.0761C43.7597 62.0466 43.5383 61.9447 43.3622 61.7845L42.0421 60.4644C41.8819 60.2882 41.78 60.0668 41.7505 59.8305C41.7209 59.5942 41.7651 59.3545 41.8771 59.1443L43.1146 57.0817C42.8871 56.6294 42.6941 56.1606 42.5371 55.6792L40.3095 55.1841C40.0764 55.1448 39.8652 55.0233 39.7138 54.8417C39.5625 54.6602 39.4812 54.4304 39.4845 54.1941V52.2965C39.4812 52.0602 39.5625 51.8305 39.7138 51.6489C39.8652 51.4673 40.0764 51.3458 40.3095 51.3065L42.5371 50.8114C42.6792 50.2983 42.8727 49.8007 43.1146 49.3264L41.8771 47.3463C41.7651 47.1361 41.7209 46.8964 41.7505 46.6601C41.78 46.4238 41.8819 46.2024 42.0421 46.0262L43.3622 44.7062C43.5383 44.5459 43.7597 44.4441 43.9961 44.4145C44.2324 44.385 44.472 44.4292 44.6822 44.5411L46.6623 45.7787L48.0649 45.2012L48.6424 42.9736C48.6818 42.7405 48.8032 42.5292 48.9848 42.3779C49.1664 42.2266 49.3961 42.1452 49.6325 42.1485H51.53C51.7664 42.1452 51.9961 42.2266 52.1777 42.3779C52.3593 42.5292 52.4807 42.7405 52.5201 42.9736L53.0151 45.2012L54.4177 45.7787L56.3978 44.5411C56.6205 44.4223 56.8742 44.3745 57.1249 44.4039C57.3756 44.4334 57.6113 44.5389 57.8003 44.7062L59.1204 46.0262C59.2806 46.2024 59.3825 46.4238 59.412 46.6601C59.4416 46.8964 59.3973 47.1361 59.2854 47.3463L58.0478 49.3264C58.2758 49.8069 58.4688 50.3032 58.6254 50.8114L60.853 51.3065C61.086 51.3458 61.2973 51.4673 61.4486 51.6489C61.6 51.8305 61.6813 52.0602 61.678 52.2965V54.1941C61.6813 54.4304 61.6 54.6602 61.4486 54.8417C61.2973 55.0233 61.086 55.1448 60.853 55.1841L58.6254 55.6792C58.4829 56.1658 58.2894 56.6359 58.0478 57.0817L59.2854 59.1443C59.3973 59.3545 59.4416 59.5942 59.412 59.8305C59.3825 60.0668 59.2806 60.2882 59.1204 60.4644L57.8003 61.7845C57.6113 61.9517 57.3756 62.0572 57.1249 62.0867C56.8742 62.1162 56.6205 62.0683 56.3978 61.9495L54.4177 60.7119L53.0151 61.2894L52.5201 63.517C52.4807 63.7501 52.3593 63.9614 52.1777 64.1127C51.9961 64.264 51.7664 64.3454 51.53 64.3421ZM50.4575 62.2795H50.705L51.2 60.2169C51.2417 60.0359 51.3334 59.8704 51.4647 59.7391C51.596 59.6078 51.7616 59.516 51.9426 59.4744C52.6686 59.3437 53.3497 59.0315 53.9227 58.5668C54.0782 58.4529 54.2661 58.3914 54.4589 58.3914C54.6518 58.3914 54.8396 58.4529 54.9952 58.5668L56.8103 59.8044L56.9753 59.6394L55.8202 57.7418C55.7063 57.5862 55.6449 57.3983 55.6449 57.2055C55.6449 57.0126 55.7063 56.8248 55.8202 56.6692C56.1988 56.0573 56.4773 55.3888 56.6453 54.6891C56.6929 54.4971 56.7969 54.3237 56.944 54.1914C57.091 54.059 57.2744 53.9738 57.4703 53.9466L59.5329 53.4516V53.2041L57.4703 52.709C57.2744 52.6819 57.091 52.5966 56.944 52.4643C56.7969 52.3319 56.6929 52.1585 56.6453 51.9665C56.4927 51.2619 56.2131 50.5909 55.8202 49.9864C55.6994 49.8181 55.6343 49.6161 55.6343 49.4089C55.6343 49.2017 55.6994 48.9997 55.8202 48.8313L56.9753 47.0163L56.8103 46.8513L54.9952 48.0063C54.8396 48.1203 54.6518 48.1817 54.4589 48.1817C54.2661 48.1817 54.0782 48.1203 53.9227 48.0063C53.326 47.5987 52.6521 47.3179 51.9426 47.1813C51.7616 47.1396 51.596 47.0479 51.4647 46.9166C51.3334 46.7853 51.2417 46.6197 51.2 46.4387L50.705 44.3761H50.4575L49.9625 46.2737C49.9208 46.4547 49.8291 46.6203 49.6978 46.7516C49.5665 46.8829 49.4009 46.9746 49.2199 47.0163C48.4849 47.1532 47.784 47.4335 47.1573 47.8413C47.0018 47.9553 46.8139 48.0167 46.6211 48.0167C46.4282 48.0167 46.2404 47.9553 46.0848 47.8413L44.2697 46.6862L44.1047 46.8513L45.2597 48.6663C45.3737 48.8219 45.4351 49.0098 45.4351 49.2026C45.4351 49.3955 45.3737 49.5833 45.2597 49.7389C44.893 50.3861 44.6155 51.0799 44.4347 51.8015C44.393 51.9824 44.3013 52.148 44.17 52.2793C44.0387 52.4106 43.8731 52.5023 43.6922 52.544L41.6296 53.039V53.2866L43.6922 53.7816C43.8731 53.8233 44.0387 53.915 44.17 54.0463C44.3013 54.1776 44.393 54.3432 44.4347 54.5241C44.5713 55.2336 44.8521 55.9076 45.2597 56.5042C45.3737 56.6598 45.4351 56.8476 45.4351 57.0405C45.4351 57.2333 45.3737 57.4212 45.2597 57.5768L44.0222 59.6394L44.1872 59.8044L46.0023 58.5668C46.1579 58.4529 46.3457 58.3914 46.5386 58.3914C46.7314 58.3914 46.9192 58.4529 47.0748 58.5668C47.6939 59.0057 48.3956 59.3145 49.1374 59.4744C49.3184 59.516 49.484 59.6078 49.6153 59.7391C49.7466 59.8704 49.8383 60.0359 49.88 60.2169L50.4575 62.2795Z" fill="#00007E"/>
<path d="M33.7912 65.0006C28.2771 65.0006 22.9888 62.8101 19.0897 58.9111C15.1907 55.012 13.0002 49.7237 13.0002 44.2096C12.9784 39.1338 14.829 34.2282 18.1979 30.4315C21.3159 26.916 25.5327 24.5604 30.161 23.7487V20.2835C30.1819 19.9917 30.3128 19.7187 30.5272 19.5196C30.7416 19.3205 31.0235 19.2102 31.3161 19.2109H36.5138C36.7983 19.2109 37.0711 19.3239 37.2722 19.5251C37.4734 19.7262 37.5864 19.999 37.5864 20.2835V23.7487C39.6973 24.0858 41.7346 24.7835 43.6091 25.8113L44.0217 26.0588L45.0942 26.7188L46.1668 27.4613L46.4143 27.6263L46.6618 27.8739H46.7443L46.9918 28.1214L47.2393 28.2864L47.8993 28.8639C51.089 31.7393 53.2843 35.5523 54.1696 39.7544C54.204 40.0356 54.1408 40.3202 53.9907 40.5604C53.8405 40.8007 53.6125 40.9821 53.3446 41.0745C53.063 41.101 52.7814 41.0232 52.5533 40.8559C52.3252 40.6887 52.1664 40.4435 52.107 40.1669C51.2684 36.404 49.3129 32.9819 46.4968 30.349L45.9193 29.8539L45.7542 29.6889L45.5067 29.5239L45.2592 29.3589L45.0117 29.1939L44.0217 28.6151C43.5266 28.3992 43.1139 28.1214 42.9491 28.0389C42.7843 27.9564 42.5366 27.7913 42.5366 27.7913C40.5658 26.8003 38.4488 26.1317 36.2663 25.8113C36.0249 25.7742 35.8034 25.6559 35.6384 25.4759C35.4734 25.2958 35.3747 25.0649 35.3588 24.8212V21.2735H32.2236V24.6562C32.2245 24.9051 32.1316 25.1452 31.9634 25.3286C31.7952 25.5121 31.5641 25.6255 31.3161 25.6462C26.8248 26.2626 22.7071 28.4802 19.7208 31.891C16.7345 35.3017 15.0803 39.6763 15.0628 44.2096C15.0628 49.1767 17.036 53.9403 20.5482 57.4526C24.0605 60.9648 28.8241 62.938 33.7912 62.938C35.9548 62.9501 38.1042 62.5873 40.144 61.8655C40.4067 61.7856 40.69 61.8095 40.9356 61.9323C41.1812 62.0551 41.3703 62.2674 41.464 62.5255C41.5154 62.655 41.5388 62.7938 41.5328 62.933C41.5268 63.0722 41.4915 63.2085 41.4292 63.3331C41.3669 63.4577 41.279 63.5677 41.1713 63.656C41.0636 63.7444 40.9384 63.8089 40.804 63.8456C38.5416 64.5966 36.175 64.9864 33.7912 65.0006Z" fill="#00007E"/>
</svg>
