<svg width="80" height="80" viewBox="0 0 80 80" fill="none" xmlns="http://www.w3.org/2000/svg">
<path d="M42.3826 47.9158C42.1667 46.8739 42.2574 45.7918 42.6437 44.8004C43.0301 43.809 43.6955 42.9508 44.5595 42.3298C43.0731 40.2841 41.4249 38.3612 39.6306 36.5794C38.7681 37.6062 36.1394 39.9064 32.2373 37.9348C30.5122 37.0723 29.2389 34.9364 29.4032 34.3203C26.7334 35.1007 24.0225 35.799 22.5849 36.4972C23.16 37.8527 23.6528 40.3582 21.8045 42.494C19.9562 44.6299 17.4507 43.9727 16.2184 43.562C15.3657 45.6365 14.7457 47.7993 14.3701 50.0106C15.4032 50.1865 16.4103 50.49 17.3685 50.9142C18.19 51.325 19.0115 51.9 19.299 52.7626C19.436 53.2443 19.4501 53.7526 19.3401 54.2412C19.05 55.7696 18.2367 57.1493 17.0399 58.1433C18.3332 59.7238 19.8241 61.1319 21.4759 62.3328C22.1331 61.347 23.1599 60.8952 24.1457 60.5255C24.782 60.2098 25.4906 60.0681 26.1994 60.1148C26.9325 60.198 27.6144 60.5317 28.1299 61.0595C29.1417 61.9811 29.7472 63.266 29.8139 64.633C32.0652 64.5831 34.3067 64.3218 36.509 63.8525C36.6322 62.5793 36.7144 61.347 37.1662 60.238C37.3522 59.6697 37.6625 59.1499 38.0746 58.7165C38.4867 58.2831 38.9902 57.9469 39.5485 57.7325C41.0271 57.1986 42.629 57.8147 44.0256 58.4308C45.213 56.5087 46.1384 54.4367 46.7775 52.2697C45.7144 52.0203 44.7411 51.4816 43.9654 50.7132C43.1897 49.9447 42.6419 48.9765 42.3826 47.9158ZM32.6891 53.9537C31.7313 54.2556 30.7044 54.2602 29.7439 53.9669C28.7834 53.6736 27.9343 53.0962 27.3084 52.3107C26.96 51.835 26.7215 51.2879 26.6102 50.7089C26.5283 50.1316 26.5703 49.5435 26.7334 48.9837C27.0452 47.5662 27.8815 46.319 29.0746 45.4925C29.6774 45.0993 30.3691 44.8633 31.0865 44.8059C31.8039 44.7485 32.5243 44.8716 33.182 45.1639C33.9566 45.5865 34.6092 46.2015 35.0768 46.9498C35.5445 47.698 35.8114 48.5541 35.8518 49.4356C35.8706 50.4264 35.5746 51.3977 35.0062 52.2097C34.4379 53.0216 33.6266 53.6322 32.6891 53.9537Z" fill="#2892FF"/>
<path d="M29.8135 65.0017C29.7294 64.9928 29.6509 64.9553 29.5911 64.8955C29.5313 64.8357 29.4938 64.7572 29.4849 64.6731C29.4 63.3872 28.827 62.1824 27.883 61.3051C27.4087 60.8493 26.8071 60.5485 26.1579 60.4425C25.5057 60.4402 24.8609 60.5804 24.2685 60.8533C23.2716 61.1254 22.3915 61.717 21.763 62.5373C21.7443 62.579 21.7159 62.6157 21.6802 62.6443C21.6445 62.6729 21.6025 62.6925 21.5576 62.7016C21.5066 62.7116 21.4539 62.7094 21.404 62.6951C21.354 62.6808 21.3081 62.6549 21.2701 62.6194C19.5753 61.4094 18.0551 59.972 16.7519 58.3477C16.6967 58.275 16.6704 58.1844 16.6779 58.0934C16.6855 58.0024 16.7265 57.9174 16.793 57.8548C17.9353 56.9383 18.7083 55.6402 18.9699 54.1993C19.0955 53.7701 19.0955 53.314 18.9699 52.8849C18.7646 52.2688 18.1484 51.6937 17.2037 51.2419C16.2887 50.8259 15.3215 50.5358 14.3286 50.3794C14.2764 50.3769 14.226 50.3603 14.1826 50.3314C14.1391 50.3025 14.1044 50.2622 14.0821 50.2151C14 50.174 14 50.0508 14 49.9686C14.4004 47.7185 15.0336 45.516 15.8894 43.3968C15.9258 43.3126 15.9922 43.245 16.0757 43.207C16.1592 43.1691 16.2538 43.1635 16.3412 43.1914C17.4913 43.6022 20.3665 43.6432 21.5576 42.2878C23.4881 39.9876 22.5845 37.3589 22.2559 36.6196C22.2354 36.5794 22.2233 36.5354 22.2206 36.4904C22.2178 36.4454 22.2244 36.4003 22.2398 36.3579C22.2552 36.3155 22.2791 36.2768 22.3102 36.2441C22.3412 36.2114 22.3787 36.1854 22.4202 36.1678C24.0479 35.4977 25.7227 34.9486 27.4312 34.5248L29.3206 33.9498C29.3831 33.9332 29.4489 33.9334 29.5113 33.9503C29.5737 33.9671 29.6307 34 29.6764 34.0458C29.7222 34.0915 29.755 34.1484 29.7719 34.2109C29.7887 34.2733 29.789 34.339 29.7724 34.4016C29.6492 34.7712 30.7582 36.7839 32.4011 37.6053C36.2621 39.5769 38.6855 37.1535 39.3427 36.3321L39.5891 36.2088C39.6431 36.2071 39.6969 36.2172 39.7465 36.2385C39.7962 36.2598 39.8406 36.2917 39.8766 36.3321C41.7024 38.1107 43.3657 40.0489 44.8466 42.1235C44.8924 42.1983 44.9205 42.2826 44.9287 42.3699C44.9198 42.4201 44.9006 42.4679 44.8724 42.5103C44.8441 42.5527 44.8074 42.5888 44.7645 42.6164C43.9577 43.2068 43.336 44.015 42.9722 44.9462C42.6085 45.8773 42.5178 46.8929 42.7108 47.8739C43.1215 49.7633 44.8055 51.4062 46.8592 51.9402C46.9041 51.9493 46.9461 51.9689 46.9818 51.9975C47.0175 52.026 47.0459 52.0627 47.0646 52.1045C47.093 52.1461 47.1115 52.1936 47.1186 52.2435C47.1257 52.2933 47.1213 52.3441 47.1057 52.392C46.4513 54.5793 45.5268 56.6766 44.3537 58.6353C44.3042 58.7048 44.2322 58.7551 44.1498 58.7775C44.0674 58.8 43.9798 58.7933 43.9019 58.7585C42.4232 58.1424 40.9856 57.6084 39.6713 58.0602C39.1607 58.2584 38.7005 58.5676 38.324 58.9654C37.9475 59.3632 37.6641 59.8396 37.4943 60.3604C37.1926 61.2934 36.9996 62.2582 36.9193 63.2355C36.9121 63.4567 36.8846 63.6766 36.8372 63.8927C36.8378 63.9732 36.8089 64.0511 36.7559 64.1117C36.7029 64.1723 36.6295 64.2113 36.5497 64.2213C34.3415 64.6541 32.1031 64.915 29.8546 65.0017H29.8135ZM25.9525 59.7443H26.24C27.0544 59.8415 27.8095 60.2191 28.3759 60.8122C29.3547 61.7168 29.9805 62.9395 30.1421 64.2624C32.1696 64.1852 34.1883 63.9517 36.18 63.5641C36.1733 63.4259 36.1871 63.2875 36.221 63.1534C36.2993 62.1186 36.5063 61.0975 36.8372 60.1139C37.0411 59.4875 37.3832 58.915 37.8382 58.4386C38.2932 57.9623 38.8495 57.5943 39.4659 57.362C40.9035 56.8691 42.4232 57.362 43.9019 57.9781C44.9147 56.2552 45.7277 54.4224 46.3252 52.5152C45.2787 52.1962 44.3321 51.6128 43.5767 50.8214C42.8213 50.03 42.2825 49.0573 42.0125 47.9971C41.8039 46.9425 41.8848 45.8511 42.2463 44.8387C42.6079 43.8263 43.2367 42.9306 44.0662 42.2467C42.7182 40.4137 41.2355 38.6838 39.6302 37.0714C38.7266 38.0572 36.0157 40.2341 32.0726 38.2625C30.635 37.5232 29.3206 35.8392 29.0742 34.7712L27.6366 35.182C25.8293 35.7159 24.1453 36.2088 23.0363 36.6606C23.447 37.8107 24.0631 40.3984 22.0916 42.7396C20.7772 44.3004 17.9431 44.3826 16.4234 43.9718C15.6817 45.8278 15.1312 47.7545 14.7804 49.7222C15.7308 49.9115 16.6548 50.2149 17.5324 50.6258C18.6824 51.1598 19.3807 51.817 19.6271 52.6384C19.7869 53.1867 19.8011 53.7671 19.6682 54.3225C19.4009 55.8096 18.6501 57.1668 17.5324 58.1834C18.6784 59.5427 19.9735 60.7689 21.3933 61.839C22.1068 61.0569 23.0133 60.4762 24.0221 60.155C24.6371 59.9078 25.2902 59.7689 25.9525 59.7443ZM31.21 54.5278C30.4052 54.5298 29.6103 54.3498 28.8848 54.0013C28.1593 53.6528 27.5219 53.1448 27.0204 52.5152C26.6349 51.9903 26.3686 51.3875 26.24 50.749C26.1629 50.1307 26.2048 49.5033 26.3633 48.9007C26.7212 47.4048 27.6119 46.0907 28.8688 45.204C29.5217 44.7639 30.2783 44.502 31.0636 44.4444C31.8489 44.3867 32.6357 44.5353 33.3459 44.8755C34.1805 45.3087 34.886 45.9546 35.3908 46.748C35.8957 47.5414 36.1821 48.454 36.221 49.3936C36.2351 50.4681 35.909 51.5196 35.2893 52.3975C34.6695 53.2754 33.788 53.9348 32.7708 54.2814C32.267 54.4463 31.7401 54.5295 31.21 54.5278ZM31.4975 45.163C30.7088 45.1528 29.9354 45.3819 29.2795 45.8202C28.1575 46.5834 27.3652 47.7424 27.0615 49.065C26.9352 49.5893 26.9073 50.1324 26.9794 50.6669C27.0792 51.1721 27.2896 51.649 27.5955 52.0634C28.1727 52.7909 28.9549 53.3286 29.8409 53.6068C30.7269 53.8851 31.676 53.8911 32.5654 53.6242C33.4272 53.3164 34.1714 52.7473 34.6942 51.9962C35.2169 51.2452 35.4923 50.3497 35.4817 49.4347C35.4499 48.6197 35.2058 47.8272 34.7735 47.1356C34.3413 46.444 33.7359 45.8773 33.0173 45.4916C32.5459 45.2573 32.0236 45.1443 31.4975 45.163Z" fill="#00007E"/>
<path d="M48.667 42.5188L56.1424 49.871C57.4171 51.202 58.7753 52.4505 60.2088 53.6087C60.9892 54.2249 61.8518 54.7999 62.7965 54.7999C63.2983 54.7899 63.7774 54.5888 64.1361 54.2377C64.4948 53.8867 64.7061 53.412 64.7269 52.9105C64.7269 52.089 64.1519 51.4318 63.618 50.8568C59.6338 46.6672 55.4853 42.6831 51.1725 38.9453C50.3921 40.1365 49.6117 41.2865 48.667 42.5188Z" fill="#150DCE"/>
<path d="M62.7959 55.1308C61.728 55.1308 60.8244 54.5557 60.0029 53.8986C58.5669 52.7281 57.1957 51.4804 55.8955 50.1608L48.42 42.7675C48.3564 42.7119 48.3166 42.6339 48.309 42.5498C48.3013 42.4657 48.3264 42.3818 48.3789 42.3157C49.3236 41.0835 50.1041 39.8923 50.8845 38.7833C50.9068 38.7361 50.9415 38.6959 50.9849 38.667C51.0283 38.638 51.0788 38.6215 51.1309 38.619C51.2337 38.6093 51.3363 38.6386 51.4184 38.7012C55.7654 42.4589 59.9192 46.4345 63.8639 50.6126C64.4389 51.2287 65.0961 51.9681 65.0961 52.9128C65.0932 53.1971 65.0336 53.478 64.9207 53.7389C64.8079 53.9999 64.6441 54.2357 64.4389 54.4325C64.2254 54.6525 63.9701 54.8276 63.6879 54.9475C63.4058 55.0674 63.1025 55.1297 62.7959 55.1308ZM49.1183 42.48L56.3883 49.6269C57.6644 50.9437 59.0225 52.1784 60.4547 53.3235C61.1529 53.8986 61.9745 54.4325 62.7959 54.4325C63.2258 54.4104 63.6335 54.2356 63.946 53.9396C64.2081 53.6784 64.3558 53.3239 64.3567 52.9538C64.3567 52.2556 63.8638 51.6395 63.3709 51.1055C59.51 47.0392 55.4436 43.1372 51.2541 39.4816C50.5969 40.4673 49.8987 41.4531 49.1183 42.48Z" fill="#00007E"/>
<path d="M38.9323 15.3672C35.8517 15.3591 32.838 16.2652 30.2726 17.9708C27.7072 19.6764 25.7055 22.1047 24.521 24.9485C23.3365 27.7923 23.0223 30.9236 23.6184 33.946C24.2144 36.9684 25.6937 39.7461 27.8692 41.9273C30.0446 44.1085 32.8183 45.5952 35.8391 46.1992C38.86 46.8032 41.9921 46.4973 44.839 45.3203C47.6859 44.1433 50.1196 42.148 51.8319 39.5872C53.5443 37.0263 54.4583 34.0149 54.4583 30.9343C54.4583 26.8128 52.8239 22.8594 49.9134 19.9412C47.0028 17.023 43.0538 15.3781 38.9323 15.3672ZM38.9323 42.7636C36.591 42.7717 34.2999 42.0849 32.3491 40.79C30.3984 39.4951 28.8759 37.6505 27.9742 35.4897C27.0726 33.3289 26.8324 30.9492 27.2842 28.6518C27.736 26.3544 28.8594 24.2428 30.5121 22.5843C32.1649 20.9259 34.2725 19.7951 36.5683 19.3354C38.8641 18.8756 41.2447 19.1074 43.4086 20.0016C45.5725 20.8957 47.4225 22.4118 48.7241 24.358C50.0258 26.3042 50.7206 28.5929 50.7206 30.9343C50.7206 34.0645 49.48 37.0672 47.2704 39.2844C45.0609 41.5017 42.0625 42.7528 38.9323 42.7636ZM38.9323 42.7636C36.591 42.7717 34.2999 42.0849 32.3491 40.79C30.3984 39.4951 28.8759 37.6505 27.9742 35.4897C27.0726 33.3289 26.8324 30.9492 27.2842 28.6518C27.736 26.3544 28.8594 24.2428 30.5121 22.5843C32.1649 20.9259 34.2725 19.7951 36.5683 19.3354C38.8641 18.8756 41.2447 19.1074 43.4086 20.0016C45.5725 20.8957 47.4225 22.4118 48.7241 24.358C50.0258 26.3042 50.7206 28.5929 50.7206 30.9343C50.7206 34.0645 49.48 37.0672 47.2704 39.2844C45.0609 41.5017 42.0625 42.7528 38.9323 42.7636Z" fill="#150DCE"/>
<path d="M38.9319 46.8734C35.7782 46.8815 32.693 45.9538 30.0668 44.2076C27.4406 42.4614 25.3916 39.9752 24.179 37.0639C22.9665 34.1526 22.6451 30.947 23.2553 27.8528C23.8656 24.7587 25.3802 21.9152 27.6074 19.6823C29.8345 17.4494 32.6741 15.9275 35.7666 15.3092C38.8592 14.691 42.0656 15.0042 44.9801 16.2092C47.8945 17.4142 50.3859 19.4568 52.1389 22.0785C53.8918 24.7001 54.8276 27.7829 54.8276 30.9367C54.8276 35.1563 53.1542 39.2036 50.1744 42.1911C47.1945 45.1787 43.1515 46.8625 38.9319 46.8734ZM38.9319 15.7393C35.9261 15.7393 32.9879 16.6306 30.4887 18.3005C27.9895 19.9704 26.0416 22.3439 24.8914 25.1209C23.7411 27.8979 23.4401 30.9535 24.0265 33.9015C24.6129 36.8496 26.0604 39.5575 28.1858 41.6829C30.3112 43.8083 33.0191 45.2557 35.9671 45.8421C38.9151 46.4285 41.9707 46.1275 44.7477 44.9772C47.5247 43.827 49.8982 41.8791 51.5681 39.3799C53.238 36.8807 54.1293 33.9424 54.1293 30.9367C54.1293 26.9061 52.5282 23.0406 49.6781 20.1905C46.828 17.3404 42.9625 15.7393 38.9319 15.7393ZM38.9319 43.1357C36.5174 43.1438 34.1549 42.4353 32.1434 41.0998C30.1319 39.7643 28.5619 37.8619 27.6323 35.6336C26.7027 33.4052 26.4552 30.9511 26.9213 28.5821C27.3873 26.213 28.5459 24.0355 30.2504 22.3253C31.9548 20.6151 34.1283 19.4492 36.4958 18.9752C38.8633 18.5011 41.3182 18.7403 43.5497 19.6624C45.7811 20.5845 47.6888 22.148 49.031 24.155C50.3733 26.162 51.0899 28.5222 51.0899 30.9367C51.0899 34.165 49.8103 37.2616 47.5314 39.5482C45.2525 41.8348 42.1602 43.1248 38.9319 43.1357ZM27.4723 30.9367C27.4723 33.2032 28.1444 35.4188 29.4036 37.3033C30.6628 39.1879 32.4525 40.6567 34.5465 41.524C36.6405 42.3914 38.9447 42.6183 41.1676 42.1761C43.3906 41.734 45.4324 40.6425 47.0351 39.0399C48.6378 37.4372 49.7292 35.3953 50.1714 33.1723C50.6136 30.9494 50.3866 28.6452 49.5193 26.5513C48.6519 24.4573 47.1831 22.6675 45.2986 21.4083C43.4141 20.1491 41.1984 19.477 38.9319 19.477C37.427 19.477 35.9368 19.7734 34.5465 20.3493C33.1561 20.9252 31.8928 21.7694 30.8287 22.8335C29.7646 23.8976 28.9205 25.1609 28.3446 26.5513C27.7687 27.9416 27.4723 29.4318 27.4723 30.9367Z" fill="#00007E"/>
<path d="M27.4727 30.9362C27.4727 33.2027 28.1447 35.4183 29.4039 37.3029C30.6631 39.1874 32.4529 40.6562 34.5468 41.5236C36.6408 42.3909 38.945 42.6179 41.168 42.1757C43.3909 41.7335 45.4328 40.6421 47.0355 39.0394C48.6381 37.4368 49.7296 35.3948 50.1718 33.1719C50.614 30.9489 50.387 28.6448 49.5196 26.5508C48.6523 24.4568 47.1835 22.6671 45.2989 21.4079C43.4144 20.1487 41.1988 19.4766 38.9323 19.4766C37.4274 19.4766 35.9372 19.773 34.5468 20.3489C33.1565 20.9248 31.8932 21.7689 30.8291 22.833C29.7649 23.8971 28.9208 25.1604 28.3449 26.5508C27.769 27.9411 27.4727 29.4313 27.4727 30.9362Z" fill="#66C3CD"/>
</svg>
