<svg width="80" height="80" viewBox="0 0 80 80" fill="none" xmlns="http://www.w3.org/2000/svg">
<rect width="80" height="80" fill="white"/>
<path d="M39.9495 15C27.1901 15 27.9868 20.5332 27.9868 20.5332L28.0009 26.2659H40.177V27.9869H23.1648C23.1648 27.9869 15 27.061 15 39.9351C15 52.8097 22.1264 52.3531 22.1264 52.3531H26.3794V46.3788C26.3794 46.3788 26.1501 39.2524 33.3921 39.2524H45.4686C45.4686 39.2524 52.2536 39.362 52.2536 32.695V21.6714C52.2536 21.6714 53.284 15 39.9495 15ZM33.2356 18.8551C33.5234 18.8548 33.8083 18.9113 34.0742 19.0213C34.3401 19.1313 34.5816 19.2926 34.7851 19.4961C34.9886 19.6995 35.1499 19.9411 35.2599 20.207C35.3699 20.4729 35.4264 20.7578 35.4261 21.0455C35.4264 21.3333 35.3699 21.6182 35.2599 21.8841C35.1499 22.15 34.9886 22.3916 34.7851 22.595C34.5816 22.7985 34.3401 22.9598 34.0742 23.0698C33.8083 23.1798 33.5234 23.2363 33.2356 23.236C32.9479 23.2363 32.6629 23.1798 32.3971 23.0698C32.1312 22.9598 31.8896 22.7985 31.6861 22.595C31.4827 22.3916 31.3214 22.15 31.2114 21.8841C31.1014 21.6182 31.0449 21.3333 31.0451 21.0455C31.0449 20.7578 31.1014 20.4729 31.2114 20.207C31.3214 19.9411 31.4827 19.6995 31.6861 19.4961C31.8896 19.2926 32.1312 19.1313 32.3971 19.0213C32.6629 18.9113 32.9479 18.8548 33.2356 18.8551Z" fill="url(#paint0_linear_1098_2777)"/>
<path d="M40.3119 64.9958C53.0714 64.9958 52.2747 59.4625 52.2747 59.4625L52.2605 53.7301H40.0842V52.009H57.0965C57.0965 52.009 65.2613 52.935 65.2613 40.0604C65.2613 27.186 58.1349 27.6426 58.1349 27.6426H53.8818V33.6167C53.8818 33.6167 54.1111 40.7432 46.8692 40.7432H34.7927C34.7927 40.7432 28.0077 40.6335 28.0077 47.3008V58.3246C28.0077 58.3246 26.9774 64.9958 40.3117 64.9958H40.3119ZM47.0258 61.1411C46.7381 61.1414 46.4532 61.0849 46.1873 60.9749C45.9214 60.8649 45.6798 60.7036 45.4764 60.5001C45.2729 60.2967 45.1116 60.0551 45.0016 59.7892C44.8916 59.5233 44.8351 59.2384 44.8354 58.9507C44.8351 58.6629 44.8916 58.3779 45.0015 58.112C45.1115 57.8461 45.2728 57.6045 45.4763 57.401C45.6798 57.1976 45.9213 57.0362 46.1872 56.9262C46.4531 56.8162 46.7381 56.7597 47.0258 56.76C47.3136 56.7597 47.5985 56.8162 47.8644 56.9262C48.1303 57.0362 48.3719 57.1975 48.5753 57.401C48.7788 57.6044 48.9401 57.846 49.0501 58.1119C49.1601 58.3778 49.2166 58.6627 49.2163 58.9505C49.2166 59.2382 49.1601 59.5231 49.0501 59.789C48.9401 60.0549 48.7788 60.2965 48.5753 60.4999C48.3719 60.7034 48.1303 60.8647 47.8644 60.9747C47.5985 61.0847 47.3136 61.1412 47.0258 61.1409V61.1411Z" fill="url(#paint1_linear_1098_2777)"/>
<defs>
<linearGradient id="paint0_linear_1098_2777" x1="19.8301" y1="19.4972" x2="44.738" y2="44.1566" gradientUnits="userSpaceOnUse">
<stop stop-color="#387EB8"/>
<stop offset="1" stop-color="#366994"/>
</linearGradient>
<linearGradient id="paint1_linear_1098_2777" x1="35.1186" y1="35.3279" x2="61.8669" y2="60.6139" gradientUnits="userSpaceOnUse">
<stop stop-color="#FFE052"/>
<stop offset="1" stop-color="#FFC331"/>
</linearGradient>
</defs>
</svg>
