<svg width="80" height="80" viewBox="0 0 80 80" fill="none" xmlns="http://www.w3.org/2000/svg">
<rect width="80" height="80" fill="white"/>
<path d="M29.4273 18C28.7496 18.0097 28.0856 18.1928 27.4988 18.532C26.912 18.8712 26.4219 19.3551 26.0752 19.9375L15.5023 38.3062C15.1729 38.8996 15 39.5671 15 40.2458C15 40.9245 15.1729 41.592 15.5023 42.1854L26.0752 60.5521C26.7544 61.7187 28.0752 62.4875 29.4273 62.4896H50.5731C51.2509 62.4799 51.9148 62.2968 52.5016 61.9576C53.0884 61.6184 53.5786 61.1345 53.9252 60.5521L64.4981 42.1854C64.8276 41.592 65.0005 40.9245 65.0005 40.2458C65.0005 39.5671 64.8276 38.8996 64.4981 38.3062L53.9252 19.9396C53.5786 19.3571 53.0884 18.8733 52.5016 18.5341C51.9148 18.1949 51.2509 18.0117 50.5731 18.0021L29.4273 18ZM29.619 28.7437C29.6488 28.7408 29.6788 28.7408 29.7086 28.7437H33.3544C33.4357 28.7461 33.5152 28.7691 33.5851 28.8107C33.6551 28.8523 33.7134 28.9109 33.7544 28.9812L39.9419 40.0062C39.9731 40.0615 39.9929 40.1224 40.0002 40.1854C40.0075 40.1224 40.0273 40.0615 40.0586 40.0062L46.2315 28.9812C46.2737 28.9093 46.334 28.8496 46.4063 28.8079C46.4786 28.7663 46.5605 28.7442 46.644 28.7437H50.2919C50.6148 28.7479 50.8565 29.1542 50.7065 29.4396L44.6648 40.2437L50.7065 51.0333C50.8731 51.3208 50.6231 51.7458 50.2919 51.7417H46.6461C46.5607 51.7405 46.4772 51.7167 46.404 51.6728C46.3308 51.6289 46.2706 51.5664 46.2294 51.4917L40.0586 40.4667C40.0271 40.4108 40.0072 40.3492 40.0002 40.2854C39.9929 40.3484 39.9731 40.4094 39.9419 40.4646L33.7544 51.4896C33.7148 51.5621 33.6572 51.6232 33.5871 51.667C33.5171 51.7107 33.4369 51.7357 33.3544 51.7396H29.7086C29.3752 51.7437 29.1294 51.3187 29.294 51.0312L35.3356 40.2437L29.294 29.4396C29.1481 29.1792 29.3252 28.8 29.619 28.7437Z" fill="#3498DB"/>
</svg>
