<svg width="80" height="80" viewBox="0 0 80 80" fill="none" xmlns="http://www.w3.org/2000/svg">
<path d="M29.6676 50.6555C24.654 50.6555 19.4372 49.6054 16.7949 47.6406V54.9238C16.7949 56.9225 22.2827 59.1921 29.6676 59.1921C37.0524 59.1921 42.5402 56.9225 42.5402 54.9238V47.6406C39.8979 49.6054 34.6811 50.6555 29.6676 50.6555Z" fill="#2892FF"/>
<path d="M29.6676 30.0618C24.654 30.0618 19.4372 29.0116 16.7949 27.0469V34.3301C16.7949 36.3287 22.2827 38.5984 29.6676 38.5984C37.0524 38.5984 42.5402 36.3287 42.5402 34.3301V27.0469C39.8979 29.0116 34.6811 30.0618 29.6676 30.0618Z" fill="#2892FF"/>
<path d="M29.6676 40.3587C24.654 40.3587 19.4372 39.3085 16.7949 37.3438V44.6269C16.7949 46.6256 22.2827 48.8952 29.6676 48.8952C37.0524 48.8952 42.5402 46.6256 42.5402 44.6269V37.3438C39.8979 39.3085 34.6811 40.3587 29.6676 40.3587Z" fill="#2892FF"/>
<path d="M29.6676 28.2944C36.7769 28.2944 42.5402 26.3834 42.5402 24.0261C42.5402 21.6688 36.7769 19.7578 29.6676 19.7578C22.5582 19.7578 16.7949 21.6688 16.7949 24.0261C16.7949 26.3834 22.5582 28.2944 29.6676 28.2944Z" fill="#2892FF"/>
<path d="M53.1775 40.3573H58.3943C58.5868 41.0645 59.0057 41.6892 59.5869 42.1358C60.1681 42.5824 60.8795 42.8263 61.6125 42.8302C62.0557 42.8346 62.4955 42.7512 62.9063 42.5847C63.3171 42.4182 63.6908 42.1718 64.0058 41.86C64.3208 41.5481 64.5709 41.1769 64.7415 40.7678C64.9122 40.3587 65 39.9198 65 39.4765C65 39.0333 64.9122 38.5944 64.7415 38.1852C64.5709 37.7761 64.3208 37.4049 64.0058 37.0931C63.6908 36.7812 63.3171 36.5349 62.9063 36.3684C62.4955 36.2018 62.0557 36.1184 61.6125 36.1229C60.8795 36.1268 60.1681 36.3707 59.5869 36.8172C59.0057 37.2638 58.5868 37.8885 58.3943 38.5957H53.1775V22.9792H58.3943C58.5868 23.6865 59.0057 24.3112 59.5869 24.7578C60.1681 25.2044 60.8795 25.4482 61.6125 25.4521C62.5109 25.4521 63.3725 25.0952 64.0078 24.4599C64.6431 23.8247 65 22.963 65 22.0646C64.9911 21.1721 64.6302 20.3191 63.9959 19.6911C63.3616 19.0631 62.5051 18.7109 61.6125 18.7109C60.8795 18.7148 60.1681 18.9587 59.5869 19.4053C59.0057 19.8519 58.5868 20.4766 58.3943 21.1839H52.2629C52.0293 21.1839 51.8053 21.2766 51.6401 21.4418C51.4749 21.607 51.3821 21.831 51.3821 22.0646V38.5957L46.0976 38.6974C45.9819 38.7017 45.8682 38.7289 45.763 38.7772C45.6578 38.8256 45.5632 38.8942 45.4845 38.9791C45.4059 39.0641 45.3447 39.1637 45.3046 39.2723C45.2645 39.3809 45.2461 39.4963 45.2507 39.612C45.2507 39.8456 45.3435 40.0696 45.5087 40.2348C45.6738 40.4 45.8979 40.4928 46.1315 40.4928H46.1653L51.3821 40.3912V57.7353C51.382 57.9721 51.4737 58.1998 51.6379 58.3704C51.8022 58.541 52.0262 58.6412 52.2629 58.65H58.3943C58.5868 59.3572 59.0057 59.9819 59.5869 60.4285C60.1681 60.8751 60.8795 61.119 61.6125 61.1228C62.5109 61.1228 63.3725 60.766 64.0078 60.1307C64.6431 59.4954 65 58.6337 65 57.7353C64.9911 56.8428 64.6302 55.9898 63.9959 55.3618C63.3616 54.7339 62.5051 54.3816 61.6125 54.3817C60.8795 54.3856 60.1681 54.6295 59.5869 55.0761C59.0057 55.5227 58.5868 56.1473 58.3943 56.8546H53.1775V40.3573ZM63.2046 39.4765C63.2046 39.8988 63.0369 40.3038 62.7383 40.6023C62.4397 40.9009 62.0347 41.0687 61.6125 41.0687C61.1961 41.0598 60.7998 40.8881 60.5085 40.5905C60.2172 40.2929 60.0541 39.893 60.0542 39.4765C60.0541 39.0601 60.2172 38.6601 60.5085 38.3625C60.7998 38.0649 61.1961 37.8932 61.6125 37.8844C62.0347 37.8844 62.4397 38.0521 62.7383 38.3507C63.0369 38.6493 63.2046 39.0543 63.2046 39.4765ZM63.2046 22.0646C63.2046 22.4869 63.0369 22.8918 62.7383 23.1904C62.4397 23.489 62.0347 23.6567 61.6125 23.6567C61.1961 23.6479 60.7998 23.4762 60.5085 23.1786C60.2172 22.881 60.0541 22.4811 60.0542 22.0646C60.0629 21.654 60.2298 21.2627 60.5202 20.9723C60.8106 20.6819 61.2019 20.515 61.6125 20.5063C62.0289 20.5063 62.4289 20.6693 62.7265 20.9606C63.0241 21.2519 63.1957 21.6482 63.2046 22.0646ZM63.2046 57.7353C63.2046 58.1576 63.0369 58.5626 62.7383 58.8612C62.4397 59.1597 62.0347 59.3275 61.6125 59.3275C61.1961 59.3186 60.7998 59.147 60.5085 58.8493C60.2172 58.5517 60.0541 58.1518 60.0542 57.7353C60.0629 57.3247 60.2298 56.9334 60.5202 56.643C60.8106 56.3527 61.2019 56.1857 61.6125 56.1771C62.0289 56.177 62.4289 56.34 62.7265 56.6313C63.0241 56.9226 63.1957 57.3189 63.2046 57.7353Z" fill="#081480"/>
<path d="M60.0547 22.0661C60.0546 22.4825 60.2177 22.8825 60.509 23.1801C60.8003 23.4777 61.1966 23.6493 61.6129 23.6582C62.0352 23.6582 62.4402 23.4905 62.7387 23.1919C63.0373 22.8933 63.2051 22.4883 63.2051 22.0661C63.1962 21.6497 63.0246 21.2534 62.727 20.9621C62.4293 20.6708 62.0294 20.5077 61.6129 20.5078C61.2024 20.5165 60.811 20.6834 60.5206 20.9738C60.2303 21.2641 60.0633 21.6555 60.0547 22.0661Z" fill="#66C3CD"/>
<path d="M61.6127 41.0671C62.492 41.0671 63.2048 40.3543 63.2048 39.475C63.2048 38.5956 62.492 37.8828 61.6127 37.8828C60.7333 37.8828 60.0205 38.5956 60.0205 39.475C60.0205 40.3543 60.7333 41.0671 61.6127 41.0671Z" fill="#66C3CD"/>
<path d="M61.6127 59.364C62.492 59.364 63.2048 58.6511 63.2048 57.7718C63.2048 56.8925 62.492 56.1797 61.6127 56.1797C60.7333 56.1797 60.0205 56.8925 60.0205 57.7718C60.0205 58.6511 60.7333 59.364 61.6127 59.364Z" fill="#66C3CD"/>
<path d="M29.668 18C28.1047 17.9992 26.5431 18.101 24.9932 18.3049L22.7575 18.6775C19.5732 19.355 16.897 20.4729 15.7114 22.065C15.3501 22.6065 15.1076 23.2184 15 23.8604V54.9241C15 58.8537 22.5542 60.9539 29.668 60.9539C36.7818 60.9539 44.336 58.8537 44.336 54.9241V24.0298C44.336 20.1003 36.7818 18 29.668 18ZM42.5406 54.9241C42.5406 56.9228 37.0528 59.1924 29.668 59.1924C22.2832 59.1924 16.7954 56.9228 16.7954 54.9241V47.6409C19.4376 49.6057 24.6544 50.6558 29.668 50.6558C34.6815 50.6558 39.8983 49.6057 42.5406 47.6409V54.9241ZM42.5406 44.626C42.5406 46.6247 37.0528 48.8943 29.668 48.8943C22.2832 48.8943 16.7954 46.6247 16.7954 44.626V37.3428C19.4376 39.3076 24.6544 40.3577 29.668 40.3577C34.6815 40.3577 39.8983 39.3076 42.5406 37.3428V44.626ZM42.5406 34.3279C42.5406 36.3265 37.0528 38.5962 29.668 38.5962C22.2832 38.5962 16.7954 36.3265 16.7954 34.3279V27.0447C19.4376 29.0095 24.6544 30.0596 29.668 30.0596C34.6815 30.0596 39.8983 29.0095 42.5406 27.0447V34.3279ZM29.668 28.2981C22.2832 28.2981 16.7954 26.0284 16.7954 24.0298C16.7954 22.0311 22.2832 19.7615 29.668 19.7615C37.0528 19.7615 42.5406 22.0311 42.5406 24.0298C42.5406 26.0284 37.0528 28.2981 29.668 28.2981Z" fill="#081480"/>
</svg>
