<svg width="80" height="80" viewBox="0 0 80 80" fill="none" xmlns="http://www.w3.org/2000/svg">
<rect width="80" height="80" fill="white"/>
<path d="M62.3438 35.14C62.3438 32.1445 58.5926 29.3056 52.8406 27.545C54.1681 21.6828 53.5783 17.0191 50.9786 15.5255C50.3797 15.1752 49.6793 15.0093 48.914 15.0093V17.0652C49.338 17.0652 49.6793 17.1474 49.9649 17.3047C51.2184 18.0237 51.7623 20.7613 51.3382 24.2822C51.2371 25.1487 51.071 26.0612 50.8681 26.9923C49.0615 26.5499 47.089 26.2087 45.015 25.9875C43.7708 24.2822 42.4803 22.7338 41.1805 21.3788C44.1856 18.5859 47.0062 17.0558 48.9233 17.0558V15C46.3883 15 43.0702 16.8067 39.7151 19.9406C36.3581 16.825 33.0413 15.037 30.5058 15.037V17.0928C32.4139 17.0928 35.2435 18.6136 38.2483 21.3882C36.8756 22.8323 35.6037 24.3691 34.4415 25.9875C32.3582 26.2087 30.386 26.5497 28.5794 27.0017C28.3672 26.0801 28.2107 25.186 28.0999 24.3285C27.6668 20.8076 28.2014 18.07 29.4458 17.3417C29.7221 17.1759 30.0818 17.1022 30.5058 17.1022V15.0463C29.7314 15.0463 29.0308 15.2124 28.4226 15.5627C25.8322 17.0556 25.2519 21.7102 26.5882 27.5543C20.8552 29.3239 17.1221 32.1539 17.1221 35.14C17.1221 38.136 20.8736 40.975 26.6252 42.7354C25.298 48.5978 25.8879 53.2612 28.4873 54.7548C29.0865 55.1051 29.7868 55.271 30.5612 55.271C33.0959 55.271 36.4143 53.4643 39.7694 50.3304C43.1245 53.446 46.4429 55.2343 48.9776 55.2343C49.7517 55.2343 50.4523 55.0698 51.0608 54.7178C53.6506 53.2248 54.2315 48.5698 52.8949 42.7263C58.6098 40.9657 62.3427 38.1267 62.3427 35.14H62.3438ZM50.3418 28.9923C50.0006 30.1814 49.5768 31.4069 49.0974 32.633C48.7194 31.8956 48.323 31.1583 47.8913 30.4207C47.4672 29.6836 47.0141 28.9646 46.5638 28.2639C47.8726 28.4575 49.1355 28.6973 50.3432 28.9923H50.3418ZM46.1205 38.8087C45.4015 40.0532 44.6644 41.233 43.9002 42.3299C42.5267 42.4497 41.135 42.5141 39.7337 42.5141C38.3418 42.5141 36.9501 42.4497 35.5859 42.339C34.8208 41.2425 34.0772 40.075 33.3552 38.8364C32.6548 37.6303 32.0189 36.4028 31.4381 35.168C32.0096 33.9328 32.6548 32.6974 33.3461 31.49C34.0651 30.2458 34.8025 29.066 35.5664 27.969C36.94 27.8492 38.3317 27.7845 39.7329 27.7845C41.1249 27.7845 42.5168 27.8492 43.8808 27.9597C44.6457 29.0561 45.3893 30.2237 46.1115 31.4625C46.8121 32.6686 47.448 33.8958 48.0286 35.131C47.4475 36.3661 46.8116 37.6013 46.12 38.8087H46.1205ZM49.0979 37.6106C49.5818 38.8117 50.0059 40.0345 50.3701 41.279C49.1623 41.5739 47.8905 41.8228 46.5723 42.0164C47.024 41.3067 47.4768 40.5786 47.8998 39.8317C48.3236 39.0946 48.7199 38.3479 49.0979 37.6114V37.6106ZM39.7507 47.4457C38.8467 46.5071 37.9915 45.5227 37.1884 44.4965C38.0181 44.5332 38.8659 44.5609 39.7231 44.5609C40.5895 44.5609 41.4469 44.5426 42.2857 44.4965C41.4945 45.5245 40.6482 46.509 39.7507 47.4457ZM32.893 42.0164C31.5842 41.8228 30.3213 41.583 29.1139 41.288C29.4549 40.0992 29.8792 38.8731 30.3583 37.6473C30.7363 38.3847 31.1327 39.122 31.5644 39.8594C31.9961 40.5967 32.4416 41.3168 32.893 42.0164ZM39.7047 22.8349C40.609 23.7734 41.4643 24.758 42.2671 25.7846C41.4376 25.7476 40.5895 25.7199 39.7324 25.7199C38.8659 25.7199 38.0088 25.7383 37.17 25.7846C37.9611 24.7564 38.8073 23.7718 39.7047 22.8349ZM32.8837 28.2639C32.4323 28.9736 31.9791 29.7019 31.5567 30.4483C31.1327 31.186 30.7363 31.9233 30.3583 32.6607C29.8744 31.4592 29.4505 30.2364 29.0865 28.9923C30.2939 28.7077 31.5658 28.4575 32.8837 28.2639ZM24.542 39.804C21.2801 38.4121 19.1694 36.587 19.1694 35.1397C19.1694 33.6924 21.2801 31.8586 24.542 30.476C25.3347 30.1348 26.2012 29.8308 27.0953 29.544C27.6208 31.3507 28.3121 33.2311 29.1692 35.1576C28.3214 37.0747 27.6392 38.9458 27.123 40.7434C26.2105 40.4575 25.344 40.1442 24.542 39.8032V39.804ZM29.5012 52.9756C28.2474 52.2566 27.7036 49.519 28.1279 45.9978C28.229 45.1316 28.3949 44.2191 28.5977 43.288C30.4044 43.7306 32.3769 44.0716 34.4508 44.2928C35.695 45.9978 36.9855 47.5465 38.2853 48.9015C35.2805 51.6944 32.4597 53.2245 30.5425 53.2245C30.1278 53.2157 29.7778 53.1326 29.5012 52.9759V52.9756ZM51.3648 45.952C51.7979 49.473 51.2634 52.2105 50.0189 52.9389C49.7426 53.1033 49.3833 53.1784 48.9589 53.1784C47.0511 53.1784 44.2212 51.6577 41.2164 48.8831C42.5892 47.4389 43.8611 45.9021 45.0233 44.2835C47.1065 44.0623 49.0801 43.7213 50.8854 43.2693C51.0976 44.2013 51.2634 45.0946 51.3648 45.9518V45.952ZM54.9135 39.804C54.1207 40.145 53.2543 40.4493 52.3601 40.736C51.8349 38.9293 51.1436 37.0492 50.2865 35.1225C51.1346 33.2053 51.8165 31.3343 52.3327 29.5369C53.2452 29.8225 54.1114 30.1358 54.9228 30.4771C58.1847 31.8688 60.2953 33.6938 60.2953 35.1408C60.286 36.5881 58.1754 38.4225 54.9124 39.8051L54.9135 39.804Z" fill="#61DAFB"/>
<path d="M39.723 39.3469C40.5561 39.347 41.3706 39.1 42.0634 38.6371C42.7562 38.1743 43.2962 37.5164 43.615 36.7467C43.9339 35.9769 44.0174 35.1299 43.8549 34.3128C43.6923 33.4956 43.2912 32.745 42.702 32.1558C42.1129 31.5666 41.3623 31.1654 40.5452 31.0028C39.728 30.8403 38.881 30.9237 38.1112 31.2425C37.3415 31.5613 36.6835 32.1013 36.2207 32.794C35.7578 33.4868 35.5107 34.3012 35.5107 35.1344C35.5107 35.6876 35.6196 36.2354 35.8313 36.7465C36.0429 37.2575 36.3532 37.7219 36.7443 38.1131C37.1355 38.5043 37.5999 38.8146 38.1109 39.0263C38.622 39.238 39.1698 39.3469 39.723 39.3469ZM19.1753 62.5181H17.7848V64.9122H17V58.9914H18.9599C19.6265 58.9914 20.1388 59.1432 20.4968 59.4469C20.8548 59.7507 21.0351 60.1927 21.0377 60.7731C21.0377 61.1417 20.9371 61.4629 20.7361 61.7369C20.5351 62.0108 20.2586 62.2154 19.9067 62.3506L21.2972 64.8634V64.9122H20.4596L19.1753 62.5181ZM17.7848 61.8799H18.9843C19.3719 61.8799 19.6795 61.7794 19.9072 61.5784C20.1349 61.3774 20.2501 61.109 20.2529 60.7731C20.2529 60.4076 20.1432 60.1271 19.9239 59.9316C19.707 59.7364 19.3926 59.6374 18.9807 59.6347H17.7848V61.8799ZM23.8426 64.9944C23.2462 64.9944 22.7609 64.7992 22.3868 64.4089C22.0126 64.0158 21.8255 63.4914 21.8257 62.8355V62.6984C21.8257 62.2621 21.908 61.8731 22.0724 61.5316C22.2369 61.19 22.47 60.9217 22.7717 60.7265C23.061 60.5348 23.4005 60.4329 23.7475 60.4337C24.3197 60.4337 24.7642 60.6221 25.0811 60.999C25.3979 61.3758 25.5566 61.9149 25.5569 62.6162V62.9292H22.5784C22.5894 63.3631 22.7155 63.7142 22.9567 63.9827C23.2007 64.248 23.5097 64.3808 23.8837 64.3809C24.1494 64.3809 24.3743 64.3268 24.5583 64.2184C24.7459 64.1071 24.9102 63.9607 25.0424 63.7872L25.5032 64.1447C25.1344 64.7112 24.5815 64.9944 23.8445 64.9944H23.8426ZM23.7489 61.0505C23.605 61.0478 23.4622 61.0762 23.3303 61.1337C23.1983 61.1913 23.0804 61.2766 22.9844 61.3838C22.7786 61.6031 22.6512 61.9121 22.6023 62.3109H24.8061V62.2533C24.7844 61.8712 24.6814 61.5757 24.4972 61.3668C24.313 61.1579 24.0636 61.0525 23.7489 61.0505ZM29.1489 64.9122C29.1056 64.8252 29.0704 64.6707 29.0433 64.4486C28.6934 64.8125 28.2759 64.9944 27.7909 64.9944C27.3573 64.9944 27.0009 64.8724 26.7219 64.6285C26.4456 64.3818 26.3073 64.07 26.3072 63.6932C26.3072 63.2351 26.4808 62.88 26.828 62.628C27.1776 62.3722 27.6681 62.2442 28.2997 62.2442H29.0315V61.8989C29.0315 61.6361 28.953 61.4274 28.7958 61.2728C28.6385 61.1155 28.4067 61.0369 28.1004 61.0371C27.8321 61.0371 27.6072 61.1048 27.4255 61.2402C27.2439 61.3756 27.1531 61.5401 27.1531 61.7336H26.3962C26.3962 61.5143 26.4735 61.3028 26.6281 61.099C26.7827 60.8953 26.9942 60.7327 27.2624 60.6114C27.5405 60.4901 27.8411 60.4291 28.1445 60.4324C28.6516 60.4324 29.0487 60.5603 29.3358 60.8161C29.6233 61.0681 29.7724 61.4163 29.7832 61.8608V63.8856C29.7832 64.2897 29.8347 64.6108 29.9378 64.8491V64.9122H29.1489ZM27.9008 64.339C28.1368 64.3389 28.3684 64.2757 28.5716 64.1559C28.7828 64.0338 28.936 63.8753 29.031 63.6803V62.7777H28.4414C27.5198 62.7777 27.059 63.0473 27.059 63.5866C27.059 63.8225 27.1376 64.0069 27.2948 64.1397C27.4519 64.2726 27.654 64.339 27.9008 64.339ZM32.7268 64.3796C32.9827 64.3839 33.2319 64.2974 33.4302 64.1356C33.6312 63.9728 33.7423 63.7695 33.7635 63.5257H34.4762C34.4597 63.7855 34.3694 64.0351 34.2158 64.2453C34.0504 64.4776 33.8296 64.665 33.5733 64.7902C33.3118 64.9248 33.0218 64.9946 32.7277 64.9936C32.1286 64.9936 31.6516 64.7943 31.2965 64.3957C30.9444 63.9937 30.7682 63.4462 30.768 62.7533V62.6272C30.768 62.199 30.8466 61.8182 31.0038 61.4847C31.1609 61.1512 31.3859 60.8923 31.6786 60.7081C31.9741 60.5236 32.3224 60.4314 32.7235 60.4315C33.2169 60.4315 33.6263 60.5793 33.9516 60.8748C34.2768 61.1703 34.4517 61.554 34.4762 62.0261H33.7635C33.742 61.7412 33.6336 61.508 33.4384 61.3265C33.2433 61.1451 33.0047 61.053 32.7227 61.0502C32.3406 61.0502 32.0438 61.1885 31.8324 61.4649C31.6237 61.7391 31.5193 62.1362 31.5191 62.6562V62.7985C31.5191 63.3054 31.6235 63.6957 31.8324 63.9692C32.0413 64.2428 32.3394 64.3798 32.7268 64.3804V64.3796ZM36.3415 59.4478V60.513H37.1639V61.0943H36.3415V63.8226C36.3415 63.9986 36.3781 64.1313 36.4512 64.2209C36.5243 64.3104 36.649 64.3538 36.8253 64.3511C36.9454 64.3466 37.0648 64.3303 37.1817 64.3023V64.9122C36.9937 64.9653 36.7995 64.993 36.6041 64.9944C36.2684 64.9944 36.0151 64.8927 35.844 64.6893C35.673 64.4859 35.5876 64.1973 35.588 63.8234V61.0952H34.7868V60.5138H35.5905V59.4486L36.3415 59.4478ZM44.7781 64.9122H43.9933L41.0132 60.3504V64.9122H40.2284V58.9914H41.0132L44.001 63.5737V58.993H44.7776L44.7781 64.9122ZM48.7626 64.9122C48.7193 64.8252 48.6841 64.6707 48.6571 64.4486C48.3073 64.8125 47.8898 64.9944 47.4046 64.9944C46.971 64.9944 46.6147 64.8724 46.3356 64.6285C46.0593 64.3818 45.9211 64.07 45.9209 63.6932C45.9209 63.2351 46.0945 62.88 46.4417 62.628C46.7913 62.3722 47.2818 62.2442 47.9134 62.2442H48.6453V61.8989C48.6453 61.6361 48.5666 61.4274 48.4093 61.2728C48.2521 61.1155 48.0204 61.0369 47.7141 61.0371C47.4458 61.0371 47.2209 61.1048 47.0393 61.2402C46.8576 61.3756 46.7668 61.5401 46.7668 61.7336H46.0105C46.0105 61.5143 46.0878 61.3028 46.2424 61.099C46.397 60.8953 46.6084 60.7327 46.8767 60.6114C47.1548 60.4901 47.4554 60.4291 47.7588 60.4324C48.2657 60.4324 48.6628 60.5603 48.9501 60.8161C49.2373 61.0681 49.3865 61.4163 49.3974 61.8608V63.8856C49.3974 64.2897 49.449 64.6108 49.552 64.8491V64.9122H48.7626ZM47.5143 64.3398C47.7502 64.3397 47.9818 64.2765 48.185 64.1567C48.3965 64.0346 48.5496 63.8761 48.6444 63.6811V62.7785H48.0548C47.1333 62.7785 46.6725 63.0481 46.6725 63.5874C46.6725 63.8233 46.7511 64.0077 46.9082 64.1405C47.0654 64.2734 47.2674 64.3398 47.5143 64.3398ZM51.5963 59.4486V60.5138H52.4187V61.0952H51.5963V63.8234C51.5963 63.9994 51.6329 64.1321 51.706 64.2217C51.7791 64.3112 51.9038 64.3546 52.0801 64.3519C52.2007 64.3475 52.3205 64.3312 52.4379 64.3031V64.9122C52.2499 64.9653 52.0556 64.993 51.8603 64.9944C51.5246 64.9944 51.2712 64.8927 51.1002 64.6893C50.9292 64.4859 50.8438 64.1973 50.8442 63.8234V61.0952H50.0432V60.5138H50.8442V59.4486H51.5963ZM54.1182 64.913H53.366V60.5138H54.1182V64.913ZM53.3041 59.3477C53.3009 59.2347 53.34 59.1245 53.4137 59.0388C53.4895 58.9549 53.6006 58.913 53.747 58.913C53.8934 58.913 54.0045 58.9549 54.0803 59.0388C54.1565 59.1234 54.1973 59.2339 54.1944 59.3477C54.1978 59.4604 54.1569 59.57 54.0803 59.6528C54.0047 59.7343 53.8936 59.775 53.747 59.7748C53.6005 59.7746 53.4893 59.7339 53.4137 59.6528C53.3395 59.5688 53.3003 59.4597 53.3041 59.3477ZM56.7765 63.8925L57.8661 60.5138H58.6336L57.0569 64.9122H56.4835L54.8901 60.513H55.6576L56.7765 63.8925ZM61.1269 64.9944C60.5304 64.9944 60.0453 64.7992 59.6714 64.4089C59.2971 64.0158 59.1101 63.4914 59.1103 62.8355V62.6984C59.1103 62.2621 59.1925 61.8731 59.357 61.5316C59.5214 61.19 59.7545 60.9217 60.0562 60.7265C60.3454 60.5348 60.6848 60.433 61.0318 60.4337C61.6038 60.4337 62.0484 60.6221 62.3656 60.999C62.6828 61.3758 62.8415 61.9149 62.8415 62.6162V62.9292H59.8624C59.8734 63.3631 59.9995 63.7142 60.2407 63.9827C60.4845 64.248 60.7934 64.3808 61.1675 64.3809C61.4332 64.3809 61.6581 64.3268 61.8423 64.2184C62.0299 64.1071 62.1942 63.9607 62.3264 63.7872L62.7858 64.1452C62.417 64.7117 61.8641 64.9949 61.1269 64.9949V64.9944ZM61.0332 61.0505C60.8893 61.0478 60.7465 61.0762 60.6147 61.1337C60.4828 61.1913 60.3648 61.2766 60.2689 61.3838C60.0628 61.6031 59.9354 61.9121 59.8868 62.3109H62.0904V62.2533C62.0687 61.8712 61.9657 61.5757 61.7815 61.3668C61.5973 61.1579 61.3478 61.0523 61.0332 61.0499V61.0505Z" fill="#61DAFB"/>
</svg>
