<svg width="80" height="80" viewBox="0 0 80 80" fill="none" xmlns="http://www.w3.org/2000/svg">
<rect width="80" height="80" fill="white"/>
<path d="M27.6995 47.6975L20 39.998L45.0001 15H60.397L27.6995 47.6975ZM60.397 38.0681H45.0001L39.2325 43.8357L46.932 51.5351" fill="#42A5F5" fill-opacity="0.8"/>
<path d="M39.2324 59.2365L45 65.0041H60.3969L46.9319 51.5391" fill="#0D47A1"/>
<path d="M31.5518 51.5409L39.2391 43.8516L46.9265 51.5389L39.2391 59.2283L31.5518 51.5409Z" fill="#42A5F5"/>
<path d="M39.2393 59.2264L46.9266 51.5391L47.9997 52.6121L40.3123 60.2995L39.2393 59.2264Z" fill="url(#paint0_linear_1098_2839)"/>
<path d="M39.2324 59.2307L50.6563 55.284L46.9319 51.5312" fill="url(#paint1_linear_1098_2839)"/>
<defs>
<linearGradient id="paint0_linear_1098_2839" x1="43.0844" y1="55.3813" x2="44.1576" y2="56.4544" gradientUnits="userSpaceOnUse">
<stop offset="0.2" stop-opacity="0.15"/>
<stop offset="0.85" stop-color="#616161" stop-opacity="0.01"/>
</linearGradient>
<linearGradient id="paint1_linear_1098_2839" x1="39.2351" y1="55.3812" x2="50.6589" y2="55.3812" gradientUnits="userSpaceOnUse">
<stop offset="0.2" stop-opacity="0.55"/>
<stop offset="0.85" stop-color="#616161" stop-opacity="0.01"/>
</linearGradient>
</defs>
</svg>
