<svg width="260" height="260" viewBox="0 0 260 260" fill="none" xmlns="http://www.w3.org/2000/svg">
<g filter="url(#filter0_d_380_4078)">
<rect x="40" y="36" width="180" height="180" fill="white"/>
<rect x="40.5" y="36.5" width="179" height="179" stroke="#D9D9D9"/>
</g>
<path d="M174.149 105.196C174.148 103.532 173.792 102.06 173.072 100.798C172.365 99.5561 171.306 98.5155 169.885 97.6927C158.156 90.93 146.417 84.1881 134.692 77.4185C131.531 75.5937 128.466 75.6605 125.329 77.5116C120.661 80.2643 97.2884 93.6549 90.3238 97.6889C87.4555 99.3497 86.0599 101.891 86.0592 105.193C86.0547 118.793 86.0592 132.394 86.0547 145.994C86.0547 147.622 86.3963 149.065 87.0846 150.308C87.7923 151.587 88.8664 152.657 90.32 153.498C97.285 157.532 120.66 170.922 125.328 173.675C128.466 175.528 131.531 175.594 134.693 173.769C146.418 166.999 158.158 160.257 169.889 153.494C171.342 152.653 172.416 151.583 173.124 150.305C173.811 149.061 174.154 147.619 174.154 145.99C174.154 145.99 174.154 118.797 174.149 105.196Z" fill="#A179DC"/>
<path d="M130.239 125.461L87.085 150.308C87.7926 151.587 88.8667 152.657 90.3203 153.498C97.2853 157.532 120.661 170.922 125.328 173.675C128.467 175.527 131.531 175.594 134.693 173.768C146.418 166.999 158.159 160.257 169.889 153.494C171.342 152.653 172.417 151.583 173.124 150.305L130.239 125.461Z" fill="#280068"/>
<path d="M174.149 105.197C174.149 103.532 173.793 102.061 173.073 100.799L130.239 125.462L173.124 150.306C173.812 149.062 174.153 147.619 174.154 145.991C174.154 145.991 174.154 118.798 174.149 105.197Z" fill="#390091"/>
<path d="M155.647 116.172V120.816H160.292V116.172H162.614V120.816H167.258V123.139H162.614V127.783H167.258V130.105H162.614V134.749H160.292V130.105H155.647V134.749H153.325V130.105H148.681V127.783H153.325V123.139H148.681V120.816H153.325V116.172H155.647ZM160.292 123.138H155.647V127.783H160.292V123.138Z" fill="white"/>
<path d="M130.334 92.848C142.448 92.848 153.024 99.4269 158.689 109.206L158.634 109.112L144.381 117.319C141.573 112.564 136.425 109.355 130.519 109.289L130.333 109.288C121.328 109.288 114.027 116.589 114.027 125.594C114.024 128.432 114.766 131.222 116.178 133.684C118.989 138.591 124.272 141.9 130.334 141.9C136.432 141.9 141.746 138.549 144.542 133.59L144.475 133.709L158.706 141.953C153.103 151.65 142.671 158.208 130.698 158.339L130.334 158.341C118.181 158.341 107.575 151.721 101.924 141.89C99.1653 137.091 97.5869 131.527 97.5869 125.594C97.5869 107.509 112.248 92.8477 130.333 92.8477L130.334 92.848Z" fill="white"/>
<defs>
<filter id="filter0_d_380_4078" x="0" y="0" width="260" height="260" filterUnits="userSpaceOnUse" color-interpolation-filters="sRGB">
<feFlood flood-opacity="0" result="BackgroundImageFix"/>
<feColorMatrix in="SourceAlpha" type="matrix" values="0 0 0 0 0 0 0 0 0 0 0 0 0 0 0 0 0 0 127 0" result="hardAlpha"/>
<feOffset dy="4"/>
<feGaussianBlur stdDeviation="20"/>
<feComposite in2="hardAlpha" operator="out"/>
<feColorMatrix type="matrix" values="0 0 0 0 0.0367917 0 0 0 0 0.0348958 0 0 0 0 0.0484375 0 0 0 0.1 0"/>
<feBlend mode="normal" in2="BackgroundImageFix" result="effect1_dropShadow_380_4078"/>
<feBlend mode="normal" in="SourceGraphic" in2="effect1_dropShadow_380_4078" result="shape"/>
</filter>
</defs>
</svg>
