<svg width="260" height="260" viewBox="0 0 260 260" fill="none" xmlns="http://www.w3.org/2000/svg">
<g filter="url(#filter0_d_380_4152)">
<rect x="40" y="36" width="180" height="180" fill="white"/>
<rect x="40.5" y="36.5" width="179" height="179" stroke="#D9D9D9"/>
</g>
<path d="M129.744 75.8555C104.358 75.8555 105.943 86.8645 105.943 86.8645L105.971 98.2701H130.197V101.694H96.3492C96.3492 101.694 80.1045 99.852 80.1045 125.467C80.1045 151.082 94.2832 150.173 94.2832 150.173H102.745V138.287C102.745 138.287 102.289 124.108 116.697 124.108H140.725C140.725 124.108 154.224 124.326 154.224 111.062V89.1289C154.224 89.1289 156.275 75.8555 129.744 75.8555ZM116.386 83.5255C116.959 83.525 117.526 83.6374 118.055 83.8562C118.584 84.0751 119.064 84.3961 119.469 84.8009C119.874 85.2057 120.195 85.6863 120.414 86.2153C120.633 86.7443 120.745 87.3112 120.744 87.8837C120.745 88.4562 120.633 89.0231 120.414 89.5521C120.195 90.0811 119.874 90.5618 119.469 90.9666C119.064 91.3713 118.584 91.6923 118.055 91.9112C117.526 92.13 116.959 92.2424 116.386 92.2419C115.814 92.2424 115.247 92.13 114.718 91.9112C114.189 91.6923 113.708 91.3713 113.303 90.9666C112.899 90.5618 112.578 90.0811 112.359 89.5521C112.14 89.0231 112.028 88.4562 112.028 87.8837C112.028 87.3112 112.14 86.7443 112.359 86.2153C112.578 85.6863 112.899 85.2057 113.303 84.8009C113.708 84.3961 114.189 84.0751 114.718 83.8562C115.247 83.6374 115.814 83.525 116.386 83.5255Z" fill="url(#paint0_linear_380_4152)"/>
<path d="M130.466 175.336C155.852 175.336 154.267 164.327 154.267 164.327L154.239 152.921H130.012V149.497H163.86C163.86 149.497 180.105 151.34 180.105 125.724C180.105 100.109 165.926 101.018 165.926 101.018H157.464V112.904C157.464 112.904 157.92 127.083 143.512 127.083H119.484C119.484 127.083 105.985 126.864 105.985 140.13V162.063C105.985 162.063 103.935 175.336 130.465 175.336H130.466ZM143.824 167.666C143.251 167.667 142.684 167.555 142.155 167.336C141.626 167.117 141.146 166.796 140.741 166.391C140.336 165.986 140.015 165.506 139.796 164.977C139.577 164.448 139.465 163.881 139.465 163.308C139.465 162.736 139.577 162.169 139.796 161.64C140.015 161.111 140.336 160.63 140.741 160.225C141.145 159.82 141.626 159.499 142.155 159.28C142.684 159.062 143.251 158.949 143.824 158.95C144.396 158.949 144.963 159.062 145.492 159.28C146.021 159.499 146.502 159.82 146.906 160.225C147.311 160.63 147.632 161.111 147.851 161.639C148.07 162.168 148.182 162.735 148.182 163.308C148.182 163.88 148.07 164.447 147.851 164.976C147.632 165.505 147.311 165.986 146.906 166.391C146.502 166.796 146.021 167.117 145.492 167.335C144.963 167.554 144.396 167.667 143.824 167.666V167.666Z" fill="url(#paint1_linear_380_4152)"/>
<defs>
<filter id="filter0_d_380_4152" x="0" y="0" width="260" height="260" filterUnits="userSpaceOnUse" color-interpolation-filters="sRGB">
<feFlood flood-opacity="0" result="BackgroundImageFix"/>
<feColorMatrix in="SourceAlpha" type="matrix" values="0 0 0 0 0 0 0 0 0 0 0 0 0 0 0 0 0 0 127 0" result="hardAlpha"/>
<feOffset dy="4"/>
<feGaussianBlur stdDeviation="20"/>
<feComposite in2="hardAlpha" operator="out"/>
<feColorMatrix type="matrix" values="0 0 0 0 0.0367917 0 0 0 0 0.0348958 0 0 0 0 0.0484375 0 0 0 0.1 0"/>
<feBlend mode="normal" in2="BackgroundImageFix" result="effect1_dropShadow_380_4152"/>
<feBlend mode="normal" in="SourceGraphic" in2="effect1_dropShadow_380_4152" result="shape"/>
</filter>
<linearGradient id="paint0_linear_380_4152" x1="89.7145" y1="84.8031" x2="139.271" y2="133.866" gradientUnits="userSpaceOnUse">
<stop stop-color="#387EB8"/>
<stop offset="1" stop-color="#366994"/>
</linearGradient>
<linearGradient id="paint1_linear_380_4152" x1="120.133" y1="116.308" x2="173.351" y2="166.618" gradientUnits="userSpaceOnUse">
<stop stop-color="#FFE052"/>
<stop offset="1" stop-color="#FFC331"/>
</linearGradient>
</defs>
</svg>
