<svg width="80" height="80" viewBox="0 0 80 80" fill="none" xmlns="http://www.w3.org/2000/svg">
<rect width="80" height="80" fill="white"/>
<path d="M59.6008 27.8984H20.8008V63.2484H59.6008V27.8984Z" fill="#66C3CD"/>
<path d="M40.2008 54.6047C45.1161 54.6047 49.1008 50.62 49.1008 45.7047C49.1008 40.7894 45.1161 36.8047 40.2008 36.8047C35.2854 36.8047 31.3008 40.7894 31.3008 45.7047C31.3008 50.62 35.2854 54.6047 40.2008 54.6047Z" fill="#2892FF"/>
<path d="M40.2006 43.2031C40.5375 43.2029 40.8709 43.2707 41.181 43.4025C41.491 43.5344 41.7712 43.7275 42.0047 43.9704C42.2382 44.2132 42.4202 44.5007 42.5398 44.8157C42.6594 45.1306 42.7141 45.4665 42.7006 45.8031C42.7006 46.4662 42.4372 47.1021 41.9684 47.5709C41.4995 48.0397 40.8636 48.3031 40.2006 48.3031C39.528 48.3036 38.8814 48.0435 38.3966 47.5773C37.9118 47.1111 37.6265 46.4752 37.6006 45.8031C37.6006 45.1136 37.8745 44.4523 38.3621 43.9647C38.8497 43.4771 39.511 43.2031 40.2006 43.2031Z" fill="#66C3CD"/>
<path d="M20.4008 11.3047C21.0002 11.3045 21.5937 11.4242 22.1463 11.6565C22.6989 11.8889 23.1994 12.2294 23.6186 12.6579C24.0378 13.0864 24.3672 13.5943 24.5874 14.1519C24.8075 14.7094 24.9141 15.3054 24.9008 15.9047C24.9008 17.0982 24.4267 18.2428 23.5828 19.0867C22.7388 19.9306 21.5942 20.4047 20.4008 20.4047C19.1979 20.405 18.0428 19.9341 17.1829 19.0929C16.3231 18.2518 15.8269 17.1073 15.8008 15.9047C15.8008 15.3006 15.9197 14.7024 16.1509 14.1443C16.3821 13.5863 16.7209 13.0792 17.1481 12.652C17.5752 12.2249 18.0823 11.886 18.6404 11.6548C19.1985 11.4237 19.7967 11.3047 20.4008 11.3047Z" fill="#2892FF"/>
<path d="M20.4008 48C21.5942 48 22.7388 48.4741 23.5828 49.318C24.4267 50.1619 24.9008 51.3065 24.9008 52.5C24.901 53.7029 24.4302 54.858 23.589 55.7178C22.7479 56.5777 21.6033 57.0738 20.4008 57.1C19.1888 57.0745 18.0335 56.5816 17.1763 55.7244C16.3191 54.8672 15.8263 53.712 15.8008 52.5C15.8269 51.2974 16.3231 50.1529 17.1829 49.3117C18.0428 48.4706 19.1979 47.9997 20.4008 48Z" fill="#2892FF"/>
<path d="M59.5002 48.0012C60.0995 47.9878 60.6954 48.0944 61.253 48.3145C61.8106 48.5347 62.3185 48.8641 62.747 49.2833C63.1755 49.7025 63.516 50.2031 63.7483 50.7556C63.9807 51.3082 64.1003 51.9017 64.1002 52.5012C64.1002 53.7212 63.6156 54.8912 62.7529 55.7538C61.8902 56.6165 60.7202 57.1011 59.5002 57.1011C58.2976 57.075 57.1531 56.5788 56.312 55.719C55.4708 54.8591 54.9999 53.704 55.0002 52.5012C54.9865 51.9065 55.0936 51.3152 55.3149 50.763C55.5362 50.2109 55.8671 49.7094 56.2878 49.2887C56.7084 48.8681 57.2099 48.5371 57.7621 48.3158C58.3142 48.0945 58.9055 47.9875 59.5002 48.0012Z" fill="#2892FF"/>
<path d="M59.5007 11.2981C60.1085 11.2845 60.7128 11.3941 61.2771 11.6204C61.8414 11.8468 62.3539 12.1851 62.7838 12.615C63.2137 13.0449 63.5521 13.5575 63.7784 14.1217C64.0047 14.686 64.1144 15.2903 64.1007 15.8981C64.1009 16.4976 63.9812 17.091 63.7489 17.6436C63.5165 18.1962 63.176 18.6968 62.7475 19.116C62.319 19.5352 61.8111 19.8645 61.2535 20.0847C60.6959 20.3049 60.1 20.4114 59.5007 20.3981C58.3072 20.3981 57.1626 19.924 56.3187 19.0801C55.4748 18.2362 55.0007 17.0916 55.0007 15.8981C54.9731 15.2952 55.0698 14.693 55.2849 14.1291C55.5 13.5651 55.8288 13.0514 56.2508 12.62C56.6729 12.1885 57.1792 11.8485 57.7383 11.6211C58.2974 11.3937 58.8973 11.2838 59.5007 11.2981Z" fill="#2892FF"/>
<path d="M65.4004 68.5016H50.4004V64.2016C50.3987 63.457 50.6158 62.7283 51.0247 62.1061C51.4336 61.4839 52.0163 60.9955 52.7004 60.7016L56.1004 59.6016L59.6004 61.9016L63.7004 59.6016L66.8004 60.6016C67.4658 60.8822 68.0315 61.3566 68.4238 61.9629C68.8161 62.5692 69.017 63.2796 69.0004 64.0016V68.4016L65.4004 68.5016Z" fill="#2892FF"/>
<path d="M26.3008 68.5016H11.3008V64.2016C11.2991 63.457 11.5162 62.7283 11.9251 62.1061C12.334 61.4839 12.9167 60.9955 13.6008 60.7016L17.1008 59.6016L20.6008 61.9016L24.6008 59.6016L27.8008 60.6016C28.4662 60.8822 29.0318 61.3566 29.4242 61.9629C29.8165 62.5692 30.0174 63.2796 30.0008 64.0016V68.4016L26.3008 68.5016Z" fill="#2892FF"/>
<path d="M15.3008 31.7984H11.3008V27.5984C11.3163 26.8449 11.5391 26.1103 11.9449 25.4752C12.3506 24.8401 12.9236 24.3292 13.6008 23.9984L17.1008 22.8984L20.6008 25.2984L24.6008 22.8984L27.8008 23.8984C28.4586 24.217 29.0137 24.7141 29.4027 25.3329C29.7917 25.9518 29.9989 26.6675 30.0008 27.3984V31.6984H15.3008V31.7984Z" fill="#2892FF"/>
<path d="M65.4008 31.8H50.3008V27.6C50.3233 26.861 50.5501 26.1428 50.9561 25.5249C51.3621 24.9071 51.9314 24.4138 52.6008 24.1L56.0008 23L59.5008 25.4L63.6008 23L66.7008 24C67.3586 24.3186 67.9137 24.8157 68.3027 25.4345C68.6917 26.0533 68.8989 26.7691 68.9008 27.5V31.8H65.4008Z" fill="#2892FF"/>
<path d="M40.2006 55.8031C37.5391 55.8033 34.9852 54.7529 33.0939 52.8803C31.2027 51.0078 30.1269 48.4645 30.1006 45.8031C30.1006 43.1244 31.1647 40.5555 33.0588 38.6613C34.9529 36.7672 37.5219 35.7031 40.2006 35.7031C42.8793 35.7031 45.4483 36.7672 47.3424 38.6613C49.2365 40.5555 50.3006 43.1244 50.3006 45.8031C50.2742 48.4645 49.1985 51.0078 47.3073 52.8803C45.416 54.7529 42.862 55.8033 40.2006 55.8031ZM40.2006 38.2031C38.1849 38.2031 36.2518 39.0038 34.8266 40.4291C33.4013 41.8544 32.6006 43.7875 32.6006 45.8031C32.6269 47.8014 33.4392 49.7089 34.8616 51.1126C36.2841 52.5163 38.2022 53.3033 40.2006 53.3031C42.1817 53.2772 44.0743 52.4787 45.4753 51.0778C46.8762 49.6768 47.6747 47.7842 47.7006 45.8031C47.7008 43.8047 46.9138 41.8866 45.5101 40.4642C44.1064 39.0417 42.1989 38.2294 40.2006 38.2031Z" fill="#00007E"/>
<path d="M40.2002 49.4982C39.6843 49.512 39.171 49.4205 38.6916 49.2294C38.2122 49.0383 37.7767 48.7515 37.4118 48.3865C37.0469 48.0216 36.7601 47.5862 36.569 47.1068C36.3779 46.6274 36.2864 46.1141 36.3002 45.5982C36.3 45.0906 36.4015 44.5882 36.5987 44.1205C36.7959 43.6528 37.0848 43.2294 37.4483 42.8752C37.8118 42.521 38.2426 42.2432 38.7153 42.0582C39.1879 41.8733 39.6928 41.7848 40.2002 41.7982C40.6992 41.7982 41.1933 41.8965 41.6544 42.0874C42.1154 42.2784 42.5343 42.5583 42.8872 42.9112C43.24 43.2641 43.5199 43.6829 43.7109 44.144C43.9019 44.605 44.0002 45.0992 44.0002 45.5982C44.0135 46.1056 43.9251 46.6105 43.7401 47.0831C43.5551 47.5557 43.2774 47.9865 42.9232 48.3501C42.569 48.7136 42.1455 49.0025 41.6778 49.1997C41.2102 49.3969 40.7077 49.4984 40.2002 49.4982ZM40.2002 44.3982C40.0207 44.3977 39.8431 44.4343 39.6784 44.5058C39.5138 44.5773 39.3658 44.6821 39.2437 44.8136C39.1216 44.9451 39.028 45.1005 38.9689 45.2699C38.9098 45.4394 38.8863 45.6193 38.9002 45.7982C38.9002 46.143 39.0371 46.4736 39.2809 46.7174C39.5247 46.9612 39.8554 47.0982 40.2002 47.0982C40.545 47.0982 40.8756 46.9612 41.1194 46.7174C41.3632 46.4736 41.5002 46.143 41.5002 45.7982C41.514 45.6193 41.4906 45.4394 41.4315 45.2699C41.3723 45.1005 41.2788 44.9451 41.1567 44.8136C41.0345 44.6821 40.8865 44.5773 40.7219 44.5058C40.5573 44.4343 40.3796 44.3977 40.2002 44.3982Z" fill="#00007E"/>
<path d="M30.0006 69.6998H26.3006C25.9558 69.6998 25.6251 69.5628 25.3813 69.319C25.1375 69.0752 25.0006 68.7446 25.0006 68.3998C24.9997 68.0452 25.1334 67.7034 25.3747 67.4436C25.616 67.1837 25.9469 67.0251 26.3006 66.9998H28.8006V63.9998C28.8254 63.5195 28.6921 63.0444 28.4212 62.6471C28.1503 62.2497 27.7567 61.9521 27.3006 61.7998L24.8006 60.9998L21.3006 62.9998C21.0978 63.0973 20.8756 63.1479 20.6506 63.1479C20.4255 63.1479 20.2034 63.0973 20.0006 62.9998L16.9006 60.9998L13.9006 61.8998C13.464 62.0992 13.0972 62.425 12.8477 62.835C12.5981 63.245 12.4772 63.7204 12.5006 64.1998V67.1998H15.3006C15.6642 67.2233 16.0067 67.3784 16.2644 67.636C16.522 67.8936 16.6771 68.2362 16.7006 68.5998C16.6753 68.9535 16.5167 69.2844 16.2568 69.5257C15.9969 69.767 15.6552 69.9007 15.3006 69.8998H11.3006C10.9558 69.8998 10.6251 69.7628 10.3813 69.519C10.1375 69.2752 10.0006 68.9445 10.0006 68.5998V64.2998C9.98501 63.2945 10.2855 62.3097 10.8597 61.4843C11.4338 60.659 12.2526 60.0348 13.2006 59.6998L16.7006 58.5998C16.8632 58.5358 17.0388 58.5115 17.2127 58.5289C17.3866 58.5463 17.5538 58.6049 17.7006 58.6998L20.6006 60.5998L23.9006 58.6998C24.0501 58.6118 24.217 58.5573 24.3896 58.54C24.5623 58.5228 24.7366 58.5431 24.9006 58.5998L28.1006 59.5998C29.0216 59.9635 29.8108 60.5977 30.3642 61.4189C30.9176 62.24 31.2092 63.2096 31.2006 64.1998V68.5998C31.3006 69.1998 30.7006 69.6998 30.0006 69.6998Z" fill="#00007E"/>
<path d="M26.301 69.7047H15.301C15.1303 69.7047 14.9612 69.6711 14.8035 69.6057C14.6458 69.5404 14.5025 69.4446 14.3817 69.3239C14.261 69.2032 14.1653 69.0599 14.0999 68.9022C14.0346 68.7445 14.001 68.5754 14.001 68.4047V64.7047C14.001 64.534 14.0346 64.3649 14.0999 64.2072C14.1653 64.0495 14.261 63.9062 14.3817 63.7855C14.5025 63.6648 14.6458 63.569 14.8035 63.5036C14.9612 63.4383 15.1303 63.4047 15.301 63.4047C15.6556 63.4038 15.9973 63.5375 16.2572 63.7788C16.5171 64.0201 16.6757 64.351 16.701 64.7047V67.0047H25.101V64.6047C25.1 64.2765 25.2232 63.9602 25.4457 63.7191C25.6683 63.478 25.9738 63.3299 26.301 63.3047C26.6291 63.3037 26.9455 63.4269 27.1866 63.6495C27.4277 63.872 27.5757 64.1775 27.601 64.5047V68.2047C27.6071 68.3859 27.5638 68.5654 27.4757 68.724C27.3876 68.8825 27.2581 69.0141 27.101 69.1047C27.0556 69.2807 26.9517 69.436 26.8063 69.5451C26.6609 69.6541 26.4827 69.7104 26.301 69.7047Z" fill="#00007E"/>
<path d="M20.401 58.4031C18.8442 58.3774 17.3584 57.7475 16.2575 56.6466C15.1566 55.5457 14.5267 54.0599 14.501 52.5031C14.5272 50.9558 15.1604 49.4806 16.264 48.3957C17.3676 47.3108 18.8534 46.7029 20.401 46.7031C21.1626 46.7031 21.9169 46.8531 22.6205 47.1446C23.3242 47.4361 23.9636 47.8633 24.5022 48.4019C25.0408 48.9405 25.468 49.5799 25.7595 50.2836C26.051 50.9873 26.201 51.7415 26.201 52.5031C26.2012 54.0507 25.5934 55.5365 24.5084 56.6401C23.4235 57.7437 21.9484 58.3769 20.401 58.4031ZM20.401 49.2031C19.5258 49.2031 18.6864 49.5508 18.0675 50.1697C17.4487 50.7885 17.101 51.6279 17.101 52.5031C17.101 53.3784 17.4487 54.2177 18.0675 54.8366C18.6864 55.4554 19.5258 55.8031 20.401 55.8031C21.2762 55.8031 22.1156 55.4554 22.7344 54.8366C23.3533 54.2177 23.701 53.3784 23.701 52.5031C23.701 51.6279 23.3533 50.7885 22.7344 50.1697C22.1156 49.5508 21.2762 49.2031 20.401 49.2031Z" fill="#00007E"/>
<path d="M30.0001 33.0982H26.3001C25.9554 33.0982 25.6247 32.9613 25.3809 32.7175C25.1371 32.4737 25.0001 32.143 25.0001 31.7982C25.0001 31.4534 25.1371 31.1228 25.3809 30.879C25.6247 30.6352 25.9554 30.4982 26.3001 30.4982H28.8001V27.4982C28.8249 27.018 28.6916 26.5428 28.4207 26.1455C28.1498 25.7482 27.7562 25.4506 27.3001 25.2982L24.8001 24.4982L21.3001 26.4982C21.0973 26.5957 20.8752 26.6464 20.6501 26.6464C20.4251 26.6464 20.2029 26.5957 20.0001 26.4982L16.9001 24.4982L13.9001 25.3982C13.4635 25.5976 13.0968 25.9234 12.8472 26.3334C12.5976 26.7434 12.4767 27.2188 12.5001 27.6982V30.6982H15.3001C15.6548 30.6973 15.9965 30.831 16.2563 31.0723C16.5162 31.3136 16.6748 31.6445 16.7001 31.9982C16.6748 32.3519 16.5162 32.6828 16.2563 32.9241C15.9965 33.1654 15.6548 33.2991 15.3001 33.2982H11.3001C10.9554 33.2982 10.6247 33.1612 10.3809 32.9174C10.1371 32.6736 10.0001 32.343 10.0001 31.9982V27.7982C9.99297 26.7825 10.2954 25.7887 10.867 24.9491C11.4387 24.1094 12.2525 23.4638 13.2001 23.0982L16.7001 21.9982C16.8628 21.9343 17.0383 21.9099 17.2122 21.9273C17.3861 21.9447 17.5534 22.0033 17.7001 22.0982L20.6001 23.9982L23.9001 22.0982C24.0497 22.0102 24.2165 21.9557 24.3892 21.9385C24.5618 21.9212 24.7361 21.9416 24.9001 21.9982L28.1001 22.9982C29.0211 23.3909 29.8062 24.0459 30.3575 24.8817C30.9087 25.7175 31.2018 26.697 31.2001 27.6982V31.9982C31.3001 32.4982 30.7001 33.0982 30.0001 33.0982Z" fill="#00007E"/>
<path d="M26.301 33.1047H15.301C15.1303 33.1047 14.9612 33.0711 14.8035 33.0057C14.6458 32.9404 14.5025 32.8447 14.3817 32.7239C14.261 32.6032 14.1653 32.4599 14.0999 32.3022C14.0346 32.1445 14.001 31.9754 14.001 31.8047V28.2047C14.001 28.034 14.0346 27.8649 14.0999 27.7072C14.1653 27.5495 14.261 27.4062 14.3817 27.2855C14.5025 27.1648 14.6458 27.069 14.8035 27.0036C14.9612 26.9383 15.1303 26.9047 15.301 26.9047C15.6556 26.9038 15.9973 27.0375 16.2572 27.2788C16.5171 27.5201 16.6757 27.851 16.701 28.2047V30.5047H25.101V28.1047C25.1 27.7765 25.2232 27.4602 25.4457 27.2191C25.6683 26.978 25.9738 26.8299 26.301 26.8047C26.6291 26.8037 26.9455 26.9269 27.1866 27.1495C27.4277 27.372 27.5757 27.6775 27.601 28.0047V31.6047C27.6071 31.7859 27.5638 31.9655 27.4757 32.124C27.3876 32.2825 27.2581 32.4141 27.101 32.5047C27.0556 32.6807 26.9517 32.836 26.8063 32.9451C26.6609 33.0542 26.4827 33.1104 26.301 33.1047Z" fill="#00007E"/>
<path d="M20.401 21.7C18.8534 21.7002 17.3676 21.0923 16.264 20.0074C15.1604 18.9225 14.5272 17.4474 14.501 15.9C14.501 14.3352 15.1226 12.8345 16.2291 11.7281C17.3355 10.6216 18.8362 10 20.401 10C21.1711 9.99989 21.9336 10.1532 22.6439 10.4509C23.3542 10.7486 23.9981 11.1848 24.538 11.734C25.0779 12.2832 25.503 12.9344 25.7885 13.6497C26.074 14.365 26.2143 15.13 26.201 15.9C26.201 17.4382 25.5899 18.9135 24.5022 20.0012C23.4145 21.0889 21.9392 21.7 20.401 21.7ZM20.401 12.6C19.5167 12.626 18.6774 12.9957 18.0612 13.6305C17.4451 14.2653 17.1006 15.1153 17.101 16C17.101 16.8752 17.4487 17.7146 18.0675 18.3334C18.6864 18.9523 19.5258 19.3 20.401 19.3C21.2762 19.3 22.1156 18.9523 22.7344 18.3334C23.3533 17.7146 23.701 16.8752 23.701 16C23.7014 15.1153 23.3569 14.2653 22.7408 13.6305C22.1246 12.9957 21.2853 12.626 20.401 12.6Z" fill="#00007E"/>
<path d="M69.1002 69.6998H65.5002C65.1554 69.6998 64.8247 69.5628 64.5809 69.319C64.3371 69.0752 64.2002 68.7446 64.2002 68.3998C64.1993 68.0452 64.333 67.7034 64.5743 67.4436C64.8156 67.1837 65.1465 67.0251 65.5002 66.9998H67.9002V63.9998C67.9169 63.5345 67.7921 63.075 67.5421 62.6822C67.2921 62.2894 66.9288 61.9817 66.5002 61.7998L63.9002 60.9998L60.4002 62.9998C60.1802 63.0992 59.9416 63.1506 59.7002 63.1506C59.4588 63.1506 59.2202 63.0992 59.0002 62.9998L55.9002 60.9998L53.0002 61.8998C52.5636 62.0992 52.1968 62.425 51.9473 62.835C51.6977 63.245 51.5768 63.7204 51.6002 64.1998V67.1998H54.4002C54.7539 67.2251 55.0848 67.3837 55.3261 67.6436C55.5674 67.9034 55.7011 68.2452 55.7002 68.5998C55.7002 68.9445 55.5632 69.2752 55.3194 69.519C55.0756 69.7628 54.745 69.8998 54.4002 69.8998H50.4002C50.0554 69.8998 49.7248 69.7628 49.481 69.519C49.2372 69.2752 49.1002 68.9445 49.1002 68.5998V64.2998C49.0846 63.2945 49.3851 62.3097 49.9593 61.4843C50.5334 60.659 51.3522 60.0348 52.3002 59.6998L55.7002 58.5998C55.8628 58.5358 56.0384 58.5115 56.2123 58.5289C56.3862 58.5463 56.5534 58.6049 56.7002 58.6998L59.6002 60.5998L63.0002 58.6998C63.1497 58.6118 63.3166 58.5573 63.4892 58.54C63.6618 58.5228 63.8362 58.5431 64.0002 58.5998L67.1002 59.5998C68.0212 59.9635 68.8104 60.5977 69.3638 61.4189C69.9172 62.24 70.2088 63.2096 70.2002 64.1998V68.5998C70.2159 68.7481 70.1983 68.898 70.1486 69.0387C70.0989 69.1793 70.0183 69.307 69.9129 69.4125C69.8074 69.5179 69.6797 69.5985 69.5391 69.6482C69.3985 69.6979 69.2485 69.7155 69.1002 69.6998Z" fill="#00007E"/>
<path d="M65.4006 69.7047H54.4006C54.0558 69.7047 53.7252 69.5677 53.4814 69.3239C53.2376 69.0801 53.1006 68.7495 53.1006 68.4047V64.7047C53.1006 64.3599 53.2376 64.0293 53.4814 63.7855C53.7252 63.5417 54.0558 63.4047 54.4006 63.4047C54.7454 63.4047 55.076 63.5417 55.3198 63.7855C55.5636 64.0293 55.7006 64.3599 55.7006 64.7047V67.0047H64.2006V64.6047C64.1996 64.2765 64.3228 63.9602 64.5453 63.7191C64.7679 63.478 65.0734 63.3299 65.4006 63.3047C65.7223 63.3245 66.0273 63.4547 66.2642 63.6733C66.501 63.8919 66.6552 64.1856 66.7006 64.5047V68.2047C66.7084 68.3755 66.6764 68.5457 66.6069 68.702C66.5375 68.8582 66.4326 68.9961 66.3006 69.1047C66.2529 69.2992 66.134 69.4687 65.9674 69.5798C65.8007 69.6909 65.5985 69.7355 65.4006 69.7047Z" fill="#00007E"/>
<path d="M59.5002 58.404C57.9528 58.3778 56.4777 57.7446 55.3928 56.641C54.3078 55.5373 53.7 54.0516 53.7002 52.504C53.7002 51.7423 53.8502 50.9881 54.1417 50.2844C54.4332 49.5807 54.8604 48.9414 55.399 48.4028C55.9376 47.8642 56.5769 47.437 57.2806 47.1455C57.9843 46.854 58.7385 46.704 59.5002 46.704C60.2702 46.6907 61.0352 46.8309 61.7505 47.1165C62.4657 47.402 63.117 47.8271 63.6662 48.367C64.2154 48.9069 64.6516 49.5508 64.9493 50.2611C65.247 50.9714 65.4003 51.7339 65.4002 52.504C65.4002 54.0688 64.7786 55.5694 63.6721 56.6759C62.5657 57.7824 61.065 58.404 59.5002 58.404ZM59.5002 49.204C58.625 49.204 57.7856 49.5517 57.1667 50.1705C56.5479 50.7894 56.2002 51.6288 56.2002 52.504C56.2002 53.3792 56.5479 54.2186 57.1667 54.8374C57.7856 55.4563 58.625 55.804 59.5002 55.804C60.3849 55.8044 61.2348 55.4599 61.8697 54.8438C62.5045 54.2276 62.8742 53.3883 62.9002 52.504C62.8742 51.6197 62.5045 50.7804 61.8697 50.1642C61.2348 49.5481 60.3849 49.2036 59.5002 49.204Z" fill="#00007E"/>
<path d="M69.1006 33.0982H65.5006C65.1558 33.0982 64.8251 32.9613 64.5813 32.7175C64.3375 32.4737 64.2006 32.143 64.2006 31.7982C64.2006 31.4534 64.3375 31.1228 64.5813 30.879C64.8251 30.6352 65.1558 30.4982 65.5006 30.4982H67.9006V27.4982C67.9173 27.0329 67.7925 26.5735 67.5425 26.1806C67.2925 25.7878 66.9292 25.4801 66.5006 25.2982L63.9006 24.4982L60.4006 26.4982C60.1806 26.5976 59.942 26.649 59.7006 26.649C59.4592 26.649 59.2206 26.5976 59.0006 26.4982L55.9006 24.4982L53.0006 25.3982C52.58 25.591 52.2241 25.9012 51.9757 26.2915C51.7273 26.6818 51.5971 27.1356 51.6006 27.5982V30.5982H54.4006C54.7454 30.5982 55.076 30.7352 55.3198 30.979C55.5636 31.2228 55.7006 31.5534 55.7006 31.8982C55.7006 32.243 55.5636 32.5736 55.3198 32.8174C55.076 33.0612 54.7454 33.1982 54.4006 33.1982H50.4006C50.0558 33.1982 49.7252 33.0612 49.4814 32.8174C49.2376 32.5736 49.1006 32.243 49.1006 31.8982V27.6982C49.0997 26.6963 49.406 25.7182 49.9782 24.8957C50.5503 24.0732 51.3609 23.4458 52.3006 23.0982L55.7006 21.9982C55.8632 21.9343 56.0388 21.9099 56.2127 21.9273C56.3866 21.9447 56.5538 22.0033 56.7006 22.0982L59.6006 23.9982L63.0006 22.0982C63.1501 22.0102 63.317 21.9557 63.4896 21.9385C63.6622 21.9212 63.8366 21.9416 64.0006 21.9982L67.1006 22.9982C68.0216 23.3909 68.8067 24.0459 69.3579 24.8817C69.9092 25.7175 70.2023 26.697 70.2006 27.6982V31.9982C70.2006 32.29 70.0847 32.5697 69.8784 32.776C69.6721 32.9823 69.3923 33.0982 69.1006 33.0982Z" fill="#00007E"/>
<path d="M65.4006 33.1047H54.4006C54.0558 33.1047 53.7252 32.9677 53.4814 32.7239C53.2376 32.4801 53.1006 32.1495 53.1006 31.8047V28.2047C53.1006 27.8599 53.2376 27.5293 53.4814 27.2855C53.7252 27.0417 54.0558 26.9047 54.4006 26.9047C54.7454 26.9047 55.076 27.0417 55.3198 27.2855C55.5636 27.5293 55.7006 27.8599 55.7006 28.2047V30.5047H64.2006V28.1047C64.1996 27.7765 64.3228 27.4602 64.5453 27.2191C64.7679 26.978 65.0734 26.8299 65.4006 26.8047C65.7223 26.8245 66.0273 26.9547 66.2642 27.1733C66.501 27.3919 66.6552 27.6856 66.7006 28.0047V31.6047C66.7084 31.7755 66.6764 31.9457 66.6069 32.102C66.5375 32.2582 66.4326 32.3961 66.3006 32.5047C66.2529 32.6992 66.134 32.8687 65.9674 32.9798C65.8007 33.0909 65.5985 33.1355 65.4006 33.1047Z" fill="#00007E"/>
<path d="M59.501 21.7009C58.7394 21.7009 57.9852 21.5508 57.2815 21.2594C56.5778 20.9679 55.9384 20.5407 55.3998 20.0021C54.8613 19.4635 54.434 18.8241 54.1426 18.1204C53.8511 17.4167 53.7011 16.6625 53.7011 15.9009C53.6878 15.1308 53.828 14.3658 54.1135 13.6506C54.399 12.9353 54.8242 12.2841 55.3641 11.7349C55.904 11.1856 56.5479 10.7495 57.2581 10.4517C57.9684 10.154 58.7309 10.0008 59.501 10.0009C60.2796 9.98733 61.0529 10.1307 61.7748 10.4224C62.4967 10.7141 63.1526 11.1482 63.7031 11.6988C64.2537 12.2493 64.6878 12.9052 64.9795 13.6271C65.2712 14.349 65.4146 15.1223 65.4011 15.9009C65.4012 16.671 65.2479 17.4335 64.9502 18.1438C64.6525 18.854 64.2163 19.4979 63.6671 20.0378C63.1179 20.5777 62.4666 21.0029 61.7513 21.2884C61.0361 21.5739 60.2711 21.7141 59.501 21.7009ZM59.501 12.6009C58.6168 12.6269 57.7774 12.9965 57.1613 13.6314C56.5451 14.2662 56.2007 15.1162 56.2011 16.0009C56.2011 16.8761 56.5487 17.7154 57.1676 18.3343C57.7865 18.9532 58.6258 19.3009 59.501 19.3009C60.3857 19.3012 61.2357 18.9568 61.8705 18.3406C62.5054 17.7245 62.875 16.8852 62.9011 16.0009C62.9011 15.0991 62.5428 14.2343 61.9052 13.5967C61.2676 12.9591 60.4028 12.6009 59.501 12.6009Z" fill="#00007E"/>
<path d="M50.4002 28.8031H30.0002C29.6554 28.8031 29.3248 28.6662 29.081 28.4224C28.8372 28.1786 28.7002 27.8479 28.7002 27.5031C28.7002 27.1584 28.8372 26.8277 29.081 26.5839C29.3248 26.3401 29.6554 26.2031 30.0002 26.2031H50.4002C50.745 26.2031 51.0756 26.3401 51.3194 26.5839C51.5632 26.8277 51.7002 27.1584 51.7002 27.5031C51.6769 27.8402 51.5324 28.1575 51.2935 28.3964C51.0545 28.6354 50.7373 28.7798 50.4002 28.8031Z" fill="#00007E"/>
<path d="M50.4002 64.6H30.0002C29.6554 64.6 29.3248 64.463 29.081 64.2192C28.8372 63.9754 28.7002 63.6448 28.7002 63.3C28.7002 62.9552 28.8372 62.6245 29.081 62.3807C29.3248 62.1369 29.6554 62 30.0002 62H50.4002C50.745 62 51.0756 62.1369 51.3194 62.3807C51.5632 62.6245 51.7002 62.9552 51.7002 63.3C51.7002 63.4707 51.6666 63.6398 51.6012 63.7975C51.5359 63.9552 51.4401 64.0985 51.3194 64.2192C51.1987 64.34 51.0554 64.4357 50.8977 64.501C50.74 64.5664 50.5709 64.6 50.4002 64.6Z" fill="#00007E"/>
<path d="M59.5002 49.2038C59.1554 49.2038 58.8247 49.0669 58.5809 48.8231C58.3372 48.5793 58.2002 48.2486 58.2002 47.9038V31.8038C58.2002 31.4591 58.3372 31.1284 58.5809 30.8846C58.8247 30.6408 59.1554 30.5039 59.5002 30.5039C59.6791 30.49 59.859 30.5134 60.0284 30.5725C60.1979 30.6317 60.3533 30.7252 60.4848 30.8474C60.6163 30.9695 60.7211 31.1175 60.7926 31.2821C60.8641 31.4467 60.9007 31.6244 60.9002 31.8038V47.9038C60.8749 48.2576 60.7162 48.5885 60.4564 48.8298C60.1965 49.071 59.8548 49.2047 59.5002 49.2038Z" fill="#00007E"/>
<path d="M20.4006 49.2C20.0558 49.2 19.7252 49.063 19.4814 48.8192C19.2376 48.5754 19.1006 48.2448 19.1006 47.9V31.8C19.1006 31.4552 19.2376 31.1245 19.4814 30.8807C19.7252 30.6369 20.0558 30.5 20.4006 30.5C20.7454 30.5 21.076 30.6369 21.3198 30.8807C21.5636 31.1245 21.7006 31.4552 21.7006 31.8V47.9C21.7006 48.2448 21.5636 48.5754 21.3198 48.8192C21.076 49.063 20.7454 49.2 20.4006 49.2Z" fill="#00007E"/>
<path d="M40.2004 38.2031C39.8556 38.2031 39.525 38.0662 39.2812 37.8224C39.0374 37.5786 38.9004 37.2479 38.9004 36.9031V28.0031C38.9004 27.6584 39.0374 27.3277 39.2812 27.0839C39.525 26.8401 39.8556 26.7031 40.2004 26.7031C40.5452 26.7031 40.8758 26.8401 41.1196 27.0839C41.3634 27.3277 41.5004 27.6584 41.5004 28.0031V36.9031C41.5004 37.2479 41.3634 37.5786 41.1196 37.8224C40.8758 38.0662 40.5452 38.2031 40.2004 38.2031Z" fill="#00007E"/>
<path d="M40.2004 64.6031C39.8556 64.6031 39.525 64.4662 39.2812 64.2224C39.0374 63.9786 38.9004 63.6479 38.9004 63.3031V54.5031C38.9004 54.1584 39.0374 53.8277 39.2812 53.5839C39.525 53.3401 39.8556 53.2031 40.2004 53.2031C40.5452 53.2031 40.8758 53.3401 41.1196 53.5839C41.3634 53.8277 41.5004 54.1584 41.5004 54.5031V63.4031C41.501 63.5695 41.467 63.7342 41.4005 63.8867C41.3341 64.0392 41.2366 64.1762 41.1143 64.2891C40.9921 64.4019 40.8477 64.4881 40.6904 64.5422C40.5331 64.5962 40.3662 64.617 40.2004 64.6031Z" fill="#00007E"/>
<path d="M59.1002 47.0007H49.1002C48.7289 47.0007 48.3728 46.8532 48.1103 46.5907C47.8477 46.3281 47.7002 45.972 47.7002 45.6007C47.6997 45.4212 47.7363 45.2436 47.8078 45.079C47.8793 44.9144 47.9841 44.7664 48.1156 44.6442C48.2471 44.5221 48.4025 44.4285 48.572 44.3694C48.7414 44.3103 48.9213 44.2869 49.1002 44.3007H59.2002C59.3791 44.2869 59.559 44.3103 59.7284 44.3694C59.8979 44.4285 60.0533 44.5221 60.1848 44.6442C60.3163 44.7664 60.4211 44.9144 60.4926 45.079C60.5641 45.2436 60.6007 45.4212 60.6002 45.6007C60.6007 45.7933 60.5614 45.9839 60.4849 46.1606C60.4084 46.3373 60.2962 46.4964 60.1554 46.6278C60.0147 46.7592 59.8483 46.8601 59.6667 46.9243C59.4851 46.9885 59.2923 47.0145 59.1002 47.0007Z" fill="#00007E"/>
<path d="M31.4005 47.0047H21.4005C21.2211 47.0052 21.0434 46.9686 20.8788 46.8971C20.7142 46.8256 20.5662 46.7208 20.444 46.5893C20.3219 46.4578 20.2283 46.3024 20.1692 46.1329C20.1101 45.9635 20.0867 45.7836 20.1005 45.6047C20.1005 45.2599 20.2375 44.9293 20.4813 44.6855C20.7251 44.4417 21.0557 44.3047 21.4005 44.3047H31.4005C31.7453 44.3047 32.076 44.4417 32.3198 44.6855C32.5636 44.9293 32.7005 45.2599 32.7005 45.6047C32.7014 45.9593 32.5678 46.301 32.3265 46.5609C32.0852 46.8207 31.7542 46.9794 31.4005 47.0047Z" fill="#00007E"/>
</svg>
