<svg width="260" height="260" viewBox="0 0 260 260" fill="none" xmlns="http://www.w3.org/2000/svg">
<g filter="url(#filter0_d_380_4144)">
<rect x="40" y="36" width="180" height="180" fill="white"/>
<rect x="40.5" y="36.5" width="179" height="179" stroke="#D9D9D9"/>
</g>
<path d="M130.381 134.41C135.25 134.41 139.197 130.463 139.197 125.594C139.197 120.725 135.25 116.777 130.381 116.777C125.512 116.777 121.564 120.725 121.564 125.594C121.564 130.463 125.512 134.41 130.381 134.41Z" fill="#61DAFB"/>
<path d="M130.381 143.656C156.508 143.656 177.687 135.569 177.687 125.594C177.687 115.618 156.508 107.531 130.381 107.531C104.254 107.531 83.0742 115.618 83.0742 125.594C83.0742 135.569 104.254 143.656 130.381 143.656Z" stroke="#61DAFB" stroke-width="5"/>
<path d="M114.738 134.625C127.802 157.251 145.395 171.55 154.034 166.562C162.673 161.575 159.087 139.189 146.023 116.562C132.96 93.9361 115.367 79.6372 106.728 84.625C98.0883 89.6128 101.675 111.999 114.738 134.625Z" stroke="#61DAFB" stroke-width="5"/>
<path d="M114.738 116.562C101.675 139.189 98.0884 161.575 106.728 166.562C115.367 171.55 132.96 157.251 146.023 134.625C159.087 111.999 162.673 89.6128 154.034 84.625C145.395 79.6372 127.802 93.936 114.738 116.562Z" stroke="#61DAFB" stroke-width="5"/>
<defs>
<filter id="filter0_d_380_4144" x="0" y="0" width="260" height="260" filterUnits="userSpaceOnUse" color-interpolation-filters="sRGB">
<feFlood flood-opacity="0" result="BackgroundImageFix"/>
<feColorMatrix in="SourceAlpha" type="matrix" values="0 0 0 0 0 0 0 0 0 0 0 0 0 0 0 0 0 0 127 0" result="hardAlpha"/>
<feOffset dy="4"/>
<feGaussianBlur stdDeviation="20"/>
<feComposite in2="hardAlpha" operator="out"/>
<feColorMatrix type="matrix" values="0 0 0 0 0.0367917 0 0 0 0 0.0348958 0 0 0 0 0.0484375 0 0 0 0.1 0"/>
<feBlend mode="normal" in2="BackgroundImageFix" result="effect1_dropShadow_380_4144"/>
<feBlend mode="normal" in="SourceGraphic" in2="effect1_dropShadow_380_4144" result="shape"/>
</filter>
</defs>
</svg>
